<?xml version="1.0" encoding="UTF-8" standalone="no"?>
<!DOCTYPE svg PUBLIC "-//W3C//DTD SVG 1.1//EN"
 "http://www.w3.org/Graphics/SVG/1.1/DTD/svg11.dtd">
<!-- Generated by graphviz version 2.38.0 (20140413.2041)
 -->
<!-- Title: src/audio/audio_system.cpp Pages: 1 -->
<!--zoomable 330 -->
<svg id="main" version="1.1" xmlns="http://www.w3.org/2000/svg" xmlns:xlink="http://www.w3.org/1999/xlink" xml:space="preserve" onload="init(evt)">
<style type="text/css"><![CDATA[
.edge:hover path { stroke: red; }
.edge:hover polygon { stroke: red; fill: red; }
]]></style>
<script type="text/javascript"><![CDATA[
var edges = document.getElementsByTagName('g');
if (edges && edges.length) {
  for (var i=0;i<edges.length;i++) {
    if (edges[i].id.substr(0,4)=='edge') {
      edges[i].setAttribute('class','edge');
    }
  }
}
]]></script>
        <defs>
                <circle id="rim" cx="0" cy="0" r="7"/>
                <circle id="rim2" cx="0" cy="0" r="3.5"/>
                <g id="zoomPlus">
                        <use xlink:href="#rim" fill="#404040">
                                <set attributeName="fill" to="#808080" begin="zoomplus.mouseover" end="zoomplus.mouseout"/>
                        </use>
                        <path d="M-4,0h8M0,-4v8" fill="none" stroke="white" stroke-width="1.5" pointer-events="none"/>
                </g>
                <g id="zoomMin">
                        <use xlink:href="#rim" fill="#404040">
                                <set attributeName="fill" to="#808080" begin="zoomminus.mouseover" end="zoomminus.mouseout"/>
                        </use>
                        <path d="M-4,0h8" fill="none" stroke="white" stroke-width="1.5" pointer-events="none"/>
                </g>
                <g id="dirArrow">
                        <path fill="none" stroke="white" stroke-width="1.5" d="M0,-3.0v7 M-2.5,-0.5L0,-3.0L2.5,-0.5"/>
                </g>
               <g id="resetDef">
                       <use xlink:href="#rim2" fill="#404040">
                               <set attributeName="fill" to="#808080" begin="reset.mouseover" end="reset.mouseout"/>
                       </use>
               </g>
        </defs>

<script type="text/javascript">
var viewWidth = 2381;
var viewHeight = 330;
var sectionId = 'dynsection-0';
</script>
<script xlink:href="svgpan.js"/>
<svg id="graph" class="graph">
<g id="viewport">
<title>src/audio/audio_system.cpp</title>
<polygon fill="white" stroke="none" points="-4,4 -4,-326 2377.44,-326 2377.44,4 -4,4"/>
<!-- Node1 -->
<g id="node1" class="node"><title>Node1</title>
<polygon fill="#bfbfbf" stroke="black" points="832,-302.5 832,-321.5 978,-321.5 978,-302.5 832,-302.5"/>
<text text-anchor="middle" x="905" y="-309.5" font-family="Helvetica,sans-Serif" font-size="10.00">src/audio/audio_system.cpp</text>
</g>
<!-- Node2 -->
<g id="node2" class="node"><title>Node2</title>
<polygon fill="white" stroke="#bfbfbf" points="0,-241 0,-260 60,-260 60,-241 0,-241"/>
<text text-anchor="middle" x="30" y="-248" font-family="Helvetica,sans-Serif" font-size="10.00">algorithm</text>
</g>
<!-- Node1&#45;&gt;Node2 -->
<g id="edge1" class="edge"><title>Node1&#45;&gt;Node2</title>
<path fill="none" stroke="midnightblue" d="M831.888,-309.889C656.116,-306.763 213.711,-296.068 69,-266 65.7466,-265.324 62.4032,-264.423 59.1071,-263.399"/>
<polygon fill="midnightblue" stroke="midnightblue" points="60.0933,-260.037 49.4985,-260.063 57.7975,-266.649 60.0933,-260.037"/>
</g>
<!-- Node3 -->
<g id="node3" class="node"><title>Node3</title>
<polygon fill="white" stroke="#bfbfbf" points="78.5,-241 78.5,-260 115.5,-260 115.5,-241 78.5,-241"/>
<text text-anchor="middle" x="97" y="-248" font-family="Helvetica,sans-Serif" font-size="10.00">map</text>
</g>
<!-- Node1&#45;&gt;Node3 -->
<g id="edge2" class="edge"><title>Node1&#45;&gt;Node3</title>
<path fill="none" stroke="midnightblue" d="M831.912,-310.057C665.354,-307.373 261.858,-297.709 130,-266 127.639,-265.432 125.235,-264.703 122.855,-263.875"/>
<polygon fill="midnightblue" stroke="midnightblue" points="123.97,-260.551 113.386,-260.071 121.36,-267.046 123.97,-260.551"/>
</g>
<!-- Node4 -->
<g id="node4" class="node"><title>Node4</title>
<polygon fill="white" stroke="#bfbfbf" points="607,-0.5 607,-19.5 661,-19.5 661,-0.5 607,-0.5"/>
<text text-anchor="middle" x="634" y="-7.5" font-family="Helvetica,sans-Serif" font-size="10.00">sstream</text>
</g>
<!-- Node1&#45;&gt;Node4 -->
<g id="edge3" class="edge"><title>Node1&#45;&gt;Node4</title>
<path fill="none" stroke="midnightblue" d="M831.86,-311.39C654.745,-311.661 213.628,-308.058 163,-266 136.218,-243.752 144,-224.817 144,-190 144,-190 144,-190 144,-132 144,-38.7431 482.753,-16.9145 596.937,-12.2056"/>
<polygon fill="midnightblue" stroke="midnightblue" points="597.102,-15.7019 606.958,-11.813 596.828,-8.70727 597.102,-15.7019"/>
</g>
<!-- Node5 -->
<g id="node5" class="node"><title>Node5</title>
<polygon fill="white" stroke="#bfbfbf" points="172,-241 172,-260 234,-260 234,-241 172,-241"/>
<text text-anchor="middle" x="203" y="-248" font-family="Helvetica,sans-Serif" font-size="10.00">stdexcept</text>
</g>
<!-- Node1&#45;&gt;Node5 -->
<g id="edge4" class="edge"><title>Node1&#45;&gt;Node5</title>
<path fill="none" stroke="midnightblue" d="M831.829,-311.757C709.705,-311.739 457.105,-306.226 248,-266 244.033,-265.237 239.928,-264.231 235.884,-263.104"/>
<polygon fill="midnightblue" stroke="midnightblue" points="236.66,-259.682 226.075,-260.123 234.625,-266.38 236.66,-259.682"/>
</g>
<!-- Node6 -->
<g id="node6" class="node"><title>Node6</title>
<polygon fill="white" stroke="#bfbfbf" points="1898.5,-0.5 1898.5,-19.5 1941.5,-19.5 1941.5,-0.5 1898.5,-0.5"/>
<text text-anchor="middle" x="1920" y="-7.5" font-family="Helvetica,sans-Serif" font-size="10.00">string</text>
</g>
<!-- Node1&#45;&gt;Node6 -->
<g id="edge5" class="edge"><title>Node1&#45;&gt;Node6</title>
<path fill="none" stroke="midnightblue" d="M978.212,-309.693C1192.74,-305.602 1817.48,-291.754 2020,-266 2178.77,-245.809 2372,-350.049 2372,-190 2372,-190 2372,-190 2372,-132 2372,-96.9565 2377.74,-78.6458 2351,-56 2320.63,-30.2822 2046.02,-16.3353 1951.66,-12.2707"/>
<polygon fill="midnightblue" stroke="midnightblue" points="1951.72,-8.77014 1941.58,-11.8447 1951.42,-15.7639 1951.72,-8.77014"/>
</g>
<!-- Node7 -->
<g id="node7" class="node"><title>Node7</title>
<polygon fill="white" stroke="#bfbfbf" points="562.5,-62 562.5,-81 603.5,-81 603.5,-62 562.5,-62"/>
<text text-anchor="middle" x="583" y="-69" font-family="Helvetica,sans-Serif" font-size="10.00">sox.h</text>
</g>
<!-- Node1&#45;&gt;Node7 -->
<g id="edge6" class="edge"><title>Node1&#45;&gt;Node7</title>
<path fill="none" stroke="midnightblue" d="M831.998,-310.549C679.401,-308.904 337.55,-301.277 299,-266 252.057,-223.043 258.164,-164.961 306,-123 342.302,-91.1566 487.556,-78.3857 551.97,-74.2148"/>
<polygon fill="midnightblue" stroke="midnightblue" points="552.537,-77.6865 562.301,-73.5753 552.104,-70.6999 552.537,-77.6865"/>
</g>
<!-- Node8 -->
<g id="node8" class="node"><title>Node8</title>
<polygon fill="white" stroke="#bfbfbf" points="1560.5,-123.5 1560.5,-142.5 1629.5,-142.5 1629.5,-123.5 1560.5,-123.5"/>
<text text-anchor="middle" x="1595" y="-130.5" font-family="Helvetica,sans-Serif" font-size="10.00">portaudio.h</text>
</g>
<!-- Node1&#45;&gt;Node8 -->
<g id="edge7" class="edge"><title>Node1&#45;&gt;Node8</title>
<path fill="none" stroke="midnightblue" d="M978.144,-308.955C1153.1,-303.709 1582.83,-288.579 1604,-266 1632.98,-235.096 1615.53,-180.206 1603.51,-151.933"/>
<polygon fill="midnightblue" stroke="midnightblue" points="1606.57,-150.195 1599.28,-142.506 1600.18,-153.062 1606.57,-150.195"/>
</g>
<!-- Node9 -->
<g id="node9" class="node"><title>Node9</title>
<polygon fill="white" stroke="#bfbfbf" points="366,-241 366,-260 498,-260 498,-241 366,-241"/>
<text text-anchor="middle" x="432" y="-248" font-family="Helvetica,sans-Serif" font-size="10.00">portaudiocpp/Device.hxx</text>
</g>
<!-- Node1&#45;&gt;Node9 -->
<g id="edge8" class="edge"><title>Node1&#45;&gt;Node9</title>
<path fill="none" stroke="midnightblue" d="M831.783,-304.457C751.766,-296.903 619.902,-283.269 507,-266 499.257,-264.816 491.095,-263.406 483.119,-261.938"/>
<polygon fill="midnightblue" stroke="midnightblue" points="483.637,-258.474 473.161,-260.06 482.339,-265.353 483.637,-258.474"/>
</g>
<!-- Node10 -->
<g id="node10" class="node"><title>Node10</title>
<polygon fill="white" stroke="#bfbfbf" points="516,-235.5 516,-265.5 676,-265.5 676,-235.5 516,-235.5"/>
<text text-anchor="start" x="524" y="-253.5" font-family="Helvetica,sans-Serif" font-size="10.00">portaudiocpp/DirectionSpecific</text>
<text text-anchor="middle" x="596" y="-242.5" font-family="Helvetica,sans-Serif" font-size="10.00">StreamParameters.hxx</text>
</g>
<!-- Node1&#45;&gt;Node10 -->
<g id="edge9" class="edge"><title>Node1&#45;&gt;Node10</title>
<path fill="none" stroke="midnightblue" d="M860.728,-302.475C813.402,-293.362 737.285,-278.705 678.791,-267.442"/>
<polygon fill="midnightblue" stroke="midnightblue" points="679.307,-263.977 668.825,-265.523 677.983,-270.851 679.307,-263.977"/>
</g>
<!-- Node11 -->
<g id="node11" class="node"><title>Node11</title>
<polygon fill="white" stroke="#bfbfbf" points="694.5,-235.5 694.5,-265.5 857.5,-265.5 857.5,-235.5 694.5,-235.5"/>
<text text-anchor="start" x="702.5" y="-253.5" font-family="Helvetica,sans-Serif" font-size="10.00">portaudiocpp/InterfaceCallback</text>
<text text-anchor="middle" x="776" y="-242.5" font-family="Helvetica,sans-Serif" font-size="10.00">Stream.hxx</text>
</g>
<!-- Node1&#45;&gt;Node11 -->
<g id="edge10" class="edge"><title>Node1&#45;&gt;Node11</title>
<path fill="none" stroke="midnightblue" d="M886.517,-302.475C868.066,-293.965 839.133,-280.619 815.498,-269.718"/>
<polygon fill="midnightblue" stroke="midnightblue" points="816.949,-266.533 806.403,-265.523 814.017,-272.89 816.949,-266.533"/>
</g>
<!-- Node12 -->
<g id="node12" class="node"><title>Node12</title>
<polygon fill="white" stroke="#bfbfbf" points="908.5,-179.5 908.5,-198.5 1099.5,-198.5 1099.5,-179.5 908.5,-179.5"/>
<text text-anchor="middle" x="1004" y="-186.5" font-family="Helvetica,sans-Serif" font-size="10.00">portaudiocpp/SampleDataFormat.hxx</text>
</g>
<!-- Node1&#45;&gt;Node12 -->
<g id="edge11" class="edge"><title>Node1&#45;&gt;Node12</title>
<path fill="none" stroke="midnightblue" d="M907.84,-302.254C913.021,-287.261 925.146,-256.222 943,-235 953.33,-222.722 967.656,-211.932 979.83,-203.998"/>
<polygon fill="midnightblue" stroke="midnightblue" points="981.989,-206.775 988.617,-198.509 978.281,-200.838 981.989,-206.775"/>
</g>
<!-- Node13 -->
<g id="node13" class="node"><title>Node13</title>
<polygon fill="white" stroke="#bfbfbf" points="2172,-123.5 2172,-142.5 2306,-142.5 2306,-123.5 2172,-123.5"/>
<text text-anchor="middle" x="2239" y="-130.5" font-family="Helvetica,sans-Serif" font-size="10.00">portaudiocpp/Stream.hxx</text>
</g>
<!-- Node1&#45;&gt;Node13 -->
<g id="edge12" class="edge"><title>Node1&#45;&gt;Node13</title>
<path fill="none" stroke="midnightblue" d="M978.24,-311.573C1121.92,-311.683 1450.49,-306.934 1723,-266 1845.27,-247.634 1873.23,-229.682 1993,-199 2064.91,-180.578 2148.41,-158.333 2197.31,-145.222"/>
<polygon fill="midnightblue" stroke="midnightblue" points="2198.44,-148.54 2207.2,-142.568 2196.63,-141.779 2198.44,-148.54"/>
</g>
<!-- Node14 -->
<g id="node14" class="node"><title>Node14</title>
<polygon fill="white" stroke="#bfbfbf" points="952,-241 952,-260 1140,-260 1140,-241 952,-241"/>
<text text-anchor="middle" x="1046" y="-248" font-family="Helvetica,sans-Serif" font-size="10.00">portaudiocpp/StreamParameters.hxx</text>
</g>
<!-- Node1&#45;&gt;Node14 -->
<g id="edge13" class="edge"><title>Node1&#45;&gt;Node14</title>
<path fill="none" stroke="midnightblue" d="M925.202,-302.475C949.074,-292.401 989.002,-275.553 1016.37,-264.002"/>
<polygon fill="midnightblue" stroke="midnightblue" points="1017.98,-267.122 1025.84,-260.009 1015.26,-260.672 1017.98,-267.122"/>
</g>
<!-- Node15 -->
<g id="node15" class="node"><title>Node15</title>
<polygon fill="white" stroke="#bfbfbf" points="1158,-241 1158,-260 1292,-260 1292,-241 1158,-241"/>
<text text-anchor="middle" x="1225" y="-248" font-family="Helvetica,sans-Serif" font-size="10.00">portaudiocpp/System.hxx</text>
</g>
<!-- Node1&#45;&gt;Node15 -->
<g id="edge14" class="edge"><title>Node1&#45;&gt;Node15</title>
<path fill="none" stroke="midnightblue" d="M951.792,-302.458C1000.92,-293.47 1080.41,-278.867 1149,-266 1155.83,-264.719 1163,-263.363 1170.1,-262.015"/>
<polygon fill="midnightblue" stroke="midnightblue" points="1171.23,-265.364 1180.4,-260.056 1169.92,-258.487 1171.23,-265.364"/>
</g>
<!-- Node16 -->
<g id="node16" class="node"><title>Node16</title>
<polygon fill="white" stroke="#bfbfbf" points="1310,-235.5 1310,-265.5 1458,-265.5 1458,-235.5 1310,-235.5"/>
<text text-anchor="start" x="1318" y="-253.5" font-family="Helvetica,sans-Serif" font-size="10.00">portaudiocpp/SystemDevice</text>
<text text-anchor="middle" x="1384" y="-242.5" font-family="Helvetica,sans-Serif" font-size="10.00">Iterator.hxx</text>
</g>
<!-- Node1&#45;&gt;Node16 -->
<g id="edge15" class="edge"><title>Node1&#45;&gt;Node16</title>
<path fill="none" stroke="midnightblue" d="M978.154,-304.01C1055.58,-296.312 1181.56,-282.934 1299.87,-266.112"/>
<polygon fill="midnightblue" stroke="midnightblue" points="1300.42,-269.568 1309.82,-264.685 1299.43,-262.639 1300.42,-269.568"/>
</g>
<!-- Node17 -->
<g id="node17" class="node"><title>Node17</title>
<g id="a_node17"><a xlink:href="errors_8hpp.html" target="_top" xlink:title="Declarations of the playd Error exception set. ">
<polygon fill="white" stroke="black" points="1160.5,-62 1160.5,-81 1233.5,-81 1233.5,-62 1160.5,-62"/>
<text text-anchor="middle" x="1197" y="-69" font-family="Helvetica,sans-Serif" font-size="10.00">../errors.hpp</text>
</a>
</g>
</g>
<!-- Node1&#45;&gt;Node17 -->
<g id="edge16" class="edge"><title>Node1&#45;&gt;Node17</title>
<path fill="none" stroke="midnightblue" d="M831.856,-310.382C689.984,-308.421 388.531,-300.226 357,-266 347.665,-255.867 348.195,-245.597 357,-235 586.396,41.1063 802.737,-174.007 1151,-87 1154.63,-86.0943 1158.38,-85.0638 1162.12,-83.9794"/>
<polygon fill="midnightblue" stroke="midnightblue" points="1163.29,-87.2813 1171.85,-81.0322 1161.26,-80.5819 1163.29,-87.2813"/>
</g>
<!-- Node19 -->
<g id="node19" class="node"><title>Node19</title>
<g id="a_node19"><a xlink:href="messages_8h.html" target="_top" xlink:title="Constant human&#45;readable messages used within playd. ">
<polygon fill="white" stroke="black" points="2262,-62 2262,-81 2342,-81 2342,-62 2262,-62"/>
<text text-anchor="middle" x="2302" y="-69" font-family="Helvetica,sans-Serif" font-size="10.00">../messages.h</text>
</a>
</g>
</g>
<!-- Node1&#45;&gt;Node19 -->
<g id="edge19" class="edge"><title>Node1&#45;&gt;Node19</title>
<path fill="none" stroke="midnightblue" d="M978.259,-309.128C1163.74,-304.104 1648.48,-289.114 1808,-266 2037.47,-232.749 2171.67,-325.262 2315,-143 2326.74,-128.073 2319.87,-105.896 2312.4,-90.4132"/>
<polygon fill="midnightblue" stroke="midnightblue" points="2315.37,-88.5457 2307.59,-81.3492 2309.18,-91.8239 2315.37,-88.5457"/>
</g>
<!-- Node20 -->
<g id="node20" class="node"><title>Node20</title>
<g id="a_node20"><a xlink:href="sample__formats_8hpp.html" target="_top" xlink:title="The SampleFormat enumeration. ">
<polygon fill="white" stroke="black" points="942.5,-62 942.5,-81 1061.5,-81 1061.5,-62 942.5,-62"/>
<text text-anchor="middle" x="1002" y="-69" font-family="Helvetica,sans-Serif" font-size="10.00">../sample_formats.hpp</text>
</a>
</g>
</g>
<!-- Node1&#45;&gt;Node20 -->
<g id="edge21" class="edge"><title>Node1&#45;&gt;Node20</title>
<path fill="none" stroke="midnightblue" d="M831.754,-310.756C683.243,-309.495 357.823,-302.544 324,-266 280.829,-219.357 280.761,-169.58 324,-123 344.485,-100.932 763.188,-81.9554 932.178,-75.1658"/>
<polygon fill="midnightblue" stroke="midnightblue" points="932.364,-78.6613 942.216,-74.765 932.085,-71.6668 932.364,-78.6613"/>
</g>
<!-- Node22 -->
<g id="node22" class="node"><title>Node22</title>
<g id="a_node22"><a xlink:href="audio_8hpp.html" target="_top" xlink:title="Declaration of the Audio class. ">
<polygon fill="white" stroke="black" points="1443,-179.5 1443,-198.5 1505,-198.5 1505,-179.5 1443,-179.5"/>
<text text-anchor="middle" x="1474" y="-186.5" font-family="Helvetica,sans-Serif" font-size="10.00">audio.hpp</text>
</a>
</g>
</g>
<!-- Node1&#45;&gt;Node22 -->
<g id="edge23" class="edge"><title>Node1&#45;&gt;Node22</title>
<path fill="none" stroke="midnightblue" d="M978.078,-311.679C1145.59,-312.469 1546.07,-309.718 1587,-266 1596.42,-255.942 1594.73,-246.403 1587,-235 1571.01,-211.422 1540.49,-200.197 1515.2,-194.854"/>
<polygon fill="midnightblue" stroke="midnightblue" points="1515.56,-191.362 1505.09,-192.963 1514.28,-198.243 1515.56,-191.362"/>
</g>
<!-- Node28 -->
<g id="node28" class="node"><title>Node28</title>
<g id="a_node28"><a xlink:href="audio__source_8hpp.html" target="_top" xlink:title="Declaration of the AudioSource class. ">
<polygon fill="white" stroke="black" points="1194,-123.5 1194,-142.5 1294,-142.5 1294,-123.5 1194,-123.5"/>
<text text-anchor="middle" x="1244" y="-130.5" font-family="Helvetica,sans-Serif" font-size="10.00">audio_source.hpp</text>
</a>
</g>
</g>
<!-- Node1&#45;&gt;Node28 -->
<g id="edge58" class="edge"><title>Node1&#45;&gt;Node28</title>
<path fill="none" stroke="midnightblue" d="M901.079,-302.265C891.281,-278.963 868.685,-214.678 900,-179 918.382,-158.057 1089.96,-143.877 1183.63,-137.627"/>
<polygon fill="midnightblue" stroke="midnightblue" points="1184.08,-141.105 1193.83,-136.957 1183.62,-134.12 1184.08,-141.105"/>
</g>
<!-- Node31 -->
<g id="node31" class="node"><title>Node31</title>
<g id="a_node31"><a xlink:href="audio__sink_8hpp.html" target="_top" xlink:title="Declaration of the AudioSink class. ">
<polygon fill="white" stroke="black" points="1831.5,-179.5 1831.5,-198.5 1918.5,-198.5 1918.5,-179.5 1831.5,-179.5"/>
<text text-anchor="middle" x="1875" y="-186.5" font-family="Helvetica,sans-Serif" font-size="10.00">audio_sink.hpp</text>
</a>
</g>
</g>
<!-- Node1&#45;&gt;Node31 -->
<g id="edge42" class="edge"><title>Node1&#45;&gt;Node31</title>
<path fill="none" stroke="midnightblue" d="M978.289,-309.202C1141.26,-304.785 1529.44,-291.83 1658,-266 1728.14,-251.907 1806.43,-220.297 1847.08,-202.605"/>
<polygon fill="midnightblue" stroke="midnightblue" points="1848.6,-205.761 1856.34,-198.53 1845.78,-199.353 1848.6,-205.761"/>
</g>
<!-- Node35 -->
<g id="node35" class="node"><title>Node35</title>
<g id="a_node35"><a xlink:href="audio__system_8hpp.html" target="_top" xlink:title="Declaration of the AudioSystem class. ">
<polygon fill="white" stroke="black" points="1476.5,-241 1476.5,-260 1577.5,-260 1577.5,-241 1476.5,-241"/>
<text text-anchor="middle" x="1527" y="-248" font-family="Helvetica,sans-Serif" font-size="10.00">audio_system.hpp</text>
</a>
</g>
</g>
<!-- Node1&#45;&gt;Node35 -->
<g id="edge59" class="edge"><title>Node1&#45;&gt;Node35</title>
<path fill="none" stroke="midnightblue" d="M978.185,-308.81C1085.86,-304.76 1293.02,-293.811 1467,-266 1473.18,-265.012 1479.66,-263.72 1485.99,-262.314"/>
<polygon fill="midnightblue" stroke="midnightblue" points="1486.79,-265.721 1495.74,-260.039 1485.2,-258.904 1486.79,-265.721"/>
</g>
<!-- Node17&#45;&gt;Node4 -->
<g id="edge18" class="edge"><title>Node17&#45;&gt;Node4</title>
<path fill="none" stroke="midnightblue" d="M1173.38,-61.9685C1166.27,-59.6964 1158.39,-57.4683 1151,-56 973.702,-20.7811 756.759,-13.1259 671.21,-11.4621"/>
<polygon fill="midnightblue" stroke="midnightblue" points="671.265,-7.96258 661.204,-11.2836 671.14,-14.9615 671.265,-7.96258"/>
</g>
<!-- Node18 -->
<g id="node18" class="node"><title>Node18</title>
<polygon fill="white" stroke="#bfbfbf" points="1168.5,-0.5 1168.5,-19.5 1225.5,-19.5 1225.5,-0.5 1168.5,-0.5"/>
<text text-anchor="middle" x="1197" y="-7.5" font-family="Helvetica,sans-Serif" font-size="10.00">iostream</text>
</g>
<!-- Node17&#45;&gt;Node18 -->
<g id="edge17" class="edge"><title>Node17&#45;&gt;Node18</title>
<path fill="none" stroke="midnightblue" d="M1197,-61.9751C1197,-53.5803 1197,-40.4806 1197,-29.6631"/>
<polygon fill="midnightblue" stroke="midnightblue" points="1200.5,-29.5091 1197,-19.5091 1193.5,-29.5091 1200.5,-29.5091"/>
</g>
<!-- Node19&#45;&gt;Node6 -->
<g id="edge20" class="edge"><title>Node19&#45;&gt;Node6</title>
<path fill="none" stroke="midnightblue" d="M2276,-61.9993C2268.62,-59.8091 2260.55,-57.6166 2253,-56 2143.72,-32.5913 2011.51,-19.0173 1951.89,-13.6678"/>
<polygon fill="midnightblue" stroke="midnightblue" points="1951.89,-10.1546 1941.62,-12.7641 1951.28,-17.1276 1951.89,-10.1546"/>
</g>
<!-- Node21 -->
<g id="node21" class="node"><title>Node21</title>
<polygon fill="white" stroke="#bfbfbf" points="1290.5,-0.5 1290.5,-19.5 1337.5,-19.5 1337.5,-0.5 1290.5,-0.5"/>
<text text-anchor="middle" x="1314" y="-7.5" font-family="Helvetica,sans-Serif" font-size="10.00">cstdint</text>
</g>
<!-- Node20&#45;&gt;Node21 -->
<g id="edge22" class="edge"><title>Node20&#45;&gt;Node21</title>
<path fill="none" stroke="midnightblue" d="M1041.74,-61.9791C1051.31,-59.9735 1061.51,-57.8749 1071,-56 1145.54,-41.2673 1233.25,-25.3817 1280.23,-16.9897"/>
<polygon fill="midnightblue" stroke="midnightblue" points="1280.93,-20.4191 1290.16,-15.218 1279.71,-13.5277 1280.93,-20.4191"/>
</g>
<!-- Node22&#45;&gt;Node6 -->
<g id="edge27" class="edge"><title>Node22&#45;&gt;Node6</title>
<path fill="none" stroke="midnightblue" d="M1473.97,-179.498C1474.4,-165.651 1477.32,-138.246 1493,-123 1522.03,-94.7672 1794.18,-36.811 1888.22,-17.455"/>
<polygon fill="midnightblue" stroke="midnightblue" points="1889.18,-20.8306 1898.27,-15.393 1887.77,-13.9733 1889.18,-20.8306"/>
</g>
<!-- Node22&#45;&gt;Node8 -->
<g id="edge30" class="edge"><title>Node22&#45;&gt;Node8</title>
<path fill="none" stroke="midnightblue" d="M1493.17,-179.444C1512.91,-170.636 1543.89,-156.812 1566.49,-146.722"/>
<polygon fill="midnightblue" stroke="midnightblue" points="1568.21,-149.788 1575.92,-142.516 1565.36,-143.396 1568.21,-149.788"/>
</g>
<!-- Node22&#45;&gt;Node21 -->
<g id="edge25" class="edge"><title>Node22&#45;&gt;Node21</title>
<path fill="none" stroke="midnightblue" d="M1460.54,-179.265C1448.02,-170.803 1429.22,-157.199 1415,-143 1377.72,-105.776 1342.24,-54.5062 1324.96,-28.1596"/>
<polygon fill="midnightblue" stroke="midnightblue" points="1327.82,-26.1405 1319.44,-19.6528 1321.95,-29.9479 1327.82,-26.1405"/>
</g>
<!-- Node23 -->
<g id="node23" class="node"><title>Node23</title>
<polygon fill="white" stroke="#bfbfbf" points="1464,-62 1464,-81 1514,-81 1514,-62 1464,-62"/>
<text text-anchor="middle" x="1489" y="-69" font-family="Helvetica,sans-Serif" font-size="10.00">chrono</text>
</g>
<!-- Node22&#45;&gt;Node23 -->
<g id="edge24" class="edge"><title>Node22&#45;&gt;Node23</title>
<path fill="none" stroke="midnightblue" d="M1458.29,-179.394C1439.16,-167.697 1410.72,-145.634 1422,-123 1430.05,-106.853 1446,-94.5084 1460.31,-86.0673"/>
<polygon fill="midnightblue" stroke="midnightblue" points="1462.31,-88.9656 1469.38,-81.0832 1458.93,-82.8303 1462.31,-88.9656"/>
</g>
<!-- Node24 -->
<g id="node24" class="node"><title>Node24</title>
<polygon fill="white" stroke="#bfbfbf" points="1848,-123.5 1848,-142.5 1902,-142.5 1902,-123.5 1848,-123.5"/>
<text text-anchor="middle" x="1875" y="-130.5" font-family="Helvetica,sans-Serif" font-size="10.00">memory</text>
</g>
<!-- Node22&#45;&gt;Node24 -->
<g id="edge26" class="edge"><title>Node22&#45;&gt;Node24</title>
<path fill="none" stroke="midnightblue" d="M1505.45,-185.429C1567.28,-180.094 1709.15,-166.473 1837.92,-142.994"/>
<polygon fill="midnightblue" stroke="midnightblue" points="1838.75,-146.399 1847.95,-141.139 1837.48,-139.515 1838.75,-146.399"/>
</g>
<!-- Node25 -->
<g id="node25" class="node"><title>Node25</title>
<polygon fill="white" stroke="#bfbfbf" points="1502,-123.5 1502,-142.5 1542,-142.5 1542,-123.5 1502,-123.5"/>
<text text-anchor="middle" x="1522" y="-130.5" font-family="Helvetica,sans-Serif" font-size="10.00">utility</text>
</g>
<!-- Node22&#45;&gt;Node25 -->
<g id="edge28" class="edge"><title>Node22&#45;&gt;Node25</title>
<path fill="none" stroke="midnightblue" d="M1481.93,-179.083C1488.85,-171.298 1499.07,-159.801 1507.45,-150.367"/>
<polygon fill="midnightblue" stroke="midnightblue" points="1510.19,-152.55 1514.22,-142.751 1504.96,-147.9 1510.19,-152.55"/>
</g>
<!-- Node26 -->
<g id="node26" class="node"><title>Node26</title>
<polygon fill="white" stroke="#bfbfbf" points="1532,-62 1532,-81 1578,-81 1578,-62 1532,-62"/>
<text text-anchor="middle" x="1555" y="-69" font-family="Helvetica,sans-Serif" font-size="10.00">vector</text>
</g>
<!-- Node22&#45;&gt;Node26 -->
<g id="edge29" class="edge"><title>Node22&#45;&gt;Node26</title>
<path fill="none" stroke="midnightblue" d="M1468.45,-179.36C1460.82,-166.264 1449.18,-141.008 1460,-123 1463.88,-116.548 1500.54,-98.1971 1527.16,-85.4914"/>
<polygon fill="midnightblue" stroke="midnightblue" points="1528.9,-88.5423 1536.44,-81.0982 1525.9,-82.2161 1528.9,-88.5423"/>
</g>
<!-- Node27 -->
<g id="node27" class="node"><title>Node27</title>
<polygon fill="white" stroke="#bfbfbf" points="1648,-123.5 1648,-142.5 1830,-142.5 1830,-123.5 1648,-123.5"/>
<text text-anchor="middle" x="1739" y="-130.5" font-family="Helvetica,sans-Serif" font-size="10.00">portaudiocpp/CallbackInterface.hxx</text>
</g>
<!-- Node22&#45;&gt;Node27 -->
<g id="edge31" class="edge"><title>Node22&#45;&gt;Node27</title>
<path fill="none" stroke="midnightblue" d="M1505.18,-181.647C1549.91,-172.532 1632.85,-155.631 1686.97,-144.603"/>
<polygon fill="midnightblue" stroke="midnightblue" points="1687.95,-147.974 1697.05,-142.548 1686.56,-141.115 1687.95,-147.974"/>
</g>
<!-- Node22&#45;&gt;Node28 -->
<g id="edge32" class="edge"><title>Node22&#45;&gt;Node28</title>
<path fill="none" stroke="midnightblue" d="M1442.98,-180.717C1403.77,-171.51 1335.91,-155.578 1290.49,-144.914"/>
<polygon fill="midnightblue" stroke="midnightblue" points="1291.12,-141.468 1280.59,-142.59 1289.52,-148.283 1291.12,-141.468"/>
</g>
<!-- Node28&#45;&gt;Node6 -->
<g id="edge37" class="edge"><title>Node28&#45;&gt;Node6</title>
<path fill="none" stroke="midnightblue" d="M1262.01,-123.453C1300.45,-105.354 1389.66,-64.1482 1422,-56 1593.65,-12.7505 1807.81,-9.84919 1887.85,-10.4592"/>
<polygon fill="midnightblue" stroke="midnightblue" points="1888.21,-13.9628 1898.24,-10.5647 1888.28,-6.96321 1888.21,-13.9628"/>
</g>
<!-- Node28&#45;&gt;Node7 -->
<g id="edge39" class="edge"><title>Node28&#45;&gt;Node7</title>
<path fill="none" stroke="midnightblue" d="M1193.78,-127.479C1063.71,-115.771 718.728,-84.7176 613.745,-75.2675"/>
<polygon fill="midnightblue" stroke="midnightblue" points="613.794,-71.7579 603.521,-74.3472 613.167,-78.7297 613.794,-71.7579"/>
</g>
<!-- Node28&#45;&gt;Node17 -->
<g id="edge40" class="edge"><title>Node28&#45;&gt;Node17</title>
<path fill="none" stroke="midnightblue" d="M1237.27,-123.475C1230.22,-114.55 1218.97,-100.307 1210.15,-89.1425"/>
<polygon fill="midnightblue" stroke="midnightblue" points="1212.67,-86.6867 1203.72,-81.0091 1207.17,-91.0258 1212.67,-86.6867"/>
</g>
<!-- Node28&#45;&gt;Node20 -->
<g id="edge41" class="edge"><title>Node28&#45;&gt;Node20</title>
<path fill="none" stroke="midnightblue" d="M1209.33,-123.475C1166.47,-112.937 1093.46,-94.9863 1046.5,-83.4415"/>
<polygon fill="midnightblue" stroke="midnightblue" points="1047.15,-79.998 1036.61,-81.0091 1045.48,-86.7955 1047.15,-79.998"/>
</g>
<!-- Node28&#45;&gt;Node21 -->
<g id="edge35" class="edge"><title>Node28&#45;&gt;Node21</title>
<path fill="none" stroke="midnightblue" d="M1247.8,-123.336C1254.21,-108.983 1267.87,-79.5215 1282,-56 1287.8,-46.3439 1295.02,-36.0718 1301.13,-27.7834"/>
<polygon fill="midnightblue" stroke="midnightblue" points="1304,-29.7889 1307.21,-19.6912 1298.4,-25.5848 1304,-29.7889"/>
</g>
<!-- Node28&#45;&gt;Node23 -->
<g id="edge34" class="edge"><title>Node28&#45;&gt;Node23</title>
<path fill="none" stroke="midnightblue" d="M1279.1,-123.475C1325.6,-112.183 1407.15,-92.3772 1453.73,-81.0648"/>
<polygon fill="midnightblue" stroke="midnightblue" points="1454.78,-84.4125 1463.67,-78.6513 1453.13,-77.6102 1454.78,-84.4125"/>
</g>
<!-- Node28&#45;&gt;Node26 -->
<g id="edge38" class="edge"><title>Node28&#45;&gt;Node26</title>
<path fill="none" stroke="midnightblue" d="M1294.03,-127.963C1350.57,-122.48 1444.9,-110.534 1523,-87 1524.93,-86.4193 1526.89,-85.7473 1528.85,-85.0173"/>
<polygon fill="midnightblue" stroke="midnightblue" points="1530.5,-88.1181 1538.38,-81.037 1527.81,-81.658 1530.5,-88.1181"/>
</g>
<!-- Node29 -->
<g id="node29" class="node"><title>Node29</title>
<polygon fill="white" stroke="#bfbfbf" points="1290.5,-62 1290.5,-81 1331.5,-81 1331.5,-62 1290.5,-62"/>
<text text-anchor="middle" x="1311" y="-69" font-family="Helvetica,sans-Serif" font-size="10.00">array</text>
</g>
<!-- Node28&#45;&gt;Node29 -->
<g id="edge33" class="edge"><title>Node28&#45;&gt;Node29</title>
<path fill="none" stroke="midnightblue" d="M1253.6,-123.475C1264.05,-114.197 1280.97,-99.1706 1293.74,-87.831"/>
<polygon fill="midnightblue" stroke="midnightblue" points="1296.27,-90.2663 1301.42,-81.0091 1291.62,-85.0323 1296.27,-90.2663"/>
</g>
<!-- Node30 -->
<g id="node30" class="node"><title>Node30</title>
<polygon fill="white" stroke="#bfbfbf" points="1080,-62 1080,-81 1142,-81 1142,-62 1080,-62"/>
<text text-anchor="middle" x="1111" y="-69" font-family="Helvetica,sans-Serif" font-size="10.00">functional</text>
</g>
<!-- Node28&#45;&gt;Node30 -->
<g id="edge36" class="edge"><title>Node28&#45;&gt;Node30</title>
<path fill="none" stroke="midnightblue" d="M1224.94,-123.475C1202.53,-113.445 1165.09,-96.7002 1139.29,-85.1546"/>
<polygon fill="midnightblue" stroke="midnightblue" points="1140.58,-81.8979 1130.02,-81.0091 1137.72,-88.2877 1140.58,-81.8979"/>
</g>
<!-- Node31&#45;&gt;Node6 -->
<g id="edge46" class="edge"><title>Node31&#45;&gt;Node6</title>
<path fill="none" stroke="midnightblue" d="M1910.13,-179.412C1950.87,-169.103 2013.32,-152.072 2020,-143 2052.05,-99.4988 1983.15,-48.7292 1944.25,-24.8068"/>
<polygon fill="midnightblue" stroke="midnightblue" points="1945.91,-21.7252 1935.54,-19.5886 1942.31,-27.7301 1945.91,-21.7252"/>
</g>
<!-- Node31&#45;&gt;Node8 -->
<g id="edge49" class="edge"><title>Node31&#45;&gt;Node8</title>
<path fill="none" stroke="midnightblue" d="M1831.47,-179.88C1786.12,-171.381 1712.75,-157.516 1639.45,-143.068"/>
<polygon fill="midnightblue" stroke="midnightblue" points="1640.07,-139.622 1629.58,-141.118 1638.71,-146.489 1640.07,-139.622"/>
</g>
<!-- Node31&#45;&gt;Node13 -->
<g id="edge51" class="edge"><title>Node31&#45;&gt;Node13</title>
<path fill="none" stroke="midnightblue" d="M1918.55,-181.54C1981.26,-172.235 2097.6,-154.978 2171.5,-144.013"/>
<polygon fill="midnightblue" stroke="midnightblue" points="2172.26,-147.439 2181.64,-142.509 2171.23,-140.515 2172.26,-147.439"/>
</g>
<!-- Node31&#45;&gt;Node21 -->
<g id="edge44" class="edge"><title>Node31&#45;&gt;Node21</title>
<path fill="none" stroke="midnightblue" d="M1903.35,-179.418C1935.35,-168.305 1980.44,-147.439 1960,-123 1880.52,-27.969 1469.13,-13.5706 1347.75,-11.3894"/>
<polygon fill="midnightblue" stroke="midnightblue" points="1347.62,-7.88695 1337.57,-11.2234 1347.51,-14.886 1347.62,-7.88695"/>
</g>
<!-- Node31&#45;&gt;Node23 -->
<g id="edge43" class="edge"><title>Node31&#45;&gt;Node23</title>
<path fill="none" stroke="midnightblue" d="M1885.99,-179.414C1901.67,-166.165 1926.9,-140.447 1911,-123 1852.67,-59.0039 1606.95,-108.24 1523,-87 1520.64,-86.4024 1518.23,-85.663 1515.84,-84.8372"/>
<polygon fill="midnightblue" stroke="midnightblue" points="1516.87,-81.4838 1506.29,-81.0967 1514.32,-88.0019 1516.87,-81.4838"/>
</g>
<!-- Node31&#45;&gt;Node24 -->
<g id="edge45" class="edge"><title>Node31&#45;&gt;Node24</title>
<path fill="none" stroke="midnightblue" d="M1875,-179.083C1875,-172.006 1875,-161.861 1875,-152.986"/>
<polygon fill="midnightblue" stroke="midnightblue" points="1878.5,-152.751 1875,-142.751 1871.5,-152.751 1878.5,-152.751"/>
</g>
<!-- Node31&#45;&gt;Node25 -->
<g id="edge47" class="edge"><title>Node31&#45;&gt;Node25</title>
<path fill="none" stroke="midnightblue" d="M1831.26,-184.051C1768.82,-177.929 1650.74,-164.556 1552,-143 1551.9,-142.978 1551.8,-142.956 1551.7,-142.934"/>
<polygon fill="midnightblue" stroke="midnightblue" points="1552.78,-139.597 1542.22,-140.525 1551.05,-146.381 1552.78,-139.597"/>
</g>
<!-- Node31&#45;&gt;Node26 -->
<g id="edge48" class="edge"><title>Node31&#45;&gt;Node26</title>
<path fill="none" stroke="midnightblue" d="M1896.6,-179.299C1923.34,-167.323 1963.12,-144.76 1944,-123 1920.62,-96.3908 1678.33,-79.6788 1588.38,-74.3512"/>
<polygon fill="midnightblue" stroke="midnightblue" points="1588.37,-70.8452 1578.19,-73.7581 1587.97,-77.8334 1588.37,-70.8452"/>
</g>
<!-- Node31&#45;&gt;Node27 -->
<g id="edge50" class="edge"><title>Node31&#45;&gt;Node27</title>
<path fill="none" stroke="midnightblue" d="M1853.45,-179.444C1830.97,-170.517 1795.51,-156.439 1770.02,-146.317"/>
<polygon fill="midnightblue" stroke="midnightblue" points="1771.03,-142.954 1760.45,-142.516 1768.45,-149.46 1771.03,-142.954"/>
</g>
<!-- Node31&#45;&gt;Node28 -->
<g id="edge52" class="edge"><title>Node31&#45;&gt;Node28</title>
<path fill="none" stroke="midnightblue" d="M1831.38,-184.267C1721.08,-174.828 1430.85,-149.991 1304.37,-139.166"/>
<polygon fill="midnightblue" stroke="midnightblue" points="1304.36,-135.653 1294.1,-138.287 1303.76,-142.627 1304.36,-135.653"/>
</g>
<!-- Node32 -->
<g id="node32" class="node"><title>Node32</title>
<g id="a_node32"><a xlink:href="ringbuffer_8hpp.html" target="_top" xlink:title="The RingBuffer class template. ">
<polygon fill="white" stroke="black" points="2072.5,-123.5 2072.5,-142.5 2153.5,-142.5 2153.5,-123.5 2072.5,-123.5"/>
<text text-anchor="middle" x="2113" y="-130.5" font-family="Helvetica,sans-Serif" font-size="10.00">ringbuffer.hpp</text>
</a>
</g>
</g>
<!-- Node31&#45;&gt;Node32 -->
<g id="edge53" class="edge"><title>Node31&#45;&gt;Node32</title>
<path fill="none" stroke="midnightblue" d="M1912.71,-179.444C1954.14,-170.043 2020.76,-154.929 2065.67,-144.739"/>
<polygon fill="midnightblue" stroke="midnightblue" points="2066.49,-148.142 2075.46,-142.516 2064.94,-141.316 2066.49,-148.142"/>
</g>
<!-- Node32&#45;&gt;Node17 -->
<g id="edge56" class="edge"><title>Node32&#45;&gt;Node17</title>
<path fill="none" stroke="midnightblue" d="M2072.48,-130.08C1916.66,-122.66 1360.88,-95.8344 1282,-87 1269.56,-85.6072 1256.19,-83.5779 1243.81,-81.4763"/>
<polygon fill="midnightblue" stroke="midnightblue" points="1244.14,-77.9816 1233.69,-79.7064 1242.93,-84.8769 1244.14,-77.9816"/>
</g>
<!-- Node32&#45;&gt;Node19 -->
<g id="edge57" class="edge"><title>Node32&#45;&gt;Node19</title>
<path fill="none" stroke="midnightblue" d="M2140.08,-123.475C2172.92,-113.136 2228.43,-95.6611 2265.15,-84.1017"/>
<polygon fill="midnightblue" stroke="midnightblue" points="2266.48,-87.3505 2274.97,-81.0091 2264.38,-80.6735 2266.48,-87.3505"/>
</g>
<!-- Node33 -->
<g id="node33" class="node"><title>Node33</title>
<polygon fill="white" stroke="#bfbfbf" points="2192.5,-62 2192.5,-81 2243.5,-81 2243.5,-62 2192.5,-62"/>
<text text-anchor="middle" x="2218" y="-69" font-family="Helvetica,sans-Serif" font-size="10.00">cassert</text>
</g>
<!-- Node32&#45;&gt;Node33 -->
<g id="edge54" class="edge"><title>Node32&#45;&gt;Node33</title>
<path fill="none" stroke="midnightblue" d="M2128.04,-123.475C2145.28,-113.711 2173.74,-97.5807 2194.03,-86.0808"/>
<polygon fill="midnightblue" stroke="midnightblue" points="2196.01,-88.9843 2202.98,-81.0091 2192.56,-82.8942 2196.01,-88.9843"/>
</g>
<!-- Node34 -->
<g id="node34" class="node"><title>Node34</title>
<polygon fill="white" stroke="#bfbfbf" points="2053.5,-56.5 2053.5,-86.5 2174.5,-86.5 2174.5,-56.5 2053.5,-56.5"/>
<text text-anchor="start" x="2061.5" y="-74.5" font-family="Helvetica,sans-Serif" font-size="10.00">../contrib/pa_ringbuffer</text>
<text text-anchor="middle" x="2114" y="-63.5" font-family="Helvetica,sans-Serif" font-size="10.00">/pa_ringbuffer.h</text>
</g>
<!-- Node32&#45;&gt;Node34 -->
<g id="edge55" class="edge"><title>Node32&#45;&gt;Node34</title>
<path fill="none" stroke="midnightblue" d="M2113.14,-123.475C2113.26,-116.471 2113.43,-106.192 2113.59,-96.6956"/>
<polygon fill="midnightblue" stroke="midnightblue" points="2117.1,-96.5804 2113.76,-86.523 2110.1,-96.4627 2117.1,-96.5804"/>
</g>
<!-- Node35&#45;&gt;Node6 -->
<g id="edge61" class="edge"><title>Node35&#45;&gt;Node6</title>
<path fill="none" stroke="midnightblue" d="M1499.82,-240.903C1479.1,-233.053 1451.28,-219.512 1434,-199 1392.61,-149.878 1400.73,-90.3678 1455,-56 1527.17,-10.2943 1795.44,-9.33843 1888.2,-10.4336"/>
<polygon fill="midnightblue" stroke="midnightblue" points="1888.32,-13.9355 1898.37,-10.5706 1888.42,-6.93609 1888.32,-13.9355"/>
</g>
<!-- Node35&#45;&gt;Node12 -->
<g id="edge63" class="edge"><title>Node35&#45;&gt;Node12</title>
<path fill="none" stroke="midnightblue" d="M1495.41,-240.988C1486.3,-238.771 1476.3,-236.568 1467,-235 1432.69,-229.216 1234.76,-210.827 1109.04,-199.425"/>
<polygon fill="midnightblue" stroke="midnightblue" points="1109.27,-195.931 1098.99,-198.514 1108.64,-202.902 1109.27,-195.931"/>
</g>
<!-- Node35&#45;&gt;Node13 -->
<g id="edge64" class="edge"><title>Node35&#45;&gt;Node13</title>
<path fill="none" stroke="midnightblue" d="M1577.52,-244.462C1653.73,-236.562 1802.56,-219.972 1928,-199 2022.63,-183.179 2132.24,-158.85 2192.79,-144.878"/>
<polygon fill="midnightblue" stroke="midnightblue" points="2193.84,-148.228 2202.79,-142.561 2192.26,-141.408 2193.84,-148.228"/>
</g>
<!-- Node35&#45;&gt;Node20 -->
<g id="edge65" class="edge"><title>Node35&#45;&gt;Node20</title>
<path fill="none" stroke="midnightblue" d="M1493.79,-240.937C1485.1,-238.845 1475.73,-236.717 1467,-235 1362.89,-214.519 1331.44,-233.184 1231,-199 1148.6,-170.957 1061.24,-114.012 1022.52,-87.1501"/>
<polygon fill="midnightblue" stroke="midnightblue" points="1024.37,-84.1734 1014.17,-81.3001 1020.36,-89.9057 1024.37,-84.1734"/>
</g>
<!-- Node35&#45;&gt;Node22 -->
<g id="edge68" class="edge"><title>Node35&#45;&gt;Node22</title>
<path fill="none" stroke="midnightblue" d="M1519.41,-240.975C1511.3,-231.873 1498.27,-217.241 1488.24,-205.983"/>
<polygon fill="midnightblue" stroke="midnightblue" points="1490.84,-203.648 1481.58,-198.509 1485.62,-208.304 1490.84,-203.648"/>
</g>
<!-- Node35&#45;&gt;Node25 -->
<g id="edge62" class="edge"><title>Node35&#45;&gt;Node25</title>
<path fill="none" stroke="midnightblue" d="M1526.62,-240.819C1525.82,-222.257 1523.92,-178.339 1522.82,-152.973"/>
<polygon fill="midnightblue" stroke="midnightblue" points="1526.31,-152.621 1522.38,-142.782 1519.32,-152.924 1526.31,-152.621"/>
</g>
<!-- Node35&#45;&gt;Node28 -->
<g id="edge67" class="edge"><title>Node35&#45;&gt;Node28</title>
<path fill="none" stroke="midnightblue" d="M1492.12,-240.981C1483.89,-238.995 1475.14,-236.905 1467,-235 1396.45,-218.49 1371.31,-234.239 1308,-199 1286.69,-187.136 1267.85,-166.017 1256.23,-151.076"/>
<polygon fill="midnightblue" stroke="midnightblue" points="1258.76,-148.617 1249.97,-142.709 1253.16,-152.812 1258.76,-148.617"/>
</g>
<!-- Node35&#45;&gt;Node30 -->
<g id="edge60" class="edge"><title>Node35&#45;&gt;Node30</title>
<path fill="none" stroke="midnightblue" d="M1492.8,-240.929C1484.38,-238.904 1475.38,-236.81 1467,-235 1383.42,-216.951 1357.87,-229.532 1278,-199 1232.93,-181.773 1223.36,-172.26 1185,-143 1163.1,-126.293 1140.54,-103.922 1126.19,-88.9007"/>
<polygon fill="midnightblue" stroke="midnightblue" points="1128.51,-86.269 1119.11,-81.3944 1123.42,-91.0712 1128.51,-86.269"/>
</g>
<!-- Node35&#45;&gt;Node31 -->
<g id="edge66" class="edge"><title>Node35&#45;&gt;Node31</title>
<path fill="none" stroke="midnightblue" d="M1576.86,-240.975C1641.75,-229.88 1754.71,-210.567 1821.39,-199.166"/>
<polygon fill="midnightblue" stroke="midnightblue" points="1822.01,-202.61 1831.28,-197.475 1820.83,-195.71 1822.01,-202.61"/>
</g>
</g>
</svg>
        <g id="navigator" transform="translate(0 0)" fill="#404254">
                <rect fill="#f2f5e9" fill-opacity="0.5" stroke="#606060" stroke-width=".5" x="0" y="0" width="60" height="60"/>
                <use id="zoomplus" xlink:href="#zoomPlus" x="17" y="9" onmousedown="handleZoom(evt,'in')"/>
                <use id="zoomminus" xlink:href="#zoomMin" x="42" y="9" onmousedown="handleZoom(evt,'out')"/>
                <use id="reset" xlink:href="#resetDef" x="30" y="36" onmousedown="handleReset()"/>
                <g id="arrowUp" xlink:href="#dirArrow" transform="translate(30 24)" onmousedown="handlePan(0,-1)">
                  <use xlink:href="#rim" fill="#404040">
                        <set attributeName="fill" to="#808080" begin="arrowUp.mouseover" end="arrowUp.mouseout"/>
                  </use>
                  <path fill="none" stroke="white" stroke-width="1.5" d="M0,-3.0v7 M-2.5,-0.5L0,-3.0L2.5,-0.5"/>
                </g>
                <g id="arrowRight" xlink:href="#dirArrow" transform="rotate(90) translate(36 -43)" onmousedown="handlePan(1,0)">
                  <use xlink:href="#rim" fill="#404040">
                        <set attributeName="fill" to="#808080" begin="arrowRight.mouseover" end="arrowRight.mouseout"/>
                  </use>
                  <path fill="none" stroke="white" stroke-width="1.5" d="M0,-3.0v7 M-2.5,-0.5L0,-3.0L2.5,-0.5"/>
                </g>
                <g id="arrowDown" xlink:href="#dirArrow" transform="rotate(180) translate(-30 -48)" onmousedown="handlePan(0,1)">
                  <use xlink:href="#rim" fill="#404040">
                        <set attributeName="fill" to="#808080" begin="arrowDown.mouseover" end="arrowDown.mouseout"/>
                  </use>
                  <path fill="none" stroke="white" stroke-width="1.5" d="M0,-3.0v7 M-2.5,-0.5L0,-3.0L2.5,-0.5"/>
                </g>
                <g id="arrowLeft" xlink:href="#dirArrow" transform="rotate(270) translate(-36 17)" onmousedown="handlePan(-1,0)">
                  <use xlink:href="#rim" fill="#404040">
                        <set attributeName="fill" to="#808080" begin="arrowLeft.mouseover" end="arrowLeft.mouseout"/>
                  </use>
                  <path fill="none" stroke="white" stroke-width="1.5" d="M0,-3.0v7 M-2.5,-0.5L0,-3.0L2.5,-0.5"/>
                </g>
        </g>
        <svg viewBox="0 0 15 15" width="100%" height="30px" preserveAspectRatio="xMaxYMin meet">
         <g id="arrow_out" transform="scale(0.3 0.3)">
          <a xlink:href="audio__system_8cpp__incl_org.svg" target="_base">
           <rect id="button" ry="5" rx="5" y="6" x="6" height="38" width="38"
                fill="#f2f5e9" fill-opacity="0.5" stroke="#606060" stroke-width="1.0"/>
           <path id="arrow"
             d="M 11.500037,31.436501 C 11.940474,20.09759 22.043105,11.32322 32.158766,21.979434 L 37.068811,17.246167 C 37.068811,17.246167 37.088388,32 37.088388,32 L 22.160133,31.978069 C 22.160133,31.978069 26.997745,27.140456 26.997745,27.140456 C 18.528582,18.264221 13.291696,25.230495 11.500037,31.436501 z"
             style="fill:#404040;"/>
          </a>
         </g>
        </svg>
</svg>
