<?xml version="1.0" encoding="UTF-8" standalone="no"?>
<!DOCTYPE svg PUBLIC "-//W3C//DTD SVG 1.1//EN"
 "http://www.w3.org/Graphics/SVG/1.1/DTD/svg11.dtd">
<!-- Generated by graphviz version 2.38.0 (20140413.2041)
 -->
<!-- Title: src/audio/audio.hpp Pages: 1 -->
<svg width="741pt" height="476pt"
 viewBox="0.00 0.00 741.03 476.00" xmlns="http://www.w3.org/2000/svg" xmlns:xlink="http://www.w3.org/1999/xlink">
<g id="graph0" class="graph" transform="scale(1 1) rotate(0) translate(4 472)">
<title>src/audio/audio.hpp</title>
<polygon fill="white" stroke="none" points="-4,4 -4,-472 737.034,-472 737.034,4 -4,4"/>
<!-- Node1 -->
<g id="node1" class="node"><title>Node1</title>
<polygon fill="#bfbfbf" stroke="black" points="242.534,-448.5 242.534,-467.5 350.534,-467.5 350.534,-448.5 242.534,-448.5"/>
<text text-anchor="middle" x="296.534" y="-455.5" font-family="Helvetica,sans-Serif" font-size="10.00">src/audio/audio.hpp</text>
</g>
<!-- Node2 -->
<g id="node2" class="node"><title>Node2</title>
<g id="a_node2"><a xlink:href="audio_8cpp.html" target="_top" xlink:title="Implementation of the Audio class. ">
<polygon fill="white" stroke="black" points="60.0336,-392.5 60.0336,-411.5 167.034,-411.5 167.034,-392.5 60.0336,-392.5"/>
<text text-anchor="middle" x="113.534" y="-399.5" font-family="Helvetica,sans-Serif" font-size="10.00">src/audio/audio.cpp</text>
</a>
</g>
</g>
<!-- Node1&#45;&gt;Node2 -->
<g id="edge1" class="edge"><title>Node1&#45;&gt;Node2</title>
<path fill="none" stroke="midnightblue" d="M257.791,-445.568C223.269,-435.381 173.529,-420.703 142.395,-411.516"/>
<polygon fill="midnightblue" stroke="midnightblue" points="256.955,-448.97 267.537,-448.444 258.936,-442.256 256.955,-448.97"/>
</g>
<!-- Node3 -->
<g id="node3" class="node"><title>Node3</title>
<g id="a_node3"><a xlink:href="audio__system_8cpp.html" target="_top" xlink:title="Implementation of the AudioSystem class. ">
<polygon fill="white" stroke="black" points="223.534,-336.5 223.534,-355.5 369.534,-355.5 369.534,-336.5 223.534,-336.5"/>
<text text-anchor="middle" x="296.534" y="-343.5" font-family="Helvetica,sans-Serif" font-size="10.00">src/audio/audio_system.cpp</text>
</a>
</g>
</g>
<!-- Node1&#45;&gt;Node3 -->
<g id="edge2" class="edge"><title>Node1&#45;&gt;Node3</title>
<path fill="none" stroke="midnightblue" d="M296.534,-438.348C296.534,-414.254 296.534,-373.308 296.534,-355.591"/>
<polygon fill="midnightblue" stroke="midnightblue" points="293.034,-438.368 296.534,-448.368 300.034,-438.369 293.034,-438.368"/>
</g>
<!-- Node4 -->
<g id="node4" class="node"><title>Node4</title>
<g id="a_node4"><a xlink:href="audio__system_8hpp.html" target="_top" xlink:title="Declaration of the AudioSystem class. ">
<polygon fill="white" stroke="black" points="430.034,-392.5 430.034,-411.5 577.034,-411.5 577.034,-392.5 430.034,-392.5"/>
<text text-anchor="middle" x="503.534" y="-399.5" font-family="Helvetica,sans-Serif" font-size="10.00">src/audio/audio_system.hpp</text>
</a>
</g>
</g>
<!-- Node1&#45;&gt;Node4 -->
<g id="edge3" class="edge"><title>Node1&#45;&gt;Node4</title>
<path fill="none" stroke="midnightblue" d="M339.356,-445.829C378.439,-435.633 435.368,-420.782 470.887,-411.516"/>
<polygon fill="midnightblue" stroke="midnightblue" points="338.126,-442.533 329.333,-448.444 339.893,-449.306 338.126,-442.533"/>
</g>
<!-- Node6 -->
<g id="node6" class="node"><title>Node6</title>
<g id="a_node6"><a xlink:href="player_8hpp.html" target="_top" xlink:title="Declaration of the Player class, and associated types. ">
<polygon fill="white" stroke="black" points="239.534,-280.5 239.534,-299.5 355.534,-299.5 355.534,-280.5 239.534,-280.5"/>
<text text-anchor="middle" x="297.534" y="-287.5" font-family="Helvetica,sans-Serif" font-size="10.00">src/player/player.hpp</text>
</a>
</g>
</g>
<!-- Node1&#45;&gt;Node6 -->
<g id="edge32" class="edge"><title>Node1&#45;&gt;Node6</title>
<path fill="none" stroke="midnightblue" d="M274.441,-442.76C242.781,-420.497 190.802,-375.862 214.534,-336 225.518,-317.55 246.995,-306.199 265.349,-299.512"/>
<polygon fill="midnightblue" stroke="midnightblue" points="272.517,-445.684 282.752,-448.423 276.459,-439.9 272.517,-445.684"/>
</g>
<!-- Node15 -->
<g id="node15" class="node"><title>Node15</title>
<g id="a_node15"><a xlink:href="player_8cpp.html" target="_top" xlink:title="Main implementation file for the Player class. ">
<polygon fill="white" stroke="black" points="618.034,-224.5 618.034,-243.5 733.034,-243.5 733.034,-224.5 618.034,-224.5"/>
<text text-anchor="middle" x="675.534" y="-231.5" font-family="Helvetica,sans-Serif" font-size="10.00">src/player/player.cpp</text>
</a>
</g>
</g>
<!-- Node1&#45;&gt;Node15 -->
<g id="edge33" class="edge"><title>Node1&#45;&gt;Node15</title>
<path fill="none" stroke="midnightblue" d="M360.861,-452.82C434.523,-447.039 549.767,-434.656 586.534,-412 649.783,-373.026 669.66,-273.812 674.327,-243.759"/>
<polygon fill="midnightblue" stroke="midnightblue" points="360.46,-449.341 350.756,-453.593 360.994,-456.32 360.46,-449.341"/>
</g>
<!-- Node4&#45;&gt;Node3 -->
<g id="edge4" class="edge"><title>Node4&#45;&gt;Node3</title>
<path fill="none" stroke="midnightblue" d="M460.712,-389.829C421.628,-379.633 364.699,-364.782 329.18,-355.516"/>
<polygon fill="midnightblue" stroke="midnightblue" points="460.174,-393.306 470.734,-392.444 461.941,-386.533 460.174,-393.306"/>
</g>
<!-- Node5 -->
<g id="node5" class="node"><title>Node5</title>
<g id="a_node5"><a xlink:href="player__file_8hpp.html" target="_top" xlink:title="Declaration of the PlayerFile class, and associated types. ">
<polygon fill="white" stroke="black" points="388.034,-336.5 388.034,-355.5 523.034,-355.5 523.034,-336.5 388.034,-336.5"/>
<text text-anchor="middle" x="455.534" y="-343.5" font-family="Helvetica,sans-Serif" font-size="10.00">src/player/player_file.hpp</text>
</a>
</g>
</g>
<!-- Node4&#45;&gt;Node5 -->
<g id="edge5" class="edge"><title>Node4&#45;&gt;Node5</title>
<path fill="none" stroke="midnightblue" d="M488.806,-384.431C480.393,-374.967 470.185,-363.483 463.312,-355.751"/>
<polygon fill="midnightblue" stroke="midnightblue" points="486.348,-386.934 495.607,-392.083 491.58,-382.284 486.348,-386.934"/>
</g>
<!-- Node12 -->
<g id="node12" class="node"><title>Node12</title>
<g id="a_node12"><a xlink:href="main_8cpp.html" target="_top" xlink:title="Main entry point and implementation of the playd class. ">
<polygon fill="white" stroke="black" points="403.534,-0.5 403.534,-19.5 479.534,-19.5 479.534,-0.5 403.534,-0.5"/>
<text text-anchor="middle" x="441.534" y="-7.5" font-family="Helvetica,sans-Serif" font-size="10.00">src/main.cpp</text>
</a>
</g>
</g>
<!-- Node4&#45;&gt;Node12 -->
<g id="edge29" class="edge"><title>Node4&#45;&gt;Node12</title>
<path fill="none" stroke="midnightblue" d="M525.745,-386.334C551.227,-367.547 589.534,-332.417 589.534,-291 589.534,-291 589.534,-291 589.534,-121 589.534,-64.0147 517.982,-33.0941 474.38,-19.542"/>
<polygon fill="midnightblue" stroke="midnightblue" points="523.488,-383.644 517.351,-392.281 527.534,-389.356 523.488,-383.644"/>
</g>
<!-- Node13 -->
<g id="node13" class="node"><title>Node13</title>
<g id="a_node13"><a xlink:href="main_8hpp.html" target="_top" xlink:title="Declaration of the playd class. ">
<polygon fill="white" stroke="black" points="403.034,-56.5 403.034,-75.5 480.034,-75.5 480.034,-56.5 403.034,-56.5"/>
<text text-anchor="middle" x="441.534" y="-63.5" font-family="Helvetica,sans-Serif" font-size="10.00">src/main.hpp</text>
</a>
</g>
</g>
<!-- Node4&#45;&gt;Node13 -->
<g id="edge30" class="edge"><title>Node4&#45;&gt;Node13</title>
<path fill="none" stroke="midnightblue" d="M516.153,-384.08C530.374,-363.293 551.534,-326.415 551.534,-291 551.534,-291 551.534,-291 551.534,-177 551.534,-126.361 492.525,-90.8915 460.946,-75.5356"/>
<polygon fill="midnightblue" stroke="midnightblue" points="513.154,-382.258 510.208,-392.435 518.857,-386.316 513.154,-382.258"/>
</g>
<!-- Node4&#45;&gt;Node15 -->
<g id="edge31" class="edge"><title>Node4&#45;&gt;Node15</title>
<path fill="none" stroke="midnightblue" d="M544.318,-389.072C563.866,-381.849 586.641,-371.07 603.534,-356 640.928,-322.64 664.603,-265.117 672.552,-243.521"/>
<polygon fill="midnightblue" stroke="midnightblue" points="543.01,-385.822 534.73,-392.432 545.325,-392.428 543.01,-385.822"/>
</g>
<!-- Node5&#45;&gt;Node6 -->
<g id="edge6" class="edge"><title>Node5&#45;&gt;Node6</title>
<path fill="none" stroke="midnightblue" d="M420.926,-333.172C391.175,-323.004 348.986,-308.585 322.452,-299.516"/>
<polygon fill="midnightblue" stroke="midnightblue" points="419.904,-336.521 430.498,-336.444 422.167,-329.898 419.904,-336.521"/>
</g>
<!-- Node18 -->
<g id="node18" class="node"><title>Node18</title>
<g id="a_node18"><a xlink:href="player__file_8cpp.html" target="_top" xlink:title="Implementation of the PlayerFile class, and associated types. ">
<polygon fill="white" stroke="black" points="388.534,-280.5 388.534,-299.5 522.534,-299.5 522.534,-280.5 388.534,-280.5"/>
<text text-anchor="middle" x="455.534" y="-287.5" font-family="Helvetica,sans-Serif" font-size="10.00">src/player/player_file.cpp</text>
</a>
</g>
</g>
<!-- Node5&#45;&gt;Node18 -->
<g id="edge28" class="edge"><title>Node5&#45;&gt;Node18</title>
<path fill="none" stroke="midnightblue" d="M455.534,-325.805C455.534,-316.91 455.534,-306.78 455.534,-299.751"/>
<polygon fill="midnightblue" stroke="midnightblue" points="452.034,-326.083 455.534,-336.083 459.034,-326.083 452.034,-326.083"/>
</g>
<!-- Node7 -->
<g id="node7" class="node"><title>Node7</title>
<g id="a_node7"><a xlink:href="cmd_8hpp.html" target="_top" xlink:title="Declaration of the CommandHandler class. ">
<polygon fill="white" stroke="black" points="373.534,-224.5 373.534,-243.5 447.534,-243.5 447.534,-224.5 373.534,-224.5"/>
<text text-anchor="middle" x="410.534" y="-231.5" font-family="Helvetica,sans-Serif" font-size="10.00">src/cmd.hpp</text>
</a>
</g>
</g>
<!-- Node6&#45;&gt;Node7 -->
<g id="edge7" class="edge"><title>Node6&#45;&gt;Node7</title>
<path fill="none" stroke="midnightblue" d="M324.536,-276.096C345.648,-266.007 374.395,-252.27 392.712,-243.516"/>
<polygon fill="midnightblue" stroke="midnightblue" points="322.952,-272.974 315.439,-280.444 325.971,-279.29 322.952,-272.974"/>
</g>
<!-- Node9 -->
<g id="node9" class="node"><title>Node9</title>
<g id="a_node9"><a xlink:href="io__reactor_8cpp.html" target="_top" xlink:title="Implementation of the non&#45;virtual aspects of the IoReactor class. ">
<polygon fill="white" stroke="black" points="52.0336,-56.5 52.0336,-75.5 165.034,-75.5 165.034,-56.5 52.0336,-56.5"/>
<text text-anchor="middle" x="108.534" y="-63.5" font-family="Helvetica,sans-Serif" font-size="10.00">src/io/io_reactor.cpp</text>
</a>
</g>
</g>
<!-- Node6&#45;&gt;Node9 -->
<g id="edge21" class="edge"><title>Node6&#45;&gt;Node9</title>
<path fill="none" stroke="midnightblue" d="M229.068,-287.989C154.045,-285.259 40.7039,-275.814 13.5336,-244 -34.7087,-187.512 63.0934,-102.491 97.3099,-75.5226"/>
<polygon fill="midnightblue" stroke="midnightblue" points="229.277,-291.497 239.387,-288.331 229.509,-284.501 229.277,-291.497"/>
</g>
<!-- Node11 -->
<g id="node11" class="node"><title>Node11</title>
<g id="a_node11"><a xlink:href="io__reactor_8hpp.html" target="_top" xlink:title="Declaration of the IoReactor class. ">
<polygon fill="white" stroke="black" points="137.034,-112.5 137.034,-131.5 250.034,-131.5 250.034,-112.5 137.034,-112.5"/>
<text text-anchor="middle" x="193.534" y="-119.5" font-family="Helvetica,sans-Serif" font-size="10.00">src/io/io_reactor.hpp</text>
</a>
</g>
</g>
<!-- Node6&#45;&gt;Node11 -->
<g id="edge22" class="edge"><title>Node6&#45;&gt;Node11</title>
<path fill="none" stroke="midnightblue" d="M228.961,-287.37C157.364,-284.048 51.9951,-274.038 26.5336,-244 -18.3786,-191.015 100.684,-148.848 160.989,-131.53"/>
<polygon fill="midnightblue" stroke="midnightblue" points="229.125,-290.88 239.266,-287.813 229.426,-283.886 229.125,-290.88"/>
</g>
<!-- Node6&#45;&gt;Node12 -->
<g id="edge24" class="edge"><title>Node6&#45;&gt;Node12</title>
<path fill="none" stroke="midnightblue" d="M359.583,-278.581C403.314,-270.271 457.216,-257.773 475.534,-244 502.28,-223.89 513.534,-212.463 513.534,-179 513.534,-179 513.534,-179 513.534,-121 513.534,-90.2048 506.556,-81.6629 489.534,-56 479.81,-41.3407 464.415,-28.0339 453.691,-19.7572"/>
<polygon fill="midnightblue" stroke="midnightblue" points="358.761,-275.174 349.571,-280.446 360.043,-282.056 358.761,-275.174"/>
</g>
<!-- Node6&#45;&gt;Node13 -->
<g id="edge23" class="edge"><title>Node6&#45;&gt;Node13</title>
<path fill="none" stroke="midnightblue" d="M363.528,-278.53C401.904,-270.946 444.938,-259.333 456.534,-244 496.156,-191.608 459.46,-103.867 446.015,-75.8693"/>
<polygon fill="midnightblue" stroke="midnightblue" points="362.545,-275.155 353.378,-280.467 363.856,-282.031 362.545,-275.155"/>
</g>
<!-- Node6&#45;&gt;Node15 -->
<g id="edge25" class="edge"><title>Node6&#45;&gt;Node15</title>
<path fill="none" stroke="midnightblue" d="M366.096,-279.205C438.137,-268.914 550.194,-252.906 617.854,-243.24"/>
<polygon fill="midnightblue" stroke="midnightblue" points="365.172,-275.802 355.768,-280.681 366.162,-282.731 365.172,-275.802"/>
</g>
<!-- Node16 -->
<g id="node16" class="node"><title>Node16</title>
<g id="a_node16"><a xlink:href="player__position_8cpp.html" target="_top" xlink:title="Implementation of the PlayerPosition class, and related Player methods. ">
<polygon fill="white" stroke="black" points="35.5336,-224.5 35.5336,-243.5 193.534,-243.5 193.534,-224.5 35.5336,-224.5"/>
<text text-anchor="middle" x="114.534" y="-231.5" font-family="Helvetica,sans-Serif" font-size="10.00">src/player/player_position.cpp</text>
</a>
</g>
</g>
<!-- Node6&#45;&gt;Node16 -->
<g id="edge26" class="edge"><title>Node6&#45;&gt;Node16</title>
<path fill="none" stroke="midnightblue" d="M258.791,-277.568C224.269,-267.381 174.529,-252.703 143.395,-243.516"/>
<polygon fill="midnightblue" stroke="midnightblue" points="257.955,-280.97 268.537,-280.444 259.936,-274.256 257.955,-280.97"/>
</g>
<!-- Node17 -->
<g id="node17" class="node"><title>Node17</title>
<g id="a_node17"><a xlink:href="player__state_8cpp.html" target="_top" xlink:title="Implementation of the PlayerState class, and related Player methods. ">
<polygon fill="white" stroke="black" points="211.534,-224.5 211.534,-243.5 355.534,-243.5 355.534,-224.5 211.534,-224.5"/>
<text text-anchor="middle" x="283.534" y="-231.5" font-family="Helvetica,sans-Serif" font-size="10.00">src/player/player_state.cpp</text>
</a>
</g>
</g>
<!-- Node6&#45;&gt;Node17 -->
<g id="edge27" class="edge"><title>Node6&#45;&gt;Node17</title>
<path fill="none" stroke="midnightblue" d="M292.71,-270.396C290.368,-261.362 287.665,-250.936 285.802,-243.751"/>
<polygon fill="midnightblue" stroke="midnightblue" points="289.324,-271.281 295.222,-280.083 296.1,-269.525 289.324,-271.281"/>
</g>
<!-- Node8 -->
<g id="node8" class="node"><title>Node8</title>
<g id="a_node8"><a xlink:href="cmd_8cpp.html" target="_top" xlink:title="Implementation of the CommandHandler class. ">
<polygon fill="white" stroke="black" points="336.034,-168.5 336.034,-187.5 409.034,-187.5 409.034,-168.5 336.034,-168.5"/>
<text text-anchor="middle" x="372.534" y="-175.5" font-family="Helvetica,sans-Serif" font-size="10.00">src/cmd.cpp</text>
</a>
</g>
</g>
<!-- Node7&#45;&gt;Node8 -->
<g id="edge8" class="edge"><title>Node7&#45;&gt;Node8</title>
<path fill="none" stroke="midnightblue" d="M398.469,-215.855C391.889,-206.505 384.023,-195.327 378.692,-187.751"/>
<polygon fill="midnightblue" stroke="midnightblue" points="395.641,-217.919 404.259,-224.083 401.366,-213.891 395.641,-217.919"/>
</g>
<!-- Node7&#45;&gt;Node9 -->
<g id="edge9" class="edge"><title>Node7&#45;&gt;Node9</title>
<path fill="none" stroke="midnightblue" d="M363.41,-223.949C271.388,-209.338 233.596,-238.683 160.534,-188 121.645,-161.023 111.648,-98.5601 109.245,-75.637"/>
<polygon fill="midnightblue" stroke="midnightblue" points="362.938,-227.419 373.388,-225.671 364.129,-220.521 362.938,-227.419"/>
</g>
<!-- Node10 -->
<g id="node10" class="node"><title>Node10</title>
<g id="a_node10"><a xlink:href="tokeniser_8hpp.html" target="_top" xlink:title="Declaration of the Tokeniser class. ">
<polygon fill="white" stroke="black" points="170.034,-168.5 170.034,-187.5 279.034,-187.5 279.034,-168.5 170.034,-168.5"/>
<text text-anchor="middle" x="224.534" y="-175.5" font-family="Helvetica,sans-Serif" font-size="10.00">src/io/tokeniser.hpp</text>
</a>
</g>
</g>
<!-- Node7&#45;&gt;Node10 -->
<g id="edge10" class="edge"><title>Node7&#45;&gt;Node10</title>
<path fill="none" stroke="midnightblue" d="M371.156,-221.568C336.068,-211.381 285.512,-196.703 253.868,-187.516"/>
<polygon fill="midnightblue" stroke="midnightblue" points="370.482,-225.017 381.061,-224.444 372.434,-218.294 370.482,-225.017"/>
</g>
<!-- Node7&#45;&gt;Node12 -->
<g id="edge19" class="edge"><title>Node7&#45;&gt;Node12</title>
<path fill="none" stroke="midnightblue" d="M363.344,-223.941C261.562,-208.103 223.786,-236.508 137.534,-188 74.5328,-152.569 -5.62743,-109.898 42.5336,-56 66.3674,-29.3271 308.467,-16.4979 403.519,-12.4596"/>
<polygon fill="midnightblue" stroke="midnightblue" points="362.959,-227.425 373.398,-225.616 364.109,-220.52 362.959,-227.425"/>
</g>
<!-- Node7&#45;&gt;Node13 -->
<g id="edge20" class="edge"><title>Node7&#45;&gt;Node13</title>
<path fill="none" stroke="midnightblue" d="M414.095,-213.93C420.82,-177.92 435.141,-101.231 439.934,-75.5681"/>
<polygon fill="midnightblue" stroke="midnightblue" points="410.596,-213.603 412.2,-224.075 417.477,-214.888 410.596,-213.603"/>
</g>
<!-- Node14 -->
<g id="node14" class="node"><title>Node14</title>
<g id="a_node14"><a xlink:href="tokeniser_8cpp.html" target="_top" xlink:title="Definition of the Tokeniser class. ">
<polygon fill="white" stroke="black" points="286.534,-112.5 286.534,-131.5 394.534,-131.5 394.534,-112.5 286.534,-112.5"/>
<text text-anchor="middle" x="340.534" y="-119.5" font-family="Helvetica,sans-Serif" font-size="10.00">src/io/tokeniser.cpp</text>
</a>
</g>
</g>
<!-- Node7&#45;&gt;Node14 -->
<g id="edge18" class="edge"><title>Node7&#45;&gt;Node14</title>
<path fill="none" stroke="midnightblue" d="M367.822,-220.575C351.992,-213.668 335.683,-203.281 326.534,-188 315.741,-169.975 327.37,-144.726 334.995,-131.635"/>
<polygon fill="midnightblue" stroke="midnightblue" points="366.962,-223.999 377.547,-224.438 369.546,-217.493 366.962,-223.999"/>
</g>
<!-- Node10&#45;&gt;Node11 -->
<g id="edge11" class="edge"><title>Node10&#45;&gt;Node11</title>
<path fill="none" stroke="midnightblue" d="M214.358,-159.275C209.06,-150.045 202.817,-139.17 198.557,-131.751"/>
<polygon fill="midnightblue" stroke="midnightblue" points="211.401,-161.153 219.415,-168.083 217.471,-157.668 211.401,-161.153"/>
</g>
<!-- Node10&#45;&gt;Node14 -->
<g id="edge17" class="edge"><title>Node10&#45;&gt;Node14</title>
<path fill="none" stroke="midnightblue" d="M252.253,-164.096C273.925,-154.007 303.436,-140.27 322.239,-131.516"/>
<polygon fill="midnightblue" stroke="midnightblue" points="250.503,-161.05 242.914,-168.444 253.457,-167.396 250.503,-161.05"/>
</g>
<!-- Node11&#45;&gt;Node9 -->
<g id="edge12" class="edge"><title>Node11&#45;&gt;Node9</title>
<path fill="none" stroke="midnightblue" d="M171.34,-106.901C155.754,-96.9986 135.404,-84.0705 122.156,-75.6545"/>
<polygon fill="midnightblue" stroke="midnightblue" points="169.559,-109.916 179.877,-112.324 173.313,-104.007 169.559,-109.916"/>
</g>
<!-- Node11&#45;&gt;Node11 -->
<g id="edge13" class="edge"><title>Node11&#45;&gt;Node11</title>
<path fill="none" stroke="midnightblue" d="M235.316,-132.393C252.987,-133.17 268.034,-129.706 268.034,-122 268.034,-112.867 246.898,-109.692 225.308,-112.475"/>
<polygon fill="midnightblue" stroke="midnightblue" points="235.573,-128.902 225.308,-131.525 234.968,-135.876 235.573,-128.902"/>
</g>
<!-- Node11&#45;&gt;Node12 -->
<g id="edge14" class="edge"><title>Node11&#45;&gt;Node12</title>
<path fill="none" stroke="midnightblue" d="M222.155,-108.305C273.209,-85.6603 378.697,-38.8712 422.164,-19.5914"/>
<polygon fill="midnightblue" stroke="midnightblue" points="220.716,-105.114 212.994,-112.368 223.554,-111.513 220.716,-105.114"/>
</g>
<!-- Node11&#45;&gt;Node13 -->
<g id="edge15" class="edge"><title>Node11&#45;&gt;Node13</title>
<path fill="none" stroke="midnightblue" d="M242.79,-110.275C289.803,-100.038 359.682,-84.8225 402.829,-75.4275"/>
<polygon fill="midnightblue" stroke="midnightblue" points="241.856,-106.896 232.83,-112.444 243.346,-113.736 241.856,-106.896"/>
</g>
<!-- Node13&#45;&gt;Node12 -->
<g id="edge16" class="edge"><title>Node13&#45;&gt;Node12</title>
<path fill="none" stroke="midnightblue" d="M441.534,-45.8045C441.534,-36.9102 441.534,-26.7798 441.534,-19.7511"/>
<polygon fill="midnightblue" stroke="midnightblue" points="438.034,-46.083 441.534,-56.083 445.034,-46.083 438.034,-46.083"/>
</g>
</g>
</svg>
