<?xml version="1.0" encoding="UTF-8" standalone="no"?>
<!DOCTYPE svg PUBLIC "-//W3C//DTD SVG 1.1//EN"
 "http://www.w3.org/Graphics/SVG/1.1/DTD/svg11.dtd">
<!-- Generated by graphviz version 2.38.0 (20140413.2041)
 -->
<!-- Title: src/audio/audio_system.hpp Pages: 1 -->
<svg width="1153pt" height="263pt"
 viewBox="0.00 0.00 1153.44 263.00" xmlns="http://www.w3.org/2000/svg" xmlns:xlink="http://www.w3.org/1999/xlink">
<g id="graph0" class="graph" transform="scale(1 1) rotate(0) translate(4 259)">
<title>src/audio/audio_system.hpp</title>
<polygon fill="white" stroke="none" points="-4,4 -4,-259 1149.44,-259 1149.44,4 -4,4"/>
<!-- Node1 -->
<g id="node1" class="node"><title>Node1</title>
<polygon fill="#bfbfbf" stroke="black" points="409.94,-235.5 409.94,-254.5 556.94,-254.5 556.94,-235.5 409.94,-235.5"/>
<text text-anchor="middle" x="483.44" y="-242.5" font-family="Helvetica,sans-Serif" font-size="10.00">src/audio/audio_system.hpp</text>
</g>
<!-- Node2 -->
<g id="node2" class="node"><title>Node2</title>
<polygon fill="white" stroke="#bfbfbf" points="31.4399,-62 31.4399,-81 93.4399,-81 93.4399,-62 31.4399,-62"/>
<text text-anchor="middle" x="62.4399" y="-69" font-family="Helvetica,sans-Serif" font-size="10.00">functional</text>
</g>
<!-- Node1&#45;&gt;Node2 -->
<g id="edge1" class="edge"><title>Node1&#45;&gt;Node2</title>
<path fill="none" stroke="midnightblue" d="M409.815,-237.839C299.901,-226.858 101.593,-199.543 62.4399,-143 52.0109,-127.939 53.7767,-106.391 57.0426,-91.0887"/>
<polygon fill="midnightblue" stroke="midnightblue" points="60.4765,-91.7853 59.5329,-81.2326 53.6898,-90.0705 60.4765,-91.7853"/>
</g>
<!-- Node3 -->
<g id="node3" class="node"><title>Node3</title>
<polygon fill="white" stroke="#bfbfbf" points="99.9399,-0.5 99.9399,-19.5 142.94,-19.5 142.94,-0.5 99.9399,-0.5"/>
<text text-anchor="middle" x="121.44" y="-7.5" font-family="Helvetica,sans-Serif" font-size="10.00">string</text>
</g>
<!-- Node1&#45;&gt;Node3 -->
<g id="edge2" class="edge"><title>Node1&#45;&gt;Node3</title>
<path fill="none" stroke="midnightblue" d="M409.606,-244.708C333.998,-243.206 214.177,-234.58 117.44,-199 74.9812,-183.384 60.9315,-178.14 32.4399,-143 7.32133,-112.02 -11.8432,-89.0784 10.4399,-56 28.0027,-29.9288 63.5299,-18.9566 89.6807,-14.3423"/>
<polygon fill="midnightblue" stroke="midnightblue" points="90.5319,-17.7526 99.8843,-12.7742 89.4686,-10.8338 90.5319,-17.7526"/>
</g>
<!-- Node4 -->
<g id="node4" class="node"><title>Node4</title>
<polygon fill="white" stroke="#bfbfbf" points="463.44,-123.5 463.44,-142.5 503.44,-142.5 503.44,-123.5 463.44,-123.5"/>
<text text-anchor="middle" x="483.44" y="-130.5" font-family="Helvetica,sans-Serif" font-size="10.00">utility</text>
</g>
<!-- Node1&#45;&gt;Node4 -->
<g id="edge3" class="edge"><title>Node1&#45;&gt;Node4</title>
<path fill="none" stroke="midnightblue" d="M483.44,-235.368C483.44,-217.617 483.44,-176.666 483.44,-152.597"/>
<polygon fill="midnightblue" stroke="midnightblue" points="486.94,-152.591 483.44,-142.591 479.94,-152.591 486.94,-152.591"/>
</g>
<!-- Node5 -->
<g id="node5" class="node"><title>Node5</title>
<polygon fill="white" stroke="#bfbfbf" points="949.94,-179.5 949.94,-198.5 1140.94,-198.5 1140.94,-179.5 949.94,-179.5"/>
<text text-anchor="middle" x="1045.44" y="-186.5" font-family="Helvetica,sans-Serif" font-size="10.00">portaudiocpp/SampleDataFormat.hxx</text>
</g>
<!-- Node1&#45;&gt;Node5 -->
<g id="edge4" class="edge"><title>Node1&#45;&gt;Node5</title>
<path fill="none" stroke="midnightblue" d="M557.2,-236.913C656.975,-227.326 835.237,-210.197 946.542,-199.503"/>
<polygon fill="midnightblue" stroke="midnightblue" points="947.147,-202.961 956.766,-198.52 946.477,-195.993 947.147,-202.961"/>
</g>
<!-- Node6 -->
<g id="node6" class="node"><title>Node6</title>
<polygon fill="white" stroke="#bfbfbf" points="1011.44,-123.5 1011.44,-142.5 1145.44,-142.5 1145.44,-123.5 1011.44,-123.5"/>
<text text-anchor="middle" x="1078.44" y="-130.5" font-family="Helvetica,sans-Serif" font-size="10.00">portaudiocpp/Stream.hxx</text>
</g>
<!-- Node1&#45;&gt;Node6 -->
<g id="edge5" class="edge"><title>Node1&#45;&gt;Node6</title>
<path fill="none" stroke="midnightblue" d="M556.967,-243.207C640.814,-240.661 781.309,-231.367 897.44,-199 917.743,-193.341 920.83,-186.726 940.44,-179 973.12,-166.126 1011.12,-153.931 1038.96,-145.492"/>
<polygon fill="midnightblue" stroke="midnightblue" points="1040.16,-148.786 1048.73,-142.558 1038.15,-142.082 1040.16,-148.786"/>
</g>
<!-- Node7 -->
<g id="node7" class="node"><title>Node7</title>
<g id="a_node7"><a xlink:href="sample__formats_8hpp.html" target="_top" xlink:title="The SampleFormat enumeration. ">
<polygon fill="white" stroke="black" points="621.94,-62 621.94,-81 740.94,-81 740.94,-62 621.94,-62"/>
<text text-anchor="middle" x="681.44" y="-69" font-family="Helvetica,sans-Serif" font-size="10.00">../sample_formats.hpp</text>
</a>
</g>
</g>
<!-- Node1&#45;&gt;Node7 -->
<g id="edge6" class="edge"><title>Node1&#45;&gt;Node7</title>
<path fill="none" stroke="midnightblue" d="M551.205,-235.473C645.642,-221.927 808.744,-191.905 839.44,-143 844.165,-135.471 844.682,-130.179 839.44,-123 832.453,-113.432 769.166,-95.2991 724.844,-83.5652"/>
<polygon fill="midnightblue" stroke="midnightblue" points="725.707,-80.1731 715.146,-81.0191 723.929,-86.9437 725.707,-80.1731"/>
</g>
<!-- Node9 -->
<g id="node9" class="node"><title>Node9</title>
<g id="a_node9"><a xlink:href="audio__sink_8hpp.html" target="_top" xlink:title="Declaration of the AudioSink class. ">
<polygon fill="white" stroke="black" points="627.94,-179.5 627.94,-198.5 714.94,-198.5 714.94,-179.5 627.94,-179.5"/>
<text text-anchor="middle" x="671.44" y="-186.5" font-family="Helvetica,sans-Serif" font-size="10.00">audio_sink.hpp</text>
</a>
</g>
</g>
<!-- Node1&#45;&gt;Node9 -->
<g id="edge8" class="edge"><title>Node1&#45;&gt;Node9</title>
<path fill="none" stroke="midnightblue" d="M513.229,-235.444C545.269,-226.241 596.373,-211.562 631.793,-201.388"/>
<polygon fill="midnightblue" stroke="midnightblue" points="633.145,-204.641 641.79,-198.516 631.212,-197.913 633.145,-204.641"/>
</g>
<!-- Node15 -->
<g id="node15" class="node"><title>Node15</title>
<g id="a_node15"><a xlink:href="audio__source_8hpp.html" target="_top" xlink:title="Declaration of the AudioSource class. ">
<polygon fill="white" stroke="black" points="71.4399,-123.5 71.4399,-142.5 171.44,-142.5 171.44,-123.5 71.4399,-123.5"/>
<text text-anchor="middle" x="121.44" y="-130.5" font-family="Helvetica,sans-Serif" font-size="10.00">audio_source.hpp</text>
</a>
</g>
</g>
<!-- Node1&#45;&gt;Node15 -->
<g id="edge36" class="edge"><title>Node1&#45;&gt;Node15</title>
<path fill="none" stroke="midnightblue" d="M423.194,-235.473C378.436,-228.229 316.251,-216.239 263.44,-199 220.786,-185.077 173.939,-161.992 146.144,-147.409"/>
<polygon fill="midnightblue" stroke="midnightblue" points="147.62,-144.23 137.146,-142.634 144.339,-150.413 147.62,-144.23"/>
</g>
<!-- Node25 -->
<g id="node25" class="node"><title>Node25</title>
<g id="a_node25"><a xlink:href="audio_8hpp.html" target="_top" xlink:title="Declaration of the Audio class. ">
<polygon fill="white" stroke="black" points="272.44,-179.5 272.44,-198.5 334.44,-198.5 334.44,-179.5 272.44,-179.5"/>
<text text-anchor="middle" x="303.44" y="-186.5" font-family="Helvetica,sans-Serif" font-size="10.00">audio.hpp</text>
</a>
</g>
</g>
<!-- Node1&#45;&gt;Node25 -->
<g id="edge37" class="edge"><title>Node1&#45;&gt;Node25</title>
<path fill="none" stroke="midnightblue" d="M454.918,-235.444C424.374,-226.28 375.732,-211.688 341.837,-201.519"/>
<polygon fill="midnightblue" stroke="midnightblue" points="342.412,-198.038 331.828,-198.516 340.401,-204.742 342.412,-198.038"/>
</g>
<!-- Node8 -->
<g id="node8" class="node"><title>Node8</title>
<polygon fill="white" stroke="#bfbfbf" points="547.94,-0.5 547.94,-19.5 594.94,-19.5 594.94,-0.5 547.94,-0.5"/>
<text text-anchor="middle" x="571.44" y="-7.5" font-family="Helvetica,sans-Serif" font-size="10.00">cstdint</text>
</g>
<!-- Node7&#45;&gt;Node8 -->
<g id="edge7" class="edge"><title>Node7&#45;&gt;Node8</title>
<path fill="none" stroke="midnightblue" d="M665.68,-61.9751C647.464,-52.1222 617.267,-35.7883 595.972,-24.2697"/>
<polygon fill="midnightblue" stroke="midnightblue" points="597.632,-21.1883 587.171,-19.5091 594.302,-27.3453 597.632,-21.1883"/>
</g>
<!-- Node9&#45;&gt;Node3 -->
<g id="edge12" class="edge"><title>Node9&#45;&gt;Node3</title>
<path fill="none" stroke="midnightblue" d="M702.728,-179.473C736.636,-168.702 783.289,-148.461 762.44,-123 762.066,-122.544 430.021,-56.1008 429.44,-56 328.899,-38.5536 209.103,-22.3612 153.16,-15.065"/>
<polygon fill="midnightblue" stroke="midnightblue" points="153.529,-11.5836 143.161,-13.7672 152.628,-18.5254 153.529,-11.5836"/>
</g>
<!-- Node9&#45;&gt;Node4 -->
<g id="edge13" class="edge"><title>Node9&#45;&gt;Node4</title>
<path fill="none" stroke="midnightblue" d="M640.297,-179.435C610.137,-171.085 562.883,-157.86 513.311,-143.209"/>
<polygon fill="midnightblue" stroke="midnightblue" points="514.284,-139.847 503.702,-140.359 512.294,-146.558 514.284,-139.847"/>
</g>
<!-- Node9&#45;&gt;Node6 -->
<g id="edge17" class="edge"><title>Node9&#45;&gt;Node6</title>
<path fill="none" stroke="midnightblue" d="M714.996,-182.221C784.065,-173.057 919.539,-155.083 1004.16,-143.855"/>
<polygon fill="midnightblue" stroke="midnightblue" points="1004.77,-147.305 1014.22,-142.52 1003.85,-140.366 1004.77,-147.305"/>
</g>
<!-- Node9&#45;&gt;Node8 -->
<g id="edge10" class="edge"><title>Node9&#45;&gt;Node8</title>
<path fill="none" stroke="midnightblue" d="M715.191,-184.171C770.184,-177.692 853.715,-161.31 821.44,-123 760.71,-50.9151 688.971,-142.021 612.44,-87 593.085,-73.0853 581.957,-47.1377 576.302,-29.472"/>
<polygon fill="midnightblue" stroke="midnightblue" points="579.62,-28.3474 573.464,-19.7245 572.899,-30.3043 579.62,-28.3474"/>
</g>
<!-- Node10 -->
<g id="node10" class="node"><title>Node10</title>
<polygon fill="white" stroke="#bfbfbf" points="370.44,-62 370.44,-81 420.44,-81 420.44,-62 370.44,-62"/>
<text text-anchor="middle" x="395.44" y="-69" font-family="Helvetica,sans-Serif" font-size="10.00">chrono</text>
</g>
<!-- Node9&#45;&gt;Node10 -->
<g id="edge9" class="edge"><title>Node9&#45;&gt;Node10</title>
<path fill="none" stroke="midnightblue" d="M694.861,-179.39C723.257,-167.689 765.031,-145.62 745.44,-123 744.794,-122.254 519.343,-90.1208 430.668,-77.5072"/>
<polygon fill="midnightblue" stroke="midnightblue" points="430.95,-74.0121 420.557,-76.0692 429.964,-80.9424 430.95,-74.0121"/>
</g>
<!-- Node11 -->
<g id="node11" class="node"><title>Node11</title>
<polygon fill="white" stroke="#bfbfbf" points="303.44,-123.5 303.44,-142.5 357.44,-142.5 357.44,-123.5 303.44,-123.5"/>
<text text-anchor="middle" x="330.44" y="-130.5" font-family="Helvetica,sans-Serif" font-size="10.00">memory</text>
</g>
<!-- Node9&#45;&gt;Node11 -->
<g id="edge11" class="edge"><title>Node9&#45;&gt;Node11</title>
<path fill="none" stroke="midnightblue" d="M627.772,-182.93C570.268,-175.953 465.851,-162.242 367.324,-143.009"/>
<polygon fill="midnightblue" stroke="midnightblue" points="367.991,-139.573 357.502,-141.069 366.635,-146.44 367.991,-139.573"/>
</g>
<!-- Node12 -->
<g id="node12" class="node"><title>Node12</title>
<polygon fill="white" stroke="#bfbfbf" points="306.44,-62 306.44,-81 352.44,-81 352.44,-62 306.44,-62"/>
<text text-anchor="middle" x="329.44" y="-69" font-family="Helvetica,sans-Serif" font-size="10.00">vector</text>
</g>
<!-- Node9&#45;&gt;Node12 -->
<g id="edge14" class="edge"><title>Node9&#45;&gt;Node12</title>
<path fill="none" stroke="midnightblue" d="M683.816,-179.365C701.124,-166.274 728.711,-141.025 712.44,-123 659.901,-64.7966 437.136,-107.447 361.44,-87 359.287,-86.4185 357.096,-85.7072 354.923,-84.9153"/>
<polygon fill="midnightblue" stroke="midnightblue" points="356.249,-81.6763 345.671,-81.0779 353.567,-88.1422 356.249,-81.6763"/>
</g>
<!-- Node13 -->
<g id="node13" class="node"><title>Node13</title>
<polygon fill="white" stroke="#bfbfbf" points="375.94,-123.5 375.94,-142.5 444.94,-142.5 444.94,-123.5 375.94,-123.5"/>
<text text-anchor="middle" x="410.44" y="-130.5" font-family="Helvetica,sans-Serif" font-size="10.00">portaudio.h</text>
</g>
<!-- Node9&#45;&gt;Node13 -->
<g id="edge15" class="edge"><title>Node9&#45;&gt;Node13</title>
<path fill="none" stroke="midnightblue" d="M630.084,-179.444C582.445,-169.587 504.446,-153.45 455.354,-143.293"/>
<polygon fill="midnightblue" stroke="midnightblue" points="455.84,-139.819 445.338,-141.22 454.422,-146.674 455.84,-139.819"/>
</g>
<!-- Node14 -->
<g id="node14" class="node"><title>Node14</title>
<polygon fill="white" stroke="#bfbfbf" points="521.44,-123.5 521.44,-142.5 703.44,-142.5 703.44,-123.5 521.44,-123.5"/>
<text text-anchor="middle" x="612.44" y="-130.5" font-family="Helvetica,sans-Serif" font-size="10.00">portaudiocpp/CallbackInterface.hxx</text>
</g>
<!-- Node9&#45;&gt;Node14 -->
<g id="edge16" class="edge"><title>Node9&#45;&gt;Node14</title>
<path fill="none" stroke="midnightblue" d="M661.961,-179.324C653.239,-171.341 640.096,-159.313 629.542,-149.653"/>
<polygon fill="midnightblue" stroke="midnightblue" points="631.832,-147.004 622.092,-142.834 627.105,-152.167 631.832,-147.004"/>
</g>
<!-- Node9&#45;&gt;Node15 -->
<g id="edge18" class="edge"><title>Node9&#45;&gt;Node15</title>
<path fill="none" stroke="midnightblue" d="M627.823,-183.718C530.131,-174.126 293.589,-150.902 181.835,-139.93"/>
<polygon fill="midnightblue" stroke="midnightblue" points="182.036,-136.433 171.742,-138.939 181.352,-143.399 182.036,-136.433"/>
</g>
<!-- Node21 -->
<g id="node21" class="node"><title>Node21</title>
<g id="a_node21"><a xlink:href="ringbuffer_8hpp.html" target="_top" xlink:title="The RingBuffer class template. ">
<polygon fill="white" stroke="black" points="911.94,-123.5 911.94,-142.5 992.94,-142.5 992.94,-123.5 911.94,-123.5"/>
<text text-anchor="middle" x="952.44" y="-130.5" font-family="Helvetica,sans-Serif" font-size="10.00">ringbuffer.hpp</text>
</a>
</g>
</g>
<!-- Node9&#45;&gt;Node21 -->
<g id="edge30" class="edge"><title>Node9&#45;&gt;Node21</title>
<path fill="none" stroke="midnightblue" d="M715.038,-179.622C765.581,-169.909 848.744,-153.927 902.022,-143.689"/>
<polygon fill="midnightblue" stroke="midnightblue" points="902.775,-147.108 911.935,-141.784 901.454,-140.234 902.775,-147.108"/>
</g>
<!-- Node15&#45;&gt;Node2 -->
<g id="edge22" class="edge"><title>Node15&#45;&gt;Node2</title>
<path fill="none" stroke="midnightblue" d="M112.987,-123.475C103.874,-114.285 89.1697,-99.4563 77.9644,-88.156"/>
<polygon fill="midnightblue" stroke="midnightblue" points="80.404,-85.6455 70.8775,-81.0091 75.4334,-90.5744 80.404,-85.6455"/>
</g>
<!-- Node15&#45;&gt;Node3 -->
<g id="edge23" class="edge"><title>Node15&#45;&gt;Node3</title>
<path fill="none" stroke="midnightblue" d="M121.44,-123.298C121.44,-103.85 121.44,-56.49 121.44,-29.9036"/>
<polygon fill="midnightblue" stroke="midnightblue" points="124.94,-29.6231 121.44,-19.6232 117.94,-29.6232 124.94,-29.6231"/>
</g>
<!-- Node15&#45;&gt;Node7 -->
<g id="edge29" class="edge"><title>Node15&#45;&gt;Node7</title>
<path fill="none" stroke="midnightblue" d="M171.629,-126.667C271.829,-116.021 496.858,-92.1118 611.475,-79.9337"/>
<polygon fill="midnightblue" stroke="midnightblue" points="611.971,-83.4009 621.545,-78.8639 611.231,-76.4401 611.971,-83.4009"/>
</g>
<!-- Node15&#45;&gt;Node8 -->
<g id="edge21" class="edge"><title>Node15&#45;&gt;Node8</title>
<path fill="none" stroke="midnightblue" d="M159.238,-123.445C187.6,-116.124 226.818,-104.049 258.44,-87 277.93,-76.4918 277.197,-64.9719 297.44,-56 378.254,-20.1826 483.874,-12.5882 537.302,-11.162"/>
<polygon fill="midnightblue" stroke="midnightblue" points="537.652,-14.6556 547.577,-10.9479 537.506,-7.65712 537.652,-14.6556"/>
</g>
<!-- Node15&#45;&gt;Node10 -->
<g id="edge20" class="edge"><title>Node15&#45;&gt;Node10</title>
<path fill="none" stroke="midnightblue" d="M171.843,-125.805C220.941,-119.013 297.338,-106.425 361.44,-87 363.586,-86.3498 365.779,-85.607 367.967,-84.809"/>
<polygon fill="midnightblue" stroke="midnightblue" points="369.362,-88.0209 377.36,-81.073 366.775,-81.5165 369.362,-88.0209"/>
</g>
<!-- Node15&#45;&gt;Node12 -->
<g id="edge24" class="edge"><title>Node15&#45;&gt;Node12</title>
<path fill="none" stroke="midnightblue" d="M158.828,-123.486C193.716,-115.23 247.059,-101.808 292.44,-87 294.709,-86.2596 297.04,-85.4546 299.376,-84.6158"/>
<polygon fill="midnightblue" stroke="midnightblue" points="300.719,-87.85 308.851,-81.0577 298.258,-81.2969 300.719,-87.85"/>
</g>
<!-- Node16 -->
<g id="node16" class="node"><title>Node16</title>
<polygon fill="white" stroke="#bfbfbf" points="208.94,-62 208.94,-81 249.94,-81 249.94,-62 208.94,-62"/>
<text text-anchor="middle" x="229.44" y="-69" font-family="Helvetica,sans-Serif" font-size="10.00">array</text>
</g>
<!-- Node15&#45;&gt;Node16 -->
<g id="edge19" class="edge"><title>Node15&#45;&gt;Node16</title>
<path fill="none" stroke="midnightblue" d="M136.914,-123.475C154.718,-113.666 184.18,-97.4346 205.072,-85.925"/>
<polygon fill="midnightblue" stroke="midnightblue" points="206.925,-88.9001 213.995,-81.0091 203.547,-82.769 206.925,-88.9001"/>
</g>
<!-- Node17 -->
<g id="node17" class="node"><title>Node17</title>
<polygon fill="white" stroke="#bfbfbf" points="149.94,-62 149.94,-81 190.94,-81 190.94,-62 149.94,-62"/>
<text text-anchor="middle" x="170.44" y="-69" font-family="Helvetica,sans-Serif" font-size="10.00">sox.h</text>
</g>
<!-- Node15&#45;&gt;Node17 -->
<g id="edge25" class="edge"><title>Node15&#45;&gt;Node17</title>
<path fill="none" stroke="midnightblue" d="M128.46,-123.475C135.883,-114.462 147.773,-100.025 157.007,-88.8118"/>
<polygon fill="midnightblue" stroke="midnightblue" points="159.777,-90.9534 163.432,-81.0091 154.374,-86.5034 159.777,-90.9534"/>
</g>
<!-- Node18 -->
<g id="node18" class="node"><title>Node18</title>
<g id="a_node18"><a xlink:href="errors_8hpp.html" target="_top" xlink:title="Declarations of the playd Error exception set. ">
<polygon fill="white" stroke="black" points="857.94,-62 857.94,-81 930.94,-81 930.94,-62 857.94,-62"/>
<text text-anchor="middle" x="894.44" y="-69" font-family="Helvetica,sans-Serif" font-size="10.00">../errors.hpp</text>
</a>
</g>
</g>
<!-- Node15&#45;&gt;Node18 -->
<g id="edge26" class="edge"><title>Node15&#45;&gt;Node18</title>
<path fill="none" stroke="midnightblue" d="M171.595,-129.231C330.64,-120.408 815.22,-93.1683 848.44,-87 852.608,-86.2261 856.926,-85.1913 861.172,-84.0289"/>
<polygon fill="midnightblue" stroke="midnightblue" points="862.26,-87.357 870.845,-81.1482 860.262,-80.6482 862.26,-87.357"/>
</g>
<!-- Node19 -->
<g id="node19" class="node"><title>Node19</title>
<polygon fill="white" stroke="#bfbfbf" points="902.94,-0.5 902.94,-19.5 959.94,-19.5 959.94,-0.5 902.94,-0.5"/>
<text text-anchor="middle" x="931.44" y="-7.5" font-family="Helvetica,sans-Serif" font-size="10.00">iostream</text>
</g>
<!-- Node18&#45;&gt;Node19 -->
<g id="edge27" class="edge"><title>Node18&#45;&gt;Node19</title>
<path fill="none" stroke="midnightblue" d="M899.741,-61.9751C905.181,-53.2268 913.799,-39.3691 920.676,-28.3093"/>
<polygon fill="midnightblue" stroke="midnightblue" points="923.84,-29.8494 926.149,-19.5091 917.896,-26.1528 923.84,-29.8494"/>
</g>
<!-- Node20 -->
<g id="node20" class="node"><title>Node20</title>
<polygon fill="white" stroke="#bfbfbf" points="830.44,-0.5 830.44,-19.5 884.44,-19.5 884.44,-0.5 830.44,-0.5"/>
<text text-anchor="middle" x="857.44" y="-7.5" font-family="Helvetica,sans-Serif" font-size="10.00">sstream</text>
</g>
<!-- Node18&#45;&gt;Node20 -->
<g id="edge28" class="edge"><title>Node18&#45;&gt;Node20</title>
<path fill="none" stroke="midnightblue" d="M889.139,-61.9751C883.699,-53.2268 875.081,-39.3691 868.204,-28.3093"/>
<polygon fill="midnightblue" stroke="midnightblue" points="870.984,-26.1528 862.731,-19.5091 865.04,-29.8494 870.984,-26.1528"/>
</g>
<!-- Node21&#45;&gt;Node18 -->
<g id="edge33" class="edge"><title>Node21&#45;&gt;Node18</title>
<path fill="none" stroke="midnightblue" d="M944.13,-123.475C935.258,-114.373 920.994,-99.741 910.02,-88.483"/>
<polygon fill="midnightblue" stroke="midnightblue" points="912.221,-85.7268 902.734,-81.0091 907.208,-90.613 912.221,-85.7268"/>
</g>
<!-- Node22 -->
<g id="node22" class="node"><title>Node22</title>
<polygon fill="white" stroke="#bfbfbf" points="1087.94,-62 1087.94,-81 1138.94,-81 1138.94,-62 1087.94,-62"/>
<text text-anchor="middle" x="1113.44" y="-69" font-family="Helvetica,sans-Serif" font-size="10.00">cassert</text>
</g>
<!-- Node21&#45;&gt;Node22 -->
<g id="edge31" class="edge"><title>Node21&#45;&gt;Node22</title>
<path fill="none" stroke="midnightblue" d="M977.677,-123.401C1003.21,-114.603 1043.76,-100.366 1078.44,-87 1080.09,-86.3658 1081.77,-85.7053 1083.47,-85.0311"/>
<polygon fill="midnightblue" stroke="midnightblue" points="1085.2,-88.1065 1093.15,-81.1059 1082.57,-81.6193 1085.2,-88.1065"/>
</g>
<!-- Node23 -->
<g id="node23" class="node"><title>Node23</title>
<polygon fill="white" stroke="#bfbfbf" points="948.94,-56.5 948.94,-86.5 1069.94,-86.5 1069.94,-56.5 948.94,-56.5"/>
<text text-anchor="start" x="956.94" y="-74.5" font-family="Helvetica,sans-Serif" font-size="10.00">../contrib/pa_ringbuffer</text>
<text text-anchor="middle" x="1009.44" y="-63.5" font-family="Helvetica,sans-Serif" font-size="10.00">/pa_ringbuffer.h</text>
</g>
<!-- Node21&#45;&gt;Node23 -->
<g id="edge32" class="edge"><title>Node21&#45;&gt;Node23</title>
<path fill="none" stroke="midnightblue" d="M960.607,-123.475C967.966,-115.793 979.099,-104.172 988.877,-93.9643"/>
<polygon fill="midnightblue" stroke="midnightblue" points="991.616,-96.1654 996.006,-86.523 986.561,-91.3229 991.616,-96.1654"/>
</g>
<!-- Node24 -->
<g id="node24" class="node"><title>Node24</title>
<g id="a_node24"><a xlink:href="messages_8h.html" target="_top" xlink:title="Constant human&#45;readable messages used within playd. ">
<polygon fill="white" stroke="black" points="759.44,-62 759.44,-81 839.44,-81 839.44,-62 759.44,-62"/>
<text text-anchor="middle" x="799.44" y="-69" font-family="Helvetica,sans-Serif" font-size="10.00">../messages.h</text>
</a>
</g>
</g>
<!-- Node21&#45;&gt;Node24 -->
<g id="edge34" class="edge"><title>Node21&#45;&gt;Node24</title>
<path fill="none" stroke="midnightblue" d="M930.519,-123.475C904.387,-113.313 860.528,-96.2564 830.81,-84.6996"/>
<polygon fill="midnightblue" stroke="midnightblue" points="831.909,-81.3716 821.32,-81.0091 829.372,-87.8956 831.909,-81.3716"/>
</g>
<!-- Node24&#45;&gt;Node3 -->
<g id="edge35" class="edge"><title>Node24&#45;&gt;Node3</title>
<path fill="none" stroke="midnightblue" d="M773.992,-61.9978C766.195,-59.6979 757.536,-57.4473 749.44,-56 523.544,-15.6178 245.81,-11.2049 153.178,-10.9242"/>
<polygon fill="midnightblue" stroke="midnightblue" points="153.066,-7.42415 143.06,-10.9084 153.054,-14.4241 153.066,-7.42415"/>
</g>
<!-- Node25&#45;&gt;Node3 -->
<g id="edge41" class="edge"><title>Node25&#45;&gt;Node3</title>
<path fill="none" stroke="midnightblue" d="M272.244,-185.087C215.23,-179.296 96.8942,-164.966 62.4399,-143 26.5548,-120.122 -0.600242,-91.7814 22.4399,-56 37.1537,-33.1494 66.6237,-21.7684 89.6021,-16.1832"/>
<polygon fill="midnightblue" stroke="midnightblue" points="90.598,-19.5485 99.6266,-14.0045 89.1113,-12.7082 90.598,-19.5485"/>
</g>
<!-- Node25&#45;&gt;Node4 -->
<g id="edge42" class="edge"><title>Node25&#45;&gt;Node4</title>
<path fill="none" stroke="midnightblue" d="M331.961,-179.444C365.201,-169.472 419.873,-153.07 453.648,-142.938"/>
<polygon fill="midnightblue" stroke="midnightblue" points="454.839,-146.234 463.412,-140.008 452.828,-139.53 454.839,-146.234"/>
</g>
<!-- Node25&#45;&gt;Node8 -->
<g id="edge39" class="edge"><title>Node25&#45;&gt;Node8</title>
<path fill="none" stroke="midnightblue" d="M298.674,-179.412C291.906,-165.929 281.669,-139.623 294.44,-123 332.271,-73.758 371.681,-109.803 429.44,-87 473.644,-69.5487 521.743,-41.7705 549.081,-25.0699"/>
<polygon fill="midnightblue" stroke="midnightblue" points="551.174,-27.891 557.845,-19.6597 547.497,-21.9346 551.174,-27.891"/>
</g>
<!-- Node25&#45;&gt;Node10 -->
<g id="edge38" class="edge"><title>Node25&#45;&gt;Node10</title>
<path fill="none" stroke="midnightblue" d="M290.856,-179.447C273.947,-166.883 247.534,-142.786 261.44,-123 288.602,-84.3535 317.474,-104.272 361.44,-87 363.041,-86.3709 364.68,-85.7144 366.331,-85.0434"/>
<polygon fill="midnightblue" stroke="midnightblue" points="367.855,-88.2006 375.743,-81.1274 365.165,-81.7377 367.855,-88.2006"/>
</g>
<!-- Node25&#45;&gt;Node11 -->
<g id="edge40" class="edge"><title>Node25&#45;&gt;Node11</title>
<path fill="none" stroke="midnightblue" d="M307.898,-179.083C311.594,-171.691 316.963,-160.953 321.534,-151.811"/>
<polygon fill="midnightblue" stroke="midnightblue" points="324.723,-153.261 326.064,-142.751 318.462,-150.13 324.723,-153.261"/>
</g>
<!-- Node25&#45;&gt;Node12 -->
<g id="edge43" class="edge"><title>Node25&#45;&gt;Node12</title>
<path fill="none" stroke="midnightblue" d="M276.408,-179.442C247.331,-168.71 207.296,-148.574 223.44,-123 227.839,-116.031 268.981,-97.7142 298.688,-85.1678"/>
<polygon fill="midnightblue" stroke="midnightblue" points="300.385,-88.2518 308.255,-81.1588 297.679,-81.7958 300.385,-88.2518"/>
</g>
<!-- Node25&#45;&gt;Node13 -->
<g id="edge44" class="edge"><title>Node25&#45;&gt;Node13</title>
<path fill="none" stroke="midnightblue" d="M320.631,-179.324C337.791,-170.664 364.386,-157.242 384.187,-147.249"/>
<polygon fill="midnightblue" stroke="midnightblue" points="385.941,-150.285 393.291,-142.655 382.787,-144.035 385.941,-150.285"/>
</g>
<!-- Node25&#45;&gt;Node14 -->
<g id="edge45" class="edge"><title>Node25&#45;&gt;Node14</title>
<path fill="none" stroke="midnightblue" d="M334.483,-182.575C385.618,-173.639 488.387,-155.679 553.621,-144.279"/>
<polygon fill="midnightblue" stroke="midnightblue" points="554.507,-147.677 563.755,-142.508 553.302,-140.782 554.507,-147.677"/>
</g>
<!-- Node25&#45;&gt;Node15 -->
<g id="edge46" class="edge"><title>Node25&#45;&gt;Node15</title>
<path fill="none" stroke="midnightblue" d="M274.601,-179.444C243.584,-170.241 194.111,-155.562 159.822,-145.388"/>
<polygon fill="midnightblue" stroke="midnightblue" points="160.726,-142.006 150.143,-142.516 158.735,-148.716 160.726,-142.006"/>
</g>
</g>
</svg>
