<?xml version="1.0" encoding="UTF-8" standalone="no"?>
<!DOCTYPE svg PUBLIC "-//W3C//DTD SVG 1.1//EN"
 "http://www.w3.org/Graphics/SVG/1.1/DTD/svg11.dtd">
<!-- Generated by graphviz version 2.38.0 (20140413.2041)
 -->
<!-- Title: src/audio/audio_source.cpp Pages: 1 -->
<!--zoomable 196 -->
<svg id="main" version="1.1" xmlns="http://www.w3.org/2000/svg" xmlns:xlink="http://www.w3.org/1999/xlink" xml:space="preserve" onload="init(evt)">
<style type="text/css"><![CDATA[
.edge:hover path { stroke: red; }
.edge:hover polygon { stroke: red; fill: red; }
]]></style>
<script type="text/javascript"><![CDATA[
var edges = document.getElementsByTagName('g');
if (edges && edges.length) {
  for (var i=0;i<edges.length;i++) {
    if (edges[i].id.substr(0,4)=='edge') {
      edges[i].setAttribute('class','edge');
    }
  }
}
]]></script>
        <defs>
                <circle id="rim" cx="0" cy="0" r="7"/>
                <circle id="rim2" cx="0" cy="0" r="3.5"/>
                <g id="zoomPlus">
                        <use xlink:href="#rim" fill="#404040">
                                <set attributeName="fill" to="#808080" begin="zoomplus.mouseover" end="zoomplus.mouseout"/>
                        </use>
                        <path d="M-4,0h8M0,-4v8" fill="none" stroke="white" stroke-width="1.5" pointer-events="none"/>
                </g>
                <g id="zoomMin">
                        <use xlink:href="#rim" fill="#404040">
                                <set attributeName="fill" to="#808080" begin="zoomminus.mouseover" end="zoomminus.mouseout"/>
                        </use>
                        <path d="M-4,0h8" fill="none" stroke="white" stroke-width="1.5" pointer-events="none"/>
                </g>
                <g id="dirArrow">
                        <path fill="none" stroke="white" stroke-width="1.5" d="M0,-3.0v7 M-2.5,-0.5L0,-3.0L2.5,-0.5"/>
                </g>
               <g id="resetDef">
                       <use xlink:href="#rim2" fill="#404040">
                               <set attributeName="fill" to="#808080" begin="reset.mouseover" end="reset.mouseout"/>
                       </use>
               </g>
        </defs>

<script type="text/javascript">
var viewWidth = 1014;
var viewHeight = 196;
var sectionId = 'dynsection-0';
</script>
<script xlink:href="svgpan.js"/>
<svg id="graph" class="graph">
<g id="viewport">
<title>src/audio/audio_source.cpp</title>
<polygon fill="white" stroke="none" points="-4,4 -4,-192 1009.5,-192 1009.5,4 -4,4"/>
<!-- Node1 -->
<g id="node1" class="node"><title>Node1</title>
<polygon fill="#bfbfbf" stroke="black" points="495,-168.5 495,-187.5 640,-187.5 640,-168.5 495,-168.5"/>
<text text-anchor="middle" x="567.5" y="-175.5" font-family="Helvetica,sans-Serif" font-size="10.00">src/audio/audio_source.cpp</text>
</g>
<!-- Node2 -->
<g id="node2" class="node"><title>Node2</title>
<polygon fill="white" stroke="#bfbfbf" points="0,-112.5 0,-131.5 51,-131.5 51,-112.5 0,-112.5"/>
<text text-anchor="middle" x="25.5" y="-119.5" font-family="Helvetica,sans-Serif" font-size="10.00">cassert</text>
</g>
<!-- Node1&#45;&gt;Node2 -->
<g id="edge1" class="edge"><title>Node1&#45;&gt;Node2</title>
<path fill="none" stroke="midnightblue" d="M494.809,-173.498C396.843,-168.093 217.217,-155.762 65.5,-132 64.0496,-131.773 62.5732,-131.524 61.0846,-131.258"/>
<polygon fill="midnightblue" stroke="midnightblue" points="61.7133,-127.815 51.2249,-129.313 60.3581,-134.682 61.7133,-127.815"/>
</g>
<!-- Node3 -->
<g id="node3" class="node"><title>Node3</title>
<polygon fill="white" stroke="#bfbfbf" points="144,-0.5 144,-19.5 191,-19.5 191,-0.5 144,-0.5"/>
<text text-anchor="middle" x="167.5" y="-7.5" font-family="Helvetica,sans-Serif" font-size="10.00">cstdint</text>
</g>
<!-- Node1&#45;&gt;Node3 -->
<g id="edge2" class="edge"><title>Node1&#45;&gt;Node3</title>
<path fill="none" stroke="midnightblue" d="M494.904,-172.899C374.853,-164.351 143.681,-139.814 98.5,-76 83.8275,-55.2764 111.904,-35.9223 136.531,-23.8144"/>
<polygon fill="midnightblue" stroke="midnightblue" points="138.117,-26.9366 145.704,-19.541 135.161,-20.5914 138.117,-26.9366"/>
</g>
<!-- Node4 -->
<g id="node4" class="node"><title>Node4</title>
<polygon fill="white" stroke="#bfbfbf" points="831.5,-112.5 831.5,-131.5 877.5,-131.5 877.5,-112.5 831.5,-112.5"/>
<text text-anchor="middle" x="854.5" y="-119.5" font-family="Helvetica,sans-Serif" font-size="10.00">cstdlib</text>
</g>
<!-- Node1&#45;&gt;Node4 -->
<g id="edge3" class="edge"><title>Node1&#45;&gt;Node4</title>
<path fill="none" stroke="midnightblue" d="M620.355,-168.441C671.079,-160.002 749.76,-146.322 817.5,-132 818.773,-131.731 820.07,-131.45 821.378,-131.16"/>
<polygon fill="midnightblue" stroke="midnightblue" points="822.5,-134.493 831.457,-128.833 820.925,-127.673 822.5,-134.493"/>
</g>
<!-- Node5 -->
<g id="node5" class="node"><title>Node5</title>
<polygon fill="white" stroke="#bfbfbf" points="245.5,-56.5 245.5,-75.5 307.5,-75.5 307.5,-56.5 245.5,-56.5"/>
<text text-anchor="middle" x="276.5" y="-63.5" font-family="Helvetica,sans-Serif" font-size="10.00">functional</text>
</g>
<!-- Node1&#45;&gt;Node5 -->
<g id="edge4" class="edge"><title>Node1&#45;&gt;Node5</title>
<path fill="none" stroke="midnightblue" d="M494.912,-172.443C449.834,-167.214 391.859,-156.004 345.5,-132 322.777,-120.234 302.203,-98.7829 289.55,-83.7516"/>
<polygon fill="midnightblue" stroke="midnightblue" points="292.082,-81.3177 283.058,-75.7649 286.649,-85.7327 292.082,-81.3177"/>
</g>
<!-- Node6 -->
<g id="node6" class="node"><title>Node6</title>
<polygon fill="white" stroke="#bfbfbf" points="673,-0.5 673,-19.5 730,-19.5 730,-0.5 673,-0.5"/>
<text text-anchor="middle" x="701.5" y="-7.5" font-family="Helvetica,sans-Serif" font-size="10.00">iostream</text>
</g>
<!-- Node1&#45;&gt;Node6 -->
<g id="edge5" class="edge"><title>Node1&#45;&gt;Node6</title>
<path fill="none" stroke="midnightblue" d="M578.379,-168.268C598.214,-151.902 640.679,-114.754 667.5,-76 677.896,-60.9793 687.316,-42.3849 693.59,-28.937"/>
<polygon fill="midnightblue" stroke="midnightblue" points="696.791,-30.3533 697.739,-19.8009 690.417,-27.4589 696.791,-30.3533"/>
</g>
<!-- Node7 -->
<g id="node7" class="node"><title>Node7</title>
<polygon fill="white" stroke="#bfbfbf" points="896,-112.5 896,-131.5 933,-131.5 933,-112.5 896,-112.5"/>
<text text-anchor="middle" x="914.5" y="-119.5" font-family="Helvetica,sans-Serif" font-size="10.00">map</text>
</g>
<!-- Node1&#45;&gt;Node7 -->
<g id="edge6" class="edge"><title>Node1&#45;&gt;Node7</title>
<path fill="none" stroke="midnightblue" d="M640.042,-170.336C702.833,-163.755 796.12,-152.032 886.124,-131.708"/>
<polygon fill="midnightblue" stroke="midnightblue" points="886.985,-135.102 895.947,-129.452 885.418,-128.279 886.985,-135.102"/>
</g>
<!-- Node8 -->
<g id="node8" class="node"><title>Node8</title>
<polygon fill="white" stroke="#bfbfbf" points="951.5,-112.5 951.5,-131.5 1005.5,-131.5 1005.5,-112.5 951.5,-112.5"/>
<text text-anchor="middle" x="978.5" y="-119.5" font-family="Helvetica,sans-Serif" font-size="10.00">memory</text>
</g>
<!-- Node1&#45;&gt;Node8 -->
<g id="edge7" class="edge"><title>Node1&#45;&gt;Node8</title>
<path fill="none" stroke="midnightblue" d="M640.147,-171.007C713.768,-164.317 831.074,-151.969 941.477,-131.979"/>
<polygon fill="midnightblue" stroke="midnightblue" points="942.249,-135.396 951.453,-130.149 940.985,-128.511 942.249,-135.396"/>
</g>
<!-- Node9 -->
<g id="node9" class="node"><title>Node9</title>
<polygon fill="white" stroke="#bfbfbf" points="776.5,-0.5 776.5,-19.5 830.5,-19.5 830.5,-0.5 776.5,-0.5"/>
<text text-anchor="middle" x="803.5" y="-7.5" font-family="Helvetica,sans-Serif" font-size="10.00">sstream</text>
</g>
<!-- Node1&#45;&gt;Node9 -->
<g id="edge8" class="edge"><title>Node1&#45;&gt;Node9</title>
<path fill="none" stroke="midnightblue" d="M615.541,-168.448C648.046,-161.469 691.303,-149.809 726.5,-132 762.673,-113.697 779.304,-111.707 798.5,-76 806.12,-61.8255 806.818,-43.3447 805.932,-29.7139"/>
<polygon fill="midnightblue" stroke="midnightblue" points="809.4,-29.2129 804.933,-19.6057 802.434,-29.9015 809.4,-29.2129"/>
</g>
<!-- Node10 -->
<g id="node10" class="node"><title>Node10</title>
<polygon fill="white" stroke="#bfbfbf" points="326,-56.5 326,-75.5 369,-75.5 369,-56.5 326,-56.5"/>
<text text-anchor="middle" x="347.5" y="-63.5" font-family="Helvetica,sans-Serif" font-size="10.00">string</text>
</g>
<!-- Node1&#45;&gt;Node10 -->
<g id="edge9" class="edge"><title>Node1&#45;&gt;Node10</title>
<path fill="none" stroke="midnightblue" d="M494.886,-169.835C442.624,-163.151 378.182,-151.261 359.5,-132 347.9,-120.041 345.598,-100.74 345.778,-86.2709"/>
<polygon fill="midnightblue" stroke="midnightblue" points="349.292,-86.107 346.325,-75.936 342.302,-85.7371 349.292,-86.107"/>
</g>
<!-- Node11 -->
<g id="node11" class="node"><title>Node11</title>
<polygon fill="white" stroke="#bfbfbf" points="618,-56.5 618,-75.5 659,-75.5 659,-56.5 618,-56.5"/>
<text text-anchor="middle" x="638.5" y="-63.5" font-family="Helvetica,sans-Serif" font-size="10.00">sox.h</text>
</g>
<!-- Node1&#45;&gt;Node11 -->
<g id="edge10" class="edge"><title>Node1&#45;&gt;Node11</title>
<path fill="none" stroke="midnightblue" d="M573.071,-168.368C584.736,-150.296 611.923,-108.176 627.329,-84.3074"/>
<polygon fill="midnightblue" stroke="midnightblue" points="630.472,-85.8913 632.955,-75.5914 624.591,-82.0952 630.472,-85.8913"/>
</g>
<!-- Node12 -->
<g id="node12" class="node"><title>Node12</title>
<g id="a_node12"><a xlink:href="errors_8hpp.html" target="_top" xlink:title="Declarations of the playd Error exception set. ">
<polygon fill="white" stroke="black" points="716,-56.5 716,-75.5 789,-75.5 789,-56.5 716,-56.5"/>
<text text-anchor="middle" x="752.5" y="-63.5" font-family="Helvetica,sans-Serif" font-size="10.00">../errors.hpp</text>
</a>
</g>
</g>
<!-- Node1&#45;&gt;Node12 -->
<g id="edge11" class="edge"><title>Node1&#45;&gt;Node12</title>
<path fill="none" stroke="midnightblue" d="M613.675,-168.476C641.027,-161.804 675.338,-150.471 701.5,-132 719.186,-119.513 733.746,-99.1551 742.718,-84.5482"/>
<polygon fill="midnightblue" stroke="midnightblue" points="745.738,-86.3161 747.783,-75.9204 739.702,-82.772 745.738,-86.3161"/>
</g>
<!-- Node13 -->
<g id="node13" class="node"><title>Node13</title>
<g id="a_node13"><a xlink:href="messages_8h.html" target="_top" xlink:title="Constant human&#45;readable messages used within playd. ">
<polygon fill="white" stroke="black" points="368.5,-112.5 368.5,-131.5 448.5,-131.5 448.5,-112.5 368.5,-112.5"/>
<text text-anchor="middle" x="408.5" y="-119.5" font-family="Helvetica,sans-Serif" font-size="10.00">../messages.h</text>
</a>
</g>
</g>
<!-- Node1&#45;&gt;Node13 -->
<g id="edge14" class="edge"><title>Node1&#45;&gt;Node13</title>
<path fill="none" stroke="midnightblue" d="M542.306,-168.444C515.557,-159.359 473.097,-144.939 443.195,-134.783"/>
<polygon fill="midnightblue" stroke="midnightblue" points="444.171,-131.418 433.576,-131.516 441.919,-138.046 444.171,-131.418"/>
</g>
<!-- Node14 -->
<g id="node14" class="node"><title>Node14</title>
<g id="a_node14"><a xlink:href="sample__formats_8hpp.html" target="_top" xlink:title="The SampleFormat enumeration. ">
<polygon fill="white" stroke="black" points="108,-56.5 108,-75.5 227,-75.5 227,-56.5 108,-56.5"/>
<text text-anchor="middle" x="167.5" y="-63.5" font-family="Helvetica,sans-Serif" font-size="10.00">../sample_formats.hpp</text>
</a>
</g>
</g>
<!-- Node1&#45;&gt;Node14 -->
<g id="edge16" class="edge"><title>Node1&#45;&gt;Node14</title>
<path fill="none" stroke="midnightblue" d="M494.984,-168.809C443.803,-161.895 374.025,-150.164 314.5,-132 269.899,-118.39 220.889,-94.8513 192.23,-80.1456"/>
<polygon fill="midnightblue" stroke="midnightblue" points="193.815,-77.0249 183.327,-75.5241 190.59,-83.2378 193.815,-77.0249"/>
</g>
<!-- Node15 -->
<g id="node15" class="node"><title>Node15</title>
<g id="a_node15"><a xlink:href="audio__source_8hpp.html" target="_top" xlink:title="Declaration of the AudioSource class. ">
<polygon fill="white" stroke="black" points="466.5,-112.5 466.5,-131.5 566.5,-131.5 566.5,-112.5 466.5,-112.5"/>
<text text-anchor="middle" x="516.5" y="-119.5" font-family="Helvetica,sans-Serif" font-size="10.00">audio_source.hpp</text>
</a>
</g>
</g>
<!-- Node1&#45;&gt;Node15 -->
<g id="edge18" class="edge"><title>Node1&#45;&gt;Node15</title>
<path fill="none" stroke="midnightblue" d="M559.078,-168.083C551.652,-160.22 540.648,-148.569 531.688,-139.081"/>
<polygon fill="midnightblue" stroke="midnightblue" points="534.176,-136.618 524.765,-131.751 529.087,-141.424 534.176,-136.618"/>
</g>
<!-- Node12&#45;&gt;Node6 -->
<g id="edge12" class="edge"><title>Node12&#45;&gt;Node6</title>
<path fill="none" stroke="midnightblue" d="M744.078,-56.083C736.652,-48.2195 725.648,-36.5688 716.688,-27.0813"/>
<polygon fill="midnightblue" stroke="midnightblue" points="719.176,-24.618 709.765,-19.7511 714.087,-29.4244 719.176,-24.618"/>
</g>
<!-- Node12&#45;&gt;Node9 -->
<g id="edge13" class="edge"><title>Node12&#45;&gt;Node9</title>
<path fill="none" stroke="midnightblue" d="M760.922,-56.083C768.348,-48.2195 779.352,-36.5688 788.312,-27.0813"/>
<polygon fill="midnightblue" stroke="midnightblue" points="790.913,-29.4244 795.235,-19.7511 785.824,-24.618 790.913,-29.4244"/>
</g>
<!-- Node13&#45;&gt;Node10 -->
<g id="edge15" class="edge"><title>Node13&#45;&gt;Node10</title>
<path fill="none" stroke="midnightblue" d="M398.699,-112.324C389.682,-104.341 376.094,-92.3128 365.182,-82.6529"/>
<polygon fill="midnightblue" stroke="midnightblue" points="367.287,-79.8416 357.479,-75.8339 362.647,-85.083 367.287,-79.8416"/>
</g>
<!-- Node14&#45;&gt;Node3 -->
<g id="edge17" class="edge"><title>Node14&#45;&gt;Node3</title>
<path fill="none" stroke="midnightblue" d="M167.5,-56.083C167.5,-49.0059 167.5,-38.8611 167.5,-29.9865"/>
<polygon fill="midnightblue" stroke="midnightblue" points="171,-29.751 167.5,-19.7511 164,-29.7511 171,-29.751"/>
</g>
<!-- Node15&#45;&gt;Node3 -->
<g id="edge21" class="edge"><title>Node15&#45;&gt;Node3</title>
<path fill="none" stroke="midnightblue" d="M496.819,-112.498C476.553,-103.66 444.122,-89.2867 416.5,-76 398.946,-67.5559 395.848,-62.5416 377.5,-56 317.117,-34.4722 243.121,-21.5635 201.032,-15.4067"/>
<polygon fill="midnightblue" stroke="midnightblue" points="201.44,-11.9296 191.047,-13.9857 200.454,-18.8597 201.44,-11.9296"/>
</g>
<!-- Node15&#45;&gt;Node5 -->
<g id="edge22" class="edge"><title>Node15&#45;&gt;Node5</title>
<path fill="none" stroke="midnightblue" d="M478.471,-112.444C434.603,-102.573 362.738,-86.4035 317.607,-76.2491"/>
<polygon fill="midnightblue" stroke="midnightblue" points="318.374,-72.8343 307.85,-74.0537 316.838,-79.6635 318.374,-72.8343"/>
</g>
<!-- Node15&#45;&gt;Node10 -->
<g id="edge23" class="edge"><title>Node15&#45;&gt;Node10</title>
<path fill="none" stroke="midnightblue" d="M489.721,-112.444C459.571,-102.81 410.641,-87.1752 378.764,-76.9896"/>
<polygon fill="midnightblue" stroke="midnightblue" points="379.65,-73.5984 369.059,-73.8886 377.519,-80.2663 379.65,-73.5984"/>
</g>
<!-- Node15&#45;&gt;Node11 -->
<g id="edge25" class="edge"><title>Node15&#45;&gt;Node11</title>
<path fill="none" stroke="midnightblue" d="M535.831,-112.444C555.82,-103.596 587.243,-89.6875 610.064,-79.5865"/>
<polygon fill="midnightblue" stroke="midnightblue" points="611.532,-82.7645 619.259,-75.5164 608.698,-76.3635 611.532,-82.7645"/>
</g>
<!-- Node15&#45;&gt;Node12 -->
<g id="edge26" class="edge"><title>Node15&#45;&gt;Node12</title>
<path fill="none" stroke="midnightblue" d="M553.895,-112.444C595.012,-103.035 661.142,-87.9039 705.677,-77.7138"/>
<polygon fill="midnightblue" stroke="midnightblue" points="706.701,-81.0699 715.669,-75.4275 705.14,-74.2463 706.701,-81.0699"/>
</g>
<!-- Node15&#45;&gt;Node14 -->
<g id="edge27" class="edge"><title>Node15&#45;&gt;Node14</title>
<path fill="none" stroke="midnightblue" d="M466.497,-113.263C405.005,-103.749 300.476,-87.575 232.725,-77.0921"/>
<polygon fill="midnightblue" stroke="midnightblue" points="233.01,-73.5947 222.592,-75.5243 231.94,-80.5123 233.01,-73.5947"/>
</g>
<!-- Node16 -->
<g id="node16" class="node"><title>Node16</title>
<polygon fill="white" stroke="#bfbfbf" points="426,-56.5 426,-75.5 467,-75.5 467,-56.5 426,-56.5"/>
<text text-anchor="middle" x="446.5" y="-63.5" font-family="Helvetica,sans-Serif" font-size="10.00">array</text>
</g>
<!-- Node15&#45;&gt;Node16 -->
<g id="edge19" class="edge"><title>Node15&#45;&gt;Node16</title>
<path fill="none" stroke="midnightblue" d="M505.253,-112.324C494.703,-104.185 478.699,-91.8395 466.058,-82.0874"/>
<polygon fill="midnightblue" stroke="midnightblue" points="468.007,-79.1707 457.951,-75.8339 463.731,-84.7132 468.007,-79.1707"/>
</g>
<!-- Node17 -->
<g id="node17" class="node"><title>Node17</title>
<polygon fill="white" stroke="#bfbfbf" points="485.5,-56.5 485.5,-75.5 535.5,-75.5 535.5,-56.5 485.5,-56.5"/>
<text text-anchor="middle" x="510.5" y="-63.5" font-family="Helvetica,sans-Serif" font-size="10.00">chrono</text>
</g>
<!-- Node15&#45;&gt;Node17 -->
<g id="edge20" class="edge"><title>Node15&#45;&gt;Node17</title>
<path fill="none" stroke="midnightblue" d="M515.509,-112.083C514.714,-104.927 513.571,-94.6353 512.577,-85.6911"/>
<polygon fill="midnightblue" stroke="midnightblue" points="516.055,-85.3034 511.472,-75.7511 509.098,-86.0765 516.055,-85.3034"/>
</g>
<!-- Node18 -->
<g id="node18" class="node"><title>Node18</title>
<polygon fill="white" stroke="#bfbfbf" points="553.5,-56.5 553.5,-75.5 599.5,-75.5 599.5,-56.5 553.5,-56.5"/>
<text text-anchor="middle" x="576.5" y="-63.5" font-family="Helvetica,sans-Serif" font-size="10.00">vector</text>
</g>
<!-- Node15&#45;&gt;Node18 -->
<g id="edge24" class="edge"><title>Node15&#45;&gt;Node18</title>
<path fill="none" stroke="midnightblue" d="M526.14,-112.324C535.01,-104.341 548.375,-92.3128 559.108,-82.6529"/>
<polygon fill="midnightblue" stroke="midnightblue" points="561.593,-85.1251 566.685,-75.8339 556.91,-79.922 561.593,-85.1251"/>
</g>
</g>
</svg>
        <g id="navigator" transform="translate(0 0)" fill="#404254">
                <rect fill="#f2f5e9" fill-opacity="0.5" stroke="#606060" stroke-width=".5" x="0" y="0" width="60" height="60"/>
                <use id="zoomplus" xlink:href="#zoomPlus" x="17" y="9" onmousedown="handleZoom(evt,'in')"/>
                <use id="zoomminus" xlink:href="#zoomMin" x="42" y="9" onmousedown="handleZoom(evt,'out')"/>
                <use id="reset" xlink:href="#resetDef" x="30" y="36" onmousedown="handleReset()"/>
                <g id="arrowUp" xlink:href="#dirArrow" transform="translate(30 24)" onmousedown="handlePan(0,-1)">
                  <use xlink:href="#rim" fill="#404040">
                        <set attributeName="fill" to="#808080" begin="arrowUp.mouseover" end="arrowUp.mouseout"/>
                  </use>
                  <path fill="none" stroke="white" stroke-width="1.5" d="M0,-3.0v7 M-2.5,-0.5L0,-3.0L2.5,-0.5"/>
                </g>
                <g id="arrowRight" xlink:href="#dirArrow" transform="rotate(90) translate(36 -43)" onmousedown="handlePan(1,0)">
                  <use xlink:href="#rim" fill="#404040">
                        <set attributeName="fill" to="#808080" begin="arrowRight.mouseover" end="arrowRight.mouseout"/>
                  </use>
                  <path fill="none" stroke="white" stroke-width="1.5" d="M0,-3.0v7 M-2.5,-0.5L0,-3.0L2.5,-0.5"/>
                </g>
                <g id="arrowDown" xlink:href="#dirArrow" transform="rotate(180) translate(-30 -48)" onmousedown="handlePan(0,1)">
                  <use xlink:href="#rim" fill="#404040">
                        <set attributeName="fill" to="#808080" begin="arrowDown.mouseover" end="arrowDown.mouseout"/>
                  </use>
                  <path fill="none" stroke="white" stroke-width="1.5" d="M0,-3.0v7 M-2.5,-0.5L0,-3.0L2.5,-0.5"/>
                </g>
                <g id="arrowLeft" xlink:href="#dirArrow" transform="rotate(270) translate(-36 17)" onmousedown="handlePan(-1,0)">
                  <use xlink:href="#rim" fill="#404040">
                        <set attributeName="fill" to="#808080" begin="arrowLeft.mouseover" end="arrowLeft.mouseout"/>
                  </use>
                  <path fill="none" stroke="white" stroke-width="1.5" d="M0,-3.0v7 M-2.5,-0.5L0,-3.0L2.5,-0.5"/>
                </g>
        </g>
        <svg viewBox="0 0 15 15" width="100%" height="30px" preserveAspectRatio="xMaxYMin meet">
         <g id="arrow_out" transform="scale(0.3 0.3)">
          <a xlink:href="audio__source_8cpp__incl_org.svg" target="_base">
           <rect id="button" ry="5" rx="5" y="6" x="6" height="38" width="38"
                fill="#f2f5e9" fill-opacity="0.5" stroke="#606060" stroke-width="1.0"/>
           <path id="arrow"
             d="M 11.500037,31.436501 C 11.940474,20.09759 22.043105,11.32322 32.158766,21.979434 L 37.068811,17.246167 C 37.068811,17.246167 37.088388,32 37.088388,32 L 22.160133,31.978069 C 22.160133,31.978069 26.997745,27.140456 26.997745,27.140456 C 18.528582,18.264221 13.291696,25.230495 11.500037,31.436501 z"
             style="fill:#404040;"/>
          </a>
         </g>
        </svg>
</svg>
