<?xml version="1.0" encoding="UTF-8" standalone="no"?>
<!DOCTYPE svg PUBLIC "-//W3C//DTD SVG 1.1//EN"
 "http://www.w3.org/Graphics/SVG/1.1/DTD/svg11.dtd">
<!-- Generated by graphviz version 2.38.0 (20140413.2041)
 -->
<!-- Title: src/audio/audio_source.hpp Pages: 1 -->
<svg width="1395pt" height="532pt"
 viewBox="0.00 0.00 1394.50 532.00" xmlns="http://www.w3.org/2000/svg" xmlns:xlink="http://www.w3.org/1999/xlink">
<g id="graph0" class="graph" transform="scale(1 1) rotate(0) translate(4 528)">
<title>src/audio/audio_source.hpp</title>
<polygon fill="white" stroke="none" points="-4,4 -4,-528 1390.5,-528 1390.5,4 -4,4"/>
<!-- Node1 -->
<g id="node1" class="node"><title>Node1</title>
<polygon fill="#bfbfbf" stroke="black" points="904,-504.5 904,-523.5 1050,-523.5 1050,-504.5 904,-504.5"/>
<text text-anchor="middle" x="977" y="-511.5" font-family="Helvetica,sans-Serif" font-size="10.00">src/audio/audio_source.hpp</text>
</g>
<!-- Node2 -->
<g id="node2" class="node"><title>Node2</title>
<g id="a_node2"><a xlink:href="audio_8hpp.html" target="_top" xlink:title="Declaration of the Audio class. ">
<polygon fill="white" stroke="black" points="718,-448.5 718,-467.5 826,-467.5 826,-448.5 718,-448.5"/>
<text text-anchor="middle" x="772" y="-455.5" font-family="Helvetica,sans-Serif" font-size="10.00">src/audio/audio.hpp</text>
</a>
</g>
</g>
<!-- Node1&#45;&gt;Node2 -->
<g id="edge1" class="edge"><title>Node1&#45;&gt;Node2</title>
<path fill="none" stroke="midnightblue" d="M934.592,-501.829C895.886,-491.633 839.507,-476.782 804.331,-467.516"/>
<polygon fill="midnightblue" stroke="midnightblue" points="933.955,-505.281 944.517,-504.444 935.739,-498.512 933.955,-505.281"/>
</g>
<!-- Node3 -->
<g id="node3" class="node"><title>Node3</title>
<g id="a_node3"><a xlink:href="audio_8cpp.html" target="_top" xlink:title="Implementation of the Audio class. ">
<polygon fill="white" stroke="black" points="889.5,-392.5 889.5,-411.5 996.5,-411.5 996.5,-392.5 889.5,-392.5"/>
<text text-anchor="middle" x="943" y="-399.5" font-family="Helvetica,sans-Serif" font-size="10.00">src/audio/audio.cpp</text>
</a>
</g>
</g>
<!-- Node1&#45;&gt;Node3 -->
<g id="edge40" class="edge"><title>Node1&#45;&gt;Node3</title>
<path fill="none" stroke="midnightblue" d="M963.914,-496.169C958.344,-488.094 952.366,-478.012 949,-468 942.5,-448.665 942.174,-424.385 942.554,-411.672"/>
<polygon fill="midnightblue" stroke="midnightblue" points="961.144,-498.312 969.869,-504.324 966.798,-494.184 961.144,-498.312"/>
</g>
<!-- Node4 -->
<g id="node4" class="node"><title>Node4</title>
<g id="a_node4"><a xlink:href="audio__system_8cpp.html" target="_top" xlink:title="Implementation of the AudioSystem class. ">
<polygon fill="white" stroke="black" points="870,-336.5 870,-355.5 1016,-355.5 1016,-336.5 870,-336.5"/>
<text text-anchor="middle" x="943" y="-343.5" font-family="Helvetica,sans-Serif" font-size="10.00">src/audio/audio_system.cpp</text>
</a>
</g>
</g>
<!-- Node1&#45;&gt;Node4 -->
<g id="edge42" class="edge"><title>Node1&#45;&gt;Node4</title>
<path fill="none" stroke="midnightblue" d="M1039.03,-502.517C1119.26,-486.34 1243.24,-450.851 1194,-392 1171.66,-365.303 1082.06,-354.425 1016.26,-350.005"/>
<polygon fill="midnightblue" stroke="midnightblue" points="1038.13,-499.127 1028.99,-504.487 1039.48,-505.996 1038.13,-499.127"/>
</g>
<!-- Node5 -->
<g id="node5" class="node"><title>Node5</title>
<g id="a_node5"><a xlink:href="audio__system_8hpp.html" target="_top" xlink:title="Declaration of the AudioSystem class. ">
<polygon fill="white" stroke="black" points="685.5,-392.5 685.5,-411.5 832.5,-411.5 832.5,-392.5 685.5,-392.5"/>
<text text-anchor="middle" x="759" y="-399.5" font-family="Helvetica,sans-Serif" font-size="10.00">src/audio/audio_system.hpp</text>
</a>
</g>
</g>
<!-- Node1&#45;&gt;Node5 -->
<g id="edge43" class="edge"><title>Node1&#45;&gt;Node5</title>
<path fill="none" stroke="midnightblue" d="M950.711,-499.735C905.425,-476.884 813.918,-430.711 776.027,-411.591"/>
<polygon fill="midnightblue" stroke="midnightblue" points="949.389,-502.988 959.894,-504.368 952.543,-496.739 949.389,-502.988"/>
</g>
<!-- Node20 -->
<g id="node20" class="node"><title>Node20</title>
<g id="a_node20"><a xlink:href="audio__sink_8hpp.html" target="_top" xlink:title="Declaration of the AudioSink class. ">
<polygon fill="white" stroke="black" points="958.5,-448.5 958.5,-467.5 1091.5,-467.5 1091.5,-448.5 958.5,-448.5"/>
<text text-anchor="middle" x="1025" y="-455.5" font-family="Helvetica,sans-Serif" font-size="10.00">src/audio/audio_sink.hpp</text>
</a>
</g>
</g>
<!-- Node1&#45;&gt;Node20 -->
<g id="edge35" class="edge"><title>Node1&#45;&gt;Node20</title>
<path fill="none" stroke="midnightblue" d="M991.728,-496.431C1000.14,-486.967 1010.35,-475.483 1017.22,-467.751"/>
<polygon fill="midnightblue" stroke="midnightblue" points="988.954,-494.284 984.926,-504.083 994.186,-498.934 988.954,-494.284"/>
</g>
<!-- Node22 -->
<g id="node22" class="node"><title>Node22</title>
<g id="a_node22"><a xlink:href="audio__source_8cpp.html" target="_top" xlink:title="Implementation of the AudioSource class. ">
<polygon fill="white" stroke="black" points="1241.5,-448.5 1241.5,-467.5 1386.5,-467.5 1386.5,-448.5 1241.5,-448.5"/>
<text text-anchor="middle" x="1314" y="-455.5" font-family="Helvetica,sans-Serif" font-size="10.00">src/audio/audio_source.cpp</text>
</a>
</g>
</g>
<!-- Node1&#45;&gt;Node22 -->
<g id="edge41" class="edge"><title>Node1&#45;&gt;Node22</title>
<path fill="none" stroke="midnightblue" d="M1040.32,-502.854C1103.99,-492.651 1201.06,-477.098 1260.85,-467.516"/>
<polygon fill="midnightblue" stroke="midnightblue" points="1039.72,-499.405 1030.4,-504.444 1040.83,-506.317 1039.72,-499.405"/>
</g>
<!-- Node2&#45;&gt;Node3 -->
<g id="edge2" class="edge"><title>Node2&#45;&gt;Node3</title>
<path fill="none" stroke="midnightblue" d="M809.036,-445.304C841.257,-435.129 887.189,-420.625 916.031,-411.516"/>
<polygon fill="midnightblue" stroke="midnightblue" points="807.577,-442.095 799.095,-448.444 809.685,-448.77 807.577,-442.095"/>
</g>
<!-- Node2&#45;&gt;Node4 -->
<g id="edge3" class="edge"><title>Node2&#45;&gt;Node4</title>
<path fill="none" stroke="midnightblue" d="M794.208,-442.714C830.242,-419.535 900.358,-374.43 929.644,-355.591"/>
<polygon fill="midnightblue" stroke="midnightblue" points="791.935,-440.015 785.418,-448.368 795.722,-445.902 791.935,-440.015"/>
</g>
<!-- Node2&#45;&gt;Node5 -->
<g id="edge4" class="edge"><title>Node2&#45;&gt;Node5</title>
<path fill="none" stroke="midnightblue" d="M767.45,-438.101C765.292,-429.136 762.818,-418.858 761.107,-411.751"/>
<polygon fill="midnightblue" stroke="midnightblue" points="764.11,-439.18 769.853,-448.083 770.915,-437.542 764.11,-439.18"/>
</g>
<!-- Node7 -->
<g id="node7" class="node"><title>Node7</title>
<g id="a_node7"><a xlink:href="player_8hpp.html" target="_top" xlink:title="Declaration of the Player class, and associated types. ">
<polygon fill="white" stroke="black" points="377,-280.5 377,-299.5 493,-299.5 493,-280.5 377,-280.5"/>
<text text-anchor="middle" x="435" y="-287.5" font-family="Helvetica,sans-Serif" font-size="10.00">src/player/player.hpp</text>
</a>
</g>
</g>
<!-- Node2&#45;&gt;Node7 -->
<g id="edge33" class="edge"><title>Node2&#45;&gt;Node7</title>
<path fill="none" stroke="midnightblue" d="M723.652,-446.046C666.803,-431.646 571.181,-402.567 500,-356 475.427,-339.924 452.598,-313.378 441.701,-299.718"/>
<polygon fill="midnightblue" stroke="midnightblue" points="722.91,-449.468 733.459,-448.482 724.598,-442.675 722.91,-449.468"/>
</g>
<!-- Node16 -->
<g id="node16" class="node"><title>Node16</title>
<g id="a_node16"><a xlink:href="player_8cpp.html" target="_top" xlink:title="Main implementation file for the Player class. ">
<polygon fill="white" stroke="black" points="615.5,-224.5 615.5,-243.5 730.5,-243.5 730.5,-224.5 615.5,-224.5"/>
<text text-anchor="middle" x="673" y="-231.5" font-family="Helvetica,sans-Serif" font-size="10.00">src/player/player.cpp</text>
</a>
</g>
</g>
<!-- Node2&#45;&gt;Node16 -->
<g id="edge34" class="edge"><title>Node2&#45;&gt;Node16</title>
<path fill="none" stroke="midnightblue" d="M721.128,-445.032C703.838,-438.293 686.3,-427.904 676,-412 640.415,-357.054 661.969,-271.009 670.214,-243.653"/>
<polygon fill="midnightblue" stroke="midnightblue" points="720.066,-448.369 730.661,-448.412 722.406,-441.771 720.066,-448.369"/>
</g>
<!-- Node5&#45;&gt;Node4 -->
<g id="edge5" class="edge"><title>Node5&#45;&gt;Node4</title>
<path fill="none" stroke="midnightblue" d="M797.954,-389.568C832.665,-379.381 882.677,-364.703 913.981,-355.516"/>
<polygon fill="midnightblue" stroke="midnightblue" points="796.765,-386.269 788.155,-392.444 798.736,-392.986 796.765,-386.269"/>
</g>
<!-- Node6 -->
<g id="node6" class="node"><title>Node6</title>
<g id="a_node6"><a xlink:href="player__file_8hpp.html" target="_top" xlink:title="Declaration of the PlayerFile class, and associated types. ">
<polygon fill="white" stroke="black" points="509.5,-336.5 509.5,-355.5 644.5,-355.5 644.5,-336.5 509.5,-336.5"/>
<text text-anchor="middle" x="577" y="-343.5" font-family="Helvetica,sans-Serif" font-size="10.00">src/player/player_file.hpp</text>
</a>
</g>
</g>
<!-- Node5&#45;&gt;Node6 -->
<g id="edge6" class="edge"><title>Node5&#45;&gt;Node6</title>
<path fill="none" stroke="midnightblue" d="M720.469,-389.568C686.136,-379.381 636.667,-364.703 605.704,-355.516"/>
<polygon fill="midnightblue" stroke="midnightblue" points="719.579,-392.954 730.162,-392.444 721.57,-386.244 719.579,-392.954"/>
</g>
<!-- Node13 -->
<g id="node13" class="node"><title>Node13</title>
<g id="a_node13"><a xlink:href="main_8cpp.html" target="_top" xlink:title="Main entry point and implementation of the playd class. ">
<polygon fill="white" stroke="black" points="379,-0.5 379,-19.5 455,-19.5 455,-0.5 379,-0.5"/>
<text text-anchor="middle" x="417" y="-7.5" font-family="Helvetica,sans-Serif" font-size="10.00">src/main.cpp</text>
</a>
</g>
</g>
<!-- Node5&#45;&gt;Node13 -->
<g id="edge30" class="edge"><title>Node5&#45;&gt;Node13</title>
<path fill="none" stroke="midnightblue" d="M759,-382.251C759,-360.357 759,-323.052 759,-291 759,-291 759,-291 759,-121 759,-57.7718 544.48,-25.6984 455.236,-15.0911"/>
<polygon fill="midnightblue" stroke="midnightblue" points="755.5,-382.442 759,-392.442 762.5,-382.442 755.5,-382.442"/>
</g>
<!-- Node14 -->
<g id="node14" class="node"><title>Node14</title>
<g id="a_node14"><a xlink:href="main_8hpp.html" target="_top" xlink:title="Declaration of the playd class. ">
<polygon fill="white" stroke="black" points="77.5,-56.5 77.5,-75.5 154.5,-75.5 154.5,-56.5 77.5,-56.5"/>
<text text-anchor="middle" x="116" y="-63.5" font-family="Helvetica,sans-Serif" font-size="10.00">src/main.hpp</text>
</a>
</g>
</g>
<!-- Node5&#45;&gt;Node14 -->
<g id="edge31" class="edge"><title>Node5&#45;&gt;Node14</title>
<path fill="none" stroke="midnightblue" d="M675.148,-397.51C477.7,-388.174 0,-358.604 0,-291 0,-291 0,-291 0,-177 0,-125.378 61.2356,-90.7008 94.7238,-75.5966"/>
<polygon fill="midnightblue" stroke="midnightblue" points="675.036,-401.008 685.188,-397.978 675.363,-394.016 675.036,-401.008"/>
</g>
<!-- Node5&#45;&gt;Node16 -->
<g id="edge32" class="edge"><title>Node5&#45;&gt;Node16</title>
<path fill="none" stroke="midnightblue" d="M749.6,-382.856C731.155,-347.252 690.849,-269.453 677.439,-243.568"/>
<polygon fill="midnightblue" stroke="midnightblue" points="746.668,-384.806 754.376,-392.075 752.884,-381.586 746.668,-384.806"/>
</g>
<!-- Node6&#45;&gt;Node7 -->
<g id="edge7" class="edge"><title>Node6&#45;&gt;Node7</title>
<path fill="none" stroke="midnightblue" d="M544.845,-332.772C518.172,-322.629 480.931,-308.467 457.395,-299.516"/>
<polygon fill="midnightblue" stroke="midnightblue" points="543.909,-336.16 554.5,-336.444 546.397,-329.618 543.909,-336.16"/>
</g>
<!-- Node19 -->
<g id="node19" class="node"><title>Node19</title>
<g id="a_node19"><a xlink:href="player__file_8cpp.html" target="_top" xlink:title="Implementation of the PlayerFile class, and associated types. ">
<polygon fill="white" stroke="black" points="511,-280.5 511,-299.5 645,-299.5 645,-280.5 511,-280.5"/>
<text text-anchor="middle" x="578" y="-287.5" font-family="Helvetica,sans-Serif" font-size="10.00">src/player/player_file.cpp</text>
</a>
</g>
</g>
<!-- Node6&#45;&gt;Node19 -->
<g id="edge29" class="edge"><title>Node6&#45;&gt;Node19</title>
<path fill="none" stroke="midnightblue" d="M577.355,-325.805C577.52,-316.91 577.708,-306.78 577.838,-299.751"/>
<polygon fill="midnightblue" stroke="midnightblue" points="573.851,-326.02 577.165,-336.083 580.85,-326.15 573.851,-326.02"/>
</g>
<!-- Node8 -->
<g id="node8" class="node"><title>Node8</title>
<g id="a_node8"><a xlink:href="cmd_8hpp.html" target="_top" xlink:title="Declaration of the CommandHandler class. ">
<polygon fill="white" stroke="black" points="404,-224.5 404,-243.5 478,-243.5 478,-224.5 404,-224.5"/>
<text text-anchor="middle" x="441" y="-231.5" font-family="Helvetica,sans-Serif" font-size="10.00">src/cmd.hpp</text>
</a>
</g>
</g>
<!-- Node7&#45;&gt;Node8 -->
<g id="edge8" class="edge"><title>Node7&#45;&gt;Node8</title>
<path fill="none" stroke="midnightblue" d="M437.1,-270.101C438.096,-261.136 439.238,-250.858 440.028,-243.751"/>
<polygon fill="midnightblue" stroke="midnightblue" points="433.617,-269.758 435.991,-280.083 440.574,-270.531 433.617,-269.758"/>
</g>
<!-- Node10 -->
<g id="node10" class="node"><title>Node10</title>
<g id="a_node10"><a xlink:href="io__reactor_8cpp.html" target="_top" xlink:title="Implementation of the non&#45;virtual aspects of the IoReactor class. ">
<polygon fill="white" stroke="black" points="445.5,-56.5 445.5,-75.5 558.5,-75.5 558.5,-56.5 445.5,-56.5"/>
<text text-anchor="middle" x="502" y="-63.5" font-family="Helvetica,sans-Serif" font-size="10.00">src/io/io_reactor.cpp</text>
</a>
</g>
</g>
<!-- Node7&#45;&gt;Node10 -->
<g id="edge22" class="edge"><title>Node7&#45;&gt;Node10</title>
<path fill="none" stroke="midnightblue" d="M467.594,-275.897C481.103,-268.648 495.378,-258.185 503,-244 533.838,-186.614 512.915,-102.889 504.811,-75.8032"/>
<polygon fill="midnightblue" stroke="midnightblue" points="465.872,-272.844 458.454,-280.408 468.97,-279.121 465.872,-272.844"/>
</g>
<!-- Node12 -->
<g id="node12" class="node"><title>Node12</title>
<g id="a_node12"><a xlink:href="io__reactor_8hpp.html" target="_top" xlink:title="Declaration of the IoReactor class. ">
<polygon fill="white" stroke="black" points="270.5,-112.5 270.5,-131.5 383.5,-131.5 383.5,-112.5 270.5,-112.5"/>
<text text-anchor="middle" x="327" y="-119.5" font-family="Helvetica,sans-Serif" font-size="10.00">src/io/io_reactor.hpp</text>
</a>
</g>
</g>
<!-- Node7&#45;&gt;Node12 -->
<g id="edge23" class="edge"><title>Node7&#45;&gt;Node12</title>
<path fill="none" stroke="midnightblue" d="M459.227,-274.909C477.374,-262.415 497.418,-243.216 487,-224 459.445,-173.175 394.153,-144.496 356.036,-131.535"/>
<polygon fill="midnightblue" stroke="midnightblue" points="457.112,-272.108 450.612,-280.475 460.911,-277.988 457.112,-272.108"/>
</g>
<!-- Node7&#45;&gt;Node13 -->
<g id="edge25" class="edge"><title>Node7&#45;&gt;Node13</title>
<path fill="none" stroke="midnightblue" d="M479.427,-277.407C524.288,-262.7 587,-232.563 587,-179 587,-179 587,-179 587,-121 587,-90.7745 588.448,-77.2973 567,-56 537.289,-26.4979 489.043,-16.206 455.313,-12.6882"/>
<polygon fill="midnightblue" stroke="midnightblue" points="478.37,-274.07 469.872,-280.398 480.461,-280.75 478.37,-274.07"/>
</g>
<!-- Node7&#45;&gt;Node14 -->
<g id="edge24" class="edge"><title>Node7&#45;&gt;Node14</title>
<path fill="none" stroke="midnightblue" d="M366.701,-285.706C263.381,-280.016 77.1725,-266.716 57,-244 10.9733,-192.169 83.1262,-103.307 108.04,-75.5441"/>
<polygon fill="midnightblue" stroke="midnightblue" points="366.563,-289.204 376.737,-286.25 366.941,-282.214 366.563,-289.204"/>
</g>
<!-- Node7&#45;&gt;Node16 -->
<g id="edge26" class="edge"><title>Node7&#45;&gt;Node16</title>
<path fill="none" stroke="midnightblue" d="M482.524,-278.217C527.496,-268.013 594.105,-252.901 635.465,-243.516"/>
<polygon fill="midnightblue" stroke="midnightblue" points="481.689,-274.818 472.712,-280.444 483.238,-281.644 481.689,-274.818"/>
</g>
<!-- Node17 -->
<g id="node17" class="node"><title>Node17</title>
<g id="a_node17"><a xlink:href="player__position_8cpp.html" target="_top" xlink:title="Implementation of the PlayerPosition class, and related Player methods. ">
<polygon fill="white" stroke="black" points="66,-224.5 66,-243.5 224,-243.5 224,-224.5 66,-224.5"/>
<text text-anchor="middle" x="145" y="-231.5" font-family="Helvetica,sans-Serif" font-size="10.00">src/player/player_position.cpp</text>
</a>
</g>
</g>
<!-- Node7&#45;&gt;Node17 -->
<g id="edge27" class="edge"><title>Node7&#45;&gt;Node17</title>
<path fill="none" stroke="midnightblue" d="M379.152,-278.601C324.345,-268.395 241.768,-253.019 190.736,-243.516"/>
<polygon fill="midnightblue" stroke="midnightblue" points="378.577,-282.054 389.049,-280.444 379.858,-275.172 378.577,-282.054"/>
</g>
<!-- Node18 -->
<g id="node18" class="node"><title>Node18</title>
<g id="a_node18"><a xlink:href="player__state_8cpp.html" target="_top" xlink:title="Implementation of the PlayerState class, and related Player methods. ">
<polygon fill="white" stroke="black" points="242,-224.5 242,-243.5 386,-243.5 386,-224.5 242,-224.5"/>
<text text-anchor="middle" x="314" y="-231.5" font-family="Helvetica,sans-Serif" font-size="10.00">src/player/player_state.cpp</text>
</a>
</g>
</g>
<!-- Node7&#45;&gt;Node18 -->
<g id="edge28" class="edge"><title>Node7&#45;&gt;Node18</title>
<path fill="none" stroke="midnightblue" d="M406.694,-276.368C384.035,-266.255 352.874,-252.349 333.083,-243.516"/>
<polygon fill="midnightblue" stroke="midnightblue" points="405.269,-279.564 415.827,-280.444 408.122,-273.172 405.269,-279.564"/>
</g>
<!-- Node9 -->
<g id="node9" class="node"><title>Node9</title>
<g id="a_node9"><a xlink:href="cmd_8cpp.html" target="_top" xlink:title="Implementation of the CommandHandler class. ">
<polygon fill="white" stroke="black" points="153.5,-168.5 153.5,-187.5 226.5,-187.5 226.5,-168.5 153.5,-168.5"/>
<text text-anchor="middle" x="190" y="-175.5" font-family="Helvetica,sans-Serif" font-size="10.00">src/cmd.cpp</text>
</a>
</g>
</g>
<!-- Node8&#45;&gt;Node9 -->
<g id="edge9" class="edge"><title>Node8&#45;&gt;Node9</title>
<path fill="none" stroke="midnightblue" d="M394.046,-222.898C345.618,-212.479 271.094,-196.447 226.779,-186.913"/>
<polygon fill="midnightblue" stroke="midnightblue" points="393.452,-226.35 403.964,-225.032 394.924,-219.507 393.452,-226.35"/>
</g>
<!-- Node8&#45;&gt;Node10 -->
<g id="edge10" class="edge"><title>Node8&#45;&gt;Node10</title>
<path fill="none" stroke="midnightblue" d="M447.837,-214.395C460.996,-178.585 489.38,-101.342 498.851,-75.5681"/>
<polygon fill="midnightblue" stroke="midnightblue" points="444.444,-213.482 444.28,-224.075 451.014,-215.896 444.444,-213.482"/>
</g>
<!-- Node11 -->
<g id="node11" class="node"><title>Node11</title>
<g id="a_node11"><a xlink:href="tokeniser_8hpp.html" target="_top" xlink:title="Declaration of the Tokeniser class. ">
<polygon fill="white" stroke="black" points="283.5,-168.5 283.5,-187.5 392.5,-187.5 392.5,-168.5 283.5,-168.5"/>
<text text-anchor="middle" x="338" y="-175.5" font-family="Helvetica,sans-Serif" font-size="10.00">src/io/tokeniser.hpp</text>
</a>
</g>
</g>
<!-- Node8&#45;&gt;Node11 -->
<g id="edge11" class="edge"><title>Node8&#45;&gt;Node11</title>
<path fill="none" stroke="midnightblue" d="M415.421,-219.59C396.377,-209.605 370.936,-196.267 354.508,-187.655"/>
<polygon fill="midnightblue" stroke="midnightblue" points="413.969,-222.78 424.451,-224.324 417.22,-216.581 413.969,-222.78"/>
</g>
<!-- Node8&#45;&gt;Node13 -->
<g id="edge20" class="edge"><title>Node8&#45;&gt;Node13</title>
<path fill="none" stroke="midnightblue" d="M438.978,-214.295C434.043,-168.644 421.525,-52.8537 417.96,-19.8837"/>
<polygon fill="midnightblue" stroke="midnightblue" points="435.505,-214.731 440.059,-224.297 442.464,-213.979 435.505,-214.731"/>
</g>
<!-- Node8&#45;&gt;Node14 -->
<g id="edge21" class="edge"><title>Node8&#45;&gt;Node14</title>
<path fill="none" stroke="midnightblue" d="M393.818,-224.112C324.678,-215.595 183.474,-224.256 144,-188 111.287,-157.954 113.091,-97.913 115.043,-75.6058"/>
<polygon fill="midnightblue" stroke="midnightblue" points="393.474,-227.599 403.873,-225.568 394.477,-220.671 393.474,-227.599"/>
</g>
<!-- Node15 -->
<g id="node15" class="node"><title>Node15</title>
<g id="a_node15"><a xlink:href="tokeniser_8cpp.html" target="_top" xlink:title="Definition of the Tokeniser class. ">
<polygon fill="white" stroke="black" points="144,-112.5 144,-131.5 252,-131.5 252,-112.5 144,-112.5"/>
<text text-anchor="middle" x="198" y="-119.5" font-family="Helvetica,sans-Serif" font-size="10.00">src/io/tokeniser.cpp</text>
</a>
</g>
</g>
<!-- Node8&#45;&gt;Node15 -->
<g id="edge19" class="edge"><title>Node8&#45;&gt;Node15</title>
<path fill="none" stroke="midnightblue" d="M393.675,-222.706C351.951,-213.185 294.672,-198.903 274,-188 245.437,-172.934 218.26,-145.448 205.533,-131.543"/>
<polygon fill="midnightblue" stroke="midnightblue" points="393.124,-226.169 403.65,-224.959 394.667,-219.341 393.124,-226.169"/>
</g>
<!-- Node11&#45;&gt;Node12 -->
<g id="edge12" class="edge"><title>Node11&#45;&gt;Node12</title>
<path fill="none" stroke="midnightblue" d="M334.15,-158.101C332.324,-149.136 330.23,-138.858 328.783,-131.751"/>
<polygon fill="midnightblue" stroke="midnightblue" points="330.758,-158.983 336.184,-168.083 337.617,-157.586 330.758,-158.983"/>
</g>
<!-- Node11&#45;&gt;Node15 -->
<g id="edge18" class="edge"><title>Node11&#45;&gt;Node15</title>
<path fill="none" stroke="midnightblue" d="M306.298,-164.772C280,-154.629 243.284,-140.467 220.08,-131.516"/>
<polygon fill="midnightblue" stroke="midnightblue" points="305.227,-168.11 315.817,-168.444 307.746,-161.579 305.227,-168.11"/>
</g>
<!-- Node12&#45;&gt;Node10 -->
<g id="edge13" class="edge"><title>Node12&#45;&gt;Node10</title>
<path fill="none" stroke="midnightblue" d="M364.475,-109.436C397.47,-99.2551 444.756,-84.664 474.4,-75.5164"/>
<polygon fill="midnightblue" stroke="midnightblue" points="363.253,-106.151 354.729,-112.444 365.317,-112.839 363.253,-106.151"/>
</g>
<!-- Node12&#45;&gt;Node12 -->
<g id="edge14" class="edge"><title>Node12&#45;&gt;Node12</title>
<path fill="none" stroke="midnightblue" d="M368.782,-132.393C386.453,-133.17 401.5,-129.706 401.5,-122 401.5,-112.867 380.364,-109.692 358.774,-112.475"/>
<polygon fill="midnightblue" stroke="midnightblue" points="369.039,-128.902 358.774,-131.525 368.435,-135.876 369.039,-128.902"/>
</g>
<!-- Node12&#45;&gt;Node13 -->
<g id="edge15" class="edge"><title>Node12&#45;&gt;Node13</title>
<path fill="none" stroke="midnightblue" d="M340.43,-104.586C359.833,-80.8709 395.016,-37.8691 409.971,-19.5914"/>
<polygon fill="midnightblue" stroke="midnightblue" points="337.686,-102.413 334.062,-112.368 343.103,-106.845 337.686,-102.413"/>
</g>
<!-- Node12&#45;&gt;Node14 -->
<g id="edge16" class="edge"><title>Node12&#45;&gt;Node14</title>
<path fill="none" stroke="midnightblue" d="M283.858,-109.959C244.006,-99.7598 185.637,-84.8217 149.277,-75.5164"/>
<polygon fill="midnightblue" stroke="midnightblue" points="283.011,-113.355 293.566,-112.444 284.746,-106.573 283.011,-113.355"/>
</g>
<!-- Node14&#45;&gt;Node13 -->
<g id="edge17" class="edge"><title>Node14&#45;&gt;Node13</title>
<path fill="none" stroke="midnightblue" d="M164.68,-56.2667C224.416,-45.55 324.449,-27.6038 378.889,-17.8372"/>
<polygon fill="midnightblue" stroke="midnightblue" points="163.959,-52.8401 154.734,-58.051 165.195,-59.7301 163.959,-52.8401"/>
</g>
<!-- Node20&#45;&gt;Node3 -->
<g id="edge36" class="edge"><title>Node20&#45;&gt;Node3</title>
<path fill="none" stroke="midnightblue" d="M1003.17,-442.622C988.187,-432.757 968.803,-419.992 956.142,-411.655"/>
<polygon fill="midnightblue" stroke="midnightblue" points="1001.55,-445.747 1011.83,-448.324 1005.4,-439.901 1001.55,-445.747"/>
</g>
<!-- Node20&#45;&gt;Node4 -->
<g id="edge38" class="edge"><title>Node20&#45;&gt;Node4</title>
<path fill="none" stroke="midnightblue" d="M1022.45,-437.979C1019.85,-424.194 1014.76,-405.656 1005,-392 993.474,-375.879 974.362,-363.28 960.399,-355.564"/>
<polygon fill="midnightblue" stroke="midnightblue" points="1019.05,-438.907 1024.09,-448.228 1025.96,-437.801 1019.05,-438.907"/>
</g>
<!-- Node20&#45;&gt;Node5 -->
<g id="edge39" class="edge"><title>Node20&#45;&gt;Node5</title>
<path fill="none" stroke="midnightblue" d="M972.832,-446.41C922.561,-436.204 847.468,-420.96 800.951,-411.516"/>
<polygon fill="midnightblue" stroke="midnightblue" points="972.355,-449.884 982.852,-448.444 973.748,-443.024 972.355,-449.884"/>
</g>
<!-- Node21 -->
<g id="node21" class="node"><title>Node21</title>
<g id="a_node21"><a xlink:href="audio__sink_8cpp.html" target="_top" xlink:title="Implementation of the AudioSink class. ">
<polygon fill="white" stroke="black" points="1053,-392.5 1053,-411.5 1185,-411.5 1185,-392.5 1053,-392.5"/>
<text text-anchor="middle" x="1119" y="-399.5" font-family="Helvetica,sans-Serif" font-size="10.00">src/audio/audio_sink.cpp</text>
</a>
</g>
</g>
<!-- Node20&#45;&gt;Node21 -->
<g id="edge37" class="edge"><title>Node20&#45;&gt;Node21</title>
<path fill="none" stroke="midnightblue" d="M1049.06,-443.177C1066.36,-433.241 1089.15,-420.149 1103.93,-411.655"/>
<polygon fill="midnightblue" stroke="midnightblue" points="1047.03,-440.308 1040.1,-448.324 1050.52,-446.378 1047.03,-440.308"/>
</g>
</g>
</svg>
