<?xml version="1.0" encoding="UTF-8" standalone="no"?>
<!DOCTYPE svg PUBLIC "-//W3C//DTD SVG 1.1//EN"
 "http://www.w3.org/Graphics/SVG/1.1/DTD/svg11.dtd">
<!-- Generated by graphviz version 2.38.0 (20140413.2041)
 -->
<!-- Title: src/audio/audio_sink.hpp Pages: 1 -->
<!--zoomable 207 -->
<svg id="main" version="1.1" xmlns="http://www.w3.org/2000/svg" xmlns:xlink="http://www.w3.org/1999/xlink" xml:space="preserve" onload="init(evt)">
<style type="text/css"><![CDATA[
.edge:hover path { stroke: red; }
.edge:hover polygon { stroke: red; fill: red; }
]]></style>
<script type="text/javascript"><![CDATA[
var edges = document.getElementsByTagName('g');
if (edges && edges.length) {
  for (var i=0;i<edges.length;i++) {
    if (edges[i].id.substr(0,4)=='edge') {
      edges[i].setAttribute('class','edge');
    }
  }
}
]]></script>
        <defs>
                <circle id="rim" cx="0" cy="0" r="7"/>
                <circle id="rim2" cx="0" cy="0" r="3.5"/>
                <g id="zoomPlus">
                        <use xlink:href="#rim" fill="#404040">
                                <set attributeName="fill" to="#808080" begin="zoomplus.mouseover" end="zoomplus.mouseout"/>
                        </use>
                        <path d="M-4,0h8M0,-4v8" fill="none" stroke="white" stroke-width="1.5" pointer-events="none"/>
                </g>
                <g id="zoomMin">
                        <use xlink:href="#rim" fill="#404040">
                                <set attributeName="fill" to="#808080" begin="zoomminus.mouseover" end="zoomminus.mouseout"/>
                        </use>
                        <path d="M-4,0h8" fill="none" stroke="white" stroke-width="1.5" pointer-events="none"/>
                </g>
                <g id="dirArrow">
                        <path fill="none" stroke="white" stroke-width="1.5" d="M0,-3.0v7 M-2.5,-0.5L0,-3.0L2.5,-0.5"/>
                </g>
               <g id="resetDef">
                       <use xlink:href="#rim2" fill="#404040">
                               <set attributeName="fill" to="#808080" begin="reset.mouseover" end="reset.mouseout"/>
                       </use>
               </g>
        </defs>

<script type="text/javascript">
var viewWidth = 1258;
var viewHeight = 207;
var sectionId = 'dynsection-0';
</script>
<script xlink:href="svgpan.js"/>
<svg id="graph" class="graph">
<g id="viewport">
<title>src/audio/audio_sink.hpp</title>
<polygon fill="white" stroke="none" points="-4,4 -4,-203 1254.02,-203 1254.02,4 -4,4"/>
<!-- Node1 -->
<g id="node1" class="node"><title>Node1</title>
<polygon fill="#bfbfbf" stroke="black" points="572.524,-179.5 572.524,-198.5 705.524,-198.5 705.524,-179.5 572.524,-179.5"/>
<text text-anchor="middle" x="639.024" y="-186.5" font-family="Helvetica,sans-Serif" font-size="10.00">src/audio/audio_sink.hpp</text>
</g>
<!-- Node2 -->
<g id="node2" class="node"><title>Node2</title>
<polygon fill="white" stroke="#bfbfbf" points="15.0245,-62 15.0245,-81 65.0245,-81 65.0245,-62 15.0245,-62"/>
<text text-anchor="middle" x="40.0245" y="-69" font-family="Helvetica,sans-Serif" font-size="10.00">chrono</text>
</g>
<!-- Node1&#45;&gt;Node2 -->
<g id="edge1" class="edge"><title>Node1&#45;&gt;Node2</title>
<path fill="none" stroke="midnightblue" d="M572.262,-180.27C508.49,-172.454 409.809,-159.227 325.024,-143 220.419,-122.979 195.114,-113.752 92.0245,-87 86.5248,-85.5728 80.7136,-84.0084 75.047,-82.4518"/>
<polygon fill="midnightblue" stroke="midnightblue" points="75.6736,-78.9934 65.1017,-79.6896 73.8003,-85.7381 75.6736,-78.9934"/>
</g>
<!-- Node3 -->
<g id="node3" class="node"><title>Node3</title>
<polygon fill="white" stroke="#bfbfbf" points="69.5245,-0.5 69.5245,-19.5 116.524,-19.5 116.524,-0.5 69.5245,-0.5"/>
<text text-anchor="middle" x="93.0245" y="-7.5" font-family="Helvetica,sans-Serif" font-size="10.00">cstdint</text>
</g>
<!-- Node1&#45;&gt;Node3 -->
<g id="edge2" class="edge"><title>Node1&#45;&gt;Node3</title>
<path fill="none" stroke="midnightblue" d="M572.338,-188.226C424.04,-187.114 74.5892,-175.008 6.02449,-87 -2.44301,-76.1313 -1.13847,-67.7694 6.02449,-56 17.6936,-36.8265 40.4576,-25.4618 59.7734,-18.9506"/>
<polygon fill="midnightblue" stroke="midnightblue" points="60.9489,-22.2511 69.483,-15.9724 58.8962,-15.5588 60.9489,-22.2511"/>
</g>
<!-- Node4 -->
<g id="node4" class="node"><title>Node4</title>
<polygon fill="white" stroke="#bfbfbf" points="698.024,-123.5 698.024,-142.5 752.024,-142.5 752.024,-123.5 698.024,-123.5"/>
<text text-anchor="middle" x="725.024" y="-130.5" font-family="Helvetica,sans-Serif" font-size="10.00">memory</text>
</g>
<!-- Node1&#45;&gt;Node4 -->
<g id="edge3" class="edge"><title>Node1&#45;&gt;Node4</title>
<path fill="none" stroke="midnightblue" d="M652.842,-179.324C666.257,-170.9 686.849,-157.971 702.61,-148.074"/>
<polygon fill="midnightblue" stroke="midnightblue" points="704.634,-150.936 711.241,-142.655 700.911,-145.008 704.634,-150.936"/>
</g>
<!-- Node5 -->
<g id="node5" class="node"><title>Node5</title>
<polygon fill="white" stroke="#bfbfbf" points="548.524,-0.5 548.524,-19.5 591.524,-19.5 591.524,-0.5 548.524,-0.5"/>
<text text-anchor="middle" x="570.024" y="-7.5" font-family="Helvetica,sans-Serif" font-size="10.00">string</text>
</g>
<!-- Node1&#45;&gt;Node5 -->
<g id="edge4" class="edge"><title>Node1&#45;&gt;Node5</title>
<path fill="none" stroke="midnightblue" d="M624.65,-179.192C613.024,-171.246 597.276,-158.453 589.024,-143 569.549,-106.529 567.999,-56.7101 568.843,-29.9112"/>
<polygon fill="midnightblue" stroke="midnightblue" points="572.352,-29.7972 569.324,-19.6442 565.36,-29.4692 572.352,-29.7972"/>
</g>
<!-- Node6 -->
<g id="node6" class="node"><title>Node6</title>
<polygon fill="white" stroke="#bfbfbf" points="770.024,-123.5 770.024,-142.5 810.024,-142.5 810.024,-123.5 770.024,-123.5"/>
<text text-anchor="middle" x="790.024" y="-130.5" font-family="Helvetica,sans-Serif" font-size="10.00">utility</text>
</g>
<!-- Node1&#45;&gt;Node6 -->
<g id="edge5" class="edge"><title>Node1&#45;&gt;Node6</title>
<path fill="none" stroke="midnightblue" d="M662.951,-179.444C689.285,-170.026 731.653,-154.875 760.148,-144.684"/>
<polygon fill="midnightblue" stroke="midnightblue" points="761.362,-147.967 769.6,-141.304 759.005,-141.376 761.362,-147.967"/>
</g>
<!-- Node7 -->
<g id="node7" class="node"><title>Node7</title>
<polygon fill="white" stroke="#bfbfbf" points="496.024,-62 496.024,-81 542.024,-81 542.024,-62 496.024,-62"/>
<text text-anchor="middle" x="519.024" y="-69" font-family="Helvetica,sans-Serif" font-size="10.00">vector</text>
</g>
<!-- Node1&#45;&gt;Node7 -->
<g id="edge6" class="edge"><title>Node1&#45;&gt;Node7</title>
<path fill="none" stroke="midnightblue" d="M615.158,-179.499C597.128,-172.109 572.717,-159.919 556.024,-143 541.353,-128.129 531.11,-106.247 525.179,-90.8142"/>
<polygon fill="midnightblue" stroke="midnightblue" points="528.443,-89.5474 521.761,-81.3255 521.857,-91.9199 528.443,-89.5474"/>
</g>
<!-- Node8 -->
<g id="node8" class="node"><title>Node8</title>
<polygon fill="white" stroke="#bfbfbf" points="828.524,-123.5 828.524,-142.5 897.524,-142.5 897.524,-123.5 828.524,-123.5"/>
<text text-anchor="middle" x="863.024" y="-130.5" font-family="Helvetica,sans-Serif" font-size="10.00">portaudio.h</text>
</g>
<!-- Node1&#45;&gt;Node8 -->
<g id="edge7" class="edge"><title>Node1&#45;&gt;Node8</title>
<path fill="none" stroke="midnightblue" d="M674.518,-179.444C713.577,-170.028 776.415,-154.879 818.686,-144.689"/>
<polygon fill="midnightblue" stroke="midnightblue" points="819.532,-148.085 828.433,-142.339 817.891,-141.28 819.532,-148.085"/>
</g>
<!-- Node9 -->
<g id="node9" class="node"><title>Node9</title>
<polygon fill="white" stroke="#bfbfbf" points="916.024,-123.5 916.024,-142.5 1098.02,-142.5 1098.02,-123.5 916.024,-123.5"/>
<text text-anchor="middle" x="1007.02" y="-130.5" font-family="Helvetica,sans-Serif" font-size="10.00">portaudiocpp/CallbackInterface.hxx</text>
</g>
<!-- Node1&#45;&gt;Node9 -->
<g id="edge8" class="edge"><title>Node1&#45;&gt;Node9</title>
<path fill="none" stroke="midnightblue" d="M697.335,-179.444C763.012,-169.806 869.614,-154.163 939.025,-143.978"/>
<polygon fill="midnightblue" stroke="midnightblue" points="939.601,-147.431 948.987,-142.516 938.584,-140.505 939.601,-147.431"/>
</g>
<!-- Node10 -->
<g id="node10" class="node"><title>Node10</title>
<polygon fill="white" stroke="#bfbfbf" points="1116.02,-123.5 1116.02,-142.5 1250.02,-142.5 1250.02,-123.5 1116.02,-123.5"/>
<text text-anchor="middle" x="1183.02" y="-130.5" font-family="Helvetica,sans-Serif" font-size="10.00">portaudiocpp/Stream.hxx</text>
</g>
<!-- Node1&#45;&gt;Node10 -->
<g id="edge9" class="edge"><title>Node1&#45;&gt;Node10</title>
<path fill="none" stroke="midnightblue" d="M705.722,-182.052C794.506,-174.031 956.693,-159.017 1105.65,-143.127"/>
<polygon fill="midnightblue" stroke="midnightblue" points="1106.33,-146.575 1115.9,-142.031 1105.58,-139.615 1106.33,-146.575"/>
</g>
<!-- Node11 -->
<g id="node11" class="node"><title>Node11</title>
<g id="a_node11"><a xlink:href="audio__source_8hpp.html" target="_top" xlink:title="Declaration of the AudioSource class. ">
<polygon fill="white" stroke="black" points="334.024,-123.5 334.024,-142.5 434.024,-142.5 434.024,-123.5 334.024,-123.5"/>
<text text-anchor="middle" x="384.024" y="-130.5" font-family="Helvetica,sans-Serif" font-size="10.00">audio_source.hpp</text>
</a>
</g>
</g>
<!-- Node1&#45;&gt;Node11 -->
<g id="edge10" class="edge"><title>Node1&#45;&gt;Node11</title>
<path fill="none" stroke="midnightblue" d="M598.619,-179.444C554.042,-170.004 482.256,-154.802 434.133,-144.611"/>
<polygon fill="midnightblue" stroke="midnightblue" points="434.749,-141.164 424.241,-142.516 433.299,-148.012 434.749,-141.164"/>
</g>
<!-- Node19 -->
<g id="node19" class="node"><title>Node19</title>
<g id="a_node19"><a xlink:href="ringbuffer_8hpp.html" target="_top" xlink:title="The RingBuffer class template. ">
<polygon fill="white" stroke="black" points="598.524,-123.5 598.524,-142.5 679.524,-142.5 679.524,-123.5 598.524,-123.5"/>
<text text-anchor="middle" x="639.024" y="-130.5" font-family="Helvetica,sans-Serif" font-size="10.00">ringbuffer.hpp</text>
</a>
</g>
</g>
<!-- Node1&#45;&gt;Node19 -->
<g id="edge23" class="edge"><title>Node1&#45;&gt;Node19</title>
<path fill="none" stroke="midnightblue" d="M639.024,-179.083C639.024,-172.006 639.024,-161.861 639.024,-152.986"/>
<polygon fill="midnightblue" stroke="midnightblue" points="642.525,-152.751 639.024,-142.751 635.525,-152.751 642.525,-152.751"/>
</g>
<!-- Node11&#45;&gt;Node2 -->
<g id="edge12" class="edge"><title>Node11&#45;&gt;Node2</title>
<path fill="none" stroke="midnightblue" d="M333.997,-127.86C273.05,-122.078 167.29,-109.653 79.0245,-87 76.2039,-86.2761 73.3045,-85.4206 70.4211,-84.493"/>
<polygon fill="midnightblue" stroke="midnightblue" points="71.412,-81.1319 60.8171,-81.1473 69.1091,-87.7423 71.412,-81.1319"/>
</g>
<!-- Node11&#45;&gt;Node3 -->
<g id="edge13" class="edge"><title>Node11&#45;&gt;Node3</title>
<path fill="none" stroke="midnightblue" d="M333.843,-130.133C264.289,-126.499 143.562,-116.08 112.024,-87 96.2767,-72.4791 92.7143,-47.0587 92.3043,-29.6466"/>
<polygon fill="midnightblue" stroke="midnightblue" points="95.8049,-29.5866 92.3937,-19.5559 88.8052,-29.5245 95.8049,-29.5866"/>
</g>
<!-- Node11&#45;&gt;Node5 -->
<g id="edge15" class="edge"><title>Node11&#45;&gt;Node5</title>
<path fill="none" stroke="midnightblue" d="M396.933,-123.253C409.972,-114.341 430.622,-100.017 448.024,-87 465.755,-73.7376 468.555,-68.2122 487.024,-56 504.969,-44.1351 526.329,-32.6085 542.886,-24.1917"/>
<polygon fill="midnightblue" stroke="midnightblue" points="544.645,-27.2253 552.018,-19.6164 541.509,-20.9669 544.645,-27.2253"/>
</g>
<!-- Node11&#45;&gt;Node7 -->
<g id="edge16" class="edge"><title>Node11&#45;&gt;Node7</title>
<path fill="none" stroke="midnightblue" d="M403.367,-123.475C426.123,-113.445 464.116,-96.7002 490.312,-85.1546"/>
<polygon fill="midnightblue" stroke="midnightblue" points="491.979,-88.2449 499.718,-81.0091 489.156,-81.8395 491.979,-88.2449"/>
</g>
<!-- Node12 -->
<g id="node12" class="node"><title>Node12</title>
<polygon fill="white" stroke="#bfbfbf" points="258.524,-62 258.524,-81 299.524,-81 299.524,-62 258.524,-62"/>
<text text-anchor="middle" x="279.024" y="-69" font-family="Helvetica,sans-Serif" font-size="10.00">array</text>
</g>
<!-- Node11&#45;&gt;Node12 -->
<g id="edge11" class="edge"><title>Node11&#45;&gt;Node12</title>
<path fill="none" stroke="midnightblue" d="M368.981,-123.475C351.749,-113.711 323.285,-97.5807 302.991,-86.0808"/>
<polygon fill="midnightblue" stroke="midnightblue" points="304.466,-82.8942 294.041,-81.0091 301.015,-88.9843 304.466,-82.8942"/>
</g>
<!-- Node13 -->
<g id="node13" class="node"><title>Node13</title>
<polygon fill="white" stroke="#bfbfbf" points="318.024,-62 318.024,-81 380.024,-81 380.024,-62 318.024,-62"/>
<text text-anchor="middle" x="349.024" y="-69" font-family="Helvetica,sans-Serif" font-size="10.00">functional</text>
</g>
<!-- Node11&#45;&gt;Node13 -->
<g id="edge14" class="edge"><title>Node11&#45;&gt;Node13</title>
<path fill="none" stroke="midnightblue" d="M379.01,-123.475C373.864,-114.727 365.712,-100.869 359.206,-89.8093"/>
<polygon fill="midnightblue" stroke="midnightblue" points="362.117,-87.8539 354.03,-81.0091 356.083,-91.403 362.117,-87.8539"/>
</g>
<!-- Node14 -->
<g id="node14" class="node"><title>Node14</title>
<polygon fill="white" stroke="#bfbfbf" points="398.524,-62 398.524,-81 439.524,-81 439.524,-62 398.524,-62"/>
<text text-anchor="middle" x="419.024" y="-69" font-family="Helvetica,sans-Serif" font-size="10.00">sox.h</text>
</g>
<!-- Node11&#45;&gt;Node14 -->
<g id="edge17" class="edge"><title>Node11&#45;&gt;Node14</title>
<path fill="none" stroke="midnightblue" d="M389.039,-123.475C394.185,-114.727 402.337,-100.869 408.843,-89.8093"/>
<polygon fill="midnightblue" stroke="midnightblue" points="411.966,-91.403 414.019,-81.0091 405.932,-87.8539 411.966,-91.403"/>
</g>
<!-- Node15 -->
<g id="node15" class="node"><title>Node15</title>
<g id="a_node15"><a xlink:href="errors_8hpp.html" target="_top" xlink:title="Declarations of the playd Error exception set. ">
<polygon fill="white" stroke="black" points="696.524,-62 696.524,-81 769.524,-81 769.524,-62 696.524,-62"/>
<text text-anchor="middle" x="733.024" y="-69" font-family="Helvetica,sans-Serif" font-size="10.00">../errors.hpp</text>
</a>
</g>
</g>
<!-- Node11&#45;&gt;Node15 -->
<g id="edge18" class="edge"><title>Node11&#45;&gt;Node15</title>
<path fill="none" stroke="midnightblue" d="M434.073,-127.018C494.523,-120.44 599.053,-107.264 687.024,-87 690.862,-86.116 694.842,-85.0674 698.783,-83.9446"/>
<polygon fill="midnightblue" stroke="midnightblue" points="699.827,-87.2855 708.394,-81.0518 697.81,-80.5825 699.827,-87.2855"/>
</g>
<!-- Node18 -->
<g id="node18" class="node"><title>Node18</title>
<g id="a_node18"><a xlink:href="sample__formats_8hpp.html" target="_top" xlink:title="The SampleFormat enumeration. ">
<polygon fill="white" stroke="black" points="121.524,-62 121.524,-81 240.524,-81 240.524,-62 121.524,-62"/>
<text text-anchor="middle" x="181.024" y="-69" font-family="Helvetica,sans-Serif" font-size="10.00">../sample_formats.hpp</text>
</a>
</g>
</g>
<!-- Node11&#45;&gt;Node18 -->
<g id="edge21" class="edge"><title>Node11&#45;&gt;Node18</title>
<path fill="none" stroke="midnightblue" d="M354.94,-123.475C319.44,-113.07 259.279,-95.4367 219.851,-83.8801"/>
<polygon fill="midnightblue" stroke="midnightblue" points="220.636,-80.4632 210.055,-81.0091 218.667,-87.1806 220.636,-80.4632"/>
</g>
<!-- Node16 -->
<g id="node16" class="node"><title>Node16</title>
<polygon fill="white" stroke="#bfbfbf" points="667.524,-0.5 667.524,-19.5 724.524,-19.5 724.524,-0.5 667.524,-0.5"/>
<text text-anchor="middle" x="696.024" y="-7.5" font-family="Helvetica,sans-Serif" font-size="10.00">iostream</text>
</g>
<!-- Node15&#45;&gt;Node16 -->
<g id="edge19" class="edge"><title>Node15&#45;&gt;Node16</title>
<path fill="none" stroke="midnightblue" d="M727.723,-61.9751C722.283,-53.2268 713.666,-39.3691 706.788,-28.3093"/>
<polygon fill="midnightblue" stroke="midnightblue" points="709.569,-26.1528 701.316,-19.5091 703.624,-29.8494 709.569,-26.1528"/>
</g>
<!-- Node17 -->
<g id="node17" class="node"><title>Node17</title>
<polygon fill="white" stroke="#bfbfbf" points="743.024,-0.5 743.024,-19.5 797.024,-19.5 797.024,-0.5 743.024,-0.5"/>
<text text-anchor="middle" x="770.024" y="-7.5" font-family="Helvetica,sans-Serif" font-size="10.00">sstream</text>
</g>
<!-- Node15&#45;&gt;Node17 -->
<g id="edge20" class="edge"><title>Node15&#45;&gt;Node17</title>
<path fill="none" stroke="midnightblue" d="M738.326,-61.9751C743.766,-53.2268 752.383,-39.3691 759.261,-28.3093"/>
<polygon fill="midnightblue" stroke="midnightblue" points="762.425,-29.8494 764.733,-19.5091 756.48,-26.1528 762.425,-29.8494"/>
</g>
<!-- Node18&#45;&gt;Node3 -->
<g id="edge22" class="edge"><title>Node18&#45;&gt;Node3</title>
<path fill="none" stroke="midnightblue" d="M168.416,-61.9751C154.301,-52.4315 131.193,-36.8073 114.275,-25.3683"/>
<polygon fill="midnightblue" stroke="midnightblue" points="115.854,-22.2109 105.609,-19.5091 111.933,-28.0098 115.854,-22.2109"/>
</g>
<!-- Node19&#45;&gt;Node15 -->
<g id="edge26" class="edge"><title>Node19&#45;&gt;Node15</title>
<path fill="none" stroke="midnightblue" d="M652.492,-123.475C667.709,-113.843 692.711,-98.0175 710.825,-86.5517"/>
<polygon fill="midnightblue" stroke="midnightblue" points="713.004,-89.3149 719.582,-81.0091 709.26,-83.4002 713.004,-89.3149"/>
</g>
<!-- Node20 -->
<g id="node20" class="node"><title>Node20</title>
<polygon fill="white" stroke="#bfbfbf" points="926.524,-62 926.524,-81 977.524,-81 977.524,-62 926.524,-62"/>
<text text-anchor="middle" x="952.024" y="-69" font-family="Helvetica,sans-Serif" font-size="10.00">cassert</text>
</g>
<!-- Node19&#45;&gt;Node20 -->
<g id="edge24" class="edge"><title>Node19&#45;&gt;Node20</title>
<path fill="none" stroke="midnightblue" d="M679.67,-124.606C682.834,-124.054 685.98,-123.513 689.024,-123 790.619,-105.873 818.996,-115.425 918.024,-87 920.314,-86.3427 922.655,-85.5711 924.984,-84.7322"/>
<polygon fill="midnightblue" stroke="midnightblue" points="926.324,-87.9661 934.328,-81.0249 923.742,-81.4596 926.324,-87.9661"/>
</g>
<!-- Node21 -->
<g id="node21" class="node"><title>Node21</title>
<polygon fill="white" stroke="#bfbfbf" points="787.524,-56.5 787.524,-86.5 908.524,-86.5 908.524,-56.5 787.524,-56.5"/>
<text text-anchor="start" x="795.524" y="-74.5" font-family="Helvetica,sans-Serif" font-size="10.00">../contrib/pa_ringbuffer</text>
<text text-anchor="middle" x="848.024" y="-63.5" font-family="Helvetica,sans-Serif" font-size="10.00">/pa_ringbuffer.h</text>
</g>
<!-- Node19&#45;&gt;Node21 -->
<g id="edge25" class="edge"><title>Node19&#45;&gt;Node21</title>
<path fill="none" stroke="midnightblue" d="M668.969,-123.475C700.185,-114.588 749.922,-100.429 789.062,-89.2859"/>
<polygon fill="midnightblue" stroke="midnightblue" points="790.108,-92.6274 798.767,-86.523 788.191,-85.8949 790.108,-92.6274"/>
</g>
<!-- Node22 -->
<g id="node22" class="node"><title>Node22</title>
<g id="a_node22"><a xlink:href="messages_8h.html" target="_top" xlink:title="Constant human&#45;readable messages used within playd. ">
<polygon fill="white" stroke="black" points="598.024,-62 598.024,-81 678.024,-81 678.024,-62 598.024,-62"/>
<text text-anchor="middle" x="638.024" y="-69" font-family="Helvetica,sans-Serif" font-size="10.00">../messages.h</text>
</a>
</g>
</g>
<!-- Node19&#45;&gt;Node22 -->
<g id="edge27" class="edge"><title>Node19&#45;&gt;Node22</title>
<path fill="none" stroke="midnightblue" d="M638.881,-123.475C638.74,-115.08 638.52,-101.981 638.338,-91.1631"/>
<polygon fill="midnightblue" stroke="midnightblue" points="641.835,-90.9488 638.168,-81.0091 634.836,-91.0665 641.835,-90.9488"/>
</g>
<!-- Node22&#45;&gt;Node5 -->
<g id="edge28" class="edge"><title>Node22&#45;&gt;Node5</title>
<path fill="none" stroke="midnightblue" d="M628.282,-61.9751C617.678,-52.6966 600.505,-37.6706 587.546,-26.331"/>
<polygon fill="midnightblue" stroke="midnightblue" points="589.58,-23.4601 579.749,-19.5091 584.97,-28.7282 589.58,-23.4601"/>
</g>
</g>
</svg>
        <g id="navigator" transform="translate(0 0)" fill="#404254">
                <rect fill="#f2f5e9" fill-opacity="0.5" stroke="#606060" stroke-width=".5" x="0" y="0" width="60" height="60"/>
                <use id="zoomplus" xlink:href="#zoomPlus" x="17" y="9" onmousedown="handleZoom(evt,'in')"/>
                <use id="zoomminus" xlink:href="#zoomMin" x="42" y="9" onmousedown="handleZoom(evt,'out')"/>
                <use id="reset" xlink:href="#resetDef" x="30" y="36" onmousedown="handleReset()"/>
                <g id="arrowUp" xlink:href="#dirArrow" transform="translate(30 24)" onmousedown="handlePan(0,-1)">
                  <use xlink:href="#rim" fill="#404040">
                        <set attributeName="fill" to="#808080" begin="arrowUp.mouseover" end="arrowUp.mouseout"/>
                  </use>
                  <path fill="none" stroke="white" stroke-width="1.5" d="M0,-3.0v7 M-2.5,-0.5L0,-3.0L2.5,-0.5"/>
                </g>
                <g id="arrowRight" xlink:href="#dirArrow" transform="rotate(90) translate(36 -43)" onmousedown="handlePan(1,0)">
                  <use xlink:href="#rim" fill="#404040">
                        <set attributeName="fill" to="#808080" begin="arrowRight.mouseover" end="arrowRight.mouseout"/>
                  </use>
                  <path fill="none" stroke="white" stroke-width="1.5" d="M0,-3.0v7 M-2.5,-0.5L0,-3.0L2.5,-0.5"/>
                </g>
                <g id="arrowDown" xlink:href="#dirArrow" transform="rotate(180) translate(-30 -48)" onmousedown="handlePan(0,1)">
                  <use xlink:href="#rim" fill="#404040">
                        <set attributeName="fill" to="#808080" begin="arrowDown.mouseover" end="arrowDown.mouseout"/>
                  </use>
                  <path fill="none" stroke="white" stroke-width="1.5" d="M0,-3.0v7 M-2.5,-0.5L0,-3.0L2.5,-0.5"/>
                </g>
                <g id="arrowLeft" xlink:href="#dirArrow" transform="rotate(270) translate(-36 17)" onmousedown="handlePan(-1,0)">
                  <use xlink:href="#rim" fill="#404040">
                        <set attributeName="fill" to="#808080" begin="arrowLeft.mouseover" end="arrowLeft.mouseout"/>
                  </use>
                  <path fill="none" stroke="white" stroke-width="1.5" d="M0,-3.0v7 M-2.5,-0.5L0,-3.0L2.5,-0.5"/>
                </g>
        </g>
        <svg viewBox="0 0 15 15" width="100%" height="30px" preserveAspectRatio="xMaxYMin meet">
         <g id="arrow_out" transform="scale(0.3 0.3)">
          <a xlink:href="audio__sink_8hpp__incl_org.svg" target="_base">
           <rect id="button" ry="5" rx="5" y="6" x="6" height="38" width="38"
                fill="#f2f5e9" fill-opacity="0.5" stroke="#606060" stroke-width="1.0"/>
           <path id="arrow"
             d="M 11.500037,31.436501 C 11.940474,20.09759 22.043105,11.32322 32.158766,21.979434 L 37.068811,17.246167 C 37.068811,17.246167 37.088388,32 37.088388,32 L 22.160133,31.978069 C 22.160133,31.978069 26.997745,27.140456 26.997745,27.140456 C 18.528582,18.264221 13.291696,25.230495 11.500037,31.436501 z"
             style="fill:#404040;"/>
          </a>
         </g>
        </svg>
</svg>
