<?xml version="1.0" encoding="UTF-8" standalone="no"?>
<!DOCTYPE svg PUBLIC "-//W3C//DTD SVG 1.1//EN"
 "http://www.w3.org/Graphics/SVG/1.1/DTD/svg11.dtd">
<!-- Generated by graphviz version 2.38.0 (20140413.2041)
 -->
<!-- Title: Tokeniser Pages: 1 -->
<svg width="1657pt" height="333pt"
 viewBox="0.00 0.00 1657.00 333.00" xmlns="http://www.w3.org/2000/svg" xmlns:xlink="http://www.w3.org/1999/xlink">
<g id="graph0" class="graph" transform="scale(1 1) rotate(0) translate(4 329)">
<title>Tokeniser</title>
<polygon fill="white" stroke="none" points="-4,4 -4,-329 1653,-329 1653,4 -4,4"/>
<!-- Node1 -->
<g id="node1" class="node"><title>Node1</title>
<polygon fill="#bfbfbf" stroke="black" points="1585,-61.5 1585,-80.5 1649,-80.5 1649,-61.5 1585,-61.5"/>
<text text-anchor="middle" x="1617" y="-68.5" font-family="Helvetica,sans-Serif" font-size="10.00">Tokeniser</text>
</g>
<!-- Node2 -->
<g id="node2" class="node"><title>Node2</title>
<g id="a_node2"><a xlink:href="classResponseSink.html" target="_top" xlink:title="Abstract class for anything that can be sent a response. ">
<polygon fill="white" stroke="black" points="585,-266.5 585,-285.5 670,-285.5 670,-266.5 585,-266.5"/>
<text text-anchor="middle" x="627.5" y="-273.5" font-family="Helvetica,sans-Serif" font-size="10.00">ResponseSink</text>
</a>
</g>
</g>
<!-- Node2&#45;&gt;Node1 -->
<g id="edge1" class="edge"><title>Node2&#45;&gt;Node1</title>
<path fill="none" stroke="#9a32cd" stroke-dasharray="5,2" d="M667.845,-288.466C706.342,-299.545 766.849,-314 820.5,-314 820.5,-314 820.5,-314 1459,-314 1572.26,-314 1607.81,-125.453 1614.67,-80.5259"/>
<polygon fill="#9a32cd" stroke="#9a32cd" points="668.653,-285.055 658.072,-285.589 666.677,-291.77 668.653,-285.055"/>
<text text-anchor="middle" x="1236.5" y="-317" font-family="Helvetica,sans-Serif" font-size="10.00"> response_sink</text>
</g>
<!-- Node7 -->
<g id="node7" class="node"><title>Node7</title>
<g id="a_node7"><a xlink:href="classPlayer.html" target="_top" xlink:title="A Player contains a loaded audio file and the state of its playback. ">
<polygon fill="white" stroke="black" points="1291,-159.5 1291,-178.5 1338,-178.5 1338,-159.5 1291,-159.5"/>
<text text-anchor="middle" x="1314.5" y="-166.5" font-family="Helvetica,sans-Serif" font-size="10.00">Player</text>
</a>
</g>
</g>
<!-- Node2&#45;&gt;Node7 -->
<g id="edge9" class="edge"><title>Node2&#45;&gt;Node7</title>
<path fill="none" stroke="#9a32cd" stroke-dasharray="5,2" d="M680.339,-277.759C778.711,-280.295 999,-282.132 1182,-256 1223.3,-250.103 1239.22,-257.478 1273,-233 1292.17,-219.112 1304.4,-193.113 1309.98,-178.901"/>
<polygon fill="#9a32cd" stroke="#9a32cd" points="680.17,-274.253 670.079,-277.48 679.98,-281.25 680.17,-274.253"/>
<text text-anchor="middle" x="968" y="-281" font-family="Helvetica,sans-Serif" font-size="10.00"> end_sink</text>
</g>
<!-- Node10 -->
<g id="node10" class="node"><title>Node10</title>
<g id="a_node10"><a xlink:href="classResponseSource.html" target="_top" xlink:title="Abstract helper class for sources of responses. ">
<polygon fill="white" stroke="black" points="772.5,-210.5 772.5,-229.5 870.5,-229.5 870.5,-210.5 772.5,-210.5"/>
<text text-anchor="middle" x="821.5" y="-217.5" font-family="Helvetica,sans-Serif" font-size="10.00">ResponseSource</text>
</a>
</g>
</g>
<!-- Node2&#45;&gt;Node10 -->
<g id="edge12" class="edge"><title>Node2&#45;&gt;Node10</title>
<path fill="none" stroke="#9a32cd" stroke-dasharray="5,2" d="M658.162,-262.383C667.577,-258.375 678.113,-254.209 688,-251 715.527,-242.067 747.049,-234.585 772.44,-229.21"/>
<polygon fill="#9a32cd" stroke="#9a32cd" points="656.595,-259.249 648.83,-266.457 659.396,-265.664 656.595,-259.249"/>
<text text-anchor="middle" x="713.5" y="-254" font-family="Helvetica,sans-Serif" font-size="10.00"> push_sink</text>
</g>
<!-- Node3 -->
<g id="node3" class="node"><title>Node3</title>
<g id="a_node3"><a xlink:title="STL class. ">
<polygon fill="white" stroke="#bfbfbf" points="596.5,-58.5 596.5,-77.5 658.5,-77.5 658.5,-58.5 596.5,-58.5"/>
<text text-anchor="middle" x="627.5" y="-65.5" font-family="Helvetica,sans-Serif" font-size="10.00">std::string</text>
</a>
</g>
</g>
<!-- Node3&#45;&gt;Node1 -->
<g id="edge2" class="edge"><title>Node3&#45;&gt;Node1</title>
<path fill="none" stroke="#9a32cd" stroke-dasharray="5,2" d="M669.016,-61.6481C707.795,-56.1245 767.991,-49 820.5,-49 820.5,-49 820.5,-49 1459,-49 1503.04,-49 1553.36,-57.5938 1584.9,-64.0391"/>
<polygon fill="#9a32cd" stroke="#9a32cd" points="668.06,-58.2503 658.67,-63.1563 669.07,-65.177 668.06,-58.2503"/>
<text text-anchor="middle" x="1236.5" y="-52" font-family="Helvetica,sans-Serif" font-size="10.00"> current_word</text>
</g>
<!-- Node5 -->
<g id="node5" class="node"><title>Node5</title>
<polygon fill="white" stroke="#bfbfbf" points="904,-0.5 904,-19.5 1032,-19.5 1032,-0.5 904,-0.5"/>
<text text-anchor="middle" x="968" y="-7.5" font-family="Helvetica,sans-Serif" font-size="10.00">std::vector&lt; std::string &gt;</text>
</g>
<!-- Node3&#45;&gt;Node5 -->
<g id="edge5" class="edge"><title>Node3&#45;&gt;Node5</title>
<path fill="none" stroke="#9a32cd" stroke-dasharray="5,2" d="M645.546,-51.113C656.646,-41.2794 671.998,-29.7227 688,-24 758.668,1.27196 845.849,1.10627 903.757,-2.978"/>
<polygon fill="#9a32cd" stroke="#9a32cd" points="642.891,-48.8021 637.945,-58.1718 647.654,-53.9312 642.891,-48.8021"/>
<text text-anchor="middle" x="713.5" y="-27" font-family="Helvetica,sans-Serif" font-size="10.00"> elements</text>
</g>
<!-- Node22 -->
<g id="node22" class="node"><title>Node22</title>
<g id="a_node22"><a xlink:href="classAudioSystem.html" target="_top" xlink:title="An AudioSystem represents the entire audio stack used by playd. ">
<polygon fill="white" stroke="black" points="783,-77.5 783,-96.5 860,-96.5 860,-77.5 783,-77.5"/>
<text text-anchor="middle" x="821.5" y="-84.5" font-family="Helvetica,sans-Serif" font-size="10.00">AudioSystem</text>
</a>
</g>
</g>
<!-- Node3&#45;&gt;Node22 -->
<g id="edge25" class="edge"><title>Node3&#45;&gt;Node22</title>
<path fill="none" stroke="#9a32cd" stroke-dasharray="5,2" d="M668.89,-71.997C702.55,-75.3279 750.131,-80.0364 782.969,-83.286"/>
<polygon fill="#9a32cd" stroke="#9a32cd" points="669.219,-68.5125 658.923,-71.0106 668.53,-75.4785 669.219,-68.5125"/>
<text text-anchor="middle" x="713.5" y="-82" font-family="Helvetica,sans-Serif" font-size="10.00"> device_id</text>
</g>
<!-- Node24 -->
<g id="node24" class="node"><title>Node24</title>
<polygon fill="white" stroke="#bfbfbf" points="767,-116 767,-146 876,-146 876,-116 767,-116"/>
<text text-anchor="start" x="775" y="-134" font-family="Helvetica,sans-Serif" font-size="10.00">std::map&lt; State, std</text>
<text text-anchor="middle" x="821.5" y="-123" font-family="Helvetica,sans-Serif" font-size="10.00">::string &gt;</text>
</g>
<!-- Node3&#45;&gt;Node24 -->
<g id="edge29" class="edge"><title>Node3&#45;&gt;Node24</title>
<path fill="none" stroke="#9a32cd" stroke-dasharray="5,2" d="M657.979,-81.8519C667.454,-86.0408 678.069,-90.4631 688,-94 713.537,-103.095 742.475,-111.398 766.778,-117.824"/>
<polygon fill="#9a32cd" stroke="#9a32cd" points="659.15,-78.5404 648.596,-77.618 656.271,-84.921 659.15,-78.5404"/>
<text text-anchor="middle" x="713.5" y="-114" font-family="Helvetica,sans-Serif" font-size="10.00"> elements</text>
</g>
<!-- Node4 -->
<g id="node4" class="node"><title>Node4</title>
<g id="a_node4"><a xlink:title="STL class. ">
<polygon fill="white" stroke="#bfbfbf" points="384,-53 384,-83 482,-83 482,-53 384,-53"/>
<text text-anchor="start" x="392" y="-71" font-family="Helvetica,sans-Serif" font-size="10.00">std::basic_string&lt;</text>
<text text-anchor="middle" x="433" y="-60" font-family="Helvetica,sans-Serif" font-size="10.00"> char &gt;</text>
</a>
</g>
</g>
<!-- Node4&#45;&gt;Node3 -->
<g id="edge3" class="edge"><title>Node4&#45;&gt;Node3</title>
<path fill="none" stroke="midnightblue" d="M492.457,-68C526.763,-68 568.683,-68 596.41,-68"/>
<polygon fill="midnightblue" stroke="midnightblue" points="492.079,-64.5001 482.079,-68 492.079,-71.5001 492.079,-64.5001"/>
</g>
<!-- Node5&#45;&gt;Node1 -->
<g id="edge4" class="edge"><title>Node5&#45;&gt;Node1</title>
<path fill="none" stroke="#9a32cd" stroke-dasharray="5,2" d="M1042.35,-10C1095.88,-10 1170.19,-10 1235.5,-10 1235.5,-10 1235.5,-10 1459,-10 1508.27,-10 1522.23,-14.4363 1567,-35 1581.58,-41.6969 1596.12,-53.1326 1605.53,-61.3189"/>
<polygon fill="#9a32cd" stroke="#9a32cd" points="1042.27,-6.5001 1032.27,-10 1042.27,-13.5001 1042.27,-6.5001"/>
<text text-anchor="middle" x="1314.5" y="-13" font-family="Helvetica,sans-Serif" font-size="10.00"> words</text>
</g>
<!-- Node6 -->
<g id="node6" class="node"><title>Node6</title>
<g id="a_node6"><a xlink:href="classCommandHandler.html" target="_top" xlink:title="The playd command handler. ">
<polygon fill="white" stroke="black" points="1407,-93.5 1407,-112.5 1509,-112.5 1509,-93.5 1407,-93.5"/>
<text text-anchor="middle" x="1458" y="-100.5" font-family="Helvetica,sans-Serif" font-size="10.00">CommandHandler</text>
</a>
</g>
</g>
<!-- Node6&#45;&gt;Node1 -->
<g id="edge6" class="edge"><title>Node6&#45;&gt;Node1</title>
<path fill="none" stroke="#9a32cd" stroke-dasharray="5,2" d="M1515.78,-91.4277C1538.99,-86.6957 1564.96,-81.4029 1584.65,-77.3907"/>
<polygon fill="#9a32cd" stroke="#9a32cd" points="1514.78,-88.0589 1505.68,-93.4856 1516.18,-94.9178 1514.78,-88.0589"/>
<text text-anchor="middle" x="1547" y="-92" font-family="Helvetica,sans-Serif" font-size="10.00"> handler</text>
</g>
<!-- Node7&#45;&gt;Node6 -->
<g id="edge7" class="edge"><title>Node7&#45;&gt;Node6</title>
<path fill="none" stroke="#9a32cd" stroke-dasharray="5,2" d="M1345.18,-155.157C1372.52,-142.402 1412.39,-123.807 1436.4,-112.609"/>
<polygon fill="#9a32cd" stroke="#9a32cd" points="1343.66,-152.004 1336.08,-159.403 1346.62,-158.348 1343.66,-152.004"/>
<text text-anchor="middle" x="1372.5" y="-153" font-family="Helvetica,sans-Serif" font-size="10.00"> player</text>
</g>
<!-- Node8 -->
<g id="node8" class="node"><title>Node8</title>
<g id="a_node8"><a xlink:href="classTimeParser.html" target="_top" xlink:title="TimeParser\&lt; std::chrono\l::microseconds \&gt;">
<polygon fill="white" stroke="black" points="1050,-217 1050,-247 1182,-247 1182,-217 1050,-217"/>
<text text-anchor="start" x="1058" y="-235" font-family="Helvetica,sans-Serif" font-size="10.00">TimeParser&lt; std::chrono</text>
<text text-anchor="middle" x="1116" y="-224" font-family="Helvetica,sans-Serif" font-size="10.00">::microseconds &gt;</text>
</a>
</g>
</g>
<!-- Node8&#45;&gt;Node7 -->
<g id="edge8" class="edge"><title>Node8&#45;&gt;Node7</title>
<path fill="none" stroke="#9a32cd" stroke-dasharray="5,2" d="M1192.19,-219.534C1218.38,-213.802 1247.56,-205.81 1273,-195 1283,-190.752 1293.28,-184.114 1300.99,-178.608"/>
<polygon fill="#9a32cd" stroke="#9a32cd" points="1191.37,-216.129 1182.31,-221.622 1192.82,-222.978 1191.37,-216.129"/>
<text text-anchor="middle" x="1236.5" y="-221" font-family="Helvetica,sans-Serif" font-size="10.00"> time_parser</text>
</g>
<!-- Node9 -->
<g id="node9" class="node"><title>Node9</title>
<g id="a_node9"><a xlink:href="classPlayerFile.html" target="_top" xlink:title="The subcomponent of a Player that stores the audio file. ">
<polygon fill="white" stroke="black" points="1084.5,-102.5 1084.5,-121.5 1147.5,-121.5 1147.5,-102.5 1084.5,-102.5"/>
<text text-anchor="middle" x="1116" y="-109.5" font-family="Helvetica,sans-Serif" font-size="10.00">PlayerFile</text>
</a>
</g>
</g>
<!-- Node9&#45;&gt;Node7 -->
<g id="edge10" class="edge"><title>Node9&#45;&gt;Node7</title>
<path fill="none" stroke="#9a32cd" stroke-dasharray="5,2" d="M1157.85,-111.066C1190.42,-111.803 1236.47,-116.236 1273,-133 1286.17,-139.042 1298.15,-150.843 1305.61,-159.287"/>
<polygon fill="#9a32cd" stroke="#9a32cd" points="1157.82,-107.565 1147.78,-110.945 1157.73,-114.565 1157.82,-107.565"/>
<text text-anchor="middle" x="1236.5" y="-136" font-family="Helvetica,sans-Serif" font-size="10.00"> file</text>
</g>
<!-- Node10&#45;&gt;Node9 -->
<g id="edge11" class="edge"><title>Node10&#45;&gt;Node9</title>
<path fill="none" stroke="midnightblue" d="M855.769,-206.705C870.42,-201.123 887.925,-194.823 904,-190 959.966,-173.21 984.539,-194.081 1032,-160 1044.32,-151.152 1037.92,-140.179 1050,-131 1059.92,-123.459 1072.77,-118.906 1084.42,-116.159"/>
<polygon fill="midnightblue" stroke="midnightblue" points="854.201,-203.559 846.134,-210.427 856.723,-210.088 854.201,-203.559"/>
</g>
<!-- Node23 -->
<g id="node23" class="node"><title>Node23</title>
<g id="a_node23"><a xlink:href="classPlayerState.html" target="_top" xlink:title="An object holding and representing the current state of a Player. ">
<polygon fill="white" stroke="black" points="1080.5,-140.5 1080.5,-159.5 1151.5,-159.5 1151.5,-140.5 1080.5,-140.5"/>
<text text-anchor="middle" x="1116" y="-147.5" font-family="Helvetica,sans-Serif" font-size="10.00">PlayerState</text>
</a>
</g>
</g>
<!-- Node10&#45;&gt;Node23 -->
<g id="edge27" class="edge"><title>Node10&#45;&gt;Node23</title>
<path fill="none" stroke="midnightblue" d="M881.144,-214.849C933.687,-209.5 1006.31,-200.075 1032,-187 1042.08,-181.868 1040.27,-174.767 1050,-169 1059.2,-163.546 1070.08,-159.569 1080.27,-156.708"/>
<polygon fill="midnightblue" stroke="midnightblue" points="880.527,-211.393 870.922,-215.864 881.22,-218.359 880.527,-211.393"/>
</g>
<!-- Node25 -->
<g id="node25" class="node"><title>Node25</title>
<g id="a_node25"><a xlink:href="classPlayerPosition.html" target="_top" xlink:title="Tracker and broadcaster for the Player&#39;s current position in a song. ">
<polygon fill="white" stroke="black" points="1074,-178.5 1074,-197.5 1158,-197.5 1158,-178.5 1074,-178.5"/>
<text text-anchor="middle" x="1116" y="-185.5" font-family="Helvetica,sans-Serif" font-size="10.00">PlayerPosition</text>
</a>
</g>
</g>
<!-- Node10&#45;&gt;Node25 -->
<g id="edge31" class="edge"><title>Node10&#45;&gt;Node25</title>
<path fill="none" stroke="midnightblue" d="M880.778,-221.552C923.021,-221.762 981.375,-220.161 1032,-212 1033.34,-211.784 1059.79,-204.113 1082.48,-197.501"/>
<polygon fill="midnightblue" stroke="midnightblue" points="880.7,-218.052 870.671,-221.466 880.64,-225.051 880.7,-218.052"/>
</g>
<!-- Node11 -->
<g id="node11" class="node"><title>Node11</title>
<polygon fill="white" stroke="#bfbfbf" points="757,-165.5 757,-184.5 886,-184.5 886,-165.5 757,-165.5"/>
<text text-anchor="middle" x="821.5" y="-172.5" font-family="Helvetica,sans-Serif" font-size="10.00">std::unique_ptr&lt; Audio &gt;</text>
</g>
<!-- Node11&#45;&gt;Node9 -->
<g id="edge13" class="edge"><title>Node11&#45;&gt;Node9</title>
<path fill="none" stroke="#9a32cd" stroke-dasharray="5,2" d="M877.197,-160.983C880.317,-159.219 883.284,-157.234 886,-155 898.903,-144.388 889.84,-130.866 904,-122 959.639,-87.1636 1040.63,-96.1546 1084.32,-104.715"/>
<polygon fill="#9a32cd" stroke="#9a32cd" points="875.558,-157.888 868.079,-165.393 878.606,-164.189 875.558,-157.888"/>
<text text-anchor="middle" x="968" y="-125" font-family="Helvetica,sans-Serif" font-size="10.00"> audio</text>
</g>
<!-- Node12 -->
<g id="node12" class="node"><title>Node12</title>
<g id="a_node12"><a xlink:href="classAudio.html" target="_top" xlink:title="An audio file. ">
<polygon fill="white" stroke="black" points="606,-165.5 606,-184.5 649,-184.5 649,-165.5 606,-165.5"/>
<text text-anchor="middle" x="627.5" y="-172.5" font-family="Helvetica,sans-Serif" font-size="10.00">Audio</text>
</a>
</g>
</g>
<!-- Node12&#45;&gt;Node11 -->
<g id="edge14" class="edge"><title>Node12&#45;&gt;Node11</title>
<path fill="none" stroke="#9a32cd" stroke-dasharray="5,2" d="M659.125,-175C685.325,-175 723.901,-175 756.767,-175"/>
<polygon fill="#9a32cd" stroke="#9a32cd" points="659.047,-171.5 649.047,-175 659.047,-178.5 659.047,-171.5"/>
<text text-anchor="middle" x="713.5" y="-178" font-family="Helvetica,sans-Serif" font-size="10.00"> ptr</text>
</g>
<!-- Node13 -->
<g id="node13" class="node"><title>Node13</title>
<polygon fill="white" stroke="#bfbfbf" points="358.5,-165.5 358.5,-184.5 507.5,-184.5 507.5,-165.5 358.5,-165.5"/>
<text text-anchor="middle" x="433" y="-172.5" font-family="Helvetica,sans-Serif" font-size="10.00">std::unique_ptr&lt; AudioSink &gt;</text>
</g>
<!-- Node13&#45;&gt;Node12 -->
<g id="edge15" class="edge"><title>Node13&#45;&gt;Node12</title>
<path fill="none" stroke="#9a32cd" stroke-dasharray="5,2" d="M517.607,-175C550.109,-175 584.569,-175 605.812,-175"/>
<polygon fill="#9a32cd" stroke="#9a32cd" points="517.6,-171.5 507.6,-175 517.6,-178.5 517.6,-171.5"/>
<text text-anchor="middle" x="549.5" y="-178" font-family="Helvetica,sans-Serif" font-size="10.00"> sink</text>
</g>
<!-- Node14 -->
<g id="node14" class="node"><title>Node14</title>
<g id="a_node14"><a xlink:href="classAudioSink.html" target="_top" xlink:title="An output stream for an Audio file. ">
<polygon fill="white" stroke="black" points="230.5,-189.5 230.5,-208.5 293.5,-208.5 293.5,-189.5 230.5,-189.5"/>
<text text-anchor="middle" x="262" y="-196.5" font-family="Helvetica,sans-Serif" font-size="10.00">AudioSink</text>
</a>
</g>
</g>
<!-- Node14&#45;&gt;Node13 -->
<g id="edge16" class="edge"><title>Node14&#45;&gt;Node13</title>
<path fill="none" stroke="#9a32cd" stroke-dasharray="5,2" d="M303.645,-193.228C321.988,-190.623 344.143,-187.477 364.847,-184.536"/>
<polygon fill="#9a32cd" stroke="#9a32cd" points="303.013,-189.782 293.605,-194.654 303.997,-196.713 303.013,-189.782"/>
<text text-anchor="middle" x="326" y="-194" font-family="Helvetica,sans-Serif" font-size="10.00"> ptr</text>
</g>
<!-- Node15 -->
<g id="node15" class="node"><title>Node15</title>
<polygon fill="white" stroke="#bfbfbf" points="0,-211.5 0,-230.5 147,-230.5 147,-211.5 0,-211.5"/>
<text text-anchor="middle" x="73.5" y="-218.5" font-family="Helvetica,sans-Serif" font-size="10.00">portaudio::CallbackInterface</text>
</g>
<!-- Node15&#45;&gt;Node14 -->
<g id="edge17" class="edge"><title>Node15&#45;&gt;Node14</title>
<path fill="none" stroke="#8b1a1a" d="M157.375,-211.224C183.267,-208.17 210.24,-204.988 230.174,-202.636"/>
<polygon fill="#8b1a1a" stroke="#8b1a1a" points="156.661,-207.784 147.14,-212.431 157.481,-214.736 156.661,-207.784"/>
</g>
<!-- Node16 -->
<g id="node16" class="node"><title>Node16</title>
<g id="a_node16"><a xlink:href="classRingBuffer.html" target="_top" xlink:title="RingBuffer\&lt; char, unsigned\l long \&gt;">
<polygon fill="white" stroke="black" points="1.5,-162 1.5,-192 145.5,-192 145.5,-162 1.5,-162"/>
<text text-anchor="start" x="9.5" y="-180" font-family="Helvetica,sans-Serif" font-size="10.00">RingBuffer&lt; char, unsigned</text>
<text text-anchor="middle" x="73.5" y="-169" font-family="Helvetica,sans-Serif" font-size="10.00"> long &gt;</text>
</a>
</g>
</g>
<!-- Node16&#45;&gt;Node14 -->
<g id="edge18" class="edge"><title>Node16&#45;&gt;Node14</title>
<path fill="none" stroke="#9a32cd" stroke-dasharray="5,2" d="M155.774,-185.16C172.403,-186.968 189.777,-188.957 206,-191 213.946,-192 222.521,-193.193 230.482,-194.348"/>
<polygon fill="#9a32cd" stroke="#9a32cd" points="155.851,-181.648 145.534,-184.058 155.102,-188.608 155.851,-181.648"/>
<text text-anchor="middle" x="185.5" y="-194" font-family="Helvetica,sans-Serif" font-size="10.00"> ring_buf</text>
</g>
<!-- Node17 -->
<g id="node17" class="node"><title>Node17</title>
<polygon fill="white" stroke="#bfbfbf" points="4.5,-250 4.5,-280 142.5,-280 142.5,-250 4.5,-250"/>
<text text-anchor="start" x="12.5" y="-268" font-family="Helvetica,sans-Serif" font-size="10.00">std::unique_ptr&lt; portaudio</text>
<text text-anchor="middle" x="73.5" y="-257" font-family="Helvetica,sans-Serif" font-size="10.00">::Stream &gt;</text>
</g>
<!-- Node17&#45;&gt;Node14 -->
<g id="edge19" class="edge"><title>Node17&#45;&gt;Node14</title>
<path fill="none" stroke="#9a32cd" stroke-dasharray="5,2" d="M133.108,-246.943C155.992,-239.605 182.361,-230.791 206,-222 217.059,-217.887 229.175,-212.876 239.214,-208.583"/>
<polygon fill="#9a32cd" stroke="#9a32cd" points="131.998,-243.624 123.533,-249.994 134.123,-250.293 131.998,-243.624"/>
<text text-anchor="middle" x="185.5" y="-239" font-family="Helvetica,sans-Serif" font-size="10.00"> stream</text>
</g>
<!-- Node18 -->
<g id="node18" class="node"><title>Node18</title>
<polygon fill="white" stroke="#bfbfbf" points="352,-124.5 352,-143.5 514,-143.5 514,-124.5 352,-124.5"/>
<text text-anchor="middle" x="433" y="-131.5" font-family="Helvetica,sans-Serif" font-size="10.00">std::unique_ptr&lt; AudioSource &gt;</text>
</g>
<!-- Node18&#45;&gt;Node12 -->
<g id="edge20" class="edge"><title>Node18&#45;&gt;Node12</title>
<path fill="none" stroke="#9a32cd" stroke-dasharray="5,2" d="M496.287,-145.457C518.642,-149.759 544.003,-154.857 567,-160 579.995,-162.906 594.486,-166.55 605.913,-169.519"/>
<polygon fill="#9a32cd" stroke="#9a32cd" points="496.726,-141.978 486.247,-143.539 495.412,-148.853 496.726,-141.978"/>
<text text-anchor="middle" x="549.5" y="-163" font-family="Helvetica,sans-Serif" font-size="10.00"> source</text>
</g>
<!-- Node19 -->
<g id="node19" class="node"><title>Node19</title>
<g id="a_node19"><a xlink:href="classAudioSource.html" target="_top" xlink:title="An object responsible for decoding an audio file. ">
<polygon fill="white" stroke="black" points="224,-123.5 224,-142.5 300,-142.5 300,-123.5 224,-123.5"/>
<text text-anchor="middle" x="262" y="-130.5" font-family="Helvetica,sans-Serif" font-size="10.00">AudioSource</text>
</a>
</g>
</g>
<!-- Node19&#45;&gt;Node18 -->
<g id="edge21" class="edge"><title>Node19&#45;&gt;Node18</title>
<path fill="none" stroke="#9a32cd" stroke-dasharray="5,2" d="M310.117,-133.279C323.053,-133.355 337.452,-133.441 351.692,-133.525"/>
<polygon fill="#9a32cd" stroke="#9a32cd" points="310.108,-129.779 300.088,-133.219 310.067,-136.779 310.108,-129.779"/>
<text text-anchor="middle" x="326" y="-137" font-family="Helvetica,sans-Serif" font-size="10.00"> ptr</text>
</g>
<!-- Node20 -->
<g id="node20" class="node"><title>Node20</title>
<polygon fill="white" stroke="#bfbfbf" points="16.5,-123.5 16.5,-142.5 130.5,-142.5 130.5,-123.5 16.5,-123.5"/>
<text text-anchor="middle" x="73.5" y="-130.5" font-family="Helvetica,sans-Serif" font-size="10.00">std::vector&lt; uint8_t &gt;</text>
</g>
<!-- Node20&#45;&gt;Node19 -->
<g id="edge22" class="edge"><title>Node20&#45;&gt;Node19</title>
<path fill="none" stroke="#9a32cd" stroke-dasharray="5,2" d="M140.799,-133C168.672,-133 200.061,-133 223.771,-133"/>
<polygon fill="#9a32cd" stroke="#9a32cd" points="140.709,-129.5 130.709,-133 140.709,-136.5 140.709,-129.5"/>
<text text-anchor="middle" x="185.5" y="-136" font-family="Helvetica,sans-Serif" font-size="10.00"> buffer</text>
</g>
<!-- Node21 -->
<g id="node21" class="node"><title>Node21</title>
<polygon fill="white" stroke="#bfbfbf" points="366.5,-203.5 366.5,-222.5 499.5,-222.5 499.5,-203.5 366.5,-203.5"/>
<text text-anchor="middle" x="433" y="-210.5" font-family="Helvetica,sans-Serif" font-size="10.00">std::vector&lt; std::uint8_t &gt;</text>
</g>
<!-- Node21&#45;&gt;Node12 -->
<g id="edge23" class="edge"><title>Node21&#45;&gt;Node12</title>
<path fill="none" stroke="#9a32cd" stroke-dasharray="5,2" d="M504.812,-201.778C524.966,-198.307 546.9,-194.265 567,-190 580.026,-187.236 594.517,-183.595 605.937,-180.592"/>
<polygon fill="#9a32cd" stroke="#9a32cd" points="504.038,-198.359 494.767,-203.487 505.212,-205.26 504.038,-198.359"/>
<text text-anchor="middle" x="549.5" y="-200" font-family="Helvetica,sans-Serif" font-size="10.00"> frame</text>
</g>
<!-- Node22&#45;&gt;Node9 -->
<g id="edge24" class="edge"><title>Node22&#45;&gt;Node9</title>
<path fill="none" stroke="#9a32cd" stroke-dasharray="5,2" d="M870.392,-81.0483C913.101,-76.9322 977.164,-73.696 1032,-83 1053.82,-86.7023 1077.55,-95.5143 1094.03,-102.46"/>
<polygon fill="#9a32cd" stroke="#9a32cd" points="869.874,-77.5828 860.28,-82.0779 870.583,-84.5468 869.874,-77.5828"/>
<text text-anchor="middle" x="968" y="-86" font-family="Helvetica,sans-Serif" font-size="10.00"> audio_system</text>
</g>
<!-- Node23&#45;&gt;Node7 -->
<g id="edge26" class="edge"><title>Node23&#45;&gt;Node7</title>
<path fill="none" stroke="#9a32cd" stroke-dasharray="5,2" d="M1161.93,-147.278C1193.33,-146.316 1236.07,-146.891 1273,-154 1279.18,-155.191 1285.67,-157.215 1291.6,-159.397"/>
<polygon fill="#9a32cd" stroke="#9a32cd" points="1161.6,-143.788 1151.74,-147.656 1161.86,-150.783 1161.6,-143.788"/>
<text text-anchor="middle" x="1236.5" y="-157" font-family="Helvetica,sans-Serif" font-size="10.00"> state</text>
</g>
<!-- Node24&#45;&gt;Node23 -->
<g id="edge28" class="edge"><title>Node24&#45;&gt;Node23</title>
<path fill="none" stroke="#9a32cd" stroke-dasharray="5,2" d="M886.216,-135.139C945.873,-139.014 1032.77,-144.658 1080.46,-147.757"/>
<polygon fill="#9a32cd" stroke="#9a32cd" points="886.355,-131.641 876.149,-134.485 885.901,-138.626 886.355,-131.641"/>
<text text-anchor="middle" x="968" y="-148" font-family="Helvetica,sans-Serif" font-size="10.00"> STRINGS</text>
</g>
<!-- Node25&#45;&gt;Node7 -->
<g id="edge30" class="edge"><title>Node25&#45;&gt;Node7</title>
<path fill="none" stroke="#9a32cd" stroke-dasharray="5,2" d="M1168.22,-183.047C1207.9,-179.211 1260.95,-174.081 1290.74,-171.201"/>
<polygon fill="#9a32cd" stroke="#9a32cd" points="1167.81,-179.571 1158.19,-184.017 1168.48,-186.538 1167.81,-179.571"/>
<text text-anchor="middle" x="1236.5" y="-183" font-family="Helvetica,sans-Serif" font-size="10.00"> position</text>
</g>
</g>
</svg>
