<?xml version="1.0" encoding="UTF-8" standalone="no"?>
<!DOCTYPE svg PUBLIC "-//W3C//DTD SVG 1.1//EN"
 "http://www.w3.org/Graphics/SVG/1.1/DTD/svg11.dtd">
<!-- Generated by graphviz version 2.38.0 (20140413.2041)
 -->
<!-- Title: PlayerFile Pages: 1 -->
<svg width="1061pt" height="252pt"
 viewBox="0.00 0.00 1061.00 251.50" xmlns="http://www.w3.org/2000/svg" xmlns:xlink="http://www.w3.org/1999/xlink">
<g id="graph0" class="graph" transform="scale(1 1) rotate(0) translate(4 247.5)">
<title>PlayerFile</title>
<polygon fill="white" stroke="none" points="-4,4 -4,-247.5 1057,-247.5 1057,4 -4,4"/>
<!-- Node1 -->
<g id="node1" class="node"><title>Node1</title>
<polygon fill="#bfbfbf" stroke="black" points="990,-67 990,-86 1053,-86 1053,-67 990,-67"/>
<text text-anchor="middle" x="1021.5" y="-74" font-family="Helvetica,sans-Serif" font-size="10.00">PlayerFile</text>
</g>
<!-- Node2 -->
<g id="node2" class="node"><title>Node2</title>
<g id="a_node2"><a xlink:href="classResponseSource.html" target="_top" xlink:title="Abstract helper class for sources of responses. ">
<polygon fill="white" stroke="black" points="772.5,-105 772.5,-124 870.5,-124 870.5,-105 772.5,-105"/>
<text text-anchor="middle" x="821.5" y="-112" font-family="Helvetica,sans-Serif" font-size="10.00">ResponseSource</text>
</a>
</g>
</g>
<!-- Node2&#45;&gt;Node1 -->
<g id="edge1" class="edge"><title>Node2&#45;&gt;Node1</title>
<path fill="none" stroke="midnightblue" d="M880.615,-107.586C908.448,-103.76 942.143,-98.3744 972,-91.5 978.613,-89.9773 985.636,-88.0136 992.224,-86.0118"/>
<polygon fill="midnightblue" stroke="midnightblue" points="880.09,-104.125 870.644,-108.925 881.021,-111.063 880.09,-104.125"/>
</g>
<!-- Node3 -->
<g id="node3" class="node"><title>Node3</title>
<g id="a_node3"><a xlink:href="classResponseSink.html" target="_top" xlink:title="Abstract class for anything that can be sent a response. ">
<polygon fill="white" stroke="black" points="585,-105 585,-124 670,-124 670,-105 585,-105"/>
<text text-anchor="middle" x="627.5" y="-112" font-family="Helvetica,sans-Serif" font-size="10.00">ResponseSink</text>
</a>
</g>
</g>
<!-- Node3&#45;&gt;Node2 -->
<g id="edge2" class="edge"><title>Node3&#45;&gt;Node2</title>
<path fill="none" stroke="#9a32cd" stroke-dasharray="5,2" d="M680.396,-114.5C709.072,-114.5 744.456,-114.5 772.49,-114.5"/>
<polygon fill="#9a32cd" stroke="#9a32cd" points="680.161,-111 670.161,-114.5 680.161,-118 680.161,-111"/>
<text text-anchor="middle" x="713.5" y="-117.5" font-family="Helvetica,sans-Serif" font-size="10.00"> push_sink</text>
</g>
<!-- Node4 -->
<g id="node4" class="node"><title>Node4</title>
<polygon fill="white" stroke="#bfbfbf" points="757,-67 757,-86 886,-86 886,-67 757,-67"/>
<text text-anchor="middle" x="821.5" y="-74" font-family="Helvetica,sans-Serif" font-size="10.00">std::unique_ptr&lt; Audio &gt;</text>
</g>
<!-- Node4&#45;&gt;Node1 -->
<g id="edge3" class="edge"><title>Node4&#45;&gt;Node1</title>
<path fill="none" stroke="#9a32cd" stroke-dasharray="5,2" d="M896.577,-76.5C928.891,-76.5 964.993,-76.5 989.856,-76.5"/>
<polygon fill="#9a32cd" stroke="#9a32cd" points="896.238,-73.0001 886.238,-76.5 896.238,-80.0001 896.238,-73.0001"/>
<text text-anchor="middle" x="938" y="-79.5" font-family="Helvetica,sans-Serif" font-size="10.00"> audio</text>
</g>
<!-- Node5 -->
<g id="node5" class="node"><title>Node5</title>
<g id="a_node5"><a xlink:href="classAudio.html" target="_top" xlink:title="An audio file. ">
<polygon fill="white" stroke="black" points="606,-67 606,-86 649,-86 649,-67 606,-67"/>
<text text-anchor="middle" x="627.5" y="-74" font-family="Helvetica,sans-Serif" font-size="10.00">Audio</text>
</a>
</g>
</g>
<!-- Node5&#45;&gt;Node4 -->
<g id="edge4" class="edge"><title>Node5&#45;&gt;Node4</title>
<path fill="none" stroke="#9a32cd" stroke-dasharray="5,2" d="M659.125,-76.5C685.325,-76.5 723.901,-76.5 756.767,-76.5"/>
<polygon fill="#9a32cd" stroke="#9a32cd" points="659.047,-73.0001 649.047,-76.5 659.047,-80.0001 659.047,-73.0001"/>
<text text-anchor="middle" x="713.5" y="-79.5" font-family="Helvetica,sans-Serif" font-size="10.00"> ptr</text>
</g>
<!-- Node6 -->
<g id="node6" class="node"><title>Node6</title>
<polygon fill="white" stroke="#bfbfbf" points="358.5,-129 358.5,-148 507.5,-148 507.5,-129 358.5,-129"/>
<text text-anchor="middle" x="433" y="-136" font-family="Helvetica,sans-Serif" font-size="10.00">std::unique_ptr&lt; AudioSink &gt;</text>
</g>
<!-- Node6&#45;&gt;Node5 -->
<g id="edge5" class="edge"><title>Node6&#45;&gt;Node5</title>
<path fill="none" stroke="#9a32cd" stroke-dasharray="5,2" d="M483.149,-126.47C508.448,-119.865 539.641,-111.079 567,-101.5 580.113,-96.9087 594.483,-90.8997 605.815,-85.9237"/>
<polygon fill="#9a32cd" stroke="#9a32cd" points="482.218,-123.096 473.409,-128.982 483.966,-129.874 482.218,-123.096"/>
<text text-anchor="middle" x="549.5" y="-115.5" font-family="Helvetica,sans-Serif" font-size="10.00"> sink</text>
</g>
<!-- Node7 -->
<g id="node7" class="node"><title>Node7</title>
<g id="a_node7"><a xlink:href="classAudioSink.html" target="_top" xlink:title="An output stream for an Audio file. ">
<polygon fill="white" stroke="black" points="230.5,-155 230.5,-174 293.5,-174 293.5,-155 230.5,-155"/>
<text text-anchor="middle" x="262" y="-162" font-family="Helvetica,sans-Serif" font-size="10.00">AudioSink</text>
</a>
</g>
</g>
<!-- Node7&#45;&gt;Node6 -->
<g id="edge6" class="edge"><title>Node7&#45;&gt;Node6</title>
<path fill="none" stroke="#9a32cd" stroke-dasharray="5,2" d="M303.576,-158.258C323.498,-155.193 347.932,-151.434 370.12,-148.02"/>
<polygon fill="#9a32cd" stroke="#9a32cd" points="302.956,-154.812 293.605,-159.792 304.021,-161.73 302.956,-154.812"/>
<text text-anchor="middle" x="326" y="-158.5" font-family="Helvetica,sans-Serif" font-size="10.00"> ptr</text>
</g>
<!-- Node8 -->
<g id="node8" class="node"><title>Node8</title>
<polygon fill="white" stroke="#bfbfbf" points="0,-224 0,-243 147,-243 147,-224 0,-224"/>
<text text-anchor="middle" x="73.5" y="-231" font-family="Helvetica,sans-Serif" font-size="10.00">portaudio::CallbackInterface</text>
</g>
<!-- Node8&#45;&gt;Node7 -->
<g id="edge7" class="edge"><title>Node8&#45;&gt;Node7</title>
<path fill="none" stroke="#8b1a1a" d="M123.648,-221.336C131.496,-219.188 139.499,-216.875 147,-214.5 173.681,-206.053 180.377,-203.756 206,-192.5 218.753,-186.898 232.737,-179.765 243.413,-174.101"/>
<polygon fill="#8b1a1a" stroke="#8b1a1a" points="122.594,-217.995 113.838,-223.96 124.403,-224.757 122.594,-217.995"/>
</g>
<!-- Node9 -->
<g id="node9" class="node"><title>Node9</title>
<g id="a_node9"><a xlink:href="classRingBuffer.html" target="_top" xlink:title="RingBuffer\&lt; char, unsigned\l long \&gt;">
<polygon fill="white" stroke="black" points="1.5,-174.5 1.5,-204.5 145.5,-204.5 145.5,-174.5 1.5,-174.5"/>
<text text-anchor="start" x="9.5" y="-192.5" font-family="Helvetica,sans-Serif" font-size="10.00">RingBuffer&lt; char, unsigned</text>
<text text-anchor="middle" x="73.5" y="-181.5" font-family="Helvetica,sans-Serif" font-size="10.00"> long &gt;</text>
</a>
</g>
</g>
<!-- Node9&#45;&gt;Node7 -->
<g id="edge8" class="edge"><title>Node9&#45;&gt;Node7</title>
<path fill="none" stroke="#9a32cd" stroke-dasharray="5,2" d="M155.576,-178.632C181.979,-175.093 209.706,-171.376 230.095,-168.643"/>
<polygon fill="#9a32cd" stroke="#9a32cd" points="154.986,-175.18 145.54,-179.977 155.916,-182.118 154.986,-175.18"/>
<text text-anchor="middle" x="185.5" y="-180.5" font-family="Helvetica,sans-Serif" font-size="10.00"> ring_buf</text>
</g>
<!-- Node10 -->
<g id="node10" class="node"><title>Node10</title>
<polygon fill="white" stroke="#bfbfbf" points="4.5,-125.5 4.5,-155.5 142.5,-155.5 142.5,-125.5 4.5,-125.5"/>
<text text-anchor="start" x="12.5" y="-143.5" font-family="Helvetica,sans-Serif" font-size="10.00">std::unique_ptr&lt; portaudio</text>
<text text-anchor="middle" x="73.5" y="-132.5" font-family="Helvetica,sans-Serif" font-size="10.00">::Stream &gt;</text>
</g>
<!-- Node10&#45;&gt;Node7 -->
<g id="edge9" class="edge"><title>Node10&#45;&gt;Node7</title>
<path fill="none" stroke="#9a32cd" stroke-dasharray="5,2" d="M152.95,-149.741C170.422,-151.884 188.85,-154.21 206,-156.5 213.938,-157.56 222.511,-158.774 230.471,-159.93"/>
<polygon fill="#9a32cd" stroke="#9a32cd" points="153.14,-146.238 142.79,-148.502 152.292,-153.187 153.14,-146.238"/>
<text text-anchor="middle" x="185.5" y="-159.5" font-family="Helvetica,sans-Serif" font-size="10.00"> stream</text>
</g>
<!-- Node11 -->
<g id="node11" class="node"><title>Node11</title>
<polygon fill="white" stroke="#bfbfbf" points="352,-88 352,-107 514,-107 514,-88 352,-88"/>
<text text-anchor="middle" x="433" y="-95" font-family="Helvetica,sans-Serif" font-size="10.00">std::unique_ptr&lt; AudioSource &gt;</text>
</g>
<!-- Node11&#45;&gt;Node5 -->
<g id="edge10" class="edge"><title>Node11&#45;&gt;Node5</title>
<path fill="none" stroke="#9a32cd" stroke-dasharray="5,2" d="M524.492,-87.6281C554.851,-84.3163 585.976,-80.9208 605.729,-78.7659"/>
<polygon fill="#9a32cd" stroke="#9a32cd" points="523.805,-84.1823 514.243,-88.7462 524.564,-91.141 523.805,-84.1823"/>
<text text-anchor="middle" x="549.5" y="-89.5" font-family="Helvetica,sans-Serif" font-size="10.00"> source</text>
</g>
<!-- Node12 -->
<g id="node12" class="node"><title>Node12</title>
<g id="a_node12"><a xlink:href="classAudioSource.html" target="_top" xlink:title="An object responsible for decoding an audio file. ">
<polygon fill="white" stroke="black" points="224,-87 224,-106 300,-106 300,-87 224,-87"/>
<text text-anchor="middle" x="262" y="-94" font-family="Helvetica,sans-Serif" font-size="10.00">AudioSource</text>
</a>
</g>
</g>
<!-- Node12&#45;&gt;Node11 -->
<g id="edge11" class="edge"><title>Node12&#45;&gt;Node11</title>
<path fill="none" stroke="#9a32cd" stroke-dasharray="5,2" d="M310.117,-96.7788C323.053,-96.8553 337.452,-96.9405 351.692,-97.0248"/>
<polygon fill="#9a32cd" stroke="#9a32cd" points="310.108,-93.2788 300.088,-96.7195 310.067,-100.279 310.108,-93.2788"/>
<text text-anchor="middle" x="326" y="-100.5" font-family="Helvetica,sans-Serif" font-size="10.00"> ptr</text>
</g>
<!-- Node13 -->
<g id="node13" class="node"><title>Node13</title>
<polygon fill="white" stroke="#bfbfbf" points="16.5,-87 16.5,-106 130.5,-106 130.5,-87 16.5,-87"/>
<text text-anchor="middle" x="73.5" y="-94" font-family="Helvetica,sans-Serif" font-size="10.00">std::vector&lt; uint8_t &gt;</text>
</g>
<!-- Node13&#45;&gt;Node12 -->
<g id="edge12" class="edge"><title>Node13&#45;&gt;Node12</title>
<path fill="none" stroke="#9a32cd" stroke-dasharray="5,2" d="M140.799,-96.5C168.672,-96.5 200.061,-96.5 223.771,-96.5"/>
<polygon fill="#9a32cd" stroke="#9a32cd" points="140.709,-93.0001 130.709,-96.5 140.709,-100 140.709,-93.0001"/>
<text text-anchor="middle" x="185.5" y="-99.5" font-family="Helvetica,sans-Serif" font-size="10.00"> buffer</text>
</g>
<!-- Node14 -->
<g id="node14" class="node"><title>Node14</title>
<polygon fill="white" stroke="#bfbfbf" points="366.5,-50 366.5,-69 499.5,-69 499.5,-50 366.5,-50"/>
<text text-anchor="middle" x="433" y="-57" font-family="Helvetica,sans-Serif" font-size="10.00">std::vector&lt; std::uint8_t &gt;</text>
</g>
<!-- Node14&#45;&gt;Node5 -->
<g id="edge13" class="edge"><title>Node14&#45;&gt;Node5</title>
<path fill="none" stroke="#9a32cd" stroke-dasharray="5,2" d="M510.054,-58.4875C528.732,-58.9891 548.636,-60.1584 567,-62.5 580.053,-64.1644 594.421,-67.501 605.767,-70.4995"/>
<polygon fill="#9a32cd" stroke="#9a32cd" points="509.892,-54.9834 499.821,-58.2743 509.746,-61.9819 509.892,-54.9834"/>
<text text-anchor="middle" x="549.5" y="-65.5" font-family="Helvetica,sans-Serif" font-size="10.00"> frame</text>
</g>
<!-- Node15 -->
<g id="node15" class="node"><title>Node15</title>
<g id="a_node15"><a xlink:href="classAudioSystem.html" target="_top" xlink:title="An AudioSystem represents the entire audio stack used by playd. ">
<polygon fill="white" stroke="black" points="783,-26 783,-45 860,-45 860,-26 783,-26"/>
<text text-anchor="middle" x="821.5" y="-33" font-family="Helvetica,sans-Serif" font-size="10.00">AudioSystem</text>
</a>
</g>
</g>
<!-- Node15&#45;&gt;Node1 -->
<g id="edge14" class="edge"><title>Node15&#45;&gt;Node1</title>
<path fill="none" stroke="#9a32cd" stroke-dasharray="5,2" d="M870.288,-42.2183C899.794,-46.7592 938.319,-53.3979 972,-61.5 978.427,-63.046 985.251,-64.9736 991.688,-66.9265"/>
<polygon fill="#9a32cd" stroke="#9a32cd" points="870.662,-38.7351 860.251,-40.7007 869.615,-45.6564 870.662,-38.7351"/>
<text text-anchor="middle" x="938" y="-64.5" font-family="Helvetica,sans-Serif" font-size="10.00"> audio_system</text>
</g>
<!-- Node16 -->
<g id="node16" class="node"><title>Node16</title>
<g id="a_node16"><a xlink:title="STL class. ">
<polygon fill="white" stroke="#bfbfbf" points="596.5,-18 596.5,-37 658.5,-37 658.5,-18 596.5,-18"/>
<text text-anchor="middle" x="627.5" y="-25" font-family="Helvetica,sans-Serif" font-size="10.00">std::string</text>
</a>
</g>
</g>
<!-- Node16&#45;&gt;Node15 -->
<g id="edge15" class="edge"><title>Node16&#45;&gt;Node15</title>
<path fill="none" stroke="#9a32cd" stroke-dasharray="5,2" d="M669.327,-29.2011C702.96,-30.6025 750.273,-32.5739 782.969,-33.9362"/>
<polygon fill="#9a32cd" stroke="#9a32cd" points="669.06,-25.6871 658.923,-28.7676 668.769,-32.681 669.06,-25.6871"/>
<text text-anchor="middle" x="713.5" y="-35.5" font-family="Helvetica,sans-Serif" font-size="10.00"> device_id</text>
</g>
<!-- Node17 -->
<g id="node17" class="node"><title>Node17</title>
<g id="a_node17"><a xlink:title="STL class. ">
<polygon fill="white" stroke="#bfbfbf" points="384,-0.5 384,-30.5 482,-30.5 482,-0.5 384,-0.5"/>
<text text-anchor="start" x="392" y="-18.5" font-family="Helvetica,sans-Serif" font-size="10.00">std::basic_string&lt;</text>
<text text-anchor="middle" x="433" y="-7.5" font-family="Helvetica,sans-Serif" font-size="10.00"> char &gt;</text>
</a>
</g>
</g>
<!-- Node17&#45;&gt;Node16 -->
<g id="edge16" class="edge"><title>Node17&#45;&gt;Node16</title>
<path fill="none" stroke="midnightblue" d="M492.457,-19.1441C526.763,-21.2826 568.683,-23.8958 596.41,-25.6243"/>
<polygon fill="midnightblue" stroke="midnightblue" points="492.278,-15.6262 482.079,-18.4972 491.842,-22.6126 492.278,-15.6262"/>
</g>
</g>
</svg>
