<?xml version="1.0" encoding="UTF-8" standalone="no"?>
<!DOCTYPE svg PUBLIC "-//W3C//DTD SVG 1.1//EN"
 "http://www.w3.org/Graphics/SVG/1.1/DTD/svg11.dtd">
<!-- Generated by graphviz version 2.38.0 (20140413.2041)
 -->
<!-- Title: src/errors.cpp Pages: 1 -->
<svg width="138pt" height="140pt"
 viewBox="0.00 0.00 137.50 140.00" xmlns="http://www.w3.org/2000/svg" xmlns:xlink="http://www.w3.org/1999/xlink">
<g id="graph0" class="graph" transform="scale(1 1) rotate(0) translate(4 136)">
<title>src/errors.cpp</title>
<polygon fill="white" stroke="none" points="-4,4 -4,-136 133.5,-136 133.5,4 -4,4"/>
<!-- Node1 -->
<g id="node1" class="node"><title>Node1</title>
<polygon fill="#bfbfbf" stroke="black" points="24.5,-112.5 24.5,-131.5 106.5,-131.5 106.5,-112.5 24.5,-112.5"/>
<text text-anchor="middle" x="65.5" y="-119.5" font-family="Helvetica,sans-Serif" font-size="10.00">src/errors.cpp</text>
</g>
<!-- Node2 -->
<g id="node2" class="node"><title>Node2</title>
<g id="a_node2"><a xlink:href="errors_8hpp.html" target="_top" xlink:title="Declarations of the playd Error exception set. ">
<polygon fill="white" stroke="black" points="33,-56.5 33,-75.5 98,-75.5 98,-56.5 33,-56.5"/>
<text text-anchor="middle" x="65.5" y="-63.5" font-family="Helvetica,sans-Serif" font-size="10.00">errors.hpp</text>
</a>
</g>
</g>
<!-- Node1&#45;&gt;Node2 -->
<g id="edge1" class="edge"><title>Node1&#45;&gt;Node2</title>
<path fill="none" stroke="midnightblue" d="M65.5,-112.083C65.5,-105.006 65.5,-94.8611 65.5,-85.9865"/>
<polygon fill="midnightblue" stroke="midnightblue" points="69.0001,-85.751 65.5,-75.7511 62.0001,-85.7511 69.0001,-85.751"/>
</g>
<!-- Node3 -->
<g id="node3" class="node"><title>Node3</title>
<polygon fill="white" stroke="#bfbfbf" points="0,-0.5 0,-19.5 57,-19.5 57,-0.5 0,-0.5"/>
<text text-anchor="middle" x="28.5" y="-7.5" font-family="Helvetica,sans-Serif" font-size="10.00">iostream</text>
</g>
<!-- Node2&#45;&gt;Node3 -->
<g id="edge2" class="edge"><title>Node2&#45;&gt;Node3</title>
<path fill="none" stroke="midnightblue" d="M59.3902,-56.083C54.2178,-48.5341 46.6539,-37.4948 40.3056,-28.2298"/>
<polygon fill="midnightblue" stroke="midnightblue" points="43.0357,-26.0221 34.4961,-19.7511 37.2612,-29.9787 43.0357,-26.0221"/>
</g>
<!-- Node4 -->
<g id="node4" class="node"><title>Node4</title>
<polygon fill="white" stroke="#bfbfbf" points="75.5,-0.5 75.5,-19.5 129.5,-19.5 129.5,-0.5 75.5,-0.5"/>
<text text-anchor="middle" x="102.5" y="-7.5" font-family="Helvetica,sans-Serif" font-size="10.00">sstream</text>
</g>
<!-- Node2&#45;&gt;Node4 -->
<g id="edge3" class="edge"><title>Node2&#45;&gt;Node4</title>
<path fill="none" stroke="midnightblue" d="M71.6098,-56.083C76.7822,-48.5341 84.3461,-37.4948 90.6944,-28.2298"/>
<polygon fill="midnightblue" stroke="midnightblue" points="93.7388,-29.9787 96.5039,-19.7511 87.9643,-26.0221 93.7388,-29.9787"/>
</g>
</g>
</svg>
