<?xml version="1.0" encoding="UTF-8" standalone="no"?>
<!DOCTYPE svg PUBLIC "-//W3C//DTD SVG 1.1//EN"
 "http://www.w3.org/Graphics/SVG/1.1/DTD/svg11.dtd">
<!-- Generated by graphviz version 2.38.0 (20140413.2041)
 -->
<!-- Title: src/errors.hpp Pages: 1 -->
<svg width="1690pt" height="588pt"
 viewBox="0.00 0.00 1690.00 588.00" xmlns="http://www.w3.org/2000/svg" xmlns:xlink="http://www.w3.org/1999/xlink">
<g id="graph0" class="graph" transform="scale(1 1) rotate(0) translate(4 584)">
<title>src/errors.hpp</title>
<polygon fill="white" stroke="none" points="-4,4 -4,-584 1686,-584 1686,4 -4,4"/>
<!-- Node1 -->
<g id="node1" class="node"><title>Node1</title>
<polygon fill="#bfbfbf" stroke="black" points="625.5,-560.5 625.5,-579.5 708.5,-579.5 708.5,-560.5 625.5,-560.5"/>
<text text-anchor="middle" x="667" y="-567.5" font-family="Helvetica,sans-Serif" font-size="10.00">src/errors.hpp</text>
</g>
<!-- Node2 -->
<g id="node2" class="node"><title>Node2</title>
<g id="a_node2"><a xlink:href="audio_8cpp.html" target="_top" xlink:title="Implementation of the Audio class. ">
<polygon fill="white" stroke="black" points="104.5,-392.5 104.5,-411.5 211.5,-411.5 211.5,-392.5 104.5,-392.5"/>
<text text-anchor="middle" x="158" y="-399.5" font-family="Helvetica,sans-Serif" font-size="10.00">src/audio/audio.cpp</text>
</a>
</g>
</g>
<!-- Node1&#45;&gt;Node2 -->
<g id="edge1" class="edge"><title>Node1&#45;&gt;Node2</title>
<path fill="none" stroke="midnightblue" d="M615.349,-566.863C517.183,-562.26 307.45,-549.684 240,-524 200.118,-508.813 182.639,-505.353 162,-468 152.048,-449.989 154.225,-424.735 156.315,-411.639"/>
<polygon fill="midnightblue" stroke="midnightblue" points="615.191,-570.359 625.341,-567.322 615.512,-563.366 615.191,-570.359"/>
</g>
<!-- Node3 -->
<g id="node3" class="node"><title>Node3</title>
<g id="a_node3"><a xlink:href="audio__source_8hpp.html" target="_top" xlink:title="Declaration of the AudioSource class. ">
<polygon fill="white" stroke="black" points="249,-504.5 249,-523.5 395,-523.5 395,-504.5 249,-504.5"/>
<text text-anchor="middle" x="322" y="-511.5" font-family="Helvetica,sans-Serif" font-size="10.00">src/audio/audio_source.hpp</text>
</a>
</g>
</g>
<!-- Node1&#45;&gt;Node3 -->
<g id="edge2" class="edge"><title>Node1&#45;&gt;Node3</title>
<path fill="none" stroke="midnightblue" d="M615.484,-560.937C551.299,-550.89 442.105,-533.799 376.542,-523.537"/>
<polygon fill="midnightblue" stroke="midnightblue" points="614.964,-564.398 625.385,-562.486 616.046,-557.482 614.964,-564.398"/>
</g>
<!-- Node5 -->
<g id="node5" class="node"><title>Node5</title>
<g id="a_node5"><a xlink:href="audio__system_8cpp.html" target="_top" xlink:title="Implementation of the AudioSystem class. ">
<polygon fill="white" stroke="black" points="306,-336.5 306,-355.5 452,-355.5 452,-336.5 306,-336.5"/>
<text text-anchor="middle" x="379" y="-343.5" font-family="Helvetica,sans-Serif" font-size="10.00">src/audio/audio_system.cpp</text>
</a>
</g>
</g>
<!-- Node1&#45;&gt;Node5 -->
<g id="edge51" class="edge"><title>Node1&#45;&gt;Node5</title>
<path fill="none" stroke="midnightblue" d="M685.69,-553.372C694.044,-545.411 703.277,-535.081 709,-524 736.327,-471.089 771.356,-436.692 732,-392 722.839,-381.597 552.975,-363.659 452.273,-353.867"/>
<polygon fill="midnightblue" stroke="midnightblue" points="683.173,-550.928 678.093,-560.225 687.862,-556.125 683.173,-550.928"/>
</g>
<!-- Node10 -->
<g id="node10" class="node"><title>Node10</title>
<g id="a_node10"><a xlink:href="cmd_8cpp.html" target="_top" xlink:title="Implementation of the CommandHandler class. ">
<polygon fill="white" stroke="black" points="362.5,-168.5 362.5,-187.5 435.5,-187.5 435.5,-168.5 362.5,-168.5"/>
<text text-anchor="middle" x="399" y="-175.5" font-family="Helvetica,sans-Serif" font-size="10.00">src/cmd.cpp</text>
</a>
</g>
</g>
<!-- Node1&#45;&gt;Node10 -->
<g id="edge72" class="edge"><title>Node1&#45;&gt;Node10</title>
<path fill="none" stroke="midnightblue" d="M614.811,-567.348C476.607,-562.664 108.313,-548.053 59,-524 23.934,-506.896 0,-498.015 0,-459 0,-459 0,-459 0,-345 0,-266.972 263.402,-206.154 362.178,-186.09"/>
<polygon fill="midnightblue" stroke="midnightblue" points="615.023,-570.857 625.135,-567.694 615.258,-563.861 615.023,-570.857"/>
</g>
<!-- Node11 -->
<g id="node11" class="node"><title>Node11</title>
<g id="a_node11"><a xlink:href="io__reactor_8cpp.html" target="_top" xlink:title="Implementation of the non&#45;virtual aspects of the IoReactor class. ">
<polygon fill="white" stroke="black" points="1177.5,-56.5 1177.5,-75.5 1290.5,-75.5 1290.5,-56.5 1177.5,-56.5"/>
<text text-anchor="middle" x="1234" y="-63.5" font-family="Helvetica,sans-Serif" font-size="10.00">src/io/io_reactor.cpp</text>
</a>
</g>
</g>
<!-- Node1&#45;&gt;Node11 -->
<g id="edge74" class="edge"><title>Node1&#45;&gt;Node11</title>
<path fill="none" stroke="midnightblue" d="M718.648,-568.194C910.613,-564.524 1572,-545.595 1572,-459 1572,-459 1572,-459 1572,-401 1572,-236.566 1476.2,-205.592 1341,-112 1316.81,-95.2533 1285.41,-82.9718 1262.89,-75.5093"/>
<polygon fill="midnightblue" stroke="midnightblue" points="718.469,-564.696 708.536,-568.381 718.599,-571.695 718.469,-564.696"/>
</g>
<!-- Node17 -->
<g id="node17" class="node"><title>Node17</title>
<g id="a_node17"><a xlink:href="player_8cpp.html" target="_top" xlink:title="Main implementation file for the Player class. ">
<polygon fill="white" stroke="black" points="427.5,-224.5 427.5,-243.5 542.5,-243.5 542.5,-224.5 427.5,-224.5"/>
<text text-anchor="middle" x="485" y="-231.5" font-family="Helvetica,sans-Serif" font-size="10.00">src/player/player.cpp</text>
</a>
</g>
</g>
<!-- Node1&#45;&gt;Node17 -->
<g id="edge76" class="edge"><title>Node1&#45;&gt;Node17</title>
<path fill="none" stroke="midnightblue" d="M615.39,-569.317C526.917,-568.72 341.209,-562.462 190,-524 118.794,-505.888 38,-532.473 38,-459 38,-459 38,-459 38,-401 38,-318.321 310.146,-263.601 429.741,-243.546"/>
<polygon fill="midnightblue" stroke="midnightblue" points="615.417,-572.817 625.433,-569.363 615.449,-565.817 615.417,-572.817"/>
</g>
<!-- Node22 -->
<g id="node22" class="node"><title>Node22</title>
<g id="a_node22"><a xlink:href="audio__sink_8cpp.html" target="_top" xlink:title="Implementation of the AudioSink class. ">
<polygon fill="white" stroke="black" points="591,-392.5 591,-411.5 723,-411.5 723,-392.5 591,-392.5"/>
<text text-anchor="middle" x="657" y="-399.5" font-family="Helvetica,sans-Serif" font-size="10.00">src/audio/audio_sink.cpp</text>
</a>
</g>
</g>
<!-- Node1&#45;&gt;Node22 -->
<g id="edge49" class="edge"><title>Node1&#45;&gt;Node22</title>
<path fill="none" stroke="midnightblue" d="M679.726,-551.901C684.931,-543.869 690.346,-533.897 693,-524 704.352,-481.661 675.994,-431.624 663.044,-411.759"/>
<polygon fill="midnightblue" stroke="midnightblue" points="676.711,-550.106 673.89,-560.319 682.464,-554.094 676.711,-550.106"/>
</g>
<!-- Node23 -->
<g id="node23" class="node"><title>Node23</title>
<g id="a_node23"><a xlink:href="audio__source_8cpp.html" target="_top" xlink:title="Implementation of the AudioSource class. ">
<polygon fill="white" stroke="black" points="350.5,-448.5 350.5,-467.5 495.5,-467.5 495.5,-448.5 350.5,-448.5"/>
<text text-anchor="middle" x="423" y="-455.5" font-family="Helvetica,sans-Serif" font-size="10.00">src/audio/audio_source.cpp</text>
</a>
</g>
</g>
<!-- Node1&#45;&gt;Node23 -->
<g id="edge50" class="edge"><title>Node1&#45;&gt;Node23</title>
<path fill="none" stroke="midnightblue" d="M631.868,-556.947C607.938,-548.438 575.699,-536.387 548,-524 507.361,-505.826 461.327,-480.64 438.109,-467.598"/>
<polygon fill="midnightblue" stroke="midnightblue" points="630.983,-560.346 641.577,-560.367 633.308,-553.743 630.983,-560.346"/>
</g>
<!-- Node24 -->
<g id="node24" class="node"><title>Node24</title>
<g id="a_node24"><a xlink:href="ringbuffer_8hpp.html" target="_top" xlink:title="The RingBuffer class template. ">
<polygon fill="white" stroke="black" points="557.5,-504.5 557.5,-523.5 684.5,-523.5 684.5,-504.5 557.5,-504.5"/>
<text text-anchor="middle" x="621" y="-511.5" font-family="Helvetica,sans-Serif" font-size="10.00">src/audio/ringbuffer.hpp</text>
</a>
</g>
</g>
<!-- Node1&#45;&gt;Node24 -->
<g id="edge46" class="edge"><title>Node1&#45;&gt;Node24</title>
<path fill="none" stroke="midnightblue" d="M652.886,-552.431C644.824,-542.967 635.041,-531.483 628.455,-523.751"/>
<polygon fill="midnightblue" stroke="midnightblue" points="650.255,-554.74 659.404,-560.083 655.584,-550.201 650.255,-554.74"/>
</g>
<!-- Node25 -->
<g id="node25" class="node"><title>Node25</title>
<g id="a_node25"><a xlink:href="io__response_8hpp.html" target="_top" xlink:title="Declaration of classes pertaining to responses to the client. ">
<polygon fill="white" stroke="black" points="988,-392.5 988,-411.5 1112,-411.5 1112,-392.5 988,-392.5"/>
<text text-anchor="middle" x="1050" y="-399.5" font-family="Helvetica,sans-Serif" font-size="10.00">src/io/io_response.hpp</text>
</a>
</g>
</g>
<!-- Node1&#45;&gt;Node25 -->
<g id="edge52" class="edge"><title>Node1&#45;&gt;Node25</title>
<path fill="none" stroke="midnightblue" d="M696.059,-556.405C770.553,-524.118 966.91,-439.013 1030.1,-411.624"/>
<polygon fill="midnightblue" stroke="midnightblue" points="694.569,-553.237 686.785,-560.425 697.352,-559.659 694.569,-553.237"/>
</g>
<!-- Node28 -->
<g id="node28" class="node"><title>Node28</title>
<g id="a_node28"><a xlink:href="io__response_8cpp.html" target="_top" xlink:title="Implementation of client response classes. ">
<polygon fill="white" stroke="black" points="1420.5,-336.5 1420.5,-355.5 1543.5,-355.5 1543.5,-336.5 1420.5,-336.5"/>
<text text-anchor="middle" x="1482" y="-343.5" font-family="Helvetica,sans-Serif" font-size="10.00">src/io/io_response.cpp</text>
</a>
</g>
</g>
<!-- Node1&#45;&gt;Node28 -->
<g id="edge75" class="edge"><title>Node1&#45;&gt;Node28</title>
<path fill="none" stroke="midnightblue" d="M708.161,-557.788C851.094,-518.854 1324.12,-390.006 1450.64,-355.541"/>
<polygon fill="midnightblue" stroke="midnightblue" points="707.178,-554.428 698.45,-560.433 709.018,-561.182 707.178,-554.428"/>
</g>
<!-- Node29 -->
<g id="node29" class="node"><title>Node29</title>
<g id="a_node29"><a xlink:href="errors_8cpp.html" target="_top" xlink:title="Implementation of the playd Error exception set. ">
<polygon fill="white" stroke="black" points="1600,-504.5 1600,-523.5 1682,-523.5 1682,-504.5 1600,-504.5"/>
<text text-anchor="middle" x="1641" y="-511.5" font-family="Helvetica,sans-Serif" font-size="10.00">src/errors.cpp</text>
</a>
</g>
</g>
<!-- Node1&#45;&gt;Node29 -->
<g id="edge73" class="edge"><title>Node1&#45;&gt;Node29</title>
<path fill="none" stroke="midnightblue" d="M718.839,-568.516C858.997,-566.765 1257.07,-558.852 1586,-524 1590.52,-523.521 1595.24,-522.914 1599.92,-522.243"/>
<polygon fill="midnightblue" stroke="midnightblue" points="718.763,-565.017 708.806,-568.637 718.847,-572.016 718.763,-565.017"/>
</g>
<!-- Node3&#45;&gt;Node2 -->
<g id="edge42" class="edge"><title>Node3&#45;&gt;Node2</title>
<path fill="none" stroke="midnightblue" d="M239.241,-502.136C216.558,-495.524 193.658,-484.936 177,-468 161.83,-452.577 158.652,-425.746 158.064,-411.873"/>
<polygon fill="midnightblue" stroke="midnightblue" points="238.365,-505.524 248.93,-504.733 240.177,-498.763 238.365,-505.524"/>
</g>
<!-- Node4 -->
<g id="node4" class="node"><title>Node4</title>
<g id="a_node4"><a xlink:href="audio_8hpp.html" target="_top" xlink:title="Declaration of the Audio class. ">
<polygon fill="white" stroke="black" points="186,-448.5 186,-467.5 294,-467.5 294,-448.5 186,-448.5"/>
<text text-anchor="middle" x="240" y="-455.5" font-family="Helvetica,sans-Serif" font-size="10.00">src/audio/audio.hpp</text>
</a>
</g>
</g>
<!-- Node3&#45;&gt;Node4 -->
<g id="edge3" class="edge"><title>Node3&#45;&gt;Node4</title>
<path fill="none" stroke="midnightblue" d="M300.167,-498.622C285.187,-488.757 265.803,-475.992 253.142,-467.655"/>
<polygon fill="midnightblue" stroke="midnightblue" points="298.549,-501.747 308.825,-504.324 302.399,-495.901 298.549,-501.747"/>
</g>
<!-- Node3&#45;&gt;Node5 -->
<g id="edge44" class="edge"><title>Node3&#45;&gt;Node5</title>
<path fill="none" stroke="midnightblue" d="M255.557,-502.666C171.561,-486.868 43.7199,-452.045 95,-392 121.625,-360.825 230.994,-351.129 305.969,-348.184"/>
<polygon fill="midnightblue" stroke="midnightblue" points="255.102,-506.14 265.568,-504.498 256.362,-499.255 255.102,-506.14"/>
</g>
<!-- Node6 -->
<g id="node6" class="node"><title>Node6</title>
<g id="a_node6"><a xlink:href="audio__system_8hpp.html" target="_top" xlink:title="Declaration of the AudioSystem class. ">
<polygon fill="white" stroke="black" points="344.5,-392.5 344.5,-411.5 491.5,-411.5 491.5,-392.5 344.5,-392.5"/>
<text text-anchor="middle" x="418" y="-399.5" font-family="Helvetica,sans-Serif" font-size="10.00">src/audio/audio_system.hpp</text>
</a>
</g>
</g>
<!-- Node3&#45;&gt;Node6 -->
<g id="edge45" class="edge"><title>Node3&#45;&gt;Node6</title>
<path fill="none" stroke="midnightblue" d="M323.761,-494.109C325.894,-480.138 330.606,-461.306 341,-448 354.535,-430.673 376.746,-418.723 393.843,-411.515"/>
<polygon fill="midnightblue" stroke="midnightblue" points="320.282,-493.722 322.543,-504.073 327.23,-494.572 320.282,-493.722"/>
</g>
<!-- Node21 -->
<g id="node21" class="node"><title>Node21</title>
<g id="a_node21"><a xlink:href="audio__sink_8hpp.html" target="_top" xlink:title="Declaration of the AudioSink class. ">
<polygon fill="white" stroke="black" points="513.5,-448.5 513.5,-467.5 646.5,-467.5 646.5,-448.5 513.5,-448.5"/>
<text text-anchor="middle" x="580" y="-455.5" font-family="Helvetica,sans-Serif" font-size="10.00">src/audio/audio_sink.hpp</text>
</a>
</g>
</g>
<!-- Node3&#45;&gt;Node21 -->
<g id="edge37" class="edge"><title>Node3&#45;&gt;Node21</title>
<path fill="none" stroke="midnightblue" d="M372.904,-502.346C421.662,-492.141 494.287,-476.94 539.31,-467.516"/>
<polygon fill="midnightblue" stroke="midnightblue" points="371.952,-498.969 362.881,-504.444 373.386,-505.821 371.952,-498.969"/>
</g>
<!-- Node3&#45;&gt;Node23 -->
<g id="edge43" class="edge"><title>Node3&#45;&gt;Node23</title>
<path fill="none" stroke="midnightblue" d="M347.083,-499.59C365.757,-489.605 390.704,-476.267 406.813,-467.655"/>
<polygon fill="midnightblue" stroke="midnightblue" points="345.396,-496.522 338.227,-504.324 348.696,-502.696 345.396,-496.522"/>
</g>
<!-- Node4&#45;&gt;Node2 -->
<g id="edge4" class="edge"><title>Node4&#45;&gt;Node2</title>
<path fill="none" stroke="midnightblue" d="M218.167,-442.622C203.187,-432.757 183.803,-419.992 171.142,-411.655"/>
<polygon fill="midnightblue" stroke="midnightblue" points="216.549,-445.747 226.825,-448.324 220.399,-439.901 216.549,-445.747"/>
</g>
<!-- Node4&#45;&gt;Node5 -->
<g id="edge5" class="edge"><title>Node4&#45;&gt;Node5</title>
<path fill="none" stroke="midnightblue" d="M258.806,-442.118C288.31,-418.769 344.541,-374.27 368.144,-355.591"/>
<polygon fill="midnightblue" stroke="midnightblue" points="256.577,-439.418 250.907,-448.368 260.921,-444.907 256.577,-439.418"/>
</g>
<!-- Node4&#45;&gt;Node6 -->
<g id="edge6" class="edge"><title>Node4&#45;&gt;Node6</title>
<path fill="none" stroke="midnightblue" d="M278.117,-445.436C311.678,-435.255 359.774,-420.664 389.927,-411.516"/>
<polygon fill="midnightblue" stroke="midnightblue" points="276.758,-442.191 268.205,-448.444 278.79,-448.89 276.758,-442.191"/>
</g>
<!-- Node8 -->
<g id="node8" class="node"><title>Node8</title>
<g id="a_node8"><a xlink:href="player_8hpp.html" target="_top" xlink:title="Declaration of the Player class, and associated types. ">
<polygon fill="white" stroke="black" points="852,-280.5 852,-299.5 968,-299.5 968,-280.5 852,-280.5"/>
<text text-anchor="middle" x="910" y="-287.5" font-family="Helvetica,sans-Serif" font-size="10.00">src/player/player.hpp</text>
</a>
</g>
</g>
<!-- Node4&#45;&gt;Node8 -->
<g id="edge35" class="edge"><title>Node4&#45;&gt;Node8</title>
<path fill="none" stroke="midnightblue" d="M245.995,-438.904C256.524,-408.295 278.937,-348.408 297,-336 319.662,-320.432 703.243,-300.76 851.845,-293.686"/>
<polygon fill="midnightblue" stroke="midnightblue" points="242.677,-437.79 242.793,-448.384 249.309,-440.03 242.677,-437.79"/>
</g>
<!-- Node4&#45;&gt;Node17 -->
<g id="edge36" class="edge"><title>Node4&#45;&gt;Node17</title>
<path fill="none" stroke="midnightblue" d="M240.885,-438.305C243.11,-412.102 250.887,-364.476 278,-336 326.391,-285.175 405.718,-256.569 450.823,-243.603"/>
<polygon fill="midnightblue" stroke="midnightblue" points="237.385,-438.19 240.218,-448.399 244.37,-438.652 237.385,-438.19"/>
</g>
<!-- Node6&#45;&gt;Node5 -->
<g id="edge7" class="edge"><title>Node6&#45;&gt;Node5</title>
<path fill="none" stroke="midnightblue" d="M405.618,-383.855C398.865,-374.505 390.791,-363.327 385.32,-355.751"/>
<polygon fill="midnightblue" stroke="midnightblue" points="402.868,-386.025 411.56,-392.083 408.542,-381.927 402.868,-386.025"/>
</g>
<!-- Node7 -->
<g id="node7" class="node"><title>Node7</title>
<g id="a_node7"><a xlink:href="player__file_8hpp.html" target="_top" xlink:title="Declaration of the PlayerFile class, and associated types. ">
<polygon fill="white" stroke="black" points="546.5,-336.5 546.5,-355.5 681.5,-355.5 681.5,-336.5 546.5,-336.5"/>
<text text-anchor="middle" x="614" y="-343.5" font-family="Helvetica,sans-Serif" font-size="10.00">src/player/player_file.hpp</text>
</a>
</g>
</g>
<!-- Node6&#45;&gt;Node7 -->
<g id="edge8" class="edge"><title>Node6&#45;&gt;Node7</title>
<path fill="none" stroke="midnightblue" d="M459.02,-389.699C496.011,-379.507 549.6,-364.743 583.089,-355.516"/>
<polygon fill="midnightblue" stroke="midnightblue" points="457.768,-386.413 449.057,-392.444 459.627,-393.162 457.768,-386.413"/>
</g>
<!-- Node14 -->
<g id="node14" class="node"><title>Node14</title>
<g id="a_node14"><a xlink:href="main_8cpp.html" target="_top" xlink:title="Main entry point and implementation of the playd class. ">
<polygon fill="white" stroke="black" points="810,-0.5 810,-19.5 886,-19.5 886,-0.5 810,-0.5"/>
<text text-anchor="middle" x="848" y="-7.5" font-family="Helvetica,sans-Serif" font-size="10.00">src/main.cpp</text>
</a>
</g>
</g>
<!-- Node6&#45;&gt;Node14 -->
<g id="edge32" class="edge"><title>Node6&#45;&gt;Node14</title>
<path fill="none" stroke="midnightblue" d="M334.019,-399.869C222.101,-393.407 38,-363.281 38,-235 38,-235 38,-235 38,-121 38,-42.1037 649.191,-17.273 809.748,-12.1113"/>
<polygon fill="midnightblue" stroke="midnightblue" points="334.112,-403.378 344.282,-400.407 334.479,-396.388 334.112,-403.378"/>
</g>
<!-- Node15 -->
<g id="node15" class="node"><title>Node15</title>
<g id="a_node15"><a xlink:href="main_8hpp.html" target="_top" xlink:title="Declaration of the playd class. ">
<polygon fill="white" stroke="black" points="776.5,-56.5 776.5,-75.5 853.5,-75.5 853.5,-56.5 776.5,-56.5"/>
<text text-anchor="middle" x="815" y="-63.5" font-family="Helvetica,sans-Serif" font-size="10.00">src/main.hpp</text>
</a>
</g>
</g>
<!-- Node6&#45;&gt;Node15 -->
<g id="edge33" class="edge"><title>Node6&#45;&gt;Node15</title>
<path fill="none" stroke="midnightblue" d="M345.219,-389.439C326.465,-382.802 308.38,-372.374 297,-356 259.788,-302.459 100.99,-394.5 353,-168 415.896,-111.471 676.724,-80.5187 776.21,-70.5843"/>
<polygon fill="midnightblue" stroke="midnightblue" points="344.162,-392.776 354.753,-392.489 346.295,-386.109 344.162,-392.776"/>
</g>
<!-- Node6&#45;&gt;Node17 -->
<g id="edge34" class="edge"><title>Node6&#45;&gt;Node17</title>
<path fill="none" stroke="midnightblue" d="M437.174,-385.468C445.736,-377.53 455.185,-367.19 461,-356 480.948,-317.613 484.358,-264.468 484.91,-243.756"/>
<polygon fill="midnightblue" stroke="midnightblue" points="434.599,-383.071 429.385,-392.294 439.213,-388.336 434.599,-383.071"/>
</g>
<!-- Node7&#45;&gt;Node8 -->
<g id="edge9" class="edge"><title>Node7&#45;&gt;Node8</title>
<path fill="none" stroke="midnightblue" d="M671.003,-334.601C726.944,-324.395 811.23,-309.019 863.317,-299.516"/>
<polygon fill="midnightblue" stroke="midnightblue" points="670.112,-331.206 660.902,-336.444 671.368,-338.092 670.112,-331.206"/>
</g>
<!-- Node20 -->
<g id="node20" class="node"><title>Node20</title>
<g id="a_node20"><a xlink:href="player__file_8cpp.html" target="_top" xlink:title="Implementation of the PlayerFile class, and associated types. ">
<polygon fill="white" stroke="black" points="566,-280.5 566,-299.5 700,-299.5 700,-280.5 566,-280.5"/>
<text text-anchor="middle" x="633" y="-287.5" font-family="Helvetica,sans-Serif" font-size="10.00">src/player/player_file.cpp</text>
</a>
</g>
</g>
<!-- Node7&#45;&gt;Node20 -->
<g id="edge31" class="edge"><title>Node7&#45;&gt;Node20</title>
<path fill="none" stroke="midnightblue" d="M620.546,-326.396C623.724,-317.362 627.393,-306.936 629.921,-299.751"/>
<polygon fill="midnightblue" stroke="midnightblue" points="617.155,-325.488 617.137,-336.083 623.758,-327.812 617.155,-325.488"/>
</g>
<!-- Node9 -->
<g id="node9" class="node"><title>Node9</title>
<g id="a_node9"><a xlink:href="cmd_8hpp.html" target="_top" xlink:title="Declaration of the CommandHandler class. ">
<polygon fill="white" stroke="black" points="873,-224.5 873,-243.5 947,-243.5 947,-224.5 873,-224.5"/>
<text text-anchor="middle" x="910" y="-231.5" font-family="Helvetica,sans-Serif" font-size="10.00">src/cmd.hpp</text>
</a>
</g>
</g>
<!-- Node8&#45;&gt;Node9 -->
<g id="edge10" class="edge"><title>Node8&#45;&gt;Node9</title>
<path fill="none" stroke="midnightblue" d="M910,-269.805C910,-260.91 910,-250.78 910,-243.751"/>
<polygon fill="midnightblue" stroke="midnightblue" points="906.5,-270.083 910,-280.083 913.5,-270.083 906.5,-270.083"/>
</g>
<!-- Node8&#45;&gt;Node11 -->
<g id="edge24" class="edge"><title>Node8&#45;&gt;Node11</title>
<path fill="none" stroke="midnightblue" d="M942.955,-276.914C965.497,-268.367 995.906,-256.285 1022,-244 1024.95,-242.613 1122.19,-189.639 1125,-188 1165.71,-164.294 1186.52,-169.525 1215,-132 1227.94,-114.957 1232.08,-89.2936 1233.4,-75.8814"/>
<polygon fill="midnightblue" stroke="midnightblue" points="941.633,-273.672 933.503,-280.466 944.096,-280.224 941.633,-273.672"/>
</g>
<!-- Node13 -->
<g id="node13" class="node"><title>Node13</title>
<g id="a_node13"><a xlink:href="io__reactor_8hpp.html" target="_top" xlink:title="Declaration of the IoReactor class. ">
<polygon fill="white" stroke="black" points="1074.5,-112.5 1074.5,-131.5 1187.5,-131.5 1187.5,-112.5 1074.5,-112.5"/>
<text text-anchor="middle" x="1131" y="-119.5" font-family="Helvetica,sans-Serif" font-size="10.00">src/io/io_reactor.hpp</text>
</a>
</g>
</g>
<!-- Node8&#45;&gt;Node13 -->
<g id="edge25" class="edge"><title>Node8&#45;&gt;Node13</title>
<path fill="none" stroke="midnightblue" d="M933.205,-275.245C956.404,-261.673 993.244,-240.605 1026,-224 1060.42,-206.554 1078.37,-215.918 1105,-188 1120.44,-171.819 1127.11,-145.319 1129.65,-131.693"/>
<polygon fill="midnightblue" stroke="midnightblue" points="931.287,-272.312 924.439,-280.397 934.834,-278.347 931.287,-272.312"/>
</g>
<!-- Node8&#45;&gt;Node14 -->
<g id="edge27" class="edge"><title>Node8&#45;&gt;Node14</title>
<path fill="none" stroke="midnightblue" d="M886.212,-274.948C874.234,-266.999 860.143,-256.212 850,-244 796.79,-179.933 785.941,-157.1 767,-76 764.978,-67.344 762.492,-63.6611 767,-56 777.769,-37.6984 798.968,-26.3062 816.977,-19.5639"/>
<polygon fill="midnightblue" stroke="midnightblue" points="884.543,-278.035 894.859,-280.451 888.301,-272.129 884.543,-278.035"/>
</g>
<!-- Node8&#45;&gt;Node15 -->
<g id="edge26" class="edge"><title>Node8&#45;&gt;Node15</title>
<path fill="none" stroke="midnightblue" d="M890.332,-273.625C881.23,-265.634 870.926,-255.204 864,-244 828.456,-186.504 818.178,-102.851 815.695,-75.7934"/>
<polygon fill="midnightblue" stroke="midnightblue" points="888.306,-276.494 898.22,-280.231 892.8,-271.127 888.306,-276.494"/>
</g>
<!-- Node8&#45;&gt;Node17 -->
<g id="edge28" class="edge"><title>Node8&#45;&gt;Node17</title>
<path fill="none" stroke="midnightblue" d="M841.699,-280.458C741.574,-267.933 565.207,-245.859 551,-244 548.248,-243.64 545.432,-243.268 542.588,-242.89"/>
<polygon fill="midnightblue" stroke="midnightblue" points="841.379,-283.945 851.736,-281.713 842.248,-276.999 841.379,-283.945"/>
</g>
<!-- Node18 -->
<g id="node18" class="node"><title>Node18</title>
<g id="a_node18"><a xlink:href="player__position_8cpp.html" target="_top" xlink:title="Implementation of the PlayerPosition class, and related Player methods. ">
<polygon fill="white" stroke="black" points="560,-224.5 560,-243.5 718,-243.5 718,-224.5 560,-224.5"/>
<text text-anchor="middle" x="639" y="-231.5" font-family="Helvetica,sans-Serif" font-size="10.00">src/player/player_position.cpp</text>
</a>
</g>
</g>
<!-- Node8&#45;&gt;Node18 -->
<g id="edge29" class="edge"><title>Node8&#45;&gt;Node18</title>
<path fill="none" stroke="midnightblue" d="M857.172,-278.473C805.955,-268.268 729.23,-252.979 681.74,-243.516"/>
<polygon fill="midnightblue" stroke="midnightblue" points="856.568,-281.922 867.059,-280.444 857.936,-275.057 856.568,-281.922"/>
</g>
<!-- Node19 -->
<g id="node19" class="node"><title>Node19</title>
<g id="a_node19"><a xlink:href="player__state_8cpp.html" target="_top" xlink:title="Implementation of the PlayerState class, and related Player methods. ">
<polygon fill="white" stroke="black" points="1068,-224.5 1068,-243.5 1212,-243.5 1212,-224.5 1068,-224.5"/>
<text text-anchor="middle" x="1140" y="-231.5" font-family="Helvetica,sans-Serif" font-size="10.00">src/player/player_state.cpp</text>
</a>
</g>
</g>
<!-- Node8&#45;&gt;Node19 -->
<g id="edge30" class="edge"><title>Node8&#45;&gt;Node19</title>
<path fill="none" stroke="midnightblue" d="M956.201,-278.153C999.658,-267.95 1063.84,-252.881 1103.73,-243.516"/>
<polygon fill="midnightblue" stroke="midnightblue" points="955.379,-274.75 946.444,-280.444 956.979,-281.565 955.379,-274.75"/>
</g>
<!-- Node9&#45;&gt;Node10 -->
<g id="edge11" class="edge"><title>Node9&#45;&gt;Node10</title>
<path fill="none" stroke="midnightblue" d="M862.62,-227.993C761.512,-217.309 526.448,-192.468 435.679,-182.876"/>
<polygon fill="midnightblue" stroke="midnightblue" points="862.526,-231.503 872.839,-229.073 863.262,-224.541 862.526,-231.503"/>
</g>
<!-- Node9&#45;&gt;Node11 -->
<g id="edge12" class="edge"><title>Node9&#45;&gt;Node11</title>
<path fill="none" stroke="midnightblue" d="M908.586,-214.409C907.66,-187.583 910.337,-138.355 939,-112 972.847,-80.8791 1101.58,-71.2805 1177.34,-68.3201"/>
<polygon fill="midnightblue" stroke="midnightblue" points="905.092,-214.611 909.138,-224.403 912.081,-214.225 905.092,-214.611"/>
</g>
<!-- Node12 -->
<g id="node12" class="node"><title>Node12</title>
<g id="a_node12"><a xlink:href="tokeniser_8hpp.html" target="_top" xlink:title="Declaration of the Tokeniser class. ">
<polygon fill="white" stroke="black" points="986.5,-168.5 986.5,-187.5 1095.5,-187.5 1095.5,-168.5 986.5,-168.5"/>
<text text-anchor="middle" x="1041" y="-175.5" font-family="Helvetica,sans-Serif" font-size="10.00">src/io/tokeniser.hpp</text>
</a>
</g>
</g>
<!-- Node9&#45;&gt;Node12 -->
<g id="edge13" class="edge"><title>Node9&#45;&gt;Node12</title>
<path fill="none" stroke="midnightblue" d="M940.317,-220.503C964.876,-210.38 998.818,-196.388 1020.34,-187.516"/>
<polygon fill="midnightblue" stroke="midnightblue" points="938.669,-217.397 930.757,-224.444 941.337,-223.868 938.669,-217.397"/>
</g>
<!-- Node9&#45;&gt;Node14 -->
<g id="edge22" class="edge"><title>Node9&#45;&gt;Node14</title>
<path fill="none" stroke="midnightblue" d="M905.279,-214.718C896.916,-182.534 878.793,-113.701 862,-56 858.296,-43.2734 853.674,-28.6336 850.778,-19.5984"/>
<polygon fill="midnightblue" stroke="midnightblue" points="901.916,-215.692 907.812,-224.495 908.692,-213.936 901.916,-215.692"/>
</g>
<!-- Node9&#45;&gt;Node15 -->
<g id="edge23" class="edge"><title>Node9&#45;&gt;Node15</title>
<path fill="none" stroke="midnightblue" d="M892.946,-217.41C884.674,-209.224 875.032,-198.69 868,-188 842.539,-149.298 824.26,-96.3355 817.681,-75.7141"/>
<polygon fill="midnightblue" stroke="midnightblue" points="890.681,-220.086 900.327,-224.467 895.518,-215.026 890.681,-220.086"/>
</g>
<!-- Node16 -->
<g id="node16" class="node"><title>Node16</title>
<g id="a_node16"><a xlink:href="tokeniser_8cpp.html" target="_top" xlink:title="Definition of the Tokeniser class. ">
<polygon fill="white" stroke="black" points="948,-112.5 948,-131.5 1056,-131.5 1056,-112.5 948,-112.5"/>
<text text-anchor="middle" x="1002" y="-119.5" font-family="Helvetica,sans-Serif" font-size="10.00">src/io/tokeniser.cpp</text>
</a>
</g>
</g>
<!-- Node9&#45;&gt;Node16 -->
<g id="edge21" class="edge"><title>Node9&#45;&gt;Node16</title>
<path fill="none" stroke="midnightblue" d="M923.728,-216.586C943.563,-192.871 979.528,-149.869 994.814,-131.591"/>
<polygon fill="midnightblue" stroke="midnightblue" points="920.95,-214.452 917.219,-224.368 926.319,-218.943 920.95,-214.452"/>
</g>
<!-- Node12&#45;&gt;Node13 -->
<g id="edge14" class="edge"><title>Node12&#45;&gt;Node13</title>
<path fill="none" stroke="midnightblue" d="M1064.04,-163.177C1080.6,-153.241 1102.42,-140.149 1116.58,-131.655"/>
<polygon fill="midnightblue" stroke="midnightblue" points="1062.23,-160.178 1055.46,-168.324 1065.84,-166.18 1062.23,-160.178"/>
</g>
<!-- Node12&#45;&gt;Node16 -->
<g id="edge20" class="edge"><title>Node12&#45;&gt;Node16</title>
<path fill="none" stroke="midnightblue" d="M1028.62,-159.855C1021.86,-150.505 1013.79,-139.327 1008.32,-131.751"/>
<polygon fill="midnightblue" stroke="midnightblue" points="1025.87,-162.025 1034.56,-168.083 1031.54,-157.927 1025.87,-162.025"/>
</g>
<!-- Node13&#45;&gt;Node11 -->
<g id="edge15" class="edge"><title>Node13&#45;&gt;Node11</title>
<path fill="none" stroke="midnightblue" d="M1156.58,-107.59C1175.62,-97.6052 1201.06,-84.2672 1217.49,-75.6545"/>
<polygon fill="midnightblue" stroke="midnightblue" points="1154.78,-104.581 1147.55,-112.324 1158.03,-110.78 1154.78,-104.581"/>
</g>
<!-- Node13&#45;&gt;Node13 -->
<g id="edge16" class="edge"><title>Node13&#45;&gt;Node13</title>
<path fill="none" stroke="midnightblue" d="M1172.78,-132.393C1190.45,-133.17 1205.5,-129.706 1205.5,-122 1205.5,-112.867 1184.36,-109.692 1162.77,-112.475"/>
<polygon fill="midnightblue" stroke="midnightblue" points="1173.04,-128.902 1162.77,-131.525 1172.43,-135.876 1173.04,-128.902"/>
</g>
<!-- Node13&#45;&gt;Node14 -->
<g id="edge17" class="edge"><title>Node13&#45;&gt;Node14</title>
<path fill="none" stroke="midnightblue" d="M1099.42,-108.726C1041.59,-86.2451 920.014,-38.9914 870.103,-19.5914"/>
<polygon fill="midnightblue" stroke="midnightblue" points="1098.2,-112.008 1108.79,-112.368 1100.74,-105.483 1098.2,-112.008"/>
</g>
<!-- Node13&#45;&gt;Node15 -->
<g id="edge18" class="edge"><title>Node13&#45;&gt;Node15</title>
<path fill="none" stroke="midnightblue" d="M1071,-110.748C1007.21,-99.8453 908.175,-82.9223 853.879,-73.6439"/>
<polygon fill="midnightblue" stroke="midnightblue" points="1070.48,-114.209 1080.93,-112.444 1071.66,-107.309 1070.48,-114.209"/>
</g>
<!-- Node15&#45;&gt;Node14 -->
<g id="edge19" class="edge"><title>Node15&#45;&gt;Node14</title>
<path fill="none" stroke="midnightblue" d="M825.832,-47.2747C831.472,-38.0454 838.118,-27.1703 842.652,-19.7511"/>
<polygon fill="midnightblue" stroke="midnightblue" points="822.677,-45.7251 820.449,-56.083 828.65,-49.3753 822.677,-45.7251"/>
</g>
<!-- Node21&#45;&gt;Node2 -->
<g id="edge38" class="edge"><title>Node21&#45;&gt;Node2</title>
<path fill="none" stroke="midnightblue" d="M503.085,-447.158C418.641,-436.352 285.278,-419.287 211.513,-409.848"/>
<polygon fill="midnightblue" stroke="midnightblue" points="502.769,-450.646 513.133,-448.444 503.658,-443.702 502.769,-450.646"/>
</g>
<!-- Node21&#45;&gt;Node5 -->
<g id="edge40" class="edge"><title>Node21&#45;&gt;Node5</title>
<path fill="none" stroke="midnightblue" d="M563.789,-441.127C548.408,-426.756 524.122,-405.785 500,-392 471.298,-375.597 435.501,-363.157 410.314,-355.559"/>
<polygon fill="midnightblue" stroke="midnightblue" points="561.706,-443.977 571.359,-448.344 566.537,-438.911 561.706,-443.977"/>
</g>
<!-- Node21&#45;&gt;Node6 -->
<g id="edge41" class="edge"><title>Node21&#45;&gt;Node6</title>
<path fill="none" stroke="midnightblue" d="M544.516,-445.172C514.012,-435.004 470.755,-420.585 443.549,-411.516"/>
<polygon fill="midnightblue" stroke="midnightblue" points="543.737,-448.602 554.331,-448.444 545.951,-441.961 543.737,-448.602"/>
</g>
<!-- Node21&#45;&gt;Node22 -->
<g id="edge39" class="edge"><title>Node21&#45;&gt;Node22</title>
<path fill="none" stroke="midnightblue" d="M600.901,-442.342C614.911,-432.517 632.883,-419.913 644.659,-411.655"/>
<polygon fill="midnightblue" stroke="midnightblue" points="598.549,-439.717 592.371,-448.324 602.568,-445.448 598.549,-439.717"/>
</g>
<!-- Node24&#45;&gt;Node21 -->
<g id="edge47" class="edge"><title>Node24&#45;&gt;Node21</title>
<path fill="none" stroke="midnightblue" d="M607.983,-495.855C600.883,-486.505 592.396,-475.327 586.644,-467.751"/>
<polygon fill="midnightblue" stroke="midnightblue" points="605.395,-498.235 614.23,-504.083 610.97,-494.002 605.395,-498.235"/>
</g>
<!-- Node24&#45;&gt;Node22 -->
<g id="edge48" class="edge"><title>Node24&#45;&gt;Node22</title>
<path fill="none" stroke="midnightblue" d="M637.035,-496.911C643.917,-488.917 651.231,-478.692 655,-468 661.756,-448.834 660,-424.485 658.362,-411.717"/>
<polygon fill="midnightblue" stroke="midnightblue" points="634.378,-494.629 630.186,-504.36 639.531,-499.367 634.378,-494.629"/>
</g>
<!-- Node25&#45;&gt;Node7 -->
<g id="edge54" class="edge"><title>Node25&#45;&gt;Node7</title>
<path fill="none" stroke="midnightblue" d="M977.969,-392.079C895.638,-381.882 761.92,-365.32 681.523,-355.363"/>
<polygon fill="midnightblue" stroke="midnightblue" points="977.64,-395.565 987.995,-393.32 978.501,-388.618 977.64,-395.565"/>
</g>
<!-- Node25&#45;&gt;Node8 -->
<g id="edge53" class="edge"><title>Node25&#45;&gt;Node8</title>
<path fill="none" stroke="midnightblue" d="M1034.91,-385.168C1021.42,-371.417 1000.78,-351.356 981,-336 962.788,-321.859 940.011,-308.032 925.241,-299.518"/>
<polygon fill="midnightblue" stroke="midnightblue" points="1032.49,-387.705 1041.97,-392.451 1037.52,-382.834 1032.49,-387.705"/>
</g>
<!-- Node25&#45;&gt;Node10 -->
<g id="edge61" class="edge"><title>Node25&#45;&gt;Node10</title>
<path fill="none" stroke="midnightblue" d="M977.757,-400.45C855.566,-398.566 613.876,-390.451 537,-356 470.721,-326.298 455.965,-305.917 418,-244 406.815,-225.758 401.93,-200.601 400.041,-187.581"/>
<polygon fill="midnightblue" stroke="midnightblue" points="977.723,-403.95 987.773,-400.595 977.824,-396.95 977.723,-403.95"/>
</g>
<!-- Node25&#45;&gt;Node11 -->
<g id="edge64" class="edge"><title>Node25&#45;&gt;Node11</title>
<path fill="none" stroke="midnightblue" d="M1122.2,-394.331C1186.85,-387.286 1275.95,-374.602 1306,-356 1336.53,-337.096 1354,-326.912 1354,-291 1354,-291 1354,-291 1354,-177 1354,-124.574 1290.99,-90.3684 1256.29,-75.5045"/>
<polygon fill="midnightblue" stroke="midnightblue" points="1121.62,-390.873 1112.05,-395.413 1122.36,-397.833 1121.62,-390.873"/>
</g>
<!-- Node25&#45;&gt;Node12 -->
<g id="edge63" class="edge"><title>Node25&#45;&gt;Node12</title>
<path fill="none" stroke="midnightblue" d="M1121.87,-395.347C1149.98,-389.494 1180.16,-378.064 1200,-356 1239.72,-311.826 1257.56,-270.823 1221,-224 1205.64,-204.323 1142.89,-191.977 1095.77,-185.298"/>
<polygon fill="midnightblue" stroke="midnightblue" points="1121.22,-391.908 1112.04,-397.193 1122.51,-398.788 1121.22,-391.908"/>
</g>
<!-- Node25&#45;&gt;Node13 -->
<g id="edge62" class="edge"><title>Node25&#45;&gt;Node13</title>
<path fill="none" stroke="midnightblue" d="M1122.41,-400.72C1201.17,-396.142 1316,-375.054 1316,-291 1316,-291 1316,-291 1316,-233 1316,-171.532 1239.61,-143.64 1185.01,-131.554"/>
<polygon fill="midnightblue" stroke="midnightblue" points="1121.84,-397.244 1112.03,-401.241 1122.19,-404.235 1121.84,-397.244"/>
</g>
<!-- Node25&#45;&gt;Node14 -->
<g id="edge67" class="edge"><title>Node25&#45;&gt;Node14</title>
<path fill="none" stroke="midnightblue" d="M1122.11,-396.547C1194.63,-390.855 1300.4,-378.874 1334,-356 1404.19,-308.216 1386.91,-250.778 1368,-168 1355.03,-111.229 1350.56,-84.8861 1300,-56 1229.81,-15.9047 982.19,-11.1682 886.313,-10.8724"/>
<polygon fill="midnightblue" stroke="midnightblue" points="1121.81,-393.059 1112.1,-397.309 1122.34,-400.039 1121.81,-393.059"/>
</g>
<!-- Node25&#45;&gt;Node16 -->
<g id="edge66" class="edge"><title>Node25&#45;&gt;Node16</title>
<path fill="none" stroke="midnightblue" d="M1122.27,-394.966C1155.15,-389.158 1192.9,-377.869 1221,-356 1249.79,-333.597 1255.53,-316.308 1252,-280 1249.54,-254.755 1257,-243.683 1241,-224 1194.9,-167.283 1111.23,-141.889 1056.14,-130.896"/>
<polygon fill="midnightblue" stroke="midnightblue" points="1121.55,-391.538 1112.24,-396.598 1122.67,-398.447 1121.55,-391.538"/>
</g>
<!-- Node25&#45;&gt;Node17 -->
<g id="edge68" class="edge"><title>Node25&#45;&gt;Node17</title>
<path fill="none" stroke="midnightblue" d="M977.892,-400.485C922.375,-397.397 845.206,-387.1 785,-356 742.559,-334.077 751.107,-302.558 709,-280 693.856,-271.887 596.617,-254.145 535.336,-243.523"/>
<polygon fill="midnightblue" stroke="midnightblue" points="977.837,-403.986 987.997,-400.981 978.181,-396.994 977.837,-403.986"/>
</g>
<!-- Node25&#45;&gt;Node18 -->
<g id="edge70" class="edge"><title>Node25&#45;&gt;Node18</title>
<path fill="none" stroke="midnightblue" d="M977.717,-394.513C915.713,-387.741 832.197,-375.366 805,-356 773.386,-333.489 791.6,-305.1 762,-280 739.975,-261.323 709.531,-250.102 684.443,-243.536"/>
<polygon fill="midnightblue" stroke="midnightblue" points="977.545,-398.015 987.859,-395.593 978.286,-391.054 977.545,-398.015"/>
</g>
<!-- Node25&#45;&gt;Node19 -->
<g id="edge71" class="edge"><title>Node25&#45;&gt;Node19</title>
<path fill="none" stroke="midnightblue" d="M1122.01,-393.336C1145.3,-387.048 1168.76,-375.844 1183,-356 1209.38,-319.226 1166.88,-264.689 1148.16,-243.683"/>
<polygon fill="midnightblue" stroke="midnightblue" points="1120.97,-389.987 1112.07,-395.74 1122.61,-396.791 1120.97,-389.987"/>
</g>
<!-- Node25&#45;&gt;Node20 -->
<g id="edge69" class="edge"><title>Node25&#45;&gt;Node20</title>
<path fill="none" stroke="midnightblue" d="M977.578,-399.452C912.092,-396.028 813.974,-385.797 734,-356 697.46,-342.386 660.411,-313.978 643.093,-299.654"/>
<polygon fill="midnightblue" stroke="midnightblue" points="977.643,-402.959 987.8,-399.945 977.98,-395.967 977.643,-402.959"/>
</g>
<!-- Node26 -->
<g id="node26" class="node"><title>Node26</title>
<g id="a_node26"><a xlink:href="player__position_8hpp.html" target="_top" xlink:title="Declaration of the PlayerPosition class. ">
<polygon fill="white" stroke="black" points="814,-336.5 814,-355.5 972,-355.5 972,-336.5 814,-336.5"/>
<text text-anchor="middle" x="893" y="-343.5" font-family="Helvetica,sans-Serif" font-size="10.00">src/player/player_position.hpp</text>
</a>
</g>
</g>
<!-- Node25&#45;&gt;Node26 -->
<g id="edge55" class="edge"><title>Node25&#45;&gt;Node26</title>
<path fill="none" stroke="midnightblue" d="M1015.61,-389.172C986.048,-379.004 944.127,-364.585 917.761,-355.516"/>
<polygon fill="midnightblue" stroke="midnightblue" points="1014.53,-392.501 1025.12,-392.444 1016.8,-385.881 1014.53,-392.501"/>
</g>
<!-- Node27 -->
<g id="node27" class="node"><title>Node27</title>
<g id="a_node27"><a xlink:href="player__state_8hpp.html" target="_top" xlink:title="Declaration of the PlayerState class, and associated types. ">
<polygon fill="white" stroke="black" points="1028.5,-336.5 1028.5,-355.5 1173.5,-355.5 1173.5,-336.5 1028.5,-336.5"/>
<text text-anchor="middle" x="1101" y="-343.5" font-family="Helvetica,sans-Serif" font-size="10.00">src/player/player_state.hpp</text>
</a>
</g>
</g>
<!-- Node25&#45;&gt;Node27 -->
<g id="edge57" class="edge"><title>Node25&#45;&gt;Node27</title>
<path fill="none" stroke="midnightblue" d="M1065.38,-384.718C1074.37,-375.2 1085.36,-363.561 1092.74,-355.751"/>
<polygon fill="midnightblue" stroke="midnightblue" points="1062.74,-382.41 1058.42,-392.083 1067.83,-387.216 1062.74,-382.41"/>
</g>
<!-- Node25&#45;&gt;Node28 -->
<g id="edge65" class="edge"><title>Node25&#45;&gt;Node28</title>
<path fill="none" stroke="midnightblue" d="M1122.52,-391.935C1206.03,-381.497 1341.75,-364.531 1420.36,-354.705"/>
<polygon fill="midnightblue" stroke="midnightblue" points="1121.84,-388.492 1112.36,-393.206 1122.71,-395.438 1121.84,-388.492"/>
</g>
<!-- Node26&#45;&gt;Node8 -->
<g id="edge56" class="edge"><title>Node26&#45;&gt;Node8</title>
<path fill="none" stroke="midnightblue" d="M898.857,-326.396C901.701,-317.362 904.983,-306.936 907.245,-299.751"/>
<polygon fill="midnightblue" stroke="midnightblue" points="895.472,-325.493 895.807,-336.083 902.149,-327.596 895.472,-325.493"/>
</g>
<!-- Node27&#45;&gt;Node8 -->
<g id="edge58" class="edge"><title>Node27&#45;&gt;Node8</title>
<path fill="none" stroke="midnightblue" d="M1061.03,-333.699C1024.98,-323.507 972.757,-308.743 940.123,-299.516"/>
<polygon fill="midnightblue" stroke="midnightblue" points="1060.16,-337.091 1070.74,-336.444 1062.06,-330.355 1060.16,-337.091"/>
</g>
<!-- Node27&#45;&gt;Node17 -->
<g id="edge59" class="edge"><title>Node27&#45;&gt;Node17</title>
<path fill="none" stroke="midnightblue" d="M1035.53,-334.869C983.238,-326.467 908.176,-313.713 843,-300 806.713,-292.365 798.33,-287.424 762,-280 686.58,-264.589 598.741,-251.06 542.543,-242.959"/>
<polygon fill="midnightblue" stroke="midnightblue" points="1035.25,-338.368 1045.68,-336.49 1036.36,-331.456 1035.25,-338.368"/>
</g>
<!-- Node27&#45;&gt;Node19 -->
<g id="edge60" class="edge"><title>Node27&#45;&gt;Node19</title>
<path fill="none" stroke="midnightblue" d="M1107.5,-326.674C1116.02,-302.625 1130.64,-261.388 1136.95,-243.591"/>
<polygon fill="midnightblue" stroke="midnightblue" points="1104.1,-325.774 1104.06,-336.368 1110.7,-328.113 1104.1,-325.774"/>
</g>
</g>
</svg>
