<?xml version="1.0" encoding="UTF-8" standalone="no"?>
<!DOCTYPE svg PUBLIC "-//W3C//DTD SVG 1.1//EN"
 "http://www.w3.org/Graphics/SVG/1.1/DTD/svg11.dtd">
<!-- Generated by graphviz version 2.38.0 (20140413.2041)
 -->
<!-- Title: src/player/player_file.hpp Pages: 1 -->
<svg width="909pt" height="364pt"
 viewBox="0.00 0.00 908.50 364.00" xmlns="http://www.w3.org/2000/svg" xmlns:xlink="http://www.w3.org/1999/xlink">
<g id="graph0" class="graph" transform="scale(1 1) rotate(0) translate(4 360)">
<title>src/player/player_file.hpp</title>
<polygon fill="white" stroke="none" points="-4,4 -4,-360 904.5,-360 904.5,4 -4,4"/>
<!-- Node1 -->
<g id="node1" class="node"><title>Node1</title>
<polygon fill="#bfbfbf" stroke="black" points="404,-336.5 404,-355.5 539,-355.5 539,-336.5 404,-336.5"/>
<text text-anchor="middle" x="471.5" y="-343.5" font-family="Helvetica,sans-Serif" font-size="10.00">src/player/player_file.hpp</text>
</g>
<!-- Node2 -->
<g id="node2" class="node"><title>Node2</title>
<g id="a_node2"><a xlink:href="player_8hpp.html" target="_top" xlink:title="Declaration of the Player class, and associated types. ">
<polygon fill="white" stroke="black" points="342.5,-280.5 342.5,-299.5 458.5,-299.5 458.5,-280.5 342.5,-280.5"/>
<text text-anchor="middle" x="400.5" y="-287.5" font-family="Helvetica,sans-Serif" font-size="10.00">src/player/player.hpp</text>
</a>
</g>
</g>
<!-- Node1&#45;&gt;Node2 -->
<g id="edge1" class="edge"><title>Node1&#45;&gt;Node2</title>
<path fill="none" stroke="midnightblue" d="M451.91,-330.101C439.132,-320.382 422.887,-308.027 412.115,-299.834"/>
<polygon fill="midnightblue" stroke="midnightblue" points="450.014,-333.056 460.093,-336.324 454.252,-327.484 450.014,-333.056"/>
</g>
<!-- Node14 -->
<g id="node14" class="node"><title>Node14</title>
<g id="a_node14"><a xlink:href="player__file_8cpp.html" target="_top" xlink:title="Implementation of the PlayerFile class, and associated types. ">
<polygon fill="white" stroke="black" points="476.5,-280.5 476.5,-299.5 610.5,-299.5 610.5,-280.5 476.5,-280.5"/>
<text text-anchor="middle" x="543.5" y="-287.5" font-family="Helvetica,sans-Serif" font-size="10.00">src/player/player_file.cpp</text>
</a>
</g>
</g>
<!-- Node1&#45;&gt;Node14 -->
<g id="edge23" class="edge"><title>Node1&#45;&gt;Node14</title>
<path fill="none" stroke="midnightblue" d="M491.366,-330.101C504.323,-320.382 520.797,-308.027 531.721,-299.834"/>
<polygon fill="midnightblue" stroke="midnightblue" points="488.968,-327.524 483.068,-336.324 493.168,-333.124 488.968,-327.524"/>
</g>
<!-- Node3 -->
<g id="node3" class="node"><title>Node3</title>
<g id="a_node3"><a xlink:href="cmd_8hpp.html" target="_top" xlink:title="Declaration of the CommandHandler class. ">
<polygon fill="white" stroke="black" points="230.5,-224.5 230.5,-243.5 304.5,-243.5 304.5,-224.5 230.5,-224.5"/>
<text text-anchor="middle" x="267.5" y="-231.5" font-family="Helvetica,sans-Serif" font-size="10.00">src/cmd.hpp</text>
</a>
</g>
</g>
<!-- Node2&#45;&gt;Node3 -->
<g id="edge2" class="edge"><title>Node2&#45;&gt;Node3</title>
<path fill="none" stroke="midnightblue" d="M370.052,-276.638C345.093,-266.504 310.423,-252.427 288.476,-243.516"/>
<polygon fill="midnightblue" stroke="midnightblue" points="368.844,-279.924 379.426,-280.444 371.477,-273.439 368.844,-279.924"/>
</g>
<!-- Node5 -->
<g id="node5" class="node"><title>Node5</title>
<g id="a_node5"><a xlink:href="io__reactor_8cpp.html" target="_top" xlink:title="Implementation of the non&#45;virtual aspects of the IoReactor class. ">
<polygon fill="white" stroke="black" points="202,-56.5 202,-75.5 315,-75.5 315,-56.5 202,-56.5"/>
<text text-anchor="middle" x="258.5" y="-63.5" font-family="Helvetica,sans-Serif" font-size="10.00">src/io/io_reactor.cpp</text>
</a>
</g>
</g>
<!-- Node2&#45;&gt;Node5 -->
<g id="edge16" class="edge"><title>Node2&#45;&gt;Node5</title>
<path fill="none" stroke="midnightblue" d="M392.573,-271.124C377.504,-238.08 342.622,-165.899 302.5,-112 292.191,-98.1518 277.847,-84.2561 268.375,-75.6465"/>
<polygon fill="midnightblue" stroke="midnightblue" points="389.454,-272.723 396.751,-280.405 395.837,-269.849 389.454,-272.723"/>
</g>
<!-- Node7 -->
<g id="node7" class="node"><title>Node7</title>
<g id="a_node7"><a xlink:href="io__reactor_8hpp.html" target="_top" xlink:title="Declaration of the IoReactor class. ">
<polygon fill="white" stroke="black" points="20,-112.5 20,-131.5 133,-131.5 133,-112.5 20,-112.5"/>
<text text-anchor="middle" x="76.5" y="-119.5" font-family="Helvetica,sans-Serif" font-size="10.00">src/io/io_reactor.hpp</text>
</a>
</g>
</g>
<!-- Node2&#45;&gt;Node7 -->
<g id="edge17" class="edge"><title>Node2&#45;&gt;Node7</title>
<path fill="none" stroke="midnightblue" d="M332.333,-280.428C235.462,-266.675 65.6689,-236.225 29.5,-188 14.5438,-168.058 43.4815,-144.225 62.2425,-131.692"/>
<polygon fill="midnightblue" stroke="midnightblue" points="331.946,-283.908 342.334,-281.825 332.915,-276.975 331.946,-283.908"/>
</g>
<!-- Node8 -->
<g id="node8" class="node"><title>Node8</title>
<g id="a_node8"><a xlink:href="main_8cpp.html" target="_top" xlink:title="Main entry point and implementation of the playd class. ">
<polygon fill="white" stroke="black" points="190.5,-0.5 190.5,-19.5 266.5,-19.5 266.5,-0.5 190.5,-0.5"/>
<text text-anchor="middle" x="228.5" y="-7.5" font-family="Helvetica,sans-Serif" font-size="10.00">src/main.cpp</text>
</a>
</g>
</g>
<!-- Node2&#45;&gt;Node8 -->
<g id="edge19" class="edge"><title>Node2&#45;&gt;Node8</title>
<path fill="none" stroke="midnightblue" d="M405.716,-270.39C411.341,-248.65 419.5,-211.511 419.5,-179 419.5,-179 419.5,-179 419.5,-121 419.5,-51.1649 322.431,-24.996 266.693,-15.7259"/>
<polygon fill="midnightblue" stroke="midnightblue" points="402.282,-269.683 403.062,-280.249 409.041,-271.502 402.282,-269.683"/>
</g>
<!-- Node9 -->
<g id="node9" class="node"><title>Node9</title>
<g id="a_node9"><a xlink:href="main_8hpp.html" target="_top" xlink:title="Declaration of the playd class. ">
<polygon fill="white" stroke="black" points="0,-56.5 0,-75.5 77,-75.5 77,-56.5 0,-56.5"/>
<text text-anchor="middle" x="38.5" y="-63.5" font-family="Helvetica,sans-Serif" font-size="10.00">src/main.hpp</text>
</a>
</g>
</g>
<!-- Node2&#45;&gt;Node9 -->
<g id="edge18" class="edge"><title>Node2&#45;&gt;Node9</title>
<path fill="none" stroke="midnightblue" d="M331.765,-283.868C252.375,-277.133 127.203,-263.794 84.5,-244 28.5278,-218.055 12.5449,-192.87 2.5,-132 1.0527,-123.23 -0.442284,-120.388 2.5,-112 7.6,-97.461 19.5916,-84.1298 28.3379,-75.8145"/>
<polygon fill="midnightblue" stroke="midnightblue" points="331.914,-287.393 342.17,-284.735 332.495,-280.417 331.914,-287.393"/>
</g>
<!-- Node11 -->
<g id="node11" class="node"><title>Node11</title>
<g id="a_node11"><a xlink:href="player_8cpp.html" target="_top" xlink:title="Main implementation file for the Player class. ">
<polygon fill="white" stroke="black" points="448,-224.5 448,-243.5 563,-243.5 563,-224.5 448,-224.5"/>
<text text-anchor="middle" x="505.5" y="-231.5" font-family="Helvetica,sans-Serif" font-size="10.00">src/player/player.cpp</text>
</a>
</g>
</g>
<!-- Node2&#45;&gt;Node11 -->
<g id="edge20" class="edge"><title>Node2&#45;&gt;Node11</title>
<path fill="none" stroke="midnightblue" d="M426.31,-275.726C445.753,-265.727 471.848,-252.307 488.672,-243.655"/>
<polygon fill="midnightblue" stroke="midnightblue" points="424.662,-272.638 417.37,-280.324 427.864,-278.863 424.662,-272.638"/>
</g>
<!-- Node12 -->
<g id="node12" class="node"><title>Node12</title>
<g id="a_node12"><a xlink:href="player__position_8cpp.html" target="_top" xlink:title="Implementation of the PlayerPosition class, and related Player methods. ">
<polygon fill="white" stroke="black" points="580.5,-224.5 580.5,-243.5 738.5,-243.5 738.5,-224.5 580.5,-224.5"/>
<text text-anchor="middle" x="659.5" y="-231.5" font-family="Helvetica,sans-Serif" font-size="10.00">src/player/player_position.cpp</text>
</a>
</g>
</g>
<!-- Node2&#45;&gt;Node12 -->
<g id="edge21" class="edge"><title>Node2&#45;&gt;Node12</title>
<path fill="none" stroke="midnightblue" d="M451.602,-278.346C500.548,-268.141 573.454,-252.94 618.653,-243.516"/>
<polygon fill="midnightblue" stroke="midnightblue" points="450.614,-274.976 441.539,-280.444 452.043,-281.829 450.614,-274.976"/>
</g>
<!-- Node13 -->
<g id="node13" class="node"><title>Node13</title>
<g id="a_node13"><a xlink:href="player__state_8cpp.html" target="_top" xlink:title="Implementation of the PlayerState class, and related Player methods. ">
<polygon fill="white" stroke="black" points="756.5,-224.5 756.5,-243.5 900.5,-243.5 900.5,-224.5 756.5,-224.5"/>
<text text-anchor="middle" x="828.5" y="-231.5" font-family="Helvetica,sans-Serif" font-size="10.00">src/player/player_state.cpp</text>
</a>
</g>
</g>
<!-- Node2&#45;&gt;Node13 -->
<g id="edge22" class="edge"><title>Node2&#45;&gt;Node13</title>
<path fill="none" stroke="midnightblue" d="M468.614,-279.866C575.712,-266.03 688.056,-252.151 758.595,-243.514"/>
<polygon fill="midnightblue" stroke="midnightblue" points="468.068,-276.407 458.6,-281.161 468.967,-283.349 468.068,-276.407"/>
</g>
<!-- Node4 -->
<g id="node4" class="node"><title>Node4</title>
<g id="a_node4"><a xlink:href="cmd_8cpp.html" target="_top" xlink:title="Implementation of the CommandHandler class. ">
<polygon fill="white" stroke="black" points="39,-168.5 39,-187.5 112,-187.5 112,-168.5 39,-168.5"/>
<text text-anchor="middle" x="75.5" y="-175.5" font-family="Helvetica,sans-Serif" font-size="10.00">src/cmd.cpp</text>
</a>
</g>
</g>
<!-- Node3&#45;&gt;Node4 -->
<g id="edge3" class="edge"><title>Node3&#45;&gt;Node4</title>
<path fill="none" stroke="midnightblue" d="M227.317,-221.699C191.081,-211.507 138.586,-196.743 105.781,-187.516"/>
<polygon fill="midnightblue" stroke="midnightblue" points="226.503,-225.105 237.077,-224.444 228.398,-218.367 226.503,-225.105"/>
</g>
<!-- Node3&#45;&gt;Node5 -->
<g id="edge4" class="edge"><title>Node3&#45;&gt;Node5</title>
<path fill="none" stroke="midnightblue" d="M275.181,-214.785C284.191,-190.841 296.682,-147.639 286.5,-112 282.506,-98.0212 272.776,-84.156 265.912,-75.5891"/>
<polygon fill="midnightblue" stroke="midnightblue" points="271.826,-213.75 271.38,-224.335 278.33,-216.338 271.826,-213.75"/>
</g>
<!-- Node6 -->
<g id="node6" class="node"><title>Node6</title>
<g id="a_node6"><a xlink:href="tokeniser_8hpp.html" target="_top" xlink:title="Declaration of the Tokeniser class. ">
<polygon fill="white" stroke="black" points="130,-168.5 130,-187.5 239,-187.5 239,-168.5 130,-168.5"/>
<text text-anchor="middle" x="184.5" y="-175.5" font-family="Helvetica,sans-Serif" font-size="10.00">src/io/tokeniser.hpp</text>
</a>
</g>
</g>
<!-- Node3&#45;&gt;Node6 -->
<g id="edge5" class="edge"><title>Node3&#45;&gt;Node6</title>
<path fill="none" stroke="midnightblue" d="M245.401,-218.622C230.238,-208.757 210.617,-195.992 197.802,-187.655"/>
<polygon fill="midnightblue" stroke="midnightblue" points="243.874,-221.804 254.165,-224.324 247.691,-215.937 243.874,-221.804"/>
</g>
<!-- Node3&#45;&gt;Node8 -->
<g id="edge14" class="edge"><title>Node3&#45;&gt;Node8</title>
<path fill="none" stroke="midnightblue" d="M281.734,-216.069C307.647,-183.072 356.899,-108.777 323.5,-56 311.008,-36.2607 287.258,-25.0107 266.631,-18.6956"/>
<polygon fill="midnightblue" stroke="midnightblue" points="278.702,-214.253 275.132,-224.228 284.143,-218.656 278.702,-214.253"/>
</g>
<!-- Node3&#45;&gt;Node9 -->
<g id="edge15" class="edge"><title>Node3&#45;&gt;Node9</title>
<path fill="none" stroke="midnightblue" d="M220.305,-229.658C159.253,-224.414 57.4083,-212.246 29.5,-188 3.21615,-165.166 0.934942,-145.478 10.5,-112 14.4939,-98.0212 24.2236,-84.156 31.0876,-75.5891"/>
<polygon fill="midnightblue" stroke="midnightblue" points="220.215,-233.162 230.469,-230.499 220.792,-226.186 220.215,-233.162"/>
</g>
<!-- Node10 -->
<g id="node10" class="node"><title>Node10</title>
<g id="a_node10"><a xlink:href="tokeniser_8cpp.html" target="_top" xlink:title="Definition of the Tokeniser class. ">
<polygon fill="white" stroke="black" points="169.5,-112.5 169.5,-131.5 277.5,-131.5 277.5,-112.5 169.5,-112.5"/>
<text text-anchor="middle" x="223.5" y="-119.5" font-family="Helvetica,sans-Serif" font-size="10.00">src/io/tokeniser.cpp</text>
</a>
</g>
</g>
<!-- Node3&#45;&gt;Node10 -->
<g id="edge13" class="edge"><title>Node3&#45;&gt;Node10</title>
<path fill="none" stroke="midnightblue" d="M262.861,-214.634C259.283,-201.431 253.877,-183.33 247.5,-168 242.059,-154.92 234.044,-140.612 228.798,-131.72"/>
<polygon fill="midnightblue" stroke="midnightblue" points="259.499,-215.615 265.417,-224.403 266.271,-213.843 259.499,-215.615"/>
</g>
<!-- Node6&#45;&gt;Node7 -->
<g id="edge6" class="edge"><title>Node6&#45;&gt;Node7</title>
<path fill="none" stroke="midnightblue" d="M157.952,-163.726C137.954,-153.727 111.113,-140.307 93.809,-131.655"/>
<polygon fill="midnightblue" stroke="midnightblue" points="156.638,-166.982 167.148,-168.324 159.769,-160.721 156.638,-166.982"/>
</g>
<!-- Node6&#45;&gt;Node10 -->
<g id="edge12" class="edge"><title>Node6&#45;&gt;Node10</title>
<path fill="none" stroke="midnightblue" d="M196.882,-159.855C203.635,-150.505 211.709,-139.327 217.18,-131.751"/>
<polygon fill="midnightblue" stroke="midnightblue" points="193.958,-157.927 190.94,-168.083 199.632,-162.025 193.958,-157.927"/>
</g>
<!-- Node7&#45;&gt;Node5 -->
<g id="edge7" class="edge"><title>Node7&#45;&gt;Node5</title>
<path fill="none" stroke="midnightblue" d="M115.031,-109.568C149.364,-99.381 198.833,-84.7034 229.796,-75.5164"/>
<polygon fill="midnightblue" stroke="midnightblue" points="113.93,-106.244 105.338,-112.444 115.921,-112.954 113.93,-106.244"/>
</g>
<!-- Node7&#45;&gt;Node7 -->
<g id="edge8" class="edge"><title>Node7&#45;&gt;Node7</title>
<path fill="none" stroke="midnightblue" d="M118.282,-132.393C135.953,-133.17 151,-129.706 151,-122 151,-112.867 129.864,-109.692 108.274,-112.475"/>
<polygon fill="midnightblue" stroke="midnightblue" points="118.539,-128.902 108.274,-131.525 117.935,-135.876 118.539,-128.902"/>
</g>
<!-- Node7&#45;&gt;Node8 -->
<g id="edge9" class="edge"><title>Node7&#45;&gt;Node8</title>
<path fill="none" stroke="midnightblue" d="M96.6511,-106.417C128.8,-83.1513 190.707,-38.3501 216.628,-19.5914"/>
<polygon fill="midnightblue" stroke="midnightblue" points="94.4764,-103.67 88.4272,-112.368 98.5803,-109.341 94.4764,-103.67"/>
</g>
<!-- Node7&#45;&gt;Node9 -->
<g id="edge10" class="edge"><title>Node7&#45;&gt;Node9</title>
<path fill="none" stroke="midnightblue" d="M64.4353,-103.855C57.8553,-94.5048 49.989,-83.3265 44.6582,-75.7511"/>
<polygon fill="midnightblue" stroke="midnightblue" points="61.6078,-105.919 70.2251,-112.083 67.3324,-101.891 61.6078,-105.919"/>
</g>
<!-- Node9&#45;&gt;Node8 -->
<g id="edge11" class="edge"><title>Node9&#45;&gt;Node8</title>
<path fill="none" stroke="midnightblue" d="M78.264,-53.6986C114.123,-43.507 166.071,-28.7429 198.535,-19.5164"/>
<polygon fill="midnightblue" stroke="midnightblue" points="77.2683,-50.343 68.6061,-56.4435 79.182,-57.0763 77.2683,-50.343"/>
</g>
</g>
</svg>
