<?xml version="1.0" encoding="UTF-8" standalone="no"?>
<!DOCTYPE svg PUBLIC "-//W3C//DTD SVG 1.1//EN"
 "http://www.w3.org/Graphics/SVG/1.1/DTD/svg11.dtd">
<!-- Generated by graphviz version 2.38.0 (20140413.2041)
 -->
<!-- Title: src/player/player_state.hpp Pages: 1 -->
<svg width="459pt" height="196pt"
 viewBox="0.00 0.00 458.50 196.00" xmlns="http://www.w3.org/2000/svg" xmlns:xlink="http://www.w3.org/1999/xlink">
<g id="graph0" class="graph" transform="scale(1 1) rotate(0) translate(4 192)">
<title>src/player/player_state.hpp</title>
<polygon fill="white" stroke="none" points="-4,4 -4,-192 454.5,-192 454.5,4 -4,4"/>
<!-- Node1 -->
<g id="node1" class="node"><title>Node1</title>
<polygon fill="#bfbfbf" stroke="black" points="36,-168.5 36,-187.5 181,-187.5 181,-168.5 36,-168.5"/>
<text text-anchor="middle" x="108.5" y="-175.5" font-family="Helvetica,sans-Serif" font-size="10.00">src/player/player_state.hpp</text>
</g>
<!-- Node2 -->
<g id="node2" class="node"><title>Node2</title>
<polygon fill="white" stroke="#bfbfbf" points="0,-112.5 0,-131.5 47,-131.5 47,-112.5 0,-112.5"/>
<text text-anchor="middle" x="23.5" y="-119.5" font-family="Helvetica,sans-Serif" font-size="10.00">cstdint</text>
</g>
<!-- Node1&#45;&gt;Node2 -->
<g id="edge1" class="edge"><title>Node1&#45;&gt;Node2</title>
<path fill="none" stroke="midnightblue" d="M94.8433,-168.324C81.5837,-159.9 61.232,-146.971 45.6538,-137.074"/>
<polygon fill="midnightblue" stroke="midnightblue" points="47.4404,-134.063 37.1228,-131.655 43.6867,-139.971 47.4404,-134.063"/>
</g>
<!-- Node3 -->
<g id="node3" class="node"><title>Node3</title>
<polygon fill="white" stroke="#bfbfbf" points="56.5,-56.5 56.5,-75.5 118.5,-75.5 118.5,-56.5 56.5,-56.5"/>
<text text-anchor="middle" x="87.5" y="-63.5" font-family="Helvetica,sans-Serif" font-size="10.00">functional</text>
</g>
<!-- Node1&#45;&gt;Node3 -->
<g id="edge2" class="edge"><title>Node1&#45;&gt;Node3</title>
<path fill="none" stroke="midnightblue" d="M105.192,-168.169C101.962,-159.192 97.1578,-144.818 94.5,-132 91.3275,-116.7 89.5428,-99.0573 88.5707,-86.0168"/>
<polygon fill="midnightblue" stroke="midnightblue" points="92.0554,-85.6669 87.9112,-75.9162 85.0703,-86.123 92.0554,-85.6669"/>
</g>
<!-- Node4 -->
<g id="node4" class="node"><title>Node4</title>
<polygon fill="white" stroke="#bfbfbf" points="104,-112.5 104,-131.5 181,-131.5 181,-112.5 104,-112.5"/>
<text text-anchor="middle" x="142.5" y="-119.5" font-family="Helvetica,sans-Serif" font-size="10.00">initializer_list</text>
</g>
<!-- Node1&#45;&gt;Node4 -->
<g id="edge3" class="edge"><title>Node1&#45;&gt;Node4</title>
<path fill="none" stroke="midnightblue" d="M114.114,-168.083C118.867,-160.534 125.818,-149.495 131.652,-140.23"/>
<polygon fill="midnightblue" stroke="midnightblue" points="134.624,-142.078 136.99,-131.751 128.7,-138.349 134.624,-142.078"/>
</g>
<!-- Node5 -->
<g id="node5" class="node"><title>Node5</title>
<g id="a_node5"><a xlink:href="io__response_8hpp.html" target="_top" xlink:title="Declaration of classes pertaining to responses to the client. ">
<polygon fill="white" stroke="black" points="199.5,-112.5 199.5,-131.5 313.5,-131.5 313.5,-112.5 199.5,-112.5"/>
<text text-anchor="middle" x="256.5" y="-119.5" font-family="Helvetica,sans-Serif" font-size="10.00">../io/io_response.hpp</text>
</a>
</g>
</g>
<!-- Node1&#45;&gt;Node5 -->
<g id="edge4" class="edge"><title>Node1&#45;&gt;Node5</title>
<path fill="none" stroke="midnightblue" d="M131.951,-168.444C156.633,-159.438 195.685,-145.189 223.477,-135.049"/>
<polygon fill="midnightblue" stroke="midnightblue" points="224.964,-138.232 233.159,-131.516 222.565,-131.656 224.964,-138.232"/>
</g>
<!-- Node5&#45;&gt;Node3 -->
<g id="edge5" class="edge"><title>Node5&#45;&gt;Node3</title>
<path fill="none" stroke="midnightblue" d="M229.721,-112.444C201.167,-103.32 155.767,-88.8133 123.963,-78.6509"/>
<polygon fill="midnightblue" stroke="midnightblue" points="124.744,-75.2262 114.153,-75.5164 122.614,-81.8941 124.744,-75.2262"/>
</g>
<!-- Node6 -->
<g id="node6" class="node"><title>Node6</title>
<polygon fill="white" stroke="#bfbfbf" points="161,-56.5 161,-75.5 198,-75.5 198,-56.5 161,-56.5"/>
<text text-anchor="middle" x="179.5" y="-63.5" font-family="Helvetica,sans-Serif" font-size="10.00">map</text>
</g>
<!-- Node5&#45;&gt;Node6 -->
<g id="edge6" class="edge"><title>Node5&#45;&gt;Node6</title>
<path fill="none" stroke="midnightblue" d="M244.129,-112.324C232.342,-104.058 214.368,-91.4527 200.364,-81.6322"/>
<polygon fill="midnightblue" stroke="midnightblue" points="202.038,-78.5307 191.841,-75.6545 198.018,-84.2619 202.038,-78.5307"/>
</g>
<!-- Node7 -->
<g id="node7" class="node"><title>Node7</title>
<polygon fill="white" stroke="#bfbfbf" points="216,-56.5 216,-75.5 271,-75.5 271,-56.5 216,-56.5"/>
<text text-anchor="middle" x="243.5" y="-63.5" font-family="Helvetica,sans-Serif" font-size="10.00">ostream</text>
</g>
<!-- Node5&#45;&gt;Node7 -->
<g id="edge7" class="edge"><title>Node5&#45;&gt;Node7</title>
<path fill="none" stroke="midnightblue" d="M254.353,-112.083C252.631,-104.927 250.153,-94.6353 248,-85.6911"/>
<polygon fill="midnightblue" stroke="midnightblue" points="251.35,-84.6541 245.607,-75.7511 244.545,-86.2925 251.35,-84.6541"/>
</g>
<!-- Node8 -->
<g id="node8" class="node"><title>Node8</title>
<polygon fill="white" stroke="#bfbfbf" points="289,-56.5 289,-75.5 332,-75.5 332,-56.5 289,-56.5"/>
<text text-anchor="middle" x="310.5" y="-63.5" font-family="Helvetica,sans-Serif" font-size="10.00">string</text>
</g>
<!-- Node5&#45;&gt;Node8 -->
<g id="edge8" class="edge"><title>Node5&#45;&gt;Node8</title>
<path fill="none" stroke="midnightblue" d="M265.417,-112.083C273.28,-104.22 284.931,-92.5688 294.419,-83.0813"/>
<polygon fill="midnightblue" stroke="midnightblue" points="297.153,-85.2971 301.749,-75.7511 292.203,-80.3473 297.153,-85.2971"/>
</g>
<!-- Node9 -->
<g id="node9" class="node"><title>Node9</title>
<g id="a_node9"><a xlink:href="errors_8hpp.html" target="_top" xlink:title="Declarations of the playd Error exception set. ">
<polygon fill="white" stroke="black" points="350,-56.5 350,-75.5 423,-75.5 423,-56.5 350,-56.5"/>
<text text-anchor="middle" x="386.5" y="-63.5" font-family="Helvetica,sans-Serif" font-size="10.00">../errors.hpp</text>
</a>
</g>
</g>
<!-- Node5&#45;&gt;Node9 -->
<g id="edge9" class="edge"><title>Node5&#45;&gt;Node9</title>
<path fill="none" stroke="midnightblue" d="M277.099,-112.444C298.493,-103.557 332.181,-89.5632 356.524,-79.4514"/>
<polygon fill="midnightblue" stroke="midnightblue" points="358.105,-82.5848 365.997,-75.5164 355.42,-76.1203 358.105,-82.5848"/>
</g>
<!-- Node10 -->
<g id="node10" class="node"><title>Node10</title>
<polygon fill="white" stroke="#bfbfbf" points="321,-0.5 321,-19.5 378,-19.5 378,-0.5 321,-0.5"/>
<text text-anchor="middle" x="349.5" y="-7.5" font-family="Helvetica,sans-Serif" font-size="10.00">iostream</text>
</g>
<!-- Node9&#45;&gt;Node10 -->
<g id="edge10" class="edge"><title>Node9&#45;&gt;Node10</title>
<path fill="none" stroke="midnightblue" d="M380.39,-56.083C375.218,-48.5341 367.654,-37.4948 361.306,-28.2298"/>
<polygon fill="midnightblue" stroke="midnightblue" points="364.036,-26.0221 355.496,-19.7511 358.261,-29.9787 364.036,-26.0221"/>
</g>
<!-- Node11 -->
<g id="node11" class="node"><title>Node11</title>
<polygon fill="white" stroke="#bfbfbf" points="396.5,-0.5 396.5,-19.5 450.5,-19.5 450.5,-0.5 396.5,-0.5"/>
<text text-anchor="middle" x="423.5" y="-7.5" font-family="Helvetica,sans-Serif" font-size="10.00">sstream</text>
</g>
<!-- Node9&#45;&gt;Node11 -->
<g id="edge11" class="edge"><title>Node9&#45;&gt;Node11</title>
<path fill="none" stroke="midnightblue" d="M392.61,-56.083C397.782,-48.5341 405.346,-37.4948 411.694,-28.2298"/>
<polygon fill="midnightblue" stroke="midnightblue" points="414.739,-29.9787 417.504,-19.7511 408.964,-26.0221 414.739,-29.9787"/>
</g>
</g>
</svg>
