<?xml version="1.0" encoding="UTF-8" standalone="no"?>
<!DOCTYPE svg PUBLIC "-//W3C//DTD SVG 1.1//EN"
 "http://www.w3.org/Graphics/SVG/1.1/DTD/svg11.dtd">
<!-- Generated by graphviz version 2.38.0 (20140413.2041)
 -->
<!-- Title: src/audio/audio.hpp Pages: 1 -->
<svg width="1101pt" height="196pt"
 viewBox="0.00 0.00 1101.00 196.00" xmlns="http://www.w3.org/2000/svg" xmlns:xlink="http://www.w3.org/1999/xlink">
<g id="graph0" class="graph" transform="scale(1 1) rotate(0) translate(4 192)">
<title>src/audio/audio.hpp</title>
<polygon fill="white" stroke="none" points="-4,4 -4,-192 1097,-192 1097,4 -4,4"/>
<!-- Node1 -->
<g id="node1" class="node"><title>Node1</title>
<polygon fill="#bfbfbf" stroke="black" points="611,-168.5 611,-187.5 719,-187.5 719,-168.5 611,-168.5"/>
<text text-anchor="middle" x="665" y="-175.5" font-family="Helvetica,sans-Serif" font-size="10.00">src/audio/audio.hpp</text>
</g>
<!-- Node2 -->
<g id="node2" class="node"><title>Node2</title>
<polygon fill="white" stroke="#bfbfbf" points="0,-56.5 0,-75.5 50,-75.5 50,-56.5 0,-56.5"/>
<text text-anchor="middle" x="25" y="-63.5" font-family="Helvetica,sans-Serif" font-size="10.00">chrono</text>
</g>
<!-- Node1&#45;&gt;Node2 -->
<g id="edge1" class="edge"><title>Node1&#45;&gt;Node2</title>
<path fill="none" stroke="midnightblue" d="M610.759,-175.816C524.793,-173.008 352.398,-163.578 210,-132 153.039,-119.368 89.4289,-94.5167 53.6027,-79.4688"/>
<polygon fill="midnightblue" stroke="midnightblue" points="54.8358,-76.19 44.2632,-75.5028 52.0996,-82.6331 54.8358,-76.19"/>
</g>
<!-- Node3 -->
<g id="node3" class="node"><title>Node3</title>
<polygon fill="white" stroke="#bfbfbf" points="543.5,-0.5 543.5,-19.5 590.5,-19.5 590.5,-0.5 543.5,-0.5"/>
<text text-anchor="middle" x="567" y="-7.5" font-family="Helvetica,sans-Serif" font-size="10.00">cstdint</text>
</g>
<!-- Node1&#45;&gt;Node3 -->
<g id="edge2" class="edge"><title>Node1&#45;&gt;Node3</title>
<path fill="none" stroke="midnightblue" d="M666.407,-168.466C669.411,-147.328 674.335,-91.6724 650,-56 638.309,-38.8625 617.891,-27.6713 600.233,-20.7356"/>
<polygon fill="midnightblue" stroke="midnightblue" points="601.374,-17.4263 590.78,-17.3095 598.989,-24.0074 601.374,-17.4263"/>
</g>
<!-- Node4 -->
<g id="node4" class="node"><title>Node4</title>
<polygon fill="white" stroke="#bfbfbf" points="693,-112.5 693,-131.5 747,-131.5 747,-112.5 693,-112.5"/>
<text text-anchor="middle" x="720" y="-119.5" font-family="Helvetica,sans-Serif" font-size="10.00">memory</text>
</g>
<!-- Node1&#45;&gt;Node4 -->
<g id="edge3" class="edge"><title>Node1&#45;&gt;Node4</title>
<path fill="none" stroke="midnightblue" d="M674.082,-168.083C682.171,-160.141 694.195,-148.335 703.91,-138.797"/>
<polygon fill="midnightblue" stroke="midnightblue" points="706.403,-141.254 711.087,-131.751 701.499,-136.26 706.403,-141.254"/>
</g>
<!-- Node5 -->
<g id="node5" class="node"><title>Node5</title>
<polygon fill="white" stroke="#bfbfbf" points="68.5,-56.5 68.5,-75.5 111.5,-75.5 111.5,-56.5 68.5,-56.5"/>
<text text-anchor="middle" x="90" y="-63.5" font-family="Helvetica,sans-Serif" font-size="10.00">string</text>
</g>
<!-- Node1&#45;&gt;Node5 -->
<g id="edge4" class="edge"><title>Node1&#45;&gt;Node5</title>
<path fill="none" stroke="midnightblue" d="M610.78,-174.113C536.355,-169.355 398.714,-157.704 284,-132 224.659,-118.703 157.924,-94.121 120.224,-79.2944"/>
<polygon fill="midnightblue" stroke="midnightblue" points="121.424,-76.0053 110.839,-75.5683 118.841,-82.5113 121.424,-76.0053"/>
</g>
<!-- Node6 -->
<g id="node6" class="node"><title>Node6</title>
<polygon fill="white" stroke="#bfbfbf" points="765,-112.5 765,-131.5 805,-131.5 805,-112.5 765,-112.5"/>
<text text-anchor="middle" x="785" y="-119.5" font-family="Helvetica,sans-Serif" font-size="10.00">utility</text>
</g>
<!-- Node1&#45;&gt;Node6 -->
<g id="edge5" class="edge"><title>Node1&#45;&gt;Node6</title>
<path fill="none" stroke="midnightblue" d="M684.014,-168.444C703.588,-159.636 734.308,-145.812 756.729,-135.722"/>
<polygon fill="midnightblue" stroke="midnightblue" points="758.392,-138.812 766.075,-131.516 755.519,-132.428 758.392,-138.812"/>
</g>
<!-- Node7 -->
<g id="node7" class="node"><title>Node7</title>
<polygon fill="white" stroke="#bfbfbf" points="595,-56.5 595,-75.5 641,-75.5 641,-56.5 595,-56.5"/>
<text text-anchor="middle" x="618" y="-63.5" font-family="Helvetica,sans-Serif" font-size="10.00">vector</text>
</g>
<!-- Node1&#45;&gt;Node7 -->
<g id="edge6" class="edge"><title>Node1&#45;&gt;Node7</title>
<path fill="none" stroke="midnightblue" d="M661.312,-168.368C653.659,-150.456 635.913,-108.923 625.669,-84.9482"/>
<polygon fill="midnightblue" stroke="midnightblue" points="628.819,-83.412 621.671,-75.5914 622.382,-86.1624 628.819,-83.412"/>
</g>
<!-- Node8 -->
<g id="node8" class="node"><title>Node8</title>
<polygon fill="white" stroke="#bfbfbf" points="823.5,-112.5 823.5,-131.5 892.5,-131.5 892.5,-112.5 823.5,-112.5"/>
<text text-anchor="middle" x="858" y="-119.5" font-family="Helvetica,sans-Serif" font-size="10.00">portaudio.h</text>
</g>
<!-- Node1&#45;&gt;Node8 -->
<g id="edge7" class="edge"><title>Node1&#45;&gt;Node8</title>
<path fill="none" stroke="midnightblue" d="M695.581,-168.444C728.615,-159.201 781.388,-144.436 817.766,-134.257"/>
<polygon fill="midnightblue" stroke="midnightblue" points="818.875,-137.582 827.562,-131.516 816.988,-130.84 818.875,-137.582"/>
</g>
<!-- Node9 -->
<g id="node9" class="node"><title>Node9</title>
<polygon fill="white" stroke="#bfbfbf" points="911,-112.5 911,-131.5 1093,-131.5 1093,-112.5 911,-112.5"/>
<text text-anchor="middle" x="1002" y="-119.5" font-family="Helvetica,sans-Serif" font-size="10.00">portaudiocpp/CallbackInterface.hxx</text>
</g>
<!-- Node1&#45;&gt;Node9 -->
<g id="edge8" class="edge"><title>Node1&#45;&gt;Node9</title>
<path fill="none" stroke="midnightblue" d="M718.399,-168.444C778.297,-158.846 875.366,-143.292 938.945,-133.104"/>
<polygon fill="midnightblue" stroke="midnightblue" points="939.531,-136.555 948.851,-131.516 938.423,-129.643 939.531,-136.555"/>
</g>
<!-- Node10 -->
<g id="node10" class="node"><title>Node10</title>
<g id="a_node10"><a xlink:href="audio__source_8hpp.html" target="_top" xlink:title="Declaration of the AudioSource class. ">
<polygon fill="white" stroke="black" points="293,-112.5 293,-131.5 393,-131.5 393,-112.5 293,-112.5"/>
<text text-anchor="middle" x="343" y="-119.5" font-family="Helvetica,sans-Serif" font-size="10.00">audio_source.hpp</text>
</a>
</g>
</g>
<!-- Node1&#45;&gt;Node10 -->
<g id="edge9" class="edge"><title>Node1&#45;&gt;Node10</title>
<path fill="none" stroke="midnightblue" d="M613.978,-168.444C556.814,-158.857 464.218,-143.328 403.464,-133.14"/>
<polygon fill="midnightblue" stroke="midnightblue" points="403.694,-129.63 393.253,-131.428 402.536,-136.533 403.694,-129.63"/>
</g>
<!-- Node10&#45;&gt;Node2 -->
<g id="edge11" class="edge"><title>Node10&#45;&gt;Node2</title>
<path fill="none" stroke="midnightblue" d="M292.955,-114.638C238.058,-107.309 147.19,-94.1551 59.9738,-76.0303"/>
<polygon fill="midnightblue" stroke="midnightblue" points="60.6891,-72.6042 50.1828,-73.971 59.2483,-79.4543 60.6891,-72.6042"/>
</g>
<!-- Node10&#45;&gt;Node3 -->
<g id="edge12" class="edge"><title>Node10&#45;&gt;Node3</title>
<path fill="none" stroke="midnightblue" d="M393.001,-115.879C446.262,-109.436 525.897,-96.6426 548,-76 560.611,-64.2225 565.007,-44.5852 566.462,-29.9711"/>
<polygon fill="midnightblue" stroke="midnightblue" points="569.981,-29.7696 567.1,-19.574 562.994,-29.341 569.981,-29.7696"/>
</g>
<!-- Node10&#45;&gt;Node5 -->
<g id="edge14" class="edge"><title>Node10&#45;&gt;Node5</title>
<path fill="none" stroke="midnightblue" d="M293.987,-112.455C250.825,-104.629 186.089,-92.1585 121.506,-76.2119"/>
<polygon fill="midnightblue" stroke="midnightblue" points="122.114,-72.7564 111.564,-73.7288 120.418,-79.5478 122.114,-72.7564"/>
</g>
<!-- Node10&#45;&gt;Node7 -->
<g id="edge15" class="edge"><title>Node10&#45;&gt;Node7</title>
<path fill="none" stroke="midnightblue" d="M392.379,-112.433C440.619,-103.882 516.056,-90.0283 581,-76 582.272,-75.7252 583.568,-75.4394 584.875,-75.146"/>
<polygon fill="midnightblue" stroke="midnightblue" points="586.003,-78.4771 594.95,-72.8019 584.417,-71.6592 586.003,-78.4771"/>
</g>
<!-- Node11 -->
<g id="node11" class="node"><title>Node11</title>
<polygon fill="white" stroke="#bfbfbf" points="129.5,-56.5 129.5,-75.5 170.5,-75.5 170.5,-56.5 129.5,-56.5"/>
<text text-anchor="middle" x="150" y="-63.5" font-family="Helvetica,sans-Serif" font-size="10.00">array</text>
</g>
<!-- Node10&#45;&gt;Node11 -->
<g id="edge10" class="edge"><title>Node10&#45;&gt;Node11</title>
<path fill="none" stroke="midnightblue" d="M311.389,-112.495C280.434,-104.118 231.696,-90.7984 180.269,-76.0305"/>
<polygon fill="midnightblue" stroke="midnightblue" points="181.217,-72.6613 170.639,-73.257 179.28,-79.3879 181.217,-72.6613"/>
</g>
<!-- Node12 -->
<g id="node12" class="node"><title>Node12</title>
<polygon fill="white" stroke="#bfbfbf" points="189,-56.5 189,-75.5 251,-75.5 251,-56.5 189,-56.5"/>
<text text-anchor="middle" x="220" y="-63.5" font-family="Helvetica,sans-Serif" font-size="10.00">functional</text>
</g>
<!-- Node10&#45;&gt;Node12 -->
<g id="edge13" class="edge"><title>Node10&#45;&gt;Node12</title>
<path fill="none" stroke="midnightblue" d="M323.51,-112.444C303.358,-103.596 271.677,-89.6875 248.669,-79.5865"/>
<polygon fill="midnightblue" stroke="midnightblue" points="249.962,-76.3316 239.399,-75.5164 247.148,-82.7411 249.962,-76.3316"/>
</g>
<!-- Node13 -->
<g id="node13" class="node"><title>Node13</title>
<polygon fill="white" stroke="#bfbfbf" points="360.5,-56.5 360.5,-75.5 401.5,-75.5 401.5,-56.5 360.5,-56.5"/>
<text text-anchor="middle" x="381" y="-63.5" font-family="Helvetica,sans-Serif" font-size="10.00">sox.h</text>
</g>
<!-- Node10&#45;&gt;Node13 -->
<g id="edge16" class="edge"><title>Node10&#45;&gt;Node13</title>
<path fill="none" stroke="midnightblue" d="M349.275,-112.083C354.642,-104.455 362.518,-93.2645 369.079,-83.9408"/>
<polygon fill="midnightblue" stroke="midnightblue" points="371.949,-85.9434 374.842,-75.7511 366.225,-81.9149 371.949,-85.9434"/>
</g>
<!-- Node14 -->
<g id="node14" class="node"><title>Node14</title>
<g id="a_node14"><a xlink:href="errors_8hpp.html" target="_top" xlink:title="Declarations of the playd Error exception set. ">
<polygon fill="white" stroke="black" points="269.5,-56.5 269.5,-75.5 342.5,-75.5 342.5,-56.5 269.5,-56.5"/>
<text text-anchor="middle" x="306" y="-63.5" font-family="Helvetica,sans-Serif" font-size="10.00">../errors.hpp</text>
</a>
</g>
</g>
<!-- Node10&#45;&gt;Node14 -->
<g id="edge17" class="edge"><title>Node10&#45;&gt;Node14</title>
<path fill="none" stroke="midnightblue" d="M336.89,-112.083C331.718,-104.534 324.154,-93.4948 317.806,-84.2298"/>
<polygon fill="midnightblue" stroke="midnightblue" points="320.536,-82.0221 311.996,-75.7511 314.761,-85.9787 320.536,-82.0221"/>
</g>
<!-- Node17 -->
<g id="node17" class="node"><title>Node17</title>
<g id="a_node17"><a xlink:href="sample__formats_8hpp.html" target="_top" xlink:title="The SampleFormat enumeration. ">
<polygon fill="white" stroke="black" points="419.5,-56.5 419.5,-75.5 538.5,-75.5 538.5,-56.5 419.5,-56.5"/>
<text text-anchor="middle" x="479" y="-63.5" font-family="Helvetica,sans-Serif" font-size="10.00">../sample_formats.hpp</text>
</a>
</g>
</g>
<!-- Node10&#45;&gt;Node17 -->
<g id="edge20" class="edge"><title>Node10&#45;&gt;Node17</title>
<path fill="none" stroke="midnightblue" d="M364.55,-112.444C387.031,-103.517 422.488,-89.4387 447.98,-79.3168"/>
<polygon fill="midnightblue" stroke="midnightblue" points="449.549,-82.4598 457.551,-75.5164 446.965,-75.9539 449.549,-82.4598"/>
</g>
<!-- Node15 -->
<g id="node15" class="node"><title>Node15</title>
<polygon fill="white" stroke="#bfbfbf" points="314.5,-0.5 314.5,-19.5 371.5,-19.5 371.5,-0.5 314.5,-0.5"/>
<text text-anchor="middle" x="343" y="-7.5" font-family="Helvetica,sans-Serif" font-size="10.00">iostream</text>
</g>
<!-- Node14&#45;&gt;Node15 -->
<g id="edge18" class="edge"><title>Node14&#45;&gt;Node15</title>
<path fill="none" stroke="midnightblue" d="M312.11,-56.083C317.282,-48.5341 324.846,-37.4948 331.194,-28.2298"/>
<polygon fill="midnightblue" stroke="midnightblue" points="334.239,-29.9787 337.004,-19.7511 328.464,-26.0221 334.239,-29.9787"/>
</g>
<!-- Node16 -->
<g id="node16" class="node"><title>Node16</title>
<polygon fill="white" stroke="#bfbfbf" points="242,-0.5 242,-19.5 296,-19.5 296,-0.5 242,-0.5"/>
<text text-anchor="middle" x="269" y="-7.5" font-family="Helvetica,sans-Serif" font-size="10.00">sstream</text>
</g>
<!-- Node14&#45;&gt;Node16 -->
<g id="edge19" class="edge"><title>Node14&#45;&gt;Node16</title>
<path fill="none" stroke="midnightblue" d="M299.89,-56.083C294.718,-48.5341 287.154,-37.4948 280.806,-28.2298"/>
<polygon fill="midnightblue" stroke="midnightblue" points="283.536,-26.0221 274.996,-19.7511 277.761,-29.9787 283.536,-26.0221"/>
</g>
<!-- Node17&#45;&gt;Node3 -->
<g id="edge21" class="edge"><title>Node17&#45;&gt;Node3</title>
<path fill="none" stroke="midnightblue" d="M493.139,-56.324C506.866,-47.9002 527.936,-34.9709 544.064,-25.0741"/>
<polygon fill="midnightblue" stroke="midnightblue" points="546.204,-27.8678 552.896,-19.6545 542.543,-21.9016 546.204,-27.8678"/>
</g>
</g>
</svg>
