<?xml version="1.0" encoding="UTF-8" standalone="no"?>
<!DOCTYPE svg PUBLIC "-//W3C//DTD SVG 1.1//EN"
 "http://www.w3.org/Graphics/SVG/1.1/DTD/svg11.dtd">
<!-- Generated by graphviz version 2.38.0 (20140413.2041)
 -->
<!-- Title: src/audio/audio_source.hpp Pages: 1 -->
<svg width="677pt" height="140pt"
 viewBox="0.00 0.00 676.50 140.00" xmlns="http://www.w3.org/2000/svg" xmlns:xlink="http://www.w3.org/1999/xlink">
<g id="graph0" class="graph" transform="scale(1 1) rotate(0) translate(4 136)">
<title>src/audio/audio_source.hpp</title>
<polygon fill="white" stroke="none" points="-4,4 -4,-136 672.5,-136 672.5,4 -4,4"/>
<!-- Node1 -->
<g id="node1" class="node"><title>Node1</title>
<polygon fill="#bfbfbf" stroke="black" points="194.5,-112.5 194.5,-131.5 340.5,-131.5 340.5,-112.5 194.5,-112.5"/>
<text text-anchor="middle" x="267.5" y="-119.5" font-family="Helvetica,sans-Serif" font-size="10.00">src/audio/audio_source.hpp</text>
</g>
<!-- Node2 -->
<g id="node2" class="node"><title>Node2</title>
<polygon fill="white" stroke="#bfbfbf" points="0,-56.5 0,-75.5 41,-75.5 41,-56.5 0,-56.5"/>
<text text-anchor="middle" x="20.5" y="-63.5" font-family="Helvetica,sans-Serif" font-size="10.00">array</text>
</g>
<!-- Node1&#45;&gt;Node2 -->
<g id="edge1" class="edge"><title>Node1&#45;&gt;Node2</title>
<path fill="none" stroke="midnightblue" d="M220.244,-112.429C178.258,-104.538 115.045,-91.985 50.964,-75.9337"/>
<polygon fill="midnightblue" stroke="midnightblue" points="51.6444,-72.4956 41.0912,-73.4343 49.9264,-79.2815 51.6444,-72.4956"/>
</g>
<!-- Node3 -->
<g id="node3" class="node"><title>Node3</title>
<polygon fill="white" stroke="#bfbfbf" points="59.5,-56.5 59.5,-75.5 109.5,-75.5 109.5,-56.5 59.5,-56.5"/>
<text text-anchor="middle" x="84.5" y="-63.5" font-family="Helvetica,sans-Serif" font-size="10.00">chrono</text>
</g>
<!-- Node1&#45;&gt;Node3 -->
<g id="edge2" class="edge"><title>Node1&#45;&gt;Node3</title>
<path fill="none" stroke="midnightblue" d="M238.503,-112.444C206.123,-102.889 153.739,-87.4312 119.207,-77.2413"/>
<polygon fill="midnightblue" stroke="midnightblue" points="120.12,-73.8618 109.538,-74.3884 118.139,-80.5756 120.12,-73.8618"/>
</g>
<!-- Node4 -->
<g id="node4" class="node"><title>Node4</title>
<polygon fill="white" stroke="#bfbfbf" points="290,-0.5 290,-19.5 337,-19.5 337,-0.5 290,-0.5"/>
<text text-anchor="middle" x="313.5" y="-7.5" font-family="Helvetica,sans-Serif" font-size="10.00">cstdint</text>
</g>
<!-- Node1&#45;&gt;Node4 -->
<g id="edge3" class="edge"><title>Node1&#45;&gt;Node4</title>
<path fill="none" stroke="midnightblue" d="M223.306,-112.472C183.731,-102.792 134.995,-84.5348 156.5,-56 171.328,-36.3254 238.366,-22.6264 279.902,-15.856"/>
<polygon fill="midnightblue" stroke="midnightblue" points="280.533,-19.2999 289.865,-14.2845 279.442,-12.3853 280.533,-19.2999"/>
</g>
<!-- Node5 -->
<g id="node5" class="node"><title>Node5</title>
<polygon fill="white" stroke="#bfbfbf" points="165.5,-56.5 165.5,-75.5 227.5,-75.5 227.5,-56.5 165.5,-56.5"/>
<text text-anchor="middle" x="196.5" y="-63.5" font-family="Helvetica,sans-Serif" font-size="10.00">functional</text>
</g>
<!-- Node1&#45;&gt;Node5 -->
<g id="edge4" class="edge"><title>Node1&#45;&gt;Node5</title>
<path fill="none" stroke="midnightblue" d="M256.093,-112.324C245.391,-104.185 229.159,-91.8395 216.337,-82.0874"/>
<polygon fill="midnightblue" stroke="midnightblue" points="218.193,-79.1018 208.115,-75.8339 213.956,-84.6734 218.193,-79.1018"/>
</g>
<!-- Node6 -->
<g id="node6" class="node"><title>Node6</title>
<polygon fill="white" stroke="#bfbfbf" points="246,-56.5 246,-75.5 289,-75.5 289,-56.5 246,-56.5"/>
<text text-anchor="middle" x="267.5" y="-63.5" font-family="Helvetica,sans-Serif" font-size="10.00">string</text>
</g>
<!-- Node1&#45;&gt;Node6 -->
<g id="edge5" class="edge"><title>Node1&#45;&gt;Node6</title>
<path fill="none" stroke="midnightblue" d="M267.5,-112.083C267.5,-105.006 267.5,-94.8611 267.5,-85.9865"/>
<polygon fill="midnightblue" stroke="midnightblue" points="271,-85.751 267.5,-75.7511 264,-85.7511 271,-85.751"/>
</g>
<!-- Node7 -->
<g id="node7" class="node"><title>Node7</title>
<polygon fill="white" stroke="#bfbfbf" points="307.5,-56.5 307.5,-75.5 353.5,-75.5 353.5,-56.5 307.5,-56.5"/>
<text text-anchor="middle" x="330.5" y="-63.5" font-family="Helvetica,sans-Serif" font-size="10.00">vector</text>
</g>
<!-- Node1&#45;&gt;Node7 -->
<g id="edge6" class="edge"><title>Node1&#45;&gt;Node7</title>
<path fill="none" stroke="midnightblue" d="M277.622,-112.324C287.026,-104.263 301.244,-92.0765 312.569,-82.3695"/>
<polygon fill="midnightblue" stroke="midnightblue" points="314.879,-84.9993 320.194,-75.8339 310.323,-79.6844 314.879,-84.9993"/>
</g>
<!-- Node8 -->
<g id="node8" class="node"><title>Node8</title>
<polygon fill="white" stroke="#bfbfbf" points="372,-56.5 372,-75.5 413,-75.5 413,-56.5 372,-56.5"/>
<text text-anchor="middle" x="392.5" y="-63.5" font-family="Helvetica,sans-Serif" font-size="10.00">sox.h</text>
</g>
<!-- Node1&#45;&gt;Node8 -->
<g id="edge7" class="edge"><title>Node1&#45;&gt;Node8</title>
<path fill="none" stroke="midnightblue" d="M287.307,-112.444C307.787,-103.596 339.983,-89.6875 363.365,-79.5865"/>
<polygon fill="midnightblue" stroke="midnightblue" points="364.994,-82.6953 372.786,-75.5164 362.218,-76.2692 364.994,-82.6953"/>
</g>
<!-- Node9 -->
<g id="node9" class="node"><title>Node9</title>
<g id="a_node9"><a xlink:href="errors_8hpp.html" target="_top" xlink:title="Declarations of the playd Error exception set. ">
<polygon fill="white" stroke="black" points="568,-56.5 568,-75.5 641,-75.5 641,-56.5 568,-56.5"/>
<text text-anchor="middle" x="604.5" y="-63.5" font-family="Helvetica,sans-Serif" font-size="10.00">../errors.hpp</text>
</a>
</g>
</g>
<!-- Node1&#45;&gt;Node9 -->
<g id="edge8" class="edge"><title>Node1&#45;&gt;Node9</title>
<path fill="none" stroke="midnightblue" d="M328.027,-112.474C384.92,-104.278 472.698,-91.1681 557.617,-76.2778"/>
<polygon fill="midnightblue" stroke="midnightblue" points="558.448,-79.6853 567.688,-74.501 557.232,-72.7917 558.448,-79.6853"/>
</g>
<!-- Node12 -->
<g id="node12" class="node"><title>Node12</title>
<g id="a_node12"><a xlink:href="sample__formats_8hpp.html" target="_top" xlink:title="The SampleFormat enumeration. ">
<polygon fill="white" stroke="black" points="431,-56.5 431,-75.5 550,-75.5 550,-56.5 431,-56.5"/>
<text text-anchor="middle" x="490.5" y="-63.5" font-family="Helvetica,sans-Serif" font-size="10.00">../sample_formats.hpp</text>
</a>
</g>
</g>
<!-- Node1&#45;&gt;Node12 -->
<g id="edge11" class="edge"><title>Node1&#45;&gt;Node12</title>
<path fill="none" stroke="midnightblue" d="M302.835,-112.444C341.411,-103.102 403.285,-88.1194 445.353,-77.9326"/>
<polygon fill="midnightblue" stroke="midnightblue" points="446.435,-81.2717 455.33,-75.5164 444.787,-74.4683 446.435,-81.2717"/>
</g>
<!-- Node10 -->
<g id="node10" class="node"><title>Node10</title>
<polygon fill="white" stroke="#bfbfbf" points="539,-0.5 539,-19.5 596,-19.5 596,-0.5 539,-0.5"/>
<text text-anchor="middle" x="567.5" y="-7.5" font-family="Helvetica,sans-Serif" font-size="10.00">iostream</text>
</g>
<!-- Node9&#45;&gt;Node10 -->
<g id="edge9" class="edge"><title>Node9&#45;&gt;Node10</title>
<path fill="none" stroke="midnightblue" d="M598.39,-56.083C593.218,-48.5341 585.654,-37.4948 579.306,-28.2298"/>
<polygon fill="midnightblue" stroke="midnightblue" points="582.036,-26.0221 573.496,-19.7511 576.261,-29.9787 582.036,-26.0221"/>
</g>
<!-- Node11 -->
<g id="node11" class="node"><title>Node11</title>
<polygon fill="white" stroke="#bfbfbf" points="614.5,-0.5 614.5,-19.5 668.5,-19.5 668.5,-0.5 614.5,-0.5"/>
<text text-anchor="middle" x="641.5" y="-7.5" font-family="Helvetica,sans-Serif" font-size="10.00">sstream</text>
</g>
<!-- Node9&#45;&gt;Node11 -->
<g id="edge10" class="edge"><title>Node9&#45;&gt;Node11</title>
<path fill="none" stroke="midnightblue" d="M610.61,-56.083C615.782,-48.5341 623.346,-37.4948 629.694,-28.2298"/>
<polygon fill="midnightblue" stroke="midnightblue" points="632.739,-29.9787 635.504,-19.7511 626.964,-26.0221 632.739,-29.9787"/>
</g>
<!-- Node12&#45;&gt;Node4 -->
<g id="edge12" class="edge"><title>Node12&#45;&gt;Node4</title>
<path fill="none" stroke="midnightblue" d="M462.454,-56.4435C431.093,-46.8758 380.332,-31.3894 346.934,-21.2001"/>
<polygon fill="midnightblue" stroke="midnightblue" points="347.753,-17.7908 337.167,-18.2203 345.71,-24.4861 347.753,-17.7908"/>
</g>
</g>
</svg>
