<?xml version="1.0" encoding="UTF-8" standalone="no"?>
<!DOCTYPE svg PUBLIC "-//W3C//DTD SVG 1.1//EN"
 "http://www.w3.org/Graphics/SVG/1.1/DTD/svg11.dtd">
<!-- Generated by graphviz version 2.38.0 (20140413.2041)
 -->
<!-- Title: src/audio/audio_system.hpp Pages: 1 -->
<!--zoomable 420 -->
<svg id="main" version="1.1" xmlns="http://www.w3.org/2000/svg" xmlns:xlink="http://www.w3.org/1999/xlink" xml:space="preserve" onload="init(evt)">
<style type="text/css"><![CDATA[
.edge:hover path { stroke: red; }
.edge:hover polygon { stroke: red; fill: red; }
]]></style>
<script type="text/javascript"><![CDATA[
var edges = document.getElementsByTagName('g');
if (edges && edges.length) {
  for (var i=0;i<edges.length;i++) {
    if (edges[i].id.substr(0,4)=='edge') {
      edges[i].setAttribute('class','edge');
    }
  }
}
]]></script>
        <defs>
                <circle id="rim" cx="0" cy="0" r="7"/>
                <circle id="rim2" cx="0" cy="0" r="3.5"/>
                <g id="zoomPlus">
                        <use xlink:href="#rim" fill="#404040">
                                <set attributeName="fill" to="#808080" begin="zoomplus.mouseover" end="zoomplus.mouseout"/>
                        </use>
                        <path d="M-4,0h8M0,-4v8" fill="none" stroke="white" stroke-width="1.5" pointer-events="none"/>
                </g>
                <g id="zoomMin">
                        <use xlink:href="#rim" fill="#404040">
                                <set attributeName="fill" to="#808080" begin="zoomminus.mouseover" end="zoomminus.mouseout"/>
                        </use>
                        <path d="M-4,0h8" fill="none" stroke="white" stroke-width="1.5" pointer-events="none"/>
                </g>
                <g id="dirArrow">
                        <path fill="none" stroke="white" stroke-width="1.5" d="M0,-3.0v7 M-2.5,-0.5L0,-3.0L2.5,-0.5"/>
                </g>
               <g id="resetDef">
                       <use xlink:href="#rim2" fill="#404040">
                               <set attributeName="fill" to="#808080" begin="reset.mouseover" end="reset.mouseout"/>
                       </use>
               </g>
        </defs>

<script type="text/javascript">
var viewWidth = 936;
var viewHeight = 420;
var sectionId = 'dynsection-1';
</script>
<script xlink:href="svgpan.js"/>
<svg id="graph" class="graph">
<g id="viewport">
<title>src/audio/audio_system.hpp</title>
<polygon fill="white" stroke="none" points="-4,4 -4,-416 932,-416 932,4 -4,4"/>
<!-- Node1 -->
<g id="node1" class="node"><title>Node1</title>
<polygon fill="#bfbfbf" stroke="black" points="267.5,-392.5 267.5,-411.5 414.5,-411.5 414.5,-392.5 267.5,-392.5"/>
<text text-anchor="middle" x="341" y="-399.5" font-family="Helvetica,sans-Serif" font-size="10.00">src/audio/audio_system.hpp</text>
</g>
<!-- Node2 -->
<g id="node2" class="node"><title>Node2</title>
<g id="a_node2"><a xlink:href="audio__system_8cpp.html" target="_top" xlink:title="Implementation of the AudioSystem class. ">
<polygon fill="white" stroke="black" points="0,-336.5 0,-355.5 146,-355.5 146,-336.5 0,-336.5"/>
<text text-anchor="middle" x="73" y="-343.5" font-family="Helvetica,sans-Serif" font-size="10.00">src/audio/audio_system.cpp</text>
</a>
</g>
</g>
<!-- Node1&#45;&gt;Node2 -->
<g id="edge1" class="edge"><title>Node1&#45;&gt;Node2</title>
<path fill="none" stroke="midnightblue" d="M288.44,-390.41C237.791,-380.204 162.133,-364.96 115.267,-355.516"/>
<polygon fill="midnightblue" stroke="midnightblue" points="288.04,-393.899 298.535,-392.444 289.423,-387.037 288.04,-393.899"/>
</g>
<!-- Node3 -->
<g id="node3" class="node"><title>Node3</title>
<g id="a_node3"><a xlink:href="player__file_8hpp.html" target="_top" xlink:title="Declaration of the PlayerFile class, and associated types. ">
<polygon fill="white" stroke="black" points="273.5,-336.5 273.5,-355.5 408.5,-355.5 408.5,-336.5 273.5,-336.5"/>
<text text-anchor="middle" x="341" y="-343.5" font-family="Helvetica,sans-Serif" font-size="10.00">src/player/player_file.hpp</text>
</a>
</g>
</g>
<!-- Node1&#45;&gt;Node3 -->
<g id="edge2" class="edge"><title>Node1&#45;&gt;Node3</title>
<path fill="none" stroke="midnightblue" d="M341,-381.805C341,-372.91 341,-362.78 341,-355.751"/>
<polygon fill="midnightblue" stroke="midnightblue" points="337.5,-382.083 341,-392.083 344.5,-382.083 337.5,-382.083"/>
</g>
<!-- Node10 -->
<g id="node10" class="node"><title>Node10</title>
<g id="a_node10"><a xlink:href="main_8cpp.html" target="_top" xlink:title="Main entry point and implementation of the playd class. ">
<polygon fill="white" stroke="black" points="335,-0.5 335,-19.5 411,-19.5 411,-0.5 335,-0.5"/>
<text text-anchor="middle" x="373" y="-7.5" font-family="Helvetica,sans-Serif" font-size="10.00">src/main.cpp</text>
</a>
</g>
</g>
<!-- Node1&#45;&gt;Node10 -->
<g id="edge26" class="edge"><title>Node1&#45;&gt;Node10</title>
<path fill="none" stroke="midnightblue" d="M425.18,-393.842C587.521,-378.9 928,-341.538 928,-291 928,-291 928,-291 928,-121 928,-15.4044 536.538,-9.58929 411.147,-10.4352"/>
<polygon fill="midnightblue" stroke="midnightblue" points="424.39,-390.4 414.75,-394.794 425.026,-397.371 424.39,-390.4"/>
</g>
<!-- Node11 -->
<g id="node11" class="node"><title>Node11</title>
<g id="a_node11"><a xlink:href="main_8hpp.html" target="_top" xlink:title="Declaration of the playd class. ">
<polygon fill="white" stroke="black" points="249.5,-56.5 249.5,-75.5 326.5,-75.5 326.5,-56.5 249.5,-56.5"/>
<text text-anchor="middle" x="288" y="-63.5" font-family="Helvetica,sans-Serif" font-size="10.00">src/main.hpp</text>
</a>
</g>
</g>
<!-- Node1&#45;&gt;Node11 -->
<g id="edge27" class="edge"><title>Node1&#45;&gt;Node11</title>
<path fill="none" stroke="midnightblue" d="M288.569,-389.746C239.599,-375.792 174,-346.703 174,-291 174,-291 174,-291 174,-233 174,-161.33 247.103,-97.9964 276.229,-75.6063"/>
<polygon fill="midnightblue" stroke="midnightblue" points="287.859,-393.18 298.427,-392.419 289.691,-386.424 287.859,-393.18"/>
</g>
<!-- Node13 -->
<g id="node13" class="node"><title>Node13</title>
<g id="a_node13"><a xlink:href="player_8cpp.html" target="_top" xlink:title="Main implementation file for the Player class. ">
<polygon fill="white" stroke="black" points="784.5,-224.5 784.5,-243.5 899.5,-243.5 899.5,-224.5 784.5,-224.5"/>
<text text-anchor="middle" x="842" y="-231.5" font-family="Helvetica,sans-Serif" font-size="10.00">src/player/player.cpp</text>
</a>
</g>
</g>
<!-- Node1&#45;&gt;Node13 -->
<g id="edge28" class="edge"><title>Node1&#45;&gt;Node13</title>
<path fill="none" stroke="midnightblue" d="M376.38,-389.277C471.861,-357.641 733.182,-271.055 816.274,-243.524"/>
<polygon fill="midnightblue" stroke="midnightblue" points="375.273,-385.957 366.881,-392.425 377.474,-392.602 375.273,-385.957"/>
</g>
<!-- Node4 -->
<g id="node4" class="node"><title>Node4</title>
<g id="a_node4"><a xlink:href="player_8hpp.html" target="_top" xlink:title="Declaration of the Player class, and associated types. ">
<polygon fill="white" stroke="black" points="354,-280.5 354,-299.5 470,-299.5 470,-280.5 354,-280.5"/>
<text text-anchor="middle" x="412" y="-287.5" font-family="Helvetica,sans-Serif" font-size="10.00">src/player/player.hpp</text>
</a>
</g>
</g>
<!-- Node3&#45;&gt;Node4 -->
<g id="edge3" class="edge"><title>Node3&#45;&gt;Node4</title>
<path fill="none" stroke="midnightblue" d="M360.59,-330.101C373.368,-320.382 389.613,-308.027 400.385,-299.834"/>
<polygon fill="midnightblue" stroke="midnightblue" points="358.248,-327.484 352.407,-336.324 362.486,-333.056 358.248,-327.484"/>
</g>
<!-- Node16 -->
<g id="node16" class="node"><title>Node16</title>
<g id="a_node16"><a xlink:href="player__file_8cpp.html" target="_top" xlink:title="Implementation of the PlayerFile class, and associated types. ">
<polygon fill="white" stroke="black" points="202,-280.5 202,-299.5 336,-299.5 336,-280.5 202,-280.5"/>
<text text-anchor="middle" x="269" y="-287.5" font-family="Helvetica,sans-Serif" font-size="10.00">src/player/player_file.cpp</text>
</a>
</g>
</g>
<!-- Node3&#45;&gt;Node16 -->
<g id="edge25" class="edge"><title>Node3&#45;&gt;Node16</title>
<path fill="none" stroke="midnightblue" d="M321.134,-330.101C308.177,-320.382 291.703,-308.027 280.779,-299.834"/>
<polygon fill="midnightblue" stroke="midnightblue" points="319.332,-333.124 329.432,-336.324 323.532,-327.524 319.332,-333.124"/>
</g>
<!-- Node5 -->
<g id="node5" class="node"><title>Node5</title>
<g id="a_node5"><a xlink:href="cmd_8hpp.html" target="_top" xlink:title="Declaration of the CommandHandler class. ">
<polygon fill="white" stroke="black" points="654,-224.5 654,-243.5 728,-243.5 728,-224.5 654,-224.5"/>
<text text-anchor="middle" x="691" y="-231.5" font-family="Helvetica,sans-Serif" font-size="10.00">src/cmd.hpp</text>
</a>
</g>
</g>
<!-- Node4&#45;&gt;Node5 -->
<g id="edge4" class="edge"><title>Node4&#45;&gt;Node5</title>
<path fill="none" stroke="midnightblue" d="M466.251,-278.561C513.478,-269.464 583.774,-255.902 645,-244 647.876,-243.441 650.852,-242.861 653.844,-242.278"/>
<polygon fill="midnightblue" stroke="midnightblue" points="465.398,-275.161 456.24,-280.489 466.722,-282.035 465.398,-275.161"/>
</g>
<!-- Node7 -->
<g id="node7" class="node"><title>Node7</title>
<g id="a_node7"><a xlink:href="io__reactor_8cpp.html" target="_top" xlink:title="Implementation of the non&#45;virtual aspects of the IoReactor class. ">
<polygon fill="white" stroke="black" points="545.5,-56.5 545.5,-75.5 658.5,-75.5 658.5,-56.5 545.5,-56.5"/>
<text text-anchor="middle" x="602" y="-63.5" font-family="Helvetica,sans-Serif" font-size="10.00">src/io/io_reactor.cpp</text>
</a>
</g>
</g>
<!-- Node4&#45;&gt;Node7 -->
<g id="edge18" class="edge"><title>Node4&#45;&gt;Node7</title>
<path fill="none" stroke="midnightblue" d="M480.405,-289.611C565.735,-288.742 704.418,-281.404 737,-244 790.688,-182.366 663.519,-101.759 617.686,-75.5984"/>
<polygon fill="midnightblue" stroke="midnightblue" points="480.247,-286.112 470.274,-289.687 480.299,-293.112 480.247,-286.112"/>
</g>
<!-- Node9 -->
<g id="node9" class="node"><title>Node9</title>
<g id="a_node9"><a xlink:href="io__reactor_8hpp.html" target="_top" xlink:title="Declaration of the IoReactor class. ">
<polygon fill="white" stroke="black" points="316.5,-112.5 316.5,-131.5 429.5,-131.5 429.5,-112.5 316.5,-112.5"/>
<text text-anchor="middle" x="373" y="-119.5" font-family="Helvetica,sans-Serif" font-size="10.00">src/io/io_reactor.hpp</text>
</a>
</g>
</g>
<!-- Node4&#45;&gt;Node9 -->
<g id="edge19" class="edge"><title>Node4&#45;&gt;Node9</title>
<path fill="none" stroke="midnightblue" d="M353.306,-277.165C335.395,-270.507 317.64,-260.135 307,-244 280.523,-203.847 336.31,-152.154 361.503,-131.795"/>
<polygon fill="midnightblue" stroke="midnightblue" points="352.635,-280.632 363.229,-280.495 354.862,-273.996 352.635,-280.632"/>
</g>
<!-- Node4&#45;&gt;Node10 -->
<g id="edge21" class="edge"><title>Node4&#45;&gt;Node10</title>
<path fill="none" stroke="midnightblue" d="M344.081,-278.56C321.915,-272.009 298.932,-261.349 283,-244 230.867,-187.233 249.631,-152.47 240,-76 238.889,-67.1808 234.819,-63.2227 240,-56 261.384,-26.1905 303.592,-15.8777 334.749,-12.4405"/>
<polygon fill="midnightblue" stroke="midnightblue" points="343.275,-281.968 353.842,-281.206 345.107,-275.212 343.275,-281.968"/>
</g>
<!-- Node4&#45;&gt;Node11 -->
<g id="edge20" class="edge"><title>Node4&#45;&gt;Node11</title>
<path fill="none" stroke="midnightblue" d="M346.342,-277.411C327.455,-270.785 308.793,-260.369 297,-244 258.691,-190.825 277.9,-103.604 285.434,-75.803"/>
<polygon fill="midnightblue" stroke="midnightblue" points="345.312,-280.757 355.902,-280.456 347.436,-274.087 345.312,-280.757"/>
</g>
<!-- Node4&#45;&gt;Node13 -->
<g id="edge22" class="edge"><title>Node4&#45;&gt;Node13</title>
<path fill="none" stroke="midnightblue" d="M480.399,-280.41C564.453,-269.855 705.586,-252.131 784.375,-242.237"/>
<polygon fill="midnightblue" stroke="midnightblue" points="479.925,-276.942 470.439,-281.661 480.797,-283.888 479.925,-276.942"/>
</g>
<!-- Node14 -->
<g id="node14" class="node"><title>Node14</title>
<g id="a_node14"><a xlink:href="player__position_8cpp.html" target="_top" xlink:title="Implementation of the PlayerPosition class, and related Player methods. ">
<polygon fill="white" stroke="black" points="316,-224.5 316,-243.5 474,-243.5 474,-224.5 316,-224.5"/>
<text text-anchor="middle" x="395" y="-231.5" font-family="Helvetica,sans-Serif" font-size="10.00">src/player/player_position.cpp</text>
</a>
</g>
</g>
<!-- Node4&#45;&gt;Node14 -->
<g id="edge23" class="edge"><title>Node4&#45;&gt;Node14</title>
<path fill="none" stroke="midnightblue" d="M406.143,-270.396C403.299,-261.362 400.017,-250.936 397.755,-243.751"/>
<polygon fill="midnightblue" stroke="midnightblue" points="402.851,-271.596 409.193,-280.083 409.528,-269.493 402.851,-271.596"/>
</g>
<!-- Node15 -->
<g id="node15" class="node"><title>Node15</title>
<g id="a_node15"><a xlink:href="player__state_8cpp.html" target="_top" xlink:title="Implementation of the PlayerState class, and related Player methods. ">
<polygon fill="white" stroke="black" points="492,-224.5 492,-243.5 636,-243.5 636,-224.5 492,-224.5"/>
<text text-anchor="middle" x="564" y="-231.5" font-family="Helvetica,sans-Serif" font-size="10.00">src/player/player_state.cpp</text>
</a>
</g>
</g>
<!-- Node4&#45;&gt;Node15 -->
<g id="edge24" class="edge"><title>Node4&#45;&gt;Node15</title>
<path fill="none" stroke="midnightblue" d="M445.668,-277.039C474.268,-266.879 514.612,-252.546 540.028,-243.516"/>
<polygon fill="midnightblue" stroke="midnightblue" points="444.336,-273.798 436.085,-280.444 446.68,-280.394 444.336,-273.798"/>
</g>
<!-- Node6 -->
<g id="node6" class="node"><title>Node6</title>
<g id="a_node6"><a xlink:href="cmd_8cpp.html" target="_top" xlink:title="Implementation of the CommandHandler class. ">
<polygon fill="white" stroke="black" points="623.5,-168.5 623.5,-187.5 696.5,-187.5 696.5,-168.5 623.5,-168.5"/>
<text text-anchor="middle" x="660" y="-175.5" font-family="Helvetica,sans-Serif" font-size="10.00">src/cmd.cpp</text>
</a>
</g>
</g>
<!-- Node5&#45;&gt;Node6 -->
<g id="edge5" class="edge"><title>Node5&#45;&gt;Node6</title>
<path fill="none" stroke="midnightblue" d="M680.824,-215.275C675.526,-206.045 669.283,-195.17 665.024,-187.751"/>
<polygon fill="midnightblue" stroke="midnightblue" points="677.867,-217.153 685.881,-224.083 683.938,-213.668 677.867,-217.153"/>
</g>
<!-- Node5&#45;&gt;Node7 -->
<g id="edge6" class="edge"><title>Node5&#45;&gt;Node7</title>
<path fill="none" stroke="midnightblue" d="M655.206,-220.243C640.337,-213.086 624.391,-202.599 615,-188 591.797,-151.929 597.218,-96.9795 600.457,-75.7732"/>
<polygon fill="midnightblue" stroke="midnightblue" points="654.181,-223.617 664.741,-224.475 657.02,-217.219 654.181,-223.617"/>
</g>
<!-- Node8 -->
<g id="node8" class="node"><title>Node8</title>
<g id="a_node8"><a xlink:href="tokeniser_8hpp.html" target="_top" xlink:title="Declaration of the Tokeniser class. ">
<polygon fill="white" stroke="black" points="419.5,-168.5 419.5,-187.5 528.5,-187.5 528.5,-168.5 419.5,-168.5"/>
<text text-anchor="middle" x="474" y="-175.5" font-family="Helvetica,sans-Serif" font-size="10.00">src/io/tokeniser.hpp</text>
</a>
</g>
</g>
<!-- Node5&#45;&gt;Node8 -->
<g id="edge7" class="edge"><title>Node5&#45;&gt;Node8</title>
<path fill="none" stroke="midnightblue" d="M646.892,-222.024C605.9,-211.823 545.696,-196.841 508.223,-187.516"/>
<polygon fill="midnightblue" stroke="midnightblue" points="646.066,-225.425 656.616,-224.444 647.757,-218.632 646.066,-225.425"/>
</g>
<!-- Node5&#45;&gt;Node10 -->
<g id="edge16" class="edge"><title>Node5&#45;&gt;Node10</title>
<path fill="none" stroke="midnightblue" d="M698.556,-214.782C701.508,-206.725 704.532,-197.043 706,-188 715.779,-127.739 714.79,-95.2139 668,-56 629.733,-23.9286 481.854,-14.6416 411.117,-12.0102"/>
<polygon fill="midnightblue" stroke="midnightblue" points="695.237,-213.661 694.856,-224.249 701.756,-216.209 695.237,-213.661"/>
</g>
<!-- Node5&#45;&gt;Node11 -->
<g id="edge17" class="edge"><title>Node5&#45;&gt;Node11</title>
<path fill="none" stroke="midnightblue" d="M643.869,-223.906C539.431,-206.79 507.752,-220.417 411,-188 361.223,-171.322 340.035,-172.8 307,-132 293.387,-115.187 289.527,-88.9638 288.433,-75.5429"/>
<polygon fill="midnightblue" stroke="midnightblue" points="643.423,-227.38 653.867,-225.601 644.593,-220.478 643.423,-227.38"/>
</g>
<!-- Node12 -->
<g id="node12" class="node"><title>Node12</title>
<g id="a_node12"><a xlink:href="tokeniser_8cpp.html" target="_top" xlink:title="Definition of the Tokeniser class. ">
<polygon fill="white" stroke="black" points="466,-112.5 466,-131.5 574,-131.5 574,-112.5 466,-112.5"/>
<text text-anchor="middle" x="520" y="-119.5" font-family="Helvetica,sans-Serif" font-size="10.00">src/io/tokeniser.cpp</text>
</a>
</g>
</g>
<!-- Node5&#45;&gt;Node12 -->
<g id="edge15" class="edge"><title>Node5&#45;&gt;Node12</title>
<path fill="none" stroke="midnightblue" d="M650.692,-221.173C628.918,-213.67 602.226,-202.607 581,-188 557.542,-171.858 536.292,-145.341 526.195,-131.702"/>
<polygon fill="midnightblue" stroke="midnightblue" points="649.72,-224.538 660.314,-224.369 651.927,-217.895 649.72,-224.538"/>
</g>
<!-- Node8&#45;&gt;Node9 -->
<g id="edge8" class="edge"><title>Node8&#45;&gt;Node9</title>
<path fill="none" stroke="midnightblue" d="M448.917,-163.59C430.243,-153.605 405.296,-140.267 389.187,-131.655"/>
<polygon fill="midnightblue" stroke="midnightblue" points="447.304,-166.696 457.773,-168.324 450.604,-160.522 447.304,-166.696"/>
</g>
<!-- Node8&#45;&gt;Node12 -->
<g id="edge14" class="edge"><title>Node8&#45;&gt;Node12</title>
<path fill="none" stroke="midnightblue" d="M488.114,-160.431C496.176,-150.967 505.959,-139.483 512.545,-131.751"/>
<polygon fill="midnightblue" stroke="midnightblue" points="485.416,-158.201 481.596,-168.083 490.745,-162.74 485.416,-158.201"/>
</g>
<!-- Node9&#45;&gt;Node7 -->
<g id="edge9" class="edge"><title>Node9&#45;&gt;Node7</title>
<path fill="none" stroke="midnightblue" d="M419.273,-110.088C462.537,-99.8865 526.255,-84.8612 565.884,-75.5164"/>
<polygon fill="midnightblue" stroke="midnightblue" points="418.215,-106.742 409.286,-112.444 419.822,-113.555 418.215,-106.742"/>
</g>
<!-- Node9&#45;&gt;Node9 -->
<g id="edge10" class="edge"><title>Node9&#45;&gt;Node9</title>
<path fill="none" stroke="midnightblue" d="M414.782,-132.393C432.453,-133.17 447.5,-129.706 447.5,-122 447.5,-112.867 426.364,-109.692 404.774,-112.475"/>
<polygon fill="midnightblue" stroke="midnightblue" points="415.039,-128.902 404.774,-131.525 414.435,-135.876 415.039,-128.902"/>
</g>
<!-- Node9&#45;&gt;Node10 -->
<g id="edge11" class="edge"><title>Node9&#45;&gt;Node10</title>
<path fill="none" stroke="midnightblue" d="M373,-102.348C373,-78.2538 373,-37.3079 373,-19.5914"/>
<polygon fill="midnightblue" stroke="midnightblue" points="369.5,-102.368 373,-112.368 376.5,-102.369 369.5,-102.368"/>
</g>
<!-- Node9&#45;&gt;Node11 -->
<g id="edge12" class="edge"><title>Node9&#45;&gt;Node11</title>
<path fill="none" stroke="midnightblue" d="M350.806,-106.901C335.22,-96.9986 314.87,-84.0705 301.623,-75.6545"/>
<polygon fill="midnightblue" stroke="midnightblue" points="349.026,-109.916 359.343,-112.324 352.779,-104.007 349.026,-109.916"/>
</g>
<!-- Node11&#45;&gt;Node10 -->
<g id="edge13" class="edge"><title>Node11&#45;&gt;Node10</title>
<path fill="none" stroke="midnightblue" d="M310.194,-50.9005C325.78,-40.9986 346.13,-28.0705 359.377,-19.6545"/>
<polygon fill="midnightblue" stroke="midnightblue" points="308.221,-48.0073 301.657,-56.324 311.974,-53.9158 308.221,-48.0073"/>
</g>
</g>
</svg>
        <g id="navigator" transform="translate(0 0)" fill="#404254">
                <rect fill="#f2f5e9" fill-opacity="0.5" stroke="#606060" stroke-width=".5" x="0" y="0" width="60" height="60"/>
                <use id="zoomplus" xlink:href="#zoomPlus" x="17" y="9" onmousedown="handleZoom(evt,'in')"/>
                <use id="zoomminus" xlink:href="#zoomMin" x="42" y="9" onmousedown="handleZoom(evt,'out')"/>
                <use id="reset" xlink:href="#resetDef" x="30" y="36" onmousedown="handleReset()"/>
                <g id="arrowUp" xlink:href="#dirArrow" transform="translate(30 24)" onmousedown="handlePan(0,-1)">
                  <use xlink:href="#rim" fill="#404040">
                        <set attributeName="fill" to="#808080" begin="arrowUp.mouseover" end="arrowUp.mouseout"/>
                  </use>
                  <path fill="none" stroke="white" stroke-width="1.5" d="M0,-3.0v7 M-2.5,-0.5L0,-3.0L2.5,-0.5"/>
                </g>
                <g id="arrowRight" xlink:href="#dirArrow" transform="rotate(90) translate(36 -43)" onmousedown="handlePan(1,0)">
                  <use xlink:href="#rim" fill="#404040">
                        <set attributeName="fill" to="#808080" begin="arrowRight.mouseover" end="arrowRight.mouseout"/>
                  </use>
                  <path fill="none" stroke="white" stroke-width="1.5" d="M0,-3.0v7 M-2.5,-0.5L0,-3.0L2.5,-0.5"/>
                </g>
                <g id="arrowDown" xlink:href="#dirArrow" transform="rotate(180) translate(-30 -48)" onmousedown="handlePan(0,1)">
                  <use xlink:href="#rim" fill="#404040">
                        <set attributeName="fill" to="#808080" begin="arrowDown.mouseover" end="arrowDown.mouseout"/>
                  </use>
                  <path fill="none" stroke="white" stroke-width="1.5" d="M0,-3.0v7 M-2.5,-0.5L0,-3.0L2.5,-0.5"/>
                </g>
                <g id="arrowLeft" xlink:href="#dirArrow" transform="rotate(270) translate(-36 17)" onmousedown="handlePan(-1,0)">
                  <use xlink:href="#rim" fill="#404040">
                        <set attributeName="fill" to="#808080" begin="arrowLeft.mouseover" end="arrowLeft.mouseout"/>
                  </use>
                  <path fill="none" stroke="white" stroke-width="1.5" d="M0,-3.0v7 M-2.5,-0.5L0,-3.0L2.5,-0.5"/>
                </g>
        </g>
        <svg viewBox="0 0 15 15" width="100%" height="30px" preserveAspectRatio="xMaxYMin meet">
         <g id="arrow_out" transform="scale(0.3 0.3)">
          <a xlink:href="audio__system_8hpp__dep__incl_org.svg" target="_base">
           <rect id="button" ry="5" rx="5" y="6" x="6" height="38" width="38"
                fill="#f2f5e9" fill-opacity="0.5" stroke="#606060" stroke-width="1.0"/>
           <path id="arrow"
             d="M 11.500037,31.436501 C 11.940474,20.09759 22.043105,11.32322 32.158766,21.979434 L 37.068811,17.246167 C 37.068811,17.246167 37.088388,32 37.088388,32 L 22.160133,31.978069 C 22.160133,31.978069 26.997745,27.140456 26.997745,27.140456 C 18.528582,18.264221 13.291696,25.230495 11.500037,31.436501 z"
             style="fill:#404040;"/>
          </a>
         </g>
        </svg>
</svg>
