<?xml version="1.0" encoding="UTF-8" standalone="no"?>
<!DOCTYPE svg PUBLIC "-//W3C//DTD SVG 1.1//EN"
 "http://www.w3.org/Graphics/SVG/1.1/DTD/svg11.dtd">
<!-- Generated by graphviz version 2.38.0 (20140413.2041)
 -->
<!-- Title: TcpResponseSink Pages: 1 -->
<svg width="1911pt" height="608pt"
 viewBox="0.00 0.00 1911.00 607.50" xmlns="http://www.w3.org/2000/svg" xmlns:xlink="http://www.w3.org/1999/xlink">
<g id="graph0" class="graph" transform="scale(1 1) rotate(0) translate(4 603.5)">
<title>TcpResponseSink</title>
<polygon fill="white" stroke="none" points="-4,4 -4,-603.5 1907,-603.5 1907,4 -4,4"/>
<!-- Node1 -->
<g id="node1" class="node"><title>Node1</title>
<polygon fill="#bfbfbf" stroke="black" points="1800,-282.5 1800,-301.5 1903,-301.5 1903,-282.5 1800,-282.5"/>
<text text-anchor="middle" x="1851.5" y="-289.5" font-family="Helvetica,sans-Serif" font-size="10.00">TcpResponseSink</text>
</g>
<!-- Node2 -->
<g id="node2" class="node"><title>Node2</title>
<g id="a_node2"><a xlink:href="classResponseSink.html" target="_top" xlink:title="Abstract class for anything that can be sent a response. ">
<polygon fill="white" stroke="black" points="585,-291.5 585,-310.5 670,-310.5 670,-291.5 585,-291.5"/>
<text text-anchor="middle" x="627.5" y="-298.5" font-family="Helvetica,sans-Serif" font-size="10.00">ResponseSink</text>
</a>
</g>
</g>
<!-- Node2&#45;&gt;Node1 -->
<g id="edge1" class="edge"><title>Node2&#45;&gt;Node1</title>
<path fill="none" stroke="midnightblue" d="M641.908,-319.119C652.966,-332.992 669.755,-351.766 688,-364 740.408,-399.143 757.399,-415 820.5,-415 820.5,-415 820.5,-415 1686,-415 1761.6,-415 1824.8,-330.648 1844.29,-301.652"/>
<polygon fill="midnightblue" stroke="midnightblue" points="644.39,-316.607 635.511,-310.828 638.848,-320.883 644.39,-316.607"/>
</g>
<!-- Node3 -->
<g id="node3" class="node"><title>Node3</title>
<g id="a_node3"><a xlink:href="classTokeniser.html" target="_top" xlink:title="A string tokeniser. ">
<polygon fill="white" stroke="black" points="1653,-127.5 1653,-146.5 1717,-146.5 1717,-127.5 1653,-127.5"/>
<text text-anchor="middle" x="1685" y="-134.5" font-family="Helvetica,sans-Serif" font-size="10.00">Tokeniser</text>
</a>
</g>
</g>
<!-- Node2&#45;&gt;Node3 -->
<g id="edge3" class="edge"><title>Node2&#45;&gt;Node3</title>
<path fill="none" stroke="#9a32cd" stroke-dasharray="5,2" d="M630.045,-281.063C633.762,-248.081 646.279,-182.665 688,-151 735.169,-115.2 761.283,-137 820.5,-137 820.5,-137 820.5,-137 1482.5,-137 1542.85,-137 1613.36,-137 1652.93,-137"/>
<polygon fill="#9a32cd" stroke="#9a32cd" points="626.537,-280.979 629.064,-291.268 633.505,-281.649 626.537,-280.979"/>
<text text-anchor="middle" x="1236.5" y="-140" font-family="Helvetica,sans-Serif" font-size="10.00"> response_sink</text>
</g>
<!-- Node8 -->
<g id="node8" class="node"><title>Node8</title>
<g id="a_node8"><a xlink:href="classPlayer.html" target="_top" xlink:title="A Player contains a loaded audio file and the state of its playback. ">
<polygon fill="white" stroke="black" points="1291,-247.5 1291,-266.5 1338,-266.5 1338,-247.5 1291,-247.5"/>
<text text-anchor="middle" x="1314.5" y="-254.5" font-family="Helvetica,sans-Serif" font-size="10.00">Player</text>
</a>
</g>
</g>
<!-- Node2&#45;&gt;Node8 -->
<g id="edge11" class="edge"><title>Node2&#45;&gt;Node8</title>
<path fill="none" stroke="#9a32cd" stroke-dasharray="5,2" d="M659.377,-287.492C709.522,-266.369 812.3,-226.444 904,-212 1050.6,-188.908 1228.58,-232.815 1290.76,-250.28"/>
<polygon fill="#9a32cd" stroke="#9a32cd" points="657.9,-284.316 650.069,-291.452 660.641,-290.757 657.9,-284.316"/>
<text text-anchor="middle" x="968" y="-215" font-family="Helvetica,sans-Serif" font-size="10.00"> end_sink</text>
</g>
<!-- Node11 -->
<g id="node11" class="node"><title>Node11</title>
<g id="a_node11"><a xlink:href="classResponseSource.html" target="_top" xlink:title="Abstract helper class for sources of responses. ">
<polygon fill="white" stroke="black" points="772.5,-291.5 772.5,-310.5 870.5,-310.5 870.5,-291.5 772.5,-291.5"/>
<text text-anchor="middle" x="821.5" y="-298.5" font-family="Helvetica,sans-Serif" font-size="10.00">ResponseSource</text>
</a>
</g>
</g>
<!-- Node2&#45;&gt;Node11 -->
<g id="edge14" class="edge"><title>Node2&#45;&gt;Node11</title>
<path fill="none" stroke="#9a32cd" stroke-dasharray="5,2" d="M680.396,-301C709.072,-301 744.456,-301 772.49,-301"/>
<polygon fill="#9a32cd" stroke="#9a32cd" points="680.161,-297.5 670.161,-301 680.161,-304.5 680.161,-297.5"/>
<text text-anchor="middle" x="713.5" y="-304" font-family="Helvetica,sans-Serif" font-size="10.00"> push_sink</text>
</g>
<!-- Node27 -->
<g id="node27" class="node"><title>Node27</title>
<g id="a_node27"><a xlink:href="classIoReactor.html" target="_top" xlink:title="The IO reactor, which services input, routes responses, and executes the Player update routine period...">
<polygon fill="white" stroke="black" points="1653.5,-282.5 1653.5,-301.5 1716.5,-301.5 1716.5,-282.5 1653.5,-282.5"/>
<text text-anchor="middle" x="1685" y="-289.5" font-family="Helvetica,sans-Serif" font-size="10.00">IoReactor</text>
</a>
</g>
</g>
<!-- Node2&#45;&gt;Node27 -->
<g id="edge35" class="edge"><title>Node2&#45;&gt;Node27</title>
<path fill="none" stroke="midnightblue" d="M650.613,-316.133C685.22,-338.301 755.011,-377 820.5,-377 820.5,-377 820.5,-377 1482.5,-377 1559.19,-377 1640.31,-324.077 1671.12,-301.751"/>
<polygon fill="midnightblue" stroke="midnightblue" points="652.489,-313.178 642.207,-310.625 648.653,-319.033 652.489,-313.178"/>
</g>
<!-- Node3&#45;&gt;Node1 -->
<g id="edge2" class="edge"><title>Node3&#45;&gt;Node1</title>
<path fill="none" stroke="#9a32cd" stroke-dasharray="5,2" d="M1703.74,-153.712C1738.12,-186.112 1812.87,-256.542 1840.21,-282.308"/>
<polygon fill="#9a32cd" stroke="#9a32cd" points="1705.97,-151.006 1696.29,-146.696 1701.17,-156.101 1705.97,-151.006"/>
<text text-anchor="middle" x="1758.5" y="-227" font-family="Helvetica,sans-Serif" font-size="10.00"> tokeniser</text>
</g>
<!-- Node4 -->
<g id="node4" class="node"><title>Node4</title>
<g id="a_node4"><a xlink:title="STL class. ">
<polygon fill="white" stroke="#bfbfbf" points="596.5,-56.5 596.5,-75.5 658.5,-75.5 658.5,-56.5 596.5,-56.5"/>
<text text-anchor="middle" x="627.5" y="-63.5" font-family="Helvetica,sans-Serif" font-size="10.00">std::string</text>
</a>
</g>
</g>
<!-- Node4&#45;&gt;Node3 -->
<g id="edge4" class="edge"><title>Node4&#45;&gt;Node3</title>
<path fill="none" stroke="#9a32cd" stroke-dasharray="5,2" d="M669.039,-60.3167C707.834,-55.3745 768.042,-49 820.5,-49 820.5,-49 820.5,-49 1482.5,-49 1559.99,-49 1641.29,-104.334 1671.63,-127.246"/>
<polygon fill="#9a32cd" stroke="#9a32cd" points="668.152,-56.9026 658.688,-61.6662 669.057,-63.8439 668.152,-56.9026"/>
<text text-anchor="middle" x="1236.5" y="-52" font-family="Helvetica,sans-Serif" font-size="10.00"> current_word</text>
</g>
<!-- Node6 -->
<g id="node6" class="node"><title>Node6</title>
<polygon fill="white" stroke="#bfbfbf" points="904,-0.5 904,-19.5 1032,-19.5 1032,-0.5 904,-0.5"/>
<text text-anchor="middle" x="968" y="-7.5" font-family="Helvetica,sans-Serif" font-size="10.00">std::vector&lt; std::string &gt;</text>
</g>
<!-- Node4&#45;&gt;Node6 -->
<g id="edge7" class="edge"><title>Node4&#45;&gt;Node6</title>
<path fill="none" stroke="#9a32cd" stroke-dasharray="5,2" d="M646.085,-49.5373C657.202,-40.2244 672.38,-29.3921 688,-24 758.943,0.490202 846.067,0.487884 903.886,-3.34487"/>
<polygon fill="#9a32cd" stroke="#9a32cd" points="643.645,-47.0219 638.436,-56.2475 648.261,-52.2842 643.645,-47.0219"/>
<text text-anchor="middle" x="713.5" y="-27" font-family="Helvetica,sans-Serif" font-size="10.00"> elements</text>
</g>
<!-- Node23 -->
<g id="node23" class="node"><title>Node23</title>
<g id="a_node23"><a xlink:href="classAudioSystem.html" target="_top" xlink:title="An AudioSystem represents the entire audio stack used by playd. ">
<polygon fill="white" stroke="black" points="783,-165.5 783,-184.5 860,-184.5 860,-165.5 783,-165.5"/>
<text text-anchor="middle" x="821.5" y="-172.5" font-family="Helvetica,sans-Serif" font-size="10.00">AudioSystem</text>
</a>
</g>
</g>
<!-- Node4&#45;&gt;Node23 -->
<g id="edge27" class="edge"><title>Node4&#45;&gt;Node23</title>
<path fill="none" stroke="#9a32cd" stroke-dasharray="5,2" d="M654.416,-80.7128C694.341,-103.379 769.8,-146.217 803.499,-165.349"/>
<polygon fill="#9a32cd" stroke="#9a32cd" points="655.963,-77.5663 645.539,-75.673 652.507,-83.6538 655.963,-77.5663"/>
<text text-anchor="middle" x="713.5" y="-131" font-family="Helvetica,sans-Serif" font-size="10.00"> device_id</text>
</g>
<!-- Node25 -->
<g id="node25" class="node"><title>Node25</title>
<polygon fill="white" stroke="#bfbfbf" points="767,-78 767,-108 876,-108 876,-78 767,-78"/>
<text text-anchor="start" x="775" y="-96" font-family="Helvetica,sans-Serif" font-size="10.00">std::map&lt; State, std</text>
<text text-anchor="middle" x="821.5" y="-85" font-family="Helvetica,sans-Serif" font-size="10.00">::string &gt;</text>
</g>
<!-- Node4&#45;&gt;Node25 -->
<g id="edge31" class="edge"><title>Node4&#45;&gt;Node25</title>
<path fill="none" stroke="#9a32cd" stroke-dasharray="5,2" d="M668.945,-71.6876C697.46,-75.6976 735.946,-81.1097 766.999,-85.4765"/>
<polygon fill="#9a32cd" stroke="#9a32cd" points="669.313,-68.205 658.923,-70.2782 668.338,-75.1368 669.313,-68.205"/>
<text text-anchor="middle" x="713.5" y="-85" font-family="Helvetica,sans-Serif" font-size="10.00"> elements</text>
</g>
<!-- Node5 -->
<g id="node5" class="node"><title>Node5</title>
<g id="a_node5"><a xlink:title="STL class. ">
<polygon fill="white" stroke="#bfbfbf" points="384,-51 384,-81 482,-81 482,-51 384,-51"/>
<text text-anchor="start" x="392" y="-69" font-family="Helvetica,sans-Serif" font-size="10.00">std::basic_string&lt;</text>
<text text-anchor="middle" x="433" y="-58" font-family="Helvetica,sans-Serif" font-size="10.00"> char &gt;</text>
</a>
</g>
</g>
<!-- Node5&#45;&gt;Node4 -->
<g id="edge5" class="edge"><title>Node5&#45;&gt;Node4</title>
<path fill="none" stroke="midnightblue" d="M492.457,-66C526.763,-66 568.683,-66 596.41,-66"/>
<polygon fill="midnightblue" stroke="midnightblue" points="492.079,-62.5001 482.079,-66 492.079,-69.5001 492.079,-62.5001"/>
</g>
<!-- Node6&#45;&gt;Node3 -->
<g id="edge6" class="edge"><title>Node6&#45;&gt;Node3</title>
<path fill="none" stroke="#9a32cd" stroke-dasharray="5,2" d="M1042.35,-10C1095.88,-10 1170.19,-10 1235.5,-10 1235.5,-10 1235.5,-10 1482.5,-10 1551.18,-10 1580.02,6.16675 1635,-35 1666.14,-58.3149 1678.42,-106.582 1682.39,-127.256"/>
<polygon fill="#9a32cd" stroke="#9a32cd" points="1042.27,-6.5001 1032.27,-10 1042.27,-13.5001 1042.27,-6.5001"/>
<text text-anchor="middle" x="1314.5" y="-13" font-family="Helvetica,sans-Serif" font-size="10.00"> words</text>
</g>
<!-- Node7 -->
<g id="node7" class="node"><title>Node7</title>
<g id="a_node7"><a xlink:href="classCommandHandler.html" target="_top" xlink:title="The playd command handler. ">
<polygon fill="white" stroke="black" points="1430.5,-212.5 1430.5,-231.5 1532.5,-231.5 1532.5,-212.5 1430.5,-212.5"/>
<text text-anchor="middle" x="1481.5" y="-219.5" font-family="Helvetica,sans-Serif" font-size="10.00">CommandHandler</text>
</a>
</g>
</g>
<!-- Node7&#45;&gt;Node3 -->
<g id="edge8" class="edge"><title>Node7&#45;&gt;Node3</title>
<path fill="none" stroke="#9a32cd" stroke-dasharray="5,2" d="M1514.49,-208.507C1555.47,-191.218 1625.49,-161.682 1661.36,-146.55"/>
<polygon fill="#9a32cd" stroke="#9a32cd" points="1513.08,-205.303 1505.22,-212.415 1515.8,-211.753 1513.08,-205.303"/>
<text text-anchor="middle" x="1604.5" y="-186" font-family="Helvetica,sans-Serif" font-size="10.00"> handler</text>
</g>
<!-- Node7&#45;&gt;Node27 -->
<g id="edge38" class="edge"><title>Node7&#45;&gt;Node27</title>
<path fill="none" stroke="#9a32cd" stroke-dasharray="5,2" d="M1539.65,-233.936C1568.81,-240.97 1604.47,-251.048 1635,-264 1647.09,-269.128 1659.95,-276.559 1669.46,-282.477"/>
<polygon fill="#9a32cd" stroke="#9a32cd" points="1540.16,-230.461 1529.63,-231.575 1538.56,-237.275 1540.16,-230.461"/>
<text text-anchor="middle" x="1604.5" y="-267" font-family="Helvetica,sans-Serif" font-size="10.00"> handler</text>
</g>
<!-- Node8&#45;&gt;Node7 -->
<g id="edge9" class="edge"><title>Node8&#45;&gt;Node7</title>
<path fill="none" stroke="#9a32cd" stroke-dasharray="5,2" d="M1348.16,-250.072C1373.15,-244.772 1407.89,-237.402 1435.51,-231.543"/>
<polygon fill="#9a32cd" stroke="#9a32cd" points="1347.15,-246.708 1338.1,-252.207 1348.61,-253.555 1347.15,-246.708"/>
<text text-anchor="middle" x="1372.5" y="-251" font-family="Helvetica,sans-Serif" font-size="10.00"> player</text>
</g>
<!-- Node8&#45;&gt;Node27 -->
<g id="edge36" class="edge"><title>Node8&#45;&gt;Node27</title>
<path fill="none" stroke="#9a32cd" stroke-dasharray="5,2" d="M1346.46,-270.623C1363.9,-277.664 1386.27,-285.67 1407,-290 1506.31,-310.747 1533.97,-310.202 1635,-301 1640.94,-300.459 1647.24,-299.555 1653.27,-298.525"/>
<polygon fill="#9a32cd" stroke="#9a32cd" points="1347.4,-267.221 1336.82,-266.624 1344.71,-273.687 1347.4,-267.221"/>
<text text-anchor="middle" x="1481.5" y="-311" font-family="Helvetica,sans-Serif" font-size="10.00"> player</text>
</g>
<!-- Node9 -->
<g id="node9" class="node"><title>Node9</title>
<g id="a_node9"><a xlink:href="classTimeParser.html" target="_top" xlink:title="TimeParser\&lt; std::chrono\l::microseconds \&gt;">
<polygon fill="white" stroke="black" points="1050,-242 1050,-272 1182,-272 1182,-242 1050,-242"/>
<text text-anchor="start" x="1058" y="-260" font-family="Helvetica,sans-Serif" font-size="10.00">TimeParser&lt; std::chrono</text>
<text text-anchor="middle" x="1116" y="-249" font-family="Helvetica,sans-Serif" font-size="10.00">::microseconds &gt;</text>
</a>
</g>
</g>
<!-- Node9&#45;&gt;Node8 -->
<g id="edge10" class="edge"><title>Node9&#45;&gt;Node8</title>
<path fill="none" stroke="#9a32cd" stroke-dasharray="5,2" d="M1192.43,-257C1227.6,-257 1266.9,-257 1290.92,-257"/>
<polygon fill="#9a32cd" stroke="#9a32cd" points="1192.16,-253.5 1182.16,-257 1192.16,-260.5 1192.16,-253.5"/>
<text text-anchor="middle" x="1236.5" y="-260" font-family="Helvetica,sans-Serif" font-size="10.00"> time_parser</text>
</g>
<!-- Node10 -->
<g id="node10" class="node"><title>Node10</title>
<g id="a_node10"><a xlink:href="classPlayerFile.html" target="_top" xlink:title="The subcomponent of a Player that stores the audio file. ">
<polygon fill="white" stroke="black" points="1084.5,-291.5 1084.5,-310.5 1147.5,-310.5 1147.5,-291.5 1084.5,-291.5"/>
<text text-anchor="middle" x="1116" y="-298.5" font-family="Helvetica,sans-Serif" font-size="10.00">PlayerFile</text>
</a>
</g>
</g>
<!-- Node10&#45;&gt;Node8 -->
<g id="edge12" class="edge"><title>Node10&#45;&gt;Node8</title>
<path fill="none" stroke="#9a32cd" stroke-dasharray="5,2" d="M1157.77,-295.374C1189.5,-290.529 1234.47,-282.633 1273,-272 1278.78,-270.404 1284.91,-268.341 1290.59,-266.258"/>
<polygon fill="#9a32cd" stroke="#9a32cd" points="1156.92,-291.962 1147.55,-296.9 1157.95,-298.886 1156.92,-291.962"/>
<text text-anchor="middle" x="1236.5" y="-292" font-family="Helvetica,sans-Serif" font-size="10.00"> file</text>
</g>
<!-- Node11&#45;&gt;Node10 -->
<g id="edge13" class="edge"><title>Node11&#45;&gt;Node10</title>
<path fill="none" stroke="midnightblue" d="M881.087,-301C942.322,-301 1036.05,-301 1084.16,-301"/>
<polygon fill="midnightblue" stroke="midnightblue" points="880.8,-297.5 870.8,-301 880.8,-304.5 880.8,-297.5"/>
</g>
<!-- Node24 -->
<g id="node24" class="node"><title>Node24</title>
<g id="a_node24"><a xlink:href="classPlayerState.html" target="_top" xlink:title="An object holding and representing the current state of a Player. ">
<polygon fill="white" stroke="black" points="1080.5,-165.5 1080.5,-184.5 1151.5,-184.5 1151.5,-165.5 1080.5,-165.5"/>
<text text-anchor="middle" x="1116" y="-172.5" font-family="Helvetica,sans-Serif" font-size="10.00">PlayerState</text>
</a>
</g>
</g>
<!-- Node11&#45;&gt;Node24 -->
<g id="edge29" class="edge"><title>Node11&#45;&gt;Node24</title>
<path fill="none" stroke="midnightblue" d="M880.672,-295.165C933.899,-288.895 1007.92,-277.547 1032,-261 1044.5,-252.41 1040.19,-243.571 1050,-232 1065.92,-213.224 1088.12,-195.112 1102.02,-184.519"/>
<polygon fill="midnightblue" stroke="midnightblue" points="880.195,-291.696 870.659,-296.314 880.993,-298.651 880.195,-291.696"/>
</g>
<!-- Node26 -->
<g id="node26" class="node"><title>Node26</title>
<g id="a_node26"><a xlink:href="classPlayerPosition.html" target="_top" xlink:title="Tracker and broadcaster for the Player&#39;s current position in a song. ">
<polygon fill="white" stroke="black" points="1074,-329.5 1074,-348.5 1158,-348.5 1158,-329.5 1074,-329.5"/>
<text text-anchor="middle" x="1116" y="-336.5" font-family="Helvetica,sans-Serif" font-size="10.00">PlayerPosition</text>
</a>
</g>
</g>
<!-- Node11&#45;&gt;Node26 -->
<g id="edge33" class="edge"><title>Node11&#45;&gt;Node26</title>
<path fill="none" stroke="midnightblue" d="M880.564,-311.39C888.43,-312.676 896.405,-313.917 904,-315 962.763,-323.382 1031.07,-330.714 1073.67,-335.001"/>
<polygon fill="midnightblue" stroke="midnightblue" points="881.135,-307.937 870.695,-309.746 879.984,-314.842 881.135,-307.937"/>
</g>
<!-- Node12 -->
<g id="node12" class="node"><title>Node12</title>
<polygon fill="white" stroke="#bfbfbf" points="757,-443.5 757,-462.5 886,-462.5 886,-443.5 757,-443.5"/>
<text text-anchor="middle" x="821.5" y="-450.5" font-family="Helvetica,sans-Serif" font-size="10.00">std::unique_ptr&lt; Audio &gt;</text>
</g>
<!-- Node12&#45;&gt;Node10 -->
<g id="edge15" class="edge"><title>Node12&#45;&gt;Node10</title>
<path fill="none" stroke="#9a32cd" stroke-dasharray="5,2" d="M844.611,-437.578C884.195,-410.551 970.476,-354.253 1050,-320 1060.91,-315.303 1073.32,-311.354 1084.36,-308.295"/>
<polygon fill="#9a32cd" stroke="#9a32cd" points="842.493,-434.787 836.236,-443.337 846.459,-440.555 842.493,-434.787"/>
<text text-anchor="middle" x="968" y="-400" font-family="Helvetica,sans-Serif" font-size="10.00"> audio</text>
</g>
<!-- Node13 -->
<g id="node13" class="node"><title>Node13</title>
<g id="a_node13"><a xlink:href="classAudio.html" target="_top" xlink:title="An audio file. ">
<polygon fill="white" stroke="black" points="606,-443.5 606,-462.5 649,-462.5 649,-443.5 606,-443.5"/>
<text text-anchor="middle" x="627.5" y="-450.5" font-family="Helvetica,sans-Serif" font-size="10.00">Audio</text>
</a>
</g>
</g>
<!-- Node13&#45;&gt;Node12 -->
<g id="edge16" class="edge"><title>Node13&#45;&gt;Node12</title>
<path fill="none" stroke="#9a32cd" stroke-dasharray="5,2" d="M659.125,-453C685.325,-453 723.901,-453 756.767,-453"/>
<polygon fill="#9a32cd" stroke="#9a32cd" points="659.047,-449.5 649.047,-453 659.047,-456.5 659.047,-449.5"/>
<text text-anchor="middle" x="713.5" y="-456" font-family="Helvetica,sans-Serif" font-size="10.00"> ptr</text>
</g>
<!-- Node14 -->
<g id="node14" class="node"><title>Node14</title>
<polygon fill="white" stroke="#bfbfbf" points="358.5,-481.5 358.5,-500.5 507.5,-500.5 507.5,-481.5 358.5,-481.5"/>
<text text-anchor="middle" x="433" y="-488.5" font-family="Helvetica,sans-Serif" font-size="10.00">std::unique_ptr&lt; AudioSink &gt;</text>
</g>
<!-- Node14&#45;&gt;Node13 -->
<g id="edge17" class="edge"><title>Node14&#45;&gt;Node13</title>
<path fill="none" stroke="#9a32cd" stroke-dasharray="5,2" d="M500.364,-479.732C521.688,-475.922 545.383,-471.49 567,-467 579.988,-464.302 594.478,-460.901 605.907,-458.127"/>
<polygon fill="#9a32cd" stroke="#9a32cd" points="499.664,-476.301 490.428,-481.493 500.886,-483.194 499.664,-476.301"/>
<text text-anchor="middle" x="549.5" y="-476" font-family="Helvetica,sans-Serif" font-size="10.00"> sink</text>
</g>
<!-- Node15 -->
<g id="node15" class="node"><title>Node15</title>
<g id="a_node15"><a xlink:href="classAudioSink.html" target="_top" xlink:title="An output stream for an Audio file. ">
<polygon fill="white" stroke="black" points="230.5,-503.5 230.5,-522.5 293.5,-522.5 293.5,-503.5 230.5,-503.5"/>
<text text-anchor="middle" x="262" y="-510.5" font-family="Helvetica,sans-Serif" font-size="10.00">AudioSink</text>
</a>
</g>
</g>
<!-- Node15&#45;&gt;Node14 -->
<g id="edge18" class="edge"><title>Node15&#45;&gt;Node14</title>
<path fill="none" stroke="#9a32cd" stroke-dasharray="5,2" d="M303.968,-507.667C320.466,-505.519 340.01,-502.975 358.796,-500.53"/>
<polygon fill="#9a32cd" stroke="#9a32cd" points="303.069,-504.254 293.605,-509.016 303.973,-511.196 303.069,-504.254"/>
<text text-anchor="middle" x="326" y="-508" font-family="Helvetica,sans-Serif" font-size="10.00"> ptr</text>
</g>
<!-- Node16 -->
<g id="node16" class="node"><title>Node16</title>
<polygon fill="white" stroke="#bfbfbf" points="0,-481.5 0,-500.5 147,-500.5 147,-481.5 0,-481.5"/>
<text text-anchor="middle" x="73.5" y="-488.5" font-family="Helvetica,sans-Serif" font-size="10.00">portaudio::CallbackInterface</text>
</g>
<!-- Node16&#45;&gt;Node15 -->
<g id="edge19" class="edge"><title>Node16&#45;&gt;Node15</title>
<path fill="none" stroke="#8b1a1a" d="M157.375,-500.776C183.267,-503.83 210.24,-507.012 230.174,-509.364"/>
<polygon fill="#8b1a1a" stroke="#8b1a1a" points="157.481,-497.264 147.14,-499.569 156.661,-504.216 157.481,-497.264"/>
</g>
<!-- Node17 -->
<g id="node17" class="node"><title>Node17</title>
<g id="a_node17"><a xlink:href="classRingBuffer.html" target="_top" xlink:title="RingBuffer\&lt; char, unsigned\l long \&gt;">
<polygon fill="white" stroke="black" points="1.5,-569 1.5,-599 145.5,-599 145.5,-569 1.5,-569"/>
<text text-anchor="start" x="9.5" y="-587" font-family="Helvetica,sans-Serif" font-size="10.00">RingBuffer&lt; char, unsigned</text>
<text text-anchor="middle" x="73.5" y="-576" font-family="Helvetica,sans-Serif" font-size="10.00"> long &gt;</text>
</a>
</g>
</g>
<!-- Node17&#45;&gt;Node15 -->
<g id="edge20" class="edge"><title>Node17&#45;&gt;Node15</title>
<path fill="none" stroke="#9a32cd" stroke-dasharray="5,2" d="M132.768,-565.788C155.815,-558.138 182.388,-548.755 206,-539 218.104,-533.999 231.387,-527.743 241.866,-522.621"/>
<polygon fill="#9a32cd" stroke="#9a32cd" points="131.533,-562.51 123.126,-568.957 133.718,-569.16 131.533,-562.51"/>
<text text-anchor="middle" x="185.5" y="-557" font-family="Helvetica,sans-Serif" font-size="10.00"> ring_buf</text>
</g>
<!-- Node18 -->
<g id="node18" class="node"><title>Node18</title>
<polygon fill="white" stroke="#bfbfbf" points="4.5,-520 4.5,-550 142.5,-550 142.5,-520 4.5,-520"/>
<text text-anchor="start" x="12.5" y="-538" font-family="Helvetica,sans-Serif" font-size="10.00">std::unique_ptr&lt; portaudio</text>
<text text-anchor="middle" x="73.5" y="-527" font-family="Helvetica,sans-Serif" font-size="10.00">::Stream &gt;</text>
</g>
<!-- Node18&#45;&gt;Node15 -->
<g id="edge21" class="edge"><title>Node18&#45;&gt;Node15</title>
<path fill="none" stroke="#9a32cd" stroke-dasharray="5,2" d="M152.572,-525.79C179.845,-522.573 208.898,-519.146 230.059,-516.65"/>
<polygon fill="#9a32cd" stroke="#9a32cd" points="152.144,-522.317 142.622,-526.964 152.964,-529.268 152.144,-522.317"/>
<text text-anchor="middle" x="185.5" y="-527" font-family="Helvetica,sans-Serif" font-size="10.00"> stream</text>
</g>
<!-- Node19 -->
<g id="node19" class="node"><title>Node19</title>
<polygon fill="white" stroke="#bfbfbf" points="352,-443.5 352,-462.5 514,-462.5 514,-443.5 352,-443.5"/>
<text text-anchor="middle" x="433" y="-450.5" font-family="Helvetica,sans-Serif" font-size="10.00">std::unique_ptr&lt; AudioSource &gt;</text>
</g>
<!-- Node19&#45;&gt;Node13 -->
<g id="edge22" class="edge"><title>Node19&#45;&gt;Node13</title>
<path fill="none" stroke="#9a32cd" stroke-dasharray="5,2" d="M524.492,-453C554.851,-453 585.976,-453 605.729,-453"/>
<polygon fill="#9a32cd" stroke="#9a32cd" points="524.243,-449.5 514.243,-453 524.243,-456.5 524.243,-449.5"/>
<text text-anchor="middle" x="549.5" y="-456" font-family="Helvetica,sans-Serif" font-size="10.00"> source</text>
</g>
<!-- Node20 -->
<g id="node20" class="node"><title>Node20</title>
<g id="a_node20"><a xlink:href="classAudioSource.html" target="_top" xlink:title="An object responsible for decoding an audio file. ">
<polygon fill="white" stroke="black" points="224,-443.5 224,-462.5 300,-462.5 300,-443.5 224,-443.5"/>
<text text-anchor="middle" x="262" y="-450.5" font-family="Helvetica,sans-Serif" font-size="10.00">AudioSource</text>
</a>
</g>
</g>
<!-- Node20&#45;&gt;Node19 -->
<g id="edge23" class="edge"><title>Node20&#45;&gt;Node19</title>
<path fill="none" stroke="#9a32cd" stroke-dasharray="5,2" d="M310.117,-453C323.053,-453 337.452,-453 351.692,-453"/>
<polygon fill="#9a32cd" stroke="#9a32cd" points="310.088,-449.5 300.088,-453 310.088,-456.5 310.088,-449.5"/>
<text text-anchor="middle" x="326" y="-456" font-family="Helvetica,sans-Serif" font-size="10.00"> ptr</text>
</g>
<!-- Node21 -->
<g id="node21" class="node"><title>Node21</title>
<polygon fill="white" stroke="#bfbfbf" points="16.5,-443.5 16.5,-462.5 130.5,-462.5 130.5,-443.5 16.5,-443.5"/>
<text text-anchor="middle" x="73.5" y="-450.5" font-family="Helvetica,sans-Serif" font-size="10.00">std::vector&lt; uint8_t &gt;</text>
</g>
<!-- Node21&#45;&gt;Node20 -->
<g id="edge24" class="edge"><title>Node21&#45;&gt;Node20</title>
<path fill="none" stroke="#9a32cd" stroke-dasharray="5,2" d="M140.799,-453C168.672,-453 200.061,-453 223.771,-453"/>
<polygon fill="#9a32cd" stroke="#9a32cd" points="140.709,-449.5 130.709,-453 140.709,-456.5 140.709,-449.5"/>
<text text-anchor="middle" x="185.5" y="-456" font-family="Helvetica,sans-Serif" font-size="10.00"> buffer</text>
</g>
<!-- Node22 -->
<g id="node22" class="node"><title>Node22</title>
<polygon fill="white" stroke="#bfbfbf" points="366.5,-405.5 366.5,-424.5 499.5,-424.5 499.5,-405.5 366.5,-405.5"/>
<text text-anchor="middle" x="433" y="-412.5" font-family="Helvetica,sans-Serif" font-size="10.00">std::vector&lt; std::uint8_t &gt;</text>
</g>
<!-- Node22&#45;&gt;Node13 -->
<g id="edge25" class="edge"><title>Node22&#45;&gt;Node13</title>
<path fill="none" stroke="#9a32cd" stroke-dasharray="5,2" d="M504.812,-426.222C524.966,-429.693 546.9,-433.735 567,-438 580.026,-440.764 594.517,-444.405 605.937,-447.408"/>
<polygon fill="#9a32cd" stroke="#9a32cd" points="505.212,-422.74 494.767,-424.513 504.038,-429.641 505.212,-422.74"/>
<text text-anchor="middle" x="549.5" y="-441" font-family="Helvetica,sans-Serif" font-size="10.00"> frame</text>
</g>
<!-- Node23&#45;&gt;Node10 -->
<g id="edge26" class="edge"><title>Node23&#45;&gt;Node10</title>
<path fill="none" stroke="#9a32cd" stroke-dasharray="5,2" d="M844.487,-190.437C860.507,-201.262 882.993,-215.6 904,-226 966.142,-256.766 984.387,-258.571 1050,-281 1061.17,-284.819 1073.53,-288.706 1084.45,-292.026"/>
<polygon fill="#9a32cd" stroke="#9a32cd" points="846.089,-187.292 835.862,-184.526 842.132,-193.066 846.089,-187.292"/>
<text text-anchor="middle" x="968" y="-278" font-family="Helvetica,sans-Serif" font-size="10.00"> audio_system</text>
</g>
<!-- Node24&#45;&gt;Node8 -->
<g id="edge28" class="edge"><title>Node24&#45;&gt;Node8</title>
<path fill="none" stroke="#9a32cd" stroke-dasharray="5,2" d="M1162.11,-168.267C1195.27,-165.673 1240.1,-167.301 1273,-188 1294.87,-201.758 1306.34,-231.949 1310.98,-247.43"/>
<polygon fill="#9a32cd" stroke="#9a32cd" points="1161.41,-164.817 1151.78,-169.239 1162.07,-171.786 1161.41,-164.817"/>
<text text-anchor="middle" x="1236.5" y="-191" font-family="Helvetica,sans-Serif" font-size="10.00"> state</text>
</g>
<!-- Node25&#45;&gt;Node24 -->
<g id="edge30" class="edge"><title>Node25&#45;&gt;Node24</title>
<path fill="none" stroke="#9a32cd" stroke-dasharray="5,2" d="M885.874,-110.767C945.715,-127.542 1033.19,-152.064 1080.88,-165.436"/>
<polygon fill="#9a32cd" stroke="#9a32cd" points="886.723,-107.369 876.149,-108.04 884.833,-114.11 886.723,-107.369"/>
<text text-anchor="middle" x="968" y="-154" font-family="Helvetica,sans-Serif" font-size="10.00"> STRINGS</text>
</g>
<!-- Node26&#45;&gt;Node8 -->
<g id="edge32" class="edge"><title>Node26&#45;&gt;Node8</title>
<path fill="none" stroke="#9a32cd" stroke-dasharray="5,2" d="M1168.11,-335.721C1200.13,-331.761 1241.21,-323.062 1273,-304 1288.52,-294.694 1301.11,-277.361 1307.93,-266.544"/>
<polygon fill="#9a32cd" stroke="#9a32cd" points="1167.6,-332.256 1158.06,-336.848 1168.38,-339.212 1167.6,-332.256"/>
<text text-anchor="middle" x="1236.5" y="-333" font-family="Helvetica,sans-Serif" font-size="10.00"> position</text>
</g>
<!-- Node27&#45;&gt;Node1 -->
<g id="edge34" class="edge"><title>Node27&#45;&gt;Node1</title>
<path fill="none" stroke="#9a32cd" stroke-dasharray="5,2" d="M1726.61,-292C1748.7,-292 1776.25,-292 1799.75,-292"/>
<polygon fill="#9a32cd" stroke="#9a32cd" points="1726.56,-288.5 1716.56,-292 1726.56,-295.5 1726.56,-288.5"/>
<text text-anchor="middle" x="1758.5" y="-295" font-family="Helvetica,sans-Serif" font-size="10.00"> parent</text>
</g>
<!-- Node28 -->
<g id="node28" class="node"><title>Node28</title>
<polygon fill="white" stroke="#bfbfbf" points="1407,-251 1407,-281 1556,-281 1556,-251 1407,-251"/>
<text text-anchor="start" x="1415" y="-269" font-family="Helvetica,sans-Serif" font-size="10.00">std::set&lt; std::shared</text>
<text text-anchor="middle" x="1481.5" y="-258" font-family="Helvetica,sans-Serif" font-size="10.00">_ptr&lt; TcpResponseSink &gt; &gt;</text>
</g>
<!-- Node28&#45;&gt;Node27 -->
<g id="edge37" class="edge"><title>Node28&#45;&gt;Node27</title>
<path fill="none" stroke="#9a32cd" stroke-dasharray="5,2" d="M1566.06,-276.782C1597.02,-280.776 1630.21,-285.059 1653.46,-288.06"/>
<polygon fill="#9a32cd" stroke="#9a32cd" points="1566.47,-273.306 1556.1,-275.497 1565.57,-280.248 1566.47,-273.306"/>
<text text-anchor="middle" x="1604.5" y="-289" font-family="Helvetica,sans-Serif" font-size="10.00"> connections</text>
</g>
</g>
</svg>
