<?xml version="1.0" encoding="UTF-8" standalone="no"?>
<!DOCTYPE svg PUBLIC "-//W3C//DTD SVG 1.1//EN"
 "http://www.w3.org/Graphics/SVG/1.1/DTD/svg11.dtd">
<!-- Generated by graphviz version 2.38.0 (20140413.2041)
 -->
<!-- Title: Error Pages: 1 -->
<svg width="249pt" height="84pt"
 viewBox="0.00 0.00 249.00 84.00" xmlns="http://www.w3.org/2000/svg" xmlns:xlink="http://www.w3.org/1999/xlink">
<g id="graph0" class="graph" transform="scale(1 1) rotate(0) translate(4 80)">
<title>Error</title>
<polygon fill="white" stroke="none" points="-4,4 -4,-80 245,-80 245,4 -4,4"/>
<!-- Node1 -->
<g id="node1" class="node"><title>Node1</title>
<polygon fill="#bfbfbf" stroke="black" points="97,-56.5 97,-75.5 138,-75.5 138,-56.5 97,-56.5"/>
<text text-anchor="middle" x="117.5" y="-63.5" font-family="Helvetica,sans-Serif" font-size="10.00">Error</text>
</g>
<!-- Node2 -->
<g id="node2" class="node"><title>Node2</title>
<g id="a_node2"><a xlink:href="classConfigError.html" target="_top" xlink:title="An Error signifying that playd has been improperly configured. ">
<polygon fill="white" stroke="black" points="0,-0.5 0,-19.5 71,-19.5 71,-0.5 0,-0.5"/>
<text text-anchor="middle" x="35.5" y="-7.5" font-family="Helvetica,sans-Serif" font-size="10.00">ConfigError</text>
</a>
</g>
</g>
<!-- Node1&#45;&gt;Node2 -->
<g id="edge1" class="edge"><title>Node1&#45;&gt;Node2</title>
<path fill="none" stroke="midnightblue" d="M95.6669,-50.6221C80.6871,-40.7574 61.3025,-27.9919 48.642,-19.6545"/>
<polygon fill="midnightblue" stroke="midnightblue" points="94.0486,-53.7471 104.325,-56.324 97.8985,-47.9009 94.0486,-53.7471"/>
</g>
<!-- Node3 -->
<g id="node3" class="node"><title>Node3</title>
<g id="a_node3"><a xlink:href="classFileError.html" target="_top" xlink:title="An Error signifying that playd can&#39;t read a file. ">
<polygon fill="white" stroke="black" points="89,-0.5 89,-19.5 146,-19.5 146,-0.5 89,-0.5"/>
<text text-anchor="middle" x="117.5" y="-7.5" font-family="Helvetica,sans-Serif" font-size="10.00">FileError</text>
</a>
</g>
</g>
<!-- Node1&#45;&gt;Node3 -->
<g id="edge2" class="edge"><title>Node1&#45;&gt;Node3</title>
<path fill="none" stroke="midnightblue" d="M117.5,-45.8045C117.5,-36.9102 117.5,-26.7798 117.5,-19.7511"/>
<polygon fill="midnightblue" stroke="midnightblue" points="114,-46.083 117.5,-56.083 121,-46.083 114,-46.083"/>
</g>
<!-- Node4 -->
<g id="node4" class="node"><title>Node4</title>
<g id="a_node4"><a xlink:href="classInternalError.html" target="_top" xlink:title="An Error signifying that playd has hit an internal snag. ">
<polygon fill="white" stroke="black" points="164,-0.5 164,-19.5 241,-19.5 241,-0.5 164,-0.5"/>
<text text-anchor="middle" x="202.5" y="-7.5" font-family="Helvetica,sans-Serif" font-size="10.00">InternalError</text>
</a>
</g>
</g>
<!-- Node1&#45;&gt;Node4 -->
<g id="edge3" class="edge"><title>Node1&#45;&gt;Node4</title>
<path fill="none" stroke="midnightblue" d="M139.694,-50.9005C155.28,-40.9986 175.63,-28.0705 188.877,-19.6545"/>
<polygon fill="midnightblue" stroke="midnightblue" points="137.721,-48.0073 131.157,-56.324 141.474,-53.9158 137.721,-48.0073"/>
</g>
</g>
</svg>
