<?xml version="1.0" encoding="UTF-8" standalone="no"?>
<!DOCTYPE svg PUBLIC "-//W3C//DTD SVG 1.1//EN"
 "http://www.w3.org/Graphics/SVG/1.1/DTD/svg11.dtd">
<!-- Generated by graphviz version 2.38.0 (20140413.2041)
 -->
<!-- Title: Player Pages: 1 -->
<!--zoomable 297 -->
<svg id="main" version="1.1" xmlns="http://www.w3.org/2000/svg" xmlns:xlink="http://www.w3.org/1999/xlink" xml:space="preserve" onload="init(evt)">
<style type="text/css"><![CDATA[
.edge:hover path { stroke: red; }
.edge:hover polygon { stroke: red; fill: red; }
]]></style>
<script type="text/javascript"><![CDATA[
var edges = document.getElementsByTagName('g');
if (edges && edges.length) {
  for (var i=0;i<edges.length;i++) {
    if (edges[i].id.substr(0,4)=='edge') {
      edges[i].setAttribute('class','edge');
    }
  }
}
]]></script>
        <defs>
                <circle id="rim" cx="0" cy="0" r="7"/>
                <circle id="rim2" cx="0" cy="0" r="3.5"/>
                <g id="zoomPlus">
                        <use xlink:href="#rim" fill="#404040">
                                <set attributeName="fill" to="#808080" begin="zoomplus.mouseover" end="zoomplus.mouseout"/>
                        </use>
                        <path d="M-4,0h8M0,-4v8" fill="none" stroke="white" stroke-width="1.5" pointer-events="none"/>
                </g>
                <g id="zoomMin">
                        <use xlink:href="#rim" fill="#404040">
                                <set attributeName="fill" to="#808080" begin="zoomminus.mouseover" end="zoomminus.mouseout"/>
                        </use>
                        <path d="M-4,0h8" fill="none" stroke="white" stroke-width="1.5" pointer-events="none"/>
                </g>
                <g id="dirArrow">
                        <path fill="none" stroke="white" stroke-width="1.5" d="M0,-3.0v7 M-2.5,-0.5L0,-3.0L2.5,-0.5"/>
                </g>
               <g id="resetDef">
                       <use xlink:href="#rim2" fill="#404040">
                               <set attributeName="fill" to="#808080" begin="reset.mouseover" end="reset.mouseout"/>
                       </use>
               </g>
        </defs>

<script type="text/javascript">
var viewWidth = 1273;
var viewHeight = 297;
var sectionId = 'dynsection-0';
</script>
<script xlink:href="svgpan.js"/>
<svg id="graph" class="graph">
<g id="viewport">
<title>Player</title>
<polygon fill="white" stroke="none" points="-4,4 -4,-292.5 1269,-292.5 1269,4 -4,4"/>
<!-- Node1 -->
<g id="node1" class="node"><title>Node1</title>
<polygon fill="#bfbfbf" stroke="black" points="1218,-181.5 1218,-200.5 1265,-200.5 1265,-181.5 1218,-181.5"/>
<text text-anchor="middle" x="1241.5" y="-188.5" font-family="Helvetica,sans-Serif" font-size="10.00">Player</text>
</g>
<!-- Node2 -->
<g id="node2" class="node"><title>Node2</title>
<g id="a_node2"><a xlink:href="classTimeParser.html" target="_top" xlink:title="TimeParser\&lt; std::chrono\l::microseconds \&gt;">
<polygon fill="white" stroke="black" points="990,-258 990,-288 1122,-288 1122,-258 990,-258"/>
<text text-anchor="start" x="998" y="-276" font-family="Helvetica,sans-Serif" font-size="10.00">TimeParser&lt; std::chrono</text>
<text text-anchor="middle" x="1056" y="-265" font-family="Helvetica,sans-Serif" font-size="10.00">::microseconds &gt;</text>
</a>
</g>
</g>
<!-- Node2&#45;&gt;Node1 -->
<g id="edge1" class="edge"><title>Node2&#45;&gt;Node1</title>
<path fill="none" stroke="#9a32cd" stroke-dasharray="5,2" d="M1132.28,-267.281C1155.31,-262.966 1179.85,-255.576 1200,-243 1216.7,-232.58 1229.24,-212.688 1235.67,-200.756"/>
<polygon fill="#9a32cd" stroke="#9a32cd" points="1131.45,-263.872 1122.18,-269.002 1132.62,-270.773 1131.45,-263.872"/>
<text text-anchor="middle" x="1170" y="-269" font-family="Helvetica,sans-Serif" font-size="10.00"> time_parser</text>
</g>
<!-- Node3 -->
<g id="node3" class="node"><title>Node3</title>
<g id="a_node3"><a xlink:href="classResponseSink.html" target="_top" xlink:title="Abstract class for anything that can be sent a response. ">
<polygon fill="white" stroke="black" points="585,-200.5 585,-219.5 670,-219.5 670,-200.5 585,-200.5"/>
<text text-anchor="middle" x="627.5" y="-207.5" font-family="Helvetica,sans-Serif" font-size="10.00">ResponseSink</text>
</a>
</g>
</g>
<!-- Node3&#45;&gt;Node1 -->
<g id="edge2" class="edge"><title>Node3&#45;&gt;Node1</title>
<path fill="none" stroke="#9a32cd" stroke-dasharray="5,2" d="M680.244,-214.61C682.866,-214.762 685.462,-214.894 688,-215 710.647,-215.95 716.334,-215.148 739,-215 909.233,-213.889 951.851,-215.471 1122,-210 1156.69,-208.884 1166,-212.997 1200,-206 1206.02,-204.761 1212.34,-202.776 1218.15,-200.651"/>
<polygon fill="#9a32cd" stroke="#9a32cd" points="680.292,-211.106 670.084,-213.941 679.832,-218.091 680.292,-211.106"/>
<text text-anchor="middle" x="938" y="-218" font-family="Helvetica,sans-Serif" font-size="10.00"> end_sink</text>
</g>
<!-- Node5 -->
<g id="node5" class="node"><title>Node5</title>
<g id="a_node5"><a xlink:href="classResponseSource.html" target="_top" xlink:title="Abstract helper class for sources of responses. ">
<polygon fill="white" stroke="black" points="772.5,-172.5 772.5,-191.5 870.5,-191.5 870.5,-172.5 772.5,-172.5"/>
<text text-anchor="middle" x="821.5" y="-179.5" font-family="Helvetica,sans-Serif" font-size="10.00">ResponseSource</text>
</a>
</g>
</g>
<!-- Node3&#45;&gt;Node5 -->
<g id="edge5" class="edge"><title>Node3&#45;&gt;Node5</title>
<path fill="none" stroke="#9a32cd" stroke-dasharray="5,2" d="M680.396,-202.432C709.072,-198.25 744.456,-193.09 772.49,-189.002"/>
<polygon fill="#9a32cd" stroke="#9a32cd" points="679.551,-199.018 670.161,-203.924 680.562,-205.945 679.551,-199.018"/>
<text text-anchor="middle" x="713.5" y="-204" font-family="Helvetica,sans-Serif" font-size="10.00"> push_sink</text>
</g>
<!-- Node4 -->
<g id="node4" class="node"><title>Node4</title>
<g id="a_node4"><a xlink:href="classPlayerFile.html" target="_top" xlink:title="The subcomponent of a Player that stores the audio file. ">
<polygon fill="white" stroke="black" points="1024.5,-84.5 1024.5,-103.5 1087.5,-103.5 1087.5,-84.5 1024.5,-84.5"/>
<text text-anchor="middle" x="1056" y="-91.5" font-family="Helvetica,sans-Serif" font-size="10.00">PlayerFile</text>
</a>
</g>
</g>
<!-- Node4&#45;&gt;Node1 -->
<g id="edge3" class="edge"><title>Node4&#45;&gt;Node1</title>
<path fill="none" stroke="#9a32cd" stroke-dasharray="5,2" d="M1097.27,-104.348C1127.22,-113.224 1168.23,-127.94 1200,-149 1213.51,-157.955 1225.95,-172.122 1233.38,-181.489"/>
<polygon fill="#9a32cd" stroke="#9a32cd" points="1098.14,-100.957 1087.57,-101.561 1096.21,-107.686 1098.14,-100.957"/>
<text text-anchor="middle" x="1170" y="-152" font-family="Helvetica,sans-Serif" font-size="10.00"> file</text>
</g>
<!-- Node5&#45;&gt;Node4 -->
<g id="edge4" class="edge"><title>Node5&#45;&gt;Node4</title>
<path fill="none" stroke="midnightblue" d="M864.137,-169.386C894.368,-159.911 936.094,-146.177 972,-132 994.111,-123.27 1018.81,-111.724 1035.47,-103.659"/>
<polygon fill="midnightblue" stroke="midnightblue" points="862.86,-166.118 854.351,-172.43 864.939,-172.802 862.86,-166.118"/>
</g>
<!-- Node20 -->
<g id="node20" class="node"><title>Node20</title>
<g id="a_node20"><a xlink:href="classPlayerState.html" target="_top" xlink:title="An object holding and representing the current state of a Player. ">
<polygon fill="white" stroke="black" points="1020.5,-143.5 1020.5,-162.5 1091.5,-162.5 1091.5,-143.5 1020.5,-143.5"/>
<text text-anchor="middle" x="1056" y="-150.5" font-family="Helvetica,sans-Serif" font-size="10.00">PlayerState</text>
</a>
</g>
</g>
<!-- Node5&#45;&gt;Node20 -->
<g id="edge21" class="edge"><title>Node5&#45;&gt;Node20</title>
<path fill="none" stroke="midnightblue" d="M880.67,-174.744C924.686,-169.254 983.65,-161.9 1020.47,-157.306"/>
<polygon fill="midnightblue" stroke="midnightblue" points="880.164,-171.28 870.674,-175.991 881.03,-178.226 880.164,-171.28"/>
</g>
<!-- Node22 -->
<g id="node22" class="node"><title>Node22</title>
<g id="a_node22"><a xlink:href="classPlayerPosition.html" target="_top" xlink:title="Tracker and broadcaster for the Player&#39;s current position in a song. ">
<polygon fill="white" stroke="black" points="1014,-181.5 1014,-200.5 1098,-200.5 1098,-181.5 1014,-181.5"/>
<text text-anchor="middle" x="1056" y="-188.5" font-family="Helvetica,sans-Serif" font-size="10.00">PlayerPosition</text>
</a>
</g>
</g>
<!-- Node5&#45;&gt;Node22 -->
<g id="edge25" class="edge"><title>Node5&#45;&gt;Node22</title>
<path fill="none" stroke="midnightblue" d="M880.909,-184.261C922.354,-185.865 976.961,-187.979 1013.88,-189.408"/>
<polygon fill="midnightblue" stroke="midnightblue" points="880.802,-180.754 870.674,-183.865 880.531,-187.749 880.802,-180.754"/>
</g>
<!-- Node6 -->
<g id="node6" class="node"><title>Node6</title>
<polygon fill="white" stroke="#bfbfbf" points="757,-38.5 757,-57.5 886,-57.5 886,-38.5 757,-38.5"/>
<text text-anchor="middle" x="821.5" y="-45.5" font-family="Helvetica,sans-Serif" font-size="10.00">std::unique_ptr&lt; Audio &gt;</text>
</g>
<!-- Node6&#45;&gt;Node4 -->
<g id="edge6" class="edge"><title>Node6&#45;&gt;Node4</title>
<path fill="none" stroke="#9a32cd" stroke-dasharray="5,2" d="M896.289,-57.5922C920.52,-61.2101 947.512,-65.7426 972,-71 989.544,-74.7666 1008.88,-80.0557 1024.47,-84.6123"/>
<polygon fill="#9a32cd" stroke="#9a32cd" points="896.49,-54.0844 886.088,-56.0982 895.475,-61.0105 896.49,-54.0844"/>
<text text-anchor="middle" x="938" y="-74" font-family="Helvetica,sans-Serif" font-size="10.00"> audio</text>
</g>
<!-- Node7 -->
<g id="node7" class="node"><title>Node7</title>
<g id="a_node7"><a xlink:href="classAudio.html" target="_top" xlink:title="An audio file. ">
<polygon fill="white" stroke="black" points="606,-38.5 606,-57.5 649,-57.5 649,-38.5 606,-38.5"/>
<text text-anchor="middle" x="627.5" y="-45.5" font-family="Helvetica,sans-Serif" font-size="10.00">Audio</text>
</a>
</g>
</g>
<!-- Node7&#45;&gt;Node6 -->
<g id="edge7" class="edge"><title>Node7&#45;&gt;Node6</title>
<path fill="none" stroke="#9a32cd" stroke-dasharray="5,2" d="M659.125,-48C685.325,-48 723.901,-48 756.767,-48"/>
<polygon fill="#9a32cd" stroke="#9a32cd" points="659.047,-44.5001 649.047,-48 659.047,-51.5001 659.047,-44.5001"/>
<text text-anchor="middle" x="713.5" y="-51" font-family="Helvetica,sans-Serif" font-size="10.00"> ptr</text>
</g>
<!-- Node8 -->
<g id="node8" class="node"><title>Node8</title>
<polygon fill="white" stroke="#bfbfbf" points="358.5,-76.5 358.5,-95.5 507.5,-95.5 507.5,-76.5 358.5,-76.5"/>
<text text-anchor="middle" x="433" y="-83.5" font-family="Helvetica,sans-Serif" font-size="10.00">std::unique_ptr&lt; AudioSink &gt;</text>
</g>
<!-- Node8&#45;&gt;Node7 -->
<g id="edge8" class="edge"><title>Node8&#45;&gt;Node7</title>
<path fill="none" stroke="#9a32cd" stroke-dasharray="5,2" d="M500.364,-74.7319C521.688,-70.9222 545.383,-66.4903 567,-62 579.988,-59.3022 594.478,-55.9011 605.907,-53.1267"/>
<polygon fill="#9a32cd" stroke="#9a32cd" points="499.664,-71.3013 490.428,-76.4929 500.886,-78.1939 499.664,-71.3013"/>
<text text-anchor="middle" x="549.5" y="-72" font-family="Helvetica,sans-Serif" font-size="10.00"> sink</text>
</g>
<!-- Node9 -->
<g id="node9" class="node"><title>Node9</title>
<g id="a_node9"><a xlink:href="classAudioSink.html" target="_top" xlink:title="An output stream for an Audio file. ">
<polygon fill="white" stroke="black" points="230.5,-100.5 230.5,-119.5 293.5,-119.5 293.5,-100.5 230.5,-100.5"/>
<text text-anchor="middle" x="262" y="-107.5" font-family="Helvetica,sans-Serif" font-size="10.00">AudioSink</text>
</a>
</g>
</g>
<!-- Node9&#45;&gt;Node8 -->
<g id="edge9" class="edge"><title>Node9&#45;&gt;Node8</title>
<path fill="none" stroke="#9a32cd" stroke-dasharray="5,2" d="M303.645,-104.228C321.988,-101.623 344.143,-98.4767 364.847,-95.5365"/>
<polygon fill="#9a32cd" stroke="#9a32cd" points="303.013,-100.782 293.605,-105.654 303.997,-107.713 303.013,-100.782"/>
<text text-anchor="middle" x="326" y="-105" font-family="Helvetica,sans-Serif" font-size="10.00"> ptr</text>
</g>
<!-- Node10 -->
<g id="node10" class="node"><title>Node10</title>
<polygon fill="white" stroke="#bfbfbf" points="0,-122.5 0,-141.5 147,-141.5 147,-122.5 0,-122.5"/>
<text text-anchor="middle" x="73.5" y="-129.5" font-family="Helvetica,sans-Serif" font-size="10.00">portaudio::CallbackInterface</text>
</g>
<!-- Node10&#45;&gt;Node9 -->
<g id="edge10" class="edge"><title>Node10&#45;&gt;Node9</title>
<path fill="none" stroke="#8b1a1a" d="M157.375,-122.224C183.267,-119.17 210.24,-115.988 230.174,-113.636"/>
<polygon fill="#8b1a1a" stroke="#8b1a1a" points="156.661,-118.784 147.14,-123.431 157.481,-125.736 156.661,-118.784"/>
</g>
<!-- Node11 -->
<g id="node11" class="node"><title>Node11</title>
<g id="a_node11"><a xlink:href="classRingBuffer.html" target="_top" xlink:title="RingBuffer\&lt; char, unsigned\l long \&gt;">
<polygon fill="white" stroke="black" points="1.5,-73 1.5,-103 145.5,-103 145.5,-73 1.5,-73"/>
<text text-anchor="start" x="9.5" y="-91" font-family="Helvetica,sans-Serif" font-size="10.00">RingBuffer&lt; char, unsigned</text>
<text text-anchor="middle" x="73.5" y="-80" font-family="Helvetica,sans-Serif" font-size="10.00"> long &gt;</text>
</a>
</g>
</g>
<!-- Node11&#45;&gt;Node9 -->
<g id="edge11" class="edge"><title>Node11&#45;&gt;Node9</title>
<path fill="none" stroke="#9a32cd" stroke-dasharray="5,2" d="M155.774,-96.1596C172.403,-97.9677 189.777,-99.9573 206,-102 213.946,-103 222.521,-104.193 230.482,-105.348"/>
<polygon fill="#9a32cd" stroke="#9a32cd" points="155.851,-92.6477 145.534,-95.0585 155.102,-99.6076 155.851,-92.6477"/>
<text text-anchor="middle" x="185.5" y="-105" font-family="Helvetica,sans-Serif" font-size="10.00"> ring_buf</text>
</g>
<!-- Node12 -->
<g id="node12" class="node"><title>Node12</title>
<polygon fill="white" stroke="#bfbfbf" points="4.5,-161 4.5,-191 142.5,-191 142.5,-161 4.5,-161"/>
<text text-anchor="start" x="12.5" y="-179" font-family="Helvetica,sans-Serif" font-size="10.00">std::unique_ptr&lt; portaudio</text>
<text text-anchor="middle" x="73.5" y="-168" font-family="Helvetica,sans-Serif" font-size="10.00">::Stream &gt;</text>
</g>
<!-- Node12&#45;&gt;Node9 -->
<g id="edge12" class="edge"><title>Node12&#45;&gt;Node9</title>
<path fill="none" stroke="#9a32cd" stroke-dasharray="5,2" d="M133.108,-157.943C155.992,-150.605 182.361,-141.791 206,-133 217.059,-128.887 229.175,-123.876 239.214,-119.583"/>
<polygon fill="#9a32cd" stroke="#9a32cd" points="131.998,-154.624 123.533,-160.994 134.123,-161.293 131.998,-154.624"/>
<text text-anchor="middle" x="185.5" y="-150" font-family="Helvetica,sans-Serif" font-size="10.00"> stream</text>
</g>
<!-- Node13 -->
<g id="node13" class="node"><title>Node13</title>
<polygon fill="white" stroke="#bfbfbf" points="352,-38.5 352,-57.5 514,-57.5 514,-38.5 352,-38.5"/>
<text text-anchor="middle" x="433" y="-45.5" font-family="Helvetica,sans-Serif" font-size="10.00">std::unique_ptr&lt; AudioSource &gt;</text>
</g>
<!-- Node13&#45;&gt;Node7 -->
<g id="edge13" class="edge"><title>Node13&#45;&gt;Node7</title>
<path fill="none" stroke="#9a32cd" stroke-dasharray="5,2" d="M524.492,-48C554.851,-48 585.976,-48 605.729,-48"/>
<polygon fill="#9a32cd" stroke="#9a32cd" points="524.243,-44.5001 514.243,-48 524.243,-51.5001 524.243,-44.5001"/>
<text text-anchor="middle" x="549.5" y="-51" font-family="Helvetica,sans-Serif" font-size="10.00"> source</text>
</g>
<!-- Node14 -->
<g id="node14" class="node"><title>Node14</title>
<g id="a_node14"><a xlink:href="classAudioSource.html" target="_top" xlink:title="An object responsible for decoding an audio file. ">
<polygon fill="white" stroke="black" points="224,-34.5 224,-53.5 300,-53.5 300,-34.5 224,-34.5"/>
<text text-anchor="middle" x="262" y="-41.5" font-family="Helvetica,sans-Serif" font-size="10.00">AudioSource</text>
</a>
</g>
</g>
<!-- Node14&#45;&gt;Node13 -->
<g id="edge14" class="edge"><title>Node14&#45;&gt;Node13</title>
<path fill="none" stroke="#9a32cd" stroke-dasharray="5,2" d="M310.117,-45.1152C323.053,-45.4214 337.452,-45.7622 351.692,-46.0992"/>
<polygon fill="#9a32cd" stroke="#9a32cd" points="310.168,-41.6155 300.088,-44.8778 310.002,-48.6136 310.168,-41.6155"/>
<text text-anchor="middle" x="326" y="-49" font-family="Helvetica,sans-Serif" font-size="10.00"> ptr</text>
</g>
<!-- Node15 -->
<g id="node15" class="node"><title>Node15</title>
<polygon fill="white" stroke="#bfbfbf" points="16.5,-34.5 16.5,-53.5 130.5,-53.5 130.5,-34.5 16.5,-34.5"/>
<text text-anchor="middle" x="73.5" y="-41.5" font-family="Helvetica,sans-Serif" font-size="10.00">std::vector&lt; uint8_t &gt;</text>
</g>
<!-- Node15&#45;&gt;Node14 -->
<g id="edge15" class="edge"><title>Node15&#45;&gt;Node14</title>
<path fill="none" stroke="#9a32cd" stroke-dasharray="5,2" d="M140.799,-44C168.672,-44 200.061,-44 223.771,-44"/>
<polygon fill="#9a32cd" stroke="#9a32cd" points="140.709,-40.5001 130.709,-44 140.709,-47.5001 140.709,-40.5001"/>
<text text-anchor="middle" x="185.5" y="-47" font-family="Helvetica,sans-Serif" font-size="10.00"> buffer</text>
</g>
<!-- Node16 -->
<g id="node16" class="node"><title>Node16</title>
<polygon fill="white" stroke="#bfbfbf" points="366.5,-0.5 366.5,-19.5 499.5,-19.5 499.5,-0.5 366.5,-0.5"/>
<text text-anchor="middle" x="433" y="-7.5" font-family="Helvetica,sans-Serif" font-size="10.00">std::vector&lt; std::uint8_t &gt;</text>
</g>
<!-- Node16&#45;&gt;Node7 -->
<g id="edge16" class="edge"><title>Node16&#45;&gt;Node7</title>
<path fill="none" stroke="#9a32cd" stroke-dasharray="5,2" d="M504.812,-21.2222C524.966,-24.6931 546.9,-28.7349 567,-33 580.026,-35.7642 594.517,-39.4052 605.937,-42.4078"/>
<polygon fill="#9a32cd" stroke="#9a32cd" points="505.212,-17.7401 494.767,-19.5135 504.038,-24.6409 505.212,-17.7401"/>
<text text-anchor="middle" x="549.5" y="-36" font-family="Helvetica,sans-Serif" font-size="10.00"> frame</text>
</g>
<!-- Node17 -->
<g id="node17" class="node"><title>Node17</title>
<g id="a_node17"><a xlink:href="classAudioSystem.html" target="_top" xlink:title="An AudioSystem represents the entire audio stack used by playd. ">
<polygon fill="white" stroke="black" points="783,-76.5 783,-95.5 860,-95.5 860,-76.5 783,-76.5"/>
<text text-anchor="middle" x="821.5" y="-83.5" font-family="Helvetica,sans-Serif" font-size="10.00">AudioSystem</text>
</a>
</g>
</g>
<!-- Node17&#45;&gt;Node4 -->
<g id="edge17" class="edge"><title>Node17&#45;&gt;Node4</title>
<path fill="none" stroke="#9a32cd" stroke-dasharray="5,2" d="M870.68,-85.3766C899.988,-85.2325 938.169,-85.4626 972,-87 989.335,-87.7878 1008.66,-89.3751 1024.29,-90.8393"/>
<polygon fill="#9a32cd" stroke="#9a32cd" points="870.285,-81.879 860.308,-85.4449 870.331,-88.8789 870.285,-81.879"/>
<text text-anchor="middle" x="938" y="-90" font-family="Helvetica,sans-Serif" font-size="10.00"> audio_system</text>
</g>
<!-- Node18 -->
<g id="node18" class="node"><title>Node18</title>
<g id="a_node18"><a xlink:title="STL class. ">
<polygon fill="white" stroke="#bfbfbf" points="596.5,-120.5 596.5,-139.5 658.5,-139.5 658.5,-120.5 596.5,-120.5"/>
<text text-anchor="middle" x="627.5" y="-127.5" font-family="Helvetica,sans-Serif" font-size="10.00">std::string</text>
</a>
</g>
</g>
<!-- Node18&#45;&gt;Node17 -->
<g id="edge18" class="edge"><title>Node18&#45;&gt;Node17</title>
<path fill="none" stroke="#9a32cd" stroke-dasharray="5,2" d="M668.665,-119.691C675.122,-118.087 681.739,-116.474 688,-115 719.861,-107.499 756.186,-99.5942 782.734,-93.9353"/>
<polygon fill="#9a32cd" stroke="#9a32cd" points="667.572,-116.357 658.724,-122.185 669.275,-123.147 667.572,-116.357"/>
<text text-anchor="middle" x="713.5" y="-118" font-family="Helvetica,sans-Serif" font-size="10.00"> device_id</text>
</g>
<!-- Node21 -->
<g id="node21" class="node"><title>Node21</title>
<polygon fill="white" stroke="#bfbfbf" points="767,-115 767,-145 876,-145 876,-115 767,-115"/>
<text text-anchor="start" x="775" y="-133" font-family="Helvetica,sans-Serif" font-size="10.00">std::map&lt; State, std</text>
<text text-anchor="middle" x="821.5" y="-122" font-family="Helvetica,sans-Serif" font-size="10.00">::string &gt;</text>
</g>
<!-- Node18&#45;&gt;Node21 -->
<g id="edge23" class="edge"><title>Node18&#45;&gt;Node21</title>
<path fill="none" stroke="#9a32cd" stroke-dasharray="5,2" d="M668.945,-130C697.46,-130 735.946,-130 766.999,-130"/>
<polygon fill="#9a32cd" stroke="#9a32cd" points="668.923,-126.5 658.923,-130 668.923,-133.5 668.923,-126.5"/>
<text text-anchor="middle" x="713.5" y="-133" font-family="Helvetica,sans-Serif" font-size="10.00"> elements</text>
</g>
<!-- Node19 -->
<g id="node19" class="node"><title>Node19</title>
<g id="a_node19"><a xlink:title="STL class. ">
<polygon fill="white" stroke="#bfbfbf" points="384,-115 384,-145 482,-145 482,-115 384,-115"/>
<text text-anchor="start" x="392" y="-133" font-family="Helvetica,sans-Serif" font-size="10.00">std::basic_string&lt;</text>
<text text-anchor="middle" x="433" y="-122" font-family="Helvetica,sans-Serif" font-size="10.00"> char &gt;</text>
</a>
</g>
</g>
<!-- Node19&#45;&gt;Node18 -->
<g id="edge19" class="edge"><title>Node19&#45;&gt;Node18</title>
<path fill="none" stroke="midnightblue" d="M492.457,-130C526.763,-130 568.683,-130 596.41,-130"/>
<polygon fill="midnightblue" stroke="midnightblue" points="492.079,-126.5 482.079,-130 492.079,-133.5 492.079,-126.5"/>
</g>
<!-- Node20&#45;&gt;Node1 -->
<g id="edge20" class="edge"><title>Node20&#45;&gt;Node1</title>
<path fill="none" stroke="#9a32cd" stroke-dasharray="5,2" d="M1101.82,-157.925C1130.24,-161.608 1167.62,-167.487 1200,-176 1205.8,-177.525 1211.93,-179.562 1217.62,-181.642"/>
<polygon fill="#9a32cd" stroke="#9a32cd" points="1102.14,-154.438 1091.78,-156.667 1101.27,-161.383 1102.14,-154.438"/>
<text text-anchor="middle" x="1170" y="-179" font-family="Helvetica,sans-Serif" font-size="10.00"> state</text>
</g>
<!-- Node21&#45;&gt;Node20 -->
<g id="edge22" class="edge"><title>Node21&#45;&gt;Node20</title>
<path fill="none" stroke="#9a32cd" stroke-dasharray="5,2" d="M886.286,-136.31C929.558,-140.591 985.102,-146.085 1020.39,-149.576"/>
<polygon fill="#9a32cd" stroke="#9a32cd" points="886.428,-132.807 876.132,-135.306 885.739,-139.773 886.428,-132.807"/>
<text text-anchor="middle" x="938" y="-148" font-family="Helvetica,sans-Serif" font-size="10.00"> STRINGS</text>
</g>
<!-- Node22&#45;&gt;Node1 -->
<g id="edge24" class="edge"><title>Node22&#45;&gt;Node1</title>
<path fill="none" stroke="#9a32cd" stroke-dasharray="5,2" d="M1108.51,-191C1144.49,-191 1190.77,-191 1217.88,-191"/>
<polygon fill="#9a32cd" stroke="#9a32cd" points="1108.18,-187.5 1098.18,-191 1108.18,-194.5 1108.18,-187.5"/>
<text text-anchor="middle" x="1170" y="-194" font-family="Helvetica,sans-Serif" font-size="10.00"> position</text>
</g>
</g>
</svg>
        <g id="navigator" transform="translate(0 0)" fill="#404254">
                <rect fill="#f2f5e9" fill-opacity="0.5" stroke="#606060" stroke-width=".5" x="0" y="0" width="60" height="60"/>
                <use id="zoomplus" xlink:href="#zoomPlus" x="17" y="9" onmousedown="handleZoom(evt,'in')"/>
                <use id="zoomminus" xlink:href="#zoomMin" x="42" y="9" onmousedown="handleZoom(evt,'out')"/>
                <use id="reset" xlink:href="#resetDef" x="30" y="36" onmousedown="handleReset()"/>
                <g id="arrowUp" xlink:href="#dirArrow" transform="translate(30 24)" onmousedown="handlePan(0,-1)">
                  <use xlink:href="#rim" fill="#404040">
                        <set attributeName="fill" to="#808080" begin="arrowUp.mouseover" end="arrowUp.mouseout"/>
                  </use>
                  <path fill="none" stroke="white" stroke-width="1.5" d="M0,-3.0v7 M-2.5,-0.5L0,-3.0L2.5,-0.5"/>
                </g>
                <g id="arrowRight" xlink:href="#dirArrow" transform="rotate(90) translate(36 -43)" onmousedown="handlePan(1,0)">
                  <use xlink:href="#rim" fill="#404040">
                        <set attributeName="fill" to="#808080" begin="arrowRight.mouseover" end="arrowRight.mouseout"/>
                  </use>
                  <path fill="none" stroke="white" stroke-width="1.5" d="M0,-3.0v7 M-2.5,-0.5L0,-3.0L2.5,-0.5"/>
                </g>
                <g id="arrowDown" xlink:href="#dirArrow" transform="rotate(180) translate(-30 -48)" onmousedown="handlePan(0,1)">
                  <use xlink:href="#rim" fill="#404040">
                        <set attributeName="fill" to="#808080" begin="arrowDown.mouseover" end="arrowDown.mouseout"/>
                  </use>
                  <path fill="none" stroke="white" stroke-width="1.5" d="M0,-3.0v7 M-2.5,-0.5L0,-3.0L2.5,-0.5"/>
                </g>
                <g id="arrowLeft" xlink:href="#dirArrow" transform="rotate(270) translate(-36 17)" onmousedown="handlePan(-1,0)">
                  <use xlink:href="#rim" fill="#404040">
                        <set attributeName="fill" to="#808080" begin="arrowLeft.mouseover" end="arrowLeft.mouseout"/>
                  </use>
                  <path fill="none" stroke="white" stroke-width="1.5" d="M0,-3.0v7 M-2.5,-0.5L0,-3.0L2.5,-0.5"/>
                </g>
        </g>
        <svg viewBox="0 0 15 15" width="100%" height="30px" preserveAspectRatio="xMaxYMin meet">
         <g id="arrow_out" transform="scale(0.3 0.3)">
          <a xlink:href="classPlayer__coll__graph_org.svg" target="_base">
           <rect id="button" ry="5" rx="5" y="6" x="6" height="38" width="38"
                fill="#f2f5e9" fill-opacity="0.5" stroke="#606060" stroke-width="1.0"/>
           <path id="arrow"
             d="M 11.500037,31.436501 C 11.940474,20.09759 22.043105,11.32322 32.158766,21.979434 L 37.068811,17.246167 C 37.068811,17.246167 37.088388,32 37.088388,32 L 22.160133,31.978069 C 22.160133,31.978069 26.997745,27.140456 26.997745,27.140456 C 18.528582,18.264221 13.291696,25.230495 11.500037,31.436501 z"
             style="fill:#404040;"/>
          </a>
         </g>
        </svg>
</svg>
