<?xml version="1.0" encoding="UTF-8" standalone="no"?>
<!DOCTYPE svg PUBLIC "-//W3C//DTD SVG 1.1//EN"
 "http://www.w3.org/Graphics/SVG/1.1/DTD/svg11.dtd">
<!-- Generated by graphviz version 2.38.0 (20140413.2041)
 -->
<!-- Title: src/cmd.hpp Pages: 1 -->
<svg width="433pt" height="252pt"
 viewBox="0.00 0.00 432.91 252.00" xmlns="http://www.w3.org/2000/svg" xmlns:xlink="http://www.w3.org/1999/xlink">
<g id="graph0" class="graph" transform="scale(1 1) rotate(0) translate(4 248)">
<title>src/cmd.hpp</title>
<polygon fill="white" stroke="none" points="-4,4 -4,-248 428.914,-248 428.914,4 -4,4"/>
<!-- Node1 -->
<g id="node1" class="node"><title>Node1</title>
<polygon fill="#bfbfbf" stroke="black" points="254.5,-224.5 254.5,-243.5 328.5,-243.5 328.5,-224.5 254.5,-224.5"/>
<text text-anchor="middle" x="291.5" y="-231.5" font-family="Helvetica,sans-Serif" font-size="10.00">src/cmd.hpp</text>
</g>
<!-- Node2 -->
<g id="node2" class="node"><title>Node2</title>
<g id="a_node2"><a xlink:href="cmd_8cpp.html" target="_top" xlink:title="Implementation of the CommandHandler class. ">
<polygon fill="white" stroke="black" points="0,-168.5 0,-187.5 73,-187.5 73,-168.5 0,-168.5"/>
<text text-anchor="middle" x="36.5" y="-175.5" font-family="Helvetica,sans-Serif" font-size="10.00">src/cmd.cpp</text>
</a>
</g>
</g>
<!-- Node1&#45;&gt;Node2 -->
<g id="edge1" class="edge"><title>Node1&#45;&gt;Node2</title>
<path fill="none" stroke="midnightblue" d="M244.617,-223.072C195.204,-212.608 118.398,-196.343 73.2102,-186.774"/>
<polygon fill="midnightblue" stroke="midnightblue" points="243.913,-226.5 254.421,-225.148 245.363,-219.652 243.913,-226.5"/>
</g>
<!-- Node3 -->
<g id="node3" class="node"><title>Node3</title>
<g id="a_node3"><a xlink:href="io__reactor_8cpp.html" target="_top" xlink:title="Implementation of the non&#45;virtual aspects of the IoReactor class. ">
<polygon fill="white" stroke="black" points="62,-56.5 62,-75.5 175,-75.5 175,-56.5 62,-56.5"/>
<text text-anchor="middle" x="118.5" y="-63.5" font-family="Helvetica,sans-Serif" font-size="10.00">src/io/io_reactor.cpp</text>
</a>
</g>
</g>
<!-- Node1&#45;&gt;Node3 -->
<g id="edge2" class="edge"><title>Node1&#45;&gt;Node3</title>
<path fill="none" stroke="midnightblue" d="M245.78,-221.466C203.624,-207.996 144.122,-181.03 120.5,-132 111.581,-113.489 114.333,-88.445 116.669,-75.5134"/>
<polygon fill="midnightblue" stroke="midnightblue" points="244.971,-224.878 255.557,-224.45 247.014,-218.183 244.971,-224.878"/>
</g>
<!-- Node4 -->
<g id="node4" class="node"><title>Node4</title>
<g id="a_node4"><a xlink:href="tokeniser_8hpp.html" target="_top" xlink:title="Declaration of the Tokeniser class. ">
<polygon fill="white" stroke="black" points="196,-168.5 196,-187.5 305,-187.5 305,-168.5 196,-168.5"/>
<text text-anchor="middle" x="250.5" y="-175.5" font-family="Helvetica,sans-Serif" font-size="10.00">src/io/tokeniser.hpp</text>
</a>
</g>
</g>
<!-- Node1&#45;&gt;Node4 -->
<g id="edge3" class="edge"><title>Node1&#45;&gt;Node4</title>
<path fill="none" stroke="midnightblue" d="M278.483,-215.855C271.383,-206.505 262.896,-195.327 257.144,-187.751"/>
<polygon fill="midnightblue" stroke="midnightblue" points="275.895,-218.235 284.73,-224.083 281.47,-214.002 275.895,-218.235"/>
</g>
<!-- Node6 -->
<g id="node6" class="node"><title>Node6</title>
<g id="a_node6"><a xlink:href="main_8cpp.html" target="_top" xlink:title="Main entry point and implementation of the playd class. ">
<polygon fill="white" stroke="black" points="331.5,-0.5 331.5,-19.5 407.5,-19.5 407.5,-0.5 331.5,-0.5"/>
<text text-anchor="middle" x="369.5" y="-7.5" font-family="Helvetica,sans-Serif" font-size="10.00">src/main.cpp</text>
</a>
</g>
</g>
<!-- Node1&#45;&gt;Node6 -->
<g id="edge12" class="edge"><title>Node1&#45;&gt;Node6</title>
<path fill="none" stroke="midnightblue" d="M325.105,-220.411C342.164,-212.853 362.412,-201.976 377.5,-188 399.032,-168.055 403.161,-159.825 412.5,-132 423.271,-99.9086 430.957,-87.0611 417.5,-56 410.689,-40.2779 395.38,-27.5306 383.87,-19.6698"/>
<polygon fill="midnightblue" stroke="midnightblue" points="323.34,-217.357 315.492,-224.475 326.066,-223.804 323.34,-217.357"/>
</g>
<!-- Node7 -->
<g id="node7" class="node"><title>Node7</title>
<g id="a_node7"><a xlink:href="main_8hpp.html" target="_top" xlink:title="Declaration of the playd class. ">
<polygon fill="white" stroke="black" points="331,-56.5 331,-75.5 408,-75.5 408,-56.5 331,-56.5"/>
<text text-anchor="middle" x="369.5" y="-63.5" font-family="Helvetica,sans-Serif" font-size="10.00">src/main.hpp</text>
</a>
</g>
</g>
<!-- Node1&#45;&gt;Node7 -->
<g id="edge13" class="edge"><title>Node1&#45;&gt;Node7</title>
<path fill="none" stroke="midnightblue" d="M314.958,-218.82C340.53,-201.836 380.002,-170.761 396.5,-132 405.018,-111.987 388.637,-88.3795 377.865,-75.8518"/>
<polygon fill="midnightblue" stroke="midnightblue" points="312.754,-216.077 306.235,-224.428 316.539,-221.965 312.754,-216.077"/>
</g>
<!-- Node8 -->
<g id="node8" class="node"><title>Node8</title>
<g id="a_node8"><a xlink:href="tokeniser_8cpp.html" target="_top" xlink:title="Definition of the Tokeniser class. ">
<polygon fill="white" stroke="black" points="279.5,-112.5 279.5,-131.5 387.5,-131.5 387.5,-112.5 279.5,-112.5"/>
<text text-anchor="middle" x="333.5" y="-119.5" font-family="Helvetica,sans-Serif" font-size="10.00">src/io/tokeniser.cpp</text>
</a>
</g>
</g>
<!-- Node1&#45;&gt;Node8 -->
<g id="edge11" class="edge"><title>Node1&#45;&gt;Node8</title>
<path fill="none" stroke="midnightblue" d="M300.96,-215.279C305.114,-207.107 309.862,-197.199 313.5,-188 321.316,-168.237 328.028,-144.131 331.325,-131.559"/>
<polygon fill="midnightblue" stroke="midnightblue" points="297.818,-213.734 296.302,-224.22 304.026,-216.968 297.818,-213.734"/>
</g>
<!-- Node5 -->
<g id="node5" class="node"><title>Node5</title>
<g id="a_node5"><a xlink:href="io__reactor_8hpp.html" target="_top" xlink:title="Declaration of the IoReactor class. ">
<polygon fill="white" stroke="black" points="130,-112.5 130,-131.5 243,-131.5 243,-112.5 130,-112.5"/>
<text text-anchor="middle" x="186.5" y="-119.5" font-family="Helvetica,sans-Serif" font-size="10.00">src/io/io_reactor.hpp</text>
</a>
</g>
</g>
<!-- Node4&#45;&gt;Node5 -->
<g id="edge4" class="edge"><title>Node4&#45;&gt;Node5</title>
<path fill="none" stroke="midnightblue" d="M232.509,-161.82C221.042,-152.145 206.587,-139.948 196.97,-131.834"/>
<polygon fill="midnightblue" stroke="midnightblue" points="230.317,-164.55 240.217,-168.324 234.831,-159.2 230.317,-164.55"/>
</g>
<!-- Node4&#45;&gt;Node8 -->
<g id="edge10" class="edge"><title>Node4&#45;&gt;Node8</title>
<path fill="none" stroke="midnightblue" d="M272.599,-162.622C287.762,-152.757 307.383,-139.992 320.198,-131.655"/>
<polygon fill="midnightblue" stroke="midnightblue" points="270.309,-159.937 263.835,-168.324 274.126,-165.804 270.309,-159.937"/>
</g>
<!-- Node5&#45;&gt;Node3 -->
<g id="edge5" class="edge"><title>Node5&#45;&gt;Node3</title>
<path fill="none" stroke="midnightblue" d="M167.738,-106.101C155.5,-96.3824 139.941,-84.0269 129.624,-75.8339"/>
<polygon fill="midnightblue" stroke="midnightblue" points="165.567,-108.846 175.575,-112.324 169.92,-103.364 165.567,-108.846"/>
</g>
<!-- Node5&#45;&gt;Node5 -->
<g id="edge6" class="edge"><title>Node5&#45;&gt;Node5</title>
<path fill="none" stroke="midnightblue" d="M228.282,-132.393C245.953,-133.17 261,-129.706 261,-122 261,-112.867 239.864,-109.692 218.274,-112.475"/>
<polygon fill="midnightblue" stroke="midnightblue" points="228.539,-128.902 218.274,-131.525 227.935,-135.876 228.539,-128.902"/>
</g>
<!-- Node5&#45;&gt;Node6 -->
<g id="edge7" class="edge"><title>Node5&#45;&gt;Node6</title>
<path fill="none" stroke="midnightblue" d="M209.776,-107.009C248.189,-83.919 323.733,-38.5104 355.207,-19.5914"/>
<polygon fill="midnightblue" stroke="midnightblue" points="207.627,-104.217 200.86,-112.368 211.234,-110.216 207.627,-104.217"/>
</g>
<!-- Node5&#45;&gt;Node7 -->
<g id="edge8" class="edge"><title>Node5&#45;&gt;Node7</title>
<path fill="none" stroke="midnightblue" d="M225.243,-109.568C259.765,-99.381 309.505,-84.7034 340.639,-75.5164"/>
<polygon fill="midnightblue" stroke="midnightblue" points="224.097,-106.256 215.497,-112.444 226.079,-112.97 224.097,-106.256"/>
</g>
<!-- Node7&#45;&gt;Node6 -->
<g id="edge9" class="edge"><title>Node7&#45;&gt;Node6</title>
<path fill="none" stroke="midnightblue" d="M369.5,-45.8045C369.5,-36.9102 369.5,-26.7798 369.5,-19.7511"/>
<polygon fill="midnightblue" stroke="midnightblue" points="366,-46.083 369.5,-56.083 373,-46.083 366,-46.083"/>
</g>
</g>
</svg>
