<?xml version="1.0" encoding="UTF-8" standalone="no"?>
<!DOCTYPE svg PUBLIC "-//W3C//DTD SVG 1.1//EN"
 "http://www.w3.org/Graphics/SVG/1.1/DTD/svg11.dtd">
<!-- Generated by graphviz version 2.38.0 (20140413.2041)
 -->
<!-- Title: src/player/player_file.hpp Pages: 1 -->
<!--zoomable 319 -->
<svg id="main" version="1.1" xmlns="http://www.w3.org/2000/svg" xmlns:xlink="http://www.w3.org/1999/xlink" xml:space="preserve" onload="init(evt)">
<style type="text/css"><![CDATA[
.edge:hover path { stroke: red; }
.edge:hover polygon { stroke: red; fill: red; }
]]></style>
<script type="text/javascript"><![CDATA[
var edges = document.getElementsByTagName('g');
if (edges && edges.length) {
  for (var i=0;i<edges.length;i++) {
    if (edges[i].id.substr(0,4)=='edge') {
      edges[i].setAttribute('class','edge');
    }
  }
}
]]></script>
        <defs>
                <circle id="rim" cx="0" cy="0" r="7"/>
                <circle id="rim2" cx="0" cy="0" r="3.5"/>
                <g id="zoomPlus">
                        <use xlink:href="#rim" fill="#404040">
                                <set attributeName="fill" to="#808080" begin="zoomplus.mouseover" end="zoomplus.mouseout"/>
                        </use>
                        <path d="M-4,0h8M0,-4v8" fill="none" stroke="white" stroke-width="1.5" pointer-events="none"/>
                </g>
                <g id="zoomMin">
                        <use xlink:href="#rim" fill="#404040">
                                <set attributeName="fill" to="#808080" begin="zoomminus.mouseover" end="zoomminus.mouseout"/>
                        </use>
                        <path d="M-4,0h8" fill="none" stroke="white" stroke-width="1.5" pointer-events="none"/>
                </g>
                <g id="dirArrow">
                        <path fill="none" stroke="white" stroke-width="1.5" d="M0,-3.0v7 M-2.5,-0.5L0,-3.0L2.5,-0.5"/>
                </g>
               <g id="resetDef">
                       <use xlink:href="#rim2" fill="#404040">
                               <set attributeName="fill" to="#808080" begin="reset.mouseover" end="reset.mouseout"/>
                       </use>
               </g>
        </defs>

<script type="text/javascript">
var viewWidth = 1436;
var viewHeight = 319;
var sectionId = 'dynsection-0';
</script>
<script xlink:href="svgpan.js"/>
<svg id="graph" class="graph">
<g id="viewport">
<title>src/player/player_file.hpp</title>
<polygon fill="white" stroke="none" points="-4,4 -4,-315 1432.43,-315 1432.43,4 -4,4"/>
<!-- Node1 -->
<g id="node1" class="node"><title>Node1</title>
<polygon fill="#bfbfbf" stroke="black" points="118,-291.5 118,-310.5 253,-310.5 253,-291.5 118,-291.5"/>
<text text-anchor="middle" x="185.5" y="-298.5" font-family="Helvetica,sans-Serif" font-size="10.00">src/player/player_file.hpp</text>
</g>
<!-- Node2 -->
<g id="node2" class="node"><title>Node2</title>
<polygon fill="white" stroke="#bfbfbf" points="327.5,-123.5 327.5,-142.5 381.5,-142.5 381.5,-123.5 327.5,-123.5"/>
<text text-anchor="middle" x="354.5" y="-130.5" font-family="Helvetica,sans-Serif" font-size="10.00">memory</text>
</g>
<!-- Node1&#45;&gt;Node2 -->
<g id="edge1" class="edge"><title>Node1&#45;&gt;Node2</title>
<path fill="none" stroke="midnightblue" d="M194.586,-291.075C221.879,-264.267 303.403,-184.19 338.328,-149.885"/>
<polygon fill="midnightblue" stroke="midnightblue" points="341.096,-152.073 345.777,-142.568 336.19,-147.079 341.096,-152.073"/>
</g>
<!-- Node3 -->
<g id="node3" class="node"><title>Node3</title>
<g id="a_node3"><a xlink:href="audio__system_8hpp.html" target="_top" xlink:title="Declaration of the AudioSystem class. ">
<polygon fill="white" stroke="black" points="462,-235.5 462,-254.5 599,-254.5 599,-235.5 462,-235.5"/>
<text text-anchor="middle" x="530.5" y="-242.5" font-family="Helvetica,sans-Serif" font-size="10.00">../audio/audio_system.hpp</text>
</a>
</g>
</g>
<!-- Node1&#45;&gt;Node3 -->
<g id="edge2" class="edge"><title>Node1&#45;&gt;Node3</title>
<path fill="none" stroke="midnightblue" d="M240.166,-291.444C301.486,-281.846 400.859,-266.292 465.949,-256.104"/>
<polygon fill="midnightblue" stroke="midnightblue" points="466.751,-259.521 476.089,-254.516 465.669,-252.605 466.751,-259.521"/>
</g>
<!-- Node27 -->
<g id="node27" class="node"><title>Node27</title>
<g id="a_node27"><a xlink:href="io__response_8hpp.html" target="_top" xlink:title="Declaration of classes pertaining to responses to the client. ">
<polygon fill="white" stroke="black" points="81.5,-123.5 81.5,-142.5 195.5,-142.5 195.5,-123.5 81.5,-123.5"/>
<text text-anchor="middle" x="138.5" y="-130.5" font-family="Helvetica,sans-Serif" font-size="10.00">../io/io_response.hpp</text>
</a>
</g>
</g>
<!-- Node1&#45;&gt;Node27 -->
<g id="edge49" class="edge"><title>Node1&#45;&gt;Node27</title>
<path fill="none" stroke="midnightblue" d="M182.725,-291.401C179.833,-282.364 175.213,-267.724 171.5,-255 160.916,-218.73 149.519,-176.038 143.273,-152.293"/>
<polygon fill="midnightblue" stroke="midnightblue" points="146.638,-151.324 140.717,-142.538 139.866,-153.098 146.638,-151.324"/>
</g>
<!-- Node4 -->
<g id="node4" class="node"><title>Node4</title>
<polygon fill="white" stroke="#bfbfbf" points="166.5,-62 166.5,-81 228.5,-81 228.5,-62 166.5,-62"/>
<text text-anchor="middle" x="197.5" y="-69" font-family="Helvetica,sans-Serif" font-size="10.00">functional</text>
</g>
<!-- Node3&#45;&gt;Node4 -->
<g id="edge3" class="edge"><title>Node3&#45;&gt;Node4</title>
<path fill="none" stroke="midnightblue" d="M461.58,-239.26C419.045,-233.959 364.571,-222.738 321.5,-199 271.41,-171.393 228.656,-117.136 209.014,-89.5193"/>
<polygon fill="midnightblue" stroke="midnightblue" points="211.846,-87.4617 203.262,-81.2521 206.1,-91.4597 211.846,-87.4617"/>
</g>
<!-- Node5 -->
<g id="node5" class="node"><title>Node5</title>
<polygon fill="white" stroke="#bfbfbf" points="901,-0.5 901,-19.5 944,-19.5 944,-0.5 901,-0.5"/>
<text text-anchor="middle" x="922.5" y="-7.5" font-family="Helvetica,sans-Serif" font-size="10.00">string</text>
</g>
<!-- Node3&#45;&gt;Node5 -->
<g id="edge4" class="edge"><title>Node3&#45;&gt;Node5</title>
<path fill="none" stroke="midnightblue" d="M599.22,-241.072C791.352,-232.165 1323.3,-202.312 1372.5,-143 1432.61,-70.5386 1503.94,-138.601 1233.5,-56 1134.49,-25.7586 1011.37,-15.6245 954.295,-12.405"/>
<polygon fill="midnightblue" stroke="midnightblue" points="954.278,-8.89929 944.107,-11.8652 953.908,-15.8895 954.278,-8.89929"/>
</g>
<!-- Node6 -->
<g id="node6" class="node"><title>Node6</title>
<polygon fill="white" stroke="#bfbfbf" points="831.5,-123.5 831.5,-142.5 871.5,-142.5 871.5,-123.5 831.5,-123.5"/>
<text text-anchor="middle" x="851.5" y="-130.5" font-family="Helvetica,sans-Serif" font-size="10.00">utility</text>
</g>
<!-- Node3&#45;&gt;Node6 -->
<g id="edge5" class="edge"><title>Node3&#45;&gt;Node6</title>
<path fill="none" stroke="midnightblue" d="M555.421,-235.46C613.748,-215.473 758.938,-165.719 821.755,-144.193"/>
<polygon fill="midnightblue" stroke="midnightblue" points="823.126,-147.423 831.451,-140.87 820.857,-140.801 823.126,-147.423"/>
</g>
<!-- Node7 -->
<g id="node7" class="node"><title>Node7</title>
<polygon fill="white" stroke="#bfbfbf" points="363,-179.5 363,-198.5 554,-198.5 554,-179.5 363,-179.5"/>
<text text-anchor="middle" x="458.5" y="-186.5" font-family="Helvetica,sans-Serif" font-size="10.00">portaudiocpp/SampleDataFormat.hxx</text>
</g>
<!-- Node3&#45;&gt;Node7 -->
<g id="edge6" class="edge"><title>Node3&#45;&gt;Node7</title>
<path fill="none" stroke="midnightblue" d="M518.932,-235.324C508.08,-227.185 491.619,-214.839 478.617,-205.087"/>
<polygon fill="midnightblue" stroke="midnightblue" points="480.379,-202.034 470.279,-198.834 476.179,-207.634 480.379,-202.034"/>
</g>
<!-- Node8 -->
<g id="node8" class="node"><title>Node8</title>
<polygon fill="white" stroke="#bfbfbf" points="1229.5,-123.5 1229.5,-142.5 1363.5,-142.5 1363.5,-123.5 1229.5,-123.5"/>
<text text-anchor="middle" x="1296.5" y="-130.5" font-family="Helvetica,sans-Serif" font-size="10.00">portaudiocpp/Stream.hxx</text>
</g>
<!-- Node3&#45;&gt;Node8 -->
<g id="edge7" class="edge"><title>Node3&#45;&gt;Node8</title>
<path fill="none" stroke="midnightblue" d="M599.317,-240.298C692.51,-234.653 863.83,-222.038 1008.5,-199 1097.14,-184.885 1199.26,-159.669 1254.95,-145.142"/>
<polygon fill="midnightblue" stroke="midnightblue" points="1256.01,-148.482 1264.8,-142.559 1254.23,-141.711 1256.01,-148.482"/>
</g>
<!-- Node9 -->
<g id="node9" class="node"><title>Node9</title>
<g id="a_node9"><a xlink:href="sample__formats_8hpp.html" target="_top" xlink:title="The SampleFormat enumeration. ">
<polygon fill="white" stroke="black" points="285,-62 285,-81 404,-81 404,-62 285,-62"/>
<text text-anchor="middle" x="344.5" y="-69" font-family="Helvetica,sans-Serif" font-size="10.00">../sample_formats.hpp</text>
</a>
</g>
</g>
<!-- Node3&#45;&gt;Node9 -->
<g id="edge8" class="edge"><title>Node3&#45;&gt;Node9</title>
<path fill="none" stroke="midnightblue" d="M461.715,-241.669C423.523,-237.124 377.257,-225.857 344.5,-199 316.893,-176.365 310.093,-157.696 318.5,-123 321.327,-111.335 327.343,-99.346 332.877,-89.9784"/>
<polygon fill="midnightblue" stroke="midnightblue" points="335.977,-91.6224 338.315,-81.2888 330.043,-87.9088 335.977,-91.6224"/>
</g>
<!-- Node11 -->
<g id="node11" class="node"><title>Node11</title>
<g id="a_node11"><a xlink:href="audio__sink_8hpp.html" target="_top" xlink:title="Declaration of the AudioSink class. ">
<polygon fill="white" stroke="black" points="913,-179.5 913,-198.5 1000,-198.5 1000,-179.5 913,-179.5"/>
<text text-anchor="middle" x="956.5" y="-186.5" font-family="Helvetica,sans-Serif" font-size="10.00">audio_sink.hpp</text>
</a>
</g>
</g>
<!-- Node3&#45;&gt;Node11 -->
<g id="edge10" class="edge"><title>Node3&#45;&gt;Node11</title>
<path fill="none" stroke="midnightblue" d="M598.001,-235.444C682.424,-224.742 825.261,-206.636 902.702,-196.819"/>
<polygon fill="midnightblue" stroke="midnightblue" points="903.246,-200.279 912.726,-195.549 902.366,-193.334 903.246,-200.279"/>
</g>
<!-- Node16 -->
<g id="node16" class="node"><title>Node16</title>
<g id="a_node16"><a xlink:href="audio__source_8hpp.html" target="_top" xlink:title="Declaration of the AudioSource class. ">
<polygon fill="white" stroke="black" points="399.5,-123.5 399.5,-142.5 499.5,-142.5 499.5,-123.5 399.5,-123.5"/>
<text text-anchor="middle" x="449.5" y="-130.5" font-family="Helvetica,sans-Serif" font-size="10.00">audio_source.hpp</text>
</a>
</g>
</g>
<!-- Node3&#45;&gt;Node16 -->
<g id="edge38" class="edge"><title>Node3&#45;&gt;Node16</title>
<path fill="none" stroke="midnightblue" d="M462.801,-235.447C418.783,-228.337 367.124,-216.521 353.5,-199 334.777,-174.921 371.86,-156.573 405.24,-145.608"/>
<polygon fill="midnightblue" stroke="midnightblue" points="406.455,-148.896 414.96,-142.578 404.372,-142.213 406.455,-148.896"/>
</g>
<!-- Node26 -->
<g id="node26" class="node"><title>Node26</title>
<g id="a_node26"><a xlink:href="audio_8hpp.html" target="_top" xlink:title="Declaration of the Audio class. ">
<polygon fill="white" stroke="black" points="572.5,-179.5 572.5,-198.5 634.5,-198.5 634.5,-179.5 572.5,-179.5"/>
<text text-anchor="middle" x="603.5" y="-186.5" font-family="Helvetica,sans-Serif" font-size="10.00">audio.hpp</text>
</a>
</g>
</g>
<!-- Node3&#45;&gt;Node26 -->
<g id="edge39" class="edge"><title>Node3&#45;&gt;Node26</title>
<path fill="none" stroke="midnightblue" d="M542.229,-235.324C553.337,-227.107 570.242,-214.602 583.483,-204.807"/>
<polygon fill="midnightblue" stroke="midnightblue" points="585.6,-207.595 591.558,-198.834 581.437,-201.967 585.6,-207.595"/>
</g>
<!-- Node10 -->
<g id="node10" class="node"><title>Node10</title>
<polygon fill="white" stroke="#bfbfbf" points="344,-0.5 344,-19.5 391,-19.5 391,-0.5 344,-0.5"/>
<text text-anchor="middle" x="367.5" y="-7.5" font-family="Helvetica,sans-Serif" font-size="10.00">cstdint</text>
</g>
<!-- Node9&#45;&gt;Node10 -->
<g id="edge9" class="edge"><title>Node9&#45;&gt;Node10</title>
<path fill="none" stroke="midnightblue" d="M347.795,-61.9751C351.109,-53.4035 356.318,-39.9269 360.549,-28.983"/>
<polygon fill="midnightblue" stroke="midnightblue" points="363.87,-30.0984 364.211,-19.5091 357.341,-27.5745 363.87,-30.0984"/>
</g>
<!-- Node11&#45;&gt;Node2 -->
<g id="edge13" class="edge"><title>Node11&#45;&gt;Node2</title>
<path fill="none" stroke="midnightblue" d="M912.89,-186.99C819.125,-184.292 591.332,-174.909 391.617,-142.907"/>
<polygon fill="midnightblue" stroke="midnightblue" points="391.959,-139.417 381.527,-141.267 390.835,-146.326 391.959,-139.417"/>
</g>
<!-- Node11&#45;&gt;Node5 -->
<g id="edge14" class="edge"><title>Node11&#45;&gt;Node5</title>
<path fill="none" stroke="midnightblue" d="M1000.05,-179.759C1064.42,-167.514 1177.8,-145.664 1181.5,-143 1214.92,-118.91 1240.31,-87.2792 1213.5,-56 1180.42,-17.4088 1023.14,-11.6191 954.575,-10.9571"/>
<polygon fill="midnightblue" stroke="midnightblue" points="954.388,-7.45589 944.366,-10.8906 954.343,-14.4557 954.388,-7.45589"/>
</g>
<!-- Node11&#45;&gt;Node6 -->
<g id="edge15" class="edge"><title>Node11&#45;&gt;Node6</title>
<path fill="none" stroke="midnightblue" d="M939.63,-179.324C922.791,-170.664 896.693,-157.242 877.262,-147.249"/>
<polygon fill="midnightblue" stroke="midnightblue" points="878.822,-144.116 868.328,-142.655 875.62,-150.341 878.822,-144.116"/>
</g>
<!-- Node11&#45;&gt;Node8 -->
<g id="edge19" class="edge"><title>Node11&#45;&gt;Node8</title>
<path fill="none" stroke="midnightblue" d="M1000.25,-181.051C1059.28,-171.676 1164.82,-154.913 1232.7,-144.133"/>
<polygon fill="midnightblue" stroke="midnightblue" points="1233.51,-147.548 1242.84,-142.522 1232.41,-140.634 1233.51,-147.548"/>
</g>
<!-- Node11&#45;&gt;Node10 -->
<g id="edge12" class="edge"><title>Node11&#45;&gt;Node10</title>
<path fill="none" stroke="midnightblue" d="M975.608,-179.429C999.282,-167.598 1034.64,-145.201 1018.5,-123 988.004,-81.0501 956.211,-104.806 907.5,-87 873.238,-74.4755 866.955,-64.5842 831.5,-56 654.144,-13.0594 603.557,-42.75 422.5,-20 415.598,-19.1328 408.236,-18.0429 401.215,-16.9238"/>
<polygon fill="midnightblue" stroke="midnightblue" points="401.703,-13.4571 391.267,-15.2858 400.566,-20.3641 401.703,-13.4571"/>
</g>
<!-- Node12 -->
<g id="node12" class="node"><title>Node12</title>
<polygon fill="white" stroke="#bfbfbf" points="708.5,-62 708.5,-81 758.5,-81 758.5,-62 708.5,-62"/>
<text text-anchor="middle" x="733.5" y="-69" font-family="Helvetica,sans-Serif" font-size="10.00">chrono</text>
</g>
<!-- Node11&#45;&gt;Node12 -->
<g id="edge11" class="edge"><title>Node11&#45;&gt;Node12</title>
<path fill="none" stroke="midnightblue" d="M961.826,-179.301C969.416,-165.667 981.008,-139.156 967.5,-123 909.568,-53.7096 854.03,-112.879 767.5,-87 765.352,-86.3576 763.157,-85.6205 760.968,-84.8264"/>
<polygon fill="midnightblue" stroke="midnightblue" points="762.158,-81.5332 751.572,-81.0983 759.576,-88.0398 762.158,-81.5332"/>
</g>
<!-- Node13 -->
<g id="node13" class="node"><title>Node13</title>
<polygon fill="white" stroke="#bfbfbf" points="776.5,-62 776.5,-81 822.5,-81 822.5,-62 776.5,-62"/>
<text text-anchor="middle" x="799.5" y="-69" font-family="Helvetica,sans-Serif" font-size="10.00">vector</text>
</g>
<!-- Node11&#45;&gt;Node13 -->
<g id="edge16" class="edge"><title>Node11&#45;&gt;Node13</title>
<path fill="none" stroke="midnightblue" d="M970.141,-179.303C988.453,-166.56 1017,-142.241 1001.5,-123 954.421,-64.5418 908.335,-108.762 836.5,-87 834.073,-86.2649 831.581,-85.442 829.092,-84.5717"/>
<polygon fill="midnightblue" stroke="midnightblue" points="830.245,-81.2665 819.652,-81.0655 827.808,-87.8285 830.245,-81.2665"/>
</g>
<!-- Node14 -->
<g id="node14" class="node"><title>Node14</title>
<polygon fill="white" stroke="#bfbfbf" points="890,-123.5 890,-142.5 959,-142.5 959,-123.5 890,-123.5"/>
<text text-anchor="middle" x="924.5" y="-130.5" font-family="Helvetica,sans-Serif" font-size="10.00">portaudio.h</text>
</g>
<!-- Node11&#45;&gt;Node14 -->
<g id="edge17" class="edge"><title>Node11&#45;&gt;Node14</title>
<path fill="none" stroke="midnightblue" d="M951.216,-179.083C946.789,-171.613 940.337,-160.724 934.882,-151.52"/>
<polygon fill="midnightblue" stroke="midnightblue" points="937.795,-149.57 929.686,-142.751 931.773,-153.138 937.795,-149.57"/>
</g>
<!-- Node15 -->
<g id="node15" class="node"><title>Node15</title>
<polygon fill="white" stroke="#bfbfbf" points="631.5,-123.5 631.5,-142.5 813.5,-142.5 813.5,-123.5 631.5,-123.5"/>
<text text-anchor="middle" x="722.5" y="-130.5" font-family="Helvetica,sans-Serif" font-size="10.00">portaudiocpp/CallbackInterface.hxx</text>
</g>
<!-- Node11&#45;&gt;Node15 -->
<g id="edge18" class="edge"><title>Node11&#45;&gt;Node15</title>
<path fill="none" stroke="midnightblue" d="M919.422,-179.444C878.772,-170.063 813.468,-154.993 769.316,-144.804"/>
<polygon fill="midnightblue" stroke="midnightblue" points="769.935,-141.355 759.405,-142.516 768.361,-148.175 769.935,-141.355"/>
</g>
<!-- Node11&#45;&gt;Node16 -->
<g id="edge20" class="edge"><title>Node11&#45;&gt;Node16</title>
<path fill="none" stroke="midnightblue" d="M912.835,-183.349C822.061,-173.681 612.859,-151.399 509.51,-140.392"/>
<polygon fill="midnightblue" stroke="midnightblue" points="509.861,-136.909 499.547,-139.33 509.12,-143.87 509.861,-136.909"/>
</g>
<!-- Node22 -->
<g id="node22" class="node"><title>Node22</title>
<g id="a_node22"><a xlink:href="ringbuffer_8hpp.html" target="_top" xlink:title="The RingBuffer class template. ">
<polygon fill="white" stroke="black" points="1092,-123.5 1092,-142.5 1173,-142.5 1173,-123.5 1092,-123.5"/>
<text text-anchor="middle" x="1132.5" y="-130.5" font-family="Helvetica,sans-Serif" font-size="10.00">ringbuffer.hpp</text>
</a>
</g>
</g>
<!-- Node11&#45;&gt;Node22 -->
<g id="edge32" class="edge"><title>Node11&#45;&gt;Node22</title>
<path fill="none" stroke="midnightblue" d="M984.388,-179.444C1014.25,-170.28 1061.81,-155.688 1094.96,-145.519"/>
<polygon fill="midnightblue" stroke="midnightblue" points="1096.21,-148.796 1104.74,-142.516 1094.16,-142.104 1096.21,-148.796"/>
</g>
<!-- Node16&#45;&gt;Node4 -->
<g id="edge24" class="edge"><title>Node16&#45;&gt;Node4</title>
<path fill="none" stroke="midnightblue" d="M413.395,-123.475C367.146,-112.555 287.181,-93.6748 238.631,-82.2116"/>
<polygon fill="midnightblue" stroke="midnightblue" points="239.308,-78.7752 228.772,-79.8836 237.7,-85.5879 239.308,-78.7752"/>
</g>
<!-- Node16&#45;&gt;Node5 -->
<g id="edge25" class="edge"><title>Node16&#45;&gt;Node5</title>
<path fill="none" stroke="midnightblue" d="M499.748,-127.833C543.853,-122.678 608.842,-111.374 660.5,-87 680.525,-77.5515 679.423,-65.3382 699.5,-56 763.186,-26.3779 846.004,-16.1955 890.639,-12.739"/>
<polygon fill="midnightblue" stroke="midnightblue" points="891.142,-16.2123 900.869,-12.0141 890.647,-9.2298 891.142,-16.2123"/>
</g>
<!-- Node16&#45;&gt;Node9 -->
<g id="edge31" class="edge"><title>Node16&#45;&gt;Node9</title>
<path fill="none" stroke="midnightblue" d="M434.456,-123.475C417.225,-113.711 388.76,-97.5807 368.466,-86.0808"/>
<polygon fill="midnightblue" stroke="midnightblue" points="369.942,-82.8942 359.516,-81.0091 366.491,-88.9843 369.942,-82.8942"/>
</g>
<!-- Node16&#45;&gt;Node10 -->
<g id="edge23" class="edge"><title>Node16&#45;&gt;Node10</title>
<path fill="none" stroke="midnightblue" d="M446.267,-123.046C440.696,-108.275 428.343,-78.2274 412.5,-56 404.841,-45.2541 394.533,-34.74 385.716,-26.5806"/>
<polygon fill="midnightblue" stroke="midnightblue" points="387.94,-23.8741 378.156,-19.81 383.27,-29.0887 387.94,-23.8741"/>
</g>
<!-- Node16&#45;&gt;Node12 -->
<g id="edge22" class="edge"><title>Node16&#45;&gt;Node12</title>
<path fill="none" stroke="midnightblue" d="M499.742,-123.835C560.372,-113.796 658.644,-96.8773 694.5,-87 697.307,-86.2266 700.198,-85.3373 703.075,-84.3876"/>
<polygon fill="midnightblue" stroke="midnightblue" points="704.401,-87.6314 712.67,-81.0076 702.075,-81.0291 704.401,-87.6314"/>
</g>
<!-- Node16&#45;&gt;Node13 -->
<g id="edge26" class="edge"><title>Node16&#45;&gt;Node13</title>
<path fill="none" stroke="midnightblue" d="M499.749,-126.654C576.289,-118.213 718.377,-101.286 767.5,-87 769.433,-86.4379 771.399,-85.7798 773.358,-85.0598"/>
<polygon fill="midnightblue" stroke="midnightblue" points="775.006,-88.1652 782.903,-81.1013 772.325,-81.6991 775.006,-88.1652"/>
</g>
<!-- Node17 -->
<g id="node17" class="node"><title>Node17</title>
<polygon fill="white" stroke="#bfbfbf" points="552,-62 552,-81 593,-81 593,-62 552,-62"/>
<text text-anchor="middle" x="572.5" y="-69" font-family="Helvetica,sans-Serif" font-size="10.00">array</text>
</g>
<!-- Node16&#45;&gt;Node17 -->
<g id="edge21" class="edge"><title>Node16&#45;&gt;Node17</title>
<path fill="none" stroke="midnightblue" d="M467.123,-123.475C487.674,-113.534 521.864,-96.9947 545.707,-85.461"/>
<polygon fill="midnightblue" stroke="midnightblue" points="547.432,-88.5145 554.91,-81.0091 544.384,-82.2131 547.432,-88.5145"/>
</g>
<!-- Node18 -->
<g id="node18" class="node"><title>Node18</title>
<polygon fill="white" stroke="#bfbfbf" points="611,-62 611,-81 652,-81 652,-62 611,-62"/>
<text text-anchor="middle" x="631.5" y="-69" font-family="Helvetica,sans-Serif" font-size="10.00">sox.h</text>
</g>
<!-- Node16&#45;&gt;Node18 -->
<g id="edge27" class="edge"><title>Node16&#45;&gt;Node18</title>
<path fill="none" stroke="midnightblue" d="M484.14,-123.463C515.3,-115.381 562.099,-102.238 601.5,-87 602.883,-86.4653 604.289,-85.8924 605.7,-85.2942"/>
<polygon fill="midnightblue" stroke="midnightblue" points="607.236,-88.4408 614.894,-81.1186 604.341,-82.0674 607.236,-88.4408"/>
</g>
<!-- Node19 -->
<g id="node19" class="node"><title>Node19</title>
<g id="a_node19"><a xlink:href="errors_8hpp.html" target="_top" xlink:title="Declarations of the playd Error exception set. ">
<polygon fill="white" stroke="black" points="461,-62 461,-81 534,-81 534,-62 461,-62"/>
<text text-anchor="middle" x="497.5" y="-69" font-family="Helvetica,sans-Serif" font-size="10.00">../errors.hpp</text>
</a>
</g>
</g>
<!-- Node16&#45;&gt;Node19 -->
<g id="edge28" class="edge"><title>Node16&#45;&gt;Node19</title>
<path fill="none" stroke="midnightblue" d="M456.377,-123.475C463.649,-114.462 475.295,-100.025 484.341,-88.8118"/>
<polygon fill="midnightblue" stroke="midnightblue" points="487.081,-90.9898 490.636,-81.0091 481.633,-86.5946 487.081,-90.9898"/>
</g>
<!-- Node20 -->
<g id="node20" class="node"><title>Node20</title>
<polygon fill="white" stroke="#bfbfbf" points="432,-0.5 432,-19.5 489,-19.5 489,-0.5 432,-0.5"/>
<text text-anchor="middle" x="460.5" y="-7.5" font-family="Helvetica,sans-Serif" font-size="10.00">iostream</text>
</g>
<!-- Node19&#45;&gt;Node20 -->
<g id="edge29" class="edge"><title>Node19&#45;&gt;Node20</title>
<path fill="none" stroke="midnightblue" d="M492.199,-61.9751C486.759,-53.2268 478.141,-39.3691 471.264,-28.3093"/>
<polygon fill="midnightblue" stroke="midnightblue" points="474.044,-26.1528 465.791,-19.5091 468.1,-29.8494 474.044,-26.1528"/>
</g>
<!-- Node21 -->
<g id="node21" class="node"><title>Node21</title>
<polygon fill="white" stroke="#bfbfbf" points="507.5,-0.5 507.5,-19.5 561.5,-19.5 561.5,-0.5 507.5,-0.5"/>
<text text-anchor="middle" x="534.5" y="-7.5" font-family="Helvetica,sans-Serif" font-size="10.00">sstream</text>
</g>
<!-- Node19&#45;&gt;Node21 -->
<g id="edge30" class="edge"><title>Node19&#45;&gt;Node21</title>
<path fill="none" stroke="midnightblue" d="M502.801,-61.9751C508.241,-53.2268 516.859,-39.3691 523.736,-28.3093"/>
<polygon fill="midnightblue" stroke="midnightblue" points="526.9,-29.8494 529.209,-19.5091 520.956,-26.1528 526.9,-29.8494"/>
</g>
<!-- Node22&#45;&gt;Node19 -->
<g id="edge35" class="edge"><title>Node22&#45;&gt;Node19</title>
<path fill="none" stroke="midnightblue" d="M1091.82,-129.455C967.227,-121.58 596.051,-97.5169 542.5,-87 538.536,-86.2215 534.433,-85.2063 530.39,-84.0743"/>
<polygon fill="midnightblue" stroke="midnightblue" points="531.167,-80.6524 520.581,-81.0879 529.128,-87.3489 531.167,-80.6524"/>
</g>
<!-- Node23 -->
<g id="node23" class="node"><title>Node23</title>
<polygon fill="white" stroke="#bfbfbf" points="1154,-62 1154,-81 1205,-81 1205,-62 1154,-62"/>
<text text-anchor="middle" x="1179.5" y="-69" font-family="Helvetica,sans-Serif" font-size="10.00">cassert</text>
</g>
<!-- Node22&#45;&gt;Node23 -->
<g id="edge33" class="edge"><title>Node22&#45;&gt;Node23</title>
<path fill="none" stroke="midnightblue" d="M1139.23,-123.475C1146.28,-114.55 1157.53,-100.307 1166.35,-89.1425"/>
<polygon fill="midnightblue" stroke="midnightblue" points="1169.33,-91.0258 1172.78,-81.0091 1163.83,-86.6867 1169.33,-91.0258"/>
</g>
<!-- Node24 -->
<g id="node24" class="node"><title>Node24</title>
<polygon fill="white" stroke="#bfbfbf" points="1015,-56.5 1015,-86.5 1136,-86.5 1136,-56.5 1015,-56.5"/>
<text text-anchor="start" x="1023" y="-74.5" font-family="Helvetica,sans-Serif" font-size="10.00">../contrib/pa_ringbuffer</text>
<text text-anchor="middle" x="1075.5" y="-63.5" font-family="Helvetica,sans-Serif" font-size="10.00">/pa_ringbuffer.h</text>
</g>
<!-- Node22&#45;&gt;Node24 -->
<g id="edge34" class="edge"><title>Node22&#45;&gt;Node24</title>
<path fill="none" stroke="midnightblue" d="M1124.33,-123.475C1116.97,-115.793 1105.84,-104.172 1096.06,-93.9643"/>
<polygon fill="midnightblue" stroke="midnightblue" points="1098.38,-91.3229 1088.93,-86.523 1093.32,-96.1654 1098.38,-91.3229"/>
</g>
<!-- Node25 -->
<g id="node25" class="node"><title>Node25</title>
<g id="a_node25"><a xlink:href="messages_8h.html" target="_top" xlink:title="Constant human&#45;readable messages used within playd. ">
<polygon fill="white" stroke="black" points="916.5,-62 916.5,-81 996.5,-81 996.5,-62 916.5,-62"/>
<text text-anchor="middle" x="956.5" y="-69" font-family="Helvetica,sans-Serif" font-size="10.00">../messages.h</text>
</a>
</g>
</g>
<!-- Node22&#45;&gt;Node25 -->
<g id="edge36" class="edge"><title>Node22&#45;&gt;Node25</title>
<path fill="none" stroke="midnightblue" d="M1107.28,-123.475C1076.83,-113.18 1025.45,-95.8103 991.257,-84.2502"/>
<polygon fill="midnightblue" stroke="midnightblue" points="992.264,-80.8961 981.67,-81.0091 990.022,-87.5274 992.264,-80.8961"/>
</g>
<!-- Node25&#45;&gt;Node5 -->
<g id="edge37" class="edge"><title>Node25&#45;&gt;Node5</title>
<path fill="none" stroke="midnightblue" d="M951.629,-61.9751C946.63,-53.2268 938.711,-39.3691 932.391,-28.3093"/>
<polygon fill="midnightblue" stroke="midnightblue" points="935.363,-26.455 927.362,-19.5091 929.285,-29.928 935.363,-26.455"/>
</g>
<!-- Node26&#45;&gt;Node2 -->
<g id="edge42" class="edge"><title>Node26&#45;&gt;Node2</title>
<path fill="none" stroke="midnightblue" d="M572.168,-181.089C568.904,-180.379 565.635,-179.672 562.5,-179 489.267,-163.299 468.317,-160.675 391.739,-143.218"/>
<polygon fill="midnightblue" stroke="midnightblue" points="392.129,-139.716 381.6,-140.894 390.565,-146.539 392.129,-139.716"/>
</g>
<!-- Node26&#45;&gt;Node5 -->
<g id="edge43" class="edge"><title>Node26&#45;&gt;Node5</title>
<path fill="none" stroke="midnightblue" d="M603.325,-179.344C603.546,-165.275 606.183,-137.558 622.5,-123 692.832,-60.2489 745.95,-126.567 831.5,-87 862.326,-72.7431 891.219,-45.2923 907.864,-27.5779"/>
<polygon fill="midnightblue" stroke="midnightblue" points="910.843,-29.5068 915.007,-19.7644 905.677,-24.7838 910.843,-29.5068"/>
</g>
<!-- Node26&#45;&gt;Node6 -->
<g id="edge44" class="edge"><title>Node26&#45;&gt;Node6</title>
<path fill="none" stroke="midnightblue" d="M634.547,-182.614C675.358,-175.319 749.433,-161.337 821.587,-143.04"/>
<polygon fill="midnightblue" stroke="midnightblue" points="822.475,-146.426 831.291,-140.55 820.735,-139.645 822.475,-146.426"/>
</g>
<!-- Node26&#45;&gt;Node10 -->
<g id="edge41" class="edge"><title>Node26&#45;&gt;Node10</title>
<path fill="none" stroke="midnightblue" d="M572.206,-180.896C568.935,-180.223 565.654,-179.578 562.5,-179 454.678,-159.237 413.012,-198.532 318.5,-143 281.312,-121.15 252.664,-92.5907 275.5,-56 288.282,-35.5187 313.386,-24.1044 334.146,-17.9007"/>
<polygon fill="midnightblue" stroke="midnightblue" points="335.176,-21.2478 343.915,-15.2569 333.348,-14.4909 335.176,-21.2478"/>
</g>
<!-- Node26&#45;&gt;Node12 -->
<g id="edge40" class="edge"><title>Node26&#45;&gt;Node12</title>
<path fill="none" stroke="midnightblue" d="M587.901,-179.433C567.357,-167.052 535.597,-143.403 551.5,-123 591.791,-71.309 631.914,-106.449 694.5,-87 697.063,-86.2035 699.704,-85.3328 702.346,-84.4261"/>
<polygon fill="midnightblue" stroke="midnightblue" points="703.542,-87.7154 711.78,-81.0538 701.186,-81.1238 703.542,-87.7154"/>
</g>
<!-- Node26&#45;&gt;Node13 -->
<g id="edge45" class="edge"><title>Node26&#45;&gt;Node13</title>
<path fill="none" stroke="midnightblue" d="M597.609,-179.369C589.168,-165.827 576.052,-139.44 589.5,-123 640.604,-60.5261 690.696,-111.814 767.5,-87 769.372,-86.3953 771.28,-85.7128 773.185,-84.9817"/>
<polygon fill="midnightblue" stroke="midnightblue" points="774.652,-88.162 782.511,-81.0569 771.936,-81.7101 774.652,-88.162"/>
</g>
<!-- Node26&#45;&gt;Node14 -->
<g id="edge46" class="edge"><title>Node26&#45;&gt;Node14</title>
<path fill="none" stroke="midnightblue" d="M634.727,-183.351C684.342,-175.873 784.457,-160.41 879.833,-143.057"/>
<polygon fill="midnightblue" stroke="midnightblue" points="880.732,-146.451 889.939,-141.208 879.472,-139.565 880.732,-146.451"/>
</g>
<!-- Node26&#45;&gt;Node15 -->
<g id="edge47" class="edge"><title>Node26&#45;&gt;Node15</title>
<path fill="none" stroke="midnightblue" d="M622.356,-179.444C641.766,-170.636 672.23,-156.812 694.465,-146.722"/>
<polygon fill="midnightblue" stroke="midnightblue" points="696.072,-149.836 703.732,-142.516 693.18,-143.462 696.072,-149.836"/>
</g>
<!-- Node26&#45;&gt;Node16 -->
<g id="edge48" class="edge"><title>Node26&#45;&gt;Node16</title>
<path fill="none" stroke="midnightblue" d="M579.098,-179.444C553.303,-170.399 512.423,-156.064 483.482,-145.916"/>
<polygon fill="midnightblue" stroke="midnightblue" points="484.382,-142.523 473.788,-142.516 482.066,-149.128 484.382,-142.523"/>
</g>
<!-- Node27&#45;&gt;Node4 -->
<g id="edge50" class="edge"><title>Node27&#45;&gt;Node4</title>
<path fill="none" stroke="midnightblue" d="M146.953,-123.475C156.066,-114.285 170.77,-99.4563 181.976,-88.156"/>
<polygon fill="midnightblue" stroke="midnightblue" points="184.507,-90.5744 189.062,-81.0091 179.536,-85.6455 184.507,-90.5744"/>
</g>
<!-- Node27&#45;&gt;Node5 -->
<g id="edge53" class="edge"><title>Node27&#45;&gt;Node5</title>
<path fill="none" stroke="midnightblue" d="M137.7,-123.25C136.762,-107.084 137.399,-72.6679 157.5,-56 186.165,-32.2311 749.952,-15.6148 890.816,-11.8232"/>
<polygon fill="midnightblue" stroke="midnightblue" points="891.044,-15.3185 900.947,-11.5531 890.857,-8.32099 891.044,-15.3185"/>
</g>
<!-- Node27&#45;&gt;Node19 -->
<g id="edge54" class="edge"><title>Node27&#45;&gt;Node19</title>
<path fill="none" stroke="midnightblue" d="M191.044,-123.47C246.212,-114.49 335.477,-99.8944 412.5,-87 424.842,-84.9338 438.187,-82.6709 450.565,-80.56"/>
<polygon fill="midnightblue" stroke="midnightblue" points="451.422,-83.9643 460.69,-78.8304 450.244,-77.0642 451.422,-83.9643"/>
</g>
<!-- Node28 -->
<g id="node28" class="node"><title>Node28</title>
<polygon fill="white" stroke="#bfbfbf" points="0,-62 0,-81 37,-81 37,-62 0,-62"/>
<text text-anchor="middle" x="18.5" y="-69" font-family="Helvetica,sans-Serif" font-size="10.00">map</text>
</g>
<!-- Node27&#45;&gt;Node28 -->
<g id="edge51" class="edge"><title>Node27&#45;&gt;Node28</title>
<path fill="none" stroke="midnightblue" d="M120.211,-123.43C101.376,-114.539 71.2238,-100.123 45.5,-87 44.6913,-86.5874 43.8705,-86.1655 43.0427,-85.7371"/>
<polygon fill="midnightblue" stroke="midnightblue" points="44.6242,-82.6143 34.146,-81.0466 41.3595,-88.8064 44.6242,-82.6143"/>
</g>
<!-- Node29 -->
<g id="node29" class="node"><title>Node29</title>
<polygon fill="white" stroke="#bfbfbf" points="55,-62 55,-81 110,-81 110,-62 55,-62"/>
<text text-anchor="middle" x="82.5" y="-69" font-family="Helvetica,sans-Serif" font-size="10.00">ostream</text>
</g>
<!-- Node27&#45;&gt;Node29 -->
<g id="edge52" class="edge"><title>Node27&#45;&gt;Node29</title>
<path fill="none" stroke="midnightblue" d="M130.477,-123.475C121.91,-114.373 108.139,-99.741 97.5428,-88.483"/>
<polygon fill="midnightblue" stroke="midnightblue" points="99.9109,-85.8923 90.5086,-81.0091 94.8135,-90.6899 99.9109,-85.8923"/>
</g>
</g>
</svg>
        <g id="navigator" transform="translate(0 0)" fill="#404254">
                <rect fill="#f2f5e9" fill-opacity="0.5" stroke="#606060" stroke-width=".5" x="0" y="0" width="60" height="60"/>
                <use id="zoomplus" xlink:href="#zoomPlus" x="17" y="9" onmousedown="handleZoom(evt,'in')"/>
                <use id="zoomminus" xlink:href="#zoomMin" x="42" y="9" onmousedown="handleZoom(evt,'out')"/>
                <use id="reset" xlink:href="#resetDef" x="30" y="36" onmousedown="handleReset()"/>
                <g id="arrowUp" xlink:href="#dirArrow" transform="translate(30 24)" onmousedown="handlePan(0,-1)">
                  <use xlink:href="#rim" fill="#404040">
                        <set attributeName="fill" to="#808080" begin="arrowUp.mouseover" end="arrowUp.mouseout"/>
                  </use>
                  <path fill="none" stroke="white" stroke-width="1.5" d="M0,-3.0v7 M-2.5,-0.5L0,-3.0L2.5,-0.5"/>
                </g>
                <g id="arrowRight" xlink:href="#dirArrow" transform="rotate(90) translate(36 -43)" onmousedown="handlePan(1,0)">
                  <use xlink:href="#rim" fill="#404040">
                        <set attributeName="fill" to="#808080" begin="arrowRight.mouseover" end="arrowRight.mouseout"/>
                  </use>
                  <path fill="none" stroke="white" stroke-width="1.5" d="M0,-3.0v7 M-2.5,-0.5L0,-3.0L2.5,-0.5"/>
                </g>
                <g id="arrowDown" xlink:href="#dirArrow" transform="rotate(180) translate(-30 -48)" onmousedown="handlePan(0,1)">
                  <use xlink:href="#rim" fill="#404040">
                        <set attributeName="fill" to="#808080" begin="arrowDown.mouseover" end="arrowDown.mouseout"/>
                  </use>
                  <path fill="none" stroke="white" stroke-width="1.5" d="M0,-3.0v7 M-2.5,-0.5L0,-3.0L2.5,-0.5"/>
                </g>
                <g id="arrowLeft" xlink:href="#dirArrow" transform="rotate(270) translate(-36 17)" onmousedown="handlePan(-1,0)">
                  <use xlink:href="#rim" fill="#404040">
                        <set attributeName="fill" to="#808080" begin="arrowLeft.mouseover" end="arrowLeft.mouseout"/>
                  </use>
                  <path fill="none" stroke="white" stroke-width="1.5" d="M0,-3.0v7 M-2.5,-0.5L0,-3.0L2.5,-0.5"/>
                </g>
        </g>
        <svg viewBox="0 0 15 15" width="100%" height="30px" preserveAspectRatio="xMaxYMin meet">
         <g id="arrow_out" transform="scale(0.3 0.3)">
          <a xlink:href="player__file_8hpp__incl_org.svg" target="_base">
           <rect id="button" ry="5" rx="5" y="6" x="6" height="38" width="38"
                fill="#f2f5e9" fill-opacity="0.5" stroke="#606060" stroke-width="1.0"/>
           <path id="arrow"
             d="M 11.500037,31.436501 C 11.940474,20.09759 22.043105,11.32322 32.158766,21.979434 L 37.068811,17.246167 C 37.068811,17.246167 37.088388,32 37.088388,32 L 22.160133,31.978069 C 22.160133,31.978069 26.997745,27.140456 26.997745,27.140456 C 18.528582,18.264221 13.291696,25.230495 11.500037,31.436501 z"
             style="fill:#404040;"/>
          </a>
         </g>
        </svg>
</svg>
