<?xml version="1.0" encoding="UTF-8" standalone="no"?>
<!DOCTYPE svg PUBLIC "-//W3C//DTD SVG 1.1//EN"
 "http://www.w3.org/Graphics/SVG/1.1/DTD/svg11.dtd">
<!-- Generated by graphviz version 2.38.0 (20140413.2041)
 -->
<!-- Title: src/io/tokeniser.hpp Pages: 1 -->
<svg width="1930pt" height="487pt"
 viewBox="0.00 0.00 1929.50 487.00" xmlns="http://www.w3.org/2000/svg" xmlns:xlink="http://www.w3.org/1999/xlink">
<g id="graph0" class="graph" transform="scale(1 1) rotate(0) translate(4 483)">
<title>src/io/tokeniser.hpp</title>
<polygon fill="white" stroke="none" points="-4,4 -4,-483 1925.5,-483 1925.5,4 -4,4"/>
<!-- Node1 -->
<g id="node1" class="node"><title>Node1</title>
<polygon fill="#bfbfbf" stroke="black" points="97.5,-459.5 97.5,-478.5 206.5,-478.5 206.5,-459.5 97.5,-459.5"/>
<text text-anchor="middle" x="152" y="-466.5" font-family="Helvetica,sans-Serif" font-size="10.00">src/io/tokeniser.hpp</text>
</g>
<!-- Node2 -->
<g id="node2" class="node"><title>Node2</title>
<g id="a_node2"><a xlink:href="cmd_8hpp.html" target="_top" xlink:title="Declaration of the CommandHandler class. ">
<polygon fill="white" stroke="black" points="272,-403.5 272,-422.5 336,-422.5 336,-403.5 272,-403.5"/>
<text text-anchor="middle" x="304" y="-410.5" font-family="Helvetica,sans-Serif" font-size="10.00">../cmd.hpp</text>
</a>
</g>
</g>
<!-- Node1&#45;&gt;Node2 -->
<g id="edge1" class="edge"><title>Node1&#45;&gt;Node2</title>
<path fill="none" stroke="midnightblue" d="M176.085,-459.444C201.545,-450.399 241.894,-436.064 270.459,-425.916"/>
<polygon fill="midnightblue" stroke="midnightblue" points="271.777,-429.162 280.028,-422.516 269.433,-422.566 271.777,-429.162"/>
</g>
<!-- Node23 -->
<g id="node23" class="node"><title>Node23</title>
<g id="a_node23"><a xlink:href="io__response_8hpp.html" target="_top" xlink:title="Declaration of classes pertaining to responses to the client. ">
<polygon fill="white" stroke="black" points="276,-235.5 276,-254.5 390,-254.5 390,-235.5 276,-235.5"/>
<text text-anchor="middle" x="333" y="-242.5" font-family="Helvetica,sans-Serif" font-size="10.00">../io/io_response.hpp</text>
</a>
</g>
</g>
<!-- Node1&#45;&gt;Node23 -->
<g id="edge86" class="edge"><title>Node1&#45;&gt;Node23</title>
<path fill="none" stroke="midnightblue" d="M156.89,-459.236C172.188,-432.264 221.386,-348.829 276,-291 286.656,-279.717 300.243,-268.88 311.479,-260.669"/>
<polygon fill="midnightblue" stroke="midnightblue" points="313.765,-263.338 319.884,-254.689 309.707,-257.634 313.765,-263.338"/>
</g>
<!-- Node3 -->
<g id="node3" class="node"><title>Node3</title>
<polygon fill="white" stroke="#bfbfbf" points="289,-62 289,-81 351,-81 351,-62 289,-62"/>
<text text-anchor="middle" x="320" y="-69" font-family="Helvetica,sans-Serif" font-size="10.00">functional</text>
</g>
<!-- Node2&#45;&gt;Node3 -->
<g id="edge2" class="edge"><title>Node2&#45;&gt;Node3</title>
<path fill="none" stroke="midnightblue" d="M271.911,-403.544C247.981,-396.274 215.214,-384.22 190,-367 110.968,-313.025 55.2594,-269.966 85,-179 94.5857,-149.681 100.485,-140.334 126,-123 172.311,-91.5384 237.024,-79.676 278.726,-75.2042"/>
<polygon fill="midnightblue" stroke="midnightblue" points="279.194,-78.6752 288.807,-74.2192 278.514,-71.7084 279.194,-78.6752"/>
</g>
<!-- Node4 -->
<g id="node4" class="node"><title>Node4</title>
<polygon fill="white" stroke="#bfbfbf" points="104.5,-179.5 104.5,-198.5 141.5,-198.5 141.5,-179.5 104.5,-179.5"/>
<text text-anchor="middle" x="123" y="-186.5" font-family="Helvetica,sans-Serif" font-size="10.00">map</text>
</g>
<!-- Node2&#45;&gt;Node4 -->
<g id="edge3" class="edge"><title>Node2&#45;&gt;Node4</title>
<path fill="none" stroke="midnightblue" d="M284.565,-403.423C243.681,-384.075 150.153,-332.588 121,-255 115.416,-240.138 116.57,-221.99 118.745,-208.651"/>
<polygon fill="midnightblue" stroke="midnightblue" points="122.195,-209.242 120.686,-198.755 115.326,-207.894 122.195,-209.242"/>
</g>
<!-- Node5 -->
<g id="node5" class="node"><title>Node5</title>
<polygon fill="white" stroke="#bfbfbf" points="1596,-123.5 1596,-142.5 1650,-142.5 1650,-123.5 1596,-123.5"/>
<text text-anchor="middle" x="1623" y="-130.5" font-family="Helvetica,sans-Serif" font-size="10.00">memory</text>
</g>
<!-- Node2&#45;&gt;Node5 -->
<g id="edge4" class="edge"><title>Node2&#45;&gt;Node5</title>
<path fill="none" stroke="midnightblue" d="M336.274,-411.157C543.461,-405.537 1678,-371.585 1678,-302 1678,-302 1678,-302 1678,-244 1678,-207.569 1653.57,-170.836 1637.27,-150.387"/>
<polygon fill="midnightblue" stroke="midnightblue" points="1639.95,-148.139 1630.88,-142.668 1634.56,-152.603 1639.95,-148.139"/>
</g>
<!-- Node6 -->
<g id="node6" class="node"><title>Node6</title>
<polygon fill="white" stroke="#bfbfbf" points="1391,-62 1391,-81 1437,-81 1437,-62 1391,-62"/>
<text text-anchor="middle" x="1414" y="-69" font-family="Helvetica,sans-Serif" font-size="10.00">vector</text>
</g>
<!-- Node2&#45;&gt;Node6 -->
<g id="edge5" class="edge"><title>Node2&#45;&gt;Node6</title>
<path fill="none" stroke="midnightblue" d="M336.038,-411.377C494.239,-408.195 1193.11,-392.899 1409,-367 1547.48,-350.388 1716,-441.469 1716,-302 1716,-302 1716,-302 1716,-188 1716,-149.577 1692.21,-142.327 1659,-123 1591.16,-83.5175 1496.99,-74.6133 1447.49,-72.7904"/>
<polygon fill="midnightblue" stroke="midnightblue" points="1447.44,-69.2875 1437.34,-72.4942 1447.23,-76.2845 1447.44,-69.2875"/>
</g>
<!-- Node7 -->
<g id="node7" class="node"><title>Node7</title>
<g id="a_node7"><a xlink:href="player_8hpp.html" target="_top" xlink:title="Declaration of the Player class, and associated types. ">
<polygon fill="white" stroke="black" points="499,-347.5 499,-366.5 597,-366.5 597,-347.5 499,-347.5"/>
<text text-anchor="middle" x="548" y="-354.5" font-family="Helvetica,sans-Serif" font-size="10.00">player/player.hpp</text>
</a>
</g>
</g>
<!-- Node2&#45;&gt;Node7 -->
<g id="edge6" class="edge"><title>Node2&#45;&gt;Node7</title>
<path fill="none" stroke="midnightblue" d="M336.15,-404.885C377.83,-395.66 450.908,-379.487 499.386,-368.759"/>
<polygon fill="midnightblue" stroke="midnightblue" points="500.33,-372.135 509.337,-366.557 498.817,-365.3 500.33,-372.135"/>
</g>
<!-- Node7&#45;&gt;Node3 -->
<g id="edge9" class="edge"><title>Node7&#45;&gt;Node3</title>
<path fill="none" stroke="midnightblue" d="M498.765,-354.49C409.725,-351.053 225.975,-340.514 170,-311 140.746,-295.575 139.034,-282.722 121,-255 101.533,-225.075 75.9053,-209.164 95,-179 135.416,-115.154 225.58,-88.841 278.685,-78.574"/>
<polygon fill="midnightblue" stroke="midnightblue" points="279.579,-81.9688 288.786,-76.7282 278.32,-75.0829 279.579,-81.9688"/>
</g>
<!-- Node7&#45;&gt;Node4 -->
<g id="edge11" class="edge"><title>Node7&#45;&gt;Node4</title>
<path fill="none" stroke="midnightblue" d="M498.941,-354.271C436.428,-350.869 325.724,-340.795 236,-311 186.549,-294.579 162.966,-297.627 133,-255 123.664,-241.719 121.614,-223.139 121.636,-209.244"/>
<polygon fill="midnightblue" stroke="midnightblue" points="125.147,-209.018 122.028,-198.892 118.152,-208.753 125.147,-209.018"/>
</g>
<!-- Node7&#45;&gt;Node5 -->
<g id="edge12" class="edge"><title>Node7&#45;&gt;Node5</title>
<path fill="none" stroke="midnightblue" d="M597.211,-356.231C700.481,-355.863 946.96,-350.496 1149,-311 1228.73,-295.414 1246.61,-282.656 1323,-255 1423.46,-218.629 1540.28,-169.494 1593.67,-146.651"/>
<polygon fill="midnightblue" stroke="midnightblue" points="1595.37,-149.73 1603.18,-142.572 1592.61,-143.297 1595.37,-149.73"/>
</g>
<!-- Node8 -->
<g id="node8" class="node"><title>Node8</title>
<polygon fill="white" stroke="#bfbfbf" points="1606,-62 1606,-81 1656,-81 1656,-62 1606,-62"/>
<text text-anchor="middle" x="1631" y="-69" font-family="Helvetica,sans-Serif" font-size="10.00">chrono</text>
</g>
<!-- Node7&#45;&gt;Node8 -->
<g id="edge7" class="edge"><title>Node7&#45;&gt;Node8</title>
<path fill="none" stroke="midnightblue" d="M597.328,-356.607C707.058,-357.088 979.245,-353.465 1202,-311 1443.9,-264.885 1584.64,-341.785 1730,-143 1750.83,-114.509 1702.17,-93.1511 1665.94,-81.7686"/>
<polygon fill="midnightblue" stroke="midnightblue" points="1666.7,-78.3432 1656.12,-78.825 1664.69,-85.0486 1666.7,-78.3432"/>
</g>
<!-- Node9 -->
<g id="node9" class="node"><title>Node9</title>
<polygon fill="white" stroke="#bfbfbf" points="1283.5,-0.5 1283.5,-19.5 1330.5,-19.5 1330.5,-0.5 1283.5,-0.5"/>
<text text-anchor="middle" x="1307" y="-7.5" font-family="Helvetica,sans-Serif" font-size="10.00">cstdint</text>
</g>
<!-- Node7&#45;&gt;Node9 -->
<g id="edge8" class="edge"><title>Node7&#45;&gt;Node9</title>
<path fill="none" stroke="midnightblue" d="M597.149,-354.276C827.834,-345.87 1792,-307.081 1792,-246 1792,-246 1792,-246 1792,-132 1792,-38.881 1451.17,-16.853 1340.94,-12.1639"/>
<polygon fill="midnightblue" stroke="midnightblue" points="1340.85,-8.65747 1330.72,-11.7511 1340.57,-15.6518 1340.85,-8.65747"/>
</g>
<!-- Node10 -->
<g id="node10" class="node"><title>Node10</title>
<polygon fill="white" stroke="#bfbfbf" points="142.5,-235.5 142.5,-254.5 219.5,-254.5 219.5,-235.5 142.5,-235.5"/>
<text text-anchor="middle" x="181" y="-242.5" font-family="Helvetica,sans-Serif" font-size="10.00">initializer_list</text>
</g>
<!-- Node7&#45;&gt;Node10 -->
<g id="edge10" class="edge"><title>Node7&#45;&gt;Node10</title>
<path fill="none" stroke="midnightblue" d="M498.876,-354.254C443.044,-350.838 350.06,-340.753 276,-311 246.2,-299.028 216.377,-276.473 198.304,-261.339"/>
<polygon fill="midnightblue" stroke="midnightblue" points="200.296,-258.437 190.427,-254.585 195.74,-263.751 200.296,-258.437"/>
</g>
<!-- Node11 -->
<g id="node11" class="node"><title>Node11</title>
<polygon fill="white" stroke="#bfbfbf" points="439.5,-0.5 439.5,-19.5 482.5,-19.5 482.5,-0.5 439.5,-0.5"/>
<text text-anchor="middle" x="461" y="-7.5" font-family="Helvetica,sans-Serif" font-size="10.00">string</text>
</g>
<!-- Node7&#45;&gt;Node11 -->
<g id="edge13" class="edge"><title>Node7&#45;&gt;Node11</title>
<path fill="none" stroke="midnightblue" d="M498.713,-354.177C404.851,-350.116 204.17,-338.43 141,-311 65.2547,-278.109 0,-272.578 0,-190 0,-190 0,-190 0,-132 0,-43.0918 324.843,-18.1862 429.161,-12.4803"/>
<polygon fill="midnightblue" stroke="midnightblue" points="429.58,-15.9633 439.383,-11.9447 429.214,-8.97285 429.58,-15.9633"/>
</g>
<!-- Node12 -->
<g id="node12" class="node"><title>Node12</title>
<polygon fill="white" stroke="#bfbfbf" points="538,-123.5 538,-142.5 578,-142.5 578,-123.5 538,-123.5"/>
<text text-anchor="middle" x="558" y="-130.5" font-family="Helvetica,sans-Serif" font-size="10.00">utility</text>
</g>
<!-- Node7&#45;&gt;Node12 -->
<g id="edge14" class="edge"><title>Node7&#45;&gt;Node12</title>
<path fill="none" stroke="midnightblue" d="M548.392,-347.297C549.863,-314.633 555.078,-198.866 557.146,-152.957"/>
<polygon fill="midnightblue" stroke="midnightblue" points="560.646,-153.031 557.6,-142.884 553.653,-152.716 560.646,-153.031"/>
</g>
<!-- Node13 -->
<g id="node13" class="node"><title>Node13</title>
<g id="a_node13"><a xlink:href="audio_8hpp.html" target="_top" xlink:title="Declaration of the Audio class. ">
<polygon fill="white" stroke="black" points="1194,-179.5 1194,-198.5 1292,-198.5 1292,-179.5 1194,-179.5"/>
<text text-anchor="middle" x="1243" y="-186.5" font-family="Helvetica,sans-Serif" font-size="10.00">../audio/audio.hpp</text>
</a>
</g>
</g>
<!-- Node7&#45;&gt;Node13 -->
<g id="edge15" class="edge"><title>Node7&#45;&gt;Node13</title>
<path fill="none" stroke="midnightblue" d="M597.042,-353.155C757.465,-343.355 1259.05,-308.625 1306,-255 1322.27,-236.42 1294.83,-216.159 1271.21,-203.281"/>
<polygon fill="midnightblue" stroke="midnightblue" points="1272.6,-200.062 1262.11,-198.564 1269.38,-206.276 1272.6,-200.062"/>
</g>
<!-- Node7&#45;&gt;Node23 -->
<g id="edge37" class="edge"><title>Node7&#45;&gt;Node23</title>
<path fill="none" stroke="midnightblue" d="M531.129,-347.368C493.686,-328.211 403.433,-282.036 358.834,-259.217"/>
<polygon fill="midnightblue" stroke="midnightblue" points="360.289,-256.03 349.792,-254.591 357.101,-262.262 360.289,-256.03"/>
</g>
<!-- Node25 -->
<g id="node25" class="node"><title>Node25</title>
<g id="a_node25"><a xlink:href="time__parser_8hpp.html" target="_top" xlink:title="The TimeParser template class. ">
<polygon fill="white" stroke="black" points="1820.5,-123.5 1820.5,-142.5 1921.5,-142.5 1921.5,-123.5 1820.5,-123.5"/>
<text text-anchor="middle" x="1871" y="-130.5" font-family="Helvetica,sans-Serif" font-size="10.00">../time_parser.hpp</text>
</a>
</g>
</g>
<!-- Node7&#45;&gt;Node25 -->
<g id="edge43" class="edge"><title>Node7&#45;&gt;Node25</title>
<path fill="none" stroke="midnightblue" d="M597.061,-355.765C823.211,-354.491 1756.26,-347.058 1806,-311 1857.66,-273.549 1868.33,-190.526 1870.49,-153.032"/>
<polygon fill="midnightblue" stroke="midnightblue" points="1874,-152.712 1870.93,-142.574 1867.01,-152.417 1874,-152.712"/>
</g>
<!-- Node26 -->
<g id="node26" class="node"><title>Node26</title>
<g id="a_node26"><a xlink:href="player__file_8hpp.html" target="_top" xlink:title="Declaration of the PlayerFile class, and associated types. ">
<polygon fill="white" stroke="black" points="576,-291.5 576,-310.5 662,-310.5 662,-291.5 576,-291.5"/>
<text text-anchor="middle" x="619" y="-298.5" font-family="Helvetica,sans-Serif" font-size="10.00">player_file.hpp</text>
</a>
</g>
</g>
<!-- Node7&#45;&gt;Node26 -->
<g id="edge47" class="edge"><title>Node7&#45;&gt;Node26</title>
<path fill="none" stroke="midnightblue" d="M559.407,-347.324C570.109,-339.185 586.341,-326.839 599.163,-317.087"/>
<polygon fill="midnightblue" stroke="midnightblue" points="601.544,-319.673 607.385,-310.834 597.307,-314.102 601.544,-319.673"/>
</g>
<!-- Node35 -->
<g id="node35" class="node"><title>Node35</title>
<g id="a_node35"><a xlink:href="player__position_8hpp.html" target="_top" xlink:title="Declaration of the PlayerPosition class. ">
<polygon fill="white" stroke="black" points="680.5,-291.5 680.5,-310.5 789.5,-310.5 789.5,-291.5 680.5,-291.5"/>
<text text-anchor="middle" x="735" y="-298.5" font-family="Helvetica,sans-Serif" font-size="10.00">player_position.hpp</text>
</a>
</g>
</g>
<!-- Node7&#45;&gt;Node35 -->
<g id="edge76" class="edge"><title>Node7&#45;&gt;Node35</title>
<path fill="none" stroke="midnightblue" d="M577.631,-347.444C609.5,-338.241 660.333,-323.562 695.564,-313.388"/>
<polygon fill="midnightblue" stroke="midnightblue" points="696.872,-316.653 705.508,-310.516 694.929,-309.928 696.872,-316.653"/>
</g>
<!-- Node37 -->
<g id="node37" class="node"><title>Node37</title>
<g id="a_node37"><a xlink:href="player__state_8hpp.html" target="_top" xlink:title="Declaration of the PlayerState class, and associated types. ">
<polygon fill="white" stroke="black" points="285.5,-291.5 285.5,-310.5 380.5,-310.5 380.5,-291.5 285.5,-291.5"/>
<text text-anchor="middle" x="333" y="-298.5" font-family="Helvetica,sans-Serif" font-size="10.00">player_state.hpp</text>
</a>
</g>
</g>
<!-- Node7&#45;&gt;Node37 -->
<g id="edge81" class="edge"><title>Node7&#45;&gt;Node37</title>
<path fill="none" stroke="midnightblue" d="M513.933,-347.444C476.82,-338.122 417.339,-323.183 376.785,-312.997"/>
<polygon fill="midnightblue" stroke="midnightblue" points="377.459,-309.558 366.908,-310.516 375.754,-316.347 377.459,-309.558"/>
</g>
<!-- Node13&#45;&gt;Node5 -->
<g id="edge18" class="edge"><title>Node13&#45;&gt;Node5</title>
<path fill="none" stroke="midnightblue" d="M1292.17,-180.916C1296.85,-180.261 1301.51,-179.613 1306,-179 1428.57,-162.252 1460.14,-164.282 1582,-143 1583.25,-142.781 1584.52,-142.551 1585.81,-142.311"/>
<polygon fill="midnightblue" stroke="midnightblue" points="1586.6,-145.722 1595.72,-140.333 1585.23,-138.858 1586.6,-145.722"/>
</g>
<!-- Node13&#45;&gt;Node6 -->
<g id="edge21" class="edge"><title>Node13&#45;&gt;Node6</title>
<path fill="none" stroke="midnightblue" d="M1292.16,-180.006C1357.99,-169.068 1467.24,-149.999 1473,-143 1489.3,-123.203 1461.9,-100.485 1439.23,-86.3114"/>
<polygon fill="midnightblue" stroke="midnightblue" points="1440.95,-83.261 1430.57,-81.1454 1437.36,-89.2732 1440.95,-83.261"/>
</g>
<!-- Node13&#45;&gt;Node8 -->
<g id="edge16" class="edge"><title>Node13&#45;&gt;Node8</title>
<path fill="none" stroke="midnightblue" d="M1292.22,-180.978C1376.09,-168.968 1538.27,-145.521 1544,-143 1573.05,-130.21 1600.44,-105.055 1616.46,-88.5116"/>
<polygon fill="midnightblue" stroke="midnightblue" points="1619.07,-90.8529 1623.37,-81.1739 1613.97,-86.0531 1619.07,-90.8529"/>
</g>
<!-- Node13&#45;&gt;Node9 -->
<g id="edge17" class="edge"><title>Node13&#45;&gt;Node9</title>
<path fill="none" stroke="midnightblue" d="M1292.06,-180.663C1362.01,-169.97 1482.7,-150.555 1489,-143 1514.25,-112.706 1484.39,-85.5927 1446,-56 1415,-32.1062 1370.87,-20.6675 1340.7,-15.3501"/>
<polygon fill="midnightblue" stroke="midnightblue" points="1341.09,-11.8673 1330.66,-13.7141 1339.96,-18.7762 1341.09,-11.8673"/>
</g>
<!-- Node13&#45;&gt;Node11 -->
<g id="edge19" class="edge"><title>Node13&#45;&gt;Node11</title>
<path fill="none" stroke="midnightblue" d="M1193.61,-184.711C1058.01,-175.608 688.329,-150.278 663,-143 659.776,-142.074 558.734,-88.9442 556,-87 539.601,-75.3379 538.507,-68.8246 523,-56 509.804,-45.0867 494.199,-33.7685 481.946,-25.2129"/>
<polygon fill="midnightblue" stroke="midnightblue" points="483.916,-22.3199 473.699,-19.5168 479.938,-28.0797 483.916,-22.3199"/>
</g>
<!-- Node13&#45;&gt;Node12 -->
<g id="edge20" class="edge"><title>Node13&#45;&gt;Node12</title>
<path fill="none" stroke="midnightblue" d="M1193.59,-184.7C1068.05,-176.265 739.11,-153.817 630,-143 616.289,-141.641 601.151,-139.8 588.308,-138.137"/>
<polygon fill="midnightblue" stroke="midnightblue" points="588.514,-134.634 578.142,-136.797 587.599,-141.574 588.514,-134.634"/>
</g>
<!-- Node14 -->
<g id="node14" class="node"><title>Node14</title>
<polygon fill="white" stroke="#bfbfbf" points="1394.5,-123.5 1394.5,-142.5 1463.5,-142.5 1463.5,-123.5 1394.5,-123.5"/>
<text text-anchor="middle" x="1429" y="-130.5" font-family="Helvetica,sans-Serif" font-size="10.00">portaudio.h</text>
</g>
<!-- Node13&#45;&gt;Node14 -->
<g id="edge22" class="edge"><title>Node13&#45;&gt;Node14</title>
<path fill="none" stroke="midnightblue" d="M1272.47,-179.444C1304.17,-170.241 1354.73,-155.562 1389.77,-145.388"/>
<polygon fill="midnightblue" stroke="midnightblue" points="1391.04,-148.666 1399.67,-142.516 1389.09,-141.943 1391.04,-148.666"/>
</g>
<!-- Node15 -->
<g id="node15" class="node"><title>Node15</title>
<polygon fill="white" stroke="#bfbfbf" points="1194,-123.5 1194,-142.5 1376,-142.5 1376,-123.5 1194,-123.5"/>
<text text-anchor="middle" x="1285" y="-130.5" font-family="Helvetica,sans-Serif" font-size="10.00">portaudiocpp/CallbackInterface.hxx</text>
</g>
<!-- Node13&#45;&gt;Node15 -->
<g id="edge23" class="edge"><title>Node13&#45;&gt;Node15</title>
<path fill="none" stroke="midnightblue" d="M1249.94,-179.083C1255.93,-171.377 1264.75,-160.033 1272.05,-150.653"/>
<polygon fill="midnightblue" stroke="midnightblue" points="1274.82,-152.793 1278.19,-142.751 1269.29,-148.496 1274.82,-152.793"/>
</g>
<!-- Node16 -->
<g id="node16" class="node"><title>Node16</title>
<g id="a_node16"><a xlink:href="audio__source_8hpp.html" target="_top" xlink:title="Declaration of the AudioSource class. ">
<polygon fill="white" stroke="black" points="672,-123.5 672,-142.5 772,-142.5 772,-123.5 672,-123.5"/>
<text text-anchor="middle" x="722" y="-130.5" font-family="Helvetica,sans-Serif" font-size="10.00">audio_source.hpp</text>
</a>
</g>
</g>
<!-- Node13&#45;&gt;Node16 -->
<g id="edge24" class="edge"><title>Node13&#45;&gt;Node16</title>
<path fill="none" stroke="midnightblue" d="M1193.99,-182.92C1098.13,-172.985 886.158,-151.014 782.06,-140.225"/>
<polygon fill="midnightblue" stroke="midnightblue" points="782.335,-136.735 772.028,-139.185 781.614,-143.698 782.335,-136.735"/>
</g>
<!-- Node16&#45;&gt;Node3 -->
<g id="edge28" class="edge"><title>Node16&#45;&gt;Node3</title>
<path fill="none" stroke="midnightblue" d="M671.899,-124.585C591.491,-112.683 435.158,-89.5445 360.97,-78.564"/>
<polygon fill="midnightblue" stroke="midnightblue" points="361.469,-75.0997 351.064,-77.0978 360.444,-82.0243 361.469,-75.0997"/>
</g>
<!-- Node16&#45;&gt;Node6 -->
<g id="edge30" class="edge"><title>Node16&#45;&gt;Node6</title>
<path fill="none" stroke="midnightblue" d="M772.331,-127.178C787.342,-125.781 803.833,-124.287 819,-123 1026.87,-105.363 1079.33,-106.836 1287,-87 1318.84,-83.9585 1355.09,-79.7452 1380.69,-76.6439"/>
<polygon fill="midnightblue" stroke="midnightblue" points="1381.12,-80.1172 1390.62,-75.4313 1380.27,-73.1688 1381.12,-80.1172"/>
</g>
<!-- Node16&#45;&gt;Node8 -->
<g id="edge26" class="edge"><title>Node16&#45;&gt;Node8</title>
<path fill="none" stroke="midnightblue" d="M772.317,-126.992C787.326,-125.59 803.821,-124.14 819,-123 1097.34,-102.103 1167.52,-105.906 1446,-87 1498.07,-83.4647 1558.33,-78.5969 1595.56,-75.4989"/>
<polygon fill="midnightblue" stroke="midnightblue" points="1596.2,-78.9571 1605.88,-74.6362 1595.62,-71.9815 1596.2,-78.9571"/>
</g>
<!-- Node16&#45;&gt;Node9 -->
<g id="edge27" class="edge"><title>Node16&#45;&gt;Node9</title>
<path fill="none" stroke="midnightblue" d="M755.916,-123.428C782.499,-115.931 819.899,-103.634 850,-87 869.38,-76.2907 868.516,-64.4064 889,-56 958.52,-27.4703 1186.64,-15.7224 1273.24,-12.2174"/>
<polygon fill="midnightblue" stroke="midnightblue" points="1273.46,-15.7115 1283.32,-11.8213 1273.19,-8.71693 1273.46,-15.7115"/>
</g>
<!-- Node16&#45;&gt;Node11 -->
<g id="edge29" class="edge"><title>Node16&#45;&gt;Node11</title>
<path fill="none" stroke="midnightblue" d="M721.361,-123.396C719.691,-107.473 713.757,-73.4457 693,-56 663.05,-30.8287 548.972,-18.1872 492.731,-13.3763"/>
<polygon fill="midnightblue" stroke="midnightblue" points="492.869,-9.87593 482.615,-12.5424 492.294,-16.8523 492.869,-9.87593"/>
</g>
<!-- Node17 -->
<g id="node17" class="node"><title>Node17</title>
<polygon fill="white" stroke="#bfbfbf" points="741.5,-62 741.5,-81 782.5,-81 782.5,-62 741.5,-62"/>
<text text-anchor="middle" x="762" y="-69" font-family="Helvetica,sans-Serif" font-size="10.00">array</text>
</g>
<!-- Node16&#45;&gt;Node17 -->
<g id="edge25" class="edge"><title>Node16&#45;&gt;Node17</title>
<path fill="none" stroke="midnightblue" d="M727.731,-123.475C733.672,-114.638 743.117,-100.589 750.588,-89.475"/>
<polygon fill="midnightblue" stroke="midnightblue" points="753.605,-91.2608 756.28,-81.0091 747.796,-87.3554 753.605,-91.2608"/>
</g>
<!-- Node18 -->
<g id="node18" class="node"><title>Node18</title>
<polygon fill="white" stroke="#bfbfbf" points="800.5,-62 800.5,-81 841.5,-81 841.5,-62 800.5,-62"/>
<text text-anchor="middle" x="821" y="-69" font-family="Helvetica,sans-Serif" font-size="10.00">sox.h</text>
</g>
<!-- Node16&#45;&gt;Node18 -->
<g id="edge31" class="edge"><title>Node16&#45;&gt;Node18</title>
<path fill="none" stroke="midnightblue" d="M736.184,-123.475C752.358,-113.755 779.026,-97.7266 798.143,-86.2372"/>
<polygon fill="midnightblue" stroke="midnightblue" points="800.074,-89.1603 806.842,-81.0091 796.468,-83.1606 800.074,-89.1603"/>
</g>
<!-- Node19 -->
<g id="node19" class="node"><title>Node19</title>
<g id="a_node19"><a xlink:href="errors_8hpp.html" target="_top" xlink:title="Declarations of the playd Error exception set. ">
<polygon fill="white" stroke="black" points="898.5,-62 898.5,-81 971.5,-81 971.5,-62 898.5,-62"/>
<text text-anchor="middle" x="935" y="-69" font-family="Helvetica,sans-Serif" font-size="10.00">../errors.hpp</text>
</a>
</g>
</g>
<!-- Node16&#45;&gt;Node19 -->
<g id="edge32" class="edge"><title>Node16&#45;&gt;Node19</title>
<path fill="none" stroke="midnightblue" d="M753.072,-123.429C785.695,-114.416 838.476,-99.7942 884,-87 887.625,-85.9812 891.394,-84.9178 895.168,-83.85"/>
<polygon fill="midnightblue" stroke="midnightblue" points="896.409,-87.1362 905.074,-81.041 894.499,-80.4017 896.409,-87.1362"/>
</g>
<!-- Node22 -->
<g id="node22" class="node"><title>Node22</title>
<g id="a_node22"><a xlink:href="sample__formats_8hpp.html" target="_top" xlink:title="The SampleFormat enumeration. ">
<polygon fill="white" stroke="black" points="565.5,-62 565.5,-81 684.5,-81 684.5,-62 565.5,-62"/>
<text text-anchor="middle" x="625" y="-69" font-family="Helvetica,sans-Serif" font-size="10.00">../sample_formats.hpp</text>
</a>
</g>
</g>
<!-- Node16&#45;&gt;Node22 -->
<g id="edge35" class="edge"><title>Node16&#45;&gt;Node22</title>
<path fill="none" stroke="midnightblue" d="M708.102,-123.475C692.328,-113.799 666.363,-97.8721 647.651,-86.3941"/>
<polygon fill="midnightblue" stroke="midnightblue" points="649.226,-83.2544 638.872,-81.0091 645.566,-89.2213 649.226,-83.2544"/>
</g>
<!-- Node20 -->
<g id="node20" class="node"><title>Node20</title>
<polygon fill="white" stroke="#bfbfbf" points="906.5,-0.5 906.5,-19.5 963.5,-19.5 963.5,-0.5 906.5,-0.5"/>
<text text-anchor="middle" x="935" y="-7.5" font-family="Helvetica,sans-Serif" font-size="10.00">iostream</text>
</g>
<!-- Node19&#45;&gt;Node20 -->
<g id="edge33" class="edge"><title>Node19&#45;&gt;Node20</title>
<path fill="none" stroke="midnightblue" d="M935,-61.9751C935,-53.5803 935,-40.4806 935,-29.6631"/>
<polygon fill="midnightblue" stroke="midnightblue" points="938.5,-29.5091 935,-19.5091 931.5,-29.5091 938.5,-29.5091"/>
</g>
<!-- Node21 -->
<g id="node21" class="node"><title>Node21</title>
<polygon fill="white" stroke="#bfbfbf" points="1596,-0.5 1596,-19.5 1650,-19.5 1650,-0.5 1596,-0.5"/>
<text text-anchor="middle" x="1623" y="-7.5" font-family="Helvetica,sans-Serif" font-size="10.00">sstream</text>
</g>
<!-- Node19&#45;&gt;Node21 -->
<g id="edge34" class="edge"><title>Node19&#45;&gt;Node21</title>
<path fill="none" stroke="midnightblue" d="M958.602,-61.8899C965.713,-59.6156 973.596,-57.406 981,-56 1098.21,-33.7415 1466.63,-17.3041 1585.57,-12.4653"/>
<polygon fill="midnightblue" stroke="midnightblue" points="1585.8,-15.9592 1595.65,-12.059 1585.51,-8.96491 1585.8,-15.9592"/>
</g>
<!-- Node22&#45;&gt;Node9 -->
<g id="edge36" class="edge"><title>Node22&#45;&gt;Node9</title>
<path fill="none" stroke="midnightblue" d="M683.237,-61.9992C699.037,-59.8592 716.156,-57.6922 732,-56 937.225,-34.0818 1184.73,-18.2862 1273.39,-12.963"/>
<polygon fill="midnightblue" stroke="midnightblue" points="1273.63,-16.4552 1283.4,-12.3661 1273.21,-9.46761 1273.63,-16.4552"/>
</g>
<!-- Node23&#45;&gt;Node3 -->
<g id="edge38" class="edge"><title>Node23&#45;&gt;Node3</title>
<path fill="none" stroke="midnightblue" d="M332.337,-235.26C330.321,-208.651 324.223,-128.215 321.428,-91.3382"/>
<polygon fill="midnightblue" stroke="midnightblue" points="324.892,-90.7262 320.646,-81.0194 317.912,-91.2553 324.892,-90.7262"/>
</g>
<!-- Node23&#45;&gt;Node4 -->
<g id="edge39" class="edge"><title>Node23&#45;&gt;Node4</title>
<path fill="none" stroke="midnightblue" d="M298.692,-235.464C263,-226.541 205.517,-212.046 156,-199 154.564,-198.622 153.094,-198.232 151.611,-197.835"/>
<polygon fill="midnightblue" stroke="midnightblue" points="152.399,-194.423 141.832,-195.196 150.575,-201.181 152.399,-194.423"/>
</g>
<!-- Node23&#45;&gt;Node11 -->
<g id="edge41" class="edge"><title>Node23&#45;&gt;Node11</title>
<path fill="none" stroke="midnightblue" d="M283.226,-235.45C262.172,-229.104 239.634,-218.089 227,-199 197.384,-154.252 155.854,-161.378 280,-56 322.512,-19.9147 389.735,-12.0149 429.186,-10.7094"/>
<polygon fill="midnightblue" stroke="midnightblue" points="429.37,-14.2064 439.296,-10.4999 429.225,-7.20788 429.37,-14.2064"/>
</g>
<!-- Node23&#45;&gt;Node19 -->
<g id="edge42" class="edge"><title>Node23&#45;&gt;Node19</title>
<path fill="none" stroke="midnightblue" d="M390.243,-236.032C476.78,-222.895 645.219,-193.043 781,-143 798.908,-136.4 801.794,-131.259 819,-123 847.588,-109.277 880.825,-94.9707 904.375,-85.1038"/>
<polygon fill="midnightblue" stroke="midnightblue" points="905.95,-88.2395 913.833,-81.1615 903.256,-81.7783 905.95,-88.2395"/>
</g>
<!-- Node24 -->
<g id="node24" class="node"><title>Node24</title>
<polygon fill="white" stroke="#bfbfbf" points="236.5,-179.5 236.5,-198.5 291.5,-198.5 291.5,-179.5 236.5,-179.5"/>
<text text-anchor="middle" x="264" y="-186.5" font-family="Helvetica,sans-Serif" font-size="10.00">ostream</text>
</g>
<!-- Node23&#45;&gt;Node24 -->
<g id="edge40" class="edge"><title>Node23&#45;&gt;Node24</title>
<path fill="none" stroke="midnightblue" d="M321.914,-235.324C311.514,-227.185 295.739,-214.839 283.278,-205.087"/>
<polygon fill="midnightblue" stroke="midnightblue" points="285.32,-202.241 275.288,-198.834 281.006,-207.753 285.32,-202.241"/>
</g>
<!-- Node25&#45;&gt;Node8 -->
<g id="edge44" class="edge"><title>Node25&#45;&gt;Node8</title>
<path fill="none" stroke="midnightblue" d="M1836.61,-123.475C1791.19,-112.213 1711.6,-92.482 1665.91,-81.1548"/>
<polygon fill="midnightblue" stroke="midnightblue" points="1666.7,-77.7455 1656.15,-78.7363 1665.02,-84.5398 1666.7,-77.7455"/>
</g>
<!-- Node25&#45;&gt;Node9 -->
<g id="edge45" class="edge"><title>Node25&#45;&gt;Node9</title>
<path fill="none" stroke="midnightblue" d="M1866.54,-123.25C1857.6,-106.763 1835.77,-71.3723 1806,-56 1764.81,-34.7331 1446.19,-17.6806 1340.76,-12.5709"/>
<polygon fill="midnightblue" stroke="midnightblue" points="1340.82,-9.0702 1330.67,-12.087 1340.49,-16.0622 1340.82,-9.0702"/>
</g>
<!-- Node25&#45;&gt;Node21 -->
<g id="edge46" class="edge"><title>Node25&#45;&gt;Node21</title>
<path fill="none" stroke="midnightblue" d="M1870.71,-123.437C1869.68,-107.583 1865.12,-73.6666 1845,-56 1818,-32.2936 1716.44,-19.5031 1660.52,-14.1232"/>
<polygon fill="midnightblue" stroke="midnightblue" points="1660.59,-10.6145 1650.31,-13.1744 1659.94,-17.5845 1660.59,-10.6145"/>
</g>
<!-- Node26&#45;&gt;Node5 -->
<g id="edge48" class="edge"><title>Node26&#45;&gt;Node5</title>
<path fill="none" stroke="midnightblue" d="M662.116,-292.448C665.121,-291.949 668.105,-291.462 671,-291 950.437,-246.423 1022.21,-247.458 1301,-199 1404.63,-180.988 1526.06,-155.193 1585.87,-142.178"/>
<polygon fill="midnightblue" stroke="midnightblue" points="1586.93,-145.528 1595.95,-139.976 1585.44,-138.689 1586.93,-145.528"/>
</g>
<!-- Node26&#45;&gt;Node23 -->
<g id="edge75" class="edge"><title>Node26&#45;&gt;Node23</title>
<path fill="none" stroke="midnightblue" d="M575.873,-291.857C525.779,-282.399 443.024,-266.774 388.257,-256.433"/>
<polygon fill="midnightblue" stroke="midnightblue" points="388.847,-252.983 378.371,-254.567 387.548,-259.861 388.847,-252.983"/>
</g>
<!-- Node27 -->
<g id="node27" class="node"><title>Node27</title>
<g id="a_node27"><a xlink:href="audio__system_8hpp.html" target="_top" xlink:title="Declaration of the AudioSystem class. ">
<polygon fill="white" stroke="black" points="585.5,-235.5 585.5,-254.5 722.5,-254.5 722.5,-235.5 585.5,-235.5"/>
<text text-anchor="middle" x="654" y="-242.5" font-family="Helvetica,sans-Serif" font-size="10.00">../audio/audio_system.hpp</text>
</a>
</g>
</g>
<!-- Node26&#45;&gt;Node27 -->
<g id="edge49" class="edge"><title>Node26&#45;&gt;Node27</title>
<path fill="none" stroke="midnightblue" d="M624.78,-291.083C629.672,-283.534 636.827,-272.495 642.833,-263.23"/>
<polygon fill="midnightblue" stroke="midnightblue" points="645.826,-265.046 648.328,-254.751 639.952,-261.239 645.826,-265.046"/>
</g>
<!-- Node27&#45;&gt;Node3 -->
<g id="edge50" class="edge"><title>Node27&#45;&gt;Node3</title>
<path fill="none" stroke="midnightblue" d="M608.567,-235.437C576.146,-228.293 532.077,-216.442 496,-199 432.209,-168.159 367.041,-114.25 337.033,-87.892"/>
<polygon fill="midnightblue" stroke="midnightblue" points="339.334,-85.2538 329.532,-81.2305 334.685,-90.4878 339.334,-85.2538"/>
</g>
<!-- Node27&#45;&gt;Node11 -->
<g id="edge51" class="edge"><title>Node27&#45;&gt;Node11</title>
<path fill="none" stroke="midnightblue" d="M621.06,-235.464C599.411,-228.517 571.575,-216.887 552,-199 499.842,-151.341 474.365,-67.3235 465.169,-29.9013"/>
<polygon fill="midnightblue" stroke="midnightblue" points="468.51,-28.8166 462.826,-19.8753 461.693,-30.4094 468.51,-28.8166"/>
</g>
<!-- Node27&#45;&gt;Node12 -->
<g id="edge52" class="edge"><title>Node27&#45;&gt;Node12</title>
<path fill="none" stroke="midnightblue" d="M647.163,-235.455C637.06,-222.901 617.454,-198.817 600,-179 591.436,-169.276 581.562,-158.669 573.541,-150.196"/>
<polygon fill="midnightblue" stroke="midnightblue" points="575.952,-147.653 566.521,-142.825 570.883,-152.48 575.952,-147.653"/>
</g>
<!-- Node27&#45;&gt;Node13 -->
<g id="edge74" class="edge"><title>Node27&#45;&gt;Node13</title>
<path fill="none" stroke="midnightblue" d="M722.719,-237.7C839.281,-227.013 1073.77,-205.515 1183.65,-195.441"/>
<polygon fill="midnightblue" stroke="midnightblue" points="1184.25,-198.901 1193.88,-194.503 1183.61,-191.931 1184.25,-198.901"/>
</g>
<!-- Node27&#45;&gt;Node16 -->
<g id="edge73" class="edge"><title>Node27&#45;&gt;Node16</title>
<path fill="none" stroke="midnightblue" d="M656.606,-235.123C660.645,-222.156 669.199,-197.561 681,-179 687.789,-168.321 697.197,-157.787 705.288,-149.599"/>
<polygon fill="midnightblue" stroke="midnightblue" points="707.807,-152.031 712.514,-142.539 702.915,-147.024 707.807,-152.031"/>
</g>
<!-- Node27&#45;&gt;Node22 -->
<g id="edge55" class="edge"><title>Node27&#45;&gt;Node22</title>
<path fill="none" stroke="midnightblue" d="M634.672,-235.284C605.425,-220.886 551.006,-189.072 529,-143 515.593,-114.93 551.094,-95.5047 582.653,-84.2576"/>
<polygon fill="midnightblue" stroke="midnightblue" points="583.897,-87.5319 592.261,-81.0291 581.667,-80.8964 583.897,-87.5319"/>
</g>
<!-- Node28 -->
<g id="node28" class="node"><title>Node28</title>
<polygon fill="white" stroke="#bfbfbf" points="690.5,-179.5 690.5,-198.5 881.5,-198.5 881.5,-179.5 690.5,-179.5"/>
<text text-anchor="middle" x="786" y="-186.5" font-family="Helvetica,sans-Serif" font-size="10.00">portaudiocpp/SampleDataFormat.hxx</text>
</g>
<!-- Node27&#45;&gt;Node28 -->
<g id="edge53" class="edge"><title>Node27&#45;&gt;Node28</title>
<path fill="none" stroke="midnightblue" d="M674.916,-235.444C696.736,-226.517 731.15,-212.439 755.892,-202.317"/>
<polygon fill="midnightblue" stroke="midnightblue" points="757.252,-205.542 765.182,-198.516 754.601,-199.063 757.252,-205.542"/>
</g>
<!-- Node29 -->
<g id="node29" class="node"><title>Node29</title>
<polygon fill="white" stroke="#bfbfbf" points="828,-123.5 828,-142.5 962,-142.5 962,-123.5 828,-123.5"/>
<text text-anchor="middle" x="895" y="-130.5" font-family="Helvetica,sans-Serif" font-size="10.00">portaudiocpp/Stream.hxx</text>
</g>
<!-- Node27&#45;&gt;Node29 -->
<g id="edge54" class="edge"><title>Node27&#45;&gt;Node29</title>
<path fill="none" stroke="midnightblue" d="M722.793,-239.967C784.357,-234.803 868.175,-223.408 890,-199 900.953,-186.75 901.091,-167.488 899.157,-153.108"/>
<polygon fill="midnightblue" stroke="midnightblue" points="902.529,-152.08 897.33,-142.849 895.638,-153.307 902.529,-152.08"/>
</g>
<!-- Node30 -->
<g id="node30" class="node"><title>Node30</title>
<g id="a_node30"><a xlink:href="audio__sink_8hpp.html" target="_top" xlink:title="Declaration of the AudioSink class. ">
<polygon fill="white" stroke="black" points="1012.5,-179.5 1012.5,-198.5 1099.5,-198.5 1099.5,-179.5 1012.5,-179.5"/>
<text text-anchor="middle" x="1056" y="-186.5" font-family="Helvetica,sans-Serif" font-size="10.00">audio_sink.hpp</text>
</a>
</g>
</g>
<!-- Node27&#45;&gt;Node30 -->
<g id="edge56" class="edge"><title>Node27&#45;&gt;Node30</title>
<path fill="none" stroke="midnightblue" d="M717.698,-235.444C796.357,-224.877 928.752,-207.093 1002.43,-197.196"/>
<polygon fill="midnightblue" stroke="midnightblue" points="1002.98,-200.654 1012.42,-195.854 1002.05,-193.716 1002.98,-200.654"/>
</g>
<!-- Node30&#45;&gt;Node5 -->
<g id="edge59" class="edge"><title>Node30&#45;&gt;Node5</title>
<path fill="none" stroke="midnightblue" d="M1099.55,-183.852C1207.37,-173.584 1485.28,-147.117 1585.92,-137.532"/>
<polygon fill="midnightblue" stroke="midnightblue" points="1586.3,-141.012 1595.92,-136.579 1585.63,-134.043 1586.3,-141.012"/>
</g>
<!-- Node30&#45;&gt;Node6 -->
<g id="edge62" class="edge"><title>Node30&#45;&gt;Node6</title>
<path fill="none" stroke="midnightblue" d="M1065.85,-179.292C1082.41,-165.15 1117.41,-137.33 1152,-123 1172.93,-114.329 1314.84,-89.4244 1380.63,-78.1572"/>
<polygon fill="midnightblue" stroke="midnightblue" points="1381.61,-81.5409 1390.88,-76.4074 1380.43,-74.6409 1381.61,-81.5409"/>
</g>
<!-- Node30&#45;&gt;Node8 -->
<g id="edge57" class="edge"><title>Node30&#45;&gt;Node8</title>
<path fill="none" stroke="midnightblue" d="M1074.09,-179.42C1092.72,-170.52 1122.55,-156.098 1148,-143 1164.62,-134.447 1167.16,-128.598 1185,-123 1223.92,-110.785 1497.5,-84.7712 1595.87,-75.7001"/>
<polygon fill="midnightblue" stroke="midnightblue" points="1596.27,-79.1784 1605.91,-74.7775 1595.63,-72.2078 1596.27,-79.1784"/>
</g>
<!-- Node30&#45;&gt;Node9 -->
<g id="edge58" class="edge"><title>Node30&#45;&gt;Node9</title>
<path fill="none" stroke="midnightblue" d="M1060.91,-179.226C1069.38,-164.989 1088.11,-137.036 1112,-123 1180.46,-82.7709 1229.34,-141.6 1287,-87 1302.52,-72.3013 1306.54,-47.1265 1307.31,-29.8049"/>
<polygon fill="midnightblue" stroke="midnightblue" points="1310.81,-29.7905 1307.45,-19.7452 1303.81,-29.6982 1310.81,-29.7905"/>
</g>
<!-- Node30&#45;&gt;Node11 -->
<g id="edge60" class="edge"><title>Node30&#45;&gt;Node11</title>
<path fill="none" stroke="midnightblue" d="M1012.23,-185.465C918.409,-179.693 700.74,-164.395 630,-143 617.156,-139.115 533.397,-95.4827 523,-87 502.265,-70.0831 483.622,-45.2949 472.318,-28.675"/>
<polygon fill="midnightblue" stroke="midnightblue" points="474.985,-26.364 466.549,-19.9546 469.147,-30.226 474.985,-26.364"/>
</g>
<!-- Node30&#45;&gt;Node12 -->
<g id="edge61" class="edge"><title>Node30&#45;&gt;Node12</title>
<path fill="none" stroke="midnightblue" d="M1012.5,-186.136C929.953,-182.079 745.144,-170.508 592,-143 590.715,-142.769 589.408,-142.514 588.091,-142.241"/>
<polygon fill="midnightblue" stroke="midnightblue" points="588.55,-138.753 578.015,-139.875 586.95,-145.568 588.55,-138.753"/>
</g>
<!-- Node30&#45;&gt;Node14 -->
<g id="edge63" class="edge"><title>Node30&#45;&gt;Node14</title>
<path fill="none" stroke="midnightblue" d="M1099.51,-182.974C1160.71,-175.702 1275.89,-161.273 1384.32,-143.012"/>
<polygon fill="midnightblue" stroke="midnightblue" points="1385.18,-146.416 1394.45,-141.29 1384.01,-139.514 1385.18,-146.416"/>
</g>
<!-- Node30&#45;&gt;Node15 -->
<g id="edge64" class="edge"><title>Node30&#45;&gt;Node15</title>
<path fill="none" stroke="midnightblue" d="M1092.29,-179.444C1131.98,-170.083 1195.71,-155.056 1238.91,-144.868"/>
<polygon fill="midnightblue" stroke="midnightblue" points="1239.95,-148.218 1248.88,-142.516 1238.35,-141.405 1239.95,-148.218"/>
</g>
<!-- Node30&#45;&gt;Node16 -->
<g id="edge66" class="edge"><title>Node30&#45;&gt;Node16</title>
<path fill="none" stroke="midnightblue" d="M1012.34,-180.94C953.468,-171.423 848.406,-154.437 782.11,-143.718"/>
<polygon fill="midnightblue" stroke="midnightblue" points="782.648,-140.26 772.218,-142.119 781.531,-147.17 782.648,-140.26"/>
</g>
<!-- Node30&#45;&gt;Node29 -->
<g id="edge65" class="edge"><title>Node30&#45;&gt;Node29</title>
<path fill="none" stroke="midnightblue" d="M1030.49,-179.444C1003.4,-170.359 960.41,-155.939 930.131,-145.783"/>
<polygon fill="midnightblue" stroke="midnightblue" points="930.986,-142.378 920.392,-142.516 928.76,-149.015 930.986,-142.378"/>
</g>
<!-- Node31 -->
<g id="node31" class="node"><title>Node31</title>
<g id="a_node31"><a xlink:href="ringbuffer_8hpp.html" target="_top" xlink:title="The RingBuffer class template. ">
<polygon fill="white" stroke="black" points="980.5,-123.5 980.5,-142.5 1061.5,-142.5 1061.5,-123.5 980.5,-123.5"/>
<text text-anchor="middle" x="1021" y="-130.5" font-family="Helvetica,sans-Serif" font-size="10.00">ringbuffer.hpp</text>
</a>
</g>
</g>
<!-- Node30&#45;&gt;Node31 -->
<g id="edge67" class="edge"><title>Node30&#45;&gt;Node31</title>
<path fill="none" stroke="midnightblue" d="M1050.22,-179.083C1045.33,-171.534 1038.17,-160.495 1032.17,-151.23"/>
<polygon fill="midnightblue" stroke="midnightblue" points="1035.05,-149.239 1026.67,-142.751 1029.17,-153.046 1035.05,-149.239"/>
</g>
<!-- Node31&#45;&gt;Node19 -->
<g id="edge70" class="edge"><title>Node31&#45;&gt;Node19</title>
<path fill="none" stroke="midnightblue" d="M1008.68,-123.475C994.884,-113.931 972.301,-98.3073 955.768,-86.8683"/>
<polygon fill="midnightblue" stroke="midnightblue" points="957.514,-83.8205 947.299,-81.0091 953.531,-89.577 957.514,-83.8205"/>
</g>
<!-- Node32 -->
<g id="node32" class="node"><title>Node32</title>
<polygon fill="white" stroke="#bfbfbf" points="1227.5,-62 1227.5,-81 1278.5,-81 1278.5,-62 1227.5,-62"/>
<text text-anchor="middle" x="1253" y="-69" font-family="Helvetica,sans-Serif" font-size="10.00">cassert</text>
</g>
<!-- Node31&#45;&gt;Node32 -->
<g id="edge68" class="edge"><title>Node31&#45;&gt;Node32</title>
<path fill="none" stroke="midnightblue" d="M1061.53,-124.813C1101.73,-117.201 1164.86,-103.946 1218,-87 1220.14,-86.3182 1222.33,-85.5604 1224.52,-84.7592"/>
<polygon fill="midnightblue" stroke="midnightblue" points="1225.92,-87.969 1233.96,-81.0681 1223.37,-81.4495 1225.92,-87.969"/>
</g>
<!-- Node33 -->
<g id="node33" class="node"><title>Node33</title>
<polygon fill="white" stroke="#bfbfbf" points="1088.5,-56.5 1088.5,-86.5 1209.5,-86.5 1209.5,-56.5 1088.5,-56.5"/>
<text text-anchor="start" x="1096.5" y="-74.5" font-family="Helvetica,sans-Serif" font-size="10.00">../contrib/pa_ringbuffer</text>
<text text-anchor="middle" x="1149" y="-63.5" font-family="Helvetica,sans-Serif" font-size="10.00">/pa_ringbuffer.h</text>
</g>
<!-- Node31&#45;&gt;Node33 -->
<g id="edge69" class="edge"><title>Node31&#45;&gt;Node33</title>
<path fill="none" stroke="midnightblue" d="M1039.34,-123.475C1057.57,-115.002 1086.1,-101.737 1109.5,-90.8628"/>
<polygon fill="midnightblue" stroke="midnightblue" points="1111.24,-93.9122 1118.83,-86.523 1108.29,-87.5644 1111.24,-93.9122"/>
</g>
<!-- Node34 -->
<g id="node34" class="node"><title>Node34</title>
<g id="a_node34"><a xlink:href="messages_8h.html" target="_top" xlink:title="Constant human&#45;readable messages used within playd. ">
<polygon fill="white" stroke="black" points="990,-62 990,-81 1070,-81 1070,-62 990,-62"/>
<text text-anchor="middle" x="1030" y="-69" font-family="Helvetica,sans-Serif" font-size="10.00">../messages.h</text>
</a>
</g>
</g>
<!-- Node31&#45;&gt;Node34 -->
<g id="edge71" class="edge"><title>Node31&#45;&gt;Node34</title>
<path fill="none" stroke="midnightblue" d="M1022.29,-123.475C1023.56,-115.08 1025.54,-101.981 1027.18,-91.1631"/>
<polygon fill="midnightblue" stroke="midnightblue" points="1030.68,-91.4201 1028.71,-81.0091 1023.76,-90.3731 1030.68,-91.4201"/>
</g>
<!-- Node34&#45;&gt;Node11 -->
<g id="edge72" class="edge"><title>Node34&#45;&gt;Node11</title>
<path fill="none" stroke="midnightblue" d="M1004.28,-61.9975C996.55,-59.7261 987.997,-57.4913 980,-56 797.909,-22.0417 574.995,-13.6166 493.12,-11.605"/>
<polygon fill="midnightblue" stroke="midnightblue" points="493.039,-8.10227 482.961,-11.3711 492.878,-15.1004 493.039,-8.10227"/>
</g>
<!-- Node35&#45;&gt;Node3 -->
<g id="edge78" class="edge"><title>Node35&#45;&gt;Node3</title>
<path fill="none" stroke="midnightblue" d="M694.929,-291.44C623.472,-274.387 472.684,-230.089 378,-143 360.225,-126.651 343.062,-104.787 332.079,-89.7663"/>
<polygon fill="midnightblue" stroke="midnightblue" points="334.759,-87.4978 326.089,-81.4082 329.07,-91.5753 334.759,-87.4978"/>
</g>
<!-- Node35&#45;&gt;Node8 -->
<g id="edge77" class="edge"><title>Node35&#45;&gt;Node8</title>
<path fill="none" stroke="midnightblue" d="M789.885,-299.823C892.307,-298.58 1119.11,-291.513 1306,-255 1467.54,-223.439 1561.79,-275.825 1659,-143 1670.96,-126.654 1658.44,-104.5 1646.54,-89.418"/>
<polygon fill="midnightblue" stroke="midnightblue" points="1648.93,-86.8215 1639.79,-81.4527 1643.59,-91.3456 1648.93,-86.8215"/>
</g>
<!-- Node35&#45;&gt;Node23 -->
<g id="edge80" class="edge"><title>Node35&#45;&gt;Node23</title>
<path fill="none" stroke="midnightblue" d="M680.191,-292.265C677.082,-291.835 674.002,-291.411 671,-291 577.137,-278.152 468.54,-263.782 400.311,-254.813"/>
<polygon fill="midnightblue" stroke="midnightblue" points="400.501,-251.308 390.13,-253.476 399.589,-258.249 400.501,-251.308"/>
</g>
<!-- Node36 -->
<g id="node36" class="node"><title>Node36</title>
<polygon fill="white" stroke="#bfbfbf" points="1266.5,-235.5 1266.5,-254.5 1297.5,-254.5 1297.5,-235.5 1266.5,-235.5"/>
<text text-anchor="middle" x="1282" y="-242.5" font-family="Helvetica,sans-Serif" font-size="10.00">set</text>
</g>
<!-- Node35&#45;&gt;Node36 -->
<g id="edge79" class="edge"><title>Node35&#45;&gt;Node36</title>
<path fill="none" stroke="midnightblue" d="M789.841,-298.902C884.8,-296.187 1085.64,-286.846 1252,-255 1253.47,-254.719 1254.97,-254.394 1256.47,-254.039"/>
<polygon fill="midnightblue" stroke="midnightblue" points="1257.54,-257.377 1266.27,-251.378 1255.7,-250.622 1257.54,-257.377"/>
</g>
<!-- Node37&#45;&gt;Node3 -->
<g id="edge83" class="edge"><title>Node37&#45;&gt;Node3</title>
<path fill="none" stroke="midnightblue" d="M316.374,-291.336C290.317,-276.585 241.351,-243.782 227,-199 211.945,-152.02 264.659,-108.242 296.845,-86.6185"/>
<polygon fill="midnightblue" stroke="midnightblue" points="298.826,-89.5055 305.306,-81.123 295.013,-83.6352 298.826,-89.5055"/>
</g>
<!-- Node37&#45;&gt;Node9 -->
<g id="edge82" class="edge"><title>Node37&#45;&gt;Node9</title>
<path fill="none" stroke="midnightblue" d="M348.373,-291.36C362.402,-283.066 383.281,-269.662 399,-255 481.381,-178.158 456.145,-108.156 556,-56 588.158,-39.2034 1130.33,-17.6611 1272.88,-12.267"/>
<polygon fill="midnightblue" stroke="midnightblue" points="1273.34,-15.7526 1283.2,-11.8787 1273.07,-8.7576 1273.34,-15.7526"/>
</g>
<!-- Node37&#45;&gt;Node10 -->
<g id="edge84" class="edge"><title>Node37&#45;&gt;Node10</title>
<path fill="none" stroke="midnightblue" d="M308.915,-291.444C283.455,-282.399 243.106,-268.064 214.541,-257.916"/>
<polygon fill="midnightblue" stroke="midnightblue" points="215.567,-254.566 204.972,-254.516 213.223,-261.162 215.567,-254.566"/>
</g>
<!-- Node37&#45;&gt;Node23 -->
<g id="edge85" class="edge"><title>Node37&#45;&gt;Node23</title>
<path fill="none" stroke="midnightblue" d="M333,-291.083C333,-284.006 333,-273.861 333,-264.986"/>
<polygon fill="midnightblue" stroke="midnightblue" points="336.5,-264.751 333,-254.751 329.5,-264.751 336.5,-264.751"/>
</g>
</g>
</svg>
