<?xml version="1.0" encoding="UTF-8" standalone="no"?>
<!DOCTYPE svg PUBLIC "-//W3C//DTD SVG 1.1//EN"
 "http://www.w3.org/Graphics/SVG/1.1/DTD/svg11.dtd">
<!-- Generated by graphviz version 2.38.0 (20140413.2041)
 -->
<!-- Title: src/audio/audio_source.hpp Pages: 1 -->
<svg width="1062pt" height="532pt"
 viewBox="0.00 0.00 1062.22 532.00" xmlns="http://www.w3.org/2000/svg" xmlns:xlink="http://www.w3.org/1999/xlink">
<g id="graph0" class="graph" transform="scale(1 1) rotate(0) translate(4 528)">
<title>src/audio/audio_source.hpp</title>
<polygon fill="white" stroke="none" points="-4,4 -4,-528 1058.22,-528 1058.22,4 -4,4"/>
<!-- Node1 -->
<g id="node1" class="node"><title>Node1</title>
<polygon fill="#bfbfbf" stroke="black" points="302.216,-504.5 302.216,-523.5 450.216,-523.5 450.216,-504.5 302.216,-504.5"/>
<text text-anchor="middle" x="376.216" y="-511.5" font-family="Helvetica,sans-Serif" font-size="10.00">src/audio/audio_source.hpp</text>
</g>
<!-- Node2 -->
<g id="node2" class="node"><title>Node2</title>
<g id="a_node2"><a xlink:href="audio_8hpp.html" target="_top" xlink:title="Declaration of the Audio class. ">
<polygon fill="white" stroke="black" points="134.216,-448.5 134.216,-467.5 244.216,-467.5 244.216,-448.5 134.216,-448.5"/>
<text text-anchor="middle" x="189.216" y="-455.5" font-family="Helvetica,sans-Serif" font-size="10.00">src/audio/audio.hpp</text>
</a>
</g>
</g>
<!-- Node1&#45;&gt;Node2 -->
<g id="edge1" class="edge"><title>Node1&#45;&gt;Node2</title>
<path fill="none" stroke="midnightblue" d="M336.627,-501.568C301.35,-491.381 250.523,-476.703 218.708,-467.516"/>
<polygon fill="midnightblue" stroke="midnightblue" points="336.007,-505.032 346.585,-504.444 337.949,-498.307 336.007,-505.032"/>
</g>
<!-- Node3 -->
<g id="node3" class="node"><title>Node3</title>
<g id="a_node3"><a xlink:href="audio_8cpp.html" target="_top" xlink:title="Implementation of the Audio class. ">
<polygon fill="white" stroke="black" points="51.2162,-392.5 51.2162,-411.5 161.216,-411.5 161.216,-392.5 51.2162,-392.5"/>
<text text-anchor="middle" x="106.216" y="-399.5" font-family="Helvetica,sans-Serif" font-size="10.00">src/audio/audio.cpp</text>
</a>
</g>
</g>
<!-- Node1&#45;&gt;Node3 -->
<g id="edge42" class="edge"><title>Node1&#45;&gt;Node3</title>
<path fill="none" stroke="midnightblue" d="M292.09,-507.344C228.986,-501.413 149.483,-489.8 125.216,-468 108.949,-453.386 106.29,-425.695 106.052,-411.644"/>
<polygon fill="midnightblue" stroke="midnightblue" points="291.791,-510.831 302.066,-508.248 292.423,-503.86 291.791,-510.831"/>
</g>
<!-- Node4 -->
<g id="node4" class="node"><title>Node4</title>
<g id="a_node4"><a xlink:href="audio__system_8cpp.html" target="_top" xlink:title="Implementation of the AudioSystem class. ">
<polygon fill="white" stroke="black" points="12.2162,-336.5 12.2162,-355.5 162.216,-355.5 162.216,-336.5 12.2162,-336.5"/>
<text text-anchor="middle" x="87.2162" y="-343.5" font-family="Helvetica,sans-Serif" font-size="10.00">src/audio/audio_system.cpp</text>
</a>
</g>
</g>
<!-- Node1&#45;&gt;Node4 -->
<g id="edge45" class="edge"><title>Node1&#45;&gt;Node4</title>
<path fill="none" stroke="midnightblue" d="M291.777,-510.093C237.51,-505.539 166.677,-494.463 109.216,-468 73.9655,-451.766 58.6517,-447.157 42.2162,-412 31.9862,-390.117 57.092,-367.6 73.7821,-355.665"/>
<polygon fill="midnightblue" stroke="midnightblue" points="291.813,-513.606 302.055,-510.894 292.357,-506.627 291.813,-513.606"/>
</g>
<!-- Node5 -->
<g id="node5" class="node"><title>Node5</title>
<g id="a_node5"><a xlink:href="audio__system_8hpp.html" target="_top" xlink:title="Declaration of the AudioSystem class. ">
<polygon fill="white" stroke="black" points="293.716,-392.5 293.716,-411.5 444.716,-411.5 444.716,-392.5 293.716,-392.5"/>
<text text-anchor="middle" x="369.216" y="-399.5" font-family="Helvetica,sans-Serif" font-size="10.00">src/audio/audio_system.hpp</text>
</a>
</g>
</g>
<!-- Node1&#45;&gt;Node5 -->
<g id="edge46" class="edge"><title>Node1&#45;&gt;Node5</title>
<path fill="none" stroke="midnightblue" d="M391.266,-496.372C401.108,-483.419 411.132,-464.864 405.216,-448 400.116,-433.461 388.125,-420.13 379.378,-411.815"/>
<polygon fill="midnightblue" stroke="midnightblue" points="388.344,-494.414 384.68,-504.355 393.744,-498.869 388.344,-494.414"/>
</g>
<!-- Node20 -->
<g id="node20" class="node"><title>Node20</title>
<g id="a_node20"><a xlink:href="audio__sink_8hpp.html" target="_top" xlink:title="Declaration of the AudioSink class. ">
<polygon fill="white" stroke="black" points="262.216,-448.5 262.216,-467.5 396.216,-467.5 396.216,-448.5 262.216,-448.5"/>
<text text-anchor="middle" x="329.216" y="-455.5" font-family="Helvetica,sans-Serif" font-size="10.00">src/audio/audio_sink.hpp</text>
</a>
</g>
</g>
<!-- Node1&#45;&gt;Node20 -->
<g id="edge37" class="edge"><title>Node1&#45;&gt;Node20</title>
<path fill="none" stroke="midnightblue" d="M361.795,-496.431C353.558,-486.967 343.562,-475.483 336.833,-467.751"/>
<polygon fill="midnightblue" stroke="midnightblue" points="359.25,-498.838 368.455,-504.083 364.53,-494.242 359.25,-498.838"/>
</g>
<!-- Node21 -->
<g id="node21" class="node"><title>Node21</title>
<g id="a_node21"><a xlink:href="audio__sink_8cpp.html" target="_top" xlink:title="Implementation of the AudioSink class. ">
<polygon fill="white" stroke="black" points="463.216,-392.5 463.216,-411.5 597.216,-411.5 597.216,-392.5 463.216,-392.5"/>
<text text-anchor="middle" x="530.216" y="-399.5" font-family="Helvetica,sans-Serif" font-size="10.00">src/audio/audio_sink.cpp</text>
</a>
</g>
</g>
<!-- Node1&#45;&gt;Node21 -->
<g id="edge43" class="edge"><title>Node1&#45;&gt;Node21</title>
<path fill="none" stroke="midnightblue" d="M396.632,-498.417C429.204,-475.151 491.926,-430.35 518.188,-411.591"/>
<polygon fill="midnightblue" stroke="midnightblue" points="394.403,-495.708 388.3,-504.368 398.472,-501.404 394.403,-495.708"/>
</g>
<!-- Node22 -->
<g id="node22" class="node"><title>Node22</title>
<g id="a_node22"><a xlink:href="audio__source_8cpp.html" target="_top" xlink:title="Implementation of the AudioSource class. ">
<polygon fill="white" stroke="black" points="528.716,-448.5 528.716,-467.5 675.716,-467.5 675.716,-448.5 528.716,-448.5"/>
<text text-anchor="middle" x="602.216" y="-455.5" font-family="Helvetica,sans-Serif" font-size="10.00">src/audio/audio_source.cpp</text>
</a>
</g>
</g>
<!-- Node1&#45;&gt;Node22 -->
<g id="edge44" class="edge"><title>Node1&#45;&gt;Node22</title>
<path fill="none" stroke="midnightblue" d="M421.883,-502.088C464.58,-491.887 527.464,-476.861 566.573,-467.516"/>
<polygon fill="midnightblue" stroke="midnightblue" points="420.939,-498.715 412.027,-504.444 422.566,-505.524 420.939,-498.715"/>
</g>
<!-- Node23 -->
<g id="node23" class="node"><title>Node23</title>
<g id="a_node23"><a xlink:href="player__position_8hpp.html" target="_top" xlink:title="Declaration of the PlayerPosition class. ">
<polygon fill="white" stroke="black" points="615.716,-392.5 615.716,-411.5 774.716,-411.5 774.716,-392.5 615.716,-392.5"/>
<text text-anchor="middle" x="695.216" y="-399.5" font-family="Helvetica,sans-Serif" font-size="10.00">src/player/player_position.hpp</text>
</a>
</g>
</g>
<!-- Node1&#45;&gt;Node23 -->
<g id="edge47" class="edge"><title>Node1&#45;&gt;Node23</title>
<path fill="none" stroke="midnightblue" d="M401.697,-499.758C429.868,-485.513 476.877,-462.904 519.216,-448 564.137,-432.187 617.299,-419.372 653.351,-411.52"/>
<polygon fill="midnightblue" stroke="midnightblue" points="399.873,-496.759 392.556,-504.421 403.054,-502.994 399.873,-496.759"/>
</g>
<!-- Node2&#45;&gt;Node3 -->
<g id="edge2" class="edge"><title>Node2&#45;&gt;Node3</title>
<path fill="none" stroke="midnightblue" d="M167.117,-442.622C151.954,-432.757 132.333,-419.992 119.518,-411.655"/>
<polygon fill="midnightblue" stroke="midnightblue" points="165.59,-445.804 175.881,-448.324 169.407,-439.937 165.59,-445.804"/>
</g>
<!-- Node2&#45;&gt;Node4 -->
<g id="edge3" class="edge"><title>Node2&#45;&gt;Node4</title>
<path fill="none" stroke="midnightblue" d="M187.645,-438.472C185.61,-424.405 180.939,-405.282 170.216,-392 156.007,-374.4 132.998,-362.698 114.806,-355.65"/>
<polygon fill="midnightblue" stroke="midnightblue" points="184.173,-438.92 188.777,-448.462 191.129,-438.131 184.173,-438.92"/>
</g>
<!-- Node2&#45;&gt;Node5 -->
<g id="edge4" class="edge"><title>Node2&#45;&gt;Node5</title>
<path fill="none" stroke="midnightblue" d="M227.324,-445.568C261.28,-435.381 310.205,-420.703 340.828,-411.516"/>
<polygon fill="midnightblue" stroke="midnightblue" points="226.31,-442.218 217.738,-448.444 228.322,-448.922 226.31,-442.218"/>
</g>
<!-- Node7 -->
<g id="node7" class="node"><title>Node7</title>
<g id="a_node7"><a xlink:href="player_8hpp.html" target="_top" xlink:title="Declaration of the Player class, and associated types. ">
<polygon fill="white" stroke="black" points="457.216,-280.5 457.216,-299.5 573.216,-299.5 573.216,-280.5 457.216,-280.5"/>
<text text-anchor="middle" x="515.216" y="-287.5" font-family="Helvetica,sans-Serif" font-size="10.00">src/player/player.hpp</text>
</a>
</g>
</g>
<!-- Node2&#45;&gt;Node7 -->
<g id="edge35" class="edge"><title>Node2&#45;&gt;Node7</title>
<path fill="none" stroke="midnightblue" d="M208.188,-442.441C226.892,-428.474 256.603,-407.305 284.216,-392 357.145,-351.578 449.45,-315.387 491.911,-299.514"/>
<polygon fill="midnightblue" stroke="midnightblue" points="206.056,-439.665 200.182,-448.483 210.273,-445.253 206.056,-439.665"/>
</g>
<!-- Node16 -->
<g id="node16" class="node"><title>Node16</title>
<g id="a_node16"><a xlink:href="player_8cpp.html" target="_top" xlink:title="Main implementation file for the Player class. ">
<polygon fill="white" stroke="black" points="122.716,-224.5 122.716,-243.5 237.716,-243.5 237.716,-224.5 122.716,-224.5"/>
<text text-anchor="middle" x="180.216" y="-231.5" font-family="Helvetica,sans-Serif" font-size="10.00">src/player/player.cpp</text>
</a>
</g>
</g>
<!-- Node2&#45;&gt;Node16 -->
<g id="edge36" class="edge"><title>Node2&#45;&gt;Node16</title>
<path fill="none" stroke="midnightblue" d="M124.117,-446.816C96.91,-440.203 66.1334,-429.43 42.2162,-412 17.7047,-394.137 12.2998,-384.938 3.21619,-356 -16.962,-291.718 79.8741,-257.848 138.346,-243.519"/>
<polygon fill="midnightblue" stroke="midnightblue" points="123.431,-450.249 133.96,-449.069 124.993,-443.426 123.431,-450.249"/>
</g>
<!-- Node5&#45;&gt;Node4 -->
<g id="edge5" class="edge"><title>Node5&#45;&gt;Node4</title>
<path fill="none" stroke="midnightblue" d="M314.577,-390.537C261.281,-380.332 181.212,-364.999 131.691,-355.516"/>
<polygon fill="midnightblue" stroke="midnightblue" points="314.053,-394 324.532,-392.444 315.369,-387.125 314.053,-394"/>
</g>
<!-- Node6 -->
<g id="node6" class="node"><title>Node6</title>
<g id="a_node6"><a xlink:href="player__file_8hpp.html" target="_top" xlink:title="Declaration of the PlayerFile class, and associated types. ">
<polygon fill="white" stroke="black" points="539.716,-336.5 539.716,-355.5 674.716,-355.5 674.716,-336.5 539.716,-336.5"/>
<text text-anchor="middle" x="607.216" y="-343.5" font-family="Helvetica,sans-Serif" font-size="10.00">src/player/player_file.hpp</text>
</a>
</g>
</g>
<!-- Node5&#45;&gt;Node6 -->
<g id="edge6" class="edge"><title>Node5&#45;&gt;Node6</title>
<path fill="none" stroke="midnightblue" d="M416.74,-390.217C461.713,-380.013 528.321,-364.901 569.681,-355.516"/>
<polygon fill="midnightblue" stroke="midnightblue" points="415.906,-386.818 406.928,-392.444 417.455,-393.644 415.906,-386.818"/>
</g>
<!-- Node12 -->
<g id="node12" class="node"><title>Node12</title>
<g id="a_node12"><a xlink:href="main_8cpp.html" target="_top" xlink:title="Main entry point and implementation of the playd class. ">
<polygon fill="white" stroke="black" points="420.216,-0.5 420.216,-19.5 498.216,-19.5 498.216,-0.5 420.216,-0.5"/>
<text text-anchor="middle" x="459.216" y="-7.5" font-family="Helvetica,sans-Serif" font-size="10.00">src/main.cpp</text>
</a>
</g>
</g>
<!-- Node5&#45;&gt;Node12 -->
<g id="edge31" class="edge"><title>Node5&#45;&gt;Node12</title>
<path fill="none" stroke="midnightblue" d="M342.356,-387.274C311.838,-369.54 266.216,-335.574 266.216,-291 266.216,-291 266.216,-291 266.216,-121 266.216,-50.8079 363.765,-24.8227 420.16,-15.665"/>
<polygon fill="midnightblue" stroke="midnightblue" points="340.837,-390.434 351.275,-392.25 344.248,-384.322 340.837,-390.434"/>
</g>
<!-- Node13 -->
<g id="node13" class="node"><title>Node13</title>
<g id="a_node13"><a xlink:href="main_8hpp.html" target="_top" xlink:title="Declaration of the playd class. ">
<polygon fill="white" stroke="black" points="340.716,-56.5 340.716,-75.5 419.716,-75.5 419.716,-56.5 340.716,-56.5"/>
<text text-anchor="middle" x="380.216" y="-63.5" font-family="Helvetica,sans-Serif" font-size="10.00">src/main.hpp</text>
</a>
</g>
</g>
<!-- Node5&#45;&gt;Node13 -->
<g id="edge32" class="edge"><title>Node5&#45;&gt;Node13</title>
<path fill="none" stroke="midnightblue" d="M352.311,-385.045C333.051,-365.06 304.216,-328.822 304.216,-291 304.216,-291 304.216,-291 304.216,-177 304.216,-132.201 347.413,-92.4292 368.673,-75.5672"/>
<polygon fill="midnightblue" stroke="midnightblue" points="350.074,-387.757 359.625,-392.341 355.017,-382.801 350.074,-387.757"/>
</g>
<!-- Node5&#45;&gt;Node16 -->
<g id="edge33" class="edge"><title>Node5&#45;&gt;Node16</title>
<path fill="none" stroke="midnightblue" d="M318.729,-389.607C296.508,-382.689 271.201,-372.01 252.216,-356 213.908,-323.694 190.783,-265.537 183.089,-243.647"/>
<polygon fill="midnightblue" stroke="midnightblue" points="317.78,-392.976 328.361,-392.437 319.753,-386.26 317.78,-392.976"/>
</g>
<!-- Node19 -->
<g id="node19" class="node"><title>Node19</title>
<g id="a_node19"><a xlink:href="player__file_8cpp.html" target="_top" xlink:title="Implementation of the PlayerFile class, and associated types. ">
<polygon fill="white" stroke="black" points="591.216,-280.5 591.216,-299.5 725.216,-299.5 725.216,-280.5 591.216,-280.5"/>
<text text-anchor="middle" x="658.216" y="-287.5" font-family="Helvetica,sans-Serif" font-size="10.00">src/player/player_file.cpp</text>
</a>
</g>
</g>
<!-- Node5&#45;&gt;Node19 -->
<g id="edge34" class="edge"><title>Node5&#45;&gt;Node19</title>
<path fill="none" stroke="midnightblue" d="M398.712,-388.62C430.879,-375.231 483.957,-353.459 530.216,-336 565.477,-322.692 606.662,-308.441 632.592,-299.624"/>
<polygon fill="midnightblue" stroke="midnightblue" points="397.313,-385.412 389.432,-392.493 400.008,-391.872 397.313,-385.412"/>
</g>
<!-- Node6&#45;&gt;Node7 -->
<g id="edge7" class="edge"><title>Node6&#45;&gt;Node7</title>
<path fill="none" stroke="midnightblue" d="M583.667,-331.177C566.737,-321.241 544.433,-308.149 529.961,-299.655"/>
<polygon fill="midnightblue" stroke="midnightblue" points="582.039,-334.28 592.435,-336.324 585.582,-328.243 582.039,-334.28"/>
</g>
<!-- Node6&#45;&gt;Node19 -->
<g id="edge30" class="edge"><title>Node6&#45;&gt;Node19</title>
<path fill="none" stroke="midnightblue" d="M622.594,-328.718C631.583,-319.2 642.575,-307.561 649.951,-299.751"/>
<polygon fill="midnightblue" stroke="midnightblue" points="619.96,-326.41 615.638,-336.083 625.049,-331.216 619.96,-326.41"/>
</g>
<!-- Node8 -->
<g id="node8" class="node"><title>Node8</title>
<g id="a_node8"><a xlink:href="cmd_8hpp.html" target="_top" xlink:title="Declaration of the CommandHandler class. ">
<polygon fill="white" stroke="black" points="610.216,-224.5 610.216,-243.5 686.216,-243.5 686.216,-224.5 610.216,-224.5"/>
<text text-anchor="middle" x="648.216" y="-231.5" font-family="Helvetica,sans-Serif" font-size="10.00">src/cmd.hpp</text>
</a>
</g>
</g>
<!-- Node7&#45;&gt;Node8 -->
<g id="edge8" class="edge"><title>Node7&#45;&gt;Node8</title>
<path fill="none" stroke="midnightblue" d="M545.664,-276.638C570.623,-266.504 605.293,-252.427 627.241,-243.516"/>
<polygon fill="midnightblue" stroke="midnightblue" points="544.239,-273.439 536.29,-280.444 546.873,-279.924 544.239,-273.439"/>
</g>
<!-- Node10 -->
<g id="node10" class="node"><title>Node10</title>
<g id="a_node10"><a xlink:href="io__core_8cpp.html" target="_top" xlink:title="Implementation of the non&#45;virtual aspects of the IoCore class. ">
<polygon fill="white" stroke="black" points="633.216,-56.5 633.216,-75.5 733.216,-75.5 733.216,-56.5 633.216,-56.5"/>
<text text-anchor="middle" x="683.216" y="-63.5" font-family="Helvetica,sans-Serif" font-size="10.00">src/io/io_core.cpp</text>
</a>
</g>
</g>
<!-- Node7&#45;&gt;Node10 -->
<g id="edge23" class="edge"><title>Node7&#45;&gt;Node10</title>
<path fill="none" stroke="midnightblue" d="M582.264,-278.49C617.034,-271.506 659.57,-260.514 695.216,-244 733.939,-226.061 753.734,-225.97 773.216,-188 796.88,-141.879 730.101,-94.7184 698.626,-75.7163"/>
<polygon fill="midnightblue" stroke="midnightblue" points="581.358,-275.101 572.208,-280.443 582.692,-281.972 581.358,-275.101"/>
</g>
<!-- Node11 -->
<g id="node11" class="node"><title>Node11</title>
<g id="a_node11"><a xlink:href="io__core_8hpp.html" target="_top" xlink:title="Declaration of the IoCore class. ">
<polygon fill="white" stroke="black" points="408.716,-112.5 408.716,-131.5 509.716,-131.5 509.716,-112.5 408.716,-112.5"/>
<text text-anchor="middle" x="459.216" y="-119.5" font-family="Helvetica,sans-Serif" font-size="10.00">src/io/io_core.hpp</text>
</a>
</g>
</g>
<!-- Node7&#45;&gt;Node11 -->
<g id="edge24" class="edge"><title>Node7&#45;&gt;Node11</title>
<path fill="none" stroke="midnightblue" d="M476.833,-276.501C461.703,-269.477 445.893,-259.023 437.216,-244 415.539,-206.467 442.074,-152.374 453.99,-131.585"/>
<polygon fill="midnightblue" stroke="midnightblue" points="475.523,-279.747 486.095,-280.441 478.263,-273.306 475.523,-279.747"/>
</g>
<!-- Node7&#45;&gt;Node12 -->
<g id="edge25" class="edge"><title>Node7&#45;&gt;Node12</title>
<path fill="none" stroke="midnightblue" d="M583.593,-279.032C626.637,-271.715 682.979,-260.21 731.216,-244 795.1,-222.532 868.216,-246.395 868.216,-179 868.216,-179 868.216,-179 868.216,-121 868.216,-44.8962 600.802,-19.9459 498.433,-13.1828"/>
<polygon fill="midnightblue" stroke="midnightblue" points="582.797,-275.616 573.508,-280.711 583.947,-282.521 582.797,-275.616"/>
</g>
<!-- Node7&#45;&gt;Node13 -->
<g id="edge26" class="edge"><title>Node7&#45;&gt;Node13</title>
<path fill="none" stroke="midnightblue" d="M476.215,-276.784C458.885,-269.639 439.456,-259.009 426.216,-244 381.269,-193.046 379.324,-103.595 379.895,-75.6149"/>
<polygon fill="midnightblue" stroke="midnightblue" points="474.984,-280.06 485.574,-280.4 477.508,-273.531 474.984,-280.06"/>
</g>
<!-- Node7&#45;&gt;Node16 -->
<g id="edge27" class="edge"><title>Node7&#45;&gt;Node16</title>
<path fill="none" stroke="midnightblue" d="M451.881,-278.791C388.58,-268.587 292.367,-253.078 233.05,-243.516"/>
<polygon fill="midnightblue" stroke="midnightblue" points="451.705,-282.307 462.134,-280.444 452.819,-275.397 451.705,-282.307"/>
</g>
<!-- Node17 -->
<g id="node17" class="node"><title>Node17</title>
<g id="a_node17"><a xlink:href="player__position_8cpp.html" target="_top" xlink:title="Implementation of the PlayerPosition class, and related Player methods. ">
<polygon fill="white" stroke="black" points="896.216,-224.5 896.216,-243.5 1054.22,-243.5 1054.22,-224.5 896.216,-224.5"/>
<text text-anchor="middle" x="975.216" y="-231.5" font-family="Helvetica,sans-Serif" font-size="10.00">src/player/player_position.cpp</text>
</a>
</g>
</g>
<!-- Node7&#45;&gt;Node17 -->
<g id="edge28" class="edge"><title>Node7&#45;&gt;Node17</title>
<path fill="none" stroke="midnightblue" d="M583.351,-279.879C698.369,-265.636 819.759,-252.001 896.87,-243.516"/>
<polygon fill="midnightblue" stroke="midnightblue" points="582.804,-276.42 573.312,-281.126 583.667,-283.366 582.804,-276.42"/>
</g>
<!-- Node18 -->
<g id="node18" class="node"><title>Node18</title>
<g id="a_node18"><a xlink:href="player__state_8cpp.html" target="_top" xlink:title="Implementation of the PlayerState class, and related Player methods. ">
<polygon fill="white" stroke="black" points="446.216,-224.5 446.216,-243.5 592.216,-243.5 592.216,-224.5 446.216,-224.5"/>
<text text-anchor="middle" x="519.216" y="-231.5" font-family="Helvetica,sans-Serif" font-size="10.00">src/player/player_state.cpp</text>
</a>
</g>
</g>
<!-- Node7&#45;&gt;Node18 -->
<g id="edge29" class="edge"><title>Node7&#45;&gt;Node18</title>
<path fill="none" stroke="midnightblue" d="M516.616,-270.101C517.28,-261.136 518.042,-250.858 518.568,-243.751"/>
<polygon fill="midnightblue" stroke="midnightblue" points="513.125,-269.852 515.877,-280.083 520.106,-270.369 513.125,-269.852"/>
</g>
<!-- Node9 -->
<g id="node9" class="node"><title>Node9</title>
<g id="a_node9"><a xlink:href="cmd_8cpp.html" target="_top" xlink:title="Implementation of the CommandHandler class. ">
<polygon fill="white" stroke="black" points="688.716,-168.5 688.716,-187.5 763.716,-187.5 763.716,-168.5 688.716,-168.5"/>
<text text-anchor="middle" x="726.216" y="-175.5" font-family="Helvetica,sans-Serif" font-size="10.00">src/cmd.cpp</text>
</a>
</g>
</g>
<!-- Node8&#45;&gt;Node9 -->
<g id="edge9" class="edge"><title>Node8&#45;&gt;Node9</title>
<path fill="none" stroke="midnightblue" d="M668.984,-218.622C683.233,-208.757 701.672,-195.992 713.715,-187.655"/>
<polygon fill="midnightblue" stroke="midnightblue" points="666.978,-215.754 660.748,-224.324 670.962,-221.51 666.978,-215.754"/>
</g>
<!-- Node8&#45;&gt;Node10 -->
<g id="edge10" class="edge"><title>Node8&#45;&gt;Node10</title>
<path fill="none" stroke="midnightblue" d="M652.237,-213.93C659.829,-177.92 675.999,-101.231 681.41,-75.5681"/>
<polygon fill="midnightblue" stroke="midnightblue" points="648.736,-213.568 650.098,-224.075 655.586,-215.012 648.736,-213.568"/>
</g>
<!-- Node8&#45;&gt;Node11 -->
<g id="edge11" class="edge"><title>Node8&#45;&gt;Node11</title>
<path fill="none" stroke="midnightblue" d="M600.162,-223.134C552.122,-212.857 484.12,-197.022 475.216,-188 460.195,-172.781 458.501,-145.86 458.737,-131.921"/>
<polygon fill="midnightblue" stroke="midnightblue" points="599.573,-226.587 610.082,-225.238 601.026,-219.739 599.573,-226.587"/>
</g>
<!-- Node8&#45;&gt;Node12 -->
<g id="edge21" class="edge"><title>Node8&#45;&gt;Node12</title>
<path fill="none" stroke="midnightblue" d="M696.503,-228.896C723.839,-223.812 755.929,-212.597 773.216,-188 798.196,-152.458 843.658,-146.641 742.216,-56 706.881,-24.4268 567.425,-14.9249 498.375,-12.1295"/>
<polygon fill="midnightblue" stroke="midnightblue" points="695.606,-225.496 686.299,-230.56 696.732,-232.405 695.606,-225.496"/>
</g>
<!-- Node8&#45;&gt;Node13 -->
<g id="edge22" class="edge"><title>Node8&#45;&gt;Node13</title>
<path fill="none" stroke="midnightblue" d="M600.218,-222.826C548.707,-211.699 472.578,-194.575 460.216,-188 427.723,-170.718 418.648,-163.255 399.216,-132 387.918,-113.828 383.081,-88.6413 381.229,-75.5986"/>
<polygon fill="midnightblue" stroke="midnightblue" points="599.653,-226.284 610.165,-224.966 601.125,-219.441 599.653,-226.284"/>
</g>
<!-- Node14 -->
<g id="node14" class="node"><title>Node14</title>
<g id="a_node14"><a xlink:href="tokeniser_8hpp.html" target="_top" xlink:title="Declaration of the Tokeniser class. ">
<polygon fill="white" stroke="black" points="484.216,-168.5 484.216,-187.5 594.216,-187.5 594.216,-168.5 484.216,-168.5"/>
<text text-anchor="middle" x="539.216" y="-175.5" font-family="Helvetica,sans-Serif" font-size="10.00">src/io/tokeniser.hpp</text>
</a>
</g>
</g>
<!-- Node8&#45;&gt;Node14 -->
<g id="edge17" class="edge"><title>Node8&#45;&gt;Node14</title>
<path fill="none" stroke="midnightblue" d="M621.697,-219.862C601.486,-209.849 574.229,-196.346 556.685,-187.655"/>
<polygon fill="midnightblue" stroke="midnightblue" points="620.189,-223.021 630.703,-224.324 623.297,-216.748 620.189,-223.021"/>
</g>
<!-- Node15 -->
<g id="node15" class="node"><title>Node15</title>
<g id="a_node15"><a xlink:href="tokeniser_8cpp.html" target="_top" xlink:title="Definition of the Tokeniser class. ">
<polygon fill="white" stroke="black" points="545.716,-112.5 545.716,-131.5 654.716,-131.5 654.716,-112.5 545.716,-112.5"/>
<text text-anchor="middle" x="600.216" y="-119.5" font-family="Helvetica,sans-Serif" font-size="10.00">src/io/tokeniser.cpp</text>
</a>
</g>
</g>
<!-- Node8&#45;&gt;Node15 -->
<g id="edge20" class="edge"><title>Node8&#45;&gt;Node15</title>
<path fill="none" stroke="midnightblue" d="M640.361,-214.998C629.888,-190.997 611.766,-149.468 603.965,-131.591"/>
<polygon fill="midnightblue" stroke="midnightblue" points="637.242,-216.603 644.45,-224.368 643.658,-213.803 637.242,-216.603"/>
</g>
<!-- Node11&#45;&gt;Node10 -->
<g id="edge12" class="edge"><title>Node11&#45;&gt;Node10</title>
<path fill="none" stroke="midnightblue" d="M504.479,-110.088C546.798,-99.8865 609.125,-84.8612 647.889,-75.5164"/>
<polygon fill="midnightblue" stroke="midnightblue" points="503.611,-106.697 494.71,-112.444 505.251,-113.502 503.611,-106.697"/>
</g>
<!-- Node11&#45;&gt;Node11 -->
<g id="edge13" class="edge"><title>Node11&#45;&gt;Node11</title>
<path fill="none" stroke="midnightblue" d="M498.534,-132.432C514.389,-133.04 527.716,-129.563 527.716,-122 527.716,-112.867 508.283,-109.692 488.432,-112.475"/>
<polygon fill="midnightblue" stroke="midnightblue" points="498.704,-128.933 488.432,-131.525 498.079,-135.905 498.704,-128.933"/>
</g>
<!-- Node11&#45;&gt;Node12 -->
<g id="edge14" class="edge"><title>Node11&#45;&gt;Node12</title>
<path fill="none" stroke="midnightblue" d="M459.216,-102.348C459.216,-78.2538 459.216,-37.3079 459.216,-19.5914"/>
<polygon fill="midnightblue" stroke="midnightblue" points="455.716,-102.368 459.216,-112.368 462.716,-102.369 455.716,-102.368"/>
</g>
<!-- Node11&#45;&gt;Node13 -->
<g id="edge15" class="edge"><title>Node11&#45;&gt;Node13</title>
<path fill="none" stroke="midnightblue" d="M438.182,-106.622C423.75,-96.7574 405.075,-83.9919 392.877,-75.6545"/>
<polygon fill="midnightblue" stroke="midnightblue" points="436.293,-109.57 446.523,-112.324 440.243,-103.791 436.293,-109.57"/>
</g>
<!-- Node13&#45;&gt;Node12 -->
<g id="edge16" class="edge"><title>Node13&#45;&gt;Node12</title>
<path fill="none" stroke="midnightblue" d="M401.25,-50.6221C415.682,-40.7574 434.358,-27.9919 446.555,-19.6545"/>
<polygon fill="midnightblue" stroke="midnightblue" points="399.189,-47.7914 392.909,-56.324 403.14,-53.5703 399.189,-47.7914"/>
</g>
<!-- Node14&#45;&gt;Node11 -->
<g id="edge18" class="edge"><title>Node14&#45;&gt;Node11</title>
<path fill="none" stroke="midnightblue" d="M517.916,-162.622C503.301,-152.757 484.389,-139.992 472.038,-131.655"/>
<polygon fill="midnightblue" stroke="midnightblue" points="516.116,-165.63 526.363,-168.324 520.032,-159.828 516.116,-165.63"/>
</g>
<!-- Node14&#45;&gt;Node15 -->
<g id="edge19" class="edge"><title>Node14&#45;&gt;Node15</title>
<path fill="none" stroke="midnightblue" d="M556.683,-161.537C567.56,-151.909 581.16,-139.869 590.237,-131.834"/>
<polygon fill="midnightblue" stroke="midnightblue" points="554.185,-159.075 549.017,-168.324 558.824,-164.316 554.185,-159.075"/>
</g>
<!-- Node20&#45;&gt;Node3 -->
<g id="edge38" class="edge"><title>Node20&#45;&gt;Node3</title>
<path fill="none" stroke="midnightblue" d="M284.155,-446.088C242.025,-435.887 179.976,-420.861 141.386,-411.516"/>
<polygon fill="midnightblue" stroke="midnightblue" points="283.338,-449.492 293.881,-448.444 284.986,-442.688 283.338,-449.492"/>
</g>
<!-- Node20&#45;&gt;Node4 -->
<g id="edge40" class="edge"><title>Node20&#45;&gt;Node4</title>
<path fill="none" stroke="midnightblue" d="M302.151,-444.094C274.208,-430.829 229.301,-409.673 190.216,-392 161.589,-379.056 128.231,-364.594 107.415,-355.644"/>
<polygon fill="midnightblue" stroke="midnightblue" points="300.756,-447.306 311.291,-448.439 303.762,-440.984 300.756,-447.306"/>
</g>
<!-- Node20&#45;&gt;Node5 -->
<g id="edge41" class="edge"><title>Node20&#45;&gt;Node5</title>
<path fill="none" stroke="midnightblue" d="M341.916,-439.855C348.842,-430.505 357.122,-419.327 362.734,-411.751"/>
<polygon fill="midnightblue" stroke="midnightblue" points="338.961,-437.964 335.821,-448.083 344.586,-442.131 338.961,-437.964"/>
</g>
<!-- Node20&#45;&gt;Node21 -->
<g id="edge39" class="edge"><title>Node20&#45;&gt;Node21</title>
<path fill="none" stroke="midnightblue" d="M370.797,-445.829C408.748,-435.633 464.027,-420.782 498.516,-411.516"/>
<polygon fill="midnightblue" stroke="midnightblue" points="369.815,-442.469 361.065,-448.444 371.631,-449.229 369.815,-442.469"/>
</g>
<!-- Node23&#45;&gt;Node6 -->
<g id="edge48" class="edge"><title>Node23&#45;&gt;Node6</title>
<path fill="none" stroke="midnightblue" d="M672.239,-386.901C656.103,-376.999 635.035,-364.071 621.32,-355.655"/>
<polygon fill="midnightblue" stroke="midnightblue" points="670.724,-390.077 681.077,-392.324 674.385,-384.111 670.724,-390.077"/>
</g>
<!-- Node23&#45;&gt;Node7 -->
<g id="edge49" class="edge"><title>Node23&#45;&gt;Node7</title>
<path fill="none" stroke="midnightblue" d="M631.257,-390.515C591.13,-382.661 544.396,-370.751 530.216,-356 515.448,-340.638 514.16,-313.78 514.604,-299.887"/>
<polygon fill="midnightblue" stroke="midnightblue" points="630.815,-393.993 641.293,-392.423 632.123,-387.117 630.815,-393.993"/>
</g>
<!-- Node23&#45;&gt;Node17 -->
<g id="edge51" class="edge"><title>Node23&#45;&gt;Node17</title>
<path fill="none" stroke="midnightblue" d="M718.729,-387.06C774.817,-353.808 915.163,-270.603 960.702,-243.605"/>
<polygon fill="midnightblue" stroke="midnightblue" points="716.693,-384.198 709.876,-392.309 720.263,-390.22 716.693,-384.198"/>
</g>
<!-- Node23&#45;&gt;Node19 -->
<g id="edge50" class="edge"><title>Node23&#45;&gt;Node19</title>
<path fill="none" stroke="midnightblue" d="M693.809,-382.12C692.397,-368.9 689.617,-350.991 684.216,-336 679.323,-322.418 670.39,-308.235 664.379,-299.508"/>
<polygon fill="midnightblue" stroke="midnightblue" points="690.346,-382.694 694.73,-392.34 697.318,-382.066 690.346,-382.694"/>
</g>
</g>
</svg>
