<?xml version="1.0" encoding="UTF-8" standalone="no"?>
<!DOCTYPE svg PUBLIC "-//W3C//DTD SVG 1.1//EN"
 "http://www.w3.org/Graphics/SVG/1.1/DTD/svg11.dtd">
<!-- Generated by graphviz version 2.36.0 (20140111.2315)
 -->
<!-- Title: src/audio/audio.hpp Pages: 1 -->
<svg width="460pt" height="252pt"
 viewBox="0.00 0.00 460.00 252.00" xmlns="http://www.w3.org/2000/svg" xmlns:xlink="http://www.w3.org/1999/xlink">
<g id="graph0" class="graph" transform="scale(1 1) rotate(0) translate(4 248)">
<title>src/audio/audio.hpp</title>
<polygon fill="white" stroke="none" points="-4,4 -4,-248 456,-248 456,4 -4,4"/>
<!-- Node15 -->
<g id="node1" class="node"><title>Node15</title>
<polygon fill="#bfbfbf" stroke="black" points="219,-224.5 219,-243.5 329,-243.5 329,-224.5 219,-224.5"/>
<text text-anchor="middle" x="274" y="-231.5" font-family="Helvetica,sans-Serif" font-size="10.00">src/audio/audio.hpp</text>
</g>
<!-- Node16 -->
<g id="node2" class="node"><title>Node16</title>
<g id="a_node2"><a xlink:href="audio_8cpp.html" target="_top" xlink:title="Implementation of the PipeAudio class. ">
<polygon fill="white" stroke="black" points="0,-112.5 0,-131.5 110,-131.5 110,-112.5 0,-112.5"/>
<text text-anchor="middle" x="55" y="-119.5" font-family="Helvetica,sans-Serif" font-size="10.00">src/audio/audio.cpp</text>
</a>
</g>
</g>
<!-- Node15&#45;&gt;Node16 -->
<g id="edge1" class="edge"><title>Node15&#45;&gt;Node16</title>
<path fill="none" stroke="midnightblue" d="M234.833,-221.386C210.145,-213.411 177.954,-201.792 151,-188 118.031,-171.13 82.8609,-144.931 65.686,-131.529"/>
<polygon fill="midnightblue" stroke="midnightblue" points="233.986,-224.789 244.576,-224.471 236.099,-218.116 233.986,-224.789"/>
</g>
<!-- Node17 -->
<g id="node3" class="node"><title>Node17</title>
<g id="a_node3"><a xlink:href="audio__sink_8hpp.html" target="_top" xlink:title="Declaration of the AudioSink class. ">
<polygon fill="white" stroke="black" points="160,-168.5 160,-187.5 294,-187.5 294,-168.5 160,-168.5"/>
<text text-anchor="middle" x="227" y="-175.5" font-family="Helvetica,sans-Serif" font-size="10.00">src/audio/audio_sink.hpp</text>
</a>
</g>
</g>
<!-- Node15&#45;&gt;Node17 -->
<g id="edge2" class="edge"><title>Node15&#45;&gt;Node17</title>
<path fill="none" stroke="midnightblue" d="M259.579,-216.431C251.342,-206.967 241.346,-195.483 234.617,-187.751"/>
<polygon fill="midnightblue" stroke="midnightblue" points="257.034,-218.838 266.239,-224.083 262.314,-214.242 257.034,-218.838"/>
</g>
<!-- Node19 -->
<g id="node5" class="node"><title>Node19</title>
<g id="a_node5"><a xlink:href="player_8hpp.html" target="_top" xlink:title="Declaration of the Player class, and associated types. ">
<polygon fill="white" stroke="black" points="280.5,-112.5 280.5,-131.5 363.5,-131.5 363.5,-112.5 280.5,-112.5"/>
<text text-anchor="middle" x="322" y="-119.5" font-family="Helvetica,sans-Serif" font-size="10.00">src/player.hpp</text>
</a>
</g>
</g>
<!-- Node15&#45;&gt;Node19 -->
<g id="edge13" class="edge"><title>Node15&#45;&gt;Node19</title>
<path fill="none" stroke="midnightblue" d="M286.478,-216.197C292.119,-208.01 298.511,-197.828 303,-188 311.792,-168.75 317.613,-144.435 320.295,-131.695"/>
<polygon fill="midnightblue" stroke="midnightblue" points="283.534,-214.297 280.569,-224.468 289.23,-218.366 283.534,-214.297"/>
</g>
<!-- Node23 -->
<g id="node9" class="node"><title>Node23</title>
<g id="a_node9"><a xlink:href="player_8cpp.html" target="_top" xlink:title="Main implementation file for the Player class. ">
<polygon fill="white" stroke="black" points="369.5,-56.5 369.5,-75.5 452.5,-75.5 452.5,-56.5 369.5,-56.5"/>
<text text-anchor="middle" x="411" y="-63.5" font-family="Helvetica,sans-Serif" font-size="10.00">src/player.cpp</text>
</a>
</g>
</g>
<!-- Node15&#45;&gt;Node23 -->
<g id="edge14" class="edge"><title>Node15&#45;&gt;Node23</title>
<path fill="none" stroke="midnightblue" d="M298.125,-219.113C325.517,-202.089 369.564,-170.676 394,-132 405.339,-114.053 409.148,-88.7713 410.402,-75.6549"/>
<polygon fill="midnightblue" stroke="midnightblue" points="296.264,-216.149 289.526,-224.325 299.892,-222.135 296.264,-216.149"/>
</g>
<!-- Node17&#45;&gt;Node16 -->
<g id="edge3" class="edge"><title>Node17&#45;&gt;Node16</title>
<path fill="none" stroke="midnightblue" d="M190.168,-165.436C157.738,-155.255 111.263,-140.664 82.1264,-131.516"/>
<polygon fill="midnightblue" stroke="midnightblue" points="189.157,-168.787 199.746,-168.444 191.254,-162.109 189.157,-168.787"/>
</g>
<!-- Node18 -->
<g id="node4" class="node"><title>Node18</title>
<g id="a_node4"><a xlink:href="audio__sink_8cpp.html" target="_top" xlink:title="Implementation of the AudioSink class. ">
<polygon fill="white" stroke="black" points="128,-112.5 128,-131.5 262,-131.5 262,-112.5 128,-112.5"/>
<text text-anchor="middle" x="195" y="-119.5" font-family="Helvetica,sans-Serif" font-size="10.00">src/audio/audio_sink.cpp</text>
</a>
</g>
</g>
<!-- Node17&#45;&gt;Node18 -->
<g id="edge4" class="edge"><title>Node17&#45;&gt;Node18</title>
<path fill="none" stroke="midnightblue" d="M216.496,-159.275C211.027,-150.045 204.582,-139.17 200.186,-131.751"/>
<polygon fill="midnightblue" stroke="midnightblue" points="213.607,-161.264 221.716,-168.083 219.629,-157.696 213.607,-161.264"/>
</g>
<!-- Node17&#45;&gt;Node19 -->
<g id="edge5" class="edge"><title>Node17&#45;&gt;Node19</title>
<path fill="none" stroke="midnightblue" d="M251.318,-163.177C268.799,-153.241 291.83,-140.149 306.774,-131.655"/>
<polygon fill="midnightblue" stroke="midnightblue" points="249.227,-160.339 242.263,-168.324 252.687,-166.425 249.227,-160.339"/>
</g>
<!-- Node17&#45;&gt;Node23 -->
<g id="edge12" class="edge"><title>Node17&#45;&gt;Node23</title>
<path fill="none" stroke="midnightblue" d="M297.375,-166.014C322.849,-159.385 350.587,-148.813 372,-132 391.252,-116.883 403.116,-89.42 408.165,-75.5312"/>
<polygon fill="midnightblue" stroke="midnightblue" points="296.258,-162.684 287.37,-168.451 297.914,-169.485 296.258,-162.684"/>
</g>
<!-- Node20 -->
<g id="node6" class="node"><title>Node20</title>
<g id="a_node6"><a xlink:href="io_8cpp.html" target="_top" xlink:title="Implementation of the non&#45;virtual aspects of the IoCore class. ">
<polygon fill="white" stroke="black" points="206,-0.5 206,-19.5 268,-19.5 268,-0.5 206,-0.5"/>
<text text-anchor="middle" x="237" y="-7.5" font-family="Helvetica,sans-Serif" font-size="10.00">src/io.cpp</text>
</a>
</g>
</g>
<!-- Node19&#45;&gt;Node20 -->
<g id="edge6" class="edge"><title>Node19&#45;&gt;Node20</title>
<path fill="none" stroke="midnightblue" d="M281.336,-108.445C265.714,-101.467 249.392,-91.0632 240,-76 229.122,-58.5532 232.195,-33.0605 234.88,-19.7803"/>
<polygon fill="midnightblue" stroke="midnightblue" points="280.323,-111.812 290.904,-112.357 282.972,-105.333 280.323,-111.812"/>
</g>
<!-- Node21 -->
<g id="node7" class="node"><title>Node21</title>
<g id="a_node7"><a xlink:href="io_8hpp.html" target="_top" xlink:title="Declaration of the I/O classes used in playd. ">
<polygon fill="white" stroke="black" points="249.5,-56.5 249.5,-75.5 312.5,-75.5 312.5,-56.5 249.5,-56.5"/>
<text text-anchor="middle" x="281" y="-63.5" font-family="Helvetica,sans-Serif" font-size="10.00">src/io.hpp</text>
</a>
</g>
</g>
<!-- Node19&#45;&gt;Node21 -->
<g id="edge7" class="edge"><title>Node19&#45;&gt;Node21</title>
<path fill="none" stroke="midnightblue" d="M308.983,-103.855C301.883,-94.5048 293.396,-83.3265 287.644,-75.7511"/>
<polygon fill="midnightblue" stroke="midnightblue" points="306.395,-106.235 315.23,-112.083 311.97,-102.002 306.395,-106.235"/>
</g>
<!-- Node22 -->
<g id="node8" class="node"><title>Node22</title>
<g id="a_node8"><a xlink:href="main_8cpp.html" target="_top" xlink:title="Main entry point and implementation of the playd class. ">
<polygon fill="white" stroke="black" points="294,-0.5 294,-19.5 372,-19.5 372,-0.5 294,-0.5"/>
<text text-anchor="middle" x="333" y="-7.5" font-family="Helvetica,sans-Serif" font-size="10.00">src/main.cpp</text>
</a>
</g>
</g>
<!-- Node19&#45;&gt;Node22 -->
<g id="edge10" class="edge"><title>Node19&#45;&gt;Node22</title>
<path fill="none" stroke="midnightblue" d="M323.865,-102.348C326.275,-78.2538 330.369,-37.3079 332.141,-19.5914"/>
<polygon fill="midnightblue" stroke="midnightblue" points="320.376,-102.07 322.863,-112.368 327.341,-102.766 320.376,-102.07"/>
</g>
<!-- Node19&#45;&gt;Node23 -->
<g id="edge11" class="edge"><title>Node19&#45;&gt;Node23</title>
<path fill="none" stroke="midnightblue" d="M345.238,-106.901C361.558,-96.9986 382.865,-84.0705 396.736,-75.6545"/>
<polygon fill="midnightblue" stroke="midnightblue" points="343.033,-104.144 336.299,-112.324 346.664,-110.129 343.033,-104.144"/>
</g>
<!-- Node21&#45;&gt;Node20 -->
<g id="edge8" class="edge"><title>Node21&#45;&gt;Node20</title>
<path fill="none" stroke="midnightblue" d="M267.265,-48.144C259.599,-38.7357 250.367,-27.4046 244.131,-19.7511"/>
<polygon fill="midnightblue" stroke="midnightblue" points="264.704,-50.5415 273.734,-56.083 270.131,-46.1198 264.704,-50.5415"/>
</g>
<!-- Node21&#45;&gt;Node22 -->
<g id="edge9" class="edge"><title>Node21&#45;&gt;Node22</title>
<path fill="none" stroke="midnightblue" d="M296.679,-48.7175C305.845,-39.1997 317.053,-27.5608 324.573,-19.7511"/>
<polygon fill="midnightblue" stroke="midnightblue" points="294.002,-46.452 289.587,-56.083 299.044,-51.3075 294.002,-46.452"/>
</g>
</g>
</svg>
