<?xml version="1.0" encoding="UTF-8" standalone="no"?>
<!DOCTYPE svg PUBLIC "-//W3C//DTD SVG 1.1//EN"
 "http://www.w3.org/Graphics/SVG/1.1/DTD/svg11.dtd">
<!-- Generated by graphviz version 2.36.0 (20140111.2315)
 -->
<!-- Title: src/audio/audio.cpp Pages: 1 -->
<svg width="1112pt" height="320pt"
 viewBox="0.00 0.00 1112.40 320.00" xmlns="http://www.w3.org/2000/svg" xmlns:xlink="http://www.w3.org/1999/xlink">
<g id="graph0" class="graph" transform="scale(1 1) rotate(0) translate(4 316)">
<title>src/audio/audio.cpp</title>
<polygon fill="white" stroke="none" points="-4,4 -4,-316 1108.4,-316 1108.4,4 -4,4"/>
<!-- Node0 -->
<g id="node1" class="node"><title>Node0</title>
<polygon fill="#bfbfbf" stroke="black" points="346,-292.5 346,-311.5 456,-311.5 456,-292.5 346,-292.5"/>
<text text-anchor="middle" x="401" y="-299.5" font-family="Helvetica,sans-Serif" font-size="10.00">src/audio/audio.cpp</text>
</g>
<!-- Node1 -->
<g id="node2" class="node"><title>Node1</title>
<polygon fill="white" stroke="#bfbfbf" points="0,-236.5 0,-255.5 62,-255.5 62,-236.5 0,-236.5"/>
<text text-anchor="middle" x="31" y="-243.5" font-family="Helvetica,sans-Serif" font-size="10.00">algorithm</text>
</g>
<!-- Node0&#45;&gt;Node1 -->
<g id="edge1" class="edge"><title>Node0&#45;&gt;Node1</title>
<path fill="none" stroke="midnightblue" d="M345.886,-294.95C282.233,-287.635 174.185,-274.215 72.2363,-256.098"/>
<polygon fill="midnightblue" stroke="midnightblue" points="72.8523,-252.653 62.3911,-254.33 71.6151,-259.543 72.8523,-252.653"/>
</g>
<!-- Node2 -->
<g id="node3" class="node"><title>Node2</title>
<polygon fill="white" stroke="#bfbfbf" points="80,-236.5 80,-255.5 132,-255.5 132,-236.5 80,-236.5"/>
<text text-anchor="middle" x="106" y="-243.5" font-family="Helvetica,sans-Serif" font-size="10.00">cassert</text>
</g>
<!-- Node0&#45;&gt;Node2 -->
<g id="edge2" class="edge"><title>Node0&#45;&gt;Node2</title>
<path fill="none" stroke="midnightblue" d="M345.972,-292.791C295.445,-284.956 218.3,-272.251 142.516,-256.193"/>
<polygon fill="midnightblue" stroke="midnightblue" points="142.831,-252.681 132.32,-254.009 141.365,-259.525 142.831,-252.681"/>
</g>
<!-- Node3 -->
<g id="node4" class="node"><title>Node3</title>
<polygon fill="white" stroke="#bfbfbf" points="150.5,-236.5 150.5,-255.5 197.5,-255.5 197.5,-236.5 150.5,-236.5"/>
<text text-anchor="middle" x="174" y="-243.5" font-family="Helvetica,sans-Serif" font-size="10.00">climits</text>
</g>
<!-- Node0&#45;&gt;Node3 -->
<g id="edge3" class="edge"><title>Node0&#45;&gt;Node3</title>
<path fill="none" stroke="midnightblue" d="M365.031,-292.444C321.721,-282.141 249.561,-264.975 207.421,-254.95"/>
<polygon fill="midnightblue" stroke="midnightblue" points="208.182,-251.534 197.643,-252.624 206.562,-258.344 208.182,-251.534"/>
</g>
<!-- Node4 -->
<g id="node5" class="node"><title>Node4</title>
<polygon fill="white" stroke="#bfbfbf" points="670.5,-0.5 670.5,-19.5 719.5,-19.5 719.5,-0.5 670.5,-0.5"/>
<text text-anchor="middle" x="695" y="-7.5" font-family="Helvetica,sans-Serif" font-size="10.00">cstdint</text>
</g>
<!-- Node0&#45;&gt;Node4 -->
<g id="edge4" class="edge"><title>Node0&#45;&gt;Node4</title>
<path fill="none" stroke="midnightblue" d="M362.613,-292.461C318.767,-280.36 249.427,-253.472 221,-200 192.523,-146.434 177.448,-130.07 286,-56 346.539,-14.6911 572.792,-10.6926 660.217,-10.7326"/>
<polygon fill="midnightblue" stroke="midnightblue" points="660.401,-14.2329 670.409,-10.7562 660.418,-7.23294 660.401,-14.2329"/>
</g>
<!-- Node5 -->
<g id="node6" class="node"><title>Node5</title>
<polygon fill="white" stroke="#bfbfbf" points="295,-56.5 295,-75.5 339,-75.5 339,-56.5 295,-56.5"/>
<text text-anchor="middle" x="317" y="-63.5" font-family="Helvetica,sans-Serif" font-size="10.00">string</text>
</g>
<!-- Node0&#45;&gt;Node5 -->
<g id="edge5" class="edge"><title>Node0&#45;&gt;Node5</title>
<path fill="none" stroke="midnightblue" d="M396.635,-292.366C384.977,-269.012 352.733,-202.415 334,-144 327.743,-124.489 322.991,-101.472 320.124,-85.7179"/>
<polygon fill="midnightblue" stroke="midnightblue" points="323.54,-84.9343 318.374,-75.6843 316.644,-86.1369 323.54,-84.9343"/>
</g>
<!-- Node6 -->
<g id="node7" class="node"><title>Node6</title>
<g id="a_node7"><a xlink:href="errors_8hpp.html" target="_top" xlink:title="Declarations of the playd Error exception set. ">
<polygon fill="white" stroke="black" points="850.5,-56.5 850.5,-75.5 925.5,-75.5 925.5,-56.5 850.5,-56.5"/>
<text text-anchor="middle" x="888" y="-63.5" font-family="Helvetica,sans-Serif" font-size="10.00">../errors.hpp</text>
</a>
</g>
</g>
<!-- Node0&#45;&gt;Node6 -->
<g id="edge6" class="edge"><title>Node0&#45;&gt;Node6</title>
<path fill="none" stroke="midnightblue" d="M456.295,-300.084C576.941,-297.503 860.175,-288.113 950,-256 991.212,-241.267 1000.98,-231.85 1031,-200 1059.76,-169.487 1090.74,-145.1 1065,-112 1049.22,-91.7123 982.456,-79.0741 935.6,-72.5326"/>
<polygon fill="midnightblue" stroke="midnightblue" points="936.013,-69.0567 925.635,-71.1905 935.078,-75.9941 936.013,-69.0567"/>
</g>
<!-- Node9 -->
<g id="node10" class="node"><title>Node9</title>
<g id="a_node10"><a xlink:href="messages_8h.html" target="_top" xlink:title="Constant human&#45;readable messages used within playd. ">
<polygon fill="white" stroke="black" points="230,-180.5 230,-199.5 314,-199.5 314,-180.5 230,-180.5"/>
<text text-anchor="middle" x="272" y="-187.5" font-family="Helvetica,sans-Serif" font-size="10.00">../messages.h</text>
</a>
</g>
</g>
<!-- Node0&#45;&gt;Node9 -->
<g id="edge9" class="edge"><title>Node0&#45;&gt;Node9</title>
<path fill="none" stroke="midnightblue" d="M383.777,-292.346C368.32,-284.139 345.447,-270.876 328,-256 311.078,-241.572 294.847,-221.865 284.257,-207.944"/>
<polygon fill="midnightblue" stroke="midnightblue" points="286.937,-205.682 278.161,-199.745 281.319,-209.858 286.937,-205.682"/>
</g>
<!-- Node10 -->
<g id="node11" class="node"><title>Node10</title>
<g id="a_node11"><a xlink:href="response_8hpp.html" target="_top" xlink:title="Declaration of classes pertaining to responses to the client. ">
<polygon fill="white" stroke="black" points="414.5,-118.5 414.5,-137.5 505.5,-137.5 505.5,-118.5 414.5,-118.5"/>
<text text-anchor="middle" x="460" y="-125.5" font-family="Helvetica,sans-Serif" font-size="10.00">../response.hpp</text>
</a>
</g>
</g>
<!-- Node0&#45;&gt;Node10 -->
<g id="edge11" class="edge"><title>Node0&#45;&gt;Node10</title>
<path fill="none" stroke="midnightblue" d="M404.007,-292.234C413.2,-265.433 441.073,-184.178 453.683,-147.415"/>
<polygon fill="midnightblue" stroke="midnightblue" points="457.135,-148.139 457.069,-137.544 450.514,-145.868 457.135,-148.139"/>
</g>
<!-- Node15 -->
<g id="node16" class="node"><title>Node15</title>
<g id="a_node16"><a xlink:href="audio_8hpp.html" target="_top" xlink:title="Declaration of the Audio class. ">
<polygon fill="white" stroke="black" points="540,-180.5 540,-199.5 604,-199.5 604,-180.5 540,-180.5"/>
<text text-anchor="middle" x="572" y="-187.5" font-family="Helvetica,sans-Serif" font-size="10.00">audio.hpp</text>
</a>
</g>
</g>
<!-- Node0&#45;&gt;Node15 -->
<g id="edge19" class="edge"><title>Node0&#45;&gt;Node15</title>
<path fill="none" stroke="midnightblue" d="M414.418,-292.368C443.762,-273.492 513.883,-228.385 549.868,-205.237"/>
<polygon fill="midnightblue" stroke="midnightblue" points="552.128,-207.945 558.644,-199.591 548.341,-202.058 552.128,-207.945"/>
</g>
<!-- Node17 -->
<g id="node18" class="node"><title>Node17</title>
<g id="a_node18"><a xlink:href="audio__source_8hpp.html" target="_top" xlink:title="Declaration of the AudioSource class. ">
<polygon fill="white" stroke="black" points="812.5,-118.5 812.5,-137.5 913.5,-137.5 913.5,-118.5 812.5,-118.5"/>
<text text-anchor="middle" x="863" y="-125.5" font-family="Helvetica,sans-Serif" font-size="10.00">audio_source.hpp</text>
</a>
</g>
</g>
<!-- Node0&#45;&gt;Node17 -->
<g id="edge47" class="edge"><title>Node0&#45;&gt;Node17</title>
<path fill="none" stroke="midnightblue" d="M456.021,-301.102C594.086,-300.02 948.955,-288.516 1016,-200 1021.37,-192.914 1021.2,-187.211 1016,-180 1009.24,-170.623 947.537,-152.122 904.587,-140.17"/>
<polygon fill="midnightblue" stroke="midnightblue" points="905.497,-136.79 894.927,-137.503 903.635,-143.538 905.497,-136.79"/>
</g>
<!-- Node18 -->
<g id="node19" class="node"><title>Node18</title>
<g id="a_node19"><a xlink:href="sample__formats_8hpp.html" target="_top" xlink:title="The SampleFormat enumeration and related declarations. ">
<polygon fill="white" stroke="black" points="979,-56.5 979,-75.5 1095,-75.5 1095,-56.5 979,-56.5"/>
<text text-anchor="middle" x="1037" y="-63.5" font-family="Helvetica,sans-Serif" font-size="10.00">sample_formats.hpp</text>
</a>
</g>
</g>
<!-- Node0&#45;&gt;Node18 -->
<g id="edge48" class="edge"><title>Node0&#45;&gt;Node18</title>
<path fill="none" stroke="midnightblue" d="M456.195,-300.908C582.667,-300.033 889.831,-293.938 985,-256 1046.44,-231.507 1067.35,-208.264 1083,-144 1086.37,-130.182 1088.51,-125.11 1083,-112 1077.97,-100.053 1068.06,-89.6922 1058.71,-81.9339"/>
<polygon fill="midnightblue" stroke="midnightblue" points="1060.84,-79.1547 1050.79,-75.8113 1056.56,-84.6944 1060.84,-79.1547"/>
</g>
<!-- Node20 -->
<g id="node21" class="node"><title>Node20</title>
<g id="a_node21"><a xlink:href="audio__sink_8hpp.html" target="_top" xlink:title="Declaration of the AudioSink class. ">
<polygon fill="white" stroke="black" points="721,-236.5 721,-255.5 809,-255.5 809,-236.5 721,-236.5"/>
<text text-anchor="middle" x="765" y="-243.5" font-family="Helvetica,sans-Serif" font-size="10.00">audio_sink.hpp</text>
</a>
</g>
</g>
<!-- Node0&#45;&gt;Node20 -->
<g id="edge34" class="edge"><title>Node0&#45;&gt;Node20</title>
<path fill="none" stroke="midnightblue" d="M456.284,-292.799C525.237,-282.569 642.364,-265.193 710.805,-255.04"/>
<polygon fill="midnightblue" stroke="midnightblue" points="711.569,-258.465 720.947,-253.535 710.542,-251.541 711.569,-258.465"/>
</g>
<!-- Node7 -->
<g id="node8" class="node"><title>Node7</title>
<polygon fill="white" stroke="#bfbfbf" points="820.5,-0.5 820.5,-19.5 879.5,-19.5 879.5,-0.5 820.5,-0.5"/>
<text text-anchor="middle" x="850" y="-7.5" font-family="Helvetica,sans-Serif" font-size="10.00">iostream</text>
</g>
<!-- Node6&#45;&gt;Node7 -->
<g id="edge7" class="edge"><title>Node6&#45;&gt;Node7</title>
<path fill="none" stroke="midnightblue" d="M881.725,-56.083C876.358,-48.4554 868.482,-37.2645 861.921,-27.9408"/>
<polygon fill="midnightblue" stroke="midnightblue" points="864.775,-25.9149 856.158,-19.7511 859.051,-29.9434 864.775,-25.9149"/>
</g>
<!-- Node8 -->
<g id="node9" class="node"><title>Node8</title>
<polygon fill="white" stroke="#bfbfbf" points="898,-0.5 898,-19.5 954,-19.5 954,-0.5 898,-0.5"/>
<text text-anchor="middle" x="926" y="-7.5" font-family="Helvetica,sans-Serif" font-size="10.00">sstream</text>
</g>
<!-- Node6&#45;&gt;Node8 -->
<g id="edge8" class="edge"><title>Node6&#45;&gt;Node8</title>
<path fill="none" stroke="midnightblue" d="M894.275,-56.083C899.642,-48.4554 907.518,-37.2645 914.079,-27.9408"/>
<polygon fill="midnightblue" stroke="midnightblue" points="916.949,-29.9434 919.842,-19.7511 911.225,-25.9149 916.949,-29.9434"/>
</g>
<!-- Node9&#45;&gt;Node5 -->
<g id="edge10" class="edge"><title>Node9&#45;&gt;Node5</title>
<path fill="none" stroke="midnightblue" d="M274.293,-180.325C278.188,-165.93 286.597,-136.288 296,-112 299.502,-102.955 303.981,-93.1696 307.903,-85.041"/>
<polygon fill="midnightblue" stroke="midnightblue" points="311.171,-86.328 312.457,-75.8114 304.893,-83.2308 311.171,-86.328"/>
</g>
<!-- Node10&#45;&gt;Node4 -->
<g id="edge12" class="edge"><title>Node10&#45;&gt;Node4</title>
<path fill="none" stroke="midnightblue" d="M464.762,-118.037C473.315,-102.834 492.766,-72.0818 518,-56 562.115,-27.8852 622.886,-17.3183 660.52,-13.3584"/>
<polygon fill="midnightblue" stroke="midnightblue" points="660.866,-16.8414 670.489,-12.4076 660.201,-9.873 660.866,-16.8414"/>
</g>
<!-- Node10&#45;&gt;Node5 -->
<g id="edge16" class="edge"><title>Node10&#45;&gt;Node5</title>
<path fill="none" stroke="midnightblue" d="M439.512,-118.403C415.194,-108.2 374.451,-91.1055 346.683,-79.4544"/>
<polygon fill="midnightblue" stroke="midnightblue" points="348.026,-76.2223 337.45,-75.5806 345.317,-82.6771 348.026,-76.2223"/>
</g>
<!-- Node10&#45;&gt;Node6 -->
<g id="edge18" class="edge"><title>Node10&#45;&gt;Node6</title>
<path fill="none" stroke="midnightblue" d="M505.803,-120.579C587.471,-109.13 757.424,-85.3051 840.38,-73.6757"/>
<polygon fill="midnightblue" stroke="midnightblue" points="840.876,-77.1404 850.293,-72.286 839.904,-70.2082 840.876,-77.1404"/>
</g>
<!-- Node11 -->
<g id="node12" class="node"><title>Node11</title>
<polygon fill="white" stroke="#bfbfbf" points="433,-56.5 433,-75.5 471,-75.5 471,-56.5 433,-56.5"/>
<text text-anchor="middle" x="452" y="-63.5" font-family="Helvetica,sans-Serif" font-size="10.00">map</text>
</g>
<!-- Node10&#45;&gt;Node11 -->
<g id="edge13" class="edge"><title>Node10&#45;&gt;Node11</title>
<path fill="none" stroke="midnightblue" d="M458.854,-118.403C457.725,-109.938 455.964,-96.7283 454.509,-85.8199"/>
<polygon fill="midnightblue" stroke="midnightblue" points="457.935,-85.0303 453.144,-75.5806 450.997,-85.9555 457.935,-85.0303"/>
</g>
<!-- Node12 -->
<g id="node13" class="node"><title>Node12</title>
<polygon fill="white" stroke="#bfbfbf" points="527.5,-56.5 527.5,-75.5 584.5,-75.5 584.5,-56.5 527.5,-56.5"/>
<text text-anchor="middle" x="556" y="-63.5" font-family="Helvetica,sans-Serif" font-size="10.00">memory</text>
</g>
<!-- Node10&#45;&gt;Node12 -->
<g id="edge14" class="edge"><title>Node10&#45;&gt;Node12</title>
<path fill="none" stroke="midnightblue" d="M473.754,-118.403C489.366,-108.646 515.063,-92.5854 533.583,-81.0109"/>
<polygon fill="midnightblue" stroke="midnightblue" points="535.646,-83.8486 542.271,-75.5806 531.936,-77.9126 535.646,-83.8486"/>
</g>
<!-- Node13 -->
<g id="node14" class="node"><title>Node13</title>
<polygon fill="white" stroke="#bfbfbf" points="357.5,-56.5 357.5,-75.5 414.5,-75.5 414.5,-56.5 357.5,-56.5"/>
<text text-anchor="middle" x="386" y="-63.5" font-family="Helvetica,sans-Serif" font-size="10.00">ostream</text>
</g>
<!-- Node10&#45;&gt;Node13 -->
<g id="edge15" class="edge"><title>Node10&#45;&gt;Node13</title>
<path fill="none" stroke="midnightblue" d="M449.398,-118.403C437.748,-108.958 418.814,-93.6056 404.665,-82.1342"/>
<polygon fill="midnightblue" stroke="midnightblue" points="406.555,-79.16 396.583,-75.5806 402.146,-84.5973 406.555,-79.16"/>
</g>
<!-- Node14 -->
<g id="node15" class="node"><title>Node14</title>
<polygon fill="white" stroke="#bfbfbf" points="671.5,-56.5 671.5,-75.5 718.5,-75.5 718.5,-56.5 671.5,-56.5"/>
<text text-anchor="middle" x="695" y="-63.5" font-family="Helvetica,sans-Serif" font-size="10.00">vector</text>
</g>
<!-- Node10&#45;&gt;Node14 -->
<g id="edge17" class="edge"><title>Node10&#45;&gt;Node14</title>
<path fill="none" stroke="midnightblue" d="M493.67,-118.403C538.412,-106.98 616.991,-86.9172 661.598,-75.5283"/>
<polygon fill="midnightblue" stroke="midnightblue" points="662.548,-78.8981 671.371,-73.0329 660.816,-72.1156 662.548,-78.8981"/>
</g>
<!-- Node15&#45;&gt;Node4 -->
<g id="edge20" class="edge"><title>Node15&#45;&gt;Node4</title>
<path fill="none" stroke="midnightblue" d="M573.469,-180.379C576.275,-165.551 583.367,-134.635 597,-112 618.145,-76.8949 653.653,-44.4327 675.624,-26.2209"/>
<polygon fill="midnightblue" stroke="midnightblue" points="678.037,-28.7701 683.593,-19.7489 673.624,-23.3364 678.037,-28.7701"/>
</g>
<!-- Node15&#45;&gt;Node5 -->
<g id="edge22" class="edge"><title>Node15&#45;&gt;Node5</title>
<path fill="none" stroke="midnightblue" d="M539.942,-184.789C505.093,-179.23 448.559,-167.291 405,-144 389.354,-135.634 354.047,-102.794 333.223,-82.802"/>
<polygon fill="midnightblue" stroke="midnightblue" points="335.399,-80.038 325.775,-75.6071 330.535,-85.0724 335.399,-80.038"/>
</g>
<!-- Node15&#45;&gt;Node10 -->
<g id="edge25" class="edge"><title>Node15&#45;&gt;Node10</title>
<path fill="none" stroke="midnightblue" d="M555.953,-180.403C537.407,-170.468 506.66,-153.997 484.978,-142.381"/>
<polygon fill="midnightblue" stroke="midnightblue" points="486.485,-139.218 476.017,-137.581 483.179,-145.388 486.485,-139.218"/>
</g>
<!-- Node15&#45;&gt;Node12 -->
<g id="edge21" class="edge"><title>Node15&#45;&gt;Node12</title>
<path fill="none" stroke="midnightblue" d="M568.471,-180.211C565.07,-171.265 560.135,-156.916 558,-144 554.768,-124.445 554.608,-101.722 555.046,-86.0547"/>
<polygon fill="midnightblue" stroke="midnightblue" points="558.561,-85.7485 555.457,-75.6185 551.566,-85.4731 558.561,-85.7485"/>
</g>
<!-- Node15&#45;&gt;Node14 -->
<g id="edge24" class="edge"><title>Node15&#45;&gt;Node14</title>
<path fill="none" stroke="midnightblue" d="M577.159,-180.176C586.288,-165.043 606.465,-133.677 629,-112 641.466,-100.009 657.452,-89.02 670.568,-80.9035"/>
<polygon fill="midnightblue" stroke="midnightblue" points="672.749,-83.6764 679.521,-75.5278 669.146,-77.6752 672.749,-83.6764"/>
</g>
<!-- Node16 -->
<g id="node17" class="node"><title>Node16</title>
<polygon fill="white" stroke="#bfbfbf" points="638,-118.5 638,-137.5 680,-137.5 680,-118.5 638,-118.5"/>
<text text-anchor="middle" x="659" y="-125.5" font-family="Helvetica,sans-Serif" font-size="10.00">utility</text>
</g>
<!-- Node15&#45;&gt;Node16 -->
<g id="edge23" class="edge"><title>Node15&#45;&gt;Node16</title>
<path fill="none" stroke="midnightblue" d="M584.465,-180.403C598.419,-170.78 621.265,-155.024 637.991,-143.489"/>
<polygon fill="midnightblue" stroke="midnightblue" points="640.313,-146.139 646.558,-137.581 636.339,-140.377 640.313,-146.139"/>
</g>
<!-- Node15&#45;&gt;Node17 -->
<g id="edge26" class="edge"><title>Node15&#45;&gt;Node17</title>
<path fill="none" stroke="midnightblue" d="M604.254,-182.35C654.473,-171.995 751.796,-151.929 811.717,-139.574"/>
<polygon fill="midnightblue" stroke="midnightblue" points="812.637,-142.958 821.724,-137.51 811.223,-136.102 812.637,-142.958"/>
</g>
<!-- Node17&#45;&gt;Node4 -->
<g id="edge27" class="edge"><title>Node17&#45;&gt;Node4</title>
<path fill="none" stroke="midnightblue" d="M856.75,-118.033C846.141,-103.367 823.286,-74.0784 798,-56 777.033,-41.0095 750.283,-29.5086 729.299,-21.8868"/>
<polygon fill="midnightblue" stroke="midnightblue" points="730.404,-18.5653 719.809,-18.5591 728.087,-25.171 730.404,-18.5653"/>
</g>
<!-- Node17&#45;&gt;Node5 -->
<g id="edge28" class="edge"><title>Node17&#45;&gt;Node5</title>
<path fill="none" stroke="midnightblue" d="M812.123,-122.498C697.249,-112.26 422.663,-87.3569 349.234,-75.7323"/>
<polygon fill="midnightblue" stroke="midnightblue" points="349.685,-72.2581 339.231,-73.9849 348.48,-79.1537 349.685,-72.2581"/>
</g>
<!-- Node17&#45;&gt;Node6 -->
<g id="edge30" class="edge"><title>Node17&#45;&gt;Node6</title>
<path fill="none" stroke="midnightblue" d="M866.582,-118.403C870.183,-109.76 875.846,-96.17 880.444,-85.1341"/>
<polygon fill="midnightblue" stroke="midnightblue" points="883.809,-86.1575 884.425,-75.5806 877.348,-83.4652 883.809,-86.1575"/>
</g>
<!-- Node17&#45;&gt;Node14 -->
<g id="edge29" class="edge"><title>Node17&#45;&gt;Node14</title>
<path fill="none" stroke="midnightblue" d="M838.93,-118.403C809.905,-108.037 760.961,-90.5574 728.32,-78.9002"/>
<polygon fill="midnightblue" stroke="midnightblue" points="729.349,-75.551 718.754,-75.4837 726.994,-82.1432 729.349,-75.551"/>
</g>
<!-- Node17&#45;&gt;Node18 -->
<g id="edge31" class="edge"><title>Node17&#45;&gt;Node18</title>
<path fill="none" stroke="midnightblue" d="M887.93,-118.403C918.036,-108.022 968.832,-90.5062 1002.64,-78.849"/>
<polygon fill="midnightblue" stroke="midnightblue" points="1003.8,-82.1494 1012.12,-75.5806 1001.52,-75.5318 1003.8,-82.1494"/>
</g>
<!-- Node18&#45;&gt;Node4 -->
<g id="edge33" class="edge"><title>Node18&#45;&gt;Node4</title>
<path fill="none" stroke="midnightblue" d="M982.809,-56.4435C911.914,-45.2496 789.709,-25.9541 729.951,-16.5186"/>
<polygon fill="midnightblue" stroke="midnightblue" points="730.311,-13.0321 719.887,-14.9296 729.219,-19.9465 730.311,-13.0321"/>
</g>
<!-- Node19 -->
<g id="node20" class="node"><title>Node19</title>
<polygon fill="white" stroke="#bfbfbf" points="1059.5,-0.5 1059.5,-19.5 1100.5,-19.5 1100.5,-0.5 1059.5,-0.5"/>
<text text-anchor="middle" x="1080" y="-7.5" font-family="Helvetica,sans-Serif" font-size="10.00">array</text>
</g>
<!-- Node18&#45;&gt;Node19 -->
<g id="edge32" class="edge"><title>Node18&#45;&gt;Node19</title>
<path fill="none" stroke="midnightblue" d="M1044.1,-56.083C1050.24,-48.3768 1059.27,-37.0333 1066.74,-27.6531"/>
<polygon fill="midnightblue" stroke="midnightblue" points="1069.54,-29.7542 1073.03,-19.7511 1064.06,-25.3936 1069.54,-29.7542"/>
</g>
<!-- Node20&#45;&gt;Node4 -->
<g id="edge36" class="edge"><title>Node20&#45;&gt;Node4</title>
<path fill="none" stroke="midnightblue" d="M765.629,-236.104C766.345,-223.524 767.055,-199.855 764,-180 755.253,-123.157 752.226,-107.685 727,-56 722.121,-46.0038 715.091,-35.8247 708.862,-27.6819"/>
<polygon fill="midnightblue" stroke="midnightblue" points="711.52,-25.4005 702.557,-19.7504 706.04,-29.7565 711.52,-25.4005"/>
</g>
<!-- Node20&#45;&gt;Node5 -->
<g id="edge38" class="edge"><title>Node20&#45;&gt;Node5</title>
<path fill="none" stroke="midnightblue" d="M720.817,-245.42C640.73,-243.911 469.99,-229.993 363,-144 343.702,-128.489 330.631,-102.542 323.496,-85.1064"/>
<polygon fill="midnightblue" stroke="midnightblue" points="326.668,-83.6023 319.818,-75.5193 320.132,-86.1095 326.668,-83.6023"/>
</g>
<!-- Node20&#45;&gt;Node12 -->
<g id="edge37" class="edge"><title>Node20&#45;&gt;Node12</title>
<path fill="none" stroke="midnightblue" d="M760.353,-236.166C745.427,-207.911 699.034,-121.056 688,-112 661.164,-89.9741 622.978,-78.5044 594.576,-72.6758"/>
<polygon fill="midnightblue" stroke="midnightblue" points="595.072,-69.2074 584.594,-70.7745 593.762,-76.0838 595.072,-69.2074"/>
</g>
<!-- Node20&#45;&gt;Node14 -->
<g id="edge40" class="edge"><title>Node20&#45;&gt;Node14</title>
<path fill="none" stroke="midnightblue" d="M762.934,-236.345C757.626,-214.766 742.482,-157.069 722,-112 717.665,-102.461 711.776,-92.4117 706.604,-84.235"/>
<polygon fill="midnightblue" stroke="midnightblue" points="709.393,-82.1036 700.999,-75.6395 703.53,-85.9276 709.393,-82.1036"/>
</g>
<!-- Node20&#45;&gt;Node15 -->
<g id="edge42" class="edge"><title>Node20&#45;&gt;Node15</title>
<path fill="none" stroke="midnightblue" d="M734.419,-236.444C701.385,-227.201 648.612,-212.436 612.234,-202.257"/>
<polygon fill="midnightblue" stroke="midnightblue" points="613.012,-198.84 602.438,-199.516 611.125,-205.582 613.012,-198.84"/>
</g>
<!-- Node20&#45;&gt;Node16 -->
<g id="edge39" class="edge"><title>Node20&#45;&gt;Node16</title>
<path fill="none" stroke="midnightblue" d="M745.774,-236.465C730.2,-228.766 708.532,-216.175 694,-200 680.253,-184.699 670.617,-163.02 664.984,-147.652"/>
<polygon fill="midnightblue" stroke="midnightblue" points="668.145,-146.08 661.588,-137.757 661.524,-148.352 668.145,-146.08"/>
</g>
<!-- Node20&#45;&gt;Node17 -->
<g id="edge43" class="edge"><title>Node20&#45;&gt;Node17</title>
<path fill="none" stroke="midnightblue" d="M772.366,-236.281C788.692,-216.957 828.135,-170.269 849.199,-145.336"/>
<polygon fill="midnightblue" stroke="midnightblue" points="852.035,-147.402 855.815,-137.505 846.688,-142.885 852.035,-147.402"/>
</g>
<!-- Node20&#45;&gt;Node18 -->
<g id="edge46" class="edge"><title>Node20&#45;&gt;Node18</title>
<path fill="none" stroke="midnightblue" d="M809.232,-245.711C861.824,-244.69 950.682,-236.939 1016,-200 1044.79,-183.72 1053.37,-174.958 1065,-144 1070,-130.687 1068.91,-125.675 1065,-112 1062.1,-101.844 1056.17,-91.747 1050.51,-83.6991"/>
<polygon fill="midnightblue" stroke="midnightblue" points="1053.22,-81.4786 1044.41,-75.5891 1047.62,-85.6853 1053.22,-81.4786"/>
</g>
<!-- Node20&#45;&gt;Node19 -->
<g id="edge35" class="edge"><title>Node20&#45;&gt;Node19</title>
<path fill="none" stroke="midnightblue" d="M809.273,-242.232C877.932,-237.222 1006.13,-224.792 1044,-200 1095.06,-166.569 1093.09,-136.222 1103,-76 1104.44,-67.229 1105.08,-64.642 1103,-56 1100.69,-46.4183 1095.98,-36.5813 1091.42,-28.5579"/>
<polygon fill="midnightblue" stroke="midnightblue" points="1094.29,-26.537 1086.1,-19.8095 1088.31,-30.1727 1094.29,-26.537"/>
</g>
<!-- Node21 -->
<g id="node22" class="node"><title>Node21</title>
<polygon fill="white" stroke="#bfbfbf" points="850.5,-180.5 850.5,-199.5 895.5,-199.5 895.5,-180.5 850.5,-180.5"/>
<text text-anchor="middle" x="873" y="-187.5" font-family="Helvetica,sans-Serif" font-size="10.00">SDL.h</text>
</g>
<!-- Node20&#45;&gt;Node21 -->
<g id="edge41" class="edge"><title>Node20&#45;&gt;Node21</title>
<path fill="none" stroke="midnightblue" d="M782.352,-236.324C799.672,-227.664 826.515,-214.242 846.502,-204.249"/>
<polygon fill="midnightblue" stroke="midnightblue" points="848.312,-207.257 855.691,-199.655 845.181,-200.996 848.312,-207.257"/>
</g>
<!-- Node22 -->
<g id="node23" class="node"><title>Node22</title>
<g id="a_node23"><a xlink:href="ringbuffer_8hpp.html" target="_top" xlink:title="The RingBuffer class template. ">
<polygon fill="white" stroke="black" points="924.5,-180.5 924.5,-199.5 1007.5,-199.5 1007.5,-180.5 924.5,-180.5"/>
<text text-anchor="middle" x="966" y="-187.5" font-family="Helvetica,sans-Serif" font-size="10.00">ringbuffer.hpp</text>
</a>
</g>
</g>
<!-- Node20&#45;&gt;Node22 -->
<g id="edge44" class="edge"><title>Node20&#45;&gt;Node22</title>
<path fill="none" stroke="midnightblue" d="M796.849,-236.444C831.398,-227.162 886.682,-212.309 924.583,-202.127"/>
<polygon fill="midnightblue" stroke="midnightblue" points="925.551,-205.491 934.3,-199.516 923.734,-198.731 925.551,-205.491"/>
</g>
<!-- Node23 -->
<g id="node24" class="node"><title>Node23</title>
<polygon fill="white" stroke="#bfbfbf" points="931.5,-113 931.5,-143 1056.5,-143 1056.5,-113 931.5,-113"/>
<text text-anchor="start" x="939.5" y="-131" font-family="Helvetica,sans-Serif" font-size="10.00">../contrib/pa_ringbuffer</text>
<text text-anchor="middle" x="994" y="-120" font-family="Helvetica,sans-Serif" font-size="10.00">/pa_ringbuffer.h</text>
</g>
<!-- Node22&#45;&gt;Node23 -->
<g id="edge45" class="edge"><title>Node22&#45;&gt;Node23</title>
<path fill="none" stroke="midnightblue" d="M970.012,-180.403C973.414,-173.113 978.459,-162.303 983.045,-152.475"/>
<polygon fill="midnightblue" stroke="midnightblue" points="986.344,-153.683 987.401,-143.141 980,-150.723 986.344,-153.683"/>
</g>
</g>
</svg>
