<?xml version="1.0" encoding="UTF-8" standalone="no"?>
<!DOCTYPE svg PUBLIC "-//W3C//DTD SVG 1.1//EN"
 "http://www.w3.org/Graphics/SVG/1.1/DTD/svg11.dtd">
<!-- Generated by graphviz version 2.36.0 (20140111.2315)
 -->
<!-- Title: src/audio/audio_sink.hpp Pages: 1 -->
<svg width="875pt" height="264pt"
 viewBox="0.00 0.00 874.64 264.00" xmlns="http://www.w3.org/2000/svg" xmlns:xlink="http://www.w3.org/1999/xlink">
<g id="graph0" class="graph" transform="scale(1 1) rotate(0) translate(4 260)">
<title>src/audio/audio_sink.hpp</title>
<polygon fill="white" stroke="none" points="-4,4 -4,-260 870.645,-260 870.645,4 -4,4"/>
<!-- Node0 -->
<g id="node1" class="node"><title>Node0</title>
<polygon fill="#bfbfbf" stroke="black" points="243.645,-236.5 243.645,-255.5 377.645,-255.5 377.645,-236.5 243.645,-236.5"/>
<text text-anchor="middle" x="310.645" y="-243.5" font-family="Helvetica,sans-Serif" font-size="10.00">src/audio/audio_sink.hpp</text>
</g>
<!-- Node1 -->
<g id="node2" class="node"><title>Node1</title>
<polygon fill="white" stroke="#bfbfbf" points="5.14451,-0.5 5.14451,-19.5 46.1445,-19.5 46.1445,-0.5 5.14451,-0.5"/>
<text text-anchor="middle" x="25.6445" y="-7.5" font-family="Helvetica,sans-Serif" font-size="10.00">array</text>
</g>
<!-- Node0&#45;&gt;Node1 -->
<g id="edge1" class="edge"><title>Node0&#45;&gt;Node1</title>
<path fill="none" stroke="midnightblue" d="M243.447,-237.572C185.926,-230.172 108.44,-217.403 82.6445,-200 28.0748,-163.184 20.4251,-139.091 1.64451,-76 -3.27127,-59.4859 4.82701,-41.1031 12.9153,-28.1125"/>
<polygon fill="midnightblue" stroke="midnightblue" points="15.898,-29.9501 18.6168,-19.7101 10.1056,-26.0196 15.898,-29.9501"/>
</g>
<!-- Node2 -->
<g id="node3" class="node"><title>Node2</title>
<polygon fill="white" stroke="#bfbfbf" points="168.145,-0.5 168.145,-19.5 217.145,-19.5 217.145,-0.5 168.145,-0.5"/>
<text text-anchor="middle" x="192.645" y="-7.5" font-family="Helvetica,sans-Serif" font-size="10.00">cstdint</text>
</g>
<!-- Node0&#45;&gt;Node2 -->
<g id="edge2" class="edge"><title>Node0&#45;&gt;Node2</title>
<path fill="none" stroke="midnightblue" d="M270.642,-236.497C246.742,-229.796 216.982,-218.427 195.645,-200 173.949,-181.264 171.002,-171.705 163.645,-144 152.822,-103.247 171.171,-54.697 183.287,-29.013"/>
<polygon fill="midnightblue" stroke="midnightblue" points="186.557,-30.2953 187.847,-19.7793 180.281,-27.1956 186.557,-30.2953"/>
</g>
<!-- Node3 -->
<g id="node4" class="node"><title>Node3</title>
<polygon fill="white" stroke="#bfbfbf" points="321.145,-56.5 321.145,-75.5 378.145,-75.5 378.145,-56.5 321.145,-56.5"/>
<text text-anchor="middle" x="349.645" y="-63.5" font-family="Helvetica,sans-Serif" font-size="10.00">memory</text>
</g>
<!-- Node0&#45;&gt;Node3 -->
<g id="edge3" class="edge"><title>Node0&#45;&gt;Node3</title>
<path fill="none" stroke="midnightblue" d="M312.526,-236.415C318.508,-209.11 337.193,-123.832 345.542,-85.7237"/>
<polygon fill="midnightblue" stroke="midnightblue" points="348.969,-86.4359 347.69,-75.9185 342.131,-84.9376 348.969,-86.4359"/>
</g>
<!-- Node4 -->
<g id="node5" class="node"><title>Node4</title>
<polygon fill="white" stroke="#bfbfbf" points="220.645,-56.5 220.645,-75.5 264.645,-75.5 264.645,-56.5 220.645,-56.5"/>
<text text-anchor="middle" x="242.645" y="-63.5" font-family="Helvetica,sans-Serif" font-size="10.00">string</text>
</g>
<!-- Node0&#45;&gt;Node4 -->
<g id="edge4" class="edge"><title>Node0&#45;&gt;Node4</title>
<path fill="none" stroke="midnightblue" d="M288.155,-236.46C255.491,-222.677 196.155,-192.108 171.645,-144 165.188,-131.328 164.789,-124.461 171.645,-112 180.127,-96.5813 196.371,-85.7037 211.184,-78.5102"/>
<polygon fill="midnightblue" stroke="midnightblue" points="212.907,-81.574 220.615,-74.3044 210.056,-75.1809 212.907,-81.574"/>
</g>
<!-- Node5 -->
<g id="node6" class="node"><title>Node5</title>
<polygon fill="white" stroke="#bfbfbf" points="600.645,-118.5 600.645,-137.5 642.645,-137.5 642.645,-118.5 600.645,-118.5"/>
<text text-anchor="middle" x="621.645" y="-125.5" font-family="Helvetica,sans-Serif" font-size="10.00">utility</text>
</g>
<!-- Node0&#45;&gt;Node5 -->
<g id="edge5" class="edge"><title>Node0&#45;&gt;Node5</title>
<path fill="none" stroke="midnightblue" d="M338.165,-236.437C365.759,-227.724 409.382,-213.603 446.645,-200 509.596,-177.019 524.73,-169.646 586.645,-144 588.477,-143.241 590.36,-142.454 592.258,-141.656"/>
<polygon fill="midnightblue" stroke="midnightblue" points="593.854,-144.781 601.691,-137.651 591.118,-138.337 593.854,-144.781"/>
</g>
<!-- Node6 -->
<g id="node7" class="node"><title>Node6</title>
<polygon fill="white" stroke="#bfbfbf" points="650.145,-56.5 650.145,-75.5 697.145,-75.5 697.145,-56.5 650.145,-56.5"/>
<text text-anchor="middle" x="673.645" y="-63.5" font-family="Helvetica,sans-Serif" font-size="10.00">vector</text>
</g>
<!-- Node0&#45;&gt;Node6 -->
<g id="edge6" class="edge"><title>Node0&#45;&gt;Node6</title>
<path fill="none" stroke="midnightblue" d="M377.785,-243.853C454.544,-238.813 578.82,-218.666 650.645,-144 665.799,-128.246 671.019,-102.933 672.788,-85.6633"/>
<polygon fill="midnightblue" stroke="midnightblue" points="676.281,-85.8864 673.522,-75.6571 669.3,-85.3742 676.281,-85.8864"/>
</g>
<!-- Node7 -->
<g id="node8" class="node"><title>Node7</title>
<polygon fill="white" stroke="#bfbfbf" points="699.145,-180.5 699.145,-199.5 744.145,-199.5 744.145,-180.5 699.145,-180.5"/>
<text text-anchor="middle" x="721.645" y="-187.5" font-family="Helvetica,sans-Serif" font-size="10.00">SDL.h</text>
</g>
<!-- Node0&#45;&gt;Node7 -->
<g id="edge7" class="edge"><title>Node0&#45;&gt;Node7</title>
<path fill="none" stroke="midnightblue" d="M377.888,-239.337C453.034,-232.446 578.142,-219.29 684.645,-200 686.108,-199.735 687.6,-199.447 689.105,-199.142"/>
<polygon fill="midnightblue" stroke="midnightblue" points="690.027,-202.523 699.037,-196.95 688.518,-195.687 690.027,-202.523"/>
</g>
<!-- Node8 -->
<g id="node9" class="node"><title>Node8</title>
<g id="a_node9"><a xlink:href="audio_8hpp.html" target="_top" xlink:title="Declaration of the Audio class. ">
<polygon fill="white" stroke="black" points="373.645,-180.5 373.645,-199.5 437.645,-199.5 437.645,-180.5 373.645,-180.5"/>
<text text-anchor="middle" x="405.645" y="-187.5" font-family="Helvetica,sans-Serif" font-size="10.00">audio.hpp</text>
</a>
</g>
</g>
<!-- Node0&#45;&gt;Node8 -->
<g id="edge8" class="edge"><title>Node0&#45;&gt;Node8</title>
<path fill="none" stroke="midnightblue" d="M325.908,-236.324C340.866,-227.822 363.899,-214.729 381.371,-204.797"/>
<polygon fill="midnightblue" stroke="midnightblue" points="383.455,-207.639 390.419,-199.655 379.996,-201.553 383.455,-207.639"/>
</g>
<!-- Node15 -->
<g id="node16" class="node"><title>Node15</title>
<g id="a_node16"><a xlink:href="audio__source_8hpp.html" target="_top" xlink:title="Declaration of the AudioSource class. ">
<polygon fill="white" stroke="black" points="181.145,-118.5 181.145,-137.5 282.145,-137.5 282.145,-118.5 181.145,-118.5"/>
<text text-anchor="middle" x="231.645" y="-125.5" font-family="Helvetica,sans-Serif" font-size="10.00">audio_source.hpp</text>
</a>
</g>
</g>
<!-- Node0&#45;&gt;Node15 -->
<g id="edge32" class="edge"><title>Node0&#45;&gt;Node15</title>
<path fill="none" stroke="midnightblue" d="M304.707,-236.281C291.661,-217.126 260.304,-171.083 243.218,-145.994"/>
<polygon fill="midnightblue" stroke="midnightblue" points="245.958,-143.8 237.437,-137.505 240.173,-147.74 245.958,-143.8"/>
</g>
<!-- Node16 -->
<g id="node17" class="node"><title>Node16</title>
<g id="a_node17"><a xlink:href="sample__formats_8hpp.html" target="_top" xlink:title="The SampleFormat enumeration and related declarations. ">
<polygon fill="white" stroke="black" points="10.6445,-56.5 10.6445,-75.5 126.645,-75.5 126.645,-56.5 10.6445,-56.5"/>
<text text-anchor="middle" x="68.6445" y="-63.5" font-family="Helvetica,sans-Serif" font-size="10.00">sample_formats.hpp</text>
</a>
</g>
</g>
<!-- Node0&#45;&gt;Node16 -->
<g id="edge35" class="edge"><title>Node0&#45;&gt;Node16</title>
<path fill="none" stroke="midnightblue" d="M243.545,-238.386C190.009,-231.739 120.764,-219.623 100.645,-200 69.5627,-169.686 66.5541,-114.843 67.3742,-85.9629"/>
<polygon fill="midnightblue" stroke="midnightblue" points="70.8863,-85.792 67.8678,-75.6363 63.8943,-85.4577 70.8863,-85.792"/>
</g>
<!-- Node17 -->
<g id="node18" class="node"><title>Node17</title>
<g id="a_node18"><a xlink:href="ringbuffer_8hpp.html" target="_top" xlink:title="The RingBuffer class template. ">
<polygon fill="white" stroke="black" points="762.145,-180.5 762.145,-199.5 845.145,-199.5 845.145,-180.5 762.145,-180.5"/>
<text text-anchor="middle" x="803.645" y="-187.5" font-family="Helvetica,sans-Serif" font-size="10.00">ringbuffer.hpp</text>
</a>
</g>
</g>
<!-- Node0&#45;&gt;Node17 -->
<g id="edge33" class="edge"><title>Node0&#45;&gt;Node17</title>
<path fill="none" stroke="midnightblue" d="M377.847,-239.699C462.605,-232.669 613.026,-219.049 751.953,-199.998"/>
<polygon fill="midnightblue" stroke="midnightblue" points="752.509,-203.454 761.935,-198.617 751.55,-196.52 752.509,-203.454"/>
</g>
<!-- Node8&#45;&gt;Node2 -->
<g id="edge9" class="edge"><title>Node8&#45;&gt;Node2</title>
<path fill="none" stroke="midnightblue" d="M398.616,-180.072C386.838,-165.314 362.095,-135.16 338.645,-112 311.274,-84.9678 304.22,-77.9749 272.645,-56 255.639,-44.165 235.272,-32.7443 219.344,-24.3697"/>
<polygon fill="midnightblue" stroke="midnightblue" points="220.56,-21.0583 210.07,-19.5725 217.344,-27.2758 220.56,-21.0583"/>
</g>
<!-- Node8&#45;&gt;Node3 -->
<g id="edge10" class="edge"><title>Node8&#45;&gt;Node3</title>
<path fill="none" stroke="midnightblue" d="M407.123,-180.373C409.237,-165.537 411.742,-134.608 400.645,-112 394.547,-99.5783 383.345,-89.0994 372.989,-81.3875"/>
<polygon fill="midnightblue" stroke="midnightblue" points="374.831,-78.4055 364.621,-75.5784 370.84,-84.1559 374.831,-78.4055"/>
</g>
<!-- Node8&#45;&gt;Node4 -->
<g id="edge11" class="edge"><title>Node8&#45;&gt;Node4</title>
<path fill="none" stroke="midnightblue" d="M394.183,-180.421C366.776,-159.908 297.173,-107.813 262.667,-81.9858"/>
<polygon fill="midnightblue" stroke="midnightblue" points="264.415,-78.9227 254.312,-75.7326 260.221,-84.5269 264.415,-78.9227"/>
</g>
<!-- Node8&#45;&gt;Node5 -->
<g id="edge12" class="edge"><title>Node8&#45;&gt;Node5</title>
<path fill="none" stroke="midnightblue" d="M437.806,-182.644C474.348,-175.047 535.541,-161.178 586.645,-144 589.057,-143.189 591.536,-142.283 594.006,-141.328"/>
<polygon fill="midnightblue" stroke="midnightblue" points="595.407,-144.536 603.333,-137.506 592.753,-138.059 595.407,-144.536"/>
</g>
<!-- Node8&#45;&gt;Node6 -->
<g id="edge13" class="edge"><title>Node8&#45;&gt;Node6</title>
<path fill="none" stroke="midnightblue" d="M437.731,-182.962C468.493,-176.317 515.596,-163.861 552.645,-144 572.405,-133.407 573.07,-124.558 591.645,-112 609.3,-100.063 630.405,-88.5381 646.781,-80.1402"/>
<polygon fill="midnightblue" stroke="midnightblue" points="648.467,-83.2099 655.816,-75.5776 645.311,-76.9615 648.467,-83.2099"/>
</g>
<!-- Node9 -->
<g id="node10" class="node"><title>Node9</title>
<g id="a_node10"><a xlink:href="response_8hpp.html" target="_top" xlink:title="Declaration of classes pertaining to responses to the client. ">
<polygon fill="white" stroke="black" points="453.145,-118.5 453.145,-137.5 544.145,-137.5 544.145,-118.5 453.145,-118.5"/>
<text text-anchor="middle" x="498.645" y="-125.5" font-family="Helvetica,sans-Serif" font-size="10.00">../response.hpp</text>
</a>
</g>
</g>
<!-- Node8&#45;&gt;Node9 -->
<g id="edge14" class="edge"><title>Node8&#45;&gt;Node9</title>
<path fill="none" stroke="midnightblue" d="M418.969,-180.403C434.024,-170.691 458.76,-154.732 476.681,-143.17"/>
<polygon fill="midnightblue" stroke="midnightblue" points="478.839,-145.943 485.345,-137.581 475.044,-140.061 478.839,-145.943"/>
</g>
<!-- Node8&#45;&gt;Node15 -->
<g id="edge24" class="edge"><title>Node8&#45;&gt;Node15</title>
<path fill="none" stroke="midnightblue" d="M380.715,-180.403C350.609,-170.022 299.812,-152.506 266.006,-140.849"/>
<polygon fill="midnightblue" stroke="midnightblue" points="267.123,-137.532 256.528,-137.581 264.841,-144.149 267.123,-137.532"/>
</g>
<!-- Node9&#45;&gt;Node2 -->
<g id="edge15" class="edge"><title>Node9&#45;&gt;Node2</title>
<path fill="none" stroke="midnightblue" d="M486.125,-118.304C461.496,-101.326 407.35,-64.668 386.645,-56 333.361,-33.694 266.998,-21.3366 227.322,-15.4429"/>
<polygon fill="midnightblue" stroke="midnightblue" points="227.748,-11.9683 217.353,-14.0153 226.756,-18.8977 227.748,-11.9683"/>
</g>
<!-- Node9&#45;&gt;Node3 -->
<g id="edge17" class="edge"><title>Node9&#45;&gt;Node3</title>
<path fill="none" stroke="midnightblue" d="M477.296,-118.403C451.959,-108.2 409.506,-91.1055 380.573,-79.4544"/>
<polygon fill="midnightblue" stroke="midnightblue" points="381.537,-76.0694 370.953,-75.5806 378.922,-82.5627 381.537,-76.0694"/>
</g>
<!-- Node9&#45;&gt;Node4 -->
<g id="edge19" class="edge"><title>Node9&#45;&gt;Node4</title>
<path fill="none" stroke="midnightblue" d="M462.238,-118.467C412.082,-106.712 322.525,-85.722 274.747,-74.524"/>
<polygon fill="midnightblue" stroke="midnightblue" points="275.472,-71.0991 264.937,-72.2248 273.874,-77.9144 275.472,-71.0991"/>
</g>
<!-- Node9&#45;&gt;Node6 -->
<g id="edge20" class="edge"><title>Node9&#45;&gt;Node6</title>
<path fill="none" stroke="midnightblue" d="M523.718,-118.403C554.426,-107.875 606.54,-90.0071 640.523,-78.3558"/>
<polygon fill="midnightblue" stroke="midnightblue" points="641.695,-81.6543 650.019,-75.1001 639.424,-75.0326 641.695,-81.6543"/>
</g>
<!-- Node10 -->
<g id="node11" class="node"><title>Node10</title>
<polygon fill="white" stroke="#bfbfbf" points="518.645,-56.5 518.645,-75.5 556.645,-75.5 556.645,-56.5 518.645,-56.5"/>
<text text-anchor="middle" x="537.645" y="-63.5" font-family="Helvetica,sans-Serif" font-size="10.00">map</text>
</g>
<!-- Node9&#45;&gt;Node10 -->
<g id="edge16" class="edge"><title>Node9&#45;&gt;Node10</title>
<path fill="none" stroke="midnightblue" d="M504.232,-118.403C510.024,-109.493 519.233,-95.3247 526.518,-84.1177"/>
<polygon fill="midnightblue" stroke="midnightblue" points="529.552,-85.8725 532.067,-75.5806 523.683,-82.0576 529.552,-85.8725"/>
</g>
<!-- Node11 -->
<g id="node12" class="node"><title>Node11</title>
<polygon fill="white" stroke="#bfbfbf" points="575.145,-56.5 575.145,-75.5 632.145,-75.5 632.145,-56.5 575.145,-56.5"/>
<text text-anchor="middle" x="603.645" y="-63.5" font-family="Helvetica,sans-Serif" font-size="10.00">ostream</text>
</g>
<!-- Node9&#45;&gt;Node11 -->
<g id="edge18" class="edge"><title>Node9&#45;&gt;Node11</title>
<path fill="none" stroke="midnightblue" d="M513.688,-118.403C530.92,-108.557 559.384,-92.2915 579.678,-80.6949"/>
<polygon fill="midnightblue" stroke="midnightblue" points="581.683,-83.5809 588.628,-75.5806 578.21,-77.5032 581.683,-83.5809"/>
</g>
<!-- Node12 -->
<g id="node13" class="node"><title>Node12</title>
<g id="a_node13"><a xlink:href="errors_8hpp.html" target="_top" xlink:title="Declarations of the playd Error exception set. ">
<polygon fill="white" stroke="black" points="434.645,-56.5 434.645,-75.5 500.645,-75.5 500.645,-56.5 434.645,-56.5"/>
<text text-anchor="middle" x="467.645" y="-63.5" font-family="Helvetica,sans-Serif" font-size="10.00">errors.hpp</text>
</a>
</g>
</g>
<!-- Node9&#45;&gt;Node12 -->
<g id="edge21" class="edge"><title>Node9&#45;&gt;Node12</title>
<path fill="none" stroke="midnightblue" d="M494.203,-118.403C489.691,-109.671 482.571,-95.8893 476.838,-84.7936"/>
<polygon fill="midnightblue" stroke="midnightblue" points="479.778,-82.8583 472.078,-75.5806 473.559,-86.0714 479.778,-82.8583"/>
</g>
<!-- Node13 -->
<g id="node14" class="node"><title>Node13</title>
<polygon fill="white" stroke="#bfbfbf" points="400.145,-0.5 400.145,-19.5 459.145,-19.5 459.145,-0.5 400.145,-0.5"/>
<text text-anchor="middle" x="429.645" y="-7.5" font-family="Helvetica,sans-Serif" font-size="10.00">iostream</text>
</g>
<!-- Node12&#45;&gt;Node13 -->
<g id="edge22" class="edge"><title>Node12&#45;&gt;Node13</title>
<path fill="none" stroke="midnightblue" d="M461.37,-56.083C456.002,-48.4554 448.127,-37.2645 441.566,-27.9408"/>
<polygon fill="midnightblue" stroke="midnightblue" points="444.42,-25.9149 435.803,-19.7511 438.695,-29.9434 444.42,-25.9149"/>
</g>
<!-- Node14 -->
<g id="node15" class="node"><title>Node14</title>
<polygon fill="white" stroke="#bfbfbf" points="477.645,-0.5 477.645,-19.5 533.645,-19.5 533.645,-0.5 477.645,-0.5"/>
<text text-anchor="middle" x="505.645" y="-7.5" font-family="Helvetica,sans-Serif" font-size="10.00">sstream</text>
</g>
<!-- Node12&#45;&gt;Node14 -->
<g id="edge23" class="edge"><title>Node12&#45;&gt;Node14</title>
<path fill="none" stroke="midnightblue" d="M473.919,-56.083C479.287,-48.4554 487.162,-37.2645 493.723,-27.9408"/>
<polygon fill="midnightblue" stroke="midnightblue" points="496.594,-29.9434 499.486,-19.7511 490.869,-25.9149 496.594,-29.9434"/>
</g>
<!-- Node15&#45;&gt;Node2 -->
<g id="edge25" class="edge"><title>Node15&#45;&gt;Node2</title>
<path fill="none" stroke="midnightblue" d="M228.01,-118.424C223.808,-108.359 216.808,-91.1207 211.645,-76 206.361,-60.5277 201.211,-42.6847 197.609,-29.6121"/>
<polygon fill="midnightblue" stroke="midnightblue" points="200.973,-28.6453 194.978,-19.91 194.217,-30.4775 200.973,-28.6453"/>
</g>
<!-- Node15&#45;&gt;Node4 -->
<g id="edge26" class="edge"><title>Node15&#45;&gt;Node4</title>
<path fill="none" stroke="midnightblue" d="M233.221,-118.403C234.789,-109.849 237.245,-96.4497 239.257,-85.4762"/>
<polygon fill="midnightblue" stroke="midnightblue" points="242.711,-86.0478 241.071,-75.5806 235.825,-84.7855 242.711,-86.0478"/>
</g>
<!-- Node15&#45;&gt;Node6 -->
<g id="edge27" class="edge"><title>Node15&#45;&gt;Node6</title>
<path fill="none" stroke="midnightblue" d="M282.386,-123.01C358.164,-116.539 505.466,-101.988 639.881,-75.8781"/>
<polygon fill="midnightblue" stroke="midnightblue" points="640.812,-79.2622 649.947,-73.8961 639.459,-72.394 640.812,-79.2622"/>
</g>
<!-- Node15&#45;&gt;Node12 -->
<g id="edge28" class="edge"><title>Node15&#45;&gt;Node12</title>
<path fill="none" stroke="midnightblue" d="M265.207,-118.467C307.088,-107.819 378.771,-89.5949 424.638,-77.9337"/>
<polygon fill="midnightblue" stroke="midnightblue" points="425.749,-81.2628 434.578,-75.4067 424.024,-74.4786 425.749,-81.2628"/>
</g>
<!-- Node15&#45;&gt;Node16 -->
<g id="edge29" class="edge"><title>Node15&#45;&gt;Node16</title>
<path fill="none" stroke="midnightblue" d="M208.291,-118.403C180.33,-108.111 133.318,-90.8064 101.653,-79.1504"/>
<polygon fill="midnightblue" stroke="midnightblue" points="102.549,-75.7505 91.9551,-75.5806 100.13,-82.3196 102.549,-75.7505"/>
</g>
<!-- Node16&#45;&gt;Node1 -->
<g id="edge30" class="edge"><title>Node16&#45;&gt;Node1</title>
<path fill="none" stroke="midnightblue" d="M61.5439,-56.083C55.4075,-48.3768 46.3748,-37.0333 38.9053,-27.6531"/>
<polygon fill="midnightblue" stroke="midnightblue" points="41.5803,-25.3936 32.613,-19.7511 36.1043,-29.7542 41.5803,-25.3936"/>
</g>
<!-- Node16&#45;&gt;Node2 -->
<g id="edge31" class="edge"><title>Node16&#45;&gt;Node2</title>
<path fill="none" stroke="midnightblue" d="M88.2927,-56.4435C108.609,-47.5961 140.547,-33.6875 163.742,-23.5865"/>
<polygon fill="midnightblue" stroke="midnightblue" points="165.317,-26.7181 173.088,-19.5164 162.522,-20.3002 165.317,-26.7181"/>
</g>
<!-- Node18 -->
<g id="node19" class="node"><title>Node18</title>
<polygon fill="white" stroke="#bfbfbf" points="741.145,-113 741.145,-143 866.145,-143 866.145,-113 741.145,-113"/>
<text text-anchor="start" x="749.145" y="-131" font-family="Helvetica,sans-Serif" font-size="10.00">../contrib/pa_ringbuffer</text>
<text text-anchor="middle" x="803.645" y="-120" font-family="Helvetica,sans-Serif" font-size="10.00">/pa_ringbuffer.h</text>
</g>
<!-- Node17&#45;&gt;Node18 -->
<g id="edge34" class="edge"><title>Node17&#45;&gt;Node18</title>
<path fill="none" stroke="midnightblue" d="M803.645,-180.403C803.645,-173.341 803.645,-162.975 803.645,-153.399"/>
<polygon fill="midnightblue" stroke="midnightblue" points="807.145,-153.141 803.645,-143.141 800.145,-153.141 807.145,-153.141"/>
</g>
</g>
</svg>
