<?xml version="1.0" encoding="UTF-8" standalone="no"?>
<!DOCTYPE svg PUBLIC "-//W3C//DTD SVG 1.1//EN"
 "http://www.w3.org/Graphics/SVG/1.1/DTD/svg11.dtd">
<!-- Generated by graphviz version 2.38.0 (20140413.2041)
 -->
<!-- Title: src/audio/audio_sink.cpp Pages: 1 -->
<svg width="1317pt" height="263pt"
 viewBox="0.00 0.00 1317.00 263.00" xmlns="http://www.w3.org/2000/svg" xmlns:xlink="http://www.w3.org/1999/xlink">
<g id="graph0" class="graph" transform="scale(1 1) rotate(0) translate(4 259)">
<title>src/audio/audio_sink.cpp</title>
<polygon fill="white" stroke="none" points="-4,4 -4,-259 1313,-259 1313,4 -4,4"/>
<!-- Node1 -->
<g id="node1" class="node"><title>Node1</title>
<polygon fill="#bfbfbf" stroke="black" points="453,-235.5 453,-254.5 587,-254.5 587,-235.5 453,-235.5"/>
<text text-anchor="middle" x="520" y="-242.5" font-family="Helvetica,sans-Serif" font-size="10.00">src/audio/audio_sink.cpp</text>
</g>
<!-- Node2 -->
<g id="node2" class="node"><title>Node2</title>
<polygon fill="white" stroke="#bfbfbf" points="0,-179.5 0,-198.5 62,-198.5 62,-179.5 0,-179.5"/>
<text text-anchor="middle" x="31" y="-186.5" font-family="Helvetica,sans-Serif" font-size="10.00">algorithm</text>
</g>
<!-- Node1&#45;&gt;Node2 -->
<g id="edge1" class="edge"><title>Node1&#45;&gt;Node2</title>
<path fill="none" stroke="midnightblue" d="M452.802,-239.217C365.618,-232.549 208.931,-218.982 76,-199 74.897,-198.834 73.78,-198.66 72.6539,-198.478"/>
<polygon fill="midnightblue" stroke="midnightblue" points="72.8573,-194.96 62.4034,-196.682 71.6494,-201.855 72.8573,-194.96"/>
</g>
<!-- Node3 -->
<g id="node3" class="node"><title>Node3</title>
<polygon fill="white" stroke="#bfbfbf" points="118,-62 118,-81 170,-81 170,-62 118,-62"/>
<text text-anchor="middle" x="144" y="-69" font-family="Helvetica,sans-Serif" font-size="10.00">cassert</text>
</g>
<!-- Node1&#45;&gt;Node3 -->
<g id="edge2" class="edge"><title>Node1&#45;&gt;Node3</title>
<path fill="none" stroke="midnightblue" d="M483.459,-235.429C452.594,-227.628 407.549,-214.914 370,-199 291.43,-165.7 205.146,-112.25 165.768,-86.8276"/>
<polygon fill="midnightblue" stroke="midnightblue" points="167.522,-83.7933 157.23,-81.2786 163.707,-89.6626 167.522,-83.7933"/>
</g>
<!-- Node4 -->
<g id="node4" class="node"><title>Node4</title>
<polygon fill="white" stroke="#bfbfbf" points="773.5,-179.5 773.5,-198.5 820.5,-198.5 820.5,-179.5 773.5,-179.5"/>
<text text-anchor="middle" x="797" y="-186.5" font-family="Helvetica,sans-Serif" font-size="10.00">climits</text>
</g>
<!-- Node1&#45;&gt;Node4 -->
<g id="edge3" class="edge"><title>Node1&#45;&gt;Node4</title>
<path fill="none" stroke="midnightblue" d="M573.574,-235.449C620.959,-227.585 692.156,-215.042 763.24,-199.013"/>
<polygon fill="midnightblue" stroke="midnightblue" points="764.294,-202.363 773.267,-196.728 762.739,-195.537 764.294,-202.363"/>
</g>
<!-- Node5 -->
<g id="node5" class="node"><title>Node5</title>
<polygon fill="white" stroke="#bfbfbf" points="838.5,-179.5 838.5,-198.5 887.5,-198.5 887.5,-179.5 838.5,-179.5"/>
<text text-anchor="middle" x="863" y="-186.5" font-family="Helvetica,sans-Serif" font-size="10.00">cstring</text>
</g>
<!-- Node1&#45;&gt;Node5 -->
<g id="edge4" class="edge"><title>Node1&#45;&gt;Node5</title>
<path fill="none" stroke="midnightblue" d="M587.29,-236.447C647.873,-229.137 739.497,-216.818 828.23,-198.949"/>
<polygon fill="midnightblue" stroke="midnightblue" points="829.096,-202.344 838.195,-196.916 827.697,-195.486 829.096,-202.344"/>
</g>
<!-- Node6 -->
<g id="node6" class="node"><title>Node6</title>
<polygon fill="white" stroke="#bfbfbf" points="312,-0.5 312,-19.5 356,-19.5 356,-0.5 312,-0.5"/>
<text text-anchor="middle" x="334" y="-7.5" font-family="Helvetica,sans-Serif" font-size="10.00">string</text>
</g>
<!-- Node1&#45;&gt;Node6 -->
<g id="edge5" class="edge"><title>Node1&#45;&gt;Node6</title>
<path fill="none" stroke="midnightblue" d="M452.931,-241.859C356.051,-234.622 180.718,-204.973 109,-87 65.9132,-16.1241 229.489,-9.70884 301.531,-10.2119"/>
<polygon fill="midnightblue" stroke="midnightblue" points="301.82,-13.7156 311.861,-10.3363 301.904,-6.71607 301.82,-13.7156"/>
</g>
<!-- Node7 -->
<g id="node7" class="node"><title>Node7</title>
<polygon fill="white" stroke="#bfbfbf" points="905.5,-179.5 905.5,-198.5 1072.5,-198.5 1072.5,-179.5 905.5,-179.5"/>
<text text-anchor="middle" x="989" y="-186.5" font-family="Helvetica,sans-Serif" font-size="10.00">portaudiocpp/PortAudioCpp.hxx</text>
</g>
<!-- Node1&#45;&gt;Node7 -->
<g id="edge6" class="edge"><title>Node1&#45;&gt;Node7</title>
<path fill="none" stroke="midnightblue" d="M587.196,-236.263C670.934,-226.622 814.062,-210.142 904.967,-199.675"/>
<polygon fill="midnightblue" stroke="midnightblue" points="905.431,-203.145 914.965,-198.524 904.63,-196.191 905.431,-203.145"/>
</g>
<!-- Node8 -->
<g id="node8" class="node"><title>Node8</title>
<g id="a_node8"><a xlink:href="errors_8hpp.html" target="_top" xlink:title="Declarations of the playd Error exception set. ">
<polygon fill="white" stroke="black" points="509.5,-62 509.5,-81 584.5,-81 584.5,-62 509.5,-62"/>
<text text-anchor="middle" x="547" y="-69" font-family="Helvetica,sans-Serif" font-size="10.00">../errors.hpp</text>
</a>
</g>
</g>
<!-- Node1&#45;&gt;Node8 -->
<g id="edge7" class="edge"><title>Node1&#45;&gt;Node8</title>
<path fill="none" stroke="midnightblue" d="M515.604,-235.462C505.811,-215.222 484.256,-163.025 500,-123 505.466,-109.104 516.755,-96.7661 526.899,-87.7639"/>
<polygon fill="midnightblue" stroke="midnightblue" points="529.219,-90.3868 534.656,-81.2935 524.735,-85.0114 529.219,-90.3868"/>
</g>
<!-- Node11 -->
<g id="node11" class="node"><title>Node11</title>
<g id="a_node11"><a xlink:href="sample__formats_8hpp.html" target="_top" xlink:title="The SampleFormat enumeration. ">
<polygon fill="white" stroke="black" points="882.5,-62 882.5,-81 1007.5,-81 1007.5,-62 882.5,-62"/>
<text text-anchor="middle" x="945" y="-69" font-family="Helvetica,sans-Serif" font-size="10.00">../sample_formats.hpp</text>
</a>
</g>
</g>
<!-- Node1&#45;&gt;Node11 -->
<g id="edge10" class="edge"><title>Node1&#45;&gt;Node11</title>
<path fill="none" stroke="midnightblue" d="M528.813,-235.307C552.193,-212.79 618.624,-152.286 686,-123 763.622,-89.2606 789.958,-103.355 873,-87 879.322,-85.7549 885.953,-84.4365 892.526,-83.122"/>
<polygon fill="midnightblue" stroke="midnightblue" points="893.636,-86.4692 902.752,-81.071 892.259,-79.6058 893.636,-86.4692"/>
</g>
<!-- Node13 -->
<g id="node13" class="node"><title>Node13</title>
<g id="a_node13"><a xlink:href="messages_8h.html" target="_top" xlink:title="Constant human&#45;readable messages used within playd. ">
<polygon fill="white" stroke="black" points="188,-62 188,-81 272,-81 272,-62 188,-62"/>
<text text-anchor="middle" x="230" y="-69" font-family="Helvetica,sans-Serif" font-size="10.00">../messages.h</text>
</a>
</g>
</g>
<!-- Node1&#45;&gt;Node13 -->
<g id="edge12" class="edge"><title>Node1&#45;&gt;Node13</title>
<path fill="none" stroke="midnightblue" d="M497.238,-235.451C457.604,-220.045 374.125,-185.259 311,-143 286.462,-126.573 261.281,-103.486 245.645,-88.2676"/>
<polygon fill="midnightblue" stroke="midnightblue" points="247.967,-85.6415 238.393,-81.1039 243.048,-90.6215 247.967,-85.6415"/>
</g>
<!-- Node14 -->
<g id="node14" class="node"><title>Node14</title>
<g id="a_node14"><a xlink:href="audio__sink_8hpp.html" target="_top" xlink:title="Declaration of the AudioSink class. ">
<polygon fill="white" stroke="black" points="667,-179.5 667,-198.5 755,-198.5 755,-179.5 667,-179.5"/>
<text text-anchor="middle" x="711" y="-186.5" font-family="Helvetica,sans-Serif" font-size="10.00">audio_sink.hpp</text>
</a>
</g>
</g>
<!-- Node1&#45;&gt;Node14 -->
<g id="edge14" class="edge"><title>Node1&#45;&gt;Node14</title>
<path fill="none" stroke="midnightblue" d="M550.265,-235.444C582.955,-226.201 635.182,-211.436 671.183,-201.257"/>
<polygon fill="midnightblue" stroke="midnightblue" points="672.206,-204.605 680.877,-198.516 670.302,-197.869 672.206,-204.605"/>
</g>
<!-- Node21 -->
<g id="node21" class="node"><title>Node21</title>
<g id="a_node21"><a xlink:href="audio__source_8hpp.html" target="_top" xlink:title="Declaration of the AudioSource class. ">
<polygon fill="white" stroke="black" points="509.5,-123.5 509.5,-142.5 610.5,-142.5 610.5,-123.5 509.5,-123.5"/>
<text text-anchor="middle" x="560" y="-130.5" font-family="Helvetica,sans-Serif" font-size="10.00">audio_source.hpp</text>
</a>
</g>
</g>
<!-- Node1&#45;&gt;Node21 -->
<g id="edge38" class="edge"><title>Node1&#45;&gt;Node21</title>
<path fill="none" stroke="midnightblue" d="M523.139,-235.368C529.623,-217.537 544.62,-176.295 553.356,-152.272"/>
<polygon fill="midnightblue" stroke="midnightblue" points="556.748,-153.185 556.876,-142.591 550.169,-150.793 556.748,-153.185"/>
</g>
<!-- Node25 -->
<g id="node25" class="node"><title>Node25</title>
<g id="a_node25"><a xlink:href="ringbuffer_8hpp.html" target="_top" xlink:title="The RingBuffer class template. ">
<polygon fill="white" stroke="black" points="320.5,-123.5 320.5,-142.5 403.5,-142.5 403.5,-123.5 320.5,-123.5"/>
<text text-anchor="middle" x="362" y="-130.5" font-family="Helvetica,sans-Serif" font-size="10.00">ringbuffer.hpp</text>
</a>
</g>
</g>
<!-- Node1&#45;&gt;Node25 -->
<g id="edge39" class="edge"><title>Node1&#45;&gt;Node25</title>
<path fill="none" stroke="midnightblue" d="M507.602,-235.368C480.605,-216.573 416.249,-171.768 382.875,-148.533"/>
<polygon fill="midnightblue" stroke="midnightblue" points="384.547,-145.433 374.34,-142.591 380.548,-151.178 384.547,-145.433"/>
</g>
<!-- Node9 -->
<g id="node9" class="node"><title>Node9</title>
<polygon fill="white" stroke="#bfbfbf" points="479.5,-0.5 479.5,-19.5 538.5,-19.5 538.5,-0.5 479.5,-0.5"/>
<text text-anchor="middle" x="509" y="-7.5" font-family="Helvetica,sans-Serif" font-size="10.00">iostream</text>
</g>
<!-- Node8&#45;&gt;Node9 -->
<g id="edge8" class="edge"><title>Node8&#45;&gt;Node9</title>
<path fill="none" stroke="midnightblue" d="M541.556,-61.9751C535.912,-53.1384 526.939,-39.0886 519.841,-27.975"/>
<polygon fill="midnightblue" stroke="midnightblue" points="522.767,-26.0531 514.434,-19.5091 516.867,-29.8208 522.767,-26.0531"/>
</g>
<!-- Node10 -->
<g id="node10" class="node"><title>Node10</title>
<polygon fill="white" stroke="#bfbfbf" points="557,-0.5 557,-19.5 613,-19.5 613,-0.5 557,-0.5"/>
<text text-anchor="middle" x="585" y="-7.5" font-family="Helvetica,sans-Serif" font-size="10.00">sstream</text>
</g>
<!-- Node8&#45;&gt;Node10 -->
<g id="edge9" class="edge"><title>Node8&#45;&gt;Node10</title>
<path fill="none" stroke="midnightblue" d="M552.444,-61.9751C558.088,-53.1384 567.061,-39.0886 574.159,-27.975"/>
<polygon fill="midnightblue" stroke="midnightblue" points="577.133,-29.8208 579.566,-19.5091 571.233,-26.0531 577.133,-29.8208"/>
</g>
<!-- Node12 -->
<g id="node12" class="node"><title>Node12</title>
<polygon fill="white" stroke="#bfbfbf" points="853.5,-0.5 853.5,-19.5 902.5,-19.5 902.5,-0.5 853.5,-0.5"/>
<text text-anchor="middle" x="878" y="-7.5" font-family="Helvetica,sans-Serif" font-size="10.00">cstdint</text>
</g>
<!-- Node11&#45;&gt;Node12 -->
<g id="edge11" class="edge"><title>Node11&#45;&gt;Node12</title>
<path fill="none" stroke="midnightblue" d="M935.401,-61.9751C924.952,-52.6966 908.032,-37.6706 895.264,-26.331"/>
<polygon fill="midnightblue" stroke="midnightblue" points="897.383,-23.5323 887.582,-19.5091 892.735,-28.7663 897.383,-23.5323"/>
</g>
<!-- Node13&#45;&gt;Node6 -->
<g id="edge13" class="edge"><title>Node13&#45;&gt;Node6</title>
<path fill="none" stroke="midnightblue" d="M244.901,-61.9751C261.968,-52.2106 290.161,-36.0807 310.262,-24.5808"/>
<polygon fill="midnightblue" stroke="midnightblue" points="312.185,-27.513 319.127,-19.5091 308.709,-21.4371 312.185,-27.513"/>
</g>
<!-- Node14&#45;&gt;Node6 -->
<g id="edge17" class="edge"><title>Node14&#45;&gt;Node6</title>
<path fill="none" stroke="midnightblue" d="M666.913,-186.564C622.112,-183.355 552.085,-173.392 500,-143 455.401,-116.976 463.88,-87.5451 423,-56 405.536,-42.5236 383.411,-31.3152 365.59,-23.4553"/>
<polygon fill="midnightblue" stroke="midnightblue" points="366.76,-20.1493 356.189,-19.44 364.01,-26.5867 366.76,-20.1493"/>
</g>
<!-- Node14&#45;&gt;Node12 -->
<g id="edge15" class="edge"><title>Node14&#45;&gt;Node12</title>
<path fill="none" stroke="midnightblue" d="M755.21,-180.242C758.181,-179.798 761.132,-179.379 764,-179 806.046,-173.446 1115.46,-174.372 1144,-143 1215.51,-64.3966 999.422,-26.7965 912.503,-15.1285"/>
<polygon fill="midnightblue" stroke="midnightblue" points="912.94,-11.656 902.571,-13.8331 912.035,-18.5972 912.94,-11.656"/>
</g>
<!-- Node15 -->
<g id="node15" class="node"><title>Node15</title>
<polygon fill="white" stroke="#bfbfbf" points="1191.5,-123.5 1191.5,-142.5 1248.5,-142.5 1248.5,-123.5 1191.5,-123.5"/>
<text text-anchor="middle" x="1220" y="-130.5" font-family="Helvetica,sans-Serif" font-size="10.00">memory</text>
</g>
<!-- Node14&#45;&gt;Node15 -->
<g id="edge16" class="edge"><title>Node14&#45;&gt;Node15</title>
<path fill="none" stroke="midnightblue" d="M755.206,-180.217C758.178,-179.779 761.13,-179.368 764,-179 946.754,-155.557 994.726,-169.921 1177,-143 1178.46,-142.784 1179.95,-142.549 1181.45,-142.3"/>
<polygon fill="midnightblue" stroke="midnightblue" points="1182.2,-145.721 1191.4,-140.482 1180.94,-138.835 1182.2,-145.721"/>
</g>
<!-- Node16 -->
<g id="node16" class="node"><title>Node16</title>
<polygon fill="white" stroke="#bfbfbf" points="1267,-123.5 1267,-142.5 1309,-142.5 1309,-123.5 1267,-123.5"/>
<text text-anchor="middle" x="1288" y="-130.5" font-family="Helvetica,sans-Serif" font-size="10.00">utility</text>
</g>
<!-- Node14&#45;&gt;Node16 -->
<g id="edge18" class="edge"><title>Node14&#45;&gt;Node16</title>
<path fill="none" stroke="midnightblue" d="M755.2,-180.17C758.174,-179.743 761.128,-179.348 764,-179 979.234,-152.943 1039.68,-181.961 1256.72,-142.827"/>
<polygon fill="midnightblue" stroke="midnightblue" points="1257.63,-146.219 1266.84,-140.974 1256.37,-139.333 1257.63,-146.219"/>
</g>
<!-- Node17 -->
<g id="node17" class="node"><title>Node17</title>
<polygon fill="white" stroke="#bfbfbf" points="1025.5,-62 1025.5,-81 1072.5,-81 1072.5,-62 1025.5,-62"/>
<text text-anchor="middle" x="1049" y="-69" font-family="Helvetica,sans-Serif" font-size="10.00">vector</text>
</g>
<!-- Node14&#45;&gt;Node17 -->
<g id="edge19" class="edge"><title>Node14&#45;&gt;Node17</title>
<path fill="none" stroke="midnightblue" d="M704.737,-179.237C695.759,-165.515 681.796,-138.886 696,-123 743.845,-69.4898 947.793,-106.047 1017,-87 1019.15,-86.4083 1021.34,-85.6898 1023.51,-84.8928"/>
<polygon fill="midnightblue" stroke="midnightblue" points="1024.87,-88.1179 1032.76,-81.0463 1022.18,-81.6546 1024.87,-88.1179"/>
</g>
<!-- Node18 -->
<g id="node18" class="node"><title>Node18</title>
<polygon fill="white" stroke="#bfbfbf" points="705.5,-123.5 705.5,-142.5 776.5,-142.5 776.5,-123.5 705.5,-123.5"/>
<text text-anchor="middle" x="741" y="-130.5" font-family="Helvetica,sans-Serif" font-size="10.00">portaudio.h</text>
</g>
<!-- Node14&#45;&gt;Node18 -->
<g id="edge20" class="edge"><title>Node14&#45;&gt;Node18</title>
<path fill="none" stroke="midnightblue" d="M715.954,-179.083C720.104,-171.613 726.153,-160.724 731.267,-151.52"/>
<polygon fill="midnightblue" stroke="midnightblue" points="734.341,-153.192 736.138,-142.751 728.222,-149.793 734.341,-153.192"/>
</g>
<!-- Node19 -->
<g id="node19" class="node"><title>Node19</title>
<polygon fill="white" stroke="#bfbfbf" points="795,-123.5 795,-142.5 979,-142.5 979,-123.5 795,-123.5"/>
<text text-anchor="middle" x="887" y="-130.5" font-family="Helvetica,sans-Serif" font-size="10.00">portaudiocpp/CallbackInterface.hxx</text>
</g>
<!-- Node14&#45;&gt;Node19 -->
<g id="edge21" class="edge"><title>Node14&#45;&gt;Node19</title>
<path fill="none" stroke="midnightblue" d="M738.888,-179.444C768.754,-170.28 816.315,-155.688 849.456,-145.519"/>
<polygon fill="midnightblue" stroke="midnightblue" points="850.709,-148.796 859.243,-142.516 848.656,-142.104 850.709,-148.796"/>
</g>
<!-- Node20 -->
<g id="node20" class="node"><title>Node20</title>
<polygon fill="white" stroke="#bfbfbf" points="997,-123.5 997,-142.5 1135,-142.5 1135,-123.5 997,-123.5"/>
<text text-anchor="middle" x="1066" y="-130.5" font-family="Helvetica,sans-Serif" font-size="10.00">portaudiocpp/Stream.hxx</text>
</g>
<!-- Node14&#45;&gt;Node20 -->
<g id="edge22" class="edge"><title>Node14&#45;&gt;Node20</title>
<path fill="none" stroke="midnightblue" d="M755.235,-180.419C758.2,-179.933 761.143,-179.455 764,-179 843.589,-166.314 935.161,-152.825 996.411,-143.96"/>
<polygon fill="midnightblue" stroke="midnightblue" points="996.955,-147.418 1006.35,-142.524 995.954,-140.49 996.955,-147.418"/>
</g>
<!-- Node14&#45;&gt;Node21 -->
<g id="edge23" class="edge"><title>Node14&#45;&gt;Node21</title>
<path fill="none" stroke="midnightblue" d="M687.074,-179.444C661.781,-170.399 621.698,-156.064 593.32,-145.916"/>
<polygon fill="midnightblue" stroke="midnightblue" points="594.409,-142.588 583.814,-142.516 592.052,-149.179 594.409,-142.588"/>
</g>
<!-- Node14&#45;&gt;Node25 -->
<g id="edge33" class="edge"><title>Node14&#45;&gt;Node25</title>
<path fill="none" stroke="midnightblue" d="M666.799,-181.161C602.247,-171.173 482.427,-152.633 413.817,-142.017"/>
<polygon fill="midnightblue" stroke="midnightblue" points="414.087,-138.518 403.67,-140.447 413.017,-145.435 414.087,-138.518"/>
</g>
<!-- Node21&#45;&gt;Node6 -->
<g id="edge26" class="edge"><title>Node21&#45;&gt;Node6</title>
<path fill="none" stroke="midnightblue" d="M548.461,-123.349C522.61,-103.988 461.918,-58.6435 457,-56 427.603,-40.1985 391.482,-27.7238 366.011,-19.9554"/>
<polygon fill="midnightblue" stroke="midnightblue" points="366.717,-16.5141 356.134,-17.0161 364.721,-23.2233 366.717,-16.5141"/>
</g>
<!-- Node21&#45;&gt;Node8 -->
<g id="edge29" class="edge"><title>Node21&#45;&gt;Node8</title>
<path fill="none" stroke="midnightblue" d="M558.137,-123.475C556.284,-114.992 553.381,-101.704 551.003,-90.8222"/>
<polygon fill="midnightblue" stroke="midnightblue" points="554.413,-90.0315 548.859,-81.0091 547.574,-91.5257 554.413,-90.0315"/>
</g>
<!-- Node21&#45;&gt;Node11 -->
<g id="edge30" class="edge"><title>Node21&#45;&gt;Node11</title>
<path fill="none" stroke="midnightblue" d="M610.775,-124.859C692.769,-113.304 847.742,-91.3555 873,-87 880.084,-85.7785 887.539,-84.3918 894.859,-82.9719"/>
<polygon fill="midnightblue" stroke="midnightblue" points="895.577,-86.3979 904.709,-81.0275 894.221,-79.5304 895.577,-86.3979"/>
</g>
<!-- Node21&#45;&gt;Node12 -->
<g id="edge25" class="edge"><title>Node21&#45;&gt;Node12</title>
<path fill="none" stroke="midnightblue" d="M606.01,-123.489C637.381,-116.503 679.201,-104.819 713,-87 732.281,-76.8352 732.003,-66.6861 751,-56 780.337,-39.497 816.82,-27.3285 843.146,-19.836"/>
<polygon fill="midnightblue" stroke="midnightblue" points="844.345,-23.136 853.053,-17.1003 842.482,-16.3886 844.345,-23.136"/>
</g>
<!-- Node21&#45;&gt;Node17 -->
<g id="edge27" class="edge"><title>Node21&#45;&gt;Node17</title>
<path fill="none" stroke="midnightblue" d="M610.681,-127.457C725.611,-117.092 997.604,-92.1972 1017,-87 1019.15,-86.4228 1021.35,-85.7147 1023.52,-84.9249"/>
<polygon fill="midnightblue" stroke="midnightblue" points="1024.87,-88.1525 1032.77,-81.0915 1022.19,-81.6856 1024.87,-88.1525"/>
</g>
<!-- Node22 -->
<g id="node22" class="node"><title>Node22</title>
<polygon fill="white" stroke="#bfbfbf" points="602.5,-62 602.5,-81 643.5,-81 643.5,-62 602.5,-62"/>
<text text-anchor="middle" x="623" y="-69" font-family="Helvetica,sans-Serif" font-size="10.00">array</text>
</g>
<!-- Node21&#45;&gt;Node22 -->
<g id="edge24" class="edge"><title>Node21&#45;&gt;Node22</title>
<path fill="none" stroke="midnightblue" d="M569.026,-123.475C578.757,-114.285 594.458,-99.4563 606.423,-88.156"/>
<polygon fill="midnightblue" stroke="midnightblue" points="609.123,-90.4199 613.99,-81.0091 604.317,-85.3308 609.123,-90.4199"/>
</g>
<!-- Node23 -->
<g id="node23" class="node"><title>Node23</title>
<polygon fill="white" stroke="#bfbfbf" points="662,-62 662,-81 704,-81 704,-62 662,-62"/>
<text text-anchor="middle" x="683" y="-69" font-family="Helvetica,sans-Serif" font-size="10.00">sox.h</text>
</g>
<!-- Node21&#45;&gt;Node23 -->
<g id="edge28" class="edge"><title>Node21&#45;&gt;Node23</title>
<path fill="none" stroke="midnightblue" d="M577.623,-123.475C598.174,-113.534 632.364,-96.9947 656.207,-85.461"/>
<polygon fill="midnightblue" stroke="midnightblue" points="657.932,-88.5145 665.41,-81.0091 654.884,-82.2131 657.932,-88.5145"/>
</g>
<!-- Node24 -->
<g id="node24" class="node"><title>Node24</title>
<g id="a_node24"><a xlink:href="time__parser_8hpp.html" target="_top" xlink:title="Declaration of the TimeParser class. ">
<polygon fill="white" stroke="black" points="760,-62 760,-81 864,-81 864,-62 760,-62"/>
<text text-anchor="middle" x="812" y="-69" font-family="Helvetica,sans-Serif" font-size="10.00">../time_parser.hpp</text>
</a>
</g>
</g>
<!-- Node21&#45;&gt;Node24 -->
<g id="edge31" class="edge"><title>Node21&#45;&gt;Node24</title>
<path fill="none" stroke="midnightblue" d="M596.105,-123.475C640.829,-112.915 717.083,-94.911 765.967,-83.3689"/>
<polygon fill="midnightblue" stroke="midnightblue" points="767.033,-86.7134 775.962,-81.0091 765.425,-79.9007 767.033,-86.7134"/>
</g>
<!-- Node24&#45;&gt;Node12 -->
<g id="edge32" class="edge"><title>Node24&#45;&gt;Node12</title>
<path fill="none" stroke="midnightblue" d="M821.456,-61.9751C831.748,-52.6966 848.416,-37.6706 860.994,-26.331"/>
<polygon fill="midnightblue" stroke="midnightblue" points="863.478,-28.8046 868.561,-19.5091 858.79,-23.6054 863.478,-28.8046"/>
</g>
<!-- Node25&#45;&gt;Node3 -->
<g id="edge34" class="edge"><title>Node25&#45;&gt;Node3</title>
<path fill="none" stroke="midnightblue" d="M320.431,-123.662C283.007,-115.713 226.72,-102.652 179,-87 176.867,-86.3005 174.681,-85.5298 172.494,-84.7194"/>
<polygon fill="midnightblue" stroke="midnightblue" points="173.646,-81.4115 163.059,-81.0092 171.084,-87.9259 173.646,-81.4115"/>
</g>
<!-- Node25&#45;&gt;Node8 -->
<g id="edge36" class="edge"><title>Node25&#45;&gt;Node8</title>
<path fill="none" stroke="midnightblue" d="M388.506,-123.475C420.652,-113.136 474.987,-95.6611 510.927,-84.1017"/>
<polygon fill="midnightblue" stroke="midnightblue" points="512.095,-87.4028 520.543,-81.0091 509.952,-80.739 512.095,-87.4028"/>
</g>
<!-- Node25&#45;&gt;Node13 -->
<g id="edge37" class="edge"><title>Node25&#45;&gt;Node13</title>
<path fill="none" stroke="midnightblue" d="M343.088,-123.475C320.837,-113.445 283.688,-96.7002 258.074,-85.1546"/>
<polygon fill="midnightblue" stroke="midnightblue" points="259.432,-81.9277 248.877,-81.0091 256.556,-88.3094 259.432,-81.9277"/>
</g>
<!-- Node26 -->
<g id="node26" class="node"><title>Node26</title>
<polygon fill="white" stroke="#bfbfbf" points="289.5,-56.5 289.5,-86.5 414.5,-86.5 414.5,-56.5 289.5,-56.5"/>
<text text-anchor="start" x="297.5" y="-74.5" font-family="Helvetica,sans-Serif" font-size="10.00">../contrib/pa_ringbuffer</text>
<text text-anchor="middle" x="352" y="-63.5" font-family="Helvetica,sans-Serif" font-size="10.00">/pa_ringbuffer.h</text>
</g>
<!-- Node25&#45;&gt;Node26 -->
<g id="edge35" class="edge"><title>Node25&#45;&gt;Node26</title>
<path fill="none" stroke="midnightblue" d="M360.567,-123.475C359.377,-116.396 357.625,-105.97 356.015,-96.3896"/>
<polygon fill="midnightblue" stroke="midnightblue" points="359.466,-95.8045 354.357,-86.523 352.563,-96.9648 359.466,-95.8045"/>
</g>
</g>
</svg>
