<?xml version="1.0" encoding="UTF-8" standalone="no"?>
<!DOCTYPE svg PUBLIC "-//W3C//DTD SVG 1.1//EN"
 "http://www.w3.org/Graphics/SVG/1.1/DTD/svg11.dtd">
<!-- Generated by graphviz version 2.36.0 (20140111.2315)
 -->
<!-- Title: src/audio/audio_source.cpp Pages: 1 -->
<svg width="420pt" height="196pt"
 viewBox="0.00 0.00 420.00 196.00" xmlns="http://www.w3.org/2000/svg" xmlns:xlink="http://www.w3.org/1999/xlink">
<g id="graph0" class="graph" transform="scale(1 1) rotate(0) translate(4 192)">
<title>src/audio/audio_source.cpp</title>
<polygon fill="white" stroke="none" points="-4,4 -4,-192 416,-192 416,4 -4,4"/>
<!-- Node0 -->
<g id="node1" class="node"><title>Node0</title>
<polygon fill="#bfbfbf" stroke="black" points="112.5,-168.5 112.5,-187.5 259.5,-187.5 259.5,-168.5 112.5,-168.5"/>
<text text-anchor="middle" x="186" y="-175.5" font-family="Helvetica,sans-Serif" font-size="10.00">src/audio/audio_source.cpp</text>
</g>
<!-- Node1 -->
<g id="node2" class="node"><title>Node1</title>
<polygon fill="white" stroke="#bfbfbf" points="119.5,-0.5 119.5,-19.5 168.5,-19.5 168.5,-0.5 119.5,-0.5"/>
<text text-anchor="middle" x="144" y="-7.5" font-family="Helvetica,sans-Serif" font-size="10.00">cstdint</text>
</g>
<!-- Node0&#45;&gt;Node1 -->
<g id="edge1" class="edge"><title>Node0&#45;&gt;Node1</title>
<path fill="none" stroke="midnightblue" d="M181.919,-168.207C177.901,-159.259 171.826,-144.908 168,-132 157.487,-96.5321 150.235,-53.8389 146.629,-29.8187"/>
<polygon fill="midnightblue" stroke="midnightblue" points="150.052,-29.0348 145.153,-19.6404 143.124,-30.0391 150.052,-29.0348"/>
</g>
<!-- Node2 -->
<g id="node3" class="node"><title>Node2</title>
<polygon fill="white" stroke="#bfbfbf" points="368,-56.5 368,-75.5 412,-75.5 412,-56.5 368,-56.5"/>
<text text-anchor="middle" x="390" y="-63.5" font-family="Helvetica,sans-Serif" font-size="10.00">string</text>
</g>
<!-- Node0&#45;&gt;Node2 -->
<g id="edge2" class="edge"><title>Node0&#45;&gt;Node2</title>
<path fill="none" stroke="midnightblue" d="M207.708,-168.392C228.457,-159.917 260.423,-146.212 287,-132 316.429,-116.263 348.721,-95.2243 369.16,-81.4025"/>
<polygon fill="midnightblue" stroke="midnightblue" points="371.373,-84.1298 377.663,-75.6048 367.429,-78.3461 371.373,-84.1298"/>
</g>
<!-- Node3 -->
<g id="node4" class="node"><title>Node3</title>
<g id="a_node4"><a xlink:href="audio__source_8hpp.html" target="_top" xlink:title="Declaration of the AudioSource class. ">
<polygon fill="white" stroke="black" points="177.5,-112.5 177.5,-131.5 278.5,-131.5 278.5,-112.5 177.5,-112.5"/>
<text text-anchor="middle" x="228" y="-119.5" font-family="Helvetica,sans-Serif" font-size="10.00">audio_source.hpp</text>
</a>
</g>
</g>
<!-- Node0&#45;&gt;Node3 -->
<g id="edge3" class="edge"><title>Node0&#45;&gt;Node3</title>
<path fill="none" stroke="midnightblue" d="M192.935,-168.083C198.929,-160.377 207.752,-149.033 215.048,-139.653"/>
<polygon fill="midnightblue" stroke="midnightblue" points="217.817,-141.793 221.194,-131.751 212.291,-137.496 217.817,-141.793"/>
</g>
<!-- Node8 -->
<g id="node9" class="node"><title>Node8</title>
<g id="a_node9"><a xlink:href="sample__formats_8hpp.html" target="_top" xlink:title="The SampleFormat enumeration and related declarations. ">
<polygon fill="white" stroke="black" points="0,-56.5 0,-75.5 116,-75.5 116,-56.5 0,-56.5"/>
<text text-anchor="middle" x="58" y="-63.5" font-family="Helvetica,sans-Serif" font-size="10.00">sample_formats.hpp</text>
</a>
</g>
</g>
<!-- Node0&#45;&gt;Node8 -->
<g id="edge13" class="edge"><title>Node0&#45;&gt;Node8</title>
<path fill="none" stroke="midnightblue" d="M174.69,-168.221C163.268,-159.284 145.19,-144.941 130,-132 110.712,-115.567 89.2235,-95.996 74.7851,-82.6529"/>
<polygon fill="midnightblue" stroke="midnightblue" points="76.8801,-79.8223 67.1685,-75.5871 72.1194,-84.9541 76.8801,-79.8223"/>
</g>
<!-- Node3&#45;&gt;Node1 -->
<g id="edge4" class="edge"><title>Node3&#45;&gt;Node1</title>
<path fill="none" stroke="midnightblue" d="M221.409,-112.368C207.485,-94.135 174.871,-51.4257 156.734,-27.6752"/>
<polygon fill="midnightblue" stroke="midnightblue" points="159.412,-25.4149 150.561,-19.5914 153.848,-29.6633 159.412,-25.4149"/>
</g>
<!-- Node3&#45;&gt;Node2 -->
<g id="edge5" class="edge"><title>Node3&#45;&gt;Node2</title>
<path fill="none" stroke="midnightblue" d="M253.669,-112.444C281.965,-103.012 327.515,-87.8282 358.088,-77.6375"/>
<polygon fill="midnightblue" stroke="midnightblue" points="359.455,-80.8711 367.835,-74.3884 357.241,-74.2304 359.455,-80.8711"/>
</g>
<!-- Node4 -->
<g id="node5" class="node"><title>Node4</title>
<polygon fill="white" stroke="#bfbfbf" points="210.5,-56.5 210.5,-75.5 257.5,-75.5 257.5,-56.5 210.5,-56.5"/>
<text text-anchor="middle" x="234" y="-63.5" font-family="Helvetica,sans-Serif" font-size="10.00">vector</text>
</g>
<!-- Node3&#45;&gt;Node4 -->
<g id="edge6" class="edge"><title>Node3&#45;&gt;Node4</title>
<path fill="none" stroke="midnightblue" d="M228.991,-112.083C229.786,-104.927 230.929,-94.6353 231.923,-85.6911"/>
<polygon fill="midnightblue" stroke="midnightblue" points="235.402,-86.0765 233.028,-75.7511 228.445,-85.3034 235.402,-86.0765"/>
</g>
<!-- Node5 -->
<g id="node6" class="node"><title>Node5</title>
<g id="a_node6"><a xlink:href="errors_8hpp.html" target="_top" xlink:title="Declarations of the playd Error exception set. ">
<polygon fill="white" stroke="black" points="275.5,-56.5 275.5,-75.5 350.5,-75.5 350.5,-56.5 275.5,-56.5"/>
<text text-anchor="middle" x="313" y="-63.5" font-family="Helvetica,sans-Serif" font-size="10.00">../errors.hpp</text>
</a>
</g>
</g>
<!-- Node3&#45;&gt;Node5 -->
<g id="edge7" class="edge"><title>Node3&#45;&gt;Node5</title>
<path fill="none" stroke="midnightblue" d="M241.657,-112.324C254.916,-103.9 275.268,-90.9709 290.846,-81.0741"/>
<polygon fill="midnightblue" stroke="midnightblue" points="292.813,-83.9711 299.377,-75.6545 289.06,-78.0626 292.813,-83.9711"/>
</g>
<!-- Node3&#45;&gt;Node8 -->
<g id="edge10" class="edge"><title>Node3&#45;&gt;Node8</title>
<path fill="none" stroke="midnightblue" d="M201.063,-112.444C172.34,-103.32 126.671,-88.8133 94.6788,-78.6509"/>
<polygon fill="midnightblue" stroke="midnightblue" points="95.4013,-75.2081 84.811,-75.5164 93.2821,-81.8797 95.4013,-75.2081"/>
</g>
<!-- Node6 -->
<g id="node7" class="node"><title>Node6</title>
<polygon fill="white" stroke="#bfbfbf" points="245.5,-0.5 245.5,-19.5 304.5,-19.5 304.5,-0.5 245.5,-0.5"/>
<text text-anchor="middle" x="275" y="-7.5" font-family="Helvetica,sans-Serif" font-size="10.00">iostream</text>
</g>
<!-- Node5&#45;&gt;Node6 -->
<g id="edge8" class="edge"><title>Node5&#45;&gt;Node6</title>
<path fill="none" stroke="midnightblue" d="M306.725,-56.083C301.358,-48.4554 293.482,-37.2645 286.921,-27.9408"/>
<polygon fill="midnightblue" stroke="midnightblue" points="289.775,-25.9149 281.158,-19.7511 284.051,-29.9434 289.775,-25.9149"/>
</g>
<!-- Node7 -->
<g id="node8" class="node"><title>Node7</title>
<polygon fill="white" stroke="#bfbfbf" points="323,-0.5 323,-19.5 379,-19.5 379,-0.5 323,-0.5"/>
<text text-anchor="middle" x="351" y="-7.5" font-family="Helvetica,sans-Serif" font-size="10.00">sstream</text>
</g>
<!-- Node5&#45;&gt;Node7 -->
<g id="edge9" class="edge"><title>Node5&#45;&gt;Node7</title>
<path fill="none" stroke="midnightblue" d="M319.275,-56.083C324.642,-48.4554 332.518,-37.2645 339.079,-27.9408"/>
<polygon fill="midnightblue" stroke="midnightblue" points="341.949,-29.9434 344.842,-19.7511 336.225,-25.9149 341.949,-29.9434"/>
</g>
<!-- Node8&#45;&gt;Node1 -->
<g id="edge12" class="edge"><title>Node8&#45;&gt;Node1</title>
<path fill="none" stroke="midnightblue" d="M71.8174,-56.324C85.233,-47.9002 105.824,-34.9709 121.586,-25.0741"/>
<polygon fill="midnightblue" stroke="midnightblue" points="123.609,-27.9364 130.217,-19.6545 119.887,-22.0081 123.609,-27.9364"/>
</g>
<!-- Node9 -->
<g id="node10" class="node"><title>Node9</title>
<polygon fill="white" stroke="#bfbfbf" points="37.5,-0.5 37.5,-19.5 78.5,-19.5 78.5,-0.5 37.5,-0.5"/>
<text text-anchor="middle" x="58" y="-7.5" font-family="Helvetica,sans-Serif" font-size="10.00">array</text>
</g>
<!-- Node8&#45;&gt;Node9 -->
<g id="edge11" class="edge"><title>Node8&#45;&gt;Node9</title>
<path fill="none" stroke="midnightblue" d="M58,-56.083C58,-49.0059 58,-38.8611 58,-29.9865"/>
<polygon fill="midnightblue" stroke="midnightblue" points="61.5001,-29.751 58,-19.7511 54.5001,-29.7511 61.5001,-29.751"/>
</g>
</g>
</svg>
