<?xml version="1.0" encoding="UTF-8" standalone="no"?>
<!DOCTYPE svg PUBLIC "-//W3C//DTD SVG 1.1//EN"
 "http://www.w3.org/Graphics/SVG/1.1/DTD/svg11.dtd">
<!-- Generated by graphviz version 2.38.0 (20140413.2041)
 -->
<!-- Title: src/audio/audio_sink.hpp Pages: 1 -->
<!--zoomable 207 -->
<svg id="main" version="1.1" xmlns="http://www.w3.org/2000/svg" xmlns:xlink="http://www.w3.org/1999/xlink" xml:space="preserve" onload="init(evt)">
<style type="text/css"><![CDATA[
.edge:hover path { stroke: red; }
.edge:hover polygon { stroke: red; fill: red; }
]]></style>
<script type="text/javascript"><![CDATA[
var edges = document.getElementsByTagName('g');
if (edges && edges.length) {
  for (var i=0;i<edges.length;i++) {
    if (edges[i].id.substr(0,4)=='edge') {
      edges[i].setAttribute('class','edge');
    }
  }
}
]]></script>
        <defs>
                <circle id="rim" cx="0" cy="0" r="7"/>
                <circle id="rim2" cx="0" cy="0" r="3.5"/>
                <g id="zoomPlus">
                        <use xlink:href="#rim" fill="#404040">
                                <set attributeName="fill" to="#808080" begin="zoomplus.mouseover" end="zoomplus.mouseout"/>
                        </use>
                        <path d="M-4,0h8M0,-4v8" fill="none" stroke="white" stroke-width="1.5" pointer-events="none"/>
                </g>
                <g id="zoomMin">
                        <use xlink:href="#rim" fill="#404040">
                                <set attributeName="fill" to="#808080" begin="zoomminus.mouseover" end="zoomminus.mouseout"/>
                        </use>
                        <path d="M-4,0h8" fill="none" stroke="white" stroke-width="1.5" pointer-events="none"/>
                </g>
                <g id="dirArrow">
                        <path fill="none" stroke="white" stroke-width="1.5" d="M0,-3.0v7 M-2.5,-0.5L0,-3.0L2.5,-0.5"/>
                </g>
               <g id="resetDef">
                       <use xlink:href="#rim2" fill="#404040">
                               <set attributeName="fill" to="#808080" begin="reset.mouseover" end="reset.mouseout"/>
                       </use>
               </g>
        </defs>

<script type="text/javascript">
var viewWidth = 1080;
var viewHeight = 207;
var sectionId = 'dynsection-0';
</script>
<script xlink:href="svgpan.js"/>
<svg id="graph" class="graph">
<g id="viewport">
<title>src/audio/audio_sink.hpp</title>
<polygon fill="white" stroke="none" points="-4,4 -4,-203 1076.02,-203 1076.02,4 -4,4"/>
<!-- Node1 -->
<g id="node1" class="node"><title>Node1</title>
<polygon fill="#bfbfbf" stroke="black" points="222.024,-179.5 222.024,-198.5 355.024,-198.5 355.024,-179.5 222.024,-179.5"/>
<text text-anchor="middle" x="288.524" y="-186.5" font-family="Helvetica,sans-Serif" font-size="10.00">src/audio/audio_sink.hpp</text>
</g>
<!-- Node2 -->
<g id="node2" class="node"><title>Node2</title>
<polygon fill="white" stroke="#bfbfbf" points="129.024,-0.5 129.024,-19.5 176.024,-19.5 176.024,-0.5 129.024,-0.5"/>
<text text-anchor="middle" x="152.524" y="-7.5" font-family="Helvetica,sans-Serif" font-size="10.00">cstdint</text>
</g>
<!-- Node1&#45;&gt;Node2 -->
<g id="edge1" class="edge"><title>Node1&#45;&gt;Node2</title>
<path fill="none" stroke="midnightblue" d="M221.996,-186.79C148.55,-183.881 37.1436,-174.275 10.5243,-143 -30.7571,-94.4991 66.5688,-45.5797 120.152,-23.3587"/>
<polygon fill="midnightblue" stroke="midnightblue" points="121.653,-26.5271 129.605,-19.5264 119.023,-20.04 121.653,-26.5271"/>
</g>
<!-- Node3 -->
<g id="node3" class="node"><title>Node3</title>
<polygon fill="white" stroke="#bfbfbf" points="19.5243,-123.5 19.5243,-142.5 73.5243,-142.5 73.5243,-123.5 19.5243,-123.5"/>
<text text-anchor="middle" x="46.5243" y="-130.5" font-family="Helvetica,sans-Serif" font-size="10.00">memory</text>
</g>
<!-- Node1&#45;&gt;Node3 -->
<g id="edge2" class="edge"><title>Node1&#45;&gt;Node3</title>
<path fill="none" stroke="midnightblue" d="M250.179,-179.444C204.554,-169.263 128.896,-152.38 83.7632,-142.309"/>
<polygon fill="midnightblue" stroke="midnightblue" points="84.3229,-138.848 73.8006,-140.086 82.7983,-145.68 84.3229,-138.848"/>
</g>
<!-- Node4 -->
<g id="node4" class="node"><title>Node4</title>
<polygon fill="white" stroke="#bfbfbf" points="734.024,-0.5 734.024,-19.5 777.024,-19.5 777.024,-0.5 734.024,-0.5"/>
<text text-anchor="middle" x="755.524" y="-7.5" font-family="Helvetica,sans-Serif" font-size="10.00">string</text>
</g>
<!-- Node1&#45;&gt;Node4 -->
<g id="edge3" class="edge"><title>Node1&#45;&gt;Node4</title>
<path fill="none" stroke="midnightblue" d="M355.29,-185.764C473.456,-181.162 709.572,-168.822 736.524,-143 767.224,-113.589 763.658,-58.4562 759.188,-29.6335"/>
<polygon fill="midnightblue" stroke="midnightblue" points="762.615,-28.9119 757.438,-19.6679 755.721,-30.1225 762.615,-28.9119"/>
</g>
<!-- Node5 -->
<g id="node5" class="node"><title>Node5</title>
<polygon fill="white" stroke="#bfbfbf" points="129.524,-123.5 129.524,-142.5 169.524,-142.5 169.524,-123.5 129.524,-123.5"/>
<text text-anchor="middle" x="149.524" y="-130.5" font-family="Helvetica,sans-Serif" font-size="10.00">utility</text>
</g>
<!-- Node1&#45;&gt;Node5 -->
<g id="edge4" class="edge"><title>Node1&#45;&gt;Node5</title>
<path fill="none" stroke="midnightblue" d="M266.499,-179.444C242.877,-170.267 205.239,-155.645 179.06,-145.474"/>
<polygon fill="midnightblue" stroke="midnightblue" points="180.23,-142.174 169.641,-141.815 177.695,-148.699 180.23,-142.174"/>
</g>
<!-- Node6 -->
<g id="node6" class="node"><title>Node6</title>
<polygon fill="white" stroke="#bfbfbf" points="78.5243,-62 78.5243,-81 124.524,-81 124.524,-62 78.5243,-62"/>
<text text-anchor="middle" x="101.524" y="-69" font-family="Helvetica,sans-Serif" font-size="10.00">vector</text>
</g>
<!-- Node1&#45;&gt;Node6 -->
<g id="edge5" class="edge"><title>Node1&#45;&gt;Node6</title>
<path fill="none" stroke="midnightblue" d="M221.721,-185.546C187.264,-180.839 147.02,-169.455 120.524,-143 106.954,-129.45 102.787,-107.295 101.649,-91.4372"/>
<polygon fill="midnightblue" stroke="midnightblue" points="105.138,-91.0772 101.264,-81.216 98.1428,-91.3406 105.138,-91.0772"/>
</g>
<!-- Node7 -->
<g id="node7" class="node"><title>Node7</title>
<polygon fill="white" stroke="#bfbfbf" points="306.024,-123.5 306.024,-142.5 375.024,-142.5 375.024,-123.5 306.024,-123.5"/>
<text text-anchor="middle" x="340.524" y="-130.5" font-family="Helvetica,sans-Serif" font-size="10.00">portaudio.h</text>
</g>
<!-- Node1&#45;&gt;Node7 -->
<g id="edge6" class="edge"><title>Node1&#45;&gt;Node7</title>
<path fill="none" stroke="midnightblue" d="M297.111,-179.083C304.683,-171.22 315.902,-159.569 325.039,-150.081"/>
<polygon fill="midnightblue" stroke="midnightblue" points="327.682,-152.382 332.097,-142.751 322.64,-147.527 327.682,-152.382"/>
</g>
<!-- Node8 -->
<g id="node8" class="node"><title>Node8</title>
<polygon fill="white" stroke="#bfbfbf" points="393.524,-123.5 393.524,-142.5 575.524,-142.5 575.524,-123.5 393.524,-123.5"/>
<text text-anchor="middle" x="484.524" y="-130.5" font-family="Helvetica,sans-Serif" font-size="10.00">portaudiocpp/CallbackInterface.hxx</text>
</g>
<!-- Node1&#45;&gt;Node8 -->
<g id="edge7" class="edge"><title>Node1&#45;&gt;Node8</title>
<path fill="none" stroke="midnightblue" d="M319.581,-179.444C353.128,-170.201 406.721,-155.436 443.665,-145.257"/>
<polygon fill="midnightblue" stroke="midnightblue" points="444.902,-148.547 453.613,-142.516 443.042,-141.798 444.902,-148.547"/>
</g>
<!-- Node9 -->
<g id="node9" class="node"><title>Node9</title>
<polygon fill="white" stroke="#bfbfbf" points="593.524,-123.5 593.524,-142.5 727.524,-142.5 727.524,-123.5 593.524,-123.5"/>
<text text-anchor="middle" x="660.524" y="-130.5" font-family="Helvetica,sans-Serif" font-size="10.00">portaudiocpp/Stream.hxx</text>
</g>
<!-- Node1&#45;&gt;Node9 -->
<g id="edge8" class="edge"><title>Node1&#45;&gt;Node9</title>
<path fill="none" stroke="midnightblue" d="M347.469,-179.444C413.86,-169.806 521.62,-154.163 591.786,-143.978"/>
<polygon fill="midnightblue" stroke="midnightblue" points="592.462,-147.417 601.856,-142.516 591.456,-140.489 592.462,-147.417"/>
</g>
<!-- Node10 -->
<g id="node10" class="node"><title>Node10</title>
<g id="a_node10"><a xlink:href="audio__source_8hpp.html" target="_top" xlink:title="Declaration of the AudioSource class. ">
<polygon fill="white" stroke="black" points="187.524,-123.5 187.524,-142.5 287.524,-142.5 287.524,-123.5 187.524,-123.5"/>
<text text-anchor="middle" x="237.524" y="-130.5" font-family="Helvetica,sans-Serif" font-size="10.00">audio_source.hpp</text>
</a>
</g>
</g>
<!-- Node1&#45;&gt;Node10 -->
<g id="edge9" class="edge"><title>Node1&#45;&gt;Node10</title>
<path fill="none" stroke="midnightblue" d="M280.103,-179.083C272.676,-171.22 261.673,-159.569 252.712,-150.081"/>
<polygon fill="midnightblue" stroke="midnightblue" points="255.2,-147.618 245.789,-142.751 250.111,-152.424 255.2,-147.618"/>
</g>
<!-- Node17 -->
<g id="node17" class="node"><title>Node17</title>
<g id="a_node17"><a xlink:href="ringbuffer_8hpp.html" target="_top" xlink:title="The RingBuffer class template. ">
<polygon fill="white" stroke="black" points="784.024,-123.5 784.024,-142.5 865.024,-142.5 865.024,-123.5 784.024,-123.5"/>
<text text-anchor="middle" x="824.524" y="-130.5" font-family="Helvetica,sans-Serif" font-size="10.00">ringbuffer.hpp</text>
</a>
</g>
</g>
<!-- Node1&#45;&gt;Node17 -->
<g id="edge20" class="edge"><title>Node1&#45;&gt;Node17</title>
<path fill="none" stroke="midnightblue" d="M355.211,-183.221C448.219,-176.224 622.073,-161.939 769.524,-143 770.994,-142.811 772.484,-142.613 773.988,-142.407"/>
<polygon fill="midnightblue" stroke="midnightblue" points="774.627,-145.851 784.022,-140.952 773.623,-138.923 774.627,-145.851"/>
</g>
<!-- Node10&#45;&gt;Node2 -->
<g id="edge11" class="edge"><title>Node10&#45;&gt;Node2</title>
<path fill="none" stroke="midnightblue" d="M217.852,-123.416C202.94,-115.912 183.102,-103.611 171.524,-87 159.646,-69.9563 155.178,-46.1938 153.506,-29.7985"/>
<polygon fill="midnightblue" stroke="midnightblue" points="156.994,-29.501 152.739,-19.798 150.015,-30.0365 156.994,-29.501"/>
</g>
<!-- Node10&#45;&gt;Node4 -->
<g id="edge12" class="edge"><title>Node10&#45;&gt;Node4</title>
<path fill="none" stroke="midnightblue" d="M287.719,-124.218C290.697,-123.795 293.649,-123.386 296.524,-123 433.994,-104.539 473.758,-127.146 606.524,-87 654.722,-72.426 705.986,-42.7273 734.051,-25.0793"/>
<polygon fill="midnightblue" stroke="midnightblue" points="736.095,-27.9265 742.641,-19.5955 732.329,-22.0263 736.095,-27.9265"/>
</g>
<!-- Node10&#45;&gt;Node6 -->
<g id="edge13" class="edge"><title>Node10&#45;&gt;Node6</title>
<path fill="none" stroke="midnightblue" d="M218.039,-123.475C195.114,-113.445 156.839,-96.7002 130.449,-85.1546"/>
<polygon fill="midnightblue" stroke="midnightblue" points="131.538,-81.8108 120.974,-81.0091 128.732,-88.2239 131.538,-81.8108"/>
</g>
<!-- Node11 -->
<g id="node11" class="node"><title>Node11</title>
<polygon fill="white" stroke="#bfbfbf" points="181.024,-62 181.024,-81 222.024,-81 222.024,-62 181.024,-62"/>
<text text-anchor="middle" x="201.524" y="-69" font-family="Helvetica,sans-Serif" font-size="10.00">array</text>
</g>
<!-- Node10&#45;&gt;Node11 -->
<g id="edge10" class="edge"><title>Node10&#45;&gt;Node11</title>
<path fill="none" stroke="midnightblue" d="M232.366,-123.475C227.073,-114.727 218.689,-100.869 211.997,-89.8093"/>
<polygon fill="midnightblue" stroke="midnightblue" points="214.844,-87.7531 206.673,-81.0091 208.855,-91.3768 214.844,-87.7531"/>
</g>
<!-- Node12 -->
<g id="node12" class="node"><title>Node12</title>
<polygon fill="white" stroke="#bfbfbf" points="240.024,-62 240.024,-81 281.024,-81 281.024,-62 240.024,-62"/>
<text text-anchor="middle" x="260.524" y="-69" font-family="Helvetica,sans-Serif" font-size="10.00">sox.h</text>
</g>
<!-- Node10&#45;&gt;Node12 -->
<g id="edge14" class="edge"><title>Node10&#45;&gt;Node12</title>
<path fill="none" stroke="midnightblue" d="M240.82,-123.475C244.133,-114.904 249.342,-101.427 253.573,-90.483"/>
<polygon fill="midnightblue" stroke="midnightblue" points="256.894,-91.5984 257.235,-81.0091 250.365,-89.0745 256.894,-91.5984"/>
</g>
<!-- Node13 -->
<g id="node13" class="node"><title>Node13</title>
<g id="a_node13"><a xlink:href="errors_8hpp.html" target="_top" xlink:title="Declarations of the playd Error exception set. ">
<polygon fill="white" stroke="black" points="525.024,-62 525.024,-81 598.024,-81 598.024,-62 525.024,-62"/>
<text text-anchor="middle" x="561.524" y="-69" font-family="Helvetica,sans-Serif" font-size="10.00">../errors.hpp</text>
</a>
</g>
</g>
<!-- Node10&#45;&gt;Node13 -->
<g id="edge15" class="edge"><title>Node10&#45;&gt;Node13</title>
<path fill="none" stroke="midnightblue" d="M283.946,-123.475C345.439,-112.182 453.294,-92.3757 514.893,-81.0635"/>
<polygon fill="midnightblue" stroke="midnightblue" points="515.531,-84.5049 524.734,-79.2562 514.267,-77.62 515.531,-84.5049"/>
</g>
<!-- Node16 -->
<g id="node16" class="node"><title>Node16</title>
<g id="a_node16"><a xlink:href="sample__formats_8hpp.html" target="_top" xlink:title="The SampleFormat enumeration. ">
<polygon fill="white" stroke="black" points="299.024,-62 299.024,-81 418.024,-81 418.024,-62 299.024,-62"/>
<text text-anchor="middle" x="358.524" y="-69" font-family="Helvetica,sans-Serif" font-size="10.00">../sample_formats.hpp</text>
</a>
</g>
</g>
<!-- Node10&#45;&gt;Node16 -->
<g id="edge18" class="edge"><title>Node10&#45;&gt;Node16</title>
<path fill="none" stroke="midnightblue" d="M254.861,-123.475C275.077,-113.534 308.711,-96.9947 332.167,-85.461"/>
<polygon fill="midnightblue" stroke="midnightblue" points="333.791,-88.5627 341.22,-81.0091 330.702,-82.281 333.791,-88.5627"/>
</g>
<!-- Node14 -->
<g id="node14" class="node"><title>Node14</title>
<polygon fill="white" stroke="#bfbfbf" points="496.024,-0.5 496.024,-19.5 553.024,-19.5 553.024,-0.5 496.024,-0.5"/>
<text text-anchor="middle" x="524.524" y="-7.5" font-family="Helvetica,sans-Serif" font-size="10.00">iostream</text>
</g>
<!-- Node13&#45;&gt;Node14 -->
<g id="edge16" class="edge"><title>Node13&#45;&gt;Node14</title>
<path fill="none" stroke="midnightblue" d="M556.223,-61.9751C550.783,-53.2268 542.166,-39.3691 535.288,-28.3093"/>
<polygon fill="midnightblue" stroke="midnightblue" points="538.069,-26.1528 529.816,-19.5091 532.124,-29.8494 538.069,-26.1528"/>
</g>
<!-- Node15 -->
<g id="node15" class="node"><title>Node15</title>
<polygon fill="white" stroke="#bfbfbf" points="571.524,-0.5 571.524,-19.5 625.524,-19.5 625.524,-0.5 571.524,-0.5"/>
<text text-anchor="middle" x="598.524" y="-7.5" font-family="Helvetica,sans-Serif" font-size="10.00">sstream</text>
</g>
<!-- Node13&#45;&gt;Node15 -->
<g id="edge17" class="edge"><title>Node13&#45;&gt;Node15</title>
<path fill="none" stroke="midnightblue" d="M566.825,-61.9751C572.266,-53.2268 580.883,-39.3691 587.761,-28.3093"/>
<polygon fill="midnightblue" stroke="midnightblue" points="590.924,-29.8494 593.233,-19.5091 584.98,-26.1528 590.924,-29.8494"/>
</g>
<!-- Node16&#45;&gt;Node2 -->
<g id="edge19" class="edge"><title>Node16&#45;&gt;Node2</title>
<path fill="none" stroke="midnightblue" d="M329.01,-61.9751C291.143,-51.0378 225.626,-32.1144 185.958,-20.6567"/>
<polygon fill="midnightblue" stroke="midnightblue" points="186.8,-17.2569 176.221,-17.8445 184.857,-23.982 186.8,-17.2569"/>
</g>
<!-- Node17&#45;&gt;Node13 -->
<g id="edge23" class="edge"><title>Node17&#45;&gt;Node13</title>
<path fill="none" stroke="midnightblue" d="M786.843,-123.475C739.705,-112.811 659.007,-94.5542 608.062,-83.0284"/>
<polygon fill="midnightblue" stroke="midnightblue" points="608.814,-79.6102 598.288,-80.8173 607.269,-86.4377 608.814,-79.6102"/>
</g>
<!-- Node18 -->
<g id="node18" class="node"><title>Node18</title>
<polygon fill="white" stroke="#bfbfbf" points="882.024,-62 882.024,-81 933.024,-81 933.024,-62 882.024,-62"/>
<text text-anchor="middle" x="907.524" y="-69" font-family="Helvetica,sans-Serif" font-size="10.00">cassert</text>
</g>
<!-- Node17&#45;&gt;Node18 -->
<g id="edge21" class="edge"><title>Node17&#45;&gt;Node18</title>
<path fill="none" stroke="midnightblue" d="M836.416,-123.475C849.729,-113.931 871.524,-98.3073 887.481,-86.8683"/>
<polygon fill="midnightblue" stroke="midnightblue" points="889.566,-89.68 895.654,-81.0091 885.488,-83.9908 889.566,-89.68"/>
</g>
<!-- Node19 -->
<g id="node19" class="node"><title>Node19</title>
<polygon fill="white" stroke="#bfbfbf" points="951.024,-56.5 951.024,-86.5 1072.02,-86.5 1072.02,-56.5 951.024,-56.5"/>
<text text-anchor="start" x="959.024" y="-74.5" font-family="Helvetica,sans-Serif" font-size="10.00">../contrib/pa_ringbuffer</text>
<text text-anchor="middle" x="1011.52" y="-63.5" font-family="Helvetica,sans-Serif" font-size="10.00">/pa_ringbuffer.h</text>
</g>
<!-- Node17&#45;&gt;Node19 -->
<g id="edge22" class="edge"><title>Node17&#45;&gt;Node19</title>
<path fill="none" stroke="midnightblue" d="M851.317,-123.475C879.01,-114.664 922.995,-100.668 957.876,-89.5698"/>
<polygon fill="midnightblue" stroke="midnightblue" points="958.984,-92.8903 967.452,-86.523 956.862,-86.2198 958.984,-92.8903"/>
</g>
<!-- Node20 -->
<g id="node20" class="node"><title>Node20</title>
<g id="a_node20"><a xlink:href="messages_8h.html" target="_top" xlink:title="Constant human&#45;readable messages used within playd. ">
<polygon fill="white" stroke="black" points="783.524,-62 783.524,-81 863.524,-81 863.524,-62 783.524,-62"/>
<text text-anchor="middle" x="823.524" y="-69" font-family="Helvetica,sans-Serif" font-size="10.00">../messages.h</text>
</a>
</g>
</g>
<!-- Node17&#45;&gt;Node20 -->
<g id="edge24" class="edge"><title>Node17&#45;&gt;Node20</title>
<path fill="none" stroke="midnightblue" d="M824.381,-123.475C824.24,-115.08 824.02,-101.981 823.838,-91.1631"/>
<polygon fill="midnightblue" stroke="midnightblue" points="827.335,-90.9488 823.667,-81.0091 820.336,-91.0665 827.335,-90.9488"/>
</g>
<!-- Node20&#45;&gt;Node4 -->
<g id="edge25" class="edge"><title>Node20&#45;&gt;Node4</title>
<path fill="none" stroke="midnightblue" d="M813.782,-61.9751C803.178,-52.6966 786.005,-37.6706 773.045,-26.331"/>
<polygon fill="midnightblue" stroke="midnightblue" points="775.08,-23.4601 765.249,-19.5091 770.47,-28.7282 775.08,-23.4601"/>
</g>
</g>
</svg>
        <g id="navigator" transform="translate(0 0)" fill="#404254">
                <rect fill="#f2f5e9" fill-opacity="0.5" stroke="#606060" stroke-width=".5" x="0" y="0" width="60" height="60"/>
                <use id="zoomplus" xlink:href="#zoomPlus" x="17" y="9" onmousedown="handleZoom(evt,'in')"/>
                <use id="zoomminus" xlink:href="#zoomMin" x="42" y="9" onmousedown="handleZoom(evt,'out')"/>
                <use id="reset" xlink:href="#resetDef" x="30" y="36" onmousedown="handleReset()"/>
                <g id="arrowUp" xlink:href="#dirArrow" transform="translate(30 24)" onmousedown="handlePan(0,-1)">
                  <use xlink:href="#rim" fill="#404040">
                        <set attributeName="fill" to="#808080" begin="arrowUp.mouseover" end="arrowUp.mouseout"/>
                  </use>
                  <path fill="none" stroke="white" stroke-width="1.5" d="M0,-3.0v7 M-2.5,-0.5L0,-3.0L2.5,-0.5"/>
                </g>
                <g id="arrowRight" xlink:href="#dirArrow" transform="rotate(90) translate(36 -43)" onmousedown="handlePan(1,0)">
                  <use xlink:href="#rim" fill="#404040">
                        <set attributeName="fill" to="#808080" begin="arrowRight.mouseover" end="arrowRight.mouseout"/>
                  </use>
                  <path fill="none" stroke="white" stroke-width="1.5" d="M0,-3.0v7 M-2.5,-0.5L0,-3.0L2.5,-0.5"/>
                </g>
                <g id="arrowDown" xlink:href="#dirArrow" transform="rotate(180) translate(-30 -48)" onmousedown="handlePan(0,1)">
                  <use xlink:href="#rim" fill="#404040">
                        <set attributeName="fill" to="#808080" begin="arrowDown.mouseover" end="arrowDown.mouseout"/>
                  </use>
                  <path fill="none" stroke="white" stroke-width="1.5" d="M0,-3.0v7 M-2.5,-0.5L0,-3.0L2.5,-0.5"/>
                </g>
                <g id="arrowLeft" xlink:href="#dirArrow" transform="rotate(270) translate(-36 17)" onmousedown="handlePan(-1,0)">
                  <use xlink:href="#rim" fill="#404040">
                        <set attributeName="fill" to="#808080" begin="arrowLeft.mouseover" end="arrowLeft.mouseout"/>
                  </use>
                  <path fill="none" stroke="white" stroke-width="1.5" d="M0,-3.0v7 M-2.5,-0.5L0,-3.0L2.5,-0.5"/>
                </g>
        </g>
        <svg viewBox="0 0 15 15" width="100%" height="30px" preserveAspectRatio="xMaxYMin meet">
         <g id="arrow_out" transform="scale(0.3 0.3)">
          <a xlink:href="audio__sink_8hpp__incl_org.svg" target="_base">
           <rect id="button" ry="5" rx="5" y="6" x="6" height="38" width="38"
                fill="#f2f5e9" fill-opacity="0.5" stroke="#606060" stroke-width="1.0"/>
           <path id="arrow"
             d="M 11.500037,31.436501 C 11.940474,20.09759 22.043105,11.32322 32.158766,21.979434 L 37.068811,17.246167 C 37.068811,17.246167 37.088388,32 37.088388,32 L 22.160133,31.978069 C 22.160133,31.978069 26.997745,27.140456 26.997745,27.140456 C 18.528582,18.264221 13.291696,25.230495 11.500037,31.436501 z"
             style="fill:#404040;"/>
          </a>
         </g>
        </svg>
</svg>
