<?xml version="1.0" encoding="UTF-8" standalone="no"?>
<!DOCTYPE svg PUBLIC "-//W3C//DTD SVG 1.1//EN"
 "http://www.w3.org/Graphics/SVG/1.1/DTD/svg11.dtd">
<!-- Generated by graphviz version 2.36.0 (20140111.2315)
 -->
<!-- Title: src/audio/audio_sink.cpp Pages: 1 -->
<!--zoomable 320 -->
<svg id="main" version="1.1" xmlns="http://www.w3.org/2000/svg" xmlns:xlink="http://www.w3.org/1999/xlink" xml:space="preserve" onload="init(evt)">
<style type="text/css"><![CDATA[
.edge:hover path { stroke: red; }
.edge:hover polygon { stroke: red; fill: red; }
]]></style>
<script type="text/javascript"><![CDATA[
var edges = document.getElementsByTagName('g');
if (edges && edges.length) {
  for (var i=0;i<edges.length;i++) {
    if (edges[i].id.substr(0,4)=='edge') {
      edges[i].setAttribute('class','edge');
    }
  }
}
]]></script>
        <defs>
                <circle id="rim" cx="0" cy="0" r="7"/>
                <circle id="rim2" cx="0" cy="0" r="3.5"/>
                <g id="zoomPlus">
                        <use xlink:href="#rim" fill="#404040">
                                <set attributeName="fill" to="#808080" begin="zoomplus.mouseover" end="zoomplus.mouseout"/>
                        </use>
                        <path d="M-4,0h8M0,-4v8" fill="none" stroke="white" stroke-width="1.5" pointer-events="none"/>
                </g>
                <g id="zoomMin">
                        <use xlink:href="#rim" fill="#404040">
                                <set attributeName="fill" to="#808080" begin="zoomminus.mouseover" end="zoomminus.mouseout"/>
                        </use>
                        <path d="M-4,0h8" fill="none" stroke="white" stroke-width="1.5" pointer-events="none"/>
                </g>
                <g id="dirArrow">
                        <path fill="none" stroke="white" stroke-width="1.5" d="M0,-3.0v7 M-2.5,-0.5L0,-3.0L2.5,-0.5"/>
                </g>
               <g id="resetDef">
                       <use xlink:href="#rim2" fill="#404040">
                               <set attributeName="fill" to="#808080" begin="reset.mouseover" end="reset.mouseout"/>
                       </use>
               </g>
        </defs>

<script type="text/javascript">
var viewWidth = 1298;
var viewHeight = 320;
var sectionId = 'dynsection-0';
</script>
<script xlink:href="svgpan.js"/>
<svg id="graph" class="graph">
<g id="viewport">
<title>src/audio/audio_sink.cpp</title>
<polygon fill="white" stroke="none" points="-4,4 -4,-316 1293.77,-316 1293.77,4 -4,4"/>
<!-- Node0 -->
<g id="node1" class="node"><title>Node0</title>
<polygon fill="#bfbfbf" stroke="black" points="311.978,-292.5 311.978,-311.5 445.978,-311.5 445.978,-292.5 311.978,-292.5"/>
<text text-anchor="middle" x="378.978" y="-299.5" font-family="Helvetica,sans-Serif" font-size="10.00">src/audio/audio_sink.cpp</text>
</g>
<!-- Node1 -->
<g id="node2" class="node"><title>Node1</title>
<polygon fill="white" stroke="#bfbfbf" points="347.478,-0.5 347.478,-19.5 388.478,-19.5 388.478,-0.5 347.478,-0.5"/>
<text text-anchor="middle" x="367.978" y="-7.5" font-family="Helvetica,sans-Serif" font-size="10.00">array</text>
</g>
<!-- Node0&#45;&gt;Node1 -->
<g id="edge1" class="edge"><title>Node0&#45;&gt;Node1</title>
<path fill="none" stroke="midnightblue" d="M311.928,-301.12C220.356,-299.889 62.655,-292.353 19.978,-256 -2.934,-236.483 0.977999,-221.098 0.977999,-191 0.977999,-191 0.977999,-191 0.977999,-127 0.977999,-56.6791 249.047,-23.5787 337.283,-14.0294"/>
<polygon fill="midnightblue" stroke="midnightblue" points="337.882,-17.4857 347.46,-12.9564 337.148,-10.5243 337.882,-17.4857"/>
</g>
<!-- Node2 -->
<g id="node3" class="node"><title>Node2</title>
<polygon fill="white" stroke="#bfbfbf" points="28.978,-236.5 28.978,-255.5 90.978,-255.5 90.978,-236.5 28.978,-236.5"/>
<text text-anchor="middle" x="59.978" y="-243.5" font-family="Helvetica,sans-Serif" font-size="10.00">algorithm</text>
</g>
<!-- Node0&#45;&gt;Node2 -->
<g id="edge2" class="edge"><title>Node0&#45;&gt;Node2</title>
<path fill="none" stroke="midnightblue" d="M319.467,-292.483C265.065,-284.453 182.159,-271.601 101.239,-256.154"/>
<polygon fill="midnightblue" stroke="midnightblue" points="101.864,-252.71 91.3827,-254.257 100.541,-259.584 101.864,-252.71"/>
</g>
<!-- Node3 -->
<g id="node4" class="node"><title>Node3</title>
<polygon fill="white" stroke="#bfbfbf" points="108.978,-236.5 108.978,-255.5 160.978,-255.5 160.978,-236.5 108.978,-236.5"/>
<text text-anchor="middle" x="134.978" y="-243.5" font-family="Helvetica,sans-Serif" font-size="10.00">cassert</text>
</g>
<!-- Node0&#45;&gt;Node3 -->
<g id="edge3" class="edge"><title>Node0&#45;&gt;Node3</title>
<path fill="none" stroke="midnightblue" d="M336.835,-292.437C296.694,-284.168 234.33,-271.025 171.421,-256.274"/>
<polygon fill="midnightblue" stroke="midnightblue" points="171.86,-252.782 161.324,-253.894 170.254,-259.595 171.86,-252.782"/>
</g>
<!-- Node4 -->
<g id="node5" class="node"><title>Node4</title>
<polygon fill="white" stroke="#bfbfbf" points="179.478,-236.5 179.478,-255.5 226.478,-255.5 226.478,-236.5 179.478,-236.5"/>
<text text-anchor="middle" x="202.978" y="-243.5" font-family="Helvetica,sans-Serif" font-size="10.00">climits</text>
</g>
<!-- Node0&#45;&gt;Node4 -->
<g id="edge4" class="edge"><title>Node0&#45;&gt;Node4</title>
<path fill="none" stroke="midnightblue" d="M351.09,-292.444C319.907,-282.876 269.432,-267.389 236.223,-257.2"/>
<polygon fill="midnightblue" stroke="midnightblue" points="237.098,-253.808 226.511,-254.22 235.044,-260.5 237.098,-253.808"/>
</g>
<!-- Node5 -->
<g id="node6" class="node"><title>Node5</title>
<polygon fill="white" stroke="#bfbfbf" points="244.478,-236.5 244.478,-255.5 293.478,-255.5 293.478,-236.5 244.478,-236.5"/>
<text text-anchor="middle" x="268.978" y="-243.5" font-family="Helvetica,sans-Serif" font-size="10.00">cstring</text>
</g>
<!-- Node0&#45;&gt;Node5 -->
<g id="edge5" class="edge"><title>Node0&#45;&gt;Node5</title>
<path fill="none" stroke="midnightblue" d="M361.305,-292.324C343.584,-283.625 316.075,-270.12 295.69,-260.113"/>
<polygon fill="midnightblue" stroke="midnightblue" points="297.127,-256.919 286.608,-255.655 294.042,-263.203 297.127,-256.919"/>
</g>
<!-- Node6 -->
<g id="node7" class="node"><title>Node6</title>
<polygon fill="white" stroke="#bfbfbf" points="538.478,-56.5 538.478,-75.5 595.478,-75.5 595.478,-56.5 538.478,-56.5"/>
<text text-anchor="middle" x="566.978" y="-63.5" font-family="Helvetica,sans-Serif" font-size="10.00">memory</text>
</g>
<!-- Node0&#45;&gt;Node6 -->
<g id="edge6" class="edge"><title>Node0&#45;&gt;Node6</title>
<path fill="none" stroke="midnightblue" d="M377.067,-292.492C372.897,-271.874 364.809,-218.134 383.978,-180 412.51,-123.241 483.943,-92.0151 528.654,-77.4537"/>
<polygon fill="midnightblue" stroke="midnightblue" points="529.811,-80.7589 538.31,-74.432 527.721,-74.0784 529.811,-80.7589"/>
</g>
<!-- Node7 -->
<g id="node8" class="node"><title>Node7</title>
<polygon fill="white" stroke="#bfbfbf" points="629.978,-56.5 629.978,-75.5 673.978,-75.5 673.978,-56.5 629.978,-56.5"/>
<text text-anchor="middle" x="651.978" y="-63.5" font-family="Helvetica,sans-Serif" font-size="10.00">string</text>
</g>
<!-- Node0&#45;&gt;Node7 -->
<g id="edge7" class="edge"><title>Node0&#45;&gt;Node7</title>
<path fill="none" stroke="midnightblue" d="M379.598,-292.414C381.536,-271.155 389.133,-215.246 416.978,-180 468.962,-114.199 568.757,-84.4592 619.955,-73.0457"/>
<polygon fill="midnightblue" stroke="midnightblue" points="620.763,-76.452 629.813,-70.9419 619.302,-69.6062 620.763,-76.452"/>
</g>
<!-- Node8 -->
<g id="node9" class="node"><title>Node8</title>
<polygon fill="white" stroke="#bfbfbf" points="528.478,-180.5 528.478,-199.5 573.478,-199.5 573.478,-180.5 528.478,-180.5"/>
<text text-anchor="middle" x="550.978" y="-187.5" font-family="Helvetica,sans-Serif" font-size="10.00">SDL.h</text>
</g>
<!-- Node0&#45;&gt;Node8 -->
<g id="edge8" class="edge"><title>Node0&#45;&gt;Node8</title>
<path fill="none" stroke="midnightblue" d="M392.475,-292.368C421.99,-273.492 492.522,-228.385 528.717,-205.237"/>
<polygon fill="midnightblue" stroke="midnightblue" points="531.005,-207.928 537.544,-199.591 527.234,-202.031 531.005,-207.928"/>
</g>
<!-- Node9 -->
<g id="node10" class="node"><title>Node9</title>
<g id="a_node10"><a xlink:href="errors_8hpp.html" target="_top" xlink:title="Declarations of the playd Error exception set. ">
<polygon fill="white" stroke="black" points="1142.48,-56.5 1142.48,-75.5 1217.48,-75.5 1217.48,-56.5 1142.48,-56.5"/>
<text text-anchor="middle" x="1179.98" y="-63.5" font-family="Helvetica,sans-Serif" font-size="10.00">../errors.hpp</text>
</a>
</g>
</g>
<!-- Node0&#45;&gt;Node9 -->
<g id="edge9" class="edge"><title>Node0&#45;&gt;Node9</title>
<path fill="none" stroke="midnightblue" d="M446.112,-299.423C628.366,-294.84 1123.41,-280.291 1192.98,-256 1262.72,-231.648 1315.61,-174.341 1275.98,-112 1265.05,-94.8033 1245.62,-84.0645 1227.08,-77.4141"/>
<polygon fill="midnightblue" stroke="midnightblue" points="1228.12,-74.0694 1217.52,-74.2966 1225.95,-80.7245 1228.12,-74.0694"/>
</g>
<!-- Node12 -->
<g id="node13" class="node"><title>Node12</title>
<g id="a_node13"><a xlink:href="messages_8h.html" target="_top" xlink:title="Constant human&#45;readable messages used within playd. ">
<polygon fill="white" stroke="black" points="425.978,-180.5 425.978,-199.5 509.978,-199.5 509.978,-180.5 425.978,-180.5"/>
<text text-anchor="middle" x="467.978" y="-187.5" font-family="Helvetica,sans-Serif" font-size="10.00">../messages.h</text>
</a>
</g>
</g>
<!-- Node0&#45;&gt;Node12 -->
<g id="edge12" class="edge"><title>Node0&#45;&gt;Node12</title>
<path fill="none" stroke="midnightblue" d="M385.962,-292.368C400.714,-274.135 435.27,-231.426 454.486,-207.675"/>
<polygon fill="midnightblue" stroke="midnightblue" points="457.458,-209.567 461.027,-199.591 452.016,-205.164 457.458,-209.567"/>
</g>
<!-- Node13 -->
<g id="node14" class="node"><title>Node13</title>
<g id="a_node14"><a xlink:href="audio__sink_8hpp.html" target="_top" xlink:title="Declaration of the AudioSink class. ">
<polygon fill="white" stroke="black" points="690.978,-236.5 690.978,-255.5 778.978,-255.5 778.978,-236.5 690.978,-236.5"/>
<text text-anchor="middle" x="734.978" y="-243.5" font-family="Helvetica,sans-Serif" font-size="10.00">audio_sink.hpp</text>
</a>
</g>
</g>
<!-- Node0&#45;&gt;Node13 -->
<g id="edge14" class="edge"><title>Node0&#45;&gt;Node13</title>
<path fill="none" stroke="midnightblue" d="M435.387,-292.444C502.664,-282.239 614.329,-265.301 680.667,-255.238"/>
<polygon fill="midnightblue" stroke="midnightblue" points="681.548,-258.645 690.91,-253.684 680.499,-251.724 681.548,-258.645"/>
</g>
<!-- Node21 -->
<g id="node22" class="node"><title>Node21</title>
<g id="a_node22"><a xlink:href="audio__source_8hpp.html" target="_top" xlink:title="Declaration of the AudioSource class. ">
<polygon fill="white" stroke="black" points="946.478,-118.5 946.478,-137.5 1047.48,-137.5 1047.48,-118.5 946.478,-118.5"/>
<text text-anchor="middle" x="996.978" y="-125.5" font-family="Helvetica,sans-Serif" font-size="10.00">audio_source.hpp</text>
</a>
</g>
</g>
<!-- Node0&#45;&gt;Node21 -->
<g id="edge48" class="edge"><title>Node0&#45;&gt;Node21</title>
<path fill="none" stroke="midnightblue" d="M446.339,-301.542C528.608,-300.408 671.118,-292.599 786.978,-256 865.257,-231.273 944.66,-171.828 979.154,-143.931"/>
<polygon fill="midnightblue" stroke="midnightblue" points="981.413,-146.604 986.928,-137.558 976.976,-141.191 981.413,-146.604"/>
</g>
<!-- Node22 -->
<g id="node23" class="node"><title>Node22</title>
<g id="a_node23"><a xlink:href="sample__formats_8hpp.html" target="_top" xlink:title="The SampleFormat enumeration and related declarations. ">
<polygon fill="white" stroke="black" points="395.978,-56.5 395.978,-75.5 511.978,-75.5 511.978,-56.5 395.978,-56.5"/>
<text text-anchor="middle" x="453.978" y="-63.5" font-family="Helvetica,sans-Serif" font-size="10.00">sample_formats.hpp</text>
</a>
</g>
</g>
<!-- Node0&#45;&gt;Node22 -->
<g id="edge50" class="edge"><title>Node0&#45;&gt;Node22</title>
<path fill="none" stroke="midnightblue" d="M369.958,-292.34C361.906,-283.932 350.68,-270.363 345.978,-256 335.469,-223.899 333.406,-211.351 345.978,-180 363.402,-136.552 406.381,-100.35 432.565,-81.356"/>
<polygon fill="midnightblue" stroke="midnightblue" points="434.586,-84.2135 440.739,-75.5888 430.55,-78.4937 434.586,-84.2135"/>
</g>
<!-- Node23 -->
<g id="node24" class="node"><title>Node23</title>
<g id="a_node24"><a xlink:href="ringbuffer_8hpp.html" target="_top" xlink:title="The RingBuffer class template. ">
<polygon fill="white" stroke="black" points="1180.48,-180.5 1180.48,-199.5 1263.48,-199.5 1263.48,-180.5 1180.48,-180.5"/>
<text text-anchor="middle" x="1221.98" y="-187.5" font-family="Helvetica,sans-Serif" font-size="10.00">ringbuffer.hpp</text>
</a>
</g>
</g>
<!-- Node0&#45;&gt;Node23 -->
<g id="edge49" class="edge"><title>Node0&#45;&gt;Node23</title>
<path fill="none" stroke="midnightblue" d="M446.162,-300.149C624.807,-297.467 1102.31,-287.414 1165.98,-256 1186.77,-245.739 1202.99,-223.918 1212.5,-208.393"/>
<polygon fill="midnightblue" stroke="midnightblue" points="1215.55,-210.106 1217.54,-199.699 1209.5,-206.596 1215.55,-210.106"/>
</g>
<!-- Node10 -->
<g id="node11" class="node"><title>Node10</title>
<polygon fill="white" stroke="#bfbfbf" points="1112.48,-0.5 1112.48,-19.5 1171.48,-19.5 1171.48,-0.5 1112.48,-0.5"/>
<text text-anchor="middle" x="1141.98" y="-7.5" font-family="Helvetica,sans-Serif" font-size="10.00">iostream</text>
</g>
<!-- Node9&#45;&gt;Node10 -->
<g id="edge10" class="edge"><title>Node9&#45;&gt;Node10</title>
<path fill="none" stroke="midnightblue" d="M1173.7,-56.083C1168.34,-48.4554 1160.46,-37.2645 1153.9,-27.9408"/>
<polygon fill="midnightblue" stroke="midnightblue" points="1156.75,-25.9149 1148.14,-19.7511 1151.03,-29.9434 1156.75,-25.9149"/>
</g>
<!-- Node11 -->
<g id="node12" class="node"><title>Node11</title>
<polygon fill="white" stroke="#bfbfbf" points="1189.98,-0.5 1189.98,-19.5 1245.98,-19.5 1245.98,-0.5 1189.98,-0.5"/>
<text text-anchor="middle" x="1217.98" y="-7.5" font-family="Helvetica,sans-Serif" font-size="10.00">sstream</text>
</g>
<!-- Node9&#45;&gt;Node11 -->
<g id="edge11" class="edge"><title>Node9&#45;&gt;Node11</title>
<path fill="none" stroke="midnightblue" d="M1186.25,-56.083C1191.62,-48.4554 1199.5,-37.2645 1206.06,-27.9408"/>
<polygon fill="midnightblue" stroke="midnightblue" points="1208.93,-29.9434 1211.82,-19.7511 1203.2,-25.9149 1208.93,-29.9434"/>
</g>
<!-- Node12&#45;&gt;Node7 -->
<g id="edge13" class="edge"><title>Node12&#45;&gt;Node7</title>
<path fill="none" stroke="midnightblue" d="M480.567,-180.36C501.513,-166.016 544.885,-136.445 581.978,-112 597.856,-101.536 615.912,-89.9359 629.708,-81.1345"/>
<polygon fill="midnightblue" stroke="midnightblue" points="631.944,-83.86 638.5,-75.5367 628.185,-77.9553 631.944,-83.86"/>
</g>
<!-- Node13&#45;&gt;Node1 -->
<g id="edge15" class="edge"><title>Node13&#45;&gt;Node1</title>
<path fill="none" stroke="midnightblue" d="M710.164,-236.397C686.419,-227.927 649.765,-214.224 618.978,-200 602.009,-192.16 598.447,-188.843 581.978,-180 495.441,-133.536 448.939,-152.213 386.978,-76 376.21,-62.7552 371.545,-43.6267 369.523,-29.5483"/>
<polygon fill="midnightblue" stroke="midnightblue" points="372.995,-29.0975 368.403,-19.5494 366.038,-29.8769 372.995,-29.0975"/>
</g>
<!-- Node13&#45;&gt;Node6 -->
<g id="edge17" class="edge"><title>Node13&#45;&gt;Node6</title>
<path fill="none" stroke="midnightblue" d="M724.296,-236.301C708.858,-223.758 679.377,-199.914 653.978,-180 633.271,-163.765 623.891,-164.156 606.978,-144 592.045,-126.203 580.587,-101.905 573.837,-85.3969"/>
<polygon fill="midnightblue" stroke="midnightblue" points="576.994,-83.8586 570.092,-75.8202 570.475,-86.4082 576.994,-83.8586"/>
</g>
<!-- Node13&#45;&gt;Node7 -->
<g id="edge18" class="edge"><title>Node13&#45;&gt;Node7</title>
<path fill="none" stroke="midnightblue" d="M731.16,-236.327C724.795,-222.727 710.828,-196.263 691.978,-180 663.374,-155.322 635.26,-175.872 614.978,-144 602.366,-124.181 619.524,-99.4106 634.442,-83.4025"/>
<polygon fill="midnightblue" stroke="midnightblue" points="637.32,-85.4708 641.87,-75.9027 632.346,-80.5452 637.32,-85.4708"/>
</g>
<!-- Node13&#45;&gt;Node8 -->
<g id="edge21" class="edge"><title>Node13&#45;&gt;Node8</title>
<path fill="none" stroke="midnightblue" d="M705.823,-236.444C672.435,-226.645 617.896,-210.639 583.254,-200.472"/>
<polygon fill="midnightblue" stroke="midnightblue" points="584.197,-197.102 573.616,-197.644 582.226,-203.818 584.197,-197.102"/>
</g>
<!-- Node14 -->
<g id="node15" class="node"><title>Node14</title>
<polygon fill="white" stroke="#bfbfbf" points="855.478,-0.5 855.478,-19.5 904.478,-19.5 904.478,-0.5 855.478,-0.5"/>
<text text-anchor="middle" x="879.978" y="-7.5" font-family="Helvetica,sans-Serif" font-size="10.00">cstdint</text>
</g>
<!-- Node13&#45;&gt;Node14 -->
<g id="edge16" class="edge"><title>Node13&#45;&gt;Node14</title>
<path fill="none" stroke="midnightblue" d="M779.344,-242.703C831.442,-238.767 919.67,-228.191 989.978,-200 1031.62,-183.301 1052.81,-183.56 1073.98,-144 1111.47,-73.9405 979.878,-33.5434 914.586,-18.1937"/>
<polygon fill="midnightblue" stroke="midnightblue" points="915.239,-14.7531 904.712,-15.9446 913.685,-21.5783 915.239,-14.7531"/>
</g>
<!-- Node15 -->
<g id="node16" class="node"><title>Node15</title>
<polygon fill="white" stroke="#bfbfbf" points="623.978,-118.5 623.978,-137.5 665.978,-137.5 665.978,-118.5 623.978,-118.5"/>
<text text-anchor="middle" x="644.978" y="-125.5" font-family="Helvetica,sans-Serif" font-size="10.00">utility</text>
</g>
<!-- Node13&#45;&gt;Node15 -->
<g id="edge19" class="edge"><title>Node13&#45;&gt;Node15</title>
<path fill="none" stroke="midnightblue" d="M736.681,-236.239C738.766,-222.983 740.807,-197.522 729.978,-180 723.13,-168.92 694.661,-153.111 672.534,-142.04"/>
<polygon fill="midnightblue" stroke="midnightblue" points="674.04,-138.881 663.521,-137.613 670.954,-145.164 674.04,-138.881"/>
</g>
<!-- Node16 -->
<g id="node17" class="node"><title>Node16</title>
<polygon fill="white" stroke="#bfbfbf" points="912.478,-56.5 912.478,-75.5 959.478,-75.5 959.478,-56.5 912.478,-56.5"/>
<text text-anchor="middle" x="935.978" y="-63.5" font-family="Helvetica,sans-Serif" font-size="10.00">vector</text>
</g>
<!-- Node13&#45;&gt;Node16 -->
<g id="edge20" class="edge"><title>Node13&#45;&gt;Node16</title>
<path fill="none" stroke="midnightblue" d="M778.993,-237.755C859.039,-223.577 1023.22,-189.529 1055.98,-144 1064.28,-132.455 1064.08,-123.69 1055.98,-112 1036.76,-84.2703 998.21,-73.6024 969.97,-69.5129"/>
<polygon fill="midnightblue" stroke="midnightblue" points="970.067,-65.9984 959.713,-68.2458 969.209,-72.9455 970.067,-65.9984"/>
</g>
<!-- Node17 -->
<g id="node18" class="node"><title>Node17</title>
<g id="a_node18"><a xlink:href="audio_8hpp.html" target="_top" xlink:title="Declaration of the Audio class. ">
<polygon fill="white" stroke="black" points="781.978,-180.5 781.978,-199.5 845.978,-199.5 845.978,-180.5 781.978,-180.5"/>
<text text-anchor="middle" x="813.978" y="-187.5" font-family="Helvetica,sans-Serif" font-size="10.00">audio.hpp</text>
</a>
</g>
</g>
<!-- Node13&#45;&gt;Node17 -->
<g id="edge22" class="edge"><title>Node13&#45;&gt;Node17</title>
<path fill="none" stroke="midnightblue" d="M747.671,-236.324C759.879,-227.979 778.556,-215.212 792.981,-205.352"/>
<polygon fill="midnightblue" stroke="midnightblue" points="795.036,-208.187 801.317,-199.655 791.086,-202.408 795.036,-208.187"/>
</g>
<!-- Node13&#45;&gt;Node21 -->
<g id="edge44" class="edge"><title>Node13&#45;&gt;Node21</title>
<path fill="none" stroke="midnightblue" d="M760.103,-236.443C784.596,-227.9 822.754,-214.052 854.978,-200 896.789,-181.768 943.883,-157.438 971.957,-142.513"/>
<polygon fill="midnightblue" stroke="midnightblue" points="973.885,-145.451 981.055,-137.651 970.585,-139.278 973.885,-145.451"/>
</g>
<!-- Node13&#45;&gt;Node22 -->
<g id="edge47" class="edge"><title>Node13&#45;&gt;Node22</title>
<path fill="none" stroke="midnightblue" d="M718.624,-236.409C702.106,-227.618 675.962,-213.387 653.978,-200 586.999,-159.213 510.495,-106.577 474.607,-81.5114"/>
<polygon fill="midnightblue" stroke="midnightblue" points="476.587,-78.6255 466.388,-75.757 472.573,-84.3597 476.587,-78.6255"/>
</g>
<!-- Node13&#45;&gt;Node23 -->
<g id="edge45" class="edge"><title>Node13&#45;&gt;Node23</title>
<path fill="none" stroke="midnightblue" d="M779.055,-240.113C869.192,-230.118 1074.19,-207.387 1170.36,-196.724"/>
<polygon fill="midnightblue" stroke="midnightblue" points="1170.88,-200.188 1180.43,-195.607 1170.1,-193.231 1170.88,-200.188"/>
</g>
<!-- Node17&#45;&gt;Node6 -->
<g id="edge24" class="edge"><title>Node17&#45;&gt;Node6</title>
<path fill="none" stroke="midnightblue" d="M786.528,-180.366C764.312,-172.686 732.756,-160.173 707.978,-144 690.601,-132.658 691.374,-123.313 673.978,-112 652.393,-97.9628 625.702,-86.7283 604.377,-78.9953"/>
<polygon fill="midnightblue" stroke="midnightblue" points="605.286,-75.6048 594.691,-75.5875 602.962,-82.208 605.286,-75.6048"/>
</g>
<!-- Node17&#45;&gt;Node7 -->
<g id="edge25" class="edge"><title>Node17&#45;&gt;Node7</title>
<path fill="none" stroke="midnightblue" d="M801.318,-180.185C788.518,-171.219 768.219,-156.854 750.978,-144 722.694,-122.913 690.556,-97.6745 670.772,-81.9861"/>
<polygon fill="midnightblue" stroke="midnightblue" points="672.86,-79.1745 662.853,-75.6932 668.505,-84.6548 672.86,-79.1745"/>
</g>
<!-- Node17&#45;&gt;Node14 -->
<g id="edge23" class="edge"><title>Node17&#45;&gt;Node14</title>
<path fill="none" stroke="midnightblue" d="M826.756,-180.239C837.478,-172.148 852.245,-159.118 859.978,-144 878.967,-106.878 881.196,-56.8296 880.807,-29.9516"/>
<polygon fill="midnightblue" stroke="midnightblue" points="884.297,-29.5526 880.508,-19.6584 877.3,-29.7557 884.297,-29.5526"/>
</g>
<!-- Node17&#45;&gt;Node15 -->
<g id="edge26" class="edge"><title>Node17&#45;&gt;Node15</title>
<path fill="none" stroke="midnightblue" d="M786.287,-180.423C759.028,-171.81 716.32,-157.864 679.978,-144 677.87,-143.196 675.702,-142.34 673.528,-141.459"/>
<polygon fill="midnightblue" stroke="midnightblue" points="674.696,-138.154 664.12,-137.534 672.001,-144.615 674.696,-138.154"/>
</g>
<!-- Node17&#45;&gt;Node16 -->
<g id="edge27" class="edge"><title>Node17&#45;&gt;Node16</title>
<path fill="none" stroke="midnightblue" d="M836.543,-180.386C853.912,-172.866 877.634,-160.558 893.978,-144 910.65,-127.109 922.59,-102.244 929.379,-85.3752"/>
<polygon fill="midnightblue" stroke="midnightblue" points="932.81,-86.2001 933.095,-75.6091 926.268,-83.7106 932.81,-86.2001"/>
</g>
<!-- Node18 -->
<g id="node19" class="node"><title>Node18</title>
<g id="a_node19"><a xlink:href="response_8hpp.html" target="_top" xlink:title="Declaration of classes pertaining to responses to the client. ">
<polygon fill="white" stroke="black" points="760.478,-118.5 760.478,-137.5 851.478,-137.5 851.478,-118.5 760.478,-118.5"/>
<text text-anchor="middle" x="805.978" y="-125.5" font-family="Helvetica,sans-Serif" font-size="10.00">../response.hpp</text>
</a>
</g>
</g>
<!-- Node17&#45;&gt;Node18 -->
<g id="edge28" class="edge"><title>Node17&#45;&gt;Node18</title>
<path fill="none" stroke="midnightblue" d="M812.832,-180.403C811.703,-171.938 809.942,-158.728 808.487,-147.82"/>
<polygon fill="midnightblue" stroke="midnightblue" points="811.913,-147.03 807.122,-137.581 804.975,-147.955 811.913,-147.03"/>
</g>
<!-- Node17&#45;&gt;Node21 -->
<g id="edge36" class="edge"><title>Node17&#45;&gt;Node21</title>
<path fill="none" stroke="midnightblue" d="M840.197,-180.403C871.996,-169.978 925.743,-152.356 961.295,-140.699"/>
<polygon fill="midnightblue" stroke="midnightblue" points="962.395,-144.022 970.807,-137.581 960.214,-137.37 962.395,-144.022"/>
</g>
<!-- Node18&#45;&gt;Node6 -->
<g id="edge31" class="edge"><title>Node18&#45;&gt;Node6</title>
<path fill="none" stroke="midnightblue" d="M771.989,-118.467C728.018,-107.428 651.609,-88.2462 605.522,-76.6763"/>
<polygon fill="midnightblue" stroke="midnightblue" points="606.164,-73.2289 595.613,-74.1886 604.459,-80.0183 606.164,-73.2289"/>
</g>
<!-- Node18&#45;&gt;Node7 -->
<g id="edge33" class="edge"><title>Node18&#45;&gt;Node7</title>
<path fill="none" stroke="midnightblue" d="M783.914,-118.403C757.611,-108.156 713.465,-90.9561 683.553,-79.3021"/>
<polygon fill="midnightblue" stroke="midnightblue" points="684.59,-75.9497 674.002,-75.5806 682.049,-82.4722 684.59,-75.9497"/>
</g>
<!-- Node18&#45;&gt;Node9 -->
<g id="edge35" class="edge"><title>Node18&#45;&gt;Node9</title>
<path fill="none" stroke="midnightblue" d="M851.838,-119.643C923.042,-108.22 1059.52,-86.3249 1132,-74.6975"/>
<polygon fill="midnightblue" stroke="midnightblue" points="1132.89,-78.0989 1142.21,-73.059 1131.78,-71.1873 1132.89,-78.0989"/>
</g>
<!-- Node18&#45;&gt;Node14 -->
<g id="edge29" class="edge"><title>Node18&#45;&gt;Node14</title>
<path fill="none" stroke="midnightblue" d="M783.502,-118.47C754.416,-106.139 709.634,-81.9501 728.978,-56 755.573,-20.3236 809.34,-11.8173 845.008,-10.3567"/>
<polygon fill="midnightblue" stroke="midnightblue" points="845.533,-13.8453 855.446,-10.1074 845.366,-6.84729 845.533,-13.8453"/>
</g>
<!-- Node18&#45;&gt;Node16 -->
<g id="edge34" class="edge"><title>Node18&#45;&gt;Node16</title>
<path fill="none" stroke="midnightblue" d="M824.604,-118.403C846.421,-108.334 882.782,-91.5522 907.995,-79.9151"/>
<polygon fill="midnightblue" stroke="midnightblue" points="909.774,-82.9491 917.387,-75.5806 906.84,-76.5934 909.774,-82.9491"/>
</g>
<!-- Node19 -->
<g id="node20" class="node"><title>Node19</title>
<polygon fill="white" stroke="#bfbfbf" points="737.978,-56.5 737.978,-75.5 775.978,-75.5 775.978,-56.5 737.978,-56.5"/>
<text text-anchor="middle" x="756.978" y="-63.5" font-family="Helvetica,sans-Serif" font-size="10.00">map</text>
</g>
<!-- Node18&#45;&gt;Node19 -->
<g id="edge30" class="edge"><title>Node18&#45;&gt;Node19</title>
<path fill="none" stroke="midnightblue" d="M798.957,-118.403C791.535,-109.314 779.645,-94.7559 770.411,-83.4489"/>
<polygon fill="midnightblue" stroke="midnightblue" points="773.022,-81.1121 763.985,-75.5806 767.6,-85.5398 773.022,-81.1121"/>
</g>
<!-- Node20 -->
<g id="node21" class="node"><title>Node20</title>
<polygon fill="white" stroke="#bfbfbf" points="794.478,-56.5 794.478,-75.5 851.478,-75.5 851.478,-56.5 794.478,-56.5"/>
<text text-anchor="middle" x="822.978" y="-63.5" font-family="Helvetica,sans-Serif" font-size="10.00">ostream</text>
</g>
<!-- Node18&#45;&gt;Node20 -->
<g id="edge32" class="edge"><title>Node18&#45;&gt;Node20</title>
<path fill="none" stroke="midnightblue" d="M808.414,-118.403C810.837,-109.849 814.634,-96.4497 817.743,-85.4762"/>
<polygon fill="midnightblue" stroke="midnightblue" points="821.188,-86.156 820.547,-75.5806 814.453,-84.2477 821.188,-86.156"/>
</g>
<!-- Node21&#45;&gt;Node7 -->
<g id="edge38" class="edge"><title>Node21&#45;&gt;Node7</title>
<path fill="none" stroke="midnightblue" d="M947.914,-118.467C876.312,-106.015 745.125,-83.1995 684.401,-72.6388"/>
<polygon fill="midnightblue" stroke="midnightblue" points="684.705,-69.1392 674.253,-70.874 683.506,-76.0357 684.705,-69.1392"/>
</g>
<!-- Node21&#45;&gt;Node9 -->
<g id="edge40" class="edge"><title>Node21&#45;&gt;Node9</title>
<path fill="none" stroke="midnightblue" d="M1023.2,-118.403C1055,-107.978 1108.74,-90.3557 1144.3,-78.6992"/>
<polygon fill="midnightblue" stroke="midnightblue" points="1145.4,-82.022 1153.81,-75.5806 1143.21,-75.3704 1145.4,-82.022"/>
</g>
<!-- Node21&#45;&gt;Node14 -->
<g id="edge37" class="edge"><title>Node21&#45;&gt;Node14</title>
<path fill="none" stroke="midnightblue" d="M995.417,-118.069C992.449,-103.455 984.731,-74.2397 967.978,-56 953.483,-40.2187 932.19,-29.126 914.181,-21.9028"/>
<polygon fill="midnightblue" stroke="midnightblue" points="915.169,-18.535 904.577,-18.2829 912.7,-25.0851 915.169,-18.535"/>
</g>
<!-- Node21&#45;&gt;Node16 -->
<g id="edge39" class="edge"><title>Node21&#45;&gt;Node16</title>
<path fill="none" stroke="midnightblue" d="M988.238,-118.403C978.816,-109.136 963.614,-94.1828 952.029,-82.7876"/>
<polygon fill="midnightblue" stroke="midnightblue" points="954.285,-80.0978 944.702,-75.5806 949.377,-85.0883 954.285,-80.0978"/>
</g>
<!-- Node21&#45;&gt;Node22 -->
<g id="edge41" class="edge"><title>Node21&#45;&gt;Node22</title>
<path fill="none" stroke="midnightblue" d="M946.231,-121.435C920.407,-118.605 888.521,-115.115 859.978,-112 712.873,-95.9471 675.998,-92.8157 528.978,-76 526.755,-75.7457 524.495,-75.4854 522.213,-75.2209"/>
<polygon fill="midnightblue" stroke="midnightblue" points="522.451,-71.7249 512.112,-74.0406 521.638,-78.6776 522.451,-71.7249"/>
</g>
<!-- Node22&#45;&gt;Node1 -->
<g id="edge42" class="edge"><title>Node22&#45;&gt;Node1</title>
<path fill="none" stroke="midnightblue" d="M440.161,-56.324C426.745,-47.9002 406.154,-34.9709 390.392,-25.0741"/>
<polygon fill="midnightblue" stroke="midnightblue" points="392.091,-22.0081 381.761,-19.6545 388.369,-27.9364 392.091,-22.0081"/>
</g>
<!-- Node22&#45;&gt;Node14 -->
<g id="edge43" class="edge"><title>Node22&#45;&gt;Node14</title>
<path fill="none" stroke="midnightblue" d="M512.318,-57.6048C602.235,-46.2068 771.933,-24.6959 845.031,-15.4299"/>
<polygon fill="midnightblue" stroke="midnightblue" points="845.614,-18.8842 855.094,-14.1543 844.733,-11.9397 845.614,-18.8842"/>
</g>
<!-- Node24 -->
<g id="node25" class="node"><title>Node24</title>
<polygon fill="white" stroke="#bfbfbf" points="1142.48,-113 1142.48,-143 1267.48,-143 1267.48,-113 1142.48,-113"/>
<text text-anchor="start" x="1150.48" y="-131" font-family="Helvetica,sans-Serif" font-size="10.00">../contrib/pa_ringbuffer</text>
<text text-anchor="middle" x="1204.98" y="-120" font-family="Helvetica,sans-Serif" font-size="10.00">/pa_ringbuffer.h</text>
</g>
<!-- Node23&#45;&gt;Node24 -->
<g id="edge46" class="edge"><title>Node23&#45;&gt;Node24</title>
<path fill="none" stroke="midnightblue" d="M1219.54,-180.403C1217.5,-173.189 1214.48,-162.528 1211.72,-152.782"/>
<polygon fill="midnightblue" stroke="midnightblue" points="1215.08,-151.808 1208.98,-143.141 1208.34,-153.716 1215.08,-151.808"/>
</g>
</g>
</svg>
        <g id="navigator" transform="translate(0 0)" fill="#404254">
                <rect fill="#f2f5e9" fill-opacity="0.5" stroke="#606060" stroke-width=".5" x="0" y="0" width="60" height="60"/>
                <use id="zoomplus" xlink:href="#zoomPlus" x="17" y="9" onmousedown="handleZoom(evt,'in')"/>
                <use id="zoomminus" xlink:href="#zoomMin" x="42" y="9" onmousedown="handleZoom(evt,'out')"/>
                <use id="reset" xlink:href="#resetDef" x="30" y="36" onmousedown="handleReset()"/>
                <g id="arrowUp" xlink:href="#dirArrow" transform="translate(30 24)" onmousedown="handlePan(0,-1)">
                  <use xlink:href="#rim" fill="#404040">
                        <set attributeName="fill" to="#808080" begin="arrowUp.mouseover" end="arrowUp.mouseout"/>
                  </use>
                  <path fill="none" stroke="white" stroke-width="1.5" d="M0,-3.0v7 M-2.5,-0.5L0,-3.0L2.5,-0.5"/>
                </g>
                <g id="arrowRight" xlink:href="#dirArrow" transform="rotate(90) translate(36 -43)" onmousedown="handlePan(1,0)">
                  <use xlink:href="#rim" fill="#404040">
                        <set attributeName="fill" to="#808080" begin="arrowRight.mouseover" end="arrowRight.mouseout"/>
                  </use>
                  <path fill="none" stroke="white" stroke-width="1.5" d="M0,-3.0v7 M-2.5,-0.5L0,-3.0L2.5,-0.5"/>
                </g>
                <g id="arrowDown" xlink:href="#dirArrow" transform="rotate(180) translate(-30 -48)" onmousedown="handlePan(0,1)">
                  <use xlink:href="#rim" fill="#404040">
                        <set attributeName="fill" to="#808080" begin="arrowDown.mouseover" end="arrowDown.mouseout"/>
                  </use>
                  <path fill="none" stroke="white" stroke-width="1.5" d="M0,-3.0v7 M-2.5,-0.5L0,-3.0L2.5,-0.5"/>
                </g>
                <g id="arrowLeft" xlink:href="#dirArrow" transform="rotate(270) translate(-36 17)" onmousedown="handlePan(-1,0)">
                  <use xlink:href="#rim" fill="#404040">
                        <set attributeName="fill" to="#808080" begin="arrowLeft.mouseover" end="arrowLeft.mouseout"/>
                  </use>
                  <path fill="none" stroke="white" stroke-width="1.5" d="M0,-3.0v7 M-2.5,-0.5L0,-3.0L2.5,-0.5"/>
                </g>
        </g>
        <svg viewBox="0 0 15 15" width="100%" height="30px" preserveAspectRatio="xMaxYMin meet">
         <g id="arrow_out" transform="scale(0.3 0.3)">
          <a xlink:href="audio__sink_8cpp__incl_org.svg" target="_base">
           <rect id="button" ry="5" rx="5" y="6" x="6" height="38" width="38"
                fill="#f2f5e9" fill-opacity="0.5" stroke="#606060" stroke-width="1.0"/>
           <path id="arrow"
             d="M 11.500037,31.436501 C 11.940474,20.09759 22.043105,11.32322 32.158766,21.979434 L 37.068811,17.246167 C 37.068811,17.246167 37.088388,32 37.088388,32 L 22.160133,31.978069 C 22.160133,31.978069 26.997745,27.140456 26.997745,27.140456 C 18.528582,18.264221 13.291696,25.230495 11.500037,31.436501 z"
             style="fill:#404040;"/>
          </a>
         </g>
        </svg>
</svg>
