<?xml version="1.0" encoding="UTF-8" standalone="no"?>
<!DOCTYPE svg PUBLIC "-//W3C//DTD SVG 1.1//EN"
 "http://www.w3.org/Graphics/SVG/1.1/DTD/svg11.dtd">
<!-- Generated by graphviz version 2.38.0 (20140413.2041)
 -->
<!-- Title: src/audio/audio.hpp Pages: 1 -->
<!--zoomable 196 -->
<svg id="main" version="1.1" xmlns="http://www.w3.org/2000/svg" xmlns:xlink="http://www.w3.org/1999/xlink" xml:space="preserve" onload="init(evt)">
<style type="text/css"><![CDATA[
.edge:hover path { stroke: red; }
.edge:hover polygon { stroke: red; fill: red; }
]]></style>
<script type="text/javascript"><![CDATA[
var edges = document.getElementsByTagName('g');
if (edges && edges.length) {
  for (var i=0;i<edges.length;i++) {
    if (edges[i].id.substr(0,4)=='edge') {
      edges[i].setAttribute('class','edge');
    }
  }
}
]]></script>
        <defs>
                <circle id="rim" cx="0" cy="0" r="7"/>
                <circle id="rim2" cx="0" cy="0" r="3.5"/>
                <g id="zoomPlus">
                        <use xlink:href="#rim" fill="#404040">
                                <set attributeName="fill" to="#808080" begin="zoomplus.mouseover" end="zoomplus.mouseout"/>
                        </use>
                        <path d="M-4,0h8M0,-4v8" fill="none" stroke="white" stroke-width="1.5" pointer-events="none"/>
                </g>
                <g id="zoomMin">
                        <use xlink:href="#rim" fill="#404040">
                                <set attributeName="fill" to="#808080" begin="zoomminus.mouseover" end="zoomminus.mouseout"/>
                        </use>
                        <path d="M-4,0h8" fill="none" stroke="white" stroke-width="1.5" pointer-events="none"/>
                </g>
                <g id="dirArrow">
                        <path fill="none" stroke="white" stroke-width="1.5" d="M0,-3.0v7 M-2.5,-0.5L0,-3.0L2.5,-0.5"/>
                </g>
               <g id="resetDef">
                       <use xlink:href="#rim2" fill="#404040">
                               <set attributeName="fill" to="#808080" begin="reset.mouseover" end="reset.mouseout"/>
                       </use>
               </g>
        </defs>

<script type="text/javascript">
var viewWidth = 786;
var viewHeight = 196;
var sectionId = 'dynsection-0';
</script>
<script xlink:href="svgpan.js"/>
<svg id="graph" class="graph">
<g id="viewport">
<title>src/audio/audio.hpp</title>
<polygon fill="white" stroke="none" points="-4,4 -4,-192 781.967,-192 781.967,4 -4,4"/>
<!-- Node1 -->
<g id="node1" class="node"><title>Node1</title>
<polygon fill="#bfbfbf" stroke="black" points="284.967,-168.5 284.967,-187.5 394.967,-187.5 394.967,-168.5 284.967,-168.5"/>
<text text-anchor="middle" x="339.967" y="-175.5" font-family="Helvetica,sans-Serif" font-size="10.00">src/audio/audio.hpp</text>
</g>
<!-- Node2 -->
<g id="node2" class="node"><title>Node2</title>
<polygon fill="white" stroke="#bfbfbf" points="143.467,-0.5 143.467,-19.5 192.467,-19.5 192.467,-0.5 143.467,-0.5"/>
<text text-anchor="middle" x="167.967" y="-7.5" font-family="Helvetica,sans-Serif" font-size="10.00">cstdint</text>
</g>
<!-- Node1&#45;&gt;Node2 -->
<g id="edge1" class="edge"><title>Node1&#45;&gt;Node2</title>
<path fill="none" stroke="midnightblue" d="M284.619,-168.852C197.949,-154.773 36.8774,-122.83 5.96687,-76 -25.3996,-28.4792 76.5427,-15.6998 133.007,-12.2636"/>
<polygon fill="midnightblue" stroke="midnightblue" points="133.512,-15.7415 143.309,-11.7088 133.136,-8.75163 133.512,-15.7415"/>
</g>
<!-- Node3 -->
<g id="node3" class="node"><title>Node3</title>
<polygon fill="white" stroke="#bfbfbf" points="368.467,-112.5 368.467,-131.5 425.467,-131.5 425.467,-112.5 368.467,-112.5"/>
<text text-anchor="middle" x="396.967" y="-119.5" font-family="Helvetica,sans-Serif" font-size="10.00">memory</text>
</g>
<!-- Node1&#45;&gt;Node3 -->
<g id="edge2" class="edge"><title>Node1&#45;&gt;Node3</title>
<path fill="none" stroke="midnightblue" d="M349.125,-168.324C357.468,-160.42 369.999,-148.548 380.144,-138.938"/>
<polygon fill="midnightblue" stroke="midnightblue" points="382.79,-141.252 387.642,-131.834 377.976,-136.171 382.79,-141.252"/>
</g>
<!-- Node4 -->
<g id="node4" class="node"><title>Node4</title>
<polygon fill="white" stroke="#bfbfbf" points="136.967,-56.5 136.967,-75.5 180.967,-75.5 180.967,-56.5 136.967,-56.5"/>
<text text-anchor="middle" x="158.967" y="-63.5" font-family="Helvetica,sans-Serif" font-size="10.00">string</text>
</g>
<!-- Node1&#45;&gt;Node4 -->
<g id="edge3" class="edge"><title>Node1&#45;&gt;Node4</title>
<path fill="none" stroke="midnightblue" d="M286.092,-168.495C258.493,-162.048 225.606,-150.931 200.967,-132 185.021,-119.749 173.364,-99.6044 166.432,-84.9844"/>
<polygon fill="midnightblue" stroke="midnightblue" points="169.481,-83.2272 162.225,-75.5069 163.083,-86.067 169.481,-83.2272"/>
</g>
<!-- Node5 -->
<g id="node5" class="node"><title>Node5</title>
<polygon fill="white" stroke="#bfbfbf" points="443.967,-112.5 443.967,-131.5 485.967,-131.5 485.967,-112.5 443.967,-112.5"/>
<text text-anchor="middle" x="464.967" y="-119.5" font-family="Helvetica,sans-Serif" font-size="10.00">utility</text>
</g>
<!-- Node1&#45;&gt;Node5 -->
<g id="edge4" class="edge"><title>Node1&#45;&gt;Node5</title>
<path fill="none" stroke="midnightblue" d="M359.773,-168.444C380.254,-159.596 412.45,-145.687 435.832,-135.586"/>
<polygon fill="midnightblue" stroke="midnightblue" points="437.461,-138.695 445.253,-131.516 434.685,-132.269 437.461,-138.695"/>
</g>
<!-- Node6 -->
<g id="node6" class="node"><title>Node6</title>
<polygon fill="white" stroke="#bfbfbf" points="592.467,-56.5 592.467,-75.5 639.467,-75.5 639.467,-56.5 592.467,-56.5"/>
<text text-anchor="middle" x="615.967" y="-63.5" font-family="Helvetica,sans-Serif" font-size="10.00">vector</text>
</g>
<!-- Node1&#45;&gt;Node6 -->
<g id="edge5" class="edge"><title>Node1&#45;&gt;Node6</title>
<path fill="none" stroke="midnightblue" d="M339.772,-168.322C339.966,-154.221 342.563,-126.461 358.967,-112 432.56,-47.123 481.899,-94.5679 582.391,-76.0003"/>
<polygon fill="midnightblue" stroke="midnightblue" points="583.175,-79.4126 592.278,-73.9914 581.781,-72.5527 583.175,-79.4126"/>
</g>
<!-- Node7 -->
<g id="node7" class="node"><title>Node7</title>
<polygon fill="white" stroke="#bfbfbf" points="504.467,-112.5 504.467,-131.5 575.467,-131.5 575.467,-112.5 504.467,-112.5"/>
<text text-anchor="middle" x="539.967" y="-119.5" font-family="Helvetica,sans-Serif" font-size="10.00">portaudio.h</text>
</g>
<!-- Node1&#45;&gt;Node7 -->
<g id="edge6" class="edge"><title>Node1&#45;&gt;Node7</title>
<path fill="none" stroke="midnightblue" d="M371.657,-168.444C406.035,-159.162 461.044,-144.309 498.756,-134.127"/>
<polygon fill="midnightblue" stroke="midnightblue" points="499.683,-137.502 508.425,-131.516 497.858,-130.744 499.683,-137.502"/>
</g>
<!-- Node8 -->
<g id="node8" class="node"><title>Node8</title>
<polygon fill="white" stroke="#bfbfbf" points="593.967,-112.5 593.967,-131.5 777.967,-131.5 777.967,-112.5 593.967,-112.5"/>
<text text-anchor="middle" x="685.967" y="-119.5" font-family="Helvetica,sans-Serif" font-size="10.00">portaudiocpp/CallbackInterface.hxx</text>
</g>
<!-- Node1&#45;&gt;Node8 -->
<g id="edge7" class="edge"><title>Node1&#45;&gt;Node8</title>
<path fill="none" stroke="midnightblue" d="M394.792,-168.444C456.289,-158.846 555.95,-143.292 621.228,-133.104"/>
<polygon fill="midnightblue" stroke="midnightblue" points="622.058,-136.517 631.399,-131.516 620.979,-129.6 622.058,-136.517"/>
</g>
<!-- Node9 -->
<g id="node9" class="node"><title>Node9</title>
<g id="a_node9"><a xlink:href="time__parser_8hpp.html" target="_top" xlink:title="Declaration of the TimeParser class. ">
<polygon fill="white" stroke="black" points="14.9669,-56.5 14.9669,-75.5 118.967,-75.5 118.967,-56.5 14.9669,-56.5"/>
<text text-anchor="middle" x="66.9669" y="-63.5" font-family="Helvetica,sans-Serif" font-size="10.00">../time_parser.hpp</text>
</a>
</g>
</g>
<!-- Node1&#45;&gt;Node9 -->
<g id="edge8" class="edge"><title>Node1&#45;&gt;Node9</title>
<path fill="none" stroke="midnightblue" d="M298.638,-168.492C265.527,-160.959 218.276,-148.582 178.967,-132 145.617,-117.931 109.917,-95.8495 88.0126,-81.3979"/>
<polygon fill="midnightblue" stroke="midnightblue" points="89.7753,-78.3662 79.517,-75.7172 85.8843,-84.1852 89.7753,-78.3662"/>
</g>
<!-- Node10 -->
<g id="node10" class="node"><title>Node10</title>
<g id="a_node10"><a xlink:href="audio__source_8hpp.html" target="_top" xlink:title="Declaration of the AudioSource class. ">
<polygon fill="white" stroke="black" points="210.467,-112.5 210.467,-131.5 311.467,-131.5 311.467,-112.5 210.467,-112.5"/>
<text text-anchor="middle" x="260.967" y="-119.5" font-family="Helvetica,sans-Serif" font-size="10.00">audio_source.hpp</text>
</a>
</g>
</g>
<!-- Node1&#45;&gt;Node10 -->
<g id="edge10" class="edge"><title>Node1&#45;&gt;Node10</title>
<path fill="none" stroke="midnightblue" d="M327.274,-168.324C315.066,-159.979 296.388,-147.212 281.964,-137.352"/>
<polygon fill="midnightblue" stroke="midnightblue" points="283.859,-134.408 273.628,-131.655 279.909,-140.187 283.859,-134.408"/>
</g>
<!-- Node9&#45;&gt;Node2 -->
<g id="edge9" class="edge"><title>Node9&#45;&gt;Node2</title>
<path fill="none" stroke="midnightblue" d="M83.1943,-56.324C99.3179,-47.7034 124.267,-34.3643 142.931,-24.3855"/>
<polygon fill="midnightblue" stroke="midnightblue" points="144.611,-27.456 151.78,-19.6545 141.311,-21.283 144.611,-27.456"/>
</g>
<!-- Node10&#45;&gt;Node2 -->
<g id="edge12" class="edge"><title>Node10&#45;&gt;Node2</title>
<path fill="none" stroke="midnightblue" d="M261.767,-112.101C262.507,-98.6663 262.041,-72.9742 249.967,-56 238.479,-39.8497 219.308,-28.8707 202.389,-21.803"/>
<polygon fill="midnightblue" stroke="midnightblue" points="203.353,-18.4232 192.764,-18.084 200.83,-24.9528 203.353,-18.4232"/>
</g>
<!-- Node10&#45;&gt;Node4 -->
<g id="edge13" class="edge"><title>Node10&#45;&gt;Node4</title>
<path fill="none" stroke="midnightblue" d="M244.579,-112.324C228.296,-103.703 203.099,-90.3643 184.251,-80.3855"/>
<polygon fill="midnightblue" stroke="midnightblue" points="185.79,-77.2402 175.314,-75.6545 182.515,-83.4267 185.79,-77.2402"/>
</g>
<!-- Node10&#45;&gt;Node6 -->
<g id="edge14" class="edge"><title>Node10&#45;&gt;Node6</title>
<path fill="none" stroke="midnightblue" d="M311.516,-114.002C391.354,-102.943 541.217,-82.1624 582.26,-75.7497"/>
<polygon fill="midnightblue" stroke="midnightblue" points="583.017,-79.1713 592.29,-74.0457 581.845,-72.2702 583.017,-79.1713"/>
</g>
<!-- Node10&#45;&gt;Node9 -->
<g id="edge21" class="edge"><title>Node10&#45;&gt;Node9</title>
<path fill="none" stroke="midnightblue" d="M230.227,-112.444C197.023,-103.201 143.976,-88.4356 107.409,-78.2572"/>
<polygon fill="midnightblue" stroke="midnightblue" points="108.135,-74.8262 97.5629,-75.5164 106.258,-81.5699 108.135,-74.8262"/>
</g>
<!-- Node11 -->
<g id="node11" class="node"><title>Node11</title>
<polygon fill="white" stroke="#bfbfbf" points="533.467,-56.5 533.467,-75.5 574.467,-75.5 574.467,-56.5 533.467,-56.5"/>
<text text-anchor="middle" x="553.967" y="-63.5" font-family="Helvetica,sans-Serif" font-size="10.00">array</text>
</g>
<!-- Node10&#45;&gt;Node11 -->
<g id="edge11" class="edge"><title>Node10&#45;&gt;Node11</title>
<path fill="none" stroke="midnightblue" d="M311.648,-113.179C372.378,-103.675 471.554,-87.6996 523.442,-76.0687"/>
<polygon fill="midnightblue" stroke="midnightblue" points="524.522,-79.4108 533.465,-73.7302 522.931,-72.5939 524.522,-79.4108"/>
</g>
<!-- Node12 -->
<g id="node12" class="node"><title>Node12</title>
<polygon fill="white" stroke="#bfbfbf" points="198.967,-56.5 198.967,-75.5 240.967,-75.5 240.967,-56.5 198.967,-56.5"/>
<text text-anchor="middle" x="219.967" y="-63.5" font-family="Helvetica,sans-Serif" font-size="10.00">sox.h</text>
</g>
<!-- Node10&#45;&gt;Node12 -->
<g id="edge15" class="edge"><title>Node10&#45;&gt;Node12</title>
<path fill="none" stroke="midnightblue" d="M254.197,-112.083C248.405,-104.455 239.908,-93.2645 232.829,-83.9408"/>
<polygon fill="midnightblue" stroke="midnightblue" points="235.446,-81.5991 226.611,-75.7511 229.871,-85.8321 235.446,-81.5991"/>
</g>
<!-- Node13 -->
<g id="node13" class="node"><title>Node13</title>
<g id="a_node13"><a xlink:href="errors_8hpp.html" target="_top" xlink:title="Declarations of the playd Error exception set. ">
<polygon fill="white" stroke="black" points="440.467,-56.5 440.467,-75.5 515.467,-75.5 515.467,-56.5 440.467,-56.5"/>
<text text-anchor="middle" x="477.967" y="-63.5" font-family="Helvetica,sans-Serif" font-size="10.00">../errors.hpp</text>
</a>
</g>
</g>
<!-- Node10&#45;&gt;Node13 -->
<g id="edge16" class="edge"><title>Node10&#45;&gt;Node13</title>
<path fill="none" stroke="midnightblue" d="M295.351,-112.444C332.889,-103.102 393.098,-88.1194 434.034,-77.9326"/>
<polygon fill="midnightblue" stroke="midnightblue" points="434.885,-81.3278 443.743,-75.5164 433.194,-74.5349 434.885,-81.3278"/>
</g>
<!-- Node16 -->
<g id="node16" class="node"><title>Node16</title>
<g id="a_node16"><a xlink:href="sample__formats_8hpp.html" target="_top" xlink:title="The SampleFormat enumeration. ">
<polygon fill="white" stroke="black" points="297.467,-56.5 297.467,-75.5 422.467,-75.5 422.467,-56.5 297.467,-56.5"/>
<text text-anchor="middle" x="359.967" y="-63.5" font-family="Helvetica,sans-Serif" font-size="10.00">../sample_formats.hpp</text>
</a>
</g>
</g>
<!-- Node10&#45;&gt;Node16 -->
<g id="edge19" class="edge"><title>Node10&#45;&gt;Node16</title>
<path fill="none" stroke="midnightblue" d="M276.873,-112.324C292.605,-103.743 316.909,-90.486 335.176,-80.5224"/>
<polygon fill="midnightblue" stroke="midnightblue" points="336.997,-83.5157 344.1,-75.6545 333.645,-77.3704 336.997,-83.5157"/>
</g>
<!-- Node14 -->
<g id="node14" class="node"><title>Node14</title>
<polygon fill="white" stroke="#bfbfbf" points="410.467,-0.5 410.467,-19.5 469.467,-19.5 469.467,-0.5 410.467,-0.5"/>
<text text-anchor="middle" x="439.967" y="-7.5" font-family="Helvetica,sans-Serif" font-size="10.00">iostream</text>
</g>
<!-- Node13&#45;&gt;Node14 -->
<g id="edge17" class="edge"><title>Node13&#45;&gt;Node14</title>
<path fill="none" stroke="midnightblue" d="M471.692,-56.083C466.324,-48.4554 458.449,-37.2645 451.888,-27.9408"/>
<polygon fill="midnightblue" stroke="midnightblue" points="454.742,-25.9149 446.125,-19.7511 449.018,-29.9434 454.742,-25.9149"/>
</g>
<!-- Node15 -->
<g id="node15" class="node"><title>Node15</title>
<polygon fill="white" stroke="#bfbfbf" points="487.967,-0.5 487.967,-19.5 543.967,-19.5 543.967,-0.5 487.967,-0.5"/>
<text text-anchor="middle" x="515.967" y="-7.5" font-family="Helvetica,sans-Serif" font-size="10.00">sstream</text>
</g>
<!-- Node13&#45;&gt;Node15 -->
<g id="edge18" class="edge"><title>Node13&#45;&gt;Node15</title>
<path fill="none" stroke="midnightblue" d="M484.242,-56.083C489.609,-48.4554 497.484,-37.2645 504.046,-27.9408"/>
<polygon fill="midnightblue" stroke="midnightblue" points="506.916,-29.9434 509.809,-19.7511 501.191,-25.9149 506.916,-29.9434"/>
</g>
<!-- Node16&#45;&gt;Node2 -->
<g id="edge20" class="edge"><title>Node16&#45;&gt;Node2</title>
<path fill="none" stroke="midnightblue" d="M329.544,-56.4435C294.942,-46.7118 238.568,-30.8567 202.387,-20.6807"/>
<polygon fill="midnightblue" stroke="midnightblue" points="203.327,-17.3092 192.753,-17.971 201.431,-24.0478 203.327,-17.3092"/>
</g>
</g>
</svg>
        <g id="navigator" transform="translate(0 0)" fill="#404254">
                <rect fill="#f2f5e9" fill-opacity="0.5" stroke="#606060" stroke-width=".5" x="0" y="0" width="60" height="60"/>
                <use id="zoomplus" xlink:href="#zoomPlus" x="17" y="9" onmousedown="handleZoom(evt,'in')"/>
                <use id="zoomminus" xlink:href="#zoomMin" x="42" y="9" onmousedown="handleZoom(evt,'out')"/>
                <use id="reset" xlink:href="#resetDef" x="30" y="36" onmousedown="handleReset()"/>
                <g id="arrowUp" xlink:href="#dirArrow" transform="translate(30 24)" onmousedown="handlePan(0,-1)">
                  <use xlink:href="#rim" fill="#404040">
                        <set attributeName="fill" to="#808080" begin="arrowUp.mouseover" end="arrowUp.mouseout"/>
                  </use>
                  <path fill="none" stroke="white" stroke-width="1.5" d="M0,-3.0v7 M-2.5,-0.5L0,-3.0L2.5,-0.5"/>
                </g>
                <g id="arrowRight" xlink:href="#dirArrow" transform="rotate(90) translate(36 -43)" onmousedown="handlePan(1,0)">
                  <use xlink:href="#rim" fill="#404040">
                        <set attributeName="fill" to="#808080" begin="arrowRight.mouseover" end="arrowRight.mouseout"/>
                  </use>
                  <path fill="none" stroke="white" stroke-width="1.5" d="M0,-3.0v7 M-2.5,-0.5L0,-3.0L2.5,-0.5"/>
                </g>
                <g id="arrowDown" xlink:href="#dirArrow" transform="rotate(180) translate(-30 -48)" onmousedown="handlePan(0,1)">
                  <use xlink:href="#rim" fill="#404040">
                        <set attributeName="fill" to="#808080" begin="arrowDown.mouseover" end="arrowDown.mouseout"/>
                  </use>
                  <path fill="none" stroke="white" stroke-width="1.5" d="M0,-3.0v7 M-2.5,-0.5L0,-3.0L2.5,-0.5"/>
                </g>
                <g id="arrowLeft" xlink:href="#dirArrow" transform="rotate(270) translate(-36 17)" onmousedown="handlePan(-1,0)">
                  <use xlink:href="#rim" fill="#404040">
                        <set attributeName="fill" to="#808080" begin="arrowLeft.mouseover" end="arrowLeft.mouseout"/>
                  </use>
                  <path fill="none" stroke="white" stroke-width="1.5" d="M0,-3.0v7 M-2.5,-0.5L0,-3.0L2.5,-0.5"/>
                </g>
        </g>
        <svg viewBox="0 0 15 15" width="100%" height="30px" preserveAspectRatio="xMaxYMin meet">
         <g id="arrow_out" transform="scale(0.3 0.3)">
          <a xlink:href="audio_8hpp__incl_org.svg" target="_base">
           <rect id="button" ry="5" rx="5" y="6" x="6" height="38" width="38"
                fill="#f2f5e9" fill-opacity="0.5" stroke="#606060" stroke-width="1.0"/>
           <path id="arrow"
             d="M 11.500037,31.436501 C 11.940474,20.09759 22.043105,11.32322 32.158766,21.979434 L 37.068811,17.246167 C 37.068811,17.246167 37.088388,32 37.088388,32 L 22.160133,31.978069 C 22.160133,31.978069 26.997745,27.140456 26.997745,27.140456 C 18.528582,18.264221 13.291696,25.230495 11.500037,31.436501 z"
             style="fill:#404040;"/>
          </a>
         </g>
        </svg>
</svg>
