<?xml version="1.0" encoding="UTF-8" standalone="no"?>
<!DOCTYPE svg PUBLIC "-//W3C//DTD SVG 1.1//EN"
 "http://www.w3.org/Graphics/SVG/1.1/DTD/svg11.dtd">
<!-- Generated by graphviz version 2.38.0 (20140413.2041)
 -->
<!-- Title: src/audio/audio_sink.hpp Pages: 1 -->
<svg width="1046pt" height="476pt"
 viewBox="0.00 0.00 1045.50 476.00" xmlns="http://www.w3.org/2000/svg" xmlns:xlink="http://www.w3.org/1999/xlink">
<g id="graph0" class="graph" transform="scale(1 1) rotate(0) translate(4 472)">
<title>src/audio/audio_sink.hpp</title>
<polygon fill="white" stroke="none" points="-4,4 -4,-472 1041.5,-472 1041.5,4 -4,4"/>
<!-- Node1 -->
<g id="node1" class="node"><title>Node1</title>
<polygon fill="#bfbfbf" stroke="black" points="172,-448.5 172,-467.5 305,-467.5 305,-448.5 172,-448.5"/>
<text text-anchor="middle" x="238.5" y="-455.5" font-family="Helvetica,sans-Serif" font-size="10.00">src/audio/audio_sink.hpp</text>
</g>
<!-- Node2 -->
<g id="node2" class="node"><title>Node2</title>
<g id="a_node2"><a xlink:href="audio_8cpp.html" target="_top" xlink:title="Implementation of the Audio class. ">
<polygon fill="white" stroke="black" points="0,-392.5 0,-411.5 107,-411.5 107,-392.5 0,-392.5"/>
<text text-anchor="middle" x="53.5" y="-399.5" font-family="Helvetica,sans-Serif" font-size="10.00">src/audio/audio.cpp</text>
</a>
</g>
</g>
<!-- Node1&#45;&gt;Node2 -->
<g id="edge1" class="edge"><title>Node1&#45;&gt;Node2</title>
<path fill="none" stroke="midnightblue" d="M199.334,-445.568C164.435,-435.381 114.151,-420.703 82.6767,-411.516"/>
<polygon fill="midnightblue" stroke="midnightblue" points="198.606,-449.001 209.186,-448.444 200.567,-442.282 198.606,-449.001"/>
</g>
<!-- Node3 -->
<g id="node3" class="node"><title>Node3</title>
<g id="a_node3"><a xlink:href="audio__sink_8cpp.html" target="_top" xlink:title="Implementation of the AudioSink class. ">
<polygon fill="white" stroke="black" points="125.5,-392.5 125.5,-411.5 257.5,-411.5 257.5,-392.5 125.5,-392.5"/>
<text text-anchor="middle" x="191.5" y="-399.5" font-family="Helvetica,sans-Serif" font-size="10.00">src/audio/audio_sink.cpp</text>
</a>
</g>
</g>
<!-- Node1&#45;&gt;Node3 -->
<g id="edge2" class="edge"><title>Node1&#45;&gt;Node3</title>
<path fill="none" stroke="midnightblue" d="M224.079,-440.431C215.842,-430.967 205.846,-419.483 199.117,-411.751"/>
<polygon fill="midnightblue" stroke="midnightblue" points="221.534,-442.838 230.739,-448.083 226.814,-438.242 221.534,-442.838"/>
</g>
<!-- Node4 -->
<g id="node4" class="node"><title>Node4</title>
<g id="a_node4"><a xlink:href="audio__system_8cpp.html" target="_top" xlink:title="Implementation of the PaSoxAudioSystem class. ">
<polygon fill="white" stroke="black" points="71.5,-336.5 71.5,-355.5 217.5,-355.5 217.5,-336.5 71.5,-336.5"/>
<text text-anchor="middle" x="144.5" y="-343.5" font-family="Helvetica,sans-Serif" font-size="10.00">src/audio/audio_system.cpp</text>
</a>
</g>
</g>
<!-- Node1&#45;&gt;Node4 -->
<g id="edge3" class="edge"><title>Node1&#45;&gt;Node4</title>
<path fill="none" stroke="midnightblue" d="M254.185,-440.77C265.505,-427.027 277.089,-407.193 266.5,-392 253.204,-372.924 230.857,-361.913 208.896,-355.566"/>
<polygon fill="midnightblue" stroke="midnightblue" points="251.393,-438.643 247.372,-448.445 256.628,-443.29 251.393,-438.643"/>
</g>
<!-- Node5 -->
<g id="node5" class="node"><title>Node5</title>
<g id="a_node5"><a xlink:href="audio__system_8hpp.html" target="_top" xlink:title="Declaration of the AudioSystem class. ">
<polygon fill="white" stroke="black" points="455,-392.5 455,-411.5 602,-411.5 602,-392.5 455,-392.5"/>
<text text-anchor="middle" x="528.5" y="-399.5" font-family="Helvetica,sans-Serif" font-size="10.00">src/audio/audio_system.hpp</text>
</a>
</g>
</g>
<!-- Node1&#45;&gt;Node5 -->
<g id="edge4" class="edge"><title>Node1&#45;&gt;Node5</title>
<path fill="none" stroke="midnightblue" d="M294.348,-446.601C349.155,-436.395 431.732,-421.019 482.764,-411.516"/>
<polygon fill="midnightblue" stroke="midnightblue" points="293.642,-443.172 284.451,-448.444 294.923,-450.054 293.642,-443.172"/>
</g>
<!-- Node5&#45;&gt;Node4 -->
<g id="edge5" class="edge"><title>Node5&#45;&gt;Node4</title>
<path fill="none" stroke="midnightblue" d="M457.688,-391.042C385.163,-380.843 273.616,-365.157 205.061,-355.516"/>
<polygon fill="midnightblue" stroke="midnightblue" points="457.264,-394.517 467.654,-392.444 458.239,-387.585 457.264,-394.517"/>
</g>
<!-- Node6 -->
<g id="node6" class="node"><title>Node6</title>
<g id="a_node6"><a xlink:href="player__file_8hpp.html" target="_top" xlink:title="Declaration of the PlayerFile class, and associated types. ">
<polygon fill="white" stroke="black" points="461,-336.5 461,-355.5 596,-355.5 596,-336.5 461,-336.5"/>
<text text-anchor="middle" x="528.5" y="-343.5" font-family="Helvetica,sans-Serif" font-size="10.00">src/player/player_file.hpp</text>
</a>
</g>
</g>
<!-- Node5&#45;&gt;Node6 -->
<g id="edge6" class="edge"><title>Node5&#45;&gt;Node6</title>
<path fill="none" stroke="midnightblue" d="M528.5,-381.805C528.5,-372.91 528.5,-362.78 528.5,-355.751"/>
<polygon fill="midnightblue" stroke="midnightblue" points="525,-382.083 528.5,-392.083 532,-382.083 525,-382.083"/>
</g>
<!-- Node12 -->
<g id="node12" class="node"><title>Node12</title>
<g id="a_node12"><a xlink:href="main_8cpp.html" target="_top" xlink:title="Main entry point and implementation of the playd class. ">
<polygon fill="white" stroke="black" points="814.5,-0.5 814.5,-19.5 890.5,-19.5 890.5,-0.5 814.5,-0.5"/>
<text text-anchor="middle" x="852.5" y="-7.5" font-family="Helvetica,sans-Serif" font-size="10.00">src/main.cpp</text>
</a>
</g>
</g>
<!-- Node5&#45;&gt;Node12 -->
<g id="edge32" class="edge"><title>Node5&#45;&gt;Node12</title>
<path fill="none" stroke="midnightblue" d="M612.406,-399.966C756.934,-395.891 1037.5,-376.916 1037.5,-291 1037.5,-291 1037.5,-291 1037.5,-121 1037.5,-53.3662 945.02,-26.3826 890.832,-16.3769"/>
<polygon fill="midnightblue" stroke="midnightblue" points="612.145,-396.472 602.241,-400.234 612.33,-403.469 612.145,-396.472"/>
</g>
<!-- Node13 -->
<g id="node13" class="node"><title>Node13</title>
<g id="a_node13"><a xlink:href="main_8hpp.html" target="_top" xlink:title="Declaration of the playd class. ">
<polygon fill="white" stroke="black" points="330,-56.5 330,-75.5 407,-75.5 407,-56.5 330,-56.5"/>
<text text-anchor="middle" x="368.5" y="-63.5" font-family="Helvetica,sans-Serif" font-size="10.00">src/main.hpp</text>
</a>
</g>
</g>
<!-- Node5&#45;&gt;Node13 -->
<g id="edge33" class="edge"><title>Node5&#45;&gt;Node13</title>
<path fill="none" stroke="midnightblue" d="M469.797,-390.479C386.896,-373.922 245.5,-338.693 245.5,-291 245.5,-291 245.5,-291 245.5,-177 245.5,-124.145 309.388,-90.3398 345.075,-75.5798"/>
<polygon fill="midnightblue" stroke="midnightblue" points="469.364,-393.96 479.851,-392.452 470.712,-387.091 469.364,-393.96"/>
</g>
<!-- Node16 -->
<g id="node16" class="node"><title>Node16</title>
<g id="a_node16"><a xlink:href="player_8cpp.html" target="_top" xlink:title="Main implementation file for the Player class. ">
<polygon fill="white" stroke="black" points="894,-224.5 894,-243.5 1009,-243.5 1009,-224.5 894,-224.5"/>
<text text-anchor="middle" x="951.5" y="-231.5" font-family="Helvetica,sans-Serif" font-size="10.00">src/player/player.cpp</text>
</a>
</g>
</g>
<!-- Node5&#45;&gt;Node16 -->
<g id="edge34" class="edge"><title>Node5&#45;&gt;Node16</title>
<path fill="none" stroke="midnightblue" d="M559.854,-388.696C641.659,-356.593 860.05,-270.888 929.779,-243.524"/>
<polygon fill="midnightblue" stroke="midnightblue" points="558.382,-385.513 550.352,-392.425 560.939,-392.03 558.382,-385.513"/>
</g>
<!-- Node19 -->
<g id="node19" class="node"><title>Node19</title>
<g id="a_node19"><a xlink:href="player__file_8cpp.html" target="_top" xlink:title="Implementation of the PlayerFile class, and associated types. ">
<polygon fill="white" stroke="black" points="604.5,-280.5 604.5,-299.5 738.5,-299.5 738.5,-280.5 604.5,-280.5"/>
<text text-anchor="middle" x="671.5" y="-287.5" font-family="Helvetica,sans-Serif" font-size="10.00">src/player/player_file.cpp</text>
</a>
</g>
</g>
<!-- Node5&#45;&gt;Node19 -->
<g id="edge35" class="edge"><title>Node5&#45;&gt;Node19</title>
<path fill="none" stroke="midnightblue" d="M554.772,-387.763C570.155,-379.505 589.616,-368.158 605.5,-356 628.742,-338.209 652.295,-312.862 663.97,-299.694"/>
<polygon fill="midnightblue" stroke="midnightblue" points="553.011,-384.734 545.789,-392.486 556.269,-390.93 553.011,-384.734"/>
</g>
<!-- Node7 -->
<g id="node7" class="node"><title>Node7</title>
<g id="a_node7"><a xlink:href="player_8hpp.html" target="_top" xlink:title="Declaration of the Player class, and associated types. ">
<polygon fill="white" stroke="black" points="470.5,-280.5 470.5,-299.5 586.5,-299.5 586.5,-280.5 470.5,-280.5"/>
<text text-anchor="middle" x="528.5" y="-287.5" font-family="Helvetica,sans-Serif" font-size="10.00">src/player/player.hpp</text>
</a>
</g>
</g>
<!-- Node6&#45;&gt;Node7 -->
<g id="edge7" class="edge"><title>Node6&#45;&gt;Node7</title>
<path fill="none" stroke="midnightblue" d="M528.5,-325.805C528.5,-316.91 528.5,-306.78 528.5,-299.751"/>
<polygon fill="midnightblue" stroke="midnightblue" points="525,-326.083 528.5,-336.083 532,-326.083 525,-326.083"/>
</g>
<!-- Node6&#45;&gt;Node13 -->
<g id="edge30" class="edge"><title>Node6&#45;&gt;Node13</title>
<path fill="none" stroke="midnightblue" d="M450.948,-341.664C379.174,-333.912 283.5,-309.589 283.5,-235 283.5,-235 283.5,-235 283.5,-177 283.5,-130.903 330.816,-92.3593 354.843,-75.758"/>
<polygon fill="midnightblue" stroke="midnightblue" points="450.607,-345.147 460.904,-342.651 451.298,-338.181 450.607,-345.147"/>
</g>
<!-- Node6&#45;&gt;Node19 -->
<g id="edge31" class="edge"><title>Node6&#45;&gt;Node19</title>
<path fill="none" stroke="midnightblue" d="M560.527,-332.906C587.412,-322.754 625.141,-308.506 648.947,-299.516"/>
<polygon fill="midnightblue" stroke="midnightblue" points="559.278,-329.636 551.159,-336.444 561.75,-336.185 559.278,-329.636"/>
</g>
<!-- Node8 -->
<g id="node8" class="node"><title>Node8</title>
<g id="a_node8"><a xlink:href="cmd_8hpp.html" target="_top" xlink:title="Declaration of the CommandHandler class. ">
<polygon fill="white" stroke="black" points="725.5,-224.5 725.5,-243.5 799.5,-243.5 799.5,-224.5 725.5,-224.5"/>
<text text-anchor="middle" x="762.5" y="-231.5" font-family="Helvetica,sans-Serif" font-size="10.00">src/cmd.hpp</text>
</a>
</g>
</g>
<!-- Node7&#45;&gt;Node8 -->
<g id="edge8" class="edge"><title>Node7&#45;&gt;Node8</title>
<path fill="none" stroke="midnightblue" d="M575.504,-278.153C619.717,-267.95 685.016,-252.881 725.595,-243.516"/>
<polygon fill="midnightblue" stroke="midnightblue" points="574.535,-274.784 565.578,-280.444 576.109,-281.605 574.535,-274.784"/>
</g>
<!-- Node10 -->
<g id="node10" class="node"><title>Node10</title>
<g id="a_node10"><a xlink:href="io__core_8cpp.html" target="_top" xlink:title="Implementation of the non&#45;virtual aspects of the IoCore class. ">
<polygon fill="white" stroke="black" points="724.5,-56.5 724.5,-75.5 824.5,-75.5 824.5,-56.5 724.5,-56.5"/>
<text text-anchor="middle" x="774.5" y="-63.5" font-family="Helvetica,sans-Serif" font-size="10.00">src/io/io_core.cpp</text>
</a>
</g>
</g>
<!-- Node7&#45;&gt;Node10 -->
<g id="edge23" class="edge"><title>Node7&#45;&gt;Node10</title>
<path fill="none" stroke="midnightblue" d="M596.578,-279.161C678.342,-267.185 805.047,-248.053 808.5,-244 851.931,-193.032 798.992,-103.59 780.452,-75.6137"/>
<polygon fill="midnightblue" stroke="midnightblue" points="595.982,-275.711 586.594,-280.621 596.995,-282.637 595.982,-275.711"/>
</g>
<!-- Node11 -->
<g id="node11" class="node"><title>Node11</title>
<g id="a_node11"><a xlink:href="io__core_8hpp.html" target="_top" xlink:title="Declaration of the IoCore class. ">
<polygon fill="white" stroke="black" points="458,-112.5 458,-131.5 559,-131.5 559,-112.5 458,-112.5"/>
<text text-anchor="middle" x="508.5" y="-119.5" font-family="Helvetica,sans-Serif" font-size="10.00">src/io/io_core.hpp</text>
</a>
</g>
</g>
<!-- Node7&#45;&gt;Node11 -->
<g id="edge24" class="edge"><title>Node7&#45;&gt;Node11</title>
<path fill="none" stroke="midnightblue" d="M460.145,-286.094C430.085,-280.984 397.383,-269.379 378.5,-244 342.242,-195.268 438.77,-149.884 485.19,-131.553"/>
<polygon fill="midnightblue" stroke="midnightblue" points="459.808,-289.582 470.214,-287.588 460.836,-282.658 459.808,-289.582"/>
</g>
<!-- Node7&#45;&gt;Node12 -->
<g id="edge25" class="edge"><title>Node7&#45;&gt;Node12</title>
<path fill="none" stroke="midnightblue" d="M596.615,-279.773C683.593,-267.845 823.443,-248.111 827.5,-244 890.366,-180.291 863.644,-54.0054 854.885,-19.7475"/>
<polygon fill="midnightblue" stroke="midnightblue" points="595.977,-276.328 586.544,-281.152 596.926,-283.263 595.977,-276.328"/>
</g>
<!-- Node7&#45;&gt;Node13 -->
<g id="edge26" class="edge"><title>Node7&#45;&gt;Node13</title>
<path fill="none" stroke="midnightblue" d="M461.286,-278.561C422.532,-271.018 379.216,-259.44 367.5,-244 327.934,-191.858 354.9,-103.951 365.076,-75.8905"/>
<polygon fill="midnightblue" stroke="midnightblue" points="461.066,-282.081 471.54,-280.487 462.357,-275.201 461.066,-282.081"/>
</g>
<!-- Node7&#45;&gt;Node16 -->
<g id="edge27" class="edge"><title>Node7&#45;&gt;Node16</title>
<path fill="none" stroke="midnightblue" d="M596.785,-279.844C666.913,-270.759 812.539,-252.44 893.902,-242.225"/>
<polygon fill="midnightblue" stroke="midnightblue" points="596.066,-276.407 586.601,-281.167 596.969,-283.349 596.066,-276.407"/>
</g>
<!-- Node17 -->
<g id="node17" class="node"><title>Node17</title>
<g id="a_node17"><a xlink:href="player__position_8cpp.html" target="_top" xlink:title="Implementation of the PlayerPosition class, and related Player methods. ">
<polygon fill="white" stroke="black" points="387.5,-224.5 387.5,-243.5 545.5,-243.5 545.5,-224.5 387.5,-224.5"/>
<text text-anchor="middle" x="466.5" y="-231.5" font-family="Helvetica,sans-Serif" font-size="10.00">src/player/player_position.cpp</text>
</a>
</g>
</g>
<!-- Node7&#45;&gt;Node17 -->
<g id="edge28" class="edge"><title>Node7&#45;&gt;Node17</title>
<path fill="none" stroke="midnightblue" d="M510.746,-273.537C499.692,-263.909 485.869,-251.869 476.643,-243.834"/>
<polygon fill="midnightblue" stroke="midnightblue" points="508.699,-276.395 518.539,-280.324 513.297,-271.117 508.699,-276.395"/>
</g>
<!-- Node18 -->
<g id="node18" class="node"><title>Node18</title>
<g id="a_node18"><a xlink:href="player__state_8cpp.html" target="_top" xlink:title="Implementation of the PlayerState class, and related Player methods. ">
<polygon fill="white" stroke="black" points="563.5,-224.5 563.5,-243.5 707.5,-243.5 707.5,-224.5 563.5,-224.5"/>
<text text-anchor="middle" x="635.5" y="-231.5" font-family="Helvetica,sans-Serif" font-size="10.00">src/player/player_state.cpp</text>
</a>
</g>
</g>
<!-- Node7&#45;&gt;Node18 -->
<g id="edge29" class="edge"><title>Node7&#45;&gt;Node18</title>
<path fill="none" stroke="midnightblue" d="M554.802,-275.726C574.615,-265.727 601.207,-252.307 618.351,-243.655"/>
<polygon fill="midnightblue" stroke="midnightblue" points="553.042,-272.694 545.691,-280.324 556.196,-278.943 553.042,-272.694"/>
</g>
<!-- Node9 -->
<g id="node9" class="node"><title>Node9</title>
<g id="a_node9"><a xlink:href="cmd_8cpp.html" target="_top" xlink:title="Implementation of the CommandHandler class. ">
<polygon fill="white" stroke="black" points="510,-168.5 510,-187.5 583,-187.5 583,-168.5 510,-168.5"/>
<text text-anchor="middle" x="546.5" y="-175.5" font-family="Helvetica,sans-Serif" font-size="10.00">src/cmd.cpp</text>
</a>
</g>
</g>
<!-- Node8&#45;&gt;Node9 -->
<g id="edge9" class="edge"><title>Node8&#45;&gt;Node9</title>
<path fill="none" stroke="midnightblue" d="M718.336,-221.959C677.539,-211.76 617.787,-196.822 580.566,-187.516"/>
<polygon fill="midnightblue" stroke="midnightblue" points="717.724,-225.414 728.274,-224.444 719.422,-218.623 717.724,-225.414"/>
</g>
<!-- Node8&#45;&gt;Node10 -->
<g id="edge10" class="edge"><title>Node8&#45;&gt;Node10</title>
<path fill="none" stroke="midnightblue" d="M763.879,-213.93C766.482,-177.92 772.025,-101.231 773.881,-75.5681"/>
<polygon fill="midnightblue" stroke="midnightblue" points="760.375,-213.849 763.145,-224.075 767.357,-214.354 760.375,-213.849"/>
</g>
<!-- Node8&#45;&gt;Node11 -->
<g id="edge11" class="edge"><title>Node8&#45;&gt;Node11</title>
<path fill="none" stroke="midnightblue" d="M715.403,-224.122C654.27,-216.262 531.087,-222.953 501.5,-188 488.007,-172.06 497.526,-145.455 503.948,-131.75"/>
<polygon fill="midnightblue" stroke="midnightblue" points="714.945,-227.593 725.359,-225.643 716.003,-220.673 714.945,-227.593"/>
</g>
<!-- Node8&#45;&gt;Node12 -->
<g id="edge21" class="edge"><title>Node8&#45;&gt;Node12</title>
<path fill="none" stroke="midnightblue" d="M771.571,-215.147C785.962,-186.371 814.354,-127.72 833.5,-76 840.847,-56.1537 847.256,-32.0813 850.413,-19.5374"/>
<polygon fill="midnightblue" stroke="midnightblue" points="768.318,-213.823 766.945,-224.329 774.57,-216.973 768.318,-213.823"/>
</g>
<!-- Node8&#45;&gt;Node13 -->
<g id="edge22" class="edge"><title>Node8&#45;&gt;Node13</title>
<path fill="none" stroke="midnightblue" d="M715.357,-223.935C614.102,-207.898 578.365,-232.591 490.5,-188 435.434,-160.055 389.654,-98.1895 374.146,-75.5305"/>
<polygon fill="midnightblue" stroke="midnightblue" points="714.922,-227.411 725.364,-225.618 716.083,-220.508 714.922,-227.411"/>
</g>
<!-- Node14 -->
<g id="node14" class="node"><title>Node14</title>
<g id="a_node14"><a xlink:href="tokeniser_8hpp.html" target="_top" xlink:title="Declaration of the Tokeniser class. ">
<polygon fill="white" stroke="black" points="601,-168.5 601,-187.5 710,-187.5 710,-168.5 601,-168.5"/>
<text text-anchor="middle" x="655.5" y="-175.5" font-family="Helvetica,sans-Serif" font-size="10.00">src/io/tokeniser.hpp</text>
</a>
</g>
</g>
<!-- Node8&#45;&gt;Node14 -->
<g id="edge17" class="edge"><title>Node8&#45;&gt;Node14</title>
<path fill="none" stroke="midnightblue" d="M736.198,-219.726C716.385,-209.727 689.793,-196.307 672.649,-187.655"/>
<polygon fill="midnightblue" stroke="midnightblue" points="734.804,-222.943 745.309,-224.324 737.958,-216.694 734.804,-222.943"/>
</g>
<!-- Node15 -->
<g id="node15" class="node"><title>Node15</title>
<g id="a_node15"><a xlink:href="tokeniser_8cpp.html" target="_top" xlink:title="Definition of the Tokeniser class. ">
<polygon fill="white" stroke="black" points="625.5,-112.5 625.5,-131.5 733.5,-131.5 733.5,-112.5 625.5,-112.5"/>
<text text-anchor="middle" x="679.5" y="-119.5" font-family="Helvetica,sans-Serif" font-size="10.00">src/io/tokeniser.cpp</text>
</a>
</g>
</g>
<!-- Node8&#45;&gt;Node15 -->
<g id="edge20" class="edge"><title>Node8&#45;&gt;Node15</title>
<path fill="none" stroke="midnightblue" d="M751.976,-215.665C743.64,-202.3 731.447,-183.536 719.5,-168 709.305,-154.742 696.229,-140.479 687.855,-131.645"/>
<polygon fill="midnightblue" stroke="midnightblue" points="749.082,-217.64 757.306,-224.32 755.043,-213.97 749.082,-217.64"/>
</g>
<!-- Node11&#45;&gt;Node10 -->
<g id="edge12" class="edge"><title>Node11&#45;&gt;Node10</title>
<path fill="none" stroke="midnightblue" d="M560.668,-110.41C610.939,-100.204 686.032,-84.9597 732.549,-75.5164"/>
<polygon fill="midnightblue" stroke="midnightblue" points="559.752,-107.024 550.648,-112.444 561.145,-113.884 559.752,-107.024"/>
</g>
<!-- Node11&#45;&gt;Node11 -->
<g id="edge13" class="edge"><title>Node11&#45;&gt;Node11</title>
<path fill="none" stroke="midnightblue" d="M547.818,-132.432C563.673,-133.04 577,-129.563 577,-122 577,-112.867 557.566,-109.692 537.715,-112.475"/>
<polygon fill="midnightblue" stroke="midnightblue" points="547.988,-128.933 537.715,-131.525 547.362,-135.905 547.988,-128.933"/>
</g>
<!-- Node11&#45;&gt;Node12 -->
<g id="edge14" class="edge"><title>Node11&#45;&gt;Node12</title>
<path fill="none" stroke="midnightblue" d="M544.845,-109.378C614.267,-87.1791 764.273,-39.2121 825.573,-19.6104"/>
<polygon fill="midnightblue" stroke="midnightblue" points="543.666,-106.08 535.207,-112.46 545.798,-112.748 543.666,-106.08"/>
</g>
<!-- Node11&#45;&gt;Node13 -->
<g id="edge15" class="edge"><title>Node11&#45;&gt;Node13</title>
<path fill="none" stroke="midnightblue" d="M476.798,-108.772C450.5,-98.6287 413.784,-84.4669 390.58,-75.5164"/>
<polygon fill="midnightblue" stroke="midnightblue" points="475.727,-112.11 486.317,-112.444 478.246,-105.579 475.727,-112.11"/>
</g>
<!-- Node13&#45;&gt;Node12 -->
<g id="edge16" class="edge"><title>Node13&#45;&gt;Node12</title>
<path fill="none" stroke="midnightblue" d="M417.36,-59.5487C513.841,-48.7843 727.009,-25.001 814.198,-15.2734"/>
<polygon fill="midnightblue" stroke="midnightblue" points="416.84,-56.0849 407.29,-60.6722 417.616,-63.0417 416.84,-56.0849"/>
</g>
<!-- Node14&#45;&gt;Node11 -->
<g id="edge18" class="edge"><title>Node14&#45;&gt;Node11</title>
<path fill="none" stroke="midnightblue" d="M622.577,-164.906C594.94,-154.754 556.156,-140.506 531.684,-131.516"/>
<polygon fill="midnightblue" stroke="midnightblue" points="621.614,-168.281 632.207,-168.444 624.028,-161.71 621.614,-168.281"/>
</g>
<!-- Node14&#45;&gt;Node15 -->
<g id="edge19" class="edge"><title>Node14&#45;&gt;Node15</title>
<path fill="none" stroke="midnightblue" d="M663.638,-158.69C667.683,-149.589 672.383,-139.014 675.611,-131.751"/>
<polygon fill="midnightblue" stroke="midnightblue" points="660.326,-157.523 659.463,-168.083 666.723,-160.366 660.326,-157.523"/>
</g>
</g>
</svg>
