<?xml version="1.0" encoding="UTF-8" standalone="no"?>
<!DOCTYPE svg PUBLIC "-//W3C//DTD SVG 1.1//EN"
 "http://www.w3.org/Graphics/SVG/1.1/DTD/svg11.dtd">
<!-- Generated by graphviz version 2.36.0 (20140111.2315)
 -->
<!-- Title: src/audio/audio_source.hpp Pages: 1 -->
<svg width="873pt" height="308pt"
 viewBox="0.00 0.00 872.61 308.00" xmlns="http://www.w3.org/2000/svg" xmlns:xlink="http://www.w3.org/1999/xlink">
<g id="graph0" class="graph" transform="scale(1 1) rotate(0) translate(4 304)">
<title>src/audio/audio_source.hpp</title>
<polygon fill="white" stroke="none" points="-4,4 -4,-304 868.61,-304 868.61,4 -4,4"/>
<!-- Node9 -->
<g id="node1" class="node"><title>Node9</title>
<polygon fill="#bfbfbf" stroke="black" points="212.61,-280.5 212.61,-299.5 360.61,-299.5 360.61,-280.5 212.61,-280.5"/>
<text text-anchor="middle" x="286.61" y="-287.5" font-family="Helvetica,sans-Serif" font-size="10.00">src/audio/audio_source.hpp</text>
</g>
<!-- Node10 -->
<g id="node2" class="node"><title>Node10</title>
<g id="a_node2"><a xlink:href="audio_8hpp.html" target="_top" xlink:title="Declaration of the Audio class. ">
<polygon fill="white" stroke="black" points="148.61,-224.5 148.61,-243.5 258.61,-243.5 258.61,-224.5 148.61,-224.5"/>
<text text-anchor="middle" x="203.61" y="-231.5" font-family="Helvetica,sans-Serif" font-size="10.00">src/audio/audio.hpp</text>
</a>
</g>
</g>
<!-- Node9&#45;&gt;Node10 -->
<g id="edge1" class="edge"><title>Node9&#45;&gt;Node10</title>
<path fill="none" stroke="midnightblue" d="M264.51,-274.622C249.348,-264.757 229.727,-251.992 216.912,-243.655"/>
<polygon fill="midnightblue" stroke="midnightblue" points="262.983,-277.804 273.274,-280.324 266.801,-271.937 262.983,-277.804"/>
</g>
<!-- Node11 -->
<g id="node3" class="node"><title>Node11</title>
<g id="a_node3"><a xlink:href="audio_8cpp.html" target="_top" xlink:title="Implementation of the PipeAudio class. ">
<polygon fill="white" stroke="black" points="12.6097,-112.5 12.6097,-131.5 122.61,-131.5 122.61,-112.5 12.6097,-112.5"/>
<text text-anchor="middle" x="67.6097" y="-119.5" font-family="Helvetica,sans-Serif" font-size="10.00">src/audio/audio.cpp</text>
</a>
</g>
</g>
<!-- Node9&#45;&gt;Node11 -->
<g id="edge17" class="edge"><title>Node9&#45;&gt;Node11</title>
<path fill="none" stroke="midnightblue" d="M202.419,-278.448C176.569,-271.881 149.469,-261.239 128.61,-244 91.2536,-213.127 74.5186,-153.59 69.4066,-131.511"/>
<polygon fill="midnightblue" stroke="midnightblue" points="201.713,-281.877 212.25,-280.77 203.323,-275.065 201.713,-281.877"/>
</g>
<!-- Node12 -->
<g id="node4" class="node"><title>Node12</title>
<g id="a_node4"><a xlink:href="audio__sink_8hpp.html" target="_top" xlink:title="Declaration of the AudioSink class. ">
<polygon fill="white" stroke="black" points="178.61,-168.5 178.61,-187.5 312.61,-187.5 312.61,-168.5 178.61,-168.5"/>
<text text-anchor="middle" x="245.61" y="-175.5" font-family="Helvetica,sans-Serif" font-size="10.00">src/audio/audio_sink.hpp</text>
</a>
</g>
</g>
<!-- Node9&#45;&gt;Node12 -->
<g id="edge16" class="edge"><title>Node9&#45;&gt;Node12</title>
<path fill="none" stroke="midnightblue" d="M282.15,-270.687C278.726,-257.51 273.581,-239.417 267.61,-224 262.584,-211.025 255.247,-196.691 250.45,-187.765"/>
<polygon fill="midnightblue" stroke="midnightblue" points="278.767,-271.589 284.601,-280.433 285.556,-269.881 278.767,-271.589"/>
</g>
<!-- Node13 -->
<g id="node5" class="node"><title>Node13</title>
<g id="a_node5"><a xlink:href="audio__sink_8cpp.html" target="_top" xlink:title="Implementation of the AudioSink class. ">
<polygon fill="white" stroke="black" points="178.61,-112.5 178.61,-131.5 312.61,-131.5 312.61,-112.5 178.61,-112.5"/>
<text text-anchor="middle" x="245.61" y="-119.5" font-family="Helvetica,sans-Serif" font-size="10.00">src/audio/audio_sink.cpp</text>
</a>
</g>
</g>
<!-- Node9&#45;&gt;Node13 -->
<g id="edge18" class="edge"><title>Node9&#45;&gt;Node13</title>
<path fill="none" stroke="midnightblue" d="M202.47,-281.986C178.334,-275.606 154.536,-264.179 139.61,-244 106.477,-199.207 189.359,-150.744 227.557,-131.534"/>
<polygon fill="midnightblue" stroke="midnightblue" points="201.906,-285.449 212.444,-284.346 203.518,-278.638 201.906,-285.449"/>
</g>
<!-- Node14 -->
<g id="node6" class="node"><title>Node14</title>
<g id="a_node6"><a xlink:href="player_8hpp.html" target="_top" xlink:title="Declaration of the Player class, and associated types. ">
<polygon fill="white" stroke="black" points="369.11,-112.5 369.11,-131.5 452.11,-131.5 452.11,-112.5 369.11,-112.5"/>
<text text-anchor="middle" x="410.61" y="-119.5" font-family="Helvetica,sans-Serif" font-size="10.00">src/player.hpp</text>
</a>
</g>
</g>
<!-- Node9&#45;&gt;Node14 -->
<g id="edge22" class="edge"><title>Node9&#45;&gt;Node14</title>
<path fill="none" stroke="midnightblue" d="M299.486,-271.763C325.758,-236.592 384.707,-157.676 404.209,-131.568"/>
<polygon fill="midnightblue" stroke="midnightblue" points="296.457,-269.969 293.277,-280.075 302.065,-274.158 296.457,-269.969"/>
</g>
<!-- Node18 -->
<g id="node10" class="node"><title>Node18</title>
<g id="a_node10"><a xlink:href="player_8cpp.html" target="_top" xlink:title="Main implementation file for the Player class. ">
<polygon fill="white" stroke="black" points="174.11,-56.5 174.11,-75.5 257.11,-75.5 257.11,-56.5 174.11,-56.5"/>
<text text-anchor="middle" x="215.61" y="-63.5" font-family="Helvetica,sans-Serif" font-size="10.00">src/player.cpp</text>
</a>
</g>
</g>
<!-- Node9&#45;&gt;Node18 -->
<g id="edge23" class="edge"><title>Node9&#45;&gt;Node18</title>
<path fill="none" stroke="midnightblue" d="M203.986,-278.494C172.267,-271.901 136.723,-261.229 107.61,-244 49.1504,-209.405 28.4389,-195.228 3.60972,-132 0.360677,-123.726 -1.9852,-118.907 3.60972,-112 24.6281,-86.0519 118.418,-74.4529 173.962,-69.7793"/>
<polygon fill="midnightblue" stroke="midnightblue" points="203.649,-281.994 214.137,-280.494 205.003,-275.126 203.649,-281.994"/>
</g>
<!-- Node19 -->
<g id="node11" class="node"><title>Node19</title>
<g id="a_node11"><a xlink:href="audio__source_8cpp.html" target="_top" xlink:title="Implementation of the AudioSource class. ">
<polygon fill="white" stroke="black" points="380.11,-224.5 380.11,-243.5 527.11,-243.5 527.11,-224.5 380.11,-224.5"/>
<text text-anchor="middle" x="453.61" y="-231.5" font-family="Helvetica,sans-Serif" font-size="10.00">src/audio/audio_source.cpp</text>
</a>
</g>
</g>
<!-- Node9&#45;&gt;Node19 -->
<g id="edge19" class="edge"><title>Node9&#45;&gt;Node19</title>
<path fill="none" stroke="midnightblue" d="M322.779,-277.304C354.247,-267.129 399.104,-252.625 427.272,-243.516"/>
<polygon fill="midnightblue" stroke="midnightblue" points="321.509,-274.037 313.071,-280.444 323.663,-280.697 321.509,-274.037"/>
</g>
<!-- Node20 -->
<g id="node12" class="node"><title>Node20</title>
<g id="a_node12"><a xlink:href="mp3_8cpp.html" target="_top" xlink:title="Implementation of the Mp3AudioSource class. ">
<polygon fill="white" stroke="black" points="545.61,-224.5 545.61,-243.5 691.61,-243.5 691.61,-224.5 545.61,-224.5"/>
<text text-anchor="middle" x="618.61" y="-231.5" font-family="Helvetica,sans-Serif" font-size="10.00">src/audio/sources/mp3.cpp</text>
</a>
</g>
</g>
<!-- Node9&#45;&gt;Node20 -->
<g id="edge20" class="edge"><title>Node9&#45;&gt;Node20</title>
<path fill="none" stroke="midnightblue" d="M349.378,-278.791C412.112,-268.587 507.463,-253.078 566.249,-243.516"/>
<polygon fill="midnightblue" stroke="midnightblue" points="348.524,-275.383 339.216,-280.444 349.648,-282.293 348.524,-275.383"/>
</g>
<!-- Node21 -->
<g id="node13" class="node"><title>Node21</title>
<g id="a_node13"><a xlink:href="sndfile_8cpp.html" target="_top" xlink:title="Implementation of the SndfileAudioSource class. ">
<polygon fill="white" stroke="black" points="710.11,-224.5 710.11,-243.5 865.11,-243.5 865.11,-224.5 710.11,-224.5"/>
<text text-anchor="middle" x="787.61" y="-231.5" font-family="Helvetica,sans-Serif" font-size="10.00">src/audio/sources/sndfile.cpp</text>
</a>
</g>
</g>
<!-- Node9&#45;&gt;Node21 -->
<g id="edge21" class="edge"><title>Node9&#45;&gt;Node21</title>
<path fill="none" stroke="midnightblue" d="M370.913,-279.913C465.548,-269.713 617.845,-253.298 709.758,-243.391"/>
<polygon fill="midnightblue" stroke="midnightblue" points="370.371,-276.451 360.804,-281.003 371.121,-283.411 370.371,-276.451"/>
</g>
<!-- Node10&#45;&gt;Node11 -->
<g id="edge2" class="edge"><title>Node10&#45;&gt;Node11</title>
<path fill="none" stroke="midnightblue" d="M180.992,-219.125C167.69,-210.645 150.759,-199.291 136.61,-188 113.455,-169.523 88.749,-144.894 76.1206,-131.899"/>
<polygon fill="midnightblue" stroke="midnightblue" points="179.213,-222.141 189.542,-224.499 182.938,-216.214 179.213,-222.141"/>
</g>
<!-- Node10&#45;&gt;Node12 -->
<g id="edge3" class="edge"><title>Node10&#45;&gt;Node12</title>
<path fill="none" stroke="midnightblue" d="M216.72,-216.144C224.038,-206.736 232.851,-195.405 238.803,-187.751"/>
<polygon fill="midnightblue" stroke="midnightblue" points="213.922,-214.041 210.545,-224.083 219.447,-218.338 213.922,-214.041"/>
</g>
<!-- Node10&#45;&gt;Node14 -->
<g id="edge14" class="edge"><title>Node10&#45;&gt;Node14</title>
<path fill="none" stroke="midnightblue" d="M241.877,-221.299C265.542,-213.368 296.154,-201.826 321.61,-188 352.547,-171.197 384.989,-144.969 400.791,-131.545"/>
<polygon fill="midnightblue" stroke="midnightblue" points="240.608,-218.032 232.196,-224.474 242.789,-224.684 240.608,-218.032"/>
</g>
<!-- Node10&#45;&gt;Node18 -->
<g id="edge15" class="edge"><title>Node10&#45;&gt;Node18</title>
<path fill="none" stroke="midnightblue" d="M187.427,-216.962C180.513,-208.98 173.214,-198.749 169.61,-188 158.871,-155.975 156.512,-143.135 169.61,-112 176.108,-96.5531 190.784,-83.7585 201.823,-75.8113"/>
<polygon fill="midnightblue" stroke="midnightblue" points="184.955,-219.444 194.322,-224.395 190.087,-214.683 184.955,-219.444"/>
</g>
<!-- Node12&#45;&gt;Node11 -->
<g id="edge4" class="edge"><title>Node12&#45;&gt;Node11</title>
<path fill="none" stroke="midnightblue" d="M207.492,-165.436C173.932,-155.255 125.836,-140.664 95.6824,-131.516"/>
<polygon fill="midnightblue" stroke="midnightblue" points="206.82,-168.89 217.405,-168.444 208.852,-162.191 206.82,-168.89"/>
</g>
<!-- Node12&#45;&gt;Node13 -->
<g id="edge5" class="edge"><title>Node12&#45;&gt;Node13</title>
<path fill="none" stroke="midnightblue" d="M245.61,-157.805C245.61,-148.91 245.61,-138.78 245.61,-131.751"/>
<polygon fill="midnightblue" stroke="midnightblue" points="242.11,-158.083 245.61,-168.083 249.11,-158.083 242.11,-158.083"/>
</g>
<!-- Node12&#45;&gt;Node14 -->
<g id="edge6" class="edge"><title>Node12&#45;&gt;Node14</title>
<path fill="none" stroke="midnightblue" d="M281.346,-165.304C312.437,-155.129 356.757,-140.625 384.587,-131.516"/>
<polygon fill="midnightblue" stroke="midnightblue" points="280.17,-162.007 271.754,-168.444 282.347,-168.659 280.17,-162.007"/>
</g>
<!-- Node12&#45;&gt;Node18 -->
<g id="edge13" class="edge"><title>Node12&#45;&gt;Node18</title>
<path fill="none" stroke="midnightblue" d="M280.104,-164.498C306.536,-152.869 336.203,-134.05 321.61,-112 307.32,-90.4102 280.363,-79.148 257.211,-73.2894"/>
<polygon fill="midnightblue" stroke="midnightblue" points="278.491,-161.378 270.601,-168.449 281.178,-167.841 278.491,-161.378"/>
</g>
<!-- Node15 -->
<g id="node7" class="node"><title>Node15</title>
<g id="a_node7"><a xlink:href="io_8cpp.html" target="_top" xlink:title="Implementation of the non&#45;virtual aspects of the IoCore class. ">
<polygon fill="white" stroke="black" points="431.61,-0.5 431.61,-19.5 493.61,-19.5 493.61,-0.5 431.61,-0.5"/>
<text text-anchor="middle" x="462.61" y="-7.5" font-family="Helvetica,sans-Serif" font-size="10.00">src/io.cpp</text>
</a>
</g>
</g>
<!-- Node14&#45;&gt;Node15 -->
<g id="edge7" class="edge"><title>Node14&#45;&gt;Node15</title>
<path fill="none" stroke="midnightblue" d="M428.432,-105.325C436.423,-97.3314 445.24,-86.9876 450.61,-76 459.68,-57.4421 461.928,-32.8463 462.463,-19.878"/>
<polygon fill="midnightblue" stroke="midnightblue" points="425.735,-103.058 420.874,-112.471 430.545,-108.144 425.735,-103.058"/>
</g>
<!-- Node16 -->
<g id="node8" class="node"><title>Node16</title>
<g id="a_node8"><a xlink:href="io_8hpp.html" target="_top" xlink:title="Declaration of the I/O classes used in playd. ">
<polygon fill="white" stroke="black" points="379.11,-56.5 379.11,-75.5 442.11,-75.5 442.11,-56.5 379.11,-56.5"/>
<text text-anchor="middle" x="410.61" y="-63.5" font-family="Helvetica,sans-Serif" font-size="10.00">src/io.hpp</text>
</a>
</g>
</g>
<!-- Node14&#45;&gt;Node16 -->
<g id="edge8" class="edge"><title>Node14&#45;&gt;Node16</title>
<path fill="none" stroke="midnightblue" d="M410.61,-101.805C410.61,-92.9102 410.61,-82.7798 410.61,-75.7511"/>
<polygon fill="midnightblue" stroke="midnightblue" points="407.11,-102.083 410.61,-112.083 414.11,-102.083 407.11,-102.083"/>
</g>
<!-- Node17 -->
<g id="node9" class="node"><title>Node17</title>
<g id="a_node9"><a xlink:href="main_8cpp.html" target="_top" xlink:title="Main entry point and implementation of the playd class. ">
<polygon fill="white" stroke="black" points="327.61,-0.5 327.61,-19.5 405.61,-19.5 405.61,-0.5 327.61,-0.5"/>
<text text-anchor="middle" x="366.61" y="-7.5" font-family="Helvetica,sans-Serif" font-size="10.00">src/main.cpp</text>
</a>
</g>
</g>
<!-- Node14&#45;&gt;Node17 -->
<g id="edge11" class="edge"><title>Node14&#45;&gt;Node17</title>
<path fill="none" stroke="midnightblue" d="M391.594,-105.651C383.265,-97.7538 374.328,-87.3962 369.61,-76 361.832,-57.2123 363.508,-32.7098 365.189,-19.8173"/>
<polygon fill="midnightblue" stroke="midnightblue" points="389.43,-108.41 399.235,-112.423 394.072,-103.171 389.43,-108.41"/>
</g>
<!-- Node14&#45;&gt;Node18 -->
<g id="edge12" class="edge"><title>Node14&#45;&gt;Node18</title>
<path fill="none" stroke="midnightblue" d="M369.799,-109.699C332.996,-99.507 279.681,-84.7429 246.363,-75.5164"/>
<polygon fill="midnightblue" stroke="midnightblue" points="369.14,-113.148 379.711,-112.444 371.008,-106.402 369.14,-113.148"/>
</g>
<!-- Node16&#45;&gt;Node15 -->
<g id="edge9" class="edge"><title>Node16&#45;&gt;Node15</title>
<path fill="none" stroke="midnightblue" d="M426.289,-48.7175C435.454,-39.1997 446.662,-27.5608 454.183,-19.7511"/>
<polygon fill="midnightblue" stroke="midnightblue" points="423.612,-46.452 419.196,-56.083 428.654,-51.3075 423.612,-46.452"/>
</g>
<!-- Node16&#45;&gt;Node17 -->
<g id="edge10" class="edge"><title>Node16&#45;&gt;Node17</title>
<path fill="none" stroke="midnightblue" d="M396.875,-48.144C389.209,-38.7357 379.976,-27.4046 373.74,-19.7511"/>
<polygon fill="midnightblue" stroke="midnightblue" points="394.314,-50.5415 403.344,-56.083 399.741,-46.1198 394.314,-50.5415"/>
</g>
</g>
</svg>
