<?xml version="1.0" encoding="UTF-8" standalone="no"?>
<!DOCTYPE svg PUBLIC "-//W3C//DTD SVG 1.1//EN"
 "http://www.w3.org/Graphics/SVG/1.1/DTD/svg11.dtd">
<!-- Generated by graphviz version 2.38.0 (20140413.2041)
 -->
<!-- Title: src/audio/audio_sink.hpp Pages: 1 -->
<!--zoomable 207 -->
<svg id="main" version="1.1" xmlns="http://www.w3.org/2000/svg" xmlns:xlink="http://www.w3.org/1999/xlink" xml:space="preserve" onload="init(evt)">
<style type="text/css"><![CDATA[
.edge:hover path { stroke: red; }
.edge:hover polygon { stroke: red; fill: red; }
]]></style>
<script type="text/javascript"><![CDATA[
var edges = document.getElementsByTagName('g');
if (edges && edges.length) {
  for (var i=0;i<edges.length;i++) {
    if (edges[i].id.substr(0,4)=='edge') {
      edges[i].setAttribute('class','edge');
    }
  }
}
]]></script>
        <defs>
                <circle id="rim" cx="0" cy="0" r="7"/>
                <circle id="rim2" cx="0" cy="0" r="3.5"/>
                <g id="zoomPlus">
                        <use xlink:href="#rim" fill="#404040">
                                <set attributeName="fill" to="#808080" begin="zoomplus.mouseover" end="zoomplus.mouseout"/>
                        </use>
                        <path d="M-4,0h8M0,-4v8" fill="none" stroke="white" stroke-width="1.5" pointer-events="none"/>
                </g>
                <g id="zoomMin">
                        <use xlink:href="#rim" fill="#404040">
                                <set attributeName="fill" to="#808080" begin="zoomminus.mouseover" end="zoomminus.mouseout"/>
                        </use>
                        <path d="M-4,0h8" fill="none" stroke="white" stroke-width="1.5" pointer-events="none"/>
                </g>
                <g id="dirArrow">
                        <path fill="none" stroke="white" stroke-width="1.5" d="M0,-3.0v7 M-2.5,-0.5L0,-3.0L2.5,-0.5"/>
                </g>
               <g id="resetDef">
                       <use xlink:href="#rim2" fill="#404040">
                               <set attributeName="fill" to="#808080" begin="reset.mouseover" end="reset.mouseout"/>
                       </use>
               </g>
        </defs>

<script type="text/javascript">
var viewWidth = 1228;
var viewHeight = 207;
var sectionId = 'dynsection-0';
</script>
<script xlink:href="svgpan.js"/>
<svg id="graph" class="graph">
<g id="viewport">
<title>src/audio/audio_sink.hpp</title>
<polygon fill="white" stroke="none" points="-4,4 -4,-203 1223.7,-203 1223.7,4 -4,4"/>
<!-- Node1 -->
<g id="node1" class="node"><title>Node1</title>
<polygon fill="#bfbfbf" stroke="black" points="571.702,-179.5 571.702,-198.5 705.702,-198.5 705.702,-179.5 571.702,-179.5"/>
<text text-anchor="middle" x="638.702" y="-186.5" font-family="Helvetica,sans-Serif" font-size="10.00">src/audio/audio_sink.hpp</text>
</g>
<!-- Node2 -->
<g id="node2" class="node"><title>Node2</title>
<polygon fill="white" stroke="#bfbfbf" points="17.2018,-0.5 17.2018,-19.5 66.2018,-19.5 66.2018,-0.5 17.2018,-0.5"/>
<text text-anchor="middle" x="41.7018" y="-7.5" font-family="Helvetica,sans-Serif" font-size="10.00">cstdint</text>
</g>
<!-- Node1&#45;&gt;Node2 -->
<g id="edge1" class="edge"><title>Node1&#45;&gt;Node2</title>
<path fill="none" stroke="midnightblue" d="M571.506,-187.959C423.406,-186.272 76.4166,-173.02 5.7018,-87 -9.35704,-68.6818 9.18404,-43.0149 24.7512,-26.698"/>
<polygon fill="midnightblue" stroke="midnightblue" points="27.3602,-29.0399 31.9941,-19.5122 22.43,-24.0706 27.3602,-29.0399"/>
</g>
<!-- Node3 -->
<g id="node3" class="node"><title>Node3</title>
<polygon fill="white" stroke="#bfbfbf" points="654.202,-123.5 654.202,-142.5 711.202,-142.5 711.202,-123.5 654.202,-123.5"/>
<text text-anchor="middle" x="682.702" y="-130.5" font-family="Helvetica,sans-Serif" font-size="10.00">memory</text>
</g>
<!-- Node1&#45;&gt;Node3 -->
<g id="edge2" class="edge"><title>Node1&#45;&gt;Node3</title>
<path fill="none" stroke="midnightblue" d="M645.968,-179.083C652.247,-171.377 661.489,-160.033 669.133,-150.653"/>
<polygon fill="midnightblue" stroke="midnightblue" points="671.968,-152.714 675.571,-142.751 666.541,-148.293 671.968,-152.714"/>
</g>
<!-- Node4 -->
<g id="node4" class="node"><title>Node4</title>
<polygon fill="white" stroke="#bfbfbf" points="502.702,-0.5 502.702,-19.5 546.702,-19.5 546.702,-0.5 502.702,-0.5"/>
<text text-anchor="middle" x="524.702" y="-7.5" font-family="Helvetica,sans-Serif" font-size="10.00">string</text>
</g>
<!-- Node1&#45;&gt;Node4 -->
<g id="edge3" class="edge"><title>Node1&#45;&gt;Node4</title>
<path fill="none" stroke="midnightblue" d="M602.038,-179.459C581.983,-172.863 558.483,-161.613 544.702,-143 519.841,-109.423 520.074,-57.6892 522.389,-30.013"/>
<polygon fill="midnightblue" stroke="midnightblue" points="525.903,-30.0526 523.441,-19.7478 518.939,-29.3387 525.903,-30.0526"/>
</g>
<!-- Node5 -->
<g id="node5" class="node"><title>Node5</title>
<polygon fill="white" stroke="#bfbfbf" points="729.702,-123.5 729.702,-142.5 771.702,-142.5 771.702,-123.5 729.702,-123.5"/>
<text text-anchor="middle" x="750.702" y="-130.5" font-family="Helvetica,sans-Serif" font-size="10.00">utility</text>
</g>
<!-- Node1&#45;&gt;Node5 -->
<g id="edge4" class="edge"><title>Node1&#45;&gt;Node5</title>
<path fill="none" stroke="midnightblue" d="M656.697,-179.324C674.739,-170.625 702.749,-157.12 723.505,-147.113"/>
<polygon fill="midnightblue" stroke="midnightblue" points="725.264,-150.15 732.752,-142.655 722.224,-143.845 725.264,-150.15"/>
</g>
<!-- Node6 -->
<g id="node6" class="node"><title>Node6</title>
<polygon fill="white" stroke="#bfbfbf" points="449.202,-62 449.202,-81 496.202,-81 496.202,-62 449.202,-62"/>
<text text-anchor="middle" x="472.702" y="-69" font-family="Helvetica,sans-Serif" font-size="10.00">vector</text>
</g>
<!-- Node1&#45;&gt;Node6 -->
<g id="edge5" class="edge"><title>Node1&#45;&gt;Node6</title>
<path fill="none" stroke="midnightblue" d="M588.787,-179.426C563.135,-172.949 532.726,-161.825 510.702,-143 494.557,-129.2 484.15,-106.769 478.381,-90.9192"/>
<polygon fill="midnightblue" stroke="midnightblue" points="481.614,-89.5522 475.115,-81.1851 474.978,-91.779 481.614,-89.5522"/>
</g>
<!-- Node7 -->
<g id="node7" class="node"><title>Node7</title>
<polygon fill="white" stroke="#bfbfbf" points="790.202,-123.5 790.202,-142.5 861.202,-142.5 861.202,-123.5 790.202,-123.5"/>
<text text-anchor="middle" x="825.702" y="-130.5" font-family="Helvetica,sans-Serif" font-size="10.00">portaudio.h</text>
</g>
<!-- Node1&#45;&gt;Node7 -->
<g id="edge6" class="edge"><title>Node1&#45;&gt;Node7</title>
<path fill="none" stroke="midnightblue" d="M668.333,-179.444C700.202,-170.241 751.035,-155.562 786.266,-145.388"/>
<polygon fill="midnightblue" stroke="midnightblue" points="787.573,-148.653 796.21,-142.516 785.631,-141.928 787.573,-148.653"/>
</g>
<!-- Node8 -->
<g id="node8" class="node"><title>Node8</title>
<polygon fill="white" stroke="#bfbfbf" points="879.702,-123.5 879.702,-142.5 1063.7,-142.5 1063.7,-123.5 879.702,-123.5"/>
<text text-anchor="middle" x="971.702" y="-130.5" font-family="Helvetica,sans-Serif" font-size="10.00">portaudiocpp/CallbackInterface.hxx</text>
</g>
<!-- Node1&#45;&gt;Node8 -->
<g id="edge7" class="edge"><title>Node1&#45;&gt;Node8</title>
<path fill="none" stroke="midnightblue" d="M691.467,-179.444C750.532,-169.865 846.176,-154.356 909.007,-144.167"/>
<polygon fill="midnightblue" stroke="midnightblue" points="909.873,-147.572 919.184,-142.516 908.752,-140.662 909.873,-147.572"/>
</g>
<!-- Node9 -->
<g id="node9" class="node"><title>Node9</title>
<polygon fill="white" stroke="#bfbfbf" points="1081.7,-123.5 1081.7,-142.5 1219.7,-142.5 1219.7,-123.5 1081.7,-123.5"/>
<text text-anchor="middle" x="1150.7" y="-130.5" font-family="Helvetica,sans-Serif" font-size="10.00">portaudiocpp/Stream.hxx</text>
</g>
<!-- Node1&#45;&gt;Node9 -->
<g id="edge8" class="edge"><title>Node1&#45;&gt;Node9</title>
<path fill="none" stroke="midnightblue" d="M706.012,-181.264C789.268,-172.878 935.631,-157.958 1071.23,-143.152"/>
<polygon fill="midnightblue" stroke="midnightblue" points="1071.82,-146.607 1081.38,-142.04 1071.06,-139.649 1071.82,-146.607"/>
</g>
<!-- Node10 -->
<g id="node10" class="node"><title>Node10</title>
<g id="a_node10"><a xlink:href="audio__source_8hpp.html" target="_top" xlink:title="Declaration of the AudioSource class. ">
<polygon fill="white" stroke="black" points="299.202,-123.5 299.202,-142.5 400.202,-142.5 400.202,-123.5 299.202,-123.5"/>
<text text-anchor="middle" x="349.702" y="-130.5" font-family="Helvetica,sans-Serif" font-size="10.00">audio_source.hpp</text>
</a>
</g>
</g>
<!-- Node1&#45;&gt;Node10 -->
<g id="edge9" class="edge"><title>Node1&#45;&gt;Node10</title>
<path fill="none" stroke="midnightblue" d="M592.909,-179.444C541.965,-169.925 459.667,-154.547 405.127,-144.356"/>
<polygon fill="midnightblue" stroke="midnightblue" points="405.753,-140.913 395.28,-142.516 404.467,-147.794 405.753,-140.913"/>
</g>
<!-- Node18 -->
<g id="node18" class="node"><title>Node18</title>
<g id="a_node18"><a xlink:href="ringbuffer_8hpp.html" target="_top" xlink:title="The RingBuffer class template. ">
<polygon fill="white" stroke="black" points="553.202,-123.5 553.202,-142.5 636.202,-142.5 636.202,-123.5 553.202,-123.5"/>
<text text-anchor="middle" x="594.702" y="-130.5" font-family="Helvetica,sans-Serif" font-size="10.00">ringbuffer.hpp</text>
</a>
</g>
</g>
<!-- Node1&#45;&gt;Node18 -->
<g id="edge22" class="edge"><title>Node1&#45;&gt;Node18</title>
<path fill="none" stroke="midnightblue" d="M631.436,-179.083C625.157,-171.377 615.914,-160.033 608.271,-150.653"/>
<polygon fill="midnightblue" stroke="midnightblue" points="610.862,-148.293 601.832,-142.751 605.436,-152.714 610.862,-148.293"/>
</g>
<!-- Node10&#45;&gt;Node2 -->
<g id="edge11" class="edge"><title>Node10&#45;&gt;Node2</title>
<path fill="none" stroke="midnightblue" d="M299.186,-132.926C215.062,-133.265 51.9029,-128.406 15.7018,-87 0.85072,-70.0138 15.1576,-44.1408 27.6979,-27.3993"/>
<polygon fill="midnightblue" stroke="midnightblue" points="30.4393,-29.5753 33.9309,-19.5724 24.9634,-25.2146 30.4393,-29.5753"/>
</g>
<!-- Node10&#45;&gt;Node4 -->
<g id="edge12" class="edge"><title>Node10&#45;&gt;Node4</title>
<path fill="none" stroke="midnightblue" d="M341.13,-123.143C327.507,-107.983 304.073,-76.6972 320.702,-56 341.901,-29.6155 440.623,-17.7838 492.561,-13.3095"/>
<polygon fill="midnightblue" stroke="midnightblue" points="492.908,-16.7928 502.589,-12.4871 492.336,-9.81625 492.908,-16.7928"/>
</g>
<!-- Node10&#45;&gt;Node6 -->
<g id="edge13" class="edge"><title>Node10&#45;&gt;Node6</title>
<path fill="none" stroke="midnightblue" d="M367.325,-123.475C387.876,-113.534 422.066,-96.9947 445.909,-85.461"/>
<polygon fill="midnightblue" stroke="midnightblue" points="447.634,-88.5145 455.112,-81.0091 444.585,-82.2131 447.634,-88.5145"/>
</g>
<!-- Node11 -->
<g id="node11" class="node"><title>Node11</title>
<polygon fill="white" stroke="#bfbfbf" points="329.202,-62 329.202,-81 370.202,-81 370.202,-62 329.202,-62"/>
<text text-anchor="middle" x="349.702" y="-69" font-family="Helvetica,sans-Serif" font-size="10.00">array</text>
</g>
<!-- Node10&#45;&gt;Node11 -->
<g id="edge10" class="edge"><title>Node10&#45;&gt;Node11</title>
<path fill="none" stroke="midnightblue" d="M349.702,-123.475C349.702,-115.08 349.702,-101.981 349.702,-91.1631"/>
<polygon fill="midnightblue" stroke="midnightblue" points="353.202,-91.0091 349.702,-81.0091 346.202,-91.0091 353.202,-91.0091"/>
</g>
<!-- Node12 -->
<g id="node12" class="node"><title>Node12</title>
<polygon fill="white" stroke="#bfbfbf" points="388.702,-62 388.702,-81 430.702,-81 430.702,-62 388.702,-62"/>
<text text-anchor="middle" x="409.702" y="-69" font-family="Helvetica,sans-Serif" font-size="10.00">sox.h</text>
</g>
<!-- Node10&#45;&gt;Node12 -->
<g id="edge14" class="edge"><title>Node10&#45;&gt;Node12</title>
<path fill="none" stroke="midnightblue" d="M358.298,-123.475C367.566,-114.285 382.519,-99.4563 393.914,-88.156"/>
<polygon fill="midnightblue" stroke="midnightblue" points="396.485,-90.5358 401.121,-81.0091 391.556,-85.5653 396.485,-90.5358"/>
</g>
<!-- Node13 -->
<g id="node13" class="node"><title>Node13</title>
<g id="a_node13"><a xlink:href="errors_8hpp.html" target="_top" xlink:title="Declarations of the playd Error exception set. ">
<polygon fill="white" stroke="black" points="654.202,-62 654.202,-81 729.202,-81 729.202,-62 654.202,-62"/>
<text text-anchor="middle" x="691.702" y="-69" font-family="Helvetica,sans-Serif" font-size="10.00">../errors.hpp</text>
</a>
</g>
</g>
<!-- Node10&#45;&gt;Node13 -->
<g id="edge15" class="edge"><title>Node10&#45;&gt;Node13</title>
<path fill="none" stroke="midnightblue" d="M400.431,-126.704C459.744,-119.957 560.639,-106.748 645.702,-87 649.538,-86.1094 653.517,-85.0567 657.457,-83.9314"/>
<polygon fill="midnightblue" stroke="midnightblue" points="658.503,-87.272 667.068,-81.0359 656.483,-80.5696 658.503,-87.272"/>
</g>
<!-- Node16 -->
<g id="node16" class="node"><title>Node16</title>
<g id="a_node16"><a xlink:href="sample__formats_8hpp.html" target="_top" xlink:title="The SampleFormat enumeration. ">
<polygon fill="white" stroke="black" points="25.2018,-62 25.2018,-81 150.202,-81 150.202,-62 25.2018,-62"/>
<text text-anchor="middle" x="87.7018" y="-69" font-family="Helvetica,sans-Serif" font-size="10.00">../sample_formats.hpp</text>
</a>
</g>
</g>
<!-- Node10&#45;&gt;Node16 -->
<g id="edge18" class="edge"><title>Node10&#45;&gt;Node16</title>
<path fill="none" stroke="midnightblue" d="M312.164,-123.475C265.47,-112.871 185.722,-94.7602 134.925,-83.2244"/>
<polygon fill="midnightblue" stroke="midnightblue" points="135.697,-79.8107 125.17,-81.0091 134.147,-86.6369 135.697,-79.8107"/>
</g>
<!-- Node17 -->
<g id="node17" class="node"><title>Node17</title>
<g id="a_node17"><a xlink:href="time__parser_8hpp.html" target="_top" xlink:title="Declaration of the TimeParser class. ">
<polygon fill="white" stroke="black" points="168.702,-62 168.702,-81 272.702,-81 272.702,-62 168.702,-62"/>
<text text-anchor="middle" x="220.702" y="-69" font-family="Helvetica,sans-Serif" font-size="10.00">../time_parser.hpp</text>
</a>
</g>
</g>
<!-- Node10&#45;&gt;Node17 -->
<g id="edge20" class="edge"><title>Node10&#45;&gt;Node17</title>
<path fill="none" stroke="midnightblue" d="M331.219,-123.475C309.57,-113.49 273.489,-96.8476 248.469,-85.3075"/>
<polygon fill="midnightblue" stroke="midnightblue" points="249.697,-82.0193 239.15,-81.0091 246.765,-88.3757 249.697,-82.0193"/>
</g>
<!-- Node14 -->
<g id="node14" class="node"><title>Node14</title>
<polygon fill="white" stroke="#bfbfbf" points="624.202,-0.5 624.202,-19.5 683.202,-19.5 683.202,-0.5 624.202,-0.5"/>
<text text-anchor="middle" x="653.702" y="-7.5" font-family="Helvetica,sans-Serif" font-size="10.00">iostream</text>
</g>
<!-- Node13&#45;&gt;Node14 -->
<g id="edge16" class="edge"><title>Node13&#45;&gt;Node14</title>
<path fill="none" stroke="midnightblue" d="M686.257,-61.9751C680.614,-53.1384 671.641,-39.0886 664.543,-27.975"/>
<polygon fill="midnightblue" stroke="midnightblue" points="667.468,-26.0531 659.136,-19.5091 661.569,-29.8208 667.468,-26.0531"/>
</g>
<!-- Node15 -->
<g id="node15" class="node"><title>Node15</title>
<polygon fill="white" stroke="#bfbfbf" points="701.702,-0.5 701.702,-19.5 757.702,-19.5 757.702,-0.5 701.702,-0.5"/>
<text text-anchor="middle" x="729.702" y="-7.5" font-family="Helvetica,sans-Serif" font-size="10.00">sstream</text>
</g>
<!-- Node13&#45;&gt;Node15 -->
<g id="edge17" class="edge"><title>Node13&#45;&gt;Node15</title>
<path fill="none" stroke="midnightblue" d="M697.146,-61.9751C702.79,-53.1384 711.763,-39.0886 718.861,-27.975"/>
<polygon fill="midnightblue" stroke="midnightblue" points="721.835,-29.8208 724.267,-19.5091 715.935,-26.0531 721.835,-29.8208"/>
</g>
<!-- Node16&#45;&gt;Node2 -->
<g id="edge19" class="edge"><title>Node16&#45;&gt;Node2</title>
<path fill="none" stroke="midnightblue" d="M81.1111,-61.9751C74.2111,-53.0501 63.1997,-38.8071 54.5683,-27.6425"/>
<polygon fill="midnightblue" stroke="midnightblue" points="57.1657,-25.2798 48.2803,-19.5091 51.6277,-29.5612 57.1657,-25.2798"/>
</g>
<!-- Node17&#45;&gt;Node2 -->
<g id="edge21" class="edge"><title>Node17&#45;&gt;Node2</title>
<path fill="none" stroke="midnightblue" d="M195.055,-61.9751C163.821,-51.5926 110.936,-34.0137 76.1658,-22.4559"/>
<polygon fill="midnightblue" stroke="midnightblue" points="77.0303,-19.055 66.4368,-19.222 74.8222,-25.6977 77.0303,-19.055"/>
</g>
<!-- Node18&#45;&gt;Node13 -->
<g id="edge25" class="edge"><title>Node18&#45;&gt;Node13</title>
<path fill="none" stroke="midnightblue" d="M608.6,-123.475C624.374,-113.799 650.339,-97.8721 669.051,-86.3941"/>
<polygon fill="midnightblue" stroke="midnightblue" points="671.136,-89.2213 677.83,-81.0091 667.476,-83.2544 671.136,-89.2213"/>
</g>
<!-- Node19 -->
<g id="node19" class="node"><title>Node19</title>
<polygon fill="white" stroke="#bfbfbf" points="747.702,-62 747.702,-81 799.702,-81 799.702,-62 747.702,-62"/>
<text text-anchor="middle" x="773.702" y="-69" font-family="Helvetica,sans-Serif" font-size="10.00">cassert</text>
</g>
<!-- Node18&#45;&gt;Node19 -->
<g id="edge23" class="edge"><title>Node18&#45;&gt;Node19</title>
<path fill="none" stroke="midnightblue" d="M624.748,-123.467C654.062,-114.941 699.796,-101.106 738.702,-87 740.557,-86.3274 742.458,-85.6134 744.368,-84.8768"/>
<polygon fill="midnightblue" stroke="midnightblue" points="745.847,-88.0551 753.834,-81.0939 743.249,-81.555 745.847,-88.0551"/>
</g>
<!-- Node20 -->
<g id="node20" class="node"><title>Node20</title>
<polygon fill="white" stroke="#bfbfbf" points="818.202,-56.5 818.202,-86.5 943.202,-86.5 943.202,-56.5 818.202,-56.5"/>
<text text-anchor="start" x="826.202" y="-74.5" font-family="Helvetica,sans-Serif" font-size="10.00">../contrib/pa_ringbuffer</text>
<text text-anchor="middle" x="880.702" y="-63.5" font-family="Helvetica,sans-Serif" font-size="10.00">/pa_ringbuffer.h</text>
</g>
<!-- Node18&#45;&gt;Node20 -->
<g id="edge24" class="edge"><title>Node18&#45;&gt;Node20</title>
<path fill="none" stroke="midnightblue" d="M635.679,-123.475C680.609,-114.128 753.578,-98.9471 808.221,-87.579"/>
<polygon fill="midnightblue" stroke="midnightblue" points="809.123,-90.9665 818.2,-85.5029 807.697,-84.1132 809.123,-90.9665"/>
</g>
<!-- Node21 -->
<g id="node21" class="node"><title>Node21</title>
<g id="a_node21"><a xlink:href="messages_8h.html" target="_top" xlink:title="Constant human&#45;readable messages used within playd. ">
<polygon fill="white" stroke="black" points="552.702,-62 552.702,-81 636.702,-81 636.702,-62 552.702,-62"/>
<text text-anchor="middle" x="594.702" y="-69" font-family="Helvetica,sans-Serif" font-size="10.00">../messages.h</text>
</a>
</g>
</g>
<!-- Node18&#45;&gt;Node21 -->
<g id="edge26" class="edge"><title>Node18&#45;&gt;Node21</title>
<path fill="none" stroke="midnightblue" d="M594.702,-123.475C594.702,-115.08 594.702,-101.981 594.702,-91.1631"/>
<polygon fill="midnightblue" stroke="midnightblue" points="598.202,-91.0091 594.702,-81.0091 591.202,-91.0091 598.202,-91.0091"/>
</g>
<!-- Node21&#45;&gt;Node4 -->
<g id="edge27" class="edge"><title>Node21&#45;&gt;Node4</title>
<path fill="none" stroke="midnightblue" d="M584.673,-61.9751C573.653,-52.6082 555.742,-37.3839 542.358,-26.0081"/>
<polygon fill="midnightblue" stroke="midnightblue" points="544.599,-23.3188 534.712,-19.5091 540.065,-28.6524 544.599,-23.3188"/>
</g>
</g>
</svg>
        <g id="navigator" transform="translate(0 0)" fill="#404254">
                <rect fill="#f2f5e9" fill-opacity="0.5" stroke="#606060" stroke-width=".5" x="0" y="0" width="60" height="60"/>
                <use id="zoomplus" xlink:href="#zoomPlus" x="17" y="9" onmousedown="handleZoom(evt,'in')"/>
                <use id="zoomminus" xlink:href="#zoomMin" x="42" y="9" onmousedown="handleZoom(evt,'out')"/>
                <use id="reset" xlink:href="#resetDef" x="30" y="36" onmousedown="handleReset()"/>
                <g id="arrowUp" xlink:href="#dirArrow" transform="translate(30 24)" onmousedown="handlePan(0,-1)">
                  <use xlink:href="#rim" fill="#404040">
                        <set attributeName="fill" to="#808080" begin="arrowUp.mouseover" end="arrowUp.mouseout"/>
                  </use>
                  <path fill="none" stroke="white" stroke-width="1.5" d="M0,-3.0v7 M-2.5,-0.5L0,-3.0L2.5,-0.5"/>
                </g>
                <g id="arrowRight" xlink:href="#dirArrow" transform="rotate(90) translate(36 -43)" onmousedown="handlePan(1,0)">
                  <use xlink:href="#rim" fill="#404040">
                        <set attributeName="fill" to="#808080" begin="arrowRight.mouseover" end="arrowRight.mouseout"/>
                  </use>
                  <path fill="none" stroke="white" stroke-width="1.5" d="M0,-3.0v7 M-2.5,-0.5L0,-3.0L2.5,-0.5"/>
                </g>
                <g id="arrowDown" xlink:href="#dirArrow" transform="rotate(180) translate(-30 -48)" onmousedown="handlePan(0,1)">
                  <use xlink:href="#rim" fill="#404040">
                        <set attributeName="fill" to="#808080" begin="arrowDown.mouseover" end="arrowDown.mouseout"/>
                  </use>
                  <path fill="none" stroke="white" stroke-width="1.5" d="M0,-3.0v7 M-2.5,-0.5L0,-3.0L2.5,-0.5"/>
                </g>
                <g id="arrowLeft" xlink:href="#dirArrow" transform="rotate(270) translate(-36 17)" onmousedown="handlePan(-1,0)">
                  <use xlink:href="#rim" fill="#404040">
                        <set attributeName="fill" to="#808080" begin="arrowLeft.mouseover" end="arrowLeft.mouseout"/>
                  </use>
                  <path fill="none" stroke="white" stroke-width="1.5" d="M0,-3.0v7 M-2.5,-0.5L0,-3.0L2.5,-0.5"/>
                </g>
        </g>
        <svg viewBox="0 0 15 15" width="100%" height="30px" preserveAspectRatio="xMaxYMin meet">
         <g id="arrow_out" transform="scale(0.3 0.3)">
          <a xlink:href="audio__sink_8hpp__incl_org.svg" target="_base">
           <rect id="button" ry="5" rx="5" y="6" x="6" height="38" width="38"
                fill="#f2f5e9" fill-opacity="0.5" stroke="#606060" stroke-width="1.0"/>
           <path id="arrow"
             d="M 11.500037,31.436501 C 11.940474,20.09759 22.043105,11.32322 32.158766,21.979434 L 37.068811,17.246167 C 37.068811,17.246167 37.088388,32 37.088388,32 L 22.160133,31.978069 C 22.160133,31.978069 26.997745,27.140456 26.997745,27.140456 C 18.528582,18.264221 13.291696,25.230495 11.500037,31.436501 z"
             style="fill:#404040;"/>
          </a>
         </g>
        </svg>
</svg>
