<?xml version="1.0" encoding="UTF-8" standalone="no"?>
<!DOCTYPE svg PUBLIC "-//W3C//DTD SVG 1.1//EN"
 "http://www.w3.org/Graphics/SVG/1.1/DTD/svg11.dtd">
<!-- Generated by graphviz version 2.38.0 (20140413.2041)
 -->
<!-- Title: src/audio/audio_source.hpp Pages: 1 -->
<svg width="529pt" height="140pt"
 viewBox="0.00 0.00 528.50 140.00" xmlns="http://www.w3.org/2000/svg" xmlns:xlink="http://www.w3.org/1999/xlink">
<g id="graph0" class="graph" transform="scale(1 1) rotate(0) translate(4 136)">
<title>src/audio/audio_source.hpp</title>
<polygon fill="white" stroke="none" points="-4,4 -4,-136 524.5,-136 524.5,4 -4,4"/>
<!-- Node1 -->
<g id="node1" class="node"><title>Node1</title>
<polygon fill="#bfbfbf" stroke="black" points="109.5,-112.5 109.5,-131.5 255.5,-131.5 255.5,-112.5 109.5,-112.5"/>
<text text-anchor="middle" x="182.5" y="-119.5" font-family="Helvetica,sans-Serif" font-size="10.00">src/audio/audio_source.hpp</text>
</g>
<!-- Node2 -->
<g id="node2" class="node"><title>Node2</title>
<polygon fill="white" stroke="#bfbfbf" points="0,-56.5 0,-75.5 41,-75.5 41,-56.5 0,-56.5"/>
<text text-anchor="middle" x="20.5" y="-63.5" font-family="Helvetica,sans-Serif" font-size="10.00">array</text>
</g>
<!-- Node1&#45;&gt;Node2 -->
<g id="edge1" class="edge"><title>Node1&#45;&gt;Node2</title>
<path fill="none" stroke="midnightblue" d="M156.831,-112.444C128.134,-102.878 81.6908,-87.3969 51.1224,-77.2075"/>
<polygon fill="midnightblue" stroke="midnightblue" points="52.0066,-73.8129 41.4129,-73.971 49.7929,-80.4537 52.0066,-73.8129"/>
</g>
<!-- Node3 -->
<g id="node3" class="node"><title>Node3</title>
<polygon fill="white" stroke="#bfbfbf" points="182,-0.5 182,-19.5 229,-19.5 229,-0.5 182,-0.5"/>
<text text-anchor="middle" x="205.5" y="-7.5" font-family="Helvetica,sans-Serif" font-size="10.00">cstdint</text>
</g>
<!-- Node1&#45;&gt;Node3 -->
<g id="edge2" class="edge"><title>Node1&#45;&gt;Node3</title>
<path fill="none" stroke="midnightblue" d="M148.286,-112.429C114.373,-102.188 69.9659,-82.9862 88.5,-56 107.073,-28.9575 144.34,-18.1594 171.846,-13.8516"/>
<polygon fill="midnightblue" stroke="midnightblue" points="172.411,-17.3072 181.851,-12.498 171.472,-10.3704 172.411,-17.3072"/>
</g>
<!-- Node4 -->
<g id="node4" class="node"><title>Node4</title>
<polygon fill="white" stroke="#bfbfbf" points="98,-56.5 98,-75.5 141,-75.5 141,-56.5 98,-56.5"/>
<text text-anchor="middle" x="119.5" y="-63.5" font-family="Helvetica,sans-Serif" font-size="10.00">string</text>
</g>
<!-- Node1&#45;&gt;Node4 -->
<g id="edge3" class="edge"><title>Node1&#45;&gt;Node4</title>
<path fill="none" stroke="midnightblue" d="M172.378,-112.324C162.974,-104.263 148.756,-92.0765 137.431,-82.3695"/>
<polygon fill="midnightblue" stroke="midnightblue" points="139.677,-79.6844 129.806,-75.8339 135.121,-84.9993 139.677,-79.6844"/>
</g>
<!-- Node5 -->
<g id="node5" class="node"><title>Node5</title>
<polygon fill="white" stroke="#bfbfbf" points="159.5,-56.5 159.5,-75.5 205.5,-75.5 205.5,-56.5 159.5,-56.5"/>
<text text-anchor="middle" x="182.5" y="-63.5" font-family="Helvetica,sans-Serif" font-size="10.00">vector</text>
</g>
<!-- Node1&#45;&gt;Node5 -->
<g id="edge4" class="edge"><title>Node1&#45;&gt;Node5</title>
<path fill="none" stroke="midnightblue" d="M182.5,-112.083C182.5,-105.006 182.5,-94.8611 182.5,-85.9865"/>
<polygon fill="midnightblue" stroke="midnightblue" points="186,-85.751 182.5,-75.7511 179,-85.7511 186,-85.751"/>
</g>
<!-- Node6 -->
<g id="node6" class="node"><title>Node6</title>
<polygon fill="white" stroke="#bfbfbf" points="224,-56.5 224,-75.5 265,-75.5 265,-56.5 224,-56.5"/>
<text text-anchor="middle" x="244.5" y="-63.5" font-family="Helvetica,sans-Serif" font-size="10.00">sox.h</text>
</g>
<!-- Node1&#45;&gt;Node6 -->
<g id="edge5" class="edge"><title>Node1&#45;&gt;Node6</title>
<path fill="none" stroke="midnightblue" d="M192.461,-112.324C201.627,-104.341 215.437,-92.3128 226.528,-82.6529"/>
<polygon fill="midnightblue" stroke="midnightblue" points="229.115,-85.041 234.357,-75.8339 224.518,-79.7624 229.115,-85.041"/>
</g>
<!-- Node7 -->
<g id="node7" class="node"><title>Node7</title>
<g id="a_node7"><a xlink:href="errors_8hpp.html" target="_top" xlink:title="Declarations of the playd Error exception set. ">
<polygon fill="white" stroke="black" points="420,-56.5 420,-75.5 493,-75.5 493,-56.5 420,-56.5"/>
<text text-anchor="middle" x="456.5" y="-63.5" font-family="Helvetica,sans-Serif" font-size="10.00">../errors.hpp</text>
</a>
</g>
</g>
<!-- Node1&#45;&gt;Node7 -->
<g id="edge6" class="edge"><title>Node1&#45;&gt;Node7</title>
<path fill="none" stroke="midnightblue" d="M225.916,-112.444C276.137,-102.546 358.498,-86.3144 409.994,-76.1653"/>
<polygon fill="midnightblue" stroke="midnightblue" points="410.729,-79.5879 419.864,-74.2203 409.376,-72.7201 410.729,-79.5879"/>
</g>
<!-- Node10 -->
<g id="node10" class="node"><title>Node10</title>
<g id="a_node10"><a xlink:href="sample__formats_8hpp.html" target="_top" xlink:title="The SampleFormat enumeration. ">
<polygon fill="white" stroke="black" points="283,-56.5 283,-75.5 402,-75.5 402,-56.5 283,-56.5"/>
<text text-anchor="middle" x="342.5" y="-63.5" font-family="Helvetica,sans-Serif" font-size="10.00">../sample_formats.hpp</text>
</a>
</g>
</g>
<!-- Node1&#45;&gt;Node10 -->
<g id="edge9" class="edge"><title>Node1&#45;&gt;Node10</title>
<path fill="none" stroke="midnightblue" d="M207.852,-112.444C234.769,-103.359 277.496,-88.9388 307.587,-78.7831"/>
<polygon fill="midnightblue" stroke="midnightblue" points="308.91,-82.0305 317.266,-75.5164 306.672,-75.3981 308.91,-82.0305"/>
</g>
<!-- Node8 -->
<g id="node8" class="node"><title>Node8</title>
<polygon fill="white" stroke="#bfbfbf" points="391,-0.5 391,-19.5 448,-19.5 448,-0.5 391,-0.5"/>
<text text-anchor="middle" x="419.5" y="-7.5" font-family="Helvetica,sans-Serif" font-size="10.00">iostream</text>
</g>
<!-- Node7&#45;&gt;Node8 -->
<g id="edge7" class="edge"><title>Node7&#45;&gt;Node8</title>
<path fill="none" stroke="midnightblue" d="M450.39,-56.083C445.218,-48.5341 437.654,-37.4948 431.306,-28.2298"/>
<polygon fill="midnightblue" stroke="midnightblue" points="434.036,-26.0221 425.496,-19.7511 428.261,-29.9787 434.036,-26.0221"/>
</g>
<!-- Node9 -->
<g id="node9" class="node"><title>Node9</title>
<polygon fill="white" stroke="#bfbfbf" points="466.5,-0.5 466.5,-19.5 520.5,-19.5 520.5,-0.5 466.5,-0.5"/>
<text text-anchor="middle" x="493.5" y="-7.5" font-family="Helvetica,sans-Serif" font-size="10.00">sstream</text>
</g>
<!-- Node7&#45;&gt;Node9 -->
<g id="edge8" class="edge"><title>Node7&#45;&gt;Node9</title>
<path fill="none" stroke="midnightblue" d="M462.61,-56.083C467.782,-48.5341 475.346,-37.4948 481.694,-28.2298"/>
<polygon fill="midnightblue" stroke="midnightblue" points="484.739,-29.9787 487.504,-19.7511 478.964,-26.0221 484.739,-29.9787"/>
</g>
<!-- Node10&#45;&gt;Node3 -->
<g id="edge10" class="edge"><title>Node10&#45;&gt;Node3</title>
<path fill="none" stroke="midnightblue" d="M320.792,-56.4435C298.145,-47.5171 262.428,-33.4387 236.748,-23.3168"/>
<polygon fill="midnightblue" stroke="midnightblue" points="237.693,-19.9273 227.106,-19.5164 235.126,-26.4397 237.693,-19.9273"/>
</g>
</g>
</svg>
