<?xml version="1.0" encoding="UTF-8" standalone="no"?>
<!DOCTYPE svg PUBLIC "-//W3C//DTD SVG 1.1//EN"
 "http://www.w3.org/Graphics/SVG/1.1/DTD/svg11.dtd">
<!-- Generated by graphviz version 2.38.0 (20140413.2041)
 -->
<!-- Title: src/audio/audio_source.cpp Pages: 1 -->
<!--zoomable 196 -->
<svg id="main" version="1.1" xmlns="http://www.w3.org/2000/svg" xmlns:xlink="http://www.w3.org/1999/xlink" xml:space="preserve" onload="init(evt)">
<style type="text/css"><![CDATA[
.edge:hover path { stroke: red; }
.edge:hover polygon { stroke: red; fill: red; }
]]></style>
<script type="text/javascript"><![CDATA[
var edges = document.getElementsByTagName('g');
if (edges && edges.length) {
  for (var i=0;i<edges.length;i++) {
    if (edges[i].id.substr(0,4)=='edge') {
      edges[i].setAttribute('class','edge');
    }
  }
}
]]></script>
        <defs>
                <circle id="rim" cx="0" cy="0" r="7"/>
                <circle id="rim2" cx="0" cy="0" r="3.5"/>
                <g id="zoomPlus">
                        <use xlink:href="#rim" fill="#404040">
                                <set attributeName="fill" to="#808080" begin="zoomplus.mouseover" end="zoomplus.mouseout"/>
                        </use>
                        <path d="M-4,0h8M0,-4v8" fill="none" stroke="white" stroke-width="1.5" pointer-events="none"/>
                </g>
                <g id="zoomMin">
                        <use xlink:href="#rim" fill="#404040">
                                <set attributeName="fill" to="#808080" begin="zoomminus.mouseover" end="zoomminus.mouseout"/>
                        </use>
                        <path d="M-4,0h8" fill="none" stroke="white" stroke-width="1.5" pointer-events="none"/>
                </g>
                <g id="dirArrow">
                        <path fill="none" stroke="white" stroke-width="1.5" d="M0,-3.0v7 M-2.5,-0.5L0,-3.0L2.5,-0.5"/>
                </g>
               <g id="resetDef">
                       <use xlink:href="#rim2" fill="#404040">
                               <set attributeName="fill" to="#808080" begin="reset.mouseover" end="reset.mouseout"/>
                       </use>
               </g>
        </defs>

<script type="text/javascript">
var viewWidth = 1015;
var viewHeight = 196;
var sectionId = 'dynsection-0';
</script>
<script xlink:href="svgpan.js"/>
<svg id="graph" class="graph">
<g id="viewport">
<title>src/audio/audio_source.cpp</title>
<polygon fill="white" stroke="none" points="-4,4 -4,-192 1010.5,-192 1010.5,4 -4,4"/>
<!-- Node1 -->
<g id="node1" class="node"><title>Node1</title>
<polygon fill="#bfbfbf" stroke="black" points="545.5,-168.5 545.5,-187.5 692.5,-187.5 692.5,-168.5 545.5,-168.5"/>
<text text-anchor="middle" x="619" y="-175.5" font-family="Helvetica,sans-Serif" font-size="10.00">src/audio/audio_source.cpp</text>
</g>
<!-- Node2 -->
<g id="node2" class="node"><title>Node2</title>
<polygon fill="white" stroke="#bfbfbf" points="0,-112.5 0,-131.5 52,-131.5 52,-112.5 0,-112.5"/>
<text text-anchor="middle" x="26" y="-119.5" font-family="Helvetica,sans-Serif" font-size="10.00">cassert</text>
</g>
<!-- Node1&#45;&gt;Node2 -->
<g id="edge1" class="edge"><title>Node1&#45;&gt;Node2</title>
<path fill="none" stroke="midnightblue" d="M545.269,-174.287C438.903,-169.629 236.452,-157.98 66,-132 64.7334,-131.807 63.4471,-131.597 62.1503,-131.372"/>
<polygon fill="midnightblue" stroke="midnightblue" points="62.6334,-127.901 52.1503,-129.435 61.3023,-134.773 62.6334,-127.901"/>
</g>
<!-- Node3 -->
<g id="node3" class="node"><title>Node3</title>
<polygon fill="white" stroke="#bfbfbf" points="303.5,-0.5 303.5,-19.5 352.5,-19.5 352.5,-0.5 303.5,-0.5"/>
<text text-anchor="middle" x="328" y="-7.5" font-family="Helvetica,sans-Serif" font-size="10.00">cstdint</text>
</g>
<!-- Node1&#45;&gt;Node3 -->
<g id="edge2" class="edge"><title>Node1&#45;&gt;Node3</title>
<path fill="none" stroke="midnightblue" d="M545.491,-175.385C413.158,-170.591 144.334,-151.557 99,-76 94.4267,-68.3778 93.353,-62.8647 99,-56 123.171,-26.6166 235.129,-16.1267 293.058,-12.6231"/>
<polygon fill="midnightblue" stroke="midnightblue" points="293.426,-16.1079 303.212,-12.0473 293.03,-9.11916 293.426,-16.1079"/>
</g>
<!-- Node4 -->
<g id="node4" class="node"><title>Node4</title>
<polygon fill="white" stroke="#bfbfbf" points="827.5,-112.5 827.5,-131.5 874.5,-131.5 874.5,-112.5 827.5,-112.5"/>
<text text-anchor="middle" x="851" y="-119.5" font-family="Helvetica,sans-Serif" font-size="10.00">cstdlib</text>
</g>
<!-- Node1&#45;&gt;Node4 -->
<g id="edge3" class="edge"><title>Node1&#45;&gt;Node4</title>
<path fill="none" stroke="midnightblue" d="M656.203,-168.424C695.265,-159.407 758.467,-144.783 813,-132 814.444,-131.662 815.919,-131.315 817.408,-130.965"/>
<polygon fill="midnightblue" stroke="midnightblue" points="818.358,-134.337 827.287,-128.634 816.751,-127.524 818.358,-134.337"/>
</g>
<!-- Node5 -->
<g id="node5" class="node"><title>Node5</title>
<polygon fill="white" stroke="#bfbfbf" points="672.5,-0.5 672.5,-19.5 731.5,-19.5 731.5,-0.5 672.5,-0.5"/>
<text text-anchor="middle" x="702" y="-7.5" font-family="Helvetica,sans-Serif" font-size="10.00">iostream</text>
</g>
<!-- Node1&#45;&gt;Node5 -->
<g id="edge4" class="edge"><title>Node1&#45;&gt;Node5</title>
<path fill="none" stroke="midnightblue" d="M637.559,-168.433C666.234,-154.031 720.269,-121.963 742,-76 750.38,-58.2759 735.711,-39.3265 721.837,-26.4889"/>
<polygon fill="midnightblue" stroke="midnightblue" points="723.803,-23.563 713.941,-19.6921 719.236,-28.8684 723.803,-23.563"/>
</g>
<!-- Node6 -->
<g id="node6" class="node"><title>Node6</title>
<polygon fill="white" stroke="#bfbfbf" points="893,-112.5 893,-131.5 931,-131.5 931,-112.5 893,-112.5"/>
<text text-anchor="middle" x="912" y="-119.5" font-family="Helvetica,sans-Serif" font-size="10.00">map</text>
</g>
<!-- Node1&#45;&gt;Node6 -->
<g id="edge5" class="edge"><title>Node1&#45;&gt;Node6</title>
<path fill="none" stroke="midnightblue" d="M684.875,-168.482C736.503,-161.197 810.242,-149.454 883.028,-131.954"/>
<polygon fill="midnightblue" stroke="midnightblue" points="883.939,-135.334 892.823,-129.562 882.279,-128.534 883.939,-135.334"/>
</g>
<!-- Node7 -->
<g id="node7" class="node"><title>Node7</title>
<polygon fill="white" stroke="#bfbfbf" points="949.5,-112.5 949.5,-131.5 1006.5,-131.5 1006.5,-112.5 949.5,-112.5"/>
<text text-anchor="middle" x="978" y="-119.5" font-family="Helvetica,sans-Serif" font-size="10.00">memory</text>
</g>
<!-- Node1&#45;&gt;Node7 -->
<g id="edge6" class="edge"><title>Node1&#45;&gt;Node7</title>
<path fill="none" stroke="midnightblue" d="M692.625,-168.66C755.599,-161.072 848.827,-148.766 939.524,-131.928"/>
<polygon fill="midnightblue" stroke="midnightblue" points="940.244,-135.354 949.427,-130.069 938.953,-128.474 940.244,-135.354"/>
</g>
<!-- Node8 -->
<g id="node8" class="node"><title>Node8</title>
<polygon fill="white" stroke="#bfbfbf" points="764,-0.5 764,-19.5 820,-19.5 820,-0.5 764,-0.5"/>
<text text-anchor="middle" x="792" y="-7.5" font-family="Helvetica,sans-Serif" font-size="10.00">sstream</text>
</g>
<!-- Node1&#45;&gt;Node8 -->
<g id="edge7" class="edge"><title>Node1&#45;&gt;Node8</title>
<path fill="none" stroke="midnightblue" d="M648.966,-168.369C670.198,-161.164 698.447,-149.267 719,-132 752.845,-103.566 775.21,-55.2189 785.489,-29.0737"/>
<polygon fill="midnightblue" stroke="midnightblue" points="788.792,-30.2332 789.048,-19.6415 782.243,-27.7621 788.792,-30.2332"/>
</g>
<!-- Node9 -->
<g id="node9" class="node"><title>Node9</title>
<polygon fill="white" stroke="#bfbfbf" points="108,-56.5 108,-75.5 152,-75.5 152,-56.5 108,-56.5"/>
<text text-anchor="middle" x="130" y="-63.5" font-family="Helvetica,sans-Serif" font-size="10.00">string</text>
</g>
<!-- Node1&#45;&gt;Node9 -->
<g id="edge8" class="edge"><title>Node1&#45;&gt;Node9</title>
<path fill="none" stroke="midnightblue" d="M545.35,-175.64C470.45,-172.483 351.815,-162.552 254,-132 215.699,-120.037 175.23,-96.4725 151.317,-81.2444"/>
<polygon fill="midnightblue" stroke="midnightblue" points="153.008,-78.1696 142.713,-75.6673 149.201,-84.0436 153.008,-78.1696"/>
</g>
<!-- Node10 -->
<g id="node10" class="node"><title>Node10</title>
<polygon fill="white" stroke="#bfbfbf" points="598,-56.5 598,-75.5 640,-75.5 640,-56.5 598,-56.5"/>
<text text-anchor="middle" x="619" y="-63.5" font-family="Helvetica,sans-Serif" font-size="10.00">sox.h</text>
</g>
<!-- Node1&#45;&gt;Node10 -->
<g id="edge9" class="edge"><title>Node1&#45;&gt;Node10</title>
<path fill="none" stroke="midnightblue" d="M619,-168.368C619,-150.617 619,-109.666 619,-85.5974"/>
<polygon fill="midnightblue" stroke="midnightblue" points="622.5,-85.5914 619,-75.5914 615.5,-85.5915 622.5,-85.5914"/>
</g>
<!-- Node11 -->
<g id="node11" class="node"><title>Node11</title>
<g id="a_node11"><a xlink:href="errors_8hpp.html" target="_top" xlink:title="Declarations of the playd Error exception set. ">
<polygon fill="white" stroke="black" points="657.5,-56.5 657.5,-75.5 732.5,-75.5 732.5,-56.5 657.5,-56.5"/>
<text text-anchor="middle" x="695" y="-63.5" font-family="Helvetica,sans-Serif" font-size="10.00">../errors.hpp</text>
</a>
</g>
</g>
<!-- Node1&#45;&gt;Node11 -->
<g id="edge10" class="edge"><title>Node1&#45;&gt;Node11</title>
<path fill="none" stroke="midnightblue" d="M624.964,-168.368C637.506,-150.215 666.81,-107.802 683.261,-83.9902"/>
<polygon fill="midnightblue" stroke="midnightblue" points="686.259,-85.8083 689.064,-75.5914 680.5,-81.8292 686.259,-85.8083"/>
</g>
<!-- Node12 -->
<g id="node12" class="node"><title>Node12</title>
<g id="a_node12"><a xlink:href="messages_8h.html" target="_top" xlink:title="Constant human&#45;readable messages used within playd. ">
<polygon fill="white" stroke="black" points="263,-112.5 263,-131.5 347,-131.5 347,-112.5 263,-112.5"/>
<text text-anchor="middle" x="305" y="-119.5" font-family="Helvetica,sans-Serif" font-size="10.00">../messages.h</text>
</a>
</g>
</g>
<!-- Node1&#45;&gt;Node12 -->
<g id="edge13" class="edge"><title>Node1&#45;&gt;Node12</title>
<path fill="none" stroke="midnightblue" d="M569.246,-168.444C511.496,-158.512 416.664,-142.203 357.691,-132.062"/>
<polygon fill="midnightblue" stroke="midnightblue" points="357.921,-128.55 347.472,-130.304 356.735,-135.448 357.921,-128.55"/>
</g>
<!-- Node13 -->
<g id="node13" class="node"><title>Node13</title>
<g id="a_node13"><a xlink:href="sample__formats_8hpp.html" target="_top" xlink:title="The SampleFormat enumeration. ">
<polygon fill="white" stroke="black" points="169.5,-56.5 169.5,-75.5 294.5,-75.5 294.5,-56.5 169.5,-56.5"/>
<text text-anchor="middle" x="232" y="-63.5" font-family="Helvetica,sans-Serif" font-size="10.00">../sample_formats.hpp</text>
</a>
</g>
</g>
<!-- Node1&#45;&gt;Node13 -->
<g id="edge15" class="edge"><title>Node1&#45;&gt;Node13</title>
<path fill="none" stroke="midnightblue" d="M588.116,-168.442C555.691,-159.439 503.233,-144.826 458,-132 392.453,-113.414 316.327,-91.4385 271.267,-78.3904"/>
<polygon fill="midnightblue" stroke="midnightblue" points="272.174,-75.0092 261.595,-75.5885 270.226,-81.7328 272.174,-75.0092"/>
</g>
<!-- Node14 -->
<g id="node14" class="node"><title>Node14</title>
<g id="a_node14"><a xlink:href="audio__source_8hpp.html" target="_top" xlink:title="Declaration of the AudioSource class. ">
<polygon fill="white" stroke="black" points="467.5,-112.5 467.5,-131.5 568.5,-131.5 568.5,-112.5 467.5,-112.5"/>
<text text-anchor="middle" x="518" y="-119.5" font-family="Helvetica,sans-Serif" font-size="10.00">audio_source.hpp</text>
</a>
</g>
</g>
<!-- Node1&#45;&gt;Node14 -->
<g id="edge17" class="edge"><title>Node1&#45;&gt;Node14</title>
<path fill="none" stroke="midnightblue" d="M602.773,-168.324C586.649,-159.703 561.7,-146.364 543.036,-136.386"/>
<polygon fill="midnightblue" stroke="midnightblue" points="544.656,-133.283 534.187,-131.655 541.356,-139.456 544.656,-133.283"/>
</g>
<!-- Node11&#45;&gt;Node5 -->
<g id="edge11" class="edge"><title>Node11&#45;&gt;Node5</title>
<path fill="none" stroke="midnightblue" d="M696.156,-56.083C697.084,-48.9272 698.418,-38.6353 699.577,-29.6911"/>
<polygon fill="midnightblue" stroke="midnightblue" points="703.051,-30.1181 700.866,-19.7511 696.109,-29.2181 703.051,-30.1181"/>
</g>
<!-- Node11&#45;&gt;Node8 -->
<g id="edge12" class="edge"><title>Node11&#45;&gt;Node8</title>
<path fill="none" stroke="midnightblue" d="M710.585,-56.324C725.999,-47.7428 749.812,-34.486 767.71,-24.5224"/>
<polygon fill="midnightblue" stroke="midnightblue" points="769.419,-27.5767 776.454,-19.6545 766.014,-21.4606 769.419,-27.5767"/>
</g>
<!-- Node12&#45;&gt;Node9 -->
<g id="edge14" class="edge"><title>Node12&#45;&gt;Node9</title>
<path fill="none" stroke="midnightblue" d="M277.271,-112.444C245.828,-102.741 194.659,-86.952 161.671,-76.7727"/>
<polygon fill="midnightblue" stroke="midnightblue" points="162.646,-73.4109 152.059,-73.8067 160.582,-80.0997 162.646,-73.4109"/>
</g>
<!-- Node13&#45;&gt;Node3 -->
<g id="edge16" class="edge"><title>Node13&#45;&gt;Node3</title>
<path fill="none" stroke="midnightblue" d="M247.424,-56.324C262.54,-47.8215 285.815,-34.7288 303.471,-24.7975"/>
<polygon fill="midnightblue" stroke="midnightblue" points="305.614,-27.6077 312.614,-19.6545 302.183,-21.5066 305.614,-27.6077"/>
</g>
<!-- Node14&#45;&gt;Node3 -->
<g id="edge19" class="edge"><title>Node14&#45;&gt;Node3</title>
<path fill="none" stroke="midnightblue" d="M528.108,-112.289C542.203,-99.0988 564.49,-73.7223 550,-56 526.79,-27.6134 419.595,-16.7045 363.087,-12.8731"/>
<polygon fill="midnightblue" stroke="midnightblue" points="363.032,-9.36251 352.829,-12.2177 362.585,-16.3483 363.032,-9.36251"/>
</g>
<!-- Node14&#45;&gt;Node9 -->
<g id="edge20" class="edge"><title>Node14&#45;&gt;Node9</title>
<path fill="none" stroke="midnightblue" d="M467.461,-117.314C399.701,-111.785 275.609,-99.6066 162.073,-76.178"/>
<polygon fill="midnightblue" stroke="midnightblue" points="162.68,-72.7292 152.174,-74.1007 161.242,-79.58 162.68,-72.7292"/>
</g>
<!-- Node14&#45;&gt;Node10 -->
<g id="edge22" class="edge"><title>Node14&#45;&gt;Node10</title>
<path fill="none" stroke="midnightblue" d="M534.227,-112.324C550.351,-103.703 575.3,-90.3643 593.964,-80.3855"/>
<polygon fill="midnightblue" stroke="midnightblue" points="595.644,-83.456 602.813,-75.6545 592.344,-77.283 595.644,-83.456"/>
</g>
<!-- Node14&#45;&gt;Node11 -->
<g id="edge23" class="edge"><title>Node14&#45;&gt;Node11</title>
<path fill="none" stroke="midnightblue" d="M546.046,-112.444C576.082,-103.28 623.913,-88.6876 657.243,-78.5192"/>
<polygon fill="midnightblue" stroke="midnightblue" points="658.542,-81.7822 667.085,-75.5164 656.499,-75.0869 658.542,-81.7822"/>
</g>
<!-- Node14&#45;&gt;Node13 -->
<g id="edge24" class="edge"><title>Node14&#45;&gt;Node13</title>
<path fill="none" stroke="midnightblue" d="M472.682,-112.444C422.372,-102.944 341.162,-87.611 287.187,-77.4198"/>
<polygon fill="midnightblue" stroke="midnightblue" points="287.581,-73.9326 277.106,-75.5164 286.283,-80.8111 287.581,-73.9326"/>
</g>
<!-- Node15 -->
<g id="node15" class="node"><title>Node15</title>
<polygon fill="white" stroke="#bfbfbf" points="312.5,-56.5 312.5,-75.5 353.5,-75.5 353.5,-56.5 312.5,-56.5"/>
<text text-anchor="middle" x="333" y="-63.5" font-family="Helvetica,sans-Serif" font-size="10.00">array</text>
</g>
<!-- Node14&#45;&gt;Node15 -->
<g id="edge18" class="edge"><title>Node14&#45;&gt;Node15</title>
<path fill="none" stroke="midnightblue" d="M488.263,-112.452C458.994,-104.019 412.775,-90.6541 363.534,-76.1385"/>
<polygon fill="midnightblue" stroke="midnightblue" points="364.231,-72.6952 353.65,-73.2212 362.25,-79.4088 364.231,-72.6952"/>
</g>
<!-- Node16 -->
<g id="node16" class="node"><title>Node16</title>
<polygon fill="white" stroke="#bfbfbf" points="494.5,-56.5 494.5,-75.5 541.5,-75.5 541.5,-56.5 494.5,-56.5"/>
<text text-anchor="middle" x="518" y="-63.5" font-family="Helvetica,sans-Serif" font-size="10.00">vector</text>
</g>
<!-- Node14&#45;&gt;Node16 -->
<g id="edge21" class="edge"><title>Node14&#45;&gt;Node16</title>
<path fill="none" stroke="midnightblue" d="M518,-112.083C518,-105.006 518,-94.8611 518,-85.9865"/>
<polygon fill="midnightblue" stroke="midnightblue" points="521.5,-85.751 518,-75.7511 514.5,-85.7511 521.5,-85.751"/>
</g>
<!-- Node17 -->
<g id="node17" class="node"><title>Node17</title>
<g id="a_node17"><a xlink:href="time__parser_8hpp.html" target="_top" xlink:title="Declaration of the TimeParser class. ">
<polygon fill="white" stroke="black" points="372,-56.5 372,-75.5 476,-75.5 476,-56.5 372,-56.5"/>
<text text-anchor="middle" x="424" y="-63.5" font-family="Helvetica,sans-Serif" font-size="10.00">../time_parser.hpp</text>
</a>
</g>
</g>
<!-- Node14&#45;&gt;Node17 -->
<g id="edge25" class="edge"><title>Node14&#45;&gt;Node17</title>
<path fill="none" stroke="midnightblue" d="M502.897,-112.324C488.097,-103.822 465.306,-90.7288 448.018,-80.7975"/>
<polygon fill="midnightblue" stroke="midnightblue" points="449.48,-77.6009 439.065,-75.6545 445.993,-83.6707 449.48,-77.6009"/>
</g>
<!-- Node17&#45;&gt;Node3 -->
<g id="edge26" class="edge"><title>Node17&#45;&gt;Node3</title>
<path fill="none" stroke="midnightblue" d="M408.576,-56.324C393.46,-47.8215 370.185,-34.7288 352.529,-24.7975"/>
<polygon fill="midnightblue" stroke="midnightblue" points="353.817,-21.5066 343.386,-19.6545 350.386,-27.6077 353.817,-21.5066"/>
</g>
</g>
</svg>
        <g id="navigator" transform="translate(0 0)" fill="#404254">
                <rect fill="#f2f5e9" fill-opacity="0.5" stroke="#606060" stroke-width=".5" x="0" y="0" width="60" height="60"/>
                <use id="zoomplus" xlink:href="#zoomPlus" x="17" y="9" onmousedown="handleZoom(evt,'in')"/>
                <use id="zoomminus" xlink:href="#zoomMin" x="42" y="9" onmousedown="handleZoom(evt,'out')"/>
                <use id="reset" xlink:href="#resetDef" x="30" y="36" onmousedown="handleReset()"/>
                <g id="arrowUp" xlink:href="#dirArrow" transform="translate(30 24)" onmousedown="handlePan(0,-1)">
                  <use xlink:href="#rim" fill="#404040">
                        <set attributeName="fill" to="#808080" begin="arrowUp.mouseover" end="arrowUp.mouseout"/>
                  </use>
                  <path fill="none" stroke="white" stroke-width="1.5" d="M0,-3.0v7 M-2.5,-0.5L0,-3.0L2.5,-0.5"/>
                </g>
                <g id="arrowRight" xlink:href="#dirArrow" transform="rotate(90) translate(36 -43)" onmousedown="handlePan(1,0)">
                  <use xlink:href="#rim" fill="#404040">
                        <set attributeName="fill" to="#808080" begin="arrowRight.mouseover" end="arrowRight.mouseout"/>
                  </use>
                  <path fill="none" stroke="white" stroke-width="1.5" d="M0,-3.0v7 M-2.5,-0.5L0,-3.0L2.5,-0.5"/>
                </g>
                <g id="arrowDown" xlink:href="#dirArrow" transform="rotate(180) translate(-30 -48)" onmousedown="handlePan(0,1)">
                  <use xlink:href="#rim" fill="#404040">
                        <set attributeName="fill" to="#808080" begin="arrowDown.mouseover" end="arrowDown.mouseout"/>
                  </use>
                  <path fill="none" stroke="white" stroke-width="1.5" d="M0,-3.0v7 M-2.5,-0.5L0,-3.0L2.5,-0.5"/>
                </g>
                <g id="arrowLeft" xlink:href="#dirArrow" transform="rotate(270) translate(-36 17)" onmousedown="handlePan(-1,0)">
                  <use xlink:href="#rim" fill="#404040">
                        <set attributeName="fill" to="#808080" begin="arrowLeft.mouseover" end="arrowLeft.mouseout"/>
                  </use>
                  <path fill="none" stroke="white" stroke-width="1.5" d="M0,-3.0v7 M-2.5,-0.5L0,-3.0L2.5,-0.5"/>
                </g>
        </g>
        <svg viewBox="0 0 15 15" width="100%" height="30px" preserveAspectRatio="xMaxYMin meet">
         <g id="arrow_out" transform="scale(0.3 0.3)">
          <a xlink:href="audio__source_8cpp__incl_org.svg" target="_base">
           <rect id="button" ry="5" rx="5" y="6" x="6" height="38" width="38"
                fill="#f2f5e9" fill-opacity="0.5" stroke="#606060" stroke-width="1.0"/>
           <path id="arrow"
             d="M 11.500037,31.436501 C 11.940474,20.09759 22.043105,11.32322 32.158766,21.979434 L 37.068811,17.246167 C 37.068811,17.246167 37.088388,32 37.088388,32 L 22.160133,31.978069 C 22.160133,31.978069 26.997745,27.140456 26.997745,27.140456 C 18.528582,18.264221 13.291696,25.230495 11.500037,31.436501 z"
             style="fill:#404040;"/>
          </a>
         </g>
        </svg>
</svg>
