<?xml version="1.0" encoding="UTF-8" standalone="no"?>
<!DOCTYPE svg PUBLIC "-//W3C//DTD SVG 1.1//EN"
 "http://www.w3.org/Graphics/SVG/1.1/DTD/svg11.dtd">
<!-- Generated by graphviz version 2.36.0 (20140111.2315)
 -->
<!-- Title: src/audio/audio_sink.hpp Pages: 1 -->
<svg width="441pt" height="196pt"
 viewBox="0.00 0.00 441.00 196.00" xmlns="http://www.w3.org/2000/svg" xmlns:xlink="http://www.w3.org/1999/xlink">
<g id="graph0" class="graph" transform="scale(1 1) rotate(0) translate(4 192)">
<title>src/audio/audio_sink.hpp</title>
<polygon fill="white" stroke="none" points="-4,4 -4,-192 437,-192 437,4 -4,4"/>
<!-- Node19 -->
<g id="node1" class="node"><title>Node19</title>
<polygon fill="#bfbfbf" stroke="black" points="191,-168.5 191,-187.5 325,-187.5 325,-168.5 191,-168.5"/>
<text text-anchor="middle" x="258" y="-175.5" font-family="Helvetica,sans-Serif" font-size="10.00">src/audio/audio_sink.hpp</text>
</g>
<!-- Node20 -->
<g id="node2" class="node"><title>Node20</title>
<g id="a_node2"><a xlink:href="audio_8cpp.html" target="_top" xlink:title="Implementation of the PipeAudio class. ">
<polygon fill="white" stroke="black" points="0,-112.5 0,-131.5 110,-131.5 110,-112.5 0,-112.5"/>
<text text-anchor="middle" x="55" y="-119.5" font-family="Helvetica,sans-Serif" font-size="10.00">src/audio/audio.cpp</text>
</a>
</g>
</g>
<!-- Node19&#45;&gt;Node20 -->
<g id="edge1" class="edge"><title>Node19&#45;&gt;Node20</title>
<path fill="none" stroke="midnightblue" d="M216.006,-165.829C177.677,-155.633 121.848,-140.782 87.0155,-131.516"/>
<polygon fill="midnightblue" stroke="midnightblue" points="215.27,-169.255 225.834,-168.444 217.07,-162.49 215.27,-169.255"/>
</g>
<!-- Node21 -->
<g id="node3" class="node"><title>Node21</title>
<g id="a_node3"><a xlink:href="audio__sink_8cpp.html" target="_top" xlink:title="Implementation of the AudioSink class. ">
<polygon fill="white" stroke="black" points="128,-112.5 128,-131.5 262,-131.5 262,-112.5 128,-112.5"/>
<text text-anchor="middle" x="195" y="-119.5" font-family="Helvetica,sans-Serif" font-size="10.00">src/audio/audio_sink.cpp</text>
</a>
</g>
</g>
<!-- Node19&#45;&gt;Node21 -->
<g id="edge2" class="edge"><title>Node19&#45;&gt;Node21</title>
<path fill="none" stroke="midnightblue" d="M239.96,-161.537C228.727,-151.909 214.681,-139.869 205.306,-131.834"/>
<polygon fill="midnightblue" stroke="midnightblue" points="238.008,-164.473 247.878,-168.324 242.563,-159.159 238.008,-164.473"/>
</g>
<!-- Node22 -->
<g id="node4" class="node"><title>Node22</title>
<g id="a_node4"><a xlink:href="player_8hpp.html" target="_top" xlink:title="Declaration of the Player class, and associated types. ">
<polygon fill="white" stroke="black" points="280.5,-112.5 280.5,-131.5 363.5,-131.5 363.5,-112.5 280.5,-112.5"/>
<text text-anchor="middle" x="322" y="-119.5" font-family="Helvetica,sans-Serif" font-size="10.00">src/player.hpp</text>
</a>
</g>
</g>
<!-- Node19&#45;&gt;Node22 -->
<g id="edge3" class="edge"><title>Node19&#45;&gt;Node22</title>
<path fill="none" stroke="midnightblue" d="M275.991,-161.82C287.458,-152.145 301.913,-139.948 311.53,-131.834"/>
<polygon fill="midnightblue" stroke="midnightblue" points="273.669,-159.2 268.283,-168.324 278.183,-164.55 273.669,-159.2"/>
</g>
<!-- Node26 -->
<g id="node8" class="node"><title>Node26</title>
<g id="a_node8"><a xlink:href="player_8cpp.html" target="_top" xlink:title="Main implementation file for the Player class. ">
<polygon fill="white" stroke="black" points="350.5,-56.5 350.5,-75.5 433.5,-75.5 433.5,-56.5 350.5,-56.5"/>
<text text-anchor="middle" x="392" y="-63.5" font-family="Helvetica,sans-Serif" font-size="10.00">src/player.cpp</text>
</a>
</g>
</g>
<!-- Node19&#45;&gt;Node26 -->
<g id="edge10" class="edge"><title>Node19&#45;&gt;Node26</title>
<path fill="none" stroke="midnightblue" d="M314.679,-165.512C335.147,-158.806 356.904,-148.313 372,-132 386.755,-116.055 390.632,-89.4519 391.645,-75.7489"/>
<polygon fill="midnightblue" stroke="midnightblue" points="313.637,-162.17 305.082,-168.421 315.668,-168.869 313.637,-162.17"/>
</g>
<!-- Node23 -->
<g id="node5" class="node"><title>Node23</title>
<g id="a_node5"><a xlink:href="io_8cpp.html" target="_top" xlink:title="Implementation of the non&#45;virtual aspects of the IoCore class. ">
<polygon fill="white" stroke="black" points="187,-0.5 187,-19.5 249,-19.5 249,-0.5 187,-0.5"/>
<text text-anchor="middle" x="218" y="-7.5" font-family="Helvetica,sans-Serif" font-size="10.00">src/io.cpp</text>
</a>
</g>
</g>
<!-- Node22&#45;&gt;Node23 -->
<g id="edge4" class="edge"><title>Node22&#45;&gt;Node23</title>
<path fill="none" stroke="midnightblue" d="M270.841,-109.779C252.443,-103.089 233.429,-92.5381 222,-76 210.302,-59.0718 213.215,-33.3603 215.877,-19.9103"/>
<polygon fill="midnightblue" stroke="midnightblue" points="269.768,-113.11 280.362,-112.936 271.972,-106.466 269.768,-113.11"/>
</g>
<!-- Node24 -->
<g id="node6" class="node"><title>Node24</title>
<g id="a_node6"><a xlink:href="io_8hpp.html" target="_top" xlink:title="Declaration of the I/O classes used in playd. ">
<polygon fill="white" stroke="black" points="230.5,-56.5 230.5,-75.5 293.5,-75.5 293.5,-56.5 230.5,-56.5"/>
<text text-anchor="middle" x="262" y="-63.5" font-family="Helvetica,sans-Serif" font-size="10.00">src/io.hpp</text>
</a>
</g>
</g>
<!-- Node22&#45;&gt;Node24 -->
<g id="edge5" class="edge"><title>Node22&#45;&gt;Node24</title>
<path fill="none" stroke="midnightblue" d="M304.819,-105.537C294.121,-95.9087 280.744,-83.8694 271.815,-75.8339"/>
<polygon fill="midnightblue" stroke="midnightblue" points="302.586,-108.236 312.36,-112.324 307.268,-103.033 302.586,-108.236"/>
</g>
<!-- Node25 -->
<g id="node7" class="node"><title>Node25</title>
<g id="a_node7"><a xlink:href="main_8cpp.html" target="_top" xlink:title="Main entry point and implementation of the playd class. ">
<polygon fill="white" stroke="black" points="275,-0.5 275,-19.5 353,-19.5 353,-0.5 275,-0.5"/>
<text text-anchor="middle" x="314" y="-7.5" font-family="Helvetica,sans-Serif" font-size="10.00">src/main.cpp</text>
</a>
</g>
</g>
<!-- Node22&#45;&gt;Node25 -->
<g id="edge8" class="edge"><title>Node22&#45;&gt;Node25</title>
<path fill="none" stroke="midnightblue" d="M320.643,-102.348C318.891,-78.2538 315.913,-37.3079 314.625,-19.5914"/>
<polygon fill="midnightblue" stroke="midnightblue" points="317.156,-102.649 321.372,-112.368 324.138,-102.141 317.156,-102.649"/>
</g>
<!-- Node22&#45;&gt;Node26 -->
<g id="edge9" class="edge"><title>Node22&#45;&gt;Node26</title>
<path fill="none" stroke="midnightblue" d="M341.314,-106.101C353.912,-96.3824 369.928,-84.0269 380.549,-75.8339"/>
<polygon fill="midnightblue" stroke="midnightblue" points="339.027,-103.445 333.247,-112.324 343.302,-108.987 339.027,-103.445"/>
</g>
<!-- Node24&#45;&gt;Node23 -->
<g id="edge6" class="edge"><title>Node24&#45;&gt;Node23</title>
<path fill="none" stroke="midnightblue" d="M248.265,-48.144C240.599,-38.7357 231.367,-27.4046 225.131,-19.7511"/>
<polygon fill="midnightblue" stroke="midnightblue" points="245.704,-50.5415 254.734,-56.083 251.131,-46.1198 245.704,-50.5415"/>
</g>
<!-- Node24&#45;&gt;Node25 -->
<g id="edge7" class="edge"><title>Node24&#45;&gt;Node25</title>
<path fill="none" stroke="midnightblue" d="M277.679,-48.7175C286.845,-39.1997 298.053,-27.5608 305.573,-19.7511"/>
<polygon fill="midnightblue" stroke="midnightblue" points="275.002,-46.452 270.587,-56.083 280.044,-51.3075 275.002,-46.452"/>
</g>
</g>
</svg>
