<?xml version="1.0" encoding="UTF-8" standalone="no"?>
<!DOCTYPE svg PUBLIC "-//W3C//DTD SVG 1.1//EN"
 "http://www.w3.org/Graphics/SVG/1.1/DTD/svg11.dtd">
<!-- Generated by graphviz version 2.38.0 (20140413.2041)
 -->
<!-- Title: src/audio/audio_sink.hpp Pages: 1 -->
<svg width="1019pt" height="476pt"
 viewBox="0.00 0.00 1018.50 476.00" xmlns="http://www.w3.org/2000/svg" xmlns:xlink="http://www.w3.org/1999/xlink">
<g id="graph0" class="graph" transform="scale(1 1) rotate(0) translate(4 472)">
<title>src/audio/audio_sink.hpp</title>
<polygon fill="white" stroke="none" points="-4,4 -4,-472 1014.5,-472 1014.5,4 -4,4"/>
<!-- Node1 -->
<g id="node1" class="node"><title>Node1</title>
<polygon fill="#bfbfbf" stroke="black" points="172,-448.5 172,-467.5 305,-467.5 305,-448.5 172,-448.5"/>
<text text-anchor="middle" x="238.5" y="-455.5" font-family="Helvetica,sans-Serif" font-size="10.00">src/audio/audio_sink.hpp</text>
</g>
<!-- Node2 -->
<g id="node2" class="node"><title>Node2</title>
<g id="a_node2"><a xlink:href="audio_8cpp.html" target="_top" xlink:title="Implementation of the Audio class. ">
<polygon fill="white" stroke="black" points="0,-392.5 0,-411.5 107,-411.5 107,-392.5 0,-392.5"/>
<text text-anchor="middle" x="53.5" y="-399.5" font-family="Helvetica,sans-Serif" font-size="10.00">src/audio/audio.cpp</text>
</a>
</g>
</g>
<!-- Node1&#45;&gt;Node2 -->
<g id="edge1" class="edge"><title>Node1&#45;&gt;Node2</title>
<path fill="none" stroke="midnightblue" d="M199.334,-445.568C164.435,-435.381 114.151,-420.703 82.6767,-411.516"/>
<polygon fill="midnightblue" stroke="midnightblue" points="198.606,-449.001 209.186,-448.444 200.567,-442.282 198.606,-449.001"/>
</g>
<!-- Node3 -->
<g id="node3" class="node"><title>Node3</title>
<g id="a_node3"><a xlink:href="audio__sink_8cpp.html" target="_top" xlink:title="Implementation of the AudioSink class. ">
<polygon fill="white" stroke="black" points="125.5,-392.5 125.5,-411.5 257.5,-411.5 257.5,-392.5 125.5,-392.5"/>
<text text-anchor="middle" x="191.5" y="-399.5" font-family="Helvetica,sans-Serif" font-size="10.00">src/audio/audio_sink.cpp</text>
</a>
</g>
</g>
<!-- Node1&#45;&gt;Node3 -->
<g id="edge2" class="edge"><title>Node1&#45;&gt;Node3</title>
<path fill="none" stroke="midnightblue" d="M224.079,-440.431C215.842,-430.967 205.846,-419.483 199.117,-411.751"/>
<polygon fill="midnightblue" stroke="midnightblue" points="221.534,-442.838 230.739,-448.083 226.814,-438.242 221.534,-442.838"/>
</g>
<!-- Node4 -->
<g id="node4" class="node"><title>Node4</title>
<g id="a_node4"><a xlink:href="audio__system_8cpp.html" target="_top" xlink:title="Implementation of the AudioSystem class. ">
<polygon fill="white" stroke="black" points="44.5,-336.5 44.5,-355.5 190.5,-355.5 190.5,-336.5 44.5,-336.5"/>
<text text-anchor="middle" x="117.5" y="-343.5" font-family="Helvetica,sans-Serif" font-size="10.00">src/audio/audio_system.cpp</text>
</a>
</g>
</g>
<!-- Node1&#45;&gt;Node4 -->
<g id="edge3" class="edge"><title>Node1&#45;&gt;Node4</title>
<path fill="none" stroke="midnightblue" d="M254.414,-440.606C265.876,-426.759 277.541,-406.868 266.5,-392 254.498,-375.838 205.992,-363.245 167.54,-355.542"/>
<polygon fill="midnightblue" stroke="midnightblue" points="251.553,-438.555 247.508,-448.347 256.777,-443.214 251.553,-438.555"/>
</g>
<!-- Node5 -->
<g id="node5" class="node"><title>Node5</title>
<g id="a_node5"><a xlink:href="audio__system_8hpp.html" target="_top" xlink:title="Declaration of the AudioSystem class. ">
<polygon fill="white" stroke="black" points="481,-392.5 481,-411.5 628,-411.5 628,-392.5 481,-392.5"/>
<text text-anchor="middle" x="554.5" y="-399.5" font-family="Helvetica,sans-Serif" font-size="10.00">src/audio/audio_system.hpp</text>
</a>
</g>
</g>
<!-- Node1&#45;&gt;Node5 -->
<g id="edge4" class="edge"><title>Node1&#45;&gt;Node5</title>
<path fill="none" stroke="midnightblue" d="M298.613,-446.727C358.328,-436.523 448.825,-421.058 504.663,-411.516"/>
<polygon fill="midnightblue" stroke="midnightblue" points="297.839,-443.309 288.571,-448.444 299.018,-450.209 297.839,-443.309"/>
</g>
<!-- Node5&#45;&gt;Node4 -->
<g id="edge5" class="edge"><title>Node5&#45;&gt;Node4</title>
<path fill="none" stroke="midnightblue" d="M475.177,-391.198C392.678,-381.004 264.835,-365.206 186.42,-355.516"/>
<polygon fill="midnightblue" stroke="midnightblue" points="474.902,-394.691 485.256,-392.444 475.761,-387.744 474.902,-394.691"/>
</g>
<!-- Node6 -->
<g id="node6" class="node"><title>Node6</title>
<g id="a_node6"><a xlink:href="player__file_8hpp.html" target="_top" xlink:title="Declaration of the PlayerFile class, and associated types. ">
<polygon fill="white" stroke="black" points="487,-336.5 487,-355.5 622,-355.5 622,-336.5 487,-336.5"/>
<text text-anchor="middle" x="554.5" y="-343.5" font-family="Helvetica,sans-Serif" font-size="10.00">src/player/player_file.hpp</text>
</a>
</g>
</g>
<!-- Node5&#45;&gt;Node6 -->
<g id="edge6" class="edge"><title>Node5&#45;&gt;Node6</title>
<path fill="none" stroke="midnightblue" d="M554.5,-381.805C554.5,-372.91 554.5,-362.78 554.5,-355.751"/>
<polygon fill="midnightblue" stroke="midnightblue" points="551,-382.083 554.5,-392.083 558,-382.083 551,-382.083"/>
</g>
<!-- Node13 -->
<g id="node13" class="node"><title>Node13</title>
<g id="a_node13"><a xlink:href="main_8cpp.html" target="_top" xlink:title="Main entry point and implementation of the playd class. ">
<polygon fill="white" stroke="black" points="608.5,-0.5 608.5,-19.5 684.5,-19.5 684.5,-0.5 608.5,-0.5"/>
<text text-anchor="middle" x="646.5" y="-7.5" font-family="Helvetica,sans-Serif" font-size="10.00">src/main.cpp</text>
</a>
</g>
</g>
<!-- Node5&#45;&gt;Node13 -->
<g id="edge30" class="edge"><title>Node5&#45;&gt;Node13</title>
<path fill="none" stroke="midnightblue" d="M638.077,-397.816C769.707,-390.494 1010.5,-366.748 1010.5,-291 1010.5,-291 1010.5,-291 1010.5,-121 1010.5,-53.4976 778.222,-23.6469 684.766,-14.3685"/>
<polygon fill="midnightblue" stroke="midnightblue" points="637.816,-394.325 628.018,-398.355 638.191,-401.315 637.816,-394.325"/>
</g>
<!-- Node14 -->
<g id="node14" class="node"><title>Node14</title>
<g id="a_node14"><a xlink:href="main_8hpp.html" target="_top" xlink:title="Declaration of the playd class. ">
<polygon fill="white" stroke="black" points="256,-56.5 256,-75.5 333,-75.5 333,-56.5 256,-56.5"/>
<text text-anchor="middle" x="294.5" y="-63.5" font-family="Helvetica,sans-Serif" font-size="10.00">src/main.hpp</text>
</a>
</g>
</g>
<!-- Node5&#45;&gt;Node14 -->
<g id="edge31" class="edge"><title>Node5&#45;&gt;Node14</title>
<path fill="none" stroke="midnightblue" d="M474.444,-390.999C375.062,-376.299 218.5,-344.63 218.5,-291 218.5,-291 218.5,-291 218.5,-177 218.5,-132.201 261.696,-92.4292 282.957,-75.5672"/>
<polygon fill="midnightblue" stroke="midnightblue" points="474.073,-394.481 484.472,-392.453 475.078,-387.554 474.073,-394.481"/>
</g>
<!-- Node16 -->
<g id="node16" class="node"><title>Node16</title>
<g id="a_node16"><a xlink:href="player_8cpp.html" target="_top" xlink:title="Main implementation file for the Player class. ">
<polygon fill="white" stroke="black" points="867,-224.5 867,-243.5 982,-243.5 982,-224.5 867,-224.5"/>
<text text-anchor="middle" x="924.5" y="-231.5" font-family="Helvetica,sans-Serif" font-size="10.00">src/player/player.cpp</text>
</a>
</g>
</g>
<!-- Node5&#45;&gt;Node16 -->
<g id="edge32" class="edge"><title>Node5&#45;&gt;Node16</title>
<path fill="none" stroke="midnightblue" d="M583.015,-388.207C655.312,-355.771 844.354,-270.957 905.279,-243.624"/>
<polygon fill="midnightblue" stroke="midnightblue" points="581.305,-385.138 573.614,-392.425 584.17,-391.525 581.305,-385.138"/>
</g>
<!-- Node19 -->
<g id="node19" class="node"><title>Node19</title>
<g id="a_node19"><a xlink:href="player__file_8cpp.html" target="_top" xlink:title="Implementation of the PlayerFile class, and associated types. ">
<polygon fill="white" stroke="black" points="607.5,-280.5 607.5,-299.5 741.5,-299.5 741.5,-280.5 607.5,-280.5"/>
<text text-anchor="middle" x="674.5" y="-287.5" font-family="Helvetica,sans-Serif" font-size="10.00">src/player/player_file.cpp</text>
</a>
</g>
</g>
<!-- Node5&#45;&gt;Node19 -->
<g id="edge33" class="edge"><title>Node5&#45;&gt;Node19</title>
<path fill="none" stroke="midnightblue" d="M583.598,-388.01C598.985,-380.203 617.527,-369.217 631.5,-356 649.39,-339.078 663.576,-313.364 670.283,-299.912"/>
<polygon fill="midnightblue" stroke="midnightblue" points="581.946,-384.922 574.494,-392.453 585.016,-391.213 581.946,-384.922"/>
</g>
<!-- Node7 -->
<g id="node7" class="node"><title>Node7</title>
<g id="a_node7"><a xlink:href="player_8hpp.html" target="_top" xlink:title="Declaration of the Player class, and associated types. ">
<polygon fill="white" stroke="black" points="473.5,-280.5 473.5,-299.5 589.5,-299.5 589.5,-280.5 473.5,-280.5"/>
<text text-anchor="middle" x="531.5" y="-287.5" font-family="Helvetica,sans-Serif" font-size="10.00">src/player/player.hpp</text>
</a>
</g>
</g>
<!-- Node6&#45;&gt;Node7 -->
<g id="edge7" class="edge"><title>Node6&#45;&gt;Node7</title>
<path fill="none" stroke="midnightblue" d="M546.701,-326.69C542.825,-317.589 538.321,-307.014 535.227,-299.751"/>
<polygon fill="midnightblue" stroke="midnightblue" points="543.563,-328.254 550.702,-336.083 550.003,-325.511 543.563,-328.254"/>
</g>
<!-- Node6&#45;&gt;Node19 -->
<g id="edge29" class="edge"><title>Node6&#45;&gt;Node19</title>
<path fill="none" stroke="midnightblue" d="M582.873,-332.232C605.32,-322.131 636.035,-308.309 655.575,-299.516"/>
<polygon fill="midnightblue" stroke="midnightblue" points="581.197,-329.148 573.514,-336.444 584.07,-335.532 581.197,-329.148"/>
</g>
<!-- Node8 -->
<g id="node8" class="node"><title>Node8</title>
<g id="a_node8"><a xlink:href="cmd_8hpp.html" target="_top" xlink:title="Declaration of the CommandHandler class. ">
<polygon fill="white" stroke="black" points="322.5,-224.5 322.5,-243.5 396.5,-243.5 396.5,-224.5 322.5,-224.5"/>
<text text-anchor="middle" x="359.5" y="-231.5" font-family="Helvetica,sans-Serif" font-size="10.00">src/cmd.hpp</text>
</a>
</g>
</g>
<!-- Node7&#45;&gt;Node8 -->
<g id="edge8" class="edge"><title>Node7&#45;&gt;Node8</title>
<path fill="none" stroke="midnightblue" d="M494.668,-277.436C462.238,-267.255 415.763,-252.664 386.626,-243.516"/>
<polygon fill="midnightblue" stroke="midnightblue" points="493.657,-280.787 504.246,-280.444 495.754,-274.109 493.657,-280.787"/>
</g>
<!-- Node10 -->
<g id="node10" class="node"><title>Node10</title>
<g id="a_node10"><a xlink:href="io__reactor_8cpp.html" target="_top" xlink:title="Implementation of the non&#45;virtual aspects of the IoReactor class. ">
<polygon fill="white" stroke="black" points="505,-56.5 505,-75.5 618,-75.5 618,-56.5 505,-56.5"/>
<text text-anchor="middle" x="561.5" y="-63.5" font-family="Helvetica,sans-Serif" font-size="10.00">src/io/io_reactor.cpp</text>
</a>
</g>
</g>
<!-- Node7&#45;&gt;Node10 -->
<g id="edge22" class="edge"><title>Node7&#45;&gt;Node10</title>
<path fill="none" stroke="midnightblue" d="M599.437,-278.959C671.43,-267.992 775.607,-251.048 781.5,-244 846.431,-166.338 663.463,-98.7983 590.278,-75.583"/>
<polygon fill="midnightblue" stroke="midnightblue" points="598.867,-275.505 589.505,-280.465 599.917,-282.426 598.867,-275.505"/>
</g>
<!-- Node12 -->
<g id="node12" class="node"><title>Node12</title>
<g id="a_node12"><a xlink:href="io__reactor_8hpp.html" target="_top" xlink:title="Declaration of the IoReactor class. ">
<polygon fill="white" stroke="black" points="449,-112.5 449,-131.5 562,-131.5 562,-112.5 449,-112.5"/>
<text text-anchor="middle" x="505.5" y="-119.5" font-family="Helvetica,sans-Serif" font-size="10.00">src/io/io_reactor.hpp</text>
</a>
</g>
</g>
<!-- Node7&#45;&gt;Node12 -->
<g id="edge23" class="edge"><title>Node7&#45;&gt;Node12</title>
<path fill="none" stroke="midnightblue" d="M486.121,-276.769C469.763,-269.93 453.007,-259.54 443.5,-244 438.861,-236.418 438.133,-231.085 443.5,-224 479.185,-176.894 535.815,-235.106 571.5,-188 588.495,-165.566 551.413,-143.429 526.245,-131.666"/>
<polygon fill="midnightblue" stroke="midnightblue" points="485.057,-280.109 495.648,-280.397 487.548,-273.567 485.057,-280.109"/>
</g>
<!-- Node7&#45;&gt;Node13 -->
<g id="edge25" class="edge"><title>Node7&#45;&gt;Node13</title>
<path fill="none" stroke="midnightblue" d="M599.87,-279.037C676.81,-267.605 792.235,-249.7 800.5,-244 828.047,-225.001 838.5,-212.463 838.5,-179 838.5,-179 838.5,-179 838.5,-121 838.5,-50.8902 740.923,-24.8382 684.893,-15.6579"/>
<polygon fill="midnightblue" stroke="midnightblue" points="599.132,-275.608 589.753,-280.536 600.158,-282.532 599.132,-275.608"/>
</g>
<!-- Node7&#45;&gt;Node14 -->
<g id="edge24" class="edge"><title>Node7&#45;&gt;Node14</title>
<path fill="none" stroke="midnightblue" d="M463.159,-283.002C407.327,-276.68 334.351,-264.695 313.5,-244 266.338,-197.192 284.992,-104.162 292.177,-75.564"/>
<polygon fill="midnightblue" stroke="midnightblue" points="463.047,-286.511 473.368,-284.118 463.808,-279.552 463.047,-286.511"/>
</g>
<!-- Node7&#45;&gt;Node16 -->
<g id="edge26" class="edge"><title>Node7&#45;&gt;Node16</title>
<path fill="none" stroke="midnightblue" d="M600.269,-279.551C675.829,-269.169 795.853,-252.677 866.729,-242.938"/>
<polygon fill="midnightblue" stroke="midnightblue" points="599.342,-276.145 589.912,-280.974 600.295,-283.08 599.342,-276.145"/>
</g>
<!-- Node17 -->
<g id="node17" class="node"><title>Node17</title>
<g id="a_node17"><a xlink:href="player__position_8cpp.html" target="_top" xlink:title="Implementation of the PlayerPosition class, and related Player methods. ">
<polygon fill="white" stroke="black" points="452.5,-224.5 452.5,-243.5 610.5,-243.5 610.5,-224.5 452.5,-224.5"/>
<text text-anchor="middle" x="531.5" y="-231.5" font-family="Helvetica,sans-Serif" font-size="10.00">src/player/player_position.cpp</text>
</a>
</g>
</g>
<!-- Node7&#45;&gt;Node17 -->
<g id="edge27" class="edge"><title>Node7&#45;&gt;Node17</title>
<path fill="none" stroke="midnightblue" d="M531.5,-269.805C531.5,-260.91 531.5,-250.78 531.5,-243.751"/>
<polygon fill="midnightblue" stroke="midnightblue" points="528,-270.083 531.5,-280.083 535,-270.083 528,-270.083"/>
</g>
<!-- Node18 -->
<g id="node18" class="node"><title>Node18</title>
<g id="a_node18"><a xlink:href="player__state_8cpp.html" target="_top" xlink:title="Implementation of the PlayerState class, and related Player methods. ">
<polygon fill="white" stroke="black" points="628.5,-224.5 628.5,-243.5 772.5,-243.5 772.5,-224.5 628.5,-224.5"/>
<text text-anchor="middle" x="700.5" y="-231.5" font-family="Helvetica,sans-Serif" font-size="10.00">src/player/player_state.cpp</text>
</a>
</g>
</g>
<!-- Node7&#45;&gt;Node18 -->
<g id="edge28" class="edge"><title>Node7&#45;&gt;Node18</title>
<path fill="none" stroke="midnightblue" d="M568.103,-277.304C599.947,-267.129 645.342,-252.625 673.847,-243.516"/>
<polygon fill="midnightblue" stroke="midnightblue" points="566.739,-274.066 558.279,-280.444 568.869,-280.734 566.739,-274.066"/>
</g>
<!-- Node9 -->
<g id="node9" class="node"><title>Node9</title>
<g id="a_node9"><a xlink:href="cmd_8cpp.html" target="_top" xlink:title="Implementation of the CommandHandler class. ">
<polygon fill="white" stroke="black" points="323,-168.5 323,-187.5 396,-187.5 396,-168.5 323,-168.5"/>
<text text-anchor="middle" x="359.5" y="-175.5" font-family="Helvetica,sans-Serif" font-size="10.00">src/cmd.cpp</text>
</a>
</g>
</g>
<!-- Node8&#45;&gt;Node9 -->
<g id="edge9" class="edge"><title>Node8&#45;&gt;Node9</title>
<path fill="none" stroke="midnightblue" d="M359.5,-213.805C359.5,-204.91 359.5,-194.78 359.5,-187.751"/>
<polygon fill="midnightblue" stroke="midnightblue" points="356,-214.083 359.5,-224.083 363,-214.083 356,-214.083"/>
</g>
<!-- Node8&#45;&gt;Node10 -->
<g id="edge10" class="edge"><title>Node8&#45;&gt;Node10</title>
<path fill="none" stroke="midnightblue" d="M407.125,-228.438C462.023,-222.251 547.758,-209.439 571.5,-188 597.263,-164.736 599.036,-145.377 589.5,-112 585.506,-98.0212 575.776,-84.156 568.912,-75.5891"/>
<polygon fill="midnightblue" stroke="midnightblue" points="406.48,-224.988 396.919,-229.552 407.24,-231.946 406.48,-224.988"/>
</g>
<!-- Node11 -->
<g id="node11" class="node"><title>Node11</title>
<g id="a_node11"><a xlink:href="tokeniser_8hpp.html" target="_top" xlink:title="Declaration of the Tokeniser class. ">
<polygon fill="white" stroke="black" points="453,-168.5 453,-187.5 562,-187.5 562,-168.5 453,-168.5"/>
<text text-anchor="middle" x="507.5" y="-175.5" font-family="Helvetica,sans-Serif" font-size="10.00">src/io/tokeniser.hpp</text>
</a>
</g>
</g>
<!-- Node8&#45;&gt;Node11 -->
<g id="edge11" class="edge"><title>Node8&#45;&gt;Node11</title>
<path fill="none" stroke="midnightblue" d="M392.647,-220.906C420.472,-210.754 459.52,-196.506 484.159,-187.516"/>
<polygon fill="midnightblue" stroke="midnightblue" points="391.146,-217.728 382.951,-224.444 393.545,-224.304 391.146,-217.728"/>
</g>
<!-- Node8&#45;&gt;Node13 -->
<g id="edge20" class="edge"><title>Node8&#45;&gt;Node13</title>
<path fill="none" stroke="midnightblue" d="M406.618,-226.587C470.908,-217.439 579.748,-200.382 593.5,-188 644.752,-141.853 647.3,-48.3739 646.801,-19.6149"/>
<polygon fill="midnightblue" stroke="midnightblue" points="406.117,-223.123 396.704,-227.985 407.095,-230.054 406.117,-223.123"/>
</g>
<!-- Node8&#45;&gt;Node14 -->
<g id="edge21" class="edge"><title>Node8&#45;&gt;Node14</title>
<path fill="none" stroke="midnightblue" d="M338.693,-217.756C329.506,-209.905 319.458,-199.556 313.5,-188 293.815,-149.822 293.365,-96.5568 294.052,-75.7841"/>
<polygon fill="midnightblue" stroke="midnightblue" points="336.759,-220.691 346.746,-224.227 341.143,-215.235 336.759,-220.691"/>
</g>
<!-- Node15 -->
<g id="node15" class="node"><title>Node15</title>
<g id="a_node15"><a xlink:href="tokeniser_8cpp.html" target="_top" xlink:title="Definition of the Tokeniser class. ">
<polygon fill="white" stroke="black" points="322.5,-112.5 322.5,-131.5 430.5,-131.5 430.5,-112.5 322.5,-112.5"/>
<text text-anchor="middle" x="376.5" y="-119.5" font-family="Helvetica,sans-Serif" font-size="10.00">src/io/tokeniser.cpp</text>
</a>
</g>
</g>
<!-- Node8&#45;&gt;Node15 -->
<g id="edge19" class="edge"><title>Node8&#45;&gt;Node15</title>
<path fill="none" stroke="midnightblue" d="M380.666,-218.044C389.833,-210.257 399.58,-199.879 404.5,-188 412.87,-167.794 396.063,-144.262 385.045,-131.798"/>
<polygon fill="midnightblue" stroke="midnightblue" points="378.247,-215.494 372.564,-224.436 382.583,-220.99 378.247,-215.494"/>
</g>
<!-- Node11&#45;&gt;Node12 -->
<g id="edge12" class="edge"><title>Node11&#45;&gt;Node12</title>
<path fill="none" stroke="midnightblue" d="M506.789,-157.805C506.46,-148.91 506.084,-138.78 505.824,-131.751"/>
<polygon fill="midnightblue" stroke="midnightblue" points="503.302,-158.219 507.17,-168.083 510.297,-157.96 503.302,-158.219"/>
</g>
<!-- Node11&#45;&gt;Node15 -->
<g id="edge18" class="edge"><title>Node11&#45;&gt;Node15</title>
<path fill="none" stroke="midnightblue" d="M477.183,-164.503C452.624,-154.38 418.682,-140.388 397.16,-131.516"/>
<polygon fill="midnightblue" stroke="midnightblue" points="476.163,-167.868 486.743,-168.444 478.831,-161.397 476.163,-167.868"/>
</g>
<!-- Node12&#45;&gt;Node10 -->
<g id="edge13" class="edge"><title>Node12&#45;&gt;Node10</title>
<path fill="none" stroke="midnightblue" d="M521.83,-105.253C531.765,-95.6731 544.088,-83.7906 552.339,-75.8339"/>
<polygon fill="midnightblue" stroke="midnightblue" points="519.266,-102.863 514.497,-112.324 524.125,-107.902 519.266,-102.863"/>
</g>
<!-- Node12&#45;&gt;Node12 -->
<g id="edge14" class="edge"><title>Node12&#45;&gt;Node12</title>
<path fill="none" stroke="midnightblue" d="M547.282,-132.393C564.953,-133.17 580,-129.706 580,-122 580,-112.867 558.864,-109.692 537.274,-112.475"/>
<polygon fill="midnightblue" stroke="midnightblue" points="547.539,-128.902 537.274,-131.525 546.935,-135.876 547.539,-128.902"/>
</g>
<!-- Node12&#45;&gt;Node13 -->
<g id="edge15" class="edge"><title>Node12&#45;&gt;Node13</title>
<path fill="none" stroke="midnightblue" d="M496.278,-103.307C490.325,-89.1724 485.397,-69.5536 495.5,-56 521.331,-21.3482 572.796,-12.3283 608.413,-10.5005"/>
<polygon fill="midnightblue" stroke="midnightblue" points="493.164,-104.91 500.592,-112.464 499.496,-101.926 493.164,-104.91"/>
</g>
<!-- Node12&#45;&gt;Node14 -->
<g id="edge16" class="edge"><title>Node12&#45;&gt;Node14</title>
<path fill="none" stroke="midnightblue" d="M462.358,-109.959C422.506,-99.7598 364.137,-84.8217 327.777,-75.5164"/>
<polygon fill="midnightblue" stroke="midnightblue" points="461.511,-113.355 472.066,-112.444 463.246,-106.573 461.511,-113.355"/>
</g>
<!-- Node14&#45;&gt;Node13 -->
<g id="edge17" class="edge"><title>Node14&#45;&gt;Node13</title>
<path fill="none" stroke="midnightblue" d="M343.179,-57.5321C413.983,-46.6703 543.927,-26.7356 608.294,-16.8612"/>
<polygon fill="midnightblue" stroke="midnightblue" points="342.531,-54.0906 333.177,-59.0666 343.592,-61.0097 342.531,-54.0906"/>
</g>
</g>
</svg>
