<?xml version="1.0" encoding="UTF-8" standalone="no"?>
<!DOCTYPE svg PUBLIC "-//W3C//DTD SVG 1.1//EN"
 "http://www.w3.org/Graphics/SVG/1.1/DTD/svg11.dtd">
<!-- Generated by graphviz version 2.38.0 (20140413.2041)
 -->
<!-- Title: src/audio/audio.hpp Pages: 1 -->
<!--zoomable 196 -->
<svg id="main" version="1.1" xmlns="http://www.w3.org/2000/svg" xmlns:xlink="http://www.w3.org/1999/xlink" xml:space="preserve" onload="init(evt)">
<style type="text/css"><![CDATA[
.edge:hover path { stroke: red; }
.edge:hover polygon { stroke: red; fill: red; }
]]></style>
<script type="text/javascript"><![CDATA[
var edges = document.getElementsByTagName('g');
if (edges && edges.length) {
  for (var i=0;i<edges.length;i++) {
    if (edges[i].id.substr(0,4)=='edge') {
      edges[i].setAttribute('class','edge');
    }
  }
}
]]></script>
        <defs>
                <circle id="rim" cx="0" cy="0" r="7"/>
                <circle id="rim2" cx="0" cy="0" r="3.5"/>
                <g id="zoomPlus">
                        <use xlink:href="#rim" fill="#404040">
                                <set attributeName="fill" to="#808080" begin="zoomplus.mouseover" end="zoomplus.mouseout"/>
                        </use>
                        <path d="M-4,0h8M0,-4v8" fill="none" stroke="white" stroke-width="1.5" pointer-events="none"/>
                </g>
                <g id="zoomMin">
                        <use xlink:href="#rim" fill="#404040">
                                <set attributeName="fill" to="#808080" begin="zoomminus.mouseover" end="zoomminus.mouseout"/>
                        </use>
                        <path d="M-4,0h8" fill="none" stroke="white" stroke-width="1.5" pointer-events="none"/>
                </g>
                <g id="dirArrow">
                        <path fill="none" stroke="white" stroke-width="1.5" d="M0,-3.0v7 M-2.5,-0.5L0,-3.0L2.5,-0.5"/>
                </g>
               <g id="resetDef">
                       <use xlink:href="#rim2" fill="#404040">
                               <set attributeName="fill" to="#808080" begin="reset.mouseover" end="reset.mouseout"/>
                       </use>
               </g>
        </defs>

<script type="text/javascript">
var viewWidth = 947;
var viewHeight = 196;
var sectionId = 'dynsection-0';
</script>
<script xlink:href="svgpan.js"/>
<svg id="graph" class="graph">
<g id="viewport">
<title>src/audio/audio.hpp</title>
<polygon fill="white" stroke="none" points="-4,4 -4,-192 943.169,-192 943.169,4 -4,4"/>
<!-- Node1 -->
<g id="node1" class="node"><title>Node1</title>
<polygon fill="#bfbfbf" stroke="black" points="410.169,-168.5 410.169,-187.5 518.169,-187.5 518.169,-168.5 410.169,-168.5"/>
<text text-anchor="middle" x="464.169" y="-175.5" font-family="Helvetica,sans-Serif" font-size="10.00">src/audio/audio.hpp</text>
</g>
<!-- Node2 -->
<g id="node2" class="node"><title>Node2</title>
<polygon fill="white" stroke="#bfbfbf" points="211.669,-0.5 211.669,-19.5 258.669,-19.5 258.669,-0.5 211.669,-0.5"/>
<text text-anchor="middle" x="235.169" y="-7.5" font-family="Helvetica,sans-Serif" font-size="10.00">cstdint</text>
</g>
<!-- Node1&#45;&gt;Node2 -->
<g id="edge1" class="edge"><title>Node1&#45;&gt;Node2</title>
<path fill="none" stroke="midnightblue" d="M409.887,-173.604C299.005,-165.387 52.8382,-140.168 4.16921,-76 -1.20239,-68.9178 -1.48341,-62.86 4.16921,-56 28.7516,-26.1668 143.199,-15.8506 201.234,-12.4986"/>
<polygon fill="midnightblue" stroke="midnightblue" points="201.583,-15.9849 211.379,-11.9506 201.205,-8.9951 201.583,-15.9849"/>
</g>
<!-- Node3 -->
<g id="node3" class="node"><title>Node3</title>
<polygon fill="white" stroke="#bfbfbf" points="539.169,-112.5 539.169,-131.5 593.169,-131.5 593.169,-112.5 539.169,-112.5"/>
<text text-anchor="middle" x="566.169" y="-119.5" font-family="Helvetica,sans-Serif" font-size="10.00">memory</text>
</g>
<!-- Node1&#45;&gt;Node3 -->
<g id="edge2" class="edge"><title>Node1&#45;&gt;Node3</title>
<path fill="none" stroke="midnightblue" d="M480.557,-168.324C496.841,-159.703 522.037,-146.364 540.885,-136.386"/>
<polygon fill="midnightblue" stroke="midnightblue" points="542.622,-139.427 549.822,-131.655 539.346,-133.24 542.622,-139.427"/>
</g>
<!-- Node4 -->
<g id="node4" class="node"><title>Node4</title>
<polygon fill="white" stroke="#bfbfbf" points="307.669,-56.5 307.669,-75.5 350.669,-75.5 350.669,-56.5 307.669,-56.5"/>
<text text-anchor="middle" x="329.169" y="-63.5" font-family="Helvetica,sans-Serif" font-size="10.00">string</text>
</g>
<!-- Node1&#45;&gt;Node4 -->
<g id="edge3" class="edge"><title>Node1&#45;&gt;Node4</title>
<path fill="none" stroke="midnightblue" d="M446.303,-168.369C430.254,-160.178 406.469,-146.925 388.169,-132 370.537,-117.619 353.404,-97.9047 342.185,-83.9686"/>
<polygon fill="midnightblue" stroke="midnightblue" points="344.657,-81.4506 335.721,-75.7593 339.157,-85.7812 344.657,-81.4506"/>
</g>
<!-- Node5 -->
<g id="node5" class="node"><title>Node5</title>
<polygon fill="white" stroke="#bfbfbf" points="611.169,-112.5 611.169,-131.5 651.169,-131.5 651.169,-112.5 611.169,-112.5"/>
<text text-anchor="middle" x="631.169" y="-119.5" font-family="Helvetica,sans-Serif" font-size="10.00">utility</text>
</g>
<!-- Node1&#45;&gt;Node5 -->
<g id="edge4" class="edge"><title>Node1&#45;&gt;Node5</title>
<path fill="none" stroke="midnightblue" d="M490.631,-168.444C520.839,-158.676 570.126,-142.738 601.582,-132.567"/>
<polygon fill="midnightblue" stroke="midnightblue" points="602.683,-135.89 611.121,-129.483 600.529,-129.229 602.683,-135.89"/>
</g>
<!-- Node6 -->
<g id="node6" class="node"><title>Node6</title>
<polygon fill="white" stroke="#bfbfbf" points="369.169,-56.5 369.169,-75.5 415.169,-75.5 415.169,-56.5 369.169,-56.5"/>
<text text-anchor="middle" x="392.169" y="-63.5" font-family="Helvetica,sans-Serif" font-size="10.00">vector</text>
</g>
<!-- Node1&#45;&gt;Node6 -->
<g id="edge5" class="edge"><title>Node1&#45;&gt;Node6</title>
<path fill="none" stroke="midnightblue" d="M442.826,-168.426C427.647,-161.127 408.233,-149.089 398.169,-132 389.992,-118.115 389.048,-99.6021 389.824,-85.8855"/>
<polygon fill="midnightblue" stroke="midnightblue" points="393.33,-85.9769 390.76,-75.6986 386.36,-85.3365 393.33,-85.9769"/>
</g>
<!-- Node7 -->
<g id="node7" class="node"><title>Node7</title>
<polygon fill="white" stroke="#bfbfbf" points="669.669,-112.5 669.669,-131.5 738.669,-131.5 738.669,-112.5 669.669,-112.5"/>
<text text-anchor="middle" x="704.169" y="-119.5" font-family="Helvetica,sans-Serif" font-size="10.00">portaudio.h</text>
</g>
<!-- Node1&#45;&gt;Node7 -->
<g id="edge6" class="edge"><title>Node1&#45;&gt;Node7</title>
<path fill="none" stroke="midnightblue" d="M502.198,-168.444C544.961,-158.822 614.326,-143.215 659.599,-133.028"/>
<polygon fill="midnightblue" stroke="midnightblue" points="660.448,-136.425 669.435,-130.815 658.911,-129.596 660.448,-136.425"/>
</g>
<!-- Node8 -->
<g id="node8" class="node"><title>Node8</title>
<polygon fill="white" stroke="#bfbfbf" points="757.169,-112.5 757.169,-131.5 939.169,-131.5 939.169,-112.5 757.169,-112.5"/>
<text text-anchor="middle" x="848.169" y="-119.5" font-family="Helvetica,sans-Serif" font-size="10.00">portaudiocpp/CallbackInterface.hxx</text>
</g>
<!-- Node1&#45;&gt;Node8 -->
<g id="edge7" class="edge"><title>Node1&#45;&gt;Node8</title>
<path fill="none" stroke="midnightblue" d="M518.373,-169.378C586.197,-159.84 702.509,-143.483 777.324,-132.963"/>
<polygon fill="midnightblue" stroke="midnightblue" points="778.18,-136.377 787.596,-131.518 777.206,-129.445 778.18,-136.377"/>
</g>
<!-- Node9 -->
<g id="node9" class="node"><title>Node9</title>
<g id="a_node9"><a xlink:href="io__response_8hpp.html" target="_top" xlink:title="Declaration of classes pertaining to responses to the client. ">
<polygon fill="white" stroke="black" points="407.169,-112.5 407.169,-131.5 521.169,-131.5 521.169,-112.5 407.169,-112.5"/>
<text text-anchor="middle" x="464.169" y="-119.5" font-family="Helvetica,sans-Serif" font-size="10.00">../io/io_response.hpp</text>
</a>
</g>
</g>
<!-- Node1&#45;&gt;Node9 -->
<g id="edge8" class="edge"><title>Node1&#45;&gt;Node9</title>
<path fill="none" stroke="midnightblue" d="M464.169,-168.083C464.169,-161.006 464.169,-150.861 464.169,-141.986"/>
<polygon fill="midnightblue" stroke="midnightblue" points="467.669,-141.751 464.169,-131.751 460.669,-141.751 467.669,-141.751"/>
</g>
<!-- Node15 -->
<g id="node15" class="node"><title>Node15</title>
<g id="a_node15"><a xlink:href="audio__source_8hpp.html" target="_top" xlink:title="Declaration of the AudioSource class. ">
<polygon fill="white" stroke="black" points="213.169,-112.5 213.169,-131.5 313.169,-131.5 313.169,-112.5 213.169,-112.5"/>
<text text-anchor="middle" x="263.169" y="-119.5" font-family="Helvetica,sans-Serif" font-size="10.00">audio_source.hpp</text>
</a>
</g>
</g>
<!-- Node1&#45;&gt;Node15 -->
<g id="edge17" class="edge"><title>Node1&#45;&gt;Node15</title>
<path fill="none" stroke="midnightblue" d="M432.32,-168.444C397.771,-159.162 342.487,-144.309 304.586,-134.127"/>
<polygon fill="midnightblue" stroke="midnightblue" points="305.435,-130.731 294.869,-131.516 303.619,-137.491 305.435,-130.731"/>
</g>
<!-- Node9&#45;&gt;Node2 -->
<g id="edge9" class="edge"><title>Node9&#45;&gt;Node2</title>
<path fill="none" stroke="midnightblue" d="M461.311,-112.319C456.204,-98.2148 444.135,-70.4489 424.169,-56 377.639,-22.3272 309.387,-13.5403 268.897,-11.4313"/>
<polygon fill="midnightblue" stroke="midnightblue" points="268.879,-7.92762 258.743,-11.0128 268.591,-14.9217 268.879,-7.92762"/>
</g>
<!-- Node9&#45;&gt;Node4 -->
<g id="edge12" class="edge"><title>Node9&#45;&gt;Node4</title>
<path fill="none" stroke="midnightblue" d="M442.778,-112.444C420.462,-103.517 385.266,-89.4387 359.961,-79.3168"/>
<polygon fill="midnightblue" stroke="midnightblue" points="361.045,-75.9807 350.46,-75.5164 358.445,-82.4801 361.045,-75.9807"/>
</g>
<!-- Node9&#45;&gt;Node6 -->
<g id="edge13" class="edge"><title>Node9&#45;&gt;Node6</title>
<path fill="none" stroke="midnightblue" d="M452.601,-112.324C441.749,-104.185 425.289,-91.8395 412.286,-82.0874"/>
<polygon fill="midnightblue" stroke="midnightblue" points="414.048,-79.0339 403.948,-75.8339 409.848,-84.6339 414.048,-79.0339"/>
</g>
<!-- Node10 -->
<g id="node10" class="node"><title>Node10</title>
<polygon fill="white" stroke="#bfbfbf" points="635.669,-56.5 635.669,-75.5 672.669,-75.5 672.669,-56.5 635.669,-56.5"/>
<text text-anchor="middle" x="654.169" y="-63.5" font-family="Helvetica,sans-Serif" font-size="10.00">map</text>
</g>
<!-- Node9&#45;&gt;Node10 -->
<g id="edge10" class="edge"><title>Node9&#45;&gt;Node10</title>
<path fill="none" stroke="midnightblue" d="M497.097,-112.452C528.124,-104.278 576.118,-91.3278 625.963,-76.2636"/>
<polygon fill="midnightblue" stroke="midnightblue" points="627.071,-79.5849 635.619,-73.3254 625.033,-72.8881 627.071,-79.5849"/>
</g>
<!-- Node11 -->
<g id="node11" class="node"><title>Node11</title>
<polygon fill="white" stroke="#bfbfbf" points="562.669,-56.5 562.669,-75.5 617.669,-75.5 617.669,-56.5 562.669,-56.5"/>
<text text-anchor="middle" x="590.169" y="-63.5" font-family="Helvetica,sans-Serif" font-size="10.00">ostream</text>
</g>
<!-- Node9&#45;&gt;Node11 -->
<g id="edge11" class="edge"><title>Node9&#45;&gt;Node11</title>
<path fill="none" stroke="midnightblue" d="M484.134,-112.444C504.778,-103.596 537.232,-89.6875 560.801,-79.5865"/>
<polygon fill="midnightblue" stroke="midnightblue" points="562.485,-82.6727 570.298,-75.5164 559.727,-76.2387 562.485,-82.6727"/>
</g>
<!-- Node12 -->
<g id="node12" class="node"><title>Node12</title>
<g id="a_node12"><a xlink:href="errors_8hpp.html" target="_top" xlink:title="Declarations of the playd Error exception set. ">
<polygon fill="white" stroke="black" points="471.669,-56.5 471.669,-75.5 544.669,-75.5 544.669,-56.5 471.669,-56.5"/>
<text text-anchor="middle" x="508.169" y="-63.5" font-family="Helvetica,sans-Serif" font-size="10.00">../errors.hpp</text>
</a>
</g>
</g>
<!-- Node9&#45;&gt;Node12 -->
<g id="edge14" class="edge"><title>Node9&#45;&gt;Node12</title>
<path fill="none" stroke="midnightblue" d="M471.435,-112.083C477.714,-104.377 486.957,-93.0333 494.6,-83.6531"/>
<polygon fill="midnightblue" stroke="midnightblue" points="497.435,-85.7143 501.039,-75.7511 492.009,-81.2926 497.435,-85.7143"/>
</g>
<!-- Node13 -->
<g id="node13" class="node"><title>Node13</title>
<polygon fill="white" stroke="#bfbfbf" points="516.669,-0.5 516.669,-19.5 573.669,-19.5 573.669,-0.5 516.669,-0.5"/>
<text text-anchor="middle" x="545.169" y="-7.5" font-family="Helvetica,sans-Serif" font-size="10.00">iostream</text>
</g>
<!-- Node12&#45;&gt;Node13 -->
<g id="edge15" class="edge"><title>Node12&#45;&gt;Node13</title>
<path fill="none" stroke="midnightblue" d="M514.279,-56.083C519.451,-48.5341 527.015,-37.4948 533.364,-28.2298"/>
<polygon fill="midnightblue" stroke="midnightblue" points="536.408,-29.9787 539.173,-19.7511 530.633,-26.0221 536.408,-29.9787"/>
</g>
<!-- Node14 -->
<g id="node14" class="node"><title>Node14</title>
<polygon fill="white" stroke="#bfbfbf" points="444.169,-0.5 444.169,-19.5 498.169,-19.5 498.169,-0.5 444.169,-0.5"/>
<text text-anchor="middle" x="471.169" y="-7.5" font-family="Helvetica,sans-Serif" font-size="10.00">sstream</text>
</g>
<!-- Node12&#45;&gt;Node14 -->
<g id="edge16" class="edge"><title>Node12&#45;&gt;Node14</title>
<path fill="none" stroke="midnightblue" d="M502.059,-56.083C496.887,-48.5341 489.323,-37.4948 482.975,-28.2298"/>
<polygon fill="midnightblue" stroke="midnightblue" points="485.705,-26.0221 477.165,-19.7511 479.93,-29.9787 485.705,-26.0221"/>
</g>
<!-- Node15&#45;&gt;Node2 -->
<g id="edge19" class="edge"><title>Node15&#45;&gt;Node2</title>
<path fill="none" stroke="midnightblue" d="M263.786,-112.393C264.436,-99.762 264.709,-75.5823 259.169,-56 256.432,-46.3247 251.4,-36.3782 246.649,-28.3049"/>
<polygon fill="midnightblue" stroke="midnightblue" points="249.616,-26.4486 241.353,-19.8166 243.677,-30.1536 249.616,-26.4486"/>
</g>
<!-- Node15&#45;&gt;Node4 -->
<g id="edge20" class="edge"><title>Node15&#45;&gt;Node4</title>
<path fill="none" stroke="midnightblue" d="M273.773,-112.324C283.625,-104.263 298.52,-92.0765 310.384,-82.3695"/>
<polygon fill="midnightblue" stroke="midnightblue" points="312.849,-84.8752 318.372,-75.8339 308.416,-79.4575 312.849,-84.8752"/>
</g>
<!-- Node15&#45;&gt;Node6 -->
<g id="edge21" class="edge"><title>Node15&#45;&gt;Node6</title>
<path fill="none" stroke="midnightblue" d="M283.61,-112.444C304.84,-103.557 338.268,-89.5632 362.424,-79.4514"/>
<polygon fill="midnightblue" stroke="midnightblue" points="363.951,-82.6064 371.824,-75.5164 361.248,-76.1493 363.951,-82.6064"/>
</g>
<!-- Node15&#45;&gt;Node12 -->
<g id="edge23" class="edge"><title>Node15&#45;&gt;Node12</title>
<path fill="none" stroke="midnightblue" d="M301.99,-112.444C345.358,-102.885 415.529,-87.4186 461.761,-77.2288"/>
<polygon fill="midnightblue" stroke="midnightblue" points="462.518,-80.6459 471.531,-75.0755 461.012,-73.81 462.518,-80.6459"/>
</g>
<!-- Node16 -->
<g id="node16" class="node"><title>Node16</title>
<polygon fill="white" stroke="#bfbfbf" points="13.6692,-56.5 13.6692,-75.5 54.6692,-75.5 54.6692,-56.5 13.6692,-56.5"/>
<text text-anchor="middle" x="34.1692" y="-63.5" font-family="Helvetica,sans-Serif" font-size="10.00">array</text>
</g>
<!-- Node15&#45;&gt;Node16 -->
<g id="edge18" class="edge"><title>Node15&#45;&gt;Node16</title>
<path fill="none" stroke="midnightblue" d="M220.792,-112.488C182.288,-104.525 123.733,-91.8509 64.586,-76.2307"/>
<polygon fill="midnightblue" stroke="midnightblue" points="65.2699,-72.7908 54.7056,-73.5949 63.4655,-79.5543 65.2699,-72.7908"/>
</g>
<!-- Node17 -->
<g id="node17" class="node"><title>Node17</title>
<polygon fill="white" stroke="#bfbfbf" points="72.6692,-56.5 72.6692,-75.5 113.669,-75.5 113.669,-56.5 72.6692,-56.5"/>
<text text-anchor="middle" x="93.1692" y="-63.5" font-family="Helvetica,sans-Serif" font-size="10.00">sox.h</text>
</g>
<!-- Node15&#45;&gt;Node17 -->
<g id="edge22" class="edge"><title>Node15&#45;&gt;Node17</title>
<path fill="none" stroke="midnightblue" d="M236.232,-112.444C205.566,-102.702 155.584,-86.826 123.553,-76.6512"/>
<polygon fill="midnightblue" stroke="midnightblue" points="124.421,-73.2548 113.831,-73.5631 122.302,-79.9263 124.421,-73.2548"/>
</g>
<!-- Node18 -->
<g id="node18" class="node"><title>Node18</title>
<g id="a_node18"><a xlink:href="sample__formats_8hpp.html" target="_top" xlink:title="The SampleFormat enumeration. ">
<polygon fill="white" stroke="black" points="131.669,-56.5 131.669,-75.5 250.669,-75.5 250.669,-56.5 131.669,-56.5"/>
<text text-anchor="middle" x="191.169" y="-63.5" font-family="Helvetica,sans-Serif" font-size="10.00">../sample_formats.hpp</text>
</a>
</g>
</g>
<!-- Node15&#45;&gt;Node18 -->
<g id="edge24" class="edge"><title>Node15&#45;&gt;Node18</title>
<path fill="none" stroke="midnightblue" d="M251.601,-112.324C240.749,-104.185 224.289,-91.8395 211.286,-82.0874"/>
<polygon fill="midnightblue" stroke="midnightblue" points="213.048,-79.0339 202.948,-75.8339 208.848,-84.6339 213.048,-79.0339"/>
</g>
<!-- Node18&#45;&gt;Node2 -->
<g id="edge25" class="edge"><title>Node18&#45;&gt;Node2</title>
<path fill="none" stroke="midnightblue" d="M198.435,-56.083C204.714,-48.3768 213.957,-37.0333 221.6,-27.6531"/>
<polygon fill="midnightblue" stroke="midnightblue" points="224.435,-29.7143 228.039,-19.7511 219.009,-25.2926 224.435,-29.7143"/>
</g>
</g>
</svg>
        <g id="navigator" transform="translate(0 0)" fill="#404254">
                <rect fill="#f2f5e9" fill-opacity="0.5" stroke="#606060" stroke-width=".5" x="0" y="0" width="60" height="60"/>
                <use id="zoomplus" xlink:href="#zoomPlus" x="17" y="9" onmousedown="handleZoom(evt,'in')"/>
                <use id="zoomminus" xlink:href="#zoomMin" x="42" y="9" onmousedown="handleZoom(evt,'out')"/>
                <use id="reset" xlink:href="#resetDef" x="30" y="36" onmousedown="handleReset()"/>
                <g id="arrowUp" xlink:href="#dirArrow" transform="translate(30 24)" onmousedown="handlePan(0,-1)">
                  <use xlink:href="#rim" fill="#404040">
                        <set attributeName="fill" to="#808080" begin="arrowUp.mouseover" end="arrowUp.mouseout"/>
                  </use>
                  <path fill="none" stroke="white" stroke-width="1.5" d="M0,-3.0v7 M-2.5,-0.5L0,-3.0L2.5,-0.5"/>
                </g>
                <g id="arrowRight" xlink:href="#dirArrow" transform="rotate(90) translate(36 -43)" onmousedown="handlePan(1,0)">
                  <use xlink:href="#rim" fill="#404040">
                        <set attributeName="fill" to="#808080" begin="arrowRight.mouseover" end="arrowRight.mouseout"/>
                  </use>
                  <path fill="none" stroke="white" stroke-width="1.5" d="M0,-3.0v7 M-2.5,-0.5L0,-3.0L2.5,-0.5"/>
                </g>
                <g id="arrowDown" xlink:href="#dirArrow" transform="rotate(180) translate(-30 -48)" onmousedown="handlePan(0,1)">
                  <use xlink:href="#rim" fill="#404040">
                        <set attributeName="fill" to="#808080" begin="arrowDown.mouseover" end="arrowDown.mouseout"/>
                  </use>
                  <path fill="none" stroke="white" stroke-width="1.5" d="M0,-3.0v7 M-2.5,-0.5L0,-3.0L2.5,-0.5"/>
                </g>
                <g id="arrowLeft" xlink:href="#dirArrow" transform="rotate(270) translate(-36 17)" onmousedown="handlePan(-1,0)">
                  <use xlink:href="#rim" fill="#404040">
                        <set attributeName="fill" to="#808080" begin="arrowLeft.mouseover" end="arrowLeft.mouseout"/>
                  </use>
                  <path fill="none" stroke="white" stroke-width="1.5" d="M0,-3.0v7 M-2.5,-0.5L0,-3.0L2.5,-0.5"/>
                </g>
        </g>
        <svg viewBox="0 0 15 15" width="100%" height="30px" preserveAspectRatio="xMaxYMin meet">
         <g id="arrow_out" transform="scale(0.3 0.3)">
          <a xlink:href="audio_8hpp__incl_org.svg" target="_base">
           <rect id="button" ry="5" rx="5" y="6" x="6" height="38" width="38"
                fill="#f2f5e9" fill-opacity="0.5" stroke="#606060" stroke-width="1.0"/>
           <path id="arrow"
             d="M 11.500037,31.436501 C 11.940474,20.09759 22.043105,11.32322 32.158766,21.979434 L 37.068811,17.246167 C 37.068811,17.246167 37.088388,32 37.088388,32 L 22.160133,31.978069 C 22.160133,31.978069 26.997745,27.140456 26.997745,27.140456 C 18.528582,18.264221 13.291696,25.230495 11.500037,31.436501 z"
             style="fill:#404040;"/>
          </a>
         </g>
        </svg>
</svg>
