<?xml version="1.0" encoding="UTF-8" standalone="no"?>
<!DOCTYPE svg PUBLIC "-//W3C//DTD SVG 1.1//EN"
 "http://www.w3.org/Graphics/SVG/1.1/DTD/svg11.dtd">
<!-- Generated by graphviz version 2.38.0 (20140413.2041)
 -->
<!-- Title: src/audio/audio_sink.cpp Pages: 1 -->
<!--zoomable 263 -->
<svg id="main" version="1.1" xmlns="http://www.w3.org/2000/svg" xmlns:xlink="http://www.w3.org/1999/xlink" xml:space="preserve" onload="init(evt)">
<style type="text/css"><![CDATA[
.edge:hover path { stroke: red; }
.edge:hover polygon { stroke: red; fill: red; }
]]></style>
<script type="text/javascript"><![CDATA[
var edges = document.getElementsByTagName('g');
if (edges && edges.length) {
  for (var i=0;i<edges.length;i++) {
    if (edges[i].id.substr(0,4)=='edge') {
      edges[i].setAttribute('class','edge');
    }
  }
}
]]></script>
        <defs>
                <circle id="rim" cx="0" cy="0" r="7"/>
                <circle id="rim2" cx="0" cy="0" r="3.5"/>
                <g id="zoomPlus">
                        <use xlink:href="#rim" fill="#404040">
                                <set attributeName="fill" to="#808080" begin="zoomplus.mouseover" end="zoomplus.mouseout"/>
                        </use>
                        <path d="M-4,0h8M0,-4v8" fill="none" stroke="white" stroke-width="1.5" pointer-events="none"/>
                </g>
                <g id="zoomMin">
                        <use xlink:href="#rim" fill="#404040">
                                <set attributeName="fill" to="#808080" begin="zoomminus.mouseover" end="zoomminus.mouseout"/>
                        </use>
                        <path d="M-4,0h8" fill="none" stroke="white" stroke-width="1.5" pointer-events="none"/>
                </g>
                <g id="dirArrow">
                        <path fill="none" stroke="white" stroke-width="1.5" d="M0,-3.0v7 M-2.5,-0.5L0,-3.0L2.5,-0.5"/>
                </g>
               <g id="resetDef">
                       <use xlink:href="#rim2" fill="#404040">
                               <set attributeName="fill" to="#808080" begin="reset.mouseover" end="reset.mouseout"/>
                       </use>
               </g>
        </defs>

<script type="text/javascript">
var viewWidth = 1443;
var viewHeight = 263;
var sectionId = 'dynsection-0';
</script>
<script xlink:href="svgpan.js"/>
<svg id="graph" class="graph">
<g id="viewport">
<title>src/audio/audio_sink.cpp</title>
<polygon fill="white" stroke="none" points="-4,4 -4,-259 1438.5,-259 1438.5,4 -4,4"/>
<!-- Node1 -->
<g id="node1" class="node"><title>Node1</title>
<polygon fill="#bfbfbf" stroke="black" points="323,-235.5 323,-254.5 455,-254.5 455,-235.5 323,-235.5"/>
<text text-anchor="middle" x="389" y="-242.5" font-family="Helvetica,sans-Serif" font-size="10.00">src/audio/audio_sink.cpp</text>
</g>
<!-- Node2 -->
<g id="node2" class="node"><title>Node2</title>
<polygon fill="white" stroke="#bfbfbf" points="0,-179.5 0,-198.5 60,-198.5 60,-179.5 0,-179.5"/>
<text text-anchor="middle" x="30" y="-186.5" font-family="Helvetica,sans-Serif" font-size="10.00">algorithm</text>
</g>
<!-- Node1&#45;&gt;Node2 -->
<g id="edge1" class="edge"><title>Node1&#45;&gt;Node2</title>
<path fill="none" stroke="midnightblue" d="M322.845,-236.404C260.164,-228.819 163.201,-216.086 70.0527,-199.061"/>
<polygon fill="midnightblue" stroke="midnightblue" points="70.6488,-195.612 60.1794,-197.238 69.3774,-202.496 70.6488,-195.612"/>
</g>
<!-- Node3 -->
<g id="node3" class="node"><title>Node3</title>
<polygon fill="white" stroke="#bfbfbf" points="78.5,-179.5 78.5,-198.5 129.5,-198.5 129.5,-179.5 78.5,-179.5"/>
<text text-anchor="middle" x="104" y="-186.5" font-family="Helvetica,sans-Serif" font-size="10.00">cassert</text>
</g>
<!-- Node1&#45;&gt;Node3 -->
<g id="edge2" class="edge"><title>Node1&#45;&gt;Node3</title>
<path fill="none" stroke="midnightblue" d="M333.904,-235.446C285.17,-227.582 211.938,-215.037 139.743,-199.254"/>
<polygon fill="midnightblue" stroke="midnightblue" points="140.085,-195.745 129.565,-197.006 138.575,-202.581 140.085,-195.745"/>
</g>
<!-- Node4 -->
<g id="node4" class="node"><title>Node4</title>
<polygon fill="white" stroke="#bfbfbf" points="147.5,-179.5 147.5,-198.5 192.5,-198.5 192.5,-179.5 147.5,-179.5"/>
<text text-anchor="middle" x="170" y="-186.5" font-family="Helvetica,sans-Serif" font-size="10.00">climits</text>
</g>
<!-- Node1&#45;&gt;Node4 -->
<g id="edge3" class="edge"><title>Node1&#45;&gt;Node4</title>
<path fill="none" stroke="midnightblue" d="M351.642,-235.451C315.888,-227.171 260.207,-214.023 202.693,-199.105"/>
<polygon fill="midnightblue" stroke="midnightblue" points="203.256,-195.634 192.697,-196.498 201.49,-202.408 203.256,-195.634"/>
</g>
<!-- Node5 -->
<g id="node5" class="node"><title>Node5</title>
<polygon fill="white" stroke="#bfbfbf" points="211,-179.5 211,-198.5 259,-198.5 259,-179.5 211,-179.5"/>
<text text-anchor="middle" x="235" y="-186.5" font-family="Helvetica,sans-Serif" font-size="10.00">cstring</text>
</g>
<!-- Node1&#45;&gt;Node5 -->
<g id="edge4" class="edge"><title>Node1&#45;&gt;Node5</title>
<path fill="none" stroke="midnightblue" d="M364.598,-235.444C338.728,-226.372 297.683,-211.98 268.727,-201.826"/>
<polygon fill="midnightblue" stroke="midnightblue" points="269.629,-198.434 259.034,-198.428 267.313,-205.039 269.629,-198.434"/>
</g>
<!-- Node6 -->
<g id="node6" class="node"><title>Node6</title>
<polygon fill="white" stroke="#bfbfbf" points="292.5,-62 292.5,-81 335.5,-81 335.5,-62 292.5,-62"/>
<text text-anchor="middle" x="314" y="-69" font-family="Helvetica,sans-Serif" font-size="10.00">string</text>
</g>
<!-- Node1&#45;&gt;Node6 -->
<g id="edge5" class="edge"><title>Node1&#45;&gt;Node6</title>
<path fill="none" stroke="midnightblue" d="M356.815,-235.488C338.461,-228.801 316.984,-217.45 306,-199 285.906,-165.249 297.723,-117.063 306.72,-90.9812"/>
<polygon fill="midnightblue" stroke="midnightblue" points="310.127,-91.8566 310.301,-81.2632 303.559,-89.4358 310.127,-91.8566"/>
</g>
<!-- Node7 -->
<g id="node7" class="node"><title>Node7</title>
<polygon fill="white" stroke="#bfbfbf" points="1269.5,-179.5 1269.5,-198.5 1434.5,-198.5 1434.5,-179.5 1269.5,-179.5"/>
<text text-anchor="middle" x="1352" y="-186.5" font-family="Helvetica,sans-Serif" font-size="10.00">portaudiocpp/PortAudioCpp.hxx</text>
</g>
<!-- Node1&#45;&gt;Node7 -->
<g id="edge6" class="edge"><title>Node1&#45;&gt;Node7</title>
<path fill="none" stroke="midnightblue" d="M455.056,-241.483C599.99,-235.761 956.749,-220.576 1255,-199 1256.48,-198.893 1257.96,-198.783 1259.46,-198.67"/>
<polygon fill="midnightblue" stroke="midnightblue" points="1259.77,-202.157 1269.47,-197.887 1259.22,-195.178 1259.77,-202.157"/>
</g>
<!-- Node8 -->
<g id="node8" class="node"><title>Node8</title>
<g id="a_node8"><a xlink:href="errors_8hpp.html" target="_top" xlink:title="Declarations of the playd Error exception set. ">
<polygon fill="white" stroke="black" points="1179.5,-62 1179.5,-81 1252.5,-81 1252.5,-62 1179.5,-62"/>
<text text-anchor="middle" x="1216" y="-69" font-family="Helvetica,sans-Serif" font-size="10.00">../errors.hpp</text>
</a>
</g>
</g>
<!-- Node1&#45;&gt;Node8 -->
<g id="edge7" class="edge"><title>Node1&#45;&gt;Node8</title>
<path fill="none" stroke="midnightblue" d="M455.1,-243.695C564.862,-242.135 791.241,-234.437 979,-199 1062.58,-183.225 1092.14,-191.521 1162,-143 1181.71,-129.307 1197.42,-106.195 1206.7,-90.1838"/>
<polygon fill="midnightblue" stroke="midnightblue" points="1209.85,-91.7245 1211.63,-81.2803 1203.73,-88.3346 1209.85,-91.7245"/>
</g>
<!-- Node11 -->
<g id="node11" class="node"><title>Node11</title>
<g id="a_node11"><a xlink:href="sample__formats_8hpp.html" target="_top" xlink:title="The SampleFormat enumeration. ">
<polygon fill="white" stroke="black" points="353.5,-62 353.5,-81 472.5,-81 472.5,-62 353.5,-62"/>
<text text-anchor="middle" x="413" y="-69" font-family="Helvetica,sans-Serif" font-size="10.00">../sample_formats.hpp</text>
</a>
</g>
</g>
<!-- Node1&#45;&gt;Node11 -->
<g id="edge10" class="edge"><title>Node1&#45;&gt;Node11</title>
<path fill="none" stroke="midnightblue" d="M392.661,-235.214C396.212,-226.27 401.429,-211.923 404,-199 411.492,-161.344 412.953,-116.292 413.123,-91.3926"/>
<polygon fill="midnightblue" stroke="midnightblue" points="416.623,-91.1895 413.126,-81.1886 409.623,-91.1877 416.623,-91.1895"/>
</g>
<!-- Node13 -->
<g id="node13" class="node"><title>Node13</title>
<g id="a_node13"><a xlink:href="messages_8h.html" target="_top" xlink:title="Constant human&#45;readable messages used within playd. ">
<polygon fill="white" stroke="black" points="315,-179.5 315,-198.5 395,-198.5 395,-179.5 315,-179.5"/>
<text text-anchor="middle" x="355" y="-186.5" font-family="Helvetica,sans-Serif" font-size="10.00">../messages.h</text>
</a>
</g>
</g>
<!-- Node1&#45;&gt;Node13 -->
<g id="edge12" class="edge"><title>Node1&#45;&gt;Node13</title>
<path fill="none" stroke="midnightblue" d="M383.386,-235.083C378.633,-227.534 371.682,-216.495 365.848,-207.23"/>
<polygon fill="midnightblue" stroke="midnightblue" points="368.8,-205.349 360.51,-198.751 362.876,-209.078 368.8,-205.349"/>
</g>
<!-- Node14 -->
<g id="node14" class="node"><title>Node14</title>
<g id="a_node14"><a xlink:href="audio__sink_8hpp.html" target="_top" xlink:title="Declaration of the AudioSink class. ">
<polygon fill="white" stroke="black" points="882.5,-179.5 882.5,-198.5 969.5,-198.5 969.5,-179.5 882.5,-179.5"/>
<text text-anchor="middle" x="926" y="-186.5" font-family="Helvetica,sans-Serif" font-size="10.00">audio_sink.hpp</text>
</a>
</g>
</g>
<!-- Node1&#45;&gt;Node14 -->
<g id="edge14" class="edge"><title>Node1&#45;&gt;Node14</title>
<path fill="none" stroke="midnightblue" d="M455.116,-237.351C562.607,-226.542 773.188,-205.367 872.169,-195.413"/>
<polygon fill="midnightblue" stroke="midnightblue" points="872.649,-198.883 882.249,-194.4 871.948,-191.918 872.649,-198.883"/>
</g>
<!-- Node21 -->
<g id="node21" class="node"><title>Node21</title>
<g id="a_node21"><a xlink:href="audio__source_8hpp.html" target="_top" xlink:title="Declaration of the AudioSource class. ">
<polygon fill="white" stroke="black" points="429,-123.5 429,-142.5 529,-142.5 529,-123.5 429,-123.5"/>
<text text-anchor="middle" x="479" y="-130.5" font-family="Helvetica,sans-Serif" font-size="10.00">audio_source.hpp</text>
</a>
</g>
</g>
<!-- Node1&#45;&gt;Node21 -->
<g id="edge33" class="edge"><title>Node1&#45;&gt;Node21</title>
<path fill="none" stroke="midnightblue" d="M399.632,-235.356C409.86,-226.749 425.433,-212.854 437,-199 449.472,-184.061 461.276,-165.219 469.175,-151.673"/>
<polygon fill="midnightblue" stroke="midnightblue" points="472.278,-153.297 474.191,-142.876 466.197,-149.83 472.278,-153.297"/>
</g>
<!-- Node24 -->
<g id="node24" class="node"><title>Node24</title>
<g id="a_node24"><a xlink:href="ringbuffer_8hpp.html" target="_top" xlink:title="The RingBuffer class template. ">
<polygon fill="white" stroke="black" points="1231.5,-123.5 1231.5,-142.5 1312.5,-142.5 1312.5,-123.5 1231.5,-123.5"/>
<text text-anchor="middle" x="1272" y="-130.5" font-family="Helvetica,sans-Serif" font-size="10.00">ringbuffer.hpp</text>
</a>
</g>
</g>
<!-- Node1&#45;&gt;Node24 -->
<g id="edge34" class="edge"><title>Node1&#45;&gt;Node24</title>
<path fill="none" stroke="midnightblue" d="M455.007,-243.401C639.172,-241.311 1149.57,-232.529 1217,-199 1237.41,-188.85 1253.19,-167.34 1262.51,-151.841"/>
<polygon fill="midnightblue" stroke="midnightblue" points="1265.8,-153.129 1267.69,-142.703 1259.71,-149.679 1265.8,-153.129"/>
</g>
<!-- Node9 -->
<g id="node9" class="node"><title>Node9</title>
<polygon fill="white" stroke="#bfbfbf" points="1150.5,-0.5 1150.5,-19.5 1207.5,-19.5 1207.5,-0.5 1150.5,-0.5"/>
<text text-anchor="middle" x="1179" y="-7.5" font-family="Helvetica,sans-Serif" font-size="10.00">iostream</text>
</g>
<!-- Node8&#45;&gt;Node9 -->
<g id="edge8" class="edge"><title>Node8&#45;&gt;Node9</title>
<path fill="none" stroke="midnightblue" d="M1210.7,-61.9751C1205.26,-53.2268 1196.64,-39.3691 1189.76,-28.3093"/>
<polygon fill="midnightblue" stroke="midnightblue" points="1192.54,-26.1528 1184.29,-19.5091 1186.6,-29.8494 1192.54,-26.1528"/>
</g>
<!-- Node10 -->
<g id="node10" class="node"><title>Node10</title>
<polygon fill="white" stroke="#bfbfbf" points="1226,-0.5 1226,-19.5 1280,-19.5 1280,-0.5 1226,-0.5"/>
<text text-anchor="middle" x="1253" y="-7.5" font-family="Helvetica,sans-Serif" font-size="10.00">sstream</text>
</g>
<!-- Node8&#45;&gt;Node10 -->
<g id="edge9" class="edge"><title>Node8&#45;&gt;Node10</title>
<path fill="none" stroke="midnightblue" d="M1221.3,-61.9751C1226.74,-53.2268 1235.36,-39.3691 1242.24,-28.3093"/>
<polygon fill="midnightblue" stroke="midnightblue" points="1245.4,-29.8494 1247.71,-19.5091 1239.46,-26.1528 1245.4,-29.8494"/>
</g>
<!-- Node12 -->
<g id="node12" class="node"><title>Node12</title>
<polygon fill="white" stroke="#bfbfbf" points="536.5,-0.5 536.5,-19.5 583.5,-19.5 583.5,-0.5 536.5,-0.5"/>
<text text-anchor="middle" x="560" y="-7.5" font-family="Helvetica,sans-Serif" font-size="10.00">cstdint</text>
</g>
<!-- Node11&#45;&gt;Node12 -->
<g id="edge11" class="edge"><title>Node11&#45;&gt;Node12</title>
<path fill="none" stroke="midnightblue" d="M434.062,-61.9751C459.059,-51.8571 500.942,-34.9046 529.487,-23.3507"/>
<polygon fill="midnightblue" stroke="midnightblue" points="531.021,-26.5054 538.978,-19.5091 528.395,-20.0168 531.021,-26.5054"/>
</g>
<!-- Node13&#45;&gt;Node6 -->
<g id="edge13" class="edge"><title>Node13&#45;&gt;Node6</title>
<path fill="none" stroke="midnightblue" d="M351.918,-179.319C345.27,-160.59 329.458,-116.046 320.493,-90.7924"/>
<polygon fill="midnightblue" stroke="midnightblue" points="323.761,-89.535 317.117,-81.282 317.164,-91.8767 323.761,-89.535"/>
</g>
<!-- Node14&#45;&gt;Node6 -->
<g id="edge17" class="edge"><title>Node14&#45;&gt;Node6</title>
<path fill="none" stroke="midnightblue" d="M882.355,-186.875C775.795,-183.687 504.874,-172.814 420,-143 385.306,-130.813 350.935,-104.688 331.121,-87.8905"/>
<polygon fill="midnightblue" stroke="midnightblue" points="333.173,-85.0363 323.328,-81.1212 328.583,-90.3212 333.173,-85.0363"/>
</g>
<!-- Node14&#45;&gt;Node12 -->
<g id="edge15" class="edge"><title>Node14&#45;&gt;Node12</title>
<path fill="none" stroke="midnightblue" d="M969.689,-185.425C1027.37,-181.009 1124.18,-169.73 1146,-143 1151.62,-136.114 1151.54,-129.949 1146,-123 1076.39,-35.7365 708.566,-16.021 594.058,-11.9692"/>
<polygon fill="midnightblue" stroke="midnightblue" points="593.898,-8.46191 583.786,-11.6242 593.663,-15.458 593.898,-8.46191"/>
</g>
<!-- Node15 -->
<g id="node15" class="node"><title>Node15</title>
<polygon fill="white" stroke="#bfbfbf" points="899,-123.5 899,-142.5 953,-142.5 953,-123.5 899,-123.5"/>
<text text-anchor="middle" x="926" y="-130.5" font-family="Helvetica,sans-Serif" font-size="10.00">memory</text>
</g>
<!-- Node14&#45;&gt;Node15 -->
<g id="edge16" class="edge"><title>Node14&#45;&gt;Node15</title>
<path fill="none" stroke="midnightblue" d="M926,-179.083C926,-172.006 926,-161.861 926,-152.986"/>
<polygon fill="midnightblue" stroke="midnightblue" points="929.5,-152.751 926,-142.751 922.5,-152.751 929.5,-152.751"/>
</g>
<!-- Node16 -->
<g id="node16" class="node"><title>Node16</title>
<polygon fill="white" stroke="#bfbfbf" points="1009,-123.5 1009,-142.5 1049,-142.5 1049,-123.5 1009,-123.5"/>
<text text-anchor="middle" x="1029" y="-130.5" font-family="Helvetica,sans-Serif" font-size="10.00">utility</text>
</g>
<!-- Node14&#45;&gt;Node16 -->
<g id="edge18" class="edge"><title>Node14&#45;&gt;Node16</title>
<path fill="none" stroke="midnightblue" d="M942.549,-179.324C958.992,-170.703 984.435,-157.364 1003.47,-147.386"/>
<polygon fill="midnightblue" stroke="midnightblue" points="1005.26,-150.398 1012.49,-142.655 1002.01,-144.198 1005.26,-150.398"/>
</g>
<!-- Node17 -->
<g id="node17" class="node"><title>Node17</title>
<polygon fill="white" stroke="#bfbfbf" points="797,-62 797,-81 843,-81 843,-62 797,-62"/>
<text text-anchor="middle" x="820" y="-69" font-family="Helvetica,sans-Serif" font-size="10.00">vector</text>
</g>
<!-- Node14&#45;&gt;Node17 -->
<g id="edge19" class="edge"><title>Node14&#45;&gt;Node17</title>
<path fill="none" stroke="midnightblue" d="M937.175,-179.231C952.152,-166.399 975.388,-141.971 962,-123 937.564,-88.3741 887.205,-77.3482 853.509,-73.9199"/>
<polygon fill="midnightblue" stroke="midnightblue" points="853.466,-70.404 843.208,-73.0535 852.879,-77.3794 853.466,-70.404"/>
</g>
<!-- Node18 -->
<g id="node18" class="node"><title>Node18</title>
<polygon fill="white" stroke="#bfbfbf" points="1067.5,-123.5 1067.5,-142.5 1136.5,-142.5 1136.5,-123.5 1067.5,-123.5"/>
<text text-anchor="middle" x="1102" y="-130.5" font-family="Helvetica,sans-Serif" font-size="10.00">portaudio.h</text>
</g>
<!-- Node14&#45;&gt;Node18 -->
<g id="edge20" class="edge"><title>Node14&#45;&gt;Node18</title>
<path fill="none" stroke="midnightblue" d="M953.888,-179.444C983.754,-170.28 1031.31,-155.688 1064.46,-145.519"/>
<polygon fill="midnightblue" stroke="midnightblue" points="1065.71,-148.796 1074.24,-142.516 1063.66,-142.104 1065.71,-148.796"/>
</g>
<!-- Node19 -->
<g id="node19" class="node"><title>Node19</title>
<polygon fill="white" stroke="#bfbfbf" points="547,-123.5 547,-142.5 729,-142.5 729,-123.5 547,-123.5"/>
<text text-anchor="middle" x="638" y="-130.5" font-family="Helvetica,sans-Serif" font-size="10.00">portaudiocpp/CallbackInterface.hxx</text>
</g>
<!-- Node14&#45;&gt;Node19 -->
<g id="edge21" class="edge"><title>Node14&#45;&gt;Node19</title>
<path fill="none" stroke="midnightblue" d="M882.259,-179.799C831.744,-170.327 748.551,-154.728 693.517,-144.409"/>
<polygon fill="midnightblue" stroke="midnightblue" points="694.056,-140.95 683.582,-142.547 692.766,-147.83 694.056,-140.95"/>
</g>
<!-- Node20 -->
<g id="node20" class="node"><title>Node20</title>
<polygon fill="white" stroke="#bfbfbf" points="747,-123.5 747,-142.5 881,-142.5 881,-123.5 747,-123.5"/>
<text text-anchor="middle" x="814" y="-130.5" font-family="Helvetica,sans-Serif" font-size="10.00">portaudiocpp/Stream.hxx</text>
</g>
<!-- Node14&#45;&gt;Node20 -->
<g id="edge22" class="edge"><title>Node14&#45;&gt;Node20</title>
<path fill="none" stroke="midnightblue" d="M908.005,-179.324C889.962,-170.625 861.953,-157.12 841.197,-147.113"/>
<polygon fill="midnightblue" stroke="midnightblue" points="842.478,-143.845 831.95,-142.655 839.438,-150.15 842.478,-143.845"/>
</g>
<!-- Node14&#45;&gt;Node21 -->
<g id="edge23" class="edge"><title>Node14&#45;&gt;Node21</title>
<path fill="none" stroke="midnightblue" d="M882.295,-183.448C812.217,-176.037 670.127,-160.546 539.388,-143.146"/>
<polygon fill="midnightblue" stroke="midnightblue" points="539.57,-139.639 529.194,-141.782 538.642,-146.577 539.57,-139.639"/>
</g>
<!-- Node14&#45;&gt;Node24 -->
<g id="edge31" class="edge"><title>Node14&#45;&gt;Node24</title>
<path fill="none" stroke="midnightblue" d="M969.821,-181.161C1034.08,-171.132 1153.57,-152.483 1221.45,-141.889"/>
<polygon fill="midnightblue" stroke="midnightblue" points="1222.14,-145.323 1231.48,-140.323 1221.06,-138.407 1222.14,-145.323"/>
</g>
<!-- Node21&#45;&gt;Node6 -->
<g id="edge26" class="edge"><title>Node21&#45;&gt;Node6</title>
<path fill="none" stroke="midnightblue" d="M449.905,-123.487C422.296,-115.132 379.819,-101.556 344,-87 342.627,-86.4419 341.228,-85.8503 339.822,-85.2374"/>
<polygon fill="midnightblue" stroke="midnightblue" points="341.195,-82.0163 330.647,-81.0149 338.268,-88.3752 341.195,-82.0163"/>
</g>
<!-- Node21&#45;&gt;Node8 -->
<g id="edge29" class="edge"><title>Node21&#45;&gt;Node8</title>
<path fill="none" stroke="midnightblue" d="M529.177,-124.077C532.159,-123.69 535.117,-123.327 538,-123 774.326,-96.2142 1058.67,-80.3083 1169.03,-74.7498"/>
<polygon fill="midnightblue" stroke="midnightblue" points="1169.35,-78.2385 1179.16,-74.2442 1169,-71.2472 1169.35,-78.2385"/>
</g>
<!-- Node21&#45;&gt;Node11 -->
<g id="edge30" class="edge"><title>Node21&#45;&gt;Node11</title>
<path fill="none" stroke="midnightblue" d="M469.544,-123.475C459.252,-114.197 442.584,-99.1706 430.006,-87.831"/>
<polygon fill="midnightblue" stroke="midnightblue" points="432.21,-85.1054 422.439,-81.0091 427.522,-90.3046 432.21,-85.1054"/>
</g>
<!-- Node21&#45;&gt;Node12 -->
<g id="edge25" class="edge"><title>Node21&#45;&gt;Node12</title>
<path fill="none" stroke="midnightblue" d="M496.291,-123.491C510.131,-115.807 528.989,-103.225 540,-87 551.703,-69.7556 556.561,-46.032 558.575,-29.7006"/>
<polygon fill="midnightblue" stroke="midnightblue" points="562.059,-30.043 559.565,-19.7457 555.093,-29.3504 562.059,-30.043"/>
</g>
<!-- Node21&#45;&gt;Node17 -->
<g id="edge27" class="edge"><title>Node21&#45;&gt;Node17</title>
<path fill="none" stroke="midnightblue" d="M527.857,-123.475C598.217,-111.198 726.245,-88.8591 786.697,-78.311"/>
<polygon fill="midnightblue" stroke="midnightblue" points="787.578,-81.7101 796.828,-76.5433 786.375,-74.8143 787.578,-81.7101"/>
</g>
<!-- Node22 -->
<g id="node22" class="node"><title>Node22</title>
<polygon fill="white" stroke="#bfbfbf" points="588.5,-62 588.5,-81 629.5,-81 629.5,-62 588.5,-62"/>
<text text-anchor="middle" x="609" y="-69" font-family="Helvetica,sans-Serif" font-size="10.00">array</text>
</g>
<!-- Node21&#45;&gt;Node22 -->
<g id="edge24" class="edge"><title>Node21&#45;&gt;Node22</title>
<path fill="none" stroke="midnightblue" d="M497.626,-123.475C519.443,-113.49 555.804,-96.8476 581.017,-85.3075"/>
<polygon fill="midnightblue" stroke="midnightblue" points="582.772,-88.3534 590.409,-81.0091 579.859,-81.9884 582.772,-88.3534"/>
</g>
<!-- Node23 -->
<g id="node23" class="node"><title>Node23</title>
<polygon fill="white" stroke="#bfbfbf" points="490.5,-62 490.5,-81 531.5,-81 531.5,-62 490.5,-62"/>
<text text-anchor="middle" x="511" y="-69" font-family="Helvetica,sans-Serif" font-size="10.00">sox.h</text>
</g>
<!-- Node21&#45;&gt;Node23 -->
<g id="edge28" class="edge"><title>Node21&#45;&gt;Node23</title>
<path fill="none" stroke="midnightblue" d="M483.585,-123.475C488.242,-114.815 495.592,-101.149 501.51,-90.1453"/>
<polygon fill="midnightblue" stroke="midnightblue" points="504.77,-91.474 506.424,-81.0091 498.605,-88.1584 504.77,-91.474"/>
</g>
<!-- Node25 -->
<g id="node25" class="node"><title>Node25</title>
<polygon fill="white" stroke="#bfbfbf" points="1270.5,-56.5 1270.5,-86.5 1391.5,-86.5 1391.5,-56.5 1270.5,-56.5"/>
<text text-anchor="start" x="1278.5" y="-74.5" font-family="Helvetica,sans-Serif" font-size="10.00">../contrib/pa_ringbuffer</text>
<text text-anchor="middle" x="1331" y="-63.5" font-family="Helvetica,sans-Serif" font-size="10.00">/pa_ringbuffer.h</text>
</g>
<!-- Node24&#45;&gt;Node25 -->
<g id="edge32" class="edge"><title>Node24&#45;&gt;Node25</title>
<path fill="none" stroke="midnightblue" d="M1280.45,-123.475C1288.15,-115.718 1299.82,-103.943 1310.01,-93.6645"/>
<polygon fill="midnightblue" stroke="midnightblue" points="1312.54,-96.0883 1317.09,-86.523 1307.57,-91.1594 1312.54,-96.0883"/>
</g>
</g>
</svg>
        <g id="navigator" transform="translate(0 0)" fill="#404254">
                <rect fill="#f2f5e9" fill-opacity="0.5" stroke="#606060" stroke-width=".5" x="0" y="0" width="60" height="60"/>
                <use id="zoomplus" xlink:href="#zoomPlus" x="17" y="9" onmousedown="handleZoom(evt,'in')"/>
                <use id="zoomminus" xlink:href="#zoomMin" x="42" y="9" onmousedown="handleZoom(evt,'out')"/>
                <use id="reset" xlink:href="#resetDef" x="30" y="36" onmousedown="handleReset()"/>
                <g id="arrowUp" xlink:href="#dirArrow" transform="translate(30 24)" onmousedown="handlePan(0,-1)">
                  <use xlink:href="#rim" fill="#404040">
                        <set attributeName="fill" to="#808080" begin="arrowUp.mouseover" end="arrowUp.mouseout"/>
                  </use>
                  <path fill="none" stroke="white" stroke-width="1.5" d="M0,-3.0v7 M-2.5,-0.5L0,-3.0L2.5,-0.5"/>
                </g>
                <g id="arrowRight" xlink:href="#dirArrow" transform="rotate(90) translate(36 -43)" onmousedown="handlePan(1,0)">
                  <use xlink:href="#rim" fill="#404040">
                        <set attributeName="fill" to="#808080" begin="arrowRight.mouseover" end="arrowRight.mouseout"/>
                  </use>
                  <path fill="none" stroke="white" stroke-width="1.5" d="M0,-3.0v7 M-2.5,-0.5L0,-3.0L2.5,-0.5"/>
                </g>
                <g id="arrowDown" xlink:href="#dirArrow" transform="rotate(180) translate(-30 -48)" onmousedown="handlePan(0,1)">
                  <use xlink:href="#rim" fill="#404040">
                        <set attributeName="fill" to="#808080" begin="arrowDown.mouseover" end="arrowDown.mouseout"/>
                  </use>
                  <path fill="none" stroke="white" stroke-width="1.5" d="M0,-3.0v7 M-2.5,-0.5L0,-3.0L2.5,-0.5"/>
                </g>
                <g id="arrowLeft" xlink:href="#dirArrow" transform="rotate(270) translate(-36 17)" onmousedown="handlePan(-1,0)">
                  <use xlink:href="#rim" fill="#404040">
                        <set attributeName="fill" to="#808080" begin="arrowLeft.mouseover" end="arrowLeft.mouseout"/>
                  </use>
                  <path fill="none" stroke="white" stroke-width="1.5" d="M0,-3.0v7 M-2.5,-0.5L0,-3.0L2.5,-0.5"/>
                </g>
        </g>
        <svg viewBox="0 0 15 15" width="100%" height="30px" preserveAspectRatio="xMaxYMin meet">
         <g id="arrow_out" transform="scale(0.3 0.3)">
          <a xlink:href="audio__sink_8cpp__incl_org.svg" target="_base">
           <rect id="button" ry="5" rx="5" y="6" x="6" height="38" width="38"
                fill="#f2f5e9" fill-opacity="0.5" stroke="#606060" stroke-width="1.0"/>
           <path id="arrow"
             d="M 11.500037,31.436501 C 11.940474,20.09759 22.043105,11.32322 32.158766,21.979434 L 37.068811,17.246167 C 37.068811,17.246167 37.088388,32 37.088388,32 L 22.160133,31.978069 C 22.160133,31.978069 26.997745,27.140456 26.997745,27.140456 C 18.528582,18.264221 13.291696,25.230495 11.500037,31.436501 z"
             style="fill:#404040;"/>
          </a>
         </g>
        </svg>
</svg>
