<?xml version="1.0" encoding="UTF-8" standalone="no"?>
<!DOCTYPE svg PUBLIC "-//W3C//DTD SVG 1.1//EN"
 "http://www.w3.org/Graphics/SVG/1.1/DTD/svg11.dtd">
<!-- Generated by graphviz version 2.38.0 (20140413.2041)
 -->
<!-- Title: src/audio/audio_system.cpp Pages: 1 -->
<svg width="2619pt" height="330pt"
 viewBox="0.00 0.00 2619.00 330.00" xmlns="http://www.w3.org/2000/svg" xmlns:xlink="http://www.w3.org/1999/xlink">
<g id="graph0" class="graph" transform="scale(1 1) rotate(0) translate(4 326)">
<title>src/audio/audio_system.cpp</title>
<polygon fill="white" stroke="none" points="-4,4 -4,-326 2615,-326 2615,4 -4,4"/>
<!-- Node1 -->
<g id="node1" class="node"><title>Node1</title>
<polygon fill="#bfbfbf" stroke="black" points="1259,-302.5 1259,-321.5 1405,-321.5 1405,-302.5 1259,-302.5"/>
<text text-anchor="middle" x="1332" y="-309.5" font-family="Helvetica,sans-Serif" font-size="10.00">src/audio/audio_system.cpp</text>
</g>
<!-- Node2 -->
<g id="node2" class="node"><title>Node2</title>
<polygon fill="white" stroke="#bfbfbf" points="0,-241 0,-260 60,-260 60,-241 0,-241"/>
<text text-anchor="middle" x="30" y="-248" font-family="Helvetica,sans-Serif" font-size="10.00">algorithm</text>
</g>
<!-- Node1&#45;&gt;Node2 -->
<g id="edge1" class="edge"><title>Node1&#45;&gt;Node2</title>
<path fill="none" stroke="midnightblue" d="M1258.95,-311.455C1025.44,-312.43 299.014,-311.618 69,-266 65.7406,-265.354 62.3933,-264.471 59.095,-263.459"/>
<polygon fill="midnightblue" stroke="midnightblue" points="60.0785,-260.096 49.4837,-260.136 57.7913,-266.711 60.0785,-260.096"/>
</g>
<!-- Node3 -->
<g id="node3" class="node"><title>Node3</title>
<polygon fill="white" stroke="#bfbfbf" points="78.5,-241 78.5,-260 115.5,-260 115.5,-241 78.5,-241"/>
<text text-anchor="middle" x="97" y="-248" font-family="Helvetica,sans-Serif" font-size="10.00">map</text>
</g>
<!-- Node1&#45;&gt;Node3 -->
<g id="edge2" class="edge"><title>Node1&#45;&gt;Node3</title>
<path fill="none" stroke="midnightblue" d="M1258.65,-309.854C1014.66,-305.821 239.525,-291.149 130,-266 127.633,-265.456 125.225,-264.744 122.843,-263.927"/>
<polygon fill="midnightblue" stroke="midnightblue" points="123.954,-260.602 113.369,-260.142 121.356,-267.103 123.954,-260.602"/>
</g>
<!-- Node4 -->
<g id="node4" class="node"><title>Node4</title>
<polygon fill="white" stroke="#bfbfbf" points="117,-0.5 117,-19.5 171,-19.5 171,-0.5 117,-0.5"/>
<text text-anchor="middle" x="144" y="-7.5" font-family="Helvetica,sans-Serif" font-size="10.00">sstream</text>
</g>
<!-- Node1&#45;&gt;Node4 -->
<g id="edge3" class="edge"><title>Node1&#45;&gt;Node4</title>
<path fill="none" stroke="midnightblue" d="M1258.96,-310.793C1028.58,-309.757 326.867,-303.52 232,-266 183.944,-246.994 144,-241.678 144,-190 144,-190 144,-190 144,-132 144,-95.7138 144,-53.3066 144,-29.559"/>
<polygon fill="midnightblue" stroke="midnightblue" points="147.5,-29.5085 144,-19.5085 140.5,-29.5086 147.5,-29.5085"/>
</g>
<!-- Node5 -->
<g id="node5" class="node"><title>Node5</title>
<polygon fill="white" stroke="#bfbfbf" points="1515,-241 1515,-260 1577,-260 1577,-241 1515,-241"/>
<text text-anchor="middle" x="1546" y="-248" font-family="Helvetica,sans-Serif" font-size="10.00">stdexcept</text>
</g>
<!-- Node1&#45;&gt;Node5 -->
<g id="edge4" class="edge"><title>Node1&#45;&gt;Node5</title>
<path fill="none" stroke="midnightblue" d="M1366.13,-302.462C1400.37,-293.768 1454.54,-279.661 1501,-266 1504.15,-265.074 1507.41,-264.083 1510.68,-263.071"/>
<polygon fill="midnightblue" stroke="midnightblue" points="1511.89,-266.359 1520.37,-260.01 1509.78,-259.684 1511.89,-266.359"/>
</g>
<!-- Node6 -->
<g id="node6" class="node"><title>Node6</title>
<polygon fill="white" stroke="#bfbfbf" points="669.5,-0.5 669.5,-19.5 712.5,-19.5 712.5,-0.5 669.5,-0.5"/>
<text text-anchor="middle" x="691" y="-7.5" font-family="Helvetica,sans-Serif" font-size="10.00">string</text>
</g>
<!-- Node1&#45;&gt;Node6 -->
<g id="edge5" class="edge"><title>Node1&#45;&gt;Node6</title>
<path fill="none" stroke="midnightblue" d="M1258.88,-310.776C1075.01,-309.657 597.083,-303.15 443,-266 362.938,-246.696 274,-272.357 274,-190 274,-190 274,-190 274,-132 274,-97.1827 266.806,-78.9371 293,-56 320.429,-31.9812 570.034,-17.1149 659.376,-12.5251"/>
<polygon fill="midnightblue" stroke="midnightblue" points="659.64,-16.0163 669.451,-12.0164 659.287,-9.02522 659.64,-16.0163"/>
</g>
<!-- Node7 -->
<g id="node7" class="node"><title>Node7</title>
<polygon fill="white" stroke="#bfbfbf" points="1412.5,-62 1412.5,-81 1453.5,-81 1453.5,-62 1412.5,-62"/>
<text text-anchor="middle" x="1433" y="-69" font-family="Helvetica,sans-Serif" font-size="10.00">sox.h</text>
</g>
<!-- Node1&#45;&gt;Node7 -->
<g id="edge6" class="edge"><title>Node1&#45;&gt;Node7</title>
<path fill="none" stroke="midnightblue" d="M1365.5,-302.444C1386.2,-295.624 1411.98,-284.145 1429,-266 1474.19,-217.815 1452.33,-129.523 1439.75,-91.1396"/>
<polygon fill="midnightblue" stroke="midnightblue" points="1442.94,-89.6353 1436.37,-81.3186 1436.32,-91.9133 1442.94,-89.6353"/>
</g>
<!-- Node8 -->
<g id="node8" class="node"><title>Node8</title>
<polygon fill="white" stroke="#bfbfbf" points="439.5,-123.5 439.5,-142.5 508.5,-142.5 508.5,-123.5 439.5,-123.5"/>
<text text-anchor="middle" x="474" y="-130.5" font-family="Helvetica,sans-Serif" font-size="10.00">portaudio.h</text>
</g>
<!-- Node1&#45;&gt;Node8 -->
<g id="edge7" class="edge"><title>Node1&#45;&gt;Node8</title>
<path fill="none" stroke="midnightblue" d="M1258.89,-309.21C1165.94,-305.746 1000.96,-295.607 863,-266 724.666,-236.313 567.124,-173.366 503.219,-146.537"/>
<polygon fill="midnightblue" stroke="midnightblue" points="504.358,-143.218 493.784,-142.552 501.635,-149.667 504.358,-143.218"/>
</g>
<!-- Node9 -->
<g id="node9" class="node"><title>Node9</title>
<polygon fill="white" stroke="#bfbfbf" points="1595,-241 1595,-260 1727,-260 1727,-241 1595,-241"/>
<text text-anchor="middle" x="1661" y="-248" font-family="Helvetica,sans-Serif" font-size="10.00">portaudiocpp/Device.hxx</text>
</g>
<!-- Node1&#45;&gt;Node9 -->
<g id="edge8" class="edge"><title>Node1&#45;&gt;Node9</title>
<path fill="none" stroke="midnightblue" d="M1381.69,-302.434C1432.92,-293.545 1515.1,-279.133 1586,-266 1592.83,-264.734 1600.01,-263.379 1607.11,-262.024"/>
<polygon fill="midnightblue" stroke="midnightblue" points="1608.24,-265.372 1617.4,-260.049 1606.92,-258.497 1608.24,-265.372"/>
</g>
<!-- Node10 -->
<g id="node10" class="node"><title>Node10</title>
<polygon fill="white" stroke="#bfbfbf" points="1745,-235.5 1745,-265.5 1905,-265.5 1905,-235.5 1745,-235.5"/>
<text text-anchor="start" x="1753" y="-253.5" font-family="Helvetica,sans-Serif" font-size="10.00">portaudiocpp/DirectionSpecific</text>
<text text-anchor="middle" x="1825" y="-242.5" font-family="Helvetica,sans-Serif" font-size="10.00">StreamParameters.hxx</text>
</g>
<!-- Node1&#45;&gt;Node10 -->
<g id="edge9" class="edge"><title>Node1&#45;&gt;Node10</title>
<path fill="none" stroke="midnightblue" d="M1405.12,-303.978C1483.94,-296.156 1613.32,-282.58 1734.75,-266.128"/>
<polygon fill="midnightblue" stroke="midnightblue" points="1735.54,-269.553 1744.98,-264.734 1734.59,-262.617 1735.54,-269.553"/>
</g>
<!-- Node11 -->
<g id="node11" class="node"><title>Node11</title>
<polygon fill="white" stroke="#bfbfbf" points="1923.5,-235.5 1923.5,-265.5 2086.5,-265.5 2086.5,-235.5 1923.5,-235.5"/>
<text text-anchor="start" x="1931.5" y="-253.5" font-family="Helvetica,sans-Serif" font-size="10.00">portaudiocpp/InterfaceCallback</text>
<text text-anchor="middle" x="2005" y="-242.5" font-family="Helvetica,sans-Serif" font-size="10.00">Stream.hxx</text>
</g>
<!-- Node1&#45;&gt;Node11 -->
<g id="edge10" class="edge"><title>Node1&#45;&gt;Node11</title>
<path fill="none" stroke="midnightblue" d="M1405.23,-307.242C1513.79,-301.249 1724.03,-288.025 1913.06,-266.044"/>
<polygon fill="midnightblue" stroke="midnightblue" points="1913.67,-269.497 1923.19,-264.855 1912.85,-262.545 1913.67,-269.497"/>
</g>
<!-- Node12 -->
<g id="node12" class="node"><title>Node12</title>
<polygon fill="white" stroke="#bfbfbf" points="1153.5,-179.5 1153.5,-198.5 1344.5,-198.5 1344.5,-179.5 1153.5,-179.5"/>
<text text-anchor="middle" x="1249" y="-186.5" font-family="Helvetica,sans-Serif" font-size="10.00">portaudiocpp/SampleDataFormat.hxx</text>
</g>
<!-- Node1&#45;&gt;Node12 -->
<g id="edge11" class="edge"><title>Node1&#45;&gt;Node12</title>
<path fill="none" stroke="midnightblue" d="M1326.03,-302.298C1312.39,-282.414 1278.74,-233.352 1260.76,-207.147"/>
<polygon fill="midnightblue" stroke="midnightblue" points="1263.46,-204.89 1254.92,-198.623 1257.69,-208.849 1263.46,-204.89"/>
</g>
<!-- Node13 -->
<g id="node13" class="node"><title>Node13</title>
<polygon fill="white" stroke="#bfbfbf" points="1279,-123.5 1279,-142.5 1413,-142.5 1413,-123.5 1279,-123.5"/>
<text text-anchor="middle" x="1346" y="-130.5" font-family="Helvetica,sans-Serif" font-size="10.00">portaudiocpp/Stream.hxx</text>
</g>
<!-- Node1&#45;&gt;Node13 -->
<g id="edge12" class="edge"><title>Node1&#45;&gt;Node13</title>
<path fill="none" stroke="midnightblue" d="M1349.2,-302.386C1362.25,-294.794 1379.23,-282.389 1387,-266 1403.56,-231.058 1400.96,-215.058 1387,-179 1382.55,-167.498 1373.63,-157.131 1365.25,-149.255"/>
<polygon fill="midnightblue" stroke="midnightblue" points="1367.37,-146.46 1357.54,-142.51 1362.76,-151.729 1367.37,-146.46"/>
</g>
<!-- Node14 -->
<g id="node14" class="node"><title>Node14</title>
<polygon fill="white" stroke="#bfbfbf" points="2105,-241 2105,-260 2293,-260 2293,-241 2105,-241"/>
<text text-anchor="middle" x="2199" y="-248" font-family="Helvetica,sans-Serif" font-size="10.00">portaudiocpp/StreamParameters.hxx</text>
</g>
<!-- Node1&#45;&gt;Node14 -->
<g id="edge13" class="edge"><title>Node1&#45;&gt;Node14</title>
<path fill="none" stroke="midnightblue" d="M1405.11,-308.666C1541.3,-303.881 1842.98,-291.22 2096,-266 2108.48,-264.756 2121.76,-263.121 2134.5,-261.397"/>
<polygon fill="midnightblue" stroke="midnightblue" points="2135.15,-264.841 2144.58,-260.001 2134.19,-257.907 2135.15,-264.841"/>
</g>
<!-- Node15 -->
<g id="node15" class="node"><title>Node15</title>
<polygon fill="white" stroke="#bfbfbf" points="2311,-241 2311,-260 2445,-260 2445,-241 2311,-241"/>
<text text-anchor="middle" x="2378" y="-248" font-family="Helvetica,sans-Serif" font-size="10.00">portaudiocpp/System.hxx</text>
</g>
<!-- Node1&#45;&gt;Node15 -->
<g id="edge14" class="edge"><title>Node1&#45;&gt;Node15</title>
<path fill="none" stroke="midnightblue" d="M1405.3,-311.147C1567.5,-310.697 1968.83,-305.309 2302,-266 2310.82,-264.959 2320.15,-263.489 2329.15,-261.88"/>
<polygon fill="midnightblue" stroke="midnightblue" points="2329.92,-265.296 2339.11,-260.021 2328.64,-258.415 2329.92,-265.296"/>
</g>
<!-- Node16 -->
<g id="node16" class="node"><title>Node16</title>
<polygon fill="white" stroke="#bfbfbf" points="2463,-235.5 2463,-265.5 2611,-265.5 2611,-235.5 2463,-235.5"/>
<text text-anchor="start" x="2471" y="-253.5" font-family="Helvetica,sans-Serif" font-size="10.00">portaudiocpp/SystemDevice</text>
<text text-anchor="middle" x="2537" y="-242.5" font-family="Helvetica,sans-Serif" font-size="10.00">Iterator.hxx</text>
</g>
<!-- Node1&#45;&gt;Node16 -->
<g id="edge15" class="edge"><title>Node1&#45;&gt;Node16</title>
<path fill="none" stroke="midnightblue" d="M1405.1,-311.421C1582.89,-311.724 2052.14,-308.186 2452.81,-266.022"/>
<polygon fill="midnightblue" stroke="midnightblue" points="2453.28,-269.492 2462.86,-264.955 2452.54,-262.531 2453.28,-269.492"/>
</g>
<!-- Node17 -->
<g id="node17" class="node"><title>Node17</title>
<g id="a_node17"><a xlink:href="errors_8hpp.html" target="_top" xlink:title="Declarations of the playd Error exception set. ">
<polygon fill="white" stroke="black" points="172.5,-62 172.5,-81 245.5,-81 245.5,-62 172.5,-62"/>
<text text-anchor="middle" x="209" y="-69" font-family="Helvetica,sans-Serif" font-size="10.00">../errors.hpp</text>
</a>
</g>
</g>
<!-- Node1&#45;&gt;Node17 -->
<g id="edge16" class="edge"><title>Node1&#45;&gt;Node17</title>
<path fill="none" stroke="midnightblue" d="M1258.87,-310.295C1023.53,-307.719 298.868,-297.272 260,-266 206.54,-222.988 205.213,-131.17 207.398,-91.4549"/>
<polygon fill="midnightblue" stroke="midnightblue" points="210.901,-91.532 208.101,-81.3139 203.918,-91.0479 210.901,-91.532"/>
</g>
<!-- Node19 -->
<g id="node19" class="node"><title>Node19</title>
<g id="a_node19"><a xlink:href="messages_8h.html" target="_top" xlink:title="Constant human&#45;readable messages used within playd. ">
<polygon fill="white" stroke="black" points="302,-62 302,-81 382,-81 382,-62 302,-62"/>
<text text-anchor="middle" x="342" y="-69" font-family="Helvetica,sans-Serif" font-size="10.00">../messages.h</text>
</a>
</g>
</g>
<!-- Node1&#45;&gt;Node19 -->
<g id="edge19" class="edge"><title>Node1&#45;&gt;Node19</title>
<path fill="none" stroke="midnightblue" d="M1258.81,-310.417C1146.8,-308.401 926.527,-300.001 743,-266 555.1,-231.189 445.174,-296.24 331,-143 319.707,-127.844 325.783,-105.71 332.535,-90.3009"/>
<polygon fill="midnightblue" stroke="midnightblue" points="335.692,-91.8128 336.895,-81.2864 329.39,-88.7654 335.692,-91.8128"/>
</g>
<!-- Node20 -->
<g id="node20" class="node"><title>Node20</title>
<g id="a_node20"><a xlink:href="sample__formats_8hpp.html" target="_top" xlink:title="The SampleFormat enumeration. ">
<polygon fill="white" stroke="black" points="1221.5,-62 1221.5,-81 1340.5,-81 1340.5,-62 1221.5,-62"/>
<text text-anchor="middle" x="1281" y="-69" font-family="Helvetica,sans-Serif" font-size="10.00">../sample_formats.hpp</text>
</a>
</g>
</g>
<!-- Node1&#45;&gt;Node20 -->
<g id="edge21" class="edge"><title>Node1&#45;&gt;Node20</title>
<path fill="none" stroke="midnightblue" d="M1357.1,-302.37C1373.76,-295.279 1394.6,-283.518 1406,-266 1440.88,-212.398 1458.82,-175.292 1422,-123 1405.6,-99.7092 1377.42,-87.1042 1350.54,-80.3047"/>
<polygon fill="midnightblue" stroke="midnightblue" points="1351.25,-76.8766 1340.72,-78.0532 1349.69,-83.6996 1351.25,-76.8766"/>
</g>
<!-- Node22 -->
<g id="node22" class="node"><title>Node22</title>
<g id="a_node22"><a xlink:href="audio_8hpp.html" target="_top" xlink:title="Declaration of the Audio class. ">
<polygon fill="white" stroke="black" points="883,-179.5 883,-198.5 945,-198.5 945,-179.5 883,-179.5"/>
<text text-anchor="middle" x="914" y="-186.5" font-family="Helvetica,sans-Serif" font-size="10.00">audio.hpp</text>
</a>
</g>
</g>
<!-- Node1&#45;&gt;Node22 -->
<g id="edge23" class="edge"><title>Node1&#45;&gt;Node22</title>
<path fill="none" stroke="midnightblue" d="M1258.74,-306.875C1172.69,-301.079 1035.86,-288.612 990,-266 962.637,-252.507 939.225,-225.249 925.879,-207.312"/>
<polygon fill="midnightblue" stroke="midnightblue" points="928.522,-204.991 919.85,-198.904 922.833,-209.07 928.522,-204.991"/>
</g>
<!-- Node27 -->
<g id="node27" class="node"><title>Node27</title>
<g id="a_node27"><a xlink:href="audio__source_8hpp.html" target="_top" xlink:title="Declaration of the AudioSource class. ">
<polygon fill="white" stroke="black" points="1123,-123.5 1123,-142.5 1223,-142.5 1223,-123.5 1123,-123.5"/>
<text text-anchor="middle" x="1173" y="-130.5" font-family="Helvetica,sans-Serif" font-size="10.00">audio_source.hpp</text>
</a>
</g>
</g>
<!-- Node1&#45;&gt;Node27 -->
<g id="edge54" class="edge"><title>Node1&#45;&gt;Node27</title>
<path fill="none" stroke="midnightblue" d="M1337.56,-302.176C1351.27,-279.201 1383.48,-216.704 1354,-179 1339.09,-159.928 1279.85,-147.783 1233.15,-140.98"/>
<polygon fill="midnightblue" stroke="midnightblue" points="1233.48,-137.493 1223.09,-139.568 1232.51,-144.425 1233.48,-137.493"/>
</g>
<!-- Node29 -->
<g id="node29" class="node"><title>Node29</title>
<g id="a_node29"><a xlink:href="audio__sink_8hpp.html" target="_top" xlink:title="Declaration of the AudioSink class. ">
<polygon fill="white" stroke="black" points="737.5,-179.5 737.5,-198.5 824.5,-198.5 824.5,-179.5 737.5,-179.5"/>
<text text-anchor="middle" x="781" y="-186.5" font-family="Helvetica,sans-Serif" font-size="10.00">audio_sink.hpp</text>
</a>
</g>
</g>
<!-- Node1&#45;&gt;Node29 -->
<g id="edge39" class="edge"><title>Node1&#45;&gt;Node29</title>
<path fill="none" stroke="midnightblue" d="M1258.83,-309.305C1180.2,-305.914 1052.2,-295.832 946,-266 892.893,-251.082 835.332,-221.072 804.194,-203.556"/>
<polygon fill="midnightblue" stroke="midnightblue" points="805.834,-200.462 795.413,-198.552 802.368,-206.544 805.834,-200.462"/>
</g>
<!-- Node33 -->
<g id="node33" class="node"><title>Node33</title>
<g id="a_node33"><a xlink:href="audio__system_8hpp.html" target="_top" xlink:title="Declaration of the AudioSystem class. ">
<polygon fill="white" stroke="black" points="998.5,-241 998.5,-260 1099.5,-260 1099.5,-241 998.5,-241"/>
<text text-anchor="middle" x="1049" y="-248" font-family="Helvetica,sans-Serif" font-size="10.00">audio_system.hpp</text>
</a>
</g>
</g>
<!-- Node1&#45;&gt;Node33 -->
<g id="edge55" class="edge"><title>Node1&#45;&gt;Node33</title>
<path fill="none" stroke="midnightblue" d="M1291.45,-302.475C1240.81,-291.827 1154.16,-273.609 1099.32,-262.081"/>
<polygon fill="midnightblue" stroke="midnightblue" points="1099.98,-258.642 1089.47,-260.009 1098.54,-265.492 1099.98,-258.642"/>
</g>
<!-- Node17&#45;&gt;Node4 -->
<g id="edge18" class="edge"><title>Node17&#45;&gt;Node4</title>
<path fill="none" stroke="midnightblue" d="M199.687,-61.9751C189.551,-52.6966 173.136,-37.6706 160.748,-26.331"/>
<polygon fill="midnightblue" stroke="midnightblue" points="163.035,-23.6795 153.296,-19.5091 158.309,-28.8429 163.035,-23.6795"/>
</g>
<!-- Node18 -->
<g id="node18" class="node"><title>Node18</title>
<polygon fill="white" stroke="#bfbfbf" points="189.5,-0.5 189.5,-19.5 246.5,-19.5 246.5,-0.5 189.5,-0.5"/>
<text text-anchor="middle" x="218" y="-7.5" font-family="Helvetica,sans-Serif" font-size="10.00">iostream</text>
</g>
<!-- Node17&#45;&gt;Node18 -->
<g id="edge17" class="edge"><title>Node17&#45;&gt;Node18</title>
<path fill="none" stroke="midnightblue" d="M210.289,-61.9751C211.559,-53.5803 213.541,-40.4806 215.177,-29.6631"/>
<polygon fill="midnightblue" stroke="midnightblue" points="218.678,-29.9201 216.713,-19.5091 211.757,-28.8731 218.678,-29.9201"/>
</g>
<!-- Node19&#45;&gt;Node6 -->
<g id="edge20" class="edge"><title>Node19&#45;&gt;Node6</title>
<path fill="none" stroke="midnightblue" d="M368.272,-61.9956C375.578,-59.8309 383.551,-57.6523 391,-56 487.646,-34.5606 604.105,-20.3443 659.177,-14.3026"/>
<polygon fill="midnightblue" stroke="midnightblue" points="659.783,-17.7576 669.349,-13.2035 659.031,-10.7981 659.783,-17.7576"/>
</g>
<!-- Node21 -->
<g id="node21" class="node"><title>Node21</title>
<polygon fill="white" stroke="#bfbfbf" points="1101.5,-0.5 1101.5,-19.5 1148.5,-19.5 1148.5,-0.5 1101.5,-0.5"/>
<text text-anchor="middle" x="1125" y="-7.5" font-family="Helvetica,sans-Serif" font-size="10.00">cstdint</text>
</g>
<!-- Node20&#45;&gt;Node21 -->
<g id="edge22" class="edge"><title>Node20&#45;&gt;Node21</title>
<path fill="none" stroke="midnightblue" d="M1258.65,-61.9751C1232.01,-51.8129 1187.29,-34.7564 1156.99,-23.1996"/>
<polygon fill="midnightblue" stroke="midnightblue" points="1157.9,-19.8026 1147.31,-19.5091 1155.41,-26.343 1157.9,-19.8026"/>
</g>
<!-- Node22&#45;&gt;Node6 -->
<g id="edge26" class="edge"><title>Node22&#45;&gt;Node6</title>
<path fill="none" stroke="midnightblue" d="M915.002,-179.087C916.031,-165.633 916.068,-139.916 904,-123 859.693,-60.8946 770.223,-30.4039 722.561,-18.0252"/>
<polygon fill="midnightblue" stroke="midnightblue" points="723.329,-14.6095 712.779,-15.5875 721.636,-21.4018 723.329,-14.6095"/>
</g>
<!-- Node22&#45;&gt;Node8 -->
<g id="edge29" class="edge"><title>Node22&#45;&gt;Node8</title>
<path fill="none" stroke="midnightblue" d="M882.709,-184.16C805.94,-174.738 608.05,-150.452 518.816,-139.5"/>
<polygon fill="midnightblue" stroke="midnightblue" points="519.094,-136.008 508.742,-138.264 518.242,-142.956 519.094,-136.008"/>
</g>
<!-- Node22&#45;&gt;Node21 -->
<g id="edge24" class="edge"><title>Node22&#45;&gt;Node21</title>
<path fill="none" stroke="midnightblue" d="M945.237,-182.431C972.083,-176.385 1010.67,-164.565 1038,-143 1077.55,-111.791 1105.11,-57.4767 1117.54,-29.2337"/>
<polygon fill="midnightblue" stroke="midnightblue" points="1120.87,-30.3605 1121.56,-19.7884 1114.42,-27.6205 1120.87,-30.3605"/>
</g>
<!-- Node23 -->
<g id="node23" class="node"><title>Node23</title>
<polygon fill="white" stroke="#bfbfbf" points="841,-123.5 841,-142.5 895,-142.5 895,-123.5 841,-123.5"/>
<text text-anchor="middle" x="868" y="-130.5" font-family="Helvetica,sans-Serif" font-size="10.00">memory</text>
</g>
<!-- Node22&#45;&gt;Node23 -->
<g id="edge25" class="edge"><title>Node22&#45;&gt;Node23</title>
<path fill="none" stroke="midnightblue" d="M906.404,-179.083C899.773,-171.298 889.979,-159.801 881.942,-150.367"/>
<polygon fill="midnightblue" stroke="midnightblue" points="884.604,-148.094 875.455,-142.751 879.275,-152.633 884.604,-148.094"/>
</g>
<!-- Node24 -->
<g id="node24" class="node"><title>Node24</title>
<polygon fill="white" stroke="#bfbfbf" points="989,-123.5 989,-142.5 1029,-142.5 1029,-123.5 989,-123.5"/>
<text text-anchor="middle" x="1009" y="-130.5" font-family="Helvetica,sans-Serif" font-size="10.00">utility</text>
</g>
<!-- Node22&#45;&gt;Node24 -->
<g id="edge27" class="edge"><title>Node22&#45;&gt;Node24</title>
<path fill="none" stroke="midnightblue" d="M929.263,-179.324C944.221,-170.822 967.255,-157.729 984.727,-147.797"/>
<polygon fill="midnightblue" stroke="midnightblue" points="986.81,-150.639 993.774,-142.655 983.351,-144.553 986.81,-150.639"/>
</g>
<!-- Node25 -->
<g id="node25" class="node"><title>Node25</title>
<polygon fill="white" stroke="#bfbfbf" points="938,-62 938,-81 984,-81 984,-62 938,-62"/>
<text text-anchor="middle" x="961" y="-69" font-family="Helvetica,sans-Serif" font-size="10.00">vector</text>
</g>
<!-- Node22&#45;&gt;Node25 -->
<g id="edge28" class="edge"><title>Node22&#45;&gt;Node25</title>
<path fill="none" stroke="midnightblue" d="M918.969,-179.216C923.913,-170.274 931.529,-155.928 937,-143 944.308,-125.731 951.038,-105.401 955.5,-91.0217"/>
<polygon fill="midnightblue" stroke="midnightblue" points="958.885,-91.92 958.442,-81.3344 952.187,-89.8859 958.885,-91.92"/>
</g>
<!-- Node26 -->
<g id="node26" class="node"><title>Node26</title>
<polygon fill="white" stroke="#bfbfbf" points="641,-123.5 641,-142.5 823,-142.5 823,-123.5 641,-123.5"/>
<text text-anchor="middle" x="732" y="-130.5" font-family="Helvetica,sans-Serif" font-size="10.00">portaudiocpp/CallbackInterface.hxx</text>
</g>
<!-- Node22&#45;&gt;Node26 -->
<g id="edge30" class="edge"><title>Node22&#45;&gt;Node26</title>
<path fill="none" stroke="midnightblue" d="M885.162,-179.444C854.144,-170.241 804.671,-155.562 770.382,-145.388"/>
<polygon fill="midnightblue" stroke="midnightblue" points="771.286,-142.006 760.704,-142.516 769.295,-148.716 771.286,-142.006"/>
</g>
<!-- Node22&#45;&gt;Node27 -->
<g id="edge31" class="edge"><title>Node22&#45;&gt;Node27</title>
<path fill="none" stroke="midnightblue" d="M945.241,-181.486C989.101,-172.342 1069.44,-155.592 1122.03,-144.628"/>
<polygon fill="midnightblue" stroke="midnightblue" points="1122.75,-148.051 1131.83,-142.584 1121.33,-141.199 1122.75,-148.051"/>
</g>
<!-- Node27&#45;&gt;Node6 -->
<g id="edge34" class="edge"><title>Node27&#45;&gt;Node6</title>
<path fill="none" stroke="midnightblue" d="M1160.96,-123.453C1137.56,-107.313 1083.76,-72.4903 1033,-56 923.12,-20.3069 784.63,-12.8543 723.05,-11.3487"/>
<polygon fill="midnightblue" stroke="midnightblue" points="722.882,-7.84461 712.812,-11.137 722.738,-14.8431 722.882,-7.84461"/>
</g>
<!-- Node27&#45;&gt;Node7 -->
<g id="edge36" class="edge"><title>Node27&#45;&gt;Node7</title>
<path fill="none" stroke="midnightblue" d="M1210.25,-123.475C1262.05,-111.62 1354.86,-90.3827 1402.68,-79.4394"/>
<polygon fill="midnightblue" stroke="midnightblue" points="1403.47,-82.8473 1412.44,-77.2046 1401.91,-76.0237 1403.47,-82.8473"/>
</g>
<!-- Node27&#45;&gt;Node17 -->
<g id="edge37" class="edge"><title>Node27&#45;&gt;Node17</title>
<path fill="none" stroke="midnightblue" d="M1122.69,-128.427C1097.3,-126.679 1066.02,-124.611 1038,-123 707.049,-103.974 622.508,-123.263 293,-87 280.818,-85.6594 267.728,-83.6688 255.591,-81.589"/>
<polygon fill="midnightblue" stroke="midnightblue" points="256.118,-78.128 245.661,-79.8333 254.899,-85.0211 256.118,-78.128"/>
</g>
<!-- Node27&#45;&gt;Node20 -->
<g id="edge38" class="edge"><title>Node27&#45;&gt;Node20</title>
<path fill="none" stroke="midnightblue" d="M1188.47,-123.475C1206.28,-113.666 1235.74,-97.4346 1256.63,-85.925"/>
<polygon fill="midnightblue" stroke="midnightblue" points="1258.49,-88.9001 1265.55,-81.0091 1255.11,-82.769 1258.49,-88.9001"/>
</g>
<!-- Node27&#45;&gt;Node21 -->
<g id="edge33" class="edge"><title>Node27&#45;&gt;Node21</title>
<path fill="none" stroke="midnightblue" d="M1175.4,-123.101C1178.87,-108.409 1183.87,-78.4707 1174,-56 1168.61,-43.732 1158.04,-33.3414 1148.1,-25.6461"/>
<polygon fill="midnightblue" stroke="midnightblue" points="1149.83,-22.5811 1139.66,-19.598 1145.75,-28.2697 1149.83,-22.5811"/>
</g>
<!-- Node27&#45;&gt;Node25 -->
<g id="edge35" class="edge"><title>Node27&#45;&gt;Node25</title>
<path fill="none" stroke="midnightblue" d="M1142.63,-123.475C1103.15,-112.396 1034.48,-93.1227 993.834,-81.7151"/>
<polygon fill="midnightblue" stroke="midnightblue" points="994.713,-78.3266 984.139,-78.9941 992.821,-85.0662 994.713,-78.3266"/>
</g>
<!-- Node28 -->
<g id="node28" class="node"><title>Node28</title>
<polygon fill="white" stroke="#bfbfbf" points="1123.5,-62 1123.5,-81 1164.5,-81 1164.5,-62 1123.5,-62"/>
<text text-anchor="middle" x="1144" y="-69" font-family="Helvetica,sans-Serif" font-size="10.00">array</text>
</g>
<!-- Node27&#45;&gt;Node28 -->
<g id="edge32" class="edge"><title>Node27&#45;&gt;Node28</title>
<path fill="none" stroke="midnightblue" d="M1168.85,-123.475C1164.62,-114.815 1157.96,-101.149 1152.6,-90.1453"/>
<polygon fill="midnightblue" stroke="midnightblue" points="1155.67,-88.4648 1148.15,-81.0091 1149.38,-91.5317 1155.67,-88.4648"/>
</g>
<!-- Node29&#45;&gt;Node6 -->
<g id="edge42" class="edge"><title>Node29&#45;&gt;Node6</title>
<path fill="none" stroke="midnightblue" d="M737.311,-185.425C679.634,-181.009 582.816,-169.73 561,-143 555.38,-136.114 557.296,-131.08 561,-123 564.018,-116.415 637.504,-55.1755 672.628,-26.1388"/>
<polygon fill="midnightblue" stroke="midnightblue" points="675.182,-28.569 680.665,-19.5033 670.725,-23.1709 675.182,-28.569"/>
</g>
<!-- Node29&#45;&gt;Node8 -->
<g id="edge45" class="edge"><title>Node29&#45;&gt;Node8</title>
<path fill="none" stroke="midnightblue" d="M737.155,-180.476C685.805,-171.635 598.19,-156.462 523,-143 521.537,-142.738 520.049,-142.471 518.547,-142.2"/>
<polygon fill="midnightblue" stroke="midnightblue" points="518.991,-138.723 508.527,-140.382 517.741,-145.611 518.991,-138.723"/>
</g>
<!-- Node29&#45;&gt;Node13 -->
<g id="edge47" class="edge"><title>Node29&#45;&gt;Node13</title>
<path fill="none" stroke="midnightblue" d="M824.527,-183.775C840.13,-182.264 857.853,-180.551 874,-179 1013,-165.648 1175.04,-150.231 1268.55,-141.35"/>
<polygon fill="midnightblue" stroke="midnightblue" points="1269.15,-144.809 1278.78,-140.379 1268.49,-137.84 1269.15,-144.809"/>
</g>
<!-- Node29&#45;&gt;Node21 -->
<g id="edge40" class="edge"><title>Node29&#45;&gt;Node21</title>
<path fill="none" stroke="midnightblue" d="M737.168,-185.258C679.023,-179.963 587.418,-164.864 621,-123 680.519,-48.8027 987.767,-20.6513 1091.07,-13.195"/>
<polygon fill="midnightblue" stroke="midnightblue" points="1091.52,-16.672 1101.25,-12.48 1091.03,-9.68923 1091.52,-16.672"/>
</g>
<!-- Node29&#45;&gt;Node23 -->
<g id="edge41" class="edge"><title>Node29&#45;&gt;Node23</title>
<path fill="none" stroke="midnightblue" d="M794.978,-179.324C808.55,-170.9 829.38,-157.971 845.325,-148.074"/>
<polygon fill="midnightblue" stroke="midnightblue" points="847.406,-150.902 854.057,-142.655 843.714,-144.954 847.406,-150.902"/>
</g>
<!-- Node29&#45;&gt;Node24 -->
<g id="edge43" class="edge"><title>Node29&#45;&gt;Node24</title>
<path fill="none" stroke="midnightblue" d="M817.127,-179.444C861.925,-168.834 937.454,-150.945 979.136,-141.073"/>
<polygon fill="midnightblue" stroke="midnightblue" points="980.04,-144.456 988.964,-138.745 978.427,-137.644 980.04,-144.456"/>
</g>
<!-- Node29&#45;&gt;Node25 -->
<g id="edge44" class="edge"><title>Node29&#45;&gt;Node25</title>
<path fill="none" stroke="midnightblue" d="M737.431,-184.024C682.678,-177.375 599.559,-160.8 632,-123 641.623,-111.787 845.945,-86.2482 927.66,-76.4386"/>
<polygon fill="midnightblue" stroke="midnightblue" points="928.382,-79.8772 937.896,-75.2151 927.551,-72.9267 928.382,-79.8772"/>
</g>
<!-- Node29&#45;&gt;Node26 -->
<g id="edge46" class="edge"><title>Node29&#45;&gt;Node26</title>
<path fill="none" stroke="midnightblue" d="M772.909,-179.083C765.845,-171.298 755.412,-159.801 746.851,-150.367"/>
<polygon fill="midnightblue" stroke="midnightblue" points="749.253,-147.805 739.941,-142.751 744.069,-152.509 749.253,-147.805"/>
</g>
<!-- Node29&#45;&gt;Node27 -->
<g id="edge48" class="edge"><title>Node29&#45;&gt;Node27</title>
<path fill="none" stroke="midnightblue" d="M824.826,-181.963C894.998,-172.296 1032.74,-153.321 1112.33,-142.358"/>
<polygon fill="midnightblue" stroke="midnightblue" points="1113.26,-145.763 1122.68,-140.931 1112.3,-138.829 1113.26,-145.763"/>
</g>
<!-- Node30 -->
<g id="node30" class="node"><title>Node30</title>
<g id="a_node30"><a xlink:href="ringbuffer_8hpp.html" target="_top" xlink:title="The RingBuffer class template. ">
<polygon fill="white" stroke="black" points="340.5,-123.5 340.5,-142.5 421.5,-142.5 421.5,-123.5 340.5,-123.5"/>
<text text-anchor="middle" x="381" y="-130.5" font-family="Helvetica,sans-Serif" font-size="10.00">ringbuffer.hpp</text>
</a>
</g>
</g>
<!-- Node29&#45;&gt;Node30 -->
<g id="edge49" class="edge"><title>Node29&#45;&gt;Node30</title>
<path fill="none" stroke="midnightblue" d="M737.39,-183.178C672.802,-175.868 547.674,-161.061 431.726,-143.204"/>
<polygon fill="midnightblue" stroke="midnightblue" points="432.032,-139.709 421.613,-141.634 430.958,-146.626 432.032,-139.709"/>
</g>
<!-- Node30&#45;&gt;Node17 -->
<g id="edge52" class="edge"><title>Node30&#45;&gt;Node17</title>
<path fill="none" stroke="midnightblue" d="M356.357,-123.475C326.725,-113.225 276.815,-95.9593 243.398,-84.3994"/>
<polygon fill="midnightblue" stroke="midnightblue" points="244.192,-80.9707 233.598,-81.0091 241.904,-87.5861 244.192,-80.9707"/>
</g>
<!-- Node30&#45;&gt;Node19 -->
<g id="edge53" class="edge"><title>Node30&#45;&gt;Node19</title>
<path fill="none" stroke="midnightblue" d="M375.412,-123.475C369.62,-114.638 360.411,-100.589 353.126,-89.475"/>
<polygon fill="midnightblue" stroke="midnightblue" points="355.987,-87.4539 347.577,-81.0091 350.132,-91.2913 355.987,-87.4539"/>
</g>
<!-- Node31 -->
<g id="node31" class="node"><title>Node31</title>
<polygon fill="white" stroke="#bfbfbf" points="400.5,-62 400.5,-81 451.5,-81 451.5,-62 400.5,-62"/>
<text text-anchor="middle" x="426" y="-69" font-family="Helvetica,sans-Serif" font-size="10.00">cassert</text>
</g>
<!-- Node30&#45;&gt;Node31 -->
<g id="edge50" class="edge"><title>Node30&#45;&gt;Node31</title>
<path fill="none" stroke="midnightblue" d="M387.447,-123.475C394.197,-114.55 404.969,-100.307 413.413,-89.1425"/>
<polygon fill="midnightblue" stroke="midnightblue" points="416.324,-91.0962 419.565,-81.0091 410.741,-86.8737 416.324,-91.0962"/>
</g>
<!-- Node32 -->
<g id="node32" class="node"><title>Node32</title>
<polygon fill="white" stroke="#bfbfbf" points="469.5,-56.5 469.5,-86.5 590.5,-86.5 590.5,-56.5 469.5,-56.5"/>
<text text-anchor="start" x="477.5" y="-74.5" font-family="Helvetica,sans-Serif" font-size="10.00">../contrib/pa_ringbuffer</text>
<text text-anchor="middle" x="530" y="-63.5" font-family="Helvetica,sans-Serif" font-size="10.00">/pa_ringbuffer.h</text>
</g>
<!-- Node30&#45;&gt;Node32 -->
<g id="edge51" class="edge"><title>Node30&#45;&gt;Node32</title>
<path fill="none" stroke="midnightblue" d="M402.348,-123.475C423.943,-114.852 457.969,-101.264 485.462,-90.2852"/>
<polygon fill="midnightblue" stroke="midnightblue" points="486.895,-93.482 494.884,-86.523 484.299,-86.9811 486.895,-93.482"/>
</g>
<!-- Node33&#45;&gt;Node6 -->
<g id="edge56" class="edge"><title>Node33&#45;&gt;Node6</title>
<path fill="none" stroke="midnightblue" d="M1049.92,-240.668C1052.74,-208.411 1057.45,-96.7321 993,-56 948.445,-27.8402 790.878,-16.2756 722.76,-12.5161"/>
<polygon fill="midnightblue" stroke="midnightblue" points="722.798,-9.01326 712.626,-11.9784 722.427,-16.0034 722.798,-9.01326"/>
</g>
<!-- Node33&#45;&gt;Node12 -->
<g id="edge58" class="edge"><title>Node33&#45;&gt;Node12</title>
<path fill="none" stroke="midnightblue" d="M1077.66,-240.975C1112.56,-230.592 1171.65,-213.012 1210.5,-201.454"/>
<polygon fill="midnightblue" stroke="midnightblue" points="1211.81,-204.715 1220.4,-198.509 1209.82,-198.006 1211.81,-204.715"/>
</g>
<!-- Node33&#45;&gt;Node13 -->
<g id="edge59" class="edge"><title>Node33&#45;&gt;Node13</title>
<path fill="none" stroke="midnightblue" d="M1057.97,-240.865C1074.05,-225.896 1109.42,-195.18 1145,-179 1183.85,-161.333 1230.15,-150.359 1268.52,-143.676"/>
<polygon fill="midnightblue" stroke="midnightblue" points="1269.32,-147.091 1278.61,-141.986 1268.17,-140.187 1269.32,-147.091"/>
</g>
<!-- Node33&#45;&gt;Node20 -->
<g id="edge60" class="edge"><title>Node33&#45;&gt;Node20</title>
<path fill="none" stroke="midnightblue" d="M1053.83,-240.684C1062.49,-225.714 1082.1,-195.364 1107,-179 1155.31,-147.25 1185.01,-176.682 1232,-143 1250.68,-129.608 1264.64,-106.766 1272.78,-90.7201"/>
<polygon fill="midnightblue" stroke="midnightblue" points="1276.12,-91.855 1277.29,-81.3245 1269.81,-88.8293 1276.12,-91.855"/>
</g>
<!-- Node33&#45;&gt;Node22 -->
<g id="edge63" class="edge"><title>Node33&#45;&gt;Node22</title>
<path fill="none" stroke="midnightblue" d="M1029.66,-240.975C1006.9,-230.945 968.908,-214.2 942.712,-202.655"/>
<polygon fill="midnightblue" stroke="midnightblue" points="943.869,-199.339 933.306,-198.509 941.045,-205.745 943.869,-199.339"/>
</g>
<!-- Node33&#45;&gt;Node24 -->
<g id="edge57" class="edge"><title>Node33&#45;&gt;Node24</title>
<path fill="none" stroke="midnightblue" d="M1034.89,-240.68C1022.28,-231.879 1004.65,-217.082 997,-199 990.653,-183.988 995.042,-165.626 1000.21,-152.252"/>
<polygon fill="midnightblue" stroke="midnightblue" points="1003.56,-153.321 1004.33,-142.755 997.138,-150.536 1003.56,-153.321"/>
</g>
<!-- Node33&#45;&gt;Node27 -->
<g id="edge62" class="edge"><title>Node33&#45;&gt;Node27</title>
<path fill="none" stroke="midnightblue" d="M1049.77,-240.56C1051.48,-225.946 1056.82,-196.791 1073,-179 1087.29,-163.288 1108.11,-152.725 1127.06,-145.806"/>
<polygon fill="midnightblue" stroke="midnightblue" points="1128.42,-149.043 1136.76,-142.512 1126.17,-142.415 1128.42,-149.043"/>
</g>
<!-- Node33&#45;&gt;Node29 -->
<g id="edge61" class="edge"><title>Node33&#45;&gt;Node29</title>
<path fill="none" stroke="midnightblue" d="M1010.6,-240.975C962.84,-230.371 881.264,-212.26 829.305,-200.724"/>
<polygon fill="midnightblue" stroke="midnightblue" points="829.848,-197.26 819.327,-198.509 828.33,-204.093 829.848,-197.26"/>
</g>
</g>
</svg>
