<?xml version="1.0" encoding="UTF-8" standalone="no"?>
<!DOCTYPE svg PUBLIC "-//W3C//DTD SVG 1.1//EN"
 "http://www.w3.org/Graphics/SVG/1.1/DTD/svg11.dtd">
<!-- Generated by graphviz version 2.38.0 (20140413.2041)
 -->
<!-- Title: src/audio/audio_system.cpp Pages: 1 -->
<!--zoomable 330 -->
<svg id="main" version="1.1" xmlns="http://www.w3.org/2000/svg" xmlns:xlink="http://www.w3.org/1999/xlink" xml:space="preserve" onload="init(evt)">
<style type="text/css"><![CDATA[
.edge:hover path { stroke: red; }
.edge:hover polygon { stroke: red; fill: red; }
]]></style>
<script type="text/javascript"><![CDATA[
var edges = document.getElementsByTagName('g');
if (edges && edges.length) {
  for (var i=0;i<edges.length;i++) {
    if (edges[i].id.substr(0,4)=='edge') {
      edges[i].setAttribute('class','edge');
    }
  }
}
]]></script>
        <defs>
                <circle id="rim" cx="0" cy="0" r="7"/>
                <circle id="rim2" cx="0" cy="0" r="3.5"/>
                <g id="zoomPlus">
                        <use xlink:href="#rim" fill="#404040">
                                <set attributeName="fill" to="#808080" begin="zoomplus.mouseover" end="zoomplus.mouseout"/>
                        </use>
                        <path d="M-4,0h8M0,-4v8" fill="none" stroke="white" stroke-width="1.5" pointer-events="none"/>
                </g>
                <g id="zoomMin">
                        <use xlink:href="#rim" fill="#404040">
                                <set attributeName="fill" to="#808080" begin="zoomminus.mouseover" end="zoomminus.mouseout"/>
                        </use>
                        <path d="M-4,0h8" fill="none" stroke="white" stroke-width="1.5" pointer-events="none"/>
                </g>
                <g id="dirArrow">
                        <path fill="none" stroke="white" stroke-width="1.5" d="M0,-3.0v7 M-2.5,-0.5L0,-3.0L2.5,-0.5"/>
                </g>
               <g id="resetDef">
                       <use xlink:href="#rim2" fill="#404040">
                               <set attributeName="fill" to="#808080" begin="reset.mouseover" end="reset.mouseout"/>
                       </use>
               </g>
        </defs>

<script type="text/javascript">
var viewWidth = 2686;
var viewHeight = 330;
var sectionId = 'dynsection-0';
</script>
<script xlink:href="svgpan.js"/>
<svg id="graph" class="graph">
<g id="viewport">
<title>src/audio/audio_system.cpp</title>
<polygon fill="white" stroke="none" points="-4,4 -4,-326 2682,-326 2682,4 -4,4"/>
<!-- Node1 -->
<g id="node1" class="node"><title>Node1</title>
<polygon fill="#bfbfbf" stroke="black" points="1154,-302.5 1154,-321.5 1304,-321.5 1304,-302.5 1154,-302.5"/>
<text text-anchor="middle" x="1229" y="-309.5" font-family="Helvetica,sans-Serif" font-size="10.00">src/audio/audio_system.cpp</text>
</g>
<!-- Node2 -->
<g id="node2" class="node"><title>Node2</title>
<polygon fill="white" stroke="#bfbfbf" points="0,-241 0,-260 62,-260 62,-241 0,-241"/>
<text text-anchor="middle" x="31" y="-248" font-family="Helvetica,sans-Serif" font-size="10.00">algorithm</text>
</g>
<!-- Node1&#45;&gt;Node2 -->
<g id="edge1" class="edge"><title>Node1&#45;&gt;Node2</title>
<path fill="none" stroke="midnightblue" d="M1153.94,-311.098C931.676,-310.91 279.429,-306.8 71,-266 67.5612,-265.327 64.0234,-264.405 60.5413,-263.351"/>
<polygon fill="midnightblue" stroke="midnightblue" points="61.5983,-260.013 51.004,-260.121 59.3529,-266.643 61.5983,-260.013"/>
</g>
<!-- Node3 -->
<g id="node3" class="node"><title>Node3</title>
<polygon fill="white" stroke="#bfbfbf" points="80,-241 80,-260 118,-260 118,-241 80,-241"/>
<text text-anchor="middle" x="99" y="-248" font-family="Helvetica,sans-Serif" font-size="10.00">map</text>
</g>
<!-- Node1&#45;&gt;Node3 -->
<g id="edge2" class="edge"><title>Node1&#45;&gt;Node3</title>
<path fill="none" stroke="midnightblue" d="M1153.97,-311.537C939.528,-312.502 326.869,-311.113 132,-266 129.634,-265.452 127.226,-264.737 124.845,-263.918"/>
<polygon fill="midnightblue" stroke="midnightblue" points="125.956,-260.593 115.372,-260.129 123.357,-267.093 125.956,-260.593"/>
</g>
<!-- Node4 -->
<g id="node4" class="node"><title>Node4</title>
<polygon fill="white" stroke="#bfbfbf" points="290,-0.5 290,-19.5 346,-19.5 346,-0.5 290,-0.5"/>
<text text-anchor="middle" x="318" y="-7.5" font-family="Helvetica,sans-Serif" font-size="10.00">sstream</text>
</g>
<!-- Node1&#45;&gt;Node4 -->
<g id="edge3" class="edge"><title>Node1&#45;&gt;Node4</title>
<path fill="none" stroke="midnightblue" d="M1153.86,-309.994C939.701,-306.784 336.217,-295.226 252,-266 197.235,-246.995 146,-247.969 146,-190 146,-190 146,-190 146,-132 146,-94.9962 152.492,-80.7504 180,-56 207.65,-31.1221 249.29,-19.9724 279.596,-14.9907"/>
<polygon fill="midnightblue" stroke="midnightblue" points="280.425,-18.406 289.802,-13.4734 279.396,-11.4821 280.425,-18.406"/>
</g>
<!-- Node5 -->
<g id="node5" class="node"><title>Node5</title>
<polygon fill="white" stroke="#bfbfbf" points="1560,-241 1560,-260 1624,-260 1624,-241 1560,-241"/>
<text text-anchor="middle" x="1592" y="-248" font-family="Helvetica,sans-Serif" font-size="10.00">stdexcept</text>
</g>
<!-- Node1&#45;&gt;Node5 -->
<g id="edge4" class="edge"><title>Node1&#45;&gt;Node5</title>
<path fill="none" stroke="midnightblue" d="M1304.25,-303.841C1368.88,-296.855 1464.28,-284.547 1546,-266 1549.84,-265.128 1553.82,-264.088 1557.76,-262.969"/>
<polygon fill="midnightblue" stroke="midnightblue" points="1558.81,-266.311 1567.38,-260.082 1556.79,-259.607 1558.81,-266.311"/>
</g>
<!-- Node6 -->
<g id="node6" class="node"><title>Node6</title>
<polygon fill="white" stroke="#bfbfbf" points="770,-0.5 770,-19.5 814,-19.5 814,-0.5 770,-0.5"/>
<text text-anchor="middle" x="792" y="-7.5" font-family="Helvetica,sans-Serif" font-size="10.00">string</text>
</g>
<!-- Node1&#45;&gt;Node6 -->
<g id="edge5" class="edge"><title>Node1&#45;&gt;Node6</title>
<path fill="none" stroke="midnightblue" d="M1153.85,-310.188C914.237,-306.615 184,-287.71 184,-190 184,-190 184,-190 184,-132 184,-97.1827 176.393,-78.4575 203,-56 224.443,-37.9005 639.843,-17.8529 759.815,-12.4214"/>
<polygon fill="midnightblue" stroke="midnightblue" points="760.019,-15.9159 769.851,-11.9701 759.704,-8.92298 760.019,-15.9159"/>
</g>
<!-- Node7 -->
<g id="node7" class="node"><title>Node7</title>
<polygon fill="white" stroke="#bfbfbf" points="1482,-62 1482,-81 1524,-81 1524,-62 1482,-62"/>
<text text-anchor="middle" x="1503" y="-69" font-family="Helvetica,sans-Serif" font-size="10.00">sox.h</text>
</g>
<!-- Node1&#45;&gt;Node7 -->
<g id="edge6" class="edge"><title>Node1&#45;&gt;Node7</title>
<path fill="none" stroke="midnightblue" d="M1304.37,-307.401C1344.08,-302.359 1391.9,-291.019 1428,-266 1486.75,-225.279 1499.49,-131.443 1502.24,-91.2871"/>
<polygon fill="midnightblue" stroke="midnightblue" points="1505.75,-91.2437 1502.8,-81.0674 1498.76,-90.8614 1505.75,-91.2437"/>
</g>
<!-- Node8 -->
<g id="node8" class="node"><title>Node8</title>
<polygon fill="white" stroke="#bfbfbf" points="476.5,-123.5 476.5,-142.5 547.5,-142.5 547.5,-123.5 476.5,-123.5"/>
<text text-anchor="middle" x="512" y="-130.5" font-family="Helvetica,sans-Serif" font-size="10.00">portaudio.h</text>
</g>
<!-- Node1&#45;&gt;Node8 -->
<g id="edge7" class="edge"><title>Node1&#45;&gt;Node8</title>
<path fill="none" stroke="midnightblue" d="M1153.9,-304.958C1082.23,-298.355 971.484,-285.969 877,-266 774.916,-244.425 749.576,-235.956 652,-199 610.976,-183.463 565.172,-161.218 537.476,-147.197"/>
<polygon fill="midnightblue" stroke="midnightblue" points="538.971,-144.03 528.472,-142.605 535.79,-150.266 538.971,-144.03"/>
</g>
<!-- Node9 -->
<g id="node9" class="node"><title>Node9</title>
<polygon fill="white" stroke="#bfbfbf" points="1642,-241 1642,-260 1776,-260 1776,-241 1642,-241"/>
<text text-anchor="middle" x="1709" y="-248" font-family="Helvetica,sans-Serif" font-size="10.00">portaudiocpp/Device.hxx</text>
</g>
<!-- Node1&#45;&gt;Node9 -->
<g id="edge8" class="edge"><title>Node1&#45;&gt;Node9</title>
<path fill="none" stroke="midnightblue" d="M1304.06,-304.396C1385.35,-296.835 1518.73,-283.238 1633,-266 1640.84,-264.817 1649.12,-263.407 1657.2,-261.94"/>
<polygon fill="midnightblue" stroke="midnightblue" points="1658.1,-265.332 1667.29,-260.062 1656.82,-258.451 1658.1,-265.332"/>
</g>
<!-- Node10 -->
<g id="node10" class="node"><title>Node10</title>
<polygon fill="white" stroke="#bfbfbf" points="1794,-235.5 1794,-265.5 1956,-265.5 1956,-235.5 1794,-235.5"/>
<text text-anchor="start" x="1802" y="-253.5" font-family="Helvetica,sans-Serif" font-size="10.00">portaudiocpp/DirectionSpecific</text>
<text text-anchor="middle" x="1875" y="-242.5" font-family="Helvetica,sans-Serif" font-size="10.00">StreamParameters.hxx</text>
</g>
<!-- Node1&#45;&gt;Node10 -->
<g id="edge9" class="edge"><title>Node1&#45;&gt;Node10</title>
<path fill="none" stroke="midnightblue" d="M1304.28,-306.799C1409.36,-300.514 1606.15,-287.213 1783.56,-266.114"/>
<polygon fill="midnightblue" stroke="midnightblue" points="1784.09,-269.576 1793.61,-264.909 1783.26,-262.626 1784.09,-269.576"/>
</g>
<!-- Node11 -->
<g id="node11" class="node"><title>Node11</title>
<polygon fill="white" stroke="#bfbfbf" points="1974,-235.5 1974,-265.5 2138,-265.5 2138,-235.5 1974,-235.5"/>
<text text-anchor="start" x="1982" y="-253.5" font-family="Helvetica,sans-Serif" font-size="10.00">portaudiocpp/InterfaceCallback</text>
<text text-anchor="middle" x="2056" y="-242.5" font-family="Helvetica,sans-Serif" font-size="10.00">Stream.hxx</text>
</g>
<!-- Node1&#45;&gt;Node11 -->
<g id="edge10" class="edge"><title>Node1&#45;&gt;Node11</title>
<path fill="none" stroke="midnightblue" d="M1304.17,-308.81C1435.75,-304.449 1716.53,-292.792 1963.46,-266.098"/>
<polygon fill="midnightblue" stroke="midnightblue" points="1964.15,-269.543 1973.71,-264.979 1963.39,-262.585 1964.15,-269.543"/>
</g>
<!-- Node12 -->
<g id="node12" class="node"><title>Node12</title>
<polygon fill="white" stroke="#bfbfbf" points="1230.5,-179.5 1230.5,-198.5 1427.5,-198.5 1427.5,-179.5 1230.5,-179.5"/>
<text text-anchor="middle" x="1329" y="-186.5" font-family="Helvetica,sans-Serif" font-size="10.00">portaudiocpp/SampleDataFormat.hxx</text>
</g>
<!-- Node1&#45;&gt;Node12 -->
<g id="edge11" class="edge"><title>Node1&#45;&gt;Node12</title>
<path fill="none" stroke="midnightblue" d="M1236.19,-302.298C1252.77,-282.24 1293.88,-232.489 1315.39,-206.463"/>
<polygon fill="midnightblue" stroke="midnightblue" points="1318.2,-208.561 1321.87,-198.623 1312.81,-204.102 1318.2,-208.561"/>
</g>
<!-- Node13 -->
<g id="node13" class="node"><title>Node13</title>
<polygon fill="white" stroke="#bfbfbf" points="1328,-123.5 1328,-142.5 1466,-142.5 1466,-123.5 1328,-123.5"/>
<text text-anchor="middle" x="1397" y="-130.5" font-family="Helvetica,sans-Serif" font-size="10.00">portaudiocpp/Stream.hxx</text>
</g>
<!-- Node1&#45;&gt;Node13 -->
<g id="edge12" class="edge"><title>Node1&#45;&gt;Node13</title>
<path fill="none" stroke="midnightblue" d="M1269.37,-302.412C1318.89,-289.475 1400.72,-259.738 1437,-199 1447.26,-181.819 1431.49,-162.287 1416.84,-149.157"/>
<polygon fill="midnightblue" stroke="midnightblue" points="1418.89,-146.315 1408.98,-142.578 1414.4,-151.682 1418.89,-146.315"/>
</g>
<!-- Node14 -->
<g id="node14" class="node"><title>Node14</title>
<polygon fill="white" stroke="#bfbfbf" points="2156,-241 2156,-260 2350,-260 2350,-241 2156,-241"/>
<text text-anchor="middle" x="2253" y="-248" font-family="Helvetica,sans-Serif" font-size="10.00">portaudiocpp/StreamParameters.hxx</text>
</g>
<!-- Node1&#45;&gt;Node14 -->
<g id="edge13" class="edge"><title>Node1&#45;&gt;Node14</title>
<path fill="none" stroke="midnightblue" d="M1304.12,-309.529C1461.01,-305.971 1834.79,-294.951 2147,-266 2160.12,-264.784 2174.1,-263.128 2187.47,-261.371"/>
<polygon fill="midnightblue" stroke="midnightblue" points="2188.1,-264.817 2197.54,-260.012 2187.16,-257.88 2188.1,-264.817"/>
</g>
<!-- Node15 -->
<g id="node15" class="node"><title>Node15</title>
<polygon fill="white" stroke="#bfbfbf" points="2368.5,-241 2368.5,-260 2507.5,-260 2507.5,-241 2368.5,-241"/>
<text text-anchor="middle" x="2438" y="-248" font-family="Helvetica,sans-Serif" font-size="10.00">portaudiocpp/System.hxx</text>
</g>
<!-- Node1&#45;&gt;Node15 -->
<g id="edge14" class="edge"><title>Node1&#45;&gt;Node15</title>
<path fill="none" stroke="midnightblue" d="M1304.32,-311.677C1486.2,-312.512 1963.61,-309.935 2359,-266 2368.26,-264.971 2378.07,-263.491 2387.51,-261.866"/>
<polygon fill="midnightblue" stroke="midnightblue" points="2388.34,-265.272 2397.57,-260.06 2387.11,-258.383 2388.34,-265.272"/>
</g>
<!-- Node16 -->
<g id="node16" class="node"><title>Node16</title>
<polygon fill="white" stroke="#bfbfbf" points="2526,-235.5 2526,-265.5 2678,-265.5 2678,-235.5 2526,-235.5"/>
<text text-anchor="start" x="2534" y="-253.5" font-family="Helvetica,sans-Serif" font-size="10.00">portaudiocpp/SystemDevice</text>
<text text-anchor="middle" x="2602" y="-242.5" font-family="Helvetica,sans-Serif" font-size="10.00">Iterator.hxx</text>
</g>
<!-- Node1&#45;&gt;Node16 -->
<g id="edge15" class="edge"><title>Node1&#45;&gt;Node16</title>
<path fill="none" stroke="midnightblue" d="M1304.06,-309.701C1539.12,-305.427 2260.04,-290.702 2515.62,-266.022"/>
<polygon fill="midnightblue" stroke="midnightblue" points="2516.01,-269.501 2525.61,-265.028 2515.31,-262.536 2516.01,-269.501"/>
</g>
<!-- Node17 -->
<g id="node17" class="node"><title>Node17</title>
<g id="a_node17"><a xlink:href="errors_8hpp.html" target="_top" xlink:title="Declarations of the playd Error exception set. ">
<polygon fill="white" stroke="black" points="527.5,-62 527.5,-81 602.5,-81 602.5,-62 527.5,-62"/>
<text text-anchor="middle" x="565" y="-69" font-family="Helvetica,sans-Serif" font-size="10.00">../errors.hpp</text>
</a>
</g>
</g>
<!-- Node1&#45;&gt;Node17 -->
<g id="edge16" class="edge"><title>Node1&#45;&gt;Node17</title>
<path fill="none" stroke="midnightblue" d="M1153.71,-310.941C1058.51,-309.275 890.244,-301.002 751,-266 614.427,-231.669 536.886,-260.322 459,-143 454.084,-135.594 454.255,-130.516 459,-123 467.201,-110.009 502.491,-94.8094 530.128,-84.5052"/>
<polygon fill="midnightblue" stroke="midnightblue" points="531.333,-87.7914 539.528,-81.0763 528.934,-81.2153 531.333,-87.7914"/>
</g>
<!-- Node19 -->
<g id="node19" class="node"><title>Node19</title>
<g id="a_node19"><a xlink:href="messages_8h.html" target="_top" xlink:title="Constant human&#45;readable messages used within playd. ">
<polygon fill="white" stroke="black" points="212,-62 212,-81 296,-81 296,-62 212,-62"/>
<text text-anchor="middle" x="254" y="-69" font-family="Helvetica,sans-Serif" font-size="10.00">../messages.h</text>
</a>
</g>
</g>
<!-- Node1&#45;&gt;Node19 -->
<g id="edge19" class="edge"><title>Node1&#45;&gt;Node19</title>
<path fill="none" stroke="midnightblue" d="M1153.86,-308.92C1006.84,-304.338 686.186,-291.678 579,-266 442.849,-233.384 390.906,-239 289,-143 273.807,-128.687 264.284,-106.355 259.073,-90.6689"/>
<polygon fill="midnightblue" stroke="midnightblue" points="262.405,-89.5945 256.138,-81.0515 255.71,-91.6376 262.405,-89.5945"/>
</g>
<!-- Node20 -->
<g id="node20" class="node"><title>Node20</title>
<g id="a_node20"><a xlink:href="sample__formats_8hpp.html" target="_top" xlink:title="The SampleFormat enumeration. ">
<polygon fill="white" stroke="black" points="1310.5,-62 1310.5,-81 1435.5,-81 1435.5,-62 1310.5,-62"/>
<text text-anchor="middle" x="1373" y="-69" font-family="Helvetica,sans-Serif" font-size="10.00">../sample_formats.hpp</text>
</a>
</g>
</g>
<!-- Node1&#45;&gt;Node20 -->
<g id="edge21" class="edge"><title>Node1&#45;&gt;Node20</title>
<path fill="none" stroke="midnightblue" d="M1299.27,-302.484C1331.32,-296.137 1368.6,-285.111 1398,-266 1430.07,-245.158 1432.53,-231.92 1452,-199 1469.96,-168.623 1493.61,-152.984 1475,-123 1463.22,-104.028 1441.97,-91.965 1421.9,-84.4084"/>
<polygon fill="midnightblue" stroke="midnightblue" points="1422.78,-81.0107 1412.19,-81.0503 1420.49,-87.6263 1422.78,-81.0107"/>
</g>
<!-- Node22 -->
<g id="node22" class="node"><title>Node22</title>
<g id="a_node22"><a xlink:href="audio_8hpp.html" target="_top" xlink:title="Declaration of the Audio class. ">
<polygon fill="white" stroke="black" points="958,-179.5 958,-198.5 1022,-198.5 1022,-179.5 958,-179.5"/>
<text text-anchor="middle" x="990" y="-186.5" font-family="Helvetica,sans-Serif" font-size="10.00">audio.hpp</text>
</a>
</g>
</g>
<!-- Node1&#45;&gt;Node22 -->
<g id="edge23" class="edge"><title>Node1&#45;&gt;Node22</title>
<path fill="none" stroke="midnightblue" d="M1153.64,-307.184C1115.4,-302.03 1069.97,-290.654 1036,-266 1016.15,-251.596 1003.21,-225.767 996.26,-208.261"/>
<polygon fill="midnightblue" stroke="midnightblue" points="999.444,-206.78 992.694,-198.614 992.878,-209.207 999.444,-206.78"/>
</g>
<!-- Node28 -->
<g id="node28" class="node"><title>Node28</title>
<g id="a_node28"><a xlink:href="audio__source_8hpp.html" target="_top" xlink:title="Declaration of the AudioSource class. ">
<polygon fill="white" stroke="black" points="1132.5,-123.5 1132.5,-142.5 1233.5,-142.5 1233.5,-123.5 1132.5,-123.5"/>
<text text-anchor="middle" x="1183" y="-130.5" font-family="Helvetica,sans-Serif" font-size="10.00">audio_source.hpp</text>
</a>
</g>
</g>
<!-- Node1&#45;&gt;Node28 -->
<g id="edge57" class="edge"><title>Node1&#45;&gt;Node28</title>
<path fill="none" stroke="midnightblue" d="M1172.39,-302.438C1131.63,-294.982 1081.68,-282.733 1069,-266 1043.93,-232.909 1073.16,-207.863 1103,-179 1117.04,-165.421 1135.97,-154.53 1151.89,-146.865"/>
<polygon fill="midnightblue" stroke="midnightblue" points="1153.73,-149.874 1161.35,-142.515 1150.8,-143.515 1153.73,-149.874"/>
</g>
<!-- Node30 -->
<g id="node30" class="node"><title>Node30</title>
<g id="a_node30"><a xlink:href="audio__sink_8hpp.html" target="_top" xlink:title="Declaration of the AudioSink class. ">
<polygon fill="white" stroke="black" points="661,-179.5 661,-198.5 749,-198.5 749,-179.5 661,-179.5"/>
<text text-anchor="middle" x="705" y="-186.5" font-family="Helvetica,sans-Serif" font-size="10.00">audio_sink.hpp</text>
</a>
</g>
</g>
<!-- Node1&#45;&gt;Node30 -->
<g id="edge42" class="edge"><title>Node1&#45;&gt;Node30</title>
<path fill="none" stroke="midnightblue" d="M1182.95,-302.445C1137.57,-293.85 1066.31,-279.915 1005,-266 912.075,-244.909 803.92,-216.565 746.236,-201.14"/>
<polygon fill="midnightblue" stroke="midnightblue" points="746.971,-197.714 736.406,-198.506 745.159,-204.475 746.971,-197.714"/>
</g>
<!-- Node34 -->
<g id="node34" class="node"><title>Node34</title>
<g id="a_node34"><a xlink:href="audio__system_8hpp.html" target="_top" xlink:title="Declaration of the AudioSystem class. ">
<polygon fill="white" stroke="black" points="1078,-241 1078,-260 1182,-260 1182,-241 1078,-241"/>
<text text-anchor="middle" x="1130" y="-248" font-family="Helvetica,sans-Serif" font-size="10.00">audio_system.hpp</text>
</a>
</g>
</g>
<!-- Node1&#45;&gt;Node34 -->
<g id="edge58" class="edge"><title>Node1&#45;&gt;Node34</title>
<path fill="none" stroke="midnightblue" d="M1214.82,-302.475C1198.64,-292.755 1171.97,-276.727 1152.86,-265.237"/>
<polygon fill="midnightblue" stroke="midnightblue" points="1154.53,-262.161 1144.16,-260.009 1150.93,-268.16 1154.53,-262.161"/>
</g>
<!-- Node17&#45;&gt;Node4 -->
<g id="edge18" class="edge"><title>Node17&#45;&gt;Node4</title>
<path fill="none" stroke="midnightblue" d="M538.261,-61.8559C531.667,-59.8334 524.601,-57.7581 518,-56 462.16,-41.1285 396.699,-27.0194 356.284,-18.6879"/>
<polygon fill="midnightblue" stroke="midnightblue" points="356.821,-15.2253 346.322,-16.6468 355.416,-22.0828 356.821,-15.2253"/>
</g>
<!-- Node18 -->
<g id="node18" class="node"><title>Node18</title>
<polygon fill="white" stroke="#bfbfbf" points="535.5,-0.5 535.5,-19.5 594.5,-19.5 594.5,-0.5 535.5,-0.5"/>
<text text-anchor="middle" x="565" y="-7.5" font-family="Helvetica,sans-Serif" font-size="10.00">iostream</text>
</g>
<!-- Node17&#45;&gt;Node18 -->
<g id="edge17" class="edge"><title>Node17&#45;&gt;Node18</title>
<path fill="none" stroke="midnightblue" d="M565,-61.9751C565,-53.5803 565,-40.4806 565,-29.6631"/>
<polygon fill="midnightblue" stroke="midnightblue" points="568.5,-29.5091 565,-19.5091 561.5,-29.5091 568.5,-29.5091"/>
</g>
<!-- Node19&#45;&gt;Node6 -->
<g id="edge20" class="edge"><title>Node19&#45;&gt;Node6</title>
<path fill="none" stroke="midnightblue" d="M280.512,-61.9586C288.329,-59.7142 296.947,-57.5035 305,-56 474.399,-24.3737 681.289,-14.6102 759.756,-11.9219"/>
<polygon fill="midnightblue" stroke="midnightblue" points="760.078,-15.4134 769.958,-11.588 759.849,-8.4171 760.078,-15.4134"/>
</g>
<!-- Node21 -->
<g id="node21" class="node"><title>Node21</title>
<polygon fill="white" stroke="#bfbfbf" points="1079.5,-0.5 1079.5,-19.5 1128.5,-19.5 1128.5,-0.5 1079.5,-0.5"/>
<text text-anchor="middle" x="1104" y="-7.5" font-family="Helvetica,sans-Serif" font-size="10.00">cstdint</text>
</g>
<!-- Node20&#45;&gt;Node21 -->
<g id="edge22" class="edge"><title>Node20&#45;&gt;Node21</title>
<path fill="none" stroke="midnightblue" d="M1334.46,-61.9751C1282.11,-50.3953 1189.28,-29.8634 1138.89,-18.7178"/>
<polygon fill="midnightblue" stroke="midnightblue" points="1139.33,-15.2308 1128.81,-16.4885 1137.82,-22.0656 1139.33,-15.2308"/>
</g>
<!-- Node22&#45;&gt;Node6 -->
<g id="edge26" class="edge"><title>Node22&#45;&gt;Node6</title>
<path fill="none" stroke="midnightblue" d="M991.939,-179.224C994.353,-166.383 997.332,-141.943 990,-123 986.366,-113.611 937.45,-61.4735 929,-56 896.625,-35.0289 853.594,-23.0004 824.461,-16.7467"/>
<polygon fill="midnightblue" stroke="midnightblue" points="824.899,-13.2642 814.402,-14.6981 823.502,-20.1234 824.899,-13.2642"/>
</g>
<!-- Node22&#45;&gt;Node8 -->
<g id="edge29" class="edge"><title>Node22&#45;&gt;Node8</title>
<path fill="none" stroke="midnightblue" d="M957.895,-184.373C875.089,-175.018 654.06,-150.049 557.83,-139.177"/>
<polygon fill="midnightblue" stroke="midnightblue" points="558.15,-135.691 547.821,-138.047 557.365,-142.647 558.15,-135.691"/>
</g>
<!-- Node22&#45;&gt;Node21 -->
<g id="edge24" class="edge"><title>Node22&#45;&gt;Node21</title>
<path fill="none" stroke="midnightblue" d="M1005.98,-179.288C1018.34,-171.564 1034.56,-159.028 1042,-143 1058.28,-107.923 1025.37,-90.4174 1043,-56 1049.88,-42.5592 1062.85,-32.1264 1075.07,-24.7056"/>
<polygon fill="midnightblue" stroke="midnightblue" points="1077.14,-27.5591 1084.15,-19.6179 1073.71,-21.4522 1077.14,-27.5591"/>
</g>
<!-- Node23 -->
<g id="node23" class="node"><title>Node23</title>
<polygon fill="white" stroke="#bfbfbf" points="642.5,-123.5 642.5,-142.5 699.5,-142.5 699.5,-123.5 642.5,-123.5"/>
<text text-anchor="middle" x="671" y="-130.5" font-family="Helvetica,sans-Serif" font-size="10.00">memory</text>
</g>
<!-- Node22&#45;&gt;Node23 -->
<g id="edge25" class="edge"><title>Node22&#45;&gt;Node23</title>
<path fill="none" stroke="midnightblue" d="M957.835,-183.637C907.217,-176.6 805.691,-161.797 709.476,-142.963"/>
<polygon fill="midnightblue" stroke="midnightblue" points="710.073,-139.513 699.584,-141.009 708.716,-146.381 710.073,-139.513"/>
</g>
<!-- Node24 -->
<g id="node24" class="node"><title>Node24</title>
<polygon fill="white" stroke="#bfbfbf" points="718,-123.5 718,-142.5 760,-142.5 760,-123.5 718,-123.5"/>
<text text-anchor="middle" x="739" y="-130.5" font-family="Helvetica,sans-Serif" font-size="10.00">utility</text>
</g>
<!-- Node22&#45;&gt;Node24 -->
<g id="edge27" class="edge"><title>Node22&#45;&gt;Node24</title>
<path fill="none" stroke="midnightblue" d="M957.955,-182.417C916.634,-175.013 842.38,-161.016 769.977,-143.072"/>
<polygon fill="midnightblue" stroke="midnightblue" points="770.79,-139.667 760.239,-140.631 769.088,-146.457 770.79,-139.667"/>
</g>
<!-- Node25 -->
<g id="node25" class="node"><title>Node25</title>
<polygon fill="white" stroke="#bfbfbf" points="872.5,-62 872.5,-81 919.5,-81 919.5,-62 872.5,-62"/>
<text text-anchor="middle" x="896" y="-69" font-family="Helvetica,sans-Serif" font-size="10.00">vector</text>
</g>
<!-- Node22&#45;&gt;Node25 -->
<g id="edge28" class="edge"><title>Node22&#45;&gt;Node25</title>
<path fill="none" stroke="midnightblue" d="M989.321,-179.176C987.904,-165.839 983.629,-140.274 971,-123 959.262,-106.944 940.771,-94.411 925.087,-85.8466"/>
<polygon fill="midnightblue" stroke="midnightblue" points="926.26,-82.5132 915.77,-81.0309 923.046,-88.7317 926.26,-82.5132"/>
</g>
<!-- Node26 -->
<g id="node26" class="node"><title>Node26</title>
<polygon fill="white" stroke="#bfbfbf" points="778,-123.5 778,-142.5 962,-142.5 962,-123.5 778,-123.5"/>
<text text-anchor="middle" x="870" y="-130.5" font-family="Helvetica,sans-Serif" font-size="10.00">portaudiocpp/CallbackInterface.hxx</text>
</g>
<!-- Node22&#45;&gt;Node26 -->
<g id="edge30" class="edge"><title>Node22&#45;&gt;Node26</title>
<path fill="none" stroke="midnightblue" d="M970.986,-179.444C951.412,-170.636 920.692,-156.812 898.271,-146.722"/>
<polygon fill="midnightblue" stroke="midnightblue" points="899.481,-143.428 888.925,-142.516 896.608,-149.812 899.481,-143.428"/>
</g>
<!-- Node27 -->
<g id="node27" class="node"><title>Node27</title>
<g id="a_node27"><a xlink:href="time__parser_8hpp.html" target="_top" xlink:title="Declaration of the TimeParser class. ">
<polygon fill="white" stroke="black" points="1052,-62 1052,-81 1156,-81 1156,-62 1052,-62"/>
<text text-anchor="middle" x="1104" y="-69" font-family="Helvetica,sans-Serif" font-size="10.00">../time_parser.hpp</text>
</a>
</g>
</g>
<!-- Node22&#45;&gt;Node27 -->
<g id="edge31" class="edge"><title>Node22&#45;&gt;Node27</title>
<path fill="none" stroke="midnightblue" d="M1020.49,-179.405C1039.95,-172.48 1064.38,-160.899 1080,-143 1092.73,-128.421 1098.77,-106.791 1101.6,-91.3382"/>
<polygon fill="midnightblue" stroke="midnightblue" points="1105.08,-91.7842 1103.15,-81.367 1098.16,-90.7152 1105.08,-91.7842"/>
</g>
<!-- Node22&#45;&gt;Node28 -->
<g id="edge33" class="edge"><title>Node22&#45;&gt;Node28</title>
<path fill="none" stroke="midnightblue" d="M1020.58,-179.444C1053.61,-170.201 1106.39,-155.436 1142.77,-145.257"/>
<polygon fill="midnightblue" stroke="midnightblue" points="1143.87,-148.582 1152.56,-142.516 1141.99,-141.84 1143.87,-148.582"/>
</g>
<!-- Node27&#45;&gt;Node21 -->
<g id="edge32" class="edge"><title>Node27&#45;&gt;Node21</title>
<path fill="none" stroke="midnightblue" d="M1104,-61.9751C1104,-53.5803 1104,-40.4806 1104,-29.6631"/>
<polygon fill="midnightblue" stroke="midnightblue" points="1107.5,-29.5091 1104,-19.5091 1100.5,-29.5091 1107.5,-29.5091"/>
</g>
<!-- Node28&#45;&gt;Node6 -->
<g id="edge36" class="edge"><title>Node28&#45;&gt;Node6</title>
<path fill="none" stroke="midnightblue" d="M1154.96,-123.48C1126.59,-114.745 1081.53,-100.555 1043,-87 1006.64,-74.2086 998.684,-67.8376 962,-56 914.604,-40.7056 858.584,-26.6311 824.176,-18.4319"/>
<polygon fill="midnightblue" stroke="midnightblue" points="824.761,-14.974 814.225,-16.0811 823.152,-21.7865 824.761,-14.974"/>
</g>
<!-- Node28&#45;&gt;Node7 -->
<g id="edge38" class="edge"><title>Node28&#45;&gt;Node7</title>
<path fill="none" stroke="midnightblue" d="M1233.93,-124.41C1286.88,-116.248 1372.06,-102.358 1445,-87 1453.83,-85.14 1463.36,-82.8703 1472.09,-80.684"/>
<polygon fill="midnightblue" stroke="midnightblue" points="1473.05,-84.0496 1481.88,-78.1852 1471.32,-77.2671 1473.05,-84.0496"/>
</g>
<!-- Node28&#45;&gt;Node17 -->
<g id="edge39" class="edge"><title>Node28&#45;&gt;Node17</title>
<path fill="none" stroke="midnightblue" d="M1132.43,-127.131C1015.44,-115.867 727.408,-88.1364 612.986,-77.12"/>
<polygon fill="midnightblue" stroke="midnightblue" points="613.077,-73.6127 602.788,-76.1382 612.407,-80.5805 613.077,-73.6127"/>
</g>
<!-- Node28&#45;&gt;Node20 -->
<g id="edge40" class="edge"><title>Node28&#45;&gt;Node20</title>
<path fill="none" stroke="midnightblue" d="M1210.22,-123.475C1243.24,-113.136 1299.04,-95.6611 1335.95,-84.1017"/>
<polygon fill="midnightblue" stroke="midnightblue" points="1337.33,-87.3377 1345.83,-81.0091 1335.24,-80.6576 1337.33,-87.3377"/>
</g>
<!-- Node28&#45;&gt;Node21 -->
<g id="edge35" class="edge"><title>Node28&#45;&gt;Node21</title>
<path fill="none" stroke="midnightblue" d="M1182.84,-123.264C1182.17,-108.286 1179.05,-77.2685 1165,-56 1156.44,-43.0506 1142.82,-32.4819 1130.62,-24.8487"/>
<polygon fill="midnightblue" stroke="midnightblue" points="1132.07,-21.6404 1121.68,-19.5929 1128.53,-27.676 1132.07,-21.6404"/>
</g>
<!-- Node28&#45;&gt;Node25 -->
<g id="edge37" class="edge"><title>Node28&#45;&gt;Node25</title>
<path fill="none" stroke="midnightblue" d="M1141.88,-123.475C1084.77,-111.636 982.531,-90.4394 929.684,-79.4833"/>
<polygon fill="midnightblue" stroke="midnightblue" points="930.304,-76.0374 919.801,-77.4344 928.883,-82.8916 930.304,-76.0374"/>
</g>
<!-- Node28&#45;&gt;Node27 -->
<g id="edge41" class="edge"><title>Node28&#45;&gt;Node27</title>
<path fill="none" stroke="midnightblue" d="M1171.68,-123.475C1159.13,-114.02 1138.65,-98.5961 1123.5,-87.1871"/>
<polygon fill="midnightblue" stroke="midnightblue" points="1125.39,-84.2295 1115.3,-81.0091 1121.18,-89.821 1125.39,-84.2295"/>
</g>
<!-- Node29 -->
<g id="node29" class="node"><title>Node29</title>
<polygon fill="white" stroke="#bfbfbf" points="1212.5,-62 1212.5,-81 1253.5,-81 1253.5,-62 1212.5,-62"/>
<text text-anchor="middle" x="1233" y="-69" font-family="Helvetica,sans-Serif" font-size="10.00">array</text>
</g>
<!-- Node28&#45;&gt;Node29 -->
<g id="edge34" class="edge"><title>Node28&#45;&gt;Node29</title>
<path fill="none" stroke="midnightblue" d="M1190.16,-123.475C1197.74,-114.462 1209.87,-100.025 1219.29,-88.8118"/>
<polygon fill="midnightblue" stroke="midnightblue" points="1222.1,-90.9166 1225.85,-81.0091 1216.74,-86.4132 1222.1,-90.9166"/>
</g>
<!-- Node30&#45;&gt;Node6 -->
<g id="edge45" class="edge"><title>Node30&#45;&gt;Node6</title>
<path fill="none" stroke="midnightblue" d="M660.911,-186.162C599.001,-182.55 491.148,-172.142 467,-143 461.328,-136.156 461.53,-130.006 467,-123 507.599,-71.0023 551.019,-114.463 611,-87 632.75,-77.0414 633.624,-66.7392 655,-56 689.269,-38.7834 731.581,-26.0581 760.04,-18.6138"/>
<polygon fill="midnightblue" stroke="midnightblue" points="761.031,-21.973 769.857,-16.1115 759.302,-15.1898 761.031,-21.973"/>
</g>
<!-- Node30&#45;&gt;Node8 -->
<g id="edge48" class="edge"><title>Node30&#45;&gt;Node8</title>
<path fill="none" stroke="midnightblue" d="M674.419,-179.444C641.385,-170.201 588.612,-155.436 552.234,-145.257"/>
<polygon fill="midnightblue" stroke="midnightblue" points="553.012,-141.84 542.438,-142.516 551.125,-148.582 553.012,-141.84"/>
</g>
<!-- Node30&#45;&gt;Node13 -->
<g id="edge50" class="edge"><title>Node30&#45;&gt;Node13</title>
<path fill="none" stroke="midnightblue" d="M749.076,-184.561C863.477,-175.633 1171.14,-151.625 1317.51,-140.203"/>
<polygon fill="midnightblue" stroke="midnightblue" points="1318.07,-143.67 1327.77,-139.402 1317.53,-136.691 1318.07,-143.67"/>
</g>
<!-- Node30&#45;&gt;Node21 -->
<g id="edge43" class="edge"><title>Node30&#45;&gt;Node21</title>
<path fill="none" stroke="midnightblue" d="M678.549,-179.426C648.671,-168.323 606.471,-147.466 625,-123 679.288,-51.3185 968.364,-21.7816 1069.24,-13.5567"/>
<polygon fill="midnightblue" stroke="midnightblue" points="1069.8,-17.0229 1079.5,-12.7415 1069.25,-10.0449 1069.8,-17.0229"/>
</g>
<!-- Node30&#45;&gt;Node23 -->
<g id="edge44" class="edge"><title>Node30&#45;&gt;Node23</title>
<path fill="none" stroke="midnightblue" d="M699.386,-179.083C694.633,-171.534 687.682,-160.495 681.848,-151.23"/>
<polygon fill="midnightblue" stroke="midnightblue" points="684.8,-149.349 676.51,-142.751 678.876,-153.078 684.8,-149.349"/>
</g>
<!-- Node30&#45;&gt;Node24 -->
<g id="edge46" class="edge"><title>Node30&#45;&gt;Node24</title>
<path fill="none" stroke="midnightblue" d="M710.614,-179.083C715.367,-171.534 722.318,-160.495 728.152,-151.23"/>
<polygon fill="midnightblue" stroke="midnightblue" points="731.124,-153.078 733.49,-142.751 725.2,-149.349 731.124,-153.078"/>
</g>
<!-- Node30&#45;&gt;Node25 -->
<g id="edge47" class="edge"><title>Node30&#45;&gt;Node25</title>
<path fill="none" stroke="midnightblue" d="M682.299,-179.419C654.767,-167.751 614.229,-145.719 633,-123 661.754,-88.1993 798.216,-77.1371 862.436,-73.824"/>
<polygon fill="midnightblue" stroke="midnightblue" points="862.64,-77.3184 872.459,-73.34 862.302,-70.3265 862.64,-77.3184"/>
</g>
<!-- Node30&#45;&gt;Node26 -->
<g id="edge49" class="edge"><title>Node30&#45;&gt;Node26</title>
<path fill="none" stroke="midnightblue" d="M731.145,-179.444C759.023,-170.32 803.348,-155.813 834.4,-145.651"/>
<polygon fill="midnightblue" stroke="midnightblue" points="835.562,-148.953 843.978,-142.516 833.385,-142.3 835.562,-148.953"/>
</g>
<!-- Node30&#45;&gt;Node28 -->
<g id="edge51" class="edge"><title>Node30&#45;&gt;Node28</title>
<path fill="none" stroke="midnightblue" d="M749.112,-183.017C834.94,-173.321 1024.52,-151.903 1122.2,-140.869"/>
<polygon fill="midnightblue" stroke="midnightblue" points="1122.67,-144.338 1132.21,-139.737 1121.88,-137.382 1122.67,-144.338"/>
</g>
<!-- Node31 -->
<g id="node31" class="node"><title>Node31</title>
<g id="a_node31"><a xlink:href="ringbuffer_8hpp.html" target="_top" xlink:title="The RingBuffer class template. ">
<polygon fill="white" stroke="black" points="298.5,-123.5 298.5,-142.5 381.5,-142.5 381.5,-123.5 298.5,-123.5"/>
<text text-anchor="middle" x="340" y="-130.5" font-family="Helvetica,sans-Serif" font-size="10.00">ringbuffer.hpp</text>
</a>
</g>
</g>
<!-- Node30&#45;&gt;Node31 -->
<g id="edge52" class="edge"><title>Node30&#45;&gt;Node31</title>
<path fill="none" stroke="midnightblue" d="M660.972,-181.486C593.293,-171.473 463.978,-152.342 391.861,-141.673"/>
<polygon fill="midnightblue" stroke="midnightblue" points="392.055,-138.163 381.65,-140.162 391.03,-145.088 392.055,-138.163"/>
</g>
<!-- Node31&#45;&gt;Node17 -->
<g id="edge55" class="edge"><title>Node31&#45;&gt;Node17</title>
<path fill="none" stroke="midnightblue" d="M375.942,-123.49C411.998,-114.819 469.048,-100.729 518,-87 521.392,-86.0488 524.91,-85.0277 528.428,-83.9838"/>
<polygon fill="midnightblue" stroke="midnightblue" points="529.668,-87.2653 538.228,-81.0212 527.643,-80.5647 529.668,-87.2653"/>
</g>
<!-- Node31&#45;&gt;Node19 -->
<g id="edge56" class="edge"><title>Node31&#45;&gt;Node19</title>
<path fill="none" stroke="midnightblue" d="M327.678,-123.475C313.884,-113.931 291.301,-98.3073 274.768,-86.8683"/>
<polygon fill="midnightblue" stroke="midnightblue" points="276.514,-83.8205 266.299,-81.0091 272.531,-89.577 276.514,-83.8205"/>
</g>
<!-- Node32 -->
<g id="node32" class="node"><title>Node32</title>
<polygon fill="white" stroke="#bfbfbf" points="314,-62 314,-81 366,-81 366,-62 314,-62"/>
<text text-anchor="middle" x="340" y="-69" font-family="Helvetica,sans-Serif" font-size="10.00">cassert</text>
</g>
<!-- Node31&#45;&gt;Node32 -->
<g id="edge53" class="edge"><title>Node31&#45;&gt;Node32</title>
<path fill="none" stroke="midnightblue" d="M340,-123.475C340,-115.08 340,-101.981 340,-91.1631"/>
<polygon fill="midnightblue" stroke="midnightblue" points="343.5,-91.0091 340,-81.0091 336.5,-91.0091 343.5,-91.0091"/>
</g>
<!-- Node33 -->
<g id="node33" class="node"><title>Node33</title>
<polygon fill="white" stroke="#bfbfbf" points="384.5,-56.5 384.5,-86.5 509.5,-86.5 509.5,-56.5 384.5,-56.5"/>
<text text-anchor="start" x="392.5" y="-74.5" font-family="Helvetica,sans-Serif" font-size="10.00">../contrib/pa_ringbuffer</text>
<text text-anchor="middle" x="447" y="-63.5" font-family="Helvetica,sans-Serif" font-size="10.00">/pa_ringbuffer.h</text>
</g>
<!-- Node31&#45;&gt;Node33 -->
<g id="edge54" class="edge"><title>Node31&#45;&gt;Node33</title>
<path fill="none" stroke="midnightblue" d="M355.33,-123.475C370.296,-115.153 393.577,-102.207 412.931,-91.445"/>
<polygon fill="midnightblue" stroke="midnightblue" points="414.744,-94.4418 421.782,-86.523 411.342,-88.324 414.744,-94.4418"/>
</g>
<!-- Node34&#45;&gt;Node6 -->
<g id="edge59" class="edge"><title>Node34&#45;&gt;Node6</title>
<path fill="none" stroke="midnightblue" d="M1131.5,-240.976C1134.46,-226.448 1142.38,-196.744 1160,-179 1188.33,-150.469 1215.52,-172.358 1243,-143 1270.11,-114.032 1289.69,-85.3584 1263,-56 1233.55,-23.5978 926.39,-13.9534 824.58,-11.6352"/>
<polygon fill="midnightblue" stroke="midnightblue" points="824.367,-8.12978 814.293,-11.4102 824.214,-15.1281 824.367,-8.12978"/>
</g>
<!-- Node34&#45;&gt;Node12 -->
<g id="edge61" class="edge"><title>Node34&#45;&gt;Node12</title>
<path fill="none" stroke="midnightblue" d="M1158.51,-240.975C1193.24,-230.592 1252.04,-213.012 1290.69,-201.454"/>
<polygon fill="midnightblue" stroke="midnightblue" points="1291.96,-204.727 1300.54,-198.509 1289.96,-198.02 1291.96,-204.727"/>
</g>
<!-- Node34&#45;&gt;Node13 -->
<g id="edge62" class="edge"><title>Node34&#45;&gt;Node13</title>
<path fill="none" stroke="midnightblue" d="M1138.82,-240.723C1154.31,-225.813 1187.98,-195.549 1222,-179 1256,-162.459 1296.78,-151.519 1330.41,-144.571"/>
<polygon fill="midnightblue" stroke="midnightblue" points="1331.48,-147.927 1340.61,-142.542 1330.12,-141.062 1331.48,-147.927"/>
</g>
<!-- Node34&#45;&gt;Node20 -->
<g id="edge63" class="edge"><title>Node34&#45;&gt;Node20</title>
<path fill="none" stroke="midnightblue" d="M1134.63,-240.921C1142.93,-226.311 1161.63,-196.487 1185,-179 1219.82,-152.938 1237.88,-163.951 1276,-143 1305.58,-126.738 1336.61,-102.789 1355.38,-87.4176"/>
<polygon fill="midnightblue" stroke="midnightblue" points="1357.63,-90.0966 1363.09,-81.0169 1353.16,-84.7099 1357.63,-90.0966"/>
</g>
<!-- Node34&#45;&gt;Node22 -->
<g id="edge66" class="edge"><title>Node34&#45;&gt;Node22</title>
<path fill="none" stroke="midnightblue" d="M1109.94,-240.975C1086.24,-230.901 1046.59,-214.053 1019.42,-202.502"/>
<polygon fill="midnightblue" stroke="midnightblue" points="1020.59,-199.199 1010.02,-198.509 1017.86,-205.642 1020.59,-199.199"/>
</g>
<!-- Node34&#45;&gt;Node24 -->
<g id="edge60" class="edge"><title>Node34&#45;&gt;Node24</title>
<path fill="none" stroke="midnightblue" d="M1098.21,-240.92C1062,-231.082 1001.11,-214.331 949,-199 885.038,-180.182 810.58,-156.778 769.737,-143.81"/>
<polygon fill="midnightblue" stroke="midnightblue" points="770.694,-140.442 760.104,-140.747 768.573,-147.113 770.694,-140.442"/>
</g>
<!-- Node34&#45;&gt;Node28 -->
<g id="edge65" class="edge"><title>Node34&#45;&gt;Node28</title>
<path fill="none" stroke="midnightblue" d="M1123.87,-240.74C1115,-226.876 1100.8,-199.365 1112,-179 1119.89,-164.663 1134.49,-154.253 1148.4,-147.079"/>
<polygon fill="midnightblue" stroke="midnightblue" points="1150.29,-150.058 1157.84,-142.622 1147.3,-143.728 1150.29,-150.058"/>
</g>
<!-- Node34&#45;&gt;Node30 -->
<g id="edge64" class="edge"><title>Node34&#45;&gt;Node30</title>
<path fill="none" stroke="midnightblue" d="M1077.89,-242.204C996.9,-230.866 841.607,-209.125 759.303,-197.602"/>
<polygon fill="midnightblue" stroke="midnightblue" points="759.544,-194.102 749.155,-196.182 758.573,-201.034 759.544,-194.102"/>
</g>
</g>
</svg>
        <g id="navigator" transform="translate(0 0)" fill="#404254">
                <rect fill="#f2f5e9" fill-opacity="0.5" stroke="#606060" stroke-width=".5" x="0" y="0" width="60" height="60"/>
                <use id="zoomplus" xlink:href="#zoomPlus" x="17" y="9" onmousedown="handleZoom(evt,'in')"/>
                <use id="zoomminus" xlink:href="#zoomMin" x="42" y="9" onmousedown="handleZoom(evt,'out')"/>
                <use id="reset" xlink:href="#resetDef" x="30" y="36" onmousedown="handleReset()"/>
                <g id="arrowUp" xlink:href="#dirArrow" transform="translate(30 24)" onmousedown="handlePan(0,-1)">
                  <use xlink:href="#rim" fill="#404040">
                        <set attributeName="fill" to="#808080" begin="arrowUp.mouseover" end="arrowUp.mouseout"/>
                  </use>
                  <path fill="none" stroke="white" stroke-width="1.5" d="M0,-3.0v7 M-2.5,-0.5L0,-3.0L2.5,-0.5"/>
                </g>
                <g id="arrowRight" xlink:href="#dirArrow" transform="rotate(90) translate(36 -43)" onmousedown="handlePan(1,0)">
                  <use xlink:href="#rim" fill="#404040">
                        <set attributeName="fill" to="#808080" begin="arrowRight.mouseover" end="arrowRight.mouseout"/>
                  </use>
                  <path fill="none" stroke="white" stroke-width="1.5" d="M0,-3.0v7 M-2.5,-0.5L0,-3.0L2.5,-0.5"/>
                </g>
                <g id="arrowDown" xlink:href="#dirArrow" transform="rotate(180) translate(-30 -48)" onmousedown="handlePan(0,1)">
                  <use xlink:href="#rim" fill="#404040">
                        <set attributeName="fill" to="#808080" begin="arrowDown.mouseover" end="arrowDown.mouseout"/>
                  </use>
                  <path fill="none" stroke="white" stroke-width="1.5" d="M0,-3.0v7 M-2.5,-0.5L0,-3.0L2.5,-0.5"/>
                </g>
                <g id="arrowLeft" xlink:href="#dirArrow" transform="rotate(270) translate(-36 17)" onmousedown="handlePan(-1,0)">
                  <use xlink:href="#rim" fill="#404040">
                        <set attributeName="fill" to="#808080" begin="arrowLeft.mouseover" end="arrowLeft.mouseout"/>
                  </use>
                  <path fill="none" stroke="white" stroke-width="1.5" d="M0,-3.0v7 M-2.5,-0.5L0,-3.0L2.5,-0.5"/>
                </g>
        </g>
        <svg viewBox="0 0 15 15" width="100%" height="30px" preserveAspectRatio="xMaxYMin meet">
         <g id="arrow_out" transform="scale(0.3 0.3)">
          <a xlink:href="audio__system_8cpp__incl_org.svg" target="_base">
           <rect id="button" ry="5" rx="5" y="6" x="6" height="38" width="38"
                fill="#f2f5e9" fill-opacity="0.5" stroke="#606060" stroke-width="1.0"/>
           <path id="arrow"
             d="M 11.500037,31.436501 C 11.940474,20.09759 22.043105,11.32322 32.158766,21.979434 L 37.068811,17.246167 C 37.068811,17.246167 37.088388,32 37.088388,32 L 22.160133,31.978069 C 22.160133,31.978069 26.997745,27.140456 26.997745,27.140456 C 18.528582,18.264221 13.291696,25.230495 11.500037,31.436501 z"
             style="fill:#404040;"/>
          </a>
         </g>
        </svg>
</svg>
