<?xml version="1.0" encoding="UTF-8" standalone="no"?>
<!DOCTYPE svg PUBLIC "-//W3C//DTD SVG 1.1//EN"
 "http://www.w3.org/Graphics/SVG/1.1/DTD/svg11.dtd">
<!-- Generated by graphviz version 2.38.0 (20140413.2041)
 -->
<!-- Title: src/audio/audio.hpp Pages: 1 -->
<!--zoomable 196 -->
<svg id="main" version="1.1" xmlns="http://www.w3.org/2000/svg" xmlns:xlink="http://www.w3.org/1999/xlink" xml:space="preserve" onload="init(evt)">
<style type="text/css"><![CDATA[
.edge:hover path { stroke: red; }
.edge:hover polygon { stroke: red; fill: red; }
]]></style>
<script type="text/javascript"><![CDATA[
var edges = document.getElementsByTagName('g');
if (edges && edges.length) {
  for (var i=0;i<edges.length;i++) {
    if (edges[i].id.substr(0,4)=='edge') {
      edges[i].setAttribute('class','edge');
    }
  }
}
]]></script>
        <defs>
                <circle id="rim" cx="0" cy="0" r="7"/>
                <circle id="rim2" cx="0" cy="0" r="3.5"/>
                <g id="zoomPlus">
                        <use xlink:href="#rim" fill="#404040">
                                <set attributeName="fill" to="#808080" begin="zoomplus.mouseover" end="zoomplus.mouseout"/>
                        </use>
                        <path d="M-4,0h8M0,-4v8" fill="none" stroke="white" stroke-width="1.5" pointer-events="none"/>
                </g>
                <g id="zoomMin">
                        <use xlink:href="#rim" fill="#404040">
                                <set attributeName="fill" to="#808080" begin="zoomminus.mouseover" end="zoomminus.mouseout"/>
                        </use>
                        <path d="M-4,0h8" fill="none" stroke="white" stroke-width="1.5" pointer-events="none"/>
                </g>
                <g id="dirArrow">
                        <path fill="none" stroke="white" stroke-width="1.5" d="M0,-3.0v7 M-2.5,-0.5L0,-3.0L2.5,-0.5"/>
                </g>
               <g id="resetDef">
                       <use xlink:href="#rim2" fill="#404040">
                               <set attributeName="fill" to="#808080" begin="reset.mouseover" end="reset.mouseout"/>
                       </use>
               </g>
        </defs>

<script type="text/javascript">
var viewWidth = 736;
var viewHeight = 196;
var sectionId = 'dynsection-0';
</script>
<script xlink:href="svgpan.js"/>
<svg id="graph" class="graph">
<g id="viewport">
<title>src/audio/audio.hpp</title>
<polygon fill="white" stroke="none" points="-4,4 -4,-192 731.848,-192 731.848,4 -4,4"/>
<!-- Node1 -->
<g id="node1" class="node"><title>Node1</title>
<polygon fill="#bfbfbf" stroke="black" points="272.848,-168.5 272.848,-187.5 380.848,-187.5 380.848,-168.5 272.848,-168.5"/>
<text text-anchor="middle" x="326.848" y="-175.5" font-family="Helvetica,sans-Serif" font-size="10.00">src/audio/audio.hpp</text>
</g>
<!-- Node2 -->
<g id="node2" class="node"><title>Node2</title>
<polygon fill="white" stroke="#bfbfbf" points="61.3478,-0.5 61.3478,-19.5 108.348,-19.5 108.348,-0.5 61.3478,-0.5"/>
<text text-anchor="middle" x="84.8478" y="-7.5" font-family="Helvetica,sans-Serif" font-size="10.00">cstdint</text>
</g>
<!-- Node1&#45;&gt;Node2 -->
<g id="edge1" class="edge"><title>Node1&#45;&gt;Node2</title>
<path fill="none" stroke="midnightblue" d="M272.687,-168.671C188.377,-154.389 32.4199,-122.231 3.8478,-76 -11.076,-51.8528 22.9914,-32.8223 51.4362,-21.7479"/>
<polygon fill="midnightblue" stroke="midnightblue" points="52.9959,-24.9036 61.1735,-18.1672 50.5799,-18.3337 52.9959,-24.9036"/>
</g>
<!-- Node3 -->
<g id="node3" class="node"><title>Node3</title>
<polygon fill="white" stroke="#bfbfbf" points="327.848,-112.5 327.848,-131.5 381.848,-131.5 381.848,-112.5 327.848,-112.5"/>
<text text-anchor="middle" x="354.848" y="-119.5" font-family="Helvetica,sans-Serif" font-size="10.00">memory</text>
</g>
<!-- Node1&#45;&gt;Node3 -->
<g id="edge2" class="edge"><title>Node1&#45;&gt;Node3</title>
<path fill="none" stroke="midnightblue" d="M331.471,-168.083C335.304,-160.691 340.872,-149.953 345.612,-140.811"/>
<polygon fill="midnightblue" stroke="midnightblue" points="348.814,-142.24 350.31,-131.751 342.6,-139.018 348.814,-142.24"/>
</g>
<!-- Node4 -->
<g id="node4" class="node"><title>Node4</title>
<polygon fill="white" stroke="#bfbfbf" points="13.3478,-56.5 13.3478,-75.5 56.3478,-75.5 56.3478,-56.5 13.3478,-56.5"/>
<text text-anchor="middle" x="34.8478" y="-63.5" font-family="Helvetica,sans-Serif" font-size="10.00">string</text>
</g>
<!-- Node1&#45;&gt;Node4 -->
<g id="edge3" class="edge"><title>Node1&#45;&gt;Node4</title>
<path fill="none" stroke="midnightblue" d="M287.027,-168.456C253.361,-160.672 204.156,-147.967 162.848,-132 124.919,-117.339 83.3441,-94.9638 58.1771,-80.6621"/>
<polygon fill="midnightblue" stroke="midnightblue" points="59.7918,-77.5533 49.3768,-75.6091 56.3062,-83.6238 59.7918,-77.5533"/>
</g>
<!-- Node5 -->
<g id="node5" class="node"><title>Node5</title>
<polygon fill="white" stroke="#bfbfbf" points="399.848,-112.5 399.848,-131.5 439.848,-131.5 439.848,-112.5 399.848,-112.5"/>
<text text-anchor="middle" x="419.848" y="-119.5" font-family="Helvetica,sans-Serif" font-size="10.00">utility</text>
</g>
<!-- Node1&#45;&gt;Node5 -->
<g id="edge4" class="edge"><title>Node1&#45;&gt;Node5</title>
<path fill="none" stroke="midnightblue" d="M341.79,-168.324C356.433,-159.822 378.981,-146.729 396.085,-136.797"/>
<polygon fill="midnightblue" stroke="midnightblue" points="398.052,-139.703 404.943,-131.655 394.537,-133.649 398.052,-139.703"/>
</g>
<!-- Node6 -->
<g id="node6" class="node"><title>Node6</title>
<polygon fill="white" stroke="#bfbfbf" points="459.848,-56.5 459.848,-75.5 505.848,-75.5 505.848,-56.5 459.848,-56.5"/>
<text text-anchor="middle" x="482.848" y="-63.5" font-family="Helvetica,sans-Serif" font-size="10.00">vector</text>
</g>
<!-- Node1&#45;&gt;Node6 -->
<g id="edge5" class="edge"><title>Node1&#45;&gt;Node6</title>
<path fill="none" stroke="midnightblue" d="M322.292,-168.413C315.838,-154.931 306.149,-128.626 318.848,-112 353.884,-66.1284 388.538,-89.5299 449.729,-76.0134"/>
<polygon fill="midnightblue" stroke="midnightblue" points="450.924,-79.3229 459.782,-73.5108 449.233,-72.5302 450.924,-79.3229"/>
</g>
<!-- Node7 -->
<g id="node7" class="node"><title>Node7</title>
<polygon fill="white" stroke="#bfbfbf" points="458.348,-112.5 458.348,-131.5 527.348,-131.5 527.348,-112.5 458.348,-112.5"/>
<text text-anchor="middle" x="492.848" y="-119.5" font-family="Helvetica,sans-Serif" font-size="10.00">portaudio.h</text>
</g>
<!-- Node1&#45;&gt;Node7 -->
<g id="edge6" class="edge"><title>Node1&#45;&gt;Node7</title>
<path fill="none" stroke="midnightblue" d="M353.151,-168.444C381.199,-159.32 425.792,-144.813 457.032,-134.651"/>
<polygon fill="midnightblue" stroke="midnightblue" points="458.241,-137.938 466.668,-131.516 456.075,-131.282 458.241,-137.938"/>
</g>
<!-- Node8 -->
<g id="node8" class="node"><title>Node8</title>
<polygon fill="white" stroke="#bfbfbf" points="545.848,-112.5 545.848,-131.5 727.848,-131.5 727.848,-112.5 545.848,-112.5"/>
<text text-anchor="middle" x="636.848" y="-119.5" font-family="Helvetica,sans-Serif" font-size="10.00">portaudiocpp/CallbackInterface.hxx</text>
</g>
<!-- Node1&#45;&gt;Node8 -->
<g id="edge7" class="edge"><title>Node1&#45;&gt;Node8</title>
<path fill="none" stroke="midnightblue" d="M375.968,-168.444C430.727,-158.905 519.258,-143.483 577.758,-133.293"/>
<polygon fill="midnightblue" stroke="midnightblue" points="578.706,-136.681 587.957,-131.516 577.505,-129.785 578.706,-136.681"/>
</g>
<!-- Node9 -->
<g id="node9" class="node"><title>Node9</title>
<g id="a_node9"><a xlink:href="audio__source_8hpp.html" target="_top" xlink:title="Declaration of the AudioSource class. ">
<polygon fill="white" stroke="black" points="171.848,-112.5 171.848,-131.5 271.848,-131.5 271.848,-112.5 171.848,-112.5"/>
<text text-anchor="middle" x="221.848" y="-119.5" font-family="Helvetica,sans-Serif" font-size="10.00">audio_source.hpp</text>
</a>
</g>
</g>
<!-- Node1&#45;&gt;Node9 -->
<g id="edge8" class="edge"><title>Node1&#45;&gt;Node9</title>
<path fill="none" stroke="midnightblue" d="M309.978,-168.324C293.139,-159.664 267.041,-146.242 247.61,-136.249"/>
<polygon fill="midnightblue" stroke="midnightblue" points="249.17,-133.116 238.676,-131.655 245.968,-139.341 249.17,-133.116"/>
</g>
<!-- Node9&#45;&gt;Node2 -->
<g id="edge10" class="edge"><title>Node9&#45;&gt;Node2</title>
<path fill="none" stroke="midnightblue" d="M171.84,-112.603C148.287,-106.243 121.545,-95.1717 103.848,-76 92.2697,-63.4572 87.7131,-44.2344 85.9377,-29.943"/>
<polygon fill="midnightblue" stroke="midnightblue" points="89.4042,-29.4098 85.0292,-19.7605 82.4319,-30.032 89.4042,-29.4098"/>
</g>
<!-- Node9&#45;&gt;Node4 -->
<g id="edge11" class="edge"><title>Node9&#45;&gt;Node4</title>
<path fill="none" stroke="midnightblue" d="M192.217,-112.444C157.817,-102.51 101.322,-86.1958 66.203,-76.0544"/>
<polygon fill="midnightblue" stroke="midnightblue" points="67.0481,-72.6555 56.4696,-73.2437 65.106,-79.3808 67.0481,-72.6555"/>
</g>
<!-- Node9&#45;&gt;Node6 -->
<g id="edge12" class="edge"><title>Node9&#45;&gt;Node6</title>
<path fill="none" stroke="midnightblue" d="M271.232,-112.477C315.596,-104.555 382.709,-91.9165 449.919,-76.0716"/>
<polygon fill="midnightblue" stroke="midnightblue" points="450.916,-79.4321 459.833,-73.7107 449.295,-72.6225 450.916,-79.4321"/>
</g>
<!-- Node10 -->
<g id="node10" class="node"><title>Node10</title>
<polygon fill="white" stroke="#bfbfbf" points="250.348,-56.5 250.348,-75.5 291.348,-75.5 291.348,-56.5 250.348,-56.5"/>
<text text-anchor="middle" x="270.848" y="-63.5" font-family="Helvetica,sans-Serif" font-size="10.00">array</text>
</g>
<!-- Node9&#45;&gt;Node10 -->
<g id="edge9" class="edge"><title>Node9&#45;&gt;Node10</title>
<path fill="none" stroke="midnightblue" d="M229.939,-112.083C237.003,-104.298 247.435,-92.8015 255.997,-83.3665"/>
<polygon fill="midnightblue" stroke="midnightblue" points="258.779,-85.5087 262.907,-75.7511 253.595,-80.8047 258.779,-85.5087"/>
</g>
<!-- Node11 -->
<g id="node11" class="node"><title>Node11</title>
<polygon fill="white" stroke="#bfbfbf" points="309.348,-56.5 309.348,-75.5 350.348,-75.5 350.348,-56.5 309.348,-56.5"/>
<text text-anchor="middle" x="329.848" y="-63.5" font-family="Helvetica,sans-Serif" font-size="10.00">sox.h</text>
</g>
<!-- Node9&#45;&gt;Node11 -->
<g id="edge13" class="edge"><title>Node9&#45;&gt;Node11</title>
<path fill="none" stroke="midnightblue" d="M239.2,-112.324C256.52,-103.664 283.363,-90.2424 303.35,-80.249"/>
<polygon fill="midnightblue" stroke="midnightblue" points="305.16,-83.2572 312.539,-75.6545 302.029,-76.9962 305.16,-83.2572"/>
</g>
<!-- Node12 -->
<g id="node12" class="node"><title>Node12</title>
<g id="a_node12"><a xlink:href="errors_8hpp.html" target="_top" xlink:title="Declarations of the playd Error exception set. ">
<polygon fill="white" stroke="black" points="368.348,-56.5 368.348,-75.5 441.348,-75.5 441.348,-56.5 368.348,-56.5"/>
<text text-anchor="middle" x="404.848" y="-63.5" font-family="Helvetica,sans-Serif" font-size="10.00">../errors.hpp</text>
</a>
</g>
</g>
<!-- Node9&#45;&gt;Node12 -->
<g id="edge14" class="edge"><title>Node9&#45;&gt;Node12</title>
<path fill="none" stroke="midnightblue" d="M250.845,-112.444C282.032,-103.241 331.778,-88.5617 366.255,-78.3879"/>
<polygon fill="midnightblue" stroke="midnightblue" points="367.386,-81.7036 375.987,-75.5164 365.405,-74.9898 367.386,-81.7036"/>
</g>
<!-- Node15 -->
<g id="node15" class="node"><title>Node15</title>
<g id="a_node15"><a xlink:href="sample__formats_8hpp.html" target="_top" xlink:title="The SampleFormat enumeration. ">
<polygon fill="white" stroke="black" points="113.348,-56.5 113.348,-75.5 232.348,-75.5 232.348,-56.5 113.348,-56.5"/>
<text text-anchor="middle" x="172.848" y="-63.5" font-family="Helvetica,sans-Serif" font-size="10.00">../sample_formats.hpp</text>
</a>
</g>
</g>
<!-- Node9&#45;&gt;Node15 -->
<g id="edge17" class="edge"><title>Node9&#45;&gt;Node15</title>
<path fill="none" stroke="midnightblue" d="M213.756,-112.083C206.692,-104.298 196.26,-92.8015 187.699,-83.3665"/>
<polygon fill="midnightblue" stroke="midnightblue" points="190.1,-80.8047 180.789,-75.7511 184.917,-85.5087 190.1,-80.8047"/>
</g>
<!-- Node13 -->
<g id="node13" class="node"><title>Node13</title>
<polygon fill="white" stroke="#bfbfbf" points="339.348,-0.5 339.348,-19.5 396.348,-19.5 396.348,-0.5 339.348,-0.5"/>
<text text-anchor="middle" x="367.848" y="-7.5" font-family="Helvetica,sans-Serif" font-size="10.00">iostream</text>
</g>
<!-- Node12&#45;&gt;Node13 -->
<g id="edge15" class="edge"><title>Node12&#45;&gt;Node13</title>
<path fill="none" stroke="midnightblue" d="M398.738,-56.083C393.566,-48.5341 386.002,-37.4948 379.653,-28.2298"/>
<polygon fill="midnightblue" stroke="midnightblue" points="382.384,-26.0221 373.844,-19.7511 376.609,-29.9787 382.384,-26.0221"/>
</g>
<!-- Node14 -->
<g id="node14" class="node"><title>Node14</title>
<polygon fill="white" stroke="#bfbfbf" points="414.848,-0.5 414.848,-19.5 468.848,-19.5 468.848,-0.5 414.848,-0.5"/>
<text text-anchor="middle" x="441.848" y="-7.5" font-family="Helvetica,sans-Serif" font-size="10.00">sstream</text>
</g>
<!-- Node12&#45;&gt;Node14 -->
<g id="edge16" class="edge"><title>Node12&#45;&gt;Node14</title>
<path fill="none" stroke="midnightblue" d="M410.958,-56.083C416.13,-48.5341 423.694,-37.4948 430.042,-28.2298"/>
<polygon fill="midnightblue" stroke="midnightblue" points="433.087,-29.9787 435.852,-19.7511 427.312,-26.0221 433.087,-29.9787"/>
</g>
<!-- Node15&#45;&gt;Node2 -->
<g id="edge18" class="edge"><title>Node15&#45;&gt;Node2</title>
<path fill="none" stroke="midnightblue" d="M158.709,-56.324C144.982,-47.9002 123.911,-34.9709 107.783,-25.0741"/>
<polygon fill="midnightblue" stroke="midnightblue" points="109.305,-21.9016 98.9514,-19.6545 105.644,-27.8678 109.305,-21.9016"/>
</g>
</g>
</svg>
        <g id="navigator" transform="translate(0 0)" fill="#404254">
                <rect fill="#f2f5e9" fill-opacity="0.5" stroke="#606060" stroke-width=".5" x="0" y="0" width="60" height="60"/>
                <use id="zoomplus" xlink:href="#zoomPlus" x="17" y="9" onmousedown="handleZoom(evt,'in')"/>
                <use id="zoomminus" xlink:href="#zoomMin" x="42" y="9" onmousedown="handleZoom(evt,'out')"/>
                <use id="reset" xlink:href="#resetDef" x="30" y="36" onmousedown="handleReset()"/>
                <g id="arrowUp" xlink:href="#dirArrow" transform="translate(30 24)" onmousedown="handlePan(0,-1)">
                  <use xlink:href="#rim" fill="#404040">
                        <set attributeName="fill" to="#808080" begin="arrowUp.mouseover" end="arrowUp.mouseout"/>
                  </use>
                  <path fill="none" stroke="white" stroke-width="1.5" d="M0,-3.0v7 M-2.5,-0.5L0,-3.0L2.5,-0.5"/>
                </g>
                <g id="arrowRight" xlink:href="#dirArrow" transform="rotate(90) translate(36 -43)" onmousedown="handlePan(1,0)">
                  <use xlink:href="#rim" fill="#404040">
                        <set attributeName="fill" to="#808080" begin="arrowRight.mouseover" end="arrowRight.mouseout"/>
                  </use>
                  <path fill="none" stroke="white" stroke-width="1.5" d="M0,-3.0v7 M-2.5,-0.5L0,-3.0L2.5,-0.5"/>
                </g>
                <g id="arrowDown" xlink:href="#dirArrow" transform="rotate(180) translate(-30 -48)" onmousedown="handlePan(0,1)">
                  <use xlink:href="#rim" fill="#404040">
                        <set attributeName="fill" to="#808080" begin="arrowDown.mouseover" end="arrowDown.mouseout"/>
                  </use>
                  <path fill="none" stroke="white" stroke-width="1.5" d="M0,-3.0v7 M-2.5,-0.5L0,-3.0L2.5,-0.5"/>
                </g>
                <g id="arrowLeft" xlink:href="#dirArrow" transform="rotate(270) translate(-36 17)" onmousedown="handlePan(-1,0)">
                  <use xlink:href="#rim" fill="#404040">
                        <set attributeName="fill" to="#808080" begin="arrowLeft.mouseover" end="arrowLeft.mouseout"/>
                  </use>
                  <path fill="none" stroke="white" stroke-width="1.5" d="M0,-3.0v7 M-2.5,-0.5L0,-3.0L2.5,-0.5"/>
                </g>
        </g>
        <svg viewBox="0 0 15 15" width="100%" height="30px" preserveAspectRatio="xMaxYMin meet">
         <g id="arrow_out" transform="scale(0.3 0.3)">
          <a xlink:href="audio_8hpp__incl_org.svg" target="_base">
           <rect id="button" ry="5" rx="5" y="6" x="6" height="38" width="38"
                fill="#f2f5e9" fill-opacity="0.5" stroke="#606060" stroke-width="1.0"/>
           <path id="arrow"
             d="M 11.500037,31.436501 C 11.940474,20.09759 22.043105,11.32322 32.158766,21.979434 L 37.068811,17.246167 C 37.068811,17.246167 37.088388,32 37.088388,32 L 22.160133,31.978069 C 22.160133,31.978069 26.997745,27.140456 26.997745,27.140456 C 18.528582,18.264221 13.291696,25.230495 11.500037,31.436501 z"
             style="fill:#404040;"/>
          </a>
         </g>
        </svg>
</svg>
