<?xml version="1.0" encoding="UTF-8" standalone="no"?>
<!DOCTYPE svg PUBLIC "-//W3C//DTD SVG 1.1//EN"
 "http://www.w3.org/Graphics/SVG/1.1/DTD/svg11.dtd">
<!-- Generated by graphviz version 2.36.0 (20140111.2315)
 -->
<!-- Title: src/audio/audio.hpp Pages: 1 -->
<svg width="657pt" height="196pt"
 viewBox="0.00 0.00 657.00 196.00" xmlns="http://www.w3.org/2000/svg" xmlns:xlink="http://www.w3.org/1999/xlink">
<g id="graph0" class="graph" transform="scale(1 1) rotate(0) translate(4 192)">
<title>src/audio/audio.hpp</title>
<polygon fill="white" stroke="none" points="-4,4 -4,-192 653,-192 653,4 -4,4"/>
<!-- Node0 -->
<g id="node1" class="node"><title>Node0</title>
<polygon fill="#bfbfbf" stroke="black" points="243,-168.5 243,-187.5 353,-187.5 353,-168.5 243,-168.5"/>
<text text-anchor="middle" x="298" y="-175.5" font-family="Helvetica,sans-Serif" font-size="10.00">src/audio/audio.hpp</text>
</g>
<!-- Node1 -->
<g id="node2" class="node"><title>Node1</title>
<polygon fill="white" stroke="#bfbfbf" points="428.5,-0.5 428.5,-19.5 477.5,-19.5 477.5,-0.5 428.5,-0.5"/>
<text text-anchor="middle" x="453" y="-7.5" font-family="Helvetica,sans-Serif" font-size="10.00">cstdint</text>
</g>
<!-- Node0&#45;&gt;Node1 -->
<g id="edge1" class="edge"><title>Node0&#45;&gt;Node1</title>
<path fill="none" stroke="midnightblue" d="M353.188,-175.245C389.482,-171.258 435.698,-160.382 466,-132 491.411,-108.198 495.591,-89.1676 485,-56 481.659,-45.538 474.9,-35.4277 468.451,-27.4496"/>
<polygon fill="midnightblue" stroke="midnightblue" points="470.944,-24.9815 461.751,-19.7136 465.652,-29.5641 470.944,-24.9815"/>
</g>
<!-- Node2 -->
<g id="node3" class="node"><title>Node2</title>
<polygon fill="white" stroke="#bfbfbf" points="-0.5,-56.5 -0.5,-75.5 56.5,-75.5 56.5,-56.5 -0.5,-56.5"/>
<text text-anchor="middle" x="28" y="-63.5" font-family="Helvetica,sans-Serif" font-size="10.00">memory</text>
</g>
<!-- Node0&#45;&gt;Node2 -->
<g id="edge2" class="edge"><title>Node0&#45;&gt;Node2</title>
<path fill="none" stroke="midnightblue" d="M242.892,-168.478C206.803,-161.607 159.234,-150.058 120,-132 91.6036,-118.93 62.8007,-96.8406 45.1696,-82.0904"/>
<polygon fill="midnightblue" stroke="midnightblue" points="47.3404,-79.3417 37.4625,-75.5107 42.7954,-84.6655 47.3404,-79.3417"/>
</g>
<!-- Node3 -->
<g id="node4" class="node"><title>Node3</title>
<polygon fill="white" stroke="#bfbfbf" points="329,-56.5 329,-75.5 373,-75.5 373,-56.5 329,-56.5"/>
<text text-anchor="middle" x="351" y="-63.5" font-family="Helvetica,sans-Serif" font-size="10.00">string</text>
</g>
<!-- Node0&#45;&gt;Node3 -->
<g id="edge3" class="edge"><title>Node0&#45;&gt;Node3</title>
<path fill="none" stroke="midnightblue" d="M288.612,-168.298C276.036,-155.549 256.556,-131.223 268,-112 279.088,-93.3758 300.867,-81.9852 319.333,-75.3246"/>
<polygon fill="midnightblue" stroke="midnightblue" points="320.485,-78.6304 328.888,-72.1772 318.295,-71.9818 320.485,-78.6304"/>
</g>
<!-- Node4 -->
<g id="node5" class="node"><title>Node4</title>
<polygon fill="white" stroke="#bfbfbf" points="277,-112.5 277,-131.5 319,-131.5 319,-112.5 277,-112.5"/>
<text text-anchor="middle" x="298" y="-119.5" font-family="Helvetica,sans-Serif" font-size="10.00">utility</text>
</g>
<!-- Node0&#45;&gt;Node4 -->
<g id="edge4" class="edge"><title>Node0&#45;&gt;Node4</title>
<path fill="none" stroke="midnightblue" d="M298,-168.083C298,-161.006 298,-150.861 298,-141.986"/>
<polygon fill="midnightblue" stroke="midnightblue" points="301.5,-141.751 298,-131.751 294.5,-141.751 301.5,-141.751"/>
</g>
<!-- Node5 -->
<g id="node6" class="node"><title>Node5</title>
<polygon fill="white" stroke="#bfbfbf" points="429.5,-56.5 429.5,-75.5 476.5,-75.5 476.5,-56.5 429.5,-56.5"/>
<text text-anchor="middle" x="453" y="-63.5" font-family="Helvetica,sans-Serif" font-size="10.00">vector</text>
</g>
<!-- Node0&#45;&gt;Node5 -->
<g id="edge5" class="edge"><title>Node0&#45;&gt;Node5</title>
<path fill="none" stroke="midnightblue" d="M353.13,-175.001C385.53,-170.729 424.439,-159.628 447,-132 457.407,-119.256 457.939,-100.06 456.45,-85.8296"/>
<polygon fill="midnightblue" stroke="midnightblue" points="459.88,-85.09 454.973,-75.6999 452.953,-86.1003 459.88,-85.09"/>
</g>
<!-- Node6 -->
<g id="node7" class="node"><title>Node6</title>
<g id="a_node7"><a xlink:href="response_8hpp.html" target="_top" xlink:title="Declaration of classes pertaining to responses to the client. ">
<polygon fill="white" stroke="black" points="129.5,-112.5 129.5,-131.5 220.5,-131.5 220.5,-112.5 129.5,-112.5"/>
<text text-anchor="middle" x="175" y="-119.5" font-family="Helvetica,sans-Serif" font-size="10.00">../response.hpp</text>
</a>
</g>
</g>
<!-- Node0&#45;&gt;Node6 -->
<g id="edge6" class="edge"><title>Node0&#45;&gt;Node6</title>
<path fill="none" stroke="midnightblue" d="M278.51,-168.444C258.358,-159.596 226.677,-145.687 203.669,-135.586"/>
<polygon fill="midnightblue" stroke="midnightblue" points="204.962,-132.332 194.399,-131.516 202.148,-138.741 204.962,-132.332"/>
</g>
<!-- Node12 -->
<g id="node13" class="node"><title>Node12</title>
<g id="a_node13"><a xlink:href="audio__source_8hpp.html" target="_top" xlink:title="Declaration of the AudioSource class. ">
<polygon fill="white" stroke="black" points="337.5,-112.5 337.5,-131.5 438.5,-131.5 438.5,-112.5 337.5,-112.5"/>
<text text-anchor="middle" x="388" y="-119.5" font-family="Helvetica,sans-Serif" font-size="10.00">audio_source.hpp</text>
</a>
</g>
</g>
<!-- Node0&#45;&gt;Node12 -->
<g id="edge16" class="edge"><title>Node0&#45;&gt;Node12</title>
<path fill="none" stroke="midnightblue" d="M312.46,-168.324C326.5,-159.9 348.048,-146.971 364.543,-137.074"/>
<polygon fill="midnightblue" stroke="midnightblue" points="366.802,-139.801 373.576,-131.655 363.2,-133.798 366.802,-139.801"/>
</g>
<!-- Node6&#45;&gt;Node1 -->
<g id="edge7" class="edge"><title>Node6&#45;&gt;Node1</title>
<path fill="none" stroke="midnightblue" d="M196.966,-112.408C218.768,-103.73 253.027,-89.6855 282,-76 299.257,-67.8485 302.461,-63.5264 320,-56 352.575,-42.0208 391.059,-29.4026 418.226,-21.1101"/>
<polygon fill="midnightblue" stroke="midnightblue" points="419.484,-24.3866 428.049,-18.1499 417.464,-17.6844 419.484,-24.3866"/>
</g>
<!-- Node6&#45;&gt;Node2 -->
<g id="edge9" class="edge"><title>Node6&#45;&gt;Node2</title>
<path fill="none" stroke="midnightblue" d="M151.707,-112.444C127.193,-103.438 88.4038,-89.1891 60.8001,-79.049"/>
<polygon fill="midnightblue" stroke="midnightblue" points="61.7772,-75.6793 51.1836,-75.5164 59.3634,-82.25 61.7772,-75.6793"/>
</g>
<!-- Node6&#45;&gt;Node3 -->
<g id="edge11" class="edge"><title>Node6&#45;&gt;Node3</title>
<path fill="none" stroke="midnightblue" d="M202.888,-112.444C234.511,-102.741 285.971,-86.952 319.148,-76.7727"/>
<polygon fill="midnightblue" stroke="midnightblue" points="320.282,-80.086 328.815,-73.8067 318.229,-73.3939 320.282,-80.086"/>
</g>
<!-- Node6&#45;&gt;Node5 -->
<g id="edge12" class="edge"><title>Node6&#45;&gt;Node5</title>
<path fill="none" stroke="midnightblue" d="M219.05,-112.444C274.652,-101.643 369.081,-83.3007 419.282,-73.5495"/>
<polygon fill="midnightblue" stroke="midnightblue" points="420.144,-76.9476 429.293,-71.6049 418.809,-70.076 420.144,-76.9476"/>
</g>
<!-- Node7 -->
<g id="node8" class="node"><title>Node7</title>
<polygon fill="white" stroke="#bfbfbf" points="75,-56.5 75,-75.5 113,-75.5 113,-56.5 75,-56.5"/>
<text text-anchor="middle" x="94" y="-63.5" font-family="Helvetica,sans-Serif" font-size="10.00">map</text>
</g>
<!-- Node6&#45;&gt;Node7 -->
<g id="edge8" class="edge"><title>Node6&#45;&gt;Node7</title>
<path fill="none" stroke="midnightblue" d="M161.986,-112.324C149.468,-103.979 130.318,-91.2122 115.529,-81.3524"/>
<polygon fill="midnightblue" stroke="midnightblue" points="117.244,-78.2894 106.982,-75.6545 113.361,-84.1137 117.244,-78.2894"/>
</g>
<!-- Node8 -->
<g id="node9" class="node"><title>Node8</title>
<polygon fill="white" stroke="#bfbfbf" points="131.5,-56.5 131.5,-75.5 188.5,-75.5 188.5,-56.5 131.5,-56.5"/>
<text text-anchor="middle" x="160" y="-63.5" font-family="Helvetica,sans-Serif" font-size="10.00">ostream</text>
</g>
<!-- Node6&#45;&gt;Node8 -->
<g id="edge10" class="edge"><title>Node6&#45;&gt;Node8</title>
<path fill="none" stroke="midnightblue" d="M172.523,-112.083C170.514,-104.849 167.614,-94.4087 165.11,-85.3968"/>
<polygon fill="midnightblue" stroke="midnightblue" points="168.48,-84.4495 162.431,-75.7511 161.735,-86.323 168.48,-84.4495"/>
</g>
<!-- Node9 -->
<g id="node10" class="node"><title>Node9</title>
<g id="a_node10"><a xlink:href="errors_8hpp.html" target="_top" xlink:title="Declarations of the playd Error exception set. ">
<polygon fill="white" stroke="black" points="207,-56.5 207,-75.5 273,-75.5 273,-56.5 207,-56.5"/>
<text text-anchor="middle" x="240" y="-63.5" font-family="Helvetica,sans-Serif" font-size="10.00">errors.hpp</text>
</a>
</g>
</g>
<!-- Node6&#45;&gt;Node9 -->
<g id="edge13" class="edge"><title>Node6&#45;&gt;Node9</title>
<path fill="none" stroke="midnightblue" d="M185.443,-112.324C195.146,-104.263 209.815,-92.0765 221.5,-82.3695"/>
<polygon fill="midnightblue" stroke="midnightblue" points="223.911,-84.9163 229.367,-75.8339 219.438,-79.532 223.911,-84.9163"/>
</g>
<!-- Node10 -->
<g id="node11" class="node"><title>Node10</title>
<polygon fill="white" stroke="#bfbfbf" points="248.5,-0.5 248.5,-19.5 307.5,-19.5 307.5,-0.5 248.5,-0.5"/>
<text text-anchor="middle" x="278" y="-7.5" font-family="Helvetica,sans-Serif" font-size="10.00">iostream</text>
</g>
<!-- Node9&#45;&gt;Node10 -->
<g id="edge14" class="edge"><title>Node9&#45;&gt;Node10</title>
<path fill="none" stroke="midnightblue" d="M246.275,-56.083C251.642,-48.4554 259.518,-37.2645 266.079,-27.9408"/>
<polygon fill="midnightblue" stroke="midnightblue" points="268.949,-29.9434 271.842,-19.7511 263.225,-25.9149 268.949,-29.9434"/>
</g>
<!-- Node11 -->
<g id="node12" class="node"><title>Node11</title>
<polygon fill="white" stroke="#bfbfbf" points="174,-0.5 174,-19.5 230,-19.5 230,-0.5 174,-0.5"/>
<text text-anchor="middle" x="202" y="-7.5" font-family="Helvetica,sans-Serif" font-size="10.00">sstream</text>
</g>
<!-- Node9&#45;&gt;Node11 -->
<g id="edge15" class="edge"><title>Node9&#45;&gt;Node11</title>
<path fill="none" stroke="midnightblue" d="M233.725,-56.083C228.358,-48.4554 220.482,-37.2645 213.921,-27.9408"/>
<polygon fill="midnightblue" stroke="midnightblue" points="216.775,-25.9149 208.158,-19.7511 211.051,-29.9434 216.775,-25.9149"/>
</g>
<!-- Node12&#45;&gt;Node1 -->
<g id="edge17" class="edge"><title>Node12&#45;&gt;Node1</title>
<path fill="none" stroke="midnightblue" d="M391.682,-112.334C397.209,-99.6296 408.261,-75.3593 420,-56 425.902,-46.2663 433.339,-35.9879 439.657,-27.7153"/>
<polygon fill="midnightblue" stroke="midnightblue" points="442.56,-29.6846 445.949,-19.6466 437.04,-25.38 442.56,-29.6846"/>
</g>
<!-- Node12&#45;&gt;Node3 -->
<g id="edge18" class="edge"><title>Node12&#45;&gt;Node3</title>
<path fill="none" stroke="midnightblue" d="M381.89,-112.083C376.718,-104.534 369.154,-93.4948 362.806,-84.2298"/>
<polygon fill="midnightblue" stroke="midnightblue" points="365.536,-82.0221 356.996,-75.7511 359.761,-85.9787 365.536,-82.0221"/>
</g>
<!-- Node12&#45;&gt;Node5 -->
<g id="edge19" class="edge"><title>Node12&#45;&gt;Node5</title>
<path fill="none" stroke="midnightblue" d="M398.443,-112.324C408.146,-104.263 422.815,-92.0765 434.5,-82.3695"/>
<polygon fill="midnightblue" stroke="midnightblue" points="436.911,-84.9163 442.367,-75.8339 432.438,-79.532 436.911,-84.9163"/>
</g>
<!-- Node12&#45;&gt;Node9 -->
<g id="edge20" class="edge"><title>Node12&#45;&gt;Node9</title>
<path fill="none" stroke="midnightblue" d="M364.549,-112.444C339.867,-103.438 300.815,-89.1891 273.023,-79.049"/>
<polygon fill="midnightblue" stroke="midnightblue" points="273.935,-75.6561 263.341,-75.5164 271.536,-82.2321 273.935,-75.6561"/>
</g>
<!-- Node13 -->
<g id="node14" class="node"><title>Node13</title>
<g id="a_node14"><a xlink:href="sample__formats_8hpp.html" target="_top" xlink:title="The SampleFormat enumeration and related declarations. ">
<polygon fill="white" stroke="black" points="533,-56.5 533,-75.5 649,-75.5 649,-56.5 533,-56.5"/>
<text text-anchor="middle" x="591" y="-63.5" font-family="Helvetica,sans-Serif" font-size="10.00">sample_formats.hpp</text>
</a>
</g>
</g>
<!-- Node12&#45;&gt;Node13 -->
<g id="edge21" class="edge"><title>Node12&#45;&gt;Node13</title>
<path fill="none" stroke="midnightblue" d="M420.166,-112.444C455.059,-103.162 510.893,-88.3093 549.171,-78.127"/>
<polygon fill="midnightblue" stroke="midnightblue" points="550.22,-81.4696 558.985,-75.5164 548.421,-74.7048 550.22,-81.4696"/>
</g>
<!-- Node13&#45;&gt;Node1 -->
<g id="edge23" class="edge"><title>Node13&#45;&gt;Node1</title>
<path fill="none" stroke="midnightblue" d="M569.133,-56.4435C546.221,-47.4776 510.025,-33.314 484.134,-23.1827"/>
<polygon fill="midnightblue" stroke="midnightblue" points="485.352,-19.9011 474.764,-19.5164 482.801,-26.4198 485.352,-19.9011"/>
</g>
<!-- Node14 -->
<g id="node15" class="node"><title>Node14</title>
<polygon fill="white" stroke="#bfbfbf" points="570.5,-0.5 570.5,-19.5 611.5,-19.5 611.5,-0.5 570.5,-0.5"/>
<text text-anchor="middle" x="591" y="-7.5" font-family="Helvetica,sans-Serif" font-size="10.00">array</text>
</g>
<!-- Node13&#45;&gt;Node14 -->
<g id="edge22" class="edge"><title>Node13&#45;&gt;Node14</title>
<path fill="none" stroke="midnightblue" d="M591,-56.083C591,-49.0059 591,-38.8611 591,-29.9865"/>
<polygon fill="midnightblue" stroke="midnightblue" points="594.5,-29.751 591,-19.7511 587.5,-29.7511 594.5,-29.751"/>
</g>
</g>
</svg>
