<?xml version="1.0" encoding="UTF-8" standalone="no"?>
<!DOCTYPE svg PUBLIC "-//W3C//DTD SVG 1.1//EN"
 "http://www.w3.org/Graphics/SVG/1.1/DTD/svg11.dtd">
<!-- Generated by graphviz version 2.36.0 (20140111.2315)
 -->
<!-- Title: src/audio/audio_source.hpp Pages: 1 -->
<svg width="401pt" height="140pt"
 viewBox="0.00 0.00 400.93 140.00" xmlns="http://www.w3.org/2000/svg" xmlns:xlink="http://www.w3.org/1999/xlink">
<g id="graph0" class="graph" transform="scale(1 1) rotate(0) translate(4 136)">
<title>src/audio/audio_source.hpp</title>
<polygon fill="white" stroke="none" points="-4,4 -4,-136 396.928,-136 396.928,4 -4,4"/>
<!-- Node0 -->
<g id="node1" class="node"><title>Node0</title>
<polygon fill="#bfbfbf" stroke="black" points="24.9284,-112.5 24.9284,-131.5 172.928,-131.5 172.928,-112.5 24.9284,-112.5"/>
<text text-anchor="middle" x="98.9284" y="-119.5" font-family="Helvetica,sans-Serif" font-size="10.00">src/audio/audio_source.hpp</text>
</g>
<!-- Node1 -->
<g id="node2" class="node"><title>Node1</title>
<polygon fill="white" stroke="#bfbfbf" points="35.4284,-0.5 35.4284,-19.5 84.4284,-19.5 84.4284,-0.5 35.4284,-0.5"/>
<text text-anchor="middle" x="59.9284" y="-7.5" font-family="Helvetica,sans-Serif" font-size="10.00">cstdint</text>
</g>
<!-- Node0&#45;&gt;Node1 -->
<g id="edge1" class="edge"><title>Node0&#45;&gt;Node1</title>
<path fill="none" stroke="midnightblue" d="M57.8773,-112.383C37.9682,-105.916 15.8345,-94.814 3.9284,-76 -8.22847,-56.7897 14.0152,-37.3816 33.9618,-24.8397"/>
<polygon fill="midnightblue" stroke="midnightblue" points="36.0124,-27.6931 42.8331,-19.5857 32.4453,-21.6701 36.0124,-27.6931"/>
</g>
<!-- Node2 -->
<g id="node3" class="node"><title>Node2</title>
<polygon fill="white" stroke="#bfbfbf" points="12.9284,-56.5 12.9284,-75.5 56.9284,-75.5 56.9284,-56.5 12.9284,-56.5"/>
<text text-anchor="middle" x="34.9284" y="-63.5" font-family="Helvetica,sans-Serif" font-size="10.00">string</text>
</g>
<!-- Node0&#45;&gt;Node2 -->
<g id="edge2" class="edge"><title>Node0&#45;&gt;Node2</title>
<path fill="none" stroke="midnightblue" d="M88.6457,-112.324C79.0921,-104.263 64.6487,-92.0765 53.1441,-82.3695"/>
<polygon fill="midnightblue" stroke="midnightblue" points="55.2982,-79.6076 45.3982,-75.8339 50.7841,-84.9577 55.2982,-79.6076"/>
</g>
<!-- Node3 -->
<g id="node4" class="node"><title>Node3</title>
<polygon fill="white" stroke="#bfbfbf" points="75.4284,-56.5 75.4284,-75.5 122.428,-75.5 122.428,-56.5 75.4284,-56.5"/>
<text text-anchor="middle" x="98.9284" y="-63.5" font-family="Helvetica,sans-Serif" font-size="10.00">vector</text>
</g>
<!-- Node0&#45;&gt;Node3 -->
<g id="edge3" class="edge"><title>Node0&#45;&gt;Node3</title>
<path fill="none" stroke="midnightblue" d="M98.9284,-112.083C98.9284,-105.006 98.9284,-94.8611 98.9284,-85.9865"/>
<polygon fill="midnightblue" stroke="midnightblue" points="102.429,-85.751 98.9284,-75.7511 95.4285,-85.7511 102.429,-85.751"/>
</g>
<!-- Node4 -->
<g id="node5" class="node"><title>Node4</title>
<g id="a_node5"><a xlink:href="errors_8hpp.html" target="_top" xlink:title="Declarations of the playd Error exception set. ">
<polygon fill="white" stroke="black" points="274.428,-56.5 274.428,-75.5 349.428,-75.5 349.428,-56.5 274.428,-56.5"/>
<text text-anchor="middle" x="311.928" y="-63.5" font-family="Helvetica,sans-Serif" font-size="10.00">../errors.hpp</text>
</a>
</g>
</g>
<!-- Node0&#45;&gt;Node4 -->
<g id="edge4" class="edge"><title>Node0&#45;&gt;Node4</title>
<path fill="none" stroke="midnightblue" d="M132.679,-112.444C169.447,-103.122 228.374,-88.1828 268.55,-77.9972"/>
<polygon fill="midnightblue" stroke="midnightblue" points="269.503,-81.3666 278.336,-75.5164 267.782,-74.5813 269.503,-81.3666"/>
</g>
<!-- Node7 -->
<g id="node8" class="node"><title>Node7</title>
<g id="a_node8"><a xlink:href="sample__formats_8hpp.html" target="_top" xlink:title="The SampleFormat enumeration and related declarations. ">
<polygon fill="white" stroke="black" points="140.928,-56.5 140.928,-75.5 256.928,-75.5 256.928,-56.5 140.928,-56.5"/>
<text text-anchor="middle" x="198.928" y="-63.5" font-family="Helvetica,sans-Serif" font-size="10.00">sample_formats.hpp</text>
</a>
</g>
</g>
<!-- Node0&#45;&gt;Node7 -->
<g id="edge7" class="edge"><title>Node0&#45;&gt;Node7</title>
<path fill="none" stroke="midnightblue" d="M114.995,-112.324C130.886,-103.743 155.436,-90.486 173.887,-80.5224"/>
<polygon fill="midnightblue" stroke="midnightblue" points="175.766,-83.4857 182.902,-75.6545 172.439,-77.3264 175.766,-83.4857"/>
</g>
<!-- Node5 -->
<g id="node6" class="node"><title>Node5</title>
<polygon fill="white" stroke="#bfbfbf" points="259.428,-0.5 259.428,-19.5 318.428,-19.5 318.428,-0.5 259.428,-0.5"/>
<text text-anchor="middle" x="288.928" y="-7.5" font-family="Helvetica,sans-Serif" font-size="10.00">iostream</text>
</g>
<!-- Node4&#45;&gt;Node5 -->
<g id="edge5" class="edge"><title>Node4&#45;&gt;Node5</title>
<path fill="none" stroke="midnightblue" d="M308.13,-56.083C305.016,-48.77 300.506,-38.1814 296.639,-29.1034"/>
<polygon fill="midnightblue" stroke="midnightblue" points="299.794,-27.5798 292.656,-19.7511 293.354,-30.3229 299.794,-27.5798"/>
</g>
<!-- Node6 -->
<g id="node7" class="node"><title>Node6</title>
<polygon fill="white" stroke="#bfbfbf" points="336.928,-0.5 336.928,-19.5 392.928,-19.5 392.928,-0.5 336.928,-0.5"/>
<text text-anchor="middle" x="364.928" y="-7.5" font-family="Helvetica,sans-Serif" font-size="10.00">sstream</text>
</g>
<!-- Node4&#45;&gt;Node6 -->
<g id="edge6" class="edge"><title>Node4&#45;&gt;Node6</title>
<path fill="none" stroke="midnightblue" d="M320.68,-56.083C328.398,-48.2195 339.833,-36.5688 349.145,-27.0813"/>
<polygon fill="midnightblue" stroke="midnightblue" points="351.833,-29.3396 356.339,-19.7511 346.837,-24.4363 351.833,-29.3396"/>
</g>
<!-- Node7&#45;&gt;Node1 -->
<g id="edge9" class="edge"><title>Node7&#45;&gt;Node1</title>
<path fill="none" stroke="midnightblue" d="M176.903,-56.4435C153.824,-47.4776 117.366,-33.314 91.2876,-23.1827"/>
<polygon fill="midnightblue" stroke="midnightblue" points="92.4391,-19.8753 81.8503,-19.5164 89.9042,-26.4002 92.4391,-19.8753"/>
</g>
<!-- Node8 -->
<g id="node9" class="node"><title>Node8</title>
<polygon fill="white" stroke="#bfbfbf" points="178.428,-0.5 178.428,-19.5 219.428,-19.5 219.428,-0.5 178.428,-0.5"/>
<text text-anchor="middle" x="198.928" y="-7.5" font-family="Helvetica,sans-Serif" font-size="10.00">array</text>
</g>
<!-- Node7&#45;&gt;Node8 -->
<g id="edge8" class="edge"><title>Node7&#45;&gt;Node8</title>
<path fill="none" stroke="midnightblue" d="M198.928,-56.083C198.928,-49.0059 198.928,-38.8611 198.928,-29.9865"/>
<polygon fill="midnightblue" stroke="midnightblue" points="202.429,-29.751 198.928,-19.7511 195.429,-29.7511 202.429,-29.751"/>
</g>
</g>
</svg>
