<?xml version="1.0" encoding="UTF-8" standalone="no"?>
<!DOCTYPE svg PUBLIC "-//W3C//DTD SVG 1.1//EN"
 "http://www.w3.org/Graphics/SVG/1.1/DTD/svg11.dtd">
<!-- Generated by graphviz version 2.38.0 (20140413.2041)
 -->
<!-- Title: src/audio/audio_sink.hpp Pages: 1 -->
<svg width="1096pt" height="476pt"
 viewBox="0.00 0.00 1096.00 476.00" xmlns="http://www.w3.org/2000/svg" xmlns:xlink="http://www.w3.org/1999/xlink">
<g id="graph0" class="graph" transform="scale(1 1) rotate(0) translate(4 472)">
<title>src/audio/audio_sink.hpp</title>
<polygon fill="white" stroke="none" points="-4,4 -4,-472 1092,-472 1092,4 -4,4"/>
<!-- Node1 -->
<g id="node1" class="node"><title>Node1</title>
<polygon fill="#bfbfbf" stroke="black" points="534,-448.5 534,-467.5 668,-467.5 668,-448.5 534,-448.5"/>
<text text-anchor="middle" x="601" y="-455.5" font-family="Helvetica,sans-Serif" font-size="10.00">src/audio/audio_sink.hpp</text>
</g>
<!-- Node2 -->
<g id="node2" class="node"><title>Node2</title>
<g id="a_node2"><a xlink:href="audio_8cpp.html" target="_top" xlink:title="Implementation of the Audio class. ">
<polygon fill="white" stroke="black" points="359,-392.5 359,-411.5 469,-411.5 469,-392.5 359,-392.5"/>
<text text-anchor="middle" x="414" y="-399.5" font-family="Helvetica,sans-Serif" font-size="10.00">src/audio/audio.cpp</text>
</a>
</g>
</g>
<!-- Node1&#45;&gt;Node2 -->
<g id="edge1" class="edge"><title>Node1&#45;&gt;Node2</title>
<path fill="none" stroke="midnightblue" d="M561.41,-445.568C526.134,-435.381 475.306,-420.703 443.492,-411.516"/>
<polygon fill="midnightblue" stroke="midnightblue" points="560.791,-449.032 571.369,-448.444 562.733,-442.307 560.791,-449.032"/>
</g>
<!-- Node3 -->
<g id="node3" class="node"><title>Node3</title>
<g id="a_node3"><a xlink:href="audio__sink_8cpp.html" target="_top" xlink:title="Implementation of the AudioSink class. ">
<polygon fill="white" stroke="black" points="487,-392.5 487,-411.5 621,-411.5 621,-392.5 487,-392.5"/>
<text text-anchor="middle" x="554" y="-399.5" font-family="Helvetica,sans-Serif" font-size="10.00">src/audio/audio_sink.cpp</text>
</a>
</g>
</g>
<!-- Node1&#45;&gt;Node3 -->
<g id="edge2" class="edge"><title>Node1&#45;&gt;Node3</title>
<path fill="none" stroke="midnightblue" d="M586.579,-440.431C578.342,-430.967 568.346,-419.483 561.617,-411.751"/>
<polygon fill="midnightblue" stroke="midnightblue" points="584.034,-442.838 593.239,-448.083 589.314,-438.242 584.034,-442.838"/>
</g>
<!-- Node4 -->
<g id="node4" class="node"><title>Node4</title>
<g id="a_node4"><a xlink:href="audio__system_8cpp.html" target="_top" xlink:title="Implementation of the AudioSystem class. ">
<polygon fill="white" stroke="black" points="526,-336.5 526,-355.5 676,-355.5 676,-336.5 526,-336.5"/>
<text text-anchor="middle" x="601" y="-343.5" font-family="Helvetica,sans-Serif" font-size="10.00">src/audio/audio_system.cpp</text>
</a>
</g>
</g>
<!-- Node1&#45;&gt;Node4 -->
<g id="edge3" class="edge"><title>Node1&#45;&gt;Node4</title>
<path fill="none" stroke="midnightblue" d="M614.986,-440.373C620.845,-432.34 626.988,-422.235 630,-412 636.21,-390.9 619.764,-367.717 609.166,-355.549"/>
<polygon fill="midnightblue" stroke="midnightblue" points="612.068,-438.423 608.673,-448.459 617.586,-442.731 612.068,-438.423"/>
</g>
<!-- Node5 -->
<g id="node5" class="node"><title>Node5</title>
<g id="a_node5"><a xlink:href="audio__system_8hpp.html" target="_top" xlink:title="Declaration of the AudioSystem class. ">
<polygon fill="white" stroke="black" points="724.5,-392.5 724.5,-411.5 875.5,-411.5 875.5,-392.5 724.5,-392.5"/>
<text text-anchor="middle" x="800" y="-399.5" font-family="Helvetica,sans-Serif" font-size="10.00">src/audio/audio_system.hpp</text>
</a>
</g>
</g>
<!-- Node1&#45;&gt;Node5 -->
<g id="edge4" class="edge"><title>Node1&#45;&gt;Node5</title>
<path fill="none" stroke="midnightblue" d="M642.648,-445.699C680.206,-435.507 734.614,-420.743 768.615,-411.516"/>
<polygon fill="midnightblue" stroke="midnightblue" points="641.267,-442.447 632.532,-448.444 643.1,-449.202 641.267,-442.447"/>
</g>
<!-- Node5&#45;&gt;Node4 -->
<g id="edge5" class="edge"><title>Node5&#45;&gt;Node4</title>
<path fill="none" stroke="midnightblue" d="M758.352,-389.699C720.794,-379.507 666.386,-364.743 632.385,-355.516"/>
<polygon fill="midnightblue" stroke="midnightblue" points="757.9,-393.202 768.468,-392.444 759.733,-386.447 757.9,-393.202"/>
</g>
<!-- Node6 -->
<g id="node6" class="node"><title>Node6</title>
<g id="a_node6"><a xlink:href="player__file_8hpp.html" target="_top" xlink:title="Declaration of the PlayerFile class, and associated types. ">
<polygon fill="white" stroke="black" points="732.5,-336.5 732.5,-355.5 867.5,-355.5 867.5,-336.5 732.5,-336.5"/>
<text text-anchor="middle" x="800" y="-343.5" font-family="Helvetica,sans-Serif" font-size="10.00">src/player/player_file.hpp</text>
</a>
</g>
</g>
<!-- Node5&#45;&gt;Node6 -->
<g id="edge6" class="edge"><title>Node5&#45;&gt;Node6</title>
<path fill="none" stroke="midnightblue" d="M800,-381.805C800,-372.91 800,-362.78 800,-355.751"/>
<polygon fill="midnightblue" stroke="midnightblue" points="796.5,-382.083 800,-392.083 803.5,-382.083 796.5,-382.083"/>
</g>
<!-- Node12 -->
<g id="node12" class="node"><title>Node12</title>
<g id="a_node12"><a xlink:href="main_8cpp.html" target="_top" xlink:title="Main entry point and implementation of the playd class. ">
<polygon fill="white" stroke="black" points="438,-0.5 438,-19.5 516,-19.5 516,-0.5 438,-0.5"/>
<text text-anchor="middle" x="477" y="-7.5" font-family="Helvetica,sans-Serif" font-size="10.00">src/main.cpp</text>
</a>
</g>
</g>
<!-- Node5&#45;&gt;Node12 -->
<g id="edge31" class="edge"><title>Node5&#45;&gt;Node12</title>
<path fill="none" stroke="midnightblue" d="M886.007,-391.424C943.742,-383.76 1013.7,-371.701 1039,-356 1069.74,-336.922 1088,-327.178 1088,-291 1088,-291 1088,-291 1088,-121 1088,-62.6631 651.004,-24.3241 516.15,-13.8818"/>
<polygon fill="midnightblue" stroke="midnightblue" points="885.217,-387.997 875.752,-392.757 886.119,-394.939 885.217,-387.997"/>
</g>
<!-- Node13 -->
<g id="node13" class="node"><title>Node13</title>
<g id="a_node13"><a xlink:href="main_8hpp.html" target="_top" xlink:title="Declaration of the playd class. ">
<polygon fill="white" stroke="black" points="437.5,-56.5 437.5,-75.5 516.5,-75.5 516.5,-56.5 437.5,-56.5"/>
<text text-anchor="middle" x="477" y="-63.5" font-family="Helvetica,sans-Serif" font-size="10.00">src/main.hpp</text>
</a>
</g>
</g>
<!-- Node5&#45;&gt;Node13 -->
<g id="edge32" class="edge"><title>Node5&#45;&gt;Node13</title>
<path fill="none" stroke="midnightblue" d="M885.756,-397.497C958.115,-389.384 1050,-364.593 1050,-291 1050,-291 1050,-291 1050,-177 1050,-122.617 646.781,-82.0674 516.837,-70.4117"/>
<polygon fill="midnightblue" stroke="midnightblue" points="885.275,-394.028 875.687,-398.534 885.993,-400.991 885.275,-394.028"/>
</g>
<!-- Node16 -->
<g id="node16" class="node"><title>Node16</title>
<g id="a_node16"><a xlink:href="player_8cpp.html" target="_top" xlink:title="Main implementation file for the Player class. ">
<polygon fill="white" stroke="black" points="906.5,-224.5 906.5,-243.5 1021.5,-243.5 1021.5,-224.5 906.5,-224.5"/>
<text text-anchor="middle" x="964" y="-231.5" font-family="Helvetica,sans-Serif" font-size="10.00">src/player/player.cpp</text>
</a>
</g>
</g>
<!-- Node5&#45;&gt;Node16 -->
<g id="edge33" class="edge"><title>Node5&#45;&gt;Node16</title>
<path fill="none" stroke="midnightblue" d="M828.589,-387.949C843.975,-380.066 862.678,-369.029 877,-356 916.043,-320.482 948.107,-264.735 959.522,-243.553"/>
<polygon fill="midnightblue" stroke="midnightblue" points="826.92,-384.87 819.506,-392.439 830.022,-391.145 826.92,-384.87"/>
</g>
<!-- Node19 -->
<g id="node19" class="node"><title>Node19</title>
<g id="a_node19"><a xlink:href="player__file_8cpp.html" target="_top" xlink:title="Implementation of the PlayerFile class, and associated types. ">
<polygon fill="white" stroke="black" points="567,-280.5 567,-299.5 701,-299.5 701,-280.5 567,-280.5"/>
<text text-anchor="middle" x="634" y="-287.5" font-family="Helvetica,sans-Serif" font-size="10.00">src/player/player_file.cpp</text>
</a>
</g>
</g>
<!-- Node5&#45;&gt;Node19 -->
<g id="edge34" class="edge"><title>Node5&#45;&gt;Node19</title>
<path fill="none" stroke="midnightblue" d="M775.868,-387.46C760.756,-378.799 740.994,-367.135 724,-356 694.82,-336.881 661.912,-312.304 645.134,-299.545"/>
<polygon fill="midnightblue" stroke="midnightblue" points="774.188,-390.531 784.611,-392.434 777.65,-384.447 774.188,-390.531"/>
</g>
<!-- Node7 -->
<g id="node7" class="node"><title>Node7</title>
<g id="a_node7"><a xlink:href="player_8hpp.html" target="_top" xlink:title="Declaration of the Player class, and associated types. ">
<polygon fill="white" stroke="black" points="719,-280.5 719,-299.5 835,-299.5 835,-280.5 719,-280.5"/>
<text text-anchor="middle" x="777" y="-287.5" font-family="Helvetica,sans-Serif" font-size="10.00">src/player/player.hpp</text>
</a>
</g>
</g>
<!-- Node6&#45;&gt;Node7 -->
<g id="edge7" class="edge"><title>Node6&#45;&gt;Node7</title>
<path fill="none" stroke="midnightblue" d="M792.201,-326.69C788.325,-317.589 783.821,-307.014 780.727,-299.751"/>
<polygon fill="midnightblue" stroke="midnightblue" points="789.063,-328.254 796.202,-336.083 795.503,-325.511 789.063,-328.254"/>
</g>
<!-- Node6&#45;&gt;Node19 -->
<g id="edge30" class="edge"><title>Node6&#45;&gt;Node19</title>
<path fill="none" stroke="midnightblue" d="M764.047,-333.304C732.768,-323.129 688.179,-308.625 660.18,-299.516"/>
<polygon fill="midnightblue" stroke="midnightblue" points="763.105,-336.678 773.697,-336.444 765.27,-330.022 763.105,-336.678"/>
</g>
<!-- Node8 -->
<g id="node8" class="node"><title>Node8</title>
<g id="a_node8"><a xlink:href="cmd_8hpp.html" target="_top" xlink:title="Declaration of the CommandHandler class. ">
<polygon fill="white" stroke="black" points="277,-224.5 277,-243.5 353,-243.5 353,-224.5 277,-224.5"/>
<text text-anchor="middle" x="315" y="-231.5" font-family="Helvetica,sans-Serif" font-size="10.00">src/cmd.hpp</text>
</a>
</g>
</g>
<!-- Node7&#45;&gt;Node8 -->
<g id="edge8" class="edge"><title>Node7&#45;&gt;Node8</title>
<path fill="none" stroke="midnightblue" d="M708.644,-279.853C571.634,-262.936 421.965,-246.519 353.161,-239.09"/>
<polygon fill="midnightblue" stroke="midnightblue" points="708.55,-283.368 718.905,-281.123 709.411,-276.421 708.55,-283.368"/>
</g>
<!-- Node10 -->
<g id="node10" class="node"><title>Node10</title>
<g id="a_node10"><a xlink:href="io__core_8cpp.html" target="_top" xlink:title="Implementation of the non&#45;virtual aspects of the IoCore class. ">
<polygon fill="white" stroke="black" points="0,-56.5 0,-75.5 100,-75.5 100,-56.5 0,-56.5"/>
<text text-anchor="middle" x="50" y="-63.5" font-family="Helvetica,sans-Serif" font-size="10.00">src/io/io_core.cpp</text>
</a>
</g>
</g>
<!-- Node7&#45;&gt;Node10 -->
<g id="edge23" class="edge"><title>Node7&#45;&gt;Node10</title>
<path fill="none" stroke="midnightblue" d="M708.944,-280.009C552.76,-265.472 183.293,-279.377 79,-188 45.5297,-158.675 47.1475,-98.1946 49.0563,-75.6883"/>
<polygon fill="midnightblue" stroke="midnightblue" points="708.619,-283.494 718.918,-281.009 709.317,-276.529 708.619,-283.494"/>
</g>
<!-- Node11 -->
<g id="node11" class="node"><title>Node11</title>
<g id="a_node11"><a xlink:href="io__core_8hpp.html" target="_top" xlink:title="Declaration of the IoCore class. ">
<polygon fill="white" stroke="black" points="238.5,-112.5 238.5,-131.5 339.5,-131.5 339.5,-112.5 238.5,-112.5"/>
<text text-anchor="middle" x="289" y="-119.5" font-family="Helvetica,sans-Serif" font-size="10.00">src/io/io_core.hpp</text>
</a>
</g>
</g>
<!-- Node7&#45;&gt;Node11 -->
<g id="edge24" class="edge"><title>Node7&#45;&gt;Node11</title>
<path fill="none" stroke="midnightblue" d="M708.731,-279.136C626.031,-267.084 496.393,-247.819 486,-244 408.39,-215.484 328.122,-154.511 299.728,-131.781"/>
<polygon fill="midnightblue" stroke="midnightblue" points="708.422,-282.628 718.822,-280.605 709.43,-275.701 708.422,-282.628"/>
</g>
<!-- Node7&#45;&gt;Node12 -->
<g id="edge25" class="edge"><title>Node7&#45;&gt;Node12</title>
<path fill="none" stroke="midnightblue" d="M813.537,-276.356C829.538,-269.14 847.295,-258.574 859,-244 877.846,-220.533 878,-209.098 878,-179 878,-179 878,-179 878,-121 878,-46.464 617.082,-20.6019 516.18,-13.3873"/>
<polygon fill="midnightblue" stroke="midnightblue" points="811.732,-273.318 803.871,-280.421 814.446,-279.77 811.732,-273.318"/>
</g>
<!-- Node7&#45;&gt;Node13 -->
<g id="edge26" class="edge"><title>Node7&#45;&gt;Node13</title>
<path fill="none" stroke="midnightblue" d="M708.773,-278.995C634.703,-267.85 525.946,-250.539 519,-244 469.56,-197.455 473.54,-104.246 476.082,-75.5843"/>
<polygon fill="midnightblue" stroke="midnightblue" points="708.572,-282.504 718.98,-280.525 709.609,-275.581 708.572,-282.504"/>
</g>
<!-- Node7&#45;&gt;Node16 -->
<g id="edge27" class="edge"><title>Node7&#45;&gt;Node16</title>
<path fill="none" stroke="midnightblue" d="M816.59,-277.568C851.866,-267.381 902.694,-252.703 934.508,-243.516"/>
<polygon fill="midnightblue" stroke="midnightblue" points="815.267,-274.307 806.631,-280.444 817.209,-281.032 815.267,-274.307"/>
</g>
<!-- Node17 -->
<g id="node17" class="node"><title>Node17</title>
<g id="a_node17"><a xlink:href="player__position_8cpp.html" target="_top" xlink:title="Implementation of the PlayerPosition class, and related Player methods. ">
<polygon fill="white" stroke="black" points="528,-224.5 528,-243.5 686,-243.5 686,-224.5 528,-224.5"/>
<text text-anchor="middle" x="607" y="-231.5" font-family="Helvetica,sans-Serif" font-size="10.00">src/player/player_position.cpp</text>
</a>
</g>
</g>
<!-- Node7&#45;&gt;Node17 -->
<g id="edge28" class="edge"><title>Node7&#45;&gt;Node17</title>
<path fill="none" stroke="midnightblue" d="M740.181,-277.304C708.148,-267.129 662.485,-252.625 633.811,-243.516"/>
<polygon fill="midnightblue" stroke="midnightblue" points="739.473,-280.752 750.063,-280.444 741.592,-274.08 739.473,-280.752"/>
</g>
<!-- Node18 -->
<g id="node18" class="node"><title>Node18</title>
<g id="a_node18"><a xlink:href="player__state_8cpp.html" target="_top" xlink:title="Implementation of the PlayerState class, and related Player methods. ">
<polygon fill="white" stroke="black" points="704,-224.5 704,-243.5 850,-243.5 850,-224.5 704,-224.5"/>
<text text-anchor="middle" x="777" y="-231.5" font-family="Helvetica,sans-Serif" font-size="10.00">src/player/player_state.cpp</text>
</a>
</g>
</g>
<!-- Node7&#45;&gt;Node18 -->
<g id="edge29" class="edge"><title>Node7&#45;&gt;Node18</title>
<path fill="none" stroke="midnightblue" d="M777,-269.805C777,-260.91 777,-250.78 777,-243.751"/>
<polygon fill="midnightblue" stroke="midnightblue" points="773.5,-270.083 777,-280.083 780.5,-270.083 773.5,-270.083"/>
</g>
<!-- Node9 -->
<g id="node9" class="node"><title>Node9</title>
<g id="a_node9"><a xlink:href="cmd_8cpp.html" target="_top" xlink:title="Implementation of the CommandHandler class. ">
<polygon fill="white" stroke="black" points="244.5,-168.5 244.5,-187.5 319.5,-187.5 319.5,-168.5 244.5,-168.5"/>
<text text-anchor="middle" x="282" y="-175.5" font-family="Helvetica,sans-Serif" font-size="10.00">src/cmd.cpp</text>
</a>
</g>
</g>
<!-- Node8&#45;&gt;Node9 -->
<g id="edge9" class="edge"><title>Node8&#45;&gt;Node9</title>
<path fill="none" stroke="midnightblue" d="M304.168,-215.275C298.528,-206.045 291.882,-195.17 287.348,-187.751"/>
<polygon fill="midnightblue" stroke="midnightblue" points="301.35,-217.375 309.551,-224.083 307.323,-213.725 301.35,-217.375"/>
</g>
<!-- Node8&#45;&gt;Node10 -->
<g id="edge10" class="edge"><title>Node8&#45;&gt;Node10</title>
<path fill="none" stroke="midnightblue" d="M266.635,-228.233C210.965,-221.853 123.981,-208.859 99,-188 63.1623,-158.076 53.2723,-97.9609 50.7762,-75.6198"/>
<polygon fill="midnightblue" stroke="midnightblue" points="266.318,-231.72 276.644,-229.348 267.093,-224.763 266.318,-231.72"/>
</g>
<!-- Node8&#45;&gt;Node11 -->
<g id="edge11" class="edge"><title>Node8&#45;&gt;Node11</title>
<path fill="none" stroke="midnightblue" d="M323.832,-214.928C329.085,-201.644 333.713,-183.314 328,-168 322.436,-153.083 309.453,-139.829 299.99,-131.635"/>
<polygon fill="midnightblue" stroke="midnightblue" points="320.511,-213.785 319.671,-224.347 326.914,-216.614 320.511,-213.785"/>
</g>
<!-- Node8&#45;&gt;Node12 -->
<g id="edge21" class="edge"><title>Node8&#45;&gt;Node12</title>
<path fill="none" stroke="midnightblue" d="M326.081,-215.857C331.495,-207.466 338.1,-197.212 344,-188 381.501,-129.441 383.345,-109.305 428,-56 439.719,-42.011 455.637,-28.1482 466.108,-19.5846"/>
<polygon fill="midnightblue" stroke="midnightblue" points="323.059,-214.083 320.574,-224.383 328.94,-217.881 323.059,-214.083"/>
</g>
<!-- Node8&#45;&gt;Node13 -->
<g id="edge22" class="edge"><title>Node8&#45;&gt;Node13</title>
<path fill="none" stroke="midnightblue" d="M348.164,-220.286C365.011,-212.694 385.027,-201.823 400,-188 437.322,-153.544 464.058,-97.1661 473.379,-75.6842"/>
<polygon fill="midnightblue" stroke="midnightblue" points="346.472,-217.203 338.673,-224.374 349.242,-223.632 346.472,-217.203"/>
</g>
<!-- Node14 -->
<g id="node14" class="node"><title>Node14</title>
<g id="a_node14"><a xlink:href="tokeniser_8hpp.html" target="_top" xlink:title="Declaration of the Tokeniser class. ">
<polygon fill="white" stroke="black" points="116,-168.5 116,-187.5 226,-187.5 226,-168.5 116,-168.5"/>
<text text-anchor="middle" x="171" y="-175.5" font-family="Helvetica,sans-Serif" font-size="10.00">src/io/tokeniser.hpp</text>
</a>
</g>
</g>
<!-- Node8&#45;&gt;Node14 -->
<g id="edge17" class="edge"><title>Node8&#45;&gt;Node14</title>
<path fill="none" stroke="midnightblue" d="M282.749,-220.906C255.676,-210.754 217.683,-196.506 193.71,-187.516"/>
<polygon fill="midnightblue" stroke="midnightblue" points="281.591,-224.209 292.183,-224.444 284.048,-217.655 281.591,-224.209"/>
</g>
<!-- Node15 -->
<g id="node15" class="node"><title>Node15</title>
<g id="a_node15"><a xlink:href="tokeniser_8cpp.html" target="_top" xlink:title="Definition of the Tokeniser class. ">
<polygon fill="white" stroke="black" points="95.5,-112.5 95.5,-131.5 204.5,-131.5 204.5,-112.5 95.5,-112.5"/>
<text text-anchor="middle" x="150" y="-119.5" font-family="Helvetica,sans-Serif" font-size="10.00">src/io/tokeniser.cpp</text>
</a>
</g>
</g>
<!-- Node8&#45;&gt;Node15 -->
<g id="edge20" class="edge"><title>Node8&#45;&gt;Node15</title>
<path fill="none" stroke="midnightblue" d="M266.61,-229.412C211.543,-224.206 126.67,-212.38 107,-188 91.6223,-168.94 119.485,-144.339 137.131,-131.56"/>
<polygon fill="midnightblue" stroke="midnightblue" points="266.585,-232.924 276.86,-230.338 267.215,-225.953 266.585,-232.924"/>
</g>
<!-- Node11&#45;&gt;Node10 -->
<g id="edge12" class="edge"><title>Node11&#45;&gt;Node10</title>
<path fill="none" stroke="midnightblue" d="M241.276,-110.217C196.115,-100.013 129.227,-84.9006 87.6931,-75.5164"/>
<polygon fill="midnightblue" stroke="midnightblue" points="240.604,-113.654 251.13,-112.444 242.147,-106.826 240.604,-113.654"/>
</g>
<!-- Node11&#45;&gt;Node11 -->
<g id="edge13" class="edge"><title>Node11&#45;&gt;Node11</title>
<path fill="none" stroke="midnightblue" d="M328.318,-132.432C344.173,-133.04 357.5,-129.563 357.5,-122 357.5,-112.867 338.066,-109.692 318.215,-112.475"/>
<polygon fill="midnightblue" stroke="midnightblue" points="328.488,-128.933 318.215,-131.525 327.862,-135.905 328.488,-128.933"/>
</g>
<!-- Node11&#45;&gt;Node12 -->
<g id="edge14" class="edge"><title>Node11&#45;&gt;Node12</title>
<path fill="none" stroke="midnightblue" d="M306.17,-105.376C322.317,-91.23 347.592,-70.4532 372,-56 397.939,-40.64 430.092,-27.6558 451.935,-19.641"/>
<polygon fill="midnightblue" stroke="midnightblue" points="303.756,-102.839 298.611,-112.101 308.409,-108.069 303.756,-102.839"/>
</g>
<!-- Node11&#45;&gt;Node13 -->
<g id="edge15" class="edge"><title>Node11&#45;&gt;Node13</title>
<path fill="none" stroke="midnightblue" d="M328.801,-109.568C364.266,-99.381 415.366,-84.7034 447.35,-75.5164"/>
<polygon fill="midnightblue" stroke="midnightblue" points="327.434,-106.319 318.789,-112.444 329.367,-113.047 327.434,-106.319"/>
</g>
<!-- Node13&#45;&gt;Node12 -->
<g id="edge16" class="edge"><title>Node13&#45;&gt;Node12</title>
<path fill="none" stroke="midnightblue" d="M477,-45.8045C477,-36.9102 477,-26.7798 477,-19.7511"/>
<polygon fill="midnightblue" stroke="midnightblue" points="473.5,-46.083 477,-56.083 480.5,-46.083 473.5,-46.083"/>
</g>
<!-- Node14&#45;&gt;Node11 -->
<g id="edge18" class="edge"><title>Node14&#45;&gt;Node11</title>
<path fill="none" stroke="midnightblue" d="M198.9,-164.232C220.973,-154.131 251.176,-140.309 270.39,-131.516"/>
<polygon fill="midnightblue" stroke="midnightblue" points="197.334,-161.1 189.697,-168.444 200.247,-167.465 197.334,-161.1"/>
</g>
<!-- Node14&#45;&gt;Node15 -->
<g id="edge19" class="edge"><title>Node14&#45;&gt;Node15</title>
<path fill="none" stroke="midnightblue" d="M163.879,-158.69C160.34,-149.589 156.228,-139.014 153.403,-131.751"/>
<polygon fill="midnightblue" stroke="midnightblue" points="160.646,-160.032 167.532,-168.083 167.17,-157.494 160.646,-160.032"/>
</g>
</g>
</svg>
