<?xml version="1.0" encoding="UTF-8" standalone="no"?>
<!DOCTYPE svg PUBLIC "-//W3C//DTD SVG 1.1//EN"
 "http://www.w3.org/Graphics/SVG/1.1/DTD/svg11.dtd">
<!-- Generated by graphviz version 2.38.0 (20140413.2041)
 -->
<!-- Title: src/audio/audio_system.hpp Pages: 1 -->
<svg width="936pt" height="420pt"
 viewBox="0.00 0.00 936.00 420.00" xmlns="http://www.w3.org/2000/svg" xmlns:xlink="http://www.w3.org/1999/xlink">
<g id="graph0" class="graph" transform="scale(1 1) rotate(0) translate(4 416)">
<title>src/audio/audio_system.hpp</title>
<polygon fill="white" stroke="none" points="-4,4 -4,-416 932,-416 932,4 -4,4"/>
<!-- Node1 -->
<g id="node1" class="node"><title>Node1</title>
<polygon fill="#bfbfbf" stroke="black" points="613.5,-392.5 613.5,-411.5 760.5,-411.5 760.5,-392.5 613.5,-392.5"/>
<text text-anchor="middle" x="687" y="-399.5" font-family="Helvetica,sans-Serif" font-size="10.00">src/audio/audio_system.hpp</text>
</g>
<!-- Node2 -->
<g id="node2" class="node"><title>Node2</title>
<g id="a_node2"><a xlink:href="audio__system_8cpp.html" target="_top" xlink:title="Implementation of the AudioSystem class. ">
<polygon fill="white" stroke="black" points="0,-336.5 0,-355.5 146,-355.5 146,-336.5 0,-336.5"/>
<text text-anchor="middle" x="73" y="-343.5" font-family="Helvetica,sans-Serif" font-size="10.00">src/audio/audio_system.cpp</text>
</a>
</g>
</g>
<!-- Node1&#45;&gt;Node2 -->
<g id="edge1" class="edge"><title>Node1&#45;&gt;Node2</title>
<path fill="none" stroke="midnightblue" d="M603.086,-394.301C499.064,-385.889 316.377,-370.764 160,-356 155.465,-355.572 150.798,-355.12 146.092,-354.657"/>
<polygon fill="midnightblue" stroke="midnightblue" points="602.962,-397.802 613.212,-395.118 603.526,-390.825 602.962,-397.802"/>
</g>
<!-- Node3 -->
<g id="node3" class="node"><title>Node3</title>
<g id="a_node3"><a xlink:href="player__file_8hpp.html" target="_top" xlink:title="Declaration of the PlayerFile class, and associated types. ">
<polygon fill="white" stroke="black" points="571.5,-336.5 571.5,-355.5 706.5,-355.5 706.5,-336.5 571.5,-336.5"/>
<text text-anchor="middle" x="639" y="-343.5" font-family="Helvetica,sans-Serif" font-size="10.00">src/player/player_file.hpp</text>
</a>
</g>
</g>
<!-- Node1&#45;&gt;Node3 -->
<g id="edge2" class="edge"><title>Node1&#45;&gt;Node3</title>
<path fill="none" stroke="midnightblue" d="M672.272,-384.431C663.86,-374.967 653.651,-363.483 646.779,-355.751"/>
<polygon fill="midnightblue" stroke="midnightblue" points="669.814,-386.934 679.074,-392.083 675.046,-382.284 669.814,-386.934"/>
</g>
<!-- Node10 -->
<g id="node10" class="node"><title>Node10</title>
<g id="a_node10"><a xlink:href="main_8cpp.html" target="_top" xlink:title="Main entry point and implementation of the playd class. ">
<polygon fill="white" stroke="black" points="531,-0.5 531,-19.5 607,-19.5 607,-0.5 531,-0.5"/>
<text text-anchor="middle" x="569" y="-7.5" font-family="Helvetica,sans-Serif" font-size="10.00">src/main.cpp</text>
</a>
</g>
</g>
<!-- Node1&#45;&gt;Node10 -->
<g id="edge26" class="edge"><title>Node1&#45;&gt;Node10</title>
<path fill="none" stroke="midnightblue" d="M770.74,-396.331C840.327,-387.382 928,-362.015 928,-291 928,-291 928,-291 928,-121 928,-54.4283 699.472,-24.0629 607.079,-14.5066"/>
<polygon fill="midnightblue" stroke="midnightblue" points="770.134,-392.878 760.617,-397.536 770.961,-399.829 770.134,-392.878"/>
</g>
<!-- Node11 -->
<g id="node11" class="node"><title>Node11</title>
<g id="a_node11"><a xlink:href="main_8hpp.html" target="_top" xlink:title="Declaration of the playd class. ">
<polygon fill="white" stroke="black" points="182.5,-56.5 182.5,-75.5 259.5,-75.5 259.5,-56.5 182.5,-56.5"/>
<text text-anchor="middle" x="221" y="-63.5" font-family="Helvetica,sans-Serif" font-size="10.00">src/main.hpp</text>
</a>
</g>
</g>
<!-- Node1&#45;&gt;Node11 -->
<g id="edge27" class="edge"><title>Node1&#45;&gt;Node11</title>
<path fill="none" stroke="midnightblue" d="M603.275,-400.117C457.862,-396.295 174,-377.728 174,-291 174,-291 174,-291 174,-177 174,-136.296 201.551,-93.44 214.465,-75.5872"/>
<polygon fill="midnightblue" stroke="midnightblue" points="603.417,-403.621 613.5,-400.367 603.588,-396.623 603.417,-403.621"/>
</g>
<!-- Node13 -->
<g id="node13" class="node"><title>Node13</title>
<g id="a_node13"><a xlink:href="player_8cpp.html" target="_top" xlink:title="Main implementation file for the Player class. ">
<polygon fill="white" stroke="black" points="784.5,-224.5 784.5,-243.5 899.5,-243.5 899.5,-224.5 784.5,-224.5"/>
<text text-anchor="middle" x="842" y="-231.5" font-family="Helvetica,sans-Serif" font-size="10.00">src/player/player.cpp</text>
</a>
</g>
</g>
<!-- Node1&#45;&gt;Node13 -->
<g id="edge28" class="edge"><title>Node1&#45;&gt;Node13</title>
<path fill="none" stroke="midnightblue" d="M710.151,-386.737C737.216,-369.117 781.992,-336.906 811,-300 825.061,-282.11 834.798,-256.804 839.251,-243.669"/>
<polygon fill="midnightblue" stroke="midnightblue" points="707.915,-384.012 701.371,-392.345 711.683,-389.911 707.915,-384.012"/>
</g>
<!-- Node16 -->
<g id="node16" class="node"><title>Node16</title>
<g id="a_node16"><a xlink:href="player__file_8cpp.html" target="_top" xlink:title="Implementation of the PlayerFile class, and associated types. ">
<polygon fill="white" stroke="black" points="668,-280.5 668,-299.5 802,-299.5 802,-280.5 668,-280.5"/>
<text text-anchor="middle" x="735" y="-287.5" font-family="Helvetica,sans-Serif" font-size="10.00">src/player/player_file.cpp</text>
</a>
</g>
</g>
<!-- Node1&#45;&gt;Node16 -->
<g id="edge29" class="edge"><title>Node1&#45;&gt;Node16</title>
<path fill="none" stroke="midnightblue" d="M699.478,-384.197C705.119,-376.01 711.511,-365.828 716,-356 724.792,-336.75 730.613,-312.435 733.295,-299.695"/>
<polygon fill="midnightblue" stroke="midnightblue" points="696.534,-382.297 693.569,-392.468 702.23,-386.366 696.534,-382.297"/>
</g>
<!-- Node4 -->
<g id="node4" class="node"><title>Node4</title>
<g id="a_node4"><a xlink:href="player_8hpp.html" target="_top" xlink:title="Declaration of the Player class, and associated types. ">
<polygon fill="white" stroke="black" points="534,-280.5 534,-299.5 650,-299.5 650,-280.5 534,-280.5"/>
<text text-anchor="middle" x="592" y="-287.5" font-family="Helvetica,sans-Serif" font-size="10.00">src/player/player.hpp</text>
</a>
</g>
</g>
<!-- Node3&#45;&gt;Node4 -->
<g id="edge3" class="edge"><title>Node3&#45;&gt;Node4</title>
<path fill="none" stroke="midnightblue" d="M624.579,-328.431C616.342,-318.967 606.346,-307.483 599.617,-299.751"/>
<polygon fill="midnightblue" stroke="midnightblue" points="622.034,-330.838 631.239,-336.083 627.314,-326.242 622.034,-330.838"/>
</g>
<!-- Node3&#45;&gt;Node16 -->
<g id="edge25" class="edge"><title>Node3&#45;&gt;Node16</title>
<path fill="none" stroke="midnightblue" d="M663.574,-331.177C681.239,-321.241 704.513,-308.149 719.614,-299.655"/>
<polygon fill="midnightblue" stroke="midnightblue" points="661.424,-328.371 654.424,-336.324 664.856,-334.472 661.424,-328.371"/>
</g>
<!-- Node5 -->
<g id="node5" class="node"><title>Node5</title>
<g id="a_node5"><a xlink:href="cmd_8hpp.html" target="_top" xlink:title="Declaration of the CommandHandler class. ">
<polygon fill="white" stroke="black" points="240,-224.5 240,-243.5 314,-243.5 314,-224.5 240,-224.5"/>
<text text-anchor="middle" x="277" y="-231.5" font-family="Helvetica,sans-Serif" font-size="10.00">src/cmd.hpp</text>
</a>
</g>
</g>
<!-- Node4&#45;&gt;Node5 -->
<g id="edge4" class="edge"><title>Node4&#45;&gt;Node5</title>
<path fill="none" stroke="midnightblue" d="M528.46,-278.875C473.897,-270.06 393.176,-256.732 323,-244 320.118,-243.477 317.136,-242.923 314.141,-242.357"/>
<polygon fill="midnightblue" stroke="midnightblue" points="527.905,-282.331 538.335,-280.467 529.019,-275.42 527.905,-282.331"/>
</g>
<!-- Node7 -->
<g id="node7" class="node"><title>Node7</title>
<g id="a_node7"><a xlink:href="io__reactor_8cpp.html" target="_top" xlink:title="Implementation of the non&#45;virtual aspects of the IoReactor class. ">
<polygon fill="white" stroke="black" points="614.5,-56.5 614.5,-75.5 727.5,-75.5 727.5,-56.5 614.5,-56.5"/>
<text text-anchor="middle" x="671" y="-63.5" font-family="Helvetica,sans-Serif" font-size="10.00">src/io/io_reactor.cpp</text>
</a>
</g>
</g>
<!-- Node4&#45;&gt;Node7 -->
<g id="edge18" class="edge"><title>Node4&#45;&gt;Node7</title>
<path fill="none" stroke="midnightblue" d="M634.712,-276.575C650.541,-269.668 666.851,-259.281 676,-244 709.637,-187.821 683.838,-102.594 674.223,-75.5487"/>
<polygon fill="midnightblue" stroke="midnightblue" points="632.988,-273.493 624.986,-280.438 635.572,-279.999 632.988,-273.493"/>
</g>
<!-- Node9 -->
<g id="node9" class="node"><title>Node9</title>
<g id="a_node9"><a xlink:href="io__reactor_8hpp.html" target="_top" xlink:title="Declaration of the IoReactor class. ">
<polygon fill="white" stroke="black" points="512.5,-112.5 512.5,-131.5 625.5,-131.5 625.5,-112.5 512.5,-112.5"/>
<text text-anchor="middle" x="569" y="-119.5" font-family="Helvetica,sans-Serif" font-size="10.00">src/io/io_reactor.hpp</text>
</a>
</g>
</g>
<!-- Node4&#45;&gt;Node9 -->
<g id="edge19" class="edge"><title>Node4&#45;&gt;Node9</title>
<path fill="none" stroke="midnightblue" d="M625.06,-276.008C638.766,-268.781 653.251,-258.304 661,-244 665.234,-236.184 664.209,-232.289 661,-224 644.814,-182.196 602.382,-147.067 581.281,-131.543"/>
<polygon fill="midnightblue" stroke="midnightblue" points="623.262,-272.99 615.788,-280.499 626.314,-279.29 623.262,-272.99"/>
</g>
<!-- Node4&#45;&gt;Node10 -->
<g id="edge21" class="edge"><title>Node4&#45;&gt;Node10</title>
<path fill="none" stroke="midnightblue" d="M642.649,-277.702C690.826,-263.613 756,-234.328 756,-179 756,-179 756,-179 756,-121 756,-90.9022 758.522,-77.0397 737,-56 702.345,-22.1223 645.109,-13.0359 607.227,-10.9712"/>
<polygon fill="midnightblue" stroke="midnightblue" points="641.655,-274.346 632.961,-280.401 643.534,-281.089 641.655,-274.346"/>
</g>
<!-- Node4&#45;&gt;Node11 -->
<g id="edge20" class="edge"><title>Node4&#45;&gt;Node11</title>
<path fill="none" stroke="midnightblue" d="M523.564,-285.137C424.452,-278.854 250.602,-264.974 231,-244 186.026,-195.879 209.255,-104.524 218.088,-75.8437"/>
<polygon fill="midnightblue" stroke="midnightblue" points="523.597,-288.646 533.795,-285.776 524.033,-281.66 523.597,-288.646"/>
</g>
<!-- Node4&#45;&gt;Node13 -->
<g id="edge22" class="edge"><title>Node4&#45;&gt;Node13</title>
<path fill="none" stroke="midnightblue" d="M641.623,-278.281C688.866,-268.077 759.036,-252.92 802.572,-243.516"/>
<polygon fill="midnightblue" stroke="midnightblue" points="640.649,-274.911 631.613,-280.444 642.127,-281.753 640.649,-274.911"/>
</g>
<!-- Node14 -->
<g id="node14" class="node"><title>Node14</title>
<g id="a_node14"><a xlink:href="player__position_8cpp.html" target="_top" xlink:title="Implementation of the PlayerPosition class, and related Player methods. ">
<polygon fill="white" stroke="black" points="332,-224.5 332,-243.5 490,-243.5 490,-224.5 332,-224.5"/>
<text text-anchor="middle" x="411" y="-231.5" font-family="Helvetica,sans-Serif" font-size="10.00">src/player/player_position.cpp</text>
</a>
</g>
</g>
<!-- Node4&#45;&gt;Node14 -->
<g id="edge23" class="edge"><title>Node4&#45;&gt;Node14</title>
<path fill="none" stroke="midnightblue" d="M553.681,-277.568C519.536,-267.381 470.339,-252.703 439.546,-243.516"/>
<polygon fill="midnightblue" stroke="midnightblue" points="552.737,-280.938 563.32,-280.444 554.738,-274.231 552.737,-280.938"/>
</g>
<!-- Node15 -->
<g id="node15" class="node"><title>Node15</title>
<g id="a_node15"><a xlink:href="player__state_8cpp.html" target="_top" xlink:title="Implementation of the PlayerState class, and related Player methods. ">
<polygon fill="white" stroke="black" points="508,-224.5 508,-243.5 652,-243.5 652,-224.5 508,-224.5"/>
<text text-anchor="middle" x="580" y="-231.5" font-family="Helvetica,sans-Serif" font-size="10.00">src/player/player_state.cpp</text>
</a>
</g>
</g>
<!-- Node4&#45;&gt;Node15 -->
<g id="edge24" class="edge"><title>Node4&#45;&gt;Node15</title>
<path fill="none" stroke="midnightblue" d="M587.8,-270.101C585.808,-261.136 583.524,-250.858 581.945,-243.751"/>
<polygon fill="midnightblue" stroke="midnightblue" points="584.432,-271.08 590.018,-280.083 591.266,-269.562 584.432,-271.08"/>
</g>
<!-- Node6 -->
<g id="node6" class="node"><title>Node6</title>
<g id="a_node6"><a xlink:href="cmd_8cpp.html" target="_top" xlink:title="Implementation of the CommandHandler class. ">
<polygon fill="white" stroke="black" points="316.5,-168.5 316.5,-187.5 389.5,-187.5 389.5,-168.5 316.5,-168.5"/>
<text text-anchor="middle" x="353" y="-175.5" font-family="Helvetica,sans-Serif" font-size="10.00">src/cmd.cpp</text>
</a>
</g>
</g>
<!-- Node5&#45;&gt;Node6 -->
<g id="edge5" class="edge"><title>Node5&#45;&gt;Node6</title>
<path fill="none" stroke="midnightblue" d="M297.576,-218.38C311.312,-208.62 328.925,-196.106 340.567,-187.834"/>
<polygon fill="midnightblue" stroke="midnightblue" points="295.335,-215.679 289.211,-224.324 299.39,-221.385 295.335,-215.679"/>
</g>
<!-- Node5&#45;&gt;Node7 -->
<g id="edge6" class="edge"><title>Node5&#45;&gt;Node7</title>
<path fill="none" stroke="midnightblue" d="M324.118,-223.926C432.154,-206.705 466.109,-224.907 565,-188 608.433,-171.79 625.422,-169.264 653,-132 665.677,-114.87 669.427,-89.2435 670.535,-75.8596"/>
<polygon fill="midnightblue" stroke="midnightblue" points="323.422,-220.494 314.13,-225.585 324.569,-227.399 323.422,-220.494"/>
</g>
<!-- Node8 -->
<g id="node8" class="node"><title>Node8</title>
<g id="a_node8"><a xlink:href="tokeniser_8hpp.html" target="_top" xlink:title="Declaration of the Tokeniser class. ">
<polygon fill="white" stroke="black" points="446.5,-168.5 446.5,-187.5 555.5,-187.5 555.5,-168.5 446.5,-168.5"/>
<text text-anchor="middle" x="501" y="-175.5" font-family="Helvetica,sans-Serif" font-size="10.00">src/io/tokeniser.hpp</text>
</a>
</g>
</g>
<!-- Node5&#45;&gt;Node8 -->
<g id="edge7" class="edge"><title>Node5&#45;&gt;Node8</title>
<path fill="none" stroke="midnightblue" d="M322.263,-222.088C364.582,-211.887 426.909,-196.861 465.673,-187.516"/>
<polygon fill="midnightblue" stroke="midnightblue" points="321.395,-218.697 312.493,-224.444 323.035,-225.502 321.395,-218.697"/>
</g>
<!-- Node5&#45;&gt;Node10 -->
<g id="edge16" class="edge"><title>Node5&#45;&gt;Node10</title>
<path fill="none" stroke="midnightblue" d="M283.579,-214.459C288.834,-200.941 296.969,-182.525 307,-168 326.824,-139.295 333.692,-132.388 362,-112 422.677,-68.299 505.161,-34.5504 545.217,-19.5325"/>
<polygon fill="midnightblue" stroke="midnightblue" points="280.205,-213.49 280.001,-224.082 286.767,-215.929 280.205,-213.49"/>
</g>
<!-- Node5&#45;&gt;Node11 -->
<g id="edge17" class="edge"><title>Node5&#45;&gt;Node11</title>
<path fill="none" stroke="midnightblue" d="M270.724,-214.395C258.643,-178.585 232.585,-101.342 223.89,-75.5681"/>
<polygon fill="midnightblue" stroke="midnightblue" points="267.476,-215.719 273.989,-224.075 274.109,-213.481 267.476,-215.719"/>
</g>
<!-- Node12 -->
<g id="node12" class="node"><title>Node12</title>
<g id="a_node12"><a xlink:href="tokeniser_8cpp.html" target="_top" xlink:title="Definition of the Tokeniser class. ">
<polygon fill="white" stroke="black" points="371,-112.5 371,-131.5 479,-131.5 479,-112.5 371,-112.5"/>
<text text-anchor="middle" x="425" y="-119.5" font-family="Helvetica,sans-Serif" font-size="10.00">src/io/tokeniser.cpp</text>
</a>
</g>
</g>
<!-- Node5&#45;&gt;Node12 -->
<g id="edge15" class="edge"><title>Node5&#45;&gt;Node12</title>
<path fill="none" stroke="midnightblue" d="M318.297,-221.5C348.518,-212.389 386.215,-199.349 398,-188 414.195,-172.403 421.058,-145.648 423.637,-131.832"/>
<polygon fill="midnightblue" stroke="midnightblue" points="316.98,-218.24 308.383,-224.432 318.965,-224.953 316.98,-218.24"/>
</g>
<!-- Node8&#45;&gt;Node9 -->
<g id="edge8" class="edge"><title>Node8&#45;&gt;Node9</title>
<path fill="none" stroke="midnightblue" d="M519.762,-162.101C532,-152.382 547.559,-140.027 557.876,-131.834"/>
<polygon fill="midnightblue" stroke="midnightblue" points="517.58,-159.364 511.925,-168.324 521.933,-164.846 517.58,-159.364"/>
</g>
<!-- Node8&#45;&gt;Node12 -->
<g id="edge14" class="edge"><title>Node8&#45;&gt;Node12</title>
<path fill="none" stroke="midnightblue" d="M480.424,-162.38C466.688,-152.62 449.075,-140.106 437.433,-131.834"/>
<polygon fill="midnightblue" stroke="midnightblue" points="478.61,-165.385 488.789,-168.324 482.665,-159.679 478.61,-165.385"/>
</g>
<!-- Node9&#45;&gt;Node7 -->
<g id="edge9" class="edge"><title>Node9&#45;&gt;Node7</title>
<path fill="none" stroke="midnightblue" d="M594.331,-107.59C613.19,-97.6052 638.384,-84.2672 654.653,-75.6545"/>
<polygon fill="midnightblue" stroke="midnightblue" points="592.588,-104.552 585.388,-112.324 595.864,-110.738 592.588,-104.552"/>
</g>
<!-- Node9&#45;&gt;Node9 -->
<g id="edge10" class="edge"><title>Node9&#45;&gt;Node9</title>
<path fill="none" stroke="midnightblue" d="M610.782,-132.393C628.453,-133.17 643.5,-129.706 643.5,-122 643.5,-112.867 622.364,-109.692 600.774,-112.475"/>
<polygon fill="midnightblue" stroke="midnightblue" points="611.039,-128.902 600.774,-131.525 610.435,-135.876 611.039,-128.902"/>
</g>
<!-- Node9&#45;&gt;Node10 -->
<g id="edge11" class="edge"><title>Node9&#45;&gt;Node10</title>
<path fill="none" stroke="midnightblue" d="M569,-102.348C569,-78.2538 569,-37.3079 569,-19.5914"/>
<polygon fill="midnightblue" stroke="midnightblue" points="565.5,-102.368 569,-112.368 572.5,-102.369 565.5,-102.368"/>
</g>
<!-- Node9&#45;&gt;Node11 -->
<g id="edge12" class="edge"><title>Node9&#45;&gt;Node11</title>
<path fill="none" stroke="midnightblue" d="M503.565,-110.846C431.7,-99.6948 318.685,-82.158 259.721,-73.0084"/>
<polygon fill="midnightblue" stroke="midnightblue" points="503.44,-114.369 513.858,-112.444 504.513,-107.451 503.44,-114.369"/>
</g>
<!-- Node11&#45;&gt;Node10 -->
<g id="edge13" class="edge"><title>Node11&#45;&gt;Node10</title>
<path fill="none" stroke="midnightblue" d="M270.066,-56.638C271.391,-56.4219 272.704,-56.2088 274,-56 366.066,-41.1622 474.508,-24.9427 530.781,-16.6202"/>
<polygon fill="midnightblue" stroke="midnightblue" points="269.071,-53.255 259.775,-58.3382 270.212,-60.1613 269.071,-53.255"/>
</g>
</g>
</svg>
