<?xml version="1.0" encoding="UTF-8" standalone="no"?>
<!DOCTYPE svg PUBLIC "-//W3C//DTD SVG 1.1//EN"
 "http://www.w3.org/Graphics/SVG/1.1/DTD/svg11.dtd">
<!-- Generated by graphviz version 2.38.0 (20140413.2041)
 -->
<!-- Title: src/audio/audio_sink.hpp Pages: 1 -->
<!--zoomable 476 -->
<svg id="main" version="1.1" xmlns="http://www.w3.org/2000/svg" xmlns:xlink="http://www.w3.org/1999/xlink" xml:space="preserve" onload="init(evt)">
<style type="text/css"><![CDATA[
.edge:hover path { stroke: red; }
.edge:hover polygon { stroke: red; fill: red; }
]]></style>
<script type="text/javascript"><![CDATA[
var edges = document.getElementsByTagName('g');
if (edges && edges.length) {
  for (var i=0;i<edges.length;i++) {
    if (edges[i].id.substr(0,4)=='edge') {
      edges[i].setAttribute('class','edge');
    }
  }
}
]]></script>
        <defs>
                <circle id="rim" cx="0" cy="0" r="7"/>
                <circle id="rim2" cx="0" cy="0" r="3.5"/>
                <g id="zoomPlus">
                        <use xlink:href="#rim" fill="#404040">
                                <set attributeName="fill" to="#808080" begin="zoomplus.mouseover" end="zoomplus.mouseout"/>
                        </use>
                        <path d="M-4,0h8M0,-4v8" fill="none" stroke="white" stroke-width="1.5" pointer-events="none"/>
                </g>
                <g id="zoomMin">
                        <use xlink:href="#rim" fill="#404040">
                                <set attributeName="fill" to="#808080" begin="zoomminus.mouseover" end="zoomminus.mouseout"/>
                        </use>
                        <path d="M-4,0h8" fill="none" stroke="white" stroke-width="1.5" pointer-events="none"/>
                </g>
                <g id="dirArrow">
                        <path fill="none" stroke="white" stroke-width="1.5" d="M0,-3.0v7 M-2.5,-0.5L0,-3.0L2.5,-0.5"/>
                </g>
               <g id="resetDef">
                       <use xlink:href="#rim2" fill="#404040">
                               <set attributeName="fill" to="#808080" begin="reset.mouseover" end="reset.mouseout"/>
                       </use>
               </g>
        </defs>

<script type="text/javascript">
var viewWidth = 1144;
var viewHeight = 476;
var sectionId = 'dynsection-1';
</script>
<script xlink:href="svgpan.js"/>
<svg id="graph" class="graph">
<g id="viewport">
<title>src/audio/audio_sink.hpp</title>
<polygon fill="white" stroke="none" points="-4,4 -4,-472 1139.5,-472 1139.5,4 -4,4"/>
<!-- Node1 -->
<g id="node1" class="node"><title>Node1</title>
<polygon fill="#bfbfbf" stroke="black" points="172,-448.5 172,-467.5 305,-467.5 305,-448.5 172,-448.5"/>
<text text-anchor="middle" x="238.5" y="-455.5" font-family="Helvetica,sans-Serif" font-size="10.00">src/audio/audio_sink.hpp</text>
</g>
<!-- Node2 -->
<g id="node2" class="node"><title>Node2</title>
<g id="a_node2"><a xlink:href="audio_8cpp.html" target="_top" xlink:title="Implementation of the Audio class. ">
<polygon fill="white" stroke="black" points="0,-392.5 0,-411.5 107,-411.5 107,-392.5 0,-392.5"/>
<text text-anchor="middle" x="53.5" y="-399.5" font-family="Helvetica,sans-Serif" font-size="10.00">src/audio/audio.cpp</text>
</a>
</g>
</g>
<!-- Node1&#45;&gt;Node2 -->
<g id="edge1" class="edge"><title>Node1&#45;&gt;Node2</title>
<path fill="none" stroke="midnightblue" d="M199.334,-445.568C164.435,-435.381 114.151,-420.703 82.6767,-411.516"/>
<polygon fill="midnightblue" stroke="midnightblue" points="198.606,-449.001 209.186,-448.444 200.567,-442.282 198.606,-449.001"/>
</g>
<!-- Node3 -->
<g id="node3" class="node"><title>Node3</title>
<g id="a_node3"><a xlink:href="audio__sink_8cpp.html" target="_top" xlink:title="Implementation of the AudioSink class. ">
<polygon fill="white" stroke="black" points="125.5,-392.5 125.5,-411.5 257.5,-411.5 257.5,-392.5 125.5,-392.5"/>
<text text-anchor="middle" x="191.5" y="-399.5" font-family="Helvetica,sans-Serif" font-size="10.00">src/audio/audio_sink.cpp</text>
</a>
</g>
</g>
<!-- Node1&#45;&gt;Node3 -->
<g id="edge2" class="edge"><title>Node1&#45;&gt;Node3</title>
<path fill="none" stroke="midnightblue" d="M224.079,-440.431C215.842,-430.967 205.846,-419.483 199.117,-411.751"/>
<polygon fill="midnightblue" stroke="midnightblue" points="221.534,-442.838 230.739,-448.083 226.814,-438.242 221.534,-442.838"/>
</g>
<!-- Node4 -->
<g id="node4" class="node"><title>Node4</title>
<g id="a_node4"><a xlink:href="audio__system_8cpp.html" target="_top" xlink:title="Implementation of the AudioSystem class. ">
<polygon fill="white" stroke="black" points="169.5,-336.5 169.5,-355.5 315.5,-355.5 315.5,-336.5 169.5,-336.5"/>
<text text-anchor="middle" x="242.5" y="-343.5" font-family="Helvetica,sans-Serif" font-size="10.00">src/audio/audio_system.cpp</text>
</a>
</g>
</g>
<!-- Node1&#45;&gt;Node4 -->
<g id="edge3" class="edge"><title>Node1&#45;&gt;Node4</title>
<path fill="none" stroke="midnightblue" d="M252.01,-440.301C257.668,-432.253 263.598,-422.156 266.5,-412 272.382,-391.412 258.482,-368.029 249.465,-355.692"/>
<polygon fill="midnightblue" stroke="midnightblue" points="249.124,-438.315 245.912,-448.411 254.719,-442.521 249.124,-438.315"/>
</g>
<!-- Node5 -->
<g id="node5" class="node"><title>Node5</title>
<g id="a_node5"><a xlink:href="audio__system_8hpp.html" target="_top" xlink:title="Declaration of the AudioSystem class. ">
<polygon fill="white" stroke="black" points="361,-392.5 361,-411.5 508,-411.5 508,-392.5 361,-392.5"/>
<text text-anchor="middle" x="434.5" y="-399.5" font-family="Helvetica,sans-Serif" font-size="10.00">src/audio/audio_system.hpp</text>
</a>
</g>
</g>
<!-- Node1&#45;&gt;Node5 -->
<g id="edge4" class="edge"><title>Node1&#45;&gt;Node5</title>
<path fill="none" stroke="midnightblue" d="M279.52,-445.699C316.511,-435.507 370.1,-420.743 403.589,-411.516"/>
<polygon fill="midnightblue" stroke="midnightblue" points="278.268,-442.413 269.557,-448.444 280.127,-449.162 278.268,-442.413"/>
</g>
<!-- Node5&#45;&gt;Node4 -->
<g id="edge5" class="edge"><title>Node5&#45;&gt;Node4</title>
<path fill="none" stroke="midnightblue" d="M394.317,-389.699C358.081,-379.507 305.586,-364.743 272.781,-355.516"/>
<polygon fill="midnightblue" stroke="midnightblue" points="393.503,-393.105 404.077,-392.444 395.398,-386.367 393.503,-393.105"/>
</g>
<!-- Node6 -->
<g id="node6" class="node"><title>Node6</title>
<g id="a_node6"><a xlink:href="player__file_8hpp.html" target="_top" xlink:title="Declaration of the PlayerFile class, and associated types. ">
<polygon fill="white" stroke="black" points="409,-336.5 409,-355.5 544,-355.5 544,-336.5 409,-336.5"/>
<text text-anchor="middle" x="476.5" y="-343.5" font-family="Helvetica,sans-Serif" font-size="10.00">src/player/player_file.hpp</text>
</a>
</g>
</g>
<!-- Node5&#45;&gt;Node6 -->
<g id="edge6" class="edge"><title>Node5&#45;&gt;Node6</title>
<path fill="none" stroke="midnightblue" d="M447.61,-384.144C454.928,-374.736 463.741,-363.405 469.694,-355.751"/>
<polygon fill="midnightblue" stroke="midnightblue" points="444.812,-382.041 441.435,-392.083 450.338,-386.338 444.812,-382.041"/>
</g>
<!-- Node13 -->
<g id="node13" class="node"><title>Node13</title>
<g id="a_node13"><a xlink:href="main_8cpp.html" target="_top" xlink:title="Main entry point and implementation of the playd class. ">
<polygon fill="white" stroke="black" points="733.5,-0.5 733.5,-19.5 809.5,-19.5 809.5,-0.5 733.5,-0.5"/>
<text text-anchor="middle" x="771.5" y="-7.5" font-family="Helvetica,sans-Serif" font-size="10.00">src/main.cpp</text>
</a>
</g>
</g>
<!-- Node5&#45;&gt;Node13 -->
<g id="edge30" class="edge"><title>Node5&#45;&gt;Node13</title>
<path fill="none" stroke="midnightblue" d="M518.207,-396.489C704.191,-385.348 1135.5,-352.843 1135.5,-291 1135.5,-291 1135.5,-291 1135.5,-121 1135.5,-53.4976 903.222,-23.6469 809.766,-14.3685"/>
<polygon fill="midnightblue" stroke="midnightblue" points="517.97,-392.997 508.194,-397.083 518.384,-399.985 517.97,-392.997"/>
</g>
<!-- Node14 -->
<g id="node14" class="node"><title>Node14</title>
<g id="a_node14"><a xlink:href="main_8hpp.html" target="_top" xlink:title="Declaration of the playd class. ">
<polygon fill="white" stroke="black" points="381,-56.5 381,-75.5 458,-75.5 458,-56.5 381,-56.5"/>
<text text-anchor="middle" x="419.5" y="-63.5" font-family="Helvetica,sans-Serif" font-size="10.00">src/main.hpp</text>
</a>
</g>
</g>
<!-- Node5&#45;&gt;Node14 -->
<g id="edge31" class="edge"><title>Node5&#45;&gt;Node14</title>
<path fill="none" stroke="midnightblue" d="M411.349,-386.884C384.389,-368.47 343.5,-333.532 343.5,-291 343.5,-291 343.5,-291 343.5,-177 343.5,-132.201 386.696,-92.4292 407.957,-75.5672"/>
<polygon fill="midnightblue" stroke="midnightblue" points="409.599,-389.921 419.879,-392.482 413.44,-384.069 409.599,-389.921"/>
</g>
<!-- Node16 -->
<g id="node16" class="node"><title>Node16</title>
<g id="a_node16"><a xlink:href="player_8cpp.html" target="_top" xlink:title="Main implementation file for the Player class. ">
<polygon fill="white" stroke="black" points="992,-224.5 992,-243.5 1107,-243.5 1107,-224.5 992,-224.5"/>
<text text-anchor="middle" x="1049.5" y="-231.5" font-family="Helvetica,sans-Serif" font-size="10.00">src/player/player.cpp</text>
</a>
</g>
</g>
<!-- Node5&#45;&gt;Node16 -->
<g id="edge32" class="edge"><title>Node5&#45;&gt;Node16</title>
<path fill="none" stroke="midnightblue" d="M476.168,-389.753C591.888,-358.518 915.406,-271.195 1017.92,-243.524"/>
<polygon fill="midnightblue" stroke="midnightblue" points="475.012,-386.44 466.27,-392.425 476.837,-393.198 475.012,-386.44"/>
</g>
<!-- Node7 -->
<g id="node7" class="node"><title>Node7</title>
<g id="a_node7"><a xlink:href="player_8hpp.html" target="_top" xlink:title="Declaration of the Player class, and associated types. ">
<polygon fill="white" stroke="black" points="598.5,-280.5 598.5,-299.5 714.5,-299.5 714.5,-280.5 598.5,-280.5"/>
<text text-anchor="middle" x="656.5" y="-287.5" font-family="Helvetica,sans-Serif" font-size="10.00">src/player/player.hpp</text>
</a>
</g>
</g>
<!-- Node6&#45;&gt;Node7 -->
<g id="edge7" class="edge"><title>Node6&#45;&gt;Node7</title>
<path fill="none" stroke="midnightblue" d="M514.608,-333.568C548.563,-323.381 597.489,-308.703 628.112,-299.516"/>
<polygon fill="midnightblue" stroke="midnightblue" points="513.594,-330.218 505.022,-336.444 515.606,-336.922 513.594,-330.218"/>
</g>
<!-- Node19 -->
<g id="node19" class="node"><title>Node19</title>
<g id="a_node19"><a xlink:href="player__file_8cpp.html" target="_top" xlink:title="Implementation of the PlayerFile class, and associated types. ">
<polygon fill="white" stroke="black" points="409.5,-280.5 409.5,-299.5 543.5,-299.5 543.5,-280.5 409.5,-280.5"/>
<text text-anchor="middle" x="476.5" y="-287.5" font-family="Helvetica,sans-Serif" font-size="10.00">src/player/player_file.cpp</text>
</a>
</g>
</g>
<!-- Node6&#45;&gt;Node19 -->
<g id="edge29" class="edge"><title>Node6&#45;&gt;Node19</title>
<path fill="none" stroke="midnightblue" d="M476.5,-325.805C476.5,-316.91 476.5,-306.78 476.5,-299.751"/>
<polygon fill="midnightblue" stroke="midnightblue" points="473,-326.083 476.5,-336.083 480,-326.083 473,-326.083"/>
</g>
<!-- Node8 -->
<g id="node8" class="node"><title>Node8</title>
<g id="a_node8"><a xlink:href="cmd_8hpp.html" target="_top" xlink:title="Declaration of the CommandHandler class. ">
<polygon fill="white" stroke="black" points="447.5,-224.5 447.5,-243.5 521.5,-243.5 521.5,-224.5 447.5,-224.5"/>
<text text-anchor="middle" x="484.5" y="-231.5" font-family="Helvetica,sans-Serif" font-size="10.00">src/cmd.hpp</text>
</a>
</g>
</g>
<!-- Node7&#45;&gt;Node8 -->
<g id="edge8" class="edge"><title>Node7&#45;&gt;Node8</title>
<path fill="none" stroke="midnightblue" d="M619.668,-277.436C587.238,-267.255 540.763,-252.664 511.626,-243.516"/>
<polygon fill="midnightblue" stroke="midnightblue" points="618.657,-280.787 629.246,-280.444 620.754,-274.109 618.657,-280.787"/>
</g>
<!-- Node10 -->
<g id="node10" class="node"><title>Node10</title>
<g id="a_node10"><a xlink:href="io__reactor_8cpp.html" target="_top" xlink:title="Implementation of the non&#45;virtual aspects of the IoReactor class. ">
<polygon fill="white" stroke="black" points="630,-56.5 630,-75.5 743,-75.5 743,-56.5 630,-56.5"/>
<text text-anchor="middle" x="686.5" y="-63.5" font-family="Helvetica,sans-Serif" font-size="10.00">src/io/io_reactor.cpp</text>
</a>
</g>
</g>
<!-- Node7&#45;&gt;Node10 -->
<g id="edge22" class="edge"><title>Node7&#45;&gt;Node10</title>
<path fill="none" stroke="midnightblue" d="M724.956,-286.252C790.843,-281.998 883.744,-271.218 906.5,-244 971.431,-166.338 788.463,-98.7983 715.278,-75.583"/>
<polygon fill="midnightblue" stroke="midnightblue" points="724.397,-282.779 714.628,-286.88 724.822,-289.766 724.397,-282.779"/>
</g>
<!-- Node12 -->
<g id="node12" class="node"><title>Node12</title>
<g id="a_node12"><a xlink:href="io__reactor_8hpp.html" target="_top" xlink:title="Declaration of the IoReactor class. ">
<polygon fill="white" stroke="black" points="574,-112.5 574,-131.5 687,-131.5 687,-112.5 574,-112.5"/>
<text text-anchor="middle" x="630.5" y="-119.5" font-family="Helvetica,sans-Serif" font-size="10.00">src/io/io_reactor.hpp</text>
</a>
</g>
</g>
<!-- Node7&#45;&gt;Node12 -->
<g id="edge23" class="edge"><title>Node7&#45;&gt;Node12</title>
<path fill="none" stroke="midnightblue" d="M611.121,-276.769C594.763,-269.93 578.007,-259.54 568.5,-244 563.861,-236.418 563.133,-231.085 568.5,-224 604.185,-176.894 660.815,-235.106 696.5,-188 713.495,-165.566 676.413,-143.429 651.245,-131.666"/>
<polygon fill="midnightblue" stroke="midnightblue" points="610.057,-280.109 620.648,-280.397 612.548,-273.567 610.057,-280.109"/>
</g>
<!-- Node7&#45;&gt;Node13 -->
<g id="edge25" class="edge"><title>Node7&#45;&gt;Node13</title>
<path fill="none" stroke="midnightblue" d="M725.074,-284.134C793.793,-278.109 893.8,-265.862 925.5,-244 953.047,-225.001 963.5,-212.463 963.5,-179 963.5,-179 963.5,-179 963.5,-121 963.5,-50.8902 865.923,-24.8382 809.893,-15.6579"/>
<polygon fill="midnightblue" stroke="midnightblue" points="724.419,-280.677 714.752,-285.013 725.013,-287.652 724.419,-280.677"/>
</g>
<!-- Node7&#45;&gt;Node14 -->
<g id="edge24" class="edge"><title>Node7&#45;&gt;Node14</title>
<path fill="none" stroke="midnightblue" d="M588.159,-283.002C532.327,-276.68 459.351,-264.695 438.5,-244 391.338,-197.192 409.992,-104.162 417.177,-75.564"/>
<polygon fill="midnightblue" stroke="midnightblue" points="588.047,-286.511 598.368,-284.118 588.808,-279.552 588.047,-286.511"/>
</g>
<!-- Node7&#45;&gt;Node16 -->
<g id="edge26" class="edge"><title>Node7&#45;&gt;Node16</title>
<path fill="none" stroke="midnightblue" d="M725.269,-279.551C800.829,-269.169 920.853,-252.677 991.729,-242.938"/>
<polygon fill="midnightblue" stroke="midnightblue" points="724.342,-276.145 714.912,-280.974 725.295,-283.08 724.342,-276.145"/>
</g>
<!-- Node17 -->
<g id="node17" class="node"><title>Node17</title>
<g id="a_node17"><a xlink:href="player__position_8cpp.html" target="_top" xlink:title="Implementation of the PlayerPosition class, and related Player methods. ">
<polygon fill="white" stroke="black" points="577.5,-224.5 577.5,-243.5 735.5,-243.5 735.5,-224.5 577.5,-224.5"/>
<text text-anchor="middle" x="656.5" y="-231.5" font-family="Helvetica,sans-Serif" font-size="10.00">src/player/player_position.cpp</text>
</a>
</g>
</g>
<!-- Node7&#45;&gt;Node17 -->
<g id="edge27" class="edge"><title>Node7&#45;&gt;Node17</title>
<path fill="none" stroke="midnightblue" d="M656.5,-269.805C656.5,-260.91 656.5,-250.78 656.5,-243.751"/>
<polygon fill="midnightblue" stroke="midnightblue" points="653,-270.083 656.5,-280.083 660,-270.083 653,-270.083"/>
</g>
<!-- Node18 -->
<g id="node18" class="node"><title>Node18</title>
<g id="a_node18"><a xlink:href="player__state_8cpp.html" target="_top" xlink:title="Implementation of the PlayerState class, and related Player methods. ">
<polygon fill="white" stroke="black" points="753.5,-224.5 753.5,-243.5 897.5,-243.5 897.5,-224.5 753.5,-224.5"/>
<text text-anchor="middle" x="825.5" y="-231.5" font-family="Helvetica,sans-Serif" font-size="10.00">src/player/player_state.cpp</text>
</a>
</g>
</g>
<!-- Node7&#45;&gt;Node18 -->
<g id="edge28" class="edge"><title>Node7&#45;&gt;Node18</title>
<path fill="none" stroke="midnightblue" d="M693.103,-277.304C724.947,-267.129 770.342,-252.625 798.847,-243.516"/>
<polygon fill="midnightblue" stroke="midnightblue" points="691.739,-274.066 683.279,-280.444 693.869,-280.734 691.739,-274.066"/>
</g>
<!-- Node9 -->
<g id="node9" class="node"><title>Node9</title>
<g id="a_node9"><a xlink:href="cmd_8cpp.html" target="_top" xlink:title="Implementation of the CommandHandler class. ">
<polygon fill="white" stroke="black" points="448,-168.5 448,-187.5 521,-187.5 521,-168.5 448,-168.5"/>
<text text-anchor="middle" x="484.5" y="-175.5" font-family="Helvetica,sans-Serif" font-size="10.00">src/cmd.cpp</text>
</a>
</g>
</g>
<!-- Node8&#45;&gt;Node9 -->
<g id="edge9" class="edge"><title>Node8&#45;&gt;Node9</title>
<path fill="none" stroke="midnightblue" d="M484.5,-213.805C484.5,-204.91 484.5,-194.78 484.5,-187.751"/>
<polygon fill="midnightblue" stroke="midnightblue" points="481,-214.083 484.5,-224.083 488,-214.083 481,-214.083"/>
</g>
<!-- Node8&#45;&gt;Node10 -->
<g id="edge10" class="edge"><title>Node8&#45;&gt;Node10</title>
<path fill="none" stroke="midnightblue" d="M532.125,-228.438C587.023,-222.251 672.758,-209.439 696.5,-188 722.263,-164.736 724.036,-145.377 714.5,-112 710.506,-98.0212 700.776,-84.156 693.912,-75.5891"/>
<polygon fill="midnightblue" stroke="midnightblue" points="531.48,-224.988 521.919,-229.552 532.24,-231.946 531.48,-224.988"/>
</g>
<!-- Node11 -->
<g id="node11" class="node"><title>Node11</title>
<g id="a_node11"><a xlink:href="tokeniser_8hpp.html" target="_top" xlink:title="Declaration of the Tokeniser class. ">
<polygon fill="white" stroke="black" points="578,-168.5 578,-187.5 687,-187.5 687,-168.5 578,-168.5"/>
<text text-anchor="middle" x="632.5" y="-175.5" font-family="Helvetica,sans-Serif" font-size="10.00">src/io/tokeniser.hpp</text>
</a>
</g>
</g>
<!-- Node8&#45;&gt;Node11 -->
<g id="edge11" class="edge"><title>Node8&#45;&gt;Node11</title>
<path fill="none" stroke="midnightblue" d="M517.647,-220.906C545.472,-210.754 584.52,-196.506 609.159,-187.516"/>
<polygon fill="midnightblue" stroke="midnightblue" points="516.146,-217.728 507.951,-224.444 518.545,-224.304 516.146,-217.728"/>
</g>
<!-- Node8&#45;&gt;Node13 -->
<g id="edge20" class="edge"><title>Node8&#45;&gt;Node13</title>
<path fill="none" stroke="midnightblue" d="M531.618,-226.587C595.908,-217.439 704.748,-200.382 718.5,-188 769.752,-141.853 772.3,-48.3739 771.801,-19.6149"/>
<polygon fill="midnightblue" stroke="midnightblue" points="531.117,-223.123 521.704,-227.985 532.095,-230.054 531.117,-223.123"/>
</g>
<!-- Node8&#45;&gt;Node14 -->
<g id="edge21" class="edge"><title>Node8&#45;&gt;Node14</title>
<path fill="none" stroke="midnightblue" d="M463.693,-217.756C454.506,-209.905 444.458,-199.556 438.5,-188 418.815,-149.822 418.365,-96.5568 419.052,-75.7841"/>
<polygon fill="midnightblue" stroke="midnightblue" points="461.759,-220.691 471.746,-224.227 466.143,-215.235 461.759,-220.691"/>
</g>
<!-- Node15 -->
<g id="node15" class="node"><title>Node15</title>
<g id="a_node15"><a xlink:href="tokeniser_8cpp.html" target="_top" xlink:title="Definition of the Tokeniser class. ">
<polygon fill="white" stroke="black" points="447.5,-112.5 447.5,-131.5 555.5,-131.5 555.5,-112.5 447.5,-112.5"/>
<text text-anchor="middle" x="501.5" y="-119.5" font-family="Helvetica,sans-Serif" font-size="10.00">src/io/tokeniser.cpp</text>
</a>
</g>
</g>
<!-- Node8&#45;&gt;Node15 -->
<g id="edge19" class="edge"><title>Node8&#45;&gt;Node15</title>
<path fill="none" stroke="midnightblue" d="M505.666,-218.044C514.833,-210.257 524.58,-199.879 529.5,-188 537.87,-167.794 521.063,-144.262 510.045,-131.798"/>
<polygon fill="midnightblue" stroke="midnightblue" points="503.247,-215.494 497.564,-224.436 507.583,-220.99 503.247,-215.494"/>
</g>
<!-- Node11&#45;&gt;Node12 -->
<g id="edge12" class="edge"><title>Node11&#45;&gt;Node12</title>
<path fill="none" stroke="midnightblue" d="M631.789,-157.805C631.46,-148.91 631.084,-138.78 630.824,-131.751"/>
<polygon fill="midnightblue" stroke="midnightblue" points="628.302,-158.219 632.17,-168.083 635.297,-157.96 628.302,-158.219"/>
</g>
<!-- Node11&#45;&gt;Node15 -->
<g id="edge18" class="edge"><title>Node11&#45;&gt;Node15</title>
<path fill="none" stroke="midnightblue" d="M602.183,-164.503C577.624,-154.38 543.682,-140.388 522.16,-131.516"/>
<polygon fill="midnightblue" stroke="midnightblue" points="601.163,-167.868 611.743,-168.444 603.831,-161.397 601.163,-167.868"/>
</g>
<!-- Node12&#45;&gt;Node10 -->
<g id="edge13" class="edge"><title>Node12&#45;&gt;Node10</title>
<path fill="none" stroke="midnightblue" d="M646.83,-105.253C656.765,-95.6731 669.088,-83.7906 677.339,-75.8339"/>
<polygon fill="midnightblue" stroke="midnightblue" points="644.266,-102.863 639.497,-112.324 649.125,-107.902 644.266,-102.863"/>
</g>
<!-- Node12&#45;&gt;Node12 -->
<g id="edge14" class="edge"><title>Node12&#45;&gt;Node12</title>
<path fill="none" stroke="midnightblue" d="M672.282,-132.393C689.953,-133.17 705,-129.706 705,-122 705,-112.867 683.864,-109.692 662.274,-112.475"/>
<polygon fill="midnightblue" stroke="midnightblue" points="672.539,-128.902 662.274,-131.525 671.935,-135.876 672.539,-128.902"/>
</g>
<!-- Node12&#45;&gt;Node13 -->
<g id="edge15" class="edge"><title>Node12&#45;&gt;Node13</title>
<path fill="none" stroke="midnightblue" d="M621.679,-103.296C616.02,-89.155 611.431,-69.533 621.5,-56 647.062,-21.6446 697.947,-12.5293 733.321,-10.601"/>
<polygon fill="midnightblue" stroke="midnightblue" points="618.505,-104.771 625.795,-112.458 624.89,-101.902 618.505,-104.771"/>
</g>
<!-- Node12&#45;&gt;Node14 -->
<g id="edge16" class="edge"><title>Node12&#45;&gt;Node14</title>
<path fill="none" stroke="midnightblue" d="M587.358,-109.959C547.506,-99.7598 489.137,-84.8217 452.777,-75.5164"/>
<polygon fill="midnightblue" stroke="midnightblue" points="586.511,-113.355 597.066,-112.444 588.246,-106.573 586.511,-113.355"/>
</g>
<!-- Node14&#45;&gt;Node13 -->
<g id="edge17" class="edge"><title>Node14&#45;&gt;Node13</title>
<path fill="none" stroke="midnightblue" d="M468.179,-57.5321C538.983,-46.6703 668.927,-26.7356 733.294,-16.8612"/>
<polygon fill="midnightblue" stroke="midnightblue" points="467.531,-54.0906 458.177,-59.0666 468.592,-61.0097 467.531,-54.0906"/>
</g>
</g>
</svg>
        <g id="navigator" transform="translate(0 0)" fill="#404254">
                <rect fill="#f2f5e9" fill-opacity="0.5" stroke="#606060" stroke-width=".5" x="0" y="0" width="60" height="60"/>
                <use id="zoomplus" xlink:href="#zoomPlus" x="17" y="9" onmousedown="handleZoom(evt,'in')"/>
                <use id="zoomminus" xlink:href="#zoomMin" x="42" y="9" onmousedown="handleZoom(evt,'out')"/>
                <use id="reset" xlink:href="#resetDef" x="30" y="36" onmousedown="handleReset()"/>
                <g id="arrowUp" xlink:href="#dirArrow" transform="translate(30 24)" onmousedown="handlePan(0,-1)">
                  <use xlink:href="#rim" fill="#404040">
                        <set attributeName="fill" to="#808080" begin="arrowUp.mouseover" end="arrowUp.mouseout"/>
                  </use>
                  <path fill="none" stroke="white" stroke-width="1.5" d="M0,-3.0v7 M-2.5,-0.5L0,-3.0L2.5,-0.5"/>
                </g>
                <g id="arrowRight" xlink:href="#dirArrow" transform="rotate(90) translate(36 -43)" onmousedown="handlePan(1,0)">
                  <use xlink:href="#rim" fill="#404040">
                        <set attributeName="fill" to="#808080" begin="arrowRight.mouseover" end="arrowRight.mouseout"/>
                  </use>
                  <path fill="none" stroke="white" stroke-width="1.5" d="M0,-3.0v7 M-2.5,-0.5L0,-3.0L2.5,-0.5"/>
                </g>
                <g id="arrowDown" xlink:href="#dirArrow" transform="rotate(180) translate(-30 -48)" onmousedown="handlePan(0,1)">
                  <use xlink:href="#rim" fill="#404040">
                        <set attributeName="fill" to="#808080" begin="arrowDown.mouseover" end="arrowDown.mouseout"/>
                  </use>
                  <path fill="none" stroke="white" stroke-width="1.5" d="M0,-3.0v7 M-2.5,-0.5L0,-3.0L2.5,-0.5"/>
                </g>
                <g id="arrowLeft" xlink:href="#dirArrow" transform="rotate(270) translate(-36 17)" onmousedown="handlePan(-1,0)">
                  <use xlink:href="#rim" fill="#404040">
                        <set attributeName="fill" to="#808080" begin="arrowLeft.mouseover" end="arrowLeft.mouseout"/>
                  </use>
                  <path fill="none" stroke="white" stroke-width="1.5" d="M0,-3.0v7 M-2.5,-0.5L0,-3.0L2.5,-0.5"/>
                </g>
        </g>
        <svg viewBox="0 0 15 15" width="100%" height="30px" preserveAspectRatio="xMaxYMin meet">
         <g id="arrow_out" transform="scale(0.3 0.3)">
          <a xlink:href="audio__sink_8hpp__dep__incl_org.svg" target="_base">
           <rect id="button" ry="5" rx="5" y="6" x="6" height="38" width="38"
                fill="#f2f5e9" fill-opacity="0.5" stroke="#606060" stroke-width="1.0"/>
           <path id="arrow"
             d="M 11.500037,31.436501 C 11.940474,20.09759 22.043105,11.32322 32.158766,21.979434 L 37.068811,17.246167 C 37.068811,17.246167 37.088388,32 37.088388,32 L 22.160133,31.978069 C 22.160133,31.978069 26.997745,27.140456 26.997745,27.140456 C 18.528582,18.264221 13.291696,25.230495 11.500037,31.436501 z"
             style="fill:#404040;"/>
          </a>
         </g>
        </svg>
</svg>
