<?xml version="1.0" encoding="UTF-8" standalone="no"?>
<!DOCTYPE svg PUBLIC "-//W3C//DTD SVG 1.1//EN"
 "http://www.w3.org/Graphics/SVG/1.1/DTD/svg11.dtd">
<!-- Generated by graphviz version 2.38.0 (20140413.2041)
 -->
<!-- Title: src/audio/audio_source.hpp Pages: 1 -->
<!--zoomable 532 -->
<svg id="main" version="1.1" xmlns="http://www.w3.org/2000/svg" xmlns:xlink="http://www.w3.org/1999/xlink" xml:space="preserve" onload="init(evt)">
<style type="text/css"><![CDATA[
.edge:hover path { stroke: red; }
.edge:hover polygon { stroke: red; fill: red; }
]]></style>
<script type="text/javascript"><![CDATA[
var edges = document.getElementsByTagName('g');
if (edges && edges.length) {
  for (var i=0;i<edges.length;i++) {
    if (edges[i].id.substr(0,4)=='edge') {
      edges[i].setAttribute('class','edge');
    }
  }
}
]]></script>
        <defs>
                <circle id="rim" cx="0" cy="0" r="7"/>
                <circle id="rim2" cx="0" cy="0" r="3.5"/>
                <g id="zoomPlus">
                        <use xlink:href="#rim" fill="#404040">
                                <set attributeName="fill" to="#808080" begin="zoomplus.mouseover" end="zoomplus.mouseout"/>
                        </use>
                        <path d="M-4,0h8M0,-4v8" fill="none" stroke="white" stroke-width="1.5" pointer-events="none"/>
                </g>
                <g id="zoomMin">
                        <use xlink:href="#rim" fill="#404040">
                                <set attributeName="fill" to="#808080" begin="zoomminus.mouseover" end="zoomminus.mouseout"/>
                        </use>
                        <path d="M-4,0h8" fill="none" stroke="white" stroke-width="1.5" pointer-events="none"/>
                </g>
                <g id="dirArrow">
                        <path fill="none" stroke="white" stroke-width="1.5" d="M0,-3.0v7 M-2.5,-0.5L0,-3.0L2.5,-0.5"/>
                </g>
               <g id="resetDef">
                       <use xlink:href="#rim2" fill="#404040">
                               <set attributeName="fill" to="#808080" begin="reset.mouseover" end="reset.mouseout"/>
                       </use>
               </g>
        </defs>

<script type="text/javascript">
var viewWidth = 1243;
var viewHeight = 532;
var sectionId = 'dynsection-1';
</script>
<script xlink:href="svgpan.js"/>
<svg id="graph" class="graph">
<g id="viewport">
<title>src/audio/audio_source.hpp</title>
<polygon fill="white" stroke="none" points="-4,4 -4,-528 1239.48,-528 1239.48,4 -4,4"/>
<!-- Node1 -->
<g id="node1" class="node"><title>Node1</title>
<polygon fill="#bfbfbf" stroke="black" points="830.461,-504.5 830.461,-523.5 976.461,-523.5 976.461,-504.5 830.461,-504.5"/>
<text text-anchor="middle" x="903.461" y="-511.5" font-family="Helvetica,sans-Serif" font-size="10.00">src/audio/audio_source.hpp</text>
</g>
<!-- Node2 -->
<g id="node2" class="node"><title>Node2</title>
<g id="a_node2"><a xlink:href="audio_8hpp.html" target="_top" xlink:title="Declaration of the Audio class. ">
<polygon fill="white" stroke="black" points="682.461,-448.5 682.461,-467.5 790.461,-467.5 790.461,-448.5 682.461,-448.5"/>
<text text-anchor="middle" x="736.461" y="-455.5" font-family="Helvetica,sans-Serif" font-size="10.00">src/audio/audio.hpp</text>
</a>
</g>
</g>
<!-- Node1&#45;&gt;Node2 -->
<g id="edge1" class="edge"><title>Node1&#45;&gt;Node2</title>
<path fill="none" stroke="midnightblue" d="M867.292,-501.304C835.824,-491.129 790.967,-476.625 762.799,-467.516"/>
<polygon fill="midnightblue" stroke="midnightblue" points="866.408,-504.697 877,-504.444 868.561,-498.037 866.408,-504.697"/>
</g>
<!-- Node3 -->
<g id="node3" class="node"><title>Node3</title>
<g id="a_node3"><a xlink:href="audio_8cpp.html" target="_top" xlink:title="Implementation of the Audio class. ">
<polygon fill="white" stroke="black" points="897.961,-392.5 897.961,-411.5 1004.96,-411.5 1004.96,-392.5 897.961,-392.5"/>
<text text-anchor="middle" x="951.461" y="-399.5" font-family="Helvetica,sans-Serif" font-size="10.00">src/audio/audio.cpp</text>
</a>
</g>
</g>
<!-- Node1&#45;&gt;Node3 -->
<g id="edge44" class="edge"><title>Node1&#45;&gt;Node3</title>
<path fill="none" stroke="midnightblue" d="M887.833,-496.397C877.171,-482.965 866.476,-463.762 875.461,-448 885.713,-430.016 906.287,-418.485 923.446,-411.603"/>
<polygon fill="midnightblue" stroke="midnightblue" points="885.452,-498.997 894.627,-504.296 890.759,-494.432 885.452,-498.997"/>
</g>
<!-- Node4 -->
<g id="node4" class="node"><title>Node4</title>
<g id="a_node4"><a xlink:href="audio__system_8cpp.html" target="_top" xlink:title="Implementation of the PaSoxAudioSystem class. ">
<polygon fill="white" stroke="black" points="909.461,-336.5 909.461,-355.5 1055.46,-355.5 1055.46,-336.5 909.461,-336.5"/>
<text text-anchor="middle" x="982.461" y="-343.5" font-family="Helvetica,sans-Serif" font-size="10.00">src/audio/audio_system.cpp</text>
</a>
</g>
</g>
<!-- Node1&#45;&gt;Node4 -->
<g id="edge47" class="edge"><title>Node1&#45;&gt;Node4</title>
<path fill="none" stroke="midnightblue" d="M986.826,-513.397C1072.54,-511.816 1197.72,-503.289 1228.46,-468 1247.62,-446.003 1223.2,-408.397 1202.46,-392 1179.94,-374.2 1110.54,-361.988 1055.64,-354.826"/>
<polygon fill="midnightblue" stroke="midnightblue" points="986.521,-509.902 976.577,-513.557 986.63,-516.901 986.521,-509.902"/>
</g>
<!-- Node5 -->
<g id="node5" class="node"><title>Node5</title>
<g id="a_node5"><a xlink:href="audio__system_8hpp.html" target="_top" xlink:title="Declaration of the AudioSystem class. ">
<polygon fill="white" stroke="black" points="693.961,-392.5 693.961,-411.5 840.961,-411.5 840.961,-392.5 693.961,-392.5"/>
<text text-anchor="middle" x="767.461" y="-399.5" font-family="Helvetica,sans-Serif" font-size="10.00">src/audio/audio_system.hpp</text>
</a>
</g>
</g>
<!-- Node1&#45;&gt;Node5 -->
<g id="edge48" class="edge"><title>Node1&#45;&gt;Node5</title>
<path fill="none" stroke="midnightblue" d="M884.688,-497.816C855.722,-474.387 801.078,-430.19 778.083,-411.591"/>
<polygon fill="midnightblue" stroke="midnightblue" points="882.813,-500.801 892.79,-504.368 887.215,-495.358 882.813,-500.801"/>
</g>
<!-- Node20 -->
<g id="node20" class="node"><title>Node20</title>
<g id="a_node20"><a xlink:href="audio__sink_8hpp.html" target="_top" xlink:title="Declaration of the AudioSink class. ">
<polygon fill="white" stroke="black" points="884.961,-448.5 884.961,-467.5 1017.96,-467.5 1017.96,-448.5 884.961,-448.5"/>
<text text-anchor="middle" x="951.461" y="-455.5" font-family="Helvetica,sans-Serif" font-size="10.00">src/audio/audio_sink.hpp</text>
</a>
</g>
</g>
<!-- Node1&#45;&gt;Node20 -->
<g id="edge39" class="edge"><title>Node1&#45;&gt;Node20</title>
<path fill="none" stroke="midnightblue" d="M918.189,-496.431C926.601,-486.967 936.81,-475.483 943.682,-467.751"/>
<polygon fill="midnightblue" stroke="midnightblue" points="915.415,-494.284 911.387,-504.083 920.647,-498.934 915.415,-494.284"/>
</g>
<!-- Node21 -->
<g id="node21" class="node"><title>Node21</title>
<g id="a_node21"><a xlink:href="audio__sink_8cpp.html" target="_top" xlink:title="Implementation of the AudioSink class. ">
<polygon fill="white" stroke="black" points="1061.46,-392.5 1061.46,-411.5 1193.46,-411.5 1193.46,-392.5 1061.46,-392.5"/>
<text text-anchor="middle" x="1127.46" y="-399.5" font-family="Helvetica,sans-Serif" font-size="10.00">src/audio/audio_sink.cpp</text>
</a>
</g>
</g>
<!-- Node1&#45;&gt;Node21 -->
<g id="edge45" class="edge"><title>Node1&#45;&gt;Node21</title>
<path fill="none" stroke="midnightblue" d="M942.275,-501.248C966.951,-493.185 999.259,-481.521 1026.46,-468 1060.63,-451.015 1097.56,-425.098 1115.84,-411.699"/>
<polygon fill="midnightblue" stroke="midnightblue" points="940.995,-497.982 932.543,-504.371 943.134,-504.648 940.995,-497.982"/>
</g>
<!-- Node22 -->
<g id="node22" class="node"><title>Node22</title>
<g id="a_node22"><a xlink:href="audio__source_8cpp.html" target="_top" xlink:title="Implementation of the AudioSource class. ">
<polygon fill="white" stroke="black" points="1074.96,-448.5 1074.96,-467.5 1219.96,-467.5 1219.96,-448.5 1074.96,-448.5"/>
<text text-anchor="middle" x="1147.46" y="-455.5" font-family="Helvetica,sans-Serif" font-size="10.00">src/audio/audio_source.cpp</text>
</a>
</g>
</g>
<!-- Node1&#45;&gt;Node22 -->
<g id="edge46" class="edge"><title>Node1&#45;&gt;Node22</title>
<path fill="none" stroke="midnightblue" d="M951.893,-502.281C998.002,-492.077 1066.49,-476.92 1108.98,-467.516"/>
<polygon fill="midnightblue" stroke="midnightblue" points="951.131,-498.865 942.124,-504.444 952.644,-505.7 951.131,-498.865"/>
</g>
<!-- Node23 -->
<g id="node23" class="node"><title>Node23</title>
<g id="a_node23"><a xlink:href="player__position_8hpp.html" target="_top" xlink:title="Declaration of the PlayerPosition class. ">
<polygon fill="white" stroke="black" points="441.461,-392.5 441.461,-411.5 599.461,-411.5 599.461,-392.5 441.461,-392.5"/>
<text text-anchor="middle" x="520.461" y="-399.5" font-family="Helvetica,sans-Serif" font-size="10.00">src/player/player_position.hpp</text>
</a>
</g>
</g>
<!-- Node1&#45;&gt;Node23 -->
<g id="edge49" class="edge"><title>Node1&#45;&gt;Node23</title>
<path fill="none" stroke="midnightblue" d="M831.45,-502.871C785.629,-495.459 725.359,-483.91 673.461,-468 622.415,-452.351 565.245,-425.374 537.46,-411.615"/>
<polygon fill="midnightblue" stroke="midnightblue" points="831.164,-506.369 841.589,-504.482 832.262,-499.456 831.164,-506.369"/>
</g>
<!-- Node2&#45;&gt;Node3 -->
<g id="edge2" class="edge"><title>Node2&#45;&gt;Node3</title>
<path fill="none" stroke="midnightblue" d="M780.421,-445.959C821.029,-435.76 880.504,-420.822 917.553,-411.516"/>
<polygon fill="midnightblue" stroke="midnightblue" points="779.375,-442.613 770.529,-448.444 781.08,-449.402 779.375,-442.613"/>
</g>
<!-- Node2&#45;&gt;Node4 -->
<g id="edge3" class="edge"><title>Node2&#45;&gt;Node4</title>
<path fill="none" stroke="midnightblue" d="M769.194,-444.908C791.942,-436.276 822.833,-424.097 849.461,-412 867.197,-403.943 871.008,-400.651 888.461,-392 914.561,-379.064 945.011,-364.6 964.017,-355.647"/>
<polygon fill="midnightblue" stroke="midnightblue" points="767.795,-441.695 759.671,-448.495 770.263,-448.246 767.795,-441.695"/>
</g>
<!-- Node2&#45;&gt;Node5 -->
<g id="edge4" class="edge"><title>Node2&#45;&gt;Node5</title>
<path fill="none" stroke="midnightblue" d="M746.637,-439.275C751.935,-430.045 758.178,-419.17 762.437,-411.751"/>
<polygon fill="midnightblue" stroke="midnightblue" points="743.524,-437.668 741.58,-448.083 749.594,-441.153 743.524,-437.668"/>
</g>
<!-- Node6 -->
<g id="node6" class="node"><title>Node6</title>
<g id="a_node6"><a xlink:href="player__file_8hpp.html" target="_top" xlink:title="Declaration of the PlayerFile class, and associated types. ">
<polygon fill="white" stroke="black" points="438.961,-336.5 438.961,-355.5 573.961,-355.5 573.961,-336.5 438.961,-336.5"/>
<text text-anchor="middle" x="506.461" y="-343.5" font-family="Helvetica,sans-Serif" font-size="10.00">src/player/player_file.hpp</text>
</a>
</g>
</g>
<!-- Node2&#45;&gt;Node6 -->
<g id="edge37" class="edge"><title>Node2&#45;&gt;Node6</title>
<path fill="none" stroke="midnightblue" d="M710.974,-443.542C685.286,-430.099 644.407,-409.04 608.461,-392 580.478,-378.734 547.63,-364.473 526.929,-355.642"/>
<polygon fill="midnightblue" stroke="midnightblue" points="709.553,-446.748 720.034,-448.296 712.806,-440.55 709.553,-446.748"/>
</g>
<!-- Node7 -->
<g id="node7" class="node"><title>Node7</title>
<g id="a_node7"><a xlink:href="player_8hpp.html" target="_top" xlink:title="Declaration of the Player class, and associated types. ">
<polygon fill="white" stroke="black" points="266.461,-280.5 266.461,-299.5 382.461,-299.5 382.461,-280.5 266.461,-280.5"/>
<text text-anchor="middle" x="324.461" y="-287.5" font-family="Helvetica,sans-Serif" font-size="10.00">src/player/player.hpp</text>
</a>
</g>
</g>
<!-- Node2&#45;&gt;Node7 -->
<g id="edge36" class="edge"><title>Node2&#45;&gt;Node7</title>
<path fill="none" stroke="midnightblue" d="M672.305,-451.726C596.087,-444.73 474.018,-431.011 432.461,-412 379.202,-387.635 341.192,-322.984 328.811,-299.597"/>
<polygon fill="midnightblue" stroke="midnightblue" points="672.009,-455.213 682.283,-452.627 672.639,-448.241 672.009,-455.213"/>
</g>
<!-- Node16 -->
<g id="node16" class="node"><title>Node16</title>
<g id="a_node16"><a xlink:href="player_8cpp.html" target="_top" xlink:title="Main implementation file for the Player class. ">
<polygon fill="white" stroke="black" points="648.961,-224.5 648.961,-243.5 763.961,-243.5 763.961,-224.5 648.961,-224.5"/>
<text text-anchor="middle" x="706.461" y="-231.5" font-family="Helvetica,sans-Serif" font-size="10.00">src/player/player.cpp</text>
</a>
</g>
</g>
<!-- Node2&#45;&gt;Node16 -->
<g id="edge38" class="edge"><title>Node2&#45;&gt;Node16</title>
<path fill="none" stroke="midnightblue" d="M712.092,-442.726C701.513,-435.089 690.239,-424.64 684.461,-412 657.171,-352.294 690.168,-270.091 702.316,-243.598"/>
<polygon fill="midnightblue" stroke="midnightblue" points="710.419,-445.818 720.678,-448.467 714.31,-439.999 710.419,-445.818"/>
</g>
<!-- Node5&#45;&gt;Node4 -->
<g id="edge5" class="edge"><title>Node5&#45;&gt;Node4</title>
<path fill="none" stroke="midnightblue" d="M811.421,-389.959C852.029,-379.76 911.504,-364.822 948.553,-355.516"/>
<polygon fill="midnightblue" stroke="midnightblue" points="810.375,-386.613 801.529,-392.444 812.08,-393.402 810.375,-386.613"/>
</g>
<!-- Node5&#45;&gt;Node6 -->
<g id="edge6" class="edge"><title>Node5&#45;&gt;Node6</title>
<path fill="none" stroke="midnightblue" d="M716.274,-390.41C666.948,-380.204 593.267,-364.96 547.624,-355.516"/>
<polygon fill="midnightblue" stroke="midnightblue" points="715.603,-393.845 726.105,-392.444 717.022,-386.99 715.603,-393.845"/>
</g>
<!-- Node12 -->
<g id="node12" class="node"><title>Node12</title>
<g id="a_node12"><a xlink:href="main_8cpp.html" target="_top" xlink:title="Main entry point and implementation of the playd class. ">
<polygon fill="white" stroke="black" points="474.461,-0.5 474.461,-19.5 550.461,-19.5 550.461,-0.5 474.461,-0.5"/>
<text text-anchor="middle" x="512.461" y="-7.5" font-family="Helvetica,sans-Serif" font-size="10.00">src/main.cpp</text>
</a>
</g>
</g>
<!-- Node5&#45;&gt;Node12 -->
<g id="edge32" class="edge"><title>Node5&#45;&gt;Node12</title>
<path fill="none" stroke="midnightblue" d="M783.847,-384.945C802.513,-364.861 830.461,-328.525 830.461,-291 830.461,-291 830.461,-291 830.461,-121 830.461,-62.3629 634.911,-28.0467 550.504,-15.9656"/>
<polygon fill="midnightblue" stroke="midnightblue" points="781.189,-382.659 776.757,-392.282 786.223,-387.523 781.189,-382.659"/>
</g>
<!-- Node13 -->
<g id="node13" class="node"><title>Node13</title>
<g id="a_node13"><a xlink:href="main_8hpp.html" target="_top" xlink:title="Declaration of the playd class. ">
<polygon fill="white" stroke="black" points="473.961,-56.5 473.961,-75.5 550.961,-75.5 550.961,-56.5 473.961,-56.5"/>
<text text-anchor="middle" x="512.461" y="-63.5" font-family="Helvetica,sans-Serif" font-size="10.00">src/main.hpp</text>
</a>
</g>
</g>
<!-- Node5&#45;&gt;Node13 -->
<g id="edge33" class="edge"><title>Node5&#45;&gt;Node13</title>
<path fill="none" stroke="midnightblue" d="M774.223,-382.808C781.627,-361.226 792.461,-324.005 792.461,-291 792.461,-291 792.461,-291 792.461,-177 792.461,-125.751 627.911,-88.4328 551.1,-73.8043"/>
<polygon fill="midnightblue" stroke="midnightblue" points="770.896,-381.718 770.833,-392.313 777.489,-384.07 770.896,-381.718"/>
</g>
<!-- Node5&#45;&gt;Node16 -->
<g id="edge34" class="edge"><title>Node5&#45;&gt;Node16</title>
<path fill="none" stroke="midnightblue" d="M760.624,-382.395C747.465,-346.585 719.081,-269.342 709.61,-243.568"/>
<polygon fill="midnightblue" stroke="midnightblue" points="757.447,-383.896 764.182,-392.075 764.018,-381.482 757.447,-383.896"/>
</g>
<!-- Node19 -->
<g id="node19" class="node"><title>Node19</title>
<g id="a_node19"><a xlink:href="player__file_8cpp.html" target="_top" xlink:title="Implementation of the PlayerFile class, and associated types. ">
<polygon fill="white" stroke="black" points="478.461,-280.5 478.461,-299.5 612.461,-299.5 612.461,-280.5 478.461,-280.5"/>
<text text-anchor="middle" x="545.461" y="-287.5" font-family="Helvetica,sans-Serif" font-size="10.00">src/player/player_file.cpp</text>
</a>
</g>
</g>
<!-- Node5&#45;&gt;Node19 -->
<g id="edge35" class="edge"><title>Node5&#45;&gt;Node19</title>
<path fill="none" stroke="midnightblue" d="M740.979,-387.878C694.964,-365.078 601.468,-318.751 562.8,-299.591"/>
<polygon fill="midnightblue" stroke="midnightblue" points="739.527,-391.065 750.041,-392.368 742.635,-384.792 739.527,-391.065"/>
</g>
<!-- Node6&#45;&gt;Node7 -->
<g id="edge7" class="edge"><title>Node6&#45;&gt;Node7</title>
<path fill="none" stroke="midnightblue" d="M467.93,-333.568C433.597,-323.381 384.128,-308.703 353.165,-299.516"/>
<polygon fill="midnightblue" stroke="midnightblue" points="467.04,-336.954 477.623,-336.444 469.031,-330.244 467.04,-336.954"/>
</g>
<!-- Node6&#45;&gt;Node13 -->
<g id="edge30" class="edge"><title>Node6&#45;&gt;Node13</title>
<path fill="none" stroke="midnightblue" d="M487.53,-329.552C473.392,-316.095 458.285,-296.248 469.461,-280 494.815,-243.141 538.108,-280.859 563.461,-244 568.499,-236.676 564.851,-232.78 563.461,-224 554.183,-165.406 526.564,-98.9191 516.332,-75.6138"/>
<polygon fill="midnightblue" stroke="midnightblue" points="485.317,-332.268 495.112,-336.307 489.974,-327.041 485.317,-332.268"/>
</g>
<!-- Node6&#45;&gt;Node19 -->
<g id="edge31" class="edge"><title>Node6&#45;&gt;Node19</title>
<path fill="none" stroke="midnightblue" d="M518.843,-327.855C525.597,-318.505 533.67,-307.327 539.141,-299.751"/>
<polygon fill="midnightblue" stroke="midnightblue" points="515.919,-325.927 512.901,-336.083 521.594,-330.025 515.919,-325.927"/>
</g>
<!-- Node8 -->
<g id="node8" class="node"><title>Node8</title>
<g id="a_node8"><a xlink:href="cmd_8hpp.html" target="_top" xlink:title="Declaration of the CommandHandler class. ">
<polygon fill="white" stroke="black" points="66.4612,-224.5 66.4612,-243.5 140.461,-243.5 140.461,-224.5 66.4612,-224.5"/>
<text text-anchor="middle" x="103.461" y="-231.5" font-family="Helvetica,sans-Serif" font-size="10.00">src/cmd.hpp</text>
</a>
</g>
</g>
<!-- Node7&#45;&gt;Node8 -->
<g id="edge8" class="edge"><title>Node7&#45;&gt;Node8</title>
<path fill="none" stroke="midnightblue" d="M279.54,-278.024C237.793,-267.823 176.479,-252.841 138.315,-243.516"/>
<polygon fill="midnightblue" stroke="midnightblue" points="278.898,-281.47 289.443,-280.444 280.56,-274.67 278.898,-281.47"/>
</g>
<!-- Node10 -->
<g id="node10" class="node"><title>Node10</title>
<g id="a_node10"><a xlink:href="io__core_8cpp.html" target="_top" xlink:title="Implementation of the non&#45;virtual aspects of the IoCore class. ">
<polygon fill="white" stroke="black" points="23.4612,-56.5 23.4612,-75.5 123.461,-75.5 123.461,-56.5 23.4612,-56.5"/>
<text text-anchor="middle" x="73.4612" y="-63.5" font-family="Helvetica,sans-Serif" font-size="10.00">src/io/io_core.cpp</text>
</a>
</g>
</g>
<!-- Node7&#45;&gt;Node10 -->
<g id="edge23" class="edge"><title>Node7&#45;&gt;Node10</title>
<path fill="none" stroke="midnightblue" d="M256.243,-287.769C182.527,-284.825 72.0077,-275.171 45.4612,-244 2.29392,-193.312 50.8631,-103.682 67.9618,-75.6364"/>
<polygon fill="midnightblue" stroke="midnightblue" points="256.266,-291.272 266.388,-288.141 256.523,-284.277 256.266,-291.272"/>
</g>
<!-- Node11 -->
<g id="node11" class="node"><title>Node11</title>
<g id="a_node11"><a xlink:href="io__core_8hpp.html" target="_top" xlink:title="Declaration of the IoCore class. ">
<polygon fill="white" stroke="black" points="99.9612,-112.5 99.9612,-131.5 200.961,-131.5 200.961,-112.5 99.9612,-112.5"/>
<text text-anchor="middle" x="150.461" y="-119.5" font-family="Helvetica,sans-Serif" font-size="10.00">src/io/io_core.hpp</text>
</a>
</g>
</g>
<!-- Node7&#45;&gt;Node11 -->
<g id="edge24" class="edge"><title>Node7&#45;&gt;Node11</title>
<path fill="none" stroke="midnightblue" d="M256.28,-287.188C185.744,-283.705 82.4489,-273.552 57.4612,-244 22.9902,-203.233 100.401,-151.678 134.924,-131.574"/>
<polygon fill="midnightblue" stroke="midnightblue" points="256.285,-290.692 266.436,-287.655 256.607,-283.699 256.285,-290.692"/>
</g>
<!-- Node7&#45;&gt;Node12 -->
<g id="edge25" class="edge"><title>Node7&#45;&gt;Node12</title>
<path fill="none" stroke="midnightblue" d="M339.276,-272.8C351.768,-259.364 370.305,-239.951 387.461,-224 461.318,-155.33 517.612,-167.756 559.461,-76 569.632,-53.7006 543.603,-31.3402 526.342,-19.5427"/>
<polygon fill="midnightblue" stroke="midnightblue" points="336.556,-270.586 332.344,-280.308 341.699,-275.334 336.556,-270.586"/>
</g>
<!-- Node7&#45;&gt;Node13 -->
<g id="edge26" class="edge"><title>Node7&#45;&gt;Node13</title>
<path fill="none" stroke="midnightblue" d="M256.38,-279.527C210.56,-270.315 162.673,-253.306 187.461,-224 249.747,-150.361 316.708,-234.034 401.461,-188 453.316,-159.835 493.886,-98.1055 507.517,-75.5064"/>
<polygon fill="midnightblue" stroke="midnightblue" points="255.925,-283.004 266.403,-281.431 257.232,-276.127 255.925,-283.004"/>
</g>
<!-- Node7&#45;&gt;Node16 -->
<g id="edge27" class="edge"><title>Node7&#45;&gt;Node16</title>
<path fill="none" stroke="midnightblue" d="M392.492,-279.383C465.478,-269.066 580.14,-252.857 648.837,-243.146"/>
<polygon fill="midnightblue" stroke="midnightblue" points="391.89,-275.933 382.479,-280.799 392.87,-282.864 391.89,-275.933"/>
</g>
<!-- Node17 -->
<g id="node17" class="node"><title>Node17</title>
<g id="a_node17"><a xlink:href="player__position_8cpp.html" target="_top" xlink:title="Implementation of the PlayerPosition class, and related Player methods. ">
<polygon fill="white" stroke="black" points="396.461,-224.5 396.461,-243.5 554.461,-243.5 554.461,-224.5 396.461,-224.5"/>
<text text-anchor="middle" x="475.461" y="-231.5" font-family="Helvetica,sans-Serif" font-size="10.00">src/player/player_position.cpp</text>
</a>
</g>
</g>
<!-- Node7&#45;&gt;Node17 -->
<g id="edge28" class="edge"><title>Node7&#45;&gt;Node17</title>
<path fill="none" stroke="midnightblue" d="M357.907,-277.039C386.319,-266.879 426.398,-252.546 451.647,-243.516"/>
<polygon fill="midnightblue" stroke="midnightblue" points="356.625,-273.781 348.388,-280.444 358.982,-280.372 356.625,-273.781"/>
</g>
<!-- Node18 -->
<g id="node18" class="node"><title>Node18</title>
<g id="a_node18"><a xlink:href="player__state_8cpp.html" target="_top" xlink:title="Implementation of the PlayerState class, and related Player methods. ">
<polygon fill="white" stroke="black" points="196.461,-224.5 196.461,-243.5 340.461,-243.5 340.461,-224.5 196.461,-224.5"/>
<text text-anchor="middle" x="268.461" y="-231.5" font-family="Helvetica,sans-Serif" font-size="10.00">src/player/player_state.cpp</text>
</a>
</g>
</g>
<!-- Node7&#45;&gt;Node18 -->
<g id="edge29" class="edge"><title>Node7&#45;&gt;Node18</title>
<path fill="none" stroke="midnightblue" d="M308.131,-273.253C298.196,-263.673 285.874,-251.791 277.622,-243.834"/>
<polygon fill="midnightblue" stroke="midnightblue" points="305.836,-275.902 315.464,-280.324 310.695,-270.863 305.836,-275.902"/>
</g>
<!-- Node9 -->
<g id="node9" class="node"><title>Node9</title>
<g id="a_node9"><a xlink:href="cmd_8cpp.html" target="_top" xlink:title="Implementation of the CommandHandler class. ">
<polygon fill="white" stroke="black" points="302.961,-168.5 302.961,-187.5 375.961,-187.5 375.961,-168.5 302.961,-168.5"/>
<text text-anchor="middle" x="339.461" y="-175.5" font-family="Helvetica,sans-Serif" font-size="10.00">src/cmd.cpp</text>
</a>
</g>
</g>
<!-- Node8&#45;&gt;Node9 -->
<g id="edge9" class="edge"><title>Node8&#45;&gt;Node9</title>
<path fill="none" stroke="midnightblue" d="M150.376,-222.265C195.223,-212.004 261.909,-196.745 302.931,-187.359"/>
<polygon fill="midnightblue" stroke="midnightblue" points="149.563,-218.861 140.596,-224.503 151.125,-225.684 149.563,-218.861"/>
</g>
<!-- Node8&#45;&gt;Node10 -->
<g id="edge10" class="edge"><title>Node8&#45;&gt;Node10</title>
<path fill="none" stroke="midnightblue" d="M100.015,-213.93C93.5071,-177.92 79.6476,-101.231 75.0097,-75.5681"/>
<polygon fill="midnightblue" stroke="midnightblue" points="96.6256,-214.857 101.848,-224.075 103.514,-213.612 96.6256,-214.857"/>
</g>
<!-- Node8&#45;&gt;Node11 -->
<g id="edge11" class="edge"><title>Node8&#45;&gt;Node11</title>
<path fill="none" stroke="midnightblue" d="M111.153,-214.998C121.408,-190.997 139.152,-149.468 146.79,-131.591"/>
<polygon fill="midnightblue" stroke="midnightblue" points="107.86,-213.798 107.149,-224.368 114.297,-216.548 107.86,-213.798"/>
</g>
<!-- Node8&#45;&gt;Node12 -->
<g id="edge21" class="edge"><title>Node8&#45;&gt;Node12</title>
<path fill="none" stroke="midnightblue" d="M84.7654,-217.614C46.9045,-184.682 -31.482,-106.282 14.4612,-56 45.3135,-22.2342 362.876,-13.5655 474.176,-11.556"/>
<polygon fill="midnightblue" stroke="midnightblue" points="82.7056,-220.457 92.589,-224.274 87.243,-215.127 82.7056,-220.457"/>
</g>
<!-- Node8&#45;&gt;Node13 -->
<g id="edge22" class="edge"><title>Node8&#45;&gt;Node13</title>
<path fill="none" stroke="midnightblue" d="M116.529,-216.562C128.424,-202.377 147.047,-182.019 166.461,-168 262.473,-98.6719 405.62,-76.6497 473.741,-69.8789"/>
<polygon fill="midnightblue" stroke="midnightblue" points="113.67,-214.529 110.045,-224.484 119.087,-218.963 113.67,-214.529"/>
</g>
<!-- Node14 -->
<g id="node14" class="node"><title>Node14</title>
<g id="a_node14"><a xlink:href="tokeniser_8hpp.html" target="_top" xlink:title="Declaration of the Tokeniser class. ">
<polygon fill="white" stroke="black" points="175.961,-168.5 175.961,-187.5 284.961,-187.5 284.961,-168.5 175.961,-168.5"/>
<text text-anchor="middle" x="230.461" y="-175.5" font-family="Helvetica,sans-Serif" font-size="10.00">src/io/tokeniser.hpp</text>
</a>
</g>
</g>
<!-- Node8&#45;&gt;Node14 -->
<g id="edge17" class="edge"><title>Node8&#45;&gt;Node14</title>
<path fill="none" stroke="midnightblue" d="M132.852,-220.503C156.661,-210.38 189.567,-196.388 210.432,-187.516"/>
<polygon fill="midnightblue" stroke="midnightblue" points="131.418,-217.31 123.585,-224.444 134.157,-223.751 131.418,-217.31"/>
</g>
<!-- Node15 -->
<g id="node15" class="node"><title>Node15</title>
<g id="a_node15"><a xlink:href="tokeniser_8cpp.html" target="_top" xlink:title="Definition of the Tokeniser class. ">
<polygon fill="white" stroke="black" points="291.461,-112.5 291.461,-131.5 399.461,-131.5 399.461,-112.5 291.461,-112.5"/>
<text text-anchor="middle" x="345.461" y="-119.5" font-family="Helvetica,sans-Serif" font-size="10.00">src/io/tokeniser.cpp</text>
</a>
</g>
</g>
<!-- Node8&#45;&gt;Node15 -->
<g id="edge20" class="edge"><title>Node8&#45;&gt;Node15</title>
<path fill="none" stroke="midnightblue" d="M150.598,-224.648C151.899,-224.428 153.189,-224.212 154.461,-224 205.492,-215.504 350.827,-227.308 384.461,-188 400.033,-169.801 373.752,-144.626 357.257,-131.592"/>
<polygon fill="midnightblue" stroke="midnightblue" points="149.76,-221.24 140.494,-226.378 150.941,-228.14 149.76,-221.24"/>
</g>
<!-- Node11&#45;&gt;Node10 -->
<g id="edge12" class="edge"><title>Node11&#45;&gt;Node10</title>
<path fill="none" stroke="midnightblue" d="M129.56,-106.342C115.55,-96.5169 97.5782,-83.9132 85.8019,-75.6545"/>
<polygon fill="midnightblue" stroke="midnightblue" points="127.893,-109.448 138.09,-112.324 131.912,-103.717 127.893,-109.448"/>
</g>
<!-- Node11&#45;&gt;Node11 -->
<g id="edge13" class="edge"><title>Node11&#45;&gt;Node11</title>
<path fill="none" stroke="midnightblue" d="M189.779,-132.432C205.634,-133.04 218.961,-129.563 218.961,-122 218.961,-112.867 199.528,-109.692 179.677,-112.475"/>
<polygon fill="midnightblue" stroke="midnightblue" points="189.949,-128.933 179.677,-131.525 189.324,-135.905 189.949,-128.933"/>
</g>
<!-- Node11&#45;&gt;Node12 -->
<g id="edge14" class="edge"><title>Node11&#45;&gt;Node12</title>
<path fill="none" stroke="midnightblue" d="M188.26,-109.514C261.115,-87.3758 419.486,-39.2523 484.125,-19.6104"/>
<polygon fill="midnightblue" stroke="midnightblue" points="187.116,-106.204 178.566,-112.46 189.151,-112.901 187.116,-106.204"/>
</g>
<!-- Node11&#45;&gt;Node13 -->
<g id="edge15" class="edge"><title>Node11&#45;&gt;Node13</title>
<path fill="none" stroke="midnightblue" d="M211.391,-111.911C286.206,-100.751 410.879,-82.1532 473.726,-72.7781"/>
<polygon fill="midnightblue" stroke="midnightblue" points="210.551,-108.498 201.177,-113.435 211.584,-115.421 210.551,-108.498"/>
</g>
<!-- Node13&#45;&gt;Node12 -->
<g id="edge16" class="edge"><title>Node13&#45;&gt;Node12</title>
<path fill="none" stroke="midnightblue" d="M512.461,-45.8045C512.461,-36.9102 512.461,-26.7798 512.461,-19.7511"/>
<polygon fill="midnightblue" stroke="midnightblue" points="508.961,-46.083 512.461,-56.083 515.961,-46.083 508.961,-46.083"/>
</g>
<!-- Node14&#45;&gt;Node11 -->
<g id="edge18" class="edge"><title>Node14&#45;&gt;Node11</title>
<path fill="none" stroke="midnightblue" d="M209.161,-162.622C194.546,-152.757 175.634,-139.992 163.283,-131.655"/>
<polygon fill="midnightblue" stroke="midnightblue" points="207.361,-165.63 217.608,-168.324 211.277,-159.828 207.361,-165.63"/>
</g>
<!-- Node14&#45;&gt;Node15 -->
<g id="edge19" class="edge"><title>Node14&#45;&gt;Node15</title>
<path fill="none" stroke="midnightblue" d="M257.942,-164.096C279.427,-154.007 308.683,-140.27 327.324,-131.516"/>
<polygon fill="midnightblue" stroke="midnightblue" points="256.247,-161.025 248.683,-168.444 259.223,-167.361 256.247,-161.025"/>
</g>
<!-- Node20&#45;&gt;Node3 -->
<g id="edge40" class="edge"><title>Node20&#45;&gt;Node3</title>
<path fill="none" stroke="midnightblue" d="M951.461,-437.805C951.461,-428.91 951.461,-418.78 951.461,-411.751"/>
<polygon fill="midnightblue" stroke="midnightblue" points="947.961,-438.083 951.461,-448.083 954.961,-438.083 947.961,-438.083"/>
</g>
<!-- Node20&#45;&gt;Node4 -->
<g id="edge42" class="edge"><title>Node20&#45;&gt;Node4</title>
<path fill="none" stroke="midnightblue" d="M980.561,-443.654C993.095,-436.25 1006.46,-425.73 1013.46,-412 1023.57,-392.174 1004.63,-368.493 992.156,-355.904"/>
<polygon fill="midnightblue" stroke="midnightblue" points="978.788,-440.634 971.684,-448.495 982.139,-446.78 978.788,-440.634"/>
</g>
<!-- Node20&#45;&gt;Node5 -->
<g id="edge43" class="edge"><title>Node20&#45;&gt;Node5</title>
<path fill="none" stroke="midnightblue" d="M912.507,-445.568C877.796,-435.381 827.784,-420.703 796.48,-411.516"/>
<polygon fill="midnightblue" stroke="midnightblue" points="911.725,-448.986 922.306,-448.444 913.696,-442.269 911.725,-448.986"/>
</g>
<!-- Node20&#45;&gt;Node21 -->
<g id="edge41" class="edge"><title>Node20&#45;&gt;Node21</title>
<path fill="none" stroke="midnightblue" d="M989.15,-445.436C1022.33,-435.255 1069.89,-420.664 1099.7,-411.516"/>
<polygon fill="midnightblue" stroke="midnightblue" points="987.882,-442.164 979.349,-448.444 989.936,-448.856 987.882,-442.164"/>
</g>
<!-- Node23&#45;&gt;Node6 -->
<g id="edge50" class="edge"><title>Node23&#45;&gt;Node6</title>
<path fill="none" stroke="midnightblue" d="M515.638,-382.396C513.296,-373.362 510.593,-362.936 508.73,-355.751"/>
<polygon fill="midnightblue" stroke="midnightblue" points="512.252,-383.281 518.149,-392.083 519.028,-381.525 512.252,-383.281"/>
</g>
<!-- Node23&#45;&gt;Node7 -->
<g id="edge51" class="edge"><title>Node23&#45;&gt;Node7</title>
<path fill="none" stroke="midnightblue" d="M476.469,-389.574C451.89,-382.099 421.303,-370.933 396.461,-356 369.904,-340.036 344.327,-313.441 332.041,-299.744"/>
<polygon fill="midnightblue" stroke="midnightblue" points="475.674,-392.988 486.256,-392.453 477.65,-386.273 475.674,-392.988"/>
</g>
<!-- Node23&#45;&gt;Node13 -->
<g id="edge52" class="edge"><title>Node23&#45;&gt;Node13</title>
<path fill="none" stroke="midnightblue" d="M552.947,-388.209C568.424,-380.757 586.188,-370.033 598.461,-356 621.695,-329.436 628.557,-314.57 621.461,-280 605.128,-200.424 591.68,-181.402 549.461,-112 541.156,-98.3472 529.008,-84.4057 520.925,-75.7324"/>
<polygon fill="midnightblue" stroke="midnightblue" points="551.329,-385.1 543.676,-392.427 554.228,-391.472 551.329,-385.1"/>
</g>
<!-- Node23&#45;&gt;Node17 -->
<g id="edge54" class="edge"><title>Node23&#45;&gt;Node17</title>
<path fill="none" stroke="midnightblue" d="M472.778,-388.81C456.123,-382.015 439.178,-371.645 429.461,-356 421.557,-343.274 424.594,-306.629 436.461,-280 442.942,-265.458 455.739,-252.127 464.907,-243.813"/>
<polygon fill="midnightblue" stroke="midnightblue" points="471.9,-392.218 482.493,-392.411 474.333,-385.654 471.9,-392.218"/>
</g>
<!-- Node23&#45;&gt;Node19 -->
<g id="edge53" class="edge"><title>Node23&#45;&gt;Node19</title>
<path fill="none" stroke="midnightblue" d="M549.561,-387.654C562.095,-380.25 575.461,-369.73 582.461,-356 592.959,-335.409 570.97,-312.027 556.596,-299.691"/>
<polygon fill="midnightblue" stroke="midnightblue" points="547.788,-384.634 540.684,-392.495 551.139,-390.78 547.788,-384.634"/>
</g>
</g>
</svg>
        <g id="navigator" transform="translate(0 0)" fill="#404254">
                <rect fill="#f2f5e9" fill-opacity="0.5" stroke="#606060" stroke-width=".5" x="0" y="0" width="60" height="60"/>
                <use id="zoomplus" xlink:href="#zoomPlus" x="17" y="9" onmousedown="handleZoom(evt,'in')"/>
                <use id="zoomminus" xlink:href="#zoomMin" x="42" y="9" onmousedown="handleZoom(evt,'out')"/>
                <use id="reset" xlink:href="#resetDef" x="30" y="36" onmousedown="handleReset()"/>
                <g id="arrowUp" xlink:href="#dirArrow" transform="translate(30 24)" onmousedown="handlePan(0,-1)">
                  <use xlink:href="#rim" fill="#404040">
                        <set attributeName="fill" to="#808080" begin="arrowUp.mouseover" end="arrowUp.mouseout"/>
                  </use>
                  <path fill="none" stroke="white" stroke-width="1.5" d="M0,-3.0v7 M-2.5,-0.5L0,-3.0L2.5,-0.5"/>
                </g>
                <g id="arrowRight" xlink:href="#dirArrow" transform="rotate(90) translate(36 -43)" onmousedown="handlePan(1,0)">
                  <use xlink:href="#rim" fill="#404040">
                        <set attributeName="fill" to="#808080" begin="arrowRight.mouseover" end="arrowRight.mouseout"/>
                  </use>
                  <path fill="none" stroke="white" stroke-width="1.5" d="M0,-3.0v7 M-2.5,-0.5L0,-3.0L2.5,-0.5"/>
                </g>
                <g id="arrowDown" xlink:href="#dirArrow" transform="rotate(180) translate(-30 -48)" onmousedown="handlePan(0,1)">
                  <use xlink:href="#rim" fill="#404040">
                        <set attributeName="fill" to="#808080" begin="arrowDown.mouseover" end="arrowDown.mouseout"/>
                  </use>
                  <path fill="none" stroke="white" stroke-width="1.5" d="M0,-3.0v7 M-2.5,-0.5L0,-3.0L2.5,-0.5"/>
                </g>
                <g id="arrowLeft" xlink:href="#dirArrow" transform="rotate(270) translate(-36 17)" onmousedown="handlePan(-1,0)">
                  <use xlink:href="#rim" fill="#404040">
                        <set attributeName="fill" to="#808080" begin="arrowLeft.mouseover" end="arrowLeft.mouseout"/>
                  </use>
                  <path fill="none" stroke="white" stroke-width="1.5" d="M0,-3.0v7 M-2.5,-0.5L0,-3.0L2.5,-0.5"/>
                </g>
        </g>
        <svg viewBox="0 0 15 15" width="100%" height="30px" preserveAspectRatio="xMaxYMin meet">
         <g id="arrow_out" transform="scale(0.3 0.3)">
          <a xlink:href="audio__source_8hpp__dep__incl_org.svg" target="_base">
           <rect id="button" ry="5" rx="5" y="6" x="6" height="38" width="38"
                fill="#f2f5e9" fill-opacity="0.5" stroke="#606060" stroke-width="1.0"/>
           <path id="arrow"
             d="M 11.500037,31.436501 C 11.940474,20.09759 22.043105,11.32322 32.158766,21.979434 L 37.068811,17.246167 C 37.068811,17.246167 37.088388,32 37.088388,32 L 22.160133,31.978069 C 22.160133,31.978069 26.997745,27.140456 26.997745,27.140456 C 18.528582,18.264221 13.291696,25.230495 11.500037,31.436501 z"
             style="fill:#404040;"/>
          </a>
         </g>
        </svg>
</svg>
