<?xml version="1.0" encoding="UTF-8" standalone="no"?>
<!DOCTYPE svg PUBLIC "-//W3C//DTD SVG 1.1//EN"
 "http://www.w3.org/Graphics/SVG/1.1/DTD/svg11.dtd">
<!-- Generated by graphviz version 2.38.0 (20140413.2041)
 -->
<!-- Title: src/audio/audio_source.cpp Pages: 1 -->
<!--zoomable 196 -->
<svg id="main" version="1.1" xmlns="http://www.w3.org/2000/svg" xmlns:xlink="http://www.w3.org/1999/xlink" xml:space="preserve" onload="init(evt)">
<style type="text/css"><![CDATA[
.edge:hover path { stroke: red; }
.edge:hover polygon { stroke: red; fill: red; }
]]></style>
<script type="text/javascript"><![CDATA[
var edges = document.getElementsByTagName('g');
if (edges && edges.length) {
  for (var i=0;i<edges.length;i++) {
    if (edges[i].id.substr(0,4)=='edge') {
      edges[i].setAttribute('class','edge');
    }
  }
}
]]></script>
        <defs>
                <circle id="rim" cx="0" cy="0" r="7"/>
                <circle id="rim2" cx="0" cy="0" r="3.5"/>
                <g id="zoomPlus">
                        <use xlink:href="#rim" fill="#404040">
                                <set attributeName="fill" to="#808080" begin="zoomplus.mouseover" end="zoomplus.mouseout"/>
                        </use>
                        <path d="M-4,0h8M0,-4v8" fill="none" stroke="white" stroke-width="1.5" pointer-events="none"/>
                </g>
                <g id="zoomMin">
                        <use xlink:href="#rim" fill="#404040">
                                <set attributeName="fill" to="#808080" begin="zoomminus.mouseover" end="zoomminus.mouseout"/>
                        </use>
                        <path d="M-4,0h8" fill="none" stroke="white" stroke-width="1.5" pointer-events="none"/>
                </g>
                <g id="dirArrow">
                        <path fill="none" stroke="white" stroke-width="1.5" d="M0,-3.0v7 M-2.5,-0.5L0,-3.0L2.5,-0.5"/>
                </g>
               <g id="resetDef">
                       <use xlink:href="#rim2" fill="#404040">
                               <set attributeName="fill" to="#808080" begin="reset.mouseover" end="reset.mouseout"/>
                       </use>
               </g>
        </defs>

<script type="text/javascript">
var viewWidth = 877;
var viewHeight = 196;
var sectionId = 'dynsection-0';
</script>
<script xlink:href="svgpan.js"/>
<svg id="graph" class="graph">
<g id="viewport">
<title>src/audio/audio_source.cpp</title>
<polygon fill="white" stroke="none" points="-4,4 -4,-192 872.5,-192 872.5,4 -4,4"/>
<!-- Node1 -->
<g id="node1" class="node"><title>Node1</title>
<polygon fill="#bfbfbf" stroke="black" points="435,-168.5 435,-187.5 580,-187.5 580,-168.5 435,-168.5"/>
<text text-anchor="middle" x="507.5" y="-175.5" font-family="Helvetica,sans-Serif" font-size="10.00">src/audio/audio_source.cpp</text>
</g>
<!-- Node2 -->
<g id="node2" class="node"><title>Node2</title>
<polygon fill="white" stroke="#bfbfbf" points="0,-112.5 0,-131.5 51,-131.5 51,-112.5 0,-112.5"/>
<text text-anchor="middle" x="25.5" y="-119.5" font-family="Helvetica,sans-Serif" font-size="10.00">cassert</text>
</g>
<!-- Node1&#45;&gt;Node2 -->
<g id="edge1" class="edge"><title>Node1&#45;&gt;Node2</title>
<path fill="none" stroke="midnightblue" d="M434.799,-172.283C346.92,-165.963 194.731,-153.039 65.5,-132 64.051,-131.764 62.5758,-131.508 61.0881,-131.236"/>
<polygon fill="midnightblue" stroke="midnightblue" points="61.7243,-127.794 51.2323,-129.266 60.3525,-134.658 61.7243,-127.794"/>
</g>
<!-- Node3 -->
<g id="node3" class="node"><title>Node3</title>
<polygon fill="white" stroke="#bfbfbf" points="144,-0.5 144,-19.5 191,-19.5 191,-0.5 144,-0.5"/>
<text text-anchor="middle" x="167.5" y="-7.5" font-family="Helvetica,sans-Serif" font-size="10.00">cstdint</text>
</g>
<!-- Node1&#45;&gt;Node3 -->
<g id="edge2" class="edge"><title>Node1&#45;&gt;Node3</title>
<path fill="none" stroke="midnightblue" d="M434.647,-170.683C327.097,-159.557 134.615,-132.125 98.5,-76 84.8989,-54.8631 112.085,-35.8117 136.232,-23.8803"/>
<polygon fill="midnightblue" stroke="midnightblue" points="138.003,-26.9166 145.585,-19.517 135.043,-20.5729 138.003,-26.9166"/>
</g>
<!-- Node4 -->
<g id="node4" class="node"><title>Node4</title>
<polygon fill="white" stroke="#bfbfbf" points="694.5,-112.5 694.5,-131.5 740.5,-131.5 740.5,-112.5 694.5,-112.5"/>
<text text-anchor="middle" x="717.5" y="-119.5" font-family="Helvetica,sans-Serif" font-size="10.00">cstdlib</text>
</g>
<!-- Node1&#45;&gt;Node4 -->
<g id="edge3" class="edge"><title>Node1&#45;&gt;Node4</title>
<path fill="none" stroke="midnightblue" d="M540.775,-168.444C580.163,-158.315 645.343,-141.555 684.577,-131.466"/>
<polygon fill="midnightblue" stroke="midnightblue" points="685.623,-134.811 694.436,-128.931 683.879,-128.032 685.623,-134.811"/>
</g>
<!-- Node5 -->
<g id="node5" class="node"><title>Node5</title>
<polygon fill="white" stroke="#bfbfbf" points="542,-0.5 542,-19.5 599,-19.5 599,-0.5 542,-0.5"/>
<text text-anchor="middle" x="570.5" y="-7.5" font-family="Helvetica,sans-Serif" font-size="10.00">iostream</text>
</g>
<!-- Node1&#45;&gt;Node5 -->
<g id="edge4" class="edge"><title>Node1&#45;&gt;Node5</title>
<path fill="none" stroke="midnightblue" d="M521.689,-168.28C545.042,-152.987 590.754,-118.842 608.5,-76 615.86,-58.2322 602.209,-39.4183 589.267,-26.6291"/>
<polygon fill="midnightblue" stroke="midnightblue" points="591.623,-24.0408 581.893,-19.8487 586.885,-29.1937 591.623,-24.0408"/>
</g>
<!-- Node6 -->
<g id="node6" class="node"><title>Node6</title>
<polygon fill="white" stroke="#bfbfbf" points="759,-112.5 759,-131.5 796,-131.5 796,-112.5 759,-112.5"/>
<text text-anchor="middle" x="777.5" y="-119.5" font-family="Helvetica,sans-Serif" font-size="10.00">map</text>
</g>
<!-- Node1&#45;&gt;Node6 -->
<g id="edge5" class="edge"><title>Node1&#45;&gt;Node6</title>
<path fill="none" stroke="midnightblue" d="M564.663,-168.475C611.767,-160.973 680.43,-148.945 749.215,-131.791"/>
<polygon fill="midnightblue" stroke="midnightblue" points="750.083,-135.182 758.919,-129.336 748.367,-128.395 750.083,-135.182"/>
</g>
<!-- Node7 -->
<g id="node7" class="node"><title>Node7</title>
<polygon fill="white" stroke="#bfbfbf" points="814.5,-112.5 814.5,-131.5 868.5,-131.5 868.5,-112.5 814.5,-112.5"/>
<text text-anchor="middle" x="841.5" y="-119.5" font-family="Helvetica,sans-Serif" font-size="10.00">memory</text>
</g>
<!-- Node1&#45;&gt;Node7 -->
<g id="edge6" class="edge"><title>Node1&#45;&gt;Node7</title>
<path fill="none" stroke="midnightblue" d="M576.473,-168.478C634.772,-160.841 720.669,-148.578 804.491,-132.043"/>
<polygon fill="midnightblue" stroke="midnightblue" points="805.314,-135.448 814.436,-130.059 803.944,-128.583 805.314,-135.448"/>
</g>
<!-- Node8 -->
<g id="node8" class="node"><title>Node8</title>
<polygon fill="white" stroke="#bfbfbf" points="631.5,-0.5 631.5,-19.5 685.5,-19.5 685.5,-0.5 631.5,-0.5"/>
<text text-anchor="middle" x="658.5" y="-7.5" font-family="Helvetica,sans-Serif" font-size="10.00">sstream</text>
</g>
<!-- Node1&#45;&gt;Node8 -->
<g id="edge7" class="edge"><title>Node1&#45;&gt;Node8</title>
<path fill="none" stroke="midnightblue" d="M531.048,-168.481C549.205,-161.013 574.076,-148.729 591.5,-132 622.418,-102.315 642.794,-55.1989 652.297,-29.3922"/>
<polygon fill="midnightblue" stroke="midnightblue" points="655.673,-30.3446 655.704,-19.7498 649.073,-28.013 655.673,-30.3446"/>
</g>
<!-- Node9 -->
<g id="node9" class="node"><title>Node9</title>
<polygon fill="white" stroke="#bfbfbf" points="245,-56.5 245,-75.5 288,-75.5 288,-56.5 245,-56.5"/>
<text text-anchor="middle" x="266.5" y="-63.5" font-family="Helvetica,sans-Serif" font-size="10.00">string</text>
</g>
<!-- Node1&#45;&gt;Node9 -->
<g id="edge8" class="edge"><title>Node1&#45;&gt;Node9</title>
<path fill="none" stroke="midnightblue" d="M434.951,-172.491C374.145,-167.087 293.923,-155.612 272.5,-132 261.444,-119.814 260.999,-100.544 262.685,-86.1437"/>
<polygon fill="midnightblue" stroke="midnightblue" points="266.205,-86.2958 264.332,-75.8679 259.293,-85.1879 266.205,-86.2958"/>
</g>
<!-- Node10 -->
<g id="node10" class="node"><title>Node10</title>
<polygon fill="white" stroke="#bfbfbf" points="468,-56.5 468,-75.5 509,-75.5 509,-56.5 468,-56.5"/>
<text text-anchor="middle" x="488.5" y="-63.5" font-family="Helvetica,sans-Serif" font-size="10.00">sox.h</text>
</g>
<!-- Node1&#45;&gt;Node10 -->
<g id="edge9" class="edge"><title>Node1&#45;&gt;Node10</title>
<path fill="none" stroke="midnightblue" d="M506.009,-168.368C502.943,-150.617 495.87,-109.666 491.712,-85.5974"/>
<polygon fill="midnightblue" stroke="midnightblue" points="495.135,-84.8498 489.984,-75.5914 488.237,-86.0413 495.135,-84.8498"/>
</g>
<!-- Node11 -->
<g id="node11" class="node"><title>Node11</title>
<g id="a_node11"><a xlink:href="errors_8hpp.html" target="_top" xlink:title="Declarations of the playd Error exception set. ">
<polygon fill="white" stroke="black" points="527,-56.5 527,-75.5 600,-75.5 600,-56.5 527,-56.5"/>
<text text-anchor="middle" x="563.5" y="-63.5" font-family="Helvetica,sans-Serif" font-size="10.00">../errors.hpp</text>
</a>
</g>
</g>
<!-- Node1&#45;&gt;Node11 -->
<g id="edge10" class="edge"><title>Node1&#45;&gt;Node11</title>
<path fill="none" stroke="midnightblue" d="M511.894,-168.368C521.054,-150.376 542.347,-108.55 554.526,-84.6267"/>
<polygon fill="midnightblue" stroke="midnightblue" points="557.708,-86.091 559.126,-75.5914 551.47,-82.9152 557.708,-86.091"/>
</g>
<!-- Node12 -->
<g id="node12" class="node"><title>Node12</title>
<g id="a_node12"><a xlink:href="messages_8h.html" target="_top" xlink:title="Constant human&#45;readable messages used within playd. ">
<polygon fill="white" stroke="black" points="281.5,-112.5 281.5,-131.5 361.5,-131.5 361.5,-112.5 281.5,-112.5"/>
<text text-anchor="middle" x="321.5" y="-119.5" font-family="Helvetica,sans-Serif" font-size="10.00">../messages.h</text>
</a>
</g>
</g>
<!-- Node1&#45;&gt;Node12 -->
<g id="edge13" class="edge"><title>Node1&#45;&gt;Node12</title>
<path fill="none" stroke="midnightblue" d="M478.028,-168.444C446.329,-159.241 395.768,-144.562 360.725,-134.388"/>
<polygon fill="midnightblue" stroke="midnightblue" points="361.414,-130.943 350.834,-131.516 359.462,-137.666 361.414,-130.943"/>
</g>
<!-- Node13 -->
<g id="node13" class="node"><title>Node13</title>
<g id="a_node13"><a xlink:href="sample__formats_8hpp.html" target="_top" xlink:title="The SampleFormat enumeration. ">
<polygon fill="white" stroke="black" points="108,-56.5 108,-75.5 227,-75.5 227,-56.5 108,-56.5"/>
<text text-anchor="middle" x="167.5" y="-63.5" font-family="Helvetica,sans-Serif" font-size="10.00">../sample_formats.hpp</text>
</a>
</g>
</g>
<!-- Node1&#45;&gt;Node13 -->
<g id="edge15" class="edge"><title>Node1&#45;&gt;Node13</title>
<path fill="none" stroke="midnightblue" d="M434.921,-172.007C384.433,-166.583 316.419,-155.32 260.5,-132 231.283,-119.815 202.099,-97.3141 184.421,-82.2503"/>
<polygon fill="midnightblue" stroke="midnightblue" points="186.554,-79.4662 176.717,-75.5306 181.952,-84.7415 186.554,-79.4662"/>
</g>
<!-- Node14 -->
<g id="node14" class="node"><title>Node14</title>
<g id="a_node14"><a xlink:href="audio__source_8hpp.html" target="_top" xlink:title="Declaration of the AudioSource class. ">
<polygon fill="white" stroke="black" points="379.5,-112.5 379.5,-131.5 479.5,-131.5 479.5,-112.5 379.5,-112.5"/>
<text text-anchor="middle" x="429.5" y="-119.5" font-family="Helvetica,sans-Serif" font-size="10.00">audio_source.hpp</text>
</a>
</g>
</g>
<!-- Node1&#45;&gt;Node14 -->
<g id="edge17" class="edge"><title>Node1&#45;&gt;Node14</title>
<path fill="none" stroke="midnightblue" d="M494.968,-168.324C482.914,-159.979 464.473,-147.212 450.231,-137.352"/>
<polygon fill="midnightblue" stroke="midnightblue" points="452.215,-134.469 442.001,-131.655 448.231,-140.224 452.215,-134.469"/>
</g>
<!-- Node11&#45;&gt;Node5 -->
<g id="edge11" class="edge"><title>Node11&#45;&gt;Node5</title>
<path fill="none" stroke="midnightblue" d="M564.656,-56.083C565.584,-48.9272 566.918,-38.6353 568.077,-29.6911"/>
<polygon fill="midnightblue" stroke="midnightblue" points="571.551,-30.1181 569.366,-19.7511 564.609,-29.2181 571.551,-30.1181"/>
</g>
<!-- Node11&#45;&gt;Node8 -->
<g id="edge12" class="edge"><title>Node11&#45;&gt;Node8</title>
<path fill="none" stroke="midnightblue" d="M578.763,-56.324C593.721,-47.8215 616.755,-34.7288 634.227,-24.7975"/>
<polygon fill="midnightblue" stroke="midnightblue" points="636.31,-27.639 643.274,-19.6545 632.851,-21.5534 636.31,-27.639"/>
</g>
<!-- Node12&#45;&gt;Node9 -->
<g id="edge14" class="edge"><title>Node12&#45;&gt;Node9</title>
<path fill="none" stroke="midnightblue" d="M312.418,-112.083C304.329,-104.141 292.305,-92.3354 282.59,-82.7973"/>
<polygon fill="midnightblue" stroke="midnightblue" points="285.001,-80.2595 275.413,-75.7511 280.097,-85.2545 285.001,-80.2595"/>
</g>
<!-- Node13&#45;&gt;Node3 -->
<g id="edge16" class="edge"><title>Node13&#45;&gt;Node3</title>
<path fill="none" stroke="midnightblue" d="M167.5,-56.083C167.5,-49.0059 167.5,-38.8611 167.5,-29.9865"/>
<polygon fill="midnightblue" stroke="midnightblue" points="171,-29.751 167.5,-19.7511 164,-29.7511 171,-29.751"/>
</g>
<!-- Node14&#45;&gt;Node3 -->
<g id="edge19" class="edge"><title>Node14&#45;&gt;Node3</title>
<path fill="none" stroke="midnightblue" d="M423.022,-112.317C412.012,-98.21 388.225,-70.4401 361.5,-56 309.842,-28.0879 241.348,-17.4052 201.089,-13.376"/>
<polygon fill="midnightblue" stroke="midnightblue" points="201.283,-9.87913 191.004,-12.4476 200.641,-16.8497 201.283,-9.87913"/>
</g>
<!-- Node14&#45;&gt;Node9 -->
<g id="edge20" class="edge"><title>Node14&#45;&gt;Node9</title>
<path fill="none" stroke="midnightblue" d="M403.672,-112.444C374.96,-102.932 328.59,-87.5697 297.828,-77.3787"/>
<polygon fill="midnightblue" stroke="midnightblue" points="298.636,-73.9593 288.043,-74.1368 296.435,-80.6041 298.636,-73.9593"/>
</g>
<!-- Node14&#45;&gt;Node10 -->
<g id="edge22" class="edge"><title>Node14&#45;&gt;Node10</title>
<path fill="none" stroke="midnightblue" d="M438.979,-112.324C447.701,-104.341 460.843,-92.3128 471.398,-82.6529"/>
<polygon fill="midnightblue" stroke="midnightblue" points="473.834,-85.1674 478.848,-75.8339 469.108,-80.0036 473.834,-85.1674"/>
</g>
<!-- Node14&#45;&gt;Node11 -->
<g id="edge23" class="edge"><title>Node14&#45;&gt;Node11</title>
<path fill="none" stroke="midnightblue" d="M450.733,-112.444C472.884,-103.517 507.819,-89.4387 532.936,-79.3168"/>
<polygon fill="midnightblue" stroke="midnightblue" points="534.4,-82.5006 542.367,-75.5164 531.783,-76.0079 534.4,-82.5006"/>
</g>
<!-- Node14&#45;&gt;Node13 -->
<g id="edge24" class="edge"><title>Node14&#45;&gt;Node13</title>
<path fill="none" stroke="midnightblue" d="M387.985,-112.444C342.088,-102.984 268.12,-87.7384 218.674,-77.5472"/>
<polygon fill="midnightblue" stroke="midnightblue" points="219.321,-74.1072 208.82,-75.5164 217.908,-80.9631 219.321,-74.1072"/>
</g>
<!-- Node15 -->
<g id="node15" class="node"><title>Node15</title>
<polygon fill="white" stroke="#bfbfbf" points="409,-56.5 409,-75.5 450,-75.5 450,-56.5 409,-56.5"/>
<text text-anchor="middle" x="429.5" y="-63.5" font-family="Helvetica,sans-Serif" font-size="10.00">array</text>
</g>
<!-- Node14&#45;&gt;Node15 -->
<g id="edge18" class="edge"><title>Node14&#45;&gt;Node15</title>
<path fill="none" stroke="midnightblue" d="M429.5,-112.083C429.5,-105.006 429.5,-94.8611 429.5,-85.9865"/>
<polygon fill="midnightblue" stroke="midnightblue" points="433,-85.751 429.5,-75.7511 426,-85.7511 433,-85.751"/>
</g>
<!-- Node16 -->
<g id="node16" class="node"><title>Node16</title>
<polygon fill="white" stroke="#bfbfbf" points="306.5,-56.5 306.5,-75.5 352.5,-75.5 352.5,-56.5 306.5,-56.5"/>
<text text-anchor="middle" x="329.5" y="-63.5" font-family="Helvetica,sans-Serif" font-size="10.00">vector</text>
</g>
<!-- Node14&#45;&gt;Node16 -->
<g id="edge21" class="edge"><title>Node14&#45;&gt;Node16</title>
<path fill="none" stroke="midnightblue" d="M413.433,-112.324C397.542,-103.743 372.993,-90.486 354.542,-80.5224"/>
<polygon fill="midnightblue" stroke="midnightblue" points="355.989,-77.3264 345.527,-75.6545 352.663,-83.4857 355.989,-77.3264"/>
</g>
</g>
</svg>
        <g id="navigator" transform="translate(0 0)" fill="#404254">
                <rect fill="#f2f5e9" fill-opacity="0.5" stroke="#606060" stroke-width=".5" x="0" y="0" width="60" height="60"/>
                <use id="zoomplus" xlink:href="#zoomPlus" x="17" y="9" onmousedown="handleZoom(evt,'in')"/>
                <use id="zoomminus" xlink:href="#zoomMin" x="42" y="9" onmousedown="handleZoom(evt,'out')"/>
                <use id="reset" xlink:href="#resetDef" x="30" y="36" onmousedown="handleReset()"/>
                <g id="arrowUp" xlink:href="#dirArrow" transform="translate(30 24)" onmousedown="handlePan(0,-1)">
                  <use xlink:href="#rim" fill="#404040">
                        <set attributeName="fill" to="#808080" begin="arrowUp.mouseover" end="arrowUp.mouseout"/>
                  </use>
                  <path fill="none" stroke="white" stroke-width="1.5" d="M0,-3.0v7 M-2.5,-0.5L0,-3.0L2.5,-0.5"/>
                </g>
                <g id="arrowRight" xlink:href="#dirArrow" transform="rotate(90) translate(36 -43)" onmousedown="handlePan(1,0)">
                  <use xlink:href="#rim" fill="#404040">
                        <set attributeName="fill" to="#808080" begin="arrowRight.mouseover" end="arrowRight.mouseout"/>
                  </use>
                  <path fill="none" stroke="white" stroke-width="1.5" d="M0,-3.0v7 M-2.5,-0.5L0,-3.0L2.5,-0.5"/>
                </g>
                <g id="arrowDown" xlink:href="#dirArrow" transform="rotate(180) translate(-30 -48)" onmousedown="handlePan(0,1)">
                  <use xlink:href="#rim" fill="#404040">
                        <set attributeName="fill" to="#808080" begin="arrowDown.mouseover" end="arrowDown.mouseout"/>
                  </use>
                  <path fill="none" stroke="white" stroke-width="1.5" d="M0,-3.0v7 M-2.5,-0.5L0,-3.0L2.5,-0.5"/>
                </g>
                <g id="arrowLeft" xlink:href="#dirArrow" transform="rotate(270) translate(-36 17)" onmousedown="handlePan(-1,0)">
                  <use xlink:href="#rim" fill="#404040">
                        <set attributeName="fill" to="#808080" begin="arrowLeft.mouseover" end="arrowLeft.mouseout"/>
                  </use>
                  <path fill="none" stroke="white" stroke-width="1.5" d="M0,-3.0v7 M-2.5,-0.5L0,-3.0L2.5,-0.5"/>
                </g>
        </g>
        <svg viewBox="0 0 15 15" width="100%" height="30px" preserveAspectRatio="xMaxYMin meet">
         <g id="arrow_out" transform="scale(0.3 0.3)">
          <a xlink:href="audio__source_8cpp__incl_org.svg" target="_base">
           <rect id="button" ry="5" rx="5" y="6" x="6" height="38" width="38"
                fill="#f2f5e9" fill-opacity="0.5" stroke="#606060" stroke-width="1.0"/>
           <path id="arrow"
             d="M 11.500037,31.436501 C 11.940474,20.09759 22.043105,11.32322 32.158766,21.979434 L 37.068811,17.246167 C 37.068811,17.246167 37.088388,32 37.088388,32 L 22.160133,31.978069 C 22.160133,31.978069 26.997745,27.140456 26.997745,27.140456 C 18.528582,18.264221 13.291696,25.230495 11.500037,31.436501 z"
             style="fill:#404040;"/>
          </a>
         </g>
        </svg>
</svg>
