<?xml version="1.0" encoding="UTF-8" standalone="no"?>
<!DOCTYPE svg PUBLIC "-//W3C//DTD SVG 1.1//EN"
 "http://www.w3.org/Graphics/SVG/1.1/DTD/svg11.dtd">
<!-- Generated by graphviz version 2.38.0 (20140413.2041)
 -->
<!-- Title: playd Pages: 1 -->
<svg width="2026pt" height="335pt"
 viewBox="0.00 0.00 2026.00 335.08" xmlns="http://www.w3.org/2000/svg" xmlns:xlink="http://www.w3.org/1999/xlink">
<g id="graph0" class="graph" transform="scale(1 1) rotate(0) translate(4 331.077)">
<title>playd</title>
<polygon fill="white" stroke="none" points="-4,4 -4,-331.077 2022,-331.077 2022,4 -4,4"/>
<!-- Node1 -->
<g id="node1" class="node"><title>Node1</title>
<polygon fill="#bfbfbf" stroke="black" points="1976,-114.5 1976,-133.5 2018,-133.5 2018,-114.5 1976,-114.5"/>
<text text-anchor="middle" x="1997" y="-121.5" font-family="Helvetica,sans-Serif" font-size="10.00">playd</text>
</g>
<!-- Node2 -->
<g id="node2" class="node"><title>Node2</title>
<g id="a_node2"><a xlink:href="classTimeParser.html" target="_top" xlink:title="TimeParser\&lt; std::chrono\l::microseconds \&gt;">
<polygon fill="white" stroke="black" points="1050,-222 1050,-252 1182,-252 1182,-222 1050,-222"/>
<text text-anchor="start" x="1058" y="-240" font-family="Helvetica,sans-Serif" font-size="10.00">TimeParser&lt; std::chrono</text>
<text text-anchor="middle" x="1116" y="-229" font-family="Helvetica,sans-Serif" font-size="10.00">::microseconds &gt;</text>
</a>
</g>
</g>
<!-- Node2&#45;&gt;Node1 -->
<g id="edge1" class="edge"><title>Node2&#45;&gt;Node1</title>
<path fill="none" stroke="#9a32cd" stroke-dasharray="5,2" d="M1161.9,-255.604C1198.53,-269.101 1251.98,-285 1300.5,-285 1300.5,-285 1300.5,-285 1854.5,-285 1935.62,-285 1981.19,-168.249 1992.93,-133.589"/>
<polygon fill="#9a32cd" stroke="#9a32cd" points="1163.08,-252.311 1152.49,-252.056 1160.61,-258.861 1163.08,-252.311"/>
<text text-anchor="middle" x="1591.5" y="-288" font-family="Helvetica,sans-Serif" font-size="10.00"> time_parser</text>
</g>
<!-- Node6 -->
<g id="node6" class="node"><title>Node6</title>
<g id="a_node6"><a xlink:href="classPlayer.html" target="_top" xlink:title="A Player contains a loaded audio file and the state of its playback. ">
<polygon fill="white" stroke="black" points="1278,-169.5 1278,-188.5 1325,-188.5 1325,-169.5 1278,-169.5"/>
<text text-anchor="middle" x="1301.5" y="-176.5" font-family="Helvetica,sans-Serif" font-size="10.00">Player</text>
</a>
</g>
</g>
<!-- Node2&#45;&gt;Node6 -->
<g id="edge6" class="edge"><title>Node2&#45;&gt;Node6</title>
<path fill="none" stroke="#9a32cd" stroke-dasharray="5,2" d="M1192,-222.757C1214.29,-217.433 1238.48,-210.551 1260,-202 1269.02,-198.417 1278.48,-193.139 1285.99,-188.543"/>
<polygon fill="#9a32cd" stroke="#9a32cd" points="1191.2,-219.35 1182.25,-225.018 1192.78,-226.169 1191.2,-219.35"/>
<text text-anchor="middle" x="1230" y="-224" font-family="Helvetica,sans-Serif" font-size="10.00"> time_parser</text>
</g>
<!-- Node3 -->
<g id="node3" class="node"><title>Node3</title>
<polygon fill="white" stroke="#bfbfbf" points="1779,-180.5 1779,-199.5 1928,-199.5 1928,-180.5 1779,-180.5"/>
<text text-anchor="middle" x="1853.5" y="-187.5" font-family="Helvetica,sans-Serif" font-size="10.00">std::unique_ptr&lt; IoReactor &gt;</text>
</g>
<!-- Node3&#45;&gt;Node1 -->
<g id="edge2" class="edge"><title>Node3&#45;&gt;Node1</title>
<path fill="none" stroke="#9a32cd" stroke-dasharray="5,2" d="M1909.89,-177.642C1926,-172.803 1943.22,-166.36 1958,-158 1969.4,-151.548 1980.32,-141.193 1987.51,-133.603"/>
<polygon fill="#9a32cd" stroke="#9a32cd" points="1908.7,-174.343 1900.04,-180.45 1910.61,-181.075 1908.7,-174.343"/>
<text text-anchor="middle" x="1952" y="-167" font-family="Helvetica,sans-Serif" font-size="10.00"> io</text>
</g>
<!-- Node4 -->
<g id="node4" class="node"><title>Node4</title>
<g id="a_node4"><a xlink:href="classIoReactor.html" target="_top" xlink:title="The IO reactor, which services input, routes responses, and executes the Player update routine period...">
<polygon fill="white" stroke="black" points="1640,-201.5 1640,-220.5 1703,-220.5 1703,-201.5 1640,-201.5"/>
<text text-anchor="middle" x="1671.5" y="-208.5" font-family="Helvetica,sans-Serif" font-size="10.00">IoReactor</text>
</a>
</g>
</g>
<!-- Node4&#45;&gt;Node3 -->
<g id="edge3" class="edge"><title>Node4&#45;&gt;Node3</title>
<path fill="none" stroke="#9a32cd" stroke-dasharray="5,2" d="M1713.02,-206.272C1732.41,-204.011 1756.24,-201.231 1778.68,-198.613"/>
<polygon fill="#9a32cd" stroke="#9a32cd" points="1712.56,-202.802 1703.03,-207.438 1713.37,-209.755 1712.56,-202.802"/>
<text text-anchor="middle" x="1741" y="-208" font-family="Helvetica,sans-Serif" font-size="10.00"> ptr</text>
</g>
<!-- Node5 -->
<g id="node5" class="node"><title>Node5</title>
<g id="a_node5"><a xlink:href="classResponseSink.html" target="_top" xlink:title="Abstract class for anything that can be sent a response. ">
<polygon fill="white" stroke="black" points="585,-271.5 585,-290.5 670,-290.5 670,-271.5 585,-271.5"/>
<text text-anchor="middle" x="627.5" y="-278.5" font-family="Helvetica,sans-Serif" font-size="10.00">ResponseSink</text>
</a>
</g>
</g>
<!-- Node5&#45;&gt;Node4 -->
<g id="edge4" class="edge"><title>Node5&#45;&gt;Node4</title>
<path fill="none" stroke="midnightblue" d="M664.452,-293.72C702.65,-306.081 765.059,-323 820.5,-323 820.5,-323 820.5,-323 1469.5,-323 1538.04,-323 1565.85,-339.31 1622,-300 1649.97,-280.422 1663.4,-239.406 1668.26,-220.687"/>
<polygon fill="midnightblue" stroke="midnightblue" points="665.407,-290.349 654.813,-290.53 663.208,-296.995 665.407,-290.349"/>
</g>
<!-- Node5&#45;&gt;Node6 -->
<g id="edge7" class="edge"><title>Node5&#45;&gt;Node6</title>
<path fill="none" stroke="#9a32cd" stroke-dasharray="5,2" d="M680.208,-283.809C778.717,-288.132 999.724,-292.879 1182,-261 1217.86,-254.728 1230.62,-257.494 1260,-236 1277.24,-223.385 1289.92,-201.174 1296.16,-188.524"/>
<polygon fill="#9a32cd" stroke="#9a32cd" points="680.367,-280.313 670.217,-283.353 680.048,-287.305 680.367,-280.313"/>
<text text-anchor="middle" x="968" y="-289" font-family="Helvetica,sans-Serif" font-size="10.00"> end_sink</text>
</g>
<!-- Node8 -->
<g id="node8" class="node"><title>Node8</title>
<g id="a_node8"><a xlink:href="classResponseSource.html" target="_top" xlink:title="Abstract helper class for sources of responses. ">
<polygon fill="white" stroke="black" points="772.5,-208.5 772.5,-227.5 870.5,-227.5 870.5,-208.5 772.5,-208.5"/>
<text text-anchor="middle" x="821.5" y="-215.5" font-family="Helvetica,sans-Serif" font-size="10.00">ResponseSource</text>
</a>
</g>
</g>
<!-- Node5&#45;&gt;Node8 -->
<g id="edge10" class="edge"><title>Node5&#45;&gt;Node8</title>
<path fill="none" stroke="#9a32cd" stroke-dasharray="5,2" d="M658.716,-267.489C668.019,-263.55 678.352,-259.397 688,-256 719.489,-244.913 756.004,-234.626 782.718,-227.558"/>
<polygon fill="#9a32cd" stroke="#9a32cd" points="657.265,-264.303 649.466,-271.474 660.035,-270.731 657.265,-264.303"/>
<text text-anchor="middle" x="713.5" y="-259" font-family="Helvetica,sans-Serif" font-size="10.00"> push_sink</text>
</g>
<!-- Node6&#45;&gt;Node1 -->
<g id="edge34" class="edge"><title>Node6&#45;&gt;Node1</title>
<path fill="none" stroke="#9a32cd" stroke-dasharray="5,2" d="M1322.83,-163.102C1352.74,-141.356 1411.17,-105 1467.5,-105 1467.5,-105 1467.5,-105 1854.5,-105 1898.12,-105 1948.65,-113.98 1975.96,-119.593"/>
<polygon fill="#9a32cd" stroke="#9a32cd" points="1320.42,-160.538 1314.5,-169.326 1324.6,-166.146 1320.42,-160.538"/>
<text text-anchor="middle" x="1671.5" y="-108" font-family="Helvetica,sans-Serif" font-size="10.00"> player</text>
</g>
<!-- Node6&#45;&gt;Node4 -->
<g id="edge5" class="edge"><title>Node6&#45;&gt;Node4</title>
<path fill="none" stroke="#9a32cd" stroke-dasharray="5,2" d="M1328.57,-193.26C1346.41,-202.221 1370.93,-213 1394,-218 1493.05,-239.467 1521.28,-233.279 1622,-222 1627.83,-221.347 1633.99,-220.264 1639.89,-219.027"/>
<polygon fill="#9a32cd" stroke="#9a32cd" points="1329.88,-190 1319.39,-188.517 1326.67,-196.218 1329.88,-190"/>
<text text-anchor="middle" x="1468.5" y="-236" font-family="Helvetica,sans-Serif" font-size="10.00"> player</text>
</g>
<!-- Node27 -->
<g id="node27" class="node"><title>Node27</title>
<g id="a_node27"><a xlink:href="classCommandHandler.html" target="_top" xlink:title="The playd command handler. ">
<polygon fill="white" stroke="black" points="1417.5,-140.5 1417.5,-159.5 1519.5,-159.5 1519.5,-140.5 1417.5,-140.5"/>
<text text-anchor="middle" x="1468.5" y="-147.5" font-family="Helvetica,sans-Serif" font-size="10.00">CommandHandler</text>
</a>
</g>
</g>
<!-- Node6&#45;&gt;Node27 -->
<g id="edge33" class="edge"><title>Node6&#45;&gt;Node27</title>
<path fill="none" stroke="#9a32cd" stroke-dasharray="5,2" d="M1335.23,-173.248C1358.69,-169.124 1390.74,-163.491 1417.42,-158.802"/>
<polygon fill="#9a32cd" stroke="#9a32cd" points="1334.34,-169.85 1325.1,-175.028 1335.55,-176.745 1334.34,-169.85"/>
<text text-anchor="middle" x="1359.5" y="-175" font-family="Helvetica,sans-Serif" font-size="10.00"> player</text>
</g>
<!-- Node7 -->
<g id="node7" class="node"><title>Node7</title>
<g id="a_node7"><a xlink:href="classPlayerFile.html" target="_top" xlink:title="The subcomponent of a Player that stores the audio file. ">
<polygon fill="white" stroke="black" points="1084.5,-107.5 1084.5,-126.5 1147.5,-126.5 1147.5,-107.5 1084.5,-107.5"/>
<text text-anchor="middle" x="1116" y="-114.5" font-family="Helvetica,sans-Serif" font-size="10.00">PlayerFile</text>
</a>
</g>
</g>
<!-- Node7&#45;&gt;Node6 -->
<g id="edge8" class="edge"><title>Node7&#45;&gt;Node6</title>
<path fill="none" stroke="#9a32cd" stroke-dasharray="5,2" d="M1157.61,-119.995C1187.17,-123.399 1227.53,-130.64 1260,-146 1272.13,-151.741 1283.77,-161.873 1291.44,-169.401"/>
<polygon fill="#9a32cd" stroke="#9a32cd" points="1157.95,-116.511 1147.63,-118.943 1157.21,-123.472 1157.95,-116.511"/>
<text text-anchor="middle" x="1230" y="-149" font-family="Helvetica,sans-Serif" font-size="10.00"> file</text>
</g>
<!-- Node8&#45;&gt;Node7 -->
<g id="edge9" class="edge"><title>Node8&#45;&gt;Node7</title>
<path fill="none" stroke="midnightblue" d="M864.36,-205.669C877.051,-202.071 891.058,-198.239 904,-195 960.492,-180.863 984.947,-201.31 1032,-167 1044.87,-157.613 1037.46,-145.825 1050,-136 1059.81,-128.314 1072.64,-123.736 1084.31,-121.009"/>
<polygon fill="midnightblue" stroke="midnightblue" points="863.161,-202.372 854.51,-208.489 865.087,-209.102 863.161,-202.372"/>
</g>
<!-- Node23 -->
<g id="node23" class="node"><title>Node23</title>
<g id="a_node23"><a xlink:href="classPlayerState.html" target="_top" xlink:title="An object holding and representing the current state of a Player. ">
<polygon fill="white" stroke="black" points="1080.5,-145.5 1080.5,-164.5 1151.5,-164.5 1151.5,-145.5 1080.5,-145.5"/>
<text text-anchor="middle" x="1116" y="-152.5" font-family="Helvetica,sans-Serif" font-size="10.00">PlayerState</text>
</a>
</g>
</g>
<!-- Node8&#45;&gt;Node23 -->
<g id="edge26" class="edge"><title>Node8&#45;&gt;Node23</title>
<path fill="none" stroke="midnightblue" d="M881.102,-214.979C933.616,-211.508 1006.22,-204.594 1032,-192 1042.17,-187.034 1040.27,-179.767 1050,-174 1059.2,-168.546 1070.08,-164.569 1080.27,-161.708"/>
<polygon fill="midnightblue" stroke="midnightblue" points="880.645,-211.501 870.887,-215.628 881.089,-218.487 880.645,-211.501"/>
</g>
<!-- Node25 -->
<g id="node25" class="node"><title>Node25</title>
<g id="a_node25"><a xlink:href="classPlayerPosition.html" target="_top" xlink:title="Tracker and broadcaster for the Player&#39;s current position in a song. ">
<polygon fill="white" stroke="black" points="1074,-183.5 1074,-202.5 1158,-202.5 1158,-183.5 1074,-183.5"/>
<text text-anchor="middle" x="1116" y="-190.5" font-family="Helvetica,sans-Serif" font-size="10.00">PlayerPosition</text>
</a>
</g>
</g>
<!-- Node8&#45;&gt;Node25 -->
<g id="edge30" class="edge"><title>Node8&#45;&gt;Node25</title>
<path fill="none" stroke="midnightblue" d="M880.722,-222.009C922.938,-223.876 981.282,-224.309 1032,-217 1033.35,-216.806 1059.79,-209.132 1082.48,-202.514"/>
<polygon fill="midnightblue" stroke="midnightblue" points="880.779,-218.508 870.621,-221.521 880.441,-225.5 880.779,-218.508"/>
</g>
<!-- Node9 -->
<g id="node9" class="node"><title>Node9</title>
<polygon fill="white" stroke="#bfbfbf" points="757,-132.5 757,-151.5 886,-151.5 886,-132.5 757,-132.5"/>
<text text-anchor="middle" x="821.5" y="-139.5" font-family="Helvetica,sans-Serif" font-size="10.00">std::unique_ptr&lt; Audio &gt;</text>
</g>
<!-- Node9&#45;&gt;Node7 -->
<g id="edge11" class="edge"><title>Node9&#45;&gt;Node7</title>
<path fill="none" stroke="#9a32cd" stroke-dasharray="5,2" d="M864.156,-129.935C876.84,-126.762 890.895,-123.742 904,-122 967.746,-113.525 1043.26,-114.32 1084.44,-115.658"/>
<polygon fill="#9a32cd" stroke="#9a32cd" points="863.12,-126.588 854.322,-132.491 864.881,-133.363 863.12,-126.588"/>
<text text-anchor="middle" x="968" y="-125" font-family="Helvetica,sans-Serif" font-size="10.00"> audio</text>
</g>
<!-- Node10 -->
<g id="node10" class="node"><title>Node10</title>
<g id="a_node10"><a xlink:href="classAudio.html" target="_top" xlink:title="An audio file. ">
<polygon fill="white" stroke="black" points="606,-132.5 606,-151.5 649,-151.5 649,-132.5 606,-132.5"/>
<text text-anchor="middle" x="627.5" y="-139.5" font-family="Helvetica,sans-Serif" font-size="10.00">Audio</text>
</a>
</g>
</g>
<!-- Node10&#45;&gt;Node9 -->
<g id="edge12" class="edge"><title>Node10&#45;&gt;Node9</title>
<path fill="none" stroke="#9a32cd" stroke-dasharray="5,2" d="M659.125,-142C685.325,-142 723.901,-142 756.767,-142"/>
<polygon fill="#9a32cd" stroke="#9a32cd" points="659.047,-138.5 649.047,-142 659.047,-145.5 659.047,-138.5"/>
<text text-anchor="middle" x="713.5" y="-145" font-family="Helvetica,sans-Serif" font-size="10.00"> ptr</text>
</g>
<!-- Node11 -->
<g id="node11" class="node"><title>Node11</title>
<polygon fill="white" stroke="#bfbfbf" points="358.5,-170.5 358.5,-189.5 507.5,-189.5 507.5,-170.5 358.5,-170.5"/>
<text text-anchor="middle" x="433" y="-177.5" font-family="Helvetica,sans-Serif" font-size="10.00">std::unique_ptr&lt; AudioSink &gt;</text>
</g>
<!-- Node11&#45;&gt;Node10 -->
<g id="edge13" class="edge"><title>Node11&#45;&gt;Node10</title>
<path fill="none" stroke="#9a32cd" stroke-dasharray="5,2" d="M500.364,-168.732C521.688,-164.922 545.383,-160.49 567,-156 579.988,-153.302 594.478,-149.901 605.907,-147.127"/>
<polygon fill="#9a32cd" stroke="#9a32cd" points="499.664,-165.301 490.428,-170.493 500.886,-172.194 499.664,-165.301"/>
<text text-anchor="middle" x="549.5" y="-166" font-family="Helvetica,sans-Serif" font-size="10.00"> sink</text>
</g>
<!-- Node12 -->
<g id="node12" class="node"><title>Node12</title>
<g id="a_node12"><a xlink:href="classAudioSink.html" target="_top" xlink:title="An output stream for an Audio file. ">
<polygon fill="white" stroke="black" points="230.5,-192.5 230.5,-211.5 293.5,-211.5 293.5,-192.5 230.5,-192.5"/>
<text text-anchor="middle" x="262" y="-199.5" font-family="Helvetica,sans-Serif" font-size="10.00">AudioSink</text>
</a>
</g>
</g>
<!-- Node12&#45;&gt;Node11 -->
<g id="edge14" class="edge"><title>Node12&#45;&gt;Node11</title>
<path fill="none" stroke="#9a32cd" stroke-dasharray="5,2" d="M303.968,-196.667C320.466,-194.519 340.01,-191.975 358.796,-189.53"/>
<polygon fill="#9a32cd" stroke="#9a32cd" points="303.069,-193.254 293.605,-198.016 303.973,-200.196 303.069,-193.254"/>
<text text-anchor="middle" x="326" y="-198" font-family="Helvetica,sans-Serif" font-size="10.00"> ptr</text>
</g>
<!-- Node13 -->
<g id="node13" class="node"><title>Node13</title>
<polygon fill="white" stroke="#bfbfbf" points="0,-170.5 0,-189.5 147,-189.5 147,-170.5 0,-170.5"/>
<text text-anchor="middle" x="73.5" y="-177.5" font-family="Helvetica,sans-Serif" font-size="10.00">portaudio::CallbackInterface</text>
</g>
<!-- Node13&#45;&gt;Node12 -->
<g id="edge15" class="edge"><title>Node13&#45;&gt;Node12</title>
<path fill="none" stroke="#8b1a1a" d="M157.375,-189.776C183.267,-192.83 210.24,-196.012 230.174,-198.364"/>
<polygon fill="#8b1a1a" stroke="#8b1a1a" points="157.481,-186.264 147.14,-188.569 156.661,-193.216 157.481,-186.264"/>
</g>
<!-- Node14 -->
<g id="node14" class="node"><title>Node14</title>
<g id="a_node14"><a xlink:href="classRingBuffer.html" target="_top" xlink:title="RingBuffer\&lt; char, unsigned\l long \&gt;">
<polygon fill="white" stroke="black" points="1.5,-258 1.5,-288 145.5,-288 145.5,-258 1.5,-258"/>
<text text-anchor="start" x="9.5" y="-276" font-family="Helvetica,sans-Serif" font-size="10.00">RingBuffer&lt; char, unsigned</text>
<text text-anchor="middle" x="73.5" y="-265" font-family="Helvetica,sans-Serif" font-size="10.00"> long &gt;</text>
</a>
</g>
</g>
<!-- Node14&#45;&gt;Node12 -->
<g id="edge16" class="edge"><title>Node14&#45;&gt;Node12</title>
<path fill="none" stroke="#9a32cd" stroke-dasharray="5,2" d="M132.421,-254.734C155.526,-247.045 182.231,-237.65 206,-228 218.233,-223.034 231.632,-216.719 242.143,-211.556"/>
<polygon fill="#9a32cd" stroke="#9a32cd" points="131.16,-251.464 122.759,-257.92 133.352,-258.112 131.16,-251.464"/>
<text text-anchor="middle" x="185.5" y="-246" font-family="Helvetica,sans-Serif" font-size="10.00"> ring_buf</text>
</g>
<!-- Node15 -->
<g id="node15" class="node"><title>Node15</title>
<polygon fill="white" stroke="#bfbfbf" points="4.5,-209 4.5,-239 142.5,-239 142.5,-209 4.5,-209"/>
<text text-anchor="start" x="12.5" y="-227" font-family="Helvetica,sans-Serif" font-size="10.00">std::unique_ptr&lt; portaudio</text>
<text text-anchor="middle" x="73.5" y="-216" font-family="Helvetica,sans-Serif" font-size="10.00">::Stream &gt;</text>
</g>
<!-- Node15&#45;&gt;Node12 -->
<g id="edge17" class="edge"><title>Node15&#45;&gt;Node12</title>
<path fill="none" stroke="#9a32cd" stroke-dasharray="5,2" d="M152.572,-214.79C179.845,-211.573 208.898,-208.146 230.059,-205.65"/>
<polygon fill="#9a32cd" stroke="#9a32cd" points="152.144,-211.317 142.622,-215.964 152.964,-218.268 152.144,-211.317"/>
<text text-anchor="middle" x="185.5" y="-216" font-family="Helvetica,sans-Serif" font-size="10.00"> stream</text>
</g>
<!-- Node16 -->
<g id="node16" class="node"><title>Node16</title>
<polygon fill="white" stroke="#bfbfbf" points="352,-132.5 352,-151.5 514,-151.5 514,-132.5 352,-132.5"/>
<text text-anchor="middle" x="433" y="-139.5" font-family="Helvetica,sans-Serif" font-size="10.00">std::unique_ptr&lt; AudioSource &gt;</text>
</g>
<!-- Node16&#45;&gt;Node10 -->
<g id="edge18" class="edge"><title>Node16&#45;&gt;Node10</title>
<path fill="none" stroke="#9a32cd" stroke-dasharray="5,2" d="M524.492,-142C554.851,-142 585.976,-142 605.729,-142"/>
<polygon fill="#9a32cd" stroke="#9a32cd" points="524.243,-138.5 514.243,-142 524.243,-145.5 524.243,-138.5"/>
<text text-anchor="middle" x="549.5" y="-145" font-family="Helvetica,sans-Serif" font-size="10.00"> source</text>
</g>
<!-- Node17 -->
<g id="node17" class="node"><title>Node17</title>
<g id="a_node17"><a xlink:href="classAudioSource.html" target="_top" xlink:title="An object responsible for decoding an audio file. ">
<polygon fill="white" stroke="black" points="224,-132.5 224,-151.5 300,-151.5 300,-132.5 224,-132.5"/>
<text text-anchor="middle" x="262" y="-139.5" font-family="Helvetica,sans-Serif" font-size="10.00">AudioSource</text>
</a>
</g>
</g>
<!-- Node17&#45;&gt;Node16 -->
<g id="edge19" class="edge"><title>Node17&#45;&gt;Node16</title>
<path fill="none" stroke="#9a32cd" stroke-dasharray="5,2" d="M310.117,-142C323.053,-142 337.452,-142 351.692,-142"/>
<polygon fill="#9a32cd" stroke="#9a32cd" points="310.088,-138.5 300.088,-142 310.088,-145.5 310.088,-138.5"/>
<text text-anchor="middle" x="326" y="-145" font-family="Helvetica,sans-Serif" font-size="10.00"> ptr</text>
</g>
<!-- Node18 -->
<g id="node18" class="node"><title>Node18</title>
<polygon fill="white" stroke="#bfbfbf" points="16.5,-132.5 16.5,-151.5 130.5,-151.5 130.5,-132.5 16.5,-132.5"/>
<text text-anchor="middle" x="73.5" y="-139.5" font-family="Helvetica,sans-Serif" font-size="10.00">std::vector&lt; uint8_t &gt;</text>
</g>
<!-- Node18&#45;&gt;Node17 -->
<g id="edge20" class="edge"><title>Node18&#45;&gt;Node17</title>
<path fill="none" stroke="#9a32cd" stroke-dasharray="5,2" d="M140.799,-142C168.672,-142 200.061,-142 223.771,-142"/>
<polygon fill="#9a32cd" stroke="#9a32cd" points="140.709,-138.5 130.709,-142 140.709,-145.5 140.709,-138.5"/>
<text text-anchor="middle" x="185.5" y="-145" font-family="Helvetica,sans-Serif" font-size="10.00"> buffer</text>
</g>
<!-- Node19 -->
<g id="node19" class="node"><title>Node19</title>
<polygon fill="white" stroke="#bfbfbf" points="366.5,-94.5 366.5,-113.5 499.5,-113.5 499.5,-94.5 366.5,-94.5"/>
<text text-anchor="middle" x="433" y="-101.5" font-family="Helvetica,sans-Serif" font-size="10.00">std::vector&lt; std::uint8_t &gt;</text>
</g>
<!-- Node19&#45;&gt;Node10 -->
<g id="edge21" class="edge"><title>Node19&#45;&gt;Node10</title>
<path fill="none" stroke="#9a32cd" stroke-dasharray="5,2" d="M504.812,-115.222C524.966,-118.693 546.9,-122.735 567,-127 580.026,-129.764 594.517,-133.405 605.937,-136.408"/>
<polygon fill="#9a32cd" stroke="#9a32cd" points="505.212,-111.74 494.767,-113.513 504.038,-118.641 505.212,-111.74"/>
<text text-anchor="middle" x="549.5" y="-130" font-family="Helvetica,sans-Serif" font-size="10.00"> frame</text>
</g>
<!-- Node20 -->
<g id="node20" class="node"><title>Node20</title>
<g id="a_node20"><a xlink:href="classAudioSystem.html" target="_top" xlink:title="An AudioSystem represents the entire audio stack used by playd. ">
<polygon fill="white" stroke="black" points="783,-44.5 783,-63.5 860,-63.5 860,-44.5 783,-44.5"/>
<text text-anchor="middle" x="821.5" y="-51.5" font-family="Helvetica,sans-Serif" font-size="10.00">AudioSystem</text>
</a>
</g>
</g>
<!-- Node20&#45;&gt;Node1 -->
<g id="edge38" class="edge"><title>Node20&#45;&gt;Node1</title>
<path fill="none" stroke="#9a32cd" stroke-dasharray="5,2" d="M870.683,-54C928.659,-54 1028.95,-54 1115,-54 1115,-54 1115,-54 1854.5,-54 1908.22,-54 1962.63,-95.0327 1985.18,-114.267"/>
<polygon fill="#9a32cd" stroke="#9a32cd" points="870.364,-50.5001 860.364,-54 870.363,-57.5001 870.364,-50.5001"/>
<text text-anchor="middle" x="1468.5" y="-57" font-family="Helvetica,sans-Serif" font-size="10.00"> audio</text>
</g>
<!-- Node20&#45;&gt;Node7 -->
<g id="edge22" class="edge"><title>Node20&#45;&gt;Node7</title>
<path fill="none" stroke="#9a32cd" stroke-dasharray="5,2" d="M870.193,-64.2723C930.648,-77.2933 1033.12,-99.3653 1084.18,-110.362"/>
<polygon fill="#9a32cd" stroke="#9a32cd" points="870.653,-60.7913 860.14,-62.1072 869.179,-67.6343 870.653,-60.7913"/>
<text text-anchor="middle" x="968" y="-102" font-family="Helvetica,sans-Serif" font-size="10.00"> audio_system</text>
</g>
<!-- Node21 -->
<g id="node21" class="node"><title>Node21</title>
<g id="a_node21"><a xlink:title="STL class. ">
<polygon fill="white" stroke="#bfbfbf" points="596.5,-44.5 596.5,-63.5 658.5,-63.5 658.5,-44.5 596.5,-44.5"/>
<text text-anchor="middle" x="627.5" y="-51.5" font-family="Helvetica,sans-Serif" font-size="10.00">std::string</text>
</a>
</g>
</g>
<!-- Node21&#45;&gt;Node20 -->
<g id="edge23" class="edge"><title>Node21&#45;&gt;Node20</title>
<path fill="none" stroke="#9a32cd" stroke-dasharray="5,2" d="M669.327,-54C702.96,-54 750.273,-54 782.969,-54"/>
<polygon fill="#9a32cd" stroke="#9a32cd" points="668.923,-50.5001 658.923,-54 668.923,-57.5001 668.923,-50.5001"/>
<text text-anchor="middle" x="713.5" y="-57" font-family="Helvetica,sans-Serif" font-size="10.00"> device_id</text>
</g>
<!-- Node24 -->
<g id="node24" class="node"><title>Node24</title>
<polygon fill="white" stroke="#bfbfbf" points="767,-83 767,-113 876,-113 876,-83 767,-83"/>
<text text-anchor="start" x="775" y="-101" font-family="Helvetica,sans-Serif" font-size="10.00">std::map&lt; State, std</text>
<text text-anchor="middle" x="821.5" y="-90" font-family="Helvetica,sans-Serif" font-size="10.00">::string &gt;</text>
</g>
<!-- Node21&#45;&gt;Node24 -->
<g id="edge28" class="edge"><title>Node21&#45;&gt;Node24</title>
<path fill="none" stroke="#9a32cd" stroke-dasharray="5,2" d="M668.665,-64.3086C675.122,-65.9131 681.739,-67.5261 688,-69 713.901,-75.0977 742.753,-81.4626 766.903,-86.6708"/>
<polygon fill="#9a32cd" stroke="#9a32cd" points="669.275,-60.8533 658.724,-61.8154 667.572,-67.643 669.275,-60.8533"/>
<text text-anchor="middle" x="713.5" y="-84" font-family="Helvetica,sans-Serif" font-size="10.00"> elements</text>
</g>
<!-- Node28 -->
<g id="node28" class="node"><title>Node28</title>
<polygon fill="white" stroke="#bfbfbf" points="904,-0.5 904,-19.5 1032,-19.5 1032,-0.5 904,-0.5"/>
<text text-anchor="middle" x="968" y="-7.5" font-family="Helvetica,sans-Serif" font-size="10.00">std::vector&lt; std::string &gt;</text>
</g>
<!-- Node21&#45;&gt;Node28 -->
<g id="edge36" class="edge"><title>Node21&#45;&gt;Node28</title>
<path fill="none" stroke="#9a32cd" stroke-dasharray="5,2" d="M668.538,-43.074C675.011,-41.5483 681.667,-40.1215 688,-39 761.487,-25.9869 846.973,-18.1615 903.758,-13.9761"/>
<polygon fill="#9a32cd" stroke="#9a32cd" points="667.461,-39.7345 658.588,-45.5234 669.135,-46.5316 667.461,-39.7345"/>
<text text-anchor="middle" x="713.5" y="-42" font-family="Helvetica,sans-Serif" font-size="10.00"> elements</text>
</g>
<!-- Node22 -->
<g id="node22" class="node"><title>Node22</title>
<g id="a_node22"><a xlink:title="STL class. ">
<polygon fill="white" stroke="#bfbfbf" points="384,-39 384,-69 482,-69 482,-39 384,-39"/>
<text text-anchor="start" x="392" y="-57" font-family="Helvetica,sans-Serif" font-size="10.00">std::basic_string&lt;</text>
<text text-anchor="middle" x="433" y="-46" font-family="Helvetica,sans-Serif" font-size="10.00"> char &gt;</text>
</a>
</g>
</g>
<!-- Node22&#45;&gt;Node21 -->
<g id="edge24" class="edge"><title>Node22&#45;&gt;Node21</title>
<path fill="none" stroke="midnightblue" d="M492.457,-54C526.763,-54 568.683,-54 596.41,-54"/>
<polygon fill="midnightblue" stroke="midnightblue" points="492.079,-50.5001 482.079,-54 492.079,-57.5001 492.079,-50.5001"/>
</g>
<!-- Node23&#45;&gt;Node6 -->
<g id="edge25" class="edge"><title>Node23&#45;&gt;Node6</title>
<path fill="none" stroke="#9a32cd" stroke-dasharray="5,2" d="M1161.62,-157.049C1189.96,-158.845 1227.33,-162.125 1260,-168 1265.88,-169.057 1272.15,-170.566 1277.95,-172.128"/>
<polygon fill="#9a32cd" stroke="#9a32cd" points="1161.8,-153.554 1151.61,-156.453 1161.38,-160.542 1161.8,-153.554"/>
<text text-anchor="middle" x="1230" y="-171" font-family="Helvetica,sans-Serif" font-size="10.00"> state</text>
</g>
<!-- Node24&#45;&gt;Node23 -->
<g id="edge27" class="edge"><title>Node24&#45;&gt;Node23</title>
<path fill="none" stroke="#9a32cd" stroke-dasharray="5,2" d="M872.553,-116.984C877.133,-118.938 881.674,-120.958 886,-123 894.276,-126.907 895.272,-130.248 904,-133 963.888,-151.887 1037.6,-155.374 1080.15,-155.597"/>
<polygon fill="#9a32cd" stroke="#9a32cd" points="873.729,-113.683 863.152,-113.08 871.045,-120.148 873.729,-113.683"/>
<text text-anchor="middle" x="968" y="-157" font-family="Helvetica,sans-Serif" font-size="10.00"> STRINGS</text>
</g>
<!-- Node25&#45;&gt;Node6 -->
<g id="edge29" class="edge"><title>Node25&#45;&gt;Node6</title>
<path fill="none" stroke="#9a32cd" stroke-dasharray="5,2" d="M1168.51,-189.07C1204.49,-186.325 1250.77,-182.794 1277.88,-180.726"/>
<polygon fill="#9a32cd" stroke="#9a32cd" points="1167.89,-185.607 1158.18,-189.858 1168.42,-192.587 1167.89,-185.607"/>
<text text-anchor="middle" x="1230" y="-190" font-family="Helvetica,sans-Serif" font-size="10.00"> position</text>
</g>
<!-- Node26 -->
<g id="node26" class="node"><title>Node26</title>
<polygon fill="white" stroke="#bfbfbf" points="1394,-179 1394,-209 1543,-209 1543,-179 1394,-179"/>
<text text-anchor="start" x="1402" y="-197" font-family="Helvetica,sans-Serif" font-size="10.00">std::set&lt; std::shared</text>
<text text-anchor="middle" x="1468.5" y="-186" font-family="Helvetica,sans-Serif" font-size="10.00">_ptr&lt; TcpResponseSink &gt; &gt;</text>
</g>
<!-- Node26&#45;&gt;Node4 -->
<g id="edge31" class="edge"><title>Node26&#45;&gt;Node4</title>
<path fill="none" stroke="#9a32cd" stroke-dasharray="5,2" d="M1553.49,-201.104C1584.11,-203.694 1616.84,-206.462 1639.87,-208.41"/>
<polygon fill="#9a32cd" stroke="#9a32cd" points="1553.46,-197.589 1543.2,-200.234 1552.87,-204.564 1553.46,-197.589"/>
<text text-anchor="middle" x="1591.5" y="-210" font-family="Helvetica,sans-Serif" font-size="10.00"> connections</text>
</g>
<!-- Node27&#45;&gt;Node1 -->
<g id="edge37" class="edge"><title>Node27&#45;&gt;Node1</title>
<path fill="none" stroke="#9a32cd" stroke-dasharray="5,2" d="M1529.77,-147.024C1647.36,-141.217 1902.32,-128.626 1975.8,-124.997"/>
<polygon fill="#9a32cd" stroke="#9a32cd" points="1529.32,-143.541 1519.51,-147.531 1529.67,-150.533 1529.32,-143.541"/>
<text text-anchor="middle" x="1741" y="-141" font-family="Helvetica,sans-Serif" font-size="10.00"> handler</text>
</g>
<!-- Node27&#45;&gt;Node4 -->
<g id="edge32" class="edge"><title>Node27&#45;&gt;Node4</title>
<path fill="none" stroke="#9a32cd" stroke-dasharray="5,2" d="M1529.58,-161.358C1558.03,-167.548 1592.23,-176.173 1622,-187 1632.77,-190.917 1644.29,-196.551 1653.4,-201.376"/>
<polygon fill="#9a32cd" stroke="#9a32cd" points="1530.28,-157.929 1519.77,-159.27 1528.83,-164.775 1530.28,-157.929"/>
<text text-anchor="middle" x="1591.5" y="-190" font-family="Helvetica,sans-Serif" font-size="10.00"> handler</text>
</g>
<!-- Node28&#45;&gt;Node1 -->
<g id="edge35" class="edge"><title>Node28&#45;&gt;Node1</title>
<path fill="none" stroke="#9a32cd" stroke-dasharray="5,2" d="M1042.19,-8.70487C1094.29,-7.89322 1165.94,-7 1229,-7 1229,-7 1229,-7 1854.5,-7 1902.78,-7 1921.94,-7.89947 1958,-40 1980.84,-60.326 1990.75,-97.0809 1994.31,-114.435"/>
<polygon fill="#9a32cd" stroke="#9a32cd" points="1041.99,-5.20761 1032.04,-8.86583 1042.1,-12.2067 1041.99,-5.20761"/>
<text text-anchor="middle" x="1468.5" y="-10" font-family="Helvetica,sans-Serif" font-size="10.00"> arguments</text>
</g>
</g>
</svg>
