<?xml version="1.0" encoding="UTF-8" standalone="no"?>
<!DOCTYPE svg PUBLIC "-//W3C//DTD SVG 1.1//EN"
 "http://www.w3.org/Graphics/SVG/1.1/DTD/svg11.dtd">
<!-- Generated by graphviz version 2.38.0 (20140413.2041)
 -->
<!-- Title: Connection Pages: 1 -->
<svg width="2291pt" height="369pt"
 viewBox="0.00 0.00 2291.00 368.87" xmlns="http://www.w3.org/2000/svg" xmlns:xlink="http://www.w3.org/1999/xlink">
<g id="graph0" class="graph" transform="scale(1 1) rotate(0) translate(4 364.869)">
<title>Connection</title>
<polygon fill="white" stroke="none" points="-4,4 -4,-364.869 2287,-364.869 2287,4 -4,4"/>
<!-- Node1 -->
<g id="node1" class="node"><title>Node1</title>
<polygon fill="#bfbfbf" stroke="black" points="1573,-282.369 1573,-301.369 1644,-301.369 1644,-282.369 1573,-282.369"/>
<text text-anchor="middle" x="1608.5" y="-289.369" font-family="Helvetica,sans-Serif" font-size="10.00">Connection</text>
</g>
<!-- Node10 -->
<g id="node10" class="node"><title>Node10</title>
<polygon fill="white" stroke="#bfbfbf" points="1713,-303.369 1713,-322.369 1878,-322.369 1878,-303.369 1713,-303.369"/>
<text text-anchor="middle" x="1795.5" y="-310.369" font-family="Helvetica,sans-Serif" font-size="10.00">std::unique_ptr&lt; Connection &gt;</text>
</g>
<!-- Node1&#45;&gt;Node10 -->
<g id="edge13" class="edge"><title>Node1&#45;&gt;Node10</title>
<path fill="none" stroke="#9a32cd" stroke-dasharray="5,2" d="M1654.25,-296.949C1671.83,-298.944 1692.58,-301.3 1712.65,-303.578"/>
<polygon fill="#9a32cd" stroke="#9a32cd" points="1654.63,-293.469 1644.3,-295.819 1653.84,-300.424 1654.63,-293.469"/>
<text text-anchor="middle" x="1678.5" y="-304.869" font-family="Helvetica,sans-Serif" font-size="10.00"> ptr</text>
</g>
<!-- Node2 -->
<g id="node2" class="node"><title>Node2</title>
<g id="a_node2"><a xlink:href="classResponseSink.html" target="_top" xlink:title="Abstract class for anything that can be sent a response. ">
<polygon fill="white" stroke="black" points="622,-294.369 622,-313.369 705,-313.369 705,-294.369 622,-294.369"/>
<text text-anchor="middle" x="663.5" y="-301.369" font-family="Helvetica,sans-Serif" font-size="10.00">ResponseSink</text>
</a>
</g>
</g>
<!-- Node2&#45;&gt;Node1 -->
<g id="edge1" class="edge"><title>Node2&#45;&gt;Node1</title>
<path fill="none" stroke="midnightblue" d="M715.385,-310.896C758.983,-316.308 823.497,-322.869 880,-322.869 880,-322.869 880,-322.869 1446,-322.869 1492.11,-322.869 1544.32,-310.531 1576.58,-301.423"/>
<polygon fill="midnightblue" stroke="midnightblue" points="715.678,-307.406 705.318,-309.621 714.798,-314.35 715.678,-307.406"/>
</g>
<!-- Node8 -->
<g id="node8" class="node"><title>Node8</title>
<g id="a_node8"><a xlink:href="classConnectionPool.html" target="_top" xlink:title="A pool of TCP connections. ">
<polygon fill="white" stroke="black" points="2192,-263.369 2192,-282.369 2283,-282.369 2283,-263.369 2192,-263.369"/>
<text text-anchor="middle" x="2237.5" y="-270.369" font-family="Helvetica,sans-Serif" font-size="10.00">ConnectionPool</text>
</a>
</g>
</g>
<!-- Node2&#45;&gt;Node8 -->
<g id="edge10" class="edge"><title>Node2&#45;&gt;Node8</title>
<path fill="none" stroke="midnightblue" d="M695.184,-317.358C736.383,-334.213 812.25,-360.869 880,-360.869 880,-360.869 880,-360.869 2030,-360.869 2109.11,-360.869 2192.6,-305.535 2223.78,-282.623"/>
<polygon fill="midnightblue" stroke="midnightblue" points="696.301,-314.032 685.724,-313.409 693.604,-320.492 696.301,-314.032"/>
</g>
<!-- Node11 -->
<g id="node11" class="node"><title>Node11</title>
<g id="a_node11"><a xlink:href="classPlayer.html" target="_top" xlink:title="A Player contains a loaded audio file and the state of its playback. ">
<polygon fill="white" stroke="black" points="1270.5,-190.369 1270.5,-209.369 1316.5,-209.369 1316.5,-190.369 1270.5,-190.369"/>
<text text-anchor="middle" x="1293.5" y="-197.369" font-family="Helvetica,sans-Serif" font-size="10.00">Player</text>
</a>
</g>
</g>
<!-- Node2&#45;&gt;Node11 -->
<g id="edge15" class="edge"><title>Node2&#45;&gt;Node11</title>
<path fill="none" stroke="#9a32cd" stroke-dasharray="5,2" d="M715.335,-301.97C806.16,-298.122 1002.15,-287.746 1166,-264.869 1201.48,-259.915 1213.57,-266.056 1245,-248.869 1262.67,-239.206 1277.82,-220.769 1286,-209.472"/>
<polygon fill="#9a32cd" stroke="#9a32cd" points="715.156,-298.475 705.31,-302.387 715.447,-305.469 715.156,-298.475"/>
<text text-anchor="middle" x="1003" y="-289.869" font-family="Helvetica,sans-Serif" font-size="10.00"> end_sink</text>
</g>
<!-- Node13 -->
<g id="node13" class="node"><title>Node13</title>
<g id="a_node13"><a xlink:href="classResponseSource.html" target="_top" xlink:title="Abstract helper class for sources of responses. ">
<polygon fill="white" stroke="black" points="833,-233.369 833,-252.369 929,-252.369 929,-233.369 833,-233.369"/>
<text text-anchor="middle" x="881" y="-240.369" font-family="Helvetica,sans-Serif" font-size="10.00">ResponseSource</text>
</a>
</g>
</g>
<!-- Node2&#45;&gt;Node13 -->
<g id="edge18" class="edge"><title>Node2&#45;&gt;Node13</title>
<path fill="none" stroke="#9a32cd" stroke-dasharray="5,2" d="M686.554,-288.435C701.722,-278.613 722.717,-266.527 743,-259.869 771.92,-250.376 805.863,-246.118 832.728,-244.237"/>
<polygon fill="#9a32cd" stroke="#9a32cd" points="684.3,-285.731 677.921,-294.19 688.183,-291.556 684.3,-285.731"/>
<text text-anchor="middle" x="768.5" y="-262.869" font-family="Helvetica,sans-Serif" font-size="10.00"> push_sink</text>
</g>
<!-- Node3 -->
<g id="node3" class="node"><title>Node3</title>
<g id="a_node3"><a xlink:href="classTokeniser.html" target="_top" xlink:title="A string tokeniser. ">
<polygon fill="white" stroke="black" points="1263,-13.3689 1263,-32.3689 1324,-32.3689 1324,-13.3689 1263,-13.3689"/>
<text text-anchor="middle" x="1293.5" y="-20.3689" font-family="Helvetica,sans-Serif" font-size="10.00">Tokeniser</text>
</a>
</g>
</g>
<!-- Node3&#45;&gt;Node1 -->
<g id="edge2" class="edge"><title>Node3&#45;&gt;Node1</title>
<path fill="none" stroke="#9a32cd" stroke-dasharray="5,2" d="M1313.39,-39.1055C1371.99,-89.4637 1549.51,-242.03 1596.17,-282.129"/>
<polygon fill="#9a32cd" stroke="#9a32cd" points="1315.51,-36.3063 1305.64,-32.4428 1310.94,-41.6151 1315.51,-36.3063"/>
<text text-anchor="middle" x="1445" y="-195.869" font-family="Helvetica,sans-Serif" font-size="10.00"> tokeniser</text>
</g>
<!-- Node4 -->
<g id="node4" class="node"><title>Node4</title>
<g id="a_node4"><a xlink:title="STL class. ">
<polygon fill="white" stroke="#bfbfbf" points="631,-55.3689 631,-74.3689 696,-74.3689 696,-55.3689 631,-55.3689"/>
<text text-anchor="middle" x="663.5" y="-62.3689" font-family="Helvetica,sans-Serif" font-size="10.00">std::string</text>
</a>
</g>
</g>
<!-- Node4&#45;&gt;Node3 -->
<g id="edge3" class="edge"><title>Node4&#45;&gt;Node3</title>
<path fill="none" stroke="#9a32cd" stroke-dasharray="5,2" d="M704.812,-52.3458C717.021,-48.7457 730.507,-44.9606 743,-41.8689 773.375,-34.3519 781.229,-33.553 812,-27.8689 881.12,-15.1007 897.95,-7.66644 968,-1.86891 1041.81,4.23974 1221.58,-8.61823 1245,-11.8689 1250.79,-12.6719 1256.9,-13.8412 1262.75,-15.1209"/>
<polygon fill="#9a32cd" stroke="#9a32cd" points="703.484,-49.0895 694.906,-55.3071 705.489,-55.7963 703.484,-49.0895"/>
<text text-anchor="middle" x="1003" y="-4.86891" font-family="Helvetica,sans-Serif" font-size="10.00"> current_word</text>
</g>
<!-- Node7 -->
<g id="node7" class="node"><title>Node7</title>
<polygon fill="white" stroke="#bfbfbf" points="812,-37.3689 812,-56.3689 950,-56.3689 950,-37.3689 812,-37.3689"/>
<text text-anchor="middle" x="881" y="-44.3689" font-family="Helvetica,sans-Serif" font-size="10.00">std::vector&lt; std::string &gt;</text>
</g>
<!-- Node4&#45;&gt;Node7 -->
<g id="edge7" class="edge"><title>Node4&#45;&gt;Node7</title>
<path fill="none" stroke="#9a32cd" stroke-dasharray="5,2" d="M706.388,-54.828C718.161,-52.4168 731.022,-50.1656 743,-48.8689 765.348,-46.4496 789.866,-45.5439 811.905,-45.364"/>
<polygon fill="#9a32cd" stroke="#9a32cd" points="705.418,-51.456 696.37,-56.9681 706.881,-58.3015 705.418,-51.456"/>
<text text-anchor="middle" x="768.5" y="-51.8689" font-family="Helvetica,sans-Serif" font-size="10.00"> elements</text>
</g>
<!-- Node25 -->
<g id="node25" class="node"><title>Node25</title>
<g id="a_node25"><a xlink:href="classAudioSystem.html" target="_top" xlink:title="An AudioSystem represents the entire audio stack used by playd. ">
<polygon fill="white" stroke="black" points="841,-132.369 841,-151.369 921,-151.369 921,-132.369 841,-132.369"/>
<text text-anchor="middle" x="881" y="-139.369" font-family="Helvetica,sans-Serif" font-size="10.00">AudioSystem</text>
</a>
</g>
</g>
<!-- Node4&#45;&gt;Node25 -->
<g id="edge32" class="edge"><title>Node4&#45;&gt;Node25</title>
<path fill="none" stroke="#9a32cd" stroke-dasharray="5,2" d="M699.385,-77.9C712.978,-82.9398 728.699,-88.7226 743,-93.8689 780.823,-107.48 824.697,-122.764 852.399,-132.352"/>
<polygon fill="#9a32cd" stroke="#9a32cd" points="700.508,-74.5832 689.915,-74.3813 698.07,-81.1449 700.508,-74.5832"/>
<text text-anchor="middle" x="768.5" y="-114.869" font-family="Helvetica,sans-Serif" font-size="10.00"> device_id</text>
</g>
<!-- Node29 -->
<g id="node29" class="node"><title>Node29</title>
<polygon fill="white" stroke="#bfbfbf" points="822,-78.8689 822,-108.869 940,-108.869 940,-78.8689 822,-78.8689"/>
<text text-anchor="start" x="830" y="-96.8689" font-family="Helvetica,sans-Serif" font-size="10.00">std::map&lt; State, std</text>
<text text-anchor="middle" x="881" y="-85.8689" font-family="Helvetica,sans-Serif" font-size="10.00">::string &gt;</text>
</g>
<!-- Node4&#45;&gt;Node29 -->
<g id="edge38" class="edge"><title>Node4&#45;&gt;Node29</title>
<path fill="none" stroke="#9a32cd" stroke-dasharray="5,2" d="M706.457,-70.5151C739.265,-74.93 785.257,-81.1192 821.652,-86.0169"/>
<polygon fill="#9a32cd" stroke="#9a32cd" points="706.675,-67.013 696.298,-69.148 705.742,-73.9505 706.675,-67.013"/>
<text text-anchor="middle" x="768.5" y="-85.8689" font-family="Helvetica,sans-Serif" font-size="10.00"> elements</text>
</g>
<!-- Node5 -->
<g id="node5" class="node"><title>Node5</title>
<g id="a_node5"><a xlink:title="STL class. ">
<polygon fill="white" stroke="#bfbfbf" points="392.5,-49.8689 392.5,-79.8689 495.5,-79.8689 495.5,-49.8689 392.5,-49.8689"/>
<text text-anchor="start" x="400.5" y="-67.8689" font-family="Helvetica,sans-Serif" font-size="10.00">std::basic_string&lt;</text>
<text text-anchor="middle" x="444" y="-56.8689" font-family="Helvetica,sans-Serif" font-size="10.00"> char &gt;</text>
</a>
</g>
</g>
<!-- Node5&#45;&gt;Node4 -->
<g id="edge4" class="edge"><title>Node5&#45;&gt;Node4</title>
<path fill="none" stroke="midnightblue" d="M505.794,-64.8689C546.441,-64.8689 598.264,-64.8689 630.926,-64.8689"/>
<polygon fill="midnightblue" stroke="midnightblue" points="505.72,-61.369 495.72,-64.8689 505.72,-68.369 505.72,-61.369"/>
</g>
<!-- Node6 -->
<g id="node6" class="node"><title>Node6</title>
<polygon fill="white" stroke="#bfbfbf" points="1056,-35.3689 1056,-54.3689 1166,-54.3689 1166,-35.3689 1056,-35.3689"/>
<text text-anchor="middle" x="1111" y="-42.3689" font-family="Helvetica,sans-Serif" font-size="10.00">std::vector&lt; Line &gt;</text>
</g>
<!-- Node6&#45;&gt;Node3 -->
<g id="edge5" class="edge"><title>Node6&#45;&gt;Node3</title>
<path fill="none" stroke="#9a32cd" stroke-dasharray="5,2" d="M1176.39,-37.0207C1205.87,-33.4281 1239.36,-29.3457 1262.77,-26.4919"/>
<polygon fill="#9a32cd" stroke="#9a32cd" points="1175.66,-33.5839 1166.16,-38.2682 1176.51,-40.5325 1175.66,-33.5839"/>
<text text-anchor="middle" x="1214.5" y="-38.8689" font-family="Helvetica,sans-Serif" font-size="10.00"> ready_lines</text>
</g>
<!-- Node7&#45;&gt;Node3 -->
<g id="edge8" class="edge"><title>Node7&#45;&gt;Node3</title>
<path fill="none" stroke="#9a32cd" stroke-dasharray="5,2" d="M932.004,-35.1755C966.6,-27.7017 1013.82,-18.715 1056,-14.8689 1104.69,-10.4292 1117.14,-13.3253 1166,-14.8689 1199.21,-15.918 1237.26,-18.5129 1262.88,-20.4649"/>
<polygon fill="#9a32cd" stroke="#9a32cd" points="931.163,-31.7767 922.145,-37.3381 932.663,-38.6141 931.163,-31.7767"/>
<text text-anchor="middle" x="1111" y="-17.8689" font-family="Helvetica,sans-Serif" font-size="10.00"> words</text>
</g>
<!-- Node7&#45;&gt;Node6 -->
<g id="edge6" class="edge"><title>Node7&#45;&gt;Node6</title>
<path fill="none" stroke="#9a32cd" stroke-dasharray="5,2" d="M960.188,-46.183C991.749,-45.9062 1027.39,-45.5936 1055.98,-45.3428"/>
<polygon fill="#9a32cd" stroke="#9a32cd" points="960.068,-42.6839 950.099,-46.2716 960.129,-49.6836 960.068,-42.6839"/>
<text text-anchor="middle" x="1003" y="-49.8689" font-family="Helvetica,sans-Serif" font-size="10.00"> elements</text>
</g>
<!-- Node7&#45;&gt;Node11 -->
<g id="edge34" class="edge"><title>Node7&#45;&gt;Node11</title>
<path fill="none" stroke="#9a32cd" stroke-dasharray="5,2" d="M921.8,-59.4857C997.17,-83.3973 1154.29,-133.341 1166,-137.869 1201.99,-151.78 1210.5,-156.594 1245,-173.869 1255.26,-179.004 1266.52,-185.149 1275.51,-190.176"/>
<polygon fill="#9a32cd" stroke="#9a32cd" points="922.753,-56.1162 912.163,-56.4288 920.637,-62.7886 922.753,-56.1162"/>
<text text-anchor="middle" x="1111" y="-140.869" font-family="Helvetica,sans-Serif" font-size="10.00"> FEATURES</text>
</g>
<!-- Node8&#45;&gt;Node1 -->
<g id="edge9" class="edge"><title>Node8&#45;&gt;Node1</title>
<path fill="none" stroke="#9a32cd" stroke-dasharray="5,2" d="M2181.61,-274.532C2055.42,-278.356 1747.61,-287.684 1644.1,-290.82"/>
<polygon fill="#9a32cd" stroke="#9a32cd" points="2181.92,-278.024 2191.81,-274.223 2181.71,-271.028 2181.92,-278.024"/>
<text text-anchor="middle" x="1920.5" y="-286.869" font-family="Helvetica,sans-Serif" font-size="10.00"> parent</text>
</g>
<!-- Node9 -->
<g id="node9" class="node"><title>Node9</title>
<polygon fill="white" stroke="#bfbfbf" points="1963,-301.869 1963,-331.869 2095,-331.869 2095,-301.869 1963,-301.869"/>
<text text-anchor="start" x="1971" y="-319.869" font-family="Helvetica,sans-Serif" font-size="10.00">std::vector&lt; std::unique</text>
<text text-anchor="middle" x="2029" y="-308.869" font-family="Helvetica,sans-Serif" font-size="10.00">_ptr&lt; Connection &gt; &gt;</text>
</g>
<!-- Node9&#45;&gt;Node8 -->
<g id="edge11" class="edge"><title>Node9&#45;&gt;Node8</title>
<path fill="none" stroke="#9a32cd" stroke-dasharray="5,2" d="M2105.29,-301.405C2127.44,-296.796 2151.71,-291.688 2174,-286.869 2180.52,-285.459 2187.42,-283.941 2194.16,-282.443"/>
<polygon fill="#9a32cd" stroke="#9a32cd" points="2104.36,-298.025 2095.28,-303.485 2105.78,-304.878 2104.36,-298.025"/>
<text text-anchor="middle" x="2143.5" y="-302.869" font-family="Helvetica,sans-Serif" font-size="10.00"> connections</text>
</g>
<!-- Node10&#45;&gt;Node9 -->
<g id="edge12" class="edge"><title>Node10&#45;&gt;Node9</title>
<path fill="none" stroke="#9a32cd" stroke-dasharray="5,2" d="M1888.3,-314.455C1913.19,-314.885 1939.63,-315.342 1962.72,-315.741"/>
<polygon fill="#9a32cd" stroke="#9a32cd" points="1888.18,-310.953 1878.12,-314.279 1888.06,-317.951 1888.18,-310.953"/>
<text text-anchor="middle" x="1920.5" y="-318.869" font-family="Helvetica,sans-Serif" font-size="10.00"> elements</text>
</g>
<!-- Node11&#45;&gt;Node8 -->
<g id="edge14" class="edge"><title>Node11&#45;&gt;Node8</title>
<path fill="none" stroke="#9a32cd" stroke-dasharray="5,2" d="M1326.85,-197.218C1372.85,-193.684 1459.81,-187.869 1534,-187.869 1534,-187.869 1534,-187.869 2030,-187.869 2108.31,-187.869 2191.61,-240.792 2223.27,-263.118"/>
<polygon fill="#9a32cd" stroke="#9a32cd" points="1326.3,-193.751 1316.6,-198.02 1326.85,-200.729 1326.3,-193.751"/>
<text text-anchor="middle" x="1678.5" y="-190.869" font-family="Helvetica,sans-Serif" font-size="10.00"> player</text>
</g>
<!-- Node31 -->
<g id="node31" class="node"><title>Node31</title>
<g id="a_node31"><a xlink:href="classCommandHandler.html" target="_top" xlink:title="The playd command handler. ">
<polygon fill="white" stroke="black" points="1393,-263.369 1393,-282.369 1497,-282.369 1497,-263.369 1393,-263.369"/>
<text text-anchor="middle" x="1445" y="-270.369" font-family="Helvetica,sans-Serif" font-size="10.00">CommandHandler</text>
</a>
</g>
</g>
<!-- Node11&#45;&gt;Node31 -->
<g id="edge42" class="edge"><title>Node11&#45;&gt;Node31</title>
<path fill="none" stroke="#9a32cd" stroke-dasharray="5,2" d="M1322.35,-213.925C1342.03,-223.809 1369.07,-237.286 1393,-248.869 1402.87,-253.643 1413.86,-258.834 1423.11,-263.163"/>
<polygon fill="#9a32cd" stroke="#9a32cd" points="1323.83,-210.751 1313.32,-209.385 1320.68,-217.005 1323.83,-210.751"/>
<text text-anchor="middle" x="1358.5" y="-242.869" font-family="Helvetica,sans-Serif" font-size="10.00"> player</text>
</g>
<!-- Node12 -->
<g id="node12" class="node"><title>Node12</title>
<g id="a_node12"><a xlink:href="classPlayerFile.html" target="_top" xlink:title="The subcomponent of a Player that stores the audio file. ">
<polygon fill="white" stroke="black" points="1080.5,-196.369 1080.5,-215.369 1141.5,-215.369 1141.5,-196.369 1080.5,-196.369"/>
<text text-anchor="middle" x="1111" y="-203.369" font-family="Helvetica,sans-Serif" font-size="10.00">PlayerFile</text>
</a>
</g>
</g>
<!-- Node12&#45;&gt;Node11 -->
<g id="edge16" class="edge"><title>Node12&#45;&gt;Node11</title>
<path fill="none" stroke="#9a32cd" stroke-dasharray="5,2" d="M1152.09,-204.536C1188.53,-203.325 1240.94,-201.583 1270.34,-200.605"/>
<polygon fill="#9a32cd" stroke="#9a32cd" points="1151.68,-201.048 1141.81,-204.878 1151.92,-208.044 1151.68,-201.048"/>
<text text-anchor="middle" x="1214.5" y="-206.869" font-family="Helvetica,sans-Serif" font-size="10.00"> file</text>
</g>
<!-- Node13&#45;&gt;Node12 -->
<g id="edge17" class="edge"><title>Node13&#45;&gt;Node12</title>
<path fill="none" stroke="midnightblue" d="M939.122,-233.599C983.94,-226.326 1044.53,-216.494 1080.21,-210.702"/>
<polygon fill="midnightblue" stroke="midnightblue" points="938.552,-230.146 929.242,-235.202 939.673,-237.055 938.552,-230.146"/>
</g>
<!-- Node28 -->
<g id="node28" class="node"><title>Node28</title>
<g id="a_node28"><a xlink:href="classPlayerState.html" target="_top" xlink:title="An object holding and representing the current state of a Player. ">
<polygon fill="white" stroke="black" points="1075,-158.369 1075,-177.369 1147,-177.369 1147,-158.369 1075,-158.369"/>
<text text-anchor="middle" x="1111" y="-165.369" font-family="Helvetica,sans-Serif" font-size="10.00">PlayerState</text>
</a>
</g>
</g>
<!-- Node13&#45;&gt;Node28 -->
<g id="edge36" class="edge"><title>Node13&#45;&gt;Node28</title>
<path fill="none" stroke="midnightblue" d="M932.705,-229.444C938.803,-226.77 944.728,-223.604 950,-219.869 960.591,-212.364 956.962,-203.699 968,-196.869 1000.52,-176.745 1044.49,-170.294 1074.84,-168.375"/>
<polygon fill="midnightblue" stroke="midnightblue" points="931.068,-226.327 923.049,-233.251 933.636,-232.839 931.068,-226.327"/>
</g>
<!-- Node30 -->
<g id="node30" class="node"><title>Node30</title>
<g id="a_node30"><a xlink:href="classPlayerPosition.html" target="_top" xlink:title="Tracker and broadcaster for the Player&#39;s current position in a song. ">
<polygon fill="white" stroke="black" points="1069.5,-236.369 1069.5,-255.369 1152.5,-255.369 1152.5,-236.369 1069.5,-236.369"/>
<text text-anchor="middle" x="1111" y="-243.369" font-family="Helvetica,sans-Serif" font-size="10.00">PlayerPosition</text>
</a>
</g>
</g>
<!-- Node13&#45;&gt;Node30 -->
<g id="edge40" class="edge"><title>Node13&#45;&gt;Node30</title>
<path fill="none" stroke="midnightblue" d="M939.246,-243.622C979.754,-244.155 1033.1,-244.857 1069.31,-245.333"/>
<polygon fill="midnightblue" stroke="midnightblue" points="939.287,-240.122 929.242,-243.491 939.195,-247.122 939.287,-240.122"/>
</g>
<!-- Node14 -->
<g id="node14" class="node"><title>Node14</title>
<polygon fill="white" stroke="#bfbfbf" points="812,-191.369 812,-210.369 950,-210.369 950,-191.369 812,-191.369"/>
<text text-anchor="middle" x="881" y="-198.369" font-family="Helvetica,sans-Serif" font-size="10.00">std::unique_ptr&lt; Audio &gt;</text>
</g>
<!-- Node14&#45;&gt;Node12 -->
<g id="edge19" class="edge"><title>Node14&#45;&gt;Node12</title>
<path fill="none" stroke="#9a32cd" stroke-dasharray="5,2" d="M960.444,-200.62C985.255,-200.743 1012.78,-201.088 1038,-201.869 1051.89,-202.299 1067.27,-203.108 1080.24,-203.887"/>
<polygon fill="#9a32cd" stroke="#9a32cd" points="960.37,-197.12 950.356,-200.581 960.343,-204.12 960.37,-197.12"/>
<text text-anchor="middle" x="1003" y="-204.869" font-family="Helvetica,sans-Serif" font-size="10.00"> audio</text>
</g>
<!-- Node15 -->
<g id="node15" class="node"><title>Node15</title>
<g id="a_node15"><a xlink:href="classAudio.html" target="_top" xlink:title="An audio file. ">
<polygon fill="white" stroke="black" points="641.5,-191.369 641.5,-210.369 685.5,-210.369 685.5,-191.369 641.5,-191.369"/>
<text text-anchor="middle" x="663.5" y="-198.369" font-family="Helvetica,sans-Serif" font-size="10.00">Audio</text>
</a>
</g>
</g>
<!-- Node15&#45;&gt;Node14 -->
<g id="edge20" class="edge"><title>Node15&#45;&gt;Node14</title>
<path fill="none" stroke="#9a32cd" stroke-dasharray="5,2" d="M695.916,-200.869C726.19,-200.869 772.991,-200.869 811.826,-200.869"/>
<polygon fill="#9a32cd" stroke="#9a32cd" points="695.555,-197.369 685.555,-200.869 695.555,-204.369 695.555,-197.369"/>
<text text-anchor="middle" x="768.5" y="-203.869" font-family="Helvetica,sans-Serif" font-size="10.00"> ptr</text>
</g>
<!-- Node16 -->
<g id="node16" class="node"><title>Node16</title>
<polygon fill="white" stroke="#bfbfbf" points="365,-191.369 365,-210.369 523,-210.369 523,-191.369 365,-191.369"/>
<text text-anchor="middle" x="444" y="-198.369" font-family="Helvetica,sans-Serif" font-size="10.00">std::unique_ptr&lt; AudioSink &gt;</text>
</g>
<!-- Node16&#45;&gt;Node15 -->
<g id="edge21" class="edge"><title>Node16&#45;&gt;Node15</title>
<path fill="none" stroke="#9a32cd" stroke-dasharray="5,2" d="M533.452,-200.869C573.03,-200.869 616.327,-200.869 641.359,-200.869"/>
<polygon fill="#9a32cd" stroke="#9a32cd" points="533.215,-197.369 523.215,-200.869 533.215,-204.369 533.215,-197.369"/>
<text text-anchor="middle" x="566" y="-203.869" font-family="Helvetica,sans-Serif" font-size="10.00"> sink</text>
</g>
<!-- Node17 -->
<g id="node17" class="node"><title>Node17</title>
<g id="a_node17"><a xlink:href="classAudioSink.html" target="_top" xlink:title="An output stream for an Audio file. ">
<polygon fill="white" stroke="black" points="234.5,-215.369 234.5,-234.369 298.5,-234.369 298.5,-215.369 234.5,-215.369"/>
<text text-anchor="middle" x="266.5" y="-222.369" font-family="Helvetica,sans-Serif" font-size="10.00">AudioSink</text>
</a>
</g>
</g>
<!-- Node17&#45;&gt;Node16 -->
<g id="edge22" class="edge"><title>Node17&#45;&gt;Node16</title>
<path fill="none" stroke="#9a32cd" stroke-dasharray="5,2" d="M308.811,-219.22C328.051,-216.588 351.475,-213.385 373.334,-210.396"/>
<polygon fill="#9a32cd" stroke="#9a32cd" points="308.309,-215.755 298.876,-220.578 309.258,-222.691 308.309,-215.755"/>
<text text-anchor="middle" x="331.5" y="-220.869" font-family="Helvetica,sans-Serif" font-size="10.00"> ptr</text>
</g>
<!-- Node18 -->
<g id="node18" class="node"><title>Node18</title>
<polygon fill="white" stroke="#bfbfbf" points="0,-237.369 0,-256.369 150,-256.369 150,-237.369 0,-237.369"/>
<text text-anchor="middle" x="75" y="-244.369" font-family="Helvetica,sans-Serif" font-size="10.00">portaudio::CallbackInterface</text>
</g>
<!-- Node18&#45;&gt;Node17 -->
<g id="edge23" class="edge"><title>Node18&#45;&gt;Node17</title>
<path fill="none" stroke="#8b1a1a" d="M160.117,-237.103C186.495,-234.041 213.986,-230.849 234.273,-228.494"/>
<polygon fill="#8b1a1a" stroke="#8b1a1a" points="159.609,-233.639 150.08,-238.269 160.417,-240.592 159.609,-233.639"/>
</g>
<!-- Node19 -->
<g id="node19" class="node"><title>Node19</title>
<g id="a_node19"><a xlink:href="classRingBuffer.html" target="_top" xlink:title="RingBuffer\&lt; char, unsigned\l long \&gt;">
<polygon fill="white" stroke="black" points="1.5,-187.869 1.5,-217.869 148.5,-217.869 148.5,-187.869 1.5,-187.869"/>
<text text-anchor="start" x="9.5" y="-205.869" font-family="Helvetica,sans-Serif" font-size="10.00">RingBuffer&lt; char, unsigned</text>
<text text-anchor="middle" x="75" y="-194.869" font-family="Helvetica,sans-Serif" font-size="10.00"> long &gt;</text>
</a>
</g>
</g>
<!-- Node19&#45;&gt;Node17 -->
<g id="edge24" class="edge"><title>Node19&#45;&gt;Node17</title>
<path fill="none" stroke="#9a32cd" stroke-dasharray="5,2" d="M159.115,-211.042C175.97,-212.843 193.565,-214.827 210,-216.869 217.922,-217.853 226.463,-219.028 234.414,-220.17"/>
<polygon fill="#9a32cd" stroke="#9a32cd" points="159.045,-207.515 148.733,-209.945 158.31,-214.477 159.045,-207.515"/>
<text text-anchor="middle" x="189" y="-219.869" font-family="Helvetica,sans-Serif" font-size="10.00"> ring_buf</text>
</g>
<!-- Node20 -->
<g id="node20" class="node"><title>Node20</title>
<polygon fill="white" stroke="#bfbfbf" points="2,-275.869 2,-305.869 148,-305.869 148,-275.869 2,-275.869"/>
<text text-anchor="start" x="10" y="-293.869" font-family="Helvetica,sans-Serif" font-size="10.00">std::unique_ptr&lt; portaudio</text>
<text text-anchor="middle" x="75" y="-282.869" font-family="Helvetica,sans-Serif" font-size="10.00">::Stream &gt;</text>
</g>
<!-- Node20&#45;&gt;Node17 -->
<g id="edge25" class="edge"><title>Node20&#45;&gt;Node17</title>
<path fill="none" stroke="#9a32cd" stroke-dasharray="5,2" d="M136.019,-272.769C159.27,-265.455 186.017,-256.67 210,-247.869 221.162,-243.773 233.389,-238.764 243.519,-234.467"/>
<polygon fill="#9a32cd" stroke="#9a32cd" points="134.787,-269.486 126.286,-275.809 136.875,-276.168 134.787,-269.486"/>
<text text-anchor="middle" x="189" y="-264.869" font-family="Helvetica,sans-Serif" font-size="10.00"> stream</text>
</g>
<!-- Node21 -->
<g id="node21" class="node"><title>Node21</title>
<polygon fill="white" stroke="#bfbfbf" points="358,-150.369 358,-169.369 530,-169.369 530,-150.369 358,-150.369"/>
<text text-anchor="middle" x="444" y="-157.369" font-family="Helvetica,sans-Serif" font-size="10.00">std::unique_ptr&lt; AudioSource &gt;</text>
</g>
<!-- Node21&#45;&gt;Node15 -->
<g id="edge26" class="edge"><title>Node21&#45;&gt;Node15</title>
<path fill="none" stroke="#9a32cd" stroke-dasharray="5,2" d="M506.292,-171.28C530.503,-175.802 558.565,-181.06 584,-185.869 603.36,-189.529 625.395,-193.744 641.181,-196.772"/>
<polygon fill="#9a32cd" stroke="#9a32cd" points="506.643,-167.786 496.17,-169.391 505.358,-174.667 506.643,-167.786"/>
<text text-anchor="middle" x="566" y="-188.869" font-family="Helvetica,sans-Serif" font-size="10.00"> source</text>
</g>
<!-- Node22 -->
<g id="node22" class="node"><title>Node22</title>
<g id="a_node22"><a xlink:href="classAudioSource.html" target="_top" xlink:title="An object responsible for decoding an audio file. ">
<polygon fill="white" stroke="black" points="228,-149.369 228,-168.369 305,-168.369 305,-149.369 228,-149.369"/>
<text text-anchor="middle" x="266.5" y="-156.369" font-family="Helvetica,sans-Serif" font-size="10.00">AudioSource</text>
</a>
</g>
</g>
<!-- Node22&#45;&gt;Node21 -->
<g id="edge27" class="edge"><title>Node22&#45;&gt;Node21</title>
<path fill="none" stroke="#9a32cd" stroke-dasharray="5,2" d="M315.353,-159.142C328.521,-159.217 343.213,-159.3 357.81,-159.383"/>
<polygon fill="#9a32cd" stroke="#9a32cd" points="315.169,-155.641 305.149,-159.083 315.129,-162.64 315.169,-155.641"/>
<text text-anchor="middle" x="331.5" y="-162.869" font-family="Helvetica,sans-Serif" font-size="10.00"> ptr</text>
</g>
<!-- Node23 -->
<g id="node23" class="node"><title>Node23</title>
<polygon fill="white" stroke="#bfbfbf" points="13.5,-149.369 13.5,-168.369 136.5,-168.369 136.5,-149.369 13.5,-149.369"/>
<text text-anchor="middle" x="75" y="-156.369" font-family="Helvetica,sans-Serif" font-size="10.00">std::vector&lt; uint8_t &gt;</text>
</g>
<!-- Node23&#45;&gt;Node22 -->
<g id="edge28" class="edge"><title>Node23&#45;&gt;Node22</title>
<path fill="none" stroke="#9a32cd" stroke-dasharray="5,2" d="M146.75,-158.869C174.324,-158.869 204.802,-158.869 227.976,-158.869"/>
<polygon fill="#9a32cd" stroke="#9a32cd" points="146.741,-155.369 136.741,-158.869 146.741,-162.369 146.741,-155.369"/>
<text text-anchor="middle" x="189" y="-161.869" font-family="Helvetica,sans-Serif" font-size="10.00"> buffer</text>
</g>
<!-- Node24 -->
<g id="node24" class="node"><title>Node24</title>
<polygon fill="white" stroke="#bfbfbf" points="372,-229.369 372,-248.369 516,-248.369 516,-229.369 372,-229.369"/>
<text text-anchor="middle" x="444" y="-236.369" font-family="Helvetica,sans-Serif" font-size="10.00">std::vector&lt; std::uint8_t &gt;</text>
</g>
<!-- Node24&#45;&gt;Node15 -->
<g id="edge29" class="edge"><title>Node24&#45;&gt;Node15</title>
<path fill="none" stroke="#9a32cd" stroke-dasharray="5,2" d="M514.591,-227.702C536.792,-224.046 561.447,-219.889 584,-215.869 603.397,-212.411 625.428,-208.174 641.203,-205.086"/>
<polygon fill="#9a32cd" stroke="#9a32cd" points="513.881,-224.271 504.58,-229.344 515.014,-231.179 513.881,-224.271"/>
<text text-anchor="middle" x="566" y="-224.869" font-family="Helvetica,sans-Serif" font-size="10.00"> frame</text>
</g>
<!-- Node25&#45;&gt;Node12 -->
<g id="edge30" class="edge"><title>Node25&#45;&gt;Node12</title>
<path fill="none" stroke="#9a32cd" stroke-dasharray="5,2" d="M926.004,-154.221C971.438,-166.974 1041.07,-186.521 1080.36,-197.548"/>
<polygon fill="#9a32cd" stroke="#9a32cd" points="926.708,-150.783 916.134,-151.45 924.816,-157.523 926.708,-150.783"/>
<text text-anchor="middle" x="1003" y="-188.869" font-family="Helvetica,sans-Serif" font-size="10.00"> audio_system</text>
</g>
<!-- Node26 -->
<g id="node26" class="node"><title>Node26</title>
<g id="a_node26"><a xlink:href="classAudioSinkConfigurator.html" target="_top" xlink:title="Interface for objects that can configure a PortAudio stream from an AudioSource. ">
<polygon fill="white" stroke="black" points="602,-132.369 602,-151.369 725,-151.369 725,-132.369 602,-132.369"/>
<text text-anchor="middle" x="663.5" y="-139.369" font-family="Helvetica,sans-Serif" font-size="10.00">AudioSinkConfigurator</text>
</a>
</g>
</g>
<!-- Node26&#45;&gt;Node25 -->
<g id="edge31" class="edge"><title>Node26&#45;&gt;Node25</title>
<path fill="none" stroke="midnightblue" d="M735.309,-141.869C770.422,-141.869 811.489,-141.869 840.883,-141.869"/>
<polygon fill="midnightblue" stroke="midnightblue" points="735.102,-138.369 725.102,-141.869 735.102,-145.369 735.102,-138.369"/>
</g>
<!-- Node27 -->
<g id="node27" class="node"><title>Node27</title>
<g id="a_node27"><a xlink:href="classTimeParser.html" target="_top" xlink:title="A class for parsing time strings consisting of an integer and unit into a flat integer representing t...">
<polygon fill="white" stroke="black" points="1076,-73.3689 1076,-92.3689 1146,-92.3689 1146,-73.3689 1076,-73.3689"/>
<text text-anchor="middle" x="1111" y="-80.3689" font-family="Helvetica,sans-Serif" font-size="10.00">TimeParser</text>
</a>
</g>
</g>
<!-- Node27&#45;&gt;Node11 -->
<g id="edge33" class="edge"><title>Node27&#45;&gt;Node11</title>
<path fill="none" stroke="#9a32cd" stroke-dasharray="5,2" d="M1156.42,-79.9859C1184.33,-80.4057 1219.7,-85.2674 1245,-103.869 1274.36,-125.458 1286.61,-170.262 1290.73,-190.078"/>
<polygon fill="#9a32cd" stroke="#9a32cd" points="1156.12,-76.4869 1146.13,-80.0232 1156.14,-83.4869 1156.12,-76.4869"/>
<text text-anchor="middle" x="1214.5" y="-106.869" font-family="Helvetica,sans-Serif" font-size="10.00"> time_parser</text>
</g>
<!-- Node28&#45;&gt;Node11 -->
<g id="edge35" class="edge"><title>Node28&#45;&gt;Node11</title>
<path fill="none" stroke="#9a32cd" stroke-dasharray="5,2" d="M1157.45,-172.931C1183.26,-176.162 1216.09,-180.873 1245,-186.869 1253.37,-188.605 1262.45,-190.969 1270.41,-193.205"/>
<polygon fill="#9a32cd" stroke="#9a32cd" points="1157.56,-169.418 1147.21,-171.68 1156.71,-176.367 1157.56,-169.418"/>
<text text-anchor="middle" x="1214.5" y="-189.869" font-family="Helvetica,sans-Serif" font-size="10.00"> state</text>
</g>
<!-- Node29&#45;&gt;Node28 -->
<g id="edge37" class="edge"><title>Node29&#45;&gt;Node28</title>
<path fill="none" stroke="#9a32cd" stroke-dasharray="5,2" d="M938.059,-112.064C983.16,-126.702 1044.74,-146.689 1080.65,-158.344"/>
<polygon fill="#9a32cd" stroke="#9a32cd" points="939.006,-108.691 928.414,-108.933 936.845,-115.349 939.006,-108.691"/>
<text text-anchor="middle" x="1003" y="-147.869" font-family="Helvetica,sans-Serif" font-size="10.00"> STRINGS</text>
</g>
<!-- Node30&#45;&gt;Node11 -->
<g id="edge39" class="edge"><title>Node30&#45;&gt;Node11</title>
<path fill="none" stroke="#9a32cd" stroke-dasharray="5,2" d="M1162.64,-237.805C1187.69,-233.258 1218.21,-226.874 1245,-218.869 1253.68,-216.275 1262.98,-212.732 1271.04,-209.408"/>
<polygon fill="#9a32cd" stroke="#9a32cd" points="1161.86,-234.389 1152.63,-239.579 1163.08,-241.281 1161.86,-234.389"/>
<text text-anchor="middle" x="1214.5" y="-236.869" font-family="Helvetica,sans-Serif" font-size="10.00"> position</text>
</g>
<!-- Node31&#45;&gt;Node1 -->
<g id="edge43" class="edge"><title>Node31&#45;&gt;Node1</title>
<path fill="none" stroke="#9a32cd" stroke-dasharray="5,2" d="M1507.09,-280.056C1529.22,-282.66 1553.45,-285.51 1572.56,-287.758"/>
<polygon fill="#9a32cd" stroke="#9a32cd" points="1507.44,-276.573 1497.1,-278.881 1506.62,-283.525 1507.44,-276.573"/>
<text text-anchor="middle" x="1535" y="-288.869" font-family="Helvetica,sans-Serif" font-size="10.00"> handler</text>
</g>
<!-- Node31&#45;&gt;Node8 -->
<g id="edge41" class="edge"><title>Node31&#45;&gt;Node8</title>
<path fill="none" stroke="#9a32cd" stroke-dasharray="5,2" d="M1479.73,-259.786C1512.02,-248.455 1562.34,-233.869 1607.5,-233.869 1607.5,-233.869 1607.5,-233.869 2030,-233.869 2093.3,-233.869 2165.65,-251.783 2205.71,-263.328"/>
<polygon fill="#9a32cd" stroke="#9a32cd" points="1478.13,-256.642 1469.92,-263.328 1480.51,-263.227 1478.13,-256.642"/>
<text text-anchor="middle" x="1795.5" y="-236.869" font-family="Helvetica,sans-Serif" font-size="10.00"> handler</text>
</g>
</g>
</svg>
