<?xml version="1.0" encoding="UTF-8" standalone="no"?>
<!DOCTYPE svg PUBLIC "-//W3C//DTD SVG 1.1//EN"
 "http://www.w3.org/Graphics/SVG/1.1/DTD/svg11.dtd">
<!-- Generated by graphviz version 2.38.0 (20140413.2041)
 -->
<!-- Title: Tokeniser Pages: 1 -->
<svg width="284pt" height="297pt"
 viewBox="0.00 0.00 283.50 297.00" xmlns="http://www.w3.org/2000/svg" xmlns:xlink="http://www.w3.org/1999/xlink">
<g id="graph0" class="graph" transform="scale(1 1) rotate(0) translate(4 293)">
<title>Tokeniser</title>
<polygon fill="white" stroke="none" points="-4,4 -4,-293 279.5,-293 279.5,4 -4,4"/>
<!-- Node1 -->
<g id="node1" class="node"><title>Node1</title>
<polygon fill="#bfbfbf" stroke="black" points="86,-0.5 86,-19.5 147,-19.5 147,-0.5 86,-0.5"/>
<text text-anchor="middle" x="116.5" y="-7.5" font-family="Helvetica,sans-Serif" font-size="10.00">Tokeniser</text>
</g>
<!-- Node2 -->
<g id="node2" class="node"><title>Node2</title>
<g id="a_node2"><a xlink:title="STL class. ">
<polygon fill="white" stroke="#bfbfbf" points="19,-201.5 19,-220.5 84,-220.5 84,-201.5 19,-201.5"/>
<text text-anchor="middle" x="51.5" y="-208.5" font-family="Helvetica,sans-Serif" font-size="10.00">std::string</text>
</a>
</g>
</g>
<!-- Node2&#45;&gt;Node1 -->
<g id="edge1" class="edge"><title>Node2&#45;&gt;Node1</title>
<path fill="none" stroke="#9a32cd" stroke-dasharray="5,2" d="M49.5695,-191.2C48.0403,-169.723 47.5681,-133.827 57.5,-105 69.4249,-70.388 96.1485,-35.374 109.135,-19.6205"/>
<polygon fill="#9a32cd" stroke="#9a32cd" points="46.0908,-191.598 50.4421,-201.258 53.0646,-190.993 46.0908,-191.598"/>
<text text-anchor="middle" x="90.5" y="-108" font-family="Helvetica,sans-Serif" font-size="10.00"> current_word</text>
</g>
<!-- Node5 -->
<g id="node5" class="node"><title>Node5</title>
<polygon fill="white" stroke="#bfbfbf" points="63.5,-134.5 63.5,-153.5 201.5,-153.5 201.5,-134.5 63.5,-134.5"/>
<text text-anchor="middle" x="132.5" y="-141.5" font-family="Helvetica,sans-Serif" font-size="10.00">std::vector&lt; std::string &gt;</text>
</g>
<!-- Node2&#45;&gt;Node5 -->
<g id="edge5" class="edge"><title>Node2&#45;&gt;Node5</title>
<path fill="none" stroke="#9a32cd" stroke-dasharray="5,2" d="M70.5495,-194.713C86.5082,-181.907 108.713,-164.088 121.749,-153.627"/>
<polygon fill="#9a32cd" stroke="#9a32cd" points="68.0328,-192.245 62.424,-201.234 72.4139,-197.705 68.0328,-192.245"/>
<text text-anchor="middle" x="121" y="-175" font-family="Helvetica,sans-Serif" font-size="10.00"> elements</text>
</g>
<!-- Node3 -->
<g id="node3" class="node"><title>Node3</title>
<g id="a_node3"><a xlink:title="STL class. ">
<polygon fill="white" stroke="#bfbfbf" points="0,-258.5 0,-288.5 103,-288.5 103,-258.5 0,-258.5"/>
<text text-anchor="start" x="8" y="-276.5" font-family="Helvetica,sans-Serif" font-size="10.00">std::basic_string&lt;</text>
<text text-anchor="middle" x="51.5" y="-265.5" font-family="Helvetica,sans-Serif" font-size="10.00"> char &gt;</text>
</a>
</g>
</g>
<!-- Node3&#45;&gt;Node2 -->
<g id="edge2" class="edge"><title>Node3&#45;&gt;Node2</title>
<path fill="none" stroke="midnightblue" d="M51.5,-248.352C51.5,-238.513 51.5,-227.775 51.5,-220.54"/>
<polygon fill="midnightblue" stroke="midnightblue" points="48.0001,-248.468 51.5,-258.468 55.0001,-248.468 48.0001,-248.468"/>
</g>
<!-- Node4 -->
<g id="node4" class="node"><title>Node4</title>
<polygon fill="white" stroke="#bfbfbf" points="165.5,-67.5 165.5,-86.5 275.5,-86.5 275.5,-67.5 165.5,-67.5"/>
<text text-anchor="middle" x="220.5" y="-74.5" font-family="Helvetica,sans-Serif" font-size="10.00">std::vector&lt; Line &gt;</text>
</g>
<!-- Node4&#45;&gt;Node1 -->
<g id="edge3" class="edge"><title>Node4&#45;&gt;Node1</title>
<path fill="none" stroke="#9a32cd" stroke-dasharray="5,2" d="M197.73,-61.7687C177.144,-48.9026 147.506,-30.379 130.304,-19.6273"/>
<polygon fill="#9a32cd" stroke="#9a32cd" points="196.139,-64.9018 206.474,-67.2338 199.849,-58.9658 196.139,-64.9018"/>
<text text-anchor="middle" x="203.5" y="-41" font-family="Helvetica,sans-Serif" font-size="10.00"> ready_lines</text>
</g>
<!-- Node5&#45;&gt;Node1 -->
<g id="edge6" class="edge"><title>Node5&#45;&gt;Node1</title>
<path fill="none" stroke="#9a32cd" stroke-dasharray="5,2" d="M130.125,-124.249C128.756,-113.374 127.011,-99.416 125.5,-87 122.546,-62.7317 119.189,-34.0873 117.534,-19.8946"/>
<polygon fill="#9a32cd" stroke="#9a32cd" points="126.666,-124.79 131.391,-134.272 133.611,-123.912 126.666,-124.79"/>
<text text-anchor="middle" x="141" y="-74.5" font-family="Helvetica,sans-Serif" font-size="10.00"> words</text>
</g>
<!-- Node5&#45;&gt;Node4 -->
<g id="edge4" class="edge"><title>Node5&#45;&gt;Node4</title>
<path fill="none" stroke="#9a32cd" stroke-dasharray="5,2" d="M152.716,-128.068C170.086,-115.238 194.526,-97.1853 208.82,-86.6273"/>
<polygon fill="#9a32cd" stroke="#9a32cd" points="150.332,-125.477 144.368,-134.234 154.491,-131.108 150.332,-125.477"/>
<text text-anchor="middle" x="206" y="-108" font-family="Helvetica,sans-Serif" font-size="10.00"> elements</text>
</g>
</g>
</svg>
