<?xml version="1.0" encoding="UTF-8" standalone="no"?>
<!DOCTYPE svg PUBLIC "-//W3C//DTD SVG 1.1//EN"
 "http://www.w3.org/Graphics/SVG/1.1/DTD/svg11.dtd">
<!-- Generated by graphviz version 2.36.0 (20140111.2315)
 -->
<!-- Title: PipeAudio Pages: 1 -->
<!--zoomable 142 -->
<svg id="main" version="1.1" xmlns="http://www.w3.org/2000/svg" xmlns:xlink="http://www.w3.org/1999/xlink" xml:space="preserve" onload="init(evt)">
<style type="text/css"><![CDATA[
.edge:hover path { stroke: red; }
.edge:hover polygon { stroke: red; fill: red; }
]]></style>
<script type="text/javascript"><![CDATA[
var edges = document.getElementsByTagName('g');
if (edges && edges.length) {
  for (var i=0;i<edges.length;i++) {
    if (edges[i].id.substr(0,4)=='edge') {
      edges[i].setAttribute('class','edge');
    }
  }
}
]]></script>
        <defs>
                <circle id="rim" cx="0" cy="0" r="7"/>
                <circle id="rim2" cx="0" cy="0" r="3.5"/>
                <g id="zoomPlus">
                        <use xlink:href="#rim" fill="#404040">
                                <set attributeName="fill" to="#808080" begin="zoomplus.mouseover" end="zoomplus.mouseout"/>
                        </use>
                        <path d="M-4,0h8M0,-4v8" fill="none" stroke="white" stroke-width="1.5" pointer-events="none"/>
                </g>
                <g id="zoomMin">
                        <use xlink:href="#rim" fill="#404040">
                                <set attributeName="fill" to="#808080" begin="zoomminus.mouseover" end="zoomminus.mouseout"/>
                        </use>
                        <path d="M-4,0h8" fill="none" stroke="white" stroke-width="1.5" pointer-events="none"/>
                </g>
                <g id="dirArrow">
                        <path fill="none" stroke="white" stroke-width="1.5" d="M0,-3.0v7 M-2.5,-0.5L0,-3.0L2.5,-0.5"/>
                </g>
               <g id="resetDef">
                       <use xlink:href="#rim2" fill="#404040">
                               <set attributeName="fill" to="#808080" begin="reset.mouseover" end="reset.mouseout"/>
                       </use>
               </g>
        </defs>

<script type="text/javascript">
var viewWidth = 714;
var viewHeight = 142;
var sectionId = 'dynsection-1';
</script>
<script xlink:href="svgpan.js"/>
<svg id="graph" class="graph">
<g id="viewport">
<title>PipeAudio</title>
<polygon fill="white" stroke="none" points="-4,4 -4,-138 710,-138 710,4 -4,4"/>
<!-- Node2 -->
<g id="node1" class="node"><title>Node2</title>
<polygon fill="#bfbfbf" stroke="black" points="642,-56.5 642,-75.5 706,-75.5 706,-56.5 642,-56.5"/>
<text text-anchor="middle" x="674" y="-63.5" font-family="Helvetica,sans-Serif" font-size="10.00">PipeAudio</text>
</g>
<!-- Node3 -->
<g id="node2" class="node"><title>Node3</title>
<g id="a_node2"><a xlink:href="classAudio.html" target="_top" xlink:title="An audio item. ">
<polygon fill="white" stroke="black" points="466,-114.5 466,-133.5 510,-133.5 510,-114.5 466,-114.5"/>
<text text-anchor="middle" x="488" y="-121.5" font-family="Helvetica,sans-Serif" font-size="10.00">Audio</text>
</a>
</g>
</g>
<!-- Node3&#45;&gt;Node2 -->
<g id="edge1" class="edge"><title>Node3&#45;&gt;Node2</title>
<path fill="none" stroke="midnightblue" d="M520.012,-118.184C547.815,-112.452 589.429,-102.579 624,-89 634.146,-85.0145 645.158,-79.9185 654.168,-75.5366"/>
<polygon fill="midnightblue" stroke="midnightblue" points="519.192,-114.779 510.076,-120.178 520.569,-121.642 519.192,-114.779"/>
</g>
<!-- Node4 -->
<g id="node3" class="node"><title>Node4</title>
<polygon fill="white" stroke="#bfbfbf" points="409,-76.5 409,-95.5 567,-95.5 567,-76.5 409,-76.5"/>
<text text-anchor="middle" x="488" y="-83.5" font-family="Helvetica,sans-Serif" font-size="10.00">std::unique_ptr&lt; AudioSink &gt;</text>
</g>
<!-- Node4&#45;&gt;Node2 -->
<g id="edge2" class="edge"><title>Node4&#45;&gt;Node2</title>
<path fill="none" stroke="#9a32cd" stroke-dasharray="5,2" d="M577.242,-76.4084C600.33,-73.8989 623.733,-71.3551 641.624,-69.4104"/>
<polygon fill="#9a32cd" stroke="#9a32cd" points="576.596,-72.958 567.033,-77.5182 577.352,-79.917 576.596,-72.958"/>
<text text-anchor="middle" x="608" y="-77" font-family="Helvetica,sans-Serif" font-size="10.00"> sink</text>
</g>
<!-- Node5 -->
<g id="node4" class="node"><title>Node5</title>
<g id="a_node4"><a xlink:href="classAudioSink.html" target="_top" xlink:title="Abstract class for audio output sinks. ">
<polygon fill="white" stroke="black" points="277,-76.5 277,-95.5 341,-95.5 341,-76.5 277,-76.5"/>
<text text-anchor="middle" x="309" y="-83.5" font-family="Helvetica,sans-Serif" font-size="10.00">AudioSink</text>
</a>
</g>
</g>
<!-- Node5&#45;&gt;Node4 -->
<g id="edge3" class="edge"><title>Node5&#45;&gt;Node4</title>
<path fill="none" stroke="#9a32cd" stroke-dasharray="5,2" d="M351.462,-86C368.634,-86 389.136,-86 408.933,-86"/>
<polygon fill="#9a32cd" stroke="#9a32cd" points="351.237,-82.5001 341.237,-86 351.237,-89.5001 351.237,-82.5001"/>
<text text-anchor="middle" x="375" y="-89" font-family="Helvetica,sans-Serif" font-size="10.00"> ptr</text>
</g>
<!-- Node6 -->
<g id="node5" class="node"><title>Node6</title>
<polygon fill="white" stroke="#bfbfbf" points="402,-38.5 402,-57.5 574,-57.5 574,-38.5 402,-38.5"/>
<text text-anchor="middle" x="488" y="-45.5" font-family="Helvetica,sans-Serif" font-size="10.00">std::unique_ptr&lt; AudioSource &gt;</text>
</g>
<!-- Node6&#45;&gt;Node2 -->
<g id="edge4" class="edge"><title>Node6&#45;&gt;Node2</title>
<path fill="none" stroke="#9a32cd" stroke-dasharray="5,2" d="M584.452,-46.8541C597.787,-47.6437 611.274,-48.9509 624,-51 631.466,-52.2021 639.376,-54.2596 646.612,-56.4719"/>
<polygon fill="#9a32cd" stroke="#9a32cd" points="584.462,-43.3503 574.3,-46.3475 584.113,-50.3416 584.462,-43.3503"/>
<text text-anchor="middle" x="608" y="-54" font-family="Helvetica,sans-Serif" font-size="10.00"> src</text>
</g>
<!-- Node7 -->
<g id="node6" class="node"><title>Node7</title>
<g id="a_node6"><a xlink:href="classAudioSource.html" target="_top" xlink:title="An object responsible for decoding an audio file. ">
<polygon fill="white" stroke="black" points="270.5,-38.5 270.5,-57.5 347.5,-57.5 347.5,-38.5 270.5,-38.5"/>
<text text-anchor="middle" x="309" y="-45.5" font-family="Helvetica,sans-Serif" font-size="10.00">AudioSource</text>
</a>
</g>
</g>
<!-- Node7&#45;&gt;Node6 -->
<g id="edge5" class="edge"><title>Node7&#45;&gt;Node6</title>
<path fill="none" stroke="#9a32cd" stroke-dasharray="5,2" d="M357.63,-48C371.291,-48 386.617,-48 401.813,-48"/>
<polygon fill="#9a32cd" stroke="#9a32cd" points="357.537,-44.5001 347.537,-48 357.537,-51.5001 357.537,-44.5001"/>
<text text-anchor="middle" x="375" y="-51" font-family="Helvetica,sans-Serif" font-size="10.00"> ptr</text>
</g>
<!-- Node8 -->
<g id="node7" class="node"><title>Node8</title>
<g id="a_node7"><a xlink:title="STL class. ">
<polygon fill="white" stroke="#bfbfbf" points="142.5,-38.5 142.5,-57.5 207.5,-57.5 207.5,-38.5 142.5,-38.5"/>
<text text-anchor="middle" x="175" y="-45.5" font-family="Helvetica,sans-Serif" font-size="10.00">std::string</text>
</a>
</g>
</g>
<!-- Node8&#45;&gt;Node7 -->
<g id="edge6" class="edge"><title>Node8&#45;&gt;Node7</title>
<path fill="none" stroke="#9a32cd" stroke-dasharray="5,2" d="M217.701,-48C234.476,-48 253.685,-48 270.062,-48"/>
<polygon fill="#9a32cd" stroke="#9a32cd" points="217.617,-44.5001 207.617,-48 217.617,-51.5001 217.617,-44.5001"/>
<text text-anchor="middle" x="239" y="-51" font-family="Helvetica,sans-Serif" font-size="10.00"> path</text>
</g>
<!-- Node9 -->
<g id="node8" class="node"><title>Node9</title>
<g id="a_node8"><a xlink:title="STL class. ">
<polygon fill="white" stroke="#bfbfbf" points="0.5,-33 0.5,-63 103.5,-63 103.5,-33 0.5,-33"/>
<text text-anchor="start" x="8.5" y="-51" font-family="Helvetica,sans-Serif" font-size="10.00">std::basic_string&lt;</text>
<text text-anchor="middle" x="52" y="-40" font-family="Helvetica,sans-Serif" font-size="10.00"> char &gt;</text>
</a>
</g>
</g>
<!-- Node9&#45;&gt;Node8 -->
<g id="edge7" class="edge"><title>Node9&#45;&gt;Node8</title>
<path fill="none" stroke="midnightblue" d="M113.814,-48C123.641,-48 133.456,-48 142.224,-48"/>
<polygon fill="midnightblue" stroke="midnightblue" points="113.614,-44.5001 103.614,-48 113.614,-51.5001 113.614,-44.5001"/>
</g>
<!-- Node10 -->
<g id="node9" class="node"><title>Node10</title>
<polygon fill="white" stroke="#bfbfbf" points="416,-0.5 416,-19.5 560,-19.5 560,-0.5 416,-0.5"/>
<text text-anchor="middle" x="488" y="-7.5" font-family="Helvetica,sans-Serif" font-size="10.00">std::vector&lt; std::uint8_t &gt;</text>
</g>
<!-- Node10&#45;&gt;Node2 -->
<g id="edge8" class="edge"><title>Node10&#45;&gt;Node2</title>
<path fill="none" stroke="#9a32cd" stroke-dasharray="5,2" d="M570.234,-18.1162C588.334,-21.4859 607.145,-26.2539 624,-33 638.092,-38.6405 652.268,-48.7887 661.72,-56.3474"/>
<polygon fill="#9a32cd" stroke="#9a32cd" points="570.72,-14.6482 560.268,-16.3843 569.521,-21.5449 570.72,-14.6482"/>
<text text-anchor="middle" x="608" y="-36" font-family="Helvetica,sans-Serif" font-size="10.00"> frame</text>
</g>
</g>
</svg>
        <g id="navigator" transform="translate(0 0)" fill="#404254">
                <rect fill="#f2f5e9" fill-opacity="0.5" stroke="#606060" stroke-width=".5" x="0" y="0" width="60" height="60"/>
                <use id="zoomplus" xlink:href="#zoomPlus" x="17" y="9" onmousedown="handleZoom(evt,'in')"/>
                <use id="zoomminus" xlink:href="#zoomMin" x="42" y="9" onmousedown="handleZoom(evt,'out')"/>
                <use id="reset" xlink:href="#resetDef" x="30" y="36" onmousedown="handleReset()"/>
                <g id="arrowUp" xlink:href="#dirArrow" transform="translate(30 24)" onmousedown="handlePan(0,-1)">
                  <use xlink:href="#rim" fill="#404040">
                        <set attributeName="fill" to="#808080" begin="arrowUp.mouseover" end="arrowUp.mouseout"/>
                  </use>
                  <path fill="none" stroke="white" stroke-width="1.5" d="M0,-3.0v7 M-2.5,-0.5L0,-3.0L2.5,-0.5"/>
                </g>
                <g id="arrowRight" xlink:href="#dirArrow" transform="rotate(90) translate(36 -43)" onmousedown="handlePan(1,0)">
                  <use xlink:href="#rim" fill="#404040">
                        <set attributeName="fill" to="#808080" begin="arrowRight.mouseover" end="arrowRight.mouseout"/>
                  </use>
                  <path fill="none" stroke="white" stroke-width="1.5" d="M0,-3.0v7 M-2.5,-0.5L0,-3.0L2.5,-0.5"/>
                </g>
                <g id="arrowDown" xlink:href="#dirArrow" transform="rotate(180) translate(-30 -48)" onmousedown="handlePan(0,1)">
                  <use xlink:href="#rim" fill="#404040">
                        <set attributeName="fill" to="#808080" begin="arrowDown.mouseover" end="arrowDown.mouseout"/>
                  </use>
                  <path fill="none" stroke="white" stroke-width="1.5" d="M0,-3.0v7 M-2.5,-0.5L0,-3.0L2.5,-0.5"/>
                </g>
                <g id="arrowLeft" xlink:href="#dirArrow" transform="rotate(270) translate(-36 17)" onmousedown="handlePan(-1,0)">
                  <use xlink:href="#rim" fill="#404040">
                        <set attributeName="fill" to="#808080" begin="arrowLeft.mouseover" end="arrowLeft.mouseout"/>
                  </use>
                  <path fill="none" stroke="white" stroke-width="1.5" d="M0,-3.0v7 M-2.5,-0.5L0,-3.0L2.5,-0.5"/>
                </g>
        </g>
        <svg viewBox="0 0 15 15" width="100%" height="30px" preserveAspectRatio="xMaxYMin meet">
         <g id="arrow_out" transform="scale(0.3 0.3)">
          <a xlink:href="classPipeAudio__coll__graph_org.svg" target="_base">
           <rect id="button" ry="5" rx="5" y="6" x="6" height="38" width="38"
                fill="#f2f5e9" fill-opacity="0.5" stroke="#606060" stroke-width="1.0"/>
           <path id="arrow"
             d="M 11.500037,31.436501 C 11.940474,20.09759 22.043105,11.32322 32.158766,21.979434 L 37.068811,17.246167 C 37.068811,17.246167 37.088388,32 37.088388,32 L 22.160133,31.978069 C 22.160133,31.978069 26.997745,27.140456 26.997745,27.140456 C 18.528582,18.264221 13.291696,25.230495 11.500037,31.436501 z"
             style="fill:#404040;"/>
          </a>
         </g>
        </svg>
</svg>
