<?xml version="1.0" encoding="UTF-8" standalone="no"?>
<!DOCTYPE svg PUBLIC "-//W3C//DTD SVG 1.1//EN"
 "http://www.w3.org/Graphics/SVG/1.1/DTD/svg11.dtd">
<!-- Generated by graphviz version 2.38.0 (20140413.2041)
 -->
<!-- Title: AudioSink Pages: 1 -->
<svg width="300pt" height="127pt"
 viewBox="0.00 0.00 300.00 126.50" xmlns="http://www.w3.org/2000/svg" xmlns:xlink="http://www.w3.org/1999/xlink">
<g id="graph0" class="graph" transform="scale(1 1) rotate(0) translate(4 122.5)">
<title>AudioSink</title>
<polygon fill="white" stroke="none" points="-4,4 -4,-122.5 296,-122.5 296,4 -4,4"/>
<!-- Node1 -->
<g id="node1" class="node"><title>Node1</title>
<polygon fill="#bfbfbf" stroke="black" points="228,-55 228,-74 292,-74 292,-55 228,-55"/>
<text text-anchor="middle" x="260" y="-62" font-family="Helvetica,sans-Serif" font-size="10.00">AudioSink</text>
</g>
<!-- Node2 -->
<g id="node2" class="node"><title>Node2</title>
<polygon fill="white" stroke="#bfbfbf" points="0,-99 0,-118 150,-118 150,-99 0,-99"/>
<text text-anchor="middle" x="75" y="-106" font-family="Helvetica,sans-Serif" font-size="10.00">portaudio::CallbackInterface</text>
</g>
<!-- Node2&#45;&gt;Node1 -->
<g id="edge1" class="edge"><title>Node2&#45;&gt;Node1</title>
<path fill="none" stroke="#8b1a1a" d="M134.75,-96.8995C158.255,-91.9687 185.514,-85.8855 210,-79.5 216.284,-77.8612 222.969,-75.9373 229.315,-74.0242"/>
<polygon fill="#8b1a1a" stroke="#8b1a1a" points="134.005,-93.4796 124.925,-98.9397 135.428,-100.333 134.005,-93.4796"/>
</g>
<!-- Node3 -->
<g id="node3" class="node"><title>Node3</title>
<g id="a_node3"><a xlink:href="classRingBuffer.html" target="_top" xlink:title="RingBuffer\&lt; char, unsigned\l long \&gt;">
<polygon fill="white" stroke="black" points="1.5,-49.5 1.5,-79.5 148.5,-79.5 148.5,-49.5 1.5,-49.5"/>
<text text-anchor="start" x="9.5" y="-67.5" font-family="Helvetica,sans-Serif" font-size="10.00">RingBuffer&lt; char, unsigned</text>
<text text-anchor="middle" x="75" y="-56.5" font-family="Helvetica,sans-Serif" font-size="10.00"> long &gt;</text>
</a>
</g>
</g>
<!-- Node3&#45;&gt;Node1 -->
<g id="edge2" class="edge"><title>Node3&#45;&gt;Node1</title>
<path fill="none" stroke="#9a32cd" stroke-dasharray="5,2" d="M158.681,-64.5C183.26,-64.5 208.697,-64.5 227.806,-64.5"/>
<polygon fill="#9a32cd" stroke="#9a32cd" points="158.589,-61.0001 148.589,-64.5 158.589,-68.0001 158.589,-61.0001"/>
<text text-anchor="middle" x="189" y="-67.5" font-family="Helvetica,sans-Serif" font-size="10.00"> ring_buf</text>
</g>
<!-- Node4 -->
<g id="node4" class="node"><title>Node4</title>
<polygon fill="white" stroke="#bfbfbf" points="2,-0.5 2,-30.5 148,-30.5 148,-0.5 2,-0.5"/>
<text text-anchor="start" x="10" y="-18.5" font-family="Helvetica,sans-Serif" font-size="10.00">std::unique_ptr&lt; portaudio</text>
<text text-anchor="middle" x="75" y="-7.5" font-family="Helvetica,sans-Serif" font-size="10.00">::Stream &gt;</text>
</g>
<!-- Node4&#45;&gt;Node1 -->
<g id="edge3" class="edge"><title>Node4&#45;&gt;Node1</title>
<path fill="none" stroke="#9a32cd" stroke-dasharray="5,2" d="M147.642,-32.9939C167.86,-38.116 189.839,-43.8599 210,-49.5 216.083,-51.2017 222.561,-53.1133 228.747,-54.9875"/>
<polygon fill="#9a32cd" stroke="#9a32cd" points="148.426,-29.5822 137.874,-30.5325 146.716,-36.37 148.426,-29.5822"/>
<text text-anchor="middle" x="189" y="-52.5" font-family="Helvetica,sans-Serif" font-size="10.00"> stream</text>
</g>
</g>
</svg>
