<?xml version="1.0" encoding="UTF-8" standalone="no"?>
<!DOCTYPE svg PUBLIC "-//W3C//DTD SVG 1.1//EN"
 "http://www.w3.org/Graphics/SVG/1.1/DTD/svg11.dtd">
<!-- Generated by graphviz version 2.38.0 (20140413.2041)
 -->
<!-- Title: FileError Pages: 1 -->
<svg width="106pt" height="220pt"
 viewBox="0.00 0.00 106.00 220.00" xmlns="http://www.w3.org/2000/svg" xmlns:xlink="http://www.w3.org/1999/xlink">
<g id="graph0" class="graph" transform="scale(1 1) rotate(0) translate(4 216)">
<title>FileError</title>
<polygon fill="white" stroke="none" points="-4,4 -4,-216 102,-216 102,4 -4,4"/>
<!-- Node1 -->
<g id="node1" class="node"><title>Node1</title>
<polygon fill="#bfbfbf" stroke="black" points="20.5,-0.5 20.5,-19.5 77.5,-19.5 77.5,-0.5 20.5,-0.5"/>
<text text-anchor="middle" x="49" y="-7.5" font-family="Helvetica,sans-Serif" font-size="10.00">FileError</text>
</g>
<!-- Node2 -->
<g id="node2" class="node"><title>Node2</title>
<g id="a_node2"><a xlink:href="classError.html" target="_top" xlink:title="A playd exception. ">
<polygon fill="white" stroke="black" points="28.5,-57.5 28.5,-76.5 69.5,-76.5 69.5,-57.5 28.5,-57.5"/>
<text text-anchor="middle" x="49" y="-64.5" font-family="Helvetica,sans-Serif" font-size="10.00">Error</text>
</a>
</g>
</g>
<!-- Node2&#45;&gt;Node1 -->
<g id="edge1" class="edge"><title>Node2&#45;&gt;Node1</title>
<path fill="none" stroke="midnightblue" d="M49,-47.1166C49,-37.8173 49,-27.0557 49,-19.7149"/>
<polygon fill="midnightblue" stroke="midnightblue" points="45.5001,-47.4062 49,-57.4062 52.5001,-47.4063 45.5001,-47.4062"/>
</g>
<!-- Node3 -->
<g id="node3" class="node"><title>Node3</title>
<g id="a_node3"><a xlink:title="STL class. ">
<polygon fill="white" stroke="#bfbfbf" points="18,-124.5 18,-143.5 80,-143.5 80,-124.5 18,-124.5"/>
<text text-anchor="middle" x="49" y="-131.5" font-family="Helvetica,sans-Serif" font-size="10.00">std::string</text>
</a>
</g>
</g>
<!-- Node3&#45;&gt;Node2 -->
<g id="edge2" class="edge"><title>Node3&#45;&gt;Node2</title>
<path fill="none" stroke="#9a32cd" stroke-dasharray="5,2" d="M49,-114.037C49,-101.67 49,-86.1198 49,-76.6273"/>
<polygon fill="#9a32cd" stroke="#9a32cd" points="45.5001,-114.234 49,-124.234 52.5001,-114.234 45.5001,-114.234"/>
<text text-anchor="middle" x="72" y="-98" font-family="Helvetica,sans-Serif" font-size="10.00"> message</text>
</g>
<!-- Node4 -->
<g id="node4" class="node"><title>Node4</title>
<g id="a_node4"><a xlink:title="STL class. ">
<polygon fill="white" stroke="#bfbfbf" points="-7.10543e-15,-181.5 -7.10543e-15,-211.5 98,-211.5 98,-181.5 -7.10543e-15,-181.5"/>
<text text-anchor="start" x="8" y="-199.5" font-family="Helvetica,sans-Serif" font-size="10.00">std::basic_string&lt;</text>
<text text-anchor="middle" x="49" y="-188.5" font-family="Helvetica,sans-Serif" font-size="10.00"> char &gt;</text>
</a>
</g>
</g>
<!-- Node4&#45;&gt;Node3 -->
<g id="edge3" class="edge"><title>Node4&#45;&gt;Node3</title>
<path fill="none" stroke="midnightblue" d="M49,-171.352C49,-161.513 49,-150.775 49,-143.54"/>
<polygon fill="midnightblue" stroke="midnightblue" points="45.5001,-171.468 49,-181.468 52.5001,-171.468 45.5001,-171.468"/>
</g>
</g>
</svg>
