<?xml version="1.0" encoding="UTF-8" standalone="no"?>
<!DOCTYPE svg PUBLIC "-//W3C//DTD SVG 1.1//EN"
 "http://www.w3.org/Graphics/SVG/1.1/DTD/svg11.dtd">
<!-- Generated by graphviz version 2.36.0 (20140111.2315)
 -->
<!-- Title: Tokeniser Pages: 1 -->
<svg width="396pt" height="246pt"
 viewBox="0.00 0.00 396.00 246.00" xmlns="http://www.w3.org/2000/svg" xmlns:xlink="http://www.w3.org/1999/xlink">
<g id="graph0" class="graph" transform="scale(1 1) rotate(0) translate(4 242)">
<title>Tokeniser</title>
<polygon fill="white" stroke="none" points="-4,4 -4,-242 392,-242 392,4 -4,4"/>
<!-- Node1 -->
<g id="node1" class="node"><title>Node1</title>
<polygon fill="#bfbfbf" stroke="black" points="135.5,-0.5 135.5,-19.5 196.5,-19.5 196.5,-0.5 135.5,-0.5"/>
<text text-anchor="middle" x="166" y="-7.5" font-family="Helvetica,sans-Serif" font-size="10.00">Tokeniser</text>
</g>
<!-- Node2 -->
<g id="node2" class="node"><title>Node2</title>
<polygon fill="white" stroke="#bfbfbf" points="0,-69 0,-99 130,-99 130,-69 0,-69"/>
<text text-anchor="start" x="8" y="-87" font-family="Helvetica,sans-Serif" font-size="10.00">std::vector&lt; std::vector</text>
<text text-anchor="middle" x="65" y="-76" font-family="Helvetica,sans-Serif" font-size="10.00">&lt; std::string &gt; &gt;</text>
</g>
<!-- Node2&#45;&gt;Node1 -->
<g id="edge1" class="edge"><title>Node2&#45;&gt;Node1</title>
<path fill="none" stroke="#9a32cd" stroke-dasharray="5,2" d="M76.0348,-59.8792C80.6817,-52.0782 86.7194,-43.8702 94,-38 105.952,-28.3637 121.695,-21.9365 135.411,-17.7798"/>
<polygon fill="#9a32cd" stroke="#9a32cd" points="72.947,-58.2311 71.2274,-68.6855 79.0911,-61.5853 72.947,-58.2311"/>
<text text-anchor="middle" x="123" y="-41.5" font-family="Helvetica,sans-Serif" font-size="10.00"> ready_lines</text>
</g>
<!-- Node3 -->
<g id="node3" class="node"><title>Node3</title>
<g id="a_node3"><a xlink:title="STL class. ">
<polygon fill="white" stroke="#bfbfbf" points="149.5,-148.5 149.5,-167.5 214.5,-167.5 214.5,-148.5 149.5,-148.5"/>
<text text-anchor="middle" x="182" y="-155.5" font-family="Helvetica,sans-Serif" font-size="10.00">std::string</text>
</a>
</g>
</g>
<!-- Node3&#45;&gt;Node1 -->
<g id="edge2" class="edge"><title>Node3&#45;&gt;Node1</title>
<path fill="none" stroke="#9a32cd" stroke-dasharray="5,2" d="M179.554,-137.923C178.16,-126.856 176.416,-112.649 175,-100 171.7,-70.5215 168.314,-35.4881 166.808,-19.5981"/>
<polygon fill="#9a32cd" stroke="#9a32cd" points="176.117,-138.642 180.85,-148.121 183.061,-137.76 176.117,-138.642"/>
<text text-anchor="middle" x="208" y="-81.5" font-family="Helvetica,sans-Serif" font-size="10.00"> current_word</text>
</g>
<!-- Node5 -->
<g id="node5" class="node"><title>Node5</title>
<polygon fill="white" stroke="#bfbfbf" points="250,-74.5 250,-93.5 388,-93.5 388,-74.5 250,-74.5"/>
<text text-anchor="middle" x="319" y="-81.5" font-family="Helvetica,sans-Serif" font-size="10.00">std::vector&lt; std::string &gt;</text>
</g>
<!-- Node3&#45;&gt;Node5 -->
<g id="edge5" class="edge"><title>Node3&#45;&gt;Node5</title>
<path fill="none" stroke="#9a32cd" stroke-dasharray="5,2" d="M207.385,-143.659C235.263,-129.008 279.194,-105.92 302.767,-93.531"/>
<polygon fill="#9a32cd" stroke="#9a32cd" points="205.477,-140.708 198.254,-148.458 208.734,-146.904 205.477,-140.708"/>
<text text-anchor="middle" x="278.5" y="-121.5" font-family="Helvetica,sans-Serif" font-size="10.00"> elements</text>
</g>
<!-- Node4 -->
<g id="node4" class="node"><title>Node4</title>
<g id="a_node4"><a xlink:title="STL class. ">
<polygon fill="white" stroke="#bfbfbf" points="130.5,-207 130.5,-237 233.5,-237 233.5,-207 130.5,-207"/>
<text text-anchor="start" x="138.5" y="-225" font-family="Helvetica,sans-Serif" font-size="10.00">std::basic_string&lt;</text>
<text text-anchor="middle" x="182" y="-214" font-family="Helvetica,sans-Serif" font-size="10.00"> char &gt;</text>
</a>
</g>
</g>
<!-- Node4&#45;&gt;Node3 -->
<g id="edge3" class="edge"><title>Node4&#45;&gt;Node3</title>
<path fill="none" stroke="midnightblue" d="M182,-196.871C182,-186.663 182,-175.408 182,-167.842"/>
<polygon fill="midnightblue" stroke="midnightblue" points="178.5,-196.931 182,-206.931 185.5,-196.931 178.5,-196.931"/>
</g>
<!-- Node5&#45;&gt;Node1 -->
<g id="edge4" class="edge"><title>Node5&#45;&gt;Node1</title>
<path fill="none" stroke="#9a32cd" stroke-dasharray="5,2" d="M291.462,-70.0408C260.375,-55.412 210.685,-32.0283 184.128,-19.531"/>
<polygon fill="#9a32cd" stroke="#9a32cd" points="290.31,-73.3668 300.848,-74.4579 293.29,-67.033 290.31,-73.3668"/>
<text text-anchor="middle" x="262.5" y="-41.5" font-family="Helvetica,sans-Serif" font-size="10.00"> words</text>
</g>
</g>
</svg>
