<?xml version="1.0" encoding="UTF-8" standalone="no"?>
<!DOCTYPE svg PUBLIC "-//W3C//DTD SVG 1.1//EN"
 "http://www.w3.org/Graphics/SVG/1.1/DTD/svg11.dtd">
<!-- Generated by graphviz version 2.36.0 (20140111.2315)
 -->
<!-- Title: Audio Pages: 1 -->
<svg width="147pt" height="84pt"
 viewBox="0.00 0.00 147.00 84.00" xmlns="http://www.w3.org/2000/svg" xmlns:xlink="http://www.w3.org/1999/xlink">
<g id="graph0" class="graph" transform="scale(1 1) rotate(0) translate(4 80)">
<title>Audio</title>
<polygon fill="white" stroke="none" points="-4,4 -4,-80 143,-80 143,4 -4,4"/>
<!-- Node0 -->
<g id="node1" class="node"><title>Node0</title>
<polygon fill="#bfbfbf" stroke="black" points="45,-56.5 45,-75.5 89,-75.5 89,-56.5 45,-56.5"/>
<text text-anchor="middle" x="67" y="-63.5" font-family="Helvetica,sans-Serif" font-size="10.00">Audio</text>
</g>
<!-- Node1 -->
<g id="node2" class="node"><title>Node1</title>
<g id="a_node2"><a xlink:href="classNoAudio.html" target="_top" xlink:title="A dummy Audio implementation representing a lack of file. ">
<polygon fill="white" stroke="black" points="-0.5,-0.5 -0.5,-19.5 56.5,-19.5 56.5,-0.5 -0.5,-0.5"/>
<text text-anchor="middle" x="28" y="-7.5" font-family="Helvetica,sans-Serif" font-size="10.00">NoAudio</text>
</a>
</g>
</g>
<!-- Node0&#45;&gt;Node1 -->
<g id="edge1" class="edge"><title>Node0&#45;&gt;Node1</title>
<path fill="none" stroke="midnightblue" d="M54.6178,-47.8554C47.8646,-38.5048 39.7914,-27.3265 34.3202,-19.7511"/>
<polygon fill="midnightblue" stroke="midnightblue" points="51.8676,-50.0254 60.5599,-56.083 57.5424,-45.927 51.8676,-50.0254"/>
</g>
<!-- Node2 -->
<g id="node3" class="node"><title>Node2</title>
<g id="a_node3"><a xlink:href="classPipeAudio.html" target="_top" xlink:title="A concrete implementation of Audio as a &#39;pipe&#39;. ">
<polygon fill="white" stroke="black" points="75,-0.5 75,-19.5 139,-19.5 139,-0.5 75,-0.5"/>
<text text-anchor="middle" x="107" y="-7.5" font-family="Helvetica,sans-Serif" font-size="10.00">PipeAudio</text>
</a>
</g>
</g>
<!-- Node0&#45;&gt;Node2 -->
<g id="edge2" class="edge"><title>Node0&#45;&gt;Node2</title>
<path fill="none" stroke="midnightblue" d="M79.6997,-47.8554C86.626,-38.5048 94.9063,-27.3265 100.518,-19.7511"/>
<polygon fill="midnightblue" stroke="midnightblue" points="76.745,-45.9641 73.6052,-56.083 82.37,-50.1307 76.745,-45.9641"/>
</g>
</g>
</svg>
