<?xml version="1.0" encoding="UTF-8" standalone="no"?>
<!DOCTYPE svg PUBLIC "-//W3C//DTD SVG 1.1//EN"
 "http://www.w3.org/Graphics/SVG/1.1/DTD/svg11.dtd">
<!-- Generated by graphviz version 2.38.0 (20140413.2041)
 -->
<!-- Title: PlayerFile Pages: 1 -->
<svg width="1098pt" height="252pt"
 viewBox="0.00 0.00 1098.00 251.50" xmlns="http://www.w3.org/2000/svg" xmlns:xlink="http://www.w3.org/1999/xlink">
<g id="graph0" class="graph" transform="scale(1 1) rotate(0) translate(4 247.5)">
<title>PlayerFile</title>
<polygon fill="white" stroke="none" points="-4,4 -4,-247.5 1094,-247.5 1094,4 -4,4"/>
<!-- Node1 -->
<g id="node1" class="node"><title>Node1</title>
<polygon fill="#bfbfbf" stroke="black" points="1027,-85 1027,-104 1090,-104 1090,-85 1027,-85"/>
<text text-anchor="middle" x="1058.5" y="-92" font-family="Helvetica,sans-Serif" font-size="10.00">PlayerFile</text>
</g>
<!-- Node2 -->
<g id="node2" class="node"><title>Node2</title>
<g id="a_node2"><a xlink:href="classResponseSource.html" target="_top" xlink:title="Abstract helper class for sources of responses. ">
<polygon fill="white" stroke="black" points="809.5,-123 809.5,-142 907.5,-142 907.5,-123 809.5,-123"/>
<text text-anchor="middle" x="858.5" y="-130" font-family="Helvetica,sans-Serif" font-size="10.00">ResponseSource</text>
</a>
</g>
</g>
<!-- Node2&#45;&gt;Node1 -->
<g id="edge1" class="edge"><title>Node2&#45;&gt;Node1</title>
<path fill="none" stroke="midnightblue" d="M917.615,-125.586C945.448,-121.76 979.143,-116.374 1009,-109.5 1015.61,-107.977 1022.64,-106.014 1029.22,-104.012"/>
<polygon fill="midnightblue" stroke="midnightblue" points="917.09,-122.125 907.644,-126.925 918.021,-129.063 917.09,-122.125"/>
</g>
<!-- Node3 -->
<g id="node3" class="node"><title>Node3</title>
<g id="a_node3"><a xlink:href="classResponseSink.html" target="_top" xlink:title="Abstract class for anything that can be sent a response. ">
<polygon fill="white" stroke="black" points="603.5,-123 603.5,-142 688.5,-142 688.5,-123 603.5,-123"/>
<text text-anchor="middle" x="646" y="-130" font-family="Helvetica,sans-Serif" font-size="10.00">ResponseSink</text>
</a>
</g>
</g>
<!-- Node3&#45;&gt;Node2 -->
<g id="edge2" class="edge"><title>Node3&#45;&gt;Node2</title>
<path fill="none" stroke="#9a32cd" stroke-dasharray="5,2" d="M698.729,-132.5C732.515,-132.5 776.328,-132.5 809.368,-132.5"/>
<polygon fill="#9a32cd" stroke="#9a32cd" points="698.588,-129 688.588,-132.5 698.588,-136 698.588,-129"/>
<text text-anchor="middle" x="750.5" y="-135.5" font-family="Helvetica,sans-Serif" font-size="10.00"> push_sink</text>
</g>
<!-- Node4 -->
<g id="node4" class="node"><title>Node4</title>
<polygon fill="white" stroke="#bfbfbf" points="794,-85 794,-104 923,-104 923,-85 794,-85"/>
<text text-anchor="middle" x="858.5" y="-92" font-family="Helvetica,sans-Serif" font-size="10.00">std::unique_ptr&lt; Audio &gt;</text>
</g>
<!-- Node4&#45;&gt;Node1 -->
<g id="edge3" class="edge"><title>Node4&#45;&gt;Node1</title>
<path fill="none" stroke="#9a32cd" stroke-dasharray="5,2" d="M933.577,-94.5C965.891,-94.5 1001.99,-94.5 1026.86,-94.5"/>
<polygon fill="#9a32cd" stroke="#9a32cd" points="933.238,-91.0001 923.238,-94.5 933.238,-98.0001 933.238,-91.0001"/>
<text text-anchor="middle" x="975" y="-97.5" font-family="Helvetica,sans-Serif" font-size="10.00"> audio</text>
</g>
<!-- Node5 -->
<g id="node5" class="node"><title>Node5</title>
<g id="a_node5"><a xlink:href="classAudio.html" target="_top" xlink:title="An audio file. ">
<polygon fill="white" stroke="black" points="624.5,-85 624.5,-104 667.5,-104 667.5,-85 624.5,-85"/>
<text text-anchor="middle" x="646" y="-92" font-family="Helvetica,sans-Serif" font-size="10.00">Audio</text>
</a>
</g>
</g>
<!-- Node5&#45;&gt;Node4 -->
<g id="edge4" class="edge"><title>Node5&#45;&gt;Node4</title>
<path fill="none" stroke="#9a32cd" stroke-dasharray="5,2" d="M677.926,-94.5C708.233,-94.5 755.332,-94.5 793.691,-94.5"/>
<polygon fill="#9a32cd" stroke="#9a32cd" points="677.567,-91.0001 667.567,-94.5 677.567,-98.0001 677.567,-91.0001"/>
<text text-anchor="middle" x="750.5" y="-97.5" font-family="Helvetica,sans-Serif" font-size="10.00"> ptr</text>
</g>
<!-- Node6 -->
<g id="node6" class="node"><title>Node6</title>
<polygon fill="white" stroke="#bfbfbf" points="358.5,-129 358.5,-148 507.5,-148 507.5,-129 358.5,-129"/>
<text text-anchor="middle" x="433" y="-136" font-family="Helvetica,sans-Serif" font-size="10.00">std::unique_ptr&lt; AudioSink &gt;</text>
</g>
<!-- Node6&#45;&gt;Node5 -->
<g id="edge5" class="edge"><title>Node6&#45;&gt;Node5</title>
<path fill="none" stroke="#9a32cd" stroke-dasharray="5,2" d="M491.838,-126.946C515.196,-122.231 542.397,-116.678 567,-111.5 586.53,-107.39 608.768,-102.524 624.489,-99.0543"/>
<polygon fill="#9a32cd" stroke="#9a32cd" points="490.853,-123.574 481.741,-128.98 492.235,-130.436 490.853,-123.574"/>
<text text-anchor="middle" x="549.5" y="-121.5" font-family="Helvetica,sans-Serif" font-size="10.00"> sink</text>
</g>
<!-- Node7 -->
<g id="node7" class="node"><title>Node7</title>
<g id="a_node7"><a xlink:href="classAudioSink.html" target="_top" xlink:title="An output stream for an Audio file. ">
<polygon fill="white" stroke="black" points="230.5,-155 230.5,-174 293.5,-174 293.5,-155 230.5,-155"/>
<text text-anchor="middle" x="262" y="-162" font-family="Helvetica,sans-Serif" font-size="10.00">AudioSink</text>
</a>
</g>
</g>
<!-- Node7&#45;&gt;Node6 -->
<g id="edge6" class="edge"><title>Node7&#45;&gt;Node6</title>
<path fill="none" stroke="#9a32cd" stroke-dasharray="5,2" d="M303.576,-158.258C323.498,-155.193 347.932,-151.434 370.12,-148.02"/>
<polygon fill="#9a32cd" stroke="#9a32cd" points="302.956,-154.812 293.605,-159.792 304.021,-161.73 302.956,-154.812"/>
<text text-anchor="middle" x="326" y="-158.5" font-family="Helvetica,sans-Serif" font-size="10.00"> ptr</text>
</g>
<!-- Node8 -->
<g id="node8" class="node"><title>Node8</title>
<polygon fill="white" stroke="#bfbfbf" points="0,-224 0,-243 147,-243 147,-224 0,-224"/>
<text text-anchor="middle" x="73.5" y="-231" font-family="Helvetica,sans-Serif" font-size="10.00">portaudio::CallbackInterface</text>
</g>
<!-- Node8&#45;&gt;Node7 -->
<g id="edge7" class="edge"><title>Node8&#45;&gt;Node7</title>
<path fill="none" stroke="#8b1a1a" d="M123.648,-221.336C131.496,-219.188 139.499,-216.875 147,-214.5 173.681,-206.053 180.377,-203.756 206,-192.5 218.753,-186.898 232.737,-179.765 243.413,-174.101"/>
<polygon fill="#8b1a1a" stroke="#8b1a1a" points="122.594,-217.995 113.838,-223.96 124.403,-224.757 122.594,-217.995"/>
</g>
<!-- Node9 -->
<g id="node9" class="node"><title>Node9</title>
<g id="a_node9"><a xlink:href="classRingBuffer.html" target="_top" xlink:title="RingBuffer\&lt; char, unsigned\l long \&gt;">
<polygon fill="white" stroke="black" points="1.5,-174.5 1.5,-204.5 145.5,-204.5 145.5,-174.5 1.5,-174.5"/>
<text text-anchor="start" x="9.5" y="-192.5" font-family="Helvetica,sans-Serif" font-size="10.00">RingBuffer&lt; char, unsigned</text>
<text text-anchor="middle" x="73.5" y="-181.5" font-family="Helvetica,sans-Serif" font-size="10.00"> long &gt;</text>
</a>
</g>
</g>
<!-- Node9&#45;&gt;Node7 -->
<g id="edge8" class="edge"><title>Node9&#45;&gt;Node7</title>
<path fill="none" stroke="#9a32cd" stroke-dasharray="5,2" d="M155.576,-178.632C181.979,-175.093 209.706,-171.376 230.095,-168.643"/>
<polygon fill="#9a32cd" stroke="#9a32cd" points="154.986,-175.18 145.54,-179.977 155.916,-182.118 154.986,-175.18"/>
<text text-anchor="middle" x="185.5" y="-180.5" font-family="Helvetica,sans-Serif" font-size="10.00"> ring_buf</text>
</g>
<!-- Node10 -->
<g id="node10" class="node"><title>Node10</title>
<polygon fill="white" stroke="#bfbfbf" points="4.5,-125.5 4.5,-155.5 142.5,-155.5 142.5,-125.5 4.5,-125.5"/>
<text text-anchor="start" x="12.5" y="-143.5" font-family="Helvetica,sans-Serif" font-size="10.00">std::unique_ptr&lt; portaudio</text>
<text text-anchor="middle" x="73.5" y="-132.5" font-family="Helvetica,sans-Serif" font-size="10.00">::Stream &gt;</text>
</g>
<!-- Node10&#45;&gt;Node7 -->
<g id="edge9" class="edge"><title>Node10&#45;&gt;Node7</title>
<path fill="none" stroke="#9a32cd" stroke-dasharray="5,2" d="M152.95,-149.741C170.422,-151.884 188.85,-154.21 206,-156.5 213.938,-157.56 222.511,-158.774 230.471,-159.93"/>
<polygon fill="#9a32cd" stroke="#9a32cd" points="153.14,-146.238 142.79,-148.502 152.292,-153.187 153.14,-146.238"/>
<text text-anchor="middle" x="185.5" y="-159.5" font-family="Helvetica,sans-Serif" font-size="10.00"> stream</text>
</g>
<!-- Node11 -->
<g id="node11" class="node"><title>Node11</title>
<polygon fill="white" stroke="#bfbfbf" points="352,-88 352,-107 514,-107 514,-88 352,-88"/>
<text text-anchor="middle" x="433" y="-95" font-family="Helvetica,sans-Serif" font-size="10.00">std::unique_ptr&lt; AudioSource &gt;</text>
</g>
<!-- Node11&#45;&gt;Node5 -->
<g id="edge10" class="edge"><title>Node11&#45;&gt;Node5</title>
<path fill="none" stroke="#9a32cd" stroke-dasharray="5,2" d="M524.449,-96.214C561.537,-95.6867 601.158,-95.1233 624.469,-94.7919"/>
<polygon fill="#9a32cd" stroke="#9a32cd" points="524.02,-92.7196 514.071,-96.3616 524.12,-99.7189 524.02,-92.7196"/>
<text text-anchor="middle" x="549.5" y="-99.5" font-family="Helvetica,sans-Serif" font-size="10.00"> source</text>
</g>
<!-- Node12 -->
<g id="node12" class="node"><title>Node12</title>
<g id="a_node12"><a xlink:href="classAudioSource.html" target="_top" xlink:title="An object responsible for decoding an audio file. ">
<polygon fill="white" stroke="black" points="224,-87 224,-106 300,-106 300,-87 224,-87"/>
<text text-anchor="middle" x="262" y="-94" font-family="Helvetica,sans-Serif" font-size="10.00">AudioSource</text>
</a>
</g>
</g>
<!-- Node12&#45;&gt;Node11 -->
<g id="edge11" class="edge"><title>Node12&#45;&gt;Node11</title>
<path fill="none" stroke="#9a32cd" stroke-dasharray="5,2" d="M310.117,-96.7788C323.053,-96.8553 337.452,-96.9405 351.692,-97.0248"/>
<polygon fill="#9a32cd" stroke="#9a32cd" points="310.108,-93.2788 300.088,-96.7195 310.067,-100.279 310.108,-93.2788"/>
<text text-anchor="middle" x="326" y="-100.5" font-family="Helvetica,sans-Serif" font-size="10.00"> ptr</text>
</g>
<!-- Node13 -->
<g id="node13" class="node"><title>Node13</title>
<polygon fill="white" stroke="#bfbfbf" points="16.5,-87 16.5,-106 130.5,-106 130.5,-87 16.5,-87"/>
<text text-anchor="middle" x="73.5" y="-94" font-family="Helvetica,sans-Serif" font-size="10.00">std::vector&lt; uint8_t &gt;</text>
</g>
<!-- Node13&#45;&gt;Node12 -->
<g id="edge12" class="edge"><title>Node13&#45;&gt;Node12</title>
<path fill="none" stroke="#9a32cd" stroke-dasharray="5,2" d="M140.799,-96.5C168.672,-96.5 200.061,-96.5 223.771,-96.5"/>
<polygon fill="#9a32cd" stroke="#9a32cd" points="140.709,-93.0001 130.709,-96.5 140.709,-100 140.709,-93.0001"/>
<text text-anchor="middle" x="185.5" y="-99.5" font-family="Helvetica,sans-Serif" font-size="10.00"> buffer</text>
</g>
<!-- Node14 -->
<g id="node14" class="node"><title>Node14</title>
<polygon fill="white" stroke="#bfbfbf" points="366.5,-50 366.5,-69 499.5,-69 499.5,-50 366.5,-50"/>
<text text-anchor="middle" x="433" y="-57" font-family="Helvetica,sans-Serif" font-size="10.00">std::vector&lt; std::uint8_t &gt;</text>
</g>
<!-- Node14&#45;&gt;Node5 -->
<g id="edge13" class="edge"><title>Node14&#45;&gt;Node5</title>
<path fill="none" stroke="#9a32cd" stroke-dasharray="5,2" d="M501.695,-70.6813C522.632,-74.1438 545.77,-77.975 567,-81.5 586.502,-84.7381 608.744,-88.4466 624.473,-91.0718"/>
<polygon fill="#9a32cd" stroke="#9a32cd" points="502.049,-67.1924 491.612,-69.0141 500.907,-74.0986 502.049,-67.1924"/>
<text text-anchor="middle" x="549.5" y="-84.5" font-family="Helvetica,sans-Serif" font-size="10.00"> frame</text>
</g>
<!-- Node15 -->
<g id="node15" class="node"><title>Node15</title>
<g id="a_node15"><a xlink:href="classAudioSystem.html" target="_top" xlink:title="An AudioSystem represents the entire audio stack used by playd. ">
<polygon fill="white" stroke="black" points="820,-47 820,-66 897,-66 897,-47 820,-47"/>
<text text-anchor="middle" x="858.5" y="-54" font-family="Helvetica,sans-Serif" font-size="10.00">AudioSystem</text>
</a>
</g>
</g>
<!-- Node15&#45;&gt;Node1 -->
<g id="edge14" class="edge"><title>Node15&#45;&gt;Node1</title>
<path fill="none" stroke="#9a32cd" stroke-dasharray="5,2" d="M907.31,-62.0312C936.824,-65.8954 975.349,-71.7522 1009,-79.5 1015.61,-81.0227 1022.64,-82.9864 1029.22,-84.9882"/>
<polygon fill="#9a32cd" stroke="#9a32cd" points="907.632,-58.544 897.269,-60.7476 906.745,-65.4875 907.632,-58.544"/>
<text text-anchor="middle" x="975" y="-82.5" font-family="Helvetica,sans-Serif" font-size="10.00"> audio_system</text>
</g>
<!-- Node16 -->
<g id="node16" class="node"><title>Node16</title>
<g id="a_node16"><a xlink:href="classAudioSinkConfigurator.html" target="_top" xlink:title="Interface for objects that can configure a PortAudio stream from an AudioSource. ">
<polygon fill="white" stroke="black" points="585,-47 585,-66 707,-66 707,-47 585,-47"/>
<text text-anchor="middle" x="646" y="-54" font-family="Helvetica,sans-Serif" font-size="10.00">AudioSinkConfigurator</text>
</a>
</g>
</g>
<!-- Node16&#45;&gt;Node15 -->
<g id="edge15" class="edge"><title>Node16&#45;&gt;Node15</title>
<path fill="none" stroke="midnightblue" d="M717.473,-56.5C751.728,-56.5 791.52,-56.5 819.911,-56.5"/>
<polygon fill="midnightblue" stroke="midnightblue" points="717.039,-53.0001 707.039,-56.5 717.039,-60.0001 717.039,-53.0001"/>
</g>
<!-- Node17 -->
<g id="node17" class="node"><title>Node17</title>
<g id="a_node17"><a xlink:title="STL class. ">
<polygon fill="white" stroke="#bfbfbf" points="615,-8 615,-27 677,-27 677,-8 615,-8"/>
<text text-anchor="middle" x="646" y="-15" font-family="Helvetica,sans-Serif" font-size="10.00">std::string</text>
</a>
</g>
</g>
<!-- Node17&#45;&gt;Node15 -->
<g id="edge16" class="edge"><title>Node17&#45;&gt;Node15</title>
<path fill="none" stroke="#9a32cd" stroke-dasharray="5,2" d="M687.421,-24.9889C725.674,-32.0762 782.642,-42.6308 819.929,-49.5392"/>
<polygon fill="#9a32cd" stroke="#9a32cd" points="687.63,-21.4681 677.16,-23.0877 686.355,-28.351 687.63,-21.4681"/>
<text text-anchor="middle" x="750.5" y="-43.5" font-family="Helvetica,sans-Serif" font-size="10.00"> device_id</text>
</g>
<!-- Node18 -->
<g id="node18" class="node"><title>Node18</title>
<g id="a_node18"><a xlink:title="STL class. ">
<polygon fill="white" stroke="#bfbfbf" points="384,-0.5 384,-30.5 482,-30.5 482,-0.5 384,-0.5"/>
<text text-anchor="start" x="392" y="-18.5" font-family="Helvetica,sans-Serif" font-size="10.00">std::basic_string&lt;</text>
<text text-anchor="middle" x="433" y="-7.5" font-family="Helvetica,sans-Serif" font-size="10.00"> char &gt;</text>
</a>
</g>
</g>
<!-- Node18&#45;&gt;Node17 -->
<g id="edge17" class="edge"><title>Node18&#45;&gt;Node17</title>
<path fill="none" stroke="midnightblue" d="M492.258,-16.0522C532.052,-16.4294 583.148,-16.9137 614.986,-17.2155"/>
<polygon fill="midnightblue" stroke="midnightblue" points="492.176,-12.5514 482.143,-15.9563 492.11,-19.5511 492.176,-12.5514"/>
</g>
</g>
</svg>
