<?xml version="1.0" encoding="UTF-8" standalone="no"?>
<!DOCTYPE svg PUBLIC "-//W3C//DTD SVG 1.1//EN"
 "http://www.w3.org/Graphics/SVG/1.1/DTD/svg11.dtd">
<!-- Generated by graphviz version 2.36.0 (20140111.2315)
 -->
<!-- Title: Debug Pages: 1 -->
<svg width="142pt" height="352pt"
 viewBox="0.00 0.00 142.00 352.00" xmlns="http://www.w3.org/2000/svg" xmlns:xlink="http://www.w3.org/1999/xlink">
<g id="graph0" class="graph" transform="scale(1 1) rotate(0) translate(4 348)">
<title>Debug</title>
<polygon fill="white" stroke="none" points="-4,4 -4,-348 138,-348 138,4 -4,4"/>
<!-- Node1 -->
<g id="node1" class="node"><title>Node1</title>
<polygon fill="#bfbfbf" stroke="black" points="43,-0.5 43,-19.5 91,-19.5 91,-0.5 43,-0.5"/>
<text text-anchor="middle" x="67" y="-7.5" font-family="Helvetica,sans-Serif" font-size="10.00">Debug</text>
</g>
<!-- Node2 -->
<g id="node2" class="node"><title>Node2</title>
<g id="a_node2"><a xlink:title="STL class. ">
<polygon fill="white" stroke="#bfbfbf" points="14.5,-68.5 14.5,-87.5 119.5,-87.5 119.5,-68.5 14.5,-68.5"/>
<text text-anchor="middle" x="67" y="-75.5" font-family="Helvetica,sans-Serif" font-size="10.00">std::ostringstream</text>
</a>
</g>
</g>
<!-- Node2&#45;&gt;Node1 -->
<g id="edge1" class="edge"><title>Node2&#45;&gt;Node1</title>
<path fill="none" stroke="#9a32cd" stroke-dasharray="5,2" d="M67,-58.0413C67,-45.4724 67,-29.5631 67,-19.8411"/>
<polygon fill="#9a32cd" stroke="#9a32cd" points="63.5001,-58.3716 67,-68.3717 70.5001,-58.3717 63.5001,-58.3716"/>
<text text-anchor="middle" x="77" y="-41.5" font-family="Helvetica,sans-Serif" font-size="10.00"> oss</text>
</g>
<!-- Node3 -->
<g id="node3" class="node"><title>Node3</title>
<g id="a_node3"><a xlink:title="STL class. ">
<polygon fill="white" stroke="#bfbfbf" points="-0.5,-127 -0.5,-157 134.5,-157 134.5,-127 -0.5,-127"/>
<text text-anchor="start" x="7.5" y="-145" font-family="Helvetica,sans-Serif" font-size="10.00">std::basic_ostringstream</text>
<text text-anchor="middle" x="67" y="-134" font-family="Helvetica,sans-Serif" font-size="10.00">&lt; char &gt;</text>
</a>
</g>
</g>
<!-- Node3&#45;&gt;Node2 -->
<g id="edge2" class="edge"><title>Node3&#45;&gt;Node2</title>
<path fill="none" stroke="midnightblue" d="M67,-116.871C67,-106.663 67,-95.4077 67,-87.8419"/>
<polygon fill="midnightblue" stroke="midnightblue" points="63.5001,-116.931 67,-126.931 70.5001,-116.931 63.5001,-116.931"/>
</g>
<!-- Node4 -->
<g id="node4" class="node"><title>Node4</title>
<g id="a_node4"><a xlink:title="STL class. ">
<polygon fill="white" stroke="#bfbfbf" points="13,-197 13,-227 121,-227 121,-197 13,-197"/>
<text text-anchor="start" x="21" y="-215" font-family="Helvetica,sans-Serif" font-size="10.00">std::basic_ostream</text>
<text text-anchor="middle" x="67" y="-204" font-family="Helvetica,sans-Serif" font-size="10.00">&lt; Char &gt;</text>
</a>
</g>
</g>
<!-- Node4&#45;&gt;Node3 -->
<g id="edge3" class="edge"><title>Node4&#45;&gt;Node3</title>
<path fill="none" stroke="midnightblue" d="M67,-186.769C67,-176.814 67,-165.638 67,-157.072"/>
<polygon fill="midnightblue" stroke="midnightblue" points="63.5001,-186.91 67,-196.91 70.5001,-186.91 63.5001,-186.91"/>
</g>
<!-- Node5 -->
<g id="node5" class="node"><title>Node5</title>
<g id="a_node5"><a xlink:title="STL class. ">
<polygon fill="white" stroke="#bfbfbf" points="4,-266.5 4,-285.5 130,-285.5 130,-266.5 4,-266.5"/>
<text text-anchor="middle" x="67" y="-273.5" font-family="Helvetica,sans-Serif" font-size="10.00">std::basic_ios&lt; Char &gt;</text>
</a>
</g>
</g>
<!-- Node5&#45;&gt;Node4 -->
<g id="edge4" class="edge"><title>Node5&#45;&gt;Node4</title>
<path fill="none" stroke="midnightblue" d="M67,-256.183C67,-246.886 67,-235.851 67,-227.263"/>
<polygon fill="midnightblue" stroke="midnightblue" points="63.5001,-256.379 67,-266.379 70.5001,-256.379 63.5001,-256.379"/>
</g>
<!-- Node6 -->
<g id="node6" class="node"><title>Node6</title>
<g id="a_node6"><a xlink:title="STL class. ">
<polygon fill="white" stroke="#bfbfbf" points="27,-324.5 27,-343.5 107,-343.5 107,-324.5 27,-324.5"/>
<text text-anchor="middle" x="67" y="-331.5" font-family="Helvetica,sans-Serif" font-size="10.00">std::ios_base</text>
</a>
</g>
</g>
<!-- Node6&#45;&gt;Node5 -->
<g id="edge5" class="edge"><title>Node6&#45;&gt;Node5</title>
<path fill="none" stroke="midnightblue" d="M67,-313.953C67,-304.287 67,-293.031 67,-285.505"/>
<polygon fill="midnightblue" stroke="midnightblue" points="63.5001,-314.25 67,-324.25 70.5001,-314.25 63.5001,-314.25"/>
</g>
</g>
</svg>
