<?xml version="1.0" encoding="UTF-8" standalone="no"?>
<!DOCTYPE svg PUBLIC "-//W3C//DTD SVG 1.1//EN"
 "http://www.w3.org/Graphics/SVG/1.1/DTD/svg11.dtd">
<!-- Generated by graphviz version 2.36.0 (20140111.2315)
 -->
<!-- Title: IoCore Pages: 1 -->
<!--zoomable 154 -->
<svg id="main" version="1.1" xmlns="http://www.w3.org/2000/svg" xmlns:xlink="http://www.w3.org/1999/xlink" xml:space="preserve" onload="init(evt)">
<style type="text/css"><![CDATA[
.edge:hover path { stroke: red; }
.edge:hover polygon { stroke: red; fill: red; }
]]></style>
<script type="text/javascript"><![CDATA[
var edges = document.getElementsByTagName('g');
if (edges && edges.length) {
  for (var i=0;i<edges.length;i++) {
    if (edges[i].id.substr(0,4)=='edge') {
      edges[i].setAttribute('class','edge');
    }
  }
}
]]></script>
        <defs>
                <circle id="rim" cx="0" cy="0" r="7"/>
                <circle id="rim2" cx="0" cy="0" r="3.5"/>
                <g id="zoomPlus">
                        <use xlink:href="#rim" fill="#404040">
                                <set attributeName="fill" to="#808080" begin="zoomplus.mouseover" end="zoomplus.mouseout"/>
                        </use>
                        <path d="M-4,0h8M0,-4v8" fill="none" stroke="white" stroke-width="1.5" pointer-events="none"/>
                </g>
                <g id="zoomMin">
                        <use xlink:href="#rim" fill="#404040">
                                <set attributeName="fill" to="#808080" begin="zoomminus.mouseover" end="zoomminus.mouseout"/>
                        </use>
                        <path d="M-4,0h8" fill="none" stroke="white" stroke-width="1.5" pointer-events="none"/>
                </g>
                <g id="dirArrow">
                        <path fill="none" stroke="white" stroke-width="1.5" d="M0,-3.0v7 M-2.5,-0.5L0,-3.0L2.5,-0.5"/>
                </g>
               <g id="resetDef">
                       <use xlink:href="#rim2" fill="#404040">
                               <set attributeName="fill" to="#808080" begin="reset.mouseover" end="reset.mouseout"/>
                       </use>
               </g>
        </defs>

<script type="text/javascript">
var viewWidth = 754;
var viewHeight = 154;
var sectionId = 'dynsection-1';
</script>
<script xlink:href="svgpan.js"/>
<svg id="graph" class="graph">
<g id="viewport">
<title>IoCore</title>
<polygon fill="white" stroke="none" points="-4,4 -4,-150 750,-150 750,4 -4,4"/>
<!-- Node2 -->
<g id="node1" class="node"><title>Node2</title>
<polygon fill="#bfbfbf" stroke="black" points="698.5,-67.5 698.5,-86.5 745.5,-86.5 745.5,-67.5 698.5,-67.5"/>
<text text-anchor="middle" x="722" y="-74.5" font-family="Helvetica,sans-Serif" font-size="10.00">IoCore</text>
</g>
<!-- Node3 -->
<g id="node2" class="node"><title>Node3</title>
<g id="a_node2"><a xlink:href="classResponseSink.html" target="_top" xlink:title="Abstract class for anything that can be sent a response. ">
<polygon fill="white" stroke="black" points="297.5,-126.5 297.5,-145.5 380.5,-145.5 380.5,-126.5 297.5,-126.5"/>
<text text-anchor="middle" x="339" y="-133.5" font-family="Helvetica,sans-Serif" font-size="10.00">ResponseSink</text>
</a>
</g>
</g>
<!-- Node3&#45;&gt;Node2 -->
<g id="edge1" class="edge"><title>Node3&#45;&gt;Node2</title>
<path fill="none" stroke="midnightblue" d="M390.708,-135.29C447.064,-133.826 540.603,-129.388 620,-116 647.002,-111.447 654.657,-112.37 680,-102 689.722,-98.0219 699.806,-91.9035 707.541,-86.7154"/>
<polygon fill="midnightblue" stroke="midnightblue" points="390.543,-131.792 380.629,-135.53 390.71,-138.79 390.543,-131.792"/>
</g>
<!-- Node6 -->
<g id="node5" class="node"><title>Node6</title>
<g id="a_node5"><a xlink:href="classPlayer.html" target="_top" xlink:title="A Player contains a loaded audio file and a command API for manipulating it. ">
<polygon fill="white" stroke="black" points="530,-87.5 530,-106.5 576,-106.5 576,-87.5 530,-87.5"/>
<text text-anchor="middle" x="553" y="-94.5" font-family="Helvetica,sans-Serif" font-size="10.00">Player</text>
</a>
</g>
</g>
<!-- Node3&#45;&gt;Node6 -->
<g id="edge7" class="edge"><title>Node3&#45;&gt;Node6</title>
<path fill="none" stroke="#9a32cd" stroke-dasharray="5,2" d="M390.869,-126.642C435.111,-118.503 497.107,-107.098 529.8,-101.084"/>
<polygon fill="#9a32cd" stroke="#9a32cd" points="390.077,-123.229 380.876,-128.48 391.344,-130.113 390.077,-123.229"/>
<text text-anchor="middle" x="447" y="-123" font-family="Helvetica,sans-Serif" font-size="10.00"> io</text>
</g>
<!-- Node4 -->
<g id="node3" class="node"><title>Node4</title>
<polygon fill="white" stroke="#bfbfbf" points="494,-49.5 494,-68.5 612,-68.5 612,-49.5 494,-49.5"/>
<text text-anchor="middle" x="553" y="-56.5" font-family="Helvetica,sans-Serif" font-size="10.00">std::vector&lt; size_t &gt;</text>
</g>
<!-- Node4&#45;&gt;Node2 -->
<g id="edge2" class="edge"><title>Node4&#45;&gt;Node2</title>
<path fill="none" stroke="#9a32cd" stroke-dasharray="5,2" d="M622.133,-56.5702C641.007,-56.9926 661.412,-58.4778 680,-62 686.255,-63.1853 692.82,-65.2078 698.817,-67.3904"/>
<polygon fill="#9a32cd" stroke="#9a32cd" points="622.17,-53.0704 612.125,-56.4397 622.078,-60.0699 622.17,-53.0704"/>
<text text-anchor="middle" x="659" y="-65" font-family="Helvetica,sans-Serif" font-size="10.00"> free_list</text>
</g>
<!-- Node5 -->
<g id="node4" class="node"><title>Node5</title>
<polygon fill="white" stroke="#bfbfbf" points="486.5,-0 486.5,-30 619.5,-30 619.5,-0 486.5,-0"/>
<text text-anchor="start" x="494.5" y="-18" font-family="Helvetica,sans-Serif" font-size="10.00">std::vector&lt; std::shared</text>
<text text-anchor="middle" x="553" y="-7" font-family="Helvetica,sans-Serif" font-size="10.00">_ptr&lt; Connection &gt; &gt;</text>
</g>
<!-- Node5&#45;&gt;Node2 -->
<g id="edge3" class="edge"><title>Node5&#45;&gt;Node2</title>
<path fill="none" stroke="#9a32cd" stroke-dasharray="5,2" d="M629.718,-25.74C646.784,-29.8052 664.439,-35.3775 680,-43 692.456,-49.1019 704.392,-59.7261 712.14,-67.4781"/>
<polygon fill="#9a32cd" stroke="#9a32cd" points="630.281,-22.2796 619.758,-23.5165 628.755,-29.1114 630.281,-22.2796"/>
<text text-anchor="middle" x="659" y="-46" font-family="Helvetica,sans-Serif" font-size="10.00"> pool</text>
</g>
<!-- Node6&#45;&gt;Node2 -->
<g id="edge4" class="edge"><title>Node6&#45;&gt;Node2</title>
<path fill="none" stroke="#9a32cd" stroke-dasharray="5,2" d="M586.218,-93.1416C619.181,-89.1939 669.544,-83.1624 698.465,-79.6988"/>
<polygon fill="#9a32cd" stroke="#9a32cd" points="585.689,-89.6798 576.176,-94.3442 586.522,-96.6301 585.689,-89.6798"/>
<text text-anchor="middle" x="659" y="-90" font-family="Helvetica,sans-Serif" font-size="10.00"> player</text>
</g>
<!-- Node7 -->
<g id="node6" class="node"><title>Node7</title>
<polygon fill="white" stroke="#bfbfbf" points="270,-79.5 270,-98.5 408,-98.5 408,-79.5 270,-79.5"/>
<text text-anchor="middle" x="339" y="-86.5" font-family="Helvetica,sans-Serif" font-size="10.00">std::unique_ptr&lt; Audio &gt;</text>
</g>
<!-- Node7&#45;&gt;Node6 -->
<g id="edge5" class="edge"><title>Node7&#45;&gt;Node6</title>
<path fill="none" stroke="#9a32cd" stroke-dasharray="5,2" d="M418.25,-85.9196C434.693,-85.7929 451.924,-86.0465 468,-87 489.111,-88.2522 513.05,-91.2597 529.956,-93.6517"/>
<polygon fill="#9a32cd" stroke="#9a32cd" points="418.087,-82.4212 408.131,-86.0447 418.173,-89.4207 418.087,-82.4212"/>
<text text-anchor="middle" x="447" y="-90" font-family="Helvetica,sans-Serif" font-size="10.00"> file</text>
</g>
<!-- Node8 -->
<g id="node7" class="node"><title>Node8</title>
<g id="a_node7"><a xlink:href="classAudio.html" target="_top" xlink:title="An audio item. ">
<polygon fill="white" stroke="black" points="153,-79.5 153,-98.5 197,-98.5 197,-79.5 153,-79.5"/>
<text text-anchor="middle" x="175" y="-86.5" font-family="Helvetica,sans-Serif" font-size="10.00">Audio</text>
</a>
</g>
</g>
<!-- Node8&#45;&gt;Node7 -->
<g id="edge6" class="edge"><title>Node8&#45;&gt;Node7</title>
<path fill="none" stroke="#9a32cd" stroke-dasharray="5,2" d="M207.259,-89C225.045,-89 248.052,-89 269.796,-89"/>
<polygon fill="#9a32cd" stroke="#9a32cd" points="207.179,-85.5001 197.179,-89 207.179,-92.5001 207.179,-85.5001"/>
<text text-anchor="middle" x="239" y="-92" font-family="Helvetica,sans-Serif" font-size="10.00"> ptr</text>
</g>
<!-- Node9 -->
<g id="node8" class="node"><title>Node9</title>
<polygon fill="white" stroke="#bfbfbf" points="278,-30 278,-60 400,-60 400,-30 278,-30"/>
<text text-anchor="start" x="286" y="-48" font-family="Helvetica,sans-Serif" font-size="10.00">std::map&lt; std::string,</text>
<text text-anchor="middle" x="339" y="-37" font-family="Helvetica,sans-Serif" font-size="10.00"> SourceFn &gt;</text>
</g>
<!-- Node9&#45;&gt;Node6 -->
<g id="edge8" class="edge"><title>Node9&#45;&gt;Node6</title>
<path fill="none" stroke="#9a32cd" stroke-dasharray="5,2" d="M410.156,-57.0088C429.092,-60.8571 449.465,-65.5568 468,-71 476.236,-73.4187 477.867,-75.2543 486,-78 500.46,-82.882 516.96,-87.632 529.845,-91.1615"/>
<polygon fill="#9a32cd" stroke="#9a32cd" points="410.594,-53.5277 400.105,-55.0171 409.233,-60.3942 410.594,-53.5277"/>
<text text-anchor="middle" x="447" y="-74" font-family="Helvetica,sans-Serif" font-size="10.00"> sources</text>
</g>
<!-- Node10 -->
<g id="node9" class="node"><title>Node10</title>
<g id="a_node9"><a xlink:title="STL class. ">
<polygon fill="white" stroke="#bfbfbf" points="142.5,-35.5 142.5,-54.5 207.5,-54.5 207.5,-35.5 142.5,-35.5"/>
<text text-anchor="middle" x="175" y="-42.5" font-family="Helvetica,sans-Serif" font-size="10.00">std::string</text>
</a>
</g>
</g>
<!-- Node10&#45;&gt;Node9 -->
<g id="edge9" class="edge"><title>Node10&#45;&gt;Node9</title>
<path fill="none" stroke="#9a32cd" stroke-dasharray="5,2" d="M217.682,-45C236.011,-45 257.887,-45 277.928,-45"/>
<polygon fill="#9a32cd" stroke="#9a32cd" points="217.62,-41.5001 207.62,-45 217.62,-48.5001 217.62,-41.5001"/>
<text text-anchor="middle" x="239" y="-48" font-family="Helvetica,sans-Serif" font-size="10.00"> keys</text>
</g>
<!-- Node11 -->
<g id="node10" class="node"><title>Node11</title>
<g id="a_node10"><a xlink:title="STL class. ">
<polygon fill="white" stroke="#bfbfbf" points="0.5,-30 0.5,-60 103.5,-60 103.5,-30 0.5,-30"/>
<text text-anchor="start" x="8.5" y="-48" font-family="Helvetica,sans-Serif" font-size="10.00">std::basic_string&lt;</text>
<text text-anchor="middle" x="52" y="-37" font-family="Helvetica,sans-Serif" font-size="10.00"> char &gt;</text>
</a>
</g>
</g>
<!-- Node11&#45;&gt;Node10 -->
<g id="edge10" class="edge"><title>Node11&#45;&gt;Node10</title>
<path fill="none" stroke="midnightblue" d="M113.814,-45C123.641,-45 133.456,-45 142.224,-45"/>
<polygon fill="midnightblue" stroke="midnightblue" points="113.614,-41.5001 103.614,-45 113.614,-48.5001 113.614,-41.5001"/>
</g>
</g>
</svg>
        <g id="navigator" transform="translate(0 0)" fill="#404254">
                <rect fill="#f2f5e9" fill-opacity="0.5" stroke="#606060" stroke-width=".5" x="0" y="0" width="60" height="60"/>
                <use id="zoomplus" xlink:href="#zoomPlus" x="17" y="9" onmousedown="handleZoom(evt,'in')"/>
                <use id="zoomminus" xlink:href="#zoomMin" x="42" y="9" onmousedown="handleZoom(evt,'out')"/>
                <use id="reset" xlink:href="#resetDef" x="30" y="36" onmousedown="handleReset()"/>
                <g id="arrowUp" xlink:href="#dirArrow" transform="translate(30 24)" onmousedown="handlePan(0,-1)">
                  <use xlink:href="#rim" fill="#404040">
                        <set attributeName="fill" to="#808080" begin="arrowUp.mouseover" end="arrowUp.mouseout"/>
                  </use>
                  <path fill="none" stroke="white" stroke-width="1.5" d="M0,-3.0v7 M-2.5,-0.5L0,-3.0L2.5,-0.5"/>
                </g>
                <g id="arrowRight" xlink:href="#dirArrow" transform="rotate(90) translate(36 -43)" onmousedown="handlePan(1,0)">
                  <use xlink:href="#rim" fill="#404040">
                        <set attributeName="fill" to="#808080" begin="arrowRight.mouseover" end="arrowRight.mouseout"/>
                  </use>
                  <path fill="none" stroke="white" stroke-width="1.5" d="M0,-3.0v7 M-2.5,-0.5L0,-3.0L2.5,-0.5"/>
                </g>
                <g id="arrowDown" xlink:href="#dirArrow" transform="rotate(180) translate(-30 -48)" onmousedown="handlePan(0,1)">
                  <use xlink:href="#rim" fill="#404040">
                        <set attributeName="fill" to="#808080" begin="arrowDown.mouseover" end="arrowDown.mouseout"/>
                  </use>
                  <path fill="none" stroke="white" stroke-width="1.5" d="M0,-3.0v7 M-2.5,-0.5L0,-3.0L2.5,-0.5"/>
                </g>
                <g id="arrowLeft" xlink:href="#dirArrow" transform="rotate(270) translate(-36 17)" onmousedown="handlePan(-1,0)">
                  <use xlink:href="#rim" fill="#404040">
                        <set attributeName="fill" to="#808080" begin="arrowLeft.mouseover" end="arrowLeft.mouseout"/>
                  </use>
                  <path fill="none" stroke="white" stroke-width="1.5" d="M0,-3.0v7 M-2.5,-0.5L0,-3.0L2.5,-0.5"/>
                </g>
        </g>
        <svg viewBox="0 0 15 15" width="100%" height="30px" preserveAspectRatio="xMaxYMin meet">
         <g id="arrow_out" transform="scale(0.3 0.3)">
          <a xlink:href="classIoCore__coll__graph_org.svg" target="_base">
           <rect id="button" ry="5" rx="5" y="6" x="6" height="38" width="38"
                fill="#f2f5e9" fill-opacity="0.5" stroke="#606060" stroke-width="1.0"/>
           <path id="arrow"
             d="M 11.500037,31.436501 C 11.940474,20.09759 22.043105,11.32322 32.158766,21.979434 L 37.068811,17.246167 C 37.068811,17.246167 37.088388,32 37.088388,32 L 22.160133,31.978069 C 22.160133,31.978069 26.997745,27.140456 26.997745,27.140456 C 18.528582,18.264221 13.291696,25.230495 11.500037,31.436501 z"
             style="fill:#404040;"/>
          </a>
         </g>
        </svg>
</svg>
