<?xml version="1.0" encoding="UTF-8" standalone="no"?>
<!DOCTYPE svg PUBLIC "-//W3C//DTD SVG 1.1//EN"
 "http://www.w3.org/Graphics/SVG/1.1/DTD/svg11.dtd">
<!-- Generated by graphviz version 2.38.0 (20140413.2041)
 -->
<!-- Title: Error Pages: 1 -->
<svg width="332pt" height="84pt"
 viewBox="0.00 0.00 332.00 84.00" xmlns="http://www.w3.org/2000/svg" xmlns:xlink="http://www.w3.org/1999/xlink">
<g id="graph0" class="graph" transform="scale(1 1) rotate(0) translate(4 80)">
<title>Error</title>
<polygon fill="white" stroke="none" points="-4,4 -4,-80 328,-80 328,4 -4,4"/>
<!-- Node1 -->
<g id="node1" class="node"><title>Node1</title>
<polygon fill="#bfbfbf" stroke="black" points="139,-56.5 139,-75.5 180,-75.5 180,-56.5 139,-56.5"/>
<text text-anchor="middle" x="159.5" y="-63.5" font-family="Helvetica,sans-Serif" font-size="10.00">Error</text>
</g>
<!-- Node2 -->
<g id="node2" class="node"><title>Node2</title>
<g id="a_node2"><a xlink:href="classConfigError.html" target="_top" xlink:title="An Error signifying that playd has been improperly configured. ">
<polygon fill="white" stroke="black" points="0,-0.5 0,-19.5 71,-19.5 71,-0.5 0,-0.5"/>
<text text-anchor="middle" x="35.5" y="-7.5" font-family="Helvetica,sans-Serif" font-size="10.00">ConfigError</text>
</a>
</g>
</g>
<!-- Node1&#45;&gt;Node2 -->
<g id="edge1" class="edge"><title>Node1&#45;&gt;Node2</title>
<path fill="none" stroke="midnightblue" d="M130.493,-52.3678C107.271,-42.2553 75.3375,-28.3486 55.0562,-19.5164"/>
<polygon fill="midnightblue" stroke="midnightblue" points="129.286,-55.6597 139.852,-56.4435 132.081,-49.2419 129.286,-55.6597"/>
</g>
<!-- Node3 -->
<g id="node3" class="node"><title>Node3</title>
<g id="a_node3"><a xlink:href="classFileError.html" target="_top" xlink:title="An Error signifying that playd can&#39;t read a file. ">
<polygon fill="white" stroke="black" points="89,-0.5 89,-19.5 146,-19.5 146,-0.5 89,-0.5"/>
<text text-anchor="middle" x="117.5" y="-7.5" font-family="Helvetica,sans-Serif" font-size="10.00">FileError</text>
</a>
</g>
</g>
<!-- Node1&#45;&gt;Node3 -->
<g id="edge2" class="edge"><title>Node1&#45;&gt;Node3</title>
<path fill="none" stroke="midnightblue" d="M146.39,-48.144C139.072,-38.7357 130.259,-27.4046 124.306,-19.7511"/>
<polygon fill="midnightblue" stroke="midnightblue" points="143.662,-50.3383 152.565,-56.083 149.188,-46.0406 143.662,-50.3383"/>
</g>
<!-- Node4 -->
<g id="node4" class="node"><title>Node4</title>
<g id="a_node4"><a xlink:href="classInternalError.html" target="_top" xlink:title="An Error signifying that playd has hit an internal snag. ">
<polygon fill="white" stroke="black" points="164,-0.5 164,-19.5 241,-19.5 241,-0.5 164,-0.5"/>
<text text-anchor="middle" x="202.5" y="-7.5" font-family="Helvetica,sans-Serif" font-size="10.00">InternalError</text>
</a>
</g>
</g>
<!-- Node1&#45;&gt;Node4 -->
<g id="edge3" class="edge"><title>Node1&#45;&gt;Node4</title>
<path fill="none" stroke="midnightblue" d="M172.922,-48.144C180.414,-38.7357 189.437,-27.4046 195.532,-19.7511"/>
<polygon fill="midnightblue" stroke="midnightblue" points="170.092,-46.0799 166.601,-56.083 175.568,-50.4404 170.092,-46.0799"/>
</g>
<!-- Node5 -->
<g id="node5" class="node"><title>Node5</title>
<g id="a_node5"><a xlink:href="classSeekError.html" target="_top" xlink:title="An Error signifying that playd can&#39;t seek in a file. ">
<polygon fill="white" stroke="black" points="259,-0.5 259,-19.5 324,-19.5 324,-0.5 259,-0.5"/>
<text text-anchor="middle" x="291.5" y="-7.5" font-family="Helvetica,sans-Serif" font-size="10.00">SeekError</text>
</a>
</g>
</g>
<!-- Node1&#45;&gt;Node5 -->
<g id="edge4" class="edge"><title>Node1&#45;&gt;Node5</title>
<path fill="none" stroke="midnightblue" d="M189.414,-52.7624C214.17,-42.6348 248.707,-28.5062 270.584,-19.5565"/>
<polygon fill="midnightblue" stroke="midnightblue" points="188.055,-49.5367 180.125,-56.5625 190.706,-56.0155 188.055,-49.5367"/>
</g>
</g>
</svg>
