<?xml version="1.0" encoding="UTF-8" standalone="no"?>
<!DOCTYPE svg PUBLIC "-//W3C//DTD SVG 1.1//EN"
 "http://www.w3.org/Graphics/SVG/1.1/DTD/svg11.dtd">
<!-- Generated by graphviz version 2.38.0 (20140413.2041)
 -->
<!-- Title: ConnectionPool Pages: 1 -->
<svg width="2301pt" height="398pt"
 viewBox="0.00 0.00 2301.00 398.00" xmlns="http://www.w3.org/2000/svg" xmlns:xlink="http://www.w3.org/1999/xlink">
<g id="graph0" class="graph" transform="scale(1 1) rotate(0) translate(4 394)">
<title>ConnectionPool</title>
<polygon fill="white" stroke="none" points="-4,4 -4,-394 2297,-394 2297,4 -4,4"/>
<!-- Node1 -->
<g id="node1" class="node"><title>Node1</title>
<polygon fill="#bfbfbf" stroke="black" points="1581,-93.5 1581,-112.5 1672,-112.5 1672,-93.5 1581,-93.5"/>
<text text-anchor="middle" x="1626.5" y="-100.5" font-family="Helvetica,sans-Serif" font-size="10.00">ConnectionPool</text>
</g>
<!-- Node5 -->
<g id="node5" class="node"><title>Node5</title>
<g id="a_node5"><a xlink:href="classConnection.html" target="_top" xlink:title="A TCP connection from a client. ">
<polygon fill="white" stroke="black" points="1743,-131.5 1743,-150.5 1814,-150.5 1814,-131.5 1743,-131.5"/>
<text text-anchor="middle" x="1778.5" y="-138.5" font-family="Helvetica,sans-Serif" font-size="10.00">Connection</text>
</a>
</g>
</g>
<!-- Node1&#45;&gt;Node5 -->
<g id="edge13" class="edge"><title>Node1&#45;&gt;Node5</title>
<path fill="none" stroke="#9a32cd" stroke-dasharray="5,2" d="M1675.18,-115.08C1697.21,-120.66 1722.88,-127.163 1743,-132.26"/>
<polygon fill="#9a32cd" stroke="#9a32cd" points="1675.9,-111.652 1665.35,-112.589 1674.19,-118.438 1675.9,-111.652"/>
<text text-anchor="middle" x="1707.5" y="-131" font-family="Helvetica,sans-Serif" font-size="10.00"> parent</text>
</g>
<!-- Node2 -->
<g id="node2" class="node"><title>Node2</title>
<g id="a_node2"><a xlink:href="classResponseSink.html" target="_top" xlink:title="Abstract class for anything that can be sent a response. ">
<polygon fill="white" stroke="black" points="622,-47.5 622,-66.5 705,-66.5 705,-47.5 622,-47.5"/>
<text text-anchor="middle" x="663.5" y="-54.5" font-family="Helvetica,sans-Serif" font-size="10.00">ResponseSink</text>
</a>
</g>
</g>
<!-- Node2&#45;&gt;Node1 -->
<g id="edge1" class="edge"><title>Node2&#45;&gt;Node1</title>
<path fill="none" stroke="midnightblue" d="M715.385,-49.9726C758.983,-44.5614 823.497,-38 880,-38 880,-38 880,-38 1446,-38 1510.3,-38 1580.23,-75.3282 1610.33,-93.409"/>
<polygon fill="midnightblue" stroke="midnightblue" points="714.798,-46.5188 705.318,-51.2478 715.678,-53.4633 714.798,-46.5188"/>
</g>
<!-- Node2&#45;&gt;Node5 -->
<g id="edge5" class="edge"><title>Node2&#45;&gt;Node5</title>
<path fill="none" stroke="midnightblue" d="M695.184,-43.5107C736.383,-26.656 812.25,-0 880,-0 880,-0 880,-0 1627.5,-0 1704.34,-0 1757.91,-99.4526 1773.1,-131.308"/>
<polygon fill="midnightblue" stroke="midnightblue" points="693.604,-40.3774 685.724,-47.4595 696.301,-46.8372 693.604,-40.3774"/>
</g>
<!-- Node12 -->
<g id="node12" class="node"><title>Node12</title>
<g id="a_node12"><a xlink:href="classPlayer.html" target="_top" xlink:title="A Player contains a loaded audio file and the state of its playback. ">
<polygon fill="white" stroke="black" points="1270.5,-142.5 1270.5,-161.5 1316.5,-161.5 1316.5,-142.5 1270.5,-142.5"/>
<text text-anchor="middle" x="1293.5" y="-149.5" font-family="Helvetica,sans-Serif" font-size="10.00">Player</text>
</a>
</g>
</g>
<!-- Node2&#45;&gt;Node12 -->
<g id="edge16" class="edge"><title>Node2&#45;&gt;Node12</title>
<path fill="none" stroke="#9a32cd" stroke-dasharray="5,2" d="M715.355,-56.6237C806.604,-56.8815 1003.76,-61.6927 1166,-95 1202.35,-102.462 1211.53,-105.984 1245,-122 1257.14,-127.81 1270,-136.074 1279.27,-142.457"/>
<polygon fill="#9a32cd" stroke="#9a32cd" points="715.289,-53.1238 705.285,-56.6129 715.281,-60.1238 715.289,-53.1238"/>
<text text-anchor="middle" x="1003" y="-78" font-family="Helvetica,sans-Serif" font-size="10.00"> end_sink</text>
</g>
<!-- Node14 -->
<g id="node14" class="node"><title>Node14</title>
<g id="a_node14"><a xlink:href="classResponseSource.html" target="_top" xlink:title="Abstract helper class for sources of responses. ">
<polygon fill="white" stroke="black" points="833,-109.5 833,-128.5 929,-128.5 929,-109.5 833,-109.5"/>
<text text-anchor="middle" x="881" y="-116.5" font-family="Helvetica,sans-Serif" font-size="10.00">ResponseSource</text>
</a>
</g>
</g>
<!-- Node2&#45;&gt;Node14 -->
<g id="edge19" class="edge"><title>Node2&#45;&gt;Node14</title>
<path fill="none" stroke="#9a32cd" stroke-dasharray="5,2" d="M693.896,-70.9188C708.429,-77.3954 726.378,-84.7984 743,-90 772.351,-99.1847 806.147,-106.373 832.828,-111.296"/>
<polygon fill="#9a32cd" stroke="#9a32cd" points="694.99,-67.5717 684.438,-66.6215 692.094,-73.9447 694.99,-67.5717"/>
<text text-anchor="middle" x="768.5" y="-106" font-family="Helvetica,sans-Serif" font-size="10.00"> push_sink</text>
</g>
<!-- Node3 -->
<g id="node3" class="node"><title>Node3</title>
<polygon fill="white" stroke="#bfbfbf" points="2161,-105 2161,-135 2293,-135 2293,-105 2161,-105"/>
<text text-anchor="start" x="2169" y="-123" font-family="Helvetica,sans-Serif" font-size="10.00">std::vector&lt; std::unique</text>
<text text-anchor="middle" x="2227" y="-112" font-family="Helvetica,sans-Serif" font-size="10.00">_ptr&lt; Connection &gt; &gt;</text>
</g>
<!-- Node3&#45;&gt;Node1 -->
<g id="edge2" class="edge"><title>Node3&#45;&gt;Node1</title>
<path fill="none" stroke="#9a32cd" stroke-dasharray="5,2" d="M2150.66,-117.86C2024.56,-114.278 1774.55,-107.177 1672.48,-104.278"/>
<polygon fill="#9a32cd" stroke="#9a32cd" points="2150.9,-121.368 2161,-118.154 2151.1,-114.371 2150.9,-121.368"/>
<text text-anchor="middle" x="1862.5" y="-114" font-family="Helvetica,sans-Serif" font-size="10.00"> connections</text>
</g>
<!-- Node4 -->
<g id="node4" class="node"><title>Node4</title>
<polygon fill="white" stroke="#bfbfbf" points="1911,-131.5 1911,-150.5 2076,-150.5 2076,-131.5 1911,-131.5"/>
<text text-anchor="middle" x="1993.5" y="-138.5" font-family="Helvetica,sans-Serif" font-size="10.00">std::unique_ptr&lt; Connection &gt;</text>
</g>
<!-- Node4&#45;&gt;Node3 -->
<g id="edge3" class="edge"><title>Node4&#45;&gt;Node3</title>
<path fill="none" stroke="#9a32cd" stroke-dasharray="5,2" d="M2086.3,-132.672C2111.19,-130.414 2137.63,-128.017 2160.72,-125.921"/>
<polygon fill="#9a32cd" stroke="#9a32cd" points="2085.76,-129.207 2076.12,-133.596 2086.39,-136.178 2085.76,-129.207"/>
<text text-anchor="middle" x="2118.5" y="-135" font-family="Helvetica,sans-Serif" font-size="10.00"> elements</text>
</g>
<!-- Node5&#45;&gt;Node4 -->
<g id="edge4" class="edge"><title>Node5&#45;&gt;Node4</title>
<path fill="none" stroke="#9a32cd" stroke-dasharray="5,2" d="M1824.49,-141C1849.56,-141 1881.55,-141 1910.88,-141"/>
<polygon fill="#9a32cd" stroke="#9a32cd" points="1824.2,-137.5 1814.2,-141 1824.2,-144.5 1824.2,-137.5"/>
<text text-anchor="middle" x="1862.5" y="-144" font-family="Helvetica,sans-Serif" font-size="10.00"> ptr</text>
</g>
<!-- Node6 -->
<g id="node6" class="node"><title>Node6</title>
<g id="a_node6"><a xlink:href="classTokeniser.html" target="_top" xlink:title="A string tokeniser. ">
<polygon fill="white" stroke="black" points="1263,-329.5 1263,-348.5 1324,-348.5 1324,-329.5 1263,-329.5"/>
<text text-anchor="middle" x="1293.5" y="-336.5" font-family="Helvetica,sans-Serif" font-size="10.00">Tokeniser</text>
</a>
</g>
</g>
<!-- Node6&#45;&gt;Node5 -->
<g id="edge6" class="edge"><title>Node6&#45;&gt;Node5</title>
<path fill="none" stroke="#9a32cd" stroke-dasharray="5,2" d="M1327.1,-325.634C1418.44,-288.193 1675.27,-182.91 1754.16,-150.57"/>
<polygon fill="#9a32cd" stroke="#9a32cd" points="1325.72,-322.418 1317.8,-329.45 1328.38,-328.895 1325.72,-322.418"/>
<text text-anchor="middle" x="1539" y="-250" font-family="Helvetica,sans-Serif" font-size="10.00"> tokeniser</text>
</g>
<!-- Node7 -->
<g id="node7" class="node"><title>Node7</title>
<g id="a_node7"><a xlink:title="STL class. ">
<polygon fill="white" stroke="#bfbfbf" points="631,-303.5 631,-322.5 696,-322.5 696,-303.5 631,-303.5"/>
<text text-anchor="middle" x="663.5" y="-310.5" font-family="Helvetica,sans-Serif" font-size="10.00">std::string</text>
</a>
</g>
</g>
<!-- Node7&#45;&gt;Node6 -->
<g id="edge7" class="edge"><title>Node7&#45;&gt;Node6</title>
<path fill="none" stroke="#9a32cd" stroke-dasharray="5,2" d="M705.906,-324.302C791.513,-346.373 994.341,-391.963 1166,-379 1201.41,-376.326 1211.54,-378.9 1245,-367 1257.45,-362.573 1270.28,-354.783 1279.46,-348.541"/>
<polygon fill="#9a32cd" stroke="#9a32cd" points="706.617,-320.871 696.058,-321.733 704.85,-327.644 706.617,-320.871"/>
<text text-anchor="middle" x="1003" y="-382" font-family="Helvetica,sans-Serif" font-size="10.00"> current_word</text>
</g>
<!-- Node10 -->
<g id="node10" class="node"><title>Node10</title>
<polygon fill="white" stroke="#bfbfbf" points="812,-311.5 812,-330.5 950,-330.5 950,-311.5 812,-311.5"/>
<text text-anchor="middle" x="881" y="-318.5" font-family="Helvetica,sans-Serif" font-size="10.00">std::vector&lt; std::string &gt;</text>
</g>
<!-- Node7&#45;&gt;Node10 -->
<g id="edge11" class="edge"><title>Node7&#45;&gt;Node10</title>
<path fill="none" stroke="#9a32cd" stroke-dasharray="5,2" d="M706.409,-314.556C736.374,-315.668 777.356,-317.19 811.976,-318.475"/>
<polygon fill="#9a32cd" stroke="#9a32cd" points="706.421,-311.054 696.298,-314.18 706.161,-318.049 706.421,-311.054"/>
<text text-anchor="middle" x="768.5" y="-321" font-family="Helvetica,sans-Serif" font-size="10.00"> elements</text>
</g>
<!-- Node26 -->
<g id="node26" class="node"><title>Node26</title>
<g id="a_node26"><a xlink:href="classAudioSystem.html" target="_top" xlink:title="An AudioSystem represents the entire audio stack used by playd. ">
<polygon fill="white" stroke="black" points="841,-152.5 841,-171.5 921,-171.5 921,-152.5 841,-152.5"/>
<text text-anchor="middle" x="881" y="-159.5" font-family="Helvetica,sans-Serif" font-size="10.00">AudioSystem</text>
</a>
</g>
</g>
<!-- Node7&#45;&gt;Node26 -->
<g id="edge33" class="edge"><title>Node7&#45;&gt;Node26</title>
<path fill="none" stroke="#9a32cd" stroke-dasharray="5,2" d="M694.988,-299.02C723.248,-284.919 765.155,-260.975 794,-231 805.047,-219.52 800.642,-211.172 812,-200 824.534,-187.671 841.873,-178.065 855.906,-171.595"/>
<polygon fill="#9a32cd" stroke="#9a32cd" points="693.42,-295.891 685.966,-303.419 696.488,-302.183 693.42,-295.891"/>
<text text-anchor="middle" x="768.5" y="-274" font-family="Helvetica,sans-Serif" font-size="10.00"> device_id</text>
</g>
<!-- Node30 -->
<g id="node30" class="node"><title>Node30</title>
<polygon fill="white" stroke="#bfbfbf" points="822,-255 822,-285 940,-285 940,-255 822,-255"/>
<text text-anchor="start" x="830" y="-273" font-family="Helvetica,sans-Serif" font-size="10.00">std::map&lt; State, std</text>
<text text-anchor="middle" x="881" y="-262" font-family="Helvetica,sans-Serif" font-size="10.00">::string &gt;</text>
</g>
<!-- Node7&#45;&gt;Node30 -->
<g id="edge39" class="edge"><title>Node7&#45;&gt;Node30</title>
<path fill="none" stroke="#9a32cd" stroke-dasharray="5,2" d="M706.457,-304.628C739.265,-298.082 785.257,-288.905 821.652,-281.643"/>
<polygon fill="#9a32cd" stroke="#9a32cd" points="705.42,-301.266 696.298,-306.655 706.789,-308.131 705.42,-301.266"/>
<text text-anchor="middle" x="768.5" y="-300" font-family="Helvetica,sans-Serif" font-size="10.00"> elements</text>
</g>
<!-- Node8 -->
<g id="node8" class="node"><title>Node8</title>
<g id="a_node8"><a xlink:title="STL class. ">
<polygon fill="white" stroke="#bfbfbf" points="392.5,-298 392.5,-328 495.5,-328 495.5,-298 392.5,-298"/>
<text text-anchor="start" x="400.5" y="-316" font-family="Helvetica,sans-Serif" font-size="10.00">std::basic_string&lt;</text>
<text text-anchor="middle" x="444" y="-305" font-family="Helvetica,sans-Serif" font-size="10.00"> char &gt;</text>
</a>
</g>
</g>
<!-- Node8&#45;&gt;Node7 -->
<g id="edge8" class="edge"><title>Node8&#45;&gt;Node7</title>
<path fill="none" stroke="midnightblue" d="M505.794,-313C546.441,-313 598.264,-313 630.926,-313"/>
<polygon fill="midnightblue" stroke="midnightblue" points="505.72,-309.5 495.72,-313 505.72,-316.5 505.72,-309.5"/>
</g>
<!-- Node9 -->
<g id="node9" class="node"><title>Node9</title>
<polygon fill="white" stroke="#bfbfbf" points="1056,-350.5 1056,-369.5 1166,-369.5 1166,-350.5 1056,-350.5"/>
<text text-anchor="middle" x="1111" y="-357.5" font-family="Helvetica,sans-Serif" font-size="10.00">std::vector&lt; Line &gt;</text>
</g>
<!-- Node9&#45;&gt;Node6 -->
<g id="edge9" class="edge"><title>Node9&#45;&gt;Node6</title>
<path fill="none" stroke="#9a32cd" stroke-dasharray="5,2" d="M1176.39,-352.509C1205.87,-349.079 1239.36,-345.182 1262.77,-342.458"/>
<polygon fill="#9a32cd" stroke="#9a32cd" points="1175.68,-349.067 1166.16,-353.699 1176.49,-356.02 1175.68,-349.067"/>
<text text-anchor="middle" x="1214.5" y="-355" font-family="Helvetica,sans-Serif" font-size="10.00"> ready_lines</text>
</g>
<!-- Node10&#45;&gt;Node6 -->
<g id="edge12" class="edge"><title>Node10&#45;&gt;Node6</title>
<path fill="none" stroke="#9a32cd" stroke-dasharray="5,2" d="M960.063,-322.647C1017.14,-324.053 1096.4,-326.423 1166,-330 1199.2,-331.707 1237.25,-334.531 1262.87,-336.561"/>
<polygon fill="#9a32cd" stroke="#9a32cd" points="960.112,-319.148 950.03,-322.405 959.943,-326.146 960.112,-319.148"/>
<text text-anchor="middle" x="1111" y="-333" font-family="Helvetica,sans-Serif" font-size="10.00"> words</text>
</g>
<!-- Node10&#45;&gt;Node9 -->
<g id="edge10" class="edge"><title>Node10&#45;&gt;Node9</title>
<path fill="none" stroke="#9a32cd" stroke-dasharray="5,2" d="M947.716,-332.241C982.046,-338.113 1023.54,-345.211 1055.98,-350.76"/>
<polygon fill="#9a32cd" stroke="#9a32cd" points="948.222,-328.777 937.775,-330.54 947.042,-335.676 948.222,-328.777"/>
<text text-anchor="middle" x="1003" y="-351" font-family="Helvetica,sans-Serif" font-size="10.00"> elements</text>
</g>
<!-- Node10&#45;&gt;Node12 -->
<g id="edge35" class="edge"><title>Node10&#45;&gt;Node12</title>
<path fill="none" stroke="#9a32cd" stroke-dasharray="5,2" d="M960.451,-318.653C1039.35,-312.643 1161.03,-293.028 1245,-231 1269.33,-213.028 1283.62,-178.533 1289.44,-161.708"/>
<polygon fill="#9a32cd" stroke="#9a32cd" points="959.818,-315.189 950.089,-319.383 960.31,-322.171 959.818,-315.189"/>
<text text-anchor="middle" x="1111" y="-309" font-family="Helvetica,sans-Serif" font-size="10.00"> FEATURES</text>
</g>
<!-- Node11 -->
<g id="node11" class="node"><title>Node11</title>
<g id="a_node11"><a xlink:href="classCommandHandler.html" target="_top" xlink:title="The playd command handler. ">
<polygon fill="white" stroke="black" points="1393,-142.5 1393,-161.5 1497,-161.5 1497,-142.5 1393,-142.5"/>
<text text-anchor="middle" x="1445" y="-149.5" font-family="Helvetica,sans-Serif" font-size="10.00">CommandHandler</text>
</a>
</g>
</g>
<!-- Node11&#45;&gt;Node1 -->
<g id="edge43" class="edge"><title>Node11&#45;&gt;Node1</title>
<path fill="none" stroke="#9a32cd" stroke-dasharray="5,2" d="M1490.69,-139.799C1521.56,-131.372 1562.04,-120.324 1590.55,-112.54"/>
<polygon fill="#9a32cd" stroke="#9a32cd" points="1489.76,-136.426 1481.04,-142.436 1491.6,-143.179 1489.76,-136.426"/>
<text text-anchor="middle" x="1539" y="-135" font-family="Helvetica,sans-Serif" font-size="10.00"> handler</text>
</g>
<!-- Node11&#45;&gt;Node5 -->
<g id="edge14" class="edge"><title>Node11&#45;&gt;Node5</title>
<path fill="none" stroke="#9a32cd" stroke-dasharray="5,2" d="M1507.37,-150.123C1563.9,-148.37 1650.11,-145.634 1725,-143 1730.74,-142.798 1736.84,-142.574 1742.77,-142.352"/>
<polygon fill="#9a32cd" stroke="#9a32cd" points="1507.06,-146.631 1497.17,-150.439 1507.27,-153.628 1507.06,-146.631"/>
<text text-anchor="middle" x="1626.5" y="-151" font-family="Helvetica,sans-Serif" font-size="10.00"> handler</text>
</g>
<!-- Node12&#45;&gt;Node1 -->
<g id="edge42" class="edge"><title>Node12&#45;&gt;Node1</title>
<path fill="none" stroke="#9a32cd" stroke-dasharray="5,2" d="M1326.52,-140.344C1345.57,-133.889 1370.38,-126.318 1393,-122 1457.64,-109.662 1533.9,-105.332 1580.98,-103.815"/>
<polygon fill="#9a32cd" stroke="#9a32cd" points="1325.15,-137.113 1316.85,-143.691 1327.44,-143.729 1325.15,-137.113"/>
<text text-anchor="middle" x="1445" y="-125" font-family="Helvetica,sans-Serif" font-size="10.00"> player</text>
</g>
<!-- Node12&#45;&gt;Node11 -->
<g id="edge15" class="edge"><title>Node12&#45;&gt;Node11</title>
<path fill="none" stroke="#9a32cd" stroke-dasharray="5,2" d="M1326.62,-152C1345.87,-152 1370.8,-152 1392.73,-152"/>
<polygon fill="#9a32cd" stroke="#9a32cd" points="1326.56,-148.5 1316.56,-152 1326.56,-155.5 1326.56,-148.5"/>
<text text-anchor="middle" x="1358.5" y="-155" font-family="Helvetica,sans-Serif" font-size="10.00"> player</text>
</g>
<!-- Node13 -->
<g id="node13" class="node"><title>Node13</title>
<g id="a_node13"><a xlink:href="classPlayerFile.html" target="_top" xlink:title="The subcomponent of a Player that stores the audio file. ">
<polygon fill="white" stroke="black" points="1080.5,-180.5 1080.5,-199.5 1141.5,-199.5 1141.5,-180.5 1080.5,-180.5"/>
<text text-anchor="middle" x="1111" y="-187.5" font-family="Helvetica,sans-Serif" font-size="10.00">PlayerFile</text>
</a>
</g>
</g>
<!-- Node13&#45;&gt;Node12 -->
<g id="edge17" class="edge"><title>Node13&#45;&gt;Node12</title>
<path fill="none" stroke="#9a32cd" stroke-dasharray="5,2" d="M1151.57,-184.009C1178.15,-179.705 1213.86,-173.376 1245,-166 1253.37,-164.018 1262.44,-161.449 1270.4,-159.053"/>
<polygon fill="#9a32cd" stroke="#9a32cd" points="1150.83,-180.583 1141.51,-185.614 1151.93,-187.496 1150.83,-180.583"/>
<text text-anchor="middle" x="1214.5" y="-181" font-family="Helvetica,sans-Serif" font-size="10.00"> file</text>
</g>
<!-- Node14&#45;&gt;Node13 -->
<g id="edge18" class="edge"><title>Node14&#45;&gt;Node13</title>
<path fill="none" stroke="midnightblue" d="M922.545,-131.626C967.872,-145.741 1040.18,-168.258 1080.46,-180.801"/>
<polygon fill="midnightblue" stroke="midnightblue" points="923.338,-128.207 912.749,-128.575 921.256,-134.89 923.338,-128.207"/>
</g>
<!-- Node29 -->
<g id="node29" class="node"><title>Node29</title>
<g id="a_node29"><a xlink:href="classPlayerState.html" target="_top" xlink:title="An object holding and representing the current state of a Player. ">
<polygon fill="white" stroke="black" points="1075,-218.5 1075,-237.5 1147,-237.5 1147,-218.5 1075,-218.5"/>
<text text-anchor="middle" x="1111" y="-225.5" font-family="Helvetica,sans-Serif" font-size="10.00">PlayerState</text>
</a>
</g>
</g>
<!-- Node14&#45;&gt;Node29 -->
<g id="edge37" class="edge"><title>Node14&#45;&gt;Node29</title>
<path fill="none" stroke="midnightblue" d="M932.447,-132.374C938.717,-135.279 944.756,-138.783 950,-143 961.821,-152.507 956.377,-162.252 968,-172 993.673,-193.532 1007.43,-186.273 1038,-200 1046.16,-203.664 1047.77,-205.509 1056,-209 1063.87,-212.336 1072.55,-215.575 1080.6,-218.406"/>
<polygon fill="midnightblue" stroke="midnightblue" points="933.74,-129.121 923.162,-128.534 931.065,-135.59 933.74,-129.121"/>
</g>
<!-- Node31 -->
<g id="node31" class="node"><title>Node31</title>
<g id="a_node31"><a xlink:href="classPlayerPosition.html" target="_top" xlink:title="Tracker and broadcaster for the Player&#39;s current position in a song. ">
<polygon fill="white" stroke="black" points="1069.5,-104.5 1069.5,-123.5 1152.5,-123.5 1152.5,-104.5 1069.5,-104.5"/>
<text text-anchor="middle" x="1111" y="-111.5" font-family="Helvetica,sans-Serif" font-size="10.00">PlayerPosition</text>
</a>
</g>
</g>
<!-- Node14&#45;&gt;Node31 -->
<g id="edge41" class="edge"><title>Node14&#45;&gt;Node31</title>
<path fill="none" stroke="midnightblue" d="M939.502,-116.828C949.02,-116.517 958.787,-116.226 968,-116 1002.14,-115.164 1040.9,-114.647 1069.29,-114.349"/>
<polygon fill="midnightblue" stroke="midnightblue" points="939.185,-113.337 929.309,-117.173 939.421,-120.333 939.185,-113.337"/>
</g>
<!-- Node15 -->
<g id="node15" class="node"><title>Node15</title>
<polygon fill="white" stroke="#bfbfbf" points="812,-209.5 812,-228.5 950,-228.5 950,-209.5 812,-209.5"/>
<text text-anchor="middle" x="881" y="-216.5" font-family="Helvetica,sans-Serif" font-size="10.00">std::unique_ptr&lt; Audio &gt;</text>
</g>
<!-- Node15&#45;&gt;Node13 -->
<g id="edge20" class="edge"><title>Node15&#45;&gt;Node13</title>
<path fill="none" stroke="#9a32cd" stroke-dasharray="5,2" d="M960.196,-209.054C1001.65,-203.781 1050.14,-197.614 1080.46,-193.757"/>
<polygon fill="#9a32cd" stroke="#9a32cd" points="959.577,-205.604 950.099,-210.338 960.46,-212.549 959.577,-205.604"/>
<text text-anchor="middle" x="1003" y="-211" font-family="Helvetica,sans-Serif" font-size="10.00"> audio</text>
</g>
<!-- Node16 -->
<g id="node16" class="node"><title>Node16</title>
<g id="a_node16"><a xlink:href="classAudio.html" target="_top" xlink:title="An audio file. ">
<polygon fill="white" stroke="black" points="641.5,-209.5 641.5,-228.5 685.5,-228.5 685.5,-209.5 641.5,-209.5"/>
<text text-anchor="middle" x="663.5" y="-216.5" font-family="Helvetica,sans-Serif" font-size="10.00">Audio</text>
</a>
</g>
</g>
<!-- Node16&#45;&gt;Node15 -->
<g id="edge21" class="edge"><title>Node16&#45;&gt;Node15</title>
<path fill="none" stroke="#9a32cd" stroke-dasharray="5,2" d="M695.916,-219C726.19,-219 772.991,-219 811.826,-219"/>
<polygon fill="#9a32cd" stroke="#9a32cd" points="695.555,-215.5 685.555,-219 695.555,-222.5 695.555,-215.5"/>
<text text-anchor="middle" x="768.5" y="-222" font-family="Helvetica,sans-Serif" font-size="10.00"> ptr</text>
</g>
<!-- Node17 -->
<g id="node17" class="node"><title>Node17</title>
<polygon fill="white" stroke="#bfbfbf" points="365,-166.5 365,-185.5 523,-185.5 523,-166.5 365,-166.5"/>
<text text-anchor="middle" x="444" y="-173.5" font-family="Helvetica,sans-Serif" font-size="10.00">std::unique_ptr&lt; AudioSink &gt;</text>
</g>
<!-- Node17&#45;&gt;Node16 -->
<g id="edge22" class="edge"><title>Node17&#45;&gt;Node16</title>
<path fill="none" stroke="#9a32cd" stroke-dasharray="5,2" d="M503.337,-187.533C548.938,-196.549 609.725,-208.566 641.355,-214.82"/>
<polygon fill="#9a32cd" stroke="#9a32cd" points="503.759,-184.049 493.27,-185.543 502.402,-190.916 503.759,-184.049"/>
<text text-anchor="middle" x="566" y="-206" font-family="Helvetica,sans-Serif" font-size="10.00"> sink</text>
</g>
<!-- Node18 -->
<g id="node18" class="node"><title>Node18</title>
<g id="a_node18"><a xlink:href="classAudioSink.html" target="_top" xlink:title="An output stream for an Audio file. ">
<polygon fill="white" stroke="black" points="234.5,-164.5 234.5,-183.5 298.5,-183.5 298.5,-164.5 234.5,-164.5"/>
<text text-anchor="middle" x="266.5" y="-171.5" font-family="Helvetica,sans-Serif" font-size="10.00">AudioSink</text>
</a>
</g>
</g>
<!-- Node18&#45;&gt;Node17 -->
<g id="edge23" class="edge"><title>Node18&#45;&gt;Node17</title>
<path fill="none" stroke="#9a32cd" stroke-dasharray="5,2" d="M309.334,-174.477C325.979,-174.666 345.692,-174.891 364.795,-175.109"/>
<polygon fill="#9a32cd" stroke="#9a32cd" points="308.915,-170.972 298.876,-174.358 308.835,-177.971 308.915,-170.972"/>
<text text-anchor="middle" x="331.5" y="-178" font-family="Helvetica,sans-Serif" font-size="10.00"> ptr</text>
</g>
<!-- Node19 -->
<g id="node19" class="node"><title>Node19</title>
<polygon fill="white" stroke="#bfbfbf" points="0,-164.5 0,-183.5 150,-183.5 150,-164.5 0,-164.5"/>
<text text-anchor="middle" x="75" y="-171.5" font-family="Helvetica,sans-Serif" font-size="10.00">portaudio::CallbackInterface</text>
</g>
<!-- Node19&#45;&gt;Node18 -->
<g id="edge24" class="edge"><title>Node19&#45;&gt;Node18</title>
<path fill="none" stroke="#8b1a1a" d="M160.117,-174C186.495,-174 213.986,-174 234.273,-174"/>
<polygon fill="#8b1a1a" stroke="#8b1a1a" points="160.08,-170.5 150.08,-174 160.08,-177.5 160.08,-170.5"/>
</g>
<!-- Node20 -->
<g id="node20" class="node"><title>Node20</title>
<g id="a_node20"><a xlink:href="classRingBuffer.html" target="_top" xlink:title="RingBuffer\&lt; char, unsigned\l long \&gt;">
<polygon fill="white" stroke="black" points="1.5,-115 1.5,-145 148.5,-145 148.5,-115 1.5,-115"/>
<text text-anchor="start" x="9.5" y="-133" font-family="Helvetica,sans-Serif" font-size="10.00">RingBuffer&lt; char, unsigned</text>
<text text-anchor="middle" x="75" y="-122" font-family="Helvetica,sans-Serif" font-size="10.00"> long &gt;</text>
</a>
</g>
</g>
<!-- Node20&#45;&gt;Node18 -->
<g id="edge25" class="edge"><title>Node20&#45;&gt;Node18</title>
<path fill="none" stroke="#9a32cd" stroke-dasharray="5,2" d="M158.731,-147.215C175.724,-150.944 193.47,-154.98 210,-159 217.953,-160.934 226.505,-163.168 234.457,-165.311"/>
<polygon fill="#9a32cd" stroke="#9a32cd" points="159.344,-143.766 148.828,-145.057 157.853,-150.606 159.344,-143.766"/>
<text text-anchor="middle" x="189" y="-162" font-family="Helvetica,sans-Serif" font-size="10.00"> ring_buf</text>
</g>
<!-- Node21 -->
<g id="node21" class="node"><title>Node21</title>
<polygon fill="white" stroke="#bfbfbf" points="2,-203 2,-233 148,-233 148,-203 2,-203"/>
<text text-anchor="start" x="10" y="-221" font-family="Helvetica,sans-Serif" font-size="10.00">std::unique_ptr&lt; portaudio</text>
<text text-anchor="middle" x="75" y="-210" font-family="Helvetica,sans-Serif" font-size="10.00">::Stream &gt;</text>
</g>
<!-- Node21&#45;&gt;Node18 -->
<g id="edge26" class="edge"><title>Node21&#45;&gt;Node18</title>
<path fill="none" stroke="#9a32cd" stroke-dasharray="5,2" d="M154.887,-200.709C173.013,-196.633 192.193,-192.238 210,-188 217.927,-186.113 226.47,-183.999 234.421,-181.996"/>
<polygon fill="#9a32cd" stroke="#9a32cd" points="153.933,-197.336 144.94,-202.938 155.463,-204.167 153.933,-197.336"/>
<text text-anchor="middle" x="189" y="-201" font-family="Helvetica,sans-Serif" font-size="10.00"> stream</text>
</g>
<!-- Node22 -->
<g id="node22" class="node"><title>Node22</title>
<polygon fill="white" stroke="#bfbfbf" points="358,-251.5 358,-270.5 530,-270.5 530,-251.5 358,-251.5"/>
<text text-anchor="middle" x="444" y="-258.5" font-family="Helvetica,sans-Serif" font-size="10.00">std::unique_ptr&lt; AudioSource &gt;</text>
</g>
<!-- Node22&#45;&gt;Node16 -->
<g id="edge27" class="edge"><title>Node22&#45;&gt;Node16</title>
<path fill="none" stroke="#9a32cd" stroke-dasharray="5,2" d="M504.398,-249.53C549.85,-240.753 609.9,-229.157 641.3,-223.094"/>
<polygon fill="#9a32cd" stroke="#9a32cd" points="503.509,-246.137 494.354,-251.47 504.836,-253.01 503.509,-246.137"/>
<text text-anchor="middle" x="566" y="-243" font-family="Helvetica,sans-Serif" font-size="10.00"> source</text>
</g>
<!-- Node23 -->
<g id="node23" class="node"><title>Node23</title>
<g id="a_node23"><a xlink:href="classAudioSource.html" target="_top" xlink:title="An object responsible for decoding an audio file. ">
<polygon fill="white" stroke="black" points="228,-252.5 228,-271.5 305,-271.5 305,-252.5 228,-252.5"/>
<text text-anchor="middle" x="266.5" y="-259.5" font-family="Helvetica,sans-Serif" font-size="10.00">AudioSource</text>
</a>
</g>
</g>
<!-- Node23&#45;&gt;Node22 -->
<g id="edge28" class="edge"><title>Node23&#45;&gt;Node22</title>
<path fill="none" stroke="#9a32cd" stroke-dasharray="5,2" d="M315.353,-261.727C328.521,-261.652 343.213,-261.569 357.81,-261.485"/>
<polygon fill="#9a32cd" stroke="#9a32cd" points="315.129,-258.228 305.149,-261.785 315.169,-265.228 315.129,-258.228"/>
<text text-anchor="middle" x="331.5" y="-265" font-family="Helvetica,sans-Serif" font-size="10.00"> ptr</text>
</g>
<!-- Node24 -->
<g id="node24" class="node"><title>Node24</title>
<polygon fill="white" stroke="#bfbfbf" points="13.5,-252.5 13.5,-271.5 136.5,-271.5 136.5,-252.5 13.5,-252.5"/>
<text text-anchor="middle" x="75" y="-259.5" font-family="Helvetica,sans-Serif" font-size="10.00">std::vector&lt; uint8_t &gt;</text>
</g>
<!-- Node24&#45;&gt;Node23 -->
<g id="edge29" class="edge"><title>Node24&#45;&gt;Node23</title>
<path fill="none" stroke="#9a32cd" stroke-dasharray="5,2" d="M146.75,-262C174.324,-262 204.802,-262 227.976,-262"/>
<polygon fill="#9a32cd" stroke="#9a32cd" points="146.741,-258.5 136.741,-262 146.741,-265.5 146.741,-258.5"/>
<text text-anchor="middle" x="189" y="-265" font-family="Helvetica,sans-Serif" font-size="10.00"> buffer</text>
</g>
<!-- Node25 -->
<g id="node25" class="node"><title>Node25</title>
<polygon fill="white" stroke="#bfbfbf" points="372,-209.5 372,-228.5 516,-228.5 516,-209.5 372,-209.5"/>
<text text-anchor="middle" x="444" y="-216.5" font-family="Helvetica,sans-Serif" font-size="10.00">std::vector&lt; std::uint8_t &gt;</text>
</g>
<!-- Node25&#45;&gt;Node16 -->
<g id="edge30" class="edge"><title>Node25&#45;&gt;Node16</title>
<path fill="none" stroke="#9a32cd" stroke-dasharray="5,2" d="M526.328,-219C567.73,-219 614.804,-219 641.348,-219"/>
<polygon fill="#9a32cd" stroke="#9a32cd" points="526.218,-215.5 516.218,-219 526.218,-222.5 526.218,-215.5"/>
<text text-anchor="middle" x="566" y="-222" font-family="Helvetica,sans-Serif" font-size="10.00"> frame</text>
</g>
<!-- Node26&#45;&gt;Node13 -->
<g id="edge31" class="edge"><title>Node26&#45;&gt;Node13</title>
<path fill="none" stroke="#9a32cd" stroke-dasharray="5,2" d="M931.124,-168.033C976.539,-173.61 1042.54,-181.716 1080.38,-186.362"/>
<polygon fill="#9a32cd" stroke="#9a32cd" points="931.547,-164.558 921.195,-166.813 930.693,-171.506 931.547,-164.558"/>
<text text-anchor="middle" x="1003" y="-184" font-family="Helvetica,sans-Serif" font-size="10.00"> audio_system</text>
</g>
<!-- Node27 -->
<g id="node27" class="node"><title>Node27</title>
<g id="a_node27"><a xlink:href="classAudioSinkConfigurator.html" target="_top" xlink:title="Interface for objects that can configure a PortAudio stream from an AudioSource. ">
<polygon fill="white" stroke="black" points="602,-152.5 602,-171.5 725,-171.5 725,-152.5 602,-152.5"/>
<text text-anchor="middle" x="663.5" y="-159.5" font-family="Helvetica,sans-Serif" font-size="10.00">AudioSinkConfigurator</text>
</a>
</g>
</g>
<!-- Node27&#45;&gt;Node26 -->
<g id="edge32" class="edge"><title>Node27&#45;&gt;Node26</title>
<path fill="none" stroke="midnightblue" d="M735.309,-162C770.422,-162 811.489,-162 840.883,-162"/>
<polygon fill="midnightblue" stroke="midnightblue" points="735.102,-158.5 725.102,-162 735.102,-165.5 735.102,-158.5"/>
</g>
<!-- Node28 -->
<g id="node28" class="node"><title>Node28</title>
<g id="a_node28"><a xlink:href="classTimeParser.html" target="_top" xlink:title="A class for parsing time strings consisting of an integer and unit into a flat integer representing t...">
<polygon fill="white" stroke="black" points="1076,-142.5 1076,-161.5 1146,-161.5 1146,-142.5 1076,-142.5"/>
<text text-anchor="middle" x="1111" y="-149.5" font-family="Helvetica,sans-Serif" font-size="10.00">TimeParser</text>
</a>
</g>
</g>
<!-- Node28&#45;&gt;Node12 -->
<g id="edge34" class="edge"><title>Node28&#45;&gt;Node12</title>
<path fill="none" stroke="#9a32cd" stroke-dasharray="5,2" d="M1156.67,-152C1192.86,-152 1242.31,-152 1270.47,-152"/>
<polygon fill="#9a32cd" stroke="#9a32cd" points="1156.38,-148.5 1146.38,-152 1156.38,-155.5 1156.38,-148.5"/>
<text text-anchor="middle" x="1214.5" y="-155" font-family="Helvetica,sans-Serif" font-size="10.00"> time_parser</text>
</g>
<!-- Node29&#45;&gt;Node12 -->
<g id="edge36" class="edge"><title>Node29&#45;&gt;Node12</title>
<path fill="none" stroke="#9a32cd" stroke-dasharray="5,2" d="M1157.04,-221.409C1183.72,-216.249 1217.56,-207.452 1245,-193 1260.42,-184.879 1275.12,-170.893 1283.98,-161.546"/>
<polygon fill="#9a32cd" stroke="#9a32cd" points="1156.4,-217.968 1147.2,-223.213 1157.66,-224.854 1156.4,-217.968"/>
<text text-anchor="middle" x="1214.5" y="-219" font-family="Helvetica,sans-Serif" font-size="10.00"> state</text>
</g>
<!-- Node30&#45;&gt;Node29 -->
<g id="edge38" class="edge"><title>Node30&#45;&gt;Node29</title>
<path fill="none" stroke="#9a32cd" stroke-dasharray="5,2" d="M950.328,-257.27C956.304,-256.162 962.26,-255.06 968,-254 1004.48,-247.267 1046.24,-239.629 1074.98,-234.383"/>
<polygon fill="#9a32cd" stroke="#9a32cd" points="949.478,-253.867 940.284,-259.133 950.755,-260.75 949.478,-253.867"/>
<text text-anchor="middle" x="1003" y="-257" font-family="Helvetica,sans-Serif" font-size="10.00"> STRINGS</text>
</g>
<!-- Node31&#45;&gt;Node12 -->
<g id="edge40" class="edge"><title>Node31&#45;&gt;Node12</title>
<path fill="none" stroke="#9a32cd" stroke-dasharray="5,2" d="M1162.72,-121.128C1187.67,-125.049 1218.08,-130.454 1245,-137 1253.4,-139.044 1262.49,-141.779 1270.44,-144.355"/>
<polygon fill="#9a32cd" stroke="#9a32cd" points="1163.16,-117.654 1152.74,-119.592 1162.09,-124.573 1163.16,-117.654"/>
<text text-anchor="middle" x="1214.5" y="-140" font-family="Helvetica,sans-Serif" font-size="10.00"> position</text>
</g>
</g>
</svg>
