<?xml version="1.0" encoding="UTF-8" standalone="no"?>
<!DOCTYPE svg PUBLIC "-//W3C//DTD SVG 1.1//EN"
 "http://www.w3.org/Graphics/SVG/1.1/DTD/svg11.dtd">
<!-- Generated by graphviz version 2.36.0 (20140111.2315)
 -->
<!-- Title: Connection Pages: 1 -->
<!--zoomable 253 -->
<svg id="main" version="1.1" xmlns="http://www.w3.org/2000/svg" xmlns:xlink="http://www.w3.org/1999/xlink" xml:space="preserve" onload="init(evt)">
<style type="text/css"><![CDATA[
.edge:hover path { stroke: red; }
.edge:hover polygon { stroke: red; fill: red; }
]]></style>
<script type="text/javascript"><![CDATA[
var edges = document.getElementsByTagName('g');
if (edges && edges.length) {
  for (var i=0;i<edges.length;i++) {
    if (edges[i].id.substr(0,4)=='edge') {
      edges[i].setAttribute('class','edge');
    }
  }
}
]]></script>
        <defs>
                <circle id="rim" cx="0" cy="0" r="7"/>
                <circle id="rim2" cx="0" cy="0" r="3.5"/>
                <g id="zoomPlus">
                        <use xlink:href="#rim" fill="#404040">
                                <set attributeName="fill" to="#808080" begin="zoomplus.mouseover" end="zoomplus.mouseout"/>
                        </use>
                        <path d="M-4,0h8M0,-4v8" fill="none" stroke="white" stroke-width="1.5" pointer-events="none"/>
                </g>
                <g id="zoomMin">
                        <use xlink:href="#rim" fill="#404040">
                                <set attributeName="fill" to="#808080" begin="zoomminus.mouseover" end="zoomminus.mouseout"/>
                        </use>
                        <path d="M-4,0h8" fill="none" stroke="white" stroke-width="1.5" pointer-events="none"/>
                </g>
                <g id="dirArrow">
                        <path fill="none" stroke="white" stroke-width="1.5" d="M0,-3.0v7 M-2.5,-0.5L0,-3.0L2.5,-0.5"/>
                </g>
               <g id="resetDef">
                       <use xlink:href="#rim2" fill="#404040">
                               <set attributeName="fill" to="#808080" begin="reset.mouseover" end="reset.mouseout"/>
                       </use>
               </g>
        </defs>

<script type="text/javascript">
var viewWidth = 938;
var viewHeight = 253;
var sectionId = 'dynsection-0';
</script>
<script xlink:href="svgpan.js"/>
<svg id="graph" class="graph">
<g id="viewport">
<title>Connection</title>
<polygon fill="white" stroke="none" points="-4,4 -4,-249 934,-249 934,4 -4,4"/>
<!-- Node1 -->
<g id="node1" class="node"><title>Node1</title>
<polygon fill="#bfbfbf" stroke="black" points="858.5,-81.5 858.5,-100.5 929.5,-100.5 929.5,-81.5 858.5,-81.5"/>
<text text-anchor="middle" x="894" y="-88.5" font-family="Helvetica,sans-Serif" font-size="10.00">Connection</text>
</g>
<!-- Node2 -->
<g id="node2" class="node"><title>Node2</title>
<g id="a_node2"><a xlink:href="classTokeniser.html" target="_top" xlink:title="A string tokeniser. ">
<polygon fill="white" stroke="black" points="562.5,-182.5 562.5,-201.5 623.5,-201.5 623.5,-182.5 562.5,-182.5"/>
<text text-anchor="middle" x="593" y="-189.5" font-family="Helvetica,sans-Serif" font-size="10.00">Tokeniser</text>
</a>
</g>
</g>
<!-- Node2&#45;&gt;Node1 -->
<g id="edge1" class="edge"><title>Node2&#45;&gt;Node1</title>
<path fill="none" stroke="#9a32cd" stroke-dasharray="5,2" d="M633.322,-180.368C642.122,-177.686 651.396,-174.798 660,-172 735.344,-147.499 823.473,-116.109 866.561,-100.582"/>
<polygon fill="#9a32cd" stroke="#9a32cd" points="632.208,-177.049 623.649,-183.293 634.234,-183.749 632.208,-177.049"/>
<text text-anchor="middle" x="762" y="-149" font-family="Helvetica,sans-Serif" font-size="10.00"> tokeniser</text>
</g>
<!-- Node3 -->
<g id="node3" class="node"><title>Node3</title>
<polygon fill="white" stroke="#bfbfbf" points="298,-176 298,-206 428,-206 428,-176 298,-176"/>
<text text-anchor="start" x="306" y="-194" font-family="Helvetica,sans-Serif" font-size="10.00">std::vector&lt; std::vector</text>
<text text-anchor="middle" x="363" y="-183" font-family="Helvetica,sans-Serif" font-size="10.00">&lt; std::string &gt; &gt;</text>
</g>
<!-- Node3&#45;&gt;Node2 -->
<g id="edge2" class="edge"><title>Node3&#45;&gt;Node2</title>
<path fill="none" stroke="#9a32cd" stroke-dasharray="5,2" d="M438.37,-191.326C480.562,-191.511 531.025,-191.733 562.301,-191.87"/>
<polygon fill="#9a32cd" stroke="#9a32cd" points="438.133,-187.825 428.117,-191.281 438.102,-194.825 438.133,-187.825"/>
<text text-anchor="middle" x="479" y="-195" font-family="Helvetica,sans-Serif" font-size="10.00"> ready_lines</text>
</g>
<!-- Node4 -->
<g id="node4" class="node"><title>Node4</title>
<g id="a_node4"><a xlink:title="STL class. ">
<polygon fill="white" stroke="#bfbfbf" points="142.5,-136.5 142.5,-155.5 207.5,-155.5 207.5,-136.5 142.5,-136.5"/>
<text text-anchor="middle" x="175" y="-143.5" font-family="Helvetica,sans-Serif" font-size="10.00">std::string</text>
</a>
</g>
</g>
<!-- Node4&#45;&gt;Node2 -->
<g id="edge3" class="edge"><title>Node4&#45;&gt;Node2</title>
<path fill="none" stroke="#9a32cd" stroke-dasharray="5,2" d="M217.962,-145.015C268.84,-144.387 357.085,-145.115 432,-155 478.073,-161.08 530.341,-174.417 562.236,-183.306"/>
<polygon fill="#9a32cd" stroke="#9a32cd" points="217.638,-141.519 207.691,-145.167 217.741,-148.519 217.638,-141.519"/>
<text text-anchor="middle" x="363" y="-158" font-family="Helvetica,sans-Serif" font-size="10.00"> current_word</text>
</g>
<!-- Node6 -->
<g id="node6" class="node"><title>Node6</title>
<polygon fill="white" stroke="#bfbfbf" points="294,-225.5 294,-244.5 432,-244.5 432,-225.5 294,-225.5"/>
<text text-anchor="middle" x="363" y="-232.5" font-family="Helvetica,sans-Serif" font-size="10.00">std::vector&lt; std::string &gt;</text>
</g>
<!-- Node4&#45;&gt;Node6 -->
<g id="edge6" class="edge"><title>Node4&#45;&gt;Node6</title>
<path fill="none" stroke="#9a32cd" stroke-dasharray="5,2" d="M198.339,-161.29C221.447,-176.563 258.994,-199.885 294,-215 303.377,-219.049 313.822,-222.574 323.656,-225.491"/>
<polygon fill="#9a32cd" stroke="#9a32cd" points="200.197,-158.322 189.939,-155.671 196.305,-164.141 200.197,-158.322"/>
<text text-anchor="middle" x="251" y="-209" font-family="Helvetica,sans-Serif" font-size="10.00"> elements</text>
</g>
<!-- Node14 -->
<g id="node14" class="node"><title>Node14</title>
<polygon fill="white" stroke="#bfbfbf" points="302,-40 302,-70 424,-70 424,-40 302,-40"/>
<text text-anchor="start" x="310" y="-58" font-family="Helvetica,sans-Serif" font-size="10.00">std::map&lt; std::string,</text>
<text text-anchor="middle" x="363" y="-47" font-family="Helvetica,sans-Serif" font-size="10.00"> SourceFn &gt;</text>
</g>
<!-- Node4&#45;&gt;Node14 -->
<g id="edge16" class="edge"><title>Node4&#45;&gt;Node14</title>
<path fill="none" stroke="#9a32cd" stroke-dasharray="5,2" d="M200.284,-131.326C223.789,-117.436 260.66,-96.4663 294,-81 302.255,-77.1705 311.246,-73.4384 319.905,-70.052"/>
<polygon fill="#9a32cd" stroke="#9a32cd" points="198.473,-128.331 191.67,-136.454 202.053,-134.346 198.473,-128.331"/>
<text text-anchor="middle" x="251" y="-120" font-family="Helvetica,sans-Serif" font-size="10.00"> keys</text>
</g>
<!-- Node5 -->
<g id="node5" class="node"><title>Node5</title>
<g id="a_node5"><a xlink:title="STL class. ">
<polygon fill="white" stroke="#bfbfbf" points="0.5,-131 0.5,-161 103.5,-161 103.5,-131 0.5,-131"/>
<text text-anchor="start" x="8.5" y="-149" font-family="Helvetica,sans-Serif" font-size="10.00">std::basic_string&lt;</text>
<text text-anchor="middle" x="52" y="-138" font-family="Helvetica,sans-Serif" font-size="10.00"> char &gt;</text>
</a>
</g>
</g>
<!-- Node5&#45;&gt;Node4 -->
<g id="edge4" class="edge"><title>Node5&#45;&gt;Node4</title>
<path fill="none" stroke="midnightblue" d="M113.814,-146C123.641,-146 133.456,-146 142.224,-146"/>
<polygon fill="midnightblue" stroke="midnightblue" points="113.614,-142.5 103.614,-146 113.614,-149.5 113.614,-142.5"/>
</g>
<!-- Node6&#45;&gt;Node2 -->
<g id="edge5" class="edge"><title>Node6&#45;&gt;Node2</title>
<path fill="none" stroke="#9a32cd" stroke-dasharray="5,2" d="M424.451,-223.599C469.005,-215.196 527.68,-204.13 562.463,-197.571"/>
<polygon fill="#9a32cd" stroke="#9a32cd" points="423.779,-220.164 414.601,-225.457 425.076,-227.043 423.779,-220.164"/>
<text text-anchor="middle" x="479" y="-222" font-family="Helvetica,sans-Serif" font-size="10.00"> words</text>
</g>
<!-- Node7 -->
<g id="node7" class="node"><title>Node7</title>
<g id="a_node7"><a xlink:href="classIoCore.html" target="_top" xlink:title="The IO core, which services input, routes responses, and executes the Player update routine periodica...">
<polygon fill="white" stroke="black" points="738.5,-81.5 738.5,-100.5 785.5,-100.5 785.5,-81.5 738.5,-81.5"/>
<text text-anchor="middle" x="762" y="-88.5" font-family="Helvetica,sans-Serif" font-size="10.00">IoCore</text>
</a>
</g>
</g>
<!-- Node7&#45;&gt;Node1 -->
<g id="edge7" class="edge"><title>Node7&#45;&gt;Node1</title>
<path fill="none" stroke="#9a32cd" stroke-dasharray="5,2" d="M795.694,-91C814.82,-91 838.951,-91 858.397,-91"/>
<polygon fill="#9a32cd" stroke="#9a32cd" points="795.644,-87.5001 785.644,-91 795.644,-94.5001 795.644,-87.5001"/>
<text text-anchor="middle" x="822" y="-94" font-family="Helvetica,sans-Serif" font-size="10.00"> parent</text>
</g>
<!-- Node8 -->
<g id="node8" class="node"><title>Node8</title>
<g id="a_node8"><a xlink:href="classResponseSink.html" target="_top" xlink:title="Abstract class for anything that can be sent a response. ">
<polygon fill="white" stroke="black" points="321.5,-90.5 321.5,-109.5 404.5,-109.5 404.5,-90.5 321.5,-90.5"/>
<text text-anchor="middle" x="363" y="-97.5" font-family="Helvetica,sans-Serif" font-size="10.00">ResponseSink</text>
</a>
</g>
</g>
<!-- Node8&#45;&gt;Node7 -->
<g id="edge8" class="edge"><title>Node8&#45;&gt;Node7</title>
<path fill="none" stroke="midnightblue" d="M414.783,-98.8488C501.766,-96.8768 675.905,-92.9291 738.193,-91.517"/>
<polygon fill="midnightblue" stroke="midnightblue" points="414.538,-95.3533 404.62,-99.0791 414.697,-102.352 414.538,-95.3533"/>
</g>
<!-- Node11 -->
<g id="node11" class="node"><title>Node11</title>
<g id="a_node11"><a xlink:href="classPlayer.html" target="_top" xlink:title="A Player contains a loaded audio file and a command API for manipulating it. ">
<polygon fill="white" stroke="black" points="570,-18.5 570,-37.5 616,-37.5 616,-18.5 570,-18.5"/>
<text text-anchor="middle" x="593" y="-25.5" font-family="Helvetica,sans-Serif" font-size="10.00">Player</text>
</a>
</g>
</g>
<!-- Node8&#45;&gt;Node11 -->
<g id="edge14" class="edge"><title>Node8&#45;&gt;Node11</title>
<path fill="none" stroke="#9a32cd" stroke-dasharray="5,2" d="M410.984,-87.7883C439.462,-79.8607 476.296,-68.6665 508,-56 516.306,-52.6816 517.667,-50.2508 526,-47 540.33,-41.4095 556.977,-36.6287 569.967,-33.2611"/>
<polygon fill="#9a32cd" stroke="#9a32cd" points="409.997,-84.4295 401.282,-90.4531 411.851,-91.1796 409.997,-84.4295"/>
<text text-anchor="middle" x="479" y="-79" font-family="Helvetica,sans-Serif" font-size="10.00"> io</text>
</g>
<!-- Node9 -->
<g id="node9" class="node"><title>Node9</title>
<polygon fill="white" stroke="#bfbfbf" points="534,-56.5 534,-75.5 652,-75.5 652,-56.5 534,-56.5"/>
<text text-anchor="middle" x="593" y="-63.5" font-family="Helvetica,sans-Serif" font-size="10.00">std::vector&lt; size_t &gt;</text>
</g>
<!-- Node9&#45;&gt;Node7 -->
<g id="edge9" class="edge"><title>Node9&#45;&gt;Node7</title>
<path fill="none" stroke="#9a32cd" stroke-dasharray="5,2" d="M662.041,-70.7356C680.915,-72.6677 701.342,-75.3387 720,-79 725.968,-80.1711 732.319,-81.8231 738.196,-83.5279"/>
<polygon fill="#9a32cd" stroke="#9a32cd" points="662.327,-67.2469 652.035,-69.764 661.65,-74.2142 662.327,-67.2469"/>
<text text-anchor="middle" x="699" y="-82" font-family="Helvetica,sans-Serif" font-size="10.00"> free_list</text>
</g>
<!-- Node10 -->
<g id="node10" class="node"><title>Node10</title>
<polygon fill="white" stroke="#bfbfbf" points="526.5,-133 526.5,-163 659.5,-163 659.5,-133 526.5,-133"/>
<text text-anchor="start" x="534.5" y="-151" font-family="Helvetica,sans-Serif" font-size="10.00">std::vector&lt; std::shared</text>
<text text-anchor="middle" x="593" y="-140" font-family="Helvetica,sans-Serif" font-size="10.00">_ptr&lt; Connection &gt; &gt;</text>
</g>
<!-- Node10&#45;&gt;Node7 -->
<g id="edge10" class="edge"><title>Node10&#45;&gt;Node7</title>
<path fill="none" stroke="#9a32cd" stroke-dasharray="5,2" d="M669.689,-134.502C686.611,-130.25 704.213,-124.825 720,-118 730.327,-113.536 740.904,-106.497 748.729,-100.725"/>
<polygon fill="#9a32cd" stroke="#9a32cd" points="668.729,-131.133 659.823,-136.872 670.363,-137.939 668.729,-131.133"/>
<text text-anchor="middle" x="699" y="-135" font-family="Helvetica,sans-Serif" font-size="10.00"> pool</text>
</g>
<!-- Node11&#45;&gt;Node1 -->
<g id="edge17" class="edge"><title>Node11&#45;&gt;Node1</title>
<path fill="none" stroke="#9a32cd" stroke-dasharray="5,2" d="M626.285,-29.3686C651.885,-30.8627 688.473,-33.9102 720,-40 772.88,-50.2146 832.798,-69.7255 866.425,-81.4298"/>
<polygon fill="#9a32cd" stroke="#9a32cd" points="626.207,-25.8595 616.034,-28.8191 625.832,-32.8494 626.207,-25.8595"/>
<text text-anchor="middle" x="762" y="-59" font-family="Helvetica,sans-Serif" font-size="10.00"> player</text>
</g>
<!-- Node11&#45;&gt;Node7 -->
<g id="edge11" class="edge"><title>Node11&#45;&gt;Node7</title>
<path fill="none" stroke="#9a32cd" stroke-dasharray="5,2" d="M626.582,-31.7198C652.847,-35.6507 690.186,-43.387 720,-58 731.979,-63.8713 743.63,-73.7791 751.431,-81.2096"/>
<polygon fill="#9a32cd" stroke="#9a32cd" points="626.792,-28.2154 616.405,-30.3037 625.827,-35.1486 626.792,-28.2154"/>
<text text-anchor="middle" x="699" y="-61" font-family="Helvetica,sans-Serif" font-size="10.00"> player</text>
</g>
<!-- Node12 -->
<g id="node12" class="node"><title>Node12</title>
<polygon fill="white" stroke="#bfbfbf" points="294,-0.5 294,-19.5 432,-19.5 432,-0.5 294,-0.5"/>
<text text-anchor="middle" x="363" y="-7.5" font-family="Helvetica,sans-Serif" font-size="10.00">std::unique_ptr&lt; Audio &gt;</text>
</g>
<!-- Node12&#45;&gt;Node11 -->
<g id="edge12" class="edge"><title>Node12&#45;&gt;Node11</title>
<path fill="none" stroke="#9a32cd" stroke-dasharray="5,2" d="M442.275,-7.8065C463.635,-7.95273 486.747,-8.79644 508,-11 529.164,-13.1943 552.894,-18.2416 569.719,-22.2699"/>
<polygon fill="#9a32cd" stroke="#9a32cd" points="442.279,-4.3066 432.272,-7.78688 442.265,-11.3066 442.279,-4.3066"/>
<text text-anchor="middle" x="479" y="-14" font-family="Helvetica,sans-Serif" font-size="10.00"> file</text>
</g>
<!-- Node13 -->
<g id="node13" class="node"><title>Node13</title>
<g id="a_node13"><a xlink:href="classAudio.html" target="_top" xlink:title="An audio item. ">
<polygon fill="white" stroke="black" points="153,-0.5 153,-19.5 197,-19.5 197,-0.5 153,-0.5"/>
<text text-anchor="middle" x="175" y="-7.5" font-family="Helvetica,sans-Serif" font-size="10.00">Audio</text>
</a>
</g>
</g>
<!-- Node13&#45;&gt;Node12 -->
<g id="edge13" class="edge"><title>Node13&#45;&gt;Node12</title>
<path fill="none" stroke="#9a32cd" stroke-dasharray="5,2" d="M207.46,-10C231.066,-10 264.271,-10 293.854,-10"/>
<polygon fill="#9a32cd" stroke="#9a32cd" points="207.337,-6.5001 197.337,-10 207.337,-13.5001 207.337,-6.5001"/>
<text text-anchor="middle" x="251" y="-13" font-family="Helvetica,sans-Serif" font-size="10.00"> ptr</text>
</g>
<!-- Node14&#45;&gt;Node11 -->
<g id="edge15" class="edge"><title>Node14&#45;&gt;Node11</title>
<path fill="none" stroke="#9a32cd" stroke-dasharray="5,2" d="M434.239,-46.6822C480.744,-41.175 538.704,-34.3114 569.807,-30.6282"/>
<polygon fill="#9a32cd" stroke="#9a32cd" points="433.722,-43.219 424.203,-47.8708 434.545,-50.1704 433.722,-43.219"/>
<text text-anchor="middle" x="479" y="-48" font-family="Helvetica,sans-Serif" font-size="10.00"> sources</text>
</g>
</g>
</svg>
        <g id="navigator" transform="translate(0 0)" fill="#404254">
                <rect fill="#f2f5e9" fill-opacity="0.5" stroke="#606060" stroke-width=".5" x="0" y="0" width="60" height="60"/>
                <use id="zoomplus" xlink:href="#zoomPlus" x="17" y="9" onmousedown="handleZoom(evt,'in')"/>
                <use id="zoomminus" xlink:href="#zoomMin" x="42" y="9" onmousedown="handleZoom(evt,'out')"/>
                <use id="reset" xlink:href="#resetDef" x="30" y="36" onmousedown="handleReset()"/>
                <g id="arrowUp" xlink:href="#dirArrow" transform="translate(30 24)" onmousedown="handlePan(0,-1)">
                  <use xlink:href="#rim" fill="#404040">
                        <set attributeName="fill" to="#808080" begin="arrowUp.mouseover" end="arrowUp.mouseout"/>
                  </use>
                  <path fill="none" stroke="white" stroke-width="1.5" d="M0,-3.0v7 M-2.5,-0.5L0,-3.0L2.5,-0.5"/>
                </g>
                <g id="arrowRight" xlink:href="#dirArrow" transform="rotate(90) translate(36 -43)" onmousedown="handlePan(1,0)">
                  <use xlink:href="#rim" fill="#404040">
                        <set attributeName="fill" to="#808080" begin="arrowRight.mouseover" end="arrowRight.mouseout"/>
                  </use>
                  <path fill="none" stroke="white" stroke-width="1.5" d="M0,-3.0v7 M-2.5,-0.5L0,-3.0L2.5,-0.5"/>
                </g>
                <g id="arrowDown" xlink:href="#dirArrow" transform="rotate(180) translate(-30 -48)" onmousedown="handlePan(0,1)">
                  <use xlink:href="#rim" fill="#404040">
                        <set attributeName="fill" to="#808080" begin="arrowDown.mouseover" end="arrowDown.mouseout"/>
                  </use>
                  <path fill="none" stroke="white" stroke-width="1.5" d="M0,-3.0v7 M-2.5,-0.5L0,-3.0L2.5,-0.5"/>
                </g>
                <g id="arrowLeft" xlink:href="#dirArrow" transform="rotate(270) translate(-36 17)" onmousedown="handlePan(-1,0)">
                  <use xlink:href="#rim" fill="#404040">
                        <set attributeName="fill" to="#808080" begin="arrowLeft.mouseover" end="arrowLeft.mouseout"/>
                  </use>
                  <path fill="none" stroke="white" stroke-width="1.5" d="M0,-3.0v7 M-2.5,-0.5L0,-3.0L2.5,-0.5"/>
                </g>
        </g>
        <svg viewBox="0 0 15 15" width="100%" height="30px" preserveAspectRatio="xMaxYMin meet">
         <g id="arrow_out" transform="scale(0.3 0.3)">
          <a xlink:href="classConnection__coll__graph_org.svg" target="_base">
           <rect id="button" ry="5" rx="5" y="6" x="6" height="38" width="38"
                fill="#f2f5e9" fill-opacity="0.5" stroke="#606060" stroke-width="1.0"/>
           <path id="arrow"
             d="M 11.500037,31.436501 C 11.940474,20.09759 22.043105,11.32322 32.158766,21.979434 L 37.068811,17.246167 C 37.068811,17.246167 37.088388,32 37.088388,32 L 22.160133,31.978069 C 22.160133,31.978069 26.997745,27.140456 26.997745,27.140456 C 18.528582,18.264221 13.291696,25.230495 11.500037,31.436501 z"
             style="fill:#404040;"/>
          </a>
         </g>
        </svg>
</svg>
