<?xml version="1.0" encoding="UTF-8" standalone="no"?>
<!DOCTYPE svg PUBLIC "-//W3C//DTD SVG 1.1//EN"
 "http://www.w3.org/Graphics/SVG/1.1/DTD/svg11.dtd">
<!-- Generated by graphviz version 2.38.0 (20140413.2041)
 -->
<!-- Title: Connection Pages: 1 -->
<svg width="1913pt" height="428pt"
 viewBox="0.00 0.00 1913.00 428.46" xmlns="http://www.w3.org/2000/svg" xmlns:xlink="http://www.w3.org/1999/xlink">
<g id="graph0" class="graph" transform="scale(1 1) rotate(0) translate(4 424.463)">
<title>Connection</title>
<polygon fill="white" stroke="none" points="-4,4 -4,-424.463 1909,-424.463 1909,4 -4,4"/>
<!-- Node1 -->
<g id="node1" class="node"><title>Node1</title>
<polygon fill="#bfbfbf" stroke="black" points="1214,-86.9629 1214,-105.963 1285,-105.963 1285,-86.9629 1214,-86.9629"/>
<text text-anchor="middle" x="1249.5" y="-93.9629" font-family="Helvetica,sans-Serif" font-size="10.00">Connection</text>
</g>
<!-- Node10 -->
<g id="node10" class="node"><title>Node10</title>
<polygon fill="white" stroke="#bfbfbf" points="1354,-82.9629 1354,-101.963 1511,-101.963 1511,-82.9629 1354,-82.9629"/>
<text text-anchor="middle" x="1432.5" y="-89.9629" font-family="Helvetica,sans-Serif" font-size="10.00">std::unique_ptr&lt; Connection &gt;</text>
</g>
<!-- Node1&#45;&gt;Node10 -->
<g id="edge14" class="edge"><title>Node1&#45;&gt;Node10</title>
<path fill="none" stroke="#9a32cd" stroke-dasharray="5,2" d="M1295.43,-95.47C1313.14,-95.0787 1333.99,-94.6178 1353.98,-94.1759"/>
<polygon fill="#9a32cd" stroke="#9a32cd" points="1295.32,-91.9715 1285.4,-95.6917 1295.47,-98.9698 1295.32,-91.9715"/>
<text text-anchor="middle" x="1319.5" y="-98.4629" font-family="Helvetica,sans-Serif" font-size="10.00"> ptr</text>
</g>
<!-- Node2 -->
<g id="node2" class="node"><title>Node2</title>
<g id="a_node2"><a xlink:href="classResponseSink.html" target="_top" xlink:title="Abstract class for anything that can be sent a response. ">
<polygon fill="white" stroke="black" points="304.5,-162.963 304.5,-181.963 389.5,-181.963 389.5,-162.963 304.5,-162.963"/>
<text text-anchor="middle" x="347" y="-169.963" font-family="Helvetica,sans-Serif" font-size="10.00">ResponseSink</text>
</a>
</g>
</g>
<!-- Node2&#45;&gt;Node1 -->
<g id="edge1" class="edge"><title>Node2&#45;&gt;Node1</title>
<path fill="none" stroke="midnightblue" d="M373.386,-158.032C414.618,-135.989 499.317,-96.4629 576.5,-96.4629 576.5,-96.4629 576.5,-96.4629 1088,-96.4629 1131.33,-96.4629 1181.24,-96.4629 1213.75,-96.4629"/>
<polygon fill="midnightblue" stroke="midnightblue" points="371.673,-154.979 364.566,-162.837 375.022,-161.126 371.673,-154.979"/>
</g>
<!-- Node8 -->
<g id="node8" class="node"><title>Node8</title>
<g id="a_node8"><a xlink:href="classConnectionPool.html" target="_top" xlink:title="A pool of TCP connections. ">
<polygon fill="white" stroke="black" points="1813,-162.963 1813,-181.963 1905,-181.963 1905,-162.963 1813,-162.963"/>
<text text-anchor="middle" x="1859" y="-169.963" font-family="Helvetica,sans-Serif" font-size="10.00">ConnectionPool</text>
</a>
</g>
</g>
<!-- Node2&#45;&gt;Node8 -->
<g id="edge11" class="edge"><title>Node2&#45;&gt;Node8</title>
<path fill="none" stroke="midnightblue" d="M399.788,-172.463C446.101,-172.463 515.831,-172.463 576.5,-172.463 576.5,-172.463 576.5,-172.463 1655.5,-172.463 1709.64,-172.463 1771.92,-172.463 1812.96,-172.463"/>
<polygon fill="midnightblue" stroke="midnightblue" points="399.696,-168.963 389.696,-172.463 399.696,-175.963 399.696,-168.963"/>
</g>
<!-- Node11 -->
<g id="node11" class="node"><title>Node11</title>
<g id="a_node11"><a xlink:href="classPlayer.html" target="_top" xlink:title="A Player contains a loaded audio file and the state of its playback. ">
<polygon fill="white" stroke="black" points="906,-245.963 906,-264.963 953,-264.963 953,-245.963 906,-245.963"/>
<text text-anchor="middle" x="929.5" y="-252.963" font-family="Helvetica,sans-Serif" font-size="10.00">Player</text>
</a>
</g>
</g>
<!-- Node2&#45;&gt;Node11 -->
<g id="edge16" class="edge"><title>Node2&#45;&gt;Node11</title>
<path fill="none" stroke="#9a32cd" stroke-dasharray="5,2" d="M372.843,-187.162C388.689,-196.312 409.786,-208.082 429,-217.463 457.634,-231.442 469.502,-226.354 495,-245.463 505.109,-253.039 501.666,-261.882 513,-267.463 639.427,-329.716 689.16,-279.314 830,-274.463 855.824,-273.573 862.738,-275.894 888,-270.463 894.011,-269.171 900.327,-267.167 906.135,-265.041"/>
<polygon fill="#9a32cd" stroke="#9a32cd" points="374.578,-184.122 364.175,-182.116 371.056,-190.172 374.578,-184.122"/>
<text text-anchor="middle" x="694" y="-300.463" font-family="Helvetica,sans-Serif" font-size="10.00"> end_sink</text>
</g>
<!-- Node13 -->
<g id="node13" class="node"><title>Node13</title>
<g id="a_node13"><a xlink:href="classResponseSource.html" target="_top" xlink:title="Abstract helper class for sources of responses. ">
<polygon fill="white" stroke="black" points="528.5,-238.963 528.5,-257.963 626.5,-257.963 626.5,-238.963 528.5,-238.963"/>
<text text-anchor="middle" x="577.5" y="-245.963" font-family="Helvetica,sans-Serif" font-size="10.00">ResponseSource</text>
</a>
</g>
</g>
<!-- Node2&#45;&gt;Node13 -->
<g id="edge19" class="edge"><title>Node2&#45;&gt;Node13</title>
<path fill="none" stroke="#9a32cd" stroke-dasharray="5,2" d="M399.844,-181.185C428.416,-186.799 464.227,-195.175 495,-206.463 518.91,-215.233 544.769,-229.447 560.8,-238.874"/>
<polygon fill="#9a32cd" stroke="#9a32cd" points="400.147,-177.679 389.668,-179.241 398.833,-184.555 400.147,-177.679"/>
<text text-anchor="middle" x="462" y="-209.463" font-family="Helvetica,sans-Serif" font-size="10.00"> push_sink</text>
</g>
<!-- Node3 -->
<g id="node3" class="node"><title>Node3</title>
<g id="a_node3"><a xlink:title="STL class. ">
<polygon fill="white" stroke="#bfbfbf" points="135,-121.963 135,-140.963 197,-140.963 197,-121.963 135,-121.963"/>
<text text-anchor="middle" x="166" y="-128.963" font-family="Helvetica,sans-Serif" font-size="10.00">std::string</text>
</a>
</g>
</g>
<!-- Node3&#45;&gt;Node2 -->
<g id="edge2" class="edge"><title>Node3&#45;&gt;Node2</title>
<path fill="none" stroke="#9a32cd" stroke-dasharray="5,2" d="M207.158,-140.661C236.118,-147.294 275.103,-156.224 304.391,-162.932"/>
<polygon fill="#9a32cd" stroke="#9a32cd" points="207.894,-137.239 197.365,-138.418 206.331,-144.062 207.894,-137.239"/>
<text text-anchor="middle" x="240" y="-156.463" font-family="Helvetica,sans-Serif" font-size="10.00"> STRINGS</text>
</g>
<!-- Node5 -->
<g id="node5" class="node"><title>Node5</title>
<g id="a_node5"><a xlink:href="classTokeniser.html" target="_top" xlink:title="A string tokeniser. ">
<polygon fill="white" stroke="black" points="756,-27.9629 756,-46.9629 820,-46.9629 820,-27.9629 756,-27.9629"/>
<text text-anchor="middle" x="788" y="-34.9629" font-family="Helvetica,sans-Serif" font-size="10.00">Tokeniser</text>
</a>
</g>
</g>
<!-- Node3&#45;&gt;Node5 -->
<g id="edge5" class="edge"><title>Node3&#45;&gt;Node5</title>
<path fill="none" stroke="#9a32cd" stroke-dasharray="5,2" d="M191.196,-116.773C236.096,-90.4837 336.201,-36.3742 429,-17.4629 559.215,9.07333 596.799,1.66766 728,-19.4629 739.102,-21.2509 751.022,-24.6002 761.222,-27.9294"/>
<polygon fill="#9a32cd" stroke="#9a32cd" points="189.296,-113.83 182.475,-121.938 192.863,-119.853 189.296,-113.83"/>
<text text-anchor="middle" x="462" y="-20.4629" font-family="Helvetica,sans-Serif" font-size="10.00"> current_word</text>
</g>
<!-- Node7 -->
<g id="node7" class="node"><title>Node7</title>
<polygon fill="white" stroke="#bfbfbf" points="283,-89.9629 283,-108.963 411,-108.963 411,-89.9629 283,-89.9629"/>
<text text-anchor="middle" x="347" y="-96.9629" font-family="Helvetica,sans-Serif" font-size="10.00">std::vector&lt; std::string &gt;</text>
</g>
<!-- Node3&#45;&gt;Node7 -->
<g id="edge8" class="edge"><title>Node3&#45;&gt;Node7</title>
<path fill="none" stroke="#9a32cd" stroke-dasharray="5,2" d="M206.961,-122.095C209.677,-121.523 212.376,-120.973 215,-120.463 237.044,-116.175 261.299,-112.107 282.883,-108.714"/>
<polygon fill="#9a32cd" stroke="#9a32cd" points="206.175,-118.684 197.149,-124.232 207.665,-125.524 206.175,-118.684"/>
<text text-anchor="middle" x="240" y="-123.463" font-family="Helvetica,sans-Serif" font-size="10.00"> elements</text>
</g>
<!-- Node17 -->
<g id="node17" class="node"><title>Node17</title>
<g id="a_node17"><a xlink:href="classPlayerState.html" target="_top" xlink:title="An object holding and representing the current state of a Player. ">
<polygon fill="white" stroke="black" points="752.5,-207.963 752.5,-226.963 823.5,-226.963 823.5,-207.963 752.5,-207.963"/>
<text text-anchor="middle" x="788" y="-214.963" font-family="Helvetica,sans-Serif" font-size="10.00">PlayerState</text>
</a>
</g>
</g>
<!-- Node3&#45;&gt;Node17 -->
<g id="edge27" class="edge"><title>Node3&#45;&gt;Node17</title>
<path fill="none" stroke="#9a32cd" stroke-dasharray="5,2" d="M185.16,-147.761C193.749,-154.846 204.425,-162.803 215,-168.463 243.129,-183.518 252.205,-183.125 283,-191.463 346.942,-208.775 363.095,-214.762 429,-221.463 490.915,-227.758 675.019,-221.757 752.269,-218.845"/>
<polygon fill="#9a32cd" stroke="#9a32cd" points="187.224,-144.921 177.348,-141.084 182.676,-150.242 187.224,-144.921"/>
<text text-anchor="middle" x="462" y="-227.463" font-family="Helvetica,sans-Serif" font-size="10.00"> STRINGS</text>
</g>
<!-- Node4 -->
<g id="node4" class="node"><title>Node4</title>
<g id="a_node4"><a xlink:title="STL class. ">
<polygon fill="white" stroke="#bfbfbf" points="0,-116.463 0,-146.463 98,-146.463 98,-116.463 0,-116.463"/>
<text text-anchor="start" x="8" y="-134.463" font-family="Helvetica,sans-Serif" font-size="10.00">std::basic_string&lt;</text>
<text text-anchor="middle" x="49" y="-123.463" font-family="Helvetica,sans-Serif" font-size="10.00"> char &gt;</text>
</a>
</g>
</g>
<!-- Node4&#45;&gt;Node3 -->
<g id="edge3" class="edge"><title>Node4&#45;&gt;Node3</title>
<path fill="none" stroke="midnightblue" d="M108.389,-131.463C117.53,-131.463 126.642,-131.463 134.799,-131.463"/>
<polygon fill="midnightblue" stroke="midnightblue" points="108.104,-127.963 98.104,-131.463 108.104,-134.963 108.104,-127.963"/>
</g>
<!-- Node5&#45;&gt;Node1 -->
<g id="edge4" class="edge"><title>Node5&#45;&gt;Node1</title>
<path fill="none" stroke="#9a32cd" stroke-dasharray="5,2" d="M830.396,-39.974C904.307,-44.9152 1063.64,-57.6433 1196,-82.4629 1202.49,-83.6799 1209.36,-85.2781 1215.91,-86.958"/>
<polygon fill="#9a32cd" stroke="#9a32cd" points="830.332,-36.4624 820.125,-39.301 829.874,-43.4474 830.332,-36.4624"/>
<text text-anchor="middle" x="994.5" y="-60.4629" font-family="Helvetica,sans-Serif" font-size="10.00"> tokeniser</text>
</g>
<!-- Node6 -->
<g id="node6" class="node"><title>Node6</title>
<polygon fill="white" stroke="#bfbfbf" points="526,-48.9629 526,-67.9629 629,-67.9629 629,-48.9629 526,-48.9629"/>
<text text-anchor="middle" x="577.5" y="-55.9629" font-family="Helvetica,sans-Serif" font-size="10.00">std::vector&lt; Line &gt;</text>
</g>
<!-- Node6&#45;&gt;Node5 -->
<g id="edge6" class="edge"><title>Node6&#45;&gt;Node5</title>
<path fill="none" stroke="#9a32cd" stroke-dasharray="5,2" d="M639.234,-52.3458C677.438,-48.498 725.144,-43.693 755.838,-40.6015"/>
<polygon fill="#9a32cd" stroke="#9a32cd" points="638.837,-48.868 629.238,-53.3526 639.539,-55.8327 638.837,-48.868"/>
<text text-anchor="middle" x="694" y="-53.4629" font-family="Helvetica,sans-Serif" font-size="10.00"> ready_lines</text>
</g>
<!-- Node7&#45;&gt;Node5 -->
<g id="edge9" class="edge"><title>Node7&#45;&gt;Node5</title>
<path fill="none" stroke="#9a32cd" stroke-dasharray="5,2" d="M372.463,-84.5623C403.71,-66.5842 460.091,-37.6275 513,-28.4629 599.994,-13.3944 704.78,-24.889 755.898,-32.3628"/>
<polygon fill="#9a32cd" stroke="#9a32cd" points="370.462,-81.6785 363.605,-89.7552 374.002,-87.7174 370.462,-81.6785"/>
<text text-anchor="middle" x="577.5" y="-31.4629" font-family="Helvetica,sans-Serif" font-size="10.00"> words</text>
</g>
<!-- Node7&#45;&gt;Node6 -->
<g id="edge7" class="edge"><title>Node7&#45;&gt;Node6</title>
<path fill="none" stroke="#9a32cd" stroke-dasharray="5,2" d="M380.536,-86.1728C395.123,-80.75 412.685,-74.9466 429,-71.4629 460.802,-64.6724 497.191,-61.4185 525.868,-59.8642"/>
<polygon fill="#9a32cd" stroke="#9a32cd" points="379.055,-82.992 370.965,-89.8331 381.555,-89.5302 379.055,-82.992"/>
<text text-anchor="middle" x="462" y="-74.4629" font-family="Helvetica,sans-Serif" font-size="10.00"> elements</text>
</g>
<!-- Node7&#45;&gt;Node11 -->
<g id="edge24" class="edge"><title>Node7&#45;&gt;Node11</title>
<path fill="none" stroke="#9a32cd" stroke-dasharray="5,2" d="M421.353,-101.527C498.999,-105.363 624.397,-116.305 728,-147.463 803.947,-170.304 819.979,-185.687 888,-226.463 897.791,-232.332 908.253,-239.859 916.09,-245.773"/>
<polygon fill="#9a32cd" stroke="#9a32cd" points="421.342,-98.0225 411.19,-101.052 421.015,-105.015 421.342,-98.0225"/>
<text text-anchor="middle" x="694" y="-150.463" font-family="Helvetica,sans-Serif" font-size="10.00"> FEATURES</text>
</g>
<!-- Node8&#45;&gt;Node1 -->
<g id="edge10" class="edge"><title>Node8&#45;&gt;Node1</title>
<path fill="none" stroke="#9a32cd" stroke-dasharray="5,2" d="M1808.55,-160.88C1803.98,-159.99 1799.41,-159.166 1795,-158.463 1578.03,-123.902 1519.2,-149.565 1303,-110.463 1296.5,-109.288 1289.63,-107.708 1283.08,-106.034"/>
<polygon fill="#9a32cd" stroke="#9a32cd" points="1807.99,-164.337 1818.48,-162.913 1809.39,-157.479 1807.99,-164.337"/>
<text text-anchor="middle" x="1552" y="-140.463" font-family="Helvetica,sans-Serif" font-size="10.00"> parent</text>
</g>
<!-- Node9 -->
<g id="node9" class="node"><title>Node9</title>
<polygon fill="white" stroke="#bfbfbf" points="1593,-75.4629 1593,-105.463 1716,-105.463 1716,-75.4629 1593,-75.4629"/>
<text text-anchor="start" x="1601" y="-93.4629" font-family="Helvetica,sans-Serif" font-size="10.00">std::vector&lt; std::unique</text>
<text text-anchor="middle" x="1654.5" y="-82.4629" font-family="Helvetica,sans-Serif" font-size="10.00">_ptr&lt; Connection &gt; &gt;</text>
</g>
<!-- Node9&#45;&gt;Node8 -->
<g id="edge12" class="edge"><title>Node9&#45;&gt;Node8</title>
<path fill="none" stroke="#9a32cd" stroke-dasharray="5,2" d="M1726.04,-91.2141C1748.97,-93.7315 1773.92,-99.01 1795,-109.463 1820.22,-121.97 1841.42,-148.536 1851.57,-162.849"/>
<polygon fill="#9a32cd" stroke="#9a32cd" points="1726.3,-87.7228 1716.02,-90.2701 1725.64,-94.692 1726.3,-87.7228"/>
<text text-anchor="middle" x="1764.5" y="-112.463" font-family="Helvetica,sans-Serif" font-size="10.00"> connections</text>
</g>
<!-- Node10&#45;&gt;Node9 -->
<g id="edge13" class="edge"><title>Node10&#45;&gt;Node9</title>
<path fill="none" stroke="#9a32cd" stroke-dasharray="5,2" d="M1521.25,-91.6652C1545.26,-91.4469 1570.74,-91.2152 1592.87,-91.0141"/>
<polygon fill="#9a32cd" stroke="#9a32cd" points="1521.03,-88.1669 1511.06,-91.7578 1521.1,-95.1666 1521.03,-88.1669"/>
<text text-anchor="middle" x="1552" y="-95.4629" font-family="Helvetica,sans-Serif" font-size="10.00"> elements</text>
</g>
<!-- Node11&#45;&gt;Node8 -->
<g id="edge15" class="edge"><title>Node11&#45;&gt;Node8</title>
<path fill="none" stroke="#9a32cd" stroke-dasharray="5,2" d="M963.039,-260.439C994.439,-264.805 1043.36,-270.463 1086,-270.463 1086,-270.463 1086,-270.463 1655.5,-270.463 1720.65,-270.463 1738.01,-257.022 1795,-225.463 1816.51,-213.553 1837.55,-193.722 1849.05,-181.99"/>
<polygon fill="#9a32cd" stroke="#9a32cd" points="963.491,-256.968 953.096,-259.018 962.5,-263.897 963.491,-256.968"/>
<text text-anchor="middle" x="1319.5" y="-273.463" font-family="Helvetica,sans-Serif" font-size="10.00"> player</text>
</g>
<!-- Node19 -->
<g id="node19" class="node"><title>Node19</title>
<g id="a_node19"><a xlink:href="classCommandHandler.html" target="_top" xlink:title="The playd command handler. ">
<polygon fill="white" stroke="black" points="1036,-221.963 1036,-240.963 1138,-240.963 1138,-221.963 1036,-221.963"/>
<text text-anchor="middle" x="1087" y="-228.963" font-family="Helvetica,sans-Serif" font-size="10.00">CommandHandler</text>
</a>
</g>
</g>
<!-- Node11&#45;&gt;Node19 -->
<g id="edge31" class="edge"><title>Node11&#45;&gt;Node19</title>
<path fill="none" stroke="#9a32cd" stroke-dasharray="5,2" d="M962.886,-247.099C965.622,-246.505 968.353,-245.949 971,-245.463 992.167,-241.576 1015.73,-238.493 1035.99,-236.22"/>
<polygon fill="#9a32cd" stroke="#9a32cd" points="962.051,-243.7 953.101,-249.37 963.633,-250.519 962.051,-243.7"/>
<text text-anchor="middle" x="994.5" y="-248.463" font-family="Helvetica,sans-Serif" font-size="10.00"> player</text>
</g>
<!-- Node12 -->
<g id="node12" class="node"><title>Node12</title>
<g id="a_node12"><a xlink:href="classPlayerFile.html" target="_top" xlink:title="The subcomponent of a Player that stores the audio file. ">
<polygon fill="white" stroke="black" points="756.5,-334.963 756.5,-353.963 819.5,-353.963 819.5,-334.963 756.5,-334.963"/>
<text text-anchor="middle" x="788" y="-341.963" font-family="Helvetica,sans-Serif" font-size="10.00">PlayerFile</text>
</a>
</g>
</g>
<!-- Node12&#45;&gt;Node11 -->
<g id="edge17" class="edge"><title>Node12&#45;&gt;Node11</title>
<path fill="none" stroke="#9a32cd" stroke-dasharray="5,2" d="M829.608,-341.185C848.77,-337.987 871.086,-331.717 888,-319.463 907.167,-305.577 919.403,-279.577 924.979,-265.364"/>
<polygon fill="#9a32cd" stroke="#9a32cd" points="829.027,-337.733 819.631,-342.629 830.029,-344.661 829.027,-337.733"/>
<text text-anchor="middle" x="868" y="-340.463" font-family="Helvetica,sans-Serif" font-size="10.00"> file</text>
</g>
<!-- Node13&#45;&gt;Node12 -->
<g id="edge18" class="edge"><title>Node13&#45;&gt;Node12</title>
<path fill="none" stroke="midnightblue" d="M636.582,-256.464C665.408,-262.169 699.965,-271.72 728,-287.463 749.856,-299.736 769.547,-322.075 779.719,-334.838"/>
<polygon fill="midnightblue" stroke="midnightblue" points="637.118,-253.003 626.645,-254.602 635.829,-259.884 637.118,-253.003"/>
</g>
<!-- Node13&#45;&gt;Node17 -->
<g id="edge26" class="edge"><title>Node13&#45;&gt;Node17</title>
<path fill="none" stroke="midnightblue" d="M636.819,-239.792C674.058,-234.255 721.07,-227.265 752.483,-222.595"/>
<polygon fill="midnightblue" stroke="midnightblue" points="635.972,-236.379 626.596,-241.312 637.002,-243.303 635.972,-236.379"/>
</g>
<!-- Node18 -->
<g id="node18" class="node"><title>Node18</title>
<g id="a_node18"><a xlink:href="classPlayerPosition.html" target="_top" xlink:title="Tracker and broadcaster for the Player&#39;s current position in a song. ">
<polygon fill="white" stroke="black" points="746,-245.963 746,-264.963 830,-264.963 830,-245.963 746,-245.963"/>
<text text-anchor="middle" x="788" y="-252.963" font-family="Helvetica,sans-Serif" font-size="10.00">PlayerPosition</text>
</a>
</g>
</g>
<!-- Node13&#45;&gt;Node18 -->
<g id="edge29" class="edge"><title>Node13&#45;&gt;Node18</title>
<path fill="none" stroke="midnightblue" d="M636.61,-250.414C671.339,-251.58 714.625,-253.033 745.829,-254.081"/>
<polygon fill="midnightblue" stroke="midnightblue" points="636.708,-246.915 626.596,-250.078 636.473,-253.911 636.708,-246.915"/>
</g>
<!-- Node14 -->
<g id="node14" class="node"><title>Node14</title>
<g id="a_node14"><a xlink:href="classAudio.html" target="_top" xlink:title="An audio item. ">
<polygon fill="white" stroke="black" points="325.5,-379.963 325.5,-398.963 368.5,-398.963 368.5,-379.963 325.5,-379.963"/>
<text text-anchor="middle" x="347" y="-386.963" font-family="Helvetica,sans-Serif" font-size="10.00">Audio</text>
</a>
</g>
</g>
<!-- Node14&#45;&gt;Node12 -->
<g id="edge20" class="edge"><title>Node14&#45;&gt;Node12</title>
<path fill="none" stroke="midnightblue" d="M379.072,-388.246C444.125,-385.391 599.293,-376.973 728,-357.463 737.23,-356.064 747.173,-354.066 756.218,-352.056"/>
<polygon fill="midnightblue" stroke="midnightblue" points="378.551,-384.765 368.709,-388.687 378.848,-391.758 378.551,-384.765"/>
</g>
<!-- Node15 -->
<g id="node15" class="node"><title>Node15</title>
<polygon fill="white" stroke="#bfbfbf" points="513,-400.963 513,-419.963 642,-419.963 642,-400.963 513,-400.963"/>
<text text-anchor="middle" x="577.5" y="-407.963" font-family="Helvetica,sans-Serif" font-size="10.00">std::unique_ptr&lt; Audio &gt;</text>
</g>
<!-- Node14&#45;&gt;Node15 -->
<g id="edge22" class="edge"><title>Node14&#45;&gt;Node15</title>
<path fill="none" stroke="#9a32cd" stroke-dasharray="5,2" d="M378.961,-392.308C413.11,-395.447 468.997,-400.583 512.628,-404.593"/>
<polygon fill="#9a32cd" stroke="#9a32cd" points="378.959,-388.794 368.681,-391.364 378.319,-395.764 378.959,-388.794"/>
<text text-anchor="middle" x="462" y="-405.463" font-family="Helvetica,sans-Serif" font-size="10.00"> ptr</text>
</g>
<!-- Node15&#45;&gt;Node12 -->
<g id="edge21" class="edge"><title>Node15&#45;&gt;Node12</title>
<path fill="none" stroke="#9a32cd" stroke-dasharray="5,2" d="M652.087,-404.708C676.854,-401.072 704.221,-395.14 728,-385.463 746.485,-377.94 764.911,-363.805 776.131,-354.262"/>
<polygon fill="#9a32cd" stroke="#9a32cd" points="651.449,-401.263 642.015,-406.084 652.396,-408.199 651.449,-401.263"/>
<text text-anchor="middle" x="694" y="-406.463" font-family="Helvetica,sans-Serif" font-size="10.00"> audio</text>
</g>
<!-- Node16 -->
<g id="node16" class="node"><title>Node16</title>
<g id="a_node16"><a xlink:href="classAudioSystem.html" target="_top" xlink:title="An AudioSystem represents the entire audio stack used by playd. ">
<polygon fill="white" stroke="black" points="539,-324.963 539,-343.963 616,-343.963 616,-324.963 539,-324.963"/>
<text text-anchor="middle" x="577.5" y="-331.963" font-family="Helvetica,sans-Serif" font-size="10.00">AudioSystem</text>
</a>
</g>
</g>
<!-- Node16&#45;&gt;Node12 -->
<g id="edge23" class="edge"><title>Node16&#45;&gt;Node12</title>
<path fill="none" stroke="#9a32cd" stroke-dasharray="5,2" d="M626.309,-336.756C666.27,-338.673 722.071,-341.349 756.303,-342.991"/>
<polygon fill="#9a32cd" stroke="#9a32cd" points="626.414,-333.257 616.258,-336.274 626.079,-340.249 626.414,-333.257"/>
<text text-anchor="middle" x="694" y="-345.463" font-family="Helvetica,sans-Serif" font-size="10.00"> audio_system</text>
</g>
<!-- Node17&#45;&gt;Node11 -->
<g id="edge25" class="edge"><title>Node17&#45;&gt;Node11</title>
<path fill="none" stroke="#9a32cd" stroke-dasharray="5,2" d="M833.426,-226.528C850.603,-230.359 870.34,-235.164 888,-240.463 893.889,-242.23 900.161,-244.404 905.966,-246.543"/>
<polygon fill="#9a32cd" stroke="#9a32cd" points="834.161,-223.106 823.644,-224.388 832.665,-229.944 834.161,-223.106"/>
<text text-anchor="middle" x="868" y="-243.463" font-family="Helvetica,sans-Serif" font-size="10.00"> state</text>
</g>
<!-- Node18&#45;&gt;Node11 -->
<g id="edge28" class="edge"><title>Node18&#45;&gt;Node11</title>
<path fill="none" stroke="#9a32cd" stroke-dasharray="5,2" d="M840.234,-255.463C862.798,-255.463 888.149,-255.463 905.874,-255.463"/>
<polygon fill="#9a32cd" stroke="#9a32cd" points="840.1,-251.963 830.1,-255.463 840.1,-258.963 840.1,-251.963"/>
<text text-anchor="middle" x="868" y="-258.463" font-family="Helvetica,sans-Serif" font-size="10.00"> position</text>
</g>
<!-- Node19&#45;&gt;Node1 -->
<g id="edge32" class="edge"><title>Node19&#45;&gt;Node1</title>
<path fill="none" stroke="#9a32cd" stroke-dasharray="5,2" d="M1107.33,-215.204C1141.11,-186.792 1209.87,-128.957 1237.06,-106.084"/>
<polygon fill="#9a32cd" stroke="#9a32cd" points="1104.94,-212.639 1099.54,-221.754 1109.45,-217.996 1104.94,-212.639"/>
<text text-anchor="middle" x="1176" y="-175.463" font-family="Helvetica,sans-Serif" font-size="10.00"> handler</text>
</g>
<!-- Node19&#45;&gt;Node8 -->
<g id="edge30" class="edge"><title>Node19&#45;&gt;Node8</title>
<path fill="none" stroke="#9a32cd" stroke-dasharray="5,2" d="M1148.57,-231.463C1178.62,-231.463 1215.47,-231.463 1248.5,-231.463 1248.5,-231.463 1248.5,-231.463 1655.5,-231.463 1725.26,-231.463 1803.33,-198.792 1838.71,-182.074"/>
<polygon fill="#9a32cd" stroke="#9a32cd" points="1148.24,-227.963 1138.24,-231.463 1148.24,-234.963 1148.24,-227.963"/>
<text text-anchor="middle" x="1432.5" y="-234.463" font-family="Helvetica,sans-Serif" font-size="10.00"> handler</text>
</g>
</g>
</svg>
