<?xml version="1.0" encoding="UTF-8" standalone="no"?>
<!DOCTYPE svg PUBLIC "-//W3C//DTD SVG 1.1//EN"
 "http://www.w3.org/Graphics/SVG/1.1/DTD/svg11.dtd">
<!-- Generated by graphviz version 2.38.0 (20140413.2041)
 -->
<!-- Title: Error Pages: 1 -->
<svg width="404pt" height="84pt"
 viewBox="0.00 0.00 404.00 84.00" xmlns="http://www.w3.org/2000/svg" xmlns:xlink="http://www.w3.org/1999/xlink">
<g id="graph0" class="graph" transform="scale(1 1) rotate(0) translate(4 80)">
<title>Error</title>
<polygon fill="white" stroke="none" points="-4,4 -4,-80 400,-80 400,4 -4,4"/>
<!-- Node1 -->
<g id="node1" class="node"><title>Node1</title>
<polygon fill="#bfbfbf" stroke="black" points="180,-56.5 180,-75.5 220,-75.5 220,-56.5 180,-56.5"/>
<text text-anchor="middle" x="200" y="-63.5" font-family="Helvetica,sans-Serif" font-size="10.00">Error</text>
</g>
<!-- Node2 -->
<g id="node2" class="node"><title>Node2</title>
<g id="a_node2"><a xlink:href="classConfigError.html" target="_top" xlink:title="An Error signifying that playd has been improperly configured. ">
<polygon fill="white" stroke="black" points="0,-0.5 0,-19.5 70,-19.5 70,-0.5 0,-0.5"/>
<text text-anchor="middle" x="35" y="-7.5" font-family="Helvetica,sans-Serif" font-size="10.00">ConfigError</text>
</a>
</g>
</g>
<!-- Node1&#45;&gt;Node2 -->
<g id="edge1" class="edge"><title>Node1&#45;&gt;Node2</title>
<path fill="none" stroke="midnightblue" d="M169.916,-55.1542C138.793,-44.9686 90.6832,-29.2236 61.1106,-19.5453"/>
<polygon fill="midnightblue" stroke="midnightblue" points="169.175,-58.5945 179.768,-58.3785 171.352,-51.9417 169.175,-58.5945"/>
</g>
<!-- Node3 -->
<g id="node3" class="node"><title>Node3</title>
<g id="a_node3"><a xlink:href="classFileError.html" target="_top" xlink:title="An Error signifying that playd can&#39;t read a file. ">
<polygon fill="white" stroke="black" points="88.5,-0.5 88.5,-19.5 143.5,-19.5 143.5,-0.5 88.5,-0.5"/>
<text text-anchor="middle" x="116" y="-7.5" font-family="Helvetica,sans-Serif" font-size="10.00">FileError</text>
</a>
</g>
</g>
<!-- Node1&#45;&gt;Node3 -->
<g id="edge2" class="edge"><title>Node1&#45;&gt;Node3</title>
<path fill="none" stroke="midnightblue" d="M178.068,-50.9005C162.665,-40.9986 142.554,-28.0705 129.463,-19.6545"/>
<polygon fill="midnightblue" stroke="midnightblue" points="176.199,-53.8605 186.504,-56.324 179.985,-47.9722 176.199,-53.8605"/>
</g>
<!-- Node4 -->
<g id="node4" class="node"><title>Node4</title>
<g id="a_node4"><a xlink:href="classInternalError.html" target="_top" xlink:title="An Error signifying that playd has hit an internal snag. ">
<polygon fill="white" stroke="black" points="162,-0.5 162,-19.5 238,-19.5 238,-0.5 162,-0.5"/>
<text text-anchor="middle" x="200" y="-7.5" font-family="Helvetica,sans-Serif" font-size="10.00">InternalError</text>
</a>
</g>
</g>
<!-- Node1&#45;&gt;Node4 -->
<g id="edge3" class="edge"><title>Node1&#45;&gt;Node4</title>
<path fill="none" stroke="midnightblue" d="M200,-45.8045C200,-36.9102 200,-26.7798 200,-19.7511"/>
<polygon fill="midnightblue" stroke="midnightblue" points="196.5,-46.083 200,-56.083 203.5,-46.083 196.5,-46.083"/>
</g>
<!-- Node5 -->
<g id="node5" class="node"><title>Node5</title>
<g id="a_node5"><a xlink:href="classNetError.html" target="_top" xlink:title="A network error. ">
<polygon fill="white" stroke="black" points="256.5,-0.5 256.5,-19.5 313.5,-19.5 313.5,-0.5 256.5,-0.5"/>
<text text-anchor="middle" x="285" y="-7.5" font-family="Helvetica,sans-Serif" font-size="10.00">NetError</text>
</a>
</g>
</g>
<!-- Node1&#45;&gt;Node5 -->
<g id="edge4" class="edge"><title>Node1&#45;&gt;Node5</title>
<path fill="none" stroke="midnightblue" d="M222.194,-50.9005C237.78,-40.9986 258.13,-28.0705 271.377,-19.6545"/>
<polygon fill="midnightblue" stroke="midnightblue" points="220.221,-48.0073 213.657,-56.324 223.974,-53.9158 220.221,-48.0073"/>
</g>
<!-- Node6 -->
<g id="node6" class="node"><title>Node6</title>
<g id="a_node6"><a xlink:href="classSeekError.html" target="_top" xlink:title="An Error signifying that playd can&#39;t seek in a file. ">
<polygon fill="white" stroke="black" points="332,-0.5 332,-19.5 396,-19.5 396,-0.5 332,-0.5"/>
<text text-anchor="middle" x="364" y="-7.5" font-family="Helvetica,sans-Serif" font-size="10.00">SeekError</text>
</a>
</g>
</g>
<!-- Node1&#45;&gt;Node6 -->
<g id="edge5" class="edge"><title>Node1&#45;&gt;Node6</title>
<path fill="none" stroke="midnightblue" d="M229.902,-55.1542C260.836,-44.9686 308.654,-29.2236 338.048,-19.5453"/>
<polygon fill="midnightblue" stroke="midnightblue" points="228.513,-51.9265 220.11,-58.3785 230.703,-58.5754 228.513,-51.9265"/>
</g>
</g>
</svg>
