<?xml version="1.0" encoding="UTF-8" standalone="no"?>
<!DOCTYPE svg PUBLIC "-//W3C//DTD SVG 1.1//EN"
 "http://www.w3.org/Graphics/SVG/1.1/DTD/svg11.dtd">
<!-- Generated by graphviz version 2.38.0 (20140413.2041)
 -->
<!-- Title: PlayerState Pages: 1 -->
<svg width="167pt" height="287pt"
 viewBox="0.00 0.00 167.00 287.00" xmlns="http://www.w3.org/2000/svg" xmlns:xlink="http://www.w3.org/1999/xlink">
<g id="graph0" class="graph" transform="scale(1 1) rotate(0) translate(4 283)">
<title>PlayerState</title>
<polygon fill="white" stroke="none" points="-4,4 -4,-283 163,-283 163,4 -4,4"/>
<!-- Node1 -->
<g id="node1" class="node"><title>Node1</title>
<polygon fill="#bfbfbf" stroke="black" points="22.5,-0.5 22.5,-19.5 93.5,-19.5 93.5,-0.5 22.5,-0.5"/>
<text text-anchor="middle" x="58" y="-7.5" font-family="Helvetica,sans-Serif" font-size="10.00">PlayerState</text>
</g>
<!-- Node2 -->
<g id="node2" class="node"><title>Node2</title>
<g id="a_node2"><a xlink:href="classResponseSource.html" target="_top" xlink:title="Abstract helper class for sources of responses. ">
<polygon fill="white" stroke="black" points="61,-57.5 61,-76.5 159,-76.5 159,-57.5 61,-57.5"/>
<text text-anchor="middle" x="110" y="-64.5" font-family="Helvetica,sans-Serif" font-size="10.00">ResponseSource</text>
</a>
</g>
</g>
<!-- Node2&#45;&gt;Node1 -->
<g id="edge1" class="edge"><title>Node2&#45;&gt;Node1</title>
<path fill="none" stroke="midnightblue" d="M94.9889,-50.1229C85.6298,-40.2238 73.9426,-27.8624 66.2396,-19.7149"/>
<polygon fill="midnightblue" stroke="midnightblue" points="92.4616,-52.5443 101.875,-57.4062 97.5481,-47.7352 92.4616,-52.5443"/>
</g>
<!-- Node3 -->
<g id="node3" class="node"><title>Node3</title>
<g id="a_node3"><a xlink:href="classResponseSink.html" target="_top" xlink:title="Abstract class for anything that can be sent a response. ">
<polygon fill="white" stroke="black" points="62.5,-124.5 62.5,-143.5 147.5,-143.5 147.5,-124.5 62.5,-124.5"/>
<text text-anchor="middle" x="105" y="-131.5" font-family="Helvetica,sans-Serif" font-size="10.00">ResponseSink</text>
</a>
</g>
</g>
<!-- Node3&#45;&gt;Node2 -->
<g id="edge2" class="edge"><title>Node3&#45;&gt;Node2</title>
<path fill="none" stroke="#9a32cd" stroke-dasharray="5,2" d="M106.459,-114.037C107.41,-101.67 108.606,-86.1198 109.336,-76.6273"/>
<polygon fill="#9a32cd" stroke="#9a32cd" points="102.952,-113.995 105.674,-124.234 109.931,-114.532 102.952,-113.995"/>
<text text-anchor="middle" x="133.5" y="-98" font-family="Helvetica,sans-Serif" font-size="10.00"> push_sink</text>
</g>
<!-- Node4 -->
<g id="node4" class="node"><title>Node4</title>
<g id="a_node4"><a xlink:title="STL class. ">
<polygon fill="white" stroke="#bfbfbf" points="18,-191.5 18,-210.5 80,-210.5 80,-191.5 18,-191.5"/>
<text text-anchor="middle" x="49" y="-198.5" font-family="Helvetica,sans-Serif" font-size="10.00">std::string</text>
</a>
</g>
</g>
<!-- Node4&#45;&gt;Node1 -->
<g id="edge5" class="edge"><title>Node4&#45;&gt;Node1</title>
<path fill="none" stroke="#9a32cd" stroke-dasharray="5,2" d="M48.7443,-181.173C48.5202,-153.796 48.6474,-101.416 52,-57 52.982,-43.9899 55.1239,-29.0249 56.5644,-19.7891"/>
<polygon fill="#9a32cd" stroke="#9a32cd" points="45.2456,-181.317 48.8536,-191.279 52.2452,-181.242 45.2456,-181.317"/>
<text text-anchor="middle" x="75" y="-98" font-family="Helvetica,sans-Serif" font-size="10.00"> STRINGS</text>
</g>
<!-- Node4&#45;&gt;Node3 -->
<g id="edge3" class="edge"><title>Node4&#45;&gt;Node3</title>
<path fill="none" stroke="#9a32cd" stroke-dasharray="5,2" d="M63.0992,-183.635C74.0512,-170.923 88.805,-153.798 97.5672,-143.627"/>
<polygon fill="#9a32cd" stroke="#9a32cd" points="60.4279,-181.373 56.5524,-191.234 65.7312,-185.942 60.4279,-181.373"/>
<text text-anchor="middle" x="106" y="-165" font-family="Helvetica,sans-Serif" font-size="10.00"> STRINGS</text>
</g>
<!-- Node5 -->
<g id="node5" class="node"><title>Node5</title>
<g id="a_node5"><a xlink:title="STL class. ">
<polygon fill="white" stroke="#bfbfbf" points="0,-248.5 0,-278.5 98,-278.5 98,-248.5 0,-248.5"/>
<text text-anchor="start" x="8" y="-266.5" font-family="Helvetica,sans-Serif" font-size="10.00">std::basic_string&lt;</text>
<text text-anchor="middle" x="49" y="-255.5" font-family="Helvetica,sans-Serif" font-size="10.00"> char &gt;</text>
</a>
</g>
</g>
<!-- Node5&#45;&gt;Node4 -->
<g id="edge4" class="edge"><title>Node5&#45;&gt;Node4</title>
<path fill="none" stroke="midnightblue" d="M49,-238.352C49,-228.513 49,-217.775 49,-210.54"/>
<polygon fill="midnightblue" stroke="midnightblue" points="45.5001,-238.468 49,-248.468 52.5001,-238.468 45.5001,-238.468"/>
</g>
</g>
</svg>
