<?xml version="1.0" encoding="UTF-8" standalone="no"?>
<!DOCTYPE svg PUBLIC "-//W3C//DTD SVG 1.1//EN"
 "http://www.w3.org/Graphics/SVG/1.1/DTD/svg11.dtd">
<!-- Generated by graphviz version 2.38.0 (20140413.2041)
 -->
<!-- Title: AudioSink Pages: 1 -->
<svg width="396pt" height="106pt"
 viewBox="0.00 0.00 395.50 106.00" xmlns="http://www.w3.org/2000/svg" xmlns:xlink="http://www.w3.org/1999/xlink">
<g id="graph0" class="graph" transform="scale(1 1) rotate(0) translate(4 102)">
<title>AudioSink</title>
<polygon fill="white" stroke="none" points="-4,4 -4,-102 391.5,-102 391.5,4 -4,4"/>
<!-- Node1 -->
<g id="node1" class="node"><title>Node1</title>
<polygon fill="#bfbfbf" stroke="black" points="167,-0.5 167,-19.5 230,-19.5 230,-0.5 167,-0.5"/>
<text text-anchor="middle" x="198.5" y="-7.5" font-family="Helvetica,sans-Serif" font-size="10.00">AudioSink</text>
</g>
<!-- Node2 -->
<g id="node2" class="node"><title>Node2</title>
<polygon fill="white" stroke="#bfbfbf" points="0,-73 0,-92 147,-92 147,-73 0,-73"/>
<text text-anchor="middle" x="73.5" y="-80" font-family="Helvetica,sans-Serif" font-size="10.00">portaudio::CallbackInterface</text>
</g>
<!-- Node2&#45;&gt;Node1 -->
<g id="edge1" class="edge"><title>Node2&#45;&gt;Node1</title>
<path fill="none" stroke="#8b1a1a" d="M97.7698,-67.8119C122.993,-53.5859 161.706,-31.7519 183.047,-19.7154"/>
<polygon fill="#8b1a1a" stroke="#8b1a1a" points="95.8182,-64.8942 88.8275,-72.8553 99.257,-70.9913 95.8182,-64.8942"/>
</g>
<!-- Node3 -->
<g id="node3" class="node"><title>Node3</title>
<g id="a_node3"><a xlink:href="classRingBuffer.html" target="_top" xlink:title="A ring buffer. ">
<polygon fill="white" stroke="black" points="165.5,-73 165.5,-92 231.5,-92 231.5,-73 165.5,-73"/>
<text text-anchor="middle" x="198.5" y="-80" font-family="Helvetica,sans-Serif" font-size="10.00">RingBuffer</text>
</a>
</g>
</g>
<!-- Node3&#45;&gt;Node1 -->
<g id="edge2" class="edge"><title>Node3&#45;&gt;Node1</title>
<path fill="none" stroke="#9a32cd" stroke-dasharray="5,2" d="M198.5,-62.442C198.5,-48.5305 198.5,-30.3203 198.5,-19.7154"/>
<polygon fill="#9a32cd" stroke="#9a32cd" points="195,-62.8553 198.5,-72.8553 202,-62.8553 195,-62.8553"/>
<text text-anchor="middle" x="219" y="-41" font-family="Helvetica,sans-Serif" font-size="10.00"> ring_buf</text>
</g>
<!-- Node4 -->
<g id="node4" class="node"><title>Node4</title>
<polygon fill="white" stroke="#bfbfbf" points="249.5,-67.5 249.5,-97.5 387.5,-97.5 387.5,-67.5 249.5,-67.5"/>
<text text-anchor="start" x="257.5" y="-85.5" font-family="Helvetica,sans-Serif" font-size="10.00">std::unique_ptr&lt; portaudio</text>
<text text-anchor="middle" x="318.5" y="-74.5" font-family="Helvetica,sans-Serif" font-size="10.00">::Stream &gt;</text>
</g>
<!-- Node4&#45;&gt;Node1 -->
<g id="edge3" class="edge"><title>Node4&#45;&gt;Node1</title>
<path fill="none" stroke="#9a32cd" stroke-dasharray="5,2" d="M285.789,-62.2822C262.009,-48.3113 230.961,-30.0709 213.025,-19.5336"/>
<polygon fill="#9a32cd" stroke="#9a32cd" points="284.11,-65.3549 294.505,-67.4027 287.655,-59.3194 284.11,-65.3549"/>
<text text-anchor="middle" x="280.5" y="-41" font-family="Helvetica,sans-Serif" font-size="10.00"> stream</text>
</g>
</g>
</svg>
