<?xml version="1.0" encoding="UTF-8" standalone="no"?>
<!DOCTYPE svg PUBLIC "-//W3C//DTD SVG 1.1//EN"
 "http://www.w3.org/Graphics/SVG/1.1/DTD/svg11.dtd">
<!-- Generated by graphviz version 2.38.0 (20140413.2041)
 -->
<!-- Title: Tokeniser Pages: 1 -->
<!--zoomable 380 -->
<svg id="main" version="1.1" xmlns="http://www.w3.org/2000/svg" xmlns:xlink="http://www.w3.org/1999/xlink" xml:space="preserve" onload="init(evt)">
<style type="text/css"><![CDATA[
.edge:hover path { stroke: red; }
.edge:hover polygon { stroke: red; fill: red; }
]]></style>
<script type="text/javascript"><![CDATA[
var edges = document.getElementsByTagName('g');
if (edges && edges.length) {
  for (var i=0;i<edges.length;i++) {
    if (edges[i].id.substr(0,4)=='edge') {
      edges[i].setAttribute('class','edge');
    }
  }
}
]]></script>
        <defs>
                <circle id="rim" cx="0" cy="0" r="7"/>
                <circle id="rim2" cx="0" cy="0" r="3.5"/>
                <g id="zoomPlus">
                        <use xlink:href="#rim" fill="#404040">
                                <set attributeName="fill" to="#808080" begin="zoomplus.mouseover" end="zoomplus.mouseout"/>
                        </use>
                        <path d="M-4,0h8M0,-4v8" fill="none" stroke="white" stroke-width="1.5" pointer-events="none"/>
                </g>
                <g id="zoomMin">
                        <use xlink:href="#rim" fill="#404040">
                                <set attributeName="fill" to="#808080" begin="zoomminus.mouseover" end="zoomminus.mouseout"/>
                        </use>
                        <path d="M-4,0h8" fill="none" stroke="white" stroke-width="1.5" pointer-events="none"/>
                </g>
                <g id="dirArrow">
                        <path fill="none" stroke="white" stroke-width="1.5" d="M0,-3.0v7 M-2.5,-0.5L0,-3.0L2.5,-0.5"/>
                </g>
               <g id="resetDef">
                       <use xlink:href="#rim2" fill="#404040">
                               <set attributeName="fill" to="#808080" begin="reset.mouseover" end="reset.mouseout"/>
                       </use>
               </g>
        </defs>

<script type="text/javascript">
var viewWidth = 1710;
var viewHeight = 380;
var sectionId = 'dynsection-0';
</script>
<script xlink:href="svgpan.js"/>
<svg id="graph" class="graph">
<g id="viewport">
<title>Tokeniser</title>
<polygon fill="white" stroke="none" points="-4,4 -4,-375.744 1706,-375.744 1706,4 -4,4"/>
<!-- Node1 -->
<g id="node1" class="node"><title>Node1</title>
<polygon fill="#bfbfbf" stroke="black" points="1638,-64.7442 1638,-83.7442 1702,-83.7442 1702,-64.7442 1638,-64.7442"/>
<text text-anchor="middle" x="1670" y="-71.7442" font-family="Helvetica,sans-Serif" font-size="10.00">Tokeniser</text>
</g>
<!-- Node2 -->
<g id="node2" class="node"><title>Node2</title>
<g id="a_node2"><a xlink:href="classResponseSink.html" target="_top" xlink:title="Abstract class for anything that can be sent a response. ">
<polygon fill="white" stroke="black" points="603.5,-306.744 603.5,-325.744 688.5,-325.744 688.5,-306.744 603.5,-306.744"/>
<text text-anchor="middle" x="646" y="-313.744" font-family="Helvetica,sans-Serif" font-size="10.00">ResponseSink</text>
</a>
</g>
</g>
<!-- Node2&#45;&gt;Node1 -->
<g id="edge1" class="edge"><title>Node2&#45;&gt;Node1</title>
<path fill="none" stroke="#9a32cd" stroke-dasharray="5,2" d="M689.411,-328.498C731.638,-339.604 798.492,-354.244 857.5,-354.244 857.5,-354.244 857.5,-354.244 1512,-354.244 1638.79,-354.244 1664.22,-133.118 1668.31,-83.8824"/>
<polygon fill="#9a32cd" stroke="#9a32cd" points="690.053,-325.046 679.487,-325.833 688.237,-331.807 690.053,-325.046"/>
<text text-anchor="middle" x="1289.5" y="-357.244" font-family="Helvetica,sans-Serif" font-size="10.00"> response_sink</text>
</g>
<!-- Node7 -->
<g id="node7" class="node"><title>Node7</title>
<g id="a_node7"><a xlink:href="classPlayer.html" target="_top" xlink:title="A Player contains a loaded audio file and the state of its playback. ">
<polygon fill="white" stroke="black" points="1344,-178.744 1344,-197.744 1391,-197.744 1391,-178.744 1344,-178.744"/>
<text text-anchor="middle" x="1367.5" y="-185.744" font-family="Helvetica,sans-Serif" font-size="10.00">Player</text>
</a>
</g>
</g>
<!-- Node2&#45;&gt;Node7 -->
<g id="edge11" class="edge"><title>Node2&#45;&gt;Node7</title>
<path fill="none" stroke="#9a32cd" stroke-dasharray="5,2" d="M698.828,-316.944C801.798,-317.505 1039.1,-314.645 1235,-281.244 1276.46,-274.174 1292.58,-280.79 1326,-255.244 1345.65,-240.22 1357.83,-212.695 1363.23,-198.037"/>
<polygon fill="#9a32cd" stroke="#9a32cd" points="698.726,-313.444 688.702,-316.876 698.678,-320.444 698.726,-313.444"/>
<text text-anchor="middle" x="1005" y="-314.244" font-family="Helvetica,sans-Serif" font-size="10.00"> end_sink</text>
</g>
<!-- Node11 -->
<g id="node11" class="node"><title>Node11</title>
<g id="a_node11"><a xlink:href="classResponseSource.html" target="_top" xlink:title="Abstract helper class for sources of responses. ">
<polygon fill="white" stroke="black" points="809.5,-266.744 809.5,-285.744 907.5,-285.744 907.5,-266.744 809.5,-266.744"/>
<text text-anchor="middle" x="858.5" y="-273.744" font-family="Helvetica,sans-Serif" font-size="10.00">ResponseSource</text>
</a>
</g>
</g>
<!-- Node2&#45;&gt;Node11 -->
<g id="edge14" class="edge"><title>Node2&#45;&gt;Node11</title>
<path fill="none" stroke="#9a32cd" stroke-dasharray="5,2" d="M682.014,-303.396C695.317,-298.947 710.708,-294.312 725,-291.244 752.614,-285.317 784.001,-281.632 809.293,-279.399"/>
<polygon fill="#9a32cd" stroke="#9a32cd" points="680.621,-300.174 672.301,-306.733 682.895,-306.794 680.621,-300.174"/>
<text text-anchor="middle" x="750.5" y="-294.244" font-family="Helvetica,sans-Serif" font-size="10.00"> push_sink</text>
</g>
<!-- Node3 -->
<g id="node3" class="node"><title>Node3</title>
<g id="a_node3"><a xlink:title="STL class. ">
<polygon fill="white" stroke="#bfbfbf" points="615,-83.7442 615,-102.744 677,-102.744 677,-83.7442 615,-83.7442"/>
<text text-anchor="middle" x="646" y="-90.7442" font-family="Helvetica,sans-Serif" font-size="10.00">std::string</text>
</a>
</g>
</g>
<!-- Node3&#45;&gt;Node1 -->
<g id="edge2" class="edge"><title>Node3&#45;&gt;Node1</title>
<path fill="none" stroke="#9a32cd" stroke-dasharray="5,2" d="M684.98,-80.6776C726.771,-67.9865 796.164,-50.2442 857.5,-50.2442 857.5,-50.2442 857.5,-50.2442 1512,-50.2442 1556.12,-50.2442 1606.42,-59.6192 1637.94,-66.6504"/>
<polygon fill="#9a32cd" stroke="#9a32cd" points="683.741,-77.3973 675.226,-83.7011 685.814,-84.0835 683.741,-77.3973"/>
<text text-anchor="middle" x="1289.5" y="-53.2442" font-family="Helvetica,sans-Serif" font-size="10.00"> current_word</text>
</g>
<!-- Node5 -->
<g id="node5" class="node"><title>Node5</title>
<polygon fill="white" stroke="#bfbfbf" points="941,-1.74417 941,-20.7442 1069,-20.7442 1069,-1.74417 941,-1.74417"/>
<text text-anchor="middle" x="1005" y="-8.74417" font-family="Helvetica,sans-Serif" font-size="10.00">std::vector&lt; std::string &gt;</text>
</g>
<!-- Node3&#45;&gt;Node5 -->
<g id="edge5" class="edge"><title>Node3&#45;&gt;Node5</title>
<path fill="none" stroke="#9a32cd" stroke-dasharray="5,2" d="M660.863,-75.7698C675.019,-59.3956 698.613,-35.8932 725,-25.2442 794.822,2.93362 882.567,2.08369 940.818,-2.94961"/>
<polygon fill="#9a32cd" stroke="#9a32cd" points="658.07,-73.6543 654.356,-83.5769 663.447,-78.1361 658.07,-73.6543"/>
<text text-anchor="middle" x="750.5" y="-28.2442" font-family="Helvetica,sans-Serif" font-size="10.00"> elements</text>
</g>
<!-- Node9 -->
<g id="node9" class="node"><title>Node9</title>
<polygon fill="white" stroke="#bfbfbf" points="799,-79.2442 799,-109.244 918,-109.244 918,-79.2442 799,-79.2442"/>
<text text-anchor="start" x="807" y="-97.2442" font-family="Helvetica,sans-Serif" font-size="10.00">std::map&lt; std::string,</text>
<text text-anchor="middle" x="858.5" y="-86.2442" font-family="Helvetica,sans-Serif" font-size="10.00"> PlayerPosition::Unit &gt;</text>
</g>
<!-- Node3&#45;&gt;Node9 -->
<g id="edge10" class="edge"><title>Node3&#45;&gt;Node9</title>
<path fill="none" stroke="#9a32cd" stroke-dasharray="5,2" d="M687.341,-93.4358C718.898,-93.5857 763.227,-93.7963 798.728,-93.965"/>
<polygon fill="#9a32cd" stroke="#9a32cd" points="687.176,-89.9351 677.16,-93.3874 687.143,-96.935 687.176,-89.9351"/>
<text text-anchor="middle" x="750.5" y="-97.2442" font-family="Helvetica,sans-Serif" font-size="10.00"> keys</text>
</g>
<!-- Node23 -->
<g id="node23" class="node"><title>Node23</title>
<g id="a_node23"><a xlink:href="classAudioSystem.html" target="_top" xlink:title="An AudioSystem represents the entire audio stack used by playd. ">
<polygon fill="white" stroke="black" points="820,-177.744 820,-196.744 897,-196.744 897,-177.744 820,-177.744"/>
<text text-anchor="middle" x="858.5" y="-184.744" font-family="Helvetica,sans-Serif" font-size="10.00">AudioSystem</text>
</a>
</g>
</g>
<!-- Node3&#45;&gt;Node23 -->
<g id="edge28" class="edge"><title>Node3&#45;&gt;Node23</title>
<path fill="none" stroke="#9a32cd" stroke-dasharray="5,2" d="M670.988,-108.13C686.201,-117.306 706.444,-129.037 725,-138.244 754.799,-153.029 762.769,-155.791 794,-167.244 803.983,-170.905 814.992,-174.518 825,-177.644"/>
<polygon fill="#9a32cd" stroke="#9a32cd" points="672.588,-105.006 662.227,-102.792 668.946,-110.984 672.588,-105.006"/>
<text text-anchor="middle" x="750.5" y="-163.244" font-family="Helvetica,sans-Serif" font-size="10.00"> device_id</text>
</g>
<!-- Node26 -->
<g id="node26" class="node"><title>Node26</title>
<polygon fill="white" stroke="#bfbfbf" points="804,-128.244 804,-158.244 913,-158.244 913,-128.244 804,-128.244"/>
<text text-anchor="start" x="812" y="-146.244" font-family="Helvetica,sans-Serif" font-size="10.00">std::map&lt; State, std</text>
<text text-anchor="middle" x="858.5" y="-135.244" font-family="Helvetica,sans-Serif" font-size="10.00">::string &gt;</text>
</g>
<!-- Node3&#45;&gt;Node26 -->
<g id="edge32" class="edge"><title>Node3&#45;&gt;Node26</title>
<path fill="none" stroke="#9a32cd" stroke-dasharray="5,2" d="M686.945,-102.732C720.037,-110.593 767.371,-121.836 803.782,-130.485"/>
<polygon fill="#9a32cd" stroke="#9a32cd" points="687.698,-99.3138 677.16,-100.408 686.08,-106.124 687.698,-99.3138"/>
<text text-anchor="middle" x="750.5" y="-126.244" font-family="Helvetica,sans-Serif" font-size="10.00"> elements</text>
</g>
<!-- Node4 -->
<g id="node4" class="node"><title>Node4</title>
<g id="a_node4"><a xlink:title="STL class. ">
<polygon fill="white" stroke="#bfbfbf" points="384,-78.2442 384,-108.244 482,-108.244 482,-78.2442 384,-78.2442"/>
<text text-anchor="start" x="392" y="-96.2442" font-family="Helvetica,sans-Serif" font-size="10.00">std::basic_string&lt;</text>
<text text-anchor="middle" x="433" y="-85.2442" font-family="Helvetica,sans-Serif" font-size="10.00"> char &gt;</text>
</a>
</g>
</g>
<!-- Node4&#45;&gt;Node3 -->
<g id="edge3" class="edge"><title>Node4&#45;&gt;Node3</title>
<path fill="none" stroke="midnightblue" d="M492.258,-93.2442C532.052,-93.2442 583.148,-93.2442 614.986,-93.2442"/>
<polygon fill="midnightblue" stroke="midnightblue" points="492.143,-89.7443 482.143,-93.2442 492.143,-96.7443 492.143,-89.7443"/>
</g>
<!-- Node5&#45;&gt;Node1 -->
<g id="edge4" class="edge"><title>Node5&#45;&gt;Node1</title>
<path fill="none" stroke="#9a32cd" stroke-dasharray="5,2" d="M1079.12,-11.2442C1136.15,-11.2442 1217.36,-11.2442 1288.5,-11.2442 1288.5,-11.2442 1288.5,-11.2442 1512,-11.2442 1561.27,-11.2442 1575.5,-15.1003 1620,-36.2442 1635.17,-43.4513 1650.05,-55.9855 1659.35,-64.6782"/>
<polygon fill="#9a32cd" stroke="#9a32cd" points="1079.11,-7.74427 1069.11,-11.2442 1079.11,-14.7443 1079.11,-7.74427"/>
<text text-anchor="middle" x="1367.5" y="-14.2442" font-family="Helvetica,sans-Serif" font-size="10.00"> words</text>
</g>
<!-- Node6 -->
<g id="node6" class="node"><title>Node6</title>
<g id="a_node6"><a xlink:href="classCommandHandler.html" target="_top" xlink:title="The playd command handler. ">
<polygon fill="white" stroke="black" points="1460,-103.744 1460,-122.744 1562,-122.744 1562,-103.744 1460,-103.744"/>
<text text-anchor="middle" x="1511" y="-110.744" font-family="Helvetica,sans-Serif" font-size="10.00">CommandHandler</text>
</a>
</g>
</g>
<!-- Node6&#45;&gt;Node1 -->
<g id="edge6" class="edge"><title>Node6&#45;&gt;Node1</title>
<path fill="none" stroke="#9a32cd" stroke-dasharray="5,2" d="M1560.18,-101.277C1585.44,-95.0007 1615.66,-87.4943 1637.84,-81.9857"/>
<polygon fill="#9a32cd" stroke="#9a32cd" points="1559.27,-97.896 1550.41,-103.704 1560.96,-104.69 1559.27,-97.896"/>
<text text-anchor="middle" x="1600" y="-99.2442" font-family="Helvetica,sans-Serif" font-size="10.00"> handler</text>
</g>
<!-- Node7&#45;&gt;Node6 -->
<g id="edge7" class="edge"><title>Node7&#45;&gt;Node6</title>
<path fill="none" stroke="#9a32cd" stroke-dasharray="5,2" d="M1395.67,-173.843C1423.96,-158.847 1467.49,-135.778 1491.86,-122.859"/>
<polygon fill="#9a32cd" stroke="#9a32cd" points="1393.91,-170.817 1386.71,-178.593 1397.18,-177.002 1393.91,-170.817"/>
<text text-anchor="middle" x="1425.5" y="-169.244" font-family="Helvetica,sans-Serif" font-size="10.00"> player</text>
</g>
<!-- Node8 -->
<g id="node8" class="node"><title>Node8</title>
<g id="a_node8"><a xlink:href="classTimeParser.html" target="_top" xlink:title="TimeParser\&lt; PlayerPosition\l::Unit \&gt;">
<polygon fill="white" stroke="black" points="1087,-97.2442 1087,-127.244 1235,-127.244 1235,-97.2442 1087,-97.2442"/>
<text text-anchor="start" x="1095" y="-115.244" font-family="Helvetica,sans-Serif" font-size="10.00">TimeParser&lt; PlayerPosition</text>
<text text-anchor="middle" x="1161" y="-104.244" font-family="Helvetica,sans-Serif" font-size="10.00">::Unit &gt;</text>
</a>
</g>
</g>
<!-- Node8&#45;&gt;Node7 -->
<g id="edge8" class="edge"><title>Node8&#45;&gt;Node7</title>
<path fill="none" stroke="#9a32cd" stroke-dasharray="5,2" d="M1244.95,-128.396C1271.63,-135.309 1300.8,-144.739 1326,-157.244 1337.26,-162.832 1348.49,-171.759 1356.26,-178.601"/>
<polygon fill="#9a32cd" stroke="#9a32cd" points="1245.79,-125 1235.24,-125.962 1244.09,-131.789 1245.79,-125"/>
<text text-anchor="middle" x="1289.5" y="-160.244" font-family="Helvetica,sans-Serif" font-size="10.00"> time_parser</text>
</g>
<!-- Node9&#45;&gt;Node8 -->
<g id="edge9" class="edge"><title>Node9&#45;&gt;Node8</title>
<path fill="none" stroke="#9a32cd" stroke-dasharray="5,2" d="M928.33,-98.037C969.211,-100.327 1022.07,-103.353 1069,-106.244 1074.85,-106.604 1080.9,-106.986 1086.99,-107.375"/>
<polygon fill="#9a32cd" stroke="#9a32cd" points="928.385,-94.5347 918.206,-97.4711 927.995,-101.524 928.385,-94.5347"/>
<text text-anchor="middle" x="1005" y="-109.244" font-family="Helvetica,sans-Serif" font-size="10.00"> unit_map</text>
</g>
<!-- Node10 -->
<g id="node10" class="node"><title>Node10</title>
<g id="a_node10"><a xlink:href="classPlayerFile.html" target="_top" xlink:title="The subcomponent of a Player that stores the audio file. ">
<polygon fill="white" stroke="black" points="1129.5,-197.744 1129.5,-216.744 1192.5,-216.744 1192.5,-197.744 1129.5,-197.744"/>
<text text-anchor="middle" x="1161" y="-204.744" font-family="Helvetica,sans-Serif" font-size="10.00">PlayerFile</text>
</a>
</g>
</g>
<!-- Node10&#45;&gt;Node7 -->
<g id="edge12" class="edge"><title>Node10&#45;&gt;Node7</title>
<path fill="none" stroke="#9a32cd" stroke-dasharray="5,2" d="M1202.61,-203.471C1244.98,-199.535 1309.88,-193.505 1343.9,-190.344"/>
<polygon fill="#9a32cd" stroke="#9a32cd" points="1202.25,-199.989 1192.62,-204.4 1202.9,-206.959 1202.25,-199.989"/>
<text text-anchor="middle" x="1289.5" y="-202.244" font-family="Helvetica,sans-Serif" font-size="10.00"> file</text>
</g>
<!-- Node11&#45;&gt;Node10 -->
<g id="edge13" class="edge"><title>Node11&#45;&gt;Node10</title>
<path fill="none" stroke="midnightblue" d="M917.756,-271.051C960.224,-266.374 1018.86,-258.059 1069,-244.244 1094.32,-237.267 1122.11,-225.295 1140.23,-216.862"/>
<polygon fill="midnightblue" stroke="midnightblue" points="917.168,-267.594 907.595,-272.134 917.91,-274.554 917.168,-267.594"/>
</g>
<!-- Node25 -->
<g id="node25" class="node"><title>Node25</title>
<g id="a_node25"><a xlink:href="classPlayerState.html" target="_top" xlink:title="An object holding and representing the current state of a Player. ">
<polygon fill="white" stroke="black" points="1125.5,-159.744 1125.5,-178.744 1196.5,-178.744 1196.5,-159.744 1125.5,-159.744"/>
<text text-anchor="middle" x="1161" y="-166.744" font-family="Helvetica,sans-Serif" font-size="10.00">PlayerState</text>
</a>
</g>
</g>
<!-- Node11&#45;&gt;Node25 -->
<g id="edge30" class="edge"><title>Node11&#45;&gt;Node25</title>
<path fill="none" stroke="midnightblue" d="M893.415,-263.093C907.934,-257.747 925.162,-251.775 941,-247.244 996.989,-231.229 1021.95,-253.555 1069,-219.244 1081.87,-209.857 1074.31,-197.882 1087,-188.244 1097.95,-179.926 1112.2,-175.235 1125.2,-172.595"/>
<polygon fill="midnightblue" stroke="midnightblue" points="891.988,-259.89 883.846,-266.669 894.439,-266.447 891.988,-259.89"/>
</g>
<!-- Node27 -->
<g id="node27" class="node"><title>Node27</title>
<g id="a_node27"><a xlink:href="classPlayerPosition.html" target="_top" xlink:title="Tracker and broadcaster for the Player&#39;s current position in a song. ">
<polygon fill="white" stroke="black" points="1119,-252.744 1119,-271.744 1203,-271.744 1203,-252.744 1119,-252.744"/>
<text text-anchor="middle" x="1161" y="-259.744" font-family="Helvetica,sans-Serif" font-size="10.00">PlayerPosition</text>
</a>
</g>
</g>
<!-- Node11&#45;&gt;Node27 -->
<g id="edge34" class="edge"><title>Node11&#45;&gt;Node27</title>
<path fill="none" stroke="midnightblue" d="M917.848,-274.973C959.893,-273.891 1017.98,-272.058 1069,-269.244 1085.3,-268.346 1103.21,-267.037 1118.8,-265.794"/>
<polygon fill="midnightblue" stroke="midnightblue" points="917.697,-271.475 907.788,-275.225 917.873,-278.473 917.697,-271.475"/>
</g>
<!-- Node12 -->
<g id="node12" class="node"><title>Node12</title>
<polygon fill="white" stroke="#bfbfbf" points="794,-215.744 794,-234.744 923,-234.744 923,-215.744 794,-215.744"/>
<text text-anchor="middle" x="858.5" y="-222.744" font-family="Helvetica,sans-Serif" font-size="10.00">std::unique_ptr&lt; Audio &gt;</text>
</g>
<!-- Node12&#45;&gt;Node10 -->
<g id="edge15" class="edge"><title>Node12&#45;&gt;Node10</title>
<path fill="none" stroke="#9a32cd" stroke-dasharray="5,2" d="M933.507,-220.811C996.475,-217.039 1083.75,-211.812 1129.39,-209.078"/>
<polygon fill="#9a32cd" stroke="#9a32cd" points="933.001,-217.335 923.228,-221.427 933.42,-224.323 933.001,-217.335"/>
<text text-anchor="middle" x="1005" y="-223.244" font-family="Helvetica,sans-Serif" font-size="10.00"> audio</text>
</g>
<!-- Node13 -->
<g id="node13" class="node"><title>Node13</title>
<g id="a_node13"><a xlink:href="classAudio.html" target="_top" xlink:title="An audio file. ">
<polygon fill="white" stroke="black" points="624.5,-215.744 624.5,-234.744 667.5,-234.744 667.5,-215.744 624.5,-215.744"/>
<text text-anchor="middle" x="646" y="-222.744" font-family="Helvetica,sans-Serif" font-size="10.00">Audio</text>
</a>
</g>
</g>
<!-- Node13&#45;&gt;Node12 -->
<g id="edge16" class="edge"><title>Node13&#45;&gt;Node12</title>
<path fill="none" stroke="#9a32cd" stroke-dasharray="5,2" d="M677.926,-225.244C708.233,-225.244 755.332,-225.244 793.691,-225.244"/>
<polygon fill="#9a32cd" stroke="#9a32cd" points="677.567,-221.744 667.567,-225.244 677.567,-228.744 677.567,-221.744"/>
<text text-anchor="middle" x="750.5" y="-228.244" font-family="Helvetica,sans-Serif" font-size="10.00"> ptr</text>
</g>
<!-- Node14 -->
<g id="node14" class="node"><title>Node14</title>
<polygon fill="white" stroke="#bfbfbf" points="358.5,-253.744 358.5,-272.744 507.5,-272.744 507.5,-253.744 358.5,-253.744"/>
<text text-anchor="middle" x="433" y="-260.744" font-family="Helvetica,sans-Serif" font-size="10.00">std::unique_ptr&lt; AudioSink &gt;</text>
</g>
<!-- Node14&#45;&gt;Node13 -->
<g id="edge17" class="edge"><title>Node14&#45;&gt;Node13</title>
<path fill="none" stroke="#9a32cd" stroke-dasharray="5,2" d="M496.877,-251.92C540.239,-244.111 595.149,-234.222 624.419,-228.951"/>
<polygon fill="#9a32cd" stroke="#9a32cd" points="496.193,-248.487 486.972,-253.704 497.434,-255.376 496.193,-248.487"/>
<text text-anchor="middle" x="549.5" y="-249.244" font-family="Helvetica,sans-Serif" font-size="10.00"> sink</text>
</g>
<!-- Node15 -->
<g id="node15" class="node"><title>Node15</title>
<g id="a_node15"><a xlink:href="classAudioSink.html" target="_top" xlink:title="An output stream for an Audio file. ">
<polygon fill="white" stroke="black" points="230.5,-275.744 230.5,-294.744 293.5,-294.744 293.5,-275.744 230.5,-275.744"/>
<text text-anchor="middle" x="262" y="-282.744" font-family="Helvetica,sans-Serif" font-size="10.00">AudioSink</text>
</a>
</g>
</g>
<!-- Node15&#45;&gt;Node14 -->
<g id="edge18" class="edge"><title>Node15&#45;&gt;Node14</title>
<path fill="none" stroke="#9a32cd" stroke-dasharray="5,2" d="M303.968,-279.911C320.466,-277.763 340.01,-275.219 358.796,-272.774"/>
<polygon fill="#9a32cd" stroke="#9a32cd" points="303.069,-276.498 293.605,-281.26 303.973,-283.44 303.069,-276.498"/>
<text text-anchor="middle" x="326" y="-281.244" font-family="Helvetica,sans-Serif" font-size="10.00"> ptr</text>
</g>
<!-- Node16 -->
<g id="node16" class="node"><title>Node16</title>
<polygon fill="white" stroke="#bfbfbf" points="0,-253.744 0,-272.744 147,-272.744 147,-253.744 0,-253.744"/>
<text text-anchor="middle" x="73.5" y="-260.744" font-family="Helvetica,sans-Serif" font-size="10.00">portaudio::CallbackInterface</text>
</g>
<!-- Node16&#45;&gt;Node15 -->
<g id="edge19" class="edge"><title>Node16&#45;&gt;Node15</title>
<path fill="none" stroke="#8b1a1a" d="M157.375,-273.02C183.267,-276.075 210.24,-279.256 230.174,-281.608"/>
<polygon fill="#8b1a1a" stroke="#8b1a1a" points="157.481,-269.509 147.14,-271.813 156.661,-276.46 157.481,-269.509"/>
</g>
<!-- Node17 -->
<g id="node17" class="node"><title>Node17</title>
<g id="a_node17"><a xlink:href="classRingBuffer.html" target="_top" xlink:title="RingBuffer\&lt; char, unsigned\l long \&gt;">
<polygon fill="white" stroke="black" points="1.5,-341.244 1.5,-371.244 145.5,-371.244 145.5,-341.244 1.5,-341.244"/>
<text text-anchor="start" x="9.5" y="-359.244" font-family="Helvetica,sans-Serif" font-size="10.00">RingBuffer&lt; char, unsigned</text>
<text text-anchor="middle" x="73.5" y="-348.244" font-family="Helvetica,sans-Serif" font-size="10.00"> long &gt;</text>
</a>
</g>
</g>
<!-- Node17&#45;&gt;Node15 -->
<g id="edge20" class="edge"><title>Node17&#45;&gt;Node15</title>
<path fill="none" stroke="#9a32cd" stroke-dasharray="5,2" d="M132.421,-337.978C155.526,-330.29 182.231,-320.894 206,-311.244 218.233,-306.278 231.632,-299.963 242.143,-294.8"/>
<polygon fill="#9a32cd" stroke="#9a32cd" points="131.16,-334.708 122.759,-341.164 133.352,-341.356 131.16,-334.708"/>
<text text-anchor="middle" x="185.5" y="-329.244" font-family="Helvetica,sans-Serif" font-size="10.00"> ring_buf</text>
</g>
<!-- Node18 -->
<g id="node18" class="node"><title>Node18</title>
<polygon fill="white" stroke="#bfbfbf" points="4.5,-292.244 4.5,-322.244 142.5,-322.244 142.5,-292.244 4.5,-292.244"/>
<text text-anchor="start" x="12.5" y="-310.244" font-family="Helvetica,sans-Serif" font-size="10.00">std::unique_ptr&lt; portaudio</text>
<text text-anchor="middle" x="73.5" y="-299.244" font-family="Helvetica,sans-Serif" font-size="10.00">::Stream &gt;</text>
</g>
<!-- Node18&#45;&gt;Node15 -->
<g id="edge21" class="edge"><title>Node18&#45;&gt;Node15</title>
<path fill="none" stroke="#9a32cd" stroke-dasharray="5,2" d="M152.572,-298.035C179.845,-294.817 208.898,-291.39 230.059,-288.894"/>
<polygon fill="#9a32cd" stroke="#9a32cd" points="152.144,-294.561 142.622,-299.208 152.964,-301.513 152.144,-294.561"/>
<text text-anchor="middle" x="185.5" y="-299.244" font-family="Helvetica,sans-Serif" font-size="10.00"> stream</text>
</g>
<!-- Node19 -->
<g id="node19" class="node"><title>Node19</title>
<polygon fill="white" stroke="#bfbfbf" points="352,-215.744 352,-234.744 514,-234.744 514,-215.744 352,-215.744"/>
<text text-anchor="middle" x="433" y="-222.744" font-family="Helvetica,sans-Serif" font-size="10.00">std::unique_ptr&lt; AudioSource &gt;</text>
</g>
<!-- Node19&#45;&gt;Node13 -->
<g id="edge22" class="edge"><title>Node19&#45;&gt;Node13</title>
<path fill="none" stroke="#9a32cd" stroke-dasharray="5,2" d="M524.449,-225.244C561.537,-225.244 601.158,-225.244 624.469,-225.244"/>
<polygon fill="#9a32cd" stroke="#9a32cd" points="524.071,-221.744 514.071,-225.244 524.071,-228.744 524.071,-221.744"/>
<text text-anchor="middle" x="549.5" y="-228.244" font-family="Helvetica,sans-Serif" font-size="10.00"> source</text>
</g>
<!-- Node20 -->
<g id="node20" class="node"><title>Node20</title>
<g id="a_node20"><a xlink:href="classAudioSource.html" target="_top" xlink:title="An object responsible for decoding an audio file. ">
<polygon fill="white" stroke="black" points="224,-215.744 224,-234.744 300,-234.744 300,-215.744 224,-215.744"/>
<text text-anchor="middle" x="262" y="-222.744" font-family="Helvetica,sans-Serif" font-size="10.00">AudioSource</text>
</a>
</g>
</g>
<!-- Node20&#45;&gt;Node19 -->
<g id="edge23" class="edge"><title>Node20&#45;&gt;Node19</title>
<path fill="none" stroke="#9a32cd" stroke-dasharray="5,2" d="M310.117,-225.244C323.053,-225.244 337.452,-225.244 351.692,-225.244"/>
<polygon fill="#9a32cd" stroke="#9a32cd" points="310.088,-221.744 300.088,-225.244 310.088,-228.744 310.088,-221.744"/>
<text text-anchor="middle" x="326" y="-228.244" font-family="Helvetica,sans-Serif" font-size="10.00"> ptr</text>
</g>
<!-- Node21 -->
<g id="node21" class="node"><title>Node21</title>
<polygon fill="white" stroke="#bfbfbf" points="16.5,-215.744 16.5,-234.744 130.5,-234.744 130.5,-215.744 16.5,-215.744"/>
<text text-anchor="middle" x="73.5" y="-222.744" font-family="Helvetica,sans-Serif" font-size="10.00">std::vector&lt; uint8_t &gt;</text>
</g>
<!-- Node21&#45;&gt;Node20 -->
<g id="edge24" class="edge"><title>Node21&#45;&gt;Node20</title>
<path fill="none" stroke="#9a32cd" stroke-dasharray="5,2" d="M140.799,-225.244C168.672,-225.244 200.061,-225.244 223.771,-225.244"/>
<polygon fill="#9a32cd" stroke="#9a32cd" points="140.709,-221.744 130.709,-225.244 140.709,-228.744 140.709,-221.744"/>
<text text-anchor="middle" x="185.5" y="-228.244" font-family="Helvetica,sans-Serif" font-size="10.00"> buffer</text>
</g>
<!-- Node22 -->
<g id="node22" class="node"><title>Node22</title>
<polygon fill="white" stroke="#bfbfbf" points="366.5,-177.744 366.5,-196.744 499.5,-196.744 499.5,-177.744 366.5,-177.744"/>
<text text-anchor="middle" x="433" y="-184.744" font-family="Helvetica,sans-Serif" font-size="10.00">std::vector&lt; std::uint8_t &gt;</text>
</g>
<!-- Node22&#45;&gt;Node13 -->
<g id="edge25" class="edge"><title>Node22&#45;&gt;Node13</title>
<path fill="none" stroke="#9a32cd" stroke-dasharray="5,2" d="M500.275,-198.453C521.594,-202.127 545.309,-206.283 567,-210.244 586.534,-213.811 608.772,-218.111 624.491,-221.191"/>
<polygon fill="#9a32cd" stroke="#9a32cd" points="500.791,-194.991 490.343,-196.747 499.606,-201.89 500.791,-194.991"/>
<text text-anchor="middle" x="549.5" y="-213.244" font-family="Helvetica,sans-Serif" font-size="10.00"> frame</text>
</g>
<!-- Node23&#45;&gt;Node10 -->
<g id="edge26" class="edge"><title>Node23&#45;&gt;Node10</title>
<path fill="none" stroke="#9a32cd" stroke-dasharray="5,2" d="M907.441,-189.132C949.93,-190.955 1013.64,-194.055 1069,-198.244 1089.1,-199.765 1111.66,-201.992 1129.28,-203.85"/>
<polygon fill="#9a32cd" stroke="#9a32cd" points="907.519,-185.632 897.38,-188.707 907.224,-192.626 907.519,-185.632"/>
<text text-anchor="middle" x="1005" y="-201.244" font-family="Helvetica,sans-Serif" font-size="10.00"> audio_system</text>
</g>
<!-- Node24 -->
<g id="node24" class="node"><title>Node24</title>
<g id="a_node24"><a xlink:href="classAudioSinkConfigurator.html" target="_top" xlink:title="Interface for objects that can configure a PortAudio stream from an AudioSource. ">
<polygon fill="white" stroke="black" points="585,-177.744 585,-196.744 707,-196.744 707,-177.744 585,-177.744"/>
<text text-anchor="middle" x="646" y="-184.744" font-family="Helvetica,sans-Serif" font-size="10.00">AudioSinkConfigurator</text>
</a>
</g>
</g>
<!-- Node24&#45;&gt;Node23 -->
<g id="edge27" class="edge"><title>Node24&#45;&gt;Node23</title>
<path fill="none" stroke="midnightblue" d="M717.473,-187.244C751.728,-187.244 791.52,-187.244 819.911,-187.244"/>
<polygon fill="midnightblue" stroke="midnightblue" points="717.039,-183.744 707.039,-187.244 717.039,-190.744 717.039,-183.744"/>
</g>
<!-- Node25&#45;&gt;Node7 -->
<g id="edge29" class="edge"><title>Node25&#45;&gt;Node7</title>
<path fill="none" stroke="#9a32cd" stroke-dasharray="5,2" d="M1207.01,-169.451C1240.09,-170.151 1286.05,-172.269 1326,-178.244 1331.87,-179.123 1338.14,-180.464 1343.94,-181.882"/>
<polygon fill="#9a32cd" stroke="#9a32cd" points="1206.8,-165.947 1196.74,-169.27 1206.68,-172.946 1206.8,-165.947"/>
<text text-anchor="middle" x="1289.5" y="-181.244" font-family="Helvetica,sans-Serif" font-size="10.00"> state</text>
</g>
<!-- Node26&#45;&gt;Node25 -->
<g id="edge31" class="edge"><title>Node26&#45;&gt;Node25</title>
<path fill="none" stroke="#9a32cd" stroke-dasharray="5,2" d="M923.244,-148.759C984.963,-154.1 1076.22,-161.995 1125.46,-166.256"/>
<polygon fill="#9a32cd" stroke="#9a32cd" points="923.488,-145.268 913.223,-147.892 922.884,-152.242 923.488,-145.268"/>
<text text-anchor="middle" x="1005" y="-164.244" font-family="Helvetica,sans-Serif" font-size="10.00"> STRINGS</text>
</g>
<!-- Node27&#45;&gt;Node7 -->
<g id="edge33" class="edge"><title>Node27&#45;&gt;Node7</title>
<path fill="none" stroke="#9a32cd" stroke-dasharray="5,2" d="M1213.17,-251.269C1246.22,-243.219 1289.67,-230.805 1326,-214.244 1335.73,-209.808 1345.86,-203.308 1353.55,-197.917"/>
<polygon fill="#9a32cd" stroke="#9a32cd" points="1212.18,-247.906 1203.26,-253.627 1213.8,-254.716 1212.18,-247.906"/>
<text text-anchor="middle" x="1289.5" y="-243.244" font-family="Helvetica,sans-Serif" font-size="10.00"> position</text>
</g>
</g>
</svg>
        <g id="navigator" transform="translate(0 0)" fill="#404254">
                <rect fill="#f2f5e9" fill-opacity="0.5" stroke="#606060" stroke-width=".5" x="0" y="0" width="60" height="60"/>
                <use id="zoomplus" xlink:href="#zoomPlus" x="17" y="9" onmousedown="handleZoom(evt,'in')"/>
                <use id="zoomminus" xlink:href="#zoomMin" x="42" y="9" onmousedown="handleZoom(evt,'out')"/>
                <use id="reset" xlink:href="#resetDef" x="30" y="36" onmousedown="handleReset()"/>
                <g id="arrowUp" xlink:href="#dirArrow" transform="translate(30 24)" onmousedown="handlePan(0,-1)">
                  <use xlink:href="#rim" fill="#404040">
                        <set attributeName="fill" to="#808080" begin="arrowUp.mouseover" end="arrowUp.mouseout"/>
                  </use>
                  <path fill="none" stroke="white" stroke-width="1.5" d="M0,-3.0v7 M-2.5,-0.5L0,-3.0L2.5,-0.5"/>
                </g>
                <g id="arrowRight" xlink:href="#dirArrow" transform="rotate(90) translate(36 -43)" onmousedown="handlePan(1,0)">
                  <use xlink:href="#rim" fill="#404040">
                        <set attributeName="fill" to="#808080" begin="arrowRight.mouseover" end="arrowRight.mouseout"/>
                  </use>
                  <path fill="none" stroke="white" stroke-width="1.5" d="M0,-3.0v7 M-2.5,-0.5L0,-3.0L2.5,-0.5"/>
                </g>
                <g id="arrowDown" xlink:href="#dirArrow" transform="rotate(180) translate(-30 -48)" onmousedown="handlePan(0,1)">
                  <use xlink:href="#rim" fill="#404040">
                        <set attributeName="fill" to="#808080" begin="arrowDown.mouseover" end="arrowDown.mouseout"/>
                  </use>
                  <path fill="none" stroke="white" stroke-width="1.5" d="M0,-3.0v7 M-2.5,-0.5L0,-3.0L2.5,-0.5"/>
                </g>
                <g id="arrowLeft" xlink:href="#dirArrow" transform="rotate(270) translate(-36 17)" onmousedown="handlePan(-1,0)">
                  <use xlink:href="#rim" fill="#404040">
                        <set attributeName="fill" to="#808080" begin="arrowLeft.mouseover" end="arrowLeft.mouseout"/>
                  </use>
                  <path fill="none" stroke="white" stroke-width="1.5" d="M0,-3.0v7 M-2.5,-0.5L0,-3.0L2.5,-0.5"/>
                </g>
        </g>
        <svg viewBox="0 0 15 15" width="100%" height="30px" preserveAspectRatio="xMaxYMin meet">
         <g id="arrow_out" transform="scale(0.3 0.3)">
          <a xlink:href="classTokeniser__coll__graph_org.svg" target="_base">
           <rect id="button" ry="5" rx="5" y="6" x="6" height="38" width="38"
                fill="#f2f5e9" fill-opacity="0.5" stroke="#606060" stroke-width="1.0"/>
           <path id="arrow"
             d="M 11.500037,31.436501 C 11.940474,20.09759 22.043105,11.32322 32.158766,21.979434 L 37.068811,17.246167 C 37.068811,17.246167 37.088388,32 37.088388,32 L 22.160133,31.978069 C 22.160133,31.978069 26.997745,27.140456 26.997745,27.140456 C 18.528582,18.264221 13.291696,25.230495 11.500037,31.436501 z"
             style="fill:#404040;"/>
          </a>
         </g>
        </svg>
</svg>
