<?xml version="1.0" encoding="UTF-8" standalone="no"?>
<!DOCTYPE svg PUBLIC "-//W3C//DTD SVG 1.1//EN"
 "http://www.w3.org/Graphics/SVG/1.1/DTD/svg11.dtd">
<!-- Generated by graphviz version 2.38.0 (20140413.2041)
 -->
<!-- Title: ResponseSink Pages: 1 -->
<svg width="192pt" height="84pt"
 viewBox="0.00 0.00 192.00 84.00" xmlns="http://www.w3.org/2000/svg" xmlns:xlink="http://www.w3.org/1999/xlink">
<g id="graph0" class="graph" transform="scale(1 1) rotate(0) translate(4 80)">
<title>ResponseSink</title>
<polygon fill="white" stroke="none" points="-4,4 -4,-80 188,-80 188,4 -4,4"/>
<!-- Node1 -->
<g id="node1" class="node"><title>Node1</title>
<polygon fill="#bfbfbf" stroke="black" points="39,-56.5 39,-75.5 124,-75.5 124,-56.5 39,-56.5"/>
<text text-anchor="middle" x="81.5" y="-63.5" font-family="Helvetica,sans-Serif" font-size="10.00">ResponseSink</text>
</g>
<!-- Node2 -->
<g id="node2" class="node"><title>Node2</title>
<g id="a_node2"><a xlink:href="classIoReactor.html" target="_top" xlink:title="The IO reactor, which services input, routes responses, and executes the Player update routine period...">
<polygon fill="white" stroke="black" points="0,-0.5 0,-19.5 63,-19.5 63,-0.5 0,-0.5"/>
<text text-anchor="middle" x="31.5" y="-7.5" font-family="Helvetica,sans-Serif" font-size="10.00">IoReactor</text>
</a>
</g>
</g>
<!-- Node1&#45;&gt;Node2 -->
<g id="edge1" class="edge"><title>Node1&#45;&gt;Node2</title>
<path fill="none" stroke="midnightblue" d="M66.4237,-48.7175C57.6109,-39.1997 46.8341,-27.5608 39.6028,-19.7511"/>
<polygon fill="midnightblue" stroke="midnightblue" points="63.8812,-51.1233 73.2435,-56.083 69.0176,-46.3674 63.8812,-51.1233"/>
</g>
<!-- Node3 -->
<g id="node3" class="node"><title>Node3</title>
<g id="a_node3"><a xlink:href="classTcpResponseSink.html" target="_top" xlink:title="A TCP connection from a client. ">
<polygon fill="white" stroke="black" points="81,-0.5 81,-19.5 184,-19.5 184,-0.5 81,-0.5"/>
<text text-anchor="middle" x="132.5" y="-7.5" font-family="Helvetica,sans-Serif" font-size="10.00">TcpResponseSink</text>
</a>
</g>
</g>
<!-- Node1&#45;&gt;Node3 -->
<g id="edge2" class="edge"><title>Node1&#45;&gt;Node3</title>
<path fill="none" stroke="midnightblue" d="M96.8779,-48.7175C105.867,-39.1997 116.859,-27.5608 124.235,-19.7511"/>
<polygon fill="midnightblue" stroke="midnightblue" points="94.2433,-46.4096 89.9216,-56.083 99.3324,-51.216 94.2433,-46.4096"/>
</g>
</g>
</svg>
