<?xml version="1.0" encoding="UTF-8" standalone="no"?>
<!DOCTYPE svg PUBLIC "-//W3C//DTD SVG 1.1//EN"
 "http://www.w3.org/Graphics/SVG/1.1/DTD/svg11.dtd">
<!-- Generated by graphviz version 2.38.0 (20140413.2041)
 -->
<!-- Title: TimeParser&lt; OutUnit, IntType &gt; Pages: 1 -->
<svg width="126pt" height="252pt"
 viewBox="0.00 0.00 126.00 252.00" xmlns="http://www.w3.org/2000/svg" xmlns:xlink="http://www.w3.org/1999/xlink">
<g id="graph0" class="graph" transform="scale(1 1) rotate(0) translate(4 248)">
<title>TimeParser&lt; OutUnit, IntType &gt;</title>
<polygon fill="white" stroke="none" points="-4,4 -4,-248 122,-248 122,4 -4,4"/>
<!-- Node1 -->
<g id="node1" class="node"><title>Node1</title>
<polygon fill="#bfbfbf" stroke="black" points="0,-0.5 0,-30.5 118,-30.5 118,-0.5 0,-0.5"/>
<text text-anchor="start" x="8" y="-18.5" font-family="Helvetica,sans-Serif" font-size="10.00">TimeParser&lt; OutUnit,</text>
<text text-anchor="middle" x="59" y="-7.5" font-family="Helvetica,sans-Serif" font-size="10.00"> IntType &gt;</text>
</g>
<!-- Node2 -->
<g id="node2" class="node"><title>Node2</title>
<polygon fill="white" stroke="#bfbfbf" points="3,-78.5 3,-108.5 115,-108.5 115,-78.5 3,-78.5"/>
<text text-anchor="start" x="11" y="-96.5" font-family="Helvetica,sans-Serif" font-size="10.00">std::map&lt; std::string,</text>
<text text-anchor="middle" x="59" y="-85.5" font-family="Helvetica,sans-Serif" font-size="10.00"> OutUnit &gt;</text>
</g>
<!-- Node2&#45;&gt;Node1 -->
<g id="edge1" class="edge"><title>Node2&#45;&gt;Node1</title>
<path fill="none" stroke="#9a32cd" stroke-dasharray="5,2" d="M59,-68.0898C59,-55.7565 59,-41.2237 59,-30.7309"/>
<polygon fill="#9a32cd" stroke="#9a32cd" points="55.5001,-68.2049 59,-78.205 62.5001,-68.205 55.5001,-68.2049"/>
<text text-anchor="middle" x="82" y="-52" font-family="Helvetica,sans-Serif" font-size="10.00"> unit_map</text>
</g>
<!-- Node3 -->
<g id="node3" class="node"><title>Node3</title>
<g id="a_node3"><a xlink:title="STL class. ">
<polygon fill="white" stroke="#bfbfbf" points="28,-156.5 28,-175.5 90,-175.5 90,-156.5 28,-156.5"/>
<text text-anchor="middle" x="59" y="-163.5" font-family="Helvetica,sans-Serif" font-size="10.00">std::string</text>
</a>
</g>
</g>
<!-- Node3&#45;&gt;Node2 -->
<g id="edge2" class="edge"><title>Node3&#45;&gt;Node2</title>
<path fill="none" stroke="#9a32cd" stroke-dasharray="5,2" d="M59,-146.236C59,-134.408 59,-119.383 59,-108.576"/>
<polygon fill="#9a32cd" stroke="#9a32cd" points="55.5001,-146.355 59,-156.355 62.5001,-146.355 55.5001,-146.355"/>
<text text-anchor="middle" x="71.5" y="-130" font-family="Helvetica,sans-Serif" font-size="10.00"> keys</text>
</g>
<!-- Node4 -->
<g id="node4" class="node"><title>Node4</title>
<g id="a_node4"><a xlink:title="STL class. ">
<polygon fill="white" stroke="#bfbfbf" points="10,-213.5 10,-243.5 108,-243.5 108,-213.5 10,-213.5"/>
<text text-anchor="start" x="18" y="-231.5" font-family="Helvetica,sans-Serif" font-size="10.00">std::basic_string&lt;</text>
<text text-anchor="middle" x="59" y="-220.5" font-family="Helvetica,sans-Serif" font-size="10.00"> char &gt;</text>
</a>
</g>
</g>
<!-- Node4&#45;&gt;Node3 -->
<g id="edge3" class="edge"><title>Node4&#45;&gt;Node3</title>
<path fill="none" stroke="midnightblue" d="M59,-203.352C59,-193.513 59,-182.775 59,-175.54"/>
<polygon fill="midnightblue" stroke="midnightblue" points="55.5001,-203.468 59,-213.468 62.5001,-203.468 55.5001,-203.468"/>
</g>
</g>
</svg>
