<?xml version="1.0" encoding="UTF-8" standalone="no"?>
<!DOCTYPE svg PUBLIC "-//W3C//DTD SVG 1.1//EN"
 "http://www.w3.org/Graphics/SVG/1.1/DTD/svg11.dtd">
<!-- Generated by graphviz version 2.38.0 (20140413.2041)
 -->
<!-- Title: PlayerFile Pages: 1 -->
<svg width="387pt" height="297pt"
 viewBox="0.00 0.00 386.50 297.00" xmlns="http://www.w3.org/2000/svg" xmlns:xlink="http://www.w3.org/1999/xlink">
<g id="graph0" class="graph" transform="scale(1 1) rotate(0) translate(4 293)">
<title>PlayerFile</title>
<polygon fill="white" stroke="none" points="-4,4 -4,-293 382.5,-293 382.5,4 -4,4"/>
<!-- Node1 -->
<g id="node1" class="node"><title>Node1</title>
<polygon fill="#bfbfbf" stroke="black" points="125.5,-0.5 125.5,-19.5 188.5,-19.5 188.5,-0.5 125.5,-0.5"/>
<text text-anchor="middle" x="157" y="-7.5" font-family="Helvetica,sans-Serif" font-size="10.00">PlayerFile</text>
</g>
<!-- Node2 -->
<g id="node2" class="node"><title>Node2</title>
<g id="a_node2"><a xlink:href="classResponseSource.html" target="_top" xlink:title="Abstract helper class for sources of responses. ">
<polygon fill="white" stroke="black" points="0,-67.5 0,-86.5 98,-86.5 98,-67.5 0,-67.5"/>
<text text-anchor="middle" x="49" y="-74.5" font-family="Helvetica,sans-Serif" font-size="10.00">ResponseSource</text>
</a>
</g>
</g>
<!-- Node2&#45;&gt;Node1 -->
<g id="edge1" class="edge"><title>Node2&#45;&gt;Node1</title>
<path fill="none" stroke="midnightblue" d="M72.3474,-61.8998C84.2174,-54.7356 98.8726,-45.8972 112,-38 122.305,-31.8005 133.947,-24.8158 142.808,-19.5038"/>
<polygon fill="midnightblue" stroke="midnightblue" points="70.2594,-59.0719 63.5073,-67.2365 73.8772,-65.0646 70.2594,-59.0719"/>
</g>
<!-- Node3 -->
<g id="node3" class="node"><title>Node3</title>
<g id="a_node3"><a xlink:href="classResponseSink.html" target="_top" xlink:title="Abstract class for anything that can be sent a response. ">
<polygon fill="white" stroke="black" points="6.5,-134.5 6.5,-153.5 91.5,-153.5 91.5,-134.5 6.5,-134.5"/>
<text text-anchor="middle" x="49" y="-141.5" font-family="Helvetica,sans-Serif" font-size="10.00">ResponseSink</text>
</a>
</g>
</g>
<!-- Node3&#45;&gt;Node2 -->
<g id="edge2" class="edge"><title>Node3&#45;&gt;Node2</title>
<path fill="none" stroke="#9a32cd" stroke-dasharray="5,2" d="M49,-124.037C49,-111.67 49,-96.1198 49,-86.6273"/>
<polygon fill="#9a32cd" stroke="#9a32cd" points="45.5001,-124.234 49,-134.234 52.5001,-124.234 45.5001,-124.234"/>
<text text-anchor="middle" x="74.5" y="-108" font-family="Helvetica,sans-Serif" font-size="10.00"> push_sink</text>
</g>
<!-- Node4 -->
<g id="node4" class="node"><title>Node4</title>
<g id="a_node4"><a xlink:title="STL class. ">
<polygon fill="white" stroke="#bfbfbf" points="18,-201.5 18,-220.5 80,-220.5 80,-201.5 18,-201.5"/>
<text text-anchor="middle" x="49" y="-208.5" font-family="Helvetica,sans-Serif" font-size="10.00">std::string</text>
</a>
</g>
</g>
<!-- Node4&#45;&gt;Node3 -->
<g id="edge3" class="edge"><title>Node4&#45;&gt;Node3</title>
<path fill="none" stroke="#9a32cd" stroke-dasharray="5,2" d="M49,-191.037C49,-178.67 49,-163.12 49,-153.627"/>
<polygon fill="#9a32cd" stroke="#9a32cd" points="45.5001,-191.234 49,-201.234 52.5001,-191.234 45.5001,-191.234"/>
<text text-anchor="middle" x="74" y="-175" font-family="Helvetica,sans-Serif" font-size="10.00"> STRINGS</text>
</g>
<!-- Node5 -->
<g id="node5" class="node"><title>Node5</title>
<g id="a_node5"><a xlink:title="STL class. ">
<polygon fill="white" stroke="#bfbfbf" points="0,-258.5 0,-288.5 98,-288.5 98,-258.5 0,-258.5"/>
<text text-anchor="start" x="8" y="-276.5" font-family="Helvetica,sans-Serif" font-size="10.00">std::basic_string&lt;</text>
<text text-anchor="middle" x="49" y="-265.5" font-family="Helvetica,sans-Serif" font-size="10.00"> char &gt;</text>
</a>
</g>
</g>
<!-- Node5&#45;&gt;Node4 -->
<g id="edge4" class="edge"><title>Node5&#45;&gt;Node4</title>
<path fill="none" stroke="midnightblue" d="M49,-248.352C49,-238.513 49,-227.775 49,-220.54"/>
<polygon fill="midnightblue" stroke="midnightblue" points="45.5001,-248.468 49,-258.468 52.5001,-248.468 45.5001,-248.468"/>
</g>
<!-- Node6 -->
<g id="node6" class="node"><title>Node6</title>
<g id="a_node6"><a xlink:href="classAudio.html" target="_top" xlink:title="An audio item. ">
<polygon fill="white" stroke="black" points="138.5,-134.5 138.5,-153.5 181.5,-153.5 181.5,-134.5 138.5,-134.5"/>
<text text-anchor="middle" x="160" y="-141.5" font-family="Helvetica,sans-Serif" font-size="10.00">Audio</text>
</a>
</g>
</g>
<!-- Node6&#45;&gt;Node1 -->
<g id="edge5" class="edge"><title>Node6&#45;&gt;Node1</title>
<path fill="none" stroke="midnightblue" d="M153.839,-124.832C150.49,-113.992 146.694,-99.8728 145,-87 141.793,-62.6316 149.395,-34.031 153.925,-19.8708"/>
<polygon fill="midnightblue" stroke="midnightblue" points="150.531,-125.979 156.944,-134.413 157.19,-123.821 150.531,-125.979"/>
</g>
<!-- Node7 -->
<g id="node7" class="node"><title>Node7</title>
<polygon fill="white" stroke="#bfbfbf" points="154.5,-67.5 154.5,-86.5 283.5,-86.5 283.5,-67.5 154.5,-67.5"/>
<text text-anchor="middle" x="219" y="-74.5" font-family="Helvetica,sans-Serif" font-size="10.00">std::unique_ptr&lt; Audio &gt;</text>
</g>
<!-- Node6&#45;&gt;Node7 -->
<g id="edge7" class="edge"><title>Node6&#45;&gt;Node7</title>
<path fill="none" stroke="#9a32cd" stroke-dasharray="5,2" d="M174.855,-126.635C186.393,-113.923 201.937,-96.7978 211.169,-86.6273"/>
<polygon fill="#9a32cd" stroke="#9a32cd" points="172.086,-124.477 167.957,-134.234 177.27,-129.182 172.086,-124.477"/>
<text text-anchor="middle" x="202" y="-108" font-family="Helvetica,sans-Serif" font-size="10.00"> ptr</text>
</g>
<!-- Node7&#45;&gt;Node1 -->
<g id="edge6" class="edge"><title>Node7&#45;&gt;Node1</title>
<path fill="none" stroke="#9a32cd" stroke-dasharray="5,2" d="M203.735,-59.9968C191.577,-47.2496 175.023,-29.8947 165.229,-19.6273"/>
<polygon fill="#9a32cd" stroke="#9a32cd" points="201.204,-62.4134 210.638,-67.2338 206.269,-57.582 201.204,-62.4134"/>
<text text-anchor="middle" x="206.5" y="-41" font-family="Helvetica,sans-Serif" font-size="10.00"> audio</text>
</g>
<!-- Node8 -->
<g id="node8" class="node"><title>Node8</title>
<g id="a_node8"><a xlink:href="classAudioSystem.html" target="_top" xlink:title="An AudioSystem represents the entire audio stack used by playd. ">
<polygon fill="white" stroke="black" points="301.5,-67.5 301.5,-86.5 378.5,-86.5 378.5,-67.5 301.5,-67.5"/>
<text text-anchor="middle" x="340" y="-74.5" font-family="Helvetica,sans-Serif" font-size="10.00">AudioSystem</text>
</a>
</g>
</g>
<!-- Node8&#45;&gt;Node1 -->
<g id="edge8" class="edge"><title>Node8&#45;&gt;Node1</title>
<path fill="none" stroke="#9a32cd" stroke-dasharray="5,2" d="M306.036,-63.9363C269.733,-51.0417 213.094,-30.9243 181.11,-19.5637"/>
<polygon fill="#9a32cd" stroke="#9a32cd" points="305.104,-67.3195 315.699,-67.3685 307.447,-60.7233 305.104,-67.3195"/>
<text text-anchor="middle" x="294" y="-41" font-family="Helvetica,sans-Serif" font-size="10.00"> audio_system</text>
</g>
</g>
</svg>
