<?xml version="1.0" encoding="UTF-8" standalone="no"?>
<!DOCTYPE svg PUBLIC "-//W3C//DTD SVG 1.1//EN"
 "http://www.w3.org/Graphics/SVG/1.1/DTD/svg11.dtd">
<!-- Generated by graphviz version 2.36.0 (20140111.2315)
 -->
<!-- Title: Error Pages: 1 -->
<svg width="502pt" height="84pt"
 viewBox="0.00 0.00 502.00 84.00" xmlns="http://www.w3.org/2000/svg" xmlns:xlink="http://www.w3.org/1999/xlink">
<g id="graph0" class="graph" transform="scale(1 1) rotate(0) translate(4 80)">
<title>Error</title>
<polygon fill="white" stroke="none" points="-4,4 -4,-80 498,-80 498,4 -4,4"/>
<!-- Node0 -->
<g id="node1" class="node"><title>Node0</title>
<polygon fill="#bfbfbf" stroke="black" points="222,-56.5 222,-75.5 262,-75.5 262,-56.5 222,-56.5"/>
<text text-anchor="middle" x="242" y="-63.5" font-family="Helvetica,sans-Serif" font-size="10.00">Error</text>
</g>
<!-- Node1 -->
<g id="node2" class="node"><title>Node1</title>
<g id="a_node2"><a xlink:href="classConfigError.html" target="_top" xlink:title="An Error signifying that playd has been improperly configured. ">
<polygon fill="white" stroke="black" points="0,-0.5 0,-19.5 70,-19.5 70,-0.5 0,-0.5"/>
<text text-anchor="middle" x="35" y="-7.5" font-family="Helvetica,sans-Serif" font-size="10.00">ConfigError</text>
</a>
</g>
</g>
<!-- Node0&#45;&gt;Node1 -->
<g id="edge1" class="edge"><title>Node0&#45;&gt;Node1</title>
<path fill="none" stroke="midnightblue" d="M211.723,-57.1016C173.334,-47.087 107.394,-29.8854 67.8283,-19.5639"/>
<polygon fill="midnightblue" stroke="midnightblue" points="211.215,-60.5863 221.775,-59.7239 212.982,-53.813 211.215,-60.5863"/>
</g>
<!-- Node2 -->
<g id="node3" class="node"><title>Node2</title>
<g id="a_node3"><a xlink:href="classFileError.html" target="_top" xlink:title="An Error signifying that playd can&#39;t read a file. ">
<polygon fill="white" stroke="black" points="88.5,-0.5 88.5,-19.5 143.5,-19.5 143.5,-0.5 88.5,-0.5"/>
<text text-anchor="middle" x="116" y="-7.5" font-family="Helvetica,sans-Serif" font-size="10.00">FileError</text>
</a>
</g>
</g>
<!-- Node0&#45;&gt;Node2 -->
<g id="edge2" class="edge"><title>Node0&#45;&gt;Node2</title>
<path fill="none" stroke="midnightblue" d="M212.84,-52.503C189.219,-42.3795 156.572,-28.388 135.872,-19.5164"/>
<polygon fill="midnightblue" stroke="midnightblue" points="211.465,-55.7213 222.035,-56.4435 214.222,-49.2873 211.465,-55.7213"/>
</g>
<!-- Node3 -->
<g id="node4" class="node"><title>Node3</title>
<g id="a_node4"><a xlink:href="classInternalError.html" target="_top" xlink:title="An Error signifying that playd has hit an internal snag. ">
<polygon fill="white" stroke="black" points="162,-0.5 162,-19.5 238,-19.5 238,-0.5 162,-0.5"/>
<text text-anchor="middle" x="200" y="-7.5" font-family="Helvetica,sans-Serif" font-size="10.00">InternalError</text>
</a>
</g>
</g>
<!-- Node0&#45;&gt;Node3 -->
<g id="edge3" class="edge"><title>Node0&#45;&gt;Node3</title>
<path fill="none" stroke="midnightblue" d="M228.89,-48.144C221.572,-38.7357 212.759,-27.4046 206.806,-19.7511"/>
<polygon fill="midnightblue" stroke="midnightblue" points="226.162,-50.3383 235.065,-56.083 231.688,-46.0406 226.162,-50.3383"/>
</g>
<!-- Node4 -->
<g id="node5" class="node"><title>Node4</title>
<g id="a_node5"><a xlink:href="classNetError.html" target="_top" xlink:title="A network error. ">
<polygon fill="white" stroke="black" points="256.5,-0.5 256.5,-19.5 313.5,-19.5 313.5,-0.5 256.5,-0.5"/>
<text text-anchor="middle" x="285" y="-7.5" font-family="Helvetica,sans-Serif" font-size="10.00">NetError</text>
</a>
</g>
</g>
<!-- Node0&#45;&gt;Node4 -->
<g id="edge4" class="edge"><title>Node0&#45;&gt;Node4</title>
<path fill="none" stroke="midnightblue" d="M255.422,-48.144C262.914,-38.7357 271.937,-27.4046 278.032,-19.7511"/>
<polygon fill="midnightblue" stroke="midnightblue" points="252.592,-46.0799 249.101,-56.083 258.068,-50.4404 252.592,-46.0799"/>
</g>
<!-- Node5 -->
<g id="node6" class="node"><title>Node5</title>
<g id="a_node6"><a xlink:href="classNoAudioError.html" target="_top" xlink:title="An Error signifying that no audio is loaded. ">
<polygon fill="white" stroke="black" points="332,-0.5 332,-19.5 412,-19.5 412,-0.5 332,-0.5"/>
<text text-anchor="middle" x="372" y="-7.5" font-family="Helvetica,sans-Serif" font-size="10.00">NoAudioError</text>
</a>
</g>
</g>
<!-- Node0&#45;&gt;Node5 -->
<g id="edge5" class="edge"><title>Node0&#45;&gt;Node5</title>
<path fill="none" stroke="midnightblue" d="M271.486,-52.7521C295.829,-42.6403 329.761,-28.5453 351.305,-19.5966"/>
<polygon fill="midnightblue" stroke="midnightblue" points="269.92,-49.6125 262.028,-56.6808 272.605,-56.077 269.92,-49.6125"/>
</g>
<!-- Node6 -->
<g id="node7" class="node"><title>Node6</title>
<g id="a_node7"><a xlink:href="classSeekError.html" target="_top" xlink:title="An Error signifying that playd can&#39;t seek in a file. ">
<polygon fill="white" stroke="black" points="430,-0.5 430,-19.5 494,-19.5 494,-0.5 430,-0.5"/>
<text text-anchor="middle" x="462" y="-7.5" font-family="Helvetica,sans-Serif" font-size="10.00">SeekError</text>
</a>
</g>
</g>
<!-- Node0&#45;&gt;Node6 -->
<g id="edge6" class="edge"><title>Node0&#45;&gt;Node6</title>
<path fill="none" stroke="midnightblue" d="M272.061,-57.6215C313.365,-47.483 387.362,-29.3204 429.775,-18.9099"/>
<polygon fill="midnightblue" stroke="midnightblue" points="271.18,-54.2336 262.303,-60.0166 272.849,-61.0318 271.18,-54.2336"/>
</g>
</g>
</svg>
