<?xml version="1.0" encoding="UTF-8" standalone="no"?>
<!DOCTYPE svg PUBLIC "-//W3C//DTD SVG 1.1//EN"
 "http://www.w3.org/Graphics/SVG/1.1/DTD/svg11.dtd">
<!-- Generated by graphviz version 2.38.0 (20140413.2041)
 -->
<!-- Title: Playd Pages: 1 -->
<!--zoomable 686 -->
<svg id="main" version="1.1" xmlns="http://www.w3.org/2000/svg" xmlns:xlink="http://www.w3.org/1999/xlink" xml:space="preserve" onload="init(evt)">
<style type="text/css"><![CDATA[
.edge:hover path { stroke: red; }
.edge:hover polygon { stroke: red; fill: red; }
]]></style>
<script type="text/javascript"><![CDATA[
var edges = document.getElementsByTagName('g');
if (edges && edges.length) {
  for (var i=0;i<edges.length;i++) {
    if (edges[i].id.substr(0,4)=='edge') {
      edges[i].setAttribute('class','edge');
    }
  }
}
]]></script>
        <defs>
                <circle id="rim" cx="0" cy="0" r="7"/>
                <circle id="rim2" cx="0" cy="0" r="3.5"/>
                <g id="zoomPlus">
                        <use xlink:href="#rim" fill="#404040">
                                <set attributeName="fill" to="#808080" begin="zoomplus.mouseover" end="zoomplus.mouseout"/>
                        </use>
                        <path d="M-4,0h8M0,-4v8" fill="none" stroke="white" stroke-width="1.5" pointer-events="none"/>
                </g>
                <g id="zoomMin">
                        <use xlink:href="#rim" fill="#404040">
                                <set attributeName="fill" to="#808080" begin="zoomminus.mouseover" end="zoomminus.mouseout"/>
                        </use>
                        <path d="M-4,0h8" fill="none" stroke="white" stroke-width="1.5" pointer-events="none"/>
                </g>
                <g id="dirArrow">
                        <path fill="none" stroke="white" stroke-width="1.5" d="M0,-3.0v7 M-2.5,-0.5L0,-3.0L2.5,-0.5"/>
                </g>
               <g id="resetDef">
                       <use xlink:href="#rim2" fill="#404040">
                               <set attributeName="fill" to="#808080" begin="reset.mouseover" end="reset.mouseout"/>
                       </use>
               </g>
        </defs>

<script type="text/javascript">
var viewWidth = 1985;
var viewHeight = 686;
var sectionId = 'dynsection-1';
</script>
<script xlink:href="svgpan.js"/>
<svg id="graph" class="graph">
<g id="viewport">
<title>Playd</title>
<polygon fill="white" stroke="none" points="-4,4 -4,-682.393 1981,-682.393 1981,4 -4,4"/>
<!-- Node1 -->
<g id="node1" class="node"><title>Node1</title>
<polygon fill="#bfbfbf" stroke="black" points="1894,-216.893 1894,-235.893 1937,-235.893 1937,-216.893 1894,-216.893"/>
<text text-anchor="middle" x="1915.5" y="-223.893" font-family="Helvetica,sans-Serif" font-size="10.00">Playd</text>
</g>
<!-- Node2 -->
<g id="node2" class="node"><title>Node2</title>
<g id="a_node2"><a xlink:href="classResponseSink.html" target="_top" xlink:title="Abstract class for anything that can be sent a response. ">
<polygon fill="white" stroke="black" points="283,-333.893 283,-352.893 368,-352.893 368,-333.893 283,-333.893"/>
<text text-anchor="middle" x="325.5" y="-340.893" font-family="Helvetica,sans-Serif" font-size="10.00">ResponseSink</text>
</a>
</g>
</g>
<!-- Node2&#45;&gt;Node1 -->
<g id="edge1" class="edge"><title>Node2&#45;&gt;Node1</title>
<path fill="none" stroke="midnightblue" d="M346.96,-327.115C370.086,-308.227 408.249,-275.544 437,-243.393 446.127,-233.187 444.18,-226.782 455,-218.393 542.856,-150.269 579.422,-151.275 688,-127.393 967.186,-65.9847 1044.14,-88.3928 1330,-88.3928 1330,-88.3928 1330,-88.3928 1694.5,-88.3928 1790.99,-88.3928 1879.89,-184.826 1906.47,-216.468"/>
<polygon fill="midnightblue" stroke="midnightblue" points="344.457,-324.638 338.884,-333.649 348.86,-330.08 344.457,-324.638"/>
</g>
<!-- Node7 -->
<g id="node7" class="node"><title>Node7</title>
<g id="a_node7"><a xlink:href="classConnectionPool.html" target="_top" xlink:title="A pool of TCP connections. ">
<polygon fill="white" stroke="black" points="1285,-389.893 1285,-408.893 1377,-408.893 1377,-389.893 1285,-389.893"/>
<text text-anchor="middle" x="1331" y="-396.893" font-family="Helvetica,sans-Serif" font-size="10.00">ConnectionPool</text>
</a>
</g>
</g>
<!-- Node2&#45;&gt;Node7 -->
<g id="edge7" class="edge"><title>Node2&#45;&gt;Node7</title>
<path fill="none" stroke="midnightblue" d="M345.079,-359.688C377.747,-386.599 448.658,-437.393 518.5,-437.393 518.5,-437.393 518.5,-437.393 1061,-437.393 1142.12,-437.393 1235.67,-420.239 1288.32,-408.982"/>
<polygon fill="midnightblue" stroke="midnightblue" points="347.166,-356.869 337.265,-353.098 342.654,-362.221 347.166,-356.869"/>
</g>
<!-- Node10 -->
<g id="node10" class="node"><title>Node10</title>
<g id="a_node10"><a xlink:href="classConnection.html" target="_top" xlink:title="A TCP connection from a client. ">
<polygon fill="white" stroke="black" points="1447,-452.893 1447,-471.893 1518,-471.893 1518,-452.893 1447,-452.893"/>
<text text-anchor="middle" x="1482.5" y="-459.893" font-family="Helvetica,sans-Serif" font-size="10.00">Connection</text>
</a>
</g>
</g>
<!-- Node2&#45;&gt;Node10 -->
<g id="edge11" class="edge"><title>Node2&#45;&gt;Node10</title>
<path fill="none" stroke="midnightblue" d="M337.926,-361.951C348.743,-378.372 366.237,-402.176 386,-418.393 437.17,-460.38 452.309,-486.393 518.5,-486.393 518.5,-486.393 518.5,-486.393 1332,-486.393 1371.69,-486.393 1416.57,-478.043 1446.71,-471.193"/>
<polygon fill="midnightblue" stroke="midnightblue" points="340.698,-359.789 332.362,-353.25 334.8,-363.56 340.698,-359.789"/>
</g>
<!-- Node15 -->
<g id="node15" class="node"><title>Node15</title>
<g id="a_node15"><a xlink:href="classPlayer.html" target="_top" xlink:title="A Player contains a loaded audio file and the state of its playback. ">
<polygon fill="white" stroke="black" points="938,-304.893 938,-323.893 985,-323.893 985,-304.893 938,-304.893"/>
<text text-anchor="middle" x="961.5" y="-311.893" font-family="Helvetica,sans-Serif" font-size="10.00">Player</text>
</a>
</g>
</g>
<!-- Node2&#45;&gt;Node15 -->
<g id="edge21" class="edge"><title>Node2&#45;&gt;Node15</title>
<path fill="none" stroke="#9a32cd" stroke-dasharray="5,2" d="M378.243,-344.31C477.945,-345.531 703.488,-345.638 892,-326.393 907.374,-324.823 924.499,-321.823 937.781,-319.216"/>
<polygon fill="#9a32cd" stroke="#9a32cd" points="378.184,-340.809 368.138,-344.177 378.091,-347.809 378.184,-340.809"/>
<text text-anchor="middle" x="636" y="-346.393" font-family="Helvetica,sans-Serif" font-size="10.00"> end_sink</text>
</g>
<!-- Node17 -->
<g id="node17" class="node"><title>Node17</title>
<g id="a_node17"><a xlink:href="classResponseSource.html" target="_top" xlink:title="Abstract helper class for sources of responses. ">
<polygon fill="white" stroke="black" points="470.5,-285.893 470.5,-304.893 568.5,-304.893 568.5,-285.893 470.5,-285.893"/>
<text text-anchor="middle" x="519.5" y="-292.893" font-family="Helvetica,sans-Serif" font-size="10.00">ResponseSource</text>
</a>
</g>
</g>
<!-- Node2&#45;&gt;Node17 -->
<g id="edge24" class="edge"><title>Node2&#45;&gt;Node17</title>
<path fill="none" stroke="#9a32cd" stroke-dasharray="5,2" d="M355.603,-329.618C365.126,-325.532 375.864,-321.36 386,-318.393 413.448,-310.356 444.967,-304.745 470.376,-301.077"/>
<polygon fill="#9a32cd" stroke="#9a32cd" points="353.917,-326.537 346.196,-333.792 356.756,-332.936 353.917,-326.537"/>
<text text-anchor="middle" x="411.5" y="-321.393" font-family="Helvetica,sans-Serif" font-size="10.00"> push_sink</text>
</g>
<!-- Node3 -->
<g id="node3" class="node"><title>Node3</title>
<g id="a_node3"><a xlink:title="STL class. ">
<polygon fill="white" stroke="#bfbfbf" points="135,-333.893 135,-352.893 197,-352.893 197,-333.893 135,-333.893"/>
<text text-anchor="middle" x="166" y="-340.893" font-family="Helvetica,sans-Serif" font-size="10.00">std::string</text>
</a>
</g>
</g>
<!-- Node3&#45;&gt;Node2 -->
<g id="edge2" class="edge"><title>Node3&#45;&gt;Node2</title>
<path fill="none" stroke="#9a32cd" stroke-dasharray="5,2" d="M207.546,-343.393C230.677,-343.393 259.611,-343.393 282.913,-343.393"/>
<polygon fill="#9a32cd" stroke="#9a32cd" points="207.368,-339.893 197.368,-343.393 207.368,-346.893 207.368,-339.893"/>
<text text-anchor="middle" x="240" y="-346.393" font-family="Helvetica,sans-Serif" font-size="10.00"> STRINGS</text>
</g>
<!-- Node11 -->
<g id="node11" class="node"><title>Node11</title>
<g id="a_node11"><a xlink:href="classTokeniser.html" target="_top" xlink:title="A string tokeniser. ">
<polygon fill="white" stroke="black" points="1126,-592.893 1126,-611.893 1190,-611.893 1190,-592.893 1126,-592.893"/>
<text text-anchor="middle" x="1158" y="-599.893" font-family="Helvetica,sans-Serif" font-size="10.00">Tokeniser</text>
</a>
</g>
</g>
<!-- Node3&#45;&gt;Node11 -->
<g id="edge13" class="edge"><title>Node3&#45;&gt;Node11</title>
<path fill="none" stroke="#9a32cd" stroke-dasharray="5,2" d="M167.389,-363.272C169.912,-433.738 188.531,-667.393 324.5,-667.393 324.5,-667.393 324.5,-667.393 962.5,-667.393 1031.57,-667.393 1107.65,-630.065 1140.45,-611.984"/>
<polygon fill="#9a32cd" stroke="#9a32cd" points="170.882,-362.986 167.099,-353.089 163.885,-363.185 170.882,-362.986"/>
<text text-anchor="middle" x="636" y="-670.393" font-family="Helvetica,sans-Serif" font-size="10.00"> current_word</text>
</g>
<!-- Node13 -->
<g id="node13" class="node"><title>Node13</title>
<polygon fill="white" stroke="#bfbfbf" points="688,-534.893 688,-553.893 816,-553.893 816,-534.893 688,-534.893"/>
<text text-anchor="middle" x="752" y="-541.893" font-family="Helvetica,sans-Serif" font-size="10.00">std::vector&lt; std::string &gt;</text>
</g>
<!-- Node3&#45;&gt;Node13 -->
<g id="edge16" class="edge"><title>Node3&#45;&gt;Node13</title>
<path fill="none" stroke="#9a32cd" stroke-dasharray="5,2" d="M183.716,-360.08C218.128,-393.281 300.833,-467.264 386,-500.393 486.381,-539.439 613.023,-546.127 687.687,-546.15"/>
<polygon fill="#9a32cd" stroke="#9a32cd" points="185.992,-357.411 176.394,-352.924 181.099,-362.417 185.992,-357.411"/>
<text text-anchor="middle" x="411.5" y="-520.393" font-family="Helvetica,sans-Serif" font-size="10.00"> elements</text>
</g>
<!-- Node21 -->
<g id="node21" class="node"><title>Node21</title>
<g id="a_node21"><a xlink:href="classPlayerState.html" target="_top" xlink:title="An object holding and representing the current state of a Player. ">
<polygon fill="white" stroke="black" points="716.5,-136.893 716.5,-155.893 787.5,-155.893 787.5,-136.893 716.5,-136.893"/>
<text text-anchor="middle" x="752" y="-143.893" font-family="Helvetica,sans-Serif" font-size="10.00">PlayerState</text>
</a>
</g>
</g>
<!-- Node3&#45;&gt;Node21 -->
<g id="edge32" class="edge"><title>Node3&#45;&gt;Node21</title>
<path fill="none" stroke="#9a32cd" stroke-dasharray="5,2" d="M175.773,-324.487C191.892,-292.154 229.537,-226.876 283,-197.393 427.391,-117.765 634.862,-131.969 716.31,-141.565"/>
<polygon fill="#9a32cd" stroke="#9a32cd" points="172.501,-323.213 171.303,-333.74 178.804,-326.258 172.501,-323.213"/>
<text text-anchor="middle" x="411.5" y="-160.393" font-family="Helvetica,sans-Serif" font-size="10.00"> STRINGS</text>
</g>
<!-- Node23 -->
<g id="node23" class="node"><title>Node23</title>
<g id="a_node23"><a xlink:href="classPaSoxAudioSystem.html" target="_top" xlink:title="Implementation of AudioSystem using libsox and PortAudio. ">
<polygon fill="white" stroke="black" points="698,-25.8928 698,-44.8928 806,-44.8928 806,-25.8928 698,-25.8928"/>
<text text-anchor="middle" x="752" y="-32.8928" font-family="Helvetica,sans-Serif" font-size="10.00">PaSoxAudioSystem</text>
</a>
</g>
</g>
<!-- Node3&#45;&gt;Node23 -->
<g id="edge42" class="edge"><title>Node3&#45;&gt;Node23</title>
<path fill="none" stroke="#9a32cd" stroke-dasharray="5,2" d="M170.377,-323.371C175.898,-295.154 188.954,-243.047 215,-206.393 293.964,-95.2687 326.305,-60.3528 455,-15.3928 547.629,16.9674 666.309,-9.90837 720.975,-25.7796"/>
<polygon fill="#9a32cd" stroke="#9a32cd" points="166.868,-323.104 168.51,-333.57 173.753,-324.364 166.868,-323.104"/>
<text text-anchor="middle" x="411.5" y="-46.3928" font-family="Helvetica,sans-Serif" font-size="10.00"> device_id</text>
</g>
<!-- Node4 -->
<g id="node4" class="node"><title>Node4</title>
<g id="a_node4"><a xlink:title="STL class. ">
<polygon fill="white" stroke="#bfbfbf" points="0,-328.393 0,-358.393 98,-358.393 98,-328.393 0,-328.393"/>
<text text-anchor="start" x="8" y="-346.393" font-family="Helvetica,sans-Serif" font-size="10.00">std::basic_string&lt;</text>
<text text-anchor="middle" x="49" y="-335.393" font-family="Helvetica,sans-Serif" font-size="10.00"> char &gt;</text>
</a>
</g>
</g>
<!-- Node4&#45;&gt;Node3 -->
<g id="edge3" class="edge"><title>Node4&#45;&gt;Node3</title>
<path fill="none" stroke="midnightblue" d="M108.389,-343.393C117.53,-343.393 126.642,-343.393 134.799,-343.393"/>
<polygon fill="midnightblue" stroke="midnightblue" points="108.104,-339.893 98.104,-343.393 108.104,-346.893 108.104,-339.893"/>
</g>
<!-- Node5 -->
<g id="node5" class="node"><title>Node5</title>
<polygon fill="white" stroke="#bfbfbf" points="1626,-338.893 1626,-357.893 1761,-357.893 1761,-338.893 1626,-338.893"/>
<text text-anchor="middle" x="1693.5" y="-345.893" font-family="Helvetica,sans-Serif" font-size="10.00">std::unique_ptr&lt; IoCore &gt;</text>
</g>
<!-- Node5&#45;&gt;Node1 -->
<g id="edge4" class="edge"><title>Node5&#45;&gt;Node1</title>
<path fill="none" stroke="#9a32cd" stroke-dasharray="5,2" d="M1771.31,-345.57C1793.35,-342.131 1816.63,-335.786 1836,-324.393 1873.02,-302.619 1899.55,-256.323 1909.81,-236.14"/>
<polygon fill="#9a32cd" stroke="#9a32cd" points="1770.72,-342.118 1761.29,-346.953 1771.68,-349.052 1770.72,-342.118"/>
<text text-anchor="middle" x="1813" y="-344.393" font-family="Helvetica,sans-Serif" font-size="10.00"> io</text>
</g>
<!-- Node6 -->
<g id="node6" class="node"><title>Node6</title>
<g id="a_node6"><a xlink:href="classIoCore.html" target="_top" xlink:title="The IO core, which services input, routes responses, and executes the Player update routine periodica...">
<polygon fill="white" stroke="black" points="1458,-339.893 1458,-358.893 1507,-358.893 1507,-339.893 1458,-339.893"/>
<text text-anchor="middle" x="1482.5" y="-346.893" font-family="Helvetica,sans-Serif" font-size="10.00">IoCore</text>
</a>
</g>
</g>
<!-- Node6&#45;&gt;Node5 -->
<g id="edge5" class="edge"><title>Node6&#45;&gt;Node5</title>
<path fill="none" stroke="#9a32cd" stroke-dasharray="5,2" d="M1517.17,-349.232C1546.39,-349.092 1589.59,-348.885 1625.79,-348.712"/>
<polygon fill="#9a32cd" stroke="#9a32cd" points="1517.05,-345.732 1507.07,-349.28 1517.09,-352.732 1517.05,-345.732"/>
<text text-anchor="middle" x="1566.5" y="-352.393" font-family="Helvetica,sans-Serif" font-size="10.00"> ptr</text>
</g>
<!-- Node7&#45;&gt;Node6 -->
<g id="edge6" class="edge"><title>Node7&#45;&gt;Node6</title>
<path fill="none" stroke="#9a32cd" stroke-dasharray="5,2" d="M1368.44,-386.508C1377.13,-383.48 1386.38,-380.291 1395,-377.393 1416.24,-370.246 1440.53,-362.413 1457.96,-356.853"/>
<polygon fill="#9a32cd" stroke="#9a32cd" points="1367.21,-383.229 1358.93,-389.836 1369.53,-389.836 1367.21,-383.229"/>
<text text-anchor="middle" x="1412" y="-380.393" font-family="Helvetica,sans-Serif" font-size="10.00"> pool</text>
</g>
<!-- Node7&#45;&gt;Node10 -->
<g id="edge18" class="edge"><title>Node7&#45;&gt;Node10</title>
<path fill="none" stroke="#9a32cd" stroke-dasharray="5,2" d="M1368.48,-412.371C1386.81,-419.128 1409.26,-427.764 1429,-436.393 1440.56,-441.445 1453.23,-447.703 1463.24,-452.813"/>
<polygon fill="#9a32cd" stroke="#9a32cd" points="1369.63,-409.065 1359.04,-408.922 1367.23,-415.64 1369.63,-409.065"/>
<text text-anchor="middle" x="1412" y="-439.393" font-family="Helvetica,sans-Serif" font-size="10.00"> parent</text>
</g>
<!-- Node8 -->
<g id="node8" class="node"><title>Node8</title>
<polygon fill="white" stroke="#bfbfbf" points="1854,-426.393 1854,-456.393 1977,-456.393 1977,-426.393 1854,-426.393"/>
<text text-anchor="start" x="1862" y="-444.393" font-family="Helvetica,sans-Serif" font-size="10.00">std::vector&lt; std::unique</text>
<text text-anchor="middle" x="1915.5" y="-433.393" font-family="Helvetica,sans-Serif" font-size="10.00">_ptr&lt; Connection &gt; &gt;</text>
</g>
<!-- Node8&#45;&gt;Node7 -->
<g id="edge8" class="edge"><title>Node8&#45;&gt;Node7</title>
<path fill="none" stroke="#9a32cd" stroke-dasharray="5,2" d="M1843.64,-436.283C1722.31,-427.535 1478.13,-409.929 1377.22,-402.654"/>
<polygon fill="#9a32cd" stroke="#9a32cd" points="1843.7,-439.797 1853.93,-437.025 1844.2,-432.815 1843.7,-439.797"/>
<text text-anchor="middle" x="1566.5" y="-422.393" font-family="Helvetica,sans-Serif" font-size="10.00"> connections</text>
</g>
<!-- Node9 -->
<g id="node9" class="node"><title>Node9</title>
<polygon fill="white" stroke="#bfbfbf" points="1615,-452.893 1615,-471.893 1772,-471.893 1772,-452.893 1615,-452.893"/>
<text text-anchor="middle" x="1693.5" y="-459.893" font-family="Helvetica,sans-Serif" font-size="10.00">std::unique_ptr&lt; Connection &gt;</text>
</g>
<!-- Node9&#45;&gt;Node8 -->
<g id="edge9" class="edge"><title>Node9&#45;&gt;Node8</title>
<path fill="none" stroke="#9a32cd" stroke-dasharray="5,2" d="M1782.25,-454.017C1806.26,-451.725 1831.74,-449.292 1853.87,-447.18"/>
<polygon fill="#9a32cd" stroke="#9a32cd" points="1781.69,-450.554 1772.06,-454.989 1782.35,-457.523 1781.69,-450.554"/>
<text text-anchor="middle" x="1813" y="-456.393" font-family="Helvetica,sans-Serif" font-size="10.00"> elements</text>
</g>
<!-- Node10&#45;&gt;Node9 -->
<g id="edge10" class="edge"><title>Node10&#45;&gt;Node9</title>
<path fill="none" stroke="#9a32cd" stroke-dasharray="5,2" d="M1528.03,-462.393C1553.3,-462.393 1585.65,-462.393 1614.96,-462.393"/>
<polygon fill="#9a32cd" stroke="#9a32cd" points="1528.01,-458.893 1518.01,-462.393 1528.01,-465.893 1528.01,-458.893"/>
<text text-anchor="middle" x="1566.5" y="-465.393" font-family="Helvetica,sans-Serif" font-size="10.00"> ptr</text>
</g>
<!-- Node11&#45;&gt;Node10 -->
<g id="edge12" class="edge"><title>Node11&#45;&gt;Node10</title>
<path fill="none" stroke="#9a32cd" stroke-dasharray="5,2" d="M1187.84,-588.497C1213.14,-576.568 1251.08,-559.305 1285,-546.393 1347.79,-522.492 1369.03,-530.692 1429,-500.393 1444.47,-492.578 1460.32,-480.414 1470.5,-471.962"/>
<polygon fill="#9a32cd" stroke="#9a32cd" points="1186.33,-585.338 1178.8,-592.788 1189.33,-591.663 1186.33,-585.338"/>
<text text-anchor="middle" x="1331" y="-549.393" font-family="Helvetica,sans-Serif" font-size="10.00"> tokeniser</text>
</g>
<!-- Node12 -->
<g id="node12" class="node"><title>Node12</title>
<polygon fill="white" stroke="#bfbfbf" points="910,-572.893 910,-591.893 1013,-591.893 1013,-572.893 910,-572.893"/>
<text text-anchor="middle" x="961.5" y="-579.893" font-family="Helvetica,sans-Serif" font-size="10.00">std::vector&lt; Line &gt;</text>
</g>
<!-- Node12&#45;&gt;Node11 -->
<g id="edge14" class="edge"><title>Node12&#45;&gt;Node11</title>
<path fill="none" stroke="#9a32cd" stroke-dasharray="5,2" d="M1023.4,-588.655C1057.38,-592.149 1098.28,-596.355 1125.81,-599.185"/>
<polygon fill="#9a32cd" stroke="#9a32cd" points="1023.4,-585.137 1013.09,-587.595 1022.68,-592.1 1023.4,-585.137"/>
<text text-anchor="middle" x="1060" y="-597.393" font-family="Helvetica,sans-Serif" font-size="10.00"> ready_lines</text>
</g>
<!-- Node13&#45;&gt;Node1 -->
<g id="edge44" class="edge"><title>Node13&#45;&gt;Node1</title>
<path fill="none" stroke="#9a32cd" stroke-dasharray="5,2" d="M826.397,-548.105C979.897,-555.552 1324.97,-570.521 1377,-557.393 1446.03,-539.974 1463.58,-527.285 1518,-481.393 1527.92,-473.025 1525.41,-465.906 1536,-458.393 1650.84,-376.882 1726.29,-444.687 1836,-356.393 1877.9,-322.672 1902.87,-260.142 1911.29,-236.131"/>
<polygon fill="#9a32cd" stroke="#9a32cd" points="826.284,-544.595 816.125,-547.604 825.943,-551.587 826.284,-544.595"/>
<text text-anchor="middle" x="1331" y="-566.393" font-family="Helvetica,sans-Serif" font-size="10.00"> argv</text>
</g>
<!-- Node13&#45;&gt;Node11 -->
<g id="edge17" class="edge"><title>Node13&#45;&gt;Node11</title>
<path fill="none" stroke="#9a32cd" stroke-dasharray="5,2" d="M778.573,-558.988C794.182,-567.394 814.772,-577.604 834,-584.393 935.683,-620.291 1066.53,-612.467 1125.6,-606.311"/>
<polygon fill="#9a32cd" stroke="#9a32cd" points="780.004,-555.781 769.555,-554.035 776.634,-561.917 780.004,-555.781"/>
<text text-anchor="middle" x="961.5" y="-614.393" font-family="Helvetica,sans-Serif" font-size="10.00"> words</text>
</g>
<!-- Node13&#45;&gt;Node12 -->
<g id="edge15" class="edge"><title>Node13&#45;&gt;Node12</title>
<path fill="none" stroke="#9a32cd" stroke-dasharray="5,2" d="M815.114,-555.768C845.357,-561.306 881.26,-567.881 909.82,-573.112"/>
<polygon fill="#9a32cd" stroke="#9a32cd" points="815.56,-552.291 805.093,-553.933 814.299,-559.177 815.56,-552.291"/>
<text text-anchor="middle" x="863" y="-572.393" font-family="Helvetica,sans-Serif" font-size="10.00"> elements</text>
</g>
<!-- Node13&#45;&gt;Node15 -->
<g id="edge29" class="edge"><title>Node13&#45;&gt;Node15</title>
<path fill="none" stroke="#9a32cd" stroke-dasharray="5,2" d="M768.464,-527.252C809.462,-481.808 919.979,-359.307 951.811,-324.024"/>
<polygon fill="#9a32cd" stroke="#9a32cd" points="765.752,-525.033 761.652,-534.803 770.949,-529.722 765.752,-525.033"/>
<text text-anchor="middle" x="863" y="-453.393" font-family="Helvetica,sans-Serif" font-size="10.00"> FEATURES</text>
</g>
<!-- Node14 -->
<g id="node14" class="node"><title>Node14</title>
<g id="a_node14"><a xlink:href="classCommandHandler.html" target="_top" xlink:title="The playd command handler. ">
<polygon fill="white" stroke="black" points="1107,-342.893 1107,-361.893 1209,-361.893 1209,-342.893 1107,-342.893"/>
<text text-anchor="middle" x="1158" y="-349.893" font-family="Helvetica,sans-Serif" font-size="10.00">CommandHandler</text>
</a>
</g>
</g>
<!-- Node14&#45;&gt;Node1 -->
<g id="edge45" class="edge"><title>Node14&#45;&gt;Node1</title>
<path fill="none" stroke="#9a32cd" stroke-dasharray="5,2" d="M1190.95,-339.211C1202.17,-335.095 1214.97,-330.964 1227,-328.393 1492.58,-271.619 1579.38,-367.291 1836,-278.393 1862.88,-269.082 1889.48,-248.405 1903.77,-236.115"/>
<polygon fill="#9a32cd" stroke="#9a32cd" points="1189.66,-335.957 1181.55,-342.784 1192.15,-342.499 1189.66,-335.957"/>
<text text-anchor="middle" x="1482.5" y="-317.393" font-family="Helvetica,sans-Serif" font-size="10.00"> handler</text>
</g>
<!-- Node14&#45;&gt;Node7 -->
<g id="edge36" class="edge"><title>Node14&#45;&gt;Node7</title>
<path fill="none" stroke="#9a32cd" stroke-dasharray="5,2" d="M1219.35,-361.926C1235.02,-364.999 1251.77,-368.819 1267,-373.393 1281.62,-377.783 1297.5,-384.35 1309.66,-389.786"/>
<polygon fill="#9a32cd" stroke="#9a32cd" points="1219.72,-358.433 1209.24,-360.014 1218.42,-365.311 1219.72,-358.433"/>
<text text-anchor="middle" x="1247" y="-376.393" font-family="Helvetica,sans-Serif" font-size="10.00"> handler</text>
</g>
<!-- Node14&#45;&gt;Node10 -->
<g id="edge19" class="edge"><title>Node14&#45;&gt;Node10</title>
<path fill="none" stroke="#9a32cd" stroke-dasharray="5,2" d="M1193.45,-366.208C1198.77,-368.721 1204.11,-371.478 1209,-374.393 1217.7,-379.584 1218.46,-382.931 1227,-388.393 1251.45,-404.034 1257.92,-407.964 1285,-418.393 1332.18,-436.561 1345.6,-436.619 1395,-447.393 1411.98,-451.095 1430.99,-454.475 1446.85,-457.085"/>
<polygon fill="#9a32cd" stroke="#9a32cd" points="1194.57,-362.874 1184.02,-361.967 1191.7,-369.259 1194.57,-362.874"/>
<text text-anchor="middle" x="1331" y="-447.393" font-family="Helvetica,sans-Serif" font-size="10.00"> handler</text>
</g>
<!-- Node15&#45;&gt;Node1 -->
<g id="edge43" class="edge"><title>Node15&#45;&gt;Node1</title>
<path fill="none" stroke="#9a32cd" stroke-dasharray="5,2" d="M995.5,-312.694C1111.28,-306.502 1509.65,-283.226 1836,-240.393 1855.77,-237.799 1878.13,-233.693 1893.92,-230.598"/>
<polygon fill="#9a32cd" stroke="#9a32cd" points="994.99,-309.216 985.189,-313.24 995.36,-316.206 994.99,-309.216"/>
<text text-anchor="middle" x="1412" y="-288.393" font-family="Helvetica,sans-Serif" font-size="10.00"> player</text>
</g>
<!-- Node15&#45;&gt;Node6 -->
<g id="edge37" class="edge"><title>Node15&#45;&gt;Node6</title>
<path fill="none" stroke="#9a32cd" stroke-dasharray="5,2" d="M995.19,-316.597C1091.75,-323.109 1374.16,-342.154 1457.86,-347.798"/>
<polygon fill="#9a32cd" stroke="#9a32cd" points="995.347,-313.1 985.135,-315.919 994.876,-320.084 995.347,-313.1"/>
<text text-anchor="middle" x="1247" y="-338.393" font-family="Helvetica,sans-Serif" font-size="10.00"> player</text>
</g>
<!-- Node15&#45;&gt;Node7 -->
<g id="edge35" class="edge"><title>Node15&#45;&gt;Node7</title>
<path fill="none" stroke="#9a32cd" stroke-dasharray="5,2" d="M984.708,-329.728C997.698,-338.082 1014.7,-347.991 1031,-354.393 1116.5,-387.98 1224.83,-396.676 1284.82,-398.816"/>
<polygon fill="#9a32cd" stroke="#9a32cd" points="986.299,-326.585 976.026,-323.993 982.44,-332.425 986.299,-326.585"/>
<text text-anchor="middle" x="1158" y="-396.393" font-family="Helvetica,sans-Serif" font-size="10.00"> player</text>
</g>
<!-- Node15&#45;&gt;Node14 -->
<g id="edge20" class="edge"><title>Node15&#45;&gt;Node14</title>
<path fill="none" stroke="#9a32cd" stroke-dasharray="5,2" d="M994.969,-321.121C1006.36,-323.457 1019.24,-326.071 1031,-328.393 1056.01,-333.331 1083.86,-338.653 1107,-343.028"/>
<polygon fill="#9a32cd" stroke="#9a32cd" points="995.507,-317.659 985.007,-319.072 994.096,-324.515 995.507,-317.659"/>
<text text-anchor="middle" x="1060" y="-342.393" font-family="Helvetica,sans-Serif" font-size="10.00"> player</text>
</g>
<!-- Node16 -->
<g id="node16" class="node"><title>Node16</title>
<g id="a_node16"><a xlink:href="classPlayerFile.html" target="_top" xlink:title="The subcomponent of a Player that stores the audio file. ">
<polygon fill="white" stroke="black" points="720.5,-206.893 720.5,-225.893 783.5,-225.893 783.5,-206.893 720.5,-206.893"/>
<text text-anchor="middle" x="752" y="-213.893" font-family="Helvetica,sans-Serif" font-size="10.00">PlayerFile</text>
</a>
</g>
</g>
<!-- Node16&#45;&gt;Node1 -->
<g id="edge38" class="edge"><title>Node16&#45;&gt;Node1</title>
<path fill="none" stroke="#9a32cd" stroke-dasharray="5,2" d="M793.414,-205.462C834.986,-195.192 901.774,-181.393 960.5,-181.393 960.5,-181.393 960.5,-181.393 1694.5,-181.393 1769.16,-181.393 1855.23,-206.574 1893.86,-219.262"/>
<polygon fill="#9a32cd" stroke="#9a32cd" points="792.505,-202.081 783.664,-207.92 794.216,-208.869 792.505,-202.081"/>
<text text-anchor="middle" x="1331" y="-184.393" font-family="Helvetica,sans-Serif" font-size="10.00"> pfile</text>
</g>
<!-- Node16&#45;&gt;Node15 -->
<g id="edge22" class="edge"><title>Node16&#45;&gt;Node15</title>
<path fill="none" stroke="#9a32cd" stroke-dasharray="5,2" d="M782.317,-230.239C825.007,-250.401 903.203,-287.332 940.144,-304.779"/>
<polygon fill="#9a32cd" stroke="#9a32cd" points="783.811,-227.074 773.274,-225.968 780.821,-233.403 783.811,-227.074"/>
<text text-anchor="middle" x="863" y="-283.393" font-family="Helvetica,sans-Serif" font-size="10.00"> file</text>
</g>
<!-- Node17&#45;&gt;Node16 -->
<g id="edge23" class="edge"><title>Node17&#45;&gt;Node16</title>
<path fill="none" stroke="midnightblue" d="M578.777,-290.819C607.056,-287.218 641.081,-280.803 670,-269.393 697.201,-258.661 724.845,-238.033 739.765,-225.919"/>
<polygon fill="midnightblue" stroke="midnightblue" points="578.157,-287.368 568.639,-292.023 578.982,-294.32 578.157,-287.368"/>
</g>
<!-- Node17&#45;&gt;Node21 -->
<g id="edge31" class="edge"><title>Node17&#45;&gt;Node21</title>
<path fill="none" stroke="midnightblue" d="M562.924,-282.934C604.251,-270.478 662.002,-252.1 670,-244.393 686.107,-228.871 674.858,-215.493 688,-197.393 700.65,-179.97 720.682,-165.156 734.754,-156.056"/>
<polygon fill="midnightblue" stroke="midnightblue" points="561.909,-279.584 553.335,-285.807 563.919,-286.29 561.909,-279.584"/>
</g>
<!-- Node22 -->
<g id="node22" class="node"><title>Node22</title>
<g id="a_node22"><a xlink:href="classPlayerPosition.html" target="_top" xlink:title="Tracker and broadcaster for the Player&#39;s current position in a song. ">
<polygon fill="white" stroke="black" points="710,-295.893 710,-314.893 794,-314.893 794,-295.893 710,-295.893"/>
<text text-anchor="middle" x="752" y="-302.893" font-family="Helvetica,sans-Serif" font-size="10.00">PlayerPosition</text>
</a>
</g>
</g>
<!-- Node17&#45;&gt;Node22 -->
<g id="edge34" class="edge"><title>Node17&#45;&gt;Node22</title>
<path fill="none" stroke="midnightblue" d="M578.656,-297.916C619.612,-299.693 673.437,-302.028 709.961,-303.612"/>
<polygon fill="midnightblue" stroke="midnightblue" points="578.682,-294.414 568.54,-297.477 578.379,-301.407 578.682,-294.414"/>
</g>
<!-- Node18 -->
<g id="node18" class="node"><title>Node18</title>
<g id="a_node18"><a xlink:href="classAudio.html" target="_top" xlink:title="An audio item. ">
<polygon fill="white" stroke="black" points="304,-206.893 304,-225.893 347,-225.893 347,-206.893 304,-206.893"/>
<text text-anchor="middle" x="325.5" y="-213.893" font-family="Helvetica,sans-Serif" font-size="10.00">Audio</text>
</a>
</g>
</g>
<!-- Node18&#45;&gt;Node16 -->
<g id="edge25" class="edge"><title>Node18&#45;&gt;Node16</title>
<path fill="none" stroke="midnightblue" d="M357.473,-216.393C436.035,-216.393 642.36,-216.393 720.456,-216.393"/>
<polygon fill="midnightblue" stroke="midnightblue" points="357.262,-212.893 347.262,-216.393 357.262,-219.893 357.262,-212.893"/>
</g>
<!-- Node19 -->
<g id="node19" class="node"><title>Node19</title>
<polygon fill="white" stroke="#bfbfbf" points="455,-227.893 455,-246.893 584,-246.893 584,-227.893 455,-227.893"/>
<text text-anchor="middle" x="519.5" y="-234.893" font-family="Helvetica,sans-Serif" font-size="10.00">std::unique_ptr&lt; Audio &gt;</text>
</g>
<!-- Node18&#45;&gt;Node19 -->
<g id="edge27" class="edge"><title>Node18&#45;&gt;Node19</title>
<path fill="none" stroke="#9a32cd" stroke-dasharray="5,2" d="M357.125,-219.742C383.325,-222.608 421.901,-226.827 454.767,-230.422"/>
<polygon fill="#9a32cd" stroke="#9a32cd" points="357.369,-216.248 347.047,-218.64 356.608,-223.207 357.369,-216.248"/>
<text text-anchor="middle" x="411.5" y="-231.393" font-family="Helvetica,sans-Serif" font-size="10.00"> ptr</text>
</g>
<!-- Node19&#45;&gt;Node16 -->
<g id="edge26" class="edge"><title>Node19&#45;&gt;Node16</title>
<path fill="none" stroke="#9a32cd" stroke-dasharray="5,2" d="M594.174,-230.681C636.843,-226.793 688.293,-222.106 720.335,-219.187"/>
<polygon fill="#9a32cd" stroke="#9a32cd" points="593.736,-227.206 584.095,-231.599 594.372,-234.177 593.736,-227.206"/>
<text text-anchor="middle" x="636" y="-232.393" font-family="Helvetica,sans-Serif" font-size="10.00"> audio</text>
</g>
<!-- Node20 -->
<g id="node20" class="node"><title>Node20</title>
<g id="a_node20"><a xlink:href="classAudioSystem.html" target="_top" xlink:title="An AudioSystem represents the entire audio stack used by playd. ">
<polygon fill="white" stroke="black" points="481,-65.8928 481,-84.8928 558,-84.8928 558,-65.8928 481,-65.8928"/>
<text text-anchor="middle" x="519.5" y="-72.8928" font-family="Helvetica,sans-Serif" font-size="10.00">AudioSystem</text>
</a>
</g>
</g>
<!-- Node20&#45;&gt;Node16 -->
<g id="edge28" class="edge"><title>Node20&#45;&gt;Node16</title>
<path fill="none" stroke="#9a32cd" stroke-dasharray="5,2" d="M545.073,-90.4244C592.62,-119.51 695.988,-182.741 735.351,-206.82"/>
<polygon fill="#9a32cd" stroke="#9a32cd" points="546.7,-87.3169 536.343,-85.0843 543.047,-93.2883 546.7,-87.3169"/>
<text text-anchor="middle" x="636" y="-170.393" font-family="Helvetica,sans-Serif" font-size="10.00"> audio_system</text>
</g>
<!-- Node20&#45;&gt;Node23 -->
<g id="edge40" class="edge"><title>Node20&#45;&gt;Node23</title>
<path fill="none" stroke="midnightblue" d="M568.292,-67.0992C606.104,-60.5374 658.867,-51.3811 697.976,-44.5943"/>
<polygon fill="midnightblue" stroke="midnightblue" points="567.301,-63.7187 558.047,-68.8771 568.498,-70.6156 567.301,-63.7187"/>
</g>
<!-- Node21&#45;&gt;Node1 -->
<g id="edge46" class="edge"><title>Node21&#45;&gt;Node1</title>
<path fill="none" stroke="#9a32cd" stroke-dasharray="5,2" d="M798.019,-142.286C840.02,-138.811 904.448,-134.393 960.5,-134.393 960.5,-134.393 960.5,-134.393 1694.5,-134.393 1778.96,-134.393 1868.51,-192.814 1901.41,-216.547"/>
<polygon fill="#9a32cd" stroke="#9a32cd" points="797.513,-138.816 787.843,-143.145 798.102,-145.791 797.513,-138.816"/>
<text text-anchor="middle" x="1331" y="-137.393" font-family="Helvetica,sans-Serif" font-size="10.00"> pstate</text>
</g>
<!-- Node21&#45;&gt;Node15 -->
<g id="edge30" class="edge"><title>Node21&#45;&gt;Node15</title>
<path fill="none" stroke="#9a32cd" stroke-dasharray="5,2" d="M777.791,-161.327C806.485,-179.098 854.587,-210.406 892,-242.393 915.605,-262.574 939.881,-289.971 952.214,-304.459"/>
<polygon fill="#9a32cd" stroke="#9a32cd" points="779.548,-158.299 769.195,-156.049 775.885,-164.264 779.548,-158.299"/>
<text text-anchor="middle" x="863" y="-245.393" font-family="Helvetica,sans-Serif" font-size="10.00"> state</text>
</g>
<!-- Node22&#45;&gt;Node1 -->
<g id="edge47" class="edge"><title>Node22&#45;&gt;Node1</title>
<path fill="none" stroke="#9a32cd" stroke-dasharray="5,2" d="M804.611,-301.689C938.412,-292.112 1307.49,-265.849 1615,-245.393 1719.75,-238.424 1845.15,-230.655 1893.8,-227.662"/>
<polygon fill="#9a32cd" stroke="#9a32cd" points="803.989,-298.225 794.264,-302.43 804.489,-305.207 803.989,-298.225"/>
<text text-anchor="middle" x="1331" y="-271.393" font-family="Helvetica,sans-Serif" font-size="10.00"> pposition</text>
</g>
<!-- Node22&#45;&gt;Node15 -->
<g id="edge33" class="edge"><title>Node22&#45;&gt;Node15</title>
<path fill="none" stroke="#9a32cd" stroke-dasharray="5,2" d="M804.73,-307.636C847.529,-309.493 906.263,-312.04 937.98,-313.416"/>
<polygon fill="#9a32cd" stroke="#9a32cd" points="804.634,-304.129 794.492,-307.192 804.331,-311.123 804.634,-304.129"/>
<text text-anchor="middle" x="863" y="-314.393" font-family="Helvetica,sans-Serif" font-size="10.00"> position</text>
</g>
<!-- Node23&#45;&gt;Node1 -->
<g id="edge39" class="edge"><title>Node23&#45;&gt;Node1</title>
<path fill="none" stroke="#9a32cd" stroke-dasharray="5,2" d="M816.435,-38.1773C857.51,-39.7456 912.159,-41.3928 960.5,-41.3928 960.5,-41.3928 960.5,-41.3928 1694.5,-41.3928 1759.08,-41.3928 1785.05,-34.7183 1836,-74.3928 1884.98,-112.53 1906.31,-189.707 1912.49,-216.76"/>
<polygon fill="#9a32cd" stroke="#9a32cd" points="816.425,-34.6744 806.296,-37.7814 816.152,-41.6691 816.425,-34.6744"/>
<text text-anchor="middle" x="1331" y="-44.3928" font-family="Helvetica,sans-Serif" font-size="10.00"> audio</text>
</g>
<!-- Node24 -->
<g id="node24" class="node"><title>Node24</title>
<g id="a_node24"><a xlink:href="classAudioSinkConfigurator.html" target="_top" xlink:title="Interface for objects that can configure a PortAudio stream from an AudioSource. ">
<polygon fill="white" stroke="black" points="458.5,-24.8928 458.5,-43.8928 580.5,-43.8928 580.5,-24.8928 458.5,-24.8928"/>
<text text-anchor="middle" x="519.5" y="-31.8928" font-family="Helvetica,sans-Serif" font-size="10.00">AudioSinkConfigurator</text>
</a>
</g>
</g>
<!-- Node24&#45;&gt;Node23 -->
<g id="edge41" class="edge"><title>Node24&#45;&gt;Node23</title>
<path fill="none" stroke="midnightblue" d="M591.198,-34.6995C625.53,-34.8484 666.097,-35.0244 697.766,-35.1618"/>
<polygon fill="midnightblue" stroke="midnightblue" points="590.775,-31.1977 580.76,-34.6542 590.745,-38.1977 590.775,-31.1977"/>
</g>
</g>
</svg>
        <g id="navigator" transform="translate(0 0)" fill="#404254">
                <rect fill="#f2f5e9" fill-opacity="0.5" stroke="#606060" stroke-width=".5" x="0" y="0" width="60" height="60"/>
                <use id="zoomplus" xlink:href="#zoomPlus" x="17" y="9" onmousedown="handleZoom(evt,'in')"/>
                <use id="zoomminus" xlink:href="#zoomMin" x="42" y="9" onmousedown="handleZoom(evt,'out')"/>
                <use id="reset" xlink:href="#resetDef" x="30" y="36" onmousedown="handleReset()"/>
                <g id="arrowUp" xlink:href="#dirArrow" transform="translate(30 24)" onmousedown="handlePan(0,-1)">
                  <use xlink:href="#rim" fill="#404040">
                        <set attributeName="fill" to="#808080" begin="arrowUp.mouseover" end="arrowUp.mouseout"/>
                  </use>
                  <path fill="none" stroke="white" stroke-width="1.5" d="M0,-3.0v7 M-2.5,-0.5L0,-3.0L2.5,-0.5"/>
                </g>
                <g id="arrowRight" xlink:href="#dirArrow" transform="rotate(90) translate(36 -43)" onmousedown="handlePan(1,0)">
                  <use xlink:href="#rim" fill="#404040">
                        <set attributeName="fill" to="#808080" begin="arrowRight.mouseover" end="arrowRight.mouseout"/>
                  </use>
                  <path fill="none" stroke="white" stroke-width="1.5" d="M0,-3.0v7 M-2.5,-0.5L0,-3.0L2.5,-0.5"/>
                </g>
                <g id="arrowDown" xlink:href="#dirArrow" transform="rotate(180) translate(-30 -48)" onmousedown="handlePan(0,1)">
                  <use xlink:href="#rim" fill="#404040">
                        <set attributeName="fill" to="#808080" begin="arrowDown.mouseover" end="arrowDown.mouseout"/>
                  </use>
                  <path fill="none" stroke="white" stroke-width="1.5" d="M0,-3.0v7 M-2.5,-0.5L0,-3.0L2.5,-0.5"/>
                </g>
                <g id="arrowLeft" xlink:href="#dirArrow" transform="rotate(270) translate(-36 17)" onmousedown="handlePan(-1,0)">
                  <use xlink:href="#rim" fill="#404040">
                        <set attributeName="fill" to="#808080" begin="arrowLeft.mouseover" end="arrowLeft.mouseout"/>
                  </use>
                  <path fill="none" stroke="white" stroke-width="1.5" d="M0,-3.0v7 M-2.5,-0.5L0,-3.0L2.5,-0.5"/>
                </g>
        </g>
        <svg viewBox="0 0 15 15" width="100%" height="30px" preserveAspectRatio="xMaxYMin meet">
         <g id="arrow_out" transform="scale(0.3 0.3)">
          <a xlink:href="classPlayd__coll__graph_org.svg" target="_base">
           <rect id="button" ry="5" rx="5" y="6" x="6" height="38" width="38"
                fill="#f2f5e9" fill-opacity="0.5" stroke="#606060" stroke-width="1.0"/>
           <path id="arrow"
             d="M 11.500037,31.436501 C 11.940474,20.09759 22.043105,11.32322 32.158766,21.979434 L 37.068811,17.246167 C 37.068811,17.246167 37.088388,32 37.088388,32 L 22.160133,31.978069 C 22.160133,31.978069 26.997745,27.140456 26.997745,27.140456 C 18.528582,18.264221 13.291696,25.230495 11.500037,31.436501 z"
             style="fill:#404040;"/>
          </a>
         </g>
        </svg>
</svg>
