<?xml version="1.0" encoding="UTF-8" standalone="no"?>
<!DOCTYPE svg PUBLIC "-//W3C//DTD SVG 1.1//EN"
 "http://www.w3.org/Graphics/SVG/1.1/DTD/svg11.dtd">
<!-- Generated by graphviz version 2.38.0 (20140413.2041)
 -->
<!-- Title: Player Pages: 1 -->
<!--zoomable 373 -->
<svg id="main" version="1.1" xmlns="http://www.w3.org/2000/svg" xmlns:xlink="http://www.w3.org/1999/xlink" xml:space="preserve" onload="init(evt)">
<style type="text/css"><![CDATA[
.edge:hover path { stroke: red; }
.edge:hover polygon { stroke: red; fill: red; }
]]></style>
<script type="text/javascript"><![CDATA[
var edges = document.getElementsByTagName('g');
if (edges && edges.length) {
  for (var i=0;i<edges.length;i++) {
    if (edges[i].id.substr(0,4)=='edge') {
      edges[i].setAttribute('class','edge');
    }
  }
}
]]></script>
        <defs>
                <circle id="rim" cx="0" cy="0" r="7"/>
                <circle id="rim2" cx="0" cy="0" r="3.5"/>
                <g id="zoomPlus">
                        <use xlink:href="#rim" fill="#404040">
                                <set attributeName="fill" to="#808080" begin="zoomplus.mouseover" end="zoomplus.mouseout"/>
                        </use>
                        <path d="M-4,0h8M0,-4v8" fill="none" stroke="white" stroke-width="1.5" pointer-events="none"/>
                </g>
                <g id="zoomMin">
                        <use xlink:href="#rim" fill="#404040">
                                <set attributeName="fill" to="#808080" begin="zoomminus.mouseover" end="zoomminus.mouseout"/>
                        </use>
                        <path d="M-4,0h8" fill="none" stroke="white" stroke-width="1.5" pointer-events="none"/>
                </g>
                <g id="dirArrow">
                        <path fill="none" stroke="white" stroke-width="1.5" d="M0,-3.0v7 M-2.5,-0.5L0,-3.0L2.5,-0.5"/>
                </g>
               <g id="resetDef">
                       <use xlink:href="#rim2" fill="#404040">
                               <set attributeName="fill" to="#808080" begin="reset.mouseover" end="reset.mouseout"/>
                       </use>
               </g>
        </defs>

<script type="text/javascript">
var viewWidth = 632;
var viewHeight = 373;
var sectionId = 'dynsection-0';
</script>
<script xlink:href="svgpan.js"/>
<svg id="graph" class="graph">
<g id="viewport">
<title>Player</title>
<polygon fill="white" stroke="none" points="-4,4 -4,-369 627.5,-369 627.5,4 -4,4"/>
<!-- Node1 -->
<g id="node1" class="node"><title>Node1</title>
<polygon fill="#bfbfbf" stroke="black" points="329,-0.5 329,-19.5 376,-19.5 376,-0.5 329,-0.5"/>
<text text-anchor="middle" x="352.5" y="-7.5" font-family="Helvetica,sans-Serif" font-size="10.00">Player</text>
</g>
<!-- Node2 -->
<g id="node2" class="node"><title>Node2</title>
<g id="a_node2"><a xlink:href="classResponseSink.html" target="_top" xlink:title="Abstract class for anything that can be sent a response. ">
<polygon fill="white" stroke="black" points="321,-210.5 321,-229.5 406,-229.5 406,-210.5 321,-210.5"/>
<text text-anchor="middle" x="363.5" y="-217.5" font-family="Helvetica,sans-Serif" font-size="10.00">ResponseSink</text>
</a>
</g>
</g>
<!-- Node2&#45;&gt;Node1 -->
<g id="edge1" class="edge"><title>Node2&#45;&gt;Node1</title>
<path fill="none" stroke="#9a32cd" stroke-dasharray="5,2" d="M344.269,-203.718C330.794,-191.77 313.772,-173.891 305.5,-154 290.638,-118.26 287.526,-103.097 301.5,-67 309.285,-46.8886 328.026,-29.5625 340.491,-19.7068"/>
<polygon fill="#9a32cd" stroke="#9a32cd" points="342.201,-206.554 352.09,-210.356 346.731,-201.217 342.201,-206.554"/>
<text text-anchor="middle" x="316.5" y="-108" font-family="Helvetica,sans-Serif" font-size="10.00"> end_sink</text>
</g>
<!-- Node6 -->
<g id="node6" class="node"><title>Node6</title>
<g id="a_node6"><a xlink:href="classResponseSource.html" target="_top" xlink:title="Abstract helper class for sources of responses. ">
<polygon fill="white" stroke="black" points="314.5,-134.5 314.5,-153.5 412.5,-153.5 412.5,-134.5 314.5,-134.5"/>
<text text-anchor="middle" x="363.5" y="-141.5" font-family="Helvetica,sans-Serif" font-size="10.00">ResponseSource</text>
</a>
</g>
</g>
<!-- Node2&#45;&gt;Node6 -->
<g id="edge6" class="edge"><title>Node2&#45;&gt;Node6</title>
<path fill="none" stroke="#9a32cd" stroke-dasharray="5,2" d="M363.5,-200.072C363.5,-185.18 363.5,-165.111 363.5,-153.768"/>
<polygon fill="#9a32cd" stroke="#9a32cd" points="360,-200.221 363.5,-210.221 367,-200.221 360,-200.221"/>
<text text-anchor="middle" x="389" y="-179.5" font-family="Helvetica,sans-Serif" font-size="10.00"> push_sink</text>
</g>
<!-- Node3 -->
<g id="node3" class="node"><title>Node3</title>
<g id="a_node3"><a xlink:title="STL class. ">
<polygon fill="white" stroke="#bfbfbf" points="409.5,-277.5 409.5,-296.5 471.5,-296.5 471.5,-277.5 409.5,-277.5"/>
<text text-anchor="middle" x="440.5" y="-284.5" font-family="Helvetica,sans-Serif" font-size="10.00">std::string</text>
</a>
</g>
</g>
<!-- Node3&#45;&gt;Node2 -->
<g id="edge2" class="edge"><title>Node3&#45;&gt;Node2</title>
<path fill="none" stroke="#9a32cd" stroke-dasharray="5,2" d="M399.957,-274.945C391.33,-271.051 382.903,-265.865 376.5,-259 368.891,-250.842 365.715,-238.038 364.403,-229.582"/>
<polygon fill="#9a32cd" stroke="#9a32cd" points="398.727,-278.223 409.312,-278.682 401.323,-271.722 398.727,-278.223"/>
<text text-anchor="middle" x="401.5" y="-251" font-family="Helvetica,sans-Serif" font-size="10.00"> STRINGS</text>
</g>
<!-- Node10 -->
<g id="node10" class="node"><title>Node10</title>
<polygon fill="white" stroke="#bfbfbf" points="495.5,-172.5 495.5,-191.5 623.5,-191.5 623.5,-172.5 495.5,-172.5"/>
<text text-anchor="middle" x="559.5" y="-179.5" font-family="Helvetica,sans-Serif" font-size="10.00">std::vector&lt; std::string &gt;</text>
</g>
<!-- Node3&#45;&gt;Node10 -->
<g id="edge12" class="edge"><title>Node3&#45;&gt;Node10</title>
<path fill="none" stroke="#9a32cd" stroke-dasharray="5,2" d="M458.399,-270.507C483.732,-248.581 529.202,-209.224 549.38,-191.759"/>
<polygon fill="#9a32cd" stroke="#9a32cd" points="455.916,-268.027 450.646,-277.218 460.498,-273.32 455.916,-268.027"/>
<text text-anchor="middle" x="505.5" y="-251" font-family="Helvetica,sans-Serif" font-size="10.00"> elements</text>
</g>
<!-- Node11 -->
<g id="node11" class="node"><title>Node11</title>
<g id="a_node11"><a xlink:href="classPlayerState.html" target="_top" xlink:title="An object holding and representing the current state of a Player. ">
<polygon fill="white" stroke="black" points="413,-67.5 413,-86.5 484,-86.5 484,-67.5 413,-67.5"/>
<text text-anchor="middle" x="448.5" y="-74.5" font-family="Helvetica,sans-Serif" font-size="10.00">PlayerState</text>
</a>
</g>
</g>
<!-- Node3&#45;&gt;Node11 -->
<g id="edge15" class="edge"><title>Node3&#45;&gt;Node11</title>
<path fill="none" stroke="#9a32cd" stroke-dasharray="5,2" d="M438.708,-267.208C436.813,-244.597 434.371,-205.492 436.5,-172 438.504,-140.476 444.252,-103.363 447.001,-86.7768"/>
<polygon fill="#9a32cd" stroke="#9a32cd" points="435.243,-267.763 439.622,-277.411 442.216,-267.139 435.243,-267.763"/>
<text text-anchor="middle" x="461.5" y="-179.5" font-family="Helvetica,sans-Serif" font-size="10.00"> STRINGS</text>
</g>
<!-- Node4 -->
<g id="node4" class="node"><title>Node4</title>
<g id="a_node4"><a xlink:title="STL class. ">
<polygon fill="white" stroke="#bfbfbf" points="391.5,-334.5 391.5,-364.5 489.5,-364.5 489.5,-334.5 391.5,-334.5"/>
<text text-anchor="start" x="399.5" y="-352.5" font-family="Helvetica,sans-Serif" font-size="10.00">std::basic_string&lt;</text>
<text text-anchor="middle" x="440.5" y="-341.5" font-family="Helvetica,sans-Serif" font-size="10.00"> char &gt;</text>
</a>
</g>
</g>
<!-- Node4&#45;&gt;Node3 -->
<g id="edge3" class="edge"><title>Node4&#45;&gt;Node3</title>
<path fill="none" stroke="midnightblue" d="M440.5,-324.352C440.5,-314.513 440.5,-303.775 440.5,-296.54"/>
<polygon fill="midnightblue" stroke="midnightblue" points="437,-324.468 440.5,-334.468 444,-324.468 437,-324.468"/>
</g>
<!-- Node5 -->
<g id="node5" class="node"><title>Node5</title>
<g id="a_node5"><a xlink:href="classPlayerFile.html" target="_top" xlink:title="The subcomponent of a Player that stores the audio file. ">
<polygon fill="white" stroke="black" points="160,-67.5 160,-86.5 223,-86.5 223,-67.5 160,-67.5"/>
<text text-anchor="middle" x="191.5" y="-74.5" font-family="Helvetica,sans-Serif" font-size="10.00">PlayerFile</text>
</a>
</g>
</g>
<!-- Node5&#45;&gt;Node1 -->
<g id="edge4" class="edge"><title>Node5&#45;&gt;Node1</title>
<path fill="none" stroke="#9a32cd" stroke-dasharray="5,2" d="M211.127,-61.4241C222.454,-53.5737 237.241,-44.2463 251.5,-38 276.936,-26.8569 308.045,-19.3891 328.96,-15.1837"/>
<polygon fill="#9a32cd" stroke="#9a32cd" points="208.972,-58.6616 202.861,-67.3162 213.036,-64.3617 208.972,-58.6616"/>
<text text-anchor="middle" x="260" y="-41" font-family="Helvetica,sans-Serif" font-size="10.00"> file</text>
</g>
<!-- Node6&#45;&gt;Node5 -->
<g id="edge5" class="edge"><title>Node6&#45;&gt;Node5</title>
<path fill="none" stroke="midnightblue" d="M352.192,-125.976C346.303,-118.417 338.46,-110.095 329.5,-105 296.395,-86.1744 252.392,-80.2664 223.066,-78.5233"/>
<polygon fill="midnightblue" stroke="midnightblue" points="349.473,-128.189 358.157,-134.26 355.154,-124.099 349.473,-128.189"/>
</g>
<!-- Node6&#45;&gt;Node11 -->
<g id="edge14" class="edge"><title>Node6&#45;&gt;Node11</title>
<path fill="none" stroke="midnightblue" d="M383.027,-128.068C399.805,-115.238 423.412,-97.1853 437.218,-86.6273"/>
<polygon fill="midnightblue" stroke="midnightblue" points="380.781,-125.379 374.963,-134.234 385.033,-130.94 380.781,-125.379"/>
</g>
<!-- Node12 -->
<g id="node12" class="node"><title>Node12</title>
<g id="a_node12"><a xlink:href="classPlayerPosition.html" target="_top" xlink:title="Tracker and broadcaster for the Player&#39;s current position in a song. ">
<polygon fill="white" stroke="black" points="310.5,-67.5 310.5,-86.5 394.5,-86.5 394.5,-67.5 310.5,-67.5"/>
<text text-anchor="middle" x="352.5" y="-74.5" font-family="Helvetica,sans-Serif" font-size="10.00">PlayerPosition</text>
</a>
</g>
</g>
<!-- Node6&#45;&gt;Node12 -->
<g id="edge17" class="edge"><title>Node6&#45;&gt;Node12</title>
<path fill="none" stroke="midnightblue" d="M360.291,-124.037C358.198,-111.67 355.566,-96.1198 353.96,-86.6273"/>
<polygon fill="midnightblue" stroke="midnightblue" points="356.897,-124.958 362.016,-134.234 363.799,-123.79 356.897,-124.958"/>
</g>
<!-- Node7 -->
<g id="node7" class="node"><title>Node7</title>
<g id="a_node7"><a xlink:href="classAudio.html" target="_top" xlink:title="An audio item. ">
<polygon fill="white" stroke="black" points="0,-210.5 0,-229.5 43,-229.5 43,-210.5 0,-210.5"/>
<text text-anchor="middle" x="21.5" y="-217.5" font-family="Helvetica,sans-Serif" font-size="10.00">Audio</text>
</a>
</g>
</g>
<!-- Node7&#45;&gt;Node5 -->
<g id="edge7" class="edge"><title>Node7&#45;&gt;Node5</title>
<path fill="none" stroke="midnightblue" d="M11.8452,-201.189C3.23813,-182.618 -5.95775,-153.544 8.5,-134 43.4745,-86.722 117.568,-78.0502 159.966,-77.2004"/>
<polygon fill="midnightblue" stroke="midnightblue" points="8.80172,-202.928 16.4124,-210.299 15.0593,-199.791 8.80172,-202.928"/>
</g>
<!-- Node8 -->
<g id="node8" class="node"><title>Node8</title>
<polygon fill="white" stroke="#bfbfbf" points="18,-134.5 18,-153.5 147,-153.5 147,-134.5 18,-134.5"/>
<text text-anchor="middle" x="82.5" y="-141.5" font-family="Helvetica,sans-Serif" font-size="10.00">std::unique_ptr&lt; Audio &gt;</text>
</g>
<!-- Node7&#45;&gt;Node8 -->
<g id="edge9" class="edge"><title>Node7&#45;&gt;Node8</title>
<path fill="none" stroke="#9a32cd" stroke-dasharray="5,2" d="M35.3295,-202.223C47.7392,-187.169 65.4635,-165.667 75.2724,-153.768"/>
<polygon fill="#9a32cd" stroke="#9a32cd" points="32.3971,-200.278 28.737,-210.221 37.7985,-204.731 32.3971,-200.278"/>
<text text-anchor="middle" x="67.5" y="-179.5" font-family="Helvetica,sans-Serif" font-size="10.00"> ptr</text>
</g>
<!-- Node8&#45;&gt;Node5 -->
<g id="edge8" class="edge"><title>Node8&#45;&gt;Node5</title>
<path fill="none" stroke="#9a32cd" stroke-dasharray="5,2" d="M106.074,-128.942C127.66,-116.07 158.922,-97.4274 177.033,-86.6273"/>
<polygon fill="#9a32cd" stroke="#9a32cd" points="103.996,-126.106 97.2002,-134.234 107.582,-132.118 103.996,-126.106"/>
<text text-anchor="middle" x="159" y="-108" font-family="Helvetica,sans-Serif" font-size="10.00"> audio</text>
</g>
<!-- Node9 -->
<g id="node9" class="node"><title>Node9</title>
<g id="a_node9"><a xlink:href="classAudioSystem.html" target="_top" xlink:title="An AudioSystem represents the entire audio stack used by playd. ">
<polygon fill="white" stroke="black" points="165,-134.5 165,-153.5 242,-153.5 242,-134.5 165,-134.5"/>
<text text-anchor="middle" x="203.5" y="-141.5" font-family="Helvetica,sans-Serif" font-size="10.00">AudioSystem</text>
</a>
</g>
</g>
<!-- Node9&#45;&gt;Node5 -->
<g id="edge10" class="edge"><title>Node9&#45;&gt;Node5</title>
<path fill="none" stroke="#9a32cd" stroke-dasharray="5,2" d="M195.125,-124.981C194.058,-122.035 193.123,-118.972 192.5,-116 190.415,-106.053 190.477,-94.322 190.857,-86.5532"/>
<polygon fill="#9a32cd" stroke="#9a32cd" points="191.914,-126.376 198.997,-134.256 198.374,-123.679 191.914,-126.376"/>
<text text-anchor="middle" x="226.5" y="-108" font-family="Helvetica,sans-Serif" font-size="10.00"> audio_system</text>
</g>
<!-- Node10&#45;&gt;Node1 -->
<g id="edge11" class="edge"><title>Node10&#45;&gt;Node1</title>
<path fill="none" stroke="#9a32cd" stroke-dasharray="5,2" d="M552.348,-162.889C542.066,-138.668 521.146,-95.4812 492.5,-67 460.106,-34.7922 406.826,-20.4732 376.184,-14.6203"/>
<polygon fill="#9a32cd" stroke="#9a32cd" points="549.17,-164.364 556.204,-172.287 555.646,-161.707 549.17,-164.364"/>
<text text-anchor="middle" x="558.5" y="-108" font-family="Helvetica,sans-Serif" font-size="10.00"> FEATURES</text>
</g>
<!-- Node11&#45;&gt;Node1 -->
<g id="edge13" class="edge"><title>Node11&#45;&gt;Node1</title>
<path fill="none" stroke="#9a32cd" stroke-dasharray="5,2" d="M428.989,-61.1672C419.343,-53.9827 407.449,-45.3429 396.5,-38 386.972,-31.6105 375.972,-24.8605 367.354,-19.7079"/>
<polygon fill="#9a32cd" stroke="#9a32cd" points="427.026,-64.07 437.124,-67.2771 431.23,-58.4729 427.026,-64.07"/>
<text text-anchor="middle" x="425" y="-41" font-family="Helvetica,sans-Serif" font-size="10.00"> state</text>
</g>
<!-- Node12&#45;&gt;Node1 -->
<g id="edge16" class="edge"><title>Node12&#45;&gt;Node1</title>
<path fill="none" stroke="#9a32cd" stroke-dasharray="5,2" d="M352.5,-57.037C352.5,-44.6703 352.5,-29.1198 352.5,-19.6273"/>
<polygon fill="#9a32cd" stroke="#9a32cd" points="349,-57.2338 352.5,-67.2338 356,-57.2338 349,-57.2338"/>
<text text-anchor="middle" x="372.5" y="-41" font-family="Helvetica,sans-Serif" font-size="10.00"> position</text>
</g>
</g>
</svg>
        <g id="navigator" transform="translate(0 0)" fill="#404254">
                <rect fill="#f2f5e9" fill-opacity="0.5" stroke="#606060" stroke-width=".5" x="0" y="0" width="60" height="60"/>
                <use id="zoomplus" xlink:href="#zoomPlus" x="17" y="9" onmousedown="handleZoom(evt,'in')"/>
                <use id="zoomminus" xlink:href="#zoomMin" x="42" y="9" onmousedown="handleZoom(evt,'out')"/>
                <use id="reset" xlink:href="#resetDef" x="30" y="36" onmousedown="handleReset()"/>
                <g id="arrowUp" xlink:href="#dirArrow" transform="translate(30 24)" onmousedown="handlePan(0,-1)">
                  <use xlink:href="#rim" fill="#404040">
                        <set attributeName="fill" to="#808080" begin="arrowUp.mouseover" end="arrowUp.mouseout"/>
                  </use>
                  <path fill="none" stroke="white" stroke-width="1.5" d="M0,-3.0v7 M-2.5,-0.5L0,-3.0L2.5,-0.5"/>
                </g>
                <g id="arrowRight" xlink:href="#dirArrow" transform="rotate(90) translate(36 -43)" onmousedown="handlePan(1,0)">
                  <use xlink:href="#rim" fill="#404040">
                        <set attributeName="fill" to="#808080" begin="arrowRight.mouseover" end="arrowRight.mouseout"/>
                  </use>
                  <path fill="none" stroke="white" stroke-width="1.5" d="M0,-3.0v7 M-2.5,-0.5L0,-3.0L2.5,-0.5"/>
                </g>
                <g id="arrowDown" xlink:href="#dirArrow" transform="rotate(180) translate(-30 -48)" onmousedown="handlePan(0,1)">
                  <use xlink:href="#rim" fill="#404040">
                        <set attributeName="fill" to="#808080" begin="arrowDown.mouseover" end="arrowDown.mouseout"/>
                  </use>
                  <path fill="none" stroke="white" stroke-width="1.5" d="M0,-3.0v7 M-2.5,-0.5L0,-3.0L2.5,-0.5"/>
                </g>
                <g id="arrowLeft" xlink:href="#dirArrow" transform="rotate(270) translate(-36 17)" onmousedown="handlePan(-1,0)">
                  <use xlink:href="#rim" fill="#404040">
                        <set attributeName="fill" to="#808080" begin="arrowLeft.mouseover" end="arrowLeft.mouseout"/>
                  </use>
                  <path fill="none" stroke="white" stroke-width="1.5" d="M0,-3.0v7 M-2.5,-0.5L0,-3.0L2.5,-0.5"/>
                </g>
        </g>
        <svg viewBox="0 0 15 15" width="100%" height="30px" preserveAspectRatio="xMaxYMin meet">
         <g id="arrow_out" transform="scale(0.3 0.3)">
          <a xlink:href="classPlayer__coll__graph_org.svg" target="_base">
           <rect id="button" ry="5" rx="5" y="6" x="6" height="38" width="38"
                fill="#f2f5e9" fill-opacity="0.5" stroke="#606060" stroke-width="1.0"/>
           <path id="arrow"
             d="M 11.500037,31.436501 C 11.940474,20.09759 22.043105,11.32322 32.158766,21.979434 L 37.068811,17.246167 C 37.068811,17.246167 37.088388,32 37.088388,32 L 22.160133,31.978069 C 22.160133,31.978069 26.997745,27.140456 26.997745,27.140456 C 18.528582,18.264221 13.291696,25.230495 11.500037,31.436501 z"
             style="fill:#404040;"/>
          </a>
         </g>
        </svg>
</svg>
