<?xml version="1.0" encoding="UTF-8" standalone="no"?>
<!DOCTYPE svg PUBLIC "-//W3C//DTD SVG 1.1//EN"
 "http://www.w3.org/Graphics/SVG/1.1/DTD/svg11.dtd">
<!-- Generated by graphviz version 2.38.0 (20140413.2041)
 -->
<!-- Title: Playd Pages: 1 -->
<svg width="1602pt" height="809pt"
 viewBox="0.00 0.00 1601.50 809.00" xmlns="http://www.w3.org/2000/svg" xmlns:xlink="http://www.w3.org/1999/xlink">
<g id="graph0" class="graph" transform="scale(1 1) rotate(0) translate(4 805)">
<title>Playd</title>
<polygon fill="white" stroke="none" points="-4,4 -4,-805 1597.5,-805 1597.5,4 -4,4"/>
<!-- Node1 -->
<g id="node1" class="node"><title>Node1</title>
<polygon fill="#bfbfbf" stroke="black" points="754.5,-6 754.5,-25 796.5,-25 796.5,-6 754.5,-6"/>
<text text-anchor="middle" x="775.5" y="-13" font-family="Helvetica,sans-Serif" font-size="10.00">Playd</text>
</g>
<!-- Node2 -->
<g id="node2" class="node"><title>Node2</title>
<polygon fill="white" stroke="#bfbfbf" points="770.5,-78.5 770.5,-97.5 912.5,-97.5 912.5,-78.5 770.5,-78.5"/>
<text text-anchor="middle" x="841.5" y="-85.5" font-family="Helvetica,sans-Serif" font-size="10.00">std::unique_ptr&lt; IoCore &gt;</text>
</g>
<!-- Node2&#45;&gt;Node1 -->
<g id="edge1" class="edge"><title>Node2&#45;&gt;Node1</title>
<path fill="none" stroke="#9a32cd" stroke-dasharray="5,2" d="M826.33,-70.7962C813.057,-56.6172 794.282,-36.5626 783.659,-25.2154"/>
<polygon fill="#9a32cd" stroke="#9a32cd" points="824.018,-73.4471 833.407,-78.3553 829.128,-68.6631 824.018,-73.4471"/>
<text text-anchor="middle" x="820.5" y="-52" font-family="Helvetica,sans-Serif" font-size="10.00"> io</text>
</g>
<!-- Node3 -->
<g id="node3" class="node"><title>Node3</title>
<g id="a_node3"><a xlink:href="classIoCore.html" target="_top" xlink:title="The IO core, which services input, routes responses, and executes the Player update routine periodica...">
<polygon fill="white" stroke="black" points="848,-145.5 848,-164.5 895,-164.5 895,-145.5 848,-145.5"/>
<text text-anchor="middle" x="871.5" y="-152.5" font-family="Helvetica,sans-Serif" font-size="10.00">IoCore</text>
</a>
</g>
</g>
<!-- Node3&#45;&gt;Node2 -->
<g id="edge2" class="edge"><title>Node3&#45;&gt;Node2</title>
<path fill="none" stroke="#9a32cd" stroke-dasharray="5,2" d="M863.095,-135.79C857.334,-123.308 849.952,-107.314 845.482,-97.6273"/>
<polygon fill="#9a32cd" stroke="#9a32cd" points="860.086,-137.621 867.454,-145.234 866.441,-134.687 860.086,-137.621"/>
<text text-anchor="middle" x="867" y="-119" font-family="Helvetica,sans-Serif" font-size="10.00"> ptr</text>
</g>
<!-- Node4 -->
<g id="node4" class="node"><title>Node4</title>
<g id="a_node4"><a xlink:href="classResponseSink.html" target="_top" xlink:title="Abstract class for anything that can be sent a response. ">
<polygon fill="white" stroke="black" points="933,-558.5 933,-577.5 1016,-577.5 1016,-558.5 933,-558.5"/>
<text text-anchor="middle" x="974.5" y="-565.5" font-family="Helvetica,sans-Serif" font-size="10.00">ResponseSink</text>
</a>
</g>
</g>
<!-- Node4&#45;&gt;Node3 -->
<g id="edge3" class="edge"><title>Node4&#45;&gt;Node3</title>
<path fill="none" stroke="midnightblue" d="M922.718,-566.956C826.877,-565.467 631.5,-555.23 631.5,-496.5 631.5,-496.5 631.5,-496.5 631.5,-321.5 631.5,-244.788 669.627,-223.941 734.5,-183 769.557,-160.876 818.907,-156.261 847.814,-155.636"/>
<polygon fill="midnightblue" stroke="midnightblue" points="922.74,-570.457 932.784,-567.086 922.83,-563.457 922.74,-570.457"/>
</g>
<!-- Node5 -->
<g id="node5" class="node"><title>Node5</title>
<g id="a_node5"><a xlink:href="classConnectionPool.html" target="_top" xlink:title="A pool of TCP connections. ">
<polygon fill="white" stroke="black" points="1045,-212.5 1045,-231.5 1136,-231.5 1136,-212.5 1045,-212.5"/>
<text text-anchor="middle" x="1090.5" y="-219.5" font-family="Helvetica,sans-Serif" font-size="10.00">ConnectionPool</text>
</a>
</g>
</g>
<!-- Node4&#45;&gt;Node5 -->
<g id="edge5" class="edge"><title>Node4&#45;&gt;Node5</title>
<path fill="none" stroke="midnightblue" d="M1026.01,-564.36C1071.12,-558.938 1129.5,-542.948 1129.5,-496.5 1129.5,-496.5 1129.5,-496.5 1129.5,-288 1129.5,-265.101 1111.48,-243.302 1099.94,-231.686"/>
<polygon fill="midnightblue" stroke="midnightblue" points="1025.61,-560.883 1016.04,-565.418 1026.35,-567.844 1025.61,-560.883"/>
</g>
<!-- Node8 -->
<g id="node8" class="node"><title>Node8</title>
<g id="a_node8"><a xlink:href="classConnection.html" target="_top" xlink:title="A TCP connection from a client. ">
<polygon fill="white" stroke="black" points="1072,-145.5 1072,-164.5 1143,-164.5 1143,-145.5 1072,-145.5"/>
<text text-anchor="middle" x="1107.5" y="-152.5" font-family="Helvetica,sans-Serif" font-size="10.00">Connection</text>
</a>
</g>
</g>
<!-- Node4&#45;&gt;Node8 -->
<g id="edge9" class="edge"><title>Node4&#45;&gt;Node8</title>
<path fill="none" stroke="midnightblue" d="M1026.25,-565.87C1056.97,-563.295 1095.78,-556.598 1126.5,-540 1149.87,-527.371 1167.5,-523.067 1167.5,-496.5 1167.5,-496.5 1167.5,-496.5 1167.5,-321.5 1167.5,-258.699 1171.5,-237.035 1139.5,-183 1135.13,-175.62 1127.99,-169.307 1121.56,-164.645"/>
<polygon fill="midnightblue" stroke="midnightblue" points="1025.89,-562.387 1016.16,-566.593 1026.39,-569.369 1025.89,-562.387"/>
</g>
<!-- Node15 -->
<g id="node15" class="node"><title>Node15</title>
<g id="a_node15"><a xlink:href="classPlayer.html" target="_top" xlink:title="A Player contains a loaded audio file and the state of its playback. ">
<polygon fill="white" stroke="black" points="907.5,-346.5 907.5,-365.5 953.5,-365.5 953.5,-346.5 907.5,-346.5"/>
<text text-anchor="middle" x="930.5" y="-353.5" font-family="Helvetica,sans-Serif" font-size="10.00">Player</text>
</a>
</g>
</g>
<!-- Node4&#45;&gt;Node15 -->
<g id="edge20" class="edge"><title>Node4&#45;&gt;Node15</title>
<path fill="none" stroke="#9a32cd" stroke-dasharray="5,2" d="M977.844,-548.296C983.076,-513.722 989.97,-438.386 962.5,-384 958.699,-376.474 951.772,-370.224 945.333,-365.64"/>
<polygon fill="#9a32cd" stroke="#9a32cd" points="974.357,-547.933 976.186,-558.369 981.264,-549.07 974.357,-547.933"/>
<text text-anchor="middle" x="1005.5" y="-454" font-family="Helvetica,sans-Serif" font-size="10.00"> end_sink</text>
</g>
<!-- Node17 -->
<g id="node17" class="node"><title>Node17</title>
<g id="a_node17"><a xlink:href="classResponseSource.html" target="_top" xlink:title="Abstract helper class for sources of responses. ">
<polygon fill="white" stroke="black" points="850.5,-486 850.5,-505 946.5,-505 946.5,-486 850.5,-486"/>
<text text-anchor="middle" x="898.5" y="-493" font-family="Helvetica,sans-Serif" font-size="10.00">ResponseSource</text>
</a>
</g>
</g>
<!-- Node4&#45;&gt;Node17 -->
<g id="edge23" class="edge"><title>Node4&#45;&gt;Node17</title>
<path fill="none" stroke="#9a32cd" stroke-dasharray="5,2" d="M928.51,-554.323C921.373,-550.665 914.667,-545.982 909.5,-540 901.048,-530.214 898.932,-514.829 898.489,-505.22"/>
<polygon fill="#9a32cd" stroke="#9a32cd" points="927.14,-557.545 937.698,-558.43 929.996,-551.154 927.14,-557.545"/>
<text text-anchor="middle" x="935" y="-532" font-family="Helvetica,sans-Serif" font-size="10.00"> push_sink</text>
</g>
<!-- Node5&#45;&gt;Node3 -->
<g id="edge4" class="edge"><title>Node5&#45;&gt;Node3</title>
<path fill="none" stroke="#9a32cd" stroke-dasharray="5,2" d="M1051.65,-209.47C1006.36,-196.026 932.91,-174.227 895.321,-163.07"/>
<polygon fill="#9a32cd" stroke="#9a32cd" points="1050.84,-212.878 1061.42,-212.369 1052.83,-206.168 1050.84,-212.878"/>
<text text-anchor="middle" x="1006.5" y="-186" font-family="Helvetica,sans-Serif" font-size="10.00"> pool</text>
</g>
<!-- Node5&#45;&gt;Node8 -->
<g id="edge17" class="edge"><title>Node5&#45;&gt;Node8</title>
<path fill="none" stroke="#9a32cd" stroke-dasharray="5,2" d="M1095.36,-202.415C1098.61,-189.988 1102.74,-174.217 1105.24,-164.627"/>
<polygon fill="#9a32cd" stroke="#9a32cd" points="1091.94,-201.674 1092.79,-212.234 1098.71,-203.445 1091.94,-201.674"/>
<text text-anchor="middle" x="1118" y="-186" font-family="Helvetica,sans-Serif" font-size="10.00"> parent</text>
</g>
<!-- Node6 -->
<g id="node6" class="node"><title>Node6</title>
<polygon fill="white" stroke="#bfbfbf" points="1158.5,-0.5 1158.5,-30.5 1290.5,-30.5 1290.5,-0.5 1158.5,-0.5"/>
<text text-anchor="start" x="1166.5" y="-18.5" font-family="Helvetica,sans-Serif" font-size="10.00">std::vector&lt; std::unique</text>
<text text-anchor="middle" x="1224.5" y="-7.5" font-family="Helvetica,sans-Serif" font-size="10.00">_ptr&lt; Connection &gt; &gt;</text>
</g>
<!-- Node6&#45;&gt;Node5 -->
<g id="edge6" class="edge"><title>Node6&#45;&gt;Node5</title>
<path fill="none" stroke="#9a32cd" stroke-dasharray="5,2" d="M1226.22,-40.6646C1226.07,-47.0587 1225.34,-53.8815 1223.5,-60 1203.3,-127.325 1190.58,-145.717 1139.5,-194 1131.45,-201.606 1120.86,-207.792 1111.58,-212.315"/>
<polygon fill="#9a32cd" stroke="#9a32cd" points="1229.72,-40.4431 1226.04,-30.5084 1222.72,-40.5704 1229.72,-40.4431"/>
<text text-anchor="middle" x="1234" y="-119" font-family="Helvetica,sans-Serif" font-size="10.00"> connections</text>
</g>
<!-- Node7 -->
<g id="node7" class="node"><title>Node7</title>
<polygon fill="white" stroke="#bfbfbf" points="1025,-78.5 1025,-97.5 1190,-97.5 1190,-78.5 1025,-78.5"/>
<text text-anchor="middle" x="1107.5" y="-85.5" font-family="Helvetica,sans-Serif" font-size="10.00">std::unique_ptr&lt; Connection &gt;</text>
</g>
<!-- Node7&#45;&gt;Node6 -->
<g id="edge7" class="edge"><title>Node7&#45;&gt;Node6</title>
<path fill="none" stroke="#9a32cd" stroke-dasharray="5,2" d="M1130.51,-73.1357C1150.93,-60.8328 1180.62,-42.9427 1201.14,-30.5762"/>
<polygon fill="#9a32cd" stroke="#9a32cd" points="1128.61,-70.1963 1121.85,-78.3553 1132.22,-76.192 1128.61,-70.1963"/>
<text text-anchor="middle" x="1195" y="-52" font-family="Helvetica,sans-Serif" font-size="10.00"> elements</text>
</g>
<!-- Node8&#45;&gt;Node7 -->
<g id="edge8" class="edge"><title>Node8&#45;&gt;Node7</title>
<path fill="none" stroke="#9a32cd" stroke-dasharray="5,2" d="M1107.5,-135.037C1107.5,-122.67 1107.5,-107.12 1107.5,-97.6273"/>
<polygon fill="#9a32cd" stroke="#9a32cd" points="1104,-135.234 1107.5,-145.234 1111,-135.234 1104,-135.234"/>
<text text-anchor="middle" x="1116" y="-119" font-family="Helvetica,sans-Serif" font-size="10.00"> ptr</text>
</g>
<!-- Node9 -->
<g id="node9" class="node"><title>Node9</title>
<g id="a_node9"><a xlink:href="classTokeniser.html" target="_top" xlink:title="A string tokeniser. ">
<polygon fill="white" stroke="black" points="1350,-279.5 1350,-298.5 1411,-298.5 1411,-279.5 1350,-279.5"/>
<text text-anchor="middle" x="1380.5" y="-286.5" font-family="Helvetica,sans-Serif" font-size="10.00">Tokeniser</text>
</a>
</g>
</g>
<!-- Node9&#45;&gt;Node8 -->
<g id="edge10" class="edge"><title>Node9&#45;&gt;Node8</title>
<path fill="none" stroke="#9a32cd" stroke-dasharray="5,2" d="M1340.06,-279.094C1307.07,-270.56 1260.25,-255.467 1224.5,-232 1199.53,-215.61 1203.32,-199.623 1178.5,-183 1166.56,-175 1151.91,-168.918 1139.03,-164.571"/>
<polygon fill="#9a32cd" stroke="#9a32cd" points="1339.27,-282.505 1349.82,-281.534 1340.97,-275.714 1339.27,-282.505"/>
<text text-anchor="middle" x="1248.5" y="-219.5" font-family="Helvetica,sans-Serif" font-size="10.00"> tokeniser</text>
</g>
<!-- Node10 -->
<g id="node10" class="node"><title>Node10</title>
<g id="a_node10"><a xlink:title="STL class. ">
<polygon fill="white" stroke="#bfbfbf" points="1288,-558.5 1288,-577.5 1353,-577.5 1353,-558.5 1288,-558.5"/>
<text text-anchor="middle" x="1320.5" y="-565.5" font-family="Helvetica,sans-Serif" font-size="10.00">std::string</text>
</a>
</g>
</g>
<!-- Node10&#45;&gt;Node9 -->
<g id="edge11" class="edge"><title>Node10&#45;&gt;Node9</title>
<path fill="none" stroke="#9a32cd" stroke-dasharray="5,2" d="M1363.36,-561.244C1423.99,-551.88 1527.5,-530.863 1527.5,-496.5 1527.5,-496.5 1527.5,-496.5 1527.5,-355 1527.5,-304.632 1454.42,-292.977 1411.32,-290.483"/>
<polygon fill="#9a32cd" stroke="#9a32cd" points="1362.67,-557.808 1353.3,-562.752 1363.71,-564.731 1362.67,-557.808"/>
<text text-anchor="middle" x="1560.5" y="-420.5" font-family="Helvetica,sans-Serif" font-size="10.00"> current_word</text>
</g>
<!-- Node13 -->
<g id="node13" class="node"><title>Node13</title>
<polygon fill="white" stroke="#bfbfbf" points="1271.5,-413.5 1271.5,-432.5 1409.5,-432.5 1409.5,-413.5 1271.5,-413.5"/>
<text text-anchor="middle" x="1340.5" y="-420.5" font-family="Helvetica,sans-Serif" font-size="10.00">std::vector&lt; std::string &gt;</text>
</g>
<!-- Node10&#45;&gt;Node13 -->
<g id="edge15" class="edge"><title>Node10&#45;&gt;Node13</title>
<path fill="none" stroke="#9a32cd" stroke-dasharray="5,2" d="M1331.73,-549.496C1333.25,-546.433 1334.6,-543.2 1335.5,-540 1346.45,-501.201 1343.34,-452.224 1341.46,-432.654"/>
<polygon fill="#9a32cd" stroke="#9a32cd" points="1328.53,-548.037 1326.6,-558.454 1334.61,-551.515 1328.53,-548.037"/>
<text text-anchor="middle" x="1368" y="-493" font-family="Helvetica,sans-Serif" font-size="10.00"> elements</text>
</g>
<!-- Node29 -->
<g id="node29" class="node"><title>Node29</title>
<g id="a_node29"><a xlink:href="classAudioSystem.html" target="_top" xlink:title="An AudioSystem represents the entire audio stack used by playd. ">
<polygon fill="white" stroke="black" points="694.5,-486 694.5,-505 774.5,-505 774.5,-486 694.5,-486"/>
<text text-anchor="middle" x="734.5" y="-493" font-family="Helvetica,sans-Serif" font-size="10.00">AudioSystem</text>
</a>
</g>
</g>
<!-- Node10&#45;&gt;Node29 -->
<g id="edge37" class="edge"><title>Node10&#45;&gt;Node29</title>
<path fill="none" stroke="#9a32cd" stroke-dasharray="5,2" d="M1277.81,-562.275C1194.07,-552.947 1002.41,-531.308 841.5,-511 819.368,-508.207 794.691,-504.877 774.618,-502.114"/>
<polygon fill="#9a32cd" stroke="#9a32cd" points="1277.62,-565.776 1287.95,-563.403 1278.4,-558.818 1277.62,-565.776"/>
<text text-anchor="middle" x="1101.5" y="-532" font-family="Helvetica,sans-Serif" font-size="10.00"> device_id</text>
</g>
<!-- Node33 -->
<g id="node33" class="node"><title>Node33</title>
<polygon fill="white" stroke="#bfbfbf" points="1195.5,-480.5 1195.5,-510.5 1313.5,-510.5 1313.5,-480.5 1195.5,-480.5"/>
<text text-anchor="start" x="1203.5" y="-498.5" font-family="Helvetica,sans-Serif" font-size="10.00">std::map&lt; State, std</text>
<text text-anchor="middle" x="1254.5" y="-487.5" font-family="Helvetica,sans-Serif" font-size="10.00">::string &gt;</text>
</g>
<!-- Node10&#45;&gt;Node33 -->
<g id="edge43" class="edge"><title>Node10&#45;&gt;Node33</title>
<path fill="none" stroke="#9a32cd" stroke-dasharray="5,2" d="M1300.1,-552.24C1295.42,-548.473 1290.62,-544.274 1286.5,-540 1277.78,-530.954 1269.42,-519.46 1263.44,-510.559"/>
<polygon fill="#9a32cd" stroke="#9a32cd" points="1298.14,-555.15 1308.2,-558.474 1302.41,-549.602 1298.14,-555.15"/>
<text text-anchor="middle" x="1311" y="-532" font-family="Helvetica,sans-Serif" font-size="10.00"> elements</text>
</g>
<!-- Node11 -->
<g id="node11" class="node"><title>Node11</title>
<g id="a_node11"><a xlink:title="STL class. ">
<polygon fill="white" stroke="#bfbfbf" points="1269,-625.5 1269,-655.5 1372,-655.5 1372,-625.5 1269,-625.5"/>
<text text-anchor="start" x="1277" y="-643.5" font-family="Helvetica,sans-Serif" font-size="10.00">std::basic_string&lt;</text>
<text text-anchor="middle" x="1320.5" y="-632.5" font-family="Helvetica,sans-Serif" font-size="10.00"> char &gt;</text>
</a>
</g>
</g>
<!-- Node11&#45;&gt;Node10 -->
<g id="edge12" class="edge"><title>Node11&#45;&gt;Node10</title>
<path fill="none" stroke="midnightblue" d="M1320.5,-615.091C1320.5,-602.214 1320.5,-587.197 1320.5,-577.893"/>
<polygon fill="midnightblue" stroke="midnightblue" points="1317,-615.233 1320.5,-625.233 1324,-615.233 1317,-615.233"/>
</g>
<!-- Node12 -->
<g id="node12" class="node"><title>Node12</title>
<polygon fill="white" stroke="#bfbfbf" points="1389.5,-346.5 1389.5,-365.5 1499.5,-365.5 1499.5,-346.5 1389.5,-346.5"/>
<text text-anchor="middle" x="1444.5" y="-353.5" font-family="Helvetica,sans-Serif" font-size="10.00">std::vector&lt; Line &gt;</text>
</g>
<!-- Node12&#45;&gt;Node9 -->
<g id="edge13" class="edge"><title>Node12&#45;&gt;Node9</title>
<path fill="none" stroke="#9a32cd" stroke-dasharray="5,2" d="M1428.74,-338.997C1416.19,-326.25 1399.1,-308.895 1388.99,-298.627"/>
<polygon fill="#9a32cd" stroke="#9a32cd" points="1426.36,-341.564 1435.87,-346.234 1431.35,-336.652 1426.36,-341.564"/>
<text text-anchor="middle" x="1445.5" y="-320" font-family="Helvetica,sans-Serif" font-size="10.00"> ready_lines</text>
</g>
<!-- Node13&#45;&gt;Node1 -->
<g id="edge51" class="edge"><title>Node13&#45;&gt;Node1</title>
<path fill="none" stroke="#9a32cd" stroke-dasharray="5,2" d="M1321.37,-406.6C1308.74,-394.593 1294.5,-376.692 1294.5,-357 1294.5,-357 1294.5,-357 1294.5,-187.5 1294.5,-149.63 1259.11,-155.782 1234.5,-127 1216.94,-106.461 1221.67,-91.9116 1198.5,-78 1129.31,-36.4544 872.353,-21.1109 796.629,-17.4356"/>
<polygon fill="#9a32cd" stroke="#9a32cd" points="1319.09,-409.254 1328.89,-413.278 1323.74,-404.02 1319.09,-409.254"/>
<text text-anchor="middle" x="1322.5" y="-219.5" font-family="Helvetica,sans-Serif" font-size="10.00"> arguments</text>
</g>
<!-- Node13&#45;&gt;Node9 -->
<g id="edge16" class="edge"><title>Node13&#45;&gt;Node9</title>
<path fill="none" stroke="#9a32cd" stroke-dasharray="5,2" d="M1340.73,-402.896C1341.4,-387.26 1343.46,-364.744 1349.5,-346 1355.29,-328.019 1367.06,-309.224 1374.32,-298.626"/>
<polygon fill="#9a32cd" stroke="#9a32cd" points="1337.22,-403.246 1340.45,-413.337 1344.22,-403.434 1337.22,-403.246"/>
<text text-anchor="middle" x="1365" y="-353.5" font-family="Helvetica,sans-Serif" font-size="10.00"> words</text>
</g>
<!-- Node13&#45;&gt;Node12 -->
<g id="edge14" class="edge"><title>Node13&#45;&gt;Node12</title>
<path fill="none" stroke="#9a32cd" stroke-dasharray="5,2" d="M1363.27,-407.769C1383.86,-394.903 1413.49,-376.379 1430.7,-365.627"/>
<polygon fill="#9a32cd" stroke="#9a32cd" points="1361.15,-404.966 1354.53,-413.234 1364.86,-410.902 1361.15,-404.966"/>
<text text-anchor="middle" x="1424" y="-387" font-family="Helvetica,sans-Serif" font-size="10.00"> elements</text>
</g>
<!-- Node13&#45;&gt;Node15 -->
<g id="edge39" class="edge"><title>Node13&#45;&gt;Node15</title>
<path fill="none" stroke="#9a32cd" stroke-dasharray="5,2" d="M1276.34,-411.828C1183.27,-397.074 1015.25,-370.436 953.811,-360.696"/>
<polygon fill="#9a32cd" stroke="#9a32cd" points="1276.05,-415.326 1286.48,-413.436 1277.15,-408.413 1276.05,-415.326"/>
<text text-anchor="middle" x="1186.5" y="-387" font-family="Helvetica,sans-Serif" font-size="10.00"> FEATURES</text>
</g>
<!-- Node14 -->
<g id="node14" class="node"><title>Node14</title>
<g id="a_node14"><a xlink:href="classCommandHandler.html" target="_top" xlink:title="The playd command handler. ">
<polygon fill="white" stroke="black" points="920.5,-279.5 920.5,-298.5 1024.5,-298.5 1024.5,-279.5 920.5,-279.5"/>
<text text-anchor="middle" x="972.5" y="-286.5" font-family="Helvetica,sans-Serif" font-size="10.00">CommandHandler</text>
</a>
</g>
</g>
<!-- Node14&#45;&gt;Node1 -->
<g id="edge52" class="edge"><title>Node14&#45;&gt;Node1</title>
<path fill="none" stroke="#9a32cd" stroke-dasharray="5,2" d="M959.045,-271.337C950.294,-258.811 940.5,-240.814 940.5,-223 940.5,-223 940.5,-223 940.5,-87 940.5,-25.1651 841.297,-16.8358 796.733,-16.2137"/>
<polygon fill="#9a32cd" stroke="#9a32cd" points="956.288,-273.495 965.078,-279.41 961.895,-269.304 956.288,-273.495"/>
<text text-anchor="middle" x="960.5" y="-152.5" font-family="Helvetica,sans-Serif" font-size="10.00"> handler</text>
</g>
<!-- Node14&#45;&gt;Node5 -->
<g id="edge47" class="edge"><title>Node14&#45;&gt;Node5</title>
<path fill="none" stroke="#9a32cd" stroke-dasharray="5,2" d="M987.717,-272.415C995.736,-264.868 1006.06,-256.135 1016.5,-250 1029.82,-242.173 1045.8,-235.995 1059.5,-231.535"/>
<polygon fill="#9a32cd" stroke="#9a32cd" points="985.25,-269.933 980.547,-279.427 990.144,-274.938 985.25,-269.933"/>
<text text-anchor="middle" x="1036.5" y="-253" font-family="Helvetica,sans-Serif" font-size="10.00"> handler</text>
</g>
<!-- Node14&#45;&gt;Node8 -->
<g id="edge18" class="edge"><title>Node14&#45;&gt;Node8</title>
<path fill="none" stroke="#9a32cd" stroke-dasharray="5,2" d="M974.01,-269.271C976.245,-252.554 981.782,-228.27 995.5,-212 1016.1,-187.568 1049.97,-172.73 1075.08,-164.524"/>
<polygon fill="#9a32cd" stroke="#9a32cd" points="970.506,-269.13 972.931,-279.443 977.467,-269.868 970.506,-269.13"/>
<text text-anchor="middle" x="1015.5" y="-219.5" font-family="Helvetica,sans-Serif" font-size="10.00"> handler</text>
</g>
<!-- Node15&#45;&gt;Node1 -->
<g id="edge50" class="edge"><title>Node15&#45;&gt;Node1</title>
<path fill="none" stroke="#9a32cd" stroke-dasharray="5,2" d="M905.711,-341.16C860.318,-314.202 765.149,-249.786 728.5,-165 708.044,-117.676 704.56,-94.6602 728.5,-49 734.12,-38.2809 745.058,-30.3973 754.968,-25.0811"/>
<polygon fill="#9a32cd" stroke="#9a32cd" points="904.199,-344.331 914.602,-346.338 907.722,-338.281 904.199,-344.331"/>
<text text-anchor="middle" x="760" y="-186" font-family="Helvetica,sans-Serif" font-size="10.00"> player</text>
</g>
<!-- Node15&#45;&gt;Node3 -->
<g id="edge48" class="edge"><title>Node15&#45;&gt;Node3</title>
<path fill="none" stroke="#9a32cd" stroke-dasharray="5,2" d="M922.378,-337.036C914.181,-318.35 901.608,-288.093 893.5,-261 882.981,-225.849 875.624,-182.619 872.791,-164.56"/>
<polygon fill="#9a32cd" stroke="#9a32cd" points="919.265,-338.648 926.529,-346.361 925.66,-335.802 919.265,-338.648"/>
<text text-anchor="middle" x="910" y="-253" font-family="Helvetica,sans-Serif" font-size="10.00"> player</text>
</g>
<!-- Node15&#45;&gt;Node5 -->
<g id="edge46" class="edge"><title>Node15&#45;&gt;Node5</title>
<path fill="none" stroke="#9a32cd" stroke-dasharray="5,2" d="M961.769,-342.502C971.483,-338.265 982.103,-333.263 991.5,-328 1011.29,-316.916 1017.15,-314.723 1033.5,-299 1055.85,-277.509 1076.11,-246.595 1085.3,-231.689"/>
<polygon fill="#9a32cd" stroke="#9a32cd" points="960.272,-339.334 952.435,-346.464 963.008,-345.778 960.272,-339.334"/>
<text text-anchor="middle" x="1068" y="-286.5" font-family="Helvetica,sans-Serif" font-size="10.00"> player</text>
</g>
<!-- Node15&#45;&gt;Node14 -->
<g id="edge19" class="edge"><title>Node15&#45;&gt;Node14</title>
<path fill="none" stroke="#9a32cd" stroke-dasharray="5,2" d="M941.785,-337.535C949.917,-324.95 960.541,-308.507 966.925,-298.627"/>
<polygon fill="#9a32cd" stroke="#9a32cd" points="938.652,-335.935 936.164,-346.234 944.531,-339.734 938.652,-335.935"/>
<text text-anchor="middle" x="971" y="-320" font-family="Helvetica,sans-Serif" font-size="10.00"> player</text>
</g>
<!-- Node16 -->
<g id="node16" class="node"><title>Node16</title>
<g id="a_node16"><a xlink:href="classPlayerFile.html" target="_top" xlink:title="The subcomponent of a Player that stores the audio file. ">
<polygon fill="white" stroke="black" points="786,-413.5 786,-432.5 847,-432.5 847,-413.5 786,-413.5"/>
<text text-anchor="middle" x="816.5" y="-420.5" font-family="Helvetica,sans-Serif" font-size="10.00">PlayerFile</text>
</a>
</g>
</g>
<!-- Node16&#45;&gt;Node15 -->
<g id="edge21" class="edge"><title>Node16&#45;&gt;Node15</title>
<path fill="none" stroke="#9a32cd" stroke-dasharray="5,2" d="M840.852,-408.115C863.438,-395.237 896.342,-376.476 915.369,-365.627"/>
<polygon fill="#9a32cd" stroke="#9a32cd" points="838.828,-405.24 831.875,-413.234 842.295,-411.321 838.828,-405.24"/>
<text text-anchor="middle" x="889" y="-387" font-family="Helvetica,sans-Serif" font-size="10.00"> file</text>
</g>
<!-- Node17&#45;&gt;Node16 -->
<g id="edge22" class="edge"><title>Node17&#45;&gt;Node16</title>
<path fill="none" stroke="midnightblue" d="M880.57,-479.085C864.037,-464.87 840.082,-444.275 826.637,-432.715"/>
<polygon fill="midnightblue" stroke="midnightblue" points="878.581,-481.99 888.445,-485.855 883.144,-476.682 878.581,-481.99"/>
</g>
<!-- Node32 -->
<g id="node32" class="node"><title>Node32</title>
<g id="a_node32"><a xlink:href="classPlayerState.html" target="_top" xlink:title="An object holding and representing the current state of a Player. ">
<polygon fill="white" stroke="black" points="1004.5,-413.5 1004.5,-432.5 1076.5,-432.5 1076.5,-413.5 1004.5,-413.5"/>
<text text-anchor="middle" x="1040.5" y="-420.5" font-family="Helvetica,sans-Serif" font-size="10.00">PlayerState</text>
</a>
</g>
</g>
<!-- Node17&#45;&gt;Node32 -->
<g id="edge41" class="edge"><title>Node17&#45;&gt;Node32</title>
<path fill="none" stroke="midnightblue" d="M956.575,-489.399C978.822,-484.983 1003.22,-476.864 1021.5,-462 1030.77,-454.461 1035.92,-441.247 1038.45,-432.558"/>
<polygon fill="midnightblue" stroke="midnightblue" points="955.77,-485.986 946.534,-491.177 956.992,-492.879 955.77,-485.986"/>
</g>
<!-- Node34 -->
<g id="node34" class="node"><title>Node34</title>
<g id="a_node34"><a xlink:href="classPlayerPosition.html" target="_top" xlink:title="Tracker and broadcaster for the Player&#39;s current position in a song. ">
<polygon fill="white" stroke="black" points="865,-413.5 865,-432.5 948,-432.5 948,-413.5 865,-413.5"/>
<text text-anchor="middle" x="906.5" y="-420.5" font-family="Helvetica,sans-Serif" font-size="10.00">PlayerPosition</text>
</a>
</g>
</g>
<!-- Node17&#45;&gt;Node34 -->
<g id="edge45" class="edge"><title>Node17&#45;&gt;Node34</title>
<path fill="none" stroke="midnightblue" d="M900.615,-475.858C902.2,-461.895 904.296,-443.426 905.511,-432.715"/>
<polygon fill="midnightblue" stroke="midnightblue" points="897.131,-475.524 899.481,-485.855 904.086,-476.314 897.131,-475.524"/>
</g>
<!-- Node18 -->
<g id="node18" class="node"><title>Node18</title>
<polygon fill="white" stroke="#bfbfbf" points="458.5,-486 458.5,-505 596.5,-505 596.5,-486 458.5,-486"/>
<text text-anchor="middle" x="527.5" y="-493" font-family="Helvetica,sans-Serif" font-size="10.00">std::unique_ptr&lt; Audio &gt;</text>
</g>
<!-- Node18&#45;&gt;Node16 -->
<g id="edge24" class="edge"><title>Node18&#45;&gt;Node16</title>
<path fill="none" stroke="#9a32cd" stroke-dasharray="5,2" d="M572.197,-483.596C631.524,-469.124 734.728,-443.948 785.91,-431.462"/>
<polygon fill="#9a32cd" stroke="#9a32cd" points="571.246,-480.226 562.36,-485.996 572.905,-487.026 571.246,-480.226"/>
<text text-anchor="middle" x="713.5" y="-454" font-family="Helvetica,sans-Serif" font-size="10.00"> audio</text>
</g>
<!-- Node19 -->
<g id="node19" class="node"><title>Node19</title>
<g id="a_node19"><a xlink:href="classAudio.html" target="_top" xlink:title="An audio file. ">
<polygon fill="white" stroke="black" points="482.5,-558.5 482.5,-577.5 526.5,-577.5 526.5,-558.5 482.5,-558.5"/>
<text text-anchor="middle" x="504.5" y="-565.5" font-family="Helvetica,sans-Serif" font-size="10.00">Audio</text>
</a>
</g>
</g>
<!-- Node19&#45;&gt;Node18 -->
<g id="edge25" class="edge"><title>Node19&#45;&gt;Node18</title>
<path fill="none" stroke="#9a32cd" stroke-dasharray="5,2" d="M510.447,-548.771C515.017,-534.762 521.128,-516.032 524.657,-505.215"/>
<polygon fill="#9a32cd" stroke="#9a32cd" points="507.094,-547.763 507.32,-558.355 513.749,-549.934 507.094,-547.763"/>
<text text-anchor="middle" x="526" y="-532" font-family="Helvetica,sans-Serif" font-size="10.00"> ptr</text>
</g>
<!-- Node20 -->
<g id="node20" class="node"><title>Node20</title>
<polygon fill="white" stroke="#bfbfbf" points="239.5,-631 239.5,-650 397.5,-650 397.5,-631 239.5,-631"/>
<text text-anchor="middle" x="318.5" y="-638" font-family="Helvetica,sans-Serif" font-size="10.00">std::unique_ptr&lt; AudioSink &gt;</text>
</g>
<!-- Node20&#45;&gt;Node19 -->
<g id="edge26" class="edge"><title>Node20&#45;&gt;Node19</title>
<path fill="none" stroke="#9a32cd" stroke-dasharray="5,2" d="M350.405,-627.407C388.001,-613.157 449.49,-589.851 482.274,-577.424"/>
<polygon fill="#9a32cd" stroke="#9a32cd" points="349.046,-624.179 340.936,-630.996 351.527,-630.725 349.046,-624.179"/>
<text text-anchor="middle" x="439.5" y="-599" font-family="Helvetica,sans-Serif" font-size="10.00"> sink</text>
</g>
<!-- Node21 -->
<g id="node21" class="node"><title>Node21</title>
<g id="a_node21"><a xlink:href="classAudioSink.html" target="_top" xlink:title="An output stream for an Audio file. ">
<polygon fill="white" stroke="black" points="208.5,-703.5 208.5,-722.5 272.5,-722.5 272.5,-703.5 208.5,-703.5"/>
<text text-anchor="middle" x="240.5" y="-710.5" font-family="Helvetica,sans-Serif" font-size="10.00">AudioSink</text>
</a>
</g>
</g>
<!-- Node21&#45;&gt;Node20 -->
<g id="edge27" class="edge"><title>Node21&#45;&gt;Node20</title>
<path fill="none" stroke="#9a32cd" stroke-dasharray="5,2" d="M257.555,-696.585C273.282,-682.37 296.068,-661.775 308.857,-650.215"/>
<polygon fill="#9a32cd" stroke="#9a32cd" points="255.136,-694.053 250.064,-703.355 259.83,-699.246 255.136,-694.053"/>
<text text-anchor="middle" x="291" y="-677" font-family="Helvetica,sans-Serif" font-size="10.00"> ptr</text>
</g>
<!-- Node22 -->
<g id="node22" class="node"><title>Node22</title>
<polygon fill="white" stroke="#bfbfbf" points="329.5,-776 329.5,-795 479.5,-795 479.5,-776 329.5,-776"/>
<text text-anchor="middle" x="404.5" y="-783" font-family="Helvetica,sans-Serif" font-size="10.00">portaudio::CallbackInterface</text>
</g>
<!-- Node22&#45;&gt;Node21 -->
<g id="edge28" class="edge"><title>Node22&#45;&gt;Node21</title>
<path fill="none" stroke="#8b1a1a" d="M375.117,-771.869C341.968,-757.619 288.959,-734.831 260.352,-722.534"/>
<polygon fill="#8b1a1a" stroke="#8b1a1a" points="374.148,-775.262 384.718,-775.996 376.913,-768.831 374.148,-775.262"/>
</g>
<!-- Node23 -->
<g id="node23" class="node"><title>Node23</title>
<g id="a_node23"><a xlink:href="classRingBuffer.html" target="_top" xlink:title="RingBuffer\&lt; char, unsigned\l long \&gt;">
<polygon fill="white" stroke="black" points="0,-770.5 0,-800.5 147,-800.5 147,-770.5 0,-770.5"/>
<text text-anchor="start" x="8" y="-788.5" font-family="Helvetica,sans-Serif" font-size="10.00">RingBuffer&lt; char, unsigned</text>
<text text-anchor="middle" x="73.5" y="-777.5" font-family="Helvetica,sans-Serif" font-size="10.00"> long &gt;</text>
</a>
</g>
</g>
<!-- Node23&#45;&gt;Node21 -->
<g id="edge29" class="edge"><title>Node23&#45;&gt;Node21</title>
<path fill="none" stroke="#9a32cd" stroke-dasharray="5,2" d="M116.42,-766.381C149.82,-752.281 194.665,-733.349 220.286,-722.534"/>
<polygon fill="#9a32cd" stroke="#9a32cd" points="114.745,-763.289 106.894,-770.403 117.468,-769.738 114.745,-763.289"/>
<text text-anchor="middle" x="193.5" y="-744" font-family="Helvetica,sans-Serif" font-size="10.00"> ring_buf</text>
</g>
<!-- Node24 -->
<g id="node24" class="node"><title>Node24</title>
<polygon fill="white" stroke="#bfbfbf" points="165.5,-770.5 165.5,-800.5 311.5,-800.5 311.5,-770.5 165.5,-770.5"/>
<text text-anchor="start" x="173.5" y="-788.5" font-family="Helvetica,sans-Serif" font-size="10.00">std::unique_ptr&lt; portaudio</text>
<text text-anchor="middle" x="238.5" y="-777.5" font-family="Helvetica,sans-Serif" font-size="10.00">::Stream &gt;</text>
</g>
<!-- Node24&#45;&gt;Node21 -->
<g id="edge30" class="edge"><title>Node24&#45;&gt;Node21</title>
<path fill="none" stroke="#9a32cd" stroke-dasharray="5,2" d="M239.192,-760.091C239.558,-747.214 239.984,-732.197 240.248,-722.893"/>
<polygon fill="#9a32cd" stroke="#9a32cd" points="235.69,-760.138 238.905,-770.233 242.687,-760.337 235.69,-760.138"/>
<text text-anchor="middle" x="259.5" y="-744" font-family="Helvetica,sans-Serif" font-size="10.00"> stream</text>
</g>
<!-- Node25 -->
<g id="node25" class="node"><title>Node25</title>
<polygon fill="white" stroke="#bfbfbf" points="418.5,-631 418.5,-650 590.5,-650 590.5,-631 418.5,-631"/>
<text text-anchor="middle" x="504.5" y="-638" font-family="Helvetica,sans-Serif" font-size="10.00">std::unique_ptr&lt; AudioSource &gt;</text>
</g>
<!-- Node25&#45;&gt;Node19 -->
<g id="edge31" class="edge"><title>Node25&#45;&gt;Node19</title>
<path fill="none" stroke="#9a32cd" stroke-dasharray="5,2" d="M504.5,-620.442C504.5,-606.53 504.5,-588.32 504.5,-577.715"/>
<polygon fill="#9a32cd" stroke="#9a32cd" points="501,-620.855 504.5,-630.855 508,-620.855 501,-620.855"/>
<text text-anchor="middle" x="522.5" y="-599" font-family="Helvetica,sans-Serif" font-size="10.00"> source</text>
</g>
<!-- Node26 -->
<g id="node26" class="node"><title>Node26</title>
<g id="a_node26"><a xlink:href="classAudioSource.html" target="_top" xlink:title="An object responsible for decoding an audio file. ">
<polygon fill="white" stroke="black" points="517,-703.5 517,-722.5 594,-722.5 594,-703.5 517,-703.5"/>
<text text-anchor="middle" x="555.5" y="-710.5" font-family="Helvetica,sans-Serif" font-size="10.00">AudioSource</text>
</a>
</g>
</g>
<!-- Node26&#45;&gt;Node25 -->
<g id="edge32" class="edge"><title>Node26&#45;&gt;Node25</title>
<path fill="none" stroke="#9a32cd" stroke-dasharray="5,2" d="M543.199,-694.995C532.981,-680.871 518.86,-661.351 510.805,-650.215"/>
<polygon fill="#9a32cd" stroke="#9a32cd" points="540.549,-697.304 549.246,-703.355 546.221,-693.202 540.549,-697.304"/>
<text text-anchor="middle" x="544" y="-677" font-family="Helvetica,sans-Serif" font-size="10.00"> ptr</text>
</g>
<!-- Node27 -->
<g id="node27" class="node"><title>Node27</title>
<polygon fill="white" stroke="#bfbfbf" points="498,-776 498,-795 621,-795 621,-776 498,-776"/>
<text text-anchor="middle" x="559.5" y="-783" font-family="Helvetica,sans-Serif" font-size="10.00">std::vector&lt; uint8_t &gt;</text>
</g>
<!-- Node27&#45;&gt;Node26 -->
<g id="edge33" class="edge"><title>Node27&#45;&gt;Node26</title>
<path fill="none" stroke="#9a32cd" stroke-dasharray="5,2" d="M558.442,-765.858C557.65,-751.895 556.602,-733.426 555.994,-722.715"/>
<polygon fill="#9a32cd" stroke="#9a32cd" points="554.949,-766.07 559.01,-775.855 561.937,-765.673 554.949,-766.07"/>
<text text-anchor="middle" x="574" y="-744" font-family="Helvetica,sans-Serif" font-size="10.00"> buffer</text>
</g>
<!-- Node28 -->
<g id="node28" class="node"><title>Node28</title>
<polygon fill="white" stroke="#bfbfbf" points="608.5,-631 608.5,-650 752.5,-650 752.5,-631 608.5,-631"/>
<text text-anchor="middle" x="680.5" y="-638" font-family="Helvetica,sans-Serif" font-size="10.00">std::vector&lt; std::uint8_t &gt;</text>
</g>
<!-- Node28&#45;&gt;Node19 -->
<g id="edge34" class="edge"><title>Node28&#45;&gt;Node19</title>
<path fill="none" stroke="#9a32cd" stroke-dasharray="5,2" d="M649.882,-627.235C614.375,-613.012 556.769,-589.937 525.805,-577.534"/>
<polygon fill="#9a32cd" stroke="#9a32cd" points="648.686,-630.527 659.27,-630.996 651.289,-624.029 648.686,-630.527"/>
<text text-anchor="middle" x="614.5" y="-599" font-family="Helvetica,sans-Serif" font-size="10.00"> frame</text>
</g>
<!-- Node29&#45;&gt;Node1 -->
<g id="edge53" class="edge"><title>Node29&#45;&gt;Node1</title>
<path fill="none" stroke="#9a32cd" stroke-dasharray="5,2" d="M717.612,-478.173C706.996,-466.679 694.257,-450.307 688.5,-433 685.695,-424.565 687.548,-421.838 688.5,-413 697.197,-332.245 760.764,-75.4683 773.341,-25.1148"/>
<polygon fill="#9a32cd" stroke="#9a32cd" points="715.362,-480.88 724.836,-485.623 720.388,-476.008 715.362,-480.88"/>
<text text-anchor="middle" x="735.5" y="-253" font-family="Helvetica,sans-Serif" font-size="10.00"> audio</text>
</g>
<!-- Node29&#45;&gt;Node16 -->
<g id="edge35" class="edge"><title>Node29&#45;&gt;Node16</title>
<path fill="none" stroke="#9a32cd" stroke-dasharray="5,2" d="M748.479,-478.465C756.318,-469.884 766.507,-459.388 776.5,-451 784.586,-444.212 794.402,-437.566 802.286,-432.565"/>
<polygon fill="#9a32cd" stroke="#9a32cd" points="745.822,-476.185 741.765,-485.973 751.04,-480.851 745.822,-476.185"/>
<text text-anchor="middle" x="811.5" y="-454" font-family="Helvetica,sans-Serif" font-size="10.00"> audio_system</text>
</g>
<!-- Node30 -->
<g id="node30" class="node"><title>Node30</title>
<g id="a_node30"><a xlink:href="classAudioSinkConfigurator.html" target="_top" xlink:title="Interface for objects that can configure a PortAudio stream from an AudioSource. ">
<polygon fill="white" stroke="black" points="545,-558.5 545,-577.5 668,-577.5 668,-558.5 545,-558.5"/>
<text text-anchor="middle" x="606.5" y="-565.5" font-family="Helvetica,sans-Serif" font-size="10.00">AudioSinkConfigurator</text>
</a>
</g>
</g>
<!-- Node30&#45;&gt;Node29 -->
<g id="edge36" class="edge"><title>Node30&#45;&gt;Node29</title>
<path fill="none" stroke="midnightblue" d="M630.785,-553.624C656.727,-539.336 697.063,-517.119 719.005,-505.034"/>
<polygon fill="midnightblue" stroke="midnightblue" points="629.01,-550.606 621.94,-558.496 632.388,-556.737 629.01,-550.606"/>
</g>
<!-- Node31 -->
<g id="node31" class="node"><title>Node31</title>
<g id="a_node31"><a xlink:href="classTimeParser.html" target="_top" xlink:title="A class for parsing time strings consisting of an integer and unit into a flat integer representing t...">
<polygon fill="white" stroke="black" points="697.5,-413.5 697.5,-432.5 767.5,-432.5 767.5,-413.5 697.5,-413.5"/>
<text text-anchor="middle" x="732.5" y="-420.5" font-family="Helvetica,sans-Serif" font-size="10.00">TimeParser</text>
</a>
</g>
</g>
<!-- Node31&#45;&gt;Node1 -->
<g id="edge49" class="edge"><title>Node31&#45;&gt;Node1</title>
<path fill="none" stroke="#9a32cd" stroke-dasharray="5,2" d="M719.339,-405.283C681.065,-356.365 572.5,-215.332 572.5,-189.5 572.5,-189.5 572.5,-189.5 572.5,-87 572.5,-48.8527 702.04,-26.6637 754.159,-19.28"/>
<polygon fill="#9a32cd" stroke="#9a32cd" points="716.699,-407.588 725.625,-413.296 722.206,-403.268 716.699,-407.588"/>
<text text-anchor="middle" x="623" y="-219.5" font-family="Helvetica,sans-Serif" font-size="10.00"> time_parser</text>
</g>
<!-- Node31&#45;&gt;Node15 -->
<g id="edge38" class="edge"><title>Node31&#45;&gt;Node15</title>
<path fill="none" stroke="#9a32cd" stroke-dasharray="5,2" d="M754.168,-408.108C767.62,-400.032 785.524,-390.247 802.5,-384 837.881,-370.98 881.198,-363.493 907.282,-359.837"/>
<polygon fill="#9a32cd" stroke="#9a32cd" points="752.314,-405.139 745.633,-413.361 755.984,-411.1 752.314,-405.139"/>
<text text-anchor="middle" x="833" y="-387" font-family="Helvetica,sans-Serif" font-size="10.00"> time_parser</text>
</g>
<!-- Node32&#45;&gt;Node15 -->
<g id="edge40" class="edge"><title>Node32&#45;&gt;Node15</title>
<path fill="none" stroke="#9a32cd" stroke-dasharray="5,2" d="M1021.71,-406.893C1012.09,-399.516 1000,-390.79 988.5,-384 976.64,-376.997 962.662,-370.444 951.4,-365.547"/>
<polygon fill="#9a32cd" stroke="#9a32cd" points="1019.74,-409.792 1029.77,-413.195 1024.05,-404.278 1019.74,-409.792"/>
<text text-anchor="middle" x="1019.5" y="-387" font-family="Helvetica,sans-Serif" font-size="10.00"> state</text>
</g>
<!-- Node33&#45;&gt;Node32 -->
<g id="edge42" class="edge"><title>Node33&#45;&gt;Node32</title>
<path fill="none" stroke="#9a32cd" stroke-dasharray="5,2" d="M1202.22,-477.278C1159.2,-463.103 1100.01,-443.606 1066.47,-432.555"/>
<polygon fill="#9a32cd" stroke="#9a32cd" points="1201.37,-480.682 1211.96,-480.487 1203.56,-474.034 1201.37,-480.682"/>
<text text-anchor="middle" x="1177.5" y="-454" font-family="Helvetica,sans-Serif" font-size="10.00"> STRINGS</text>
</g>
<!-- Node34&#45;&gt;Node15 -->
<g id="edge44" class="edge"><title>Node34&#45;&gt;Node15</title>
<path fill="none" stroke="#9a32cd" stroke-dasharray="5,2" d="M913.224,-403.79C917.833,-391.308 923.738,-375.314 927.315,-365.627"/>
<polygon fill="#9a32cd" stroke="#9a32cd" points="909.917,-402.641 909.737,-413.234 916.484,-405.065 909.917,-402.641"/>
<text text-anchor="middle" x="941" y="-387" font-family="Helvetica,sans-Serif" font-size="10.00"> position</text>
</g>
</g>
</svg>
