<?xml version="1.0" encoding="UTF-8" standalone="no"?>
<!DOCTYPE svg PUBLIC "-//W3C//DTD SVG 1.1//EN"
 "http://www.w3.org/Graphics/SVG/1.1/DTD/svg11.dtd">
<!-- Generated by graphviz version 2.38.0 (20140413.2041)
 -->
<!-- Title: Audio Pages: 1 -->
<svg width="654pt" height="202pt"
 viewBox="0.00 0.00 654.00 202.00" xmlns="http://www.w3.org/2000/svg" xmlns:xlink="http://www.w3.org/1999/xlink">
<g id="graph0" class="graph" transform="scale(1 1) rotate(0) translate(4 198)">
<title>Audio</title>
<polygon fill="white" stroke="none" points="-4,4 -4,-198 650,-198 650,4 -4,4"/>
<!-- Node1 -->
<g id="node1" class="node"><title>Node1</title>
<polygon fill="#bfbfbf" stroke="black" points="602,-38.5 602,-57.5 646,-57.5 646,-38.5 602,-38.5"/>
<text text-anchor="middle" x="624" y="-45.5" font-family="Helvetica,sans-Serif" font-size="10.00">Audio</text>
</g>
<!-- Node2 -->
<g id="node2" class="node"><title>Node2</title>
<polygon fill="white" stroke="#bfbfbf" points="365,-79.5 365,-98.5 523,-98.5 523,-79.5 365,-79.5"/>
<text text-anchor="middle" x="444" y="-86.5" font-family="Helvetica,sans-Serif" font-size="10.00">std::unique_ptr&lt; AudioSink &gt;</text>
</g>
<!-- Node2&#45;&gt;Node1 -->
<g id="edge1" class="edge"><title>Node2&#45;&gt;Node1</title>
<path fill="none" stroke="#9a32cd" stroke-dasharray="5,2" d="M519.433,-77.6619C540.489,-73.7586 563.303,-68.8631 584,-63 589.863,-61.3392 596.077,-59.1533 601.781,-56.9657"/>
<polygon fill="#9a32cd" stroke="#9a32cd" points="518.796,-74.2204 509.577,-79.4417 520.04,-81.109 518.796,-74.2204"/>
<text text-anchor="middle" x="566" y="-75" font-family="Helvetica,sans-Serif" font-size="10.00"> sink</text>
</g>
<!-- Node3 -->
<g id="node3" class="node"><title>Node3</title>
<g id="a_node3"><a xlink:href="classAudioSink.html" target="_top" xlink:title="An output stream for an Audio file. ">
<polygon fill="white" stroke="black" points="234.5,-105.5 234.5,-124.5 298.5,-124.5 298.5,-105.5 234.5,-105.5"/>
<text text-anchor="middle" x="266.5" y="-112.5" font-family="Helvetica,sans-Serif" font-size="10.00">AudioSink</text>
</a>
</g>
</g>
<!-- Node3&#45;&gt;Node2 -->
<g id="edge2" class="edge"><title>Node3&#45;&gt;Node2</title>
<path fill="none" stroke="#9a32cd" stroke-dasharray="5,2" d="M308.982,-108.855C329.813,-105.768 355.517,-101.961 378.824,-98.5076"/>
<polygon fill="#9a32cd" stroke="#9a32cd" points="308.255,-105.424 298.876,-110.352 309.281,-112.348 308.255,-105.424"/>
<text text-anchor="middle" x="331.5" y="-110" font-family="Helvetica,sans-Serif" font-size="10.00"> ptr</text>
</g>
<!-- Node4 -->
<g id="node4" class="node"><title>Node4</title>
<polygon fill="white" stroke="#bfbfbf" points="0,-174.5 0,-193.5 150,-193.5 150,-174.5 0,-174.5"/>
<text text-anchor="middle" x="75" y="-181.5" font-family="Helvetica,sans-Serif" font-size="10.00">portaudio::CallbackInterface</text>
</g>
<!-- Node4&#45;&gt;Node3 -->
<g id="edge3" class="edge"><title>Node4&#45;&gt;Node3</title>
<path fill="none" stroke="#8b1a1a" d="M125.893,-171.918C133.99,-169.748 142.256,-167.407 150,-165 177.123,-156.569 183.944,-154.305 210,-143 222.871,-137.416 236.982,-130.283 247.754,-124.614"/>
<polygon fill="#8b1a1a" stroke="#8b1a1a" points="124.933,-168.551 116.147,-174.472 126.707,-175.323 124.933,-168.551"/>
</g>
<!-- Node5 -->
<g id="node5" class="node"><title>Node5</title>
<g id="a_node5"><a xlink:href="classRingBuffer.html" target="_top" xlink:title="RingBuffer\&lt; char, unsigned\l long \&gt;">
<polygon fill="white" stroke="black" points="1.5,-125 1.5,-155 148.5,-155 148.5,-125 1.5,-125"/>
<text text-anchor="start" x="9.5" y="-143" font-family="Helvetica,sans-Serif" font-size="10.00">RingBuffer&lt; char, unsigned</text>
<text text-anchor="middle" x="75" y="-132" font-family="Helvetica,sans-Serif" font-size="10.00"> long &gt;</text>
</a>
</g>
</g>
<!-- Node5&#45;&gt;Node3 -->
<g id="edge4" class="edge"><title>Node5&#45;&gt;Node3</title>
<path fill="none" stroke="#9a32cd" stroke-dasharray="5,2" d="M158.897,-129.064C185.651,-125.534 213.686,-121.836 234.288,-119.118"/>
<polygon fill="#9a32cd" stroke="#9a32cd" points="158.18,-125.628 148.724,-130.406 159.096,-132.568 158.18,-125.628"/>
<text text-anchor="middle" x="189" y="-131" font-family="Helvetica,sans-Serif" font-size="10.00"> ring_buf</text>
</g>
<!-- Node6 -->
<g id="node6" class="node"><title>Node6</title>
<polygon fill="white" stroke="#bfbfbf" points="2,-76 2,-106 148,-106 148,-76 2,-76"/>
<text text-anchor="start" x="10" y="-94" font-family="Helvetica,sans-Serif" font-size="10.00">std::unique_ptr&lt; portaudio</text>
<text text-anchor="middle" x="75" y="-83" font-family="Helvetica,sans-Serif" font-size="10.00">::Stream &gt;</text>
</g>
<!-- Node6&#45;&gt;Node3 -->
<g id="edge5" class="edge"><title>Node6&#45;&gt;Node3</title>
<path fill="none" stroke="#9a32cd" stroke-dasharray="5,2" d="M158.024,-100.473C175.205,-102.548 193.204,-104.787 210,-107 217.914,-108.043 226.453,-109.238 234.404,-110.382"/>
<polygon fill="#9a32cd" stroke="#9a32cd" points="158.363,-96.9891 148.017,-99.2727 157.529,-103.939 158.363,-96.9891"/>
<text text-anchor="middle" x="189" y="-110" font-family="Helvetica,sans-Serif" font-size="10.00"> stream</text>
</g>
<!-- Node7 -->
<g id="node7" class="node"><title>Node7</title>
<polygon fill="white" stroke="#bfbfbf" points="358,-38.5 358,-57.5 530,-57.5 530,-38.5 358,-38.5"/>
<text text-anchor="middle" x="444" y="-45.5" font-family="Helvetica,sans-Serif" font-size="10.00">std::unique_ptr&lt; AudioSource &gt;</text>
</g>
<!-- Node7&#45;&gt;Node1 -->
<g id="edge6" class="edge"><title>Node7&#45;&gt;Node1</title>
<path fill="none" stroke="#9a32cd" stroke-dasharray="5,2" d="M540.394,-48C563.563,-48 586.151,-48 601.835,-48"/>
<polygon fill="#9a32cd" stroke="#9a32cd" points="540.09,-44.5001 530.09,-48 540.09,-51.5001 540.09,-44.5001"/>
<text text-anchor="middle" x="566" y="-51" font-family="Helvetica,sans-Serif" font-size="10.00"> source</text>
</g>
<!-- Node8 -->
<g id="node8" class="node"><title>Node8</title>
<g id="a_node8"><a xlink:href="classAudioSource.html" target="_top" xlink:title="An object responsible for decoding an audio file. ">
<polygon fill="white" stroke="black" points="228,-37.5 228,-56.5 305,-56.5 305,-37.5 228,-37.5"/>
<text text-anchor="middle" x="266.5" y="-44.5" font-family="Helvetica,sans-Serif" font-size="10.00">AudioSource</text>
</a>
</g>
</g>
<!-- Node8&#45;&gt;Node7 -->
<g id="edge7" class="edge"><title>Node8&#45;&gt;Node7</title>
<path fill="none" stroke="#9a32cd" stroke-dasharray="5,2" d="M315.353,-47.2727C328.521,-47.3477 343.213,-47.4314 357.81,-47.5146"/>
<polygon fill="#9a32cd" stroke="#9a32cd" points="315.169,-43.7717 305.149,-47.2145 315.129,-50.7715 315.169,-43.7717"/>
<text text-anchor="middle" x="331.5" y="-51" font-family="Helvetica,sans-Serif" font-size="10.00"> ptr</text>
</g>
<!-- Node9 -->
<g id="node9" class="node"><title>Node9</title>
<polygon fill="white" stroke="#bfbfbf" points="13.5,-37.5 13.5,-56.5 136.5,-56.5 136.5,-37.5 13.5,-37.5"/>
<text text-anchor="middle" x="75" y="-44.5" font-family="Helvetica,sans-Serif" font-size="10.00">std::vector&lt; uint8_t &gt;</text>
</g>
<!-- Node9&#45;&gt;Node8 -->
<g id="edge8" class="edge"><title>Node9&#45;&gt;Node8</title>
<path fill="none" stroke="#9a32cd" stroke-dasharray="5,2" d="M146.75,-47C174.324,-47 204.802,-47 227.976,-47"/>
<polygon fill="#9a32cd" stroke="#9a32cd" points="146.741,-43.5001 136.741,-47 146.741,-50.5001 146.741,-43.5001"/>
<text text-anchor="middle" x="189" y="-50" font-family="Helvetica,sans-Serif" font-size="10.00"> buffer</text>
</g>
<!-- Node10 -->
<g id="node10" class="node"><title>Node10</title>
<polygon fill="white" stroke="#bfbfbf" points="372,-0.5 372,-19.5 516,-19.5 516,-0.5 372,-0.5"/>
<text text-anchor="middle" x="444" y="-7.5" font-family="Helvetica,sans-Serif" font-size="10.00">std::vector&lt; std::uint8_t &gt;</text>
</g>
<!-- Node10&#45;&gt;Node1 -->
<g id="edge9" class="edge"><title>Node10&#45;&gt;Node1</title>
<path fill="none" stroke="#9a32cd" stroke-dasharray="5,2" d="M526.198,-20.5895C545.317,-23.8651 565.509,-27.9704 584,-33 589.88,-34.5994 596.1,-36.7642 601.804,-38.9511"/>
<polygon fill="#9a32cd" stroke="#9a32cd" points="526.75,-17.1333 516.313,-18.9517 525.606,-24.0392 526.75,-17.1333"/>
<text text-anchor="middle" x="566" y="-36" font-family="Helvetica,sans-Serif" font-size="10.00"> frame</text>
</g>
</g>
</svg>
