<?xml version="1.0" encoding="UTF-8" standalone="no"?>
<!DOCTYPE svg PUBLIC "-//W3C//DTD SVG 1.1//EN"
 "http://www.w3.org/Graphics/SVG/1.1/DTD/svg11.dtd">
<!-- Generated by graphviz version 2.36.0 (20140111.2315)
 -->
<!-- Title: NoAudioError Pages: 1 -->
<svg width="110pt" height="224pt"
 viewBox="0.00 0.00 110.00 224.00" xmlns="http://www.w3.org/2000/svg" xmlns:xlink="http://www.w3.org/1999/xlink">
<g id="graph0" class="graph" transform="scale(1 1) rotate(0) translate(4 220)">
<title>NoAudioError</title>
<polygon fill="white" stroke="none" points="-4,4 -4,-220 106,-220 106,4 -4,4"/>
<!-- Node2 -->
<g id="node1" class="node"><title>Node2</title>
<polygon fill="#bfbfbf" stroke="black" points="11,-0.5 11,-19.5 91,-19.5 91,-0.5 11,-0.5"/>
<text text-anchor="middle" x="51" y="-7.5" font-family="Helvetica,sans-Serif" font-size="10.00">NoAudioError</text>
</g>
<!-- Node3 -->
<g id="node2" class="node"><title>Node3</title>
<g id="a_node2"><a xlink:href="classError.html" target="_top" xlink:title="A playd exception. ">
<polygon fill="white" stroke="black" points="31,-58.5 31,-77.5 71,-77.5 71,-58.5 31,-58.5"/>
<text text-anchor="middle" x="51" y="-65.5" font-family="Helvetica,sans-Serif" font-size="10.00">Error</text>
</a>
</g>
</g>
<!-- Node3&#45;&gt;Node2 -->
<g id="edge1" class="edge"><title>Node3&#45;&gt;Node2</title>
<path fill="none" stroke="midnightblue" d="M51,-47.953C51,-38.2875 51,-27.0312 51,-19.5052"/>
<polygon fill="midnightblue" stroke="midnightblue" points="47.5001,-48.25 51,-58.25 54.5001,-48.25 47.5001,-48.25"/>
</g>
<!-- Node4 -->
<g id="node3" class="node"><title>Node4</title>
<g id="a_node3"><a xlink:title="STL class. ">
<polygon fill="white" stroke="#bfbfbf" points="18.5,-126.5 18.5,-145.5 83.5,-145.5 83.5,-126.5 18.5,-126.5"/>
<text text-anchor="middle" x="51" y="-133.5" font-family="Helvetica,sans-Serif" font-size="10.00">std::string</text>
</a>
</g>
</g>
<!-- Node4&#45;&gt;Node3 -->
<g id="edge2" class="edge"><title>Node4&#45;&gt;Node3</title>
<path fill="none" stroke="#9a32cd" stroke-dasharray="5,2" d="M51,-116.041C51,-103.472 51,-87.5631 51,-77.8411"/>
<polygon fill="#9a32cd" stroke="#9a32cd" points="47.5001,-116.372 51,-126.372 54.5001,-116.372 47.5001,-116.372"/>
<text text-anchor="middle" x="75" y="-99.5" font-family="Helvetica,sans-Serif" font-size="10.00"> message</text>
</g>
<!-- Node5 -->
<g id="node4" class="node"><title>Node5</title>
<g id="a_node4"><a xlink:title="STL class. ">
<polygon fill="white" stroke="#bfbfbf" points="-0.5,-185 -0.5,-215 102.5,-215 102.5,-185 -0.5,-185"/>
<text text-anchor="start" x="7.5" y="-203" font-family="Helvetica,sans-Serif" font-size="10.00">std::basic_string&lt;</text>
<text text-anchor="middle" x="51" y="-192" font-family="Helvetica,sans-Serif" font-size="10.00"> char &gt;</text>
</a>
</g>
</g>
<!-- Node5&#45;&gt;Node4 -->
<g id="edge3" class="edge"><title>Node5&#45;&gt;Node4</title>
<path fill="none" stroke="midnightblue" d="M51,-174.871C51,-164.663 51,-153.408 51,-145.842"/>
<polygon fill="midnightblue" stroke="midnightblue" points="47.5001,-174.931 51,-184.931 54.5001,-174.931 47.5001,-174.931"/>
</g>
</g>
</svg>
