<?xml version="1.0" encoding="UTF-8" standalone="no"?>
<!DOCTYPE svg PUBLIC "-//W3C//DTD SVG 1.1//EN"
 "http://www.w3.org/Graphics/SVG/1.1/DTD/svg11.dtd">
<!-- Generated by graphviz version 2.38.0 (20140413.2041)
 -->
<!-- Title: playd Pages: 1 -->
<svg width="2079pt" height="348pt"
 viewBox="0.00 0.00 2079.00 348.00" xmlns="http://www.w3.org/2000/svg" xmlns:xlink="http://www.w3.org/1999/xlink">
<g id="graph0" class="graph" transform="scale(1 1) rotate(0) translate(4 344)">
<title>playd</title>
<polygon fill="white" stroke="none" points="-4,4 -4,-344 2075,-344 2075,4 -4,4"/>
<!-- Node1 -->
<g id="node1" class="node"><title>Node1</title>
<polygon fill="#bfbfbf" stroke="black" points="2029,-108.5 2029,-127.5 2071,-127.5 2071,-108.5 2029,-108.5"/>
<text text-anchor="middle" x="2050" y="-115.5" font-family="Helvetica,sans-Serif" font-size="10.00">playd</text>
</g>
<!-- Node2 -->
<g id="node2" class="node"><title>Node2</title>
<g id="a_node2"><a xlink:href="classTimeParser.html" target="_top" xlink:title="TimeParser\&lt; PlayerPosition\l::Unit \&gt;">
<polygon fill="white" stroke="black" points="1087,-86 1087,-116 1235,-116 1235,-86 1087,-86"/>
<text text-anchor="start" x="1095" y="-104" font-family="Helvetica,sans-Serif" font-size="10.00">TimeParser&lt; PlayerPosition</text>
<text text-anchor="middle" x="1161" y="-93" font-family="Helvetica,sans-Serif" font-size="10.00">::Unit &gt;</text>
</a>
</g>
</g>
<!-- Node2&#45;&gt;Node1 -->
<g id="edge1" class="edge"><title>Node2&#45;&gt;Node1</title>
<path fill="none" stroke="#9a32cd" stroke-dasharray="5,2" d="M1245.43,-99.7502C1279.01,-99.346 1318.1,-99 1353.5,-99 1353.5,-99 1353.5,-99 1907.5,-99 1951.12,-99 2001.65,-107.98 2028.96,-113.593"/>
<polygon fill="#9a32cd" stroke="#9a32cd" points="1245.16,-96.2533 1235.2,-99.8772 1245.24,-103.253 1245.16,-96.2533"/>
<text text-anchor="middle" x="1644.5" y="-102" font-family="Helvetica,sans-Serif" font-size="10.00"> time_parser</text>
</g>
<!-- Node9 -->
<g id="node9" class="node"><title>Node9</title>
<g id="a_node9"><a xlink:href="classPlayer.html" target="_top" xlink:title="A Player contains a loaded audio file and the state of its playback. ">
<polygon fill="white" stroke="black" points="1331,-229.5 1331,-248.5 1378,-248.5 1378,-229.5 1331,-229.5"/>
<text text-anchor="middle" x="1354.5" y="-236.5" font-family="Helvetica,sans-Serif" font-size="10.00">Player</text>
</a>
</g>
</g>
<!-- Node2&#45;&gt;Node9 -->
<g id="edge9" class="edge"><title>Node2&#45;&gt;Node9</title>
<path fill="none" stroke="#9a32cd" stroke-dasharray="5,2" d="M1228.11,-119.419C1256.68,-129.859 1288.98,-145.276 1313,-167 1332.57,-184.701 1344.93,-214.152 1350.34,-229.318"/>
<polygon fill="#9a32cd" stroke="#9a32cd" points="1229.18,-116.085 1218.59,-116.067 1226.86,-122.688 1229.18,-116.085"/>
<text text-anchor="middle" x="1283" y="-170" font-family="Helvetica,sans-Serif" font-size="10.00"> time_parser</text>
</g>
<!-- Node3 -->
<g id="node3" class="node"><title>Node3</title>
<polygon fill="white" stroke="#bfbfbf" points="799,-86 799,-116 918,-116 918,-86 799,-86"/>
<text text-anchor="start" x="807" y="-104" font-family="Helvetica,sans-Serif" font-size="10.00">std::map&lt; std::string,</text>
<text text-anchor="middle" x="858.5" y="-93" font-family="Helvetica,sans-Serif" font-size="10.00"> PlayerPosition::Unit &gt;</text>
</g>
<!-- Node3&#45;&gt;Node2 -->
<g id="edge2" class="edge"><title>Node3&#45;&gt;Node2</title>
<path fill="none" stroke="#9a32cd" stroke-dasharray="5,2" d="M928.256,-91.9605C932.563,-91.5812 936.838,-91.2544 941,-91 997.783,-87.5294 1012.2,-87.8883 1069,-91 1074.71,-91.313 1080.62,-91.7357 1086.55,-92.231"/>
<polygon fill="#9a32cd" stroke="#9a32cd" points="927.801,-88.4881 918.183,-92.9317 928.473,-95.4558 927.801,-88.4881"/>
<text text-anchor="middle" x="1005" y="-94" font-family="Helvetica,sans-Serif" font-size="10.00"> unit_map</text>
</g>
<!-- Node4 -->
<g id="node4" class="node"><title>Node4</title>
<g id="a_node4"><a xlink:title="STL class. ">
<polygon fill="white" stroke="#bfbfbf" points="615,-78.5 615,-97.5 677,-97.5 677,-78.5 615,-78.5"/>
<text text-anchor="middle" x="646" y="-85.5" font-family="Helvetica,sans-Serif" font-size="10.00">std::string</text>
</a>
</g>
</g>
<!-- Node4&#45;&gt;Node3 -->
<g id="edge3" class="edge"><title>Node4&#45;&gt;Node3</title>
<path fill="none" stroke="#9a32cd" stroke-dasharray="5,2" d="M687.341,-90.4914C718.898,-92.4403 763.227,-95.1779 798.728,-97.3704"/>
<polygon fill="#9a32cd" stroke="#9a32cd" points="687.356,-86.9857 677.16,-89.8626 686.925,-93.9724 687.356,-86.9857"/>
<text text-anchor="middle" x="750.5" y="-99" font-family="Helvetica,sans-Serif" font-size="10.00"> keys</text>
</g>
<!-- Node23 -->
<g id="node23" class="node"><title>Node23</title>
<g id="a_node23"><a xlink:href="classAudioSystem.html" target="_top" xlink:title="An AudioSystem represents the entire audio stack used by playd. ">
<polygon fill="white" stroke="black" points="820,-47.5 820,-66.5 897,-66.5 897,-47.5 820,-47.5"/>
<text text-anchor="middle" x="858.5" y="-54.5" font-family="Helvetica,sans-Serif" font-size="10.00">AudioSystem</text>
</a>
</g>
</g>
<!-- Node4&#45;&gt;Node23 -->
<g id="edge27" class="edge"><title>Node4&#45;&gt;Node23</title>
<path fill="none" stroke="#9a32cd" stroke-dasharray="5,2" d="M687.421,-82.0473C725.674,-76.4138 782.642,-68.0243 819.929,-62.533"/>
<polygon fill="#9a32cd" stroke="#9a32cd" points="686.543,-78.6388 677.16,-83.5585 687.563,-85.5641 686.543,-78.6388"/>
<text text-anchor="middle" x="750.5" y="-80" font-family="Helvetica,sans-Serif" font-size="10.00"> device_id</text>
</g>
<!-- Node26 -->
<g id="node26" class="node"><title>Node26</title>
<polygon fill="white" stroke="#bfbfbf" points="804,-135 804,-165 913,-165 913,-135 804,-135"/>
<text text-anchor="start" x="812" y="-153" font-family="Helvetica,sans-Serif" font-size="10.00">std::map&lt; State, std</text>
<text text-anchor="middle" x="858.5" y="-142" font-family="Helvetica,sans-Serif" font-size="10.00">::string &gt;</text>
</g>
<!-- Node4&#45;&gt;Node26 -->
<g id="edge31" class="edge"><title>Node4&#45;&gt;Node26</title>
<path fill="none" stroke="#9a32cd" stroke-dasharray="5,2" d="M686.917,-99.7746C699.138,-103.378 712.621,-107.353 725,-111 751.797,-118.895 781.645,-127.681 806.217,-134.912"/>
<polygon fill="#9a32cd" stroke="#9a32cd" points="687.583,-96.3218 677.001,-96.8502 685.603,-103.036 687.583,-96.3218"/>
<text text-anchor="middle" x="750.5" y="-130" font-family="Helvetica,sans-Serif" font-size="10.00"> elements</text>
</g>
<!-- Node30 -->
<g id="node30" class="node"><title>Node30</title>
<polygon fill="white" stroke="#bfbfbf" points="941,-0.5 941,-19.5 1069,-19.5 1069,-0.5 941,-0.5"/>
<text text-anchor="middle" x="1005" y="-7.5" font-family="Helvetica,sans-Serif" font-size="10.00">std::vector&lt; std::string &gt;</text>
</g>
<!-- Node4&#45;&gt;Node30 -->
<g id="edge39" class="edge"><title>Node4&#45;&gt;Node30</title>
<path fill="none" stroke="#9a32cd" stroke-dasharray="5,2" d="M676.576,-74.1776C690.979,-67.7856 708.675,-60.4264 725,-55 796.817,-31.1286 883.381,-19.6867 940.847,-14.3624"/>
<polygon fill="#9a32cd" stroke="#9a32cd" points="674.864,-71.1101 667.188,-78.4126 677.743,-77.491 674.864,-71.1101"/>
<text text-anchor="middle" x="750.5" y="-58" font-family="Helvetica,sans-Serif" font-size="10.00"> elements</text>
</g>
<!-- Node5 -->
<g id="node5" class="node"><title>Node5</title>
<g id="a_node5"><a xlink:title="STL class. ">
<polygon fill="white" stroke="#bfbfbf" points="384,-73 384,-103 482,-103 482,-73 384,-73"/>
<text text-anchor="start" x="392" y="-91" font-family="Helvetica,sans-Serif" font-size="10.00">std::basic_string&lt;</text>
<text text-anchor="middle" x="433" y="-80" font-family="Helvetica,sans-Serif" font-size="10.00"> char &gt;</text>
</a>
</g>
</g>
<!-- Node5&#45;&gt;Node4 -->
<g id="edge4" class="edge"><title>Node5&#45;&gt;Node4</title>
<path fill="none" stroke="midnightblue" d="M492.258,-88C532.052,-88 583.148,-88 614.986,-88"/>
<polygon fill="midnightblue" stroke="midnightblue" points="492.143,-84.5001 482.143,-88 492.143,-91.5001 492.143,-84.5001"/>
</g>
<!-- Node6 -->
<g id="node6" class="node"><title>Node6</title>
<polygon fill="white" stroke="#bfbfbf" points="1832,-173.5 1832,-192.5 1981,-192.5 1981,-173.5 1832,-173.5"/>
<text text-anchor="middle" x="1906.5" y="-180.5" font-family="Helvetica,sans-Serif" font-size="10.00">std::unique_ptr&lt; IoReactor &gt;</text>
</g>
<!-- Node6&#45;&gt;Node1 -->
<g id="edge5" class="edge"><title>Node6&#45;&gt;Node1</title>
<path fill="none" stroke="#9a32cd" stroke-dasharray="5,2" d="M1962.37,-170.637C1978.6,-165.779 1996.03,-159.326 2011,-151 2022.15,-144.8 2032.94,-134.939 2040.16,-127.609"/>
<polygon fill="#9a32cd" stroke="#9a32cd" points="1961.11,-167.356 1952.45,-173.458 1963.03,-174.089 1961.11,-167.356"/>
<text text-anchor="middle" x="2005" y="-160" font-family="Helvetica,sans-Serif" font-size="10.00"> io</text>
</g>
<!-- Node7 -->
<g id="node7" class="node"><title>Node7</title>
<g id="a_node7"><a xlink:href="classIoReactor.html" target="_top" xlink:title="The IO reactor, which services input, routes responses, and executes the Player update routine period...">
<polygon fill="white" stroke="black" points="1693,-194.5 1693,-213.5 1756,-213.5 1756,-194.5 1693,-194.5"/>
<text text-anchor="middle" x="1724.5" y="-201.5" font-family="Helvetica,sans-Serif" font-size="10.00">IoReactor</text>
</a>
</g>
</g>
<!-- Node7&#45;&gt;Node6 -->
<g id="edge6" class="edge"><title>Node7&#45;&gt;Node6</title>
<path fill="none" stroke="#9a32cd" stroke-dasharray="5,2" d="M1766.02,-199.272C1785.41,-197.011 1809.24,-194.231 1831.68,-191.613"/>
<polygon fill="#9a32cd" stroke="#9a32cd" points="1765.56,-195.802 1756.03,-200.438 1766.37,-202.755 1765.56,-195.802"/>
<text text-anchor="middle" x="1794" y="-201" font-family="Helvetica,sans-Serif" font-size="10.00"> ptr</text>
</g>
<!-- Node8 -->
<g id="node8" class="node"><title>Node8</title>
<g id="a_node8"><a xlink:href="classResponseSink.html" target="_top" xlink:title="Abstract class for anything that can be sent a response. ">
<polygon fill="white" stroke="black" points="603.5,-279.5 603.5,-298.5 688.5,-298.5 688.5,-279.5 603.5,-279.5"/>
<text text-anchor="middle" x="646" y="-286.5" font-family="Helvetica,sans-Serif" font-size="10.00">ResponseSink</text>
</a>
</g>
</g>
<!-- Node8&#45;&gt;Node7 -->
<g id="edge7" class="edge"><title>Node8&#45;&gt;Node7</title>
<path fill="none" stroke="midnightblue" d="M680.009,-302.158C720.957,-317.269 793.234,-340 857.5,-340 857.5,-340 857.5,-340 1413.5,-340 1539.56,-340 1672.01,-244.52 1711.64,-213.563"/>
<polygon fill="midnightblue" stroke="midnightblue" points="681.133,-298.842 670.541,-298.593 678.666,-305.392 681.133,-298.842"/>
</g>
<!-- Node8&#45;&gt;Node9 -->
<g id="edge10" class="edge"><title>Node8&#45;&gt;Node9</title>
<path fill="none" stroke="#9a32cd" stroke-dasharray="5,2" d="M698.777,-281.75C726.909,-277.951 762.325,-273.397 794,-270 923.95,-256.065 956.499,-252.133 1087,-245 1160.69,-240.972 1179.22,-242.623 1253,-241 1279.69,-240.413 1310.38,-239.813 1330.75,-239.426"/>
<polygon fill="#9a32cd" stroke="#9a32cd" points="698.2,-278.296 688.762,-283.112 699.143,-285.232 698.2,-278.296"/>
<text text-anchor="middle" x="1005" y="-258" font-family="Helvetica,sans-Serif" font-size="10.00"> end_sink</text>
</g>
<!-- Node11 -->
<g id="node11" class="node"><title>Node11</title>
<g id="a_node11"><a xlink:href="classResponseSource.html" target="_top" xlink:title="Abstract helper class for sources of responses. ">
<polygon fill="white" stroke="black" points="809.5,-279.5 809.5,-298.5 907.5,-298.5 907.5,-279.5 809.5,-279.5"/>
<text text-anchor="middle" x="858.5" y="-286.5" font-family="Helvetica,sans-Serif" font-size="10.00">ResponseSource</text>
</a>
</g>
</g>
<!-- Node8&#45;&gt;Node11 -->
<g id="edge13" class="edge"><title>Node8&#45;&gt;Node11</title>
<path fill="none" stroke="#9a32cd" stroke-dasharray="5,2" d="M698.729,-289C732.515,-289 776.328,-289 809.368,-289"/>
<polygon fill="#9a32cd" stroke="#9a32cd" points="698.588,-285.5 688.588,-289 698.588,-292.5 698.588,-285.5"/>
<text text-anchor="middle" x="750.5" y="-292" font-family="Helvetica,sans-Serif" font-size="10.00"> push_sink</text>
</g>
<!-- Node9&#45;&gt;Node1 -->
<g id="edge37" class="edge"><title>Node9&#45;&gt;Node1</title>
<path fill="none" stroke="#9a32cd" stroke-dasharray="5,2" d="M1378.54,-253.96C1409.5,-272.592 1466.87,-302 1520.5,-302 1520.5,-302 1520.5,-302 1907.5,-302 1996.36,-302 2037.12,-165.493 2046.72,-127.634"/>
<polygon fill="#9a32cd" stroke="#9a32cd" points="1380.15,-250.846 1369.81,-248.568 1376.48,-256.801 1380.15,-250.846"/>
<text text-anchor="middle" x="1724.5" y="-305" font-family="Helvetica,sans-Serif" font-size="10.00"> player</text>
</g>
<!-- Node9&#45;&gt;Node7 -->
<g id="edge8" class="edge"><title>Node9&#45;&gt;Node7</title>
<path fill="none" stroke="#9a32cd" stroke-dasharray="5,2" d="M1388.26,-239.504C1446.48,-239.834 1571.56,-237.991 1675,-219 1682.11,-217.695 1689.64,-215.687 1696.59,-213.56"/>
<polygon fill="#9a32cd" stroke="#9a32cd" points="1388.22,-236.004 1378.19,-239.421 1388.16,-243.003 1388.22,-236.004"/>
<text text-anchor="middle" x="1521.5" y="-242" font-family="Helvetica,sans-Serif" font-size="10.00"> player</text>
</g>
<!-- Node29 -->
<g id="node29" class="node"><title>Node29</title>
<g id="a_node29"><a xlink:href="classCommandHandler.html" target="_top" xlink:title="The playd command handler. ">
<polygon fill="white" stroke="black" points="1470.5,-146.5 1470.5,-165.5 1572.5,-165.5 1572.5,-146.5 1470.5,-146.5"/>
<text text-anchor="middle" x="1521.5" y="-153.5" font-family="Helvetica,sans-Serif" font-size="10.00">CommandHandler</text>
</a>
</g>
</g>
<!-- Node9&#45;&gt;Node29 -->
<g id="edge36" class="edge"><title>Node9&#45;&gt;Node29</title>
<path fill="none" stroke="#9a32cd" stroke-dasharray="5,2" d="M1374.35,-222.758C1392.03,-208.298 1419.76,-187.546 1447,-175 1455.26,-171.195 1464.41,-168.061 1473.36,-165.513"/>
<polygon fill="#9a32cd" stroke="#9a32cd" points="1371.96,-220.194 1366.52,-229.287 1376.45,-225.569 1371.96,-220.194"/>
<text text-anchor="middle" x="1412.5" y="-208" font-family="Helvetica,sans-Serif" font-size="10.00"> player</text>
</g>
<!-- Node10 -->
<g id="node10" class="node"><title>Node10</title>
<g id="a_node10"><a xlink:href="classPlayerFile.html" target="_top" xlink:title="The subcomponent of a Player that stores the audio file. ">
<polygon fill="white" stroke="black" points="1129.5,-163.5 1129.5,-182.5 1192.5,-182.5 1192.5,-163.5 1129.5,-163.5"/>
<text text-anchor="middle" x="1161" y="-170.5" font-family="Helvetica,sans-Serif" font-size="10.00">PlayerFile</text>
</a>
</g>
</g>
<!-- Node10&#45;&gt;Node9 -->
<g id="edge11" class="edge"><title>Node10&#45;&gt;Node9</title>
<path fill="none" stroke="#9a32cd" stroke-dasharray="5,2" d="M1202.74,-174.354C1234.31,-176.83 1278.37,-183.479 1313,-201 1326.42,-207.791 1338.52,-220.416 1345.93,-229.244"/>
<polygon fill="#9a32cd" stroke="#9a32cd" points="1202.75,-170.847 1192.54,-173.665 1202.28,-177.831 1202.75,-170.847"/>
<text text-anchor="middle" x="1283" y="-204" font-family="Helvetica,sans-Serif" font-size="10.00"> file</text>
</g>
<!-- Node11&#45;&gt;Node10 -->
<g id="edge12" class="edge"><title>Node11&#45;&gt;Node10</title>
<path fill="none" stroke="midnightblue" d="M878.12,-272.73C893.851,-259.82 917.513,-242.287 941,-232 994.342,-208.636 1012.9,-219.636 1069,-204 1091.35,-197.771 1116.26,-189.167 1134.35,-182.603"/>
<polygon fill="midnightblue" stroke="midnightblue" points="875.647,-270.236 870.248,-279.352 880.153,-275.593 875.647,-270.236"/>
</g>
<!-- Node25 -->
<g id="node25" class="node"><title>Node25</title>
<g id="a_node25"><a xlink:href="classPlayerState.html" target="_top" xlink:title="An object holding and representing the current state of a Player. ">
<polygon fill="white" stroke="black" points="1125.5,-254.5 1125.5,-273.5 1196.5,-273.5 1196.5,-254.5 1125.5,-254.5"/>
<text text-anchor="middle" x="1161" y="-261.5" font-family="Helvetica,sans-Serif" font-size="10.00">PlayerState</text>
</a>
</g>
</g>
<!-- Node11&#45;&gt;Node25 -->
<g id="edge29" class="edge"><title>Node11&#45;&gt;Node25</title>
<path fill="none" stroke="midnightblue" d="M917.753,-284.154C979.414,-279.024 1074.68,-271.098 1125.42,-266.877"/>
<polygon fill="midnightblue" stroke="midnightblue" points="917.456,-280.666 907.781,-284.983 918.036,-287.642 917.456,-280.666"/>
</g>
<!-- Node27 -->
<g id="node27" class="node"><title>Node27</title>
<g id="a_node27"><a xlink:href="classPlayerPosition.html" target="_top" xlink:title="Tracker and broadcaster for the Player&#39;s current position in a song. ">
<polygon fill="white" stroke="black" points="1119,-292.5 1119,-311.5 1203,-311.5 1203,-292.5 1119,-292.5"/>
<text text-anchor="middle" x="1161" y="-299.5" font-family="Helvetica,sans-Serif" font-size="10.00">PlayerPosition</text>
</a>
</g>
</g>
<!-- Node11&#45;&gt;Node27 -->
<g id="edge33" class="edge"><title>Node11&#45;&gt;Node27</title>
<path fill="none" stroke="midnightblue" d="M918.064,-291.534C977.068,-294.086 1066.62,-297.96 1118.61,-300.209"/>
<polygon fill="midnightblue" stroke="midnightblue" points="917.922,-288.024 907.781,-291.089 917.62,-295.018 917.922,-288.024"/>
</g>
<!-- Node12 -->
<g id="node12" class="node"><title>Node12</title>
<polygon fill="white" stroke="#bfbfbf" points="794,-184.5 794,-203.5 923,-203.5 923,-184.5 794,-184.5"/>
<text text-anchor="middle" x="858.5" y="-191.5" font-family="Helvetica,sans-Serif" font-size="10.00">std::unique_ptr&lt; Audio &gt;</text>
</g>
<!-- Node12&#45;&gt;Node10 -->
<g id="edge14" class="edge"><title>Node12&#45;&gt;Node10</title>
<path fill="none" stroke="#9a32cd" stroke-dasharray="5,2" d="M907.665,-181.047C912.965,-178.975 918.182,-176.632 923,-174 932.139,-169.008 931.208,-162.545 941,-159 1004.76,-135.914 1085.73,-151.7 1129.16,-163.463"/>
<polygon fill="#9a32cd" stroke="#9a32cd" points="906.325,-177.81 898.099,-184.487 908.694,-184.397 906.325,-177.81"/>
<text text-anchor="middle" x="1005" y="-162" font-family="Helvetica,sans-Serif" font-size="10.00"> audio</text>
</g>
<!-- Node13 -->
<g id="node13" class="node"><title>Node13</title>
<g id="a_node13"><a xlink:href="classAudio.html" target="_top" xlink:title="An audio file. ">
<polygon fill="white" stroke="black" points="624.5,-184.5 624.5,-203.5 667.5,-203.5 667.5,-184.5 624.5,-184.5"/>
<text text-anchor="middle" x="646" y="-191.5" font-family="Helvetica,sans-Serif" font-size="10.00">Audio</text>
</a>
</g>
</g>
<!-- Node13&#45;&gt;Node12 -->
<g id="edge15" class="edge"><title>Node13&#45;&gt;Node12</title>
<path fill="none" stroke="#9a32cd" stroke-dasharray="5,2" d="M677.926,-194C708.233,-194 755.332,-194 793.691,-194"/>
<polygon fill="#9a32cd" stroke="#9a32cd" points="677.567,-190.5 667.567,-194 677.567,-197.5 677.567,-190.5"/>
<text text-anchor="middle" x="750.5" y="-197" font-family="Helvetica,sans-Serif" font-size="10.00"> ptr</text>
</g>
<!-- Node14 -->
<g id="node14" class="node"><title>Node14</title>
<polygon fill="white" stroke="#bfbfbf" points="358.5,-184.5 358.5,-203.5 507.5,-203.5 507.5,-184.5 358.5,-184.5"/>
<text text-anchor="middle" x="433" y="-191.5" font-family="Helvetica,sans-Serif" font-size="10.00">std::unique_ptr&lt; AudioSink &gt;</text>
</g>
<!-- Node14&#45;&gt;Node13 -->
<g id="edge16" class="edge"><title>Node14&#45;&gt;Node13</title>
<path fill="none" stroke="#9a32cd" stroke-dasharray="5,2" d="M517.817,-194C556.725,-194 599.745,-194 624.455,-194"/>
<polygon fill="#9a32cd" stroke="#9a32cd" points="517.501,-190.5 507.501,-194 517.501,-197.5 517.501,-190.5"/>
<text text-anchor="middle" x="549.5" y="-197" font-family="Helvetica,sans-Serif" font-size="10.00"> sink</text>
</g>
<!-- Node15 -->
<g id="node15" class="node"><title>Node15</title>
<g id="a_node15"><a xlink:href="classAudioSink.html" target="_top" xlink:title="An output stream for an Audio file. ">
<polygon fill="white" stroke="black" points="230.5,-208.5 230.5,-227.5 293.5,-227.5 293.5,-208.5 230.5,-208.5"/>
<text text-anchor="middle" x="262" y="-215.5" font-family="Helvetica,sans-Serif" font-size="10.00">AudioSink</text>
</a>
</g>
</g>
<!-- Node15&#45;&gt;Node14 -->
<g id="edge17" class="edge"><title>Node15&#45;&gt;Node14</title>
<path fill="none" stroke="#9a32cd" stroke-dasharray="5,2" d="M303.645,-212.228C321.988,-209.623 344.143,-206.477 364.847,-203.536"/>
<polygon fill="#9a32cd" stroke="#9a32cd" points="303.013,-208.782 293.605,-213.654 303.997,-215.713 303.013,-208.782"/>
<text text-anchor="middle" x="326" y="-213" font-family="Helvetica,sans-Serif" font-size="10.00"> ptr</text>
</g>
<!-- Node16 -->
<g id="node16" class="node"><title>Node16</title>
<polygon fill="white" stroke="#bfbfbf" points="0,-230.5 0,-249.5 147,-249.5 147,-230.5 0,-230.5"/>
<text text-anchor="middle" x="73.5" y="-237.5" font-family="Helvetica,sans-Serif" font-size="10.00">portaudio::CallbackInterface</text>
</g>
<!-- Node16&#45;&gt;Node15 -->
<g id="edge18" class="edge"><title>Node16&#45;&gt;Node15</title>
<path fill="none" stroke="#8b1a1a" d="M157.375,-230.224C183.267,-227.17 210.24,-223.988 230.174,-221.636"/>
<polygon fill="#8b1a1a" stroke="#8b1a1a" points="156.661,-226.784 147.14,-231.431 157.481,-233.736 156.661,-226.784"/>
</g>
<!-- Node17 -->
<g id="node17" class="node"><title>Node17</title>
<g id="a_node17"><a xlink:href="classRingBuffer.html" target="_top" xlink:title="RingBuffer\&lt; char, unsigned\l long \&gt;">
<polygon fill="white" stroke="black" points="1.5,-181 1.5,-211 145.5,-211 145.5,-181 1.5,-181"/>
<text text-anchor="start" x="9.5" y="-199" font-family="Helvetica,sans-Serif" font-size="10.00">RingBuffer&lt; char, unsigned</text>
<text text-anchor="middle" x="73.5" y="-188" font-family="Helvetica,sans-Serif" font-size="10.00"> long &gt;</text>
</a>
</g>
</g>
<!-- Node17&#45;&gt;Node15 -->
<g id="edge19" class="edge"><title>Node17&#45;&gt;Node15</title>
<path fill="none" stroke="#9a32cd" stroke-dasharray="5,2" d="M155.774,-204.16C172.403,-205.968 189.777,-207.957 206,-210 213.946,-211 222.521,-212.193 230.482,-213.348"/>
<polygon fill="#9a32cd" stroke="#9a32cd" points="155.851,-200.648 145.534,-203.058 155.102,-207.608 155.851,-200.648"/>
<text text-anchor="middle" x="185.5" y="-213" font-family="Helvetica,sans-Serif" font-size="10.00"> ring_buf</text>
</g>
<!-- Node18 -->
<g id="node18" class="node"><title>Node18</title>
<polygon fill="white" stroke="#bfbfbf" points="4.5,-269 4.5,-299 142.5,-299 142.5,-269 4.5,-269"/>
<text text-anchor="start" x="12.5" y="-287" font-family="Helvetica,sans-Serif" font-size="10.00">std::unique_ptr&lt; portaudio</text>
<text text-anchor="middle" x="73.5" y="-276" font-family="Helvetica,sans-Serif" font-size="10.00">::Stream &gt;</text>
</g>
<!-- Node18&#45;&gt;Node15 -->
<g id="edge20" class="edge"><title>Node18&#45;&gt;Node15</title>
<path fill="none" stroke="#9a32cd" stroke-dasharray="5,2" d="M133.108,-265.943C155.992,-258.605 182.361,-249.791 206,-241 217.059,-236.887 229.175,-231.876 239.214,-227.583"/>
<polygon fill="#9a32cd" stroke="#9a32cd" points="131.998,-262.624 123.533,-268.994 134.123,-269.293 131.998,-262.624"/>
<text text-anchor="middle" x="185.5" y="-258" font-family="Helvetica,sans-Serif" font-size="10.00"> stream</text>
</g>
<!-- Node19 -->
<g id="node19" class="node"><title>Node19</title>
<polygon fill="white" stroke="#bfbfbf" points="352,-143.5 352,-162.5 514,-162.5 514,-143.5 352,-143.5"/>
<text text-anchor="middle" x="433" y="-150.5" font-family="Helvetica,sans-Serif" font-size="10.00">std::unique_ptr&lt; AudioSource &gt;</text>
</g>
<!-- Node19&#45;&gt;Node13 -->
<g id="edge21" class="edge"><title>Node19&#45;&gt;Node13</title>
<path fill="none" stroke="#9a32cd" stroke-dasharray="5,2" d="M492.934,-164.452C536.841,-172.983 594.21,-184.131 624.384,-189.994"/>
<polygon fill="#9a32cd" stroke="#9a32cd" points="493.422,-160.981 482.938,-162.509 492.087,-167.853 493.422,-160.981"/>
<text text-anchor="middle" x="549.5" y="-182" font-family="Helvetica,sans-Serif" font-size="10.00"> source</text>
</g>
<!-- Node20 -->
<g id="node20" class="node"><title>Node20</title>
<g id="a_node20"><a xlink:href="classAudioSource.html" target="_top" xlink:title="An object responsible for decoding an audio file. ">
<polygon fill="white" stroke="black" points="224,-142.5 224,-161.5 300,-161.5 300,-142.5 224,-142.5"/>
<text text-anchor="middle" x="262" y="-149.5" font-family="Helvetica,sans-Serif" font-size="10.00">AudioSource</text>
</a>
</g>
</g>
<!-- Node20&#45;&gt;Node19 -->
<g id="edge22" class="edge"><title>Node20&#45;&gt;Node19</title>
<path fill="none" stroke="#9a32cd" stroke-dasharray="5,2" d="M310.117,-152.279C323.053,-152.355 337.452,-152.441 351.692,-152.525"/>
<polygon fill="#9a32cd" stroke="#9a32cd" points="310.108,-148.779 300.088,-152.219 310.067,-155.779 310.108,-148.779"/>
<text text-anchor="middle" x="326" y="-156" font-family="Helvetica,sans-Serif" font-size="10.00"> ptr</text>
</g>
<!-- Node21 -->
<g id="node21" class="node"><title>Node21</title>
<polygon fill="white" stroke="#bfbfbf" points="16.5,-142.5 16.5,-161.5 130.5,-161.5 130.5,-142.5 16.5,-142.5"/>
<text text-anchor="middle" x="73.5" y="-149.5" font-family="Helvetica,sans-Serif" font-size="10.00">std::vector&lt; uint8_t &gt;</text>
</g>
<!-- Node21&#45;&gt;Node20 -->
<g id="edge23" class="edge"><title>Node21&#45;&gt;Node20</title>
<path fill="none" stroke="#9a32cd" stroke-dasharray="5,2" d="M140.799,-152C168.672,-152 200.061,-152 223.771,-152"/>
<polygon fill="#9a32cd" stroke="#9a32cd" points="140.709,-148.5 130.709,-152 140.709,-155.5 140.709,-148.5"/>
<text text-anchor="middle" x="185.5" y="-155" font-family="Helvetica,sans-Serif" font-size="10.00"> buffer</text>
</g>
<!-- Node22 -->
<g id="node22" class="node"><title>Node22</title>
<polygon fill="white" stroke="#bfbfbf" points="366.5,-222.5 366.5,-241.5 499.5,-241.5 499.5,-222.5 366.5,-222.5"/>
<text text-anchor="middle" x="433" y="-229.5" font-family="Helvetica,sans-Serif" font-size="10.00">std::vector&lt; std::uint8_t &gt;</text>
</g>
<!-- Node22&#45;&gt;Node13 -->
<g id="edge24" class="edge"><title>Node22&#45;&gt;Node13</title>
<path fill="none" stroke="#9a32cd" stroke-dasharray="5,2" d="M500.275,-220.791C521.594,-217.117 545.309,-212.961 567,-209 586.534,-205.433 608.772,-201.133 624.491,-198.053"/>
<polygon fill="#9a32cd" stroke="#9a32cd" points="499.606,-217.354 490.343,-222.497 500.791,-224.253 499.606,-217.354"/>
<text text-anchor="middle" x="549.5" y="-218" font-family="Helvetica,sans-Serif" font-size="10.00"> frame</text>
</g>
<!-- Node23&#45;&gt;Node1 -->
<g id="edge41" class="edge"><title>Node23&#45;&gt;Node1</title>
<path fill="none" stroke="#9a32cd" stroke-dasharray="5,2" d="M907.644,-57C966.987,-57 1070.92,-57 1160,-57 1160,-57 1160,-57 1907.5,-57 1958.86,-57 2012.78,-91.3125 2036.52,-108.469"/>
<polygon fill="#9a32cd" stroke="#9a32cd" points="907.449,-53.5001 897.449,-57 907.449,-60.5001 907.449,-53.5001"/>
<text text-anchor="middle" x="1521.5" y="-60" font-family="Helvetica,sans-Serif" font-size="10.00"> audio</text>
</g>
<!-- Node23&#45;&gt;Node10 -->
<g id="edge25" class="edge"><title>Node23&#45;&gt;Node10</title>
<path fill="none" stroke="#9a32cd" stroke-dasharray="5,2" d="M906.806,-67.1977C912.551,-69.5545 918.108,-72.4485 923,-76 934.373,-84.2574 929.412,-94.0476 941,-102 989.262,-135.12 1013.55,-114.261 1069,-133 1094.5,-141.619 1122.72,-154.587 1140.87,-163.403"/>
<polygon fill="#9a32cd" stroke="#9a32cd" points="907.641,-63.7796 897.046,-63.7173 905.289,-70.3729 907.641,-63.7796"/>
<text text-anchor="middle" x="1005" y="-136" font-family="Helvetica,sans-Serif" font-size="10.00"> audio_system</text>
</g>
<!-- Node24 -->
<g id="node24" class="node"><title>Node24</title>
<g id="a_node24"><a xlink:href="classAudioSinkConfigurator.html" target="_top" xlink:title="Interface for objects that can configure a PortAudio stream from an AudioSource. ">
<polygon fill="white" stroke="black" points="585,-26.5 585,-45.5 707,-45.5 707,-26.5 585,-26.5"/>
<text text-anchor="middle" x="646" y="-33.5" font-family="Helvetica,sans-Serif" font-size="10.00">AudioSinkConfigurator</text>
</a>
</g>
</g>
<!-- Node24&#45;&gt;Node23 -->
<g id="edge26" class="edge"><title>Node24&#45;&gt;Node23</title>
<path fill="none" stroke="midnightblue" d="M717.031,-42.9864C751.385,-46.4137 791.398,-50.4055 819.911,-53.25"/>
<polygon fill="midnightblue" stroke="midnightblue" points="717.337,-39.4997 707.039,-41.9897 716.642,-46.4652 717.337,-39.4997"/>
</g>
<!-- Node25&#45;&gt;Node9 -->
<g id="edge28" class="edge"><title>Node25&#45;&gt;Node9</title>
<path fill="none" stroke="#9a32cd" stroke-dasharray="5,2" d="M1206.69,-258.166C1245.57,-253.09 1300.31,-245.943 1330.78,-241.966"/>
<polygon fill="#9a32cd" stroke="#9a32cd" points="1206.14,-254.708 1196.68,-259.473 1207.05,-261.649 1206.14,-254.708"/>
<text text-anchor="middle" x="1283" y="-255" font-family="Helvetica,sans-Serif" font-size="10.00"> state</text>
</g>
<!-- Node26&#45;&gt;Node25 -->
<g id="edge30" class="edge"><title>Node26&#45;&gt;Node25</title>
<path fill="none" stroke="#9a32cd" stroke-dasharray="5,2" d="M923.094,-167.856C965.105,-180.328 1021.05,-198.237 1069,-218 1095.51,-228.928 1124.91,-244.446 1142.93,-254.369"/>
<polygon fill="#9a32cd" stroke="#9a32cd" points="923.852,-164.431 913.27,-164.963 921.874,-171.146 923.852,-164.431"/>
<text text-anchor="middle" x="1005" y="-221" font-family="Helvetica,sans-Serif" font-size="10.00"> STRINGS</text>
</g>
<!-- Node27&#45;&gt;Node9 -->
<g id="edge32" class="edge"><title>Node27&#45;&gt;Node9</title>
<path fill="none" stroke="#9a32cd" stroke-dasharray="5,2" d="M1213.3,-295.047C1243.27,-289.791 1281.3,-281.018 1313,-267 1323.63,-262.299 1334.4,-254.69 1342.15,-248.59"/>
<polygon fill="#9a32cd" stroke="#9a32cd" points="1212.35,-291.658 1203.07,-296.763 1213.51,-298.562 1212.35,-291.658"/>
<text text-anchor="middle" x="1283" y="-289" font-family="Helvetica,sans-Serif" font-size="10.00"> position</text>
</g>
<!-- Node28 -->
<g id="node28" class="node"><title>Node28</title>
<polygon fill="white" stroke="#bfbfbf" points="1447,-185 1447,-215 1596,-215 1596,-185 1447,-185"/>
<text text-anchor="start" x="1455" y="-203" font-family="Helvetica,sans-Serif" font-size="10.00">std::set&lt; std::shared</text>
<text text-anchor="middle" x="1521.5" y="-192" font-family="Helvetica,sans-Serif" font-size="10.00">_ptr&lt; TcpResponseSink &gt; &gt;</text>
</g>
<!-- Node28&#45;&gt;Node7 -->
<g id="edge34" class="edge"><title>Node28&#45;&gt;Node7</title>
<path fill="none" stroke="#9a32cd" stroke-dasharray="5,2" d="M1606.49,-201.671C1637.11,-202.281 1669.84,-202.932 1692.87,-203.391"/>
<polygon fill="#9a32cd" stroke="#9a32cd" points="1606.27,-198.166 1596.2,-201.467 1606.13,-205.165 1606.27,-198.166"/>
<text text-anchor="middle" x="1644.5" y="-207" font-family="Helvetica,sans-Serif" font-size="10.00"> connections</text>
</g>
<!-- Node29&#45;&gt;Node1 -->
<g id="edge40" class="edge"><title>Node29&#45;&gt;Node1</title>
<path fill="none" stroke="#9a32cd" stroke-dasharray="5,2" d="M1582.77,-151.65C1700.36,-143.163 1955.32,-124.761 2028.8,-119.458"/>
<polygon fill="#9a32cd" stroke="#9a32cd" points="1582.23,-148.18 1572.51,-152.391 1582.73,-155.162 1582.23,-148.18"/>
<text text-anchor="middle" x="1794" y="-141" font-family="Helvetica,sans-Serif" font-size="10.00"> handler</text>
</g>
<!-- Node29&#45;&gt;Node7 -->
<g id="edge35" class="edge"><title>Node29&#45;&gt;Node7</title>
<path fill="none" stroke="#9a32cd" stroke-dasharray="5,2" d="M1582.82,-166.296C1611.03,-171.612 1644.96,-178.723 1675,-187 1682.57,-189.086 1690.67,-191.746 1698.03,-194.34"/>
<polygon fill="#9a32cd" stroke="#9a32cd" points="1583.17,-162.802 1572.7,-164.42 1581.9,-169.685 1583.17,-162.802"/>
<text text-anchor="middle" x="1644.5" y="-190" font-family="Helvetica,sans-Serif" font-size="10.00"> handler</text>
</g>
<!-- Node30&#45;&gt;Node1 -->
<g id="edge38" class="edge"><title>Node30&#45;&gt;Node1</title>
<path fill="none" stroke="#9a32cd" stroke-dasharray="5,2" d="M1079.14,-10C1134.77,-10 1213.21,-10 1282,-10 1282,-10 1282,-10 1907.5,-10 1955.78,-10 1974.24,-11.7031 2011,-43 2031.78,-60.6937 2042.48,-92.5568 2046.74,-108.448"/>
<polygon fill="#9a32cd" stroke="#9a32cd" points="1079.03,-6.5001 1069.03,-10 1079.03,-13.5001 1079.03,-6.5001"/>
<text text-anchor="middle" x="1521.5" y="-13" font-family="Helvetica,sans-Serif" font-size="10.00"> arguments</text>
</g>
</g>
</svg>
