<?xml version="1.0" encoding="UTF-8" standalone="no"?>
<!DOCTYPE svg PUBLIC "-//W3C//DTD SVG 1.1//EN"
 "http://www.w3.org/Graphics/SVG/1.1/DTD/svg11.dtd">
<!-- Generated by graphviz version 2.36.0 (20140111.2315)
 -->
<!-- Title: Player Pages: 1 -->
<svg width="388pt" height="246pt"
 viewBox="0.00 0.00 388.00 246.00" xmlns="http://www.w3.org/2000/svg" xmlns:xlink="http://www.w3.org/1999/xlink">
<g id="graph0" class="graph" transform="scale(1 1) rotate(0) translate(4 242)">
<title>Player</title>
<polygon fill="white" stroke="none" points="-4,4 -4,-242 384,-242 384,4 -4,4"/>
<!-- Node1 -->
<g id="node1" class="node"><title>Node1</title>
<polygon fill="#bfbfbf" stroke="black" points="175,-0.5 175,-19.5 221,-19.5 221,-0.5 175,-0.5"/>
<text text-anchor="middle" x="198" y="-7.5" font-family="Helvetica,sans-Serif" font-size="10.00">Player</text>
</g>
<!-- Node2 -->
<g id="node2" class="node"><title>Node2</title>
<polygon fill="white" stroke="#bfbfbf" points="0,-74.5 0,-93.5 138,-93.5 138,-74.5 0,-74.5"/>
<text text-anchor="middle" x="69" y="-81.5" font-family="Helvetica,sans-Serif" font-size="10.00">std::unique_ptr&lt; Audio &gt;</text>
</g>
<!-- Node2&#45;&gt;Node1 -->
<g id="edge1" class="edge"><title>Node2&#45;&gt;Node1</title>
<path fill="none" stroke="#9a32cd" stroke-dasharray="5,2" d="M93.2476,-69.4665C119.513,-54.8064 160.615,-31.866 182.715,-19.531"/>
<polygon fill="#9a32cd" stroke="#9a32cd" points="91.3308,-66.528 84.3046,-74.4579 94.7424,-72.6404 91.3308,-66.528"/>
<text text-anchor="middle" x="157.5" y="-41.5" font-family="Helvetica,sans-Serif" font-size="10.00"> file</text>
</g>
<!-- Node3 -->
<g id="node3" class="node"><title>Node3</title>
<g id="a_node3"><a xlink:href="classAudio.html" target="_top" xlink:title="An audio item. ">
<polygon fill="white" stroke="black" points="47,-148.5 47,-167.5 91,-167.5 91,-148.5 47,-148.5"/>
<text text-anchor="middle" x="69" y="-155.5" font-family="Helvetica,sans-Serif" font-size="10.00">Audio</text>
</a>
</g>
</g>
<!-- Node3&#45;&gt;Node2 -->
<g id="edge2" class="edge"><title>Node3&#45;&gt;Node2</title>
<path fill="none" stroke="#9a32cd" stroke-dasharray="5,2" d="M69,-138.156C69,-123.712 69,-104.459 69,-93.531"/>
<polygon fill="#9a32cd" stroke="#9a32cd" points="65.5001,-138.458 69,-148.458 72.5001,-138.458 65.5001,-138.458"/>
<text text-anchor="middle" x="77.5" y="-121.5" font-family="Helvetica,sans-Serif" font-size="10.00"> ptr</text>
</g>
<!-- Node4 -->
<g id="node4" class="node"><title>Node4</title>
<g id="a_node4"><a xlink:href="classResponseSink.html" target="_top" xlink:title="Abstract class for anything that can be sent a response. ">
<polygon fill="white" stroke="black" points="156.5,-74.5 156.5,-93.5 239.5,-93.5 239.5,-74.5 156.5,-74.5"/>
<text text-anchor="middle" x="198" y="-81.5" font-family="Helvetica,sans-Serif" font-size="10.00">ResponseSink</text>
</a>
</g>
</g>
<!-- Node4&#45;&gt;Node1 -->
<g id="edge3" class="edge"><title>Node4&#45;&gt;Node1</title>
<path fill="none" stroke="#9a32cd" stroke-dasharray="5,2" d="M198,-64.1562C198,-49.7123 198,-30.4594 198,-19.531"/>
<polygon fill="#9a32cd" stroke="#9a32cd" points="194.5,-64.4579 198,-74.4579 201.5,-64.4579 194.5,-64.4579"/>
<text text-anchor="middle" x="204" y="-41.5" font-family="Helvetica,sans-Serif" font-size="10.00"> io</text>
</g>
<!-- Node5 -->
<g id="node5" class="node"><title>Node5</title>
<polygon fill="white" stroke="#bfbfbf" points="258,-69 258,-99 380,-99 380,-69 258,-69"/>
<text text-anchor="start" x="266" y="-87" font-family="Helvetica,sans-Serif" font-size="10.00">std::map&lt; std::string,</text>
<text text-anchor="middle" x="319" y="-76" font-family="Helvetica,sans-Serif" font-size="10.00"> SourceFn &gt;</text>
</g>
<!-- Node5&#45;&gt;Node1 -->
<g id="edge4" class="edge"><title>Node5&#45;&gt;Node1</title>
<path fill="none" stroke="#9a32cd" stroke-dasharray="5,2" d="M286.552,-63.6922C262.419,-49.3317 230.637,-30.4201 212.448,-19.5972"/>
<polygon fill="#9a32cd" stroke="#9a32cd" points="284.999,-66.8409 295.383,-68.9468 288.579,-60.8253 284.999,-66.8409"/>
<text text-anchor="middle" x="283.5" y="-41.5" font-family="Helvetica,sans-Serif" font-size="10.00"> sources</text>
</g>
<!-- Node6 -->
<g id="node6" class="node"><title>Node6</title>
<g id="a_node6"><a xlink:title="STL class. ">
<polygon fill="white" stroke="#bfbfbf" points="286.5,-148.5 286.5,-167.5 351.5,-167.5 351.5,-148.5 286.5,-148.5"/>
<text text-anchor="middle" x="319" y="-155.5" font-family="Helvetica,sans-Serif" font-size="10.00">std::string</text>
</a>
</g>
</g>
<!-- Node6&#45;&gt;Node5 -->
<g id="edge5" class="edge"><title>Node6&#45;&gt;Node5</title>
<path fill="none" stroke="#9a32cd" stroke-dasharray="5,2" d="M319,-138.085C319,-125.915 319,-110.354 319,-99.2316"/>
<polygon fill="#9a32cd" stroke="#9a32cd" points="315.5,-138.458 319,-148.458 322.5,-138.458 315.5,-138.458"/>
<text text-anchor="middle" x="331.5" y="-121.5" font-family="Helvetica,sans-Serif" font-size="10.00"> keys</text>
</g>
<!-- Node7 -->
<g id="node7" class="node"><title>Node7</title>
<g id="a_node7"><a xlink:title="STL class. ">
<polygon fill="white" stroke="#bfbfbf" points="267.5,-207 267.5,-237 370.5,-237 370.5,-207 267.5,-207"/>
<text text-anchor="start" x="275.5" y="-225" font-family="Helvetica,sans-Serif" font-size="10.00">std::basic_string&lt;</text>
<text text-anchor="middle" x="319" y="-214" font-family="Helvetica,sans-Serif" font-size="10.00"> char &gt;</text>
</a>
</g>
</g>
<!-- Node7&#45;&gt;Node6 -->
<g id="edge6" class="edge"><title>Node7&#45;&gt;Node6</title>
<path fill="none" stroke="midnightblue" d="M319,-196.871C319,-186.663 319,-175.408 319,-167.842"/>
<polygon fill="midnightblue" stroke="midnightblue" points="315.5,-196.931 319,-206.931 322.5,-196.931 315.5,-196.931"/>
</g>
</g>
</svg>
