<?xml version="1.0" encoding="UTF-8" standalone="no"?>
<!DOCTYPE svg PUBLIC "-//W3C//DTD SVG 1.1//EN"
 "http://www.w3.org/Graphics/SVG/1.1/DTD/svg11.dtd">
<!-- Generated by graphviz version 2.36.0 (20140111.2315)
 -->
<!-- Title: Response Pages: 1 -->
<svg width="247pt" height="246pt"
 viewBox="0.00 0.00 247.00 246.00" xmlns="http://www.w3.org/2000/svg" xmlns:xlink="http://www.w3.org/1999/xlink">
<g id="graph0" class="graph" transform="scale(1 1) rotate(0) translate(4 242)">
<title>Response</title>
<polygon fill="white" stroke="none" points="-4,4 -4,-242 243,-242 243,4 -4,4"/>
<!-- Node1 -->
<g id="node1" class="node"><title>Node1</title>
<polygon fill="#bfbfbf" stroke="black" points="47,-0.5 47,-19.5 109,-19.5 109,-0.5 47,-0.5"/>
<text text-anchor="middle" x="78" y="-7.5" font-family="Helvetica,sans-Serif" font-size="10.00">Response</text>
</g>
<!-- Node2 -->
<g id="node2" class="node"><title>Node2</title>
<polygon fill="white" stroke="#bfbfbf" points="114.5,-69 114.5,-99 239.5,-99 239.5,-69 114.5,-69"/>
<text text-anchor="start" x="122.5" y="-87" font-family="Helvetica,sans-Serif" font-size="10.00">std::array&lt; std::string,</text>
<text text-anchor="middle" x="177" y="-76" font-family="Helvetica,sans-Serif" font-size="10.00"> CODE_COUNT &gt;</text>
</g>
<!-- Node2&#45;&gt;Node1 -->
<g id="edge1" class="edge"><title>Node2&#45;&gt;Node1</title>
<path fill="none" stroke="#9a32cd" stroke-dasharray="5,2" d="M149.162,-62.7545C129.56,-48.4985 104.313,-30.1365 89.7622,-19.5543"/>
<polygon fill="#9a32cd" stroke="#9a32cd" points="147.295,-65.7239 157.441,-68.7751 151.412,-60.0628 147.295,-65.7239"/>
<text text-anchor="middle" x="153" y="-41.5" font-family="Helvetica,sans-Serif" font-size="10.00"> STRINGS</text>
</g>
<!-- Node3 -->
<g id="node3" class="node"><title>Node3</title>
<g id="a_node3"><a xlink:title="STL class. ">
<polygon fill="white" stroke="#bfbfbf" points="18.5,-148.5 18.5,-167.5 83.5,-167.5 83.5,-148.5 18.5,-148.5"/>
<text text-anchor="middle" x="51" y="-155.5" font-family="Helvetica,sans-Serif" font-size="10.00">std::string</text>
</a>
</g>
</g>
<!-- Node3&#45;&gt;Node1 -->
<g id="edge4" class="edge"><title>Node3&#45;&gt;Node1</title>
<path fill="none" stroke="#9a32cd" stroke-dasharray="5,2" d="M46.3175,-138.592C42.4742,-120.354 38.6127,-91.7806 45,-68 50.0424,-49.2265 62.9402,-30.2508 71.0368,-19.6201"/>
<polygon fill="#9a32cd" stroke="#9a32cd" points="42.9422,-139.531 48.6163,-148.478 49.7603,-137.945 42.9422,-139.531"/>
<text text-anchor="middle" x="75.5" y="-87" font-family="Helvetica,sans-Serif" font-size="10.00"> string</text>
<text text-anchor="middle" x="75.5" y="-76" font-family="Helvetica,sans-Serif" font-size="10.00">NOREQUEST</text>
</g>
<!-- Node3&#45;&gt;Node2 -->
<g id="edge2" class="edge"><title>Node3&#45;&gt;Node2</title>
<path fill="none" stroke="#9a32cd" stroke-dasharray="5,2" d="M74.6982,-143.458C96.7911,-130.834 129.621,-112.074 152.095,-99.2316"/>
<polygon fill="#9a32cd" stroke="#9a32cd" points="72.8946,-140.458 65.9486,-148.458 76.3676,-146.535 72.8946,-140.458"/>
<text text-anchor="middle" x="141.5" y="-121.5" font-family="Helvetica,sans-Serif" font-size="10.00"> elements</text>
</g>
<!-- Node4 -->
<g id="node4" class="node"><title>Node4</title>
<g id="a_node4"><a xlink:title="STL class. ">
<polygon fill="white" stroke="#bfbfbf" points="-0.5,-207 -0.5,-237 102.5,-237 102.5,-207 -0.5,-207"/>
<text text-anchor="start" x="7.5" y="-225" font-family="Helvetica,sans-Serif" font-size="10.00">std::basic_string&lt;</text>
<text text-anchor="middle" x="51" y="-214" font-family="Helvetica,sans-Serif" font-size="10.00"> char &gt;</text>
</a>
</g>
</g>
<!-- Node4&#45;&gt;Node3 -->
<g id="edge3" class="edge"><title>Node4&#45;&gt;Node3</title>
<path fill="none" stroke="midnightblue" d="M51,-196.871C51,-186.663 51,-175.408 51,-167.842"/>
<polygon fill="midnightblue" stroke="midnightblue" points="47.5001,-196.931 51,-206.931 54.5001,-196.931 47.5001,-196.931"/>
</g>
</g>
</svg>
