<?xml version="1.0" encoding="UTF-8" standalone="no"?>
<!DOCTYPE svg PUBLIC "-//W3C//DTD SVG 1.1//EN"
 "http://www.w3.org/Graphics/SVG/1.1/DTD/svg11.dtd">
<!-- Generated by graphviz version 2.36.0 (20140111.2315)
 -->
<!-- Title: SdlAudioSink Pages: 1 -->
<svg width="336pt" height="108pt"
 viewBox="0.00 0.00 336.00 108.00" xmlns="http://www.w3.org/2000/svg" xmlns:xlink="http://www.w3.org/1999/xlink">
<g id="graph0" class="graph" transform="scale(1 1) rotate(0) translate(4 104)">
<title>SdlAudioSink</title>
<polygon fill="white" stroke="none" points="-4,4 -4,-104 332,-104 332,4 -4,4"/>
<!-- Node2 -->
<g id="node1" class="node"><title>Node2</title>
<polygon fill="#bfbfbf" stroke="black" points="75.5,-0.5 75.5,-19.5 154.5,-19.5 154.5,-0.5 75.5,-0.5"/>
<text text-anchor="middle" x="115" y="-7.5" font-family="Helvetica,sans-Serif" font-size="10.00">SdlAudioSink</text>
</g>
<!-- Node3 -->
<g id="node2" class="node"><title>Node3</title>
<g id="a_node2"><a xlink:href="classAudioSink.html" target="_top" xlink:title="Abstract class for audio output sinks. ">
<polygon fill="white" stroke="black" points="0,-74.5 0,-93.5 64,-93.5 64,-74.5 0,-74.5"/>
<text text-anchor="middle" x="32" y="-81.5" font-family="Helvetica,sans-Serif" font-size="10.00">AudioSink</text>
</a>
</g>
</g>
<!-- Node3&#45;&gt;Node2 -->
<g id="edge1" class="edge"><title>Node3&#45;&gt;Node2</title>
<path fill="none" stroke="midnightblue" d="M49.4144,-67.8935C66.3417,-53.2096 91.445,-31.4332 105.166,-19.531"/>
<polygon fill="midnightblue" stroke="midnightblue" points="47.1076,-65.2612 41.8471,-74.4579 51.6945,-70.549 47.1076,-65.2612"/>
</g>
<!-- Node4 -->
<g id="node3" class="node"><title>Node4</title>
<g id="a_node3"><a xlink:href="classRingBuffer.html" target="_top" xlink:title="A ring buffer. ">
<polygon fill="white" stroke="black" points="82.5,-74.5 82.5,-93.5 147.5,-93.5 147.5,-74.5 82.5,-74.5"/>
<text text-anchor="middle" x="115" y="-81.5" font-family="Helvetica,sans-Serif" font-size="10.00">RingBuffer</text>
</a>
</g>
</g>
<!-- Node4&#45;&gt;Node2 -->
<g id="edge2" class="edge"><title>Node4&#45;&gt;Node2</title>
<path fill="none" stroke="#9a32cd" stroke-dasharray="5,2" d="M115,-64.1562C115,-49.7123 115,-30.4594 115,-19.531"/>
<polygon fill="#9a32cd" stroke="#9a32cd" points="111.5,-64.4579 115,-74.4579 118.5,-64.4579 111.5,-64.4579"/>
<text text-anchor="middle" x="136" y="-41.5" font-family="Helvetica,sans-Serif" font-size="10.00"> ring_buf</text>
</g>
<!-- Node5 -->
<g id="node4" class="node"><title>Node5</title>
<polygon fill="white" stroke="#bfbfbf" points="165.5,-69 165.5,-99 328.5,-99 328.5,-69 165.5,-69"/>
<text text-anchor="start" x="173.5" y="-87" font-family="Helvetica,sans-Serif" font-size="10.00">std::array&lt; SDL_AudioFormat,</text>
<text text-anchor="middle" x="247" y="-76" font-family="Helvetica,sans-Serif" font-size="10.00"> SAMPLE_FORMAT_COUNT &gt;</text>
</g>
<!-- Node5&#45;&gt;Node2 -->
<g id="edge3" class="edge"><title>Node5&#45;&gt;Node2</title>
<path fill="none" stroke="#9a32cd" stroke-dasharray="5,2" d="M212.296,-64.0707C185.887,-49.6656 150.778,-30.5154 130.762,-19.5972"/>
<polygon fill="#9a32cd" stroke="#9a32cd" points="210.781,-67.2308 221.236,-68.9468 214.133,-61.0855 210.781,-67.2308"/>
<text text-anchor="middle" x="209.5" y="-41.5" font-family="Helvetica,sans-Serif" font-size="10.00"> FORMATS</text>
</g>
</g>
</svg>
