<?xml version="1.0" encoding="UTF-8" standalone="no"?>
<!DOCTYPE svg PUBLIC "-//W3C//DTD SVG 1.1//EN"
 "http://www.w3.org/Graphics/SVG/1.1/DTD/svg11.dtd">
<!-- Generated by graphviz version 2.38.0 (20140413.2041)
 -->
<!-- Title: CommandHandler Pages: 1 -->
<svg width="632pt" height="440pt"
 viewBox="0.00 0.00 631.50 440.00" xmlns="http://www.w3.org/2000/svg" xmlns:xlink="http://www.w3.org/1999/xlink">
<g id="graph0" class="graph" transform="scale(1 1) rotate(0) translate(4 436)">
<title>CommandHandler</title>
<polygon fill="white" stroke="none" points="-4,4 -4,-436 627.5,-436 627.5,4 -4,4"/>
<!-- Node1 -->
<g id="node1" class="node"><title>Node1</title>
<polygon fill="#bfbfbf" stroke="black" points="301.5,-0.5 301.5,-19.5 403.5,-19.5 403.5,-0.5 301.5,-0.5"/>
<text text-anchor="middle" x="352.5" y="-7.5" font-family="Helvetica,sans-Serif" font-size="10.00">CommandHandler</text>
</g>
<!-- Node2 -->
<g id="node2" class="node"><title>Node2</title>
<g id="a_node2"><a xlink:href="classPlayer.html" target="_top" xlink:title="A Player contains a loaded audio file and the state of its playback. ">
<polygon fill="white" stroke="black" points="329,-67.5 329,-86.5 376,-86.5 376,-67.5 329,-67.5"/>
<text text-anchor="middle" x="352.5" y="-74.5" font-family="Helvetica,sans-Serif" font-size="10.00">Player</text>
</a>
</g>
</g>
<!-- Node2&#45;&gt;Node1 -->
<g id="edge1" class="edge"><title>Node2&#45;&gt;Node1</title>
<path fill="none" stroke="#9a32cd" stroke-dasharray="5,2" d="M352.5,-57.037C352.5,-44.6703 352.5,-29.1198 352.5,-19.6273"/>
<polygon fill="#9a32cd" stroke="#9a32cd" points="349,-57.2338 352.5,-67.2338 356,-57.2338 349,-57.2338"/>
<text text-anchor="middle" x="369" y="-41" font-family="Helvetica,sans-Serif" font-size="10.00"> player</text>
</g>
<!-- Node3 -->
<g id="node3" class="node"><title>Node3</title>
<g id="a_node3"><a xlink:href="classResponseSink.html" target="_top" xlink:title="Abstract class for anything that can be sent a response. ">
<polygon fill="white" stroke="black" points="321,-277.5 321,-296.5 406,-296.5 406,-277.5 321,-277.5"/>
<text text-anchor="middle" x="363.5" y="-284.5" font-family="Helvetica,sans-Serif" font-size="10.00">ResponseSink</text>
</a>
</g>
</g>
<!-- Node3&#45;&gt;Node2 -->
<g id="edge2" class="edge"><title>Node3&#45;&gt;Node2</title>
<path fill="none" stroke="#9a32cd" stroke-dasharray="5,2" d="M344.269,-270.718C330.794,-258.77 313.772,-240.891 305.5,-221 290.638,-185.26 287.526,-170.097 301.5,-134 309.285,-113.889 328.026,-96.5625 340.491,-86.7068"/>
<polygon fill="#9a32cd" stroke="#9a32cd" points="342.201,-273.554 352.09,-277.356 346.731,-268.217 342.201,-273.554"/>
<text text-anchor="middle" x="316.5" y="-175" font-family="Helvetica,sans-Serif" font-size="10.00"> end_sink</text>
</g>
<!-- Node7 -->
<g id="node7" class="node"><title>Node7</title>
<g id="a_node7"><a xlink:href="classResponseSource.html" target="_top" xlink:title="Abstract helper class for sources of responses. ">
<polygon fill="white" stroke="black" points="314.5,-201.5 314.5,-220.5 412.5,-220.5 412.5,-201.5 314.5,-201.5"/>
<text text-anchor="middle" x="363.5" y="-208.5" font-family="Helvetica,sans-Serif" font-size="10.00">ResponseSource</text>
</a>
</g>
</g>
<!-- Node3&#45;&gt;Node7 -->
<g id="edge7" class="edge"><title>Node3&#45;&gt;Node7</title>
<path fill="none" stroke="#9a32cd" stroke-dasharray="5,2" d="M363.5,-267.072C363.5,-252.18 363.5,-232.111 363.5,-220.768"/>
<polygon fill="#9a32cd" stroke="#9a32cd" points="360,-267.221 363.5,-277.221 367,-267.221 360,-267.221"/>
<text text-anchor="middle" x="389" y="-246.5" font-family="Helvetica,sans-Serif" font-size="10.00"> push_sink</text>
</g>
<!-- Node4 -->
<g id="node4" class="node"><title>Node4</title>
<g id="a_node4"><a xlink:title="STL class. ">
<polygon fill="white" stroke="#bfbfbf" points="409.5,-344.5 409.5,-363.5 471.5,-363.5 471.5,-344.5 409.5,-344.5"/>
<text text-anchor="middle" x="440.5" y="-351.5" font-family="Helvetica,sans-Serif" font-size="10.00">std::string</text>
</a>
</g>
</g>
<!-- Node4&#45;&gt;Node3 -->
<g id="edge3" class="edge"><title>Node4&#45;&gt;Node3</title>
<path fill="none" stroke="#9a32cd" stroke-dasharray="5,2" d="M399.957,-341.945C391.33,-338.051 382.903,-332.865 376.5,-326 368.891,-317.842 365.715,-305.038 364.403,-296.582"/>
<polygon fill="#9a32cd" stroke="#9a32cd" points="398.727,-345.223 409.312,-345.682 401.323,-338.722 398.727,-345.223"/>
<text text-anchor="middle" x="401.5" y="-318" font-family="Helvetica,sans-Serif" font-size="10.00"> STRINGS</text>
</g>
<!-- Node11 -->
<g id="node11" class="node"><title>Node11</title>
<polygon fill="white" stroke="#bfbfbf" points="495.5,-239.5 495.5,-258.5 623.5,-258.5 623.5,-239.5 495.5,-239.5"/>
<text text-anchor="middle" x="559.5" y="-246.5" font-family="Helvetica,sans-Serif" font-size="10.00">std::vector&lt; std::string &gt;</text>
</g>
<!-- Node4&#45;&gt;Node11 -->
<g id="edge13" class="edge"><title>Node4&#45;&gt;Node11</title>
<path fill="none" stroke="#9a32cd" stroke-dasharray="5,2" d="M458.399,-337.507C483.732,-315.581 529.202,-276.224 549.38,-258.759"/>
<polygon fill="#9a32cd" stroke="#9a32cd" points="455.916,-335.027 450.646,-344.218 460.498,-340.32 455.916,-335.027"/>
<text text-anchor="middle" x="505.5" y="-318" font-family="Helvetica,sans-Serif" font-size="10.00"> elements</text>
</g>
<!-- Node12 -->
<g id="node12" class="node"><title>Node12</title>
<g id="a_node12"><a xlink:href="classPlayerState.html" target="_top" xlink:title="An object holding and representing the current state of a Player. ">
<polygon fill="white" stroke="black" points="413,-134.5 413,-153.5 484,-153.5 484,-134.5 413,-134.5"/>
<text text-anchor="middle" x="448.5" y="-141.5" font-family="Helvetica,sans-Serif" font-size="10.00">PlayerState</text>
</a>
</g>
</g>
<!-- Node4&#45;&gt;Node12 -->
<g id="edge16" class="edge"><title>Node4&#45;&gt;Node12</title>
<path fill="none" stroke="#9a32cd" stroke-dasharray="5,2" d="M438.708,-334.208C436.813,-311.597 434.371,-272.492 436.5,-239 438.504,-207.476 444.252,-170.363 447.001,-153.777"/>
<polygon fill="#9a32cd" stroke="#9a32cd" points="435.243,-334.763 439.622,-344.411 442.216,-334.139 435.243,-334.763"/>
<text text-anchor="middle" x="461.5" y="-246.5" font-family="Helvetica,sans-Serif" font-size="10.00"> STRINGS</text>
</g>
<!-- Node5 -->
<g id="node5" class="node"><title>Node5</title>
<g id="a_node5"><a xlink:title="STL class. ">
<polygon fill="white" stroke="#bfbfbf" points="391.5,-401.5 391.5,-431.5 489.5,-431.5 489.5,-401.5 391.5,-401.5"/>
<text text-anchor="start" x="399.5" y="-419.5" font-family="Helvetica,sans-Serif" font-size="10.00">std::basic_string&lt;</text>
<text text-anchor="middle" x="440.5" y="-408.5" font-family="Helvetica,sans-Serif" font-size="10.00"> char &gt;</text>
</a>
</g>
</g>
<!-- Node5&#45;&gt;Node4 -->
<g id="edge4" class="edge"><title>Node5&#45;&gt;Node4</title>
<path fill="none" stroke="midnightblue" d="M440.5,-391.352C440.5,-381.513 440.5,-370.775 440.5,-363.54"/>
<polygon fill="midnightblue" stroke="midnightblue" points="437,-391.468 440.5,-401.468 444,-391.468 437,-391.468"/>
</g>
<!-- Node6 -->
<g id="node6" class="node"><title>Node6</title>
<g id="a_node6"><a xlink:href="classPlayerFile.html" target="_top" xlink:title="The subcomponent of a Player that stores the audio file. ">
<polygon fill="white" stroke="black" points="160,-134.5 160,-153.5 223,-153.5 223,-134.5 160,-134.5"/>
<text text-anchor="middle" x="191.5" y="-141.5" font-family="Helvetica,sans-Serif" font-size="10.00">PlayerFile</text>
</a>
</g>
</g>
<!-- Node6&#45;&gt;Node2 -->
<g id="edge5" class="edge"><title>Node6&#45;&gt;Node2</title>
<path fill="none" stroke="#9a32cd" stroke-dasharray="5,2" d="M211.127,-128.424C222.454,-120.574 237.241,-111.246 251.5,-105 276.936,-93.8569 308.045,-86.3891 328.96,-82.1837"/>
<polygon fill="#9a32cd" stroke="#9a32cd" points="208.972,-125.662 202.861,-134.316 213.036,-131.362 208.972,-125.662"/>
<text text-anchor="middle" x="260" y="-108" font-family="Helvetica,sans-Serif" font-size="10.00"> file</text>
</g>
<!-- Node7&#45;&gt;Node6 -->
<g id="edge6" class="edge"><title>Node7&#45;&gt;Node6</title>
<path fill="none" stroke="midnightblue" d="M352.192,-192.976C346.303,-185.417 338.46,-177.095 329.5,-172 296.395,-153.174 252.392,-147.266 223.066,-145.523"/>
<polygon fill="midnightblue" stroke="midnightblue" points="349.473,-195.189 358.157,-201.26 355.154,-191.099 349.473,-195.189"/>
</g>
<!-- Node7&#45;&gt;Node12 -->
<g id="edge15" class="edge"><title>Node7&#45;&gt;Node12</title>
<path fill="none" stroke="midnightblue" d="M383.027,-195.068C399.805,-182.238 423.412,-164.185 437.218,-153.627"/>
<polygon fill="midnightblue" stroke="midnightblue" points="380.781,-192.379 374.963,-201.234 385.033,-197.94 380.781,-192.379"/>
</g>
<!-- Node13 -->
<g id="node13" class="node"><title>Node13</title>
<g id="a_node13"><a xlink:href="classPlayerPosition.html" target="_top" xlink:title="Tracker and broadcaster for the Player&#39;s current position in a song. ">
<polygon fill="white" stroke="black" points="310.5,-134.5 310.5,-153.5 394.5,-153.5 394.5,-134.5 310.5,-134.5"/>
<text text-anchor="middle" x="352.5" y="-141.5" font-family="Helvetica,sans-Serif" font-size="10.00">PlayerPosition</text>
</a>
</g>
</g>
<!-- Node7&#45;&gt;Node13 -->
<g id="edge18" class="edge"><title>Node7&#45;&gt;Node13</title>
<path fill="none" stroke="midnightblue" d="M360.291,-191.037C358.198,-178.67 355.566,-163.12 353.96,-153.627"/>
<polygon fill="midnightblue" stroke="midnightblue" points="356.897,-191.958 362.016,-201.234 363.799,-190.79 356.897,-191.958"/>
</g>
<!-- Node8 -->
<g id="node8" class="node"><title>Node8</title>
<g id="a_node8"><a xlink:href="classAudio.html" target="_top" xlink:title="An audio item. ">
<polygon fill="white" stroke="black" points="0,-277.5 0,-296.5 43,-296.5 43,-277.5 0,-277.5"/>
<text text-anchor="middle" x="21.5" y="-284.5" font-family="Helvetica,sans-Serif" font-size="10.00">Audio</text>
</a>
</g>
</g>
<!-- Node8&#45;&gt;Node6 -->
<g id="edge8" class="edge"><title>Node8&#45;&gt;Node6</title>
<path fill="none" stroke="midnightblue" d="M11.8452,-268.189C3.23813,-249.618 -5.95775,-220.544 8.5,-201 43.4745,-153.722 117.568,-145.05 159.966,-144.2"/>
<polygon fill="midnightblue" stroke="midnightblue" points="8.80172,-269.928 16.4124,-277.299 15.0593,-266.791 8.80172,-269.928"/>
</g>
<!-- Node9 -->
<g id="node9" class="node"><title>Node9</title>
<polygon fill="white" stroke="#bfbfbf" points="18,-201.5 18,-220.5 147,-220.5 147,-201.5 18,-201.5"/>
<text text-anchor="middle" x="82.5" y="-208.5" font-family="Helvetica,sans-Serif" font-size="10.00">std::unique_ptr&lt; Audio &gt;</text>
</g>
<!-- Node8&#45;&gt;Node9 -->
<g id="edge10" class="edge"><title>Node8&#45;&gt;Node9</title>
<path fill="none" stroke="#9a32cd" stroke-dasharray="5,2" d="M35.3295,-269.223C47.7392,-254.169 65.4635,-232.667 75.2724,-220.768"/>
<polygon fill="#9a32cd" stroke="#9a32cd" points="32.3971,-267.278 28.737,-277.221 37.7985,-271.731 32.3971,-267.278"/>
<text text-anchor="middle" x="67.5" y="-246.5" font-family="Helvetica,sans-Serif" font-size="10.00"> ptr</text>
</g>
<!-- Node9&#45;&gt;Node6 -->
<g id="edge9" class="edge"><title>Node9&#45;&gt;Node6</title>
<path fill="none" stroke="#9a32cd" stroke-dasharray="5,2" d="M106.074,-195.942C127.66,-183.07 158.922,-164.427 177.033,-153.627"/>
<polygon fill="#9a32cd" stroke="#9a32cd" points="103.996,-193.106 97.2002,-201.234 107.582,-199.118 103.996,-193.106"/>
<text text-anchor="middle" x="159" y="-175" font-family="Helvetica,sans-Serif" font-size="10.00"> audio</text>
</g>
<!-- Node10 -->
<g id="node10" class="node"><title>Node10</title>
<g id="a_node10"><a xlink:href="classAudioSystem.html" target="_top" xlink:title="An AudioSystem represents the entire audio stack used by playd. ">
<polygon fill="white" stroke="black" points="165,-201.5 165,-220.5 242,-220.5 242,-201.5 165,-201.5"/>
<text text-anchor="middle" x="203.5" y="-208.5" font-family="Helvetica,sans-Serif" font-size="10.00">AudioSystem</text>
</a>
</g>
</g>
<!-- Node10&#45;&gt;Node6 -->
<g id="edge11" class="edge"><title>Node10&#45;&gt;Node6</title>
<path fill="none" stroke="#9a32cd" stroke-dasharray="5,2" d="M195.125,-191.981C194.058,-189.035 193.123,-185.972 192.5,-183 190.415,-173.053 190.477,-161.322 190.857,-153.553"/>
<polygon fill="#9a32cd" stroke="#9a32cd" points="191.914,-193.376 198.997,-201.256 198.374,-190.679 191.914,-193.376"/>
<text text-anchor="middle" x="226.5" y="-175" font-family="Helvetica,sans-Serif" font-size="10.00"> audio_system</text>
</g>
<!-- Node11&#45;&gt;Node2 -->
<g id="edge12" class="edge"><title>Node11&#45;&gt;Node2</title>
<path fill="none" stroke="#9a32cd" stroke-dasharray="5,2" d="M552.348,-229.889C542.066,-205.668 521.146,-162.481 492.5,-134 460.106,-101.792 406.826,-87.4732 376.184,-81.6203"/>
<polygon fill="#9a32cd" stroke="#9a32cd" points="549.17,-231.364 556.204,-239.287 555.646,-228.707 549.17,-231.364"/>
<text text-anchor="middle" x="558.5" y="-175" font-family="Helvetica,sans-Serif" font-size="10.00"> FEATURES</text>
</g>
<!-- Node12&#45;&gt;Node2 -->
<g id="edge14" class="edge"><title>Node12&#45;&gt;Node2</title>
<path fill="none" stroke="#9a32cd" stroke-dasharray="5,2" d="M428.989,-128.167C419.343,-120.983 407.449,-112.343 396.5,-105 386.972,-98.6105 375.972,-91.8605 367.354,-86.7079"/>
<polygon fill="#9a32cd" stroke="#9a32cd" points="427.026,-131.07 437.124,-134.277 431.23,-125.473 427.026,-131.07"/>
<text text-anchor="middle" x="425" y="-108" font-family="Helvetica,sans-Serif" font-size="10.00"> state</text>
</g>
<!-- Node13&#45;&gt;Node2 -->
<g id="edge17" class="edge"><title>Node13&#45;&gt;Node2</title>
<path fill="none" stroke="#9a32cd" stroke-dasharray="5,2" d="M352.5,-124.037C352.5,-111.67 352.5,-96.1198 352.5,-86.6273"/>
<polygon fill="#9a32cd" stroke="#9a32cd" points="349,-124.234 352.5,-134.234 356,-124.234 349,-124.234"/>
<text text-anchor="middle" x="372.5" y="-108" font-family="Helvetica,sans-Serif" font-size="10.00"> position</text>
</g>
</g>
</svg>
