<?xml version="1.0" encoding="UTF-8" standalone="no"?>
<!DOCTYPE svg PUBLIC "-//W3C//DTD SVG 1.1//EN"
 "http://www.w3.org/Graphics/SVG/1.1/DTD/svg11.dtd">
<!-- Generated by graphviz version 2.38.0 (20140413.2041)
 -->
<!-- Title: ResponseSink Pages: 1 -->
<svg width="251pt" height="84pt"
 viewBox="0.00 0.00 251.00 84.00" xmlns="http://www.w3.org/2000/svg" xmlns:xlink="http://www.w3.org/1999/xlink">
<g id="graph0" class="graph" transform="scale(1 1) rotate(0) translate(4 80)">
<title>ResponseSink</title>
<polygon fill="white" stroke="none" points="-4,4 -4,-80 247,-80 247,4 -4,4"/>
<!-- Node1 -->
<g id="node1" class="node"><title>Node1</title>
<polygon fill="#bfbfbf" stroke="black" points="93,-56.5 93,-75.5 178,-75.5 178,-56.5 93,-56.5"/>
<text text-anchor="middle" x="135.5" y="-63.5" font-family="Helvetica,sans-Serif" font-size="10.00">ResponseSink</text>
</g>
<!-- Node2 -->
<g id="node2" class="node"><title>Node2</title>
<g id="a_node2"><a xlink:href="classConnection.html" target="_top" xlink:title="A TCP connection from a client. ">
<polygon fill="white" stroke="black" points="0,-0.5 0,-19.5 71,-19.5 71,-0.5 0,-0.5"/>
<text text-anchor="middle" x="35.5" y="-7.5" font-family="Helvetica,sans-Serif" font-size="10.00">Connection</text>
</a>
</g>
</g>
<!-- Node1&#45;&gt;Node2 -->
<g id="edge1" class="edge"><title>Node1&#45;&gt;Node2</title>
<path fill="none" stroke="midnightblue" d="M110.412,-51.4526C91.9509,-41.4835 67.4034,-28.2279 51.5269,-19.6545"/>
<polygon fill="midnightblue" stroke="midnightblue" points="108.971,-54.6521 119.433,-56.324 112.297,-48.4928 108.971,-54.6521"/>
</g>
<!-- Node3 -->
<g id="node3" class="node"><title>Node3</title>
<g id="a_node3"><a xlink:href="classConnectionPool.html" target="_top" xlink:title="A pool of TCP connections. ">
<polygon fill="white" stroke="black" points="89.5,-0.5 89.5,-19.5 181.5,-19.5 181.5,-0.5 89.5,-0.5"/>
<text text-anchor="middle" x="135.5" y="-7.5" font-family="Helvetica,sans-Serif" font-size="10.00">ConnectionPool</text>
</a>
</g>
</g>
<!-- Node1&#45;&gt;Node3 -->
<g id="edge2" class="edge"><title>Node1&#45;&gt;Node3</title>
<path fill="none" stroke="midnightblue" d="M135.5,-45.8045C135.5,-36.9102 135.5,-26.7798 135.5,-19.7511"/>
<polygon fill="midnightblue" stroke="midnightblue" points="132,-46.083 135.5,-56.083 139,-46.083 132,-46.083"/>
</g>
<!-- Node4 -->
<g id="node4" class="node"><title>Node4</title>
<g id="a_node4"><a xlink:href="classPlayd.html" target="_top" xlink:title="The playd application. ">
<polygon fill="white" stroke="black" points="200,-0.5 200,-19.5 243,-19.5 243,-0.5 200,-0.5"/>
<text text-anchor="middle" x="221.5" y="-7.5" font-family="Helvetica,sans-Serif" font-size="10.00">Playd</text>
</a>
</g>
</g>
<!-- Node1&#45;&gt;Node4 -->
<g id="edge3" class="edge"><title>Node1&#45;&gt;Node4</title>
<path fill="none" stroke="midnightblue" d="M157.955,-50.9005C173.724,-40.9986 194.314,-28.0705 207.717,-19.6545"/>
<polygon fill="midnightblue" stroke="midnightblue" points="155.925,-48.0421 149.317,-56.324 159.648,-53.9704 155.925,-48.0421"/>
</g>
</g>
</svg>
