<?xml version="1.0" encoding="UTF-8" standalone="no"?>
<!DOCTYPE svg PUBLIC "-//W3C//DTD SVG 1.1//EN"
 "http://www.w3.org/Graphics/SVG/1.1/DTD/svg11.dtd">
<!-- Generated by graphviz version 2.38.0 (20140413.2041)
 -->
<!-- Title: Audio Pages: 1 -->
<svg width="154pt" height="84pt"
 viewBox="0.00 0.00 153.50 84.00" xmlns="http://www.w3.org/2000/svg" xmlns:xlink="http://www.w3.org/1999/xlink">
<g id="graph0" class="graph" transform="scale(1 1) rotate(0) translate(4 80)">
<title>Audio</title>
<polygon fill="white" stroke="none" points="-4,4 -4,-80 149.5,-80 149.5,4 -4,4"/>
<!-- Node1 -->
<g id="node1" class="node"><title>Node1</title>
<polygon fill="#bfbfbf" stroke="black" points="51.5,-56.5 51.5,-75.5 94.5,-75.5 94.5,-56.5 51.5,-56.5"/>
<text text-anchor="middle" x="73" y="-63.5" font-family="Helvetica,sans-Serif" font-size="10.00">Audio</text>
</g>
<!-- Node2 -->
<g id="node2" class="node"><title>Node2</title>
<g id="a_node2"><a xlink:href="classPipeAudio.html" target="_top" xlink:title="A concrete implementation of Audio as a &#39;pipe&#39;. ">
<polygon fill="white" stroke="black" points="0,-0.5 0,-19.5 64,-19.5 64,-0.5 0,-0.5"/>
<text text-anchor="middle" x="32" y="-7.5" font-family="Helvetica,sans-Serif" font-size="10.00">PipeAudio</text>
</a>
</g>
</g>
<!-- Node1&#45;&gt;Node2 -->
<g id="edge1" class="edge"><title>Node1&#45;&gt;Node2</title>
<path fill="none" stroke="midnightblue" d="M59.9828,-47.8554C52.8833,-38.5048 44.396,-27.3265 38.6443,-19.7511"/>
<polygon fill="midnightblue" stroke="midnightblue" points="57.395,-50.235 66.2297,-56.083 62.9701,-46.002 57.395,-50.235"/>
</g>
<!-- Node3 -->
<g id="node3" class="node"><title>Node3</title>
<g id="a_node3"><a xlink:href="classPlayerFile.html" target="_top" xlink:title="The subcomponent of a Player that stores the audio file. ">
<polygon fill="white" stroke="black" points="82.5,-0.5 82.5,-19.5 145.5,-19.5 145.5,-0.5 82.5,-0.5"/>
<text text-anchor="middle" x="114" y="-7.5" font-family="Helvetica,sans-Serif" font-size="10.00">PlayerFile</text>
</a>
</g>
</g>
<!-- Node1&#45;&gt;Node3 -->
<g id="edge2" class="edge"><title>Node1&#45;&gt;Node3</title>
<path fill="none" stroke="midnightblue" d="M86.0172,-47.8554C93.1167,-38.5048 101.604,-27.3265 107.356,-19.7511"/>
<polygon fill="midnightblue" stroke="midnightblue" points="83.0299,-46.002 79.7703,-56.083 88.605,-50.235 83.0299,-46.002"/>
</g>
</g>
</svg>
