<?xml version="1.0" encoding="UTF-8" standalone="no"?>
<!DOCTYPE svg PUBLIC "-//W3C//DTD SVG 1.1//EN"
 "http://www.w3.org/Graphics/SVG/1.1/DTD/svg11.dtd">
<!-- Generated by graphviz version 2.36.0 (20140111.2315)
 -->
<!-- Title: AudioSource Pages: 1 -->
<svg width="110pt" height="166pt"
 viewBox="0.00 0.00 110.00 166.00" xmlns="http://www.w3.org/2000/svg" xmlns:xlink="http://www.w3.org/1999/xlink">
<g id="graph0" class="graph" transform="scale(1 1) rotate(0) translate(4 162)">
<title>AudioSource</title>
<polygon fill="white" stroke="none" points="-4,4 -4,-162 106,-162 106,4 -4,4"/>
<!-- Node1 -->
<g id="node1" class="node"><title>Node1</title>
<polygon fill="#bfbfbf" stroke="black" points="12.5,-0.5 12.5,-19.5 89.5,-19.5 89.5,-0.5 12.5,-0.5"/>
<text text-anchor="middle" x="51" y="-7.5" font-family="Helvetica,sans-Serif" font-size="10.00">AudioSource</text>
</g>
<!-- Node2 -->
<g id="node2" class="node"><title>Node2</title>
<g id="a_node2"><a xlink:title="STL class. ">
<polygon fill="white" stroke="#bfbfbf" points="18.5,-68.5 18.5,-87.5 83.5,-87.5 83.5,-68.5 18.5,-68.5"/>
<text text-anchor="middle" x="51" y="-75.5" font-family="Helvetica,sans-Serif" font-size="10.00">std::string</text>
</a>
</g>
</g>
<!-- Node2&#45;&gt;Node1 -->
<g id="edge1" class="edge"><title>Node2&#45;&gt;Node1</title>
<path fill="none" stroke="#9a32cd" stroke-dasharray="5,2" d="M51,-58.0413C51,-45.4724 51,-29.5631 51,-19.8411"/>
<polygon fill="#9a32cd" stroke="#9a32cd" points="47.5001,-58.3716 51,-68.3717 54.5001,-58.3717 47.5001,-58.3716"/>
<text text-anchor="middle" x="63.5" y="-41.5" font-family="Helvetica,sans-Serif" font-size="10.00"> path</text>
</g>
<!-- Node3 -->
<g id="node3" class="node"><title>Node3</title>
<g id="a_node3"><a xlink:title="STL class. ">
<polygon fill="white" stroke="#bfbfbf" points="-0.5,-127 -0.5,-157 102.5,-157 102.5,-127 -0.5,-127"/>
<text text-anchor="start" x="7.5" y="-145" font-family="Helvetica,sans-Serif" font-size="10.00">std::basic_string&lt;</text>
<text text-anchor="middle" x="51" y="-134" font-family="Helvetica,sans-Serif" font-size="10.00"> char &gt;</text>
</a>
</g>
</g>
<!-- Node3&#45;&gt;Node2 -->
<g id="edge2" class="edge"><title>Node3&#45;&gt;Node2</title>
<path fill="none" stroke="midnightblue" d="M51,-116.871C51,-106.663 51,-95.4077 51,-87.8419"/>
<polygon fill="midnightblue" stroke="midnightblue" points="47.5001,-116.931 51,-126.931 54.5001,-116.931 47.5001,-116.931"/>
</g>
</g>
</svg>
