<?xml version="1.0" encoding="UTF-8" standalone="no"?>
<!DOCTYPE svg PUBLIC "-//W3C//DTD SVG 1.1//EN"
 "http://www.w3.org/Graphics/SVG/1.1/DTD/svg11.dtd">
<!-- Generated by graphviz version 2.38.0 (20140413.2041)
 -->
<!-- Title: IoCore Pages: 1 -->
<svg width="820pt" height="710pt"
 viewBox="0.00 0.00 820.00 710.00" xmlns="http://www.w3.org/2000/svg" xmlns:xlink="http://www.w3.org/1999/xlink">
<g id="graph0" class="graph" transform="scale(1 1) rotate(0) translate(4 706)">
<title>IoCore</title>
<polygon fill="white" stroke="none" points="-4,4 -4,-706 816,-706 816,4 -4,4"/>
<!-- Node1 -->
<g id="node1" class="node"><title>Node1</title>
<polygon fill="#bfbfbf" stroke="black" points="33.5,-145.5 33.5,-164.5 82.5,-164.5 82.5,-145.5 33.5,-145.5"/>
<text text-anchor="middle" x="58" y="-152.5" font-family="Helvetica,sans-Serif" font-size="10.00">IoCore</text>
</g>
<!-- Node2 -->
<g id="node2" class="node"><title>Node2</title>
<g id="a_node2"><a xlink:href="classConnectionPool.html" target="_top" xlink:title="A pool of TCP connections. ">
<polygon fill="white" stroke="black" points="85,-212.5 85,-231.5 177,-231.5 177,-212.5 85,-212.5"/>
<text text-anchor="middle" x="131" y="-219.5" font-family="Helvetica,sans-Serif" font-size="10.00">ConnectionPool</text>
</a>
</g>
</g>
<!-- Node2&#45;&gt;Node1 -->
<g id="edge1" class="edge"><title>Node2&#45;&gt;Node1</title>
<path fill="none" stroke="#9a32cd" stroke-dasharray="5,2" d="M109.237,-206.713C103.764,-202.806 98.0216,-198.423 93,-194 82.5003,-184.752 71.8003,-172.664 65.043,-164.632"/>
<polygon fill="#9a32cd" stroke="#9a32cd" points="107.256,-209.598 117.474,-212.398 111.232,-203.837 107.256,-209.598"/>
<text text-anchor="middle" x="105" y="-186" font-family="Helvetica,sans-Serif" font-size="10.00"> pool</text>
</g>
<!-- Node8 -->
<g id="node8" class="node"><title>Node8</title>
<g id="a_node8"><a xlink:href="classConnection.html" target="_top" xlink:title="A TCP connection from a client. ">
<polygon fill="white" stroke="black" points="202.5,-145.5 202.5,-164.5 273.5,-164.5 273.5,-145.5 202.5,-145.5"/>
<text text-anchor="middle" x="238" y="-152.5" font-family="Helvetica,sans-Serif" font-size="10.00">Connection</text>
</a>
</g>
</g>
<!-- Node2&#45;&gt;Node8 -->
<g id="edge15" class="edge"><title>Node2&#45;&gt;Node8</title>
<path fill="none" stroke="#9a32cd" stroke-dasharray="5,2" d="M151.73,-206.507C162.412,-199.212 175.738,-190.376 188,-183 198.821,-176.491 211.321,-169.741 221.115,-164.618"/>
<polygon fill="#9a32cd" stroke="#9a32cd" points="149.709,-203.649 143.461,-212.206 153.681,-209.413 149.709,-203.649"/>
<text text-anchor="middle" x="205" y="-186" font-family="Helvetica,sans-Serif" font-size="10.00"> parent</text>
</g>
<!-- Node3 -->
<g id="node3" class="node"><title>Node3</title>
<g id="a_node3"><a xlink:href="classResponseSink.html" target="_top" xlink:title="Abstract class for anything that can be sent a response. ">
<polygon fill="white" stroke="black" points="72.5,-547.5 72.5,-566.5 157.5,-566.5 157.5,-547.5 72.5,-547.5"/>
<text text-anchor="middle" x="115" y="-554.5" font-family="Helvetica,sans-Serif" font-size="10.00">ResponseSink</text>
</a>
</g>
</g>
<!-- Node3&#45;&gt;Node2 -->
<g id="edge2" class="edge"><title>Node3&#45;&gt;Node2</title>
<path fill="none" stroke="midnightblue" d="M62.4482,-546.98C32.1473,-538.429 0,-522.041 0,-491 0,-491 0,-491 0,-321.5 0,-306.988 83.1863,-253.056 116.981,-231.745"/>
<polygon fill="midnightblue" stroke="midnightblue" points="61.621,-550.381 72.1782,-549.49 63.3694,-543.603 61.621,-550.381"/>
</g>
<!-- Node3&#45;&gt;Node8 -->
<g id="edge8" class="edge"><title>Node3&#45;&gt;Node8</title>
<path fill="none" stroke="midnightblue" d="M167.996,-551.785C267.644,-543.143 473,-521.619 473,-491 473,-491 473,-491 473,-221 473,-180.151 339.432,-163.95 273.691,-158.45"/>
<polygon fill="midnightblue" stroke="midnightblue" points="167.493,-548.315 157.828,-552.654 168.089,-555.29 167.493,-548.315"/>
</g>
<!-- Node13 -->
<g id="node13" class="node"><title>Node13</title>
<g id="a_node13"><a xlink:href="classPlayer.html" target="_top" xlink:title="A Player contains a loaded audio file and the state of its playback. ">
<polygon fill="white" stroke="black" points="126.5,-346.5 126.5,-365.5 173.5,-365.5 173.5,-346.5 126.5,-346.5"/>
<text text-anchor="middle" x="150" y="-353.5" font-family="Helvetica,sans-Serif" font-size="10.00">Player</text>
</a>
</g>
</g>
<!-- Node3&#45;&gt;Node13 -->
<g id="edge18" class="edge"><title>Node3&#45;&gt;Node13</title>
<path fill="none" stroke="#9a32cd" stroke-dasharray="5,2" d="M92.7041,-541.483C79.6201,-531.558 64.2686,-517.122 57,-500 41.8901,-464.408 37.9756,-446.663 57,-413 71.744,-386.911 104.049,-371.627 126.413,-363.79"/>
<polygon fill="#9a32cd" stroke="#9a32cd" points="90.7008,-544.353 100.867,-547.336 94.78,-538.664 90.7008,-544.353"/>
<text text-anchor="middle" x="68" y="-454" font-family="Helvetica,sans-Serif" font-size="10.00"> end_sink</text>
</g>
<!-- Node15 -->
<g id="node15" class="node"><title>Node15</title>
<g id="a_node15"><a xlink:href="classResponseSource.html" target="_top" xlink:title="Abstract helper class for sources of responses. ">
<polygon fill="white" stroke="black" points="66,-480.5 66,-499.5 164,-499.5 164,-480.5 66,-480.5"/>
<text text-anchor="middle" x="115" y="-487.5" font-family="Helvetica,sans-Serif" font-size="10.00">ResponseSource</text>
</a>
</g>
</g>
<!-- Node3&#45;&gt;Node15 -->
<g id="edge21" class="edge"><title>Node3&#45;&gt;Node15</title>
<path fill="none" stroke="#9a32cd" stroke-dasharray="5,2" d="M115,-537.037C115,-524.67 115,-509.12 115,-499.627"/>
<polygon fill="#9a32cd" stroke="#9a32cd" points="111.5,-537.234 115,-547.234 118.5,-537.234 111.5,-537.234"/>
<text text-anchor="middle" x="140.5" y="-521" font-family="Helvetica,sans-Serif" font-size="10.00"> push_sink</text>
</g>
<!-- Node4 -->
<g id="node4" class="node"><title>Node4</title>
<g id="a_node4"><a xlink:title="STL class. ">
<polygon fill="white" stroke="#bfbfbf" points="264,-614.5 264,-633.5 326,-633.5 326,-614.5 264,-614.5"/>
<text text-anchor="middle" x="295" y="-621.5" font-family="Helvetica,sans-Serif" font-size="10.00">std::string</text>
</a>
</g>
</g>
<!-- Node4&#45;&gt;Node3 -->
<g id="edge3" class="edge"><title>Node4&#45;&gt;Node3</title>
<path fill="none" stroke="#9a32cd" stroke-dasharray="5,2" d="M253.641,-621.108C210.467,-618.315 146.51,-611.614 128,-596 119.366,-588.717 116.454,-575.434 115.479,-566.662"/>
<polygon fill="#9a32cd" stroke="#9a32cd" points="253.668,-624.616 263.86,-621.722 254.088,-617.628 253.668,-624.616"/>
<text text-anchor="middle" x="153" y="-588" font-family="Helvetica,sans-Serif" font-size="10.00"> STRINGS</text>
</g>
<!-- Node9 -->
<g id="node9" class="node"><title>Node9</title>
<g id="a_node9"><a xlink:href="classTokeniser.html" target="_top" xlink:title="A string tokeniser. ">
<polygon fill="white" stroke="black" points="608,-413.5 608,-432.5 672,-432.5 672,-413.5 608,-413.5"/>
<text text-anchor="middle" x="640" y="-420.5" font-family="Helvetica,sans-Serif" font-size="10.00">Tokeniser</text>
</a>
</g>
</g>
<!-- Node4&#45;&gt;Node9 -->
<g id="edge10" class="edge"><title>Node4&#45;&gt;Node9</title>
<path fill="none" stroke="#9a32cd" stroke-dasharray="5,2" d="M336.204,-618.44C377.877,-613.631 444.087,-605.449 501,-596 620.874,-576.098 697.06,-605.703 757,-500 768.867,-479.073 753.991,-464.384 734,-451 715.517,-438.625 691.336,-431.845 672.128,-428.174"/>
<polygon fill="#9a32cd" stroke="#9a32cd" points="335.696,-614.975 326.158,-619.589 336.491,-621.93 335.696,-614.975"/>
<text text-anchor="middle" x="779" y="-521" font-family="Helvetica,sans-Serif" font-size="10.00"> current_word</text>
</g>
<!-- Node11 -->
<g id="node11" class="node"><title>Node11</title>
<polygon fill="white" stroke="#bfbfbf" points="508,-547.5 508,-566.5 636,-566.5 636,-547.5 508,-547.5"/>
<text text-anchor="middle" x="572" y="-554.5" font-family="Helvetica,sans-Serif" font-size="10.00">std::vector&lt; std::string &gt;</text>
</g>
<!-- Node4&#45;&gt;Node11 -->
<g id="edge13" class="edge"><title>Node4&#45;&gt;Node11</title>
<path fill="none" stroke="#9a32cd" stroke-dasharray="5,2" d="M336.159,-613.342C390.166,-600.669 484.112,-578.624 535.628,-566.535"/>
<polygon fill="#9a32cd" stroke="#9a32cd" points="335.173,-609.978 326.237,-615.67 336.772,-616.793 335.173,-609.978"/>
<text text-anchor="middle" x="474" y="-588" font-family="Helvetica,sans-Serif" font-size="10.00"> elements</text>
</g>
<!-- Node19 -->
<g id="node19" class="node"><title>Node19</title>
<g id="a_node19"><a xlink:href="classPlayerState.html" target="_top" xlink:title="An object holding and representing the current state of a Player. ">
<polygon fill="white" stroke="black" points="168.5,-413.5 168.5,-432.5 239.5,-432.5 239.5,-413.5 168.5,-413.5"/>
<text text-anchor="middle" x="204" y="-420.5" font-family="Helvetica,sans-Serif" font-size="10.00">PlayerState</text>
</a>
</g>
</g>
<!-- Node4&#45;&gt;Node19 -->
<g id="edge29" class="edge"><title>Node4&#45;&gt;Node19</title>
<path fill="none" stroke="#9a32cd" stroke-dasharray="5,2" d="M279.889,-606.855C260.171,-584.695 226.376,-542.717 211,-500 202.653,-476.811 202.74,-447.199 203.412,-432.738"/>
<polygon fill="#9a32cd" stroke="#9a32cd" points="277.373,-609.291 286.689,-614.338 282.554,-604.584 277.373,-609.291"/>
<text text-anchor="middle" x="249" y="-521" font-family="Helvetica,sans-Serif" font-size="10.00"> STRINGS</text>
</g>
<!-- Node5 -->
<g id="node5" class="node"><title>Node5</title>
<g id="a_node5"><a xlink:title="STL class. ">
<polygon fill="white" stroke="#bfbfbf" points="246,-671.5 246,-701.5 344,-701.5 344,-671.5 246,-671.5"/>
<text text-anchor="start" x="254" y="-689.5" font-family="Helvetica,sans-Serif" font-size="10.00">std::basic_string&lt;</text>
<text text-anchor="middle" x="295" y="-678.5" font-family="Helvetica,sans-Serif" font-size="10.00"> char &gt;</text>
</a>
</g>
</g>
<!-- Node5&#45;&gt;Node4 -->
<g id="edge4" class="edge"><title>Node5&#45;&gt;Node4</title>
<path fill="none" stroke="midnightblue" d="M295,-661.352C295,-651.513 295,-640.775 295,-633.54"/>
<polygon fill="midnightblue" stroke="midnightblue" points="291.5,-661.468 295,-671.468 298.5,-661.468 291.5,-661.468"/>
</g>
<!-- Node6 -->
<g id="node6" class="node"><title>Node6</title>
<polygon fill="white" stroke="#bfbfbf" points="104.5,-0.5 104.5,-30.5 227.5,-30.5 227.5,-0.5 104.5,-0.5"/>
<text text-anchor="start" x="112.5" y="-18.5" font-family="Helvetica,sans-Serif" font-size="10.00">std::vector&lt; std::unique</text>
<text text-anchor="middle" x="166" y="-7.5" font-family="Helvetica,sans-Serif" font-size="10.00">_ptr&lt; Connection &gt; &gt;</text>
</g>
<!-- Node6&#45;&gt;Node2 -->
<g id="edge5" class="edge"><title>Node6&#45;&gt;Node2</title>
<path fill="none" stroke="#9a32cd" stroke-dasharray="5,2" d="M159.114,-40.1832C155.997,-51.5466 152.466,-65.4001 150,-78 140.137,-128.385 133.886,-189.774 131.787,-212.234"/>
<polygon fill="#9a32cd" stroke="#9a32cd" points="162.484,-41.1287 161.819,-30.5547 155.745,-39.2357 162.484,-41.1287"/>
<text text-anchor="middle" x="174.5" y="-119" font-family="Helvetica,sans-Serif" font-size="10.00"> connections</text>
</g>
<!-- Node7 -->
<g id="node7" class="node"><title>Node7</title>
<polygon fill="white" stroke="#bfbfbf" points="159.5,-78.5 159.5,-97.5 316.5,-97.5 316.5,-78.5 159.5,-78.5"/>
<text text-anchor="middle" x="238" y="-85.5" font-family="Helvetica,sans-Serif" font-size="10.00">std::unique_ptr&lt; Connection &gt;</text>
</g>
<!-- Node7&#45;&gt;Node6 -->
<g id="edge6" class="edge"><title>Node7&#45;&gt;Node6</title>
<path fill="none" stroke="#9a32cd" stroke-dasharray="5,2" d="M221.755,-71.0934C209.317,-58.9149 192.323,-42.2742 180.376,-30.5762"/>
<polygon fill="#9a32cd" stroke="#9a32cd" points="219.578,-73.8598 229.171,-78.3553 224.475,-68.8582 219.578,-73.8598"/>
<text text-anchor="middle" x="232" y="-52" font-family="Helvetica,sans-Serif" font-size="10.00"> elements</text>
</g>
<!-- Node8&#45;&gt;Node7 -->
<g id="edge7" class="edge"><title>Node8&#45;&gt;Node7</title>
<path fill="none" stroke="#9a32cd" stroke-dasharray="5,2" d="M238,-135.037C238,-122.67 238,-107.12 238,-97.6273"/>
<polygon fill="#9a32cd" stroke="#9a32cd" points="234.5,-135.234 238,-145.234 241.5,-135.234 234.5,-135.234"/>
<text text-anchor="middle" x="246" y="-119" font-family="Helvetica,sans-Serif" font-size="10.00"> ptr</text>
</g>
<!-- Node9&#45;&gt;Node8 -->
<g id="edge9" class="edge"><title>Node9&#45;&gt;Node8</title>
<path fill="none" stroke="#9a32cd" stroke-dasharray="5,2" d="M614.859,-408.137C598.05,-396.834 579,-379.14 579,-357 579,-357 579,-357 579,-221 579,-159.301 360.867,-154.717 273.528,-155.354"/>
<polygon fill="#9a32cd" stroke="#9a32cd" points="613.001,-411.103 623.331,-413.455 616.722,-405.174 613.001,-411.103"/>
<text text-anchor="middle" x="602.5" y="-286.5" font-family="Helvetica,sans-Serif" font-size="10.00"> tokeniser</text>
</g>
<!-- Node10 -->
<g id="node10" class="node"><title>Node10</title>
<polygon fill="white" stroke="#bfbfbf" points="645.5,-480.5 645.5,-499.5 748.5,-499.5 748.5,-480.5 645.5,-480.5"/>
<text text-anchor="middle" x="697" y="-487.5" font-family="Helvetica,sans-Serif" font-size="10.00">std::vector&lt; Line &gt;</text>
</g>
<!-- Node10&#45;&gt;Node9 -->
<g id="edge11" class="edge"><title>Node10&#45;&gt;Node9</title>
<path fill="none" stroke="#9a32cd" stroke-dasharray="5,2" d="M682.649,-472.635C671.502,-459.923 656.484,-442.798 647.565,-432.627"/>
<polygon fill="#9a32cd" stroke="#9a32cd" points="680.088,-475.023 689.313,-480.234 685.351,-470.408 680.088,-475.023"/>
<text text-anchor="middle" x="701" y="-454" font-family="Helvetica,sans-Serif" font-size="10.00"> ready_lines</text>
</g>
<!-- Node11&#45;&gt;Node9 -->
<g id="edge14" class="edge"><title>Node11&#45;&gt;Node9</title>
<path fill="none" stroke="#9a32cd" stroke-dasharray="5,2" d="M578.633,-537.823C584.585,-522.168 593.915,-499.141 604,-480 613.159,-462.617 626.029,-443.626 633.642,-432.828"/>
<polygon fill="#9a32cd" stroke="#9a32cd" points="575.298,-536.752 575.085,-547.345 581.857,-539.196 575.298,-536.752"/>
<text text-anchor="middle" x="620" y="-487.5" font-family="Helvetica,sans-Serif" font-size="10.00"> words</text>
</g>
<!-- Node11&#45;&gt;Node10 -->
<g id="edge12" class="edge"><title>Node11&#45;&gt;Node10</title>
<path fill="none" stroke="#9a32cd" stroke-dasharray="5,2" d="M597.763,-542.603C622.517,-529.731 659.192,-510.66 680.332,-499.667"/>
<polygon fill="#9a32cd" stroke="#9a32cd" points="595.856,-539.65 588.599,-547.369 599.086,-545.86 595.856,-539.65"/>
<text text-anchor="middle" x="665" y="-521" font-family="Helvetica,sans-Serif" font-size="10.00"> elements</text>
</g>
<!-- Node11&#45;&gt;Node13 -->
<g id="edge26" class="edge"><title>Node11&#45;&gt;Node13</title>
<path fill="none" stroke="#9a32cd" stroke-dasharray="5,2" d="M557.607,-539.704C536.444,-516.708 494.689,-474.882 451,-451 355.166,-398.613 225.9,-370.79 173.509,-361.06"/>
<polygon fill="#9a32cd" stroke="#9a32cd" points="555.134,-542.187 564.437,-547.256 560.325,-537.492 555.134,-542.187"/>
<text text-anchor="middle" x="498" y="-454" font-family="Helvetica,sans-Serif" font-size="10.00"> FEATURES</text>
</g>
<!-- Node12 -->
<g id="node12" class="node"><title>Node12</title>
<g id="a_node12"><a xlink:href="classCommandHandler.html" target="_top" xlink:title="The playd command handler. ">
<polygon fill="white" stroke="black" points="182,-279.5 182,-298.5 284,-298.5 284,-279.5 182,-279.5"/>
<text text-anchor="middle" x="233" y="-286.5" font-family="Helvetica,sans-Serif" font-size="10.00">CommandHandler</text>
</a>
</g>
</g>
<!-- Node12&#45;&gt;Node2 -->
<g id="edge33" class="edge"><title>Node12&#45;&gt;Node2</title>
<path fill="none" stroke="#9a32cd" stroke-dasharray="5,2" d="M206.241,-274.819C198.295,-270.644 189.67,-265.847 182,-261 167.439,-251.797 151.686,-239.7 141.601,-231.652"/>
<polygon fill="#9a32cd" stroke="#9a32cd" points="204.663,-277.944 215.157,-279.401 207.863,-271.718 204.663,-277.944"/>
<text text-anchor="middle" x="202" y="-253" font-family="Helvetica,sans-Serif" font-size="10.00"> handler</text>
</g>
<!-- Node12&#45;&gt;Node8 -->
<g id="edge16" class="edge"><title>Node12&#45;&gt;Node8</title>
<path fill="none" stroke="#9a32cd" stroke-dasharray="5,2" d="M233.709,-269.275C234.809,-240.246 236.881,-185.538 237.677,-164.521"/>
<polygon fill="#9a32cd" stroke="#9a32cd" points="230.209,-269.214 233.328,-279.339 237.204,-269.479 230.209,-269.214"/>
<text text-anchor="middle" x="256" y="-219.5" font-family="Helvetica,sans-Serif" font-size="10.00"> handler</text>
</g>
<!-- Node13&#45;&gt;Node1 -->
<g id="edge34" class="edge"><title>Node13&#45;&gt;Node1</title>
<path fill="none" stroke="#9a32cd" stroke-dasharray="5,2" d="M137.38,-337.941C120.966,-314.986 92.4538,-272.362 76,-232 66.4794,-208.645 61.2914,-179.108 59.166,-164.701"/>
<polygon fill="#9a32cd" stroke="#9a32cd" points="134.705,-340.215 143.412,-346.252 140.371,-336.103 134.705,-340.215"/>
<text text-anchor="middle" x="106.5" y="-253" font-family="Helvetica,sans-Serif" font-size="10.00"> player</text>
</g>
<!-- Node13&#45;&gt;Node2 -->
<g id="edge32" class="edge"><title>Node13&#45;&gt;Node2</title>
<path fill="none" stroke="#9a32cd" stroke-dasharray="5,2" d="M146.375,-336.291C144.342,-325.429 141.85,-311.471 140,-299 136.412,-274.817 133.332,-246.136 131.884,-231.915"/>
<polygon fill="#9a32cd" stroke="#9a32cd" points="142.972,-337.128 148.282,-346.296 149.848,-335.818 142.972,-337.128"/>
<text text-anchor="middle" x="156.5" y="-286.5" font-family="Helvetica,sans-Serif" font-size="10.00"> player</text>
</g>
<!-- Node13&#45;&gt;Node12 -->
<g id="edge17" class="edge"><title>Node13&#45;&gt;Node12</title>
<path fill="none" stroke="#9a32cd" stroke-dasharray="5,2" d="M169.067,-340.068C185.45,-327.238 208.502,-309.185 221.984,-298.627"/>
<polygon fill="#9a32cd" stroke="#9a32cd" points="166.909,-337.313 161.194,-346.234 171.225,-342.824 166.909,-337.313"/>
<text text-anchor="middle" x="213.5" y="-320" font-family="Helvetica,sans-Serif" font-size="10.00"> player</text>
</g>
<!-- Node14 -->
<g id="node14" class="node"><title>Node14</title>
<g id="a_node14"><a xlink:href="classPlayerFile.html" target="_top" xlink:title="The subcomponent of a Player that stores the audio file. ">
<polygon fill="white" stroke="black" points="257.5,-413.5 257.5,-432.5 320.5,-432.5 320.5,-413.5 257.5,-413.5"/>
<text text-anchor="middle" x="289" y="-420.5" font-family="Helvetica,sans-Serif" font-size="10.00">PlayerFile</text>
</a>
</g>
</g>
<!-- Node14&#45;&gt;Node13 -->
<g id="edge19" class="edge"><title>Node14&#45;&gt;Node13</title>
<path fill="none" stroke="#9a32cd" stroke-dasharray="5,2" d="M264.158,-408.609C249.911,-401.089 231.608,-391.698 215,-384 200.809,-377.422 184.559,-370.672 171.857,-365.567"/>
<polygon fill="#9a32cd" stroke="#9a32cd" points="262.831,-411.867 273.304,-413.472 266.118,-405.687 262.831,-411.867"/>
<text text-anchor="middle" x="246.5" y="-387" font-family="Helvetica,sans-Serif" font-size="10.00"> file</text>
</g>
<!-- Node15&#45;&gt;Node14 -->
<g id="edge20" class="edge"><title>Node15&#45;&gt;Node14</title>
<path fill="none" stroke="midnightblue" d="M147.737,-476.771C182.271,-463.87 235.794,-443.876 266.076,-432.564"/>
<polygon fill="midnightblue" stroke="midnightblue" points="146.249,-473.59 138.106,-480.369 148.698,-480.148 146.249,-473.59"/>
</g>
<!-- Node15&#45;&gt;Node19 -->
<g id="edge28" class="edge"><title>Node15&#45;&gt;Node19</title>
<path fill="none" stroke="midnightblue" d="M135.446,-474.068C153.013,-461.238 177.731,-443.185 192.187,-432.627"/>
<polygon fill="midnightblue" stroke="midnightblue" points="133.014,-471.509 127.003,-480.234 137.143,-477.162 133.014,-471.509"/>
</g>
<!-- Node20 -->
<g id="node20" class="node"><title>Node20</title>
<g id="a_node20"><a xlink:href="classPlayerPosition.html" target="_top" xlink:title="Tracker and broadcaster for the Player&#39;s current position in a song. ">
<polygon fill="white" stroke="black" points="66,-413.5 66,-432.5 150,-432.5 150,-413.5 66,-413.5"/>
<text text-anchor="middle" x="108" y="-420.5" font-family="Helvetica,sans-Serif" font-size="10.00">PlayerPosition</text>
</a>
</g>
</g>
<!-- Node15&#45;&gt;Node20 -->
<g id="edge31" class="edge"><title>Node15&#45;&gt;Node20</title>
<path fill="none" stroke="midnightblue" d="M112.958,-470.037C111.626,-457.67 109.951,-442.12 108.929,-432.627"/>
<polygon fill="midnightblue" stroke="midnightblue" points="109.505,-470.666 114.056,-480.234 116.465,-469.917 109.505,-470.666"/>
</g>
<!-- Node16 -->
<g id="node16" class="node"><title>Node16</title>
<g id="a_node16"><a xlink:href="classAudio.html" target="_top" xlink:title="An audio item. ">
<polygon fill="white" stroke="black" points="355.5,-547.5 355.5,-566.5 398.5,-566.5 398.5,-547.5 355.5,-547.5"/>
<text text-anchor="middle" x="377" y="-554.5" font-family="Helvetica,sans-Serif" font-size="10.00">Audio</text>
</a>
</g>
</g>
<!-- Node16&#45;&gt;Node14 -->
<g id="edge22" class="edge"><title>Node16&#45;&gt;Node14</title>
<path fill="none" stroke="midnightblue" d="M409.043,-556.893C445.756,-556.427 499.372,-550.381 487,-518 472.734,-480.66 461.757,-470.742 427,-451 393.885,-432.191 349.884,-426.279 320.562,-424.531"/>
<polygon fill="midnightblue" stroke="midnightblue" points="408.747,-553.393 398.745,-556.888 408.743,-560.393 408.747,-553.393"/>
</g>
<!-- Node17 -->
<g id="node17" class="node"><title>Node17</title>
<polygon fill="white" stroke="#bfbfbf" points="220.5,-480.5 220.5,-499.5 349.5,-499.5 349.5,-480.5 220.5,-480.5"/>
<text text-anchor="middle" x="285" y="-487.5" font-family="Helvetica,sans-Serif" font-size="10.00">std::unique_ptr&lt; Audio &gt;</text>
</g>
<!-- Node16&#45;&gt;Node17 -->
<g id="edge24" class="edge"><title>Node16&#45;&gt;Node17</title>
<path fill="none" stroke="#9a32cd" stroke-dasharray="5,2" d="M356.363,-541.42C338.175,-528.569 312.292,-510.282 297.211,-499.627"/>
<polygon fill="#9a32cd" stroke="#9a32cd" points="354.406,-544.322 364.592,-547.234 358.445,-538.605 354.406,-544.322"/>
<text text-anchor="middle" x="345" y="-521" font-family="Helvetica,sans-Serif" font-size="10.00"> ptr</text>
</g>
<!-- Node17&#45;&gt;Node14 -->
<g id="edge23" class="edge"><title>Node17&#45;&gt;Node14</title>
<path fill="none" stroke="#9a32cd" stroke-dasharray="5,2" d="M286.167,-470.037C286.928,-457.67 287.885,-442.12 288.469,-432.627"/>
<polygon fill="#9a32cd" stroke="#9a32cd" points="282.66,-470.038 285.539,-480.234 289.647,-470.468 282.66,-470.038"/>
<text text-anchor="middle" x="302.5" y="-454" font-family="Helvetica,sans-Serif" font-size="10.00"> audio</text>
</g>
<!-- Node18 -->
<g id="node18" class="node"><title>Node18</title>
<g id="a_node18"><a xlink:href="classAudioSystem.html" target="_top" xlink:title="An AudioSystem represents the entire audio stack used by playd. ">
<polygon fill="white" stroke="black" points="367.5,-480.5 367.5,-499.5 444.5,-499.5 444.5,-480.5 367.5,-480.5"/>
<text text-anchor="middle" x="406" y="-487.5" font-family="Helvetica,sans-Serif" font-size="10.00">AudioSystem</text>
</a>
</g>
</g>
<!-- Node18&#45;&gt;Node14 -->
<g id="edge25" class="edge"><title>Node18&#45;&gt;Node14</title>
<path fill="none" stroke="#9a32cd" stroke-dasharray="5,2" d="M381.317,-475.287C358.128,-462.405 324.144,-443.524 304.529,-432.627"/>
<polygon fill="#9a32cd" stroke="#9a32cd" points="379.78,-478.437 390.221,-480.234 383.179,-472.318 379.78,-478.437"/>
<text text-anchor="middle" x="389" y="-454" font-family="Helvetica,sans-Serif" font-size="10.00"> audio_system</text>
</g>
<!-- Node19&#45;&gt;Node13 -->
<g id="edge27" class="edge"><title>Node19&#45;&gt;Node13</title>
<path fill="none" stroke="#9a32cd" stroke-dasharray="5,2" d="M191.614,-405.059C186.594,-398.385 180.656,-390.724 175,-384 169.736,-377.743 163.486,-370.993 158.552,-365.807"/>
<polygon fill="#9a32cd" stroke="#9a32cd" points="189.007,-407.42 197.776,-413.367 194.629,-403.25 189.007,-407.42"/>
<text text-anchor="middle" x="197.5" y="-387" font-family="Helvetica,sans-Serif" font-size="10.00"> state</text>
</g>
<!-- Node20&#45;&gt;Node13 -->
<g id="edge30" class="edge"><title>Node20&#45;&gt;Node13</title>
<path fill="none" stroke="#9a32cd" stroke-dasharray="5,2" d="M119.285,-404.535C127.417,-391.95 138.041,-375.507 144.425,-365.627"/>
<polygon fill="#9a32cd" stroke="#9a32cd" points="116.152,-402.935 113.664,-413.234 122.031,-406.734 116.152,-402.935"/>
<text text-anchor="middle" x="152" y="-387" font-family="Helvetica,sans-Serif" font-size="10.00"> position</text>
</g>
</g>
</svg>
