<?xml version="1.0" encoding="UTF-8" standalone="no"?>
<!DOCTYPE svg PUBLIC "-//W3C//DTD SVG 1.1//EN"
 "http://www.w3.org/Graphics/SVG/1.1/DTD/svg11.dtd">
<!-- Generated by graphviz version 2.38.0 (20140413.2041)
 -->
<!-- Title: FileError Pages: 1 -->
<svg width="111pt" height="220pt"
 viewBox="0.00 0.00 111.00 220.00" xmlns="http://www.w3.org/2000/svg" xmlns:xlink="http://www.w3.org/1999/xlink">
<g id="graph0" class="graph" transform="scale(1 1) rotate(0) translate(4 216)">
<title>FileError</title>
<polygon fill="white" stroke="none" points="-4,4 -4,-216 107,-216 107,4 -4,4"/>
<!-- Node1 -->
<g id="node1" class="node"><title>Node1</title>
<polygon fill="#bfbfbf" stroke="black" points="24,-0.5 24,-19.5 79,-19.5 79,-0.5 24,-0.5"/>
<text text-anchor="middle" x="51.5" y="-7.5" font-family="Helvetica,sans-Serif" font-size="10.00">FileError</text>
</g>
<!-- Node2 -->
<g id="node2" class="node"><title>Node2</title>
<g id="a_node2"><a xlink:href="classError.html" target="_top" xlink:title="A playd exception. ">
<polygon fill="white" stroke="black" points="31.5,-57.5 31.5,-76.5 71.5,-76.5 71.5,-57.5 31.5,-57.5"/>
<text text-anchor="middle" x="51.5" y="-64.5" font-family="Helvetica,sans-Serif" font-size="10.00">Error</text>
</a>
</g>
</g>
<!-- Node2&#45;&gt;Node1 -->
<g id="edge1" class="edge"><title>Node2&#45;&gt;Node1</title>
<path fill="none" stroke="midnightblue" d="M51.5,-47.1166C51.5,-37.8173 51.5,-27.0557 51.5,-19.7149"/>
<polygon fill="midnightblue" stroke="midnightblue" points="48.0001,-47.4062 51.5,-57.4062 55.0001,-47.4063 48.0001,-47.4062"/>
</g>
<!-- Node3 -->
<g id="node3" class="node"><title>Node3</title>
<g id="a_node3"><a xlink:title="STL class. ">
<polygon fill="white" stroke="#bfbfbf" points="19,-124.5 19,-143.5 84,-143.5 84,-124.5 19,-124.5"/>
<text text-anchor="middle" x="51.5" y="-131.5" font-family="Helvetica,sans-Serif" font-size="10.00">std::string</text>
</a>
</g>
</g>
<!-- Node3&#45;&gt;Node2 -->
<g id="edge2" class="edge"><title>Node3&#45;&gt;Node2</title>
<path fill="none" stroke="#9a32cd" stroke-dasharray="5,2" d="M51.5,-114.037C51.5,-101.67 51.5,-86.1198 51.5,-76.6273"/>
<polygon fill="#9a32cd" stroke="#9a32cd" points="48.0001,-114.234 51.5,-124.234 55.0001,-114.234 48.0001,-114.234"/>
<text text-anchor="middle" x="75.5" y="-98" font-family="Helvetica,sans-Serif" font-size="10.00"> message</text>
</g>
<!-- Node4 -->
<g id="node4" class="node"><title>Node4</title>
<g id="a_node4"><a xlink:title="STL class. ">
<polygon fill="white" stroke="#bfbfbf" points="0,-181.5 0,-211.5 103,-211.5 103,-181.5 0,-181.5"/>
<text text-anchor="start" x="8" y="-199.5" font-family="Helvetica,sans-Serif" font-size="10.00">std::basic_string&lt;</text>
<text text-anchor="middle" x="51.5" y="-188.5" font-family="Helvetica,sans-Serif" font-size="10.00"> char &gt;</text>
</a>
</g>
</g>
<!-- Node4&#45;&gt;Node3 -->
<g id="edge3" class="edge"><title>Node4&#45;&gt;Node3</title>
<path fill="none" stroke="midnightblue" d="M51.5,-171.352C51.5,-161.513 51.5,-150.775 51.5,-143.54"/>
<polygon fill="midnightblue" stroke="midnightblue" points="48.0001,-171.468 51.5,-181.468 55.0001,-171.468 48.0001,-171.468"/>
</g>
</g>
</svg>
