<?xml version="1.0" encoding="UTF-8" standalone="no"?>
<!DOCTYPE svg PUBLIC "-//W3C//DTD SVG 1.1//EN"
 "http://www.w3.org/Graphics/SVG/1.1/DTD/svg11.dtd">
<!-- Generated by graphviz version 2.38.0 (20140413.2041)
 -->
<!-- Title: PlayerState Pages: 1 -->
<svg width="240pt" height="241pt"
 viewBox="0.00 0.00 240.00 241.00" xmlns="http://www.w3.org/2000/svg" xmlns:xlink="http://www.w3.org/1999/xlink">
<g id="graph0" class="graph" transform="scale(1 1) rotate(0) translate(4 237)">
<title>PlayerState</title>
<polygon fill="white" stroke="none" points="-4,4 -4,-237 236,-237 236,4 -4,4"/>
<!-- Node1 -->
<g id="node1" class="node"><title>Node1</title>
<polygon fill="#bfbfbf" stroke="black" points="86,-0.5 86,-19.5 158,-19.5 158,-0.5 86,-0.5"/>
<text text-anchor="middle" x="122" y="-7.5" font-family="Helvetica,sans-Serif" font-size="10.00">PlayerState</text>
</g>
<!-- Node2 -->
<g id="node2" class="node"><title>Node2</title>
<g id="a_node2"><a xlink:href="classResponseSource.html" target="_top" xlink:title="Abstract helper class for sources of responses. ">
<polygon fill="white" stroke="black" points="0,-73 0,-92 96,-92 96,-73 0,-73"/>
<text text-anchor="middle" x="48" y="-80" font-family="Helvetica,sans-Serif" font-size="10.00">ResponseSource</text>
</a>
</g>
</g>
<!-- Node2&#45;&gt;Node1 -->
<g id="edge1" class="edge"><title>Node2&#45;&gt;Node1</title>
<path fill="none" stroke="midnightblue" d="M64.5926,-65.6921C79.4969,-51.4928 100.83,-31.1687 112.852,-19.7154"/>
<polygon fill="midnightblue" stroke="midnightblue" points="61.8999,-63.4234 57.0739,-72.8553 66.7283,-68.4916 61.8999,-63.4234"/>
</g>
<!-- Node3 -->
<g id="node3" class="node"><title>Node3</title>
<g id="a_node3"><a xlink:href="classResponseSink.html" target="_top" xlink:title="Abstract class for anything that can be sent a response. ">
<polygon fill="white" stroke="black" points="6.5,-145.5 6.5,-164.5 89.5,-164.5 89.5,-145.5 6.5,-145.5"/>
<text text-anchor="middle" x="48" y="-152.5" font-family="Helvetica,sans-Serif" font-size="10.00">ResponseSink</text>
</a>
</g>
</g>
<!-- Node3&#45;&gt;Node2 -->
<g id="edge2" class="edge"><title>Node3&#45;&gt;Node2</title>
<path fill="none" stroke="#9a32cd" stroke-dasharray="5,2" d="M48,-134.942C48,-121.03 48,-102.82 48,-92.2154"/>
<polygon fill="#9a32cd" stroke="#9a32cd" points="44.5001,-135.355 48,-145.355 51.5001,-135.355 44.5001,-135.355"/>
<text text-anchor="middle" x="73.5" y="-119" font-family="Helvetica,sans-Serif" font-size="10.00"> push_sink</text>
</g>
<!-- Node4 -->
<g id="node4" class="node"><title>Node4</title>
<polygon fill="white" stroke="#bfbfbf" points="114,-67.5 114,-97.5 232,-97.5 232,-67.5 114,-67.5"/>
<text text-anchor="start" x="122" y="-85.5" font-family="Helvetica,sans-Serif" font-size="10.00">std::map&lt; State, std</text>
<text text-anchor="middle" x="173" y="-74.5" font-family="Helvetica,sans-Serif" font-size="10.00">::string &gt;</text>
</g>
<!-- Node4&#45;&gt;Node1 -->
<g id="edge3" class="edge"><title>Node4&#45;&gt;Node1</title>
<path fill="none" stroke="#9a32cd" stroke-dasharray="5,2" d="M156.728,-59.006C147.123,-45.7295 135.501,-29.6626 128.433,-19.8932"/>
<polygon fill="#9a32cd" stroke="#9a32cd" points="153.982,-61.1824 162.679,-67.2333 159.654,-57.0796 153.982,-61.1824"/>
<text text-anchor="middle" x="172" y="-41" font-family="Helvetica,sans-Serif" font-size="10.00"> STRINGS</text>
</g>
<!-- Node5 -->
<g id="node5" class="node"><title>Node5</title>
<g id="a_node5"><a xlink:title="STL class. ">
<polygon fill="white" stroke="#bfbfbf" points="140.5,-145.5 140.5,-164.5 205.5,-164.5 205.5,-145.5 140.5,-145.5"/>
<text text-anchor="middle" x="173" y="-152.5" font-family="Helvetica,sans-Serif" font-size="10.00">std::string</text>
</a>
</g>
</g>
<!-- Node5&#45;&gt;Node4 -->
<g id="edge4" class="edge"><title>Node5&#45;&gt;Node4</title>
<path fill="none" stroke="#9a32cd" stroke-dasharray="5,2" d="M173,-135.236C173,-123.408 173,-108.383 173,-97.5762"/>
<polygon fill="#9a32cd" stroke="#9a32cd" points="169.5,-135.355 173,-145.355 176.5,-135.355 169.5,-135.355"/>
<text text-anchor="middle" x="197.5" y="-119" font-family="Helvetica,sans-Serif" font-size="10.00"> elements</text>
</g>
<!-- Node6 -->
<g id="node6" class="node"><title>Node6</title>
<g id="a_node6"><a xlink:title="STL class. ">
<polygon fill="white" stroke="#bfbfbf" points="121.5,-202.5 121.5,-232.5 224.5,-232.5 224.5,-202.5 121.5,-202.5"/>
<text text-anchor="start" x="129.5" y="-220.5" font-family="Helvetica,sans-Serif" font-size="10.00">std::basic_string&lt;</text>
<text text-anchor="middle" x="173" y="-209.5" font-family="Helvetica,sans-Serif" font-size="10.00"> char &gt;</text>
</a>
</g>
</g>
<!-- Node6&#45;&gt;Node5 -->
<g id="edge5" class="edge"><title>Node6&#45;&gt;Node5</title>
<path fill="none" stroke="midnightblue" d="M173,-192.352C173,-182.513 173,-171.775 173,-164.54"/>
<polygon fill="midnightblue" stroke="midnightblue" points="169.5,-192.468 173,-202.468 176.5,-192.468 169.5,-192.468"/>
</g>
</g>
</svg>
