<?xml version="1.0" encoding="UTF-8" standalone="no"?>
<!DOCTYPE svg PUBLIC "-//W3C//DTD SVG 1.1//EN"
 "http://www.w3.org/Graphics/SVG/1.1/DTD/svg11.dtd">
<!-- Generated by graphviz version 2.38.0 (20140413.2041)
 -->
<!-- Title: PaSoxAudioSystem Pages: 1 -->
<svg width="324pt" height="163pt"
 viewBox="0.00 0.00 323.50 163.00" xmlns="http://www.w3.org/2000/svg" xmlns:xlink="http://www.w3.org/1999/xlink">
<g id="graph0" class="graph" transform="scale(1 1) rotate(0) translate(4 159)">
<title>PaSoxAudioSystem</title>
<polygon fill="white" stroke="none" points="-4,4 -4,-159 319.5,-159 319.5,4 -4,4"/>
<!-- Node1 -->
<g id="node1" class="node"><title>Node1</title>
<polygon fill="#bfbfbf" stroke="black" points="102.5,-0.5 102.5,-19.5 210.5,-19.5 210.5,-0.5 102.5,-0.5"/>
<text text-anchor="middle" x="156.5" y="-7.5" font-family="Helvetica,sans-Serif" font-size="10.00">PaSoxAudioSystem</text>
</g>
<!-- Node2 -->
<g id="node2" class="node"><title>Node2</title>
<g id="a_node2"><a xlink:href="classAudioSystem.html" target="_top" xlink:title="An AudioSystem represents the entire audio stack used by playd. ">
<polygon fill="white" stroke="black" points="0,-67.5 0,-86.5 77,-86.5 77,-67.5 0,-67.5"/>
<text text-anchor="middle" x="38.5" y="-74.5" font-family="Helvetica,sans-Serif" font-size="10.00">AudioSystem</text>
</a>
</g>
</g>
<!-- Node2&#45;&gt;Node1 -->
<g id="edge1" class="edge"><title>Node2&#45;&gt;Node1</title>
<path fill="none" stroke="midnightblue" d="M63.394,-62.2872C86.7808,-49.4047 121.056,-30.5243 140.838,-19.6273"/>
<polygon fill="midnightblue" stroke="midnightblue" points="61.4843,-59.3432 54.414,-67.2338 64.8618,-65.4745 61.4843,-59.3432"/>
</g>
<!-- Node3 -->
<g id="node3" class="node"><title>Node3</title>
<g id="a_node3"><a xlink:href="classAudioSinkConfigurator.html" target="_top" xlink:title="Interface for objects that can configure a PortAudio stream from an AudioSource. ">
<polygon fill="white" stroke="black" points="95.5,-67.5 95.5,-86.5 217.5,-86.5 217.5,-67.5 95.5,-67.5"/>
<text text-anchor="middle" x="156.5" y="-74.5" font-family="Helvetica,sans-Serif" font-size="10.00">AudioSinkConfigurator</text>
</a>
</g>
</g>
<!-- Node3&#45;&gt;Node1 -->
<g id="edge2" class="edge"><title>Node3&#45;&gt;Node1</title>
<path fill="none" stroke="midnightblue" d="M156.5,-57.037C156.5,-44.6703 156.5,-29.1198 156.5,-19.6273"/>
<polygon fill="midnightblue" stroke="midnightblue" points="153,-57.2338 156.5,-67.2338 160,-57.2338 153,-57.2338"/>
</g>
<!-- Node4 -->
<g id="node4" class="node"><title>Node4</title>
<g id="a_node4"><a xlink:title="STL class. ">
<polygon fill="white" stroke="#bfbfbf" points="235.5,-67.5 235.5,-86.5 297.5,-86.5 297.5,-67.5 235.5,-67.5"/>
<text text-anchor="middle" x="266.5" y="-74.5" font-family="Helvetica,sans-Serif" font-size="10.00">std::string</text>
</a>
</g>
</g>
<!-- Node4&#45;&gt;Node1 -->
<g id="edge3" class="edge"><title>Node4&#45;&gt;Node1</title>
<path fill="none" stroke="#9a32cd" stroke-dasharray="5,2" d="M243.002,-62.1151C221.209,-49.237 189.459,-30.4758 171.1,-19.6273"/>
<polygon fill="#9a32cd" stroke="#9a32cd" points="241.275,-65.1597 251.665,-67.2338 244.836,-59.1332 241.275,-65.1597"/>
<text text-anchor="middle" x="242" y="-41" font-family="Helvetica,sans-Serif" font-size="10.00"> device_id</text>
</g>
<!-- Node5 -->
<g id="node5" class="node"><title>Node5</title>
<g id="a_node5"><a xlink:title="STL class. ">
<polygon fill="white" stroke="#bfbfbf" points="217.5,-124.5 217.5,-154.5 315.5,-154.5 315.5,-124.5 217.5,-124.5"/>
<text text-anchor="start" x="225.5" y="-142.5" font-family="Helvetica,sans-Serif" font-size="10.00">std::basic_string&lt;</text>
<text text-anchor="middle" x="266.5" y="-131.5" font-family="Helvetica,sans-Serif" font-size="10.00"> char &gt;</text>
</a>
</g>
</g>
<!-- Node5&#45;&gt;Node4 -->
<g id="edge4" class="edge"><title>Node5&#45;&gt;Node4</title>
<path fill="none" stroke="midnightblue" d="M266.5,-114.352C266.5,-104.513 266.5,-93.7753 266.5,-86.5399"/>
<polygon fill="midnightblue" stroke="midnightblue" points="263,-114.468 266.5,-124.468 270,-114.468 263,-114.468"/>
</g>
</g>
</svg>
