<?xml version="1.0" encoding="UTF-8" standalone="no"?>
<!DOCTYPE svg PUBLIC "-//W3C//DTD SVG 1.1//EN"
 "http://www.w3.org/Graphics/SVG/1.1/DTD/svg11.dtd">
<!-- Generated by graphviz version 2.38.0 (20140413.2041)
 -->
<!-- Title: IoCore Pages: 1 -->
<svg width="890pt" height="809pt"
 viewBox="0.00 0.00 890.50 809.00" xmlns="http://www.w3.org/2000/svg" xmlns:xlink="http://www.w3.org/1999/xlink">
<g id="graph0" class="graph" transform="scale(1 1) rotate(0) translate(4 805)">
<title>IoCore</title>
<polygon fill="white" stroke="none" points="-4,4 -4,-805 886.499,-805 886.499,4 -4,4"/>
<!-- Node1 -->
<g id="node1" class="node"><title>Node1</title>
<polygon fill="#bfbfbf" stroke="black" points="782.999,-145.5 782.999,-164.5 829.999,-164.5 829.999,-145.5 782.999,-145.5"/>
<text text-anchor="middle" x="806.499" y="-152.5" font-family="Helvetica,sans-Serif" font-size="10.00">IoCore</text>
</g>
<!-- Node2 -->
<g id="node2" class="node"><title>Node2</title>
<g id="a_node2"><a xlink:href="classResponseSink.html" target="_top" xlink:title="Abstract class for anything that can be sent a response. ">
<polygon fill="white" stroke="black" points="741.999,-558.5 741.999,-577.5 824.999,-577.5 824.999,-558.5 741.999,-558.5"/>
<text text-anchor="middle" x="783.499" y="-565.5" font-family="Helvetica,sans-Serif" font-size="10.00">ResponseSink</text>
</a>
</g>
</g>
<!-- Node2&#45;&gt;Node1 -->
<g id="edge1" class="edge"><title>Node2&#45;&gt;Node1</title>
<path fill="none" stroke="midnightblue" d="M825.902,-554.95C852.776,-544.427 882.499,-526.098 882.499,-496.5 882.499,-496.5 882.499,-496.5 882.499,-221 882.499,-193.047 852.44,-174.545 830.13,-164.662"/>
<polygon fill="midnightblue" stroke="midnightblue" points="824.393,-551.774 816.19,-558.48 826.784,-558.353 824.393,-551.774"/>
</g>
<!-- Node3 -->
<g id="node3" class="node"><title>Node3</title>
<g id="a_node3"><a xlink:href="classConnectionPool.html" target="_top" xlink:title="A pool of TCP connections. ">
<polygon fill="white" stroke="black" points="668.999,-212.5 668.999,-231.5 759.999,-231.5 759.999,-212.5 668.999,-212.5"/>
<text text-anchor="middle" x="714.499" y="-219.5" font-family="Helvetica,sans-Serif" font-size="10.00">ConnectionPool</text>
</a>
</g>
</g>
<!-- Node2&#45;&gt;Node3 -->
<g id="edge3" class="edge"><title>Node2&#45;&gt;Node3</title>
<path fill="none" stroke="midnightblue" d="M807.146,-552.562C824.298,-540.092 844.499,-520.344 844.499,-496.5 844.499,-496.5 844.499,-496.5 844.499,-321.5 844.499,-293.467 766.733,-249.874 731.495,-231.56"/>
<polygon fill="midnightblue" stroke="midnightblue" points="804.87,-549.878 798.578,-558.403 808.812,-555.662 804.87,-549.878"/>
</g>
<!-- Node6 -->
<g id="node6" class="node"><title>Node6</title>
<g id="a_node6"><a xlink:href="classConnection.html" target="_top" xlink:title="A TCP connection from a client. ">
<polygon fill="white" stroke="black" points="567.999,-145.5 567.999,-164.5 638.999,-164.5 638.999,-145.5 567.999,-145.5"/>
<text text-anchor="middle" x="603.499" y="-152.5" font-family="Helvetica,sans-Serif" font-size="10.00">Connection</text>
</a>
</g>
</g>
<!-- Node2&#45;&gt;Node6 -->
<g id="edge7" class="edge"><title>Node2&#45;&gt;Node6</title>
<path fill="none" stroke="midnightblue" d="M731.734,-560.112C691.068,-552.846 634.341,-538.475 591.499,-511 561.795,-491.95 566.837,-473.313 539.499,-451 526.858,-440.682 518.495,-445.057 507.499,-433 493.557,-417.712 488.499,-411.191 488.499,-390.5 488.499,-390.5 488.499,-390.5 488.499,-221 488.499,-184.077 533.985,-167.887 567.743,-160.956"/>
<polygon fill="midnightblue" stroke="midnightblue" points="731.263,-563.582 741.709,-561.81 732.438,-556.681 731.263,-563.582"/>
</g>
<!-- Node13 -->
<g id="node13" class="node"><title>Node13</title>
<g id="a_node13"><a xlink:href="classPlayer.html" target="_top" xlink:title="A Player contains a loaded audio file and the state of its playback. ">
<polygon fill="white" stroke="black" points="625.499,-346.5 625.499,-365.5 671.499,-365.5 671.499,-346.5 625.499,-346.5"/>
<text text-anchor="middle" x="648.499" y="-353.5" font-family="Helvetica,sans-Serif" font-size="10.00">Player</text>
</a>
</g>
</g>
<!-- Node2&#45;&gt;Node13 -->
<g id="edge18" class="edge"><title>Node2&#45;&gt;Node13</title>
<path fill="none" stroke="#9a32cd" stroke-dasharray="5,2" d="M782.759,-548.167C782.064,-525.182 781.524,-485.156 784.499,-451 785.97,-434.122 791.277,-429.515 787.499,-413 784.308,-399.048 784.745,-392.853 773.499,-384 744.017,-360.792 698.985,-356.459 671.782,-356.194"/>
<polygon fill="#9a32cd" stroke="#9a32cd" points="779.264,-548.374 783.109,-558.247 786.26,-548.131 779.264,-548.374"/>
<text text-anchor="middle" x="807.499" y="-454" font-family="Helvetica,sans-Serif" font-size="10.00"> end_sink</text>
</g>
<!-- Node15 -->
<g id="node15" class="node"><title>Node15</title>
<g id="a_node15"><a xlink:href="classResponseSource.html" target="_top" xlink:title="Abstract helper class for sources of responses. ">
<polygon fill="white" stroke="black" points="600.499,-486 600.499,-505 696.499,-505 696.499,-486 600.499,-486"/>
<text text-anchor="middle" x="648.499" y="-493" font-family="Helvetica,sans-Serif" font-size="10.00">ResponseSource</text>
</a>
</g>
</g>
<!-- Node2&#45;&gt;Node15 -->
<g id="edge21" class="edge"><title>Node2&#45;&gt;Node15</title>
<path fill="none" stroke="#9a32cd" stroke-dasharray="5,2" d="M750.617,-554.553C740.185,-550.284 728.712,-545.25 718.499,-540 697.63,-529.271 674.772,-514.436 661.037,-505.159"/>
<polygon fill="#9a32cd" stroke="#9a32cd" points="749.64,-557.931 760.225,-558.393 752.238,-551.431 749.64,-557.931"/>
<text text-anchor="middle" x="743.999" y="-532" font-family="Helvetica,sans-Serif" font-size="10.00"> push_sink</text>
</g>
<!-- Node3&#45;&gt;Node1 -->
<g id="edge2" class="edge"><title>Node3&#45;&gt;Node1</title>
<path fill="none" stroke="#9a32cd" stroke-dasharray="5,2" d="M735.136,-206.42C753.324,-193.569 779.208,-175.282 794.289,-164.627"/>
<polygon fill="#9a32cd" stroke="#9a32cd" points="733.055,-203.605 726.907,-212.234 737.094,-209.322 733.055,-203.605"/>
<text text-anchor="middle" x="777.499" y="-186" font-family="Helvetica,sans-Serif" font-size="10.00"> pool</text>
</g>
<!-- Node3&#45;&gt;Node6 -->
<g id="edge15" class="edge"><title>Node3&#45;&gt;Node6</title>
<path fill="none" stroke="#9a32cd" stroke-dasharray="5,2" d="M689.553,-207.544C681.803,-203.286 673.26,-198.513 665.499,-194 648.693,-184.226 629.67,-172.46 617.18,-164.636"/>
<polygon fill="#9a32cd" stroke="#9a32cd" points="688.052,-210.712 698.506,-212.43 691.405,-204.567 688.052,-210.712"/>
<text text-anchor="middle" x="682.999" y="-186" font-family="Helvetica,sans-Serif" font-size="10.00"> parent</text>
</g>
<!-- Node4 -->
<g id="node4" class="node"><title>Node4</title>
<polygon fill="white" stroke="#bfbfbf" points="604.499,-0.5 604.499,-30.5 736.499,-30.5 736.499,-0.5 604.499,-0.5"/>
<text text-anchor="start" x="612.499" y="-18.5" font-family="Helvetica,sans-Serif" font-size="10.00">std::vector&lt; std::unique</text>
<text text-anchor="middle" x="670.499" y="-7.5" font-family="Helvetica,sans-Serif" font-size="10.00">_ptr&lt; Connection &gt; &gt;</text>
</g>
<!-- Node4&#45;&gt;Node3 -->
<g id="edge4" class="edge"><title>Node4&#45;&gt;Node3</title>
<path fill="none" stroke="#9a32cd" stroke-dasharray="5,2" d="M687.697,-39.0992C689.559,-42.301 691.233,-45.6477 692.499,-49 714.944,-108.423 715.336,-186.737 714.78,-212.433"/>
<polygon fill="#9a32cd" stroke="#9a32cd" points="690.533,-37.0398 682.139,-30.5748 684.669,-40.8632 690.533,-37.0398"/>
<text text-anchor="middle" x="739.999" y="-119" font-family="Helvetica,sans-Serif" font-size="10.00"> connections</text>
</g>
<!-- Node5 -->
<g id="node5" class="node"><title>Node5</title>
<polygon fill="white" stroke="#bfbfbf" points="520.999,-78.5 520.999,-97.5 685.999,-97.5 685.999,-78.5 520.999,-78.5"/>
<text text-anchor="middle" x="603.499" y="-85.5" font-family="Helvetica,sans-Serif" font-size="10.00">std::unique_ptr&lt; Connection &gt;</text>
</g>
<!-- Node5&#45;&gt;Node4 -->
<g id="edge5" class="edge"><title>Node5&#45;&gt;Node4</title>
<path fill="none" stroke="#9a32cd" stroke-dasharray="5,2" d="M618.616,-71.0934C630.19,-58.9149 646.005,-42.2742 657.122,-30.5762"/>
<polygon fill="#9a32cd" stroke="#9a32cd" points="616.067,-68.6955 611.715,-78.3553 621.141,-73.5177 616.067,-68.6955"/>
<text text-anchor="middle" x="663.999" y="-52" font-family="Helvetica,sans-Serif" font-size="10.00"> elements</text>
</g>
<!-- Node6&#45;&gt;Node5 -->
<g id="edge6" class="edge"><title>Node6&#45;&gt;Node5</title>
<path fill="none" stroke="#9a32cd" stroke-dasharray="5,2" d="M603.499,-135.037C603.499,-122.67 603.499,-107.12 603.499,-97.6273"/>
<polygon fill="#9a32cd" stroke="#9a32cd" points="600,-135.234 603.499,-145.234 607,-135.234 600,-135.234"/>
<text text-anchor="middle" x="611.999" y="-119" font-family="Helvetica,sans-Serif" font-size="10.00"> ptr</text>
</g>
<!-- Node7 -->
<g id="node7" class="node"><title>Node7</title>
<g id="a_node7"><a xlink:href="classTokeniser.html" target="_top" xlink:title="A string tokeniser. ">
<polygon fill="white" stroke="black" points="89.9995,-346.5 89.9995,-365.5 150.999,-365.5 150.999,-346.5 89.9995,-346.5"/>
<text text-anchor="middle" x="120.499" y="-353.5" font-family="Helvetica,sans-Serif" font-size="10.00">Tokeniser</text>
</a>
</g>
</g>
<!-- Node7&#45;&gt;Node6 -->
<g id="edge8" class="edge"><title>Node7&#45;&gt;Node6</title>
<path fill="none" stroke="#9a32cd" stroke-dasharray="5,2" d="M143.43,-341.37C198.566,-309.16 343.7,-227.7 474.499,-183 505.245,-172.493 541.573,-165.335 567.83,-161.043"/>
<polygon fill="#9a32cd" stroke="#9a32cd" points="141.634,-338.365 134.785,-346.449 145.18,-344.401 141.634,-338.365"/>
<text text-anchor="middle" x="338.499" y="-253" font-family="Helvetica,sans-Serif" font-size="10.00"> tokeniser</text>
</g>
<!-- Node8 -->
<g id="node8" class="node"><title>Node8</title>
<g id="a_node8"><a xlink:title="STL class. ">
<polygon fill="white" stroke="#bfbfbf" points="62.9995,-558.5 62.9995,-577.5 127.999,-577.5 127.999,-558.5 62.9995,-558.5"/>
<text text-anchor="middle" x="95.4995" y="-565.5" font-family="Helvetica,sans-Serif" font-size="10.00">std::string</text>
</a>
</g>
</g>
<!-- Node8&#45;&gt;Node7 -->
<g id="edge9" class="edge"><title>Node8&#45;&gt;Node7</title>
<path fill="none" stroke="#9a32cd" stroke-dasharray="5,2" d="M59.1007,-554.453C39.4555,-545.602 16.9432,-531.599 5.49946,-511 -3.27196,-495.211 -0.818828,-430.007 10.4995,-413 28.6051,-385.794 64.1744,-371.129 89.9761,-363.718"/>
<polygon fill="#9a32cd" stroke="#9a32cd" points="57.8788,-557.736 68.4534,-558.391 60.5952,-551.285 57.8788,-557.736"/>
<text text-anchor="middle" x="34.4995" y="-454" font-family="Helvetica,sans-Serif" font-size="10.00"> current_word</text>
</g>
<!-- Node11 -->
<g id="node11" class="node"><title>Node11</title>
<polygon fill="white" stroke="#bfbfbf" points="14.4995,-486 14.4995,-505 152.499,-505 152.499,-486 14.4995,-486"/>
<text text-anchor="middle" x="83.4995" y="-493" font-family="Helvetica,sans-Serif" font-size="10.00">std::vector&lt; std::string &gt;</text>
</g>
<!-- Node8&#45;&gt;Node11 -->
<g id="edge13" class="edge"><title>Node8&#45;&gt;Node11</title>
<path fill="none" stroke="#9a32cd" stroke-dasharray="5,2" d="M87.1158,-548.983C86.05,-546.036 85.1175,-542.973 84.4995,-540 82.0399,-528.166 82.2641,-514.133 82.7782,-505.271"/>
<polygon fill="#9a32cd" stroke="#9a32cd" points="83.9054,-550.378 90.9883,-558.257 90.3649,-547.681 83.9054,-550.378"/>
<text text-anchor="middle" x="108.999" y="-532" font-family="Helvetica,sans-Serif" font-size="10.00"> elements</text>
</g>
<!-- Node27 -->
<g id="node27" class="node"><title>Node27</title>
<g id="a_node27"><a xlink:href="classAudioSystem.html" target="_top" xlink:title="An AudioSystem represents the entire audio stack used by playd. ">
<polygon fill="white" stroke="black" points="170.499,-486 170.499,-505 250.499,-505 250.499,-486 170.499,-486"/>
<text text-anchor="middle" x="210.499" y="-493" font-family="Helvetica,sans-Serif" font-size="10.00">AudioSystem</text>
</a>
</g>
</g>
<!-- Node8&#45;&gt;Node27 -->
<g id="edge35" class="edge"><title>Node8&#45;&gt;Node27</title>
<path fill="none" stroke="#9a32cd" stroke-dasharray="5,2" d="M118.135,-553.123C141.347,-538.894 176.735,-517.199 196.283,-505.215"/>
<polygon fill="#9a32cd" stroke="#9a32cd" points="116.297,-550.145 109.601,-558.355 119.956,-556.113 116.297,-550.145"/>
<text text-anchor="middle" x="180.499" y="-532" font-family="Helvetica,sans-Serif" font-size="10.00"> device_id</text>
</g>
<!-- Node31 -->
<g id="node31" class="node"><title>Node31</title>
<polygon fill="white" stroke="#bfbfbf" points="268.499,-480.5 268.499,-510.5 386.499,-510.5 386.499,-480.5 268.499,-480.5"/>
<text text-anchor="start" x="276.499" y="-498.5" font-family="Helvetica,sans-Serif" font-size="10.00">std::map&lt; State, std</text>
<text text-anchor="middle" x="327.499" y="-487.5" font-family="Helvetica,sans-Serif" font-size="10.00">::string &gt;</text>
</g>
<!-- Node8&#45;&gt;Node31 -->
<g id="edge41" class="edge"><title>Node8&#45;&gt;Node31</title>
<path fill="none" stroke="#9a32cd" stroke-dasharray="5,2" d="M138.42,-557.976C159.661,-553.199 185.595,-546.897 208.499,-540 237.144,-531.374 268.939,-519.636 292.453,-510.527"/>
<polygon fill="#9a32cd" stroke="#9a32cd" points="137.41,-554.615 128.404,-560.195 138.924,-561.449 137.41,-554.615"/>
<text text-anchor="middle" x="266.999" y="-532" font-family="Helvetica,sans-Serif" font-size="10.00"> elements</text>
</g>
<!-- Node9 -->
<g id="node9" class="node"><title>Node9</title>
<g id="a_node9"><a xlink:title="STL class. ">
<polygon fill="white" stroke="#bfbfbf" points="43.9995,-625.5 43.9995,-655.5 146.999,-655.5 146.999,-625.5 43.9995,-625.5"/>
<text text-anchor="start" x="51.9995" y="-643.5" font-family="Helvetica,sans-Serif" font-size="10.00">std::basic_string&lt;</text>
<text text-anchor="middle" x="95.4995" y="-632.5" font-family="Helvetica,sans-Serif" font-size="10.00"> char &gt;</text>
</a>
</g>
</g>
<!-- Node9&#45;&gt;Node8 -->
<g id="edge10" class="edge"><title>Node9&#45;&gt;Node8</title>
<path fill="none" stroke="midnightblue" d="M95.4995,-615.091C95.4995,-602.214 95.4995,-587.197 95.4995,-577.893"/>
<polygon fill="midnightblue" stroke="midnightblue" points="91.9996,-615.233 95.4995,-625.233 98.9996,-615.233 91.9996,-615.233"/>
</g>
<!-- Node10 -->
<g id="node10" class="node"><title>Node10</title>
<polygon fill="white" stroke="#bfbfbf" points="19.4995,-413.5 19.4995,-432.5 129.499,-432.5 129.499,-413.5 19.4995,-413.5"/>
<text text-anchor="middle" x="74.4995" y="-420.5" font-family="Helvetica,sans-Serif" font-size="10.00">std::vector&lt; Line &gt;</text>
</g>
<!-- Node10&#45;&gt;Node7 -->
<g id="edge11" class="edge"><title>Node10&#45;&gt;Node7</title>
<path fill="none" stroke="#9a32cd" stroke-dasharray="5,2" d="M82.0442,-403.989C85.1618,-397.429 89.0843,-390.126 93.4995,-384 98.3834,-377.224 105,-370.577 110.461,-365.574"/>
<polygon fill="#9a32cd" stroke="#9a32cd" points="78.7205,-402.849 77.8522,-413.408 85.1158,-405.695 78.7205,-402.849"/>
<text text-anchor="middle" x="122.499" y="-387" font-family="Helvetica,sans-Serif" font-size="10.00"> ready_lines</text>
</g>
<!-- Node11&#45;&gt;Node7 -->
<g id="edge14" class="edge"><title>Node11&#45;&gt;Node7</title>
<path fill="none" stroke="#9a32cd" stroke-dasharray="5,2" d="M111.36,-480.839C119.152,-475.853 126.988,-469.547 132.499,-462 153.542,-433.185 166.28,-416.475 151.499,-384 148.07,-376.465 141.383,-370.215 135.096,-365.632"/>
<polygon fill="#9a32cd" stroke="#9a32cd" points="109.568,-477.833 102.705,-485.905 113.104,-483.874 109.568,-477.833"/>
<text text-anchor="middle" x="173.999" y="-420.5" font-family="Helvetica,sans-Serif" font-size="10.00"> words</text>
</g>
<!-- Node11&#45;&gt;Node10 -->
<g id="edge12" class="edge"><title>Node11&#45;&gt;Node10</title>
<path fill="none" stroke="#9a32cd" stroke-dasharray="5,2" d="M81.1196,-475.858C79.3372,-461.895 76.9794,-443.426 75.6121,-432.715"/>
<polygon fill="#9a32cd" stroke="#9a32cd" points="77.6577,-476.379 82.3959,-485.855 84.6013,-475.493 77.6577,-476.379"/>
<text text-anchor="middle" x="103.999" y="-454" font-family="Helvetica,sans-Serif" font-size="10.00"> elements</text>
</g>
<!-- Node11&#45;&gt;Node13 -->
<g id="edge37" class="edge"><title>Node11&#45;&gt;Node13</title>
<path fill="none" stroke="#9a32cd" stroke-dasharray="5,2" d="M116.206,-482.466C164.192,-465.164 256.741,-433.133 337.499,-413 443.697,-386.525 573.247,-367.305 625.259,-360.11"/>
<polygon fill="#9a32cd" stroke="#9a32cd" points="114.872,-479.227 106.664,-485.925 117.258,-485.808 114.872,-479.227"/>
<text text-anchor="middle" x="363.499" y="-420.5" font-family="Helvetica,sans-Serif" font-size="10.00"> FEATURES</text>
</g>
<!-- Node12 -->
<g id="node12" class="node"><title>Node12</title>
<g id="a_node12"><a xlink:href="classCommandHandler.html" target="_top" xlink:title="The playd command handler. ">
<polygon fill="white" stroke="black" points="574.499,-279.5 574.499,-298.5 678.499,-298.5 678.499,-279.5 574.499,-279.5"/>
<text text-anchor="middle" x="626.499" y="-286.5" font-family="Helvetica,sans-Serif" font-size="10.00">CommandHandler</text>
</a>
</g>
</g>
<!-- Node12&#45;&gt;Node3 -->
<g id="edge45" class="edge"><title>Node12&#45;&gt;Node3</title>
<path fill="none" stroke="#9a32cd" stroke-dasharray="5,2" d="M639.336,-270.996C645.249,-263.914 652.684,-255.97 660.499,-250 670.329,-242.493 682.57,-236.17 692.911,-231.534"/>
<polygon fill="#9a32cd" stroke="#9a32cd" points="636.226,-269.283 632.746,-279.29 641.707,-273.638 636.226,-269.283"/>
<text text-anchor="middle" x="680.499" y="-253" font-family="Helvetica,sans-Serif" font-size="10.00"> handler</text>
</g>
<!-- Node12&#45;&gt;Node6 -->
<g id="edge16" class="edge"><title>Node12&#45;&gt;Node6</title>
<path fill="none" stroke="#9a32cd" stroke-dasharray="5,2" d="M623.237,-269.275C618.179,-240.246 608.646,-185.538 604.984,-164.521"/>
<polygon fill="#9a32cd" stroke="#9a32cd" points="619.826,-270.088 624.99,-279.339 626.722,-268.887 619.826,-270.088"/>
<text text-anchor="middle" x="637.499" y="-219.5" font-family="Helvetica,sans-Serif" font-size="10.00"> handler</text>
</g>
<!-- Node13&#45;&gt;Node1 -->
<g id="edge46" class="edge"><title>Node13&#45;&gt;Node1</title>
<path fill="none" stroke="#9a32cd" stroke-dasharray="5,2" d="M677.554,-342.003C696.549,-332.338 720.837,-317.62 737.499,-299 775.734,-256.274 797.388,-188.575 804.164,-164.691"/>
<polygon fill="#9a32cd" stroke="#9a32cd" points="675.885,-338.924 668.442,-346.464 678.963,-345.211 675.885,-338.924"/>
<text text-anchor="middle" x="785.999" y="-253" font-family="Helvetica,sans-Serif" font-size="10.00"> player</text>
</g>
<!-- Node13&#45;&gt;Node3 -->
<g id="edge44" class="edge"><title>Node13&#45;&gt;Node3</title>
<path fill="none" stroke="#9a32cd" stroke-dasharray="5,2" d="M666.997,-339.45C670.466,-335.936 673.834,-332.041 676.499,-328 697.74,-295.795 708.92,-250.211 712.846,-231.509"/>
<polygon fill="#9a32cd" stroke="#9a32cd" points="664.418,-337.07 659.478,-346.443 669.185,-342.196 664.418,-337.07"/>
<text text-anchor="middle" x="716.999" y="-286.5" font-family="Helvetica,sans-Serif" font-size="10.00"> player</text>
</g>
<!-- Node13&#45;&gt;Node12 -->
<g id="edge17" class="edge"><title>Node13&#45;&gt;Node12</title>
<path fill="none" stroke="#9a32cd" stroke-dasharray="5,2" d="M642.209,-336.415C638.003,-323.988 632.665,-308.217 629.419,-298.627"/>
<polygon fill="#9a32cd" stroke="#9a32cd" points="639.011,-337.884 645.532,-346.234 645.642,-335.64 639.011,-337.884"/>
<text text-anchor="middle" x="655.999" y="-320" font-family="Helvetica,sans-Serif" font-size="10.00"> player</text>
</g>
<!-- Node14 -->
<g id="node14" class="node"><title>Node14</title>
<g id="a_node14"><a xlink:href="classPlayerFile.html" target="_top" xlink:title="The subcomponent of a Player that stores the audio file. ">
<polygon fill="white" stroke="black" points="398.999,-413.5 398.999,-432.5 459.999,-432.5 459.999,-413.5 398.999,-413.5"/>
<text text-anchor="middle" x="429.499" y="-420.5" font-family="Helvetica,sans-Serif" font-size="10.00">PlayerFile</text>
</a>
</g>
</g>
<!-- Node14&#45;&gt;Node13 -->
<g id="edge19" class="edge"><title>Node14&#45;&gt;Node13</title>
<path fill="none" stroke="#9a32cd" stroke-dasharray="5,2" d="M468.402,-410.454C513.962,-396.931 587.946,-374.973 625.32,-363.88"/>
<polygon fill="#9a32cd" stroke="#9a32cd" points="467.172,-407.168 458.581,-413.369 469.164,-413.878 467.172,-407.168"/>
<text text-anchor="middle" x="560.999" y="-387" font-family="Helvetica,sans-Serif" font-size="10.00"> file</text>
</g>
<!-- Node15&#45;&gt;Node14 -->
<g id="edge20" class="edge"><title>Node15&#45;&gt;Node14</title>
<path fill="none" stroke="midnightblue" d="M617.466,-482.17C593.825,-472.995 560.364,-460.474 530.499,-451 507.143,-443.59 480.334,-436.487 460.208,-431.428"/>
<polygon fill="midnightblue" stroke="midnightblue" points="616.37,-485.5 626.958,-485.879 618.917,-478.98 616.37,-485.5"/>
</g>
<!-- Node30 -->
<g id="node30" class="node"><title>Node30</title>
<g id="a_node30"><a xlink:href="classPlayerState.html" target="_top" xlink:title="An object holding and representing the current state of a Player. ">
<polygon fill="white" stroke="black" points="516.499,-413.5 516.499,-432.5 588.499,-432.5 588.499,-413.5 516.499,-413.5"/>
<text text-anchor="middle" x="552.499" y="-420.5" font-family="Helvetica,sans-Serif" font-size="10.00">PlayerState</text>
</a>
</g>
</g>
<!-- Node15&#45;&gt;Node30 -->
<g id="edge39" class="edge"><title>Node15&#45;&gt;Node30</title>
<path fill="none" stroke="midnightblue" d="M628.565,-479.861C609.185,-465.629 580.396,-444.487 564.367,-432.715"/>
<polygon fill="midnightblue" stroke="midnightblue" points="626.596,-482.757 636.728,-485.855 630.74,-477.115 626.596,-482.757"/>
</g>
<!-- Node32 -->
<g id="node32" class="node"><title>Node32</title>
<g id="a_node32"><a xlink:href="classPlayerPosition.html" target="_top" xlink:title="Tracker and broadcaster for the Player&#39;s current position in a song. ">
<polygon fill="white" stroke="black" points="606.999,-413.5 606.999,-432.5 689.999,-432.5 689.999,-413.5 606.999,-413.5"/>
<text text-anchor="middle" x="648.499" y="-420.5" font-family="Helvetica,sans-Serif" font-size="10.00">PlayerPosition</text>
</a>
</g>
</g>
<!-- Node15&#45;&gt;Node32 -->
<g id="edge43" class="edge"><title>Node15&#45;&gt;Node32</title>
<path fill="none" stroke="midnightblue" d="M648.499,-475.442C648.499,-461.53 648.499,-443.32 648.499,-432.715"/>
<polygon fill="midnightblue" stroke="midnightblue" points="645,-475.855 648.499,-485.855 652,-475.855 645,-475.855"/>
</g>
<!-- Node16 -->
<g id="node16" class="node"><title>Node16</title>
<polygon fill="white" stroke="#bfbfbf" points="404.499,-486 404.499,-505 542.499,-505 542.499,-486 404.499,-486"/>
<text text-anchor="middle" x="473.499" y="-493" font-family="Helvetica,sans-Serif" font-size="10.00">std::unique_ptr&lt; Audio &gt;</text>
</g>
<!-- Node16&#45;&gt;Node14 -->
<g id="edge22" class="edge"><title>Node16&#45;&gt;Node14</title>
<path fill="none" stroke="#9a32cd" stroke-dasharray="5,2" d="M447.538,-479.937C441.211,-475.083 435.205,-469.075 431.499,-462 426.718,-452.87 427.022,-440.756 427.988,-432.686"/>
<polygon fill="#9a32cd" stroke="#9a32cd" points="445.943,-483.086 456.177,-485.831 449.888,-477.304 445.943,-483.086"/>
<text text-anchor="middle" x="446.499" y="-454" font-family="Helvetica,sans-Serif" font-size="10.00"> audio</text>
</g>
<!-- Node17 -->
<g id="node17" class="node"><title>Node17</title>
<g id="a_node17"><a xlink:href="classAudio.html" target="_top" xlink:title="An audio file. ">
<polygon fill="white" stroke="black" points="451.499,-558.5 451.499,-577.5 495.499,-577.5 495.499,-558.5 451.499,-558.5"/>
<text text-anchor="middle" x="473.499" y="-565.5" font-family="Helvetica,sans-Serif" font-size="10.00">Audio</text>
</a>
</g>
</g>
<!-- Node17&#45;&gt;Node16 -->
<g id="edge23" class="edge"><title>Node17&#45;&gt;Node16</title>
<path fill="none" stroke="#9a32cd" stroke-dasharray="5,2" d="M473.499,-547.942C473.499,-534.03 473.499,-515.82 473.499,-505.215"/>
<polygon fill="#9a32cd" stroke="#9a32cd" points="470,-548.355 473.499,-558.355 477,-548.355 470,-548.355"/>
<text text-anchor="middle" x="481.999" y="-532" font-family="Helvetica,sans-Serif" font-size="10.00"> ptr</text>
</g>
<!-- Node18 -->
<g id="node18" class="node"><title>Node18</title>
<polygon fill="white" stroke="#bfbfbf" points="194.499,-631 194.499,-650 352.499,-650 352.499,-631 194.499,-631"/>
<text text-anchor="middle" x="273.499" y="-638" font-family="Helvetica,sans-Serif" font-size="10.00">std::unique_ptr&lt; AudioSink &gt;</text>
</g>
<!-- Node18&#45;&gt;Node17 -->
<g id="edge24" class="edge"><title>Node18&#45;&gt;Node17</title>
<path fill="none" stroke="#9a32cd" stroke-dasharray="5,2" d="M307.197,-627.622C348.272,-613.143 416.514,-589.087 451.435,-576.778"/>
<polygon fill="#9a32cd" stroke="#9a32cd" points="305.892,-624.371 297.624,-630.996 308.219,-630.972 305.892,-624.371"/>
<text text-anchor="middle" x="402.499" y="-599" font-family="Helvetica,sans-Serif" font-size="10.00"> sink</text>
</g>
<!-- Node19 -->
<g id="node19" class="node"><title>Node19</title>
<g id="a_node19"><a xlink:href="classAudioSink.html" target="_top" xlink:title="An output stream for an Audio file. ">
<polygon fill="white" stroke="black" points="222.499,-703.5 222.499,-722.5 286.499,-722.5 286.499,-703.5 222.499,-703.5"/>
<text text-anchor="middle" x="254.499" y="-710.5" font-family="Helvetica,sans-Serif" font-size="10.00">AudioSink</text>
</a>
</g>
</g>
<!-- Node19&#45;&gt;Node18 -->
<g id="edge25" class="edge"><title>Node19&#45;&gt;Node18</title>
<path fill="none" stroke="#9a32cd" stroke-dasharray="5,2" d="M259.524,-693.358C263.286,-679.395 268.264,-660.926 271.151,-650.215"/>
<polygon fill="#9a32cd" stroke="#9a32cd" points="256.052,-692.789 256.829,-703.355 262.811,-694.611 256.052,-692.789"/>
<text text-anchor="middle" x="273.999" y="-677" font-family="Helvetica,sans-Serif" font-size="10.00"> ptr</text>
</g>
<!-- Node20 -->
<g id="node20" class="node"><title>Node20</title>
<polygon fill="white" stroke="#bfbfbf" points="175.499,-776 175.499,-795 325.499,-795 325.499,-776 175.499,-776"/>
<text text-anchor="middle" x="250.499" y="-783" font-family="Helvetica,sans-Serif" font-size="10.00">portaudio::CallbackInterface</text>
</g>
<!-- Node20&#45;&gt;Node19 -->
<g id="edge26" class="edge"><title>Node20&#45;&gt;Node19</title>
<path fill="none" stroke="#8b1a1a" d="M251.557,-765.858C252.349,-751.895 253.397,-733.426 254.005,-722.715"/>
<polygon fill="#8b1a1a" stroke="#8b1a1a" points="248.062,-765.673 250.99,-775.855 255.051,-766.07 248.062,-765.673"/>
</g>
<!-- Node21 -->
<g id="node21" class="node"><title>Node21</title>
<g id="a_node21"><a xlink:href="classRingBuffer.html" target="_top" xlink:title="RingBuffer\&lt; char, unsigned\l long \&gt;">
<polygon fill="white" stroke="black" points="343.999,-770.5 343.999,-800.5 490.999,-800.5 490.999,-770.5 343.999,-770.5"/>
<text text-anchor="start" x="351.999" y="-788.5" font-family="Helvetica,sans-Serif" font-size="10.00">RingBuffer&lt; char, unsigned</text>
<text text-anchor="middle" x="417.499" y="-777.5" font-family="Helvetica,sans-Serif" font-size="10.00"> long &gt;</text>
</a>
</g>
</g>
<!-- Node21&#45;&gt;Node19 -->
<g id="edge27" class="edge"><title>Node21&#45;&gt;Node19</title>
<path fill="none" stroke="#9a32cd" stroke-dasharray="5,2" d="M375.607,-766.381C343.007,-752.281 299.236,-733.349 274.23,-722.534"/>
<polygon fill="#9a32cd" stroke="#9a32cd" points="374.338,-769.645 384.906,-770.403 377.117,-763.22 374.338,-769.645"/>
<text text-anchor="middle" x="362.499" y="-744" font-family="Helvetica,sans-Serif" font-size="10.00"> ring_buf</text>
</g>
<!-- Node22 -->
<g id="node22" class="node"><title>Node22</title>
<polygon fill="white" stroke="#bfbfbf" points="11.4995,-770.5 11.4995,-800.5 157.499,-800.5 157.499,-770.5 11.4995,-770.5"/>
<text text-anchor="start" x="19.4995" y="-788.5" font-family="Helvetica,sans-Serif" font-size="10.00">std::unique_ptr&lt; portaudio</text>
<text text-anchor="middle" x="84.4995" y="-777.5" font-family="Helvetica,sans-Serif" font-size="10.00">::Stream &gt;</text>
</g>
<!-- Node22&#45;&gt;Node19 -->
<g id="edge28" class="edge"><title>Node22&#45;&gt;Node19</title>
<path fill="none" stroke="#9a32cd" stroke-dasharray="5,2" d="M127.754,-766.562C161.799,-752.444 207.729,-733.396 233.922,-722.534"/>
<polygon fill="#9a32cd" stroke="#9a32cd" points="126.389,-763.339 118.493,-770.403 129.071,-769.805 126.389,-763.339"/>
<text text-anchor="middle" x="204.499" y="-744" font-family="Helvetica,sans-Serif" font-size="10.00"> stream</text>
</g>
<!-- Node23 -->
<g id="node23" class="node"><title>Node23</title>
<polygon fill="white" stroke="#bfbfbf" points="387.499,-631 387.499,-650 559.499,-650 559.499,-631 387.499,-631"/>
<text text-anchor="middle" x="473.499" y="-638" font-family="Helvetica,sans-Serif" font-size="10.00">std::unique_ptr&lt; AudioSource &gt;</text>
</g>
<!-- Node23&#45;&gt;Node17 -->
<g id="edge29" class="edge"><title>Node23&#45;&gt;Node17</title>
<path fill="none" stroke="#9a32cd" stroke-dasharray="5,2" d="M473.499,-620.442C473.499,-606.53 473.499,-588.32 473.499,-577.715"/>
<polygon fill="#9a32cd" stroke="#9a32cd" points="470,-620.855 473.499,-630.855 477,-620.855 470,-620.855"/>
<text text-anchor="middle" x="491.499" y="-599" font-family="Helvetica,sans-Serif" font-size="10.00"> source</text>
</g>
<!-- Node24 -->
<g id="node24" class="node"><title>Node24</title>
<g id="a_node24"><a xlink:href="classAudioSource.html" target="_top" xlink:title="An object responsible for decoding an audio file. ">
<polygon fill="white" stroke="black" points="524.999,-703.5 524.999,-722.5 601.999,-722.5 601.999,-703.5 524.999,-703.5"/>
<text text-anchor="middle" x="563.499" y="-710.5" font-family="Helvetica,sans-Serif" font-size="10.00">AudioSource</text>
</a>
</g>
</g>
<!-- Node24&#45;&gt;Node23 -->
<g id="edge30" class="edge"><title>Node24&#45;&gt;Node23</title>
<path fill="none" stroke="#9a32cd" stroke-dasharray="5,2" d="M544.318,-696.975C526.157,-682.749 499.517,-661.881 484.625,-650.215"/>
<polygon fill="#9a32cd" stroke="#9a32cd" points="542.433,-699.944 552.464,-703.355 546.75,-694.433 542.433,-699.944"/>
<text text-anchor="middle" x="535.999" y="-677" font-family="Helvetica,sans-Serif" font-size="10.00"> ptr</text>
</g>
<!-- Node25 -->
<g id="node25" class="node"><title>Node25</title>
<polygon fill="white" stroke="#bfbfbf" points="508.999,-776 508.999,-795 631.999,-795 631.999,-776 508.999,-776"/>
<text text-anchor="middle" x="570.499" y="-783" font-family="Helvetica,sans-Serif" font-size="10.00">std::vector&lt; uint8_t &gt;</text>
</g>
<!-- Node25&#45;&gt;Node24 -->
<g id="edge31" class="edge"><title>Node25&#45;&gt;Node24</title>
<path fill="none" stroke="#9a32cd" stroke-dasharray="5,2" d="M568.648,-765.858C567.262,-751.895 565.428,-733.426 564.365,-722.715"/>
<polygon fill="#9a32cd" stroke="#9a32cd" points="565.17,-766.25 569.641,-775.855 572.136,-765.558 565.17,-766.25"/>
<text text-anchor="middle" x="582.999" y="-744" font-family="Helvetica,sans-Serif" font-size="10.00"> buffer</text>
</g>
<!-- Node26 -->
<g id="node26" class="node"><title>Node26</title>
<polygon fill="white" stroke="#bfbfbf" points="577.499,-631 577.499,-650 721.499,-650 721.499,-631 577.499,-631"/>
<text text-anchor="middle" x="649.499" y="-638" font-family="Helvetica,sans-Serif" font-size="10.00">std::vector&lt; std::uint8_t &gt;</text>
</g>
<!-- Node26&#45;&gt;Node17 -->
<g id="edge32" class="edge"><title>Node26&#45;&gt;Node17</title>
<path fill="none" stroke="#9a32cd" stroke-dasharray="5,2" d="M618.881,-627.235C583.374,-613.012 525.769,-589.937 494.804,-577.534"/>
<polygon fill="#9a32cd" stroke="#9a32cd" points="617.685,-630.527 628.27,-630.996 620.288,-624.029 617.685,-630.527"/>
<text text-anchor="middle" x="583.499" y="-599" font-family="Helvetica,sans-Serif" font-size="10.00"> frame</text>
</g>
<!-- Node27&#45;&gt;Node14 -->
<g id="edge33" class="edge"><title>Node27&#45;&gt;Node14</title>
<path fill="none" stroke="#9a32cd" stroke-dasharray="5,2" d="M246.634,-482.868C290.628,-468.705 363.884,-445.123 402.989,-432.534"/>
<polygon fill="#9a32cd" stroke="#9a32cd" points="245.362,-479.6 236.916,-485.996 247.507,-486.263 245.362,-479.6"/>
<text text-anchor="middle" x="375.499" y="-454" font-family="Helvetica,sans-Serif" font-size="10.00"> audio_system</text>
</g>
<!-- Node28 -->
<g id="node28" class="node"><title>Node28</title>
<g id="a_node28"><a xlink:href="classAudioSinkConfigurator.html" target="_top" xlink:title="Interface for objects that can configure a PortAudio stream from an AudioSource. ">
<polygon fill="white" stroke="black" points="156.999,-558.5 156.999,-577.5 279.999,-577.5 279.999,-558.5 156.999,-558.5"/>
<text text-anchor="middle" x="218.499" y="-565.5" font-family="Helvetica,sans-Serif" font-size="10.00">AudioSinkConfigurator</text>
</a>
</g>
</g>
<!-- Node28&#45;&gt;Node27 -->
<g id="edge34" class="edge"><title>Node28&#45;&gt;Node27</title>
<path fill="none" stroke="midnightblue" d="M216.384,-548.358C214.8,-534.395 212.704,-515.926 211.488,-505.215"/>
<polygon fill="midnightblue" stroke="midnightblue" points="212.913,-548.814 217.519,-558.355 219.869,-548.024 212.913,-548.814"/>
</g>
<!-- Node29 -->
<g id="node29" class="node"><title>Node29</title>
<g id="a_node29"><a xlink:href="classTimeParser.html" target="_top" xlink:title="A class for parsing time strings consisting of an integer and unit into a flat integer representing t...">
<polygon fill="white" stroke="black" points="708.499,-413.5 708.499,-432.5 778.499,-432.5 778.499,-413.5 708.499,-413.5"/>
<text text-anchor="middle" x="743.499" y="-420.5" font-family="Helvetica,sans-Serif" font-size="10.00">TimeParser</text>
</a>
</g>
</g>
<!-- Node29&#45;&gt;Node13 -->
<g id="edge36" class="edge"><title>Node29&#45;&gt;Node13</title>
<path fill="none" stroke="#9a32cd" stroke-dasharray="5,2" d="M724.915,-407.106C715.651,-399.882 704.173,-391.226 693.499,-384 683.843,-377.462 672.593,-370.712 663.757,-365.597"/>
<polygon fill="#9a32cd" stroke="#9a32cd" points="723,-410.054 733.019,-413.5 727.336,-404.558 723,-410.054"/>
<text text-anchor="middle" x="738.999" y="-387" font-family="Helvetica,sans-Serif" font-size="10.00"> time_parser</text>
</g>
<!-- Node30&#45;&gt;Node13 -->
<g id="edge38" class="edge"><title>Node30&#45;&gt;Node13</title>
<path fill="none" stroke="#9a32cd" stroke-dasharray="5,2" d="M573.775,-407.595C592.766,-394.736 619.95,-376.331 635.758,-365.627"/>
<polygon fill="#9a32cd" stroke="#9a32cd" points="571.765,-404.729 565.446,-413.234 575.689,-410.525 571.765,-404.729"/>
<text text-anchor="middle" x="620.499" y="-387" font-family="Helvetica,sans-Serif" font-size="10.00"> state</text>
</g>
<!-- Node31&#45;&gt;Node30 -->
<g id="edge40" class="edge"><title>Node31&#45;&gt;Node30</title>
<path fill="none" stroke="#9a32cd" stroke-dasharray="5,2" d="M396.681,-478.764C422.724,-472.62 449.044,-466.083 461.499,-462 487.367,-453.521 516.206,-440.916 534.347,-432.581"/>
<polygon fill="#9a32cd" stroke="#9a32cd" points="395.68,-475.404 386.743,-481.094 397.277,-482.219 395.68,-475.404"/>
<text text-anchor="middle" x="512.499" y="-454" font-family="Helvetica,sans-Serif" font-size="10.00"> STRINGS</text>
</g>
<!-- Node32&#45;&gt;Node13 -->
<g id="edge42" class="edge"><title>Node32&#45;&gt;Node13</title>
<path fill="none" stroke="#9a32cd" stroke-dasharray="5,2" d="M648.499,-403.037C648.499,-390.67 648.499,-375.12 648.499,-365.627"/>
<polygon fill="#9a32cd" stroke="#9a32cd" points="645,-403.234 648.499,-413.234 652,-403.234 645,-403.234"/>
<text text-anchor="middle" x="668.999" y="-387" font-family="Helvetica,sans-Serif" font-size="10.00"> position</text>
</g>
</g>
</svg>
