<?xml version="1.0" encoding="UTF-8" standalone="no"?>
<!DOCTYPE svg PUBLIC "-//W3C//DTD SVG 1.1//EN"
 "http://www.w3.org/Graphics/SVG/1.1/DTD/svg11.dtd">
<!-- Generated by graphviz version 2.38.0 (20140413.2041)
 -->
<!-- Title: src/cmd_result.cpp Pages: 1 -->
<svg width="400pt" height="252pt"
 viewBox="0.00 0.00 400.00 252.00" xmlns="http://www.w3.org/2000/svg" xmlns:xlink="http://www.w3.org/1999/xlink">
<g id="graph0" class="graph" transform="scale(1 1) rotate(0) translate(4 248)">
<title>src/cmd_result.cpp</title>
<polygon fill="white" stroke="none" points="-4,4 -4,-248 396,-248 396,4 -4,4"/>
<!-- Node1 -->
<g id="node1" class="node"><title>Node1</title>
<polygon fill="#bfbfbf" stroke="black" points="36.5,-224.5 36.5,-243.5 140.5,-243.5 140.5,-224.5 36.5,-224.5"/>
<text text-anchor="middle" x="88.5" y="-231.5" font-family="Helvetica,sans-Serif" font-size="10.00">src/cmd_result.cpp</text>
</g>
<!-- Node2 -->
<g id="node2" class="node"><title>Node2</title>
<polygon fill="white" stroke="#bfbfbf" points="0,-56.5 0,-75.5 43,-75.5 43,-56.5 0,-56.5"/>
<text text-anchor="middle" x="21.5" y="-63.5" font-family="Helvetica,sans-Serif" font-size="10.00">string</text>
</g>
<!-- Node1&#45;&gt;Node2 -->
<g id="edge1" class="edge"><title>Node1&#45;&gt;Node2</title>
<path fill="none" stroke="midnightblue" d="M84.5431,-224.426C80.4169,-215.411 73.8214,-200.787 68.5,-188 53.4075,-151.734 37.0783,-108.758 28.1934,-85.0228"/>
<polygon fill="midnightblue" stroke="midnightblue" points="31.4397,-83.7111 24.6661,-75.5644 24.8809,-86.1571 31.4397,-83.7111"/>
</g>
<!-- Node3 -->
<g id="node3" class="node"><title>Node3</title>
<polygon fill="white" stroke="#bfbfbf" points="61.5,-56.5 61.5,-75.5 107.5,-75.5 107.5,-56.5 61.5,-56.5"/>
<text text-anchor="middle" x="84.5" y="-63.5" font-family="Helvetica,sans-Serif" font-size="10.00">vector</text>
</g>
<!-- Node1&#45;&gt;Node3 -->
<g id="edge2" class="edge"><title>Node1&#45;&gt;Node3</title>
<path fill="none" stroke="midnightblue" d="M84.6443,-224.249C80.9423,-215.333 75.6106,-201.006 73.5,-188 67.6371,-151.871 74.7758,-109.129 79.9844,-85.3367"/>
<polygon fill="midnightblue" stroke="midnightblue" points="83.4019,-86.0928 82.2545,-75.5602 76.5833,-84.5094 83.4019,-86.0928"/>
</g>
<!-- Node4 -->
<g id="node4" class="node"><title>Node4</title>
<g id="a_node4"><a xlink:href="io__response_8hpp.html" target="_top" xlink:title="Declaration of classes pertaining to responses to the client. ">
<polygon fill="white" stroke="black" points="155,-112.5 155,-131.5 262,-131.5 262,-112.5 155,-112.5"/>
<text text-anchor="middle" x="208.5" y="-119.5" font-family="Helvetica,sans-Serif" font-size="10.00">io/io_response.hpp</text>
</a>
</g>
</g>
<!-- Node1&#45;&gt;Node4 -->
<g id="edge3" class="edge"><title>Node1&#45;&gt;Node4</title>
<path fill="none" stroke="midnightblue" d="M117.511,-224.461C137.154,-217.411 162.523,-205.662 179.5,-188 192.055,-174.937 199.742,-155.515 204.018,-141.303"/>
<polygon fill="midnightblue" stroke="midnightblue" points="207.398,-142.211 206.647,-131.643 200.644,-140.372 207.398,-142.211"/>
</g>
<!-- Node11 -->
<g id="node11" class="node"><title>Node11</title>
<g id="a_node11"><a xlink:href="cmd__result_8hpp.html" target="_top" xlink:title="Declaration of the CommandResult class. ">
<polygon fill="white" stroke="black" points="82.5,-168.5 82.5,-187.5 170.5,-187.5 170.5,-168.5 82.5,-168.5"/>
<text text-anchor="middle" x="126.5" y="-175.5" font-family="Helvetica,sans-Serif" font-size="10.00">cmd_result.hpp</text>
</a>
</g>
</g>
<!-- Node1&#45;&gt;Node11 -->
<g id="edge12" class="edge"><title>Node1&#45;&gt;Node11</title>
<path fill="none" stroke="midnightblue" d="M94.7749,-224.083C100.142,-216.455 108.018,-205.264 114.579,-195.941"/>
<polygon fill="midnightblue" stroke="midnightblue" points="117.449,-197.943 120.342,-187.751 111.725,-193.915 117.449,-197.943"/>
</g>
<!-- Node4&#45;&gt;Node2 -->
<g id="edge7" class="edge"><title>Node4&#45;&gt;Node2</title>
<path fill="none" stroke="midnightblue" d="M178.88,-112.472C149.397,-103.98 102.603,-90.4924 52.8346,-76.0933"/>
<polygon fill="midnightblue" stroke="midnightblue" points="53.7577,-72.7168 43.1788,-73.299 51.8117,-79.4409 53.7577,-72.7168"/>
</g>
<!-- Node4&#45;&gt;Node3 -->
<g id="edge8" class="edge"><title>Node4&#45;&gt;Node3</title>
<path fill="none" stroke="midnightblue" d="M188.852,-112.444C168.535,-103.596 136.597,-89.6875 113.402,-79.5865"/>
<polygon fill="midnightblue" stroke="midnightblue" points="114.622,-76.3002 104.056,-75.5164 111.827,-82.7181 114.622,-76.3002"/>
</g>
<!-- Node5 -->
<g id="node5" class="node"><title>Node5</title>
<polygon fill="white" stroke="#bfbfbf" points="345,-56.5 345,-75.5 392,-75.5 392,-56.5 345,-56.5"/>
<text text-anchor="middle" x="368.5" y="-63.5" font-family="Helvetica,sans-Serif" font-size="10.00">cstdint</text>
</g>
<!-- Node4&#45;&gt;Node5 -->
<g id="edge4" class="edge"><title>Node4&#45;&gt;Node5</title>
<path fill="none" stroke="midnightblue" d="M233.852,-112.444C261.244,-103.199 305.009,-88.4281 335.168,-78.2495"/>
<polygon fill="midnightblue" stroke="midnightblue" points="336.475,-81.5024 344.831,-74.9883 334.237,-74.8699 336.475,-81.5024"/>
</g>
<!-- Node6 -->
<g id="node6" class="node"><title>Node6</title>
<polygon fill="white" stroke="#bfbfbf" points="126,-56.5 126,-75.5 163,-75.5 163,-56.5 126,-56.5"/>
<text text-anchor="middle" x="144.5" y="-63.5" font-family="Helvetica,sans-Serif" font-size="10.00">map</text>
</g>
<!-- Node4&#45;&gt;Node6 -->
<g id="edge5" class="edge"><title>Node4&#45;&gt;Node6</title>
<path fill="none" stroke="midnightblue" d="M198.217,-112.324C188.664,-104.263 174.22,-92.0765 162.716,-82.3695"/>
<polygon fill="midnightblue" stroke="midnightblue" points="164.87,-79.6076 154.97,-75.8339 160.356,-84.9577 164.87,-79.6076"/>
</g>
<!-- Node7 -->
<g id="node7" class="node"><title>Node7</title>
<polygon fill="white" stroke="#bfbfbf" points="181,-56.5 181,-75.5 236,-75.5 236,-56.5 181,-56.5"/>
<text text-anchor="middle" x="208.5" y="-63.5" font-family="Helvetica,sans-Serif" font-size="10.00">ostream</text>
</g>
<!-- Node4&#45;&gt;Node7 -->
<g id="edge6" class="edge"><title>Node4&#45;&gt;Node7</title>
<path fill="none" stroke="midnightblue" d="M208.5,-112.083C208.5,-105.006 208.5,-94.8611 208.5,-85.9865"/>
<polygon fill="midnightblue" stroke="midnightblue" points="212,-85.751 208.5,-75.7511 205,-85.7511 212,-85.751"/>
</g>
<!-- Node8 -->
<g id="node8" class="node"><title>Node8</title>
<g id="a_node8"><a xlink:href="errors_8hpp.html" target="_top" xlink:title="Declarations of the playd Error exception set. ">
<polygon fill="white" stroke="black" points="254,-56.5 254,-75.5 327,-75.5 327,-56.5 254,-56.5"/>
<text text-anchor="middle" x="290.5" y="-63.5" font-family="Helvetica,sans-Serif" font-size="10.00">../errors.hpp</text>
</a>
</g>
</g>
<!-- Node4&#45;&gt;Node8 -->
<g id="edge9" class="edge"><title>Node4&#45;&gt;Node8</title>
<path fill="none" stroke="midnightblue" d="M221.675,-112.324C234.347,-103.979 253.733,-91.2122 268.706,-81.3524"/>
<polygon fill="midnightblue" stroke="midnightblue" points="270.931,-84.0776 277.358,-75.6545 267.081,-78.2313 270.931,-84.0776"/>
</g>
<!-- Node9 -->
<g id="node9" class="node"><title>Node9</title>
<polygon fill="white" stroke="#bfbfbf" points="225,-0.5 225,-19.5 282,-19.5 282,-0.5 225,-0.5"/>
<text text-anchor="middle" x="253.5" y="-7.5" font-family="Helvetica,sans-Serif" font-size="10.00">iostream</text>
</g>
<!-- Node8&#45;&gt;Node9 -->
<g id="edge10" class="edge"><title>Node8&#45;&gt;Node9</title>
<path fill="none" stroke="midnightblue" d="M284.39,-56.083C279.218,-48.5341 271.654,-37.4948 265.306,-28.2298"/>
<polygon fill="midnightblue" stroke="midnightblue" points="268.036,-26.0221 259.496,-19.7511 262.261,-29.9787 268.036,-26.0221"/>
</g>
<!-- Node10 -->
<g id="node10" class="node"><title>Node10</title>
<polygon fill="white" stroke="#bfbfbf" points="300.5,-0.5 300.5,-19.5 354.5,-19.5 354.5,-0.5 300.5,-0.5"/>
<text text-anchor="middle" x="327.5" y="-7.5" font-family="Helvetica,sans-Serif" font-size="10.00">sstream</text>
</g>
<!-- Node8&#45;&gt;Node10 -->
<g id="edge11" class="edge"><title>Node8&#45;&gt;Node10</title>
<path fill="none" stroke="midnightblue" d="M296.61,-56.083C301.782,-48.5341 309.346,-37.4948 315.694,-28.2298"/>
<polygon fill="midnightblue" stroke="midnightblue" points="318.739,-29.9787 321.504,-19.7511 312.964,-26.0221 318.739,-29.9787"/>
</g>
<!-- Node11&#45;&gt;Node2 -->
<g id="edge14" class="edge"><title>Node11&#45;&gt;Node2</title>
<path fill="none" stroke="midnightblue" d="M118.261,-168.368C100.703,-149.974 59.368,-106.671 36.8222,-83.0519"/>
<polygon fill="midnightblue" stroke="midnightblue" points="39.1374,-80.4083 29.7009,-75.5914 34.0739,-85.2417 39.1374,-80.4083"/>
</g>
<!-- Node11&#45;&gt;Node3 -->
<g id="edge15" class="edge"><title>Node11&#45;&gt;Node3</title>
<path fill="none" stroke="midnightblue" d="M123.314,-168.14C118.786,-155.604 110.185,-131.986 102.5,-112 99.06,-103.054 95.1176,-93.1602 91.801,-84.9329"/>
<polygon fill="midnightblue" stroke="midnightblue" points="95.0186,-83.5536 88.0195,-75.5998 88.5309,-86.1823 95.0186,-83.5536"/>
</g>
<!-- Node11&#45;&gt;Node4 -->
<g id="edge16" class="edge"><title>Node11&#45;&gt;Node4</title>
<path fill="none" stroke="midnightblue" d="M139.675,-168.324C152.347,-159.979 171.733,-147.212 186.706,-137.352"/>
<polygon fill="midnightblue" stroke="midnightblue" points="188.931,-140.078 195.358,-131.655 185.081,-134.231 188.931,-140.078"/>
</g>
<!-- Node11&#45;&gt;Node5 -->
<g id="edge13" class="edge"><title>Node11&#45;&gt;Node5</title>
<path fill="none" stroke="midnightblue" d="M163.679,-168.473C193.415,-160.93 235.735,-148.548 270.5,-132 299.782,-118.062 330.456,-96.3955 349.521,-81.9576"/>
<polygon fill="midnightblue" stroke="midnightblue" points="351.862,-84.5727 357.654,-75.7013 347.594,-79.0244 351.862,-84.5727"/>
</g>
</g>
</svg>
