<?xml version="1.0" encoding="UTF-8" standalone="no"?>
<!DOCTYPE svg PUBLIC "-//W3C//DTD SVG 1.1//EN"
 "http://www.w3.org/Graphics/SVG/1.1/DTD/svg11.dtd">
<!-- Generated by graphviz version 2.38.0 (20140413.2041)
 -->
<!-- Title: src/cmd.hpp Pages: 1 -->
<svg width="1545pt" height="431pt"
 viewBox="0.00 0.00 1545.16 431.00" xmlns="http://www.w3.org/2000/svg" xmlns:xlink="http://www.w3.org/1999/xlink">
<g id="graph0" class="graph" transform="scale(1 1) rotate(0) translate(4 427)">
<title>src/cmd.hpp</title>
<polygon fill="white" stroke="none" points="-4,4 -4,-427 1541.16,-427 1541.16,4 -4,4"/>
<!-- Node1 -->
<g id="node1" class="node"><title>Node1</title>
<polygon fill="#bfbfbf" stroke="black" points="505.155,-403.5 505.155,-422.5 579.155,-422.5 579.155,-403.5 505.155,-403.5"/>
<text text-anchor="middle" x="542.155" y="-410.5" font-family="Helvetica,sans-Serif" font-size="10.00">src/cmd.hpp</text>
</g>
<!-- Node2 -->
<g id="node2" class="node"><title>Node2</title>
<polygon fill="white" stroke="#bfbfbf" points="1372.66,-123.5 1372.66,-142.5 1409.66,-142.5 1409.66,-123.5 1372.66,-123.5"/>
<text text-anchor="middle" x="1391.16" y="-130.5" font-family="Helvetica,sans-Serif" font-size="10.00">map</text>
</g>
<!-- Node1&#45;&gt;Node2 -->
<g id="edge1" class="edge"><title>Node1&#45;&gt;Node2</title>
<path fill="none" stroke="midnightblue" d="M579.385,-411.604C753.284,-409.273 1477.16,-394.04 1477.16,-302 1477.16,-302 1477.16,-302 1477.16,-244 1477.16,-202.583 1438.85,-167.453 1413.37,-148.666"/>
<polygon fill="midnightblue" stroke="midnightblue" points="1415.16,-145.644 1404.97,-142.719 1411.11,-151.356 1415.16,-145.644"/>
</g>
<!-- Node3 -->
<g id="node3" class="node"><title>Node3</title>
<polygon fill="white" stroke="#bfbfbf" points="12.1551,-123.5 12.1551,-142.5 66.1551,-142.5 66.1551,-123.5 12.1551,-123.5"/>
<text text-anchor="middle" x="39.1551" y="-130.5" font-family="Helvetica,sans-Serif" font-size="10.00">memory</text>
</g>
<!-- Node1&#45;&gt;Node3 -->
<g id="edge2" class="edge"><title>Node1&#45;&gt;Node3</title>
<path fill="none" stroke="midnightblue" d="M504.759,-411.796C388.188,-410.162 39.1551,-397.312 39.1551,-302 39.1551,-302 39.1551,-302 39.1551,-244 39.1551,-211.948 39.1551,-174.643 39.1551,-152.749"/>
<polygon fill="midnightblue" stroke="midnightblue" points="42.6552,-152.558 39.1551,-142.558 35.6552,-152.558 42.6552,-152.558"/>
</g>
<!-- Node4 -->
<g id="node4" class="node"><title>Node4</title>
<polygon fill="white" stroke="#bfbfbf" points="394.155,-62 394.155,-81 440.155,-81 440.155,-62 394.155,-62"/>
<text text-anchor="middle" x="417.155" y="-69" font-family="Helvetica,sans-Serif" font-size="10.00">vector</text>
</g>
<!-- Node1&#45;&gt;Node4 -->
<g id="edge3" class="edge"><title>Node1&#45;&gt;Node4</title>
<path fill="none" stroke="midnightblue" d="M504.863,-412.609C406.503,-413.57 142.626,-411.794 70.1551,-367 -18.2363,-312.365 12.9201,-246.454 3.15512,-143 2.31982,-134.15 -2.73747,-129.655 3.15512,-123 28.3156,-94.5839 289.972,-78.8394 383.856,-74.0713"/>
<polygon fill="midnightblue" stroke="midnightblue" points="384.127,-77.5622 393.94,-73.5688 383.778,-70.5709 384.127,-77.5622"/>
</g>
<!-- Node5 -->
<g id="node5" class="node"><title>Node5</title>
<g id="a_node5"><a xlink:href="player_8hpp.html" target="_top" xlink:title="Declaration of the Player class, and associated types. ">
<polygon fill="white" stroke="black" points="997.155,-347.5 997.155,-366.5 1095.16,-366.5 1095.16,-347.5 997.155,-347.5"/>
<text text-anchor="middle" x="1046.16" y="-354.5" font-family="Helvetica,sans-Serif" font-size="10.00">player/player.hpp</text>
</a>
</g>
</g>
<!-- Node1&#45;&gt;Node5 -->
<g id="edge4" class="edge"><title>Node1&#45;&gt;Node5</title>
<path fill="none" stroke="midnightblue" d="M579.215,-408.029C665.787,-398.754 881.897,-375.599 986.954,-364.343"/>
<polygon fill="midnightblue" stroke="midnightblue" points="987.501,-367.805 997.071,-363.259 986.755,-360.844 987.501,-367.805"/>
</g>
<!-- Node5&#45;&gt;Node2 -->
<g id="edge7" class="edge"><title>Node5&#45;&gt;Node2</title>
<path fill="none" stroke="midnightblue" d="M1095.25,-353.237C1168.65,-348.335 1302.69,-336.168 1343.16,-311 1396.32,-277.931 1396.13,-191.218 1393.18,-152.793"/>
<polygon fill="midnightblue" stroke="midnightblue" points="1396.64,-152.168 1392.24,-142.531 1389.67,-152.811 1396.64,-152.168"/>
</g>
<!-- Node5&#45;&gt;Node3 -->
<g id="edge8" class="edge"><title>Node5&#45;&gt;Node3</title>
<path fill="none" stroke="midnightblue" d="M996.811,-353.393C907.124,-348.244 711.541,-335.122 548.155,-311 426.054,-292.973 395.671,-285.814 276.155,-255 195.026,-234.083 166.408,-244.651 96.1551,-199 76.9527,-186.522 60.392,-165.828 50.1453,-151.145"/>
<polygon fill="midnightblue" stroke="midnightblue" points="52.8335,-148.869 44.3591,-142.51 47.0184,-152.766 52.8335,-148.869"/>
</g>
<!-- Node6 -->
<g id="node6" class="node"><title>Node6</title>
<polygon fill="white" stroke="#bfbfbf" points="888.655,-0.5 888.655,-19.5 935.655,-19.5 935.655,-0.5 888.655,-0.5"/>
<text text-anchor="middle" x="912.155" y="-7.5" font-family="Helvetica,sans-Serif" font-size="10.00">cstdint</text>
</g>
<!-- Node5&#45;&gt;Node6 -->
<g id="edge5" class="edge"><title>Node5&#45;&gt;Node6</title>
<path fill="none" stroke="midnightblue" d="M1050.23,-347.482C1068.63,-309.357 1144.86,-154.866 1187.16,-123 1235.72,-86.4077 1282.24,-135.326 1319.16,-87 1327.52,-76.0507 1328.35,-66.2637 1319.16,-56 1294.38,-28.3361 1038.91,-15.8525 945.838,-12.1981"/>
<polygon fill="midnightblue" stroke="midnightblue" points="945.95,-8.69995 935.823,-11.8146 945.682,-15.6948 945.95,-8.69995"/>
</g>
<!-- Node7 -->
<g id="node7" class="node"><title>Node7</title>
<polygon fill="white" stroke="#bfbfbf" points="1295.66,-235.5 1295.66,-254.5 1372.66,-254.5 1372.66,-235.5 1295.66,-235.5"/>
<text text-anchor="middle" x="1334.16" y="-242.5" font-family="Helvetica,sans-Serif" font-size="10.00">initializer_list</text>
</g>
<!-- Node5&#45;&gt;Node7 -->
<g id="edge6" class="edge"><title>Node5&#45;&gt;Node7</title>
<path fill="none" stroke="midnightblue" d="M1095.44,-354.776C1166.58,-351.926 1292.95,-342.453 1324.16,-311 1335.96,-299.105 1337.51,-279.485 1336.69,-264.907"/>
<polygon fill="midnightblue" stroke="midnightblue" points="1340.14,-264.151 1335.68,-254.541 1333.17,-264.835 1340.14,-264.151"/>
</g>
<!-- Node8 -->
<g id="node8" class="node"><title>Node8</title>
<polygon fill="white" stroke="#bfbfbf" points="569.655,-0.5 569.655,-19.5 612.655,-19.5 612.655,-0.5 569.655,-0.5"/>
<text text-anchor="middle" x="591.155" y="-7.5" font-family="Helvetica,sans-Serif" font-size="10.00">string</text>
</g>
<!-- Node5&#45;&gt;Node8 -->
<g id="edge9" class="edge"><title>Node5&#45;&gt;Node8</title>
<path fill="none" stroke="midnightblue" d="M997.059,-356.639C862.16,-357.063 475.774,-349.302 173.155,-255 86.773,-228.082 26.3782,-230.448 3.15512,-143 -13.753,-79.3315 60.2717,-75.6272 123.155,-56 205.038,-30.4427 467.926,-16.5184 559.411,-12.3526"/>
<polygon fill="midnightblue" stroke="midnightblue" points="559.617,-15.847 569.45,-11.9036 559.304,-8.85401 559.617,-15.847"/>
</g>
<!-- Node9 -->
<g id="node9" class="node"><title>Node9</title>
<polygon fill="white" stroke="#bfbfbf" points="122.155,-123.5 122.155,-142.5 162.155,-142.5 162.155,-123.5 122.155,-123.5"/>
<text text-anchor="middle" x="142.155" y="-130.5" font-family="Helvetica,sans-Serif" font-size="10.00">utility</text>
</g>
<!-- Node5&#45;&gt;Node9 -->
<g id="edge10" class="edge"><title>Node5&#45;&gt;Node9</title>
<path fill="none" stroke="midnightblue" d="M997.15,-350.662C932.038,-343.277 813.532,-328.816 713.155,-311 485.513,-270.596 407.045,-311.667 205.155,-199 184.017,-187.204 165.509,-166.071 154.118,-151.108"/>
<polygon fill="midnightblue" stroke="midnightblue" points="156.715,-148.73 147.985,-142.727 151.066,-152.864 156.715,-148.73"/>
</g>
<!-- Node10 -->
<g id="node10" class="node"><title>Node10</title>
<g id="a_node10"><a xlink:href="audio_8hpp.html" target="_top" xlink:title="Declaration of the Audio class. ">
<polygon fill="white" stroke="black" points="257.155,-179.5 257.155,-198.5 355.155,-198.5 355.155,-179.5 257.155,-179.5"/>
<text text-anchor="middle" x="306.155" y="-186.5" font-family="Helvetica,sans-Serif" font-size="10.00">../audio/audio.hpp</text>
</a>
</g>
</g>
<!-- Node5&#45;&gt;Node10 -->
<g id="edge11" class="edge"><title>Node5&#45;&gt;Node10</title>
<path fill="none" stroke="midnightblue" d="M999.994,-347.467C912.364,-331.069 716.015,-293.367 552.155,-255 479.074,-237.889 394.633,-214.857 346.107,-201.302"/>
<polygon fill="midnightblue" stroke="midnightblue" points="346.888,-197.886 336.314,-198.559 345,-204.627 346.888,-197.886"/>
</g>
<!-- Node20 -->
<g id="node20" class="node"><title>Node20</title>
<g id="a_node20"><a xlink:href="io__response_8hpp.html" target="_top" xlink:title="Declaration of classes pertaining to responses to the client. ">
<polygon fill="white" stroke="black" points="1162.16,-179.5 1162.16,-198.5 1276.16,-198.5 1276.16,-179.5 1162.16,-179.5"/>
<text text-anchor="middle" x="1219.16" y="-186.5" font-family="Helvetica,sans-Serif" font-size="10.00">../io/io_response.hpp</text>
</a>
</g>
</g>
<!-- Node5&#45;&gt;Node20 -->
<g id="edge30" class="edge"><title>Node5&#45;&gt;Node20</title>
<path fill="none" stroke="midnightblue" d="M1067.86,-347.37C1085.61,-339.615 1110.7,-326.995 1129.16,-311 1164.79,-280.122 1194.83,-232.806 1209.51,-207.461"/>
<polygon fill="midnightblue" stroke="midnightblue" points="1212.63,-209.045 1214.52,-198.62 1206.54,-205.593 1212.63,-209.045"/>
</g>
<!-- Node22 -->
<g id="node22" class="node"><title>Node22</title>
<g id="a_node22"><a xlink:href="time__parser_8hpp.html" target="_top" xlink:title="The TimeParser template class. ">
<polygon fill="white" stroke="black" points="1427.66,-123.5 1427.66,-142.5 1528.66,-142.5 1528.66,-123.5 1427.66,-123.5"/>
<text text-anchor="middle" x="1478.16" y="-130.5" font-family="Helvetica,sans-Serif" font-size="10.00">../time_parser.hpp</text>
</a>
</g>
</g>
<!-- Node5&#45;&gt;Node22 -->
<g id="edge35" class="edge"><title>Node5&#45;&gt;Node22</title>
<path fill="none" stroke="midnightblue" d="M1095.18,-354.13C1173.68,-350.32 1323.24,-339.461 1367.16,-311 1426.46,-272.567 1459.79,-190.104 1472.33,-152.897"/>
<polygon fill="midnightblue" stroke="midnightblue" points="1475.82,-153.494 1475.56,-142.903 1469.16,-151.342 1475.82,-153.494"/>
</g>
<!-- Node24 -->
<g id="node24" class="node"><title>Node24</title>
<g id="a_node24"><a xlink:href="player__file_8hpp.html" target="_top" xlink:title="Declaration of the PlayerFile class, and associated types. ">
<polygon fill="white" stroke="black" points="932.155,-291.5 932.155,-310.5 1018.16,-310.5 1018.16,-291.5 932.155,-291.5"/>
<text text-anchor="middle" x="975.155" y="-298.5" font-family="Helvetica,sans-Serif" font-size="10.00">player_file.hpp</text>
</a>
</g>
</g>
<!-- Node5&#45;&gt;Node24 -->
<g id="edge41" class="edge"><title>Node5&#45;&gt;Node24</title>
<path fill="none" stroke="midnightblue" d="M1034.75,-347.324C1024.05,-339.185 1007.81,-326.839 994.992,-317.087"/>
<polygon fill="midnightblue" stroke="midnightblue" points="996.848,-314.102 986.77,-310.834 992.611,-319.673 996.848,-314.102"/>
</g>
<!-- Node32 -->
<g id="node32" class="node"><title>Node32</title>
<g id="a_node32"><a xlink:href="player__position_8hpp.html" target="_top" xlink:title="Declaration of the PlayerPosition class. ">
<polygon fill="white" stroke="black" points="969.655,-235.5 969.655,-254.5 1078.66,-254.5 1078.66,-235.5 969.655,-235.5"/>
<text text-anchor="middle" x="1024.16" y="-242.5" font-family="Helvetica,sans-Serif" font-size="10.00">player_position.hpp</text>
</a>
</g>
</g>
<!-- Node5&#45;&gt;Node32 -->
<g id="edge71" class="edge"><title>Node5&#45;&gt;Node32</title>
<path fill="none" stroke="midnightblue" d="M1044.43,-347.368C1040.88,-329.617 1032.69,-288.666 1027.87,-264.597"/>
<polygon fill="midnightblue" stroke="midnightblue" points="1031.27,-263.711 1025.87,-254.591 1024.4,-265.084 1031.27,-263.711"/>
</g>
<!-- Node34 -->
<g id="node34" class="node"><title>Node34</title>
<g id="a_node34"><a xlink:href="player__state_8hpp.html" target="_top" xlink:title="Declaration of the PlayerState class, and associated types. ">
<polygon fill="white" stroke="black" points="1219.66,-291.5 1219.66,-310.5 1314.66,-310.5 1314.66,-291.5 1219.66,-291.5"/>
<text text-anchor="middle" x="1267.16" y="-298.5" font-family="Helvetica,sans-Serif" font-size="10.00">player_state.hpp</text>
</a>
</g>
</g>
<!-- Node5&#45;&gt;Node34 -->
<g id="edge72" class="edge"><title>Node5&#45;&gt;Node34</title>
<path fill="none" stroke="midnightblue" d="M1081.17,-347.444C1119.4,-338.102 1180.72,-323.119 1222.41,-312.933"/>
<polygon fill="midnightblue" stroke="midnightblue" points="1223.42,-316.29 1232.3,-310.516 1221.76,-309.49 1223.42,-316.29"/>
</g>
<!-- Node10&#45;&gt;Node3 -->
<g id="edge13" class="edge"><title>Node10&#45;&gt;Node3</title>
<path fill="none" stroke="midnightblue" d="M263.848,-179.444C212.094,-168.976 125.313,-151.425 76.1198,-141.476"/>
<polygon fill="midnightblue" stroke="midnightblue" points="76.7145,-138.025 66.2191,-139.474 75.3268,-144.887 76.7145,-138.025"/>
</g>
<!-- Node10&#45;&gt;Node4 -->
<g id="edge16" class="edge"><title>Node10&#45;&gt;Node4</title>
<path fill="none" stroke="midnightblue" d="M298.838,-179.303C288.696,-166.133 272.92,-140.781 285.155,-123 307.211,-90.9468 352.59,-79.2265 383.936,-74.9481"/>
<polygon fill="midnightblue" stroke="midnightblue" points="384.453,-78.4114 393.974,-73.7638 383.633,-71.4597 384.453,-78.4114"/>
</g>
<!-- Node10&#45;&gt;Node6 -->
<g id="edge12" class="edge"><title>Node10&#45;&gt;Node6</title>
<path fill="none" stroke="midnightblue" d="M297.145,-179.354C285.071,-166.675 266.34,-142.436 277.155,-123 304.62,-73.6403 331.54,-73.7807 385.155,-56 477.343,-25.4271 777.027,-14.6538 878.335,-11.8339"/>
<polygon fill="midnightblue" stroke="midnightblue" points="878.697,-15.3255 888.599,-11.5568 878.508,-8.32808 878.697,-15.3255"/>
</g>
<!-- Node10&#45;&gt;Node8 -->
<g id="edge14" class="edge"><title>Node10&#45;&gt;Node8</title>
<path fill="none" stroke="midnightblue" d="M267.31,-179.364C247.778,-172.847 225.828,-161.704 214.155,-143 193.683,-110.197 188.485,-84.9164 214.155,-56 236.971,-30.2989 472.813,-16.6081 559.454,-12.4159"/>
<polygon fill="midnightblue" stroke="midnightblue" points="559.667,-15.9098 569.49,-11.9407 559.336,-8.91765 559.667,-15.9098"/>
</g>
<!-- Node10&#45;&gt;Node9 -->
<g id="edge15" class="edge"><title>Node10&#45;&gt;Node9</title>
<path fill="none" stroke="midnightblue" d="M280.169,-179.444C250.794,-169.771 203.048,-154.05 172.124,-143.868"/>
<polygon fill="midnightblue" stroke="midnightblue" points="172.926,-140.447 162.333,-140.644 170.736,-147.096 172.926,-140.447"/>
</g>
<!-- Node11 -->
<g id="node11" class="node"><title>Node11</title>
<polygon fill="white" stroke="#bfbfbf" points="494.655,-123.5 494.655,-142.5 563.655,-142.5 563.655,-123.5 494.655,-123.5"/>
<text text-anchor="middle" x="529.155" y="-130.5" font-family="Helvetica,sans-Serif" font-size="10.00">portaudio.h</text>
</g>
<!-- Node10&#45;&gt;Node11 -->
<g id="edge17" class="edge"><title>Node10&#45;&gt;Node11</title>
<path fill="none" stroke="midnightblue" d="M341.49,-179.444C380.179,-170.075 442.304,-155.031 484.378,-144.843"/>
<polygon fill="midnightblue" stroke="midnightblue" points="485.457,-148.183 494.353,-142.428 483.81,-141.379 485.457,-148.183"/>
</g>
<!-- Node12 -->
<g id="node12" class="node"><title>Node12</title>
<polygon fill="white" stroke="#bfbfbf" points="294.155,-123.5 294.155,-142.5 476.155,-142.5 476.155,-123.5 294.155,-123.5"/>
<text text-anchor="middle" x="385.155" y="-130.5" font-family="Helvetica,sans-Serif" font-size="10.00">portaudiocpp/CallbackInterface.hxx</text>
</g>
<!-- Node10&#45;&gt;Node12 -->
<g id="edge18" class="edge"><title>Node10&#45;&gt;Node12</title>
<path fill="none" stroke="midnightblue" d="M318.848,-179.324C331.056,-170.979 349.734,-158.212 364.158,-148.352"/>
<polygon fill="midnightblue" stroke="midnightblue" points="366.213,-151.187 372.494,-142.655 362.263,-145.408 366.213,-151.187"/>
</g>
<!-- Node13 -->
<g id="node13" class="node"><title>Node13</title>
<g id="a_node13"><a xlink:href="audio__source_8hpp.html" target="_top" xlink:title="Declaration of the AudioSource class. ">
<polygon fill="white" stroke="black" points="848.155,-123.5 848.155,-142.5 948.155,-142.5 948.155,-123.5 848.155,-123.5"/>
<text text-anchor="middle" x="898.155" y="-130.5" font-family="Helvetica,sans-Serif" font-size="10.00">audio_source.hpp</text>
</a>
</g>
</g>
<!-- Node10&#45;&gt;Node13 -->
<g id="edge19" class="edge"><title>Node10&#45;&gt;Node13</title>
<path fill="none" stroke="midnightblue" d="M355.189,-180.569C359.568,-180 363.939,-179.467 368.155,-179 573.565,-156.268 628.853,-166.513 837.905,-143.059"/>
<polygon fill="midnightblue" stroke="midnightblue" points="838.436,-146.521 847.977,-141.916 837.647,-139.566 838.436,-146.521"/>
</g>
<!-- Node13&#45;&gt;Node4 -->
<g id="edge23" class="edge"><title>Node13&#45;&gt;Node4</title>
<path fill="none" stroke="midnightblue" d="M847.959,-124.23C844.982,-123.804 842.03,-123.391 839.155,-123 694.854,-103.365 522.222,-83.9891 450.716,-76.1437"/>
<polygon fill="midnightblue" stroke="midnightblue" points="450.842,-72.6367 440.52,-75.0281 450.08,-79.5951 450.842,-72.6367"/>
</g>
<!-- Node13&#45;&gt;Node6 -->
<g id="edge21" class="edge"><title>Node13&#45;&gt;Node6</title>
<path fill="none" stroke="midnightblue" d="M880.957,-123.386C867.904,-115.794 850.921,-103.389 843.155,-87 837.255,-74.5494 836.593,-68.1145 843.155,-56 850.904,-41.6958 865.389,-31.2188 879.095,-23.992"/>
<polygon fill="midnightblue" stroke="midnightblue" points="880.893,-27.0103 888.367,-19.501 877.841,-20.7104 880.893,-27.0103"/>
</g>
<!-- Node13&#45;&gt;Node8 -->
<g id="edge22" class="edge"><title>Node13&#45;&gt;Node8</title>
<path fill="none" stroke="midnightblue" d="M847.956,-124.097C794.657,-115.223 714.299,-100.317 686.155,-87 654.367,-71.9589 623.742,-44.3344 606.215,-26.8572"/>
<polygon fill="midnightblue" stroke="midnightblue" points="608.625,-24.3158 599.126,-19.6229 603.625,-29.215 608.625,-24.3158"/>
</g>
<!-- Node14 -->
<g id="node14" class="node"><title>Node14</title>
<polygon fill="white" stroke="#bfbfbf" points="695.655,-62 695.655,-81 736.655,-81 736.655,-62 695.655,-62"/>
<text text-anchor="middle" x="716.155" y="-69" font-family="Helvetica,sans-Serif" font-size="10.00">array</text>
</g>
<!-- Node13&#45;&gt;Node14 -->
<g id="edge20" class="edge"><title>Node13&#45;&gt;Node14</title>
<path fill="none" stroke="midnightblue" d="M862.618,-123.462C831.22,-115.469 784.447,-102.459 745.155,-87 743.947,-86.5247 742.721,-86.0173 741.491,-85.4876"/>
<polygon fill="midnightblue" stroke="midnightblue" points="742.724,-82.2011 732.182,-81.1478 739.767,-88.5455 742.724,-82.2011"/>
</g>
<!-- Node15 -->
<g id="node15" class="node"><title>Node15</title>
<polygon fill="white" stroke="#bfbfbf" points="754.655,-62 754.655,-81 795.655,-81 795.655,-62 754.655,-62"/>
<text text-anchor="middle" x="775.155" y="-69" font-family="Helvetica,sans-Serif" font-size="10.00">sox.h</text>
</g>
<!-- Node13&#45;&gt;Node15 -->
<g id="edge24" class="edge"><title>Node13&#45;&gt;Node15</title>
<path fill="none" stroke="midnightblue" d="M880.532,-123.475C859.981,-113.534 825.791,-96.9947 801.948,-85.461"/>
<polygon fill="midnightblue" stroke="midnightblue" points="803.272,-82.2131 792.745,-81.0091 800.223,-88.5145 803.272,-82.2131"/>
</g>
<!-- Node16 -->
<g id="node16" class="node"><title>Node16</title>
<g id="a_node16"><a xlink:href="errors_8hpp.html" target="_top" xlink:title="Declarations of the playd Error exception set. ">
<polygon fill="white" stroke="black" points="1366.66,-62 1366.66,-81 1439.66,-81 1439.66,-62 1366.66,-62"/>
<text text-anchor="middle" x="1403.16" y="-69" font-family="Helvetica,sans-Serif" font-size="10.00">../errors.hpp</text>
</a>
</g>
</g>
<!-- Node13&#45;&gt;Node16 -->
<g id="edge25" class="edge"><title>Node13&#45;&gt;Node16</title>
<path fill="none" stroke="midnightblue" d="M948.184,-127.704C1027.18,-120.684 1185.57,-105.65 1319.16,-87 1331.29,-85.3055 1344.37,-83.19 1356.5,-81.1031"/>
<polygon fill="midnightblue" stroke="midnightblue" points="1357.19,-84.5367 1366.44,-79.3668 1355.98,-77.6413 1357.19,-84.5367"/>
</g>
<!-- Node19 -->
<g id="node19" class="node"><title>Node19</title>
<g id="a_node19"><a xlink:href="sample__formats_8hpp.html" target="_top" xlink:title="The SampleFormat enumeration. ">
<polygon fill="white" stroke="black" points="852.655,-62 852.655,-81 971.655,-81 971.655,-62 852.655,-62"/>
<text text-anchor="middle" x="912.155" y="-69" font-family="Helvetica,sans-Serif" font-size="10.00">../sample_formats.hpp</text>
</a>
</g>
</g>
<!-- Node13&#45;&gt;Node19 -->
<g id="edge28" class="edge"><title>Node13&#45;&gt;Node19</title>
<path fill="none" stroke="midnightblue" d="M900.161,-123.475C902.157,-114.992 905.284,-101.704 907.844,-90.8222"/>
<polygon fill="midnightblue" stroke="midnightblue" points="911.269,-91.5449 910.153,-81.0091 904.456,-89.9416 911.269,-91.5449"/>
</g>
<!-- Node17 -->
<g id="node17" class="node"><title>Node17</title>
<polygon fill="white" stroke="#bfbfbf" points="1374.66,-0.5 1374.66,-19.5 1431.66,-19.5 1431.66,-0.5 1374.66,-0.5"/>
<text text-anchor="middle" x="1403.16" y="-7.5" font-family="Helvetica,sans-Serif" font-size="10.00">iostream</text>
</g>
<!-- Node16&#45;&gt;Node17 -->
<g id="edge26" class="edge"><title>Node16&#45;&gt;Node17</title>
<path fill="none" stroke="midnightblue" d="M1403.16,-61.9751C1403.16,-53.5803 1403.16,-40.4806 1403.16,-29.6631"/>
<polygon fill="midnightblue" stroke="midnightblue" points="1406.66,-29.5091 1403.16,-19.5091 1399.66,-29.5091 1406.66,-29.5091"/>
</g>
<!-- Node18 -->
<g id="node18" class="node"><title>Node18</title>
<polygon fill="white" stroke="#bfbfbf" points="1483.16,-0.5 1483.16,-19.5 1537.16,-19.5 1537.16,-0.5 1483.16,-0.5"/>
<text text-anchor="middle" x="1510.16" y="-7.5" font-family="Helvetica,sans-Serif" font-size="10.00">sstream</text>
</g>
<!-- Node16&#45;&gt;Node18 -->
<g id="edge27" class="edge"><title>Node16&#45;&gt;Node18</title>
<path fill="none" stroke="midnightblue" d="M1418.49,-61.9751C1436.12,-52.1664 1465.31,-35.9346 1486.01,-24.425"/>
<polygon fill="midnightblue" stroke="midnightblue" points="1487.81,-27.4279 1494.85,-19.5091 1484.41,-21.3102 1487.81,-27.4279"/>
</g>
<!-- Node19&#45;&gt;Node6 -->
<g id="edge29" class="edge"><title>Node19&#45;&gt;Node6</title>
<path fill="none" stroke="midnightblue" d="M912.155,-61.9751C912.155,-53.5803 912.155,-40.4806 912.155,-29.6631"/>
<polygon fill="midnightblue" stroke="midnightblue" points="915.655,-29.5091 912.155,-19.5091 908.655,-29.5091 915.655,-29.5091"/>
</g>
<!-- Node20&#45;&gt;Node2 -->
<g id="edge31" class="edge"><title>Node20&#45;&gt;Node2</title>
<path fill="none" stroke="midnightblue" d="M1246.41,-179.444C1278.21,-169.461 1330.53,-153.035 1362.79,-142.905"/>
<polygon fill="midnightblue" stroke="midnightblue" points="1364.02,-146.188 1372.51,-139.854 1361.92,-139.51 1364.02,-146.188"/>
</g>
<!-- Node20&#45;&gt;Node8 -->
<g id="edge33" class="edge"><title>Node20&#45;&gt;Node8</title>
<path fill="none" stroke="midnightblue" d="M1161.87,-182.088C1127.02,-176.344 1082.88,-165.069 1049.16,-143 1007.86,-115.974 1023.28,-79.994 980.155,-56 918.963,-21.9547 704.364,-13.5625 622.872,-11.5831"/>
<polygon fill="midnightblue" stroke="midnightblue" points="622.803,-8.08074 612.727,-11.3535 622.645,-15.079 622.803,-8.08074"/>
</g>
<!-- Node20&#45;&gt;Node16 -->
<g id="edge34" class="edge"><title>Node20&#45;&gt;Node16</title>
<path fill="none" stroke="midnightblue" d="M1232.99,-179.319C1264.55,-159.503 1342.16,-110.789 1380.69,-86.5993"/>
<polygon fill="midnightblue" stroke="midnightblue" points="1382.56,-89.563 1389.16,-81.282 1378.83,-83.6342 1382.56,-89.563"/>
</g>
<!-- Node21 -->
<g id="node21" class="node"><title>Node21</title>
<polygon fill="white" stroke="#bfbfbf" points="1196.66,-123.5 1196.66,-142.5 1251.66,-142.5 1251.66,-123.5 1196.66,-123.5"/>
<text text-anchor="middle" x="1224.16" y="-130.5" font-family="Helvetica,sans-Serif" font-size="10.00">ostream</text>
</g>
<!-- Node20&#45;&gt;Node21 -->
<g id="edge32" class="edge"><title>Node20&#45;&gt;Node21</title>
<path fill="none" stroke="midnightblue" d="M1219.98,-179.083C1220.64,-172.006 1221.58,-161.861 1222.4,-152.986"/>
<polygon fill="midnightblue" stroke="midnightblue" points="1225.91,-153.031 1223.34,-142.751 1218.94,-152.386 1225.91,-153.031"/>
</g>
<!-- Node22&#45;&gt;Node6 -->
<g id="edge36" class="edge"><title>Node22&#45;&gt;Node6</title>
<path fill="none" stroke="midnightblue" d="M1482.11,-123.374C1488.63,-107.717 1499.28,-74.5337 1482.16,-56 1445.69,-16.5435 1063.26,-11.6393 946.088,-11.0653"/>
<polygon fill="midnightblue" stroke="midnightblue" points="945.922,-7.56467 935.908,-11.0233 945.893,-14.5646 945.922,-7.56467"/>
</g>
<!-- Node22&#45;&gt;Node16 -->
<g id="edge38" class="edge"><title>Node22&#45;&gt;Node16</title>
<path fill="none" stroke="midnightblue" d="M1467.41,-123.475C1455.6,-114.108 1436.41,-98.8839 1422.07,-87.5081"/>
<polygon fill="midnightblue" stroke="midnightblue" points="1423.89,-84.4822 1413.88,-81.0091 1419.54,-89.9661 1423.89,-84.4822"/>
</g>
<!-- Node22&#45;&gt;Node18 -->
<g id="edge37" class="edge"><title>Node22&#45;&gt;Node18</title>
<path fill="none" stroke="midnightblue" d="M1490.37,-123.236C1500.51,-115.143 1514.2,-102.112 1520.16,-87 1527.53,-68.2891 1522.71,-45.1841 1517.53,-29.3935"/>
<polygon fill="midnightblue" stroke="midnightblue" points="1520.74,-27.9729 1514.03,-19.7741 1514.16,-30.3681 1520.74,-27.9729"/>
</g>
<!-- Node23 -->
<g id="node23" class="node"><title>Node23</title>
<g id="a_node23"><a xlink:href="messages_8h.html" target="_top" xlink:title="Constant human&#45;readable messages used within playd. ">
<polygon fill="white" stroke="black" points="1236.66,-62 1236.66,-81 1309.66,-81 1309.66,-62 1236.66,-62"/>
<text text-anchor="middle" x="1273.16" y="-69" font-family="Helvetica,sans-Serif" font-size="10.00">messages.h</text>
</a>
</g>
</g>
<!-- Node22&#45;&gt;Node23 -->
<g id="edge39" class="edge"><title>Node22&#45;&gt;Node23</title>
<path fill="none" stroke="midnightblue" d="M1448.78,-123.475C1412.86,-113.048 1351.92,-95.3618 1312.11,-83.8066"/>
<polygon fill="midnightblue" stroke="midnightblue" points="1313.05,-80.4353 1302.47,-81.0091 1311.1,-87.1578 1313.05,-80.4353"/>
</g>
<!-- Node23&#45;&gt;Node8 -->
<g id="edge40" class="edge"><title>Node23&#45;&gt;Node8</title>
<path fill="none" stroke="midnightblue" d="M1249.55,-61.893C1242.44,-59.6187 1234.56,-57.4084 1227.16,-56 1109.29,-33.5766 734.983,-16.8612 623.063,-12.266"/>
<polygon fill="midnightblue" stroke="midnightblue" points="622.908,-8.75691 612.774,-11.8475 622.624,-15.7511 622.908,-8.75691"/>
</g>
<!-- Node24&#45;&gt;Node3 -->
<g id="edge42" class="edge"><title>Node24&#45;&gt;Node3</title>
<path fill="none" stroke="midnightblue" d="M931.925,-297.447C782.284,-288.199 287.425,-254.061 139.155,-199 107.677,-187.31 75.9526,-164.348 56.9247,-149.086"/>
<polygon fill="midnightblue" stroke="midnightblue" points="59.0728,-146.321 49.1221,-142.683 54.6324,-151.732 59.0728,-146.321"/>
</g>
<!-- Node24&#45;&gt;Node20 -->
<g id="edge66" class="edge"><title>Node24&#45;&gt;Node20</title>
<path fill="none" stroke="midnightblue" d="M998.104,-291.363C1020.89,-282.65 1056.73,-268.58 1087.16,-255 1124.76,-238.216 1167.34,-216.796 1193.73,-203.234"/>
<polygon fill="midnightblue" stroke="midnightblue" points="1195.4,-206.312 1202.68,-198.616 1192.18,-200.092 1195.4,-206.312"/>
</g>
<!-- Node25 -->
<g id="node25" class="node"><title>Node25</title>
<g id="a_node25"><a xlink:href="audio__system_8hpp.html" target="_top" xlink:title="Declaration of the AudioSystem class. ">
<polygon fill="white" stroke="black" points="561.655,-235.5 561.655,-254.5 698.655,-254.5 698.655,-235.5 561.655,-235.5"/>
<text text-anchor="middle" x="630.155" y="-242.5" font-family="Helvetica,sans-Serif" font-size="10.00">../audio/audio_system.hpp</text>
</a>
</g>
</g>
<!-- Node24&#45;&gt;Node25 -->
<g id="edge43" class="edge"><title>Node24&#45;&gt;Node25</title>
<path fill="none" stroke="midnightblue" d="M931.81,-293.216C872.041,-283.86 763.869,-266.929 694.605,-256.088"/>
<polygon fill="midnightblue" stroke="midnightblue" points="695.099,-252.623 684.678,-254.534 694.017,-259.538 695.099,-252.623"/>
</g>
<!-- Node24&#45;&gt;Node32 -->
<g id="edge67" class="edge"><title>Node24&#45;&gt;Node32</title>
<path fill="none" stroke="midnightblue" d="M983.246,-291.083C990.31,-283.298 1000.74,-271.801 1009.3,-262.367"/>
<polygon fill="midnightblue" stroke="midnightblue" points="1012.09,-264.509 1016.21,-254.751 1006.9,-259.805 1012.09,-264.509"/>
</g>
<!-- Node25&#45;&gt;Node8 -->
<g id="edge44" class="edge"><title>Node25&#45;&gt;Node8</title>
<path fill="none" stroke="midnightblue" d="M561.281,-240.44C458.057,-234.477 268.478,-220.921 204.155,-199 159.205,-183.681 136.32,-184.456 113.155,-143 83.9857,-90.7994 155.692,-72.3518 194.155,-56 259.983,-28.0151 477.412,-15.9144 559.45,-12.2676"/>
<polygon fill="midnightblue" stroke="midnightblue" points="559.815,-15.7552 569.655,-11.8269 559.513,-8.7617 559.815,-15.7552"/>
</g>
<!-- Node25&#45;&gt;Node9 -->
<g id="edge45" class="edge"><title>Node25&#45;&gt;Node9</title>
<path fill="none" stroke="midnightblue" d="M561.602,-244.703C483.59,-243.521 353.366,-235.469 248.155,-199 214.752,-187.422 180.708,-164.057 160.512,-148.724"/>
<polygon fill="midnightblue" stroke="midnightblue" points="162.548,-145.874 152.502,-142.509 158.257,-151.405 162.548,-145.874"/>
</g>
<!-- Node25&#45;&gt;Node10 -->
<g id="edge65" class="edge"><title>Node25&#45;&gt;Node10</title>
<path fill="none" stroke="midnightblue" d="M578.816,-235.444C520.756,-225.767 426.369,-210.036 365.277,-199.854"/>
<polygon fill="midnightblue" stroke="midnightblue" points="365.835,-196.399 355.396,-198.207 364.685,-203.303 365.835,-196.399"/>
</g>
<!-- Node25&#45;&gt;Node13 -->
<g id="edge64" class="edge"><title>Node25&#45;&gt;Node13</title>
<path fill="none" stroke="midnightblue" d="M651.185,-235.368C698.348,-216.01 812.725,-169.065 867.683,-146.507"/>
<polygon fill="midnightblue" stroke="midnightblue" points="869.301,-149.626 877.223,-142.591 866.643,-143.151 869.301,-149.626"/>
</g>
<!-- Node25&#45;&gt;Node19 -->
<g id="edge48" class="edge"><title>Node25&#45;&gt;Node19</title>
<path fill="none" stroke="midnightblue" d="M682.792,-235.462C766.638,-220.667 924.431,-187.526 957.155,-143 970.679,-124.599 950.604,-102.201 933.108,-87.6602"/>
<polygon fill="midnightblue" stroke="midnightblue" points="934.912,-84.6266 924.884,-81.2053 930.59,-90.1329 934.912,-84.6266"/>
</g>
<!-- Node26 -->
<g id="node26" class="node"><title>Node26</title>
<polygon fill="white" stroke="#bfbfbf" points="377.655,-179.5 377.655,-198.5 568.655,-198.5 568.655,-179.5 377.655,-179.5"/>
<text text-anchor="middle" x="473.155" y="-186.5" font-family="Helvetica,sans-Serif" font-size="10.00">portaudiocpp/SampleDataFormat.hxx</text>
</g>
<!-- Node25&#45;&gt;Node26 -->
<g id="edge46" class="edge"><title>Node25&#45;&gt;Node26</title>
<path fill="none" stroke="midnightblue" d="M605.278,-235.444C578.866,-226.359 536.94,-211.939 507.414,-201.783"/>
<polygon fill="midnightblue" stroke="midnightblue" points="508.511,-198.459 497.916,-198.516 506.234,-205.079 508.511,-198.459"/>
</g>
<!-- Node27 -->
<g id="node27" class="node"><title>Node27</title>
<polygon fill="white" stroke="#bfbfbf" points="696.155,-123.5 696.155,-142.5 830.155,-142.5 830.155,-123.5 696.155,-123.5"/>
<text text-anchor="middle" x="763.155" y="-130.5" font-family="Helvetica,sans-Serif" font-size="10.00">portaudiocpp/Stream.hxx</text>
</g>
<!-- Node25&#45;&gt;Node27 -->
<g id="edge47" class="edge"><title>Node25&#45;&gt;Node27</title>
<path fill="none" stroke="midnightblue" d="M640.591,-235.368C663.123,-216.733 716.566,-172.532 744.857,-149.134"/>
<polygon fill="midnightblue" stroke="midnightblue" points="747.292,-151.662 752.767,-142.591 742.831,-146.268 747.292,-151.662"/>
</g>
<!-- Node28 -->
<g id="node28" class="node"><title>Node28</title>
<g id="a_node28"><a xlink:href="audio__sink_8hpp.html" target="_top" xlink:title="Declaration of the AudioSink class. ">
<polygon fill="white" stroke="black" points="586.655,-179.5 586.655,-198.5 673.655,-198.5 673.655,-179.5 586.655,-179.5"/>
<text text-anchor="middle" x="630.155" y="-186.5" font-family="Helvetica,sans-Serif" font-size="10.00">audio_sink.hpp</text>
</a>
</g>
</g>
<!-- Node25&#45;&gt;Node28 -->
<g id="edge49" class="edge"><title>Node25&#45;&gt;Node28</title>
<path fill="none" stroke="midnightblue" d="M630.155,-235.083C630.155,-228.006 630.155,-217.861 630.155,-208.986"/>
<polygon fill="midnightblue" stroke="midnightblue" points="633.655,-208.751 630.155,-198.751 626.655,-208.751 633.655,-208.751"/>
</g>
<!-- Node28&#45;&gt;Node3 -->
<g id="edge51" class="edge"><title>Node28&#45;&gt;Node3</title>
<path fill="none" stroke="midnightblue" d="M586.529,-180.269C583.361,-179.807 580.212,-179.377 577.155,-179 371.871,-153.66 318.98,-163.491 113.155,-143 101.103,-141.8 87.9731,-140.275 76.1642,-138.822"/>
<polygon fill="midnightblue" stroke="midnightblue" points="76.5441,-135.343 66.187,-137.575 75.6754,-142.288 76.5441,-135.343"/>
</g>
<!-- Node28&#45;&gt;Node4 -->
<g id="edge54" class="edge"><title>Node28&#45;&gt;Node4</title>
<path fill="none" stroke="midnightblue" d="M624.501,-179.079C615.224,-165.139 595.454,-138.218 572.155,-123 534.31,-98.2808 483.356,-84.7492 450.38,-78.0672"/>
<polygon fill="midnightblue" stroke="midnightblue" points="450.827,-74.5889 440.345,-76.1329 449.502,-81.4624 450.827,-74.5889"/>
</g>
<!-- Node28&#45;&gt;Node6 -->
<g id="edge50" class="edge"><title>Node28&#45;&gt;Node6</title>
<path fill="none" stroke="midnightblue" d="M631.087,-179.265C634.126,-155.396 645.993,-88.6811 686.155,-56 715.234,-32.3375 822.869,-19.2027 878.449,-13.8636"/>
<polygon fill="midnightblue" stroke="midnightblue" points="878.879,-17.3388 888.512,-12.9277 878.231,-10.3688 878.879,-17.3388"/>
</g>
<!-- Node28&#45;&gt;Node8 -->
<g id="edge52" class="edge"><title>Node28&#45;&gt;Node8</title>
<path fill="none" stroke="midnightblue" d="M628.274,-179.463C622.317,-152.428 603.767,-68.2392 595.366,-30.109"/>
<polygon fill="midnightblue" stroke="midnightblue" points="598.679,-28.881 593.109,-19.8684 591.843,-30.3873 598.679,-28.881"/>
</g>
<!-- Node28&#45;&gt;Node9 -->
<g id="edge53" class="edge"><title>Node28&#45;&gt;Node9</title>
<path fill="none" stroke="midnightblue" d="M586.517,-180.358C583.352,-179.875 580.207,-179.416 577.155,-179 425.462,-158.297 242.845,-142.288 172.14,-136.424"/>
<polygon fill="midnightblue" stroke="midnightblue" points="172.409,-132.935 162.155,-135.602 171.834,-139.911 172.409,-132.935"/>
</g>
<!-- Node28&#45;&gt;Node11 -->
<g id="edge55" class="edge"><title>Node28&#45;&gt;Node11</title>
<path fill="none" stroke="midnightblue" d="M613.928,-179.324C597.804,-170.703 572.855,-157.364 554.191,-147.386"/>
<polygon fill="midnightblue" stroke="midnightblue" points="555.811,-144.283 545.342,-142.655 552.511,-150.456 555.811,-144.283"/>
</g>
<!-- Node28&#45;&gt;Node12 -->
<g id="edge56" class="edge"><title>Node28&#45;&gt;Node12</title>
<path fill="none" stroke="midnightblue" d="M591.334,-179.444C548.595,-170.023 479.823,-154.866 433.589,-144.675"/>
<polygon fill="midnightblue" stroke="midnightblue" points="434.313,-141.251 423.794,-142.516 432.807,-148.087 434.313,-141.251"/>
</g>
<!-- Node28&#45;&gt;Node13 -->
<g id="edge58" class="edge"><title>Node28&#45;&gt;Node13</title>
<path fill="none" stroke="midnightblue" d="M672.621,-179.444C719.568,-169.984 795.231,-154.738 845.81,-144.547"/>
<polygon fill="midnightblue" stroke="midnightblue" points="846.777,-147.923 855.888,-142.516 845.394,-141.061 846.777,-147.923"/>
</g>
<!-- Node28&#45;&gt;Node27 -->
<g id="edge57" class="edge"><title>Node28&#45;&gt;Node27</title>
<path fill="none" stroke="midnightblue" d="M651.229,-179.444C673.215,-170.517 707.889,-156.439 732.819,-146.317"/>
<polygon fill="midnightblue" stroke="midnightblue" points="734.231,-149.521 742.179,-142.516 731.597,-143.035 734.231,-149.521"/>
</g>
<!-- Node29 -->
<g id="node29" class="node"><title>Node29</title>
<g id="a_node29"><a xlink:href="ringbuffer_8hpp.html" target="_top" xlink:title="The RingBuffer class template. ">
<polygon fill="white" stroke="black" points="1058.66,-123.5 1058.66,-142.5 1139.66,-142.5 1139.66,-123.5 1058.66,-123.5"/>
<text text-anchor="middle" x="1099.16" y="-130.5" font-family="Helvetica,sans-Serif" font-size="10.00">ringbuffer.hpp</text>
</a>
</g>
</g>
<!-- Node28&#45;&gt;Node29 -->
<g id="edge59" class="edge"><title>Node28&#45;&gt;Node29</title>
<path fill="none" stroke="midnightblue" d="M673.856,-182.968C760.982,-172.937 955.87,-150.498 1048.45,-139.838"/>
<polygon fill="midnightblue" stroke="midnightblue" points="1048.89,-143.311 1058.42,-138.69 1048.09,-136.357 1048.89,-143.311"/>
</g>
<!-- Node29&#45;&gt;Node16 -->
<g id="edge62" class="edge"><title>Node29&#45;&gt;Node16</title>
<path fill="none" stroke="midnightblue" d="M1139.84,-124.037C1196.12,-113.021 1297.48,-93.183 1356.68,-81.5963"/>
<polygon fill="midnightblue" stroke="midnightblue" points="1357.37,-85.0272 1366.51,-79.6715 1356.03,-78.1576 1357.37,-85.0272"/>
</g>
<!-- Node29&#45;&gt;Node23 -->
<g id="edge63" class="edge"><title>Node29&#45;&gt;Node23</title>
<path fill="none" stroke="midnightblue" d="M1124.09,-123.475C1154.19,-113.18 1204.99,-95.8103 1238.79,-84.2502"/>
<polygon fill="midnightblue" stroke="midnightblue" points="1239.94,-87.5565 1248.27,-81.0091 1237.68,-80.933 1239.94,-87.5565"/>
</g>
<!-- Node30 -->
<g id="node30" class="node"><title>Node30</title>
<polygon fill="white" stroke="#bfbfbf" points="1028.66,-62 1028.66,-81 1079.66,-81 1079.66,-62 1028.66,-62"/>
<text text-anchor="middle" x="1054.16" y="-69" font-family="Helvetica,sans-Serif" font-size="10.00">cassert</text>
</g>
<!-- Node29&#45;&gt;Node30 -->
<g id="edge60" class="edge"><title>Node29&#45;&gt;Node30</title>
<path fill="none" stroke="midnightblue" d="M1092.71,-123.475C1085.96,-114.55 1075.19,-100.307 1066.74,-89.1425"/>
<polygon fill="midnightblue" stroke="midnightblue" points="1069.41,-86.8737 1060.59,-81.0091 1063.83,-91.0962 1069.41,-86.8737"/>
</g>
<!-- Node31 -->
<g id="node31" class="node"><title>Node31</title>
<polygon fill="white" stroke="#bfbfbf" points="1097.66,-56.5 1097.66,-86.5 1218.66,-86.5 1218.66,-56.5 1097.66,-56.5"/>
<text text-anchor="start" x="1105.66" y="-74.5" font-family="Helvetica,sans-Serif" font-size="10.00">../contrib/pa_ringbuffer</text>
<text text-anchor="middle" x="1158.16" y="-63.5" font-family="Helvetica,sans-Serif" font-size="10.00">/pa_ringbuffer.h</text>
</g>
<!-- Node29&#45;&gt;Node31 -->
<g id="edge61" class="edge"><title>Node29&#45;&gt;Node31</title>
<path fill="none" stroke="midnightblue" d="M1107.61,-123.475C1115.3,-115.718 1126.98,-103.943 1137.17,-93.6645"/>
<polygon fill="midnightblue" stroke="midnightblue" points="1139.69,-96.0883 1144.25,-86.523 1134.72,-91.1594 1139.69,-96.0883"/>
</g>
<!-- Node32&#45;&gt;Node13 -->
<g id="edge69" class="edge"><title>Node32&#45;&gt;Node13</title>
<path fill="none" stroke="midnightblue" d="M1014.27,-235.368C993.014,-216.814 942.728,-172.913 915.838,-149.438"/>
<polygon fill="midnightblue" stroke="midnightblue" points="917.831,-146.531 907.996,-142.591 913.228,-151.805 917.831,-146.531"/>
</g>
<!-- Node32&#45;&gt;Node20 -->
<g id="edge70" class="edge"><title>Node32&#45;&gt;Node20</title>
<path fill="none" stroke="midnightblue" d="M1055.05,-235.444C1088.43,-226.201 1141.75,-211.436 1178.5,-201.257"/>
<polygon fill="midnightblue" stroke="midnightblue" points="1179.7,-204.558 1188.4,-198.516 1177.83,-197.812 1179.7,-204.558"/>
</g>
<!-- Node33 -->
<g id="node33" class="node"><title>Node33</title>
<polygon fill="white" stroke="#bfbfbf" points="1008.66,-179.5 1008.66,-198.5 1039.66,-198.5 1039.66,-179.5 1008.66,-179.5"/>
<text text-anchor="middle" x="1024.16" y="-186.5" font-family="Helvetica,sans-Serif" font-size="10.00">set</text>
</g>
<!-- Node32&#45;&gt;Node33 -->
<g id="edge68" class="edge"><title>Node32&#45;&gt;Node33</title>
<path fill="none" stroke="midnightblue" d="M1024.16,-235.083C1024.16,-228.006 1024.16,-217.861 1024.16,-208.986"/>
<polygon fill="midnightblue" stroke="midnightblue" points="1027.66,-208.751 1024.16,-198.751 1020.66,-208.751 1027.66,-208.751"/>
</g>
<!-- Node34&#45;&gt;Node6 -->
<g id="edge73" class="edge"><title>Node34&#45;&gt;Node6</title>
<path fill="none" stroke="midnightblue" d="M1268.77,-291.262C1271.34,-278.469 1277.02,-254.089 1286.16,-235 1312.34,-180.283 1317.05,-161.215 1364.16,-123 1396.02,-97.1536 1426.5,-121.202 1449.16,-87 1456.76,-75.514 1458.48,-66.141 1449.16,-56 1415.07,-18.9349 1058.48,-12.3856 945.967,-11.24"/>
<polygon fill="midnightblue" stroke="midnightblue" points="945.892,-7.73925 935.86,-11.1452 945.826,-14.7389 945.892,-7.73925"/>
</g>
<!-- Node34&#45;&gt;Node7 -->
<g id="edge74" class="edge"><title>Node34&#45;&gt;Node7</title>
<path fill="none" stroke="midnightblue" d="M1277.92,-291.324C1287.92,-283.263 1303.04,-271.077 1315.09,-261.369"/>
<polygon fill="midnightblue" stroke="midnightblue" points="1317.6,-263.834 1323.19,-254.834 1313.21,-258.384 1317.6,-263.834"/>
</g>
<!-- Node34&#45;&gt;Node20 -->
<g id="edge75" class="edge"><title>Node34&#45;&gt;Node20</title>
<path fill="none" stroke="midnightblue" d="M1263.39,-291.368C1255.57,-273.456 1237.45,-231.923 1226.99,-207.948"/>
<polygon fill="midnightblue" stroke="midnightblue" points="1230.11,-206.357 1222.9,-198.591 1223.7,-209.157 1230.11,-206.357"/>
</g>
</g>
</svg>
