<?xml version="1.0" encoding="UTF-8" standalone="no"?>
<!DOCTYPE svg PUBLIC "-//W3C//DTD SVG 1.1//EN"
 "http://www.w3.org/Graphics/SVG/1.1/DTD/svg11.dtd">
<!-- Generated by graphviz version 2.38.0 (20140413.2041)
 -->
<!-- Title: src/cmd.hpp Pages: 1 -->
<svg width="409pt" height="252pt"
 viewBox="0.00 0.00 409.29 252.00" xmlns="http://www.w3.org/2000/svg" xmlns:xlink="http://www.w3.org/1999/xlink">
<g id="graph0" class="graph" transform="scale(1 1) rotate(0) translate(4 248)">
<title>src/cmd.hpp</title>
<polygon fill="white" stroke="none" points="-4,4 -4,-248 405.289,-248 405.289,4 -4,4"/>
<!-- Node1 -->
<g id="node1" class="node"><title>Node1</title>
<polygon fill="#bfbfbf" stroke="black" points="213.5,-224.5 213.5,-243.5 287.5,-243.5 287.5,-224.5 213.5,-224.5"/>
<text text-anchor="middle" x="250.5" y="-231.5" font-family="Helvetica,sans-Serif" font-size="10.00">src/cmd.hpp</text>
</g>
<!-- Node2 -->
<g id="node2" class="node"><title>Node2</title>
<g id="a_node2"><a xlink:href="cmd_8cpp.html" target="_top" xlink:title="Implementation of the CommandHandler class. ">
<polygon fill="white" stroke="black" points="0,-168.5 0,-187.5 73,-187.5 73,-168.5 0,-168.5"/>
<text text-anchor="middle" x="36.5" y="-175.5" font-family="Helvetica,sans-Serif" font-size="10.00">src/cmd.cpp</text>
</a>
</g>
</g>
<!-- Node1&#45;&gt;Node2 -->
<g id="edge1" class="edge"><title>Node1&#45;&gt;Node2</title>
<path fill="none" stroke="midnightblue" d="M206.745,-221.959C166.326,-211.76 107.127,-196.822 70.2503,-187.516"/>
<polygon fill="midnightblue" stroke="midnightblue" points="206.039,-225.39 216.591,-224.444 207.751,-218.603 206.039,-225.39"/>
</g>
<!-- Node3 -->
<g id="node3" class="node"><title>Node3</title>
<g id="a_node3"><a xlink:href="io__core_8cpp.html" target="_top" xlink:title="Implementation of the non&#45;virtual aspects of the IoCore class. ">
<polygon fill="white" stroke="black" points="84.5,-56.5 84.5,-75.5 184.5,-75.5 184.5,-56.5 84.5,-56.5"/>
<text text-anchor="middle" x="134.5" y="-63.5" font-family="Helvetica,sans-Serif" font-size="10.00">src/io/io_core.cpp</text>
</a>
</g>
</g>
<!-- Node1&#45;&gt;Node3 -->
<g id="edge2" class="edge"><title>Node1&#45;&gt;Node3</title>
<path fill="none" stroke="midnightblue" d="M219.435,-220.158C187.03,-204.748 138.49,-175.432 120.5,-132 112.548,-112.803 122.7,-88.467 129.429,-75.7091"/>
<polygon fill="midnightblue" stroke="midnightblue" points="218.372,-223.52 228.922,-224.494 221.282,-217.154 218.372,-223.52"/>
</g>
<!-- Node4 -->
<g id="node4" class="node"><title>Node4</title>
<g id="a_node4"><a xlink:href="io__core_8hpp.html" target="_top" xlink:title="Declaration of the IoCore class. ">
<polygon fill="white" stroke="black" points="130,-112.5 130,-131.5 231,-131.5 231,-112.5 130,-112.5"/>
<text text-anchor="middle" x="180.5" y="-119.5" font-family="Helvetica,sans-Serif" font-size="10.00">src/io/io_core.hpp</text>
</a>
</g>
</g>
<!-- Node1&#45;&gt;Node4 -->
<g id="edge3" class="edge"><title>Node1&#45;&gt;Node4</title>
<path fill="none" stroke="midnightblue" d="M221.057,-219.554C208.248,-212.129 194.389,-201.619 186.5,-188 176.162,-170.152 177.491,-144.829 179.123,-131.68"/>
<polygon fill="midnightblue" stroke="midnightblue" points="219.633,-222.762 230.098,-224.415 222.948,-216.597 219.633,-222.762"/>
</g>
<!-- Node5 -->
<g id="node5" class="node"><title>Node5</title>
<g id="a_node5"><a xlink:href="main_8cpp.html" target="_top" xlink:title="Main entry point and implementation of the playd class. ">
<polygon fill="white" stroke="black" points="304.5,-0.5 304.5,-19.5 380.5,-19.5 380.5,-0.5 304.5,-0.5"/>
<text text-anchor="middle" x="342.5" y="-7.5" font-family="Helvetica,sans-Serif" font-size="10.00">src/main.cpp</text>
</a>
</g>
</g>
<!-- Node1&#45;&gt;Node5 -->
<g id="edge13" class="edge"><title>Node1&#45;&gt;Node5</title>
<path fill="none" stroke="midnightblue" d="M297.377,-221.859C319.5,-214.865 345.211,-204.052 364.5,-188 387.06,-169.225 391.409,-160.213 399.5,-132 405.552,-110.899 391.817,-60.3239 389.5,-56 381.39,-40.865 366.341,-27.8385 355.453,-19.7524"/>
<polygon fill="midnightblue" stroke="midnightblue" points="296.081,-218.593 287.501,-224.809 298.085,-225.3 296.081,-218.593"/>
</g>
<!-- Node6 -->
<g id="node6" class="node"><title>Node6</title>
<g id="a_node6"><a xlink:href="main_8hpp.html" target="_top" xlink:title="Declaration of the playd class. ">
<polygon fill="white" stroke="black" points="304,-56.5 304,-75.5 381,-75.5 381,-56.5 304,-56.5"/>
<text text-anchor="middle" x="342.5" y="-63.5" font-family="Helvetica,sans-Serif" font-size="10.00">src/main.hpp</text>
</a>
</g>
</g>
<!-- Node1&#45;&gt;Node6 -->
<g id="edge14" class="edge"><title>Node1&#45;&gt;Node6</title>
<path fill="none" stroke="midnightblue" d="M283.238,-220.393C316.908,-205.293 366.844,-176.341 384.5,-132 393.248,-110.031 370.116,-87.5467 354.804,-75.6395"/>
<polygon fill="midnightblue" stroke="midnightblue" points="281.59,-217.292 273.789,-224.462 284.358,-223.722 281.59,-217.292"/>
</g>
<!-- Node7 -->
<g id="node7" class="node"><title>Node7</title>
<g id="a_node7"><a xlink:href="tokeniser_8hpp.html" target="_top" xlink:title="Declaration of the Tokeniser class. ">
<polygon fill="white" stroke="black" points="196,-168.5 196,-187.5 305,-187.5 305,-168.5 196,-168.5"/>
<text text-anchor="middle" x="250.5" y="-175.5" font-family="Helvetica,sans-Serif" font-size="10.00">src/io/tokeniser.hpp</text>
</a>
</g>
</g>
<!-- Node1&#45;&gt;Node7 -->
<g id="edge9" class="edge"><title>Node1&#45;&gt;Node7</title>
<path fill="none" stroke="midnightblue" d="M250.5,-213.805C250.5,-204.91 250.5,-194.78 250.5,-187.751"/>
<polygon fill="midnightblue" stroke="midnightblue" points="247,-214.083 250.5,-224.083 254,-214.083 247,-214.083"/>
</g>
<!-- Node8 -->
<g id="node8" class="node"><title>Node8</title>
<g id="a_node8"><a xlink:href="tokeniser_8cpp.html" target="_top" xlink:title="Definition of the Tokeniser class. ">
<polygon fill="white" stroke="black" points="267.5,-112.5 267.5,-131.5 375.5,-131.5 375.5,-112.5 267.5,-112.5"/>
<text text-anchor="middle" x="321.5" y="-119.5" font-family="Helvetica,sans-Serif" font-size="10.00">src/io/tokeniser.cpp</text>
</a>
</g>
</g>
<!-- Node1&#45;&gt;Node8 -->
<g id="edge12" class="edge"><title>Node1&#45;&gt;Node8</title>
<path fill="none" stroke="midnightblue" d="M279.045,-219.5C291.688,-212.02 305.484,-201.48 313.5,-188 324.077,-170.214 323.658,-144.864 322.532,-131.695"/>
<polygon fill="midnightblue" stroke="midnightblue" points="277.213,-216.513 270.143,-224.404 280.591,-222.645 277.213,-216.513"/>
</g>
<!-- Node4&#45;&gt;Node3 -->
<g id="edge4" class="edge"><title>Node4&#45;&gt;Node3</title>
<path fill="none" stroke="midnightblue" d="M166.386,-104.431C158.324,-94.9673 148.541,-83.4827 141.955,-75.7511"/>
<polygon fill="midnightblue" stroke="midnightblue" points="163.755,-106.74 172.904,-112.083 169.084,-102.201 163.755,-106.74"/>
</g>
<!-- Node4&#45;&gt;Node4 -->
<g id="edge5" class="edge"><title>Node4&#45;&gt;Node4</title>
<path fill="none" stroke="midnightblue" d="M219.818,-132.432C235.673,-133.04 249,-129.563 249,-122 249,-112.867 229.566,-109.692 209.715,-112.475"/>
<polygon fill="midnightblue" stroke="midnightblue" points="219.988,-128.933 209.715,-131.525 219.362,-135.905 219.988,-128.933"/>
</g>
<!-- Node4&#45;&gt;Node5 -->
<g id="edge6" class="edge"><title>Node4&#45;&gt;Node5</title>
<path fill="none" stroke="midnightblue" d="M201.539,-106.714C235.676,-83.5347 302.103,-38.4303 329.847,-19.5914"/>
<polygon fill="midnightblue" stroke="midnightblue" points="199.519,-103.855 193.212,-112.368 203.451,-109.647 199.519,-103.855"/>
</g>
<!-- Node4&#45;&gt;Node6 -->
<g id="edge7" class="edge"><title>Node4&#45;&gt;Node6</title>
<path fill="none" stroke="midnightblue" d="M215.984,-109.172C246.488,-99.0039 289.745,-84.5852 316.951,-75.5164"/>
<polygon fill="midnightblue" stroke="midnightblue" points="214.549,-105.961 206.169,-112.444 216.763,-112.602 214.549,-105.961"/>
</g>
<!-- Node6&#45;&gt;Node5 -->
<g id="edge8" class="edge"><title>Node6&#45;&gt;Node5</title>
<path fill="none" stroke="midnightblue" d="M342.5,-45.8045C342.5,-36.9102 342.5,-26.7798 342.5,-19.7511"/>
<polygon fill="midnightblue" stroke="midnightblue" points="339,-46.083 342.5,-56.083 346,-46.083 339,-46.083"/>
</g>
<!-- Node7&#45;&gt;Node4 -->
<g id="edge10" class="edge"><title>Node7&#45;&gt;Node4</title>
<path fill="none" stroke="midnightblue" d="M231.186,-162.101C218.588,-152.382 202.572,-140.027 191.951,-131.834"/>
<polygon fill="midnightblue" stroke="midnightblue" points="229.198,-164.987 239.253,-168.324 233.473,-159.445 229.198,-164.987"/>
</g>
<!-- Node7&#45;&gt;Node8 -->
<g id="edge11" class="edge"><title>Node7&#45;&gt;Node8</title>
<path fill="none" stroke="midnightblue" d="M270.09,-162.101C282.868,-152.382 299.113,-140.027 309.885,-131.834"/>
<polygon fill="midnightblue" stroke="midnightblue" points="267.748,-159.484 261.907,-168.324 271.986,-165.056 267.748,-159.484"/>
</g>
</g>
</svg>
