<?xml version="1.0" encoding="UTF-8" standalone="no"?>
<!DOCTYPE svg PUBLIC "-//W3C//DTD SVG 1.1//EN"
 "http://www.w3.org/Graphics/SVG/1.1/DTD/svg11.dtd">
<!-- Generated by graphviz version 2.38.0 (20140413.2041)
 -->
<!-- Title: src/cmd.cpp Pages: 1 -->
<!--zoomable 487 -->
<svg id="main" version="1.1" xmlns="http://www.w3.org/2000/svg" xmlns:xlink="http://www.w3.org/1999/xlink" xml:space="preserve" onload="init(evt)">
<style type="text/css"><![CDATA[
.edge:hover path { stroke: red; }
.edge:hover polygon { stroke: red; fill: red; }
]]></style>
<script type="text/javascript"><![CDATA[
var edges = document.getElementsByTagName('g');
if (edges && edges.length) {
  for (var i=0;i<edges.length;i++) {
    if (edges[i].id.substr(0,4)=='edge') {
      edges[i].setAttribute('class','edge');
    }
  }
}
]]></script>
        <defs>
                <circle id="rim" cx="0" cy="0" r="7"/>
                <circle id="rim2" cx="0" cy="0" r="3.5"/>
                <g id="zoomPlus">
                        <use xlink:href="#rim" fill="#404040">
                                <set attributeName="fill" to="#808080" begin="zoomplus.mouseover" end="zoomplus.mouseout"/>
                        </use>
                        <path d="M-4,0h8M0,-4v8" fill="none" stroke="white" stroke-width="1.5" pointer-events="none"/>
                </g>
                <g id="zoomMin">
                        <use xlink:href="#rim" fill="#404040">
                                <set attributeName="fill" to="#808080" begin="zoomminus.mouseover" end="zoomminus.mouseout"/>
                        </use>
                        <path d="M-4,0h8" fill="none" stroke="white" stroke-width="1.5" pointer-events="none"/>
                </g>
                <g id="dirArrow">
                        <path fill="none" stroke="white" stroke-width="1.5" d="M0,-3.0v7 M-2.5,-0.5L0,-3.0L2.5,-0.5"/>
                </g>
               <g id="resetDef">
                       <use xlink:href="#rim2" fill="#404040">
                               <set attributeName="fill" to="#808080" begin="reset.mouseover" end="reset.mouseout"/>
                       </use>
               </g>
        </defs>

<script type="text/javascript">
var viewWidth = 1987;
var viewHeight = 487;
var sectionId = 'dynsection-0';
</script>
<script xlink:href="svgpan.js"/>
<svg id="graph" class="graph">
<g id="viewport">
<title>src/cmd.cpp</title>
<polygon fill="white" stroke="none" points="-4,4 -4,-483 1983,-483 1983,4 -4,4"/>
<!-- Node1 -->
<g id="node1" class="node"><title>Node1</title>
<polygon fill="#bfbfbf" stroke="black" points="216.5,-459.5 216.5,-478.5 289.5,-478.5 289.5,-459.5 216.5,-459.5"/>
<text text-anchor="middle" x="253" y="-466.5" font-family="Helvetica,sans-Serif" font-size="10.00">src/cmd.cpp</text>
</g>
<!-- Node2 -->
<g id="node2" class="node"><title>Node2</title>
<polygon fill="white" stroke="#bfbfbf" points="36.5,-0.5 36.5,-19.5 93.5,-19.5 93.5,-0.5 36.5,-0.5"/>
<text text-anchor="middle" x="65" y="-7.5" font-family="Helvetica,sans-Serif" font-size="10.00">iostream</text>
</g>
<!-- Node1&#45;&gt;Node2 -->
<g id="edge1" class="edge"><title>Node1&#45;&gt;Node2</title>
<path fill="none" stroke="midnightblue" d="M216.482,-468.141C146.418,-466.294 0,-451.277 0,-358 0,-358 0,-358 0,-132 0,-97.1827 1.67933,-86.2033 19,-56 25.5529,-44.5732 35.8275,-34.1264 45.0054,-26.1809"/>
<polygon fill="midnightblue" stroke="midnightblue" points="47.4774,-28.6799 52.9877,-19.6307 43.037,-23.2686 47.4774,-28.6799"/>
</g>
<!-- Node3 -->
<g id="node3" class="node"><title>Node3</title>
<polygon fill="white" stroke="#bfbfbf" points="697.5,-62 697.5,-81 740.5,-81 740.5,-62 697.5,-62"/>
<text text-anchor="middle" x="719" y="-69" font-family="Helvetica,sans-Serif" font-size="10.00">string</text>
</g>
<!-- Node1&#45;&gt;Node3 -->
<g id="edge2" class="edge"><title>Node1&#45;&gt;Node3</title>
<path fill="none" stroke="midnightblue" d="M247.446,-459.263C237.027,-442.292 214.886,-403.341 207,-367 183.767,-259.937 156.995,-192.112 242,-123 259.337,-108.904 582.963,-82.942 687.048,-74.9233"/>
<polygon fill="midnightblue" stroke="midnightblue" points="687.547,-78.3954 697.25,-74.1408 687.012,-71.4159 687.547,-78.3954"/>
</g>
<!-- Node4 -->
<g id="node4" class="node"><title>Node4</title>
<g id="a_node4"><a xlink:href="cmd_8hpp.html" target="_top" xlink:title="Declaration of the CommandHandler class. ">
<polygon fill="white" stroke="black" points="1482,-403.5 1482,-422.5 1538,-422.5 1538,-403.5 1482,-403.5"/>
<text text-anchor="middle" x="1510" y="-410.5" font-family="Helvetica,sans-Serif" font-size="10.00">cmd.hpp</text>
</a>
</g>
</g>
<!-- Node1&#45;&gt;Node4 -->
<g id="edge3" class="edge"><title>Node1&#45;&gt;Node4</title>
<path fill="none" stroke="midnightblue" d="M289.601,-466.428C472.411,-458.574 1285.21,-423.657 1471.75,-415.643"/>
<polygon fill="midnightblue" stroke="midnightblue" points="1472.06,-419.133 1481.9,-415.207 1471.76,-412.14 1472.06,-419.133"/>
</g>
<!-- Node8 -->
<g id="node8" class="node"><title>Node8</title>
<g id="a_node8"><a xlink:href="cmd__result_8hpp.html" target="_top" xlink:title="Declaration of the CommandResult class. ">
<polygon fill="white" stroke="black" points="1605,-179.5 1605,-198.5 1693,-198.5 1693,-179.5 1605,-179.5"/>
<text text-anchor="middle" x="1649" y="-186.5" font-family="Helvetica,sans-Serif" font-size="10.00">cmd_result.hpp</text>
</a>
</g>
</g>
<!-- Node1&#45;&gt;Node8 -->
<g id="edge81" class="edge"><title>Node1&#45;&gt;Node8</title>
<path fill="none" stroke="midnightblue" d="M289.623,-467.631C487.257,-465.52 1422.23,-453.956 1547,-423 1611.24,-407.06 1681,-424.192 1681,-358 1681,-358 1681,-358 1681,-300 1681,-266.329 1667.01,-229.085 1657.53,-207.719"/>
<polygon fill="midnightblue" stroke="midnightblue" points="1660.68,-206.207 1653.32,-198.592 1654.33,-209.138 1660.68,-206.207"/>
</g>
<!-- Node10 -->
<g id="node10" class="node"><title>Node10</title>
<g id="a_node10"><a xlink:href="io__response_8hpp.html" target="_top" xlink:title="Declaration of classes pertaining to responses to the client. ">
<polygon fill="white" stroke="black" points="1595.5,-123.5 1595.5,-142.5 1702.5,-142.5 1702.5,-123.5 1595.5,-123.5"/>
<text text-anchor="middle" x="1649" y="-130.5" font-family="Helvetica,sans-Serif" font-size="10.00">io/io_response.hpp</text>
</a>
</g>
</g>
<!-- Node1&#45;&gt;Node10 -->
<g id="edge83" class="edge"><title>Node1&#45;&gt;Node10</title>
<path fill="none" stroke="midnightblue" d="M289.622,-468.034C493.723,-468.056 1486.23,-465.942 1615,-423 1656.17,-409.27 1674.16,-405.07 1695,-367 1735.15,-293.657 1737.12,-254.882 1702,-179 1696.08,-166.207 1684.53,-155.722 1673.72,-148.1"/>
<polygon fill="midnightblue" stroke="midnightblue" points="1675.62,-145.158 1665.33,-142.613 1671.79,-151.016 1675.62,-145.158"/>
</g>
<!-- Node12 -->
<g id="node12" class="node"><title>Node12</title>
<g id="a_node12"><a xlink:href="errors_8hpp.html" target="_top" xlink:title="Declarations of the playd Error exception set. ">
<polygon fill="white" stroke="black" points="167.5,-62 167.5,-81 240.5,-81 240.5,-62 167.5,-62"/>
<text text-anchor="middle" x="204" y="-69" font-family="Helvetica,sans-Serif" font-size="10.00">../errors.hpp</text>
</a>
</g>
</g>
<!-- Node1&#45;&gt;Node12 -->
<g id="edge82" class="edge"><title>Node1&#45;&gt;Node12</title>
<path fill="none" stroke="midnightblue" d="M226.605,-459.467C188.084,-445.165 121,-412.441 121,-358 121,-358 121,-358 121,-188 121,-145.149 159.141,-107.318 183.713,-87.393"/>
<polygon fill="midnightblue" stroke="midnightblue" points="186.026,-90.0269 191.753,-81.1131 181.718,-84.5101 186.026,-90.0269"/>
</g>
<!-- Node34 -->
<g id="node34" class="node"><title>Node34</title>
<g id="a_node34"><a xlink:href="messages_8h.html" target="_top" xlink:title="Constant human&#45;readable messages used within playd. ">
<polygon fill="white" stroke="black" points="216.5,-347.5 216.5,-366.5 289.5,-366.5 289.5,-347.5 216.5,-347.5"/>
<text text-anchor="middle" x="253" y="-354.5" font-family="Helvetica,sans-Serif" font-size="10.00">messages.h</text>
</a>
</g>
</g>
<!-- Node1&#45;&gt;Node34 -->
<g id="edge84" class="edge"><title>Node1&#45;&gt;Node34</title>
<path fill="none" stroke="midnightblue" d="M253,-459.368C253,-441.617 253,-400.666 253,-376.597"/>
<polygon fill="midnightblue" stroke="midnightblue" points="256.5,-376.591 253,-366.591 249.5,-376.591 256.5,-376.591"/>
</g>
<!-- Node5 -->
<g id="node5" class="node"><title>Node5</title>
<polygon fill="white" stroke="#bfbfbf" points="1931.5,-62 1931.5,-81 1968.5,-81 1968.5,-62 1931.5,-62"/>
<text text-anchor="middle" x="1950" y="-69" font-family="Helvetica,sans-Serif" font-size="10.00">map</text>
</g>
<!-- Node4&#45;&gt;Node5 -->
<g id="edge4" class="edge"><title>Node4&#45;&gt;Node5</title>
<path fill="none" stroke="midnightblue" d="M1538.28,-408.288C1639.68,-394.202 1979,-340.039 1979,-246 1979,-246 1979,-246 1979,-188 1979,-152.643 1966.06,-112.982 1957.47,-90.5454"/>
<polygon fill="midnightblue" stroke="midnightblue" points="1960.62,-89.0076 1953.67,-81.0092 1954.12,-91.5947 1960.62,-89.0076"/>
</g>
<!-- Node6 -->
<g id="node6" class="node"><title>Node6</title>
<polygon fill="white" stroke="#bfbfbf" points="301,-123.5 301,-142.5 355,-142.5 355,-123.5 301,-123.5"/>
<text text-anchor="middle" x="328" y="-130.5" font-family="Helvetica,sans-Serif" font-size="10.00">memory</text>
</g>
<!-- Node4&#45;&gt;Node6 -->
<g id="edge5" class="edge"><title>Node4&#45;&gt;Node6</title>
<path fill="none" stroke="midnightblue" d="M1481.95,-410.877C1304.02,-403.572 340,-361.262 340,-302 340,-302 340,-302 340,-244 340,-211.758 334.842,-174.512 331.289,-152.681"/>
<polygon fill="midnightblue" stroke="midnightblue" points="334.69,-151.798 329.569,-142.523 327.788,-152.967 334.69,-151.798"/>
</g>
<!-- Node7 -->
<g id="node7" class="node"><title>Node7</title>
<polygon fill="white" stroke="#bfbfbf" points="1468,-62 1468,-81 1514,-81 1514,-62 1468,-62"/>
<text text-anchor="middle" x="1491" y="-69" font-family="Helvetica,sans-Serif" font-size="10.00">vector</text>
</g>
<!-- Node4&#45;&gt;Node7 -->
<g id="edge6" class="edge"><title>Node4&#45;&gt;Node7</title>
<path fill="none" stroke="midnightblue" d="M1509.51,-403.267C1507.01,-358.517 1495.59,-154.569 1492.05,-91.2851"/>
<polygon fill="midnightblue" stroke="midnightblue" points="1495.54,-90.9644 1491.49,-81.1756 1488.55,-91.3556 1495.54,-90.9644"/>
</g>
<!-- Node4&#45;&gt;Node8 -->
<g id="edge7" class="edge"><title>Node4&#45;&gt;Node8</title>
<path fill="none" stroke="midnightblue" d="M1538.27,-408.095C1563.42,-403.067 1599.21,-391.802 1619,-367 1656.38,-320.164 1654.53,-243.841 1651.3,-208.741"/>
<polygon fill="midnightblue" stroke="midnightblue" points="1654.75,-208.09 1650.2,-198.52 1647.79,-208.836 1654.75,-208.09"/>
</g>
<!-- Node14 -->
<g id="node14" class="node"><title>Node14</title>
<g id="a_node14"><a xlink:href="player_8hpp.html" target="_top" xlink:title="Declaration of the Player class, and associated types. ">
<polygon fill="white" stroke="black" points="1366,-347.5 1366,-366.5 1464,-366.5 1464,-347.5 1366,-347.5"/>
<text text-anchor="middle" x="1415" y="-354.5" font-family="Helvetica,sans-Serif" font-size="10.00">player/player.hpp</text>
</a>
</g>
</g>
<!-- Node4&#45;&gt;Node14 -->
<g id="edge20" class="edge"><title>Node4&#45;&gt;Node14</title>
<path fill="none" stroke="midnightblue" d="M1494.74,-403.324C1479.78,-394.822 1456.75,-381.729 1439.27,-371.797"/>
<polygon fill="midnightblue" stroke="midnightblue" points="1440.65,-368.553 1430.23,-366.655 1437.19,-374.639 1440.65,-368.553"/>
</g>
<!-- Node8&#45;&gt;Node3 -->
<g id="edge9" class="edge"><title>Node8&#45;&gt;Node3</title>
<path fill="none" stroke="midnightblue" d="M1630.8,-179.389C1599.14,-164.859 1531.51,-135.808 1471,-123 1399.8,-107.929 884.414,-80.9134 750.649,-74.096"/>
<polygon fill="midnightblue" stroke="midnightblue" points="750.802,-70.5993 740.637,-73.5872 750.447,-77.5903 750.802,-70.5993"/>
</g>
<!-- Node8&#45;&gt;Node7 -->
<g id="edge10" class="edge"><title>Node8&#45;&gt;Node7</title>
<path fill="none" stroke="midnightblue" d="M1667.98,-179.419C1691.98,-167.399 1728.2,-144.592 1711,-123 1699.34,-108.361 1582.58,-87.4494 1524.06,-77.7782"/>
<polygon fill="midnightblue" stroke="midnightblue" points="1524.62,-74.3233 1514.19,-76.1616 1523.49,-81.2314 1524.62,-74.3233"/>
</g>
<!-- Node9 -->
<g id="node9" class="node"><title>Node9</title>
<polygon fill="white" stroke="#bfbfbf" points="1295.5,-0.5 1295.5,-19.5 1342.5,-19.5 1342.5,-0.5 1295.5,-0.5"/>
<text text-anchor="middle" x="1319" y="-7.5" font-family="Helvetica,sans-Serif" font-size="10.00">cstdint</text>
</g>
<!-- Node8&#45;&gt;Node9 -->
<g id="edge8" class="edge"><title>Node8&#45;&gt;Node9</title>
<path fill="none" stroke="midnightblue" d="M1678.88,-179.387C1696.54,-172.587 1717.45,-161.15 1728,-143 1748.24,-108.182 1703.42,-67.5828 1685,-56 1630.13,-21.5023 1433.1,-13.4245 1353.11,-11.5547"/>
<polygon fill="midnightblue" stroke="midnightblue" points="1352.7,-8.04521 1342.63,-11.33 1352.55,-15.0436 1352.7,-8.04521"/>
</g>
<!-- Node8&#45;&gt;Node10 -->
<g id="edge11" class="edge"><title>Node8&#45;&gt;Node10</title>
<path fill="none" stroke="midnightblue" d="M1649,-179.083C1649,-172.006 1649,-161.861 1649,-152.986"/>
<polygon fill="midnightblue" stroke="midnightblue" points="1652.5,-152.751 1649,-142.751 1645.5,-152.751 1652.5,-152.751"/>
</g>
<!-- Node10&#45;&gt;Node3 -->
<g id="edge15" class="edge"><title>Node10&#45;&gt;Node3</title>
<path fill="none" stroke="midnightblue" d="M1595.22,-124.513C1590.42,-123.956 1585.62,-123.441 1581,-123 1415,-107.173 886.508,-80.7153 750.936,-74.0571"/>
<polygon fill="midnightblue" stroke="midnightblue" points="750.961,-70.5542 740.802,-73.5603 750.618,-77.5458 750.961,-70.5542"/>
</g>
<!-- Node10&#45;&gt;Node5 -->
<g id="edge13" class="edge"><title>Node10&#45;&gt;Node5</title>
<path fill="none" stroke="midnightblue" d="M1692.13,-123.475C1754.48,-111.15 1868.14,-88.6819 1921.23,-78.1862"/>
<polygon fill="midnightblue" stroke="midnightblue" points="1922.18,-81.5675 1931.31,-76.1946 1920.82,-74.7003 1922.18,-81.5675"/>
</g>
<!-- Node10&#45;&gt;Node7 -->
<g id="edge16" class="edge"><title>Node10&#45;&gt;Node7</title>
<path fill="none" stroke="midnightblue" d="M1626.36,-123.475C1599.26,-113.269 1553.69,-96.108 1523,-84.5492"/>
<polygon fill="midnightblue" stroke="midnightblue" points="1524.19,-81.2579 1513.6,-81.0091 1521.72,-87.8088 1524.19,-81.2579"/>
</g>
<!-- Node10&#45;&gt;Node9 -->
<g id="edge12" class="edge"><title>Node10&#45;&gt;Node9</title>
<path fill="none" stroke="midnightblue" d="M1637.52,-123.289C1616.15,-107.495 1568.31,-74.0953 1523,-56 1465.52,-33.0477 1394.03,-20.6997 1352.74,-15.0171"/>
<polygon fill="midnightblue" stroke="midnightblue" points="1353.05,-11.5273 1342.68,-13.682 1352.13,-18.4666 1353.05,-11.5273"/>
</g>
<!-- Node11 -->
<g id="node11" class="node"><title>Node11</title>
<polygon fill="white" stroke="#bfbfbf" points="1621.5,-62 1621.5,-81 1676.5,-81 1676.5,-62 1621.5,-62"/>
<text text-anchor="middle" x="1649" y="-69" font-family="Helvetica,sans-Serif" font-size="10.00">ostream</text>
</g>
<!-- Node10&#45;&gt;Node11 -->
<g id="edge14" class="edge"><title>Node10&#45;&gt;Node11</title>
<path fill="none" stroke="midnightblue" d="M1649,-123.475C1649,-115.08 1649,-101.981 1649,-91.1631"/>
<polygon fill="midnightblue" stroke="midnightblue" points="1652.5,-91.0091 1649,-81.0091 1645.5,-91.0091 1652.5,-91.0091"/>
</g>
<!-- Node10&#45;&gt;Node12 -->
<g id="edge17" class="edge"><title>Node10&#45;&gt;Node12</title>
<path fill="none" stroke="midnightblue" d="M1595.26,-129.133C1559.95,-127.286 1512.73,-124.887 1471,-123 994.622,-101.464 417.264,-80.216 250.904,-74.1885"/>
<polygon fill="midnightblue" stroke="midnightblue" points="250.666,-70.6777 240.546,-73.8137 250.413,-77.6732 250.666,-70.6777"/>
</g>
<!-- Node12&#45;&gt;Node2 -->
<g id="edge18" class="edge"><title>Node12&#45;&gt;Node2</title>
<path fill="none" stroke="midnightblue" d="M184.085,-61.9751C160.551,-51.9013 121.19,-35.0525 94.2071,-23.5023"/>
<polygon fill="midnightblue" stroke="midnightblue" points="95.4489,-20.2267 84.8784,-19.5091 92.6942,-26.662 95.4489,-20.2267"/>
</g>
<!-- Node13 -->
<g id="node13" class="node"><title>Node13</title>
<polygon fill="white" stroke="#bfbfbf" points="177,-0.5 177,-19.5 231,-19.5 231,-0.5 177,-0.5"/>
<text text-anchor="middle" x="204" y="-7.5" font-family="Helvetica,sans-Serif" font-size="10.00">sstream</text>
</g>
<!-- Node12&#45;&gt;Node13 -->
<g id="edge19" class="edge"><title>Node12&#45;&gt;Node13</title>
<path fill="none" stroke="midnightblue" d="M204,-61.9751C204,-53.5803 204,-40.4806 204,-29.6631"/>
<polygon fill="midnightblue" stroke="midnightblue" points="207.5,-29.5091 204,-19.5091 200.5,-29.5091 207.5,-29.5091"/>
</g>
<!-- Node14&#45;&gt;Node3 -->
<g id="edge24" class="edge"><title>Node14&#45;&gt;Node3</title>
<path fill="none" stroke="midnightblue" d="M1365.8,-355.42C1175.32,-352.216 488.909,-331.516 326,-199 297.294,-175.65 267.419,-150.66 292,-123 318.231,-93.4834 592.816,-78.26 687.283,-73.8669"/>
<polygon fill="midnightblue" stroke="midnightblue" points="687.548,-77.3586 697.378,-73.407 687.229,-70.3658 687.548,-77.3586"/>
</g>
<!-- Node14&#45;&gt;Node5 -->
<g id="edge22" class="edge"><title>Node14&#45;&gt;Node5</title>
<path fill="none" stroke="midnightblue" d="M1464.01,-356.078C1594.59,-354.973 1941,-342.91 1941,-246 1941,-246 1941,-246 1941,-188 1941,-153.76 1944.98,-113.983 1947.65,-91.1743"/>
<polygon fill="midnightblue" stroke="midnightblue" points="1951.13,-91.5243 1948.86,-81.1754 1944.18,-90.6808 1951.13,-91.5243"/>
</g>
<!-- Node14&#45;&gt;Node6 -->
<g id="edge23" class="edge"><title>Node14&#45;&gt;Node6</title>
<path fill="none" stroke="midnightblue" d="M1365.81,-353.511C1236.57,-346.221 877.268,-321.104 586,-255 501.809,-235.893 475.202,-241.401 400,-199 377.437,-186.278 355.995,-165.379 342.473,-150.721"/>
<polygon fill="midnightblue" stroke="midnightblue" points="344.759,-148.029 335.477,-142.921 339.548,-152.703 344.759,-148.029"/>
</g>
<!-- Node14&#45;&gt;Node7 -->
<g id="edge26" class="edge"><title>Node14&#45;&gt;Node7</title>
<path fill="none" stroke="midnightblue" d="M1417.36,-347.205C1427.95,-307.683 1471.28,-146.06 1486.04,-90.984"/>
<polygon fill="midnightblue" stroke="midnightblue" points="1489.46,-91.7581 1488.67,-81.1929 1482.7,-89.9455 1489.46,-91.7581"/>
</g>
<!-- Node14&#45;&gt;Node8 -->
<g id="edge46" class="edge"><title>Node14&#45;&gt;Node8</title>
<path fill="none" stroke="midnightblue" d="M1435.41,-347.456C1454.15,-339.228 1482.37,-325.867 1505,-311 1554.99,-278.158 1607.17,-230.365 1632.81,-205.831"/>
<polygon fill="midnightblue" stroke="midnightblue" points="1635.4,-208.195 1640.16,-198.731 1630.54,-203.158 1635.4,-208.195"/>
</g>
<!-- Node14&#45;&gt;Node9 -->
<g id="edge21" class="edge"><title>Node14&#45;&gt;Node9</title>
<path fill="none" stroke="midnightblue" d="M1365.81,-354.723C1212.01,-350.51 741.539,-335.879 591,-311 499.928,-295.949 476.603,-289.536 391,-255 293.631,-215.717 236.84,-233.139 183,-143 178.442,-135.369 177.143,-129.686 183,-123 220.299,-80.425 631.689,-61.7381 688,-56 915.772,-32.7902 1191.01,-17.5405 1285.37,-12.6776"/>
<polygon fill="midnightblue" stroke="midnightblue" points="1285.65,-16.1679 1295.46,-12.1618 1285.3,-9.17699 1285.65,-16.1679"/>
</g>
<!-- Node14&#45;&gt;Node10 -->
<g id="edge45" class="edge"><title>Node14&#45;&gt;Node10</title>
<path fill="none" stroke="midnightblue" d="M1425.58,-347.285C1436.26,-338.397 1453.09,-324.092 1467,-311 1526.73,-254.778 1536,-234.94 1596,-179 1607.04,-168.711 1619.93,-157.741 1630.24,-149.208"/>
<polygon fill="midnightblue" stroke="midnightblue" points="1632.68,-151.731 1638.19,-142.682 1628.24,-146.32 1632.68,-151.731"/>
</g>
<!-- Node15 -->
<g id="node15" class="node"><title>Node15</title>
<polygon fill="white" stroke="#bfbfbf" points="411,-123.5 411,-142.5 451,-142.5 451,-123.5 411,-123.5"/>
<text text-anchor="middle" x="431" y="-130.5" font-family="Helvetica,sans-Serif" font-size="10.00">utility</text>
</g>
<!-- Node14&#45;&gt;Node15 -->
<g id="edge25" class="edge"><title>Node14&#45;&gt;Node15</title>
<path fill="none" stroke="midnightblue" d="M1365.82,-351.454C1234.17,-338.31 863.833,-294.922 571,-199 528.857,-185.195 482.696,-162.076 455.323,-147.453"/>
<polygon fill="midnightblue" stroke="midnightblue" points="456.923,-144.34 446.461,-142.665 453.595,-150.498 456.923,-144.34"/>
</g>
<!-- Node16 -->
<g id="node16" class="node"><title>Node16</title>
<g id="a_node16"><a xlink:href="audio_8hpp.html" target="_top" xlink:title="Declaration of the Audio class. ">
<polygon fill="white" stroke="black" points="1123,-179.5 1123,-198.5 1221,-198.5 1221,-179.5 1123,-179.5"/>
<text text-anchor="middle" x="1172" y="-186.5" font-family="Helvetica,sans-Serif" font-size="10.00">../audio/audio.hpp</text>
</a>
</g>
</g>
<!-- Node14&#45;&gt;Node16 -->
<g id="edge27" class="edge"><title>Node14&#45;&gt;Node16</title>
<path fill="none" stroke="midnightblue" d="M1402.28,-347.309C1362.75,-320.304 1241.78,-237.667 1192.86,-204.248"/>
<polygon fill="midnightblue" stroke="midnightblue" points="1194.83,-201.356 1184.6,-198.605 1190.88,-207.136 1194.83,-201.356"/>
</g>
<!-- Node23 -->
<g id="node23" class="node"><title>Node23</title>
<g id="a_node23"><a xlink:href="player__file_8hpp.html" target="_top" xlink:title="Declaration of the PlayerFile class, and associated types. ">
<polygon fill="white" stroke="black" points="1137,-291.5 1137,-310.5 1223,-310.5 1223,-291.5 1137,-291.5"/>
<text text-anchor="middle" x="1180" y="-298.5" font-family="Helvetica,sans-Serif" font-size="10.00">player_file.hpp</text>
</a>
</g>
</g>
<!-- Node14&#45;&gt;Node23 -->
<g id="edge47" class="edge"><title>Node14&#45;&gt;Node23</title>
<path fill="none" stroke="midnightblue" d="M1377.76,-347.444C1336.94,-338.063 1271.36,-322.993 1227.02,-312.804"/>
<polygon fill="midnightblue" stroke="midnightblue" points="1227.59,-309.345 1217.06,-310.516 1226.02,-316.167 1227.59,-309.345"/>
</g>
<!-- Node30 -->
<g id="node30" class="node"><title>Node30</title>
<g id="a_node30"><a xlink:href="player__position_8hpp.html" target="_top" xlink:title="Declaration of the PlayerPosition class. ">
<polygon fill="white" stroke="black" points="1315.5,-179.5 1315.5,-198.5 1424.5,-198.5 1424.5,-179.5 1315.5,-179.5"/>
<text text-anchor="middle" x="1370" y="-186.5" font-family="Helvetica,sans-Serif" font-size="10.00">player_position.hpp</text>
</a>
</g>
</g>
<!-- Node14&#45;&gt;Node30 -->
<g id="edge76" class="edge"><title>Node14&#45;&gt;Node30</title>
<path fill="none" stroke="midnightblue" d="M1412.58,-347.075C1405.5,-320.945 1384.7,-244.211 1375.04,-208.577"/>
<polygon fill="midnightblue" stroke="midnightblue" points="1378.32,-207.304 1372.32,-198.568 1371.56,-209.136 1378.32,-207.304"/>
</g>
<!-- Node32 -->
<g id="node32" class="node"><title>Node32</title>
<g id="a_node32"><a xlink:href="player__state_8hpp.html" target="_top" xlink:title="Declaration of the PlayerState class, and associated types. ">
<polygon fill="white" stroke="black" points="1773.5,-179.5 1773.5,-198.5 1868.5,-198.5 1868.5,-179.5 1773.5,-179.5"/>
<text text-anchor="middle" x="1821" y="-186.5" font-family="Helvetica,sans-Serif" font-size="10.00">player_state.hpp</text>
</a>
</g>
</g>
<!-- Node14&#45;&gt;Node32 -->
<g id="edge77" class="edge"><title>Node14&#45;&gt;Node32</title>
<path fill="none" stroke="midnightblue" d="M1438.15,-347.432C1462.01,-338.542 1500.23,-324.127 1533,-311 1628.3,-272.821 1740.14,-224.943 1791.94,-202.587"/>
<polygon fill="midnightblue" stroke="midnightblue" points="1793.4,-205.77 1801.19,-198.591 1790.62,-199.344 1793.4,-205.77"/>
</g>
<!-- Node16&#45;&gt;Node3 -->
<g id="edge30" class="edge"><title>Node16&#45;&gt;Node3</title>
<path fill="none" stroke="midnightblue" d="M1162.37,-179.333C1145.84,-164.99 1110.4,-136.554 1075,-123 961.474,-79.5354 814.668,-72.9751 750.903,-72.3244"/>
<polygon fill="midnightblue" stroke="midnightblue" points="750.713,-68.8234 740.693,-72.2649 750.672,-75.8233 750.713,-68.8234"/>
</g>
<!-- Node16&#45;&gt;Node6 -->
<g id="edge29" class="edge"><title>Node16&#45;&gt;Node6</title>
<path fill="none" stroke="midnightblue" d="M1122.97,-184.105C1101.24,-182.435 1075.35,-180.522 1052,-179 763.281,-160.18 690.208,-168.48 402,-143 389.935,-141.933 376.802,-140.444 364.994,-138.983"/>
<polygon fill="midnightblue" stroke="midnightblue" points="365.379,-135.504 355.018,-137.718 364.499,-142.448 365.379,-135.504"/>
</g>
<!-- Node16&#45;&gt;Node7 -->
<g id="edge32" class="edge"><title>Node16&#45;&gt;Node7</title>
<path fill="none" stroke="midnightblue" d="M1212.23,-179.429C1246.87,-171.545 1297.93,-158.712 1341,-143 1386.42,-126.432 1436.83,-101.246 1466.11,-85.8894"/>
<polygon fill="midnightblue" stroke="midnightblue" points="1468,-88.8539 1475.2,-81.085 1464.72,-82.6659 1468,-88.8539"/>
</g>
<!-- Node16&#45;&gt;Node9 -->
<g id="edge28" class="edge"><title>Node16&#45;&gt;Node9</title>
<path fill="none" stroke="midnightblue" d="M1203.35,-179.497C1224.29,-172.515 1251.3,-160.831 1270,-143 1302.18,-112.306 1313.37,-58.5709 1317.15,-30.0466"/>
<polygon fill="midnightblue" stroke="midnightblue" points="1320.66,-30.1528 1318.33,-19.8184 1313.71,-29.3532 1320.66,-30.1528"/>
</g>
<!-- Node16&#45;&gt;Node10 -->
<g id="edge35" class="edge"><title>Node16&#45;&gt;Node10</title>
<path fill="none" stroke="midnightblue" d="M1221.25,-182.424C1308.18,-172.584 1488.72,-152.145 1585.11,-141.233"/>
<polygon fill="midnightblue" stroke="midnightblue" points="1585.75,-144.682 1595.3,-140.08 1584.97,-137.727 1585.75,-144.682"/>
</g>
<!-- Node16&#45;&gt;Node15 -->
<g id="edge31" class="edge"><title>Node16&#45;&gt;Node15</title>
<path fill="none" stroke="midnightblue" d="M1122.97,-184.165C1101.23,-182.506 1075.35,-180.585 1052,-179 792.347,-161.369 721.1,-189.671 461.245,-142.771"/>
<polygon fill="midnightblue" stroke="midnightblue" points="461.593,-139.277 451.127,-140.924 460.336,-146.163 461.593,-139.277"/>
</g>
<!-- Node17 -->
<g id="node17" class="node"><title>Node17</title>
<polygon fill="white" stroke="#bfbfbf" points="997.5,-123.5 997.5,-142.5 1066.5,-142.5 1066.5,-123.5 997.5,-123.5"/>
<text text-anchor="middle" x="1032" y="-130.5" font-family="Helvetica,sans-Serif" font-size="10.00">portaudio.h</text>
</g>
<!-- Node16&#45;&gt;Node17 -->
<g id="edge33" class="edge"><title>Node16&#45;&gt;Node17</title>
<path fill="none" stroke="midnightblue" d="M1149.82,-179.444C1126.57,-170.478 1089.85,-156.314 1063.58,-146.183"/>
<polygon fill="midnightblue" stroke="midnightblue" points="1064.67,-142.85 1054.08,-142.516 1062.15,-149.381 1064.67,-142.85"/>
</g>
<!-- Node18 -->
<g id="node18" class="node"><title>Node18</title>
<polygon fill="white" stroke="#bfbfbf" points="797,-123.5 797,-142.5 979,-142.5 979,-123.5 797,-123.5"/>
<text text-anchor="middle" x="888" y="-130.5" font-family="Helvetica,sans-Serif" font-size="10.00">portaudiocpp/CallbackInterface.hxx</text>
</g>
<!-- Node16&#45;&gt;Node18 -->
<g id="edge34" class="edge"><title>Node16&#45;&gt;Node18</title>
<path fill="none" stroke="midnightblue" d="M1127,-179.444C1077.04,-169.944 996.399,-154.611 942.801,-144.42"/>
<polygon fill="midnightblue" stroke="midnightblue" points="943.268,-140.946 932.79,-142.516 941.96,-147.823 943.268,-140.946"/>
</g>
<!-- Node19 -->
<g id="node19" class="node"><title>Node19</title>
<g id="a_node19"><a xlink:href="audio__source_8hpp.html" target="_top" xlink:title="Declaration of the AudioSource class. ">
<polygon fill="white" stroke="black" points="1161,-123.5 1161,-142.5 1261,-142.5 1261,-123.5 1161,-123.5"/>
<text text-anchor="middle" x="1211" y="-130.5" font-family="Helvetica,sans-Serif" font-size="10.00">audio_source.hpp</text>
</a>
</g>
</g>
<!-- Node16&#45;&gt;Node19 -->
<g id="edge36" class="edge"><title>Node16&#45;&gt;Node19</title>
<path fill="none" stroke="midnightblue" d="M1178.44,-179.083C1183.95,-171.455 1192.03,-160.264 1198.76,-150.941"/>
<polygon fill="midnightblue" stroke="midnightblue" points="1201.66,-152.907 1204.68,-142.751 1195.99,-148.809 1201.66,-152.907"/>
</g>
<!-- Node19&#45;&gt;Node3 -->
<g id="edge39" class="edge"><title>Node19&#45;&gt;Node3</title>
<path fill="none" stroke="midnightblue" d="M1160.71,-124.82C1156.07,-124.191 1151.45,-123.575 1147,-123 999.135,-103.882 822.138,-83.9287 750.954,-76.0241"/>
<polygon fill="midnightblue" stroke="midnightblue" points="751.171,-72.5268 740.846,-74.9038 750.4,-79.4842 751.171,-72.5268"/>
</g>
<!-- Node19&#45;&gt;Node7 -->
<g id="edge40" class="edge"><title>Node19&#45;&gt;Node7</title>
<path fill="none" stroke="midnightblue" d="M1251.12,-123.475C1306.71,-111.661 1406.16,-90.5276 1457.81,-79.5519"/>
<polygon fill="midnightblue" stroke="midnightblue" points="1458.73,-82.9367 1467.78,-77.4344 1457.27,-76.0895 1458.73,-82.9367"/>
</g>
<!-- Node19&#45;&gt;Node9 -->
<g id="edge38" class="edge"><title>Node19&#45;&gt;Node9</title>
<path fill="none" stroke="midnightblue" d="M1202.46,-123.33C1188.86,-108.453 1165.34,-77.5833 1181,-56 1204.71,-23.3342 1252.77,-13.9284 1285.43,-11.464"/>
<polygon fill="midnightblue" stroke="midnightblue" points="1285.66,-14.9566 1295.44,-10.8871 1285.26,-7.96818 1285.66,-14.9566"/>
</g>
<!-- Node19&#45;&gt;Node12 -->
<g id="edge42" class="edge"><title>Node19&#45;&gt;Node12</title>
<path fill="none" stroke="midnightblue" d="M1160.95,-128.59C1135.26,-126.864 1103.46,-124.767 1075,-123 760.009,-103.446 380.784,-82.2694 250.543,-75.0644"/>
<polygon fill="midnightblue" stroke="midnightblue" points="250.694,-71.5675 240.516,-74.5101 250.308,-78.5568 250.694,-71.5675"/>
</g>
<!-- Node20 -->
<g id="node20" class="node"><title>Node20</title>
<polygon fill="white" stroke="#bfbfbf" points="1190.5,-62 1190.5,-81 1231.5,-81 1231.5,-62 1190.5,-62"/>
<text text-anchor="middle" x="1211" y="-69" font-family="Helvetica,sans-Serif" font-size="10.00">array</text>
</g>
<!-- Node19&#45;&gt;Node20 -->
<g id="edge37" class="edge"><title>Node19&#45;&gt;Node20</title>
<path fill="none" stroke="midnightblue" d="M1211,-123.475C1211,-115.08 1211,-101.981 1211,-91.1631"/>
<polygon fill="midnightblue" stroke="midnightblue" points="1214.5,-91.0091 1211,-81.0091 1207.5,-91.0091 1214.5,-91.0091"/>
</g>
<!-- Node21 -->
<g id="node21" class="node"><title>Node21</title>
<polygon fill="white" stroke="#bfbfbf" points="1249.5,-62 1249.5,-81 1290.5,-81 1290.5,-62 1249.5,-62"/>
<text text-anchor="middle" x="1270" y="-69" font-family="Helvetica,sans-Serif" font-size="10.00">sox.h</text>
</g>
<!-- Node19&#45;&gt;Node21 -->
<g id="edge41" class="edge"><title>Node19&#45;&gt;Node21</title>
<path fill="none" stroke="midnightblue" d="M1219.45,-123.475C1228.57,-114.285 1243.27,-99.4563 1254.48,-88.156"/>
<polygon fill="midnightblue" stroke="midnightblue" points="1257.01,-90.5744 1261.56,-81.0091 1252.04,-85.6455 1257.01,-90.5744"/>
</g>
<!-- Node22 -->
<g id="node22" class="node"><title>Node22</title>
<g id="a_node22"><a xlink:href="sample__formats_8hpp.html" target="_top" xlink:title="The SampleFormat enumeration. ">
<polygon fill="white" stroke="black" points="1014.5,-62 1014.5,-81 1133.5,-81 1133.5,-62 1014.5,-62"/>
<text text-anchor="middle" x="1074" y="-69" font-family="Helvetica,sans-Serif" font-size="10.00">../sample_formats.hpp</text>
</a>
</g>
</g>
<!-- Node19&#45;&gt;Node22 -->
<g id="edge43" class="edge"><title>Node19&#45;&gt;Node22</title>
<path fill="none" stroke="midnightblue" d="M1191.37,-123.475C1168.18,-113.401 1129.38,-96.5525 1102.79,-85.0023"/>
<polygon fill="midnightblue" stroke="midnightblue" points="1104.16,-81.7824 1093.59,-81.0091 1101.37,-88.203 1104.16,-81.7824"/>
</g>
<!-- Node22&#45;&gt;Node9 -->
<g id="edge44" class="edge"><title>Node22&#45;&gt;Node9</title>
<path fill="none" stroke="midnightblue" d="M1109.1,-61.9751C1156.22,-50.5334 1239.32,-30.3518 1285.56,-19.1204"/>
<polygon fill="midnightblue" stroke="midnightblue" points="1286.5,-22.4946 1295.39,-16.7334 1284.85,-15.6923 1286.5,-22.4946"/>
</g>
<!-- Node23&#45;&gt;Node6 -->
<g id="edge48" class="edge"><title>Node23&#45;&gt;Node6</title>
<path fill="none" stroke="midnightblue" d="M1136.94,-299.214C1022.45,-296.03 702.117,-279.969 451,-199 413.051,-186.764 372.896,-163.279 349.162,-148.141"/>
<polygon fill="midnightblue" stroke="midnightblue" points="350.916,-145.107 340.622,-142.6 347.105,-150.979 350.916,-145.107"/>
</g>
<!-- Node23&#45;&gt;Node10 -->
<g id="edge70" class="edge"><title>Node23&#45;&gt;Node10</title>
<path fill="none" stroke="midnightblue" d="M1204.23,-291.425C1281.98,-263.904 1525.37,-177.757 1615.23,-145.953"/>
<polygon fill="midnightblue" stroke="midnightblue" points="1616.66,-149.16 1624.92,-142.524 1614.32,-142.561 1616.66,-149.16"/>
</g>
<!-- Node23&#45;&gt;Node16 -->
<g id="edge69" class="edge"><title>Node23&#45;&gt;Node16</title>
<path fill="none" stroke="midnightblue" d="M1179.37,-291.368C1178.08,-273.617 1175.1,-232.666 1173.35,-208.597"/>
<polygon fill="midnightblue" stroke="midnightblue" points="1176.84,-208.311 1172.62,-198.591 1169.86,-208.819 1176.84,-208.311"/>
</g>
<!-- Node24 -->
<g id="node24" class="node"><title>Node24</title>
<g id="a_node24"><a xlink:href="audio__system_8hpp.html" target="_top" xlink:title="Declaration of the AudioSystem class. ">
<polygon fill="white" stroke="black" points="879.5,-235.5 879.5,-254.5 1016.5,-254.5 1016.5,-235.5 879.5,-235.5"/>
<text text-anchor="middle" x="948" y="-242.5" font-family="Helvetica,sans-Serif" font-size="10.00">../audio/audio_system.hpp</text>
</a>
</g>
</g>
<!-- Node23&#45;&gt;Node24 -->
<g id="edge49" class="edge"><title>Node23&#45;&gt;Node24</title>
<path fill="none" stroke="midnightblue" d="M1143.24,-291.444C1102.94,-282.063 1038.19,-266.993 994.415,-256.804"/>
<polygon fill="midnightblue" stroke="midnightblue" points="995.122,-253.375 984.589,-254.516 993.535,-260.192 995.122,-253.375"/>
</g>
<!-- Node23&#45;&gt;Node30 -->
<g id="edge71" class="edge"><title>Node23&#45;&gt;Node30</title>
<path fill="none" stroke="midnightblue" d="M1194.91,-291.368C1227.79,-272.332 1306.76,-226.615 1346.42,-203.65"/>
<polygon fill="midnightblue" stroke="midnightblue" points="1348.26,-206.631 1355.16,-198.591 1344.75,-200.573 1348.26,-206.631"/>
</g>
<!-- Node24&#45;&gt;Node3 -->
<g id="edge50" class="edge"><title>Node24&#45;&gt;Node3</title>
<path fill="none" stroke="midnightblue" d="M879.402,-242.517C745.39,-237.94 457.06,-219.249 402,-143 396.796,-135.794 396.23,-129.762 402,-123 438.386,-80.3587 613.343,-73.5498 686.614,-72.5892"/>
<polygon fill="midnightblue" stroke="midnightblue" points="687.098,-76.0846 697.062,-72.4835 687.027,-69.085 687.098,-76.0846"/>
</g>
<!-- Node24&#45;&gt;Node15 -->
<g id="edge51" class="edge"><title>Node24&#45;&gt;Node15</title>
<path fill="none" stroke="midnightblue" d="M879.336,-236.189C819.036,-228.706 729.15,-216.036 652,-199 568.254,-180.507 546.612,-169.417 460.899,-143.259"/>
<polygon fill="midnightblue" stroke="midnightblue" points="461.853,-139.891 451.268,-140.339 459.822,-146.59 461.853,-139.891"/>
</g>
<!-- Node24&#45;&gt;Node16 -->
<g id="edge68" class="edge"><title>Node24&#45;&gt;Node16</title>
<path fill="none" stroke="midnightblue" d="M983.493,-235.444C1022.32,-226.083 1084.66,-211.056 1126.92,-200.868"/>
<polygon fill="midnightblue" stroke="midnightblue" points="1127.77,-204.263 1136.67,-198.516 1126.13,-197.458 1127.77,-204.263"/>
</g>
<!-- Node24&#45;&gt;Node19 -->
<g id="edge67" class="edge"><title>Node24&#45;&gt;Node19</title>
<path fill="none" stroke="midnightblue" d="M1016.81,-242.885C1091.31,-240.048 1203.13,-230.494 1230,-199 1241.52,-185.499 1232.85,-165.323 1223.79,-151.036"/>
<polygon fill="midnightblue" stroke="midnightblue" points="1226.55,-148.873 1218,-142.627 1220.79,-152.847 1226.55,-148.873"/>
</g>
<!-- Node24&#45;&gt;Node22 -->
<g id="edge54" class="edge"><title>Node24&#45;&gt;Node22</title>
<path fill="none" stroke="midnightblue" d="M985.26,-235.446C1007.14,-228.745 1033.95,-217.393 1052,-199 1080.28,-170.185 1079.56,-118.821 1076.71,-91.2393"/>
<polygon fill="midnightblue" stroke="midnightblue" points="1080.15,-90.5025 1075.44,-81.0099 1073.2,-91.365 1080.15,-90.5025"/>
</g>
<!-- Node25 -->
<g id="node25" class="node"><title>Node25</title>
<polygon fill="white" stroke="#bfbfbf" points="852.5,-179.5 852.5,-198.5 1043.5,-198.5 1043.5,-179.5 852.5,-179.5"/>
<text text-anchor="middle" x="948" y="-186.5" font-family="Helvetica,sans-Serif" font-size="10.00">portaudiocpp/SampleDataFormat.hxx</text>
</g>
<!-- Node24&#45;&gt;Node25 -->
<g id="edge52" class="edge"><title>Node24&#45;&gt;Node25</title>
<path fill="none" stroke="midnightblue" d="M948,-235.083C948,-228.006 948,-217.861 948,-208.986"/>
<polygon fill="midnightblue" stroke="midnightblue" points="951.5,-208.751 948,-198.751 944.5,-208.751 951.5,-208.751"/>
</g>
<!-- Node26 -->
<g id="node26" class="node"><title>Node26</title>
<polygon fill="white" stroke="#bfbfbf" points="469,-123.5 469,-142.5 603,-142.5 603,-123.5 469,-123.5"/>
<text text-anchor="middle" x="536" y="-130.5" font-family="Helvetica,sans-Serif" font-size="10.00">portaudiocpp/Stream.hxx</text>
</g>
<!-- Node24&#45;&gt;Node26 -->
<g id="edge53" class="edge"><title>Node24&#45;&gt;Node26</title>
<path fill="none" stroke="midnightblue" d="M890.7,-235.427C843.394,-227.744 774.735,-215.196 716,-199 662.215,-184.169 601.541,-160.827 566.159,-146.521"/>
<polygon fill="midnightblue" stroke="midnightblue" points="567.032,-143.098 556.451,-142.566 564.391,-149.58 567.032,-143.098"/>
</g>
<!-- Node27 -->
<g id="node27" class="node"><title>Node27</title>
<g id="a_node27"><a xlink:href="audio__sink_8hpp.html" target="_top" xlink:title="Declaration of the AudioSink class. ">
<polygon fill="white" stroke="black" points="725.5,-179.5 725.5,-198.5 812.5,-198.5 812.5,-179.5 725.5,-179.5"/>
<text text-anchor="middle" x="769" y="-186.5" font-family="Helvetica,sans-Serif" font-size="10.00">audio_sink.hpp</text>
</a>
</g>
</g>
<!-- Node24&#45;&gt;Node27 -->
<g id="edge55" class="edge"><title>Node24&#45;&gt;Node27</title>
<path fill="none" stroke="midnightblue" d="M919.637,-235.444C889.262,-226.28 840.89,-211.688 807.184,-201.519"/>
<polygon fill="midnightblue" stroke="midnightblue" points="807.815,-198.054 797.23,-198.516 805.793,-204.756 807.815,-198.054"/>
</g>
<!-- Node27&#45;&gt;Node3 -->
<g id="edge58" class="edge"><title>Node27&#45;&gt;Node3</title>
<path fill="none" stroke="midnightblue" d="M765.242,-179.319C757.134,-160.59 737.851,-116.046 726.919,-90.7924"/>
<polygon fill="midnightblue" stroke="midnightblue" points="729.986,-89.0685 722.802,-81.282 723.563,-91.8495 729.986,-89.0685"/>
</g>
<!-- Node27&#45;&gt;Node6 -->
<g id="edge57" class="edge"><title>Node27&#45;&gt;Node6</title>
<path fill="none" stroke="midnightblue" d="M725.103,-182.625C638.366,-172.004 446.415,-148.5 365.321,-138.57"/>
<polygon fill="midnightblue" stroke="midnightblue" points="365.439,-135.058 355.088,-137.317 364.588,-142.006 365.439,-135.058"/>
</g>
<!-- Node27&#45;&gt;Node7 -->
<g id="edge60" class="edge"><title>Node27&#45;&gt;Node7</title>
<path fill="none" stroke="midnightblue" d="M812.795,-182.402C822.719,-181.209 833.216,-180.007 843,-179 1032.45,-159.5 1083.21,-180.175 1270,-143 1288.77,-139.264 1401.51,-102.206 1458.33,-83.3712"/>
<polygon fill="midnightblue" stroke="midnightblue" points="1459.53,-86.6584 1467.92,-80.1868 1457.33,-80.0146 1459.53,-86.6584"/>
</g>
<!-- Node27&#45;&gt;Node9 -->
<g id="edge56" class="edge"><title>Node27&#45;&gt;Node9</title>
<path fill="none" stroke="midnightblue" d="M769.061,-179.125C769.645,-165.248 772.819,-138.412 788,-123 858.473,-51.4559 1179.79,-21.4005 1285.31,-13.3475"/>
<polygon fill="midnightblue" stroke="midnightblue" points="1285.69,-16.8291 1295.4,-12.5948 1285.17,-9.84849 1285.69,-16.8291"/>
</g>
<!-- Node27&#45;&gt;Node15 -->
<g id="edge59" class="edge"><title>Node27&#45;&gt;Node15</title>
<path fill="none" stroke="midnightblue" d="M725.364,-183.819C667.098,-177.76 560.598,-165.025 461.088,-142.94"/>
<polygon fill="midnightblue" stroke="midnightblue" points="461.697,-139.489 451.172,-140.702 460.156,-146.318 461.697,-139.489"/>
</g>
<!-- Node27&#45;&gt;Node17 -->
<g id="edge61" class="edge"><title>Node27&#45;&gt;Node17</title>
<path fill="none" stroke="midnightblue" d="M810.673,-179.444C858.813,-169.559 937.717,-153.359 987.159,-143.207"/>
<polygon fill="midnightblue" stroke="midnightblue" points="988.149,-146.577 997.241,-141.137 986.741,-139.72 988.149,-146.577"/>
</g>
<!-- Node27&#45;&gt;Node18 -->
<g id="edge62" class="edge"><title>Node27&#45;&gt;Node18</title>
<path fill="none" stroke="midnightblue" d="M787.856,-179.444C807.266,-170.636 837.73,-156.812 859.965,-146.722"/>
<polygon fill="midnightblue" stroke="midnightblue" points="861.572,-149.836 869.232,-142.516 858.68,-143.462 861.572,-149.836"/>
</g>
<!-- Node27&#45;&gt;Node19 -->
<g id="edge64" class="edge"><title>Node27&#45;&gt;Node19</title>
<path fill="none" stroke="midnightblue" d="M812.59,-182.674C891.966,-172.977 1060.21,-152.422 1150.59,-141.381"/>
<polygon fill="midnightblue" stroke="midnightblue" points="1151.18,-144.835 1160.68,-140.148 1150.33,-137.886 1151.18,-144.835"/>
</g>
<!-- Node27&#45;&gt;Node26 -->
<g id="edge63" class="edge"><title>Node27&#45;&gt;Node26</title>
<path fill="none" stroke="midnightblue" d="M732.08,-179.444C691.605,-170.063 626.579,-154.993 582.616,-144.804"/>
<polygon fill="midnightblue" stroke="midnightblue" points="583.279,-141.365 572.747,-142.516 581.698,-148.184 583.279,-141.365"/>
</g>
<!-- Node28 -->
<g id="node28" class="node"><title>Node28</title>
<g id="a_node28"><a xlink:href="ringbuffer_8hpp.html" target="_top" xlink:title="The RingBuffer class template. ">
<polygon fill="white" stroke="black" points="621.5,-123.5 621.5,-142.5 702.5,-142.5 702.5,-123.5 621.5,-123.5"/>
<text text-anchor="middle" x="662" y="-130.5" font-family="Helvetica,sans-Serif" font-size="10.00">ringbuffer.hpp</text>
</a>
</g>
</g>
<!-- Node27&#45;&gt;Node28 -->
<g id="edge65" class="edge"><title>Node27&#45;&gt;Node28</title>
<path fill="none" stroke="midnightblue" d="M751.809,-179.324C734.649,-170.664 708.054,-157.242 688.253,-147.249"/>
<polygon fill="midnightblue" stroke="midnightblue" points="689.653,-144.035 679.149,-142.655 686.499,-150.285 689.653,-144.035"/>
</g>
<!-- Node29 -->
<g id="node29" class="node"><title>Node29</title>
<polygon fill="white" stroke="#bfbfbf" points="28.5,-56.5 28.5,-86.5 149.5,-86.5 149.5,-56.5 28.5,-56.5"/>
<text text-anchor="start" x="36.5" y="-74.5" font-family="Helvetica,sans-Serif" font-size="10.00">../contrib/pa_ringbuffer</text>
<text text-anchor="middle" x="89" y="-63.5" font-family="Helvetica,sans-Serif" font-size="10.00">/pa_ringbuffer.h</text>
</g>
<!-- Node28&#45;&gt;Node29 -->
<g id="edge66" class="edge"><title>Node28&#45;&gt;Node29</title>
<path fill="none" stroke="midnightblue" d="M621.393,-124.344C618.221,-123.852 615.062,-123.396 612,-123 414.495,-97.4577 360.085,-115.277 159.479,-87.094"/>
<polygon fill="midnightblue" stroke="midnightblue" points="159.898,-83.6184 149.504,-85.6719 158.91,-90.5483 159.898,-83.6184"/>
</g>
<!-- Node30&#45;&gt;Node9 -->
<g id="edge72" class="edge"><title>Node30&#45;&gt;Node9</title>
<path fill="none" stroke="midnightblue" d="M1367.66,-179.327C1361.94,-158.186 1346.7,-102.331 1333,-56 1330.39,-47.1621 1327.36,-37.3894 1324.8,-29.2157"/>
<polygon fill="midnightblue" stroke="midnightblue" points="1328.11,-28.0841 1321.76,-19.6048 1321.43,-30.1947 1328.11,-28.0841"/>
</g>
<!-- Node30&#45;&gt;Node10 -->
<g id="edge75" class="edge"><title>Node30&#45;&gt;Node10</title>
<path fill="none" stroke="midnightblue" d="M1414.21,-179.444C1463.29,-169.944 1542.51,-154.611 1595.16,-144.42"/>
<polygon fill="midnightblue" stroke="midnightblue" points="1595.85,-147.853 1605,-142.516 1594.52,-140.98 1595.85,-147.853"/>
</g>
<!-- Node30&#45;&gt;Node19 -->
<g id="edge74" class="edge"><title>Node30&#45;&gt;Node19</title>
<path fill="none" stroke="midnightblue" d="M1344.81,-179.444C1318.06,-170.359 1275.6,-155.939 1245.69,-145.783"/>
<polygon fill="midnightblue" stroke="midnightblue" points="1246.67,-142.418 1236.08,-142.516 1244.42,-149.046 1246.67,-142.418"/>
</g>
<!-- Node31 -->
<g id="node31" class="node"><title>Node31</title>
<polygon fill="white" stroke="#bfbfbf" points="1431.5,-123.5 1431.5,-142.5 1462.5,-142.5 1462.5,-123.5 1431.5,-123.5"/>
<text text-anchor="middle" x="1447" y="-130.5" font-family="Helvetica,sans-Serif" font-size="10.00">set</text>
</g>
<!-- Node30&#45;&gt;Node31 -->
<g id="edge73" class="edge"><title>Node30&#45;&gt;Node31</title>
<path fill="none" stroke="midnightblue" d="M1382.37,-179.324C1394.16,-171.058 1412.13,-158.453 1426.14,-148.632"/>
<polygon fill="midnightblue" stroke="midnightblue" points="1428.48,-151.262 1434.66,-142.655 1424.46,-145.531 1428.48,-151.262"/>
</g>
<!-- Node32&#45;&gt;Node9 -->
<g id="edge78" class="edge"><title>Node32&#45;&gt;Node9</title>
<path fill="none" stroke="midnightblue" d="M1840.28,-179.386C1863.7,-167.681 1898.29,-145.607 1883,-123 1822.8,-33.9783 1464.92,-15.4753 1352.66,-11.8422"/>
<polygon fill="midnightblue" stroke="midnightblue" points="1352.69,-8.34135 1342.58,-11.5351 1352.47,-15.3381 1352.69,-8.34135"/>
</g>
<!-- Node32&#45;&gt;Node10 -->
<g id="edge80" class="edge"><title>Node32&#45;&gt;Node10</title>
<path fill="none" stroke="midnightblue" d="M1793.75,-179.444C1764.56,-170.28 1718.08,-155.688 1685.69,-145.519"/>
<polygon fill="midnightblue" stroke="midnightblue" points="1686.72,-142.173 1676.13,-142.516 1684.62,-148.851 1686.72,-142.173"/>
</g>
<!-- Node33 -->
<g id="node33" class="node"><title>Node33</title>
<polygon fill="white" stroke="#bfbfbf" points="1797.5,-123.5 1797.5,-142.5 1874.5,-142.5 1874.5,-123.5 1797.5,-123.5"/>
<text text-anchor="middle" x="1836" y="-130.5" font-family="Helvetica,sans-Serif" font-size="10.00">initializer_list</text>
</g>
<!-- Node32&#45;&gt;Node33 -->
<g id="edge79" class="edge"><title>Node32&#45;&gt;Node33</title>
<path fill="none" stroke="midnightblue" d="M1823.48,-179.083C1825.49,-171.849 1828.39,-161.409 1830.89,-152.397"/>
<polygon fill="midnightblue" stroke="midnightblue" points="1834.26,-153.323 1833.57,-142.751 1827.52,-151.449 1834.26,-153.323"/>
</g>
<!-- Node34&#45;&gt;Node3 -->
<g id="edge85" class="edge"><title>Node34&#45;&gt;Node3</title>
<path fill="none" stroke="midnightblue" d="M249.747,-347.36C237.62,-313.505 198.737,-188.524 259,-123 287.992,-91.4771 587.824,-77.4314 687.199,-73.6181"/>
<polygon fill="midnightblue" stroke="midnightblue" points="687.379,-77.1139 697.241,-73.2416 687.117,-70.1188 687.379,-77.1139"/>
</g>
</g>
</svg>
        <g id="navigator" transform="translate(0 0)" fill="#404254">
                <rect fill="#f2f5e9" fill-opacity="0.5" stroke="#606060" stroke-width=".5" x="0" y="0" width="60" height="60"/>
                <use id="zoomplus" xlink:href="#zoomPlus" x="17" y="9" onmousedown="handleZoom(evt,'in')"/>
                <use id="zoomminus" xlink:href="#zoomMin" x="42" y="9" onmousedown="handleZoom(evt,'out')"/>
                <use id="reset" xlink:href="#resetDef" x="30" y="36" onmousedown="handleReset()"/>
                <g id="arrowUp" xlink:href="#dirArrow" transform="translate(30 24)" onmousedown="handlePan(0,-1)">
                  <use xlink:href="#rim" fill="#404040">
                        <set attributeName="fill" to="#808080" begin="arrowUp.mouseover" end="arrowUp.mouseout"/>
                  </use>
                  <path fill="none" stroke="white" stroke-width="1.5" d="M0,-3.0v7 M-2.5,-0.5L0,-3.0L2.5,-0.5"/>
                </g>
                <g id="arrowRight" xlink:href="#dirArrow" transform="rotate(90) translate(36 -43)" onmousedown="handlePan(1,0)">
                  <use xlink:href="#rim" fill="#404040">
                        <set attributeName="fill" to="#808080" begin="arrowRight.mouseover" end="arrowRight.mouseout"/>
                  </use>
                  <path fill="none" stroke="white" stroke-width="1.5" d="M0,-3.0v7 M-2.5,-0.5L0,-3.0L2.5,-0.5"/>
                </g>
                <g id="arrowDown" xlink:href="#dirArrow" transform="rotate(180) translate(-30 -48)" onmousedown="handlePan(0,1)">
                  <use xlink:href="#rim" fill="#404040">
                        <set attributeName="fill" to="#808080" begin="arrowDown.mouseover" end="arrowDown.mouseout"/>
                  </use>
                  <path fill="none" stroke="white" stroke-width="1.5" d="M0,-3.0v7 M-2.5,-0.5L0,-3.0L2.5,-0.5"/>
                </g>
                <g id="arrowLeft" xlink:href="#dirArrow" transform="rotate(270) translate(-36 17)" onmousedown="handlePan(-1,0)">
                  <use xlink:href="#rim" fill="#404040">
                        <set attributeName="fill" to="#808080" begin="arrowLeft.mouseover" end="arrowLeft.mouseout"/>
                  </use>
                  <path fill="none" stroke="white" stroke-width="1.5" d="M0,-3.0v7 M-2.5,-0.5L0,-3.0L2.5,-0.5"/>
                </g>
        </g>
        <svg viewBox="0 0 15 15" width="100%" height="30px" preserveAspectRatio="xMaxYMin meet">
         <g id="arrow_out" transform="scale(0.3 0.3)">
          <a xlink:href="cmd_8cpp__incl_org.svg" target="_base">
           <rect id="button" ry="5" rx="5" y="6" x="6" height="38" width="38"
                fill="#f2f5e9" fill-opacity="0.5" stroke="#606060" stroke-width="1.0"/>
           <path id="arrow"
             d="M 11.500037,31.436501 C 11.940474,20.09759 22.043105,11.32322 32.158766,21.979434 L 37.068811,17.246167 C 37.068811,17.246167 37.088388,32 37.088388,32 L 22.160133,31.978069 C 22.160133,31.978069 26.997745,27.140456 26.997745,27.140456 C 18.528582,18.264221 13.291696,25.230495 11.500037,31.436501 z"
             style="fill:#404040;"/>
          </a>
         </g>
        </svg>
</svg>
