<?xml version="1.0" encoding="UTF-8" standalone="no"?>
<!DOCTYPE svg PUBLIC "-//W3C//DTD SVG 1.1//EN"
 "http://www.w3.org/Graphics/SVG/1.1/DTD/svg11.dtd">
<!-- Generated by graphviz version 2.38.0 (20140413.2041)
 -->
<!-- Title: src/cmd.hpp Pages: 1 -->
<!--zoomable 431 -->
<svg id="main" version="1.1" xmlns="http://www.w3.org/2000/svg" xmlns:xlink="http://www.w3.org/1999/xlink" xml:space="preserve" onload="init(evt)">
<style type="text/css"><![CDATA[
.edge:hover path { stroke: red; }
.edge:hover polygon { stroke: red; fill: red; }
]]></style>
<script type="text/javascript"><![CDATA[
var edges = document.getElementsByTagName('g');
if (edges && edges.length) {
  for (var i=0;i<edges.length;i++) {
    if (edges[i].id.substr(0,4)=='edge') {
      edges[i].setAttribute('class','edge');
    }
  }
}
]]></script>
        <defs>
                <circle id="rim" cx="0" cy="0" r="7"/>
                <circle id="rim2" cx="0" cy="0" r="3.5"/>
                <g id="zoomPlus">
                        <use xlink:href="#rim" fill="#404040">
                                <set attributeName="fill" to="#808080" begin="zoomplus.mouseover" end="zoomplus.mouseout"/>
                        </use>
                        <path d="M-4,0h8M0,-4v8" fill="none" stroke="white" stroke-width="1.5" pointer-events="none"/>
                </g>
                <g id="zoomMin">
                        <use xlink:href="#rim" fill="#404040">
                                <set attributeName="fill" to="#808080" begin="zoomminus.mouseover" end="zoomminus.mouseout"/>
                        </use>
                        <path d="M-4,0h8" fill="none" stroke="white" stroke-width="1.5" pointer-events="none"/>
                </g>
                <g id="dirArrow">
                        <path fill="none" stroke="white" stroke-width="1.5" d="M0,-3.0v7 M-2.5,-0.5L0,-3.0L2.5,-0.5"/>
                </g>
               <g id="resetDef">
                       <use xlink:href="#rim2" fill="#404040">
                               <set attributeName="fill" to="#808080" begin="reset.mouseover" end="reset.mouseout"/>
                       </use>
               </g>
        </defs>

<script type="text/javascript">
var viewWidth = 1754;
var viewHeight = 431;
var sectionId = 'dynsection-0';
</script>
<script xlink:href="svgpan.js"/>
<svg id="graph" class="graph">
<g id="viewport">
<title>src/cmd.hpp</title>
<polygon fill="white" stroke="none" points="-4,4 -4,-427 1749.98,-427 1749.98,4 -4,4"/>
<!-- Node1 -->
<g id="node1" class="node"><title>Node1</title>
<polygon fill="#bfbfbf" stroke="black" points="1194.98,-403.5 1194.98,-422.5 1268.98,-422.5 1268.98,-403.5 1194.98,-403.5"/>
<text text-anchor="middle" x="1231.98" y="-410.5" font-family="Helvetica,sans-Serif" font-size="10.00">src/cmd.hpp</text>
</g>
<!-- Node2 -->
<g id="node2" class="node"><title>Node2</title>
<polygon fill="white" stroke="#bfbfbf" points="1698.48,-62 1698.48,-81 1735.48,-81 1735.48,-62 1698.48,-62"/>
<text text-anchor="middle" x="1716.98" y="-69" font-family="Helvetica,sans-Serif" font-size="10.00">map</text>
</g>
<!-- Node1&#45;&gt;Node2 -->
<g id="edge1" class="edge"><title>Node1&#45;&gt;Node2</title>
<path fill="none" stroke="midnightblue" d="M1269.36,-411.97C1387.64,-410.88 1745.98,-399.531 1745.98,-302 1745.98,-302 1745.98,-302 1745.98,-188 1745.98,-152.643 1733.04,-112.982 1724.44,-90.5454"/>
<polygon fill="midnightblue" stroke="midnightblue" points="1727.6,-89.0076 1720.65,-81.0092 1721.09,-91.5947 1727.6,-89.0076"/>
</g>
<!-- Node3 -->
<g id="node3" class="node"><title>Node3</title>
<polygon fill="white" stroke="#bfbfbf" points="29.978,-123.5 29.978,-142.5 83.978,-142.5 83.978,-123.5 29.978,-123.5"/>
<text text-anchor="middle" x="56.978" y="-130.5" font-family="Helvetica,sans-Serif" font-size="10.00">memory</text>
</g>
<!-- Node1&#45;&gt;Node3 -->
<g id="edge2" class="edge"><title>Node1&#45;&gt;Node3</title>
<path fill="none" stroke="midnightblue" d="M1194.87,-410.518C995.145,-402.3 56.978,-360.584 56.978,-302 56.978,-302 56.978,-302 56.978,-244 56.978,-211.948 56.978,-174.643 56.978,-152.749"/>
<polygon fill="midnightblue" stroke="midnightblue" points="60.4781,-152.558 56.978,-142.558 53.4781,-152.558 60.4781,-152.558"/>
</g>
<!-- Node4 -->
<g id="node4" class="node"><title>Node4</title>
<polygon fill="white" stroke="#bfbfbf" points="1032.98,-62 1032.98,-81 1078.98,-81 1078.98,-62 1032.98,-62"/>
<text text-anchor="middle" x="1055.98" y="-69" font-family="Helvetica,sans-Serif" font-size="10.00">vector</text>
</g>
<!-- Node1&#45;&gt;Node4 -->
<g id="edge3" class="edge"><title>Node1&#45;&gt;Node4</title>
<path fill="none" stroke="midnightblue" d="M1194.93,-403.61C1148.23,-390.588 1073.98,-360.658 1073.98,-302 1073.98,-302 1073.98,-302 1073.98,-244 1073.98,-188.007 1064.37,-122.29 1059.19,-90.9439"/>
<polygon fill="midnightblue" stroke="midnightblue" points="1062.64,-90.3063 1057.51,-81.0323 1055.73,-91.4767 1062.64,-90.3063"/>
</g>
<!-- Node5 -->
<g id="node5" class="node"><title>Node5</title>
<g id="a_node5"><a xlink:href="cmd__result_8hpp.html" target="_top" xlink:title="Declaration of the CommandResult class. ">
<polygon fill="white" stroke="black" points="1361.98,-179.5 1361.98,-198.5 1449.98,-198.5 1449.98,-179.5 1361.98,-179.5"/>
<text text-anchor="middle" x="1405.98" y="-186.5" font-family="Helvetica,sans-Serif" font-size="10.00">cmd_result.hpp</text>
</a>
</g>
</g>
<!-- Node1&#45;&gt;Node5 -->
<g id="edge4" class="edge"><title>Node1&#45;&gt;Node5</title>
<path fill="none" stroke="midnightblue" d="M1247.77,-403.442C1275.37,-387.894 1333.07,-352.73 1370.98,-311 1390.4,-289.617 1395.95,-282.751 1403.98,-255 1408.35,-239.901 1408.55,-222.001 1407.84,-208.812"/>
<polygon fill="midnightblue" stroke="midnightblue" points="1411.31,-208.323 1407.05,-198.623 1404.33,-208.864 1411.31,-208.323"/>
</g>
<!-- Node13 -->
<g id="node13" class="node"><title>Node13</title>
<g id="a_node13"><a xlink:href="player_8hpp.html" target="_top" xlink:title="Declaration of the Player class, and associated types. ">
<polygon fill="white" stroke="black" points="1182.98,-347.5 1182.98,-366.5 1280.98,-366.5 1280.98,-347.5 1182.98,-347.5"/>
<text text-anchor="middle" x="1231.98" y="-354.5" font-family="Helvetica,sans-Serif" font-size="10.00">player/player.hpp</text>
</a>
</g>
</g>
<!-- Node1&#45;&gt;Node13 -->
<g id="edge17" class="edge"><title>Node1&#45;&gt;Node13</title>
<path fill="none" stroke="midnightblue" d="M1231.98,-403.083C1231.98,-396.006 1231.98,-385.861 1231.98,-376.986"/>
<polygon fill="midnightblue" stroke="midnightblue" points="1235.48,-376.751 1231.98,-366.751 1228.48,-376.751 1235.48,-376.751"/>
</g>
<!-- Node5&#45;&gt;Node4 -->
<g id="edge7" class="edge"><title>Node5&#45;&gt;Node4</title>
<path fill="none" stroke="midnightblue" d="M1386.07,-179.458C1354.88,-166.267 1292.43,-140.626 1237.98,-123 1178.08,-103.611 1161.41,-104.661 1100.98,-87 1097.1,-85.8667 1093.05,-84.6332 1089.04,-83.3799"/>
<polygon fill="midnightblue" stroke="midnightblue" points="1089.85,-79.9654 1079.26,-80.2696 1087.73,-86.6361 1089.85,-79.9654"/>
</g>
<!-- Node6 -->
<g id="node6" class="node"><title>Node6</title>
<polygon fill="white" stroke="#bfbfbf" points="918.478,-0.5 918.478,-19.5 965.478,-19.5 965.478,-0.5 918.478,-0.5"/>
<text text-anchor="middle" x="941.978" y="-7.5" font-family="Helvetica,sans-Serif" font-size="10.00">cstdint</text>
</g>
<!-- Node5&#45;&gt;Node6 -->
<g id="edge5" class="edge"><title>Node5&#45;&gt;Node6</title>
<path fill="none" stroke="midnightblue" d="M1450.22,-181.878C1473.97,-176.09 1501.31,-164.842 1515.98,-143 1537.53,-110.897 1542.23,-84.3898 1515.98,-56 1479.21,-16.2339 1093.28,-11.5469 975.753,-11.0446"/>
<polygon fill="midnightblue" stroke="midnightblue" points="975.562,-7.54404 965.549,-11.0089 975.537,-14.544 975.562,-7.54404"/>
</g>
<!-- Node7 -->
<g id="node7" class="node"><title>Node7</title>
<polygon fill="white" stroke="#bfbfbf" points="1110.48,-62 1110.48,-81 1153.48,-81 1153.48,-62 1110.48,-62"/>
<text text-anchor="middle" x="1131.98" y="-69" font-family="Helvetica,sans-Serif" font-size="10.00">string</text>
</g>
<!-- Node5&#45;&gt;Node7 -->
<g id="edge6" class="edge"><title>Node5&#45;&gt;Node7</title>
<path fill="none" stroke="midnightblue" d="M1400.77,-179.3C1391.82,-165.169 1372.16,-137.365 1347.98,-123 1289.09,-88.0259 1207.78,-77.2731 1163.62,-73.9673"/>
<polygon fill="midnightblue" stroke="midnightblue" points="1163.7,-70.4648 1153.49,-73.2921 1163.23,-77.4493 1163.7,-70.4648"/>
</g>
<!-- Node8 -->
<g id="node8" class="node"><title>Node8</title>
<g id="a_node8"><a xlink:href="io__response_8hpp.html" target="_top" xlink:title="Declaration of classes pertaining to responses to the client. ">
<polygon fill="white" stroke="black" points="1400.48,-123.5 1400.48,-142.5 1507.48,-142.5 1507.48,-123.5 1400.48,-123.5"/>
<text text-anchor="middle" x="1453.98" y="-130.5" font-family="Helvetica,sans-Serif" font-size="10.00">io/io_response.hpp</text>
</a>
</g>
</g>
<!-- Node5&#45;&gt;Node8 -->
<g id="edge8" class="edge"><title>Node5&#45;&gt;Node8</title>
<path fill="none" stroke="midnightblue" d="M1413.9,-179.083C1420.82,-171.298 1431.04,-159.801 1439.43,-150.367"/>
<polygon fill="midnightblue" stroke="midnightblue" points="1442.17,-152.55 1446.2,-142.751 1436.94,-147.9 1442.17,-152.55"/>
</g>
<!-- Node8&#45;&gt;Node2 -->
<g id="edge10" class="edge"><title>Node8&#45;&gt;Node2</title>
<path fill="none" stroke="midnightblue" d="M1491.66,-123.475C1544.87,-111.436 1640.86,-89.7202 1688.53,-78.9367"/>
<polygon fill="midnightblue" stroke="midnightblue" points="1689.49,-82.3069 1698.47,-76.6865 1687.95,-75.4795 1689.49,-82.3069"/>
</g>
<!-- Node8&#45;&gt;Node4 -->
<g id="edge13" class="edge"><title>Node8&#45;&gt;Node4</title>
<path fill="none" stroke="midnightblue" d="M1400.22,-128.256C1330.55,-122.696 1205.6,-110.314 1100.98,-87 1097.03,-86.1213 1092.94,-85.0445 1088.91,-83.8783"/>
<polygon fill="midnightblue" stroke="midnightblue" points="1089.7,-80.4581 1079.11,-80.8569 1087.63,-87.1474 1089.7,-80.4581"/>
</g>
<!-- Node8&#45;&gt;Node6 -->
<g id="edge9" class="edge"><title>Node8&#45;&gt;Node6</title>
<path fill="none" stroke="midnightblue" d="M1431.03,-123.475C1409.91,-115.26 1378.01,-101.908 1351.98,-87 1331.53,-75.2923 1330.91,-64.5925 1308.98,-56 1248.61,-32.3544 1055.01,-18.0067 976.02,-13.0058"/>
<polygon fill="midnightblue" stroke="midnightblue" points="975.859,-9.48912 965.661,-12.3622 975.425,-16.4757 975.859,-9.48912"/>
</g>
<!-- Node8&#45;&gt;Node7 -->
<g id="edge12" class="edge"><title>Node8&#45;&gt;Node7</title>
<path fill="none" stroke="midnightblue" d="M1407.84,-123.475C1341.54,-111.224 1221.01,-88.9515 1163.78,-78.3766"/>
<polygon fill="midnightblue" stroke="midnightblue" points="1164.33,-74.9187 1153.86,-76.5433 1163.06,-81.8021 1164.33,-74.9187"/>
</g>
<!-- Node9 -->
<g id="node9" class="node"><title>Node9</title>
<polygon fill="white" stroke="#bfbfbf" points="1452.48,-62 1452.48,-81 1507.48,-81 1507.48,-62 1452.48,-62"/>
<text text-anchor="middle" x="1479.98" y="-69" font-family="Helvetica,sans-Serif" font-size="10.00">ostream</text>
</g>
<!-- Node8&#45;&gt;Node9 -->
<g id="edge11" class="edge"><title>Node8&#45;&gt;Node9</title>
<path fill="none" stroke="midnightblue" d="M1457.7,-123.475C1461.45,-114.904 1467.34,-101.427 1472.12,-90.483"/>
<polygon fill="midnightblue" stroke="midnightblue" points="1475.46,-91.5739 1476.26,-81.0091 1469.05,-88.771 1475.46,-91.5739"/>
</g>
<!-- Node10 -->
<g id="node10" class="node"><title>Node10</title>
<g id="a_node10"><a xlink:href="errors_8hpp.html" target="_top" xlink:title="Declarations of the playd Error exception set. ">
<polygon fill="white" stroke="black" points="1361.48,-62 1361.48,-81 1434.48,-81 1434.48,-62 1361.48,-62"/>
<text text-anchor="middle" x="1397.98" y="-69" font-family="Helvetica,sans-Serif" font-size="10.00">../errors.hpp</text>
</a>
</g>
</g>
<!-- Node8&#45;&gt;Node10 -->
<g id="edge14" class="edge"><title>Node8&#45;&gt;Node10</title>
<path fill="none" stroke="midnightblue" d="M1445.95,-123.475C1437.39,-114.373 1423.62,-99.741 1413.02,-88.483"/>
<polygon fill="midnightblue" stroke="midnightblue" points="1415.39,-85.8923 1405.99,-81.0091 1410.29,-90.6899 1415.39,-85.8923"/>
</g>
<!-- Node11 -->
<g id="node11" class="node"><title>Node11</title>
<polygon fill="white" stroke="#bfbfbf" points="1406.48,-0.5 1406.48,-19.5 1463.48,-19.5 1463.48,-0.5 1406.48,-0.5"/>
<text text-anchor="middle" x="1434.98" y="-7.5" font-family="Helvetica,sans-Serif" font-size="10.00">iostream</text>
</g>
<!-- Node10&#45;&gt;Node11 -->
<g id="edge15" class="edge"><title>Node10&#45;&gt;Node11</title>
<path fill="none" stroke="midnightblue" d="M1403.28,-61.9751C1408.72,-53.2268 1417.34,-39.3691 1424.21,-28.3093"/>
<polygon fill="midnightblue" stroke="midnightblue" points="1427.38,-29.8494 1429.69,-19.5091 1421.43,-26.1528 1427.38,-29.8494"/>
</g>
<!-- Node12 -->
<g id="node12" class="node"><title>Node12</title>
<polygon fill="white" stroke="#bfbfbf" points="1333.98,-0.5 1333.98,-19.5 1387.98,-19.5 1387.98,-0.5 1333.98,-0.5"/>
<text text-anchor="middle" x="1360.98" y="-7.5" font-family="Helvetica,sans-Serif" font-size="10.00">sstream</text>
</g>
<!-- Node10&#45;&gt;Node12 -->
<g id="edge16" class="edge"><title>Node10&#45;&gt;Node12</title>
<path fill="none" stroke="midnightblue" d="M1392.68,-61.9751C1387.24,-53.2268 1378.62,-39.3691 1371.74,-28.3093"/>
<polygon fill="midnightblue" stroke="midnightblue" points="1374.52,-26.1528 1366.27,-19.5091 1368.58,-29.8494 1374.52,-26.1528"/>
</g>
<!-- Node13&#45;&gt;Node2 -->
<g id="edge19" class="edge"><title>Node13&#45;&gt;Node2</title>
<path fill="none" stroke="midnightblue" d="M1281.22,-351.884C1351.91,-345.37 1478.17,-331.305 1518.98,-311 1618.42,-261.522 1686.21,-136.803 1708.76,-90.3239"/>
<polygon fill="midnightblue" stroke="midnightblue" points="1711.97,-91.7224 1713.09,-81.1871 1705.64,-88.7235 1711.97,-91.7224"/>
</g>
<!-- Node13&#45;&gt;Node3 -->
<g id="edge20" class="edge"><title>Node13&#45;&gt;Node3</title>
<path fill="none" stroke="midnightblue" d="M1182.77,-354.14C1087.28,-350.04 870.389,-338.328 689.978,-311 576.111,-293.752 548.459,-283.902 436.978,-255 352.584,-233.121 332.06,-225.427 248.978,-199 193.411,-181.325 129.342,-159.3 91.0545,-145.961"/>
<polygon fill="midnightblue" stroke="midnightblue" points="92.0272,-142.593 81.4324,-142.602 89.7202,-149.202 92.0272,-142.593"/>
</g>
<!-- Node13&#45;&gt;Node4 -->
<g id="edge23" class="edge"><title>Node13&#45;&gt;Node4</title>
<path fill="none" stroke="midnightblue" d="M1226.52,-347.205C1201.83,-307.436 1100.38,-144.03 1066.82,-89.9618"/>
<polygon fill="midnightblue" stroke="midnightblue" points="1069.62,-87.8428 1061.37,-81.1929 1063.68,-91.5349 1069.62,-87.8428"/>
</g>
<!-- Node13&#45;&gt;Node5 -->
<g id="edge43" class="edge"><title>Node13&#45;&gt;Node5</title>
<path fill="none" stroke="midnightblue" d="M1275.32,-347.434C1299.14,-340.859 1327.85,-329.638 1347.98,-311 1378.64,-282.611 1394.81,-234.599 1401.74,-208.402"/>
<polygon fill="midnightblue" stroke="midnightblue" points="1405.15,-209.179 1404.16,-198.63 1398.36,-207.495 1405.15,-209.179"/>
</g>
<!-- Node13&#45;&gt;Node6 -->
<g id="edge18" class="edge"><title>Node13&#45;&gt;Node6</title>
<path fill="none" stroke="midnightblue" d="M1182.62,-354.219C953.18,-345.62 1.97801,-306.332 1.97801,-246 1.97801,-246 1.97801,-246 1.97801,-132 1.97801,-97.1827 -5.93403,-78.0905 20.978,-56 55.9051,-27.3305 745.807,-14.2257 908.033,-11.5337"/>
<polygon fill="midnightblue" stroke="midnightblue" points="908.424,-15.0279 918.366,-11.3646 908.31,-8.02879 908.424,-15.0279"/>
</g>
<!-- Node13&#45;&gt;Node7 -->
<g id="edge21" class="edge"><title>Node13&#45;&gt;Node7</title>
<path fill="none" stroke="midnightblue" d="M1249.28,-347.455C1278.38,-331.722 1333.98,-295.223 1333.98,-246 1333.98,-246 1333.98,-246 1333.98,-188 1333.98,-110.579 1220.77,-84.3458 1163.85,-76.0493"/>
<polygon fill="midnightblue" stroke="midnightblue" points="1163.97,-72.5339 1153.6,-74.6598 1163.04,-79.4705 1163.97,-72.5339"/>
</g>
<!-- Node13&#45;&gt;Node8 -->
<g id="edge42" class="edge"><title>Node13&#45;&gt;Node8</title>
<path fill="none" stroke="midnightblue" d="M1281.18,-347.506C1309.33,-340.91 1344.24,-329.644 1370.98,-311 1422.9,-274.789 1438.29,-258.828 1458.98,-199 1464.18,-183.958 1462.16,-165.828 1459.28,-152.542"/>
<polygon fill="midnightblue" stroke="midnightblue" points="1462.64,-151.536 1456.8,-142.694 1455.85,-153.246 1462.64,-151.536"/>
</g>
<!-- Node14 -->
<g id="node14" class="node"><title>Node14</title>
<polygon fill="white" stroke="#bfbfbf" points="139.978,-123.5 139.978,-142.5 179.978,-142.5 179.978,-123.5 139.978,-123.5"/>
<text text-anchor="middle" x="159.978" y="-130.5" font-family="Helvetica,sans-Serif" font-size="10.00">utility</text>
</g>
<!-- Node13&#45;&gt;Node14 -->
<g id="edge22" class="edge"><title>Node13&#45;&gt;Node14</title>
<path fill="none" stroke="midnightblue" d="M1182.97,-352.779C1042.75,-342.496 629.149,-304.69 303.978,-199 260.809,-184.969 213.277,-161.916 185.063,-147.369"/>
<polygon fill="midnightblue" stroke="midnightblue" points="186.413,-144.125 175.927,-142.606 183.177,-150.333 186.413,-144.125"/>
</g>
<!-- Node15 -->
<g id="node15" class="node"><title>Node15</title>
<g id="a_node15"><a xlink:href="audio_8hpp.html" target="_top" xlink:title="Declaration of the Audio class. ">
<polygon fill="white" stroke="black" points="834.978,-179.5 834.978,-198.5 932.978,-198.5 932.978,-179.5 834.978,-179.5"/>
<text text-anchor="middle" x="883.978" y="-186.5" font-family="Helvetica,sans-Serif" font-size="10.00">../audio/audio.hpp</text>
</a>
</g>
</g>
<!-- Node13&#45;&gt;Node15 -->
<g id="edge24" class="edge"><title>Node13&#45;&gt;Node15</title>
<path fill="none" stroke="midnightblue" d="M1207.66,-347.458C1183.97,-338.925 1147.07,-325.085 1115.98,-311 1038.05,-275.694 949.221,-226.849 907.705,-203.493"/>
<polygon fill="midnightblue" stroke="midnightblue" points="909.32,-200.386 898.892,-198.518 905.879,-206.482 909.32,-200.386"/>
</g>
<!-- Node22 -->
<g id="node22" class="node"><title>Node22</title>
<g id="a_node22"><a xlink:href="player__file_8hpp.html" target="_top" xlink:title="Declaration of the PlayerFile class, and associated types. ">
<polygon fill="white" stroke="black" points="852.978,-291.5 852.978,-310.5 938.978,-310.5 938.978,-291.5 852.978,-291.5"/>
<text text-anchor="middle" x="895.978" y="-298.5" font-family="Helvetica,sans-Serif" font-size="10.00">player_file.hpp</text>
</a>
</g>
</g>
<!-- Node13&#45;&gt;Node22 -->
<g id="edge44" class="edge"><title>Node13&#45;&gt;Node22</title>
<path fill="none" stroke="midnightblue" d="M1182.76,-348.09C1120.39,-338.066 1013.28,-320.853 949.105,-310.538"/>
<polygon fill="midnightblue" stroke="midnightblue" points="949.615,-307.075 939.186,-308.944 948.504,-313.987 949.615,-307.075"/>
</g>
<!-- Node29 -->
<g id="node29" class="node"><title>Node29</title>
<g id="a_node29"><a xlink:href="player__position_8hpp.html" target="_top" xlink:title="Declaration of the PlayerPosition class. ">
<polygon fill="white" stroke="black" points="1158.48,-179.5 1158.48,-198.5 1267.48,-198.5 1267.48,-179.5 1158.48,-179.5"/>
<text text-anchor="middle" x="1212.98" y="-186.5" font-family="Helvetica,sans-Serif" font-size="10.00">player_position.hpp</text>
</a>
</g>
</g>
<!-- Node13&#45;&gt;Node29 -->
<g id="edge73" class="edge"><title>Node13&#45;&gt;Node29</title>
<path fill="none" stroke="midnightblue" d="M1230.96,-347.075C1227.97,-320.945 1219.18,-244.211 1215.1,-208.577"/>
<polygon fill="midnightblue" stroke="midnightblue" points="1218.57,-208.105 1213.96,-198.568 1211.62,-208.901 1218.57,-208.105"/>
</g>
<!-- Node31 -->
<g id="node31" class="node"><title>Node31</title>
<g id="a_node31"><a xlink:href="player__state_8hpp.html" target="_top" xlink:title="Declaration of the PlayerState class, and associated types. ">
<polygon fill="white" stroke="black" points="1531.48,-179.5 1531.48,-198.5 1626.48,-198.5 1626.48,-179.5 1531.48,-179.5"/>
<text text-anchor="middle" x="1578.98" y="-186.5" font-family="Helvetica,sans-Serif" font-size="10.00">player_state.hpp</text>
</a>
</g>
</g>
<!-- Node13&#45;&gt;Node31 -->
<g id="edge74" class="edge"><title>Node13&#45;&gt;Node31</title>
<path fill="none" stroke="midnightblue" d="M1281.16,-351.935C1346.48,-345.791 1457.62,-332.515 1491.98,-311 1531.86,-286.03 1558.98,-235.474 1571.35,-208.285"/>
<polygon fill="midnightblue" stroke="midnightblue" points="1574.69,-209.372 1575.49,-198.807 1568.28,-206.57 1574.69,-209.372"/>
</g>
<!-- Node15&#45;&gt;Node3 -->
<g id="edge26" class="edge"><title>Node15&#45;&gt;Node3</title>
<path fill="none" stroke="midnightblue" d="M834.819,-183.75C815.544,-182.152 793.231,-180.389 772.978,-179 487.866,-159.451 415.641,-168.265 130.978,-143 118.914,-141.929 105.781,-140.439 93.9724,-138.978"/>
<polygon fill="midnightblue" stroke="midnightblue" points="94.3576,-135.499 83.9968,-137.714 93.4773,-142.443 94.3576,-135.499"/>
</g>
<!-- Node15&#45;&gt;Node4 -->
<g id="edge29" class="edge"><title>Node15&#45;&gt;Node4</title>
<path fill="none" stroke="midnightblue" d="M898.198,-179.433C912.828,-170.545 936.21,-156.131 955.978,-143 984.057,-124.348 1015.75,-101.729 1035.79,-87.2291"/>
<polygon fill="midnightblue" stroke="midnightblue" points="1038.08,-89.8885 1044.12,-81.1817 1033.97,-84.2236 1038.08,-89.8885"/>
</g>
<!-- Node15&#45;&gt;Node6 -->
<g id="edge25" class="edge"><title>Node15&#45;&gt;Node6</title>
<path fill="none" stroke="midnightblue" d="M894.114,-179.48C903.26,-171.171 916.277,-157.669 922.978,-143 940.074,-105.577 942.591,-56.5045 942.531,-29.9879"/>
<polygon fill="midnightblue" stroke="midnightblue" points="946.028,-29.7534 942.374,-19.8086 939.029,-29.8614 946.028,-29.7534"/>
</g>
<!-- Node15&#45;&gt;Node7 -->
<g id="edge27" class="edge"><title>Node15&#45;&gt;Node7</title>
<path fill="none" stroke="midnightblue" d="M903.205,-179.496C923.381,-170.538 955.992,-155.961 983.978,-143 1026.44,-123.336 1075.41,-99.8505 1105.01,-85.5632"/>
<polygon fill="midnightblue" stroke="midnightblue" points="1106.79,-88.5914 1114.27,-81.0894 1103.74,-82.2886 1106.79,-88.5914"/>
</g>
<!-- Node15&#45;&gt;Node8 -->
<g id="edge32" class="edge"><title>Node15&#45;&gt;Node8</title>
<path fill="none" stroke="midnightblue" d="M933.069,-183.349C1036.22,-173.577 1275.38,-150.919 1390.21,-140.041"/>
<polygon fill="midnightblue" stroke="midnightblue" points="1390.63,-143.517 1400.26,-139.089 1389.97,-136.548 1390.63,-143.517"/>
</g>
<!-- Node15&#45;&gt;Node14 -->
<g id="edge28" class="edge"><title>Node15&#45;&gt;Node14</title>
<path fill="none" stroke="midnightblue" d="M834.815,-183.808C815.539,-182.219 793.227,-180.445 772.978,-179 516.882,-160.726 446.545,-189.136 190.091,-142.749"/>
<polygon fill="midnightblue" stroke="midnightblue" points="190.572,-139.279 180.105,-140.922 189.312,-146.165 190.572,-139.279"/>
</g>
<!-- Node16 -->
<g id="node16" class="node"><title>Node16</title>
<polygon fill="white" stroke="#bfbfbf" points="526.478,-123.5 526.478,-142.5 595.478,-142.5 595.478,-123.5 526.478,-123.5"/>
<text text-anchor="middle" x="560.978" y="-130.5" font-family="Helvetica,sans-Serif" font-size="10.00">portaudio.h</text>
</g>
<!-- Node15&#45;&gt;Node16 -->
<g id="edge30" class="edge"><title>Node15&#45;&gt;Node16</title>
<path fill="none" stroke="midnightblue" d="M834.733,-180.695C780.975,-172.577 692.117,-158.745 605.537,-143.036"/>
<polygon fill="midnightblue" stroke="midnightblue" points="606.005,-139.564 595.539,-141.211 604.748,-146.45 606.005,-139.564"/>
</g>
<!-- Node17 -->
<g id="node17" class="node"><title>Node17</title>
<polygon fill="white" stroke="#bfbfbf" points="613.978,-123.5 613.978,-142.5 795.978,-142.5 795.978,-123.5 613.978,-123.5"/>
<text text-anchor="middle" x="704.978" y="-130.5" font-family="Helvetica,sans-Serif" font-size="10.00">portaudiocpp/CallbackInterface.hxx</text>
</g>
<!-- Node15&#45;&gt;Node17 -->
<g id="edge31" class="edge"><title>Node15&#45;&gt;Node17</title>
<path fill="none" stroke="midnightblue" d="M855.615,-179.444C825.24,-170.28 776.868,-155.688 743.162,-145.519"/>
<polygon fill="midnightblue" stroke="midnightblue" points="743.793,-142.054 733.208,-142.516 741.771,-148.756 743.793,-142.054"/>
</g>
<!-- Node18 -->
<g id="node18" class="node"><title>Node18</title>
<g id="a_node18"><a xlink:href="audio__source_8hpp.html" target="_top" xlink:title="Declaration of the AudioSource class. ">
<polygon fill="white" stroke="black" points="813.978,-123.5 813.978,-142.5 913.978,-142.5 913.978,-123.5 813.978,-123.5"/>
<text text-anchor="middle" x="863.978" y="-130.5" font-family="Helvetica,sans-Serif" font-size="10.00">audio_source.hpp</text>
</a>
</g>
</g>
<!-- Node15&#45;&gt;Node18 -->
<g id="edge33" class="edge"><title>Node15&#45;&gt;Node18</title>
<path fill="none" stroke="midnightblue" d="M880.675,-179.083C877.996,-171.849 874.129,-161.409 870.792,-152.397"/>
<polygon fill="midnightblue" stroke="midnightblue" points="873.974,-150.913 867.219,-142.751 867.41,-153.344 873.974,-150.913"/>
</g>
<!-- Node18&#45;&gt;Node4 -->
<g id="edge37" class="edge"><title>Node18&#45;&gt;Node4</title>
<path fill="none" stroke="midnightblue" d="M891.487,-123.475C926.176,-112.725 985.762,-94.2597 1022.9,-82.7514"/>
<polygon fill="midnightblue" stroke="midnightblue" points="1024.22,-86.0054 1032.74,-79.7021 1022.15,-79.3191 1024.22,-86.0054"/>
</g>
<!-- Node18&#45;&gt;Node6 -->
<g id="edge35" class="edge"><title>Node18&#45;&gt;Node6</title>
<path fill="none" stroke="midnightblue" d="M869.588,-123.298C882.405,-103.414 914.032,-54.3521 930.925,-28.1471"/>
<polygon fill="midnightblue" stroke="midnightblue" points="933.943,-29.9245 936.419,-19.6232 928.059,-26.1318 933.943,-29.9245"/>
</g>
<!-- Node18&#45;&gt;Node7 -->
<g id="edge36" class="edge"><title>Node18&#45;&gt;Node7</title>
<path fill="none" stroke="midnightblue" d="M914.195,-123.692C959.855,-115.718 1028.92,-102.603 1087.98,-87 1092.09,-85.9137 1096.38,-84.6576 1100.6,-83.3481"/>
<polygon fill="midnightblue" stroke="midnightblue" points="1101.76,-86.6522 1110.2,-80.2507 1099.61,-79.9903 1101.76,-86.6522"/>
</g>
<!-- Node18&#45;&gt;Node10 -->
<g id="edge39" class="edge"><title>Node18&#45;&gt;Node10</title>
<path fill="none" stroke="midnightblue" d="M914.215,-126.402C1017.28,-114.919 1251.31,-88.8417 1351.29,-77.7023"/>
<polygon fill="midnightblue" stroke="midnightblue" points="1351.84,-81.163 1361.39,-76.577 1351.06,-74.206 1351.84,-81.163"/>
</g>
<!-- Node19 -->
<g id="node19" class="node"><title>Node19</title>
<polygon fill="white" stroke="#bfbfbf" points="834.478,-62 834.478,-81 875.478,-81 875.478,-62 834.478,-62"/>
<text text-anchor="middle" x="854.978" y="-69" font-family="Helvetica,sans-Serif" font-size="10.00">array</text>
</g>
<!-- Node18&#45;&gt;Node19 -->
<g id="edge34" class="edge"><title>Node18&#45;&gt;Node19</title>
<path fill="none" stroke="midnightblue" d="M862.689,-123.475C861.419,-115.08 859.437,-101.981 857.801,-91.1631"/>
<polygon fill="midnightblue" stroke="midnightblue" points="861.221,-90.3731 856.265,-81.0091 854.3,-91.4201 861.221,-90.3731"/>
</g>
<!-- Node20 -->
<g id="node20" class="node"><title>Node20</title>
<polygon fill="white" stroke="#bfbfbf" points="775.478,-62 775.478,-81 816.478,-81 816.478,-62 775.478,-62"/>
<text text-anchor="middle" x="795.978" y="-69" font-family="Helvetica,sans-Serif" font-size="10.00">sox.h</text>
</g>
<!-- Node18&#45;&gt;Node20 -->
<g id="edge38" class="edge"><title>Node18&#45;&gt;Node20</title>
<path fill="none" stroke="midnightblue" d="M854.235,-123.475C843.631,-114.197 826.459,-99.1706 813.499,-87.831"/>
<polygon fill="midnightblue" stroke="midnightblue" points="815.533,-84.9601 805.703,-81.0091 810.924,-90.2282 815.533,-84.9601"/>
</g>
<!-- Node21 -->
<g id="node21" class="node"><title>Node21</title>
<g id="a_node21"><a xlink:href="sample__formats_8hpp.html" target="_top" xlink:title="The SampleFormat enumeration. ">
<polygon fill="white" stroke="black" points="169.478,-62 169.478,-81 288.478,-81 288.478,-62 169.478,-62"/>
<text text-anchor="middle" x="228.978" y="-69" font-family="Helvetica,sans-Serif" font-size="10.00">../sample_formats.hpp</text>
</a>
</g>
</g>
<!-- Node18&#45;&gt;Node21 -->
<g id="edge40" class="edge"><title>Node18&#45;&gt;Node21</title>
<path fill="none" stroke="midnightblue" d="M813.796,-124.122C810.815,-123.723 807.859,-123.346 804.978,-123 622.974,-101.162 407.541,-84.7836 298.979,-77.1873"/>
<polygon fill="midnightblue" stroke="midnightblue" points="299.03,-73.6825 288.811,-76.4797 298.544,-80.6656 299.03,-73.6825"/>
</g>
<!-- Node21&#45;&gt;Node6 -->
<g id="edge41" class="edge"><title>Node21&#45;&gt;Node6</title>
<path fill="none" stroke="midnightblue" d="M267.619,-61.9954C278.965,-59.7518 291.428,-57.5324 302.978,-56 533.069,-25.4736 812.703,-14.8119 908.169,-11.9145"/>
<polygon fill="midnightblue" stroke="midnightblue" points="908.48,-15.4069 918.373,-11.6134 908.274,-8.40994 908.48,-15.4069"/>
</g>
<!-- Node22&#45;&gt;Node3 -->
<g id="edge45" class="edge"><title>Node22&#45;&gt;Node3</title>
<path fill="none" stroke="midnightblue" d="M852.673,-297.711C742.538,-291.027 443.585,-267.479 204.978,-199 159.901,-186.063 110.61,-162.319 81.8138,-147.389"/>
<polygon fill="midnightblue" stroke="midnightblue" points="83.3504,-144.243 72.8696,-142.692 80.0959,-150.44 83.3504,-144.243"/>
</g>
<!-- Node22&#45;&gt;Node8 -->
<g id="edge67" class="edge"><title>Node22&#45;&gt;Node8</title>
<path fill="none" stroke="midnightblue" d="M929.168,-291.469C964.014,-282.488 1020.38,-267.893 1068.98,-255 1161.1,-230.559 1185.13,-227.817 1275.98,-199 1328.07,-182.477 1387.5,-160.031 1422.81,-146.304"/>
<polygon fill="midnightblue" stroke="midnightblue" points="1424.5,-149.405 1432.54,-142.508 1421.95,-142.885 1424.5,-149.405"/>
</g>
<!-- Node22&#45;&gt;Node15 -->
<g id="edge66" class="edge"><title>Node22&#45;&gt;Node15</title>
<path fill="none" stroke="midnightblue" d="M895.036,-291.368C893.1,-273.617 888.633,-232.666 886.007,-208.597"/>
<polygon fill="midnightblue" stroke="midnightblue" points="889.479,-208.153 884.915,-198.591 882.52,-208.912 889.479,-208.153"/>
</g>
<!-- Node23 -->
<g id="node23" class="node"><title>Node23</title>
<g id="a_node23"><a xlink:href="audio__system_8hpp.html" target="_top" xlink:title="Declaration of the AudioSystem class. ">
<polygon fill="white" stroke="black" points="600.478,-235.5 600.478,-254.5 737.478,-254.5 737.478,-235.5 600.478,-235.5"/>
<text text-anchor="middle" x="668.978" y="-242.5" font-family="Helvetica,sans-Serif" font-size="10.00">../audio/audio_system.hpp</text>
</a>
</g>
</g>
<!-- Node22&#45;&gt;Node23 -->
<g id="edge46" class="edge"><title>Node22&#45;&gt;Node23</title>
<path fill="none" stroke="midnightblue" d="M860.009,-291.444C820.659,-282.083 757.491,-267.056 714.664,-256.868"/>
<polygon fill="midnightblue" stroke="midnightblue" points="715.317,-253.426 704.779,-254.516 713.697,-260.236 715.317,-253.426"/>
</g>
<!-- Node22&#45;&gt;Node29 -->
<g id="edge68" class="edge"><title>Node22&#45;&gt;Node29</title>
<path fill="none" stroke="midnightblue" d="M920.589,-291.46C976.65,-272.006 1113.97,-224.355 1178.46,-201.977"/>
<polygon fill="midnightblue" stroke="midnightblue" points="1179.86,-205.195 1188.16,-198.61 1177.57,-198.582 1179.86,-205.195"/>
</g>
<!-- Node23&#45;&gt;Node7 -->
<g id="edge47" class="edge"><title>Node23&#45;&gt;Node7</title>
<path fill="none" stroke="midnightblue" d="M737.574,-240.717C794.106,-236.143 875.501,-225.196 941.978,-199 1012.04,-171.392 1082.77,-115.073 1114.58,-87.8761"/>
<polygon fill="midnightblue" stroke="midnightblue" points="1116.88,-90.5159 1122.15,-81.3239 1112.3,-85.2242 1116.88,-90.5159"/>
</g>
<!-- Node23&#45;&gt;Node14 -->
<g id="edge48" class="edge"><title>Node23&#45;&gt;Node14</title>
<path fill="none" stroke="midnightblue" d="M601.857,-235.473C544.67,-227.679 460.477,-214.95 387.978,-199 301.311,-179.933 278.61,-169.771 189.91,-143.242"/>
<polygon fill="midnightblue" stroke="midnightblue" points="190.822,-139.862 180.239,-140.363 188.824,-146.571 190.822,-139.862"/>
</g>
<!-- Node23&#45;&gt;Node15 -->
<g id="edge65" class="edge"><title>Node23&#45;&gt;Node15</title>
<path fill="none" stroke="midnightblue" d="M703.045,-235.444C740.158,-226.122 799.639,-211.183 840.193,-200.997"/>
<polygon fill="midnightblue" stroke="midnightblue" points="841.224,-204.347 850.07,-198.516 839.519,-197.558 841.224,-204.347"/>
</g>
<!-- Node23&#45;&gt;Node18 -->
<g id="edge64" class="edge"><title>Node23&#45;&gt;Node18</title>
<path fill="none" stroke="midnightblue" d="M630.205,-235.451C591.485,-225.171 540.816,-205.879 563.978,-179 597.531,-140.062 736.287,-149.892 803.604,-142.94"/>
<polygon fill="midnightblue" stroke="midnightblue" points="804.279,-146.383 813.768,-141.67 803.411,-139.437 804.279,-146.383"/>
</g>
<!-- Node23&#45;&gt;Node21 -->
<g id="edge51" class="edge"><title>Node23&#45;&gt;Node21</title>
<path fill="none" stroke="midnightblue" d="M600.375,-239.458C526.518,-233.661 405.902,-221.563 303.978,-199 264.525,-190.266 154.748,-175.678 130.978,-143 111.708,-116.507 152.502,-96.084 187.199,-84.1947"/>
<polygon fill="midnightblue" stroke="midnightblue" points="188.349,-87.5011 196.768,-81.0697 186.175,-80.847 188.349,-87.5011"/>
</g>
<!-- Node24 -->
<g id="node24" class="node"><title>Node24</title>
<polygon fill="white" stroke="#bfbfbf" points="573.478,-179.5 573.478,-198.5 764.478,-198.5 764.478,-179.5 573.478,-179.5"/>
<text text-anchor="middle" x="668.978" y="-186.5" font-family="Helvetica,sans-Serif" font-size="10.00">portaudiocpp/SampleDataFormat.hxx</text>
</g>
<!-- Node23&#45;&gt;Node24 -->
<g id="edge49" class="edge"><title>Node23&#45;&gt;Node24</title>
<path fill="none" stroke="midnightblue" d="M668.978,-235.083C668.978,-228.006 668.978,-217.861 668.978,-208.986"/>
<polygon fill="midnightblue" stroke="midnightblue" points="672.478,-208.751 668.978,-198.751 665.478,-208.751 672.478,-208.751"/>
</g>
<!-- Node25 -->
<g id="node25" class="node"><title>Node25</title>
<polygon fill="white" stroke="#bfbfbf" points="373.978,-123.5 373.978,-142.5 507.978,-142.5 507.978,-123.5 373.978,-123.5"/>
<text text-anchor="middle" x="440.978" y="-130.5" font-family="Helvetica,sans-Serif" font-size="10.00">portaudiocpp/Stream.hxx</text>
</g>
<!-- Node23&#45;&gt;Node25 -->
<g id="edge50" class="edge"><title>Node23&#45;&gt;Node25</title>
<path fill="none" stroke="midnightblue" d="M707.124,-235.417C745.599,-225.046 796.232,-205.618 772.978,-179 768.791,-174.207 615.089,-154.927 518.309,-143.214"/>
<polygon fill="midnightblue" stroke="midnightblue" points="518.605,-139.725 508.257,-142 517.765,-146.674 518.605,-139.725"/>
</g>
<!-- Node26 -->
<g id="node26" class="node"><title>Node26</title>
<g id="a_node26"><a xlink:href="audio__sink_8hpp.html" target="_top" xlink:title="Declaration of the AudioSink class. ">
<polygon fill="white" stroke="black" points="397.478,-179.5 397.478,-198.5 484.478,-198.5 484.478,-179.5 397.478,-179.5"/>
<text text-anchor="middle" x="440.978" y="-186.5" font-family="Helvetica,sans-Serif" font-size="10.00">audio_sink.hpp</text>
</a>
</g>
</g>
<!-- Node23&#45;&gt;Node26 -->
<g id="edge52" class="edge"><title>Node23&#45;&gt;Node26</title>
<path fill="none" stroke="midnightblue" d="M632.851,-235.444C593.327,-226.083 529.881,-211.056 486.865,-200.868"/>
<polygon fill="midnightblue" stroke="midnightblue" points="487.474,-197.415 476.936,-198.516 485.86,-204.227 487.474,-197.415"/>
</g>
<!-- Node26&#45;&gt;Node3 -->
<g id="edge54" class="edge"><title>Node26&#45;&gt;Node3</title>
<path fill="none" stroke="midnightblue" d="M397.302,-181.858C321.234,-171.161 165.746,-149.296 94.3421,-139.254"/>
<polygon fill="midnightblue" stroke="midnightblue" points="94.8266,-135.788 84.4366,-137.861 93.8518,-142.72 94.8266,-135.788"/>
</g>
<!-- Node26&#45;&gt;Node4 -->
<g id="edge57" class="edge"><title>Node26&#45;&gt;Node4</title>
<path fill="none" stroke="midnightblue" d="M417.244,-179.47C387.871,-167.687 344.132,-145.342 364.978,-123 404.413,-80.735 826.343,-91.4281 883.978,-87 932.312,-83.2866 988.24,-78.4764 1022.87,-75.4383"/>
<polygon fill="midnightblue" stroke="midnightblue" points="1023.24,-78.9189 1032.9,-74.5555 1022.63,-71.9458 1023.24,-78.9189"/>
</g>
<!-- Node26&#45;&gt;Node6 -->
<g id="edge53" class="edge"><title>Node26&#45;&gt;Node6</title>
<path fill="none" stroke="midnightblue" d="M412.673,-179.455C380.722,-168.38 335.674,-147.552 355.978,-123 427.118,-36.9757 793.894,-16.4127 908.034,-12.062"/>
<polygon fill="midnightblue" stroke="midnightblue" points="908.406,-15.5509 918.273,-11.6899 908.152,-8.55549 908.406,-15.5509"/>
</g>
<!-- Node26&#45;&gt;Node7 -->
<g id="edge55" class="edge"><title>Node26&#45;&gt;Node7</title>
<path fill="none" stroke="midnightblue" d="M484.513,-184.517C595.028,-175.593 880.69,-151.979 922.978,-143 957.672,-135.634 1051.59,-102.016 1100.85,-83.9933"/>
<polygon fill="midnightblue" stroke="midnightblue" points="1102.18,-87.2336 1110.37,-80.5042 1099.77,-80.6617 1102.18,-87.2336"/>
</g>
<!-- Node26&#45;&gt;Node14 -->
<g id="edge56" class="edge"><title>Node26&#45;&gt;Node14</title>
<path fill="none" stroke="midnightblue" d="M397.383,-181.898C348.94,-174.746 268.266,-161.733 190.173,-143.047"/>
<polygon fill="midnightblue" stroke="midnightblue" points="190.713,-139.576 180.17,-140.618 189.062,-146.378 190.713,-139.576"/>
</g>
<!-- Node26&#45;&gt;Node16 -->
<g id="edge58" class="edge"><title>Node26&#45;&gt;Node16</title>
<path fill="none" stroke="midnightblue" d="M459.992,-179.444C479.566,-170.636 510.286,-156.812 532.707,-146.722"/>
<polygon fill="midnightblue" stroke="midnightblue" points="534.37,-149.812 542.053,-142.516 531.497,-143.428 534.37,-149.812"/>
</g>
<!-- Node26&#45;&gt;Node17 -->
<g id="edge59" class="edge"><title>Node26&#45;&gt;Node17</title>
<path fill="none" stroke="midnightblue" d="M482.81,-179.444C529.057,-169.984 603.59,-154.738 653.414,-144.547"/>
<polygon fill="midnightblue" stroke="midnightblue" points="654.246,-147.949 663.342,-142.516 652.844,-141.091 654.246,-147.949"/>
</g>
<!-- Node26&#45;&gt;Node18 -->
<g id="edge61" class="edge"><title>Node26&#45;&gt;Node18</title>
<path fill="none" stroke="midnightblue" d="M484.734,-182.997C551.271,-175.3 682.138,-159.813 803.563,-143.163"/>
<polygon fill="midnightblue" stroke="midnightblue" points="804.351,-146.588 813.78,-141.756 803.396,-139.653 804.351,-146.588"/>
</g>
<!-- Node26&#45;&gt;Node25 -->
<g id="edge60" class="edge"><title>Node26&#45;&gt;Node25</title>
<path fill="none" stroke="midnightblue" d="M440.978,-179.083C440.978,-172.006 440.978,-161.861 440.978,-152.986"/>
<polygon fill="midnightblue" stroke="midnightblue" points="444.478,-152.751 440.978,-142.751 437.478,-152.751 444.478,-152.751"/>
</g>
<!-- Node27 -->
<g id="node27" class="node"><title>Node27</title>
<g id="a_node27"><a xlink:href="ringbuffer_8hpp.html" target="_top" xlink:title="The RingBuffer class template. ">
<polygon fill="white" stroke="black" points="198.478,-123.5 198.478,-142.5 279.478,-142.5 279.478,-123.5 198.478,-123.5"/>
<text text-anchor="middle" x="238.978" y="-130.5" font-family="Helvetica,sans-Serif" font-size="10.00">ringbuffer.hpp</text>
</a>
</g>
</g>
<!-- Node26&#45;&gt;Node27 -->
<g id="edge62" class="edge"><title>Node26&#45;&gt;Node27</title>
<path fill="none" stroke="midnightblue" d="M408.971,-179.444C374.249,-170.162 318.69,-155.309 280.601,-145.127"/>
<polygon fill="midnightblue" stroke="midnightblue" points="281.4,-141.718 270.836,-142.516 279.593,-148.48 281.4,-141.718"/>
</g>
<!-- Node28 -->
<g id="node28" class="node"><title>Node28</title>
<polygon fill="white" stroke="#bfbfbf" points="30.478,-56.5 30.478,-86.5 151.478,-86.5 151.478,-56.5 30.478,-56.5"/>
<text text-anchor="start" x="38.478" y="-74.5" font-family="Helvetica,sans-Serif" font-size="10.00">../contrib/pa_ringbuffer</text>
<text text-anchor="middle" x="90.978" y="-63.5" font-family="Helvetica,sans-Serif" font-size="10.00">/pa_ringbuffer.h</text>
</g>
<!-- Node27&#45;&gt;Node28 -->
<g id="edge63" class="edge"><title>Node27&#45;&gt;Node28</title>
<path fill="none" stroke="midnightblue" d="M217.773,-123.475C196.324,-114.852 162.526,-101.264 135.217,-90.2852"/>
<polygon fill="midnightblue" stroke="midnightblue" points="136.443,-87.0058 125.859,-86.523 133.831,-93.5005 136.443,-87.0058"/>
</g>
<!-- Node29&#45;&gt;Node6 -->
<g id="edge69" class="edge"><title>Node29&#45;&gt;Node6</title>
<path fill="none" stroke="midnightblue" d="M1220.65,-179.46C1230.94,-166.912 1246.93,-142.835 1237.98,-123 1219.45,-81.9602 1202.28,-76.0776 1161.98,-56 1100.92,-25.5852 1020.55,-15.7247 975.795,-12.5297"/>
<polygon fill="midnightblue" stroke="midnightblue" points="975.95,-9.03249 965.745,-11.8826 975.5,-16.018 975.95,-9.03249"/>
</g>
<!-- Node29&#45;&gt;Node8 -->
<g id="edge72" class="edge"><title>Node29&#45;&gt;Node8</title>
<path fill="none" stroke="midnightblue" d="M1251.17,-179.444C1293.12,-170.043 1360.57,-154.929 1406.05,-144.739"/>
<polygon fill="midnightblue" stroke="midnightblue" points="1406.98,-148.118 1415.97,-142.516 1405.45,-141.288 1406.98,-148.118"/>
</g>
<!-- Node29&#45;&gt;Node18 -->
<g id="edge71" class="edge"><title>Node29&#45;&gt;Node18</title>
<path fill="none" stroke="midnightblue" d="M1158.45,-179.562C1094.94,-169.736 990.335,-153.551 924.404,-143.35"/>
<polygon fill="midnightblue" stroke="midnightblue" points="924.585,-139.836 914.167,-141.766 923.514,-146.754 924.585,-139.836"/>
</g>
<!-- Node30 -->
<g id="node30" class="node"><title>Node30</title>
<polygon fill="white" stroke="#bfbfbf" points="1198.48,-123.5 1198.48,-142.5 1229.48,-142.5 1229.48,-123.5 1198.48,-123.5"/>
<text text-anchor="middle" x="1213.98" y="-130.5" font-family="Helvetica,sans-Serif" font-size="10.00">set</text>
</g>
<!-- Node29&#45;&gt;Node30 -->
<g id="edge70" class="edge"><title>Node29&#45;&gt;Node30</title>
<path fill="none" stroke="midnightblue" d="M1213.14,-179.083C1213.27,-172.006 1213.46,-161.861 1213.63,-152.986"/>
<polygon fill="midnightblue" stroke="midnightblue" points="1217.13,-152.814 1213.82,-142.751 1210.13,-152.685 1217.13,-152.814"/>
</g>
<!-- Node31&#45;&gt;Node6 -->
<g id="edge75" class="edge"><title>Node31&#45;&gt;Node6</title>
<path fill="none" stroke="midnightblue" d="M1601.91,-179.492C1627.63,-168.528 1664.03,-147.886 1649.98,-123 1621.65,-72.8183 1593.87,-73.532 1538.98,-56 1432.86,-22.1056 1085.87,-13.4222 975.799,-11.4941"/>
<polygon fill="midnightblue" stroke="midnightblue" points="975.666,-7.99151 965.609,-11.3233 975.549,-14.9905 975.666,-7.99151"/>
</g>
<!-- Node31&#45;&gt;Node8 -->
<g id="edge77" class="edge"><title>Node31&#45;&gt;Node8</title>
<path fill="none" stroke="midnightblue" d="M1559.17,-179.444C1538.69,-170.596 1506.5,-156.687 1483.11,-146.586"/>
<polygon fill="midnightblue" stroke="midnightblue" points="1484.26,-143.269 1473.69,-142.516 1481.48,-149.695 1484.26,-143.269"/>
</g>
<!-- Node32 -->
<g id="node32" class="node"><title>Node32</title>
<polygon fill="white" stroke="#bfbfbf" points="1564.48,-123.5 1564.48,-142.5 1641.48,-142.5 1641.48,-123.5 1564.48,-123.5"/>
<text text-anchor="middle" x="1602.98" y="-130.5" font-family="Helvetica,sans-Serif" font-size="10.00">initializer_list</text>
</g>
<!-- Node31&#45;&gt;Node32 -->
<g id="edge76" class="edge"><title>Node31&#45;&gt;Node32</title>
<path fill="none" stroke="midnightblue" d="M1582.94,-179.083C1586.19,-171.77 1590.9,-161.181 1594.93,-152.103"/>
<polygon fill="midnightblue" stroke="midnightblue" points="1598.23,-153.311 1599.09,-142.751 1591.83,-150.468 1598.23,-153.311"/>
</g>
</g>
</svg>
        <g id="navigator" transform="translate(0 0)" fill="#404254">
                <rect fill="#f2f5e9" fill-opacity="0.5" stroke="#606060" stroke-width=".5" x="0" y="0" width="60" height="60"/>
                <use id="zoomplus" xlink:href="#zoomPlus" x="17" y="9" onmousedown="handleZoom(evt,'in')"/>
                <use id="zoomminus" xlink:href="#zoomMin" x="42" y="9" onmousedown="handleZoom(evt,'out')"/>
                <use id="reset" xlink:href="#resetDef" x="30" y="36" onmousedown="handleReset()"/>
                <g id="arrowUp" xlink:href="#dirArrow" transform="translate(30 24)" onmousedown="handlePan(0,-1)">
                  <use xlink:href="#rim" fill="#404040">
                        <set attributeName="fill" to="#808080" begin="arrowUp.mouseover" end="arrowUp.mouseout"/>
                  </use>
                  <path fill="none" stroke="white" stroke-width="1.5" d="M0,-3.0v7 M-2.5,-0.5L0,-3.0L2.5,-0.5"/>
                </g>
                <g id="arrowRight" xlink:href="#dirArrow" transform="rotate(90) translate(36 -43)" onmousedown="handlePan(1,0)">
                  <use xlink:href="#rim" fill="#404040">
                        <set attributeName="fill" to="#808080" begin="arrowRight.mouseover" end="arrowRight.mouseout"/>
                  </use>
                  <path fill="none" stroke="white" stroke-width="1.5" d="M0,-3.0v7 M-2.5,-0.5L0,-3.0L2.5,-0.5"/>
                </g>
                <g id="arrowDown" xlink:href="#dirArrow" transform="rotate(180) translate(-30 -48)" onmousedown="handlePan(0,1)">
                  <use xlink:href="#rim" fill="#404040">
                        <set attributeName="fill" to="#808080" begin="arrowDown.mouseover" end="arrowDown.mouseout"/>
                  </use>
                  <path fill="none" stroke="white" stroke-width="1.5" d="M0,-3.0v7 M-2.5,-0.5L0,-3.0L2.5,-0.5"/>
                </g>
                <g id="arrowLeft" xlink:href="#dirArrow" transform="rotate(270) translate(-36 17)" onmousedown="handlePan(-1,0)">
                  <use xlink:href="#rim" fill="#404040">
                        <set attributeName="fill" to="#808080" begin="arrowLeft.mouseover" end="arrowLeft.mouseout"/>
                  </use>
                  <path fill="none" stroke="white" stroke-width="1.5" d="M0,-3.0v7 M-2.5,-0.5L0,-3.0L2.5,-0.5"/>
                </g>
        </g>
        <svg viewBox="0 0 15 15" width="100%" height="30px" preserveAspectRatio="xMaxYMin meet">
         <g id="arrow_out" transform="scale(0.3 0.3)">
          <a xlink:href="cmd_8hpp__incl_org.svg" target="_base">
           <rect id="button" ry="5" rx="5" y="6" x="6" height="38" width="38"
                fill="#f2f5e9" fill-opacity="0.5" stroke="#606060" stroke-width="1.0"/>
           <path id="arrow"
             d="M 11.500037,31.436501 C 11.940474,20.09759 22.043105,11.32322 32.158766,21.979434 L 37.068811,17.246167 C 37.068811,17.246167 37.088388,32 37.088388,32 L 22.160133,31.978069 C 22.160133,31.978069 26.997745,27.140456 26.997745,27.140456 C 18.528582,18.264221 13.291696,25.230495 11.500037,31.436501 z"
             style="fill:#404040;"/>
          </a>
         </g>
        </svg>
</svg>
