<?xml version="1.0" encoding="UTF-8" standalone="no"?>
<!DOCTYPE svg PUBLIC "-//W3C//DTD SVG 1.1//EN"
 "http://www.w3.org/Graphics/SVG/1.1/DTD/svg11.dtd">
<!-- Generated by graphviz version 2.38.0 (20140413.2041)
 -->
<!-- Title: src/cmd_result.cpp Pages: 1 -->
<svg width="342pt" height="252pt"
 viewBox="0.00 0.00 341.50 252.00" xmlns="http://www.w3.org/2000/svg" xmlns:xlink="http://www.w3.org/1999/xlink">
<g id="graph0" class="graph" transform="scale(1 1) rotate(0) translate(4 248)">
<title>src/cmd_result.cpp</title>
<polygon fill="white" stroke="none" points="-4,4 -4,-248 337.5,-248 337.5,4 -4,4"/>
<!-- Node1 -->
<g id="node1" class="node"><title>Node1</title>
<polygon fill="#bfbfbf" stroke="black" points="125.5,-224.5 125.5,-243.5 232.5,-243.5 232.5,-224.5 125.5,-224.5"/>
<text text-anchor="middle" x="179" y="-231.5" font-family="Helvetica,sans-Serif" font-size="10.00">src/cmd_result.cpp</text>
</g>
<!-- Node2 -->
<g id="node2" class="node"><title>Node2</title>
<polygon fill="white" stroke="#bfbfbf" points="0,-56.5 0,-75.5 44,-75.5 44,-56.5 0,-56.5"/>
<text text-anchor="middle" x="22" y="-63.5" font-family="Helvetica,sans-Serif" font-size="10.00">string</text>
</g>
<!-- Node1&#45;&gt;Node2 -->
<g id="edge1" class="edge"><title>Node1&#45;&gt;Node2</title>
<path fill="none" stroke="midnightblue" d="M164.213,-224.472C138.434,-208.97 84.8825,-173.876 52,-132 40.9768,-117.962 32.8803,-99.2189 27.8958,-85.4673"/>
<polygon fill="midnightblue" stroke="midnightblue" points="31.1048,-84.0328 24.5691,-75.6941 24.4782,-86.2885 31.1048,-84.0328"/>
</g>
<!-- Node3 -->
<g id="node3" class="node"><title>Node3</title>
<polygon fill="white" stroke="#bfbfbf" points="286.5,-56.5 286.5,-75.5 333.5,-75.5 333.5,-56.5 286.5,-56.5"/>
<text text-anchor="middle" x="310" y="-63.5" font-family="Helvetica,sans-Serif" font-size="10.00">vector</text>
</g>
<!-- Node1&#45;&gt;Node3 -->
<g id="edge2" class="edge"><title>Node1&#45;&gt;Node3</title>
<path fill="none" stroke="midnightblue" d="M204.109,-224.45C223.558,-216.965 250.4,-204.673 270,-188 293.297,-168.182 300.666,-161.127 310,-132 314.794,-117.039 314.374,-99.1269 312.993,-85.8982"/>
<polygon fill="midnightblue" stroke="midnightblue" points="316.421,-85.1244 311.639,-75.6703 309.482,-86.0432 316.421,-85.1244"/>
</g>
<!-- Node4 -->
<g id="node4" class="node"><title>Node4</title>
<g id="a_node4"><a xlink:href="io__response_8hpp.html" target="_top" xlink:title="Declaration of classes pertaining to responses to the client. ">
<polygon fill="white" stroke="black" points="88.5,-112.5 88.5,-131.5 195.5,-131.5 195.5,-112.5 88.5,-112.5"/>
<text text-anchor="middle" x="142" y="-119.5" font-family="Helvetica,sans-Serif" font-size="10.00">io/io_response.hpp</text>
</a>
</g>
</g>
<!-- Node1&#45;&gt;Node4 -->
<g id="edge3" class="edge"><title>Node1&#45;&gt;Node4</title>
<path fill="none" stroke="midnightblue" d="M175.301,-224.466C171.475,-215.483 165.449,-200.885 161,-188 155.664,-172.546 150.519,-154.701 146.932,-141.623"/>
<polygon fill="midnightblue" stroke="midnightblue" points="150.297,-140.661 144.315,-131.916 143.538,-142.483 150.297,-140.661"/>
</g>
<!-- Node10 -->
<g id="node10" class="node"><title>Node10</title>
<g id="a_node10"><a xlink:href="cmd__result_8hpp.html" target="_top" xlink:title="Declaration of the CommandResult class. ">
<polygon fill="white" stroke="black" points="170.5,-168.5 170.5,-187.5 261.5,-187.5 261.5,-168.5 170.5,-168.5"/>
<text text-anchor="middle" x="216" y="-175.5" font-family="Helvetica,sans-Serif" font-size="10.00">cmd_result.hpp</text>
</a>
</g>
</g>
<!-- Node1&#45;&gt;Node10 -->
<g id="edge11" class="edge"><title>Node1&#45;&gt;Node10</title>
<path fill="none" stroke="midnightblue" d="M185.11,-224.083C190.282,-216.534 197.846,-205.495 204.194,-196.23"/>
<polygon fill="midnightblue" stroke="midnightblue" points="207.239,-197.979 210.004,-187.751 201.464,-194.022 207.239,-197.979"/>
</g>
<!-- Node4&#45;&gt;Node2 -->
<g id="edge6" class="edge"><title>Node4&#45;&gt;Node2</title>
<path fill="none" stroke="midnightblue" d="M122.986,-112.444C103.412,-103.636 72.6924,-89.8116 50.2711,-79.722"/>
<polygon fill="midnightblue" stroke="midnightblue" points="51.4809,-76.4284 40.9254,-75.5164 48.6083,-82.8119 51.4809,-76.4284"/>
</g>
<!-- Node4&#45;&gt;Node3 -->
<g id="edge7" class="edge"><title>Node4&#45;&gt;Node3</title>
<path fill="none" stroke="midnightblue" d="M168.62,-112.444C197.924,-103.024 245.074,-87.869 276.778,-77.6785"/>
<polygon fill="midnightblue" stroke="midnightblue" points="278.037,-80.9503 286.486,-74.558 275.895,-74.286 278.037,-80.9503"/>
</g>
<!-- Node5 -->
<g id="node5" class="node"><title>Node5</title>
<polygon fill="white" stroke="#bfbfbf" points="62,-56.5 62,-75.5 100,-75.5 100,-56.5 62,-56.5"/>
<text text-anchor="middle" x="81" y="-63.5" font-family="Helvetica,sans-Serif" font-size="10.00">map</text>
</g>
<!-- Node4&#45;&gt;Node5 -->
<g id="edge4" class="edge"><title>Node4&#45;&gt;Node5</title>
<path fill="none" stroke="midnightblue" d="M132.199,-112.324C123.182,-104.341 109.594,-92.3128 98.682,-82.6529"/>
<polygon fill="midnightblue" stroke="midnightblue" points="100.787,-79.8416 90.979,-75.8339 96.1467,-85.083 100.787,-79.8416"/>
</g>
<!-- Node6 -->
<g id="node6" class="node"><title>Node6</title>
<polygon fill="white" stroke="#bfbfbf" points="118.5,-56.5 118.5,-75.5 175.5,-75.5 175.5,-56.5 118.5,-56.5"/>
<text text-anchor="middle" x="147" y="-63.5" font-family="Helvetica,sans-Serif" font-size="10.00">ostream</text>
</g>
<!-- Node4&#45;&gt;Node6 -->
<g id="edge5" class="edge"><title>Node4&#45;&gt;Node6</title>
<path fill="none" stroke="midnightblue" d="M142.826,-112.083C143.481,-105.006 144.42,-94.8611 145.242,-85.9865"/>
<polygon fill="midnightblue" stroke="midnightblue" points="148.753,-86.0312 146.19,-75.7511 141.783,-85.3858 148.753,-86.0312"/>
</g>
<!-- Node7 -->
<g id="node7" class="node"><title>Node7</title>
<g id="a_node7"><a xlink:href="errors_8hpp.html" target="_top" xlink:title="Declarations of the playd Error exception set. ">
<polygon fill="white" stroke="black" points="193.5,-56.5 193.5,-75.5 268.5,-75.5 268.5,-56.5 193.5,-56.5"/>
<text text-anchor="middle" x="231" y="-63.5" font-family="Helvetica,sans-Serif" font-size="10.00">../errors.hpp</text>
</a>
</g>
</g>
<!-- Node4&#45;&gt;Node7 -->
<g id="edge8" class="edge"><title>Node4&#45;&gt;Node7</title>
<path fill="none" stroke="midnightblue" d="M156.299,-112.324C170.183,-103.9 191.492,-90.9709 207.804,-81.0741"/>
<polygon fill="midnightblue" stroke="midnightblue" points="210.002,-83.8341 216.736,-75.6545 206.371,-77.8495 210.002,-83.8341"/>
</g>
<!-- Node8 -->
<g id="node8" class="node"><title>Node8</title>
<polygon fill="white" stroke="#bfbfbf" points="163.5,-0.5 163.5,-19.5 222.5,-19.5 222.5,-0.5 163.5,-0.5"/>
<text text-anchor="middle" x="193" y="-7.5" font-family="Helvetica,sans-Serif" font-size="10.00">iostream</text>
</g>
<!-- Node7&#45;&gt;Node8 -->
<g id="edge9" class="edge"><title>Node7&#45;&gt;Node8</title>
<path fill="none" stroke="midnightblue" d="M224.725,-56.083C219.358,-48.4554 211.482,-37.2645 204.921,-27.9408"/>
<polygon fill="midnightblue" stroke="midnightblue" points="207.775,-25.9149 199.158,-19.7511 202.051,-29.9434 207.775,-25.9149"/>
</g>
<!-- Node9 -->
<g id="node9" class="node"><title>Node9</title>
<polygon fill="white" stroke="#bfbfbf" points="241,-0.5 241,-19.5 297,-19.5 297,-0.5 241,-0.5"/>
<text text-anchor="middle" x="269" y="-7.5" font-family="Helvetica,sans-Serif" font-size="10.00">sstream</text>
</g>
<!-- Node7&#45;&gt;Node9 -->
<g id="edge10" class="edge"><title>Node7&#45;&gt;Node9</title>
<path fill="none" stroke="midnightblue" d="M237.275,-56.083C242.642,-48.4554 250.518,-37.2645 257.079,-27.9408"/>
<polygon fill="midnightblue" stroke="midnightblue" points="259.949,-29.9434 262.842,-19.7511 254.225,-25.9149 259.949,-29.9434"/>
</g>
<!-- Node10&#45;&gt;Node2 -->
<g id="edge13" class="edge"><title>Node10&#45;&gt;Node2</title>
<path fill="none" stroke="midnightblue" d="M170.431,-168.458C142.399,-161.705 106.671,-150.293 79,-132 60.1018,-119.507 43.6736,-99.1498 33.3723,-84.545"/>
<polygon fill="midnightblue" stroke="midnightblue" points="36.0321,-82.2312 27.5232,-75.9186 30.2384,-86.1596 36.0321,-82.2312"/>
</g>
<!-- Node10&#45;&gt;Node3 -->
<g id="edge14" class="edge"><title>Node10&#45;&gt;Node3</title>
<path fill="none" stroke="midnightblue" d="M217.93,-168.158C221.204,-154.798 228.903,-129.201 243,-112 253.752,-98.8797 269.319,-88.105 282.741,-80.3916"/>
<polygon fill="midnightblue" stroke="midnightblue" points="284.508,-83.415 291.606,-75.5495 281.152,-77.2717 284.508,-83.415"/>
</g>
<!-- Node10&#45;&gt;Node4 -->
<g id="edge15" class="edge"><title>Node10&#45;&gt;Node4</title>
<path fill="none" stroke="midnightblue" d="M204.111,-168.324C192.85,-160.107 175.713,-147.602 162.291,-137.807"/>
<polygon fill="midnightblue" stroke="midnightblue" points="164.247,-134.901 154.106,-131.834 160.12,-140.556 164.247,-134.901"/>
</g>
<!-- Node11 -->
<g id="node11" class="node"><title>Node11</title>
<polygon fill="white" stroke="#bfbfbf" points="252.5,-112.5 252.5,-131.5 301.5,-131.5 301.5,-112.5 252.5,-112.5"/>
<text text-anchor="middle" x="277" y="-119.5" font-family="Helvetica,sans-Serif" font-size="10.00">cstdint</text>
</g>
<!-- Node10&#45;&gt;Node11 -->
<g id="edge12" class="edge"><title>Node10&#45;&gt;Node11</title>
<path fill="none" stroke="midnightblue" d="M225.801,-168.324C234.818,-160.341 248.406,-148.313 259.318,-138.653"/>
<polygon fill="midnightblue" stroke="midnightblue" points="261.853,-141.083 267.021,-131.834 257.213,-135.842 261.853,-141.083"/>
</g>
</g>
</svg>
