<?xml version="1.0" encoding="UTF-8" standalone="no"?>
<!DOCTYPE svg PUBLIC "-//W3C//DTD SVG 1.1//EN"
 "http://www.w3.org/Graphics/SVG/1.1/DTD/svg11.dtd">
<!-- Generated by graphviz version 2.38.0 (20140413.2041)
 -->
<!-- Title: src/cmd.cpp Pages: 1 -->
<!--zoomable 487 -->
<svg id="main" version="1.1" xmlns="http://www.w3.org/2000/svg" xmlns:xlink="http://www.w3.org/1999/xlink" xml:space="preserve" onload="init(evt)">
<style type="text/css"><![CDATA[
.edge:hover path { stroke: red; }
.edge:hover polygon { stroke: red; fill: red; }
]]></style>
<script type="text/javascript"><![CDATA[
var edges = document.getElementsByTagName('g');
if (edges && edges.length) {
  for (var i=0;i<edges.length;i++) {
    if (edges[i].id.substr(0,4)=='edge') {
      edges[i].setAttribute('class','edge');
    }
  }
}
]]></script>
        <defs>
                <circle id="rim" cx="0" cy="0" r="7"/>
                <circle id="rim2" cx="0" cy="0" r="3.5"/>
                <g id="zoomPlus">
                        <use xlink:href="#rim" fill="#404040">
                                <set attributeName="fill" to="#808080" begin="zoomplus.mouseover" end="zoomplus.mouseout"/>
                        </use>
                        <path d="M-4,0h8M0,-4v8" fill="none" stroke="white" stroke-width="1.5" pointer-events="none"/>
                </g>
                <g id="zoomMin">
                        <use xlink:href="#rim" fill="#404040">
                                <set attributeName="fill" to="#808080" begin="zoomminus.mouseover" end="zoomminus.mouseout"/>
                        </use>
                        <path d="M-4,0h8" fill="none" stroke="white" stroke-width="1.5" pointer-events="none"/>
                </g>
                <g id="dirArrow">
                        <path fill="none" stroke="white" stroke-width="1.5" d="M0,-3.0v7 M-2.5,-0.5L0,-3.0L2.5,-0.5"/>
                </g>
               <g id="resetDef">
                       <use xlink:href="#rim2" fill="#404040">
                               <set attributeName="fill" to="#808080" begin="reset.mouseover" end="reset.mouseout"/>
                       </use>
               </g>
        </defs>

<script type="text/javascript">
var viewWidth = 1708;
var viewHeight = 487;
var sectionId = 'dynsection-0';
</script>
<script xlink:href="svgpan.js"/>
<svg id="graph" class="graph">
<g id="viewport">
<title>src/cmd.cpp</title>
<polygon fill="white" stroke="none" points="-4,4 -4,-483 1704,-483 1704,4 -4,4"/>
<!-- Node1 -->
<g id="node1" class="node"><title>Node1</title>
<polygon fill="#bfbfbf" stroke="black" points="197.5,-459.5 197.5,-478.5 270.5,-478.5 270.5,-459.5 197.5,-459.5"/>
<text text-anchor="middle" x="234" y="-466.5" font-family="Helvetica,sans-Serif" font-size="10.00">src/cmd.cpp</text>
</g>
<!-- Node2 -->
<g id="node2" class="node"><title>Node2</title>
<polygon fill="white" stroke="#bfbfbf" points="23.5,-0.5 23.5,-19.5 80.5,-19.5 80.5,-0.5 23.5,-0.5"/>
<text text-anchor="middle" x="52" y="-7.5" font-family="Helvetica,sans-Serif" font-size="10.00">iostream</text>
</g>
<!-- Node1&#45;&gt;Node2 -->
<g id="edge1" class="edge"><title>Node1&#45;&gt;Node2</title>
<path fill="none" stroke="midnightblue" d="M197.438,-466.973C131.625,-462.969 0,-444.188 0,-358 0,-358 0,-358 0,-132 0,-92.1869 24.0572,-50.5543 39.4454,-27.9964"/>
<polygon fill="midnightblue" stroke="midnightblue" points="42.4971,-29.7429 45.4142,-19.5575 36.7821,-25.7007 42.4971,-29.7429"/>
</g>
<!-- Node3 -->
<g id="node3" class="node"><title>Node3</title>
<polygon fill="white" stroke="#bfbfbf" points="1048.5,-0.5 1048.5,-19.5 1091.5,-19.5 1091.5,-0.5 1048.5,-0.5"/>
<text text-anchor="middle" x="1070" y="-7.5" font-family="Helvetica,sans-Serif" font-size="10.00">string</text>
</g>
<!-- Node1&#45;&gt;Node3 -->
<g id="edge2" class="edge"><title>Node1&#45;&gt;Node3</title>
<path fill="none" stroke="midnightblue" d="M270.604,-467.224C497.287,-462.187 1700,-431.977 1700,-358 1700,-358 1700,-358 1700,-132 1700,-70.4499 1230.25,-24.9749 1102.01,-13.7074"/>
<polygon fill="midnightblue" stroke="midnightblue" points="1101.95,-10.1894 1091.69,-12.8098 1101.35,-17.1631 1101.95,-10.1894"/>
</g>
<!-- Node4 -->
<g id="node4" class="node"><title>Node4</title>
<g id="a_node4"><a xlink:href="cmd_8hpp.html" target="_top" xlink:title="Declaration of the CommandHandler class. ">
<polygon fill="white" stroke="black" points="300,-403.5 300,-422.5 356,-422.5 356,-403.5 300,-403.5"/>
<text text-anchor="middle" x="328" y="-410.5" font-family="Helvetica,sans-Serif" font-size="10.00">cmd.hpp</text>
</a>
</g>
</g>
<!-- Node1&#45;&gt;Node4 -->
<g id="edge3" class="edge"><title>Node1&#45;&gt;Node4</title>
<path fill="none" stroke="midnightblue" d="M249.103,-459.324C263.903,-450.822 286.694,-437.729 303.982,-427.797"/>
<polygon fill="midnightblue" stroke="midnightblue" points="306.007,-430.671 312.935,-422.655 302.52,-424.601 306.007,-430.671"/>
</g>
<!-- Node18 -->
<g id="node18" class="node"><title>Node18</title>
<g id="a_node18"><a xlink:href="errors_8hpp.html" target="_top" xlink:title="Declarations of the playd Error exception set. ">
<polygon fill="white" stroke="black" points="242.5,-62 242.5,-81 315.5,-81 315.5,-62 242.5,-62"/>
<text text-anchor="middle" x="279" y="-69" font-family="Helvetica,sans-Serif" font-size="10.00">../errors.hpp</text>
</a>
</g>
</g>
<!-- Node1&#45;&gt;Node18 -->
<g id="edge79" class="edge"><title>Node1&#45;&gt;Node18</title>
<path fill="none" stroke="midnightblue" d="M228.716,-459.231C218.275,-441.043 196,-397.601 196,-358 196,-358 196,-358 196,-188 196,-145.149 234.141,-107.318 258.713,-87.393"/>
<polygon fill="midnightblue" stroke="midnightblue" points="261.026,-90.0269 266.753,-81.1131 256.718,-84.5101 261.026,-90.0269"/>
</g>
<!-- Node21 -->
<g id="node21" class="node"><title>Node21</title>
<g id="a_node21"><a xlink:href="io__response_8hpp.html" target="_top" xlink:title="Declaration of classes pertaining to responses to the client. ">
<polygon fill="white" stroke="black" points="1145,-179.5 1145,-198.5 1259,-198.5 1259,-179.5 1145,-179.5"/>
<text text-anchor="middle" x="1202" y="-186.5" font-family="Helvetica,sans-Serif" font-size="10.00">../io/io_response.hpp</text>
</a>
</g>
</g>
<!-- Node1&#45;&gt;Node21 -->
<g id="edge80" class="edge"><title>Node1&#45;&gt;Node21</title>
<path fill="none" stroke="midnightblue" d="M239.081,-459.292C247.808,-445.15 267.042,-417.331 291,-403 541.549,-253.131 646.826,-321.936 931,-255 1010.64,-236.242 1103.31,-213.904 1157.05,-200.9"/>
<polygon fill="midnightblue" stroke="midnightblue" points="1158.05,-204.26 1166.94,-198.505 1156.4,-197.457 1158.05,-204.26"/>
</g>
<!-- Node24 -->
<g id="node24" class="node"><title>Node24</title>
<g id="a_node24"><a xlink:href="messages_8h.html" target="_top" xlink:title="Constant human&#45;readable messages used within playd. ">
<polygon fill="white" stroke="black" points="112.5,-62 112.5,-81 185.5,-81 185.5,-62 112.5,-62"/>
<text text-anchor="middle" x="149" y="-69" font-family="Helvetica,sans-Serif" font-size="10.00">messages.h</text>
</a>
</g>
</g>
<!-- Node1&#45;&gt;Node24 -->
<g id="edge81" class="edge"><title>Node1&#45;&gt;Node24</title>
<path fill="none" stroke="midnightblue" d="M197.134,-463.968C140.357,-455.487 38,-430.188 38,-358 38,-358 38,-358 38,-188 38,-157.902 38.1547,-146.468 57,-123 71.1513,-105.378 93.1887,-92.9764 112.147,-84.874"/>
<polygon fill="midnightblue" stroke="midnightblue" points="113.472,-88.1138 121.44,-81.1309 110.857,-81.6207 113.472,-88.1138"/>
</g>
<!-- Node5 -->
<g id="node5" class="node"><title>Node5</title>
<polygon fill="white" stroke="#bfbfbf" points="1580.5,-123.5 1580.5,-142.5 1617.5,-142.5 1617.5,-123.5 1580.5,-123.5"/>
<text text-anchor="middle" x="1599" y="-130.5" font-family="Helvetica,sans-Serif" font-size="10.00">map</text>
</g>
<!-- Node4&#45;&gt;Node5 -->
<g id="edge4" class="edge"><title>Node4&#45;&gt;Node5</title>
<path fill="none" stroke="midnightblue" d="M356.432,-411.441C499.657,-408.515 1143.04,-394.07 1341,-367 1450.38,-352.043 1496.78,-379.941 1583,-311 1630.17,-273.283 1614.56,-189.757 1604.6,-152.53"/>
<polygon fill="midnightblue" stroke="midnightblue" points="1607.87,-151.226 1601.76,-142.565 1601.13,-153.141 1607.87,-151.226"/>
</g>
<!-- Node6 -->
<g id="node6" class="node"><title>Node6</title>
<polygon fill="white" stroke="#bfbfbf" points="262,-123.5 262,-142.5 316,-142.5 316,-123.5 262,-123.5"/>
<text text-anchor="middle" x="289" y="-130.5" font-family="Helvetica,sans-Serif" font-size="10.00">memory</text>
</g>
<!-- Node4&#45;&gt;Node6 -->
<g id="edge5" class="edge"><title>Node4&#45;&gt;Node6</title>
<path fill="none" stroke="midnightblue" d="M326.79,-403.375C321.365,-364.701 299.212,-206.794 291.59,-152.465"/>
<polygon fill="midnightblue" stroke="midnightblue" points="295.051,-151.941 290.196,-142.524 288.119,-152.914 295.051,-151.941"/>
</g>
<!-- Node7 -->
<g id="node7" class="node"><title>Node7</title>
<polygon fill="white" stroke="#bfbfbf" points="781,-62 781,-81 827,-81 827,-62 781,-62"/>
<text text-anchor="middle" x="804" y="-69" font-family="Helvetica,sans-Serif" font-size="10.00">vector</text>
</g>
<!-- Node4&#45;&gt;Node7 -->
<g id="edge6" class="edge"><title>Node4&#45;&gt;Node7</title>
<path fill="none" stroke="midnightblue" d="M312.478,-403.353C285.779,-387.203 234,-349.729 234,-302 234,-302 234,-302 234,-188 234,-157.902 229.766,-142.133 253,-123 263.067,-114.71 652.754,-84.1297 770.59,-75.0549"/>
<polygon fill="midnightblue" stroke="midnightblue" points="771.109,-78.5254 780.811,-74.2692 770.572,-71.546 771.109,-78.5254"/>
</g>
<!-- Node8 -->
<g id="node8" class="node"><title>Node8</title>
<g id="a_node8"><a xlink:href="player_8hpp.html" target="_top" xlink:title="Declaration of the Player class, and associated types. ">
<polygon fill="white" stroke="black" points="1234,-347.5 1234,-366.5 1332,-366.5 1332,-347.5 1234,-347.5"/>
<text text-anchor="middle" x="1283" y="-354.5" font-family="Helvetica,sans-Serif" font-size="10.00">player/player.hpp</text>
</a>
</g>
</g>
<!-- Node4&#45;&gt;Node8 -->
<g id="edge7" class="edge"><title>Node4&#45;&gt;Node8</title>
<path fill="none" stroke="midnightblue" d="M356.064,-410.413C487.145,-403.001 1040.44,-371.716 1223.74,-361.351"/>
<polygon fill="midnightblue" stroke="midnightblue" points="1223.95,-364.845 1233.73,-360.786 1223.55,-357.856 1223.95,-364.845"/>
</g>
<!-- Node8&#45;&gt;Node3 -->
<g id="edge12" class="edge"><title>Node8&#45;&gt;Node3</title>
<path fill="none" stroke="midnightblue" d="M1332.14,-347.836C1377.67,-339.534 1441.37,-325.814 1462,-311 1530.9,-261.511 1543.81,-192.384 1495,-123 1448.91,-57.4824 1192.53,-24.0956 1101.82,-14.2067"/>
<polygon fill="midnightblue" stroke="midnightblue" points="1101.91,-10.6975 1091.6,-13.1167 1101.17,-17.658 1101.91,-10.6975"/>
</g>
<!-- Node8&#45;&gt;Node5 -->
<g id="edge10" class="edge"><title>Node8&#45;&gt;Node5</title>
<path fill="none" stroke="midnightblue" d="M1332.25,-354.585C1403.36,-351.49 1529.84,-341.707 1562,-311 1606.05,-268.939 1604.58,-188.977 1601.29,-152.714"/>
<polygon fill="midnightblue" stroke="midnightblue" points="1604.75,-152.153 1600.21,-142.579 1597.79,-152.893 1604.75,-152.153"/>
</g>
<!-- Node8&#45;&gt;Node6 -->
<g id="edge11" class="edge"><title>Node8&#45;&gt;Node6</title>
<path fill="none" stroke="midnightblue" d="M1233.86,-351.167C1119.85,-339.448 828.867,-306.63 590,-255 502.283,-236.04 478.181,-235.057 396,-199 364.098,-185.003 330.2,-163.053 309.31,-148.596"/>
<polygon fill="midnightblue" stroke="midnightblue" points="311.135,-145.601 300.94,-142.72 307.114,-151.33 311.135,-145.601"/>
</g>
<!-- Node9 -->
<g id="node9" class="node"><title>Node9</title>
<polygon fill="white" stroke="#bfbfbf" points="1244.5,-0.5 1244.5,-19.5 1291.5,-19.5 1291.5,-0.5 1244.5,-0.5"/>
<text text-anchor="middle" x="1268" y="-7.5" font-family="Helvetica,sans-Serif" font-size="10.00">cstdint</text>
</g>
<!-- Node8&#45;&gt;Node9 -->
<g id="edge8" class="edge"><title>Node8&#45;&gt;Node9</title>
<path fill="none" stroke="midnightblue" d="M1332.14,-347.767C1333.78,-347.506 1335.4,-347.25 1337,-347 1391.58,-338.458 1538.47,-343.702 1583,-311 1652.17,-260.206 1675.36,-193.889 1627,-123 1589.46,-67.9724 1383.67,-29.5091 1301.71,-16.1656"/>
<polygon fill="midnightblue" stroke="midnightblue" points="1302.09,-12.6832 1291.67,-14.5565 1300.99,-19.595 1302.09,-12.6832"/>
</g>
<!-- Node10 -->
<g id="node10" class="node"><title>Node10</title>
<polygon fill="white" stroke="#bfbfbf" points="1396.5,-235.5 1396.5,-254.5 1473.5,-254.5 1473.5,-235.5 1396.5,-235.5"/>
<text text-anchor="middle" x="1435" y="-242.5" font-family="Helvetica,sans-Serif" font-size="10.00">initializer_list</text>
</g>
<!-- Node8&#45;&gt;Node10 -->
<g id="edge9" class="edge"><title>Node8&#45;&gt;Node10</title>
<path fill="none" stroke="midnightblue" d="M1332.17,-350.313C1359.9,-344.666 1393.25,-333.415 1415,-311 1426.94,-298.698 1431.77,-279.443 1433.71,-265.078"/>
<polygon fill="midnightblue" stroke="midnightblue" points="1437.22,-265.131 1434.73,-254.833 1430.26,-264.436 1437.22,-265.131"/>
</g>
<!-- Node11 -->
<g id="node11" class="node"><title>Node11</title>
<polygon fill="white" stroke="#bfbfbf" points="1296,-123.5 1296,-142.5 1336,-142.5 1336,-123.5 1296,-123.5"/>
<text text-anchor="middle" x="1316" y="-130.5" font-family="Helvetica,sans-Serif" font-size="10.00">utility</text>
</g>
<!-- Node8&#45;&gt;Node11 -->
<g id="edge13" class="edge"><title>Node8&#45;&gt;Node11</title>
<path fill="none" stroke="midnightblue" d="M1332.27,-349.558C1383.78,-339.664 1460.13,-315.071 1482,-255 1505.49,-190.461 1399.69,-154.547 1345.83,-140.715"/>
<polygon fill="midnightblue" stroke="midnightblue" points="1346.66,-137.315 1336.12,-138.314 1344.99,-144.11 1346.66,-137.315"/>
</g>
<!-- Node12 -->
<g id="node12" class="node"><title>Node12</title>
<g id="a_node12"><a xlink:href="audio_8hpp.html" target="_top" xlink:title="Declaration of the Audio class. ">
<polygon fill="white" stroke="black" points="991,-179.5 991,-198.5 1089,-198.5 1089,-179.5 991,-179.5"/>
<text text-anchor="middle" x="1040" y="-186.5" font-family="Helvetica,sans-Serif" font-size="10.00">../audio/audio.hpp</text>
</a>
</g>
</g>
<!-- Node8&#45;&gt;Node12 -->
<g id="edge14" class="edge"><title>Node8&#45;&gt;Node12</title>
<path fill="none" stroke="midnightblue" d="M1233.95,-354.007C1170.48,-350.282 1065.16,-339.821 1041,-311 1016.79,-282.121 1026.02,-234.306 1033.71,-208.27"/>
<polygon fill="midnightblue" stroke="midnightblue" points="1037.1,-209.155 1036.81,-198.564 1030.43,-207.025 1037.1,-209.155"/>
</g>
<!-- Node8&#45;&gt;Node21 -->
<g id="edge33" class="edge"><title>Node8&#45;&gt;Node21</title>
<path fill="none" stroke="midnightblue" d="M1273.47,-347.406C1256.32,-331.264 1220.69,-294.467 1206,-255 1200.51,-240.249 1199.81,-222.319 1200.31,-209.029"/>
<polygon fill="midnightblue" stroke="midnightblue" points="1203.82,-208.946 1200.97,-198.742 1196.84,-208.497 1203.82,-208.946"/>
</g>
<!-- Node23 -->
<g id="node23" class="node"><title>Node23</title>
<g id="a_node23"><a xlink:href="time__parser_8hpp.html" target="_top" xlink:title="The TimeParser template class. ">
<polygon fill="white" stroke="black" points="66.5,-123.5 66.5,-142.5 167.5,-142.5 167.5,-123.5 66.5,-123.5"/>
<text text-anchor="middle" x="117" y="-130.5" font-family="Helvetica,sans-Serif" font-size="10.00">../time_parser.hpp</text>
</a>
</g>
</g>
<!-- Node8&#45;&gt;Node23 -->
<g id="edge38" class="edge"><title>Node8&#45;&gt;Node23</title>
<path fill="none" stroke="midnightblue" d="M1233.8,-353.876C1108.63,-347.578 768.625,-324.855 495,-255 365.718,-221.995 215.742,-169.69 150.347,-146.166"/>
<polygon fill="midnightblue" stroke="midnightblue" points="151.188,-142.749 140.594,-142.645 148.811,-149.333 151.188,-142.749"/>
</g>
<!-- Node25 -->
<g id="node25" class="node"><title>Node25</title>
<g id="a_node25"><a xlink:href="player__file_8hpp.html" target="_top" xlink:title="Declaration of the PlayerFile class, and associated types. ">
<polygon fill="white" stroke="black" points="1050,-291.5 1050,-310.5 1136,-310.5 1136,-291.5 1050,-291.5"/>
<text text-anchor="middle" x="1093" y="-298.5" font-family="Helvetica,sans-Serif" font-size="10.00">player_file.hpp</text>
</a>
</g>
</g>
<!-- Node8&#45;&gt;Node25 -->
<g id="edge44" class="edge"><title>Node8&#45;&gt;Node25</title>
<path fill="none" stroke="midnightblue" d="M1252.89,-347.444C1220.37,-338.201 1168.42,-323.436 1132.61,-313.257"/>
<polygon fill="midnightblue" stroke="midnightblue" points="1133.54,-309.884 1122.97,-310.516 1131.63,-316.617 1133.54,-309.884"/>
</g>
<!-- Node33 -->
<g id="node33" class="node"><title>Node33</title>
<g id="a_node33"><a xlink:href="player__position_8hpp.html" target="_top" xlink:title="Declaration of the PlayerPosition class. ">
<polygon fill="white" stroke="black" points="1230.5,-235.5 1230.5,-254.5 1339.5,-254.5 1339.5,-235.5 1230.5,-235.5"/>
<text text-anchor="middle" x="1285" y="-242.5" font-family="Helvetica,sans-Serif" font-size="10.00">player_position.hpp</text>
</a>
</g>
</g>
<!-- Node8&#45;&gt;Node33 -->
<g id="edge74" class="edge"><title>Node8&#45;&gt;Node33</title>
<path fill="none" stroke="midnightblue" d="M1283.16,-347.368C1283.48,-329.617 1284.22,-288.666 1284.66,-264.597"/>
<polygon fill="midnightblue" stroke="midnightblue" points="1288.16,-264.653 1284.84,-254.591 1281.16,-264.526 1288.16,-264.653"/>
</g>
<!-- Node35 -->
<g id="node35" class="node"><title>Node35</title>
<g id="a_node35"><a xlink:href="player__state_8hpp.html" target="_top" xlink:title="Declaration of the PlayerState class, and associated types. ">
<polygon fill="white" stroke="black" points="1311.5,-291.5 1311.5,-310.5 1406.5,-310.5 1406.5,-291.5 1311.5,-291.5"/>
<text text-anchor="middle" x="1359" y="-298.5" font-family="Helvetica,sans-Serif" font-size="10.00">player_state.hpp</text>
</a>
</g>
</g>
<!-- Node8&#45;&gt;Node35 -->
<g id="edge75" class="edge"><title>Node8&#45;&gt;Node35</title>
<path fill="none" stroke="midnightblue" d="M1295.21,-347.324C1306.78,-339.107 1324.38,-326.602 1338.16,-316.807"/>
<polygon fill="midnightblue" stroke="midnightblue" points="1340.44,-319.479 1346.57,-310.834 1336.39,-313.773 1340.44,-319.479"/>
</g>
<!-- Node12&#45;&gt;Node3 -->
<g id="edge17" class="edge"><title>Node12&#45;&gt;Node3</title>
<path fill="none" stroke="midnightblue" d="M1083.08,-179.5C1131.09,-169.593 1203.08,-153.272 1211,-143 1221.47,-129.418 1243.61,-101.395 1210,-56 1185.12,-22.3967 1134.77,-13.3712 1101.73,-11.2294"/>
<polygon fill="midnightblue" stroke="midnightblue" points="1101.82,-7.72972 1091.66,-10.7534 1101.49,-14.7219 1101.82,-7.72972"/>
</g>
<!-- Node12&#45;&gt;Node6 -->
<g id="edge16" class="edge"><title>Node12&#45;&gt;Node6</title>
<path fill="none" stroke="midnightblue" d="M990.658,-185.646C878.826,-180.109 597.555,-165.042 363,-143 350.941,-141.867 337.81,-140.359 326.001,-138.903"/>
<polygon fill="midnightblue" stroke="midnightblue" points="326.384,-135.423 316.025,-137.646 325.509,-142.368 326.384,-135.423"/>
</g>
<!-- Node12&#45;&gt;Node7 -->
<g id="edge19" class="edge"><title>Node12&#45;&gt;Node7</title>
<path fill="none" stroke="midnightblue" d="M1039.5,-179.415C1038.2,-165.449 1033.57,-137.877 1017,-123 990.69,-99.3723 890.077,-83.4105 837.089,-76.4548"/>
<polygon fill="midnightblue" stroke="midnightblue" points="837.526,-72.9823 827.163,-75.1842 836.637,-79.9257 837.526,-72.9823"/>
</g>
<!-- Node12&#45;&gt;Node9 -->
<g id="edge15" class="edge"><title>Node12&#45;&gt;Node9</title>
<path fill="none" stroke="midnightblue" d="M1087.85,-179.42C1141.25,-169.437 1221.59,-153.042 1232,-143 1263.25,-112.852 1268.23,-58.4482 1268.52,-29.8052"/>
<polygon fill="midnightblue" stroke="midnightblue" points="1272.02,-29.5326 1268.43,-19.5639 1265.02,-29.5945 1272.02,-29.5326"/>
</g>
<!-- Node12&#45;&gt;Node11 -->
<g id="edge18" class="edge"><title>Node12&#45;&gt;Node11</title>
<path fill="none" stroke="midnightblue" d="M1089.35,-179.938C1138.41,-171.662 1215.71,-157.915 1282,-143 1283.27,-142.714 1284.57,-142.412 1285.88,-142.1"/>
<polygon fill="midnightblue" stroke="midnightblue" points="1287.08,-145.408 1295.93,-139.581 1285.37,-138.619 1287.08,-145.408"/>
</g>
<!-- Node13 -->
<g id="node13" class="node"><title>Node13</title>
<polygon fill="white" stroke="#bfbfbf" points="738.5,-123.5 738.5,-142.5 807.5,-142.5 807.5,-123.5 738.5,-123.5"/>
<text text-anchor="middle" x="773" y="-130.5" font-family="Helvetica,sans-Serif" font-size="10.00">portaudio.h</text>
</g>
<!-- Node12&#45;&gt;Node13 -->
<g id="edge20" class="edge"><title>Node12&#45;&gt;Node13</title>
<path fill="none" stroke="midnightblue" d="M997.658,-179.49C954.899,-170.889 886.668,-157.143 817.755,-143.149"/>
<polygon fill="midnightblue" stroke="midnightblue" points="818.082,-139.644 807.585,-141.083 816.688,-146.504 818.082,-139.644"/>
</g>
<!-- Node14 -->
<g id="node14" class="node"><title>Node14</title>
<polygon fill="white" stroke="#bfbfbf" points="826,-123.5 826,-142.5 1008,-142.5 1008,-123.5 826,-123.5"/>
<text text-anchor="middle" x="917" y="-130.5" font-family="Helvetica,sans-Serif" font-size="10.00">portaudiocpp/CallbackInterface.hxx</text>
</g>
<!-- Node12&#45;&gt;Node14 -->
<g id="edge21" class="edge"><title>Node12&#45;&gt;Node14</title>
<path fill="none" stroke="midnightblue" d="M1020.51,-179.444C1000.36,-170.596 968.677,-156.687 945.669,-146.586"/>
<polygon fill="midnightblue" stroke="midnightblue" points="946.962,-143.332 936.399,-142.516 944.148,-149.741 946.962,-143.332"/>
</g>
<!-- Node15 -->
<g id="node15" class="node"><title>Node15</title>
<g id="a_node15"><a xlink:href="audio__source_8hpp.html" target="_top" xlink:title="Declaration of the AudioSource class. ">
<polygon fill="white" stroke="black" points="1102,-123.5 1102,-142.5 1202,-142.5 1202,-123.5 1102,-123.5"/>
<text text-anchor="middle" x="1152" y="-130.5" font-family="Helvetica,sans-Serif" font-size="10.00">audio_source.hpp</text>
</a>
</g>
</g>
<!-- Node12&#45;&gt;Node15 -->
<g id="edge22" class="edge"><title>Node12&#45;&gt;Node15</title>
<path fill="none" stroke="midnightblue" d="M1057.99,-179.324C1076.04,-170.625 1104.05,-157.12 1124.8,-147.113"/>
<polygon fill="midnightblue" stroke="midnightblue" points="1126.56,-150.15 1134.05,-142.655 1123.52,-143.845 1126.56,-150.15"/>
</g>
<!-- Node15&#45;&gt;Node3 -->
<g id="edge25" class="edge"><title>Node15&#45;&gt;Node3</title>
<path fill="none" stroke="midnightblue" d="M1101.86,-127.563C1049.67,-121.782 973.044,-109.63 955,-87 946.411,-76.2274 947.233,-67.3798 955,-56 973.459,-28.9553 1010.82,-18.1634 1037.97,-13.8575"/>
<polygon fill="midnightblue" stroke="midnightblue" points="1038.73,-17.2853 1048.17,-12.4628 1037.78,-10.3498 1038.73,-17.2853"/>
</g>
<!-- Node15&#45;&gt;Node7 -->
<g id="edge26" class="edge"><title>Node15&#45;&gt;Node7</title>
<path fill="none" stroke="midnightblue" d="M1102.14,-123.475C1030.01,-111.142 898.491,-88.6558 837.15,-78.1679"/>
<polygon fill="midnightblue" stroke="midnightblue" points="837.681,-74.7079 827.234,-76.4724 836.501,-81.6078 837.681,-74.7079"/>
</g>
<!-- Node15&#45;&gt;Node9 -->
<g id="edge24" class="edge"><title>Node15&#45;&gt;Node9</title>
<path fill="none" stroke="midnightblue" d="M1165.23,-123.226C1177.52,-114.737 1196,-101.115 1210,-87 1228.37,-68.482 1246.04,-44.0585 1256.95,-27.959"/>
<polygon fill="midnightblue" stroke="midnightblue" points="1259.92,-29.8136 1262.55,-19.5492 1254.1,-25.9359 1259.92,-29.8136"/>
</g>
<!-- Node16 -->
<g id="node16" class="node"><title>Node16</title>
<polygon fill="white" stroke="#bfbfbf" points="1101.5,-62 1101.5,-81 1142.5,-81 1142.5,-62 1101.5,-62"/>
<text text-anchor="middle" x="1122" y="-69" font-family="Helvetica,sans-Serif" font-size="10.00">array</text>
</g>
<!-- Node15&#45;&gt;Node16 -->
<g id="edge23" class="edge"><title>Node15&#45;&gt;Node16</title>
<path fill="none" stroke="midnightblue" d="M1147.7,-123.475C1143.34,-114.815 1136.44,-101.149 1130.9,-90.1453"/>
<polygon fill="midnightblue" stroke="midnightblue" points="1133.92,-88.3625 1126.29,-81.0091 1127.67,-91.5141 1133.92,-88.3625"/>
</g>
<!-- Node17 -->
<g id="node17" class="node"><title>Node17</title>
<polygon fill="white" stroke="#bfbfbf" points="1160.5,-62 1160.5,-81 1201.5,-81 1201.5,-62 1160.5,-62"/>
<text text-anchor="middle" x="1181" y="-69" font-family="Helvetica,sans-Serif" font-size="10.00">sox.h</text>
</g>
<!-- Node15&#45;&gt;Node17 -->
<g id="edge27" class="edge"><title>Node15&#45;&gt;Node17</title>
<path fill="none" stroke="midnightblue" d="M1156.15,-123.475C1160.38,-114.815 1167.04,-101.149 1172.4,-90.1453"/>
<polygon fill="midnightblue" stroke="midnightblue" points="1175.62,-91.5317 1176.85,-81.0091 1169.33,-88.4648 1175.62,-91.5317"/>
</g>
<!-- Node15&#45;&gt;Node18 -->
<g id="edge28" class="edge"><title>Node15&#45;&gt;Node18</title>
<path fill="none" stroke="midnightblue" d="M1102,-128.574C1076.55,-126.854 1045.13,-124.766 1017,-123 745.508,-105.952 677.015,-110.438 406,-87 379.422,-84.7015 349.801,-81.3644 325.856,-78.4709"/>
<polygon fill="midnightblue" stroke="midnightblue" points="325.977,-74.9598 315.626,-77.2203 325.128,-81.908 325.977,-74.9598"/>
</g>
<!-- Node20 -->
<g id="node20" class="node"><title>Node20</title>
<g id="a_node20"><a xlink:href="sample__formats_8hpp.html" target="_top" xlink:title="The SampleFormat enumeration. ">
<polygon fill="white" stroke="black" points="964.5,-62 964.5,-81 1083.5,-81 1083.5,-62 964.5,-62"/>
<text text-anchor="middle" x="1024" y="-69" font-family="Helvetica,sans-Serif" font-size="10.00">../sample_formats.hpp</text>
</a>
</g>
</g>
<!-- Node15&#45;&gt;Node20 -->
<g id="edge31" class="edge"><title>Node15&#45;&gt;Node20</title>
<path fill="none" stroke="midnightblue" d="M1133.66,-123.475C1112.18,-113.49 1076.38,-96.8476 1051.55,-85.3075"/>
<polygon fill="midnightblue" stroke="midnightblue" points="1052.85,-82.0506 1042.31,-81.0091 1049.9,-88.3983 1052.85,-82.0506"/>
</g>
<!-- Node18&#45;&gt;Node2 -->
<g id="edge29" class="edge"><title>Node18&#45;&gt;Node2</title>
<path fill="none" stroke="midnightblue" d="M246.476,-61.9751C205.191,-51.1536 134.079,-32.5142 90.2394,-21.0231"/>
<polygon fill="midnightblue" stroke="midnightblue" points="91.0787,-17.6249 80.5181,-18.475 89.3038,-24.3962 91.0787,-17.6249"/>
</g>
<!-- Node19 -->
<g id="node19" class="node"><title>Node19</title>
<polygon fill="white" stroke="#bfbfbf" points="201,-0.5 201,-19.5 255,-19.5 255,-0.5 201,-0.5"/>
<text text-anchor="middle" x="228" y="-7.5" font-family="Helvetica,sans-Serif" font-size="10.00">sstream</text>
</g>
<!-- Node18&#45;&gt;Node19 -->
<g id="edge30" class="edge"><title>Node18&#45;&gt;Node19</title>
<path fill="none" stroke="midnightblue" d="M271.693,-61.9751C263.967,-52.9617 251.592,-38.5246 241.982,-27.3118"/>
<polygon fill="midnightblue" stroke="midnightblue" points="244.459,-24.8239 235.294,-19.5091 239.144,-29.3795 244.459,-24.8239"/>
</g>
<!-- Node20&#45;&gt;Node9 -->
<g id="edge32" class="edge"><title>Node20&#45;&gt;Node9</title>
<path fill="none" stroke="midnightblue" d="M1058.96,-61.9751C1105.88,-50.5334 1188.64,-30.3518 1234.7,-19.1204"/>
<polygon fill="midnightblue" stroke="midnightblue" points="1235.6,-22.5029 1244.49,-16.7334 1233.94,-15.7022 1235.6,-22.5029"/>
</g>
<!-- Node21&#45;&gt;Node3 -->
<g id="edge36" class="edge"><title>Node21&#45;&gt;Node3</title>
<path fill="none" stroke="midnightblue" d="M1258.61,-179.438C1299.37,-171.982 1349.32,-159.733 1362,-143 1367.37,-135.915 1366.63,-130.59 1362,-123 1306.7,-32.2823 1165.33,-14.8111 1101.78,-11.6144"/>
<polygon fill="midnightblue" stroke="midnightblue" points="1101.7,-8.10821 1091.57,-11.1915 1101.41,-15.1022 1101.7,-8.10821"/>
</g>
<!-- Node21&#45;&gt;Node5 -->
<g id="edge34" class="edge"><title>Node21&#45;&gt;Node5</title>
<path fill="none" stroke="midnightblue" d="M1259.24,-180.193C1262.2,-179.79 1265.14,-179.39 1268,-179 1379.75,-163.785 1512.72,-145.718 1570.19,-137.913"/>
<polygon fill="midnightblue" stroke="midnightblue" points="1570.9,-141.349 1580.34,-136.535 1569.96,-134.413 1570.9,-141.349"/>
</g>
<!-- Node21&#45;&gt;Node18 -->
<g id="edge37" class="edge"><title>Node21&#45;&gt;Node18</title>
<path fill="none" stroke="midnightblue" d="M1248.57,-179.495C1285.71,-171.653 1333.38,-158.843 1345,-143 1350.26,-135.833 1351.16,-129.405 1345,-123 1308.8,-85.385 458.054,-90.9638 406,-87 379.4,-84.9745 349.778,-81.654 325.837,-78.7013"/>
<polygon fill="midnightblue" stroke="midnightblue" points="325.968,-75.1904 315.61,-77.42 325.097,-82.1361 325.968,-75.1904"/>
</g>
<!-- Node22 -->
<g id="node22" class="node"><title>Node22</title>
<polygon fill="white" stroke="#bfbfbf" points="1430.5,-123.5 1430.5,-142.5 1485.5,-142.5 1485.5,-123.5 1430.5,-123.5"/>
<text text-anchor="middle" x="1458" y="-130.5" font-family="Helvetica,sans-Serif" font-size="10.00">ostream</text>
</g>
<!-- Node21&#45;&gt;Node22 -->
<g id="edge35" class="edge"><title>Node21&#45;&gt;Node22</title>
<path fill="none" stroke="midnightblue" d="M1243.04,-179.42C1286.12,-170.399 1355.84,-155.772 1416,-143 1417.46,-142.69 1418.95,-142.374 1420.45,-142.054"/>
<polygon fill="midnightblue" stroke="midnightblue" points="1421.39,-145.432 1430.44,-139.921 1419.93,-138.586 1421.39,-145.432"/>
</g>
<!-- Node23&#45;&gt;Node9 -->
<g id="edge39" class="edge"><title>Node23&#45;&gt;Node9</title>
<path fill="none" stroke="midnightblue" d="M133.337,-123.34C149.213,-114.721 173.812,-100.818 194,-87 212.272,-74.4932 212.251,-63.7286 233,-56 323.352,-22.3463 1003.69,-24.579 1100,-20 1146.47,-17.7908 1200.14,-14.847 1234.07,-12.9377"/>
<polygon fill="midnightblue" stroke="midnightblue" points="1234.57,-16.4151 1244.36,-12.3564 1234.17,-9.42624 1234.57,-16.4151"/>
</g>
<!-- Node23&#45;&gt;Node18 -->
<g id="edge41" class="edge"><title>Node23&#45;&gt;Node18</title>
<path fill="none" stroke="midnightblue" d="M140.211,-123.475C167.999,-113.269 214.723,-96.108 246.194,-84.5492"/>
<polygon fill="midnightblue" stroke="midnightblue" points="247.652,-87.7422 255.832,-81.0091 245.239,-81.1714 247.652,-87.7422"/>
</g>
<!-- Node23&#45;&gt;Node19 -->
<g id="edge40" class="edge"><title>Node23&#45;&gt;Node19</title>
<path fill="none" stroke="midnightblue" d="M111.491,-123.13C102.845,-107.95 88.4965,-76.636 103,-56 122.667,-28.0174 161.491,-17.3537 190.68,-13.3341"/>
<polygon fill="midnightblue" stroke="midnightblue" points="191.419,-16.7717 200.945,-12.134 190.606,-9.81902 191.419,-16.7717"/>
</g>
<!-- Node23&#45;&gt;Node24 -->
<g id="edge42" class="edge"><title>Node23&#45;&gt;Node24</title>
<path fill="none" stroke="midnightblue" d="M121.585,-123.475C126.242,-114.815 133.592,-101.149 139.51,-90.1453"/>
<polygon fill="midnightblue" stroke="midnightblue" points="142.77,-91.474 144.424,-81.0091 136.605,-88.1584 142.77,-91.474"/>
</g>
<!-- Node24&#45;&gt;Node3 -->
<g id="edge43" class="edge"><title>Node24&#45;&gt;Node3</title>
<path fill="none" stroke="midnightblue" d="M174.688,-61.9779C182.709,-59.6478 191.645,-57.3855 200,-56 366.154,-28.4455 901.696,-14.7755 1038.14,-11.6868"/>
<polygon fill="midnightblue" stroke="midnightblue" points="1038.41,-15.1817 1048.33,-11.4591 1038.25,-8.18344 1038.41,-15.1817"/>
</g>
<!-- Node25&#45;&gt;Node6 -->
<g id="edge45" class="edge"><title>Node25&#45;&gt;Node6</title>
<path fill="none" stroke="midnightblue" d="M1049.65,-297.091C944.15,-289.189 666.331,-263.436 444,-199 442.392,-198.534 363.354,-165.298 318.784,-146.54"/>
<polygon fill="midnightblue" stroke="midnightblue" points="319.886,-143.207 309.312,-142.553 317.171,-149.658 319.886,-143.207"/>
</g>
<!-- Node25&#45;&gt;Node21 -->
<g id="edge69" class="edge"><title>Node25&#45;&gt;Node21</title>
<path fill="none" stroke="midnightblue" d="M1100.02,-291.25C1110.44,-278.44 1130.83,-254.041 1150,-235 1160.59,-224.482 1173.23,-213.507 1183.4,-205.028"/>
<polygon fill="midnightblue" stroke="midnightblue" points="1185.77,-207.616 1191.26,-198.559 1181.32,-202.211 1185.77,-207.616"/>
</g>
<!-- Node26 -->
<g id="node26" class="node"><title>Node26</title>
<g id="a_node26"><a xlink:href="audio__system_8hpp.html" target="_top" xlink:title="Declaration of the AudioSystem class. ">
<polygon fill="white" stroke="black" points="785.5,-235.5 785.5,-254.5 922.5,-254.5 922.5,-235.5 785.5,-235.5"/>
<text text-anchor="middle" x="854" y="-242.5" font-family="Helvetica,sans-Serif" font-size="10.00">../audio/audio_system.hpp</text>
</a>
</g>
</g>
<!-- Node25&#45;&gt;Node26 -->
<g id="edge46" class="edge"><title>Node25&#45;&gt;Node26</title>
<path fill="none" stroke="midnightblue" d="M1055.13,-291.444C1013.52,-282.043 946.631,-266.929 901.531,-256.739"/>
<polygon fill="midnightblue" stroke="midnightblue" points="902.219,-253.306 891.693,-254.516 900.676,-260.134 902.219,-253.306"/>
</g>
<!-- Node25&#45;&gt;Node33 -->
<g id="edge70" class="edge"><title>Node25&#45;&gt;Node33</title>
<path fill="none" stroke="midnightblue" d="M1123.42,-291.444C1156.28,-282.201 1208.78,-267.436 1244.97,-257.257"/>
<polygon fill="midnightblue" stroke="midnightblue" points="1246.04,-260.593 1254.72,-254.516 1244.15,-253.855 1246.04,-260.593"/>
</g>
<!-- Node26&#45;&gt;Node3 -->
<g id="edge47" class="edge"><title>Node26&#45;&gt;Node3</title>
<path fill="none" stroke="midnightblue" d="M785.186,-242.71C708.525,-239.693 581.607,-229.955 477,-199 475.308,-198.499 363.933,-144.497 363,-143 358.3,-135.455 360.498,-131.53 363,-123 372.958,-89.0473 375.542,-74.0074 406,-56 460.784,-23.6102 913.113,-13.6405 1038.11,-11.491"/>
<polygon fill="midnightblue" stroke="midnightblue" points="1038.24,-14.9893 1048.18,-11.3227 1038.13,-7.99031 1038.24,-14.9893"/>
</g>
<!-- Node26&#45;&gt;Node11 -->
<g id="edge48" class="edge"><title>Node26&#45;&gt;Node11</title>
<path fill="none" stroke="midnightblue" d="M922.734,-236.95C972.418,-230.51 1040.61,-218.878 1098,-199 1116.03,-192.754 1118.16,-185.779 1136,-179 1198.47,-155.262 1217.25,-159.552 1282,-143 1283.26,-142.677 1284.55,-142.345 1285.86,-142.008"/>
<polygon fill="midnightblue" stroke="midnightblue" points="1287.09,-145.303 1295.88,-139.387 1285.32,-138.531 1287.09,-145.303"/>
</g>
<!-- Node26&#45;&gt;Node12 -->
<g id="edge68" class="edge"><title>Node26&#45;&gt;Node12</title>
<path fill="none" stroke="midnightblue" d="M883.472,-235.444C915.171,-226.241 965.732,-211.562 1000.77,-201.388"/>
<polygon fill="midnightblue" stroke="midnightblue" points="1002.04,-204.666 1010.67,-198.516 1000.09,-197.943 1002.04,-204.666"/>
</g>
<!-- Node26&#45;&gt;Node15 -->
<g id="edge67" class="edge"><title>Node26&#45;&gt;Node15</title>
<path fill="none" stroke="midnightblue" d="M869.808,-235.442C898.822,-219.825 959.644,-187.525 982,-179 1020.69,-164.247 1066.09,-152.497 1100.24,-144.707"/>
<polygon fill="midnightblue" stroke="midnightblue" points="1101.01,-148.121 1110.01,-142.518 1099.48,-141.29 1101.01,-148.121"/>
</g>
<!-- Node26&#45;&gt;Node20 -->
<g id="edge51" class="edge"><title>Node26&#45;&gt;Node20</title>
<path fill="none" stroke="midnightblue" d="M863.691,-235.441C878.961,-222.227 909.887,-196.555 939,-179 971.696,-159.284 994.857,-174.104 1017,-143 1027.57,-128.149 1028.25,-106.862 1026.94,-91.5698"/>
<polygon fill="midnightblue" stroke="midnightblue" points="1030.37,-90.7557 1025.69,-81.2504 1023.42,-91.5993 1030.37,-90.7557"/>
</g>
<!-- Node27 -->
<g id="node27" class="node"><title>Node27</title>
<polygon fill="white" stroke="#bfbfbf" points="486.5,-179.5 486.5,-198.5 677.5,-198.5 677.5,-179.5 486.5,-179.5"/>
<text text-anchor="middle" x="582" y="-186.5" font-family="Helvetica,sans-Serif" font-size="10.00">portaudiocpp/SampleDataFormat.hxx</text>
</g>
<!-- Node26&#45;&gt;Node27 -->
<g id="edge49" class="edge"><title>Node26&#45;&gt;Node27</title>
<path fill="none" stroke="midnightblue" d="M810.901,-235.444C763.153,-225.964 686.139,-210.675 634.806,-200.483"/>
<polygon fill="midnightblue" stroke="midnightblue" points="635.388,-197.031 624.898,-198.516 634.025,-203.897 635.388,-197.031"/>
</g>
<!-- Node28 -->
<g id="node28" class="node"><title>Node28</title>
<polygon fill="white" stroke="#bfbfbf" points="372,-123.5 372,-142.5 506,-142.5 506,-123.5 372,-123.5"/>
<text text-anchor="middle" x="439" y="-130.5" font-family="Helvetica,sans-Serif" font-size="10.00">portaudiocpp/Stream.hxx</text>
</g>
<!-- Node26&#45;&gt;Node28 -->
<g id="edge50" class="edge"><title>Node26&#45;&gt;Node28</title>
<path fill="none" stroke="midnightblue" d="M825.896,-235.435C799.475,-227.094 759.013,-213.571 725,-199 707.094,-191.329 704.447,-185.257 686,-179 653.595,-168.008 568.028,-153.572 506.699,-144.051"/>
<polygon fill="midnightblue" stroke="midnightblue" points="507.112,-140.574 496.695,-142.508 506.045,-147.492 507.112,-140.574"/>
</g>
<!-- Node29 -->
<g id="node29" class="node"><title>Node29</title>
<g id="a_node29"><a xlink:href="audio__sink_8hpp.html" target="_top" xlink:title="Declaration of the AudioSink class. ">
<polygon fill="white" stroke="black" points="734.5,-179.5 734.5,-198.5 821.5,-198.5 821.5,-179.5 734.5,-179.5"/>
<text text-anchor="middle" x="778" y="-186.5" font-family="Helvetica,sans-Serif" font-size="10.00">audio_sink.hpp</text>
</a>
</g>
</g>
<!-- Node26&#45;&gt;Node29 -->
<g id="edge52" class="edge"><title>Node26&#45;&gt;Node29</title>
<path fill="none" stroke="midnightblue" d="M841.789,-235.324C830.224,-227.107 812.625,-214.602 798.839,-204.807"/>
<polygon fill="midnightblue" stroke="midnightblue" points="800.612,-201.773 790.433,-198.834 796.557,-207.479 800.612,-201.773"/>
</g>
<!-- Node29&#45;&gt;Node3 -->
<g id="edge55" class="edge"><title>Node29&#45;&gt;Node3</title>
<path fill="none" stroke="midnightblue" d="M742.505,-179.457C710.828,-171.029 667.949,-157.356 658,-143 635.976,-111.219 632.186,-84.7876 658,-56 683.299,-27.7877 945.945,-15.535 1038.19,-12.0798"/>
<polygon fill="midnightblue" stroke="midnightblue" points="1038.45,-15.5726 1048.32,-11.7103 1038.2,-8.57725 1038.45,-15.5726"/>
</g>
<!-- Node29&#45;&gt;Node6 -->
<g id="edge54" class="edge"><title>Node29&#45;&gt;Node6</title>
<path fill="none" stroke="midnightblue" d="M734.363,-183.457C658.719,-175.54 498.353,-158.569 363,-143 350.968,-141.616 337.843,-140.041 326.033,-138.6"/>
<polygon fill="midnightblue" stroke="midnightblue" points="326.405,-135.119 316.053,-137.376 325.553,-142.067 326.405,-135.119"/>
</g>
<!-- Node29&#45;&gt;Node7 -->
<g id="edge57" class="edge"><title>Node29&#45;&gt;Node7</title>
<path fill="none" stroke="midnightblue" d="M763.212,-179.357C744.857,-167.445 717.314,-144.956 729,-123 738.063,-105.972 755.706,-93.6556 771.604,-85.4509"/>
<polygon fill="midnightblue" stroke="midnightblue" points="773.185,-88.5744 780.685,-81.0907 770.155,-82.2641 773.185,-88.5744"/>
</g>
<!-- Node29&#45;&gt;Node9 -->
<g id="edge53" class="edge"><title>Node29&#45;&gt;Node9</title>
<path fill="none" stroke="midnightblue" d="M760.802,-179.386C747.749,-171.794 730.766,-159.389 723,-143 704.343,-103.629 765.148,-59.8768 772,-56 792.142,-44.6034 1125.58,-20.7903 1234.14,-13.3039"/>
<polygon fill="midnightblue" stroke="midnightblue" points="1234.48,-16.7889 1244.21,-12.6114 1234,-9.80538 1234.48,-16.7889"/>
</g>
<!-- Node29&#45;&gt;Node11 -->
<g id="edge56" class="edge"><title>Node29&#45;&gt;Node11</title>
<path fill="none" stroke="midnightblue" d="M821.571,-183.627C927.34,-173.011 1195.6,-146.085 1285.85,-137.027"/>
<polygon fill="midnightblue" stroke="midnightblue" points="1286.35,-140.494 1295.95,-136.013 1285.65,-133.529 1286.35,-140.494"/>
</g>
<!-- Node29&#45;&gt;Node13 -->
<g id="edge58" class="edge"><title>Node29&#45;&gt;Node13</title>
<path fill="none" stroke="midnightblue" d="M777.174,-179.083C776.519,-172.006 775.58,-161.861 774.758,-152.986"/>
<polygon fill="midnightblue" stroke="midnightblue" points="778.217,-152.386 773.81,-142.751 771.247,-153.031 778.217,-152.386"/>
</g>
<!-- Node29&#45;&gt;Node14 -->
<g id="edge59" class="edge"><title>Node29&#45;&gt;Node14</title>
<path fill="none" stroke="midnightblue" d="M800.025,-179.444C823.104,-170.478 859.562,-156.314 885.641,-146.183"/>
<polygon fill="midnightblue" stroke="midnightblue" points="887.024,-149.4 895.078,-142.516 884.489,-142.875 887.024,-149.4"/>
</g>
<!-- Node29&#45;&gt;Node15 -->
<g id="edge61" class="edge"><title>Node29&#45;&gt;Node15</title>
<path fill="none" stroke="midnightblue" d="M821.635,-181.7C888.347,-172.068 1015.9,-153.651 1091.5,-142.735"/>
<polygon fill="midnightblue" stroke="midnightblue" points="1092.42,-146.139 1101.81,-141.246 1091.42,-139.211 1092.42,-146.139"/>
</g>
<!-- Node29&#45;&gt;Node28 -->
<g id="edge60" class="edge"><title>Node29&#45;&gt;Node28</title>
<path fill="none" stroke="midnightblue" d="M734.376,-181.051C675.523,-171.676 570.289,-154.913 502.616,-144.133"/>
<polygon fill="midnightblue" stroke="midnightblue" points="502.928,-140.639 492.502,-142.522 501.827,-147.552 502.928,-140.639"/>
</g>
<!-- Node30 -->
<g id="node30" class="node"><title>Node30</title>
<g id="a_node30"><a xlink:href="ringbuffer_8hpp.html" target="_top" xlink:title="The RingBuffer class template. ">
<polygon fill="white" stroke="black" points="524.5,-123.5 524.5,-142.5 605.5,-142.5 605.5,-123.5 524.5,-123.5"/>
<text text-anchor="middle" x="565" y="-130.5" font-family="Helvetica,sans-Serif" font-size="10.00">ringbuffer.hpp</text>
</a>
</g>
</g>
<!-- Node29&#45;&gt;Node30 -->
<g id="edge62" class="edge"><title>Node29&#45;&gt;Node30</title>
<path fill="none" stroke="midnightblue" d="M744.25,-179.444C707.482,-170.122 648.554,-155.183 608.378,-144.997"/>
<polygon fill="midnightblue" stroke="midnightblue" points="609.146,-141.581 598.593,-142.516 607.426,-148.367 609.146,-141.581"/>
</g>
<!-- Node30&#45;&gt;Node18 -->
<g id="edge65" class="edge"><title>Node30&#45;&gt;Node18</title>
<path fill="none" stroke="midnightblue" d="M524.327,-123.538C471.916,-112.635 380.995,-93.7193 325.779,-82.232"/>
<polygon fill="midnightblue" stroke="midnightblue" points="326.405,-78.7873 315.902,-80.1771 324.979,-85.6406 326.405,-78.7873"/>
</g>
<!-- Node30&#45;&gt;Node24 -->
<g id="edge66" class="edge"><title>Node30&#45;&gt;Node24</title>
<path fill="none" stroke="midnightblue" d="M524.37,-124.507C521.203,-123.978 518.051,-123.469 515,-123 390.117,-103.802 357.951,-105.751 233,-87 220.88,-85.1813 207.812,-83.0219 195.676,-80.9325"/>
<polygon fill="midnightblue" stroke="midnightblue" points="196.196,-77.4704 185.743,-79.203 194.995,-84.3666 196.196,-77.4704"/>
</g>
<!-- Node31 -->
<g id="node31" class="node"><title>Node31</title>
<polygon fill="white" stroke="#bfbfbf" points="415.5,-62 415.5,-81 466.5,-81 466.5,-62 415.5,-62"/>
<text text-anchor="middle" x="441" y="-69" font-family="Helvetica,sans-Serif" font-size="10.00">cassert</text>
</g>
<!-- Node30&#45;&gt;Node31 -->
<g id="edge63" class="edge"><title>Node30&#45;&gt;Node31</title>
<path fill="none" stroke="midnightblue" d="M547.234,-123.475C526.516,-113.534 492.048,-96.9947 468.011,-85.461"/>
<polygon fill="midnightblue" stroke="midnightblue" points="469.263,-82.1797 458.733,-81.0091 466.235,-88.4908 469.263,-82.1797"/>
</g>
<!-- Node32 -->
<g id="node32" class="node"><title>Node32</title>
<polygon fill="white" stroke="#bfbfbf" points="484.5,-56.5 484.5,-86.5 605.5,-86.5 605.5,-56.5 484.5,-56.5"/>
<text text-anchor="start" x="492.5" y="-74.5" font-family="Helvetica,sans-Serif" font-size="10.00">../contrib/pa_ringbuffer</text>
<text text-anchor="middle" x="545" y="-63.5" font-family="Helvetica,sans-Serif" font-size="10.00">/pa_ringbuffer.h</text>
</g>
<!-- Node30&#45;&gt;Node32 -->
<g id="edge64" class="edge"><title>Node30&#45;&gt;Node32</title>
<path fill="none" stroke="midnightblue" d="M562.134,-123.475C559.73,-116.32 556.176,-105.748 552.927,-96.0841"/>
<polygon fill="midnightblue" stroke="midnightblue" points="556.217,-94.8866 549.714,-86.523 549.582,-97.117 556.217,-94.8866"/>
</g>
<!-- Node33&#45;&gt;Node15 -->
<g id="edge72" class="edge"><title>Node33&#45;&gt;Node15</title>
<path fill="none" stroke="midnightblue" d="M1294.96,-235.407C1308.86,-222.371 1330.9,-197.193 1317,-179 1304.1,-162.106 1254,-150.032 1212.36,-142.671"/>
<polygon fill="midnightblue" stroke="midnightblue" points="1212.71,-139.18 1202.26,-140.947 1211.53,-146.08 1212.71,-139.18"/>
</g>
<!-- Node33&#45;&gt;Node21 -->
<g id="edge73" class="edge"><title>Node33&#45;&gt;Node21</title>
<path fill="none" stroke="midnightblue" d="M1271.66,-235.324C1258.84,-226.979 1239.22,-214.212 1224.06,-204.352"/>
<polygon fill="midnightblue" stroke="midnightblue" points="1225.59,-201.174 1215.3,-198.655 1221.78,-207.042 1225.59,-201.174"/>
</g>
<!-- Node34 -->
<g id="node34" class="node"><title>Node34</title>
<polygon fill="white" stroke="#bfbfbf" points="1277.5,-179.5 1277.5,-198.5 1308.5,-198.5 1308.5,-179.5 1277.5,-179.5"/>
<text text-anchor="middle" x="1293" y="-186.5" font-family="Helvetica,sans-Serif" font-size="10.00">set</text>
</g>
<!-- Node33&#45;&gt;Node34 -->
<g id="edge71" class="edge"><title>Node33&#45;&gt;Node34</title>
<path fill="none" stroke="midnightblue" d="M1286.32,-235.083C1287.38,-227.927 1288.91,-217.635 1290.23,-208.691"/>
<polygon fill="midnightblue" stroke="midnightblue" points="1293.7,-209.156 1291.7,-198.751 1286.78,-208.13 1293.7,-209.156"/>
</g>
<!-- Node35&#45;&gt;Node9 -->
<g id="edge76" class="edge"><title>Node35&#45;&gt;Node9</title>
<path fill="none" stroke="midnightblue" d="M1361.34,-291.356C1365.17,-278.254 1373.72,-252.99 1387,-235 1428.07,-179.369 1531.51,-181.727 1495,-123 1452.35,-54.391 1353.89,-26.5634 1301.78,-16.3264"/>
<polygon fill="midnightblue" stroke="midnightblue" points="1302.17,-12.8396 1291.7,-14.4535 1300.89,-19.7217 1302.17,-12.8396"/>
</g>
<!-- Node35&#45;&gt;Node10 -->
<g id="edge77" class="edge"><title>Node35&#45;&gt;Node10</title>
<path fill="none" stroke="midnightblue" d="M1371.21,-291.324C1382.78,-283.107 1400.38,-270.602 1414.16,-260.807"/>
<polygon fill="midnightblue" stroke="midnightblue" points="1416.44,-263.479 1422.57,-254.834 1412.39,-257.773 1416.44,-263.479"/>
</g>
<!-- Node35&#45;&gt;Node21 -->
<g id="edge78" class="edge"><title>Node35&#45;&gt;Node21</title>
<path fill="none" stroke="midnightblue" d="M1311.2,-295.656C1281.49,-290.519 1244.59,-279.333 1221,-255 1209.12,-242.745 1204.6,-223.484 1202.92,-209.105"/>
<polygon fill="midnightblue" stroke="midnightblue" points="1206.38,-208.533 1202.09,-198.847 1199.41,-209.097 1206.38,-208.533"/>
</g>
</g>
</svg>
        <g id="navigator" transform="translate(0 0)" fill="#404254">
                <rect fill="#f2f5e9" fill-opacity="0.5" stroke="#606060" stroke-width=".5" x="0" y="0" width="60" height="60"/>
                <use id="zoomplus" xlink:href="#zoomPlus" x="17" y="9" onmousedown="handleZoom(evt,'in')"/>
                <use id="zoomminus" xlink:href="#zoomMin" x="42" y="9" onmousedown="handleZoom(evt,'out')"/>
                <use id="reset" xlink:href="#resetDef" x="30" y="36" onmousedown="handleReset()"/>
                <g id="arrowUp" xlink:href="#dirArrow" transform="translate(30 24)" onmousedown="handlePan(0,-1)">
                  <use xlink:href="#rim" fill="#404040">
                        <set attributeName="fill" to="#808080" begin="arrowUp.mouseover" end="arrowUp.mouseout"/>
                  </use>
                  <path fill="none" stroke="white" stroke-width="1.5" d="M0,-3.0v7 M-2.5,-0.5L0,-3.0L2.5,-0.5"/>
                </g>
                <g id="arrowRight" xlink:href="#dirArrow" transform="rotate(90) translate(36 -43)" onmousedown="handlePan(1,0)">
                  <use xlink:href="#rim" fill="#404040">
                        <set attributeName="fill" to="#808080" begin="arrowRight.mouseover" end="arrowRight.mouseout"/>
                  </use>
                  <path fill="none" stroke="white" stroke-width="1.5" d="M0,-3.0v7 M-2.5,-0.5L0,-3.0L2.5,-0.5"/>
                </g>
                <g id="arrowDown" xlink:href="#dirArrow" transform="rotate(180) translate(-30 -48)" onmousedown="handlePan(0,1)">
                  <use xlink:href="#rim" fill="#404040">
                        <set attributeName="fill" to="#808080" begin="arrowDown.mouseover" end="arrowDown.mouseout"/>
                  </use>
                  <path fill="none" stroke="white" stroke-width="1.5" d="M0,-3.0v7 M-2.5,-0.5L0,-3.0L2.5,-0.5"/>
                </g>
                <g id="arrowLeft" xlink:href="#dirArrow" transform="rotate(270) translate(-36 17)" onmousedown="handlePan(-1,0)">
                  <use xlink:href="#rim" fill="#404040">
                        <set attributeName="fill" to="#808080" begin="arrowLeft.mouseover" end="arrowLeft.mouseout"/>
                  </use>
                  <path fill="none" stroke="white" stroke-width="1.5" d="M0,-3.0v7 M-2.5,-0.5L0,-3.0L2.5,-0.5"/>
                </g>
        </g>
        <svg viewBox="0 0 15 15" width="100%" height="30px" preserveAspectRatio="xMaxYMin meet">
         <g id="arrow_out" transform="scale(0.3 0.3)">
          <a xlink:href="cmd_8cpp__incl_org.svg" target="_base">
           <rect id="button" ry="5" rx="5" y="6" x="6" height="38" width="38"
                fill="#f2f5e9" fill-opacity="0.5" stroke="#606060" stroke-width="1.0"/>
           <path id="arrow"
             d="M 11.500037,31.436501 C 11.940474,20.09759 22.043105,11.32322 32.158766,21.979434 L 37.068811,17.246167 C 37.068811,17.246167 37.088388,32 37.088388,32 L 22.160133,31.978069 C 22.160133,31.978069 26.997745,27.140456 26.997745,27.140456 C 18.528582,18.264221 13.291696,25.230495 11.500037,31.436501 z"
             style="fill:#404040;"/>
          </a>
         </g>
        </svg>
</svg>
