<?xml version="1.0" encoding="UTF-8" standalone="no"?>
<!DOCTYPE svg PUBLIC "-//W3C//DTD SVG 1.1//EN"
 "http://www.w3.org/Graphics/SVG/1.1/DTD/svg11.dtd">
<!-- Generated by graphviz version 2.38.0 (20140413.2041)
 -->
<!-- Title: src/cmd_result.hpp Pages: 1 -->
<!--zoomable 364 -->
<svg id="main" version="1.1" xmlns="http://www.w3.org/2000/svg" xmlns:xlink="http://www.w3.org/1999/xlink" xml:space="preserve" onload="init(evt)">
<style type="text/css"><![CDATA[
.edge:hover path { stroke: red; }
.edge:hover polygon { stroke: red; fill: red; }
]]></style>
<script type="text/javascript"><![CDATA[
var edges = document.getElementsByTagName('g');
if (edges && edges.length) {
  for (var i=0;i<edges.length;i++) {
    if (edges[i].id.substr(0,4)=='edge') {
      edges[i].setAttribute('class','edge');
    }
  }
}
]]></script>
        <defs>
                <circle id="rim" cx="0" cy="0" r="7"/>
                <circle id="rim2" cx="0" cy="0" r="3.5"/>
                <g id="zoomPlus">
                        <use xlink:href="#rim" fill="#404040">
                                <set attributeName="fill" to="#808080" begin="zoomplus.mouseover" end="zoomplus.mouseout"/>
                        </use>
                        <path d="M-4,0h8M0,-4v8" fill="none" stroke="white" stroke-width="1.5" pointer-events="none"/>
                </g>
                <g id="zoomMin">
                        <use xlink:href="#rim" fill="#404040">
                                <set attributeName="fill" to="#808080" begin="zoomminus.mouseover" end="zoomminus.mouseout"/>
                        </use>
                        <path d="M-4,0h8" fill="none" stroke="white" stroke-width="1.5" pointer-events="none"/>
                </g>
                <g id="dirArrow">
                        <path fill="none" stroke="white" stroke-width="1.5" d="M0,-3.0v7 M-2.5,-0.5L0,-3.0L2.5,-0.5"/>
                </g>
               <g id="resetDef">
                       <use xlink:href="#rim2" fill="#404040">
                               <set attributeName="fill" to="#808080" begin="reset.mouseover" end="reset.mouseout"/>
                       </use>
               </g>
        </defs>

<script type="text/javascript">
var viewWidth = 1004;
var viewHeight = 364;
var sectionId = 'dynsection-1';
</script>
<script xlink:href="svgpan.js"/>
<svg id="graph" class="graph">
<g id="viewport">
<title>src/cmd_result.hpp</title>
<polygon fill="white" stroke="none" points="-4,4 -4,-360 1000.34,-360 1000.34,4 -4,4"/>
<!-- Node1 -->
<g id="node1" class="node"><title>Node1</title>
<polygon fill="#bfbfbf" stroke="black" points="424.341,-336.5 424.341,-355.5 529.341,-355.5 529.341,-336.5 424.341,-336.5"/>
<text text-anchor="middle" x="476.841" y="-343.5" font-family="Helvetica,sans-Serif" font-size="10.00">src/cmd_result.hpp</text>
</g>
<!-- Node2 -->
<g id="node2" class="node"><title>Node2</title>
<g id="a_node2"><a xlink:href="cmd_8hpp.html" target="_top" xlink:title="Declaration of the CommandHandler class. ">
<polygon fill="white" stroke="black" points="260.841,-224.5 260.841,-243.5 334.841,-243.5 334.841,-224.5 260.841,-224.5"/>
<text text-anchor="middle" x="297.841" y="-231.5" font-family="Helvetica,sans-Serif" font-size="10.00">src/cmd.hpp</text>
</a>
</g>
</g>
<!-- Node1&#45;&gt;Node2 -->
<g id="edge1" class="edge"><title>Node1&#45;&gt;Node2</title>
<path fill="none" stroke="midnightblue" d="M454.074,-331.009C416.5,-307.919 342.608,-262.51 311.822,-243.591"/>
<polygon fill="midnightblue" stroke="midnightblue" points="452.443,-334.115 462.795,-336.368 456.108,-328.151 452.443,-334.115"/>
</g>
<!-- Node3 -->
<g id="node3" class="node"><title>Node3</title>
<g id="a_node3"><a xlink:href="cmd_8cpp.html" target="_top" xlink:title="Implementation of the CommandHandler class. ">
<polygon fill="white" stroke="black" points="19.3411,-168.5 19.3411,-187.5 92.3411,-187.5 92.3411,-168.5 19.3411,-168.5"/>
<text text-anchor="middle" x="55.8411" y="-175.5" font-family="Helvetica,sans-Serif" font-size="10.00">src/cmd.cpp</text>
</a>
</g>
</g>
<!-- Node1&#45;&gt;Node3 -->
<g id="edge25" class="edge"><title>Node1&#45;&gt;Node3</title>
<path fill="none" stroke="midnightblue" d="M445.635,-332.696C364.217,-300.593 146.859,-214.888 77.4593,-187.524"/>
<polygon fill="midnightblue" stroke="midnightblue" points="444.506,-336.013 455.093,-336.425 447.074,-329.5 444.506,-336.013"/>
</g>
<!-- Node10 -->
<g id="node10" class="node"><title>Node10</title>
<g id="a_node10"><a xlink:href="player_8hpp.html" target="_top" xlink:title="Declaration of the Player class, and associated types. ">
<polygon fill="white" stroke="black" points="418.841,-280.5 418.841,-299.5 534.841,-299.5 534.841,-280.5 418.841,-280.5"/>
<text text-anchor="middle" x="476.841" y="-287.5" font-family="Helvetica,sans-Serif" font-size="10.00">src/player/player.hpp</text>
</a>
</g>
</g>
<!-- Node1&#45;&gt;Node10 -->
<g id="edge16" class="edge"><title>Node1&#45;&gt;Node10</title>
<path fill="none" stroke="midnightblue" d="M476.841,-325.805C476.841,-316.91 476.841,-306.78 476.841,-299.751"/>
<polygon fill="midnightblue" stroke="midnightblue" points="473.341,-326.083 476.841,-336.083 480.341,-326.083 473.341,-326.083"/>
</g>
<!-- Node11 -->
<g id="node11" class="node"><title>Node11</title>
<g id="a_node11"><a xlink:href="player_8cpp.html" target="_top" xlink:title="Main implementation file for the Player class. ">
<polygon fill="white" stroke="black" points="881.341,-224.5 881.341,-243.5 996.341,-243.5 996.341,-224.5 881.341,-224.5"/>
<text text-anchor="middle" x="938.841" y="-231.5" font-family="Helvetica,sans-Serif" font-size="10.00">src/player/player.cpp</text>
</a>
</g>
</g>
<!-- Node1&#45;&gt;Node11 -->
<g id="edge27" class="edge"><title>Node1&#45;&gt;Node11</title>
<path fill="none" stroke="midnightblue" d="M497.769,-330.545C523.083,-313.33 564.463,-286.126 581.841,-280 704.332,-236.821 743.034,-260.646 871.841,-244 874.867,-243.609 877.97,-243.204 881.102,-242.793"/>
<polygon fill="midnightblue" stroke="midnightblue" points="495.52,-327.842 489.243,-336.378 499.473,-333.62 495.52,-327.842"/>
</g>
<!-- Node14 -->
<g id="node14" class="node"><title>Node14</title>
<g id="a_node14"><a xlink:href="cmd__result_8cpp.html" target="_top" xlink:title="Definition of the CommandResult class. ">
<polygon fill="white" stroke="black" points="590.841,-280.5 590.841,-299.5 694.841,-299.5 694.841,-280.5 590.841,-280.5"/>
<text text-anchor="middle" x="642.841" y="-287.5" font-family="Helvetica,sans-Serif" font-size="10.00">src/cmd_result.cpp</text>
</a>
</g>
</g>
<!-- Node1&#45;&gt;Node14 -->
<g id="edge26" class="edge"><title>Node1&#45;&gt;Node14</title>
<path fill="none" stroke="midnightblue" d="M512.794,-333.304C544.073,-323.129 588.662,-308.625 616.661,-299.516"/>
<polygon fill="midnightblue" stroke="midnightblue" points="511.571,-330.022 503.144,-336.444 513.736,-336.678 511.571,-330.022"/>
</g>
<!-- Node2&#45;&gt;Node3 -->
<g id="edge2" class="edge"><title>Node2&#45;&gt;Node3</title>
<path fill="none" stroke="midnightblue" d="M251.034,-222.555C204.738,-212.225 134.843,-196.629 92.4585,-187.171"/>
<polygon fill="midnightblue" stroke="midnightblue" points="250.301,-225.978 260.823,-224.74 251.825,-219.146 250.301,-225.978"/>
</g>
<!-- Node4 -->
<g id="node4" class="node"><title>Node4</title>
<g id="a_node4"><a xlink:href="io__core_8cpp.html" target="_top" xlink:title="Implementation of the non&#45;virtual aspects of the IoCore class. ">
<polygon fill="white" stroke="black" points="348.841,-56.5 348.841,-75.5 448.841,-75.5 448.841,-56.5 348.841,-56.5"/>
<text text-anchor="middle" x="398.841" y="-63.5" font-family="Helvetica,sans-Serif" font-size="10.00">src/io/io_core.cpp</text>
</a>
</g>
</g>
<!-- Node2&#45;&gt;Node4 -->
<g id="edge3" class="edge"><title>Node2&#45;&gt;Node4</title>
<path fill="none" stroke="midnightblue" d="M314.291,-217.397C333.014,-198.76 363.267,-165.838 380.841,-132 390.556,-113.295 395.508,-88.7591 397.592,-75.8392"/>
<polygon fill="midnightblue" stroke="midnightblue" points="311.756,-214.98 307.044,-224.47 316.645,-219.99 311.756,-214.98"/>
</g>
<!-- Node5 -->
<g id="node5" class="node"><title>Node5</title>
<g id="a_node5"><a xlink:href="io__core_8hpp.html" target="_top" xlink:title="Declaration of the IoCore class. ">
<polygon fill="white" stroke="black" points="253.341,-112.5 253.341,-131.5 354.341,-131.5 354.341,-112.5 253.341,-112.5"/>
<text text-anchor="middle" x="303.841" y="-119.5" font-family="Helvetica,sans-Serif" font-size="10.00">src/io/io_core.hpp</text>
</a>
</g>
</g>
<!-- Node2&#45;&gt;Node5 -->
<g id="edge4" class="edge"><title>Node2&#45;&gt;Node5</title>
<path fill="none" stroke="midnightblue" d="M301.369,-214.547C302.749,-206.437 304.162,-196.78 304.841,-188 306.39,-167.971 305.301,-144.37 304.494,-131.847"/>
<polygon fill="midnightblue" stroke="midnightblue" points="297.92,-213.955 299.58,-224.419 304.807,-215.204 297.92,-213.955"/>
</g>
<!-- Node6 -->
<g id="node6" class="node"><title>Node6</title>
<g id="a_node6"><a xlink:href="main_8cpp.html" target="_top" xlink:title="Main entry point and implementation of the playd class. ">
<polygon fill="white" stroke="black" points="355.841,-0.5 355.841,-19.5 431.841,-19.5 431.841,-0.5 355.841,-0.5"/>
<text text-anchor="middle" x="393.841" y="-7.5" font-family="Helvetica,sans-Serif" font-size="10.00">src/main.cpp</text>
</a>
</g>
</g>
<!-- Node2&#45;&gt;Node6 -->
<g id="edge14" class="edge"><title>Node2&#45;&gt;Node6</title>
<path fill="none" stroke="midnightblue" d="M322.396,-219.033C360.851,-195.461 433.413,-143.658 457.841,-76 460.86,-67.6394 461.938,-63.8885 457.841,-56 448.952,-38.883 430.233,-26.9097 415.324,-19.6403"/>
<polygon fill="midnightblue" stroke="midnightblue" points="320.19,-216.274 313.404,-224.411 323.783,-222.282 320.19,-216.274"/>
</g>
<!-- Node7 -->
<g id="node7" class="node"><title>Node7</title>
<g id="a_node7"><a xlink:href="main_8hpp.html" target="_top" xlink:title="Declaration of the playd class. ">
<polygon fill="white" stroke="black" points="137.341,-56.5 137.341,-75.5 214.341,-75.5 214.341,-56.5 137.341,-56.5"/>
<text text-anchor="middle" x="175.841" y="-63.5" font-family="Helvetica,sans-Serif" font-size="10.00">src/main.hpp</text>
</a>
</g>
</g>
<!-- Node2&#45;&gt;Node7 -->
<g id="edge15" class="edge"><title>Node2&#45;&gt;Node7</title>
<path fill="none" stroke="midnightblue" d="M250.918,-224.007C204.82,-212.16 138.485,-186.117 117.841,-132 114.673,-123.695 113.931,-119.983 117.841,-112 126.026,-95.2896 143.74,-83.003 157.452,-75.5294"/>
<polygon fill="midnightblue" stroke="midnightblue" points="250.168,-227.427 260.712,-226.391 251.823,-220.625 250.168,-227.427"/>
</g>
<!-- Node8 -->
<g id="node8" class="node"><title>Node8</title>
<g id="a_node8"><a xlink:href="tokeniser_8hpp.html" target="_top" xlink:title="Declaration of the Tokeniser class. ">
<polygon fill="white" stroke="black" points="187.341,-168.5 187.341,-187.5 296.341,-187.5 296.341,-168.5 187.341,-168.5"/>
<text text-anchor="middle" x="241.841" y="-175.5" font-family="Helvetica,sans-Serif" font-size="10.00">src/io/tokeniser.hpp</text>
</a>
</g>
</g>
<!-- Node2&#45;&gt;Node8 -->
<g id="edge10" class="edge"><title>Node2&#45;&gt;Node8</title>
<path fill="none" stroke="midnightblue" d="M281.511,-217.253C271.576,-207.673 259.254,-195.791 251.002,-187.834"/>
<polygon fill="midnightblue" stroke="midnightblue" points="279.216,-219.902 288.844,-224.324 284.075,-214.863 279.216,-219.902"/>
</g>
<!-- Node9 -->
<g id="node9" class="node"><title>Node9</title>
<g id="a_node9"><a xlink:href="tokeniser_8cpp.html" target="_top" xlink:title="Definition of the Tokeniser class. ">
<polygon fill="white" stroke="black" points="126.841,-112.5 126.841,-131.5 234.841,-131.5 234.841,-112.5 126.841,-112.5"/>
<text text-anchor="middle" x="180.841" y="-119.5" font-family="Helvetica,sans-Serif" font-size="10.00">src/io/tokeniser.cpp</text>
</a>
</g>
</g>
<!-- Node2&#45;&gt;Node9 -->
<g id="edge13" class="edge"><title>Node2&#45;&gt;Node9</title>
<path fill="none" stroke="midnightblue" d="M250.549,-228.168C224.481,-222.814 194.176,-211.571 177.841,-188 166.13,-171.101 172.587,-145.377 177.298,-131.918"/>
<polygon fill="midnightblue" stroke="midnightblue" points="250.198,-231.662 260.663,-230.004 251.449,-224.774 250.198,-231.662"/>
</g>
<!-- Node5&#45;&gt;Node4 -->
<g id="edge5" class="edge"><title>Node5&#45;&gt;Node4</title>
<path fill="none" stroke="midnightblue" d="M328.159,-107.177C345.64,-97.2407 368.671,-84.1492 383.616,-75.6545"/>
<polygon fill="midnightblue" stroke="midnightblue" points="326.069,-104.339 319.104,-112.324 329.528,-110.425 326.069,-104.339"/>
</g>
<!-- Node5&#45;&gt;Node5 -->
<g id="edge6" class="edge"><title>Node5&#45;&gt;Node5</title>
<path fill="none" stroke="midnightblue" d="M343.159,-132.432C359.014,-133.04 372.341,-129.563 372.341,-122 372.341,-112.867 352.907,-109.692 333.056,-112.475"/>
<polygon fill="midnightblue" stroke="midnightblue" points="343.329,-128.933 333.056,-131.525 342.703,-135.905 343.329,-128.933"/>
</g>
<!-- Node5&#45;&gt;Node6 -->
<g id="edge7" class="edge"><title>Node5&#45;&gt;Node6</title>
<path fill="none" stroke="midnightblue" d="M311.549,-103.076C317.951,-89.3617 327.919,-70.4181 339.841,-56 351.973,-41.3286 369.371,-27.8278 381.113,-19.5189"/>
<polygon fill="midnightblue" stroke="midnightblue" points="308.274,-101.825 307.376,-112.382 314.661,-104.689 308.274,-101.825"/>
</g>
<!-- Node5&#45;&gt;Node7 -->
<g id="edge8" class="edge"><title>Node5&#45;&gt;Node7</title>
<path fill="none" stroke="midnightblue" d="M274.218,-108.503C250.222,-98.3795 217.057,-84.388 196.028,-75.5164"/>
<polygon fill="midnightblue" stroke="midnightblue" points="272.985,-111.781 283.559,-112.444 275.706,-105.332 272.985,-111.781"/>
</g>
<!-- Node7&#45;&gt;Node6 -->
<g id="edge9" class="edge"><title>Node7&#45;&gt;Node6</title>
<path fill="none" stroke="midnightblue" d="M220.153,-54.0237C261.333,-43.8232 321.814,-28.8414 359.46,-19.5164"/>
<polygon fill="midnightblue" stroke="midnightblue" points="219.249,-50.6417 210.384,-56.4435 220.932,-57.4364 219.249,-50.6417"/>
</g>
<!-- Node8&#45;&gt;Node5 -->
<g id="edge11" class="edge"><title>Node8&#45;&gt;Node5</title>
<path fill="none" stroke="midnightblue" d="M259.595,-161.537C270.65,-151.909 284.473,-139.869 293.698,-131.834"/>
<polygon fill="midnightblue" stroke="midnightblue" points="257.045,-159.117 251.802,-168.324 261.642,-164.395 257.045,-159.117"/>
</g>
<!-- Node8&#45;&gt;Node9 -->
<g id="edge12" class="edge"><title>Node8&#45;&gt;Node9</title>
<path fill="none" stroke="midnightblue" d="M224.374,-161.537C213.497,-151.909 199.897,-139.869 190.82,-131.834"/>
<polygon fill="midnightblue" stroke="midnightblue" points="222.233,-164.316 232.04,-168.324 226.873,-159.075 222.233,-164.316"/>
</g>
<!-- Node10&#45;&gt;Node2 -->
<g id="edge17" class="edge"><title>Node10&#45;&gt;Node2</title>
<path fill="none" stroke="midnightblue" d="M438.51,-277.436C404.761,-267.255 356.394,-252.664 326.071,-243.516"/>
<polygon fill="midnightblue" stroke="midnightblue" points="437.893,-280.906 448.478,-280.444 439.915,-274.204 437.893,-280.906"/>
</g>
<!-- Node10&#45;&gt;Node4 -->
<g id="edge18" class="edge"><title>Node10&#45;&gt;Node4</title>
<path fill="none" stroke="midnightblue" d="M470.371,-270.585C454.402,-225.135 413.571,-108.924 401.962,-75.8837"/>
<polygon fill="midnightblue" stroke="midnightblue" points="467.166,-272.023 473.783,-280.297 473.771,-269.703 467.166,-272.023"/>
</g>
<!-- Node10&#45;&gt;Node5 -->
<g id="edge19" class="edge"><title>Node10&#45;&gt;Node5</title>
<path fill="none" stroke="midnightblue" d="M460.259,-273.088C424.331,-238.615 340.326,-158.009 312.77,-131.568"/>
<polygon fill="midnightblue" stroke="midnightblue" points="457.901,-275.677 467.54,-280.075 462.748,-270.626 457.901,-275.677"/>
</g>
<!-- Node10&#45;&gt;Node6 -->
<g id="edge20" class="edge"><title>Node10&#45;&gt;Node6</title>
<path fill="none" stroke="midnightblue" d="M486.984,-271.429C498.241,-250.236 514.841,-213.187 514.841,-179 514.841,-179 514.841,-179 514.841,-121 514.841,-68.4784 451.651,-34.4214 416.6,-19.5703"/>
<polygon fill="midnightblue" stroke="midnightblue" points="483.894,-269.785 482.125,-280.231 490.022,-273.168 483.894,-269.785"/>
</g>
<!-- Node10&#45;&gt;Node7 -->
<g id="edge21" class="edge"><title>Node10&#45;&gt;Node7</title>
<path fill="none" stroke="midnightblue" d="M408.181,-284.518C290.621,-275.247 58.6976,-249.453 9.84105,-188 -32.9927,-134.122 83.109,-92.7088 142.847,-75.5885"/>
<polygon fill="midnightblue" stroke="midnightblue" points="408.265,-288.035 418.504,-285.313 408.803,-281.055 408.265,-288.035"/>
</g>
<!-- Node10&#45;&gt;Node11 -->
<g id="edge22" class="edge"><title>Node10&#45;&gt;Node11</title>
<path fill="none" stroke="midnightblue" d="M545.007,-280.456C546.295,-280.302 547.574,-280.15 548.841,-280 692.287,-263.042 728.475,-261.616 871.841,-244 874.87,-243.628 877.974,-243.238 881.108,-242.839"/>
<polygon fill="midnightblue" stroke="midnightblue" points="544.501,-276.991 534.992,-281.664 545.339,-283.941 544.501,-276.991"/>
</g>
<!-- Node12 -->
<g id="node12" class="node"><title>Node12</title>
<g id="a_node12"><a xlink:href="player__position_8cpp.html" target="_top" xlink:title="Implementation of the PlayerPosition class, and related Player methods. ">
<polygon fill="white" stroke="black" points="542.841,-224.5 542.841,-243.5 700.841,-243.5 700.841,-224.5 542.841,-224.5"/>
<text text-anchor="middle" x="621.841" y="-231.5" font-family="Helvetica,sans-Serif" font-size="10.00">src/player/player_position.cpp</text>
</a>
</g>
</g>
<!-- Node10&#45;&gt;Node12 -->
<g id="edge23" class="edge"><title>Node10&#45;&gt;Node12</title>
<path fill="none" stroke="midnightblue" d="M509.316,-276.906C536.577,-266.754 574.833,-252.506 598.973,-243.516"/>
<polygon fill="midnightblue" stroke="midnightblue" points="507.966,-273.674 499.817,-280.444 510.409,-280.233 507.966,-273.674"/>
</g>
<!-- Node13 -->
<g id="node13" class="node"><title>Node13</title>
<g id="a_node13"><a xlink:href="player__state_8cpp.html" target="_top" xlink:title="Implementation of the PlayerState class, and related Player methods. ">
<polygon fill="white" stroke="black" points="718.841,-224.5 718.841,-243.5 862.841,-243.5 862.841,-224.5 718.841,-224.5"/>
<text text-anchor="middle" x="790.841" y="-231.5" font-family="Helvetica,sans-Serif" font-size="10.00">src/player/player_state.cpp</text>
</a>
</g>
</g>
<!-- Node10&#45;&gt;Node13 -->
<g id="edge24" class="edge"><title>Node10&#45;&gt;Node13</title>
<path fill="none" stroke="midnightblue" d="M536.574,-278.727C595.911,-268.523 685.835,-253.058 741.32,-243.516"/>
<polygon fill="midnightblue" stroke="midnightblue" points="535.857,-275.299 526.595,-280.444 537.044,-282.198 535.857,-275.299"/>
</g>
</g>
</svg>
        <g id="navigator" transform="translate(0 0)" fill="#404254">
                <rect fill="#f2f5e9" fill-opacity="0.5" stroke="#606060" stroke-width=".5" x="0" y="0" width="60" height="60"/>
                <use id="zoomplus" xlink:href="#zoomPlus" x="17" y="9" onmousedown="handleZoom(evt,'in')"/>
                <use id="zoomminus" xlink:href="#zoomMin" x="42" y="9" onmousedown="handleZoom(evt,'out')"/>
                <use id="reset" xlink:href="#resetDef" x="30" y="36" onmousedown="handleReset()"/>
                <g id="arrowUp" xlink:href="#dirArrow" transform="translate(30 24)" onmousedown="handlePan(0,-1)">
                  <use xlink:href="#rim" fill="#404040">
                        <set attributeName="fill" to="#808080" begin="arrowUp.mouseover" end="arrowUp.mouseout"/>
                  </use>
                  <path fill="none" stroke="white" stroke-width="1.5" d="M0,-3.0v7 M-2.5,-0.5L0,-3.0L2.5,-0.5"/>
                </g>
                <g id="arrowRight" xlink:href="#dirArrow" transform="rotate(90) translate(36 -43)" onmousedown="handlePan(1,0)">
                  <use xlink:href="#rim" fill="#404040">
                        <set attributeName="fill" to="#808080" begin="arrowRight.mouseover" end="arrowRight.mouseout"/>
                  </use>
                  <path fill="none" stroke="white" stroke-width="1.5" d="M0,-3.0v7 M-2.5,-0.5L0,-3.0L2.5,-0.5"/>
                </g>
                <g id="arrowDown" xlink:href="#dirArrow" transform="rotate(180) translate(-30 -48)" onmousedown="handlePan(0,1)">
                  <use xlink:href="#rim" fill="#404040">
                        <set attributeName="fill" to="#808080" begin="arrowDown.mouseover" end="arrowDown.mouseout"/>
                  </use>
                  <path fill="none" stroke="white" stroke-width="1.5" d="M0,-3.0v7 M-2.5,-0.5L0,-3.0L2.5,-0.5"/>
                </g>
                <g id="arrowLeft" xlink:href="#dirArrow" transform="rotate(270) translate(-36 17)" onmousedown="handlePan(-1,0)">
                  <use xlink:href="#rim" fill="#404040">
                        <set attributeName="fill" to="#808080" begin="arrowLeft.mouseover" end="arrowLeft.mouseout"/>
                  </use>
                  <path fill="none" stroke="white" stroke-width="1.5" d="M0,-3.0v7 M-2.5,-0.5L0,-3.0L2.5,-0.5"/>
                </g>
        </g>
        <svg viewBox="0 0 15 15" width="100%" height="30px" preserveAspectRatio="xMaxYMin meet">
         <g id="arrow_out" transform="scale(0.3 0.3)">
          <a xlink:href="cmd__result_8hpp__dep__incl_org.svg" target="_base">
           <rect id="button" ry="5" rx="5" y="6" x="6" height="38" width="38"
                fill="#f2f5e9" fill-opacity="0.5" stroke="#606060" stroke-width="1.0"/>
           <path id="arrow"
             d="M 11.500037,31.436501 C 11.940474,20.09759 22.043105,11.32322 32.158766,21.979434 L 37.068811,17.246167 C 37.068811,17.246167 37.088388,32 37.088388,32 L 22.160133,31.978069 C 22.160133,31.978069 26.997745,27.140456 26.997745,27.140456 C 18.528582,18.264221 13.291696,25.230495 11.500037,31.436501 z"
             style="fill:#404040;"/>
          </a>
         </g>
        </svg>
</svg>
