<?xml version="1.0" encoding="UTF-8" standalone="no"?>
<!DOCTYPE svg PUBLIC "-//W3C//DTD SVG 1.1//EN"
 "http://www.w3.org/Graphics/SVG/1.1/DTD/svg11.dtd">
<!-- Generated by graphviz version 2.38.0 (20140413.2041)
 -->
<!-- Title: src/cmd_result.hpp Pages: 1 -->
<svg width="428pt" height="196pt"
 viewBox="0.00 0.00 427.50 196.00" xmlns="http://www.w3.org/2000/svg" xmlns:xlink="http://www.w3.org/1999/xlink">
<g id="graph0" class="graph" transform="scale(1 1) rotate(0) translate(4 192)">
<title>src/cmd_result.hpp</title>
<polygon fill="white" stroke="none" points="-4,4 -4,-192 423.5,-192 423.5,4 -4,4"/>
<!-- Node1 -->
<g id="node1" class="node"><title>Node1</title>
<polygon fill="#bfbfbf" stroke="black" points="53,-168.5 53,-187.5 158,-187.5 158,-168.5 53,-168.5"/>
<text text-anchor="middle" x="105.5" y="-175.5" font-family="Helvetica,sans-Serif" font-size="10.00">src/cmd_result.hpp</text>
</g>
<!-- Node2 -->
<g id="node2" class="node"><title>Node2</title>
<polygon fill="white" stroke="#bfbfbf" points="0,-56.5 0,-75.5 47,-75.5 47,-56.5 0,-56.5"/>
<text text-anchor="middle" x="23.5" y="-63.5" font-family="Helvetica,sans-Serif" font-size="10.00">cstdint</text>
</g>
<!-- Node1&#45;&gt;Node2 -->
<g id="edge1" class="edge"><title>Node1&#45;&gt;Node2</title>
<path fill="none" stroke="midnightblue" d="M99.0656,-168.368C85.4734,-150.135 53.6355,-107.426 35.9306,-83.6752"/>
<polygon fill="midnightblue" stroke="midnightblue" points="38.6873,-81.5171 29.9045,-75.5914 33.0751,-85.7007 38.6873,-81.5171"/>
</g>
<!-- Node3 -->
<g id="node3" class="node"><title>Node3</title>
<polygon fill="white" stroke="#bfbfbf" points="65,-56.5 65,-75.5 108,-75.5 108,-56.5 65,-56.5"/>
<text text-anchor="middle" x="86.5" y="-63.5" font-family="Helvetica,sans-Serif" font-size="10.00">string</text>
</g>
<!-- Node1&#45;&gt;Node3 -->
<g id="edge2" class="edge"><title>Node1&#45;&gt;Node3</title>
<path fill="none" stroke="midnightblue" d="M104.009,-168.368C100.943,-150.617 93.8696,-109.666 89.7123,-85.5974"/>
<polygon fill="midnightblue" stroke="midnightblue" points="93.1351,-84.8498 87.984,-75.5914 86.2372,-86.0413 93.1351,-84.8498"/>
</g>
<!-- Node4 -->
<g id="node4" class="node"><title>Node4</title>
<polygon fill="white" stroke="#bfbfbf" points="126.5,-56.5 126.5,-75.5 172.5,-75.5 172.5,-56.5 126.5,-56.5"/>
<text text-anchor="middle" x="149.5" y="-63.5" font-family="Helvetica,sans-Serif" font-size="10.00">vector</text>
</g>
<!-- Node1&#45;&gt;Node4 -->
<g id="edge3" class="edge"><title>Node1&#45;&gt;Node4</title>
<path fill="none" stroke="midnightblue" d="M108.953,-168.368C116.117,-150.456 132.731,-108.923 142.321,-84.9482"/>
<polygon fill="midnightblue" stroke="midnightblue" points="145.599,-86.1761 146.063,-75.5914 139.1,-83.5763 145.599,-86.1761"/>
</g>
<!-- Node5 -->
<g id="node5" class="node"><title>Node5</title>
<g id="a_node5"><a xlink:href="io__response_8hpp.html" target="_top" xlink:title="Declaration of classes pertaining to responses to the client. ">
<polygon fill="white" stroke="black" points="153,-112.5 153,-131.5 260,-131.5 260,-112.5 153,-112.5"/>
<text text-anchor="middle" x="206.5" y="-119.5" font-family="Helvetica,sans-Serif" font-size="10.00">io/io_response.hpp</text>
</a>
</g>
</g>
<!-- Node1&#45;&gt;Node5 -->
<g id="edge4" class="edge"><title>Node1&#45;&gt;Node5</title>
<path fill="none" stroke="midnightblue" d="M121.727,-168.324C137.851,-159.703 162.8,-146.364 181.464,-136.386"/>
<polygon fill="midnightblue" stroke="midnightblue" points="183.144,-139.456 190.313,-131.655 179.844,-133.283 183.144,-139.456"/>
</g>
<!-- Node5&#45;&gt;Node2 -->
<g id="edge5" class="edge"><title>Node5&#45;&gt;Node2</title>
<path fill="none" stroke="midnightblue" d="M177.503,-112.444C144.664,-102.753 91.2509,-86.9921 56.75,-76.8115"/>
<polygon fill="midnightblue" stroke="midnightblue" points="57.7056,-73.4443 47.1239,-73.971 55.7244,-80.1581 57.7056,-73.4443"/>
</g>
<!-- Node5&#45;&gt;Node3 -->
<g id="edge8" class="edge"><title>Node5&#45;&gt;Node3</title>
<path fill="none" stroke="midnightblue" d="M187.486,-112.444C167.912,-103.636 137.192,-89.8116 114.771,-79.722"/>
<polygon fill="midnightblue" stroke="midnightblue" points="115.981,-76.4284 105.425,-75.5164 113.108,-82.8119 115.981,-76.4284"/>
</g>
<!-- Node5&#45;&gt;Node4 -->
<g id="edge9" class="edge"><title>Node5&#45;&gt;Node4</title>
<path fill="none" stroke="midnightblue" d="M197.342,-112.324C188.999,-104.42 176.468,-92.5482 166.323,-82.9377"/>
<polygon fill="midnightblue" stroke="midnightblue" points="168.491,-80.1705 158.825,-75.8339 163.677,-85.2522 168.491,-80.1705"/>
</g>
<!-- Node6 -->
<g id="node6" class="node"><title>Node6</title>
<polygon fill="white" stroke="#bfbfbf" points="191,-56.5 191,-75.5 228,-75.5 228,-56.5 191,-56.5"/>
<text text-anchor="middle" x="209.5" y="-63.5" font-family="Helvetica,sans-Serif" font-size="10.00">map</text>
</g>
<!-- Node5&#45;&gt;Node6 -->
<g id="edge6" class="edge"><title>Node5&#45;&gt;Node6</title>
<path fill="none" stroke="midnightblue" d="M206.995,-112.083C207.389,-105.006 207.952,-94.8611 208.445,-85.9865"/>
<polygon fill="midnightblue" stroke="midnightblue" points="211.954,-85.9299 209.014,-75.7511 204.964,-85.5415 211.954,-85.9299"/>
</g>
<!-- Node7 -->
<g id="node7" class="node"><title>Node7</title>
<polygon fill="white" stroke="#bfbfbf" points="246,-56.5 246,-75.5 301,-75.5 301,-56.5 246,-56.5"/>
<text text-anchor="middle" x="273.5" y="-63.5" font-family="Helvetica,sans-Serif" font-size="10.00">ostream</text>
</g>
<!-- Node5&#45;&gt;Node7 -->
<g id="edge7" class="edge"><title>Node5&#45;&gt;Node7</title>
<path fill="none" stroke="midnightblue" d="M217.265,-112.324C227.266,-104.263 242.387,-92.0765 254.43,-82.3695"/>
<polygon fill="midnightblue" stroke="midnightblue" points="256.95,-84.8343 262.539,-75.8339 252.557,-79.3841 256.95,-84.8343"/>
</g>
<!-- Node8 -->
<g id="node8" class="node"><title>Node8</title>
<g id="a_node8"><a xlink:href="errors_8hpp.html" target="_top" xlink:title="Declarations of the playd Error exception set. ">
<polygon fill="white" stroke="black" points="319,-56.5 319,-75.5 392,-75.5 392,-56.5 319,-56.5"/>
<text text-anchor="middle" x="355.5" y="-63.5" font-family="Helvetica,sans-Serif" font-size="10.00">../errors.hpp</text>
</a>
</g>
</g>
<!-- Node5&#45;&gt;Node8 -->
<g id="edge10" class="edge"><title>Node5&#45;&gt;Node8</title>
<path fill="none" stroke="midnightblue" d="M230.109,-112.444C254.958,-103.438 294.274,-89.1891 322.254,-79.049"/>
<polygon fill="midnightblue" stroke="midnightblue" points="323.792,-82.2144 332.001,-75.5164 321.407,-75.6332 323.792,-82.2144"/>
</g>
<!-- Node9 -->
<g id="node9" class="node"><title>Node9</title>
<polygon fill="white" stroke="#bfbfbf" points="290,-0.5 290,-19.5 347,-19.5 347,-0.5 290,-0.5"/>
<text text-anchor="middle" x="318.5" y="-7.5" font-family="Helvetica,sans-Serif" font-size="10.00">iostream</text>
</g>
<!-- Node8&#45;&gt;Node9 -->
<g id="edge11" class="edge"><title>Node8&#45;&gt;Node9</title>
<path fill="none" stroke="midnightblue" d="M349.39,-56.083C344.218,-48.5341 336.654,-37.4948 330.306,-28.2298"/>
<polygon fill="midnightblue" stroke="midnightblue" points="333.036,-26.0221 324.496,-19.7511 327.261,-29.9787 333.036,-26.0221"/>
</g>
<!-- Node10 -->
<g id="node10" class="node"><title>Node10</title>
<polygon fill="white" stroke="#bfbfbf" points="365.5,-0.5 365.5,-19.5 419.5,-19.5 419.5,-0.5 365.5,-0.5"/>
<text text-anchor="middle" x="392.5" y="-7.5" font-family="Helvetica,sans-Serif" font-size="10.00">sstream</text>
</g>
<!-- Node8&#45;&gt;Node10 -->
<g id="edge12" class="edge"><title>Node8&#45;&gt;Node10</title>
<path fill="none" stroke="midnightblue" d="M361.61,-56.083C366.782,-48.5341 374.346,-37.4948 380.694,-28.2298"/>
<polygon fill="midnightblue" stroke="midnightblue" points="383.739,-29.9787 386.504,-19.7511 377.964,-26.0221 383.739,-29.9787"/>
</g>
</g>
</svg>
