<?xml version="1.0" encoding="UTF-8" standalone="no"?>
<!DOCTYPE svg PUBLIC "-//W3C//DTD SVG 1.1//EN"
 "http://www.w3.org/Graphics/SVG/1.1/DTD/svg11.dtd">
<!-- Generated by graphviz version 2.38.0 (20140413.2041)
 -->
<!-- Title: src/cmd_result.hpp Pages: 1 -->
<svg width="422pt" height="196pt"
 viewBox="0.00 0.00 421.50 196.00" xmlns="http://www.w3.org/2000/svg" xmlns:xlink="http://www.w3.org/1999/xlink">
<g id="graph0" class="graph" transform="scale(1 1) rotate(0) translate(4 192)">
<title>src/cmd_result.hpp</title>
<polygon fill="white" stroke="none" points="-4,4 -4,-192 417.5,-192 417.5,4 -4,4"/>
<!-- Node1 -->
<g id="node1" class="node"><title>Node1</title>
<polygon fill="#bfbfbf" stroke="black" points="42.5,-168.5 42.5,-187.5 150.5,-187.5 150.5,-168.5 42.5,-168.5"/>
<text text-anchor="middle" x="96.5" y="-175.5" font-family="Helvetica,sans-Serif" font-size="10.00">src/cmd_result.hpp</text>
</g>
<!-- Node2 -->
<g id="node2" class="node"><title>Node2</title>
<polygon fill="white" stroke="#bfbfbf" points="0,-112.5 0,-131.5 49,-131.5 49,-112.5 0,-112.5"/>
<text text-anchor="middle" x="24.5" y="-119.5" font-family="Helvetica,sans-Serif" font-size="10.00">cstdint</text>
</g>
<!-- Node1&#45;&gt;Node2 -->
<g id="edge1" class="edge"><title>Node1&#45;&gt;Node2</title>
<path fill="none" stroke="midnightblue" d="M84.932,-168.324C74.0798,-160.185 57.6193,-147.839 44.6166,-138.087"/>
<polygon fill="midnightblue" stroke="midnightblue" points="46.3786,-135.034 36.2785,-131.834 42.1785,-140.634 46.3786,-135.034"/>
</g>
<!-- Node3 -->
<g id="node3" class="node"><title>Node3</title>
<polygon fill="white" stroke="#bfbfbf" points="50.5,-56.5 50.5,-75.5 94.5,-75.5 94.5,-56.5 50.5,-56.5"/>
<text text-anchor="middle" x="72.5" y="-63.5" font-family="Helvetica,sans-Serif" font-size="10.00">string</text>
</g>
<!-- Node1&#45;&gt;Node3 -->
<g id="edge2" class="edge"><title>Node1&#45;&gt;Node3</title>
<path fill="none" stroke="midnightblue" d="M94.6168,-168.368C90.7437,-150.617 81.809,-109.666 76.5576,-85.5974"/>
<polygon fill="midnightblue" stroke="midnightblue" points="79.9258,-84.6155 74.3745,-75.5914 73.0867,-86.1077 79.9258,-84.6155"/>
</g>
<!-- Node4 -->
<g id="node4" class="node"><title>Node4</title>
<polygon fill="white" stroke="#bfbfbf" points="113,-56.5 113,-75.5 160,-75.5 160,-56.5 113,-56.5"/>
<text text-anchor="middle" x="136.5" y="-63.5" font-family="Helvetica,sans-Serif" font-size="10.00">vector</text>
</g>
<!-- Node1&#45;&gt;Node4 -->
<g id="edge3" class="edge"><title>Node1&#45;&gt;Node4</title>
<path fill="none" stroke="midnightblue" d="M99.6387,-168.368C106.123,-150.537 121.12,-109.295 129.856,-85.2717"/>
<polygon fill="midnightblue" stroke="midnightblue" points="133.248,-86.1855 133.376,-75.5914 126.669,-83.7932 133.248,-86.1855"/>
</g>
<!-- Node5 -->
<g id="node5" class="node"><title>Node5</title>
<g id="a_node5"><a xlink:href="io__response_8hpp.html" target="_top" xlink:title="Declaration of classes pertaining to responses to the client. ">
<polygon fill="white" stroke="black" points="144,-112.5 144,-131.5 251,-131.5 251,-112.5 144,-112.5"/>
<text text-anchor="middle" x="197.5" y="-119.5" font-family="Helvetica,sans-Serif" font-size="10.00">io/io_response.hpp</text>
</a>
</g>
</g>
<!-- Node1&#45;&gt;Node5 -->
<g id="edge4" class="edge"><title>Node1&#45;&gt;Node5</title>
<path fill="none" stroke="midnightblue" d="M112.727,-168.324C128.851,-159.703 153.8,-146.364 172.464,-136.386"/>
<polygon fill="midnightblue" stroke="midnightblue" points="174.144,-139.456 181.313,-131.655 170.844,-133.283 174.144,-139.456"/>
</g>
<!-- Node5&#45;&gt;Node3 -->
<g id="edge7" class="edge"><title>Node5&#45;&gt;Node3</title>
<path fill="none" stroke="midnightblue" d="M177.693,-112.444C157.213,-103.596 125.017,-89.6875 101.635,-79.5865"/>
<polygon fill="midnightblue" stroke="midnightblue" points="102.782,-76.2692 92.214,-75.5164 100.006,-82.6953 102.782,-76.2692"/>
</g>
<!-- Node5&#45;&gt;Node4 -->
<g id="edge8" class="edge"><title>Node5&#45;&gt;Node4</title>
<path fill="none" stroke="midnightblue" d="M187.699,-112.324C178.682,-104.341 165.094,-92.3128 154.182,-82.6529"/>
<polygon fill="midnightblue" stroke="midnightblue" points="156.287,-79.8416 146.479,-75.8339 151.647,-85.083 156.287,-79.8416"/>
</g>
<!-- Node6 -->
<g id="node6" class="node"><title>Node6</title>
<polygon fill="white" stroke="#bfbfbf" points="178.5,-56.5 178.5,-75.5 216.5,-75.5 216.5,-56.5 178.5,-56.5"/>
<text text-anchor="middle" x="197.5" y="-63.5" font-family="Helvetica,sans-Serif" font-size="10.00">map</text>
</g>
<!-- Node5&#45;&gt;Node6 -->
<g id="edge5" class="edge"><title>Node5&#45;&gt;Node6</title>
<path fill="none" stroke="midnightblue" d="M197.5,-112.083C197.5,-105.006 197.5,-94.8611 197.5,-85.9865"/>
<polygon fill="midnightblue" stroke="midnightblue" points="201,-85.751 197.5,-75.7511 194,-85.7511 201,-85.751"/>
</g>
<!-- Node7 -->
<g id="node7" class="node"><title>Node7</title>
<polygon fill="white" stroke="#bfbfbf" points="235,-56.5 235,-75.5 292,-75.5 292,-56.5 235,-56.5"/>
<text text-anchor="middle" x="263.5" y="-63.5" font-family="Helvetica,sans-Serif" font-size="10.00">ostream</text>
</g>
<!-- Node5&#45;&gt;Node7 -->
<g id="edge6" class="edge"><title>Node5&#45;&gt;Node7</title>
<path fill="none" stroke="midnightblue" d="M208.104,-112.324C217.956,-104.263 232.851,-92.0765 244.715,-82.3695"/>
<polygon fill="midnightblue" stroke="midnightblue" points="247.18,-84.8752 252.703,-75.8339 242.747,-79.4575 247.18,-84.8752"/>
</g>
<!-- Node8 -->
<g id="node8" class="node"><title>Node8</title>
<g id="a_node8"><a xlink:href="errors_8hpp.html" target="_top" xlink:title="Declarations of the playd Error exception set. ">
<polygon fill="white" stroke="black" points="310,-56.5 310,-75.5 385,-75.5 385,-56.5 310,-56.5"/>
<text text-anchor="middle" x="347.5" y="-63.5" font-family="Helvetica,sans-Serif" font-size="10.00">../errors.hpp</text>
</a>
</g>
</g>
<!-- Node5&#45;&gt;Node8 -->
<g id="edge9" class="edge"><title>Node5&#45;&gt;Node8</title>
<path fill="none" stroke="midnightblue" d="M221.268,-112.444C246.393,-103.399 286.211,-89.064 314.4,-78.9158"/>
<polygon fill="midnightblue" stroke="midnightblue" points="315.62,-82.1968 323.843,-75.5164 313.249,-75.6106 315.62,-82.1968"/>
</g>
<!-- Node9 -->
<g id="node9" class="node"><title>Node9</title>
<polygon fill="white" stroke="#bfbfbf" points="280,-0.5 280,-19.5 339,-19.5 339,-0.5 280,-0.5"/>
<text text-anchor="middle" x="309.5" y="-7.5" font-family="Helvetica,sans-Serif" font-size="10.00">iostream</text>
</g>
<!-- Node8&#45;&gt;Node9 -->
<g id="edge10" class="edge"><title>Node8&#45;&gt;Node9</title>
<path fill="none" stroke="midnightblue" d="M341.225,-56.083C335.858,-48.4554 327.982,-37.2645 321.421,-27.9408"/>
<polygon fill="midnightblue" stroke="midnightblue" points="324.275,-25.9149 315.658,-19.7511 318.551,-29.9434 324.275,-25.9149"/>
</g>
<!-- Node10 -->
<g id="node10" class="node"><title>Node10</title>
<polygon fill="white" stroke="#bfbfbf" points="357.5,-0.5 357.5,-19.5 413.5,-19.5 413.5,-0.5 357.5,-0.5"/>
<text text-anchor="middle" x="385.5" y="-7.5" font-family="Helvetica,sans-Serif" font-size="10.00">sstream</text>
</g>
<!-- Node8&#45;&gt;Node10 -->
<g id="edge11" class="edge"><title>Node8&#45;&gt;Node10</title>
<path fill="none" stroke="midnightblue" d="M353.775,-56.083C359.142,-48.4554 367.018,-37.2645 373.579,-27.9408"/>
<polygon fill="midnightblue" stroke="midnightblue" points="376.449,-29.9434 379.342,-19.7511 370.725,-25.9149 376.449,-29.9434"/>
</g>
</g>
</svg>
