<?xml version="1.0" encoding="UTF-8" standalone="no"?>
<!DOCTYPE svg PUBLIC "-//W3C//DTD SVG 1.1//EN"
 "http://www.w3.org/Graphics/SVG/1.1/DTD/svg11.dtd">
<!-- Generated by graphviz version 2.38.0 (20140413.2041)
 -->
<!-- Title: src/cmd.hpp Pages: 1 -->
<svg width="411pt" height="252pt"
 viewBox="0.00 0.00 411.27 252.00" xmlns="http://www.w3.org/2000/svg" xmlns:xlink="http://www.w3.org/1999/xlink">
<g id="graph0" class="graph" transform="scale(1 1) rotate(0) translate(4 248)">
<title>src/cmd.hpp</title>
<polygon fill="white" stroke="none" points="-4,4 -4,-248 407.273,-248 407.273,4 -4,4"/>
<!-- Node1 -->
<g id="node1" class="node"><title>Node1</title>
<polygon fill="#bfbfbf" stroke="black" points="214.5,-224.5 214.5,-243.5 290.5,-243.5 290.5,-224.5 214.5,-224.5"/>
<text text-anchor="middle" x="252.5" y="-231.5" font-family="Helvetica,sans-Serif" font-size="10.00">src/cmd.hpp</text>
</g>
<!-- Node2 -->
<g id="node2" class="node"><title>Node2</title>
<g id="a_node2"><a xlink:href="cmd_8cpp.html" target="_top" xlink:title="Implementation of the CommandHandler class. ">
<polygon fill="white" stroke="black" points="0,-168.5 0,-187.5 75,-187.5 75,-168.5 0,-168.5"/>
<text text-anchor="middle" x="37.5" y="-175.5" font-family="Helvetica,sans-Serif" font-size="10.00">src/cmd.cpp</text>
</a>
</g>
</g>
<!-- Node1&#45;&gt;Node2 -->
<g id="edge1" class="edge"><title>Node1&#45;&gt;Node2</title>
<path fill="none" stroke="midnightblue" d="M208.54,-221.959C167.933,-211.76 108.457,-196.822 71.408,-187.516"/>
<polygon fill="midnightblue" stroke="midnightblue" points="207.881,-225.402 218.433,-224.444 209.586,-218.613 207.881,-225.402"/>
</g>
<!-- Node3 -->
<g id="node3" class="node"><title>Node3</title>
<g id="a_node3"><a xlink:href="io__core_8cpp.html" target="_top" xlink:title="Implementation of the non&#45;virtual aspects of the IoCore class. ">
<polygon fill="white" stroke="black" points="85.5,-56.5 85.5,-75.5 185.5,-75.5 185.5,-56.5 85.5,-56.5"/>
<text text-anchor="middle" x="135.5" y="-63.5" font-family="Helvetica,sans-Serif" font-size="10.00">src/io/io_core.cpp</text>
</a>
</g>
</g>
<!-- Node1&#45;&gt;Node3 -->
<g id="edge2" class="edge"><title>Node1&#45;&gt;Node3</title>
<path fill="none" stroke="midnightblue" d="M221.435,-220.158C189.03,-204.748 140.49,-175.432 122.5,-132 114.573,-112.862 124.22,-88.5018 130.647,-75.7247"/>
<polygon fill="midnightblue" stroke="midnightblue" points="220.372,-223.52 230.922,-224.494 223.282,-217.154 220.372,-223.52"/>
</g>
<!-- Node4 -->
<g id="node4" class="node"><title>Node4</title>
<g id="a_node4"><a xlink:href="io__core_8hpp.html" target="_top" xlink:title="Declaration of the IoCore class. ">
<polygon fill="white" stroke="black" points="132,-112.5 132,-131.5 233,-131.5 233,-112.5 132,-112.5"/>
<text text-anchor="middle" x="182.5" y="-119.5" font-family="Helvetica,sans-Serif" font-size="10.00">src/io/io_core.hpp</text>
</a>
</g>
</g>
<!-- Node1&#45;&gt;Node4 -->
<g id="edge3" class="edge"><title>Node1&#45;&gt;Node4</title>
<path fill="none" stroke="midnightblue" d="M223.057,-219.554C210.248,-212.129 196.389,-201.619 188.5,-188 178.162,-170.152 179.491,-144.829 181.123,-131.68"/>
<polygon fill="midnightblue" stroke="midnightblue" points="221.633,-222.762 232.098,-224.415 224.948,-216.597 221.633,-222.762"/>
</g>
<!-- Node5 -->
<g id="node5" class="node"><title>Node5</title>
<g id="a_node5"><a xlink:href="main_8cpp.html" target="_top" xlink:title="Main entry point and implementation of the playd class. ">
<polygon fill="white" stroke="black" points="305.5,-0.5 305.5,-19.5 383.5,-19.5 383.5,-0.5 305.5,-0.5"/>
<text text-anchor="middle" x="344.5" y="-7.5" font-family="Helvetica,sans-Serif" font-size="10.00">src/main.cpp</text>
</a>
</g>
</g>
<!-- Node1&#45;&gt;Node5 -->
<g id="edge13" class="edge"><title>Node1&#45;&gt;Node5</title>
<path fill="none" stroke="midnightblue" d="M300.32,-221.912C322.557,-214.958 348.273,-204.164 367.5,-188 389.787,-169.263 393.654,-160.04 401.5,-132 407.246,-111.463 395.386,-61.4297 392.5,-56 384.352,-40.6681 368.958,-27.6786 357.795,-19.655"/>
<polygon fill="midnightblue" stroke="midnightblue" points="299.307,-218.562 290.708,-224.752 301.29,-225.275 299.307,-218.562"/>
</g>
<!-- Node6 -->
<g id="node6" class="node"><title>Node6</title>
<g id="a_node6"><a xlink:href="main_8hpp.html" target="_top" xlink:title="Declaration of the playd class. ">
<polygon fill="white" stroke="black" points="305,-56.5 305,-75.5 384,-75.5 384,-56.5 305,-56.5"/>
<text text-anchor="middle" x="344.5" y="-63.5" font-family="Helvetica,sans-Serif" font-size="10.00">src/main.hpp</text>
</a>
</g>
</g>
<!-- Node1&#45;&gt;Node6 -->
<g id="edge14" class="edge"><title>Node1&#45;&gt;Node6</title>
<path fill="none" stroke="midnightblue" d="M285.32,-220.426C319.06,-205.353 369.055,-176.424 386.5,-132 395.143,-109.99 372.05,-87.5209 356.773,-75.6274"/>
<polygon fill="midnightblue" stroke="midnightblue" points="283.662,-217.328 275.85,-224.486 286.42,-223.762 283.662,-217.328"/>
</g>
<!-- Node7 -->
<g id="node7" class="node"><title>Node7</title>
<g id="a_node7"><a xlink:href="tokeniser_8hpp.html" target="_top" xlink:title="Declaration of the Tokeniser class. ">
<polygon fill="white" stroke="black" points="197.5,-168.5 197.5,-187.5 307.5,-187.5 307.5,-168.5 197.5,-168.5"/>
<text text-anchor="middle" x="252.5" y="-175.5" font-family="Helvetica,sans-Serif" font-size="10.00">src/io/tokeniser.hpp</text>
</a>
</g>
</g>
<!-- Node1&#45;&gt;Node7 -->
<g id="edge9" class="edge"><title>Node1&#45;&gt;Node7</title>
<path fill="none" stroke="midnightblue" d="M252.5,-213.805C252.5,-204.91 252.5,-194.78 252.5,-187.751"/>
<polygon fill="midnightblue" stroke="midnightblue" points="249,-214.083 252.5,-224.083 256,-214.083 249,-214.083"/>
</g>
<!-- Node8 -->
<g id="node8" class="node"><title>Node8</title>
<g id="a_node8"><a xlink:href="tokeniser_8cpp.html" target="_top" xlink:title="Definition of the Tokeniser class. ">
<polygon fill="white" stroke="black" points="269,-112.5 269,-131.5 378,-131.5 378,-112.5 269,-112.5"/>
<text text-anchor="middle" x="323.5" y="-119.5" font-family="Helvetica,sans-Serif" font-size="10.00">src/io/tokeniser.cpp</text>
</a>
</g>
</g>
<!-- Node1&#45;&gt;Node8 -->
<g id="edge12" class="edge"><title>Node1&#45;&gt;Node8</title>
<path fill="none" stroke="midnightblue" d="M281.85,-219.499C294.638,-212.063 308.508,-201.559 316.5,-188 326.99,-170.205 326.102,-144.859 324.713,-131.693"/>
<polygon fill="midnightblue" stroke="midnightblue" points="279.963,-216.54 272.828,-224.372 283.29,-222.699 279.963,-216.54"/>
</g>
<!-- Node4&#45;&gt;Node3 -->
<g id="edge4" class="edge"><title>Node4&#45;&gt;Node3</title>
<path fill="none" stroke="midnightblue" d="M168.079,-104.431C159.842,-94.9673 149.846,-83.4827 143.117,-75.7511"/>
<polygon fill="midnightblue" stroke="midnightblue" points="165.534,-106.838 174.739,-112.083 170.814,-102.242 165.534,-106.838"/>
</g>
<!-- Node4&#45;&gt;Node4 -->
<g id="edge5" class="edge"><title>Node4&#45;&gt;Node4</title>
<path fill="none" stroke="midnightblue" d="M221.818,-132.432C237.673,-133.04 251,-129.563 251,-122 251,-112.867 231.566,-109.692 211.715,-112.475"/>
<polygon fill="midnightblue" stroke="midnightblue" points="221.988,-128.933 211.715,-131.525 221.362,-135.905 221.988,-128.933"/>
</g>
<!-- Node4&#45;&gt;Node5 -->
<g id="edge6" class="edge"><title>Node4&#45;&gt;Node5</title>
<path fill="none" stroke="midnightblue" d="M203.539,-106.714C237.676,-83.5347 304.103,-38.4303 331.847,-19.5914"/>
<polygon fill="midnightblue" stroke="midnightblue" points="201.519,-103.855 195.212,-112.368 205.451,-109.647 201.519,-103.855"/>
</g>
<!-- Node4&#45;&gt;Node6 -->
<g id="edge7" class="edge"><title>Node4&#45;&gt;Node6</title>
<path fill="none" stroke="midnightblue" d="M217.984,-109.172C248.488,-99.0039 291.745,-84.5852 318.951,-75.5164"/>
<polygon fill="midnightblue" stroke="midnightblue" points="216.549,-105.961 208.169,-112.444 218.763,-112.602 216.549,-105.961"/>
</g>
<!-- Node6&#45;&gt;Node5 -->
<g id="edge8" class="edge"><title>Node6&#45;&gt;Node5</title>
<path fill="none" stroke="midnightblue" d="M344.5,-45.8045C344.5,-36.9102 344.5,-26.7798 344.5,-19.7511"/>
<polygon fill="midnightblue" stroke="midnightblue" points="341,-46.083 344.5,-56.083 348,-46.083 341,-46.083"/>
</g>
<!-- Node7&#45;&gt;Node4 -->
<g id="edge10" class="edge"><title>Node7&#45;&gt;Node4</title>
<path fill="none" stroke="midnightblue" d="M233.186,-162.101C220.588,-152.382 204.572,-140.027 193.951,-131.834"/>
<polygon fill="midnightblue" stroke="midnightblue" points="231.198,-164.987 241.253,-168.324 235.473,-159.445 231.198,-164.987"/>
</g>
<!-- Node7&#45;&gt;Node8 -->
<g id="edge11" class="edge"><title>Node7&#45;&gt;Node8</title>
<path fill="none" stroke="midnightblue" d="M272.09,-162.101C284.868,-152.382 301.113,-140.027 311.885,-131.834"/>
<polygon fill="midnightblue" stroke="midnightblue" points="269.748,-159.484 263.907,-168.324 273.986,-165.056 269.748,-159.484"/>
</g>
</g>
</svg>
