<?xml version="1.0" encoding="UTF-8" standalone="no"?>
<!DOCTYPE svg PUBLIC "-//W3C//DTD SVG 1.1//EN"
 "http://www.w3.org/Graphics/SVG/1.1/DTD/svg11.dtd">
<!-- Generated by graphviz version 2.38.0 (20140413.2041)
 -->
<!-- Title: src/player Pages: 1 -->
<svg width="150pt" height="151pt"
 viewBox="0.00 0.00 150.00 151.00" xmlns="http://www.w3.org/2000/svg" xmlns:xlink="http://www.w3.org/1999/xlink">
<g id="graph0" class="graph" transform="scale(1 1) rotate(0) translate(4 147)">
<title>src/player</title>
<polygon fill="white" stroke="none" points="-4,4 -4,-147 146,-147 146,4 -4,4"/>
<g id="clust1" class="cluster"><title>clusterdir_68267d1309a1af8e8297ef4c3efbcdba</title>
<g id="a_clust1"><a xlink:href="dir_68267d1309a1af8e8297ef4c3efbcdba.html" target="_top" xlink:title="src">
<polygon fill="#ddddee" stroke="black" points="8,-64 8,-135 78,-135 78,-64 8,-64"/>
<text text-anchor="middle" x="43" y="-123" font-family="Helvetica,sans-Serif" font-size="10.00">src</text>
</a>
</g>
</g>
<!-- dir_975424cdae97a07db69e55371758444e -->
<g id="node1" class="node"><title>dir_975424cdae97a07db69e55371758444e</title>
<g id="a_node1"><a xlink:href="dir_975424cdae97a07db69e55371758444e.html" target="_top" xlink:title="player">
<polygon fill="#eeeeff" stroke="black" points="70,-108 16,-108 16,-72 70,-72 70,-108"/>
<text text-anchor="middle" x="43" y="-87.5" font-family="Helvetica,sans-Serif" font-size="10.00">player</text>
</a>
</g>
</g>
<!-- dir_a63dedf81f1e5ea1d42bb45ef831eb8c -->
<g id="node2" class="node"><title>dir_a63dedf81f1e5ea1d42bb45ef831eb8c</title>
<g id="a_node2"><a xlink:href="dir_a63dedf81f1e5ea1d42bb45ef831eb8c.html" target="_top" xlink:title="audio">
<polygon fill="none" stroke="black" points="142,-108 88,-108 88,-72 142,-72 142,-108"/>
<text text-anchor="middle" x="115" y="-87.5" font-family="Helvetica,sans-Serif" font-size="10.00">audio</text>
</a>
</g>
</g>
<!-- dir_975424cdae97a07db69e55371758444e&#45;&gt;dir_a63dedf81f1e5ea1d42bb45ef831eb8c -->
<g id="edge1" class="edge"><title>dir_975424cdae97a07db69e55371758444e&#45;&gt;dir_a63dedf81f1e5ea1d42bb45ef831eb8c</title>
<path fill="none" stroke="black" d="M70.2812,-90C72.7377,-90 75.1942,-90 77.6507,-90"/>
<polygon fill="black" stroke="black" points="77.7495,-93.5001 87.7495,-90 77.7495,-86.5001 77.7495,-93.5001"/>
<g id="a_edge1&#45;headlabel"><a xlink:href="dir_000003_000001.html" target="_top" xlink:title="7">
<text text-anchor="middle" x="74.1549" y="-93.8393" font-family="Helvetica,sans-Serif" font-size="10.00">7</text>
</a>
</g>
</g>
<!-- dir_c184e51c84f2c3f0345bbc8a0d75d3e1 -->
<g id="node3" class="node"><title>dir_c184e51c84f2c3f0345bbc8a0d75d3e1</title>
<g id="a_node3"><a xlink:href="dir_c184e51c84f2c3f0345bbc8a0d75d3e1.html" target="_top" xlink:title="io">
<polygon fill="none" stroke="black" points="106,-36 52,-36 52,-0 106,-0 106,-36"/>
<text text-anchor="middle" x="79" y="-15.5" font-family="Helvetica,sans-Serif" font-size="10.00">io</text>
</a>
</g>
</g>
<!-- dir_975424cdae97a07db69e55371758444e&#45;&gt;dir_c184e51c84f2c3f0345bbc8a0d75d3e1 -->
<g id="edge2" class="edge"><title>dir_975424cdae97a07db69e55371758444e&#45;&gt;dir_c184e51c84f2c3f0345bbc8a0d75d3e1</title>
<path fill="none" stroke="black" d="M45.9832,-71.6966C49.294,-63.6436 54.0975,-53.8945 59.0908,-44.9824"/>
<polygon fill="black" stroke="black" points="62.2591,-46.4991 64.3085,-36.1043 56.2242,-42.9523 62.2591,-46.4991"/>
<g id="a_edge2&#45;headlabel"><a xlink:href="dir_000003_000002.html" target="_top" xlink:title="8">
<text text-anchor="middle" x="62.8857" y="-48.5367" font-family="Helvetica,sans-Serif" font-size="10.00">8</text>
</a>
</g>
</g>
<!-- dir_a63dedf81f1e5ea1d42bb45ef831eb8c&#45;&gt;dir_c184e51c84f2c3f0345bbc8a0d75d3e1 -->
<g id="edge3" class="edge"><title>dir_a63dedf81f1e5ea1d42bb45ef831eb8c&#45;&gt;dir_c184e51c84f2c3f0345bbc8a0d75d3e1</title>
<path fill="none" stroke="black" d="M106.101,-71.6966C102.003,-63.7284 97.0512,-54.0995 92.5073,-45.2641"/>
<polygon fill="black" stroke="black" points="95.4826,-43.3965 87.7965,-36.1043 89.2575,-46.598 95.4826,-43.3965"/>
<g id="a_edge3&#45;headlabel"><a xlink:href="dir_000001_000002.html" target="_top" xlink:title="2">
<text text-anchor="middle" x="99.6514" y="-42.7946" font-family="Helvetica,sans-Serif" font-size="10.00">2</text>
</a>
</g>
</g>
<!-- dir_c184e51c84f2c3f0345bbc8a0d75d3e1&#45;&gt;dir_975424cdae97a07db69e55371758444e -->
<g id="edge4" class="edge"><title>dir_c184e51c84f2c3f0345bbc8a0d75d3e1&#45;&gt;dir_975424cdae97a07db69e55371758444e</title>
<path fill="none" stroke="black" d="M76.0985,-36.1043C72.8124,-44.1291 68.0229,-53.871 63.0328,-62.7967"/>
<polygon fill="black" stroke="black" points="59.8533,-61.2998 57.8146,-71.6966 65.8919,-64.8403 59.8533,-61.2998"/>
<g id="a_edge4&#45;headlabel"><a xlink:href="dir_000002_000003.html" target="_top" xlink:title="2">
<text text-anchor="middle" x="59.222" y="-54.2628" font-family="Helvetica,sans-Serif" font-size="10.00">2</text>
</a>
</g>
</g>
</g>
</svg>
