<?xml version="1.0" encoding="UTF-8" standalone="no"?>
<!DOCTYPE svg PUBLIC "-//W3C//DTD SVG 1.1//EN"
 "http://www.w3.org/Graphics/SVG/1.1/DTD/svg11.dtd">
<!-- Generated by graphviz version 2.38.0 (20140413.2041)
 -->
<!-- Title: src/errors.hpp Pages: 1 -->
<svg width="1846pt" height="588pt"
 viewBox="0.00 0.00 1846.11 588.00" xmlns="http://www.w3.org/2000/svg" xmlns:xlink="http://www.w3.org/1999/xlink">
<g id="graph0" class="graph" transform="scale(1 1) rotate(0) translate(4 584)">
<title>src/errors.hpp</title>
<polygon fill="white" stroke="none" points="-4,4 -4,-584 1842.11,-584 1842.11,4 -4,4"/>
<!-- Node1 -->
<g id="node1" class="node"><title>Node1</title>
<polygon fill="#bfbfbf" stroke="black" points="653.612,-560.5 653.612,-579.5 736.612,-579.5 736.612,-560.5 653.612,-560.5"/>
<text text-anchor="middle" x="695.112" y="-567.5" font-family="Helvetica,sans-Serif" font-size="10.00">src/errors.hpp</text>
</g>
<!-- Node2 -->
<g id="node2" class="node"><title>Node2</title>
<g id="a_node2"><a xlink:href="audio_8cpp.html" target="_top" xlink:title="Implementation of the Audio class. ">
<polygon fill="white" stroke="black" points="219.612,-392.5 219.612,-411.5 326.612,-411.5 326.612,-392.5 219.612,-392.5"/>
<text text-anchor="middle" x="273.112" y="-399.5" font-family="Helvetica,sans-Serif" font-size="10.00">src/audio/audio.cpp</text>
</a>
</g>
</g>
<!-- Node1&#45;&gt;Node2 -->
<g id="edge1" class="edge"><title>Node1&#45;&gt;Node2</title>
<path fill="none" stroke="midnightblue" d="M643.416,-567.658C558.92,-564.592 395.844,-554.759 348.112,-524 337.101,-516.904 292.892,-438.58 278.021,-411.866"/>
<polygon fill="midnightblue" stroke="midnightblue" points="643.45,-571.161 653.565,-568.007 643.691,-564.165 643.45,-571.161"/>
</g>
<!-- Node3 -->
<g id="node3" class="node"><title>Node3</title>
<g id="a_node3"><a xlink:href="audio__source_8hpp.html" target="_top" xlink:title="Declaration of the AudioSource class. ">
<polygon fill="white" stroke="black" points="357.112,-504.5 357.112,-523.5 503.112,-523.5 503.112,-504.5 357.112,-504.5"/>
<text text-anchor="middle" x="430.112" y="-511.5" font-family="Helvetica,sans-Serif" font-size="10.00">src/audio/audio_source.hpp</text>
</a>
</g>
</g>
<!-- Node1&#45;&gt;Node3 -->
<g id="edge2" class="edge"><title>Node1&#45;&gt;Node3</title>
<path fill="none" stroke="midnightblue" d="M643.442,-558.471C593.394,-548.273 518.446,-533 472.003,-523.536"/>
<polygon fill="midnightblue" stroke="midnightblue" points="642.916,-561.936 653.414,-560.503 644.314,-555.077 642.916,-561.936"/>
</g>
<!-- Node5 -->
<g id="node5" class="node"><title>Node5</title>
<g id="a_node5"><a xlink:href="audio__system_8cpp.html" target="_top" xlink:title="Implementation of the AudioSystem class. ">
<polygon fill="white" stroke="black" points="258.112,-336.5 258.112,-355.5 404.112,-355.5 404.112,-336.5 258.112,-336.5"/>
<text text-anchor="middle" x="331.112" y="-343.5" font-family="Helvetica,sans-Serif" font-size="10.00">src/audio/audio_system.cpp</text>
</a>
</g>
</g>
<!-- Node1&#45;&gt;Node5 -->
<g id="edge58" class="edge"><title>Node1&#45;&gt;Node5</title>
<path fill="none" stroke="midnightblue" d="M642.99,-567.268C509.281,-562.502 161.342,-547.928 115.112,-524 57.651,-494.259 44.0841,-472.856 22.1117,-412 19.093,-403.639 16.2968,-398.723 22.1117,-392 29.8029,-383.108 169,-365.599 257.918,-355.238"/>
<polygon fill="midnightblue" stroke="midnightblue" points="643.254,-570.78 653.371,-567.634 643.501,-563.784 643.254,-570.78"/>
</g>
<!-- Node10 -->
<g id="node10" class="node"><title>Node10</title>
<g id="a_node10"><a xlink:href="cmd_8cpp.html" target="_top" xlink:title="Implementation of the CommandHandler class. ">
<polygon fill="white" stroke="black" points="1462.61,-168.5 1462.61,-187.5 1535.61,-187.5 1535.61,-168.5 1462.61,-168.5"/>
<text text-anchor="middle" x="1499.11" y="-175.5" font-family="Helvetica,sans-Serif" font-size="10.00">src/cmd.cpp</text>
</a>
</g>
</g>
<!-- Node1&#45;&gt;Node10 -->
<g id="edge81" class="edge"><title>Node1&#45;&gt;Node10</title>
<path fill="none" stroke="midnightblue" d="M747.094,-568.769C951.664,-567.183 1690.11,-554.822 1690.11,-459 1690.11,-459 1690.11,-459 1690.11,-289 1690.11,-218.591 1591.44,-192.569 1535.94,-183.501"/>
<polygon fill="midnightblue" stroke="midnightblue" points="746.888,-565.27 736.914,-568.842 746.939,-572.27 746.888,-565.27"/>
</g>
<!-- Node11 -->
<g id="node11" class="node"><title>Node11</title>
<g id="a_node11"><a xlink:href="io__reactor_8cpp.html" target="_top" xlink:title="Implementation of the non&#45;virtual aspects of the IoReactor class. ">
<polygon fill="white" stroke="black" points="859.612,-56.5 859.612,-75.5 972.612,-75.5 972.612,-56.5 859.612,-56.5"/>
<text text-anchor="middle" x="916.112" y="-63.5" font-family="Helvetica,sans-Serif" font-size="10.00">src/io/io_reactor.cpp</text>
</a>
</g>
</g>
<!-- Node1&#45;&gt;Node11 -->
<g id="edge83" class="edge"><title>Node1&#45;&gt;Node11</title>
<path fill="none" stroke="midnightblue" d="M747.104,-569.207C914.151,-569.437 1435.72,-566.631 1598.11,-524 1660.59,-507.598 1728.11,-523.598 1728.11,-459 1728.11,-459 1728.11,-459 1728.11,-177 1728.11,-100.669 1157.37,-75.0098 972.887,-68.7096"/>
<polygon fill="midnightblue" stroke="midnightblue" points="746.628,-565.707 736.621,-569.188 746.615,-572.707 746.628,-565.707"/>
</g>
<!-- Node17 -->
<g id="node17" class="node"><title>Node17</title>
<g id="a_node17"><a xlink:href="player_8cpp.html" target="_top" xlink:title="Main implementation file for the Player class. ">
<polygon fill="white" stroke="black" points="839.612,-224.5 839.612,-243.5 954.612,-243.5 954.612,-224.5 839.612,-224.5"/>
<text text-anchor="middle" x="897.112" y="-231.5" font-family="Helvetica,sans-Serif" font-size="10.00">src/player/player.cpp</text>
</a>
</g>
</g>
<!-- Node1&#45;&gt;Node17 -->
<g id="edge85" class="edge"><title>Node1&#45;&gt;Node17</title>
<path fill="none" stroke="midnightblue" d="M721.057,-555.493C764.195,-531.839 850.97,-478.998 902.112,-412 939.72,-362.731 972.328,-336.621 947.112,-280 939.985,-263.998 924.044,-251.298 912.064,-243.526"/>
<polygon fill="midnightblue" stroke="midnightblue" points="719.191,-552.523 712.053,-560.353 722.515,-558.683 719.191,-552.523"/>
</g>
<!-- Node22 -->
<g id="node22" class="node"><title>Node22</title>
<g id="a_node22"><a xlink:href="audio__sink_8cpp.html" target="_top" xlink:title="Implementation of the AudioSink class. ">
<polygon fill="white" stroke="black" points="31.1117,-392.5 31.1117,-411.5 163.112,-411.5 163.112,-392.5 31.1117,-392.5"/>
<text text-anchor="middle" x="97.1117" y="-399.5" font-family="Helvetica,sans-Serif" font-size="10.00">src/audio/audio_sink.cpp</text>
</a>
</g>
</g>
<!-- Node1&#45;&gt;Node22 -->
<g id="edge56" class="edge"><title>Node1&#45;&gt;Node22</title>
<path fill="none" stroke="midnightblue" d="M643.268,-569.567C524.061,-570.105 234.117,-566.827 148.112,-524 118.244,-509.127 110.243,-499.082 98.1117,-468 90.7254,-449.075 93.2317,-424.629 95.3708,-411.781"/>
<polygon fill="midnightblue" stroke="midnightblue" points="643.605,-573.065 653.585,-569.509 643.565,-566.065 643.605,-573.065"/>
</g>
<!-- Node23 -->
<g id="node23" class="node"><title>Node23</title>
<g id="a_node23"><a xlink:href="audio__source_8cpp.html" target="_top" xlink:title="Implementation of the AudioSource class. ">
<polygon fill="white" stroke="black" points="622.612,-448.5 622.612,-467.5 767.612,-467.5 767.612,-448.5 622.612,-448.5"/>
<text text-anchor="middle" x="695.112" y="-455.5" font-family="Helvetica,sans-Serif" font-size="10.00">src/audio/audio_source.cpp</text>
</a>
</g>
</g>
<!-- Node1&#45;&gt;Node23 -->
<g id="edge57" class="edge"><title>Node1&#45;&gt;Node23</title>
<path fill="none" stroke="midnightblue" d="M695.112,-550.348C695.112,-526.254 695.112,-485.308 695.112,-467.591"/>
<polygon fill="midnightblue" stroke="midnightblue" points="691.612,-550.368 695.112,-560.368 698.612,-550.369 691.612,-550.368"/>
</g>
<!-- Node25 -->
<g id="node25" class="node"><title>Node25</title>
<g id="a_node25"><a xlink:href="ringbuffer_8hpp.html" target="_top" xlink:title="The RingBuffer class template. ">
<polygon fill="white" stroke="black" points="157.612,-504.5 157.612,-523.5 284.612,-523.5 284.612,-504.5 157.612,-504.5"/>
<text text-anchor="middle" x="221.112" y="-511.5" font-family="Helvetica,sans-Serif" font-size="10.00">src/audio/ringbuffer.hpp</text>
</a>
</g>
</g>
<!-- Node1&#45;&gt;Node25 -->
<g id="edge53" class="edge"><title>Node1&#45;&gt;Node25</title>
<path fill="none" stroke="midnightblue" d="M643.523,-563.123C556.214,-553.176 379.591,-533.055 284.745,-522.249"/>
<polygon fill="midnightblue" stroke="midnightblue" points="643.131,-566.601 653.463,-564.255 643.923,-559.646 643.131,-566.601"/>
</g>
<!-- Node26 -->
<g id="node26" class="node"><title>Node26</title>
<g id="a_node26"><a xlink:href="io__response_8hpp.html" target="_top" xlink:title="Declaration of classes pertaining to responses to the client. ">
<polygon fill="white" stroke="black" points="1201.11,-448.5 1201.11,-467.5 1325.11,-467.5 1325.11,-448.5 1201.11,-448.5"/>
<text text-anchor="middle" x="1263.11" y="-455.5" font-family="Helvetica,sans-Serif" font-size="10.00">src/io/io_response.hpp</text>
</a>
</g>
</g>
<!-- Node1&#45;&gt;Node26 -->
<g id="edge59" class="edge"><title>Node1&#45;&gt;Node26</title>
<path fill="none" stroke="midnightblue" d="M746.723,-559.481C795.345,-550.477 870.213,-536.514 935.112,-524 1037.86,-504.188 1158.53,-480.051 1220.94,-467.501"/>
<polygon fill="midnightblue" stroke="midnightblue" points="745.955,-556.064 736.759,-561.325 747.229,-562.947 745.955,-556.064"/>
</g>
<!-- Node28 -->
<g id="node28" class="node"><title>Node28</title>
<g id="a_node28"><a xlink:href="io__response_8cpp.html" target="_top" xlink:title="Implementation of client response classes. ">
<polygon fill="white" stroke="black" points="1538.61,-392.5 1538.61,-411.5 1661.61,-411.5 1661.61,-392.5 1538.61,-392.5"/>
<text text-anchor="middle" x="1600.11" y="-399.5" font-family="Helvetica,sans-Serif" font-size="10.00">src/io/io_response.cpp</text>
</a>
</g>
</g>
<!-- Node1&#45;&gt;Node28 -->
<g id="edge84" class="edge"><title>Node1&#45;&gt;Node28</title>
<path fill="none" stroke="midnightblue" d="M746.923,-562.453C856.079,-548.299 1117.49,-512.509 1334.11,-468 1419.33,-450.491 1518.64,-424.799 1568.35,-411.571"/>
<polygon fill="midnightblue" stroke="midnightblue" points="746.311,-559.003 736.841,-563.755 747.207,-565.945 746.311,-559.003"/>
</g>
<!-- Node29 -->
<g id="node29" class="node"><title>Node29</title>
<g id="a_node29"><a xlink:href="time__parser_8hpp.html" target="_top" xlink:title="The TimeParser template class. ">
<polygon fill="white" stroke="black" points="130.112,-336.5 130.112,-355.5 240.112,-355.5 240.112,-336.5 130.112,-336.5"/>
<text text-anchor="middle" x="185.112" y="-343.5" font-family="Helvetica,sans-Serif" font-size="10.00">src/time_parser.hpp</text>
</a>
</g>
</g>
<!-- Node1&#45;&gt;Node29 -->
<g id="edge78" class="edge"><title>Node1&#45;&gt;Node29</title>
<path fill="none" stroke="midnightblue" d="M643.155,-567.542C503.74,-563.304 128.581,-549.63 79.1117,-524 21.2214,-494.007 -24.657,-443.665 15.1117,-392 29.1716,-373.734 85.7908,-361.36 129.871,-354.282"/>
<polygon fill="midnightblue" stroke="midnightblue" points="643.461,-571.053 653.561,-567.855 643.671,-564.056 643.461,-571.053"/>
</g>
<!-- Node30 -->
<g id="node30" class="node"><title>Node30</title>
<g id="a_node30"><a xlink:href="errors_8cpp.html" target="_top" xlink:title="Implementation of the playd Error exception set. ">
<polygon fill="white" stroke="black" points="1756.11,-504.5 1756.11,-523.5 1838.11,-523.5 1838.11,-504.5 1756.11,-504.5"/>
<text text-anchor="middle" x="1797.11" y="-511.5" font-family="Helvetica,sans-Serif" font-size="10.00">src/errors.cpp</text>
</a>
</g>
</g>
<!-- Node1&#45;&gt;Node30 -->
<g id="edge82" class="edge"><title>Node1&#45;&gt;Node30</title>
<path fill="none" stroke="midnightblue" d="M746.658,-568.956C899.163,-568.361 1361.3,-563.2 1742.11,-524 1746.64,-523.534 1751.35,-522.936 1756.04,-522.27"/>
<polygon fill="midnightblue" stroke="midnightblue" points="746.629,-565.456 736.641,-568.991 746.652,-572.456 746.629,-565.456"/>
</g>
<!-- Node3&#45;&gt;Node2 -->
<g id="edge43" class="edge"><title>Node3&#45;&gt;Node2</title>
<path fill="none" stroke="midnightblue" d="M409.298,-498.417C376.091,-475.151 312.148,-430.35 285.374,-411.591"/>
<polygon fill="midnightblue" stroke="midnightblue" points="407.594,-501.497 417.792,-504.368 411.611,-495.764 407.594,-501.497"/>
</g>
<!-- Node4 -->
<g id="node4" class="node"><title>Node4</title>
<g id="a_node4"><a xlink:href="audio_8hpp.html" target="_top" xlink:title="Declaration of the Audio class. ">
<polygon fill="white" stroke="black" points="458.112,-448.5 458.112,-467.5 566.112,-467.5 566.112,-448.5 458.112,-448.5"/>
<text text-anchor="middle" x="512.112" y="-455.5" font-family="Helvetica,sans-Serif" font-size="10.00">src/audio/audio.hpp</text>
</a>
</g>
</g>
<!-- Node3&#45;&gt;Node4 -->
<g id="edge3" class="edge"><title>Node3&#45;&gt;Node4</title>
<path fill="none" stroke="midnightblue" d="M451.945,-498.622C466.925,-488.757 486.309,-475.992 498.97,-467.655"/>
<polygon fill="midnightblue" stroke="midnightblue" points="449.713,-495.901 443.286,-504.324 453.563,-501.747 449.713,-495.901"/>
</g>
<!-- Node3&#45;&gt;Node5 -->
<g id="edge46" class="edge"><title>Node3&#45;&gt;Node5</title>
<path fill="none" stroke="midnightblue" d="M419.563,-495.312C398.456,-459.921 351.725,-381.565 336.222,-355.568"/>
<polygon fill="midnightblue" stroke="midnightblue" points="416.661,-497.279 424.789,-504.075 422.673,-493.694 416.661,-497.279"/>
</g>
<!-- Node6 -->
<g id="node6" class="node"><title>Node6</title>
<g id="a_node6"><a xlink:href="audio__system_8hpp.html" target="_top" xlink:title="Declaration of the AudioSystem class. ">
<polygon fill="white" stroke="black" points="421.612,-392.5 421.612,-411.5 568.612,-411.5 568.612,-392.5 421.612,-392.5"/>
<text text-anchor="middle" x="495.112" y="-399.5" font-family="Helvetica,sans-Serif" font-size="10.00">src/audio/audio_system.hpp</text>
</a>
</g>
</g>
<!-- Node3&#45;&gt;Node6 -->
<g id="edge47" class="edge"><title>Node3&#45;&gt;Node6</title>
<path fill="none" stroke="midnightblue" d="M432.939,-494.381C435.603,-480.798 440.511,-462.335 449.112,-448 457.963,-433.247 472.811,-419.959 483.239,-411.712"/>
<polygon fill="midnightblue" stroke="midnightblue" points="429.454,-493.995 431.197,-504.446 436.351,-495.189 429.454,-493.995"/>
</g>
<!-- Node21 -->
<g id="node21" class="node"><title>Node21</title>
<g id="a_node21"><a xlink:href="audio__sink_8hpp.html" target="_top" xlink:title="Declaration of the AudioSink class. ">
<polygon fill="white" stroke="black" points="154.612,-448.5 154.612,-467.5 287.612,-467.5 287.612,-448.5 154.612,-448.5"/>
<text text-anchor="middle" x="221.112" y="-455.5" font-family="Helvetica,sans-Serif" font-size="10.00">src/audio/audio_sink.hpp</text>
</a>
</g>
</g>
<!-- Node3&#45;&gt;Node21 -->
<g id="edge38" class="edge"><title>Node3&#45;&gt;Node21</title>
<path fill="none" stroke="midnightblue" d="M387.128,-501.894C347.659,-491.697 290.012,-476.802 254.073,-467.516"/>
<polygon fill="midnightblue" stroke="midnightblue" points="386.437,-505.331 396.995,-504.444 388.189,-498.553 386.437,-505.331"/>
</g>
<!-- Node3&#45;&gt;Node22 -->
<g id="edge44" class="edge"><title>Node3&#45;&gt;Node22</title>
<path fill="none" stroke="midnightblue" d="M346.701,-506.847C275.029,-500.3 178.168,-488.07 145.112,-468 122.808,-454.458 107.576,-426.281 100.913,-411.885"/>
<polygon fill="midnightblue" stroke="midnightblue" points="346.811,-510.37 357.082,-507.771 347.432,-503.398 346.811,-510.37"/>
</g>
<!-- Node3&#45;&gt;Node23 -->
<g id="edge45" class="edge"><title>Node3&#45;&gt;Node23</title>
<path fill="none" stroke="midnightblue" d="M482.083,-502.41C532.165,-492.204 606.976,-476.96 653.318,-467.516"/>
<polygon fill="midnightblue" stroke="midnightblue" points="481.201,-499.017 472.102,-504.444 482.599,-505.876 481.201,-499.017"/>
</g>
<!-- Node24 -->
<g id="node24" class="node"><title>Node24</title>
<g id="a_node24"><a xlink:href="player__position_8hpp.html" target="_top" xlink:title="Declaration of the PlayerPosition class. ">
<polygon fill="white" stroke="black" points="735.112,-392.5 735.112,-411.5 893.112,-411.5 893.112,-392.5 735.112,-392.5"/>
<text text-anchor="middle" x="814.112" y="-399.5" font-family="Helvetica,sans-Serif" font-size="10.00">src/player/player_position.hpp</text>
</a>
</g>
</g>
<!-- Node3&#45;&gt;Node24 -->
<g id="edge48" class="edge"><title>Node3&#45;&gt;Node24</title>
<path fill="none" stroke="midnightblue" d="M473.726,-501.723C502.903,-493.633 541.892,-481.76 575.112,-468 592.744,-460.696 595.199,-454.587 613.112,-448 660.435,-430.599 716.604,-418.715 757.519,-411.55"/>
<polygon fill="midnightblue" stroke="midnightblue" points="472.564,-498.412 463.84,-504.424 474.409,-505.165 472.564,-498.412"/>
</g>
<!-- Node4&#45;&gt;Node2 -->
<g id="edge4" class="edge"><title>Node4&#45;&gt;Node2</title>
<path fill="none" stroke="midnightblue" d="M464.388,-446.217C419.227,-436.013 352.338,-420.901 310.805,-411.516"/>
<polygon fill="midnightblue" stroke="midnightblue" points="463.716,-449.654 474.241,-448.444 465.259,-442.826 463.716,-449.654"/>
</g>
<!-- Node4&#45;&gt;Node5 -->
<g id="edge5" class="edge"><title>Node4&#45;&gt;Node5</title>
<path fill="none" stroke="midnightblue" d="M479.303,-444.698C459.256,-436.589 433.458,-425.074 412.112,-412 384.128,-394.86 354.994,-369.238 340.488,-355.857"/>
<polygon fill="midnightblue" stroke="midnightblue" points="478.051,-447.966 488.637,-448.396 480.629,-441.459 478.051,-447.966"/>
</g>
<!-- Node4&#45;&gt;Node6 -->
<g id="edge6" class="edge"><title>Node4&#45;&gt;Node6</title>
<path fill="none" stroke="midnightblue" d="M506.255,-438.396C503.411,-429.362 500.129,-418.936 497.867,-411.751"/>
<polygon fill="midnightblue" stroke="midnightblue" points="502.963,-439.596 509.304,-448.083 509.64,-437.493 502.963,-439.596"/>
</g>
<!-- Node8 -->
<g id="node8" class="node"><title>Node8</title>
<g id="a_node8"><a xlink:href="player_8hpp.html" target="_top" xlink:title="Declaration of the Player class, and associated types. ">
<polygon fill="white" stroke="black" points="632.112,-280.5 632.112,-299.5 748.112,-299.5 748.112,-280.5 632.112,-280.5"/>
<text text-anchor="middle" x="690.112" y="-287.5" font-family="Helvetica,sans-Serif" font-size="10.00">src/player/player.hpp</text>
</a>
</g>
</g>
<!-- Node4&#45;&gt;Node8 -->
<g id="edge36" class="edge"><title>Node4&#45;&gt;Node8</title>
<path fill="none" stroke="midnightblue" d="M538.959,-443.25C551.902,-435.518 566.812,-424.834 577.112,-412 599.944,-383.549 583.836,-363.23 608.112,-336 623.456,-318.788 647.008,-306.825 664.94,-299.583"/>
<polygon fill="midnightblue" stroke="midnightblue" points="536.947,-440.367 529.977,-448.346 540.402,-446.455 536.947,-440.367"/>
</g>
<!-- Node4&#45;&gt;Node17 -->
<g id="edge37" class="edge"><title>Node4&#45;&gt;Node17</title>
<path fill="none" stroke="midnightblue" d="M545.864,-444.386C562.703,-436.87 582.532,-426.037 597.112,-412 625.228,-384.929 610.603,-360.343 641.112,-336 683.307,-302.332 707.239,-320.658 757.112,-300 774.744,-292.696 777.926,-288.301 795.112,-280 822.997,-266.53 855.869,-252.32 876.602,-243.556"/>
<polygon fill="midnightblue" stroke="midnightblue" points="544.191,-441.294 536.358,-448.427 546.93,-447.736 544.191,-441.294"/>
</g>
<!-- Node6&#45;&gt;Node5 -->
<g id="edge7" class="edge"><title>Node6&#45;&gt;Node5</title>
<path fill="none" stroke="midnightblue" d="M459.592,-389.304C428.69,-379.129 384.638,-364.625 356.976,-355.516"/>
<polygon fill="midnightblue" stroke="midnightblue" points="458.532,-392.64 469.125,-392.444 460.722,-385.992 458.532,-392.64"/>
</g>
<!-- Node7 -->
<g id="node7" class="node"><title>Node7</title>
<g id="a_node7"><a xlink:href="player__file_8hpp.html" target="_top" xlink:title="Declaration of the PlayerFile class, and associated types. ">
<polygon fill="white" stroke="black" points="650.612,-336.5 650.612,-355.5 785.612,-355.5 785.612,-336.5 650.612,-336.5"/>
<text text-anchor="middle" x="718.112" y="-343.5" font-family="Helvetica,sans-Serif" font-size="10.00">src/player/player_file.hpp</text>
</a>
</g>
</g>
<!-- Node6&#45;&gt;Node7 -->
<g id="edge8" class="edge"><title>Node6&#45;&gt;Node7</title>
<path fill="none" stroke="midnightblue" d="M540.173,-390.088C582.302,-379.887 644.352,-364.861 682.942,-355.516"/>
<polygon fill="midnightblue" stroke="midnightblue" points="539.342,-386.688 530.447,-392.444 540.99,-393.492 539.342,-386.688"/>
</g>
<!-- Node14 -->
<g id="node14" class="node"><title>Node14</title>
<g id="a_node14"><a xlink:href="main_8cpp.html" target="_top" xlink:title="Main entry point and implementation of the playd class. ">
<polygon fill="white" stroke="black" points="606.112,-0.5 606.112,-19.5 682.112,-19.5 682.112,-0.5 606.112,-0.5"/>
<text text-anchor="middle" x="644.112" y="-7.5" font-family="Helvetica,sans-Serif" font-size="10.00">src/main.cpp</text>
</a>
</g>
</g>
<!-- Node6&#45;&gt;Node14 -->
<g id="edge32" class="edge"><title>Node6&#45;&gt;Node14</title>
<path fill="none" stroke="midnightblue" d="M485.395,-383.496C465.953,-346.779 424.112,-258.523 424.112,-179 424.112,-179 424.112,-179 424.112,-121 424.112,-40.7189 542.759,-19.027 605.791,-13.1675"/>
<polygon fill="midnightblue" stroke="midnightblue" points="482.395,-385.306 490.232,-392.436 488.551,-381.975 482.395,-385.306"/>
</g>
<!-- Node15 -->
<g id="node15" class="node"><title>Node15</title>
<g id="a_node15"><a xlink:href="main_8hpp.html" target="_top" xlink:title="Declaration of the playd class. ">
<polygon fill="white" stroke="black" points="560.612,-56.5 560.612,-75.5 637.612,-75.5 637.612,-56.5 560.612,-56.5"/>
<text text-anchor="middle" x="599.112" y="-63.5" font-family="Helvetica,sans-Serif" font-size="10.00">src/main.hpp</text>
</a>
</g>
</g>
<!-- Node6&#45;&gt;Node15 -->
<g id="edge33" class="edge"><title>Node6&#45;&gt;Node15</title>
<path fill="none" stroke="midnightblue" d="M499.741,-382.622C511.515,-336.54 544.223,-212.564 580.112,-112 584.729,-99.0611 591.111,-84.4777 595.175,-75.5125"/>
<polygon fill="midnightblue" stroke="midnightblue" points="496.333,-381.822 497.265,-392.375 503.118,-383.544 496.333,-381.822"/>
</g>
<!-- Node6&#45;&gt;Node17 -->
<g id="edge34" class="edge"><title>Node6&#45;&gt;Node17</title>
<path fill="none" stroke="midnightblue" d="M507.165,-384.461C527.681,-357.672 572.153,-305.25 623.112,-280 632.763,-275.218 762.523,-255.174 839.956,-243.513"/>
<polygon fill="midnightblue" stroke="midnightblue" points="504.347,-382.385 501.151,-392.487 509.948,-386.583 504.347,-382.385"/>
</g>
<!-- Node20 -->
<g id="node20" class="node"><title>Node20</title>
<g id="a_node20"><a xlink:href="player__file_8cpp.html" target="_top" xlink:title="Implementation of the PlayerFile class, and associated types. ">
<polygon fill="white" stroke="black" points="804.112,-280.5 804.112,-299.5 938.112,-299.5 938.112,-280.5 804.112,-280.5"/>
<text text-anchor="middle" x="871.112" y="-287.5" font-family="Helvetica,sans-Serif" font-size="10.00">src/player/player_file.cpp</text>
</a>
</g>
</g>
<!-- Node6&#45;&gt;Node20 -->
<g id="edge35" class="edge"><title>Node6&#45;&gt;Node20</title>
<path fill="none" stroke="midnightblue" d="M520.166,-387.748C548.72,-373.146 597.138,-349.894 641.112,-336 696.01,-318.654 760.488,-306.736 807.184,-299.544"/>
<polygon fill="midnightblue" stroke="midnightblue" points="518.555,-384.641 511.279,-392.343 521.769,-390.859 518.555,-384.641"/>
</g>
<!-- Node7&#45;&gt;Node8 -->
<g id="edge9" class="edge"><title>Node7&#45;&gt;Node8</title>
<path fill="none" stroke="midnightblue" d="M708.769,-326.983C704.017,-317.817 698.456,-307.092 694.649,-299.751"/>
<polygon fill="midnightblue" stroke="midnightblue" points="705.778,-328.817 713.488,-336.083 711.992,-325.594 705.778,-328.817"/>
</g>
<!-- Node7&#45;&gt;Node20 -->
<g id="edge31" class="edge"><title>Node7&#45;&gt;Node20</title>
<path fill="none" stroke="midnightblue" d="M752.001,-333.039C780.789,-322.879 821.399,-308.546 846.982,-299.516"/>
<polygon fill="midnightblue" stroke="midnightblue" points="750.62,-329.815 742.355,-336.444 752.95,-336.416 750.62,-329.815"/>
</g>
<!-- Node9 -->
<g id="node9" class="node"><title>Node9</title>
<g id="a_node9"><a xlink:href="cmd_8hpp.html" target="_top" xlink:title="Declaration of the CommandHandler class. ">
<polygon fill="white" stroke="black" points="747.112,-224.5 747.112,-243.5 821.112,-243.5 821.112,-224.5 747.112,-224.5"/>
<text text-anchor="middle" x="784.112" y="-231.5" font-family="Helvetica,sans-Serif" font-size="10.00">src/cmd.hpp</text>
</a>
</g>
</g>
<!-- Node8&#45;&gt;Node9 -->
<g id="edge10" class="edge"><title>Node8&#45;&gt;Node9</title>
<path fill="none" stroke="midnightblue" d="M714.173,-275.177C731.471,-265.241 754.259,-252.149 769.046,-243.655"/>
<polygon fill="midnightblue" stroke="midnightblue" points="712.142,-272.308 705.214,-280.324 715.629,-278.378 712.142,-272.308"/>
</g>
<!-- Node8&#45;&gt;Node11 -->
<g id="edge24" class="edge"><title>Node8&#45;&gt;Node11</title>
<path fill="none" stroke="midnightblue" d="M690.558,-269.971C692.471,-233.806 701.915,-154.935 747.112,-112 777.05,-83.56 822.875,-72.6373 859.258,-68.6463"/>
<polygon fill="midnightblue" stroke="midnightblue" points="687.055,-269.985 690.166,-280.113 694.05,-270.256 687.055,-269.985"/>
</g>
<!-- Node13 -->
<g id="node13" class="node"><title>Node13</title>
<g id="a_node13"><a xlink:href="io__reactor_8hpp.html" target="_top" xlink:title="Declaration of the IoReactor class. ">
<polygon fill="white" stroke="black" points="756.612,-112.5 756.612,-131.5 869.612,-131.5 869.612,-112.5 756.612,-112.5"/>
<text text-anchor="middle" x="813.112" y="-119.5" font-family="Helvetica,sans-Serif" font-size="10.00">src/io/io_reactor.hpp</text>
</a>
</g>
</g>
<!-- Node8&#45;&gt;Node13 -->
<g id="edge25" class="edge"><title>Node8&#45;&gt;Node13</title>
<path fill="none" stroke="midnightblue" d="M702.606,-272.054C712.286,-258.932 726.038,-240.305 738.112,-224 763.457,-189.774 793.706,-149.087 806.683,-131.641"/>
<polygon fill="midnightblue" stroke="midnightblue" points="699.745,-270.038 696.626,-280.163 705.378,-274.193 699.745,-270.038"/>
</g>
<!-- Node8&#45;&gt;Node14 -->
<g id="edge27" class="edge"><title>Node8&#45;&gt;Node14</title>
<path fill="none" stroke="midnightblue" d="M621.86,-284.379C554.688,-275.683 462.112,-250.693 462.112,-179 462.112,-179 462.112,-179 462.112,-121 462.112,-54.3594 552.59,-27.0076 605.958,-16.6706"/>
<polygon fill="midnightblue" stroke="midnightblue" points="621.642,-287.878 631.988,-285.594 622.476,-280.928 621.642,-287.878"/>
</g>
<!-- Node8&#45;&gt;Node15 -->
<g id="edge26" class="edge"><title>Node8&#45;&gt;Node15</title>
<path fill="none" stroke="midnightblue" d="M643.38,-276.822C626.786,-270.01 609.829,-259.625 600.112,-244 565.543,-188.419 587.807,-102.795 596.261,-75.5993"/>
<polygon fill="midnightblue" stroke="midnightblue" points="642.458,-280.214 653.05,-280.433 644.906,-273.656 642.458,-280.214"/>
</g>
<!-- Node8&#45;&gt;Node17 -->
<g id="edge28" class="edge"><title>Node8&#45;&gt;Node17</title>
<path fill="none" stroke="midnightblue" d="M732.934,-277.829C772.017,-267.633 828.946,-252.782 864.465,-243.516"/>
<polygon fill="midnightblue" stroke="midnightblue" points="731.704,-274.533 722.911,-280.444 733.471,-281.306 731.704,-274.533"/>
</g>
<!-- Node18 -->
<g id="node18" class="node"><title>Node18</title>
<g id="a_node18"><a xlink:href="player__position_8cpp.html" target="_top" xlink:title="Implementation of the PlayerPosition class, and related Player methods. ">
<polygon fill="white" stroke="black" points="972.112,-224.5 972.112,-243.5 1130.11,-243.5 1130.11,-224.5 972.112,-224.5"/>
<text text-anchor="middle" x="1051.11" y="-231.5" font-family="Helvetica,sans-Serif" font-size="10.00">src/player/player_position.cpp</text>
</a>
</g>
</g>
<!-- Node8&#45;&gt;Node18 -->
<g id="edge29" class="edge"><title>Node8&#45;&gt;Node18</title>
<path fill="none" stroke="midnightblue" d="M757.521,-278.917C825.721,-268.715 929.993,-253.117 994.178,-243.516"/>
<polygon fill="midnightblue" stroke="midnightblue" points="756.685,-275.503 747.313,-280.444 757.721,-282.426 756.685,-275.503"/>
</g>
<!-- Node19 -->
<g id="node19" class="node"><title>Node19</title>
<g id="a_node19"><a xlink:href="player__state_8cpp.html" target="_top" xlink:title="Implementation of the PlayerState class, and related Player methods. ">
<polygon fill="white" stroke="black" points="1148.11,-224.5 1148.11,-243.5 1292.11,-243.5 1292.11,-224.5 1148.11,-224.5"/>
<text text-anchor="middle" x="1220.11" y="-231.5" font-family="Helvetica,sans-Serif" font-size="10.00">src/player/player_state.cpp</text>
</a>
</g>
</g>
<!-- Node8&#45;&gt;Node19 -->
<g id="edge30" class="edge"><title>Node8&#45;&gt;Node19</title>
<path fill="none" stroke="midnightblue" d="M758.376,-282.389C846.402,-273.811 1004.22,-258.253 1139.11,-244 1141.93,-243.703 1144.79,-243.397 1147.69,-243.086"/>
<polygon fill="midnightblue" stroke="midnightblue" points="757.868,-278.922 748.254,-283.375 758.546,-285.889 757.868,-278.922"/>
</g>
<!-- Node9&#45;&gt;Node10 -->
<g id="edge11" class="edge"><title>Node9&#45;&gt;Node10</title>
<path fill="none" stroke="midnightblue" d="M831.427,-223.997C1077.83,-192.33 1362.47,-182.493 1462.33,-179.847"/>
<polygon fill="midnightblue" stroke="midnightblue" points="830.668,-220.566 821.203,-225.326 831.571,-227.508 830.668,-220.566"/>
</g>
<!-- Node9&#45;&gt;Node11 -->
<g id="edge12" class="edge"><title>Node9&#45;&gt;Node11</title>
<path fill="none" stroke="midnightblue" d="M806.183,-218.651C831.456,-201.119 872.412,-169.159 896.112,-132 907.667,-113.883 912.901,-88.6729 914.961,-75.6123"/>
<polygon fill="midnightblue" stroke="midnightblue" points="803.956,-215.932 797.643,-224.44 807.884,-221.726 803.956,-215.932"/>
</g>
<!-- Node12 -->
<g id="node12" class="node"><title>Node12</title>
<g id="a_node12"><a xlink:href="tokeniser_8hpp.html" target="_top" xlink:title="Declaration of the Tokeniser class. ">
<polygon fill="white" stroke="black" points="982.612,-168.5 982.612,-187.5 1091.61,-187.5 1091.61,-168.5 982.612,-168.5"/>
<text text-anchor="middle" x="1037.11" y="-175.5" font-family="Helvetica,sans-Serif" font-size="10.00">src/io/tokeniser.hpp</text>
</a>
</g>
</g>
<!-- Node9&#45;&gt;Node12 -->
<g id="edge13" class="edge"><title>Node9&#45;&gt;Node12</title>
<path fill="none" stroke="midnightblue" d="M831.248,-222.939C878.977,-212.752 951.995,-197.167 997.026,-187.556"/>
<polygon fill="midnightblue" stroke="midnightblue" points="830.22,-219.58 821.171,-225.09 831.681,-226.426 830.22,-219.58"/>
</g>
<!-- Node9&#45;&gt;Node14 -->
<g id="edge22" class="edge"><title>Node9&#45;&gt;Node14</title>
<path fill="none" stroke="midnightblue" d="M773.216,-215.722C745.08,-171.107 670.726,-53.203 649.714,-19.8837"/>
<polygon fill="midnightblue" stroke="midnightblue" points="770.329,-217.706 778.623,-224.297 776.25,-213.972 770.329,-217.706"/>
</g>
<!-- Node9&#45;&gt;Node15 -->
<g id="edge23" class="edge"><title>Node9&#45;&gt;Node15</title>
<path fill="none" stroke="midnightblue" d="M739.929,-221.369C718.943,-214.246 694.495,-203.466 676.112,-188 637.052,-155.139 611.173,-97.3154 602.411,-75.5808"/>
<polygon fill="midnightblue" stroke="midnightblue" points="739.01,-224.75 749.601,-224.482 741.155,-218.087 739.01,-224.75"/>
</g>
<!-- Node16 -->
<g id="node16" class="node"><title>Node16</title>
<g id="a_node16"><a xlink:href="tokeniser_8cpp.html" target="_top" xlink:title="Definition of the Tokeniser class. ">
<polygon fill="white" stroke="black" points="983.112,-112.5 983.112,-131.5 1091.11,-131.5 1091.11,-112.5 983.112,-112.5"/>
<text text-anchor="middle" x="1037.11" y="-119.5" font-family="Helvetica,sans-Serif" font-size="10.00">src/io/tokeniser.cpp</text>
</a>
</g>
</g>
<!-- Node9&#45;&gt;Node16 -->
<g id="edge21" class="edge"><title>Node9&#45;&gt;Node16</title>
<path fill="none" stroke="midnightblue" d="M830.365,-221.884C859.622,-214.094 897.867,-202.494 930.112,-188 966.589,-171.603 1005.91,-145.198 1025.14,-131.642"/>
<polygon fill="midnightblue" stroke="midnightblue" points="829.209,-218.569 820.416,-224.479 830.976,-225.342 829.209,-218.569"/>
</g>
<!-- Node12&#45;&gt;Node13 -->
<g id="edge14" class="edge"><title>Node12&#45;&gt;Node13</title>
<path fill="none" stroke="midnightblue" d="M991.849,-166.088C949.53,-155.887 887.202,-140.861 848.439,-131.516"/>
<polygon fill="midnightblue" stroke="midnightblue" points="991.076,-169.502 1001.62,-168.444 992.717,-162.697 991.076,-169.502"/>
</g>
<!-- Node12&#45;&gt;Node16 -->
<g id="edge20" class="edge"><title>Node12&#45;&gt;Node16</title>
<path fill="none" stroke="midnightblue" d="M1037.11,-157.805C1037.11,-148.91 1037.11,-138.78 1037.11,-131.751"/>
<polygon fill="midnightblue" stroke="midnightblue" points="1033.61,-158.083 1037.11,-168.083 1040.61,-158.083 1033.61,-158.083"/>
</g>
<!-- Node13&#45;&gt;Node11 -->
<g id="edge15" class="edge"><title>Node13&#45;&gt;Node11</title>
<path fill="none" stroke="midnightblue" d="M838.691,-107.59C857.735,-97.6052 883.176,-84.2672 899.604,-75.6545"/>
<polygon fill="midnightblue" stroke="midnightblue" points="836.892,-104.581 829.66,-112.324 840.142,-110.78 836.892,-104.581"/>
</g>
<!-- Node13&#45;&gt;Node13 -->
<g id="edge16" class="edge"><title>Node13&#45;&gt;Node13</title>
<path fill="none" stroke="midnightblue" d="M854.894,-132.393C872.565,-133.17 887.612,-129.706 887.612,-122 887.612,-112.867 866.476,-109.692 844.886,-112.475"/>
<polygon fill="midnightblue" stroke="midnightblue" points="855.151,-128.902 844.886,-131.525 854.546,-135.876 855.151,-128.902"/>
</g>
<!-- Node13&#45;&gt;Node14 -->
<g id="edge17" class="edge"><title>Node13&#45;&gt;Node14</title>
<path fill="none" stroke="midnightblue" d="M791.163,-106.714C755.551,-83.5347 686.255,-38.4303 657.311,-19.5914"/>
<polygon fill="midnightblue" stroke="midnightblue" points="789.56,-109.847 799.851,-112.368 793.379,-103.98 789.56,-109.847"/>
</g>
<!-- Node13&#45;&gt;Node15 -->
<g id="edge18" class="edge"><title>Node13&#45;&gt;Node15</title>
<path fill="none" stroke="midnightblue" d="M769.356,-109.959C728.938,-99.7598 669.739,-84.8217 632.862,-75.5164"/>
<polygon fill="midnightblue" stroke="midnightblue" points="768.65,-113.39 779.203,-112.444 770.363,-106.603 768.65,-113.39"/>
</g>
<!-- Node15&#45;&gt;Node14 -->
<g id="edge19" class="edge"><title>Node15&#45;&gt;Node14</title>
<path fill="none" stroke="midnightblue" d="M613.158,-48.144C620.999,-38.7357 630.441,-27.4046 636.819,-19.7511"/>
<polygon fill="midnightblue" stroke="midnightblue" points="610.256,-46.1601 606.542,-56.083 615.633,-50.6414 610.256,-46.1601"/>
</g>
<!-- Node21&#45;&gt;Node2 -->
<g id="edge39" class="edge"><title>Node21&#45;&gt;Node2</title>
<path fill="none" stroke="midnightblue" d="M236.791,-440.718C245.956,-431.2 257.164,-419.561 264.685,-411.751"/>
<polygon fill="midnightblue" stroke="midnightblue" points="234.114,-438.452 229.698,-448.083 239.156,-443.308 234.114,-438.452"/>
</g>
<!-- Node21&#45;&gt;Node5 -->
<g id="edge41" class="edge"><title>Node21&#45;&gt;Node5</title>
<path fill="none" stroke="midnightblue" d="M211.538,-439.04C205.525,-425.053 200.545,-405.764 210.112,-392 223.414,-372.86 245.878,-361.844 267.865,-355.511"/>
<polygon fill="midnightblue" stroke="midnightblue" points="208.421,-440.635 215.906,-448.134 214.731,-437.604 208.421,-440.635"/>
</g>
<!-- Node21&#45;&gt;Node6 -->
<g id="edge42" class="edge"><title>Node21&#45;&gt;Node6</title>
<path fill="none" stroke="midnightblue" d="M274.524,-446.473C326.308,-436.268 403.883,-420.979 451.899,-411.516"/>
<polygon fill="midnightblue" stroke="midnightblue" points="273.662,-443.076 264.528,-448.444 275.016,-449.944 273.662,-443.076"/>
</g>
<!-- Node21&#45;&gt;Node22 -->
<g id="edge40" class="edge"><title>Node21&#45;&gt;Node22</title>
<path fill="none" stroke="midnightblue" d="M192.104,-444.368C168.883,-434.255 136.949,-420.349 116.668,-411.516"/>
<polygon fill="midnightblue" stroke="midnightblue" points="190.898,-447.66 201.463,-448.444 193.693,-441.242 190.898,-447.66"/>
</g>
<!-- Node24&#45;&gt;Node7 -->
<g id="edge49" class="edge"><title>Node24&#45;&gt;Node7</title>
<path fill="none" stroke="midnightblue" d="M789.538,-387.177C771.873,-377.241 748.599,-364.149 733.497,-355.655"/>
<polygon fill="midnightblue" stroke="midnightblue" points="788.256,-390.472 798.688,-392.324 791.688,-384.371 788.256,-390.472"/>
</g>
<!-- Node24&#45;&gt;Node8 -->
<g id="edge50" class="edge"><title>Node24&#45;&gt;Node8</title>
<path fill="none" stroke="midnightblue" d="M812.543,-382.184C810.446,-367.961 805.549,-348.769 794.112,-336 777.376,-317.316 751.513,-306.081 729.766,-299.509"/>
<polygon fill="midnightblue" stroke="midnightblue" points="809.086,-382.767 813.695,-392.307 816.042,-381.976 809.086,-382.767"/>
</g>
<!-- Node24&#45;&gt;Node18 -->
<g id="edge52" class="edge"><title>Node24&#45;&gt;Node18</title>
<path fill="none" stroke="midnightblue" d="M834.905,-386.436C882.957,-352.779 1000.52,-270.436 1038.83,-243.605"/>
<polygon fill="midnightblue" stroke="midnightblue" points="832.703,-383.705 826.52,-392.309 836.719,-389.439 832.703,-383.705"/>
</g>
<!-- Node24&#45;&gt;Node20 -->
<g id="edge51" class="edge"><title>Node24&#45;&gt;Node20</title>
<path fill="none" stroke="midnightblue" d="M823.273,-383.32C835.684,-359.37 857.355,-317.548 866.66,-299.591"/>
<polygon fill="midnightblue" stroke="midnightblue" points="820.078,-381.879 818.584,-392.368 826.293,-385.1 820.078,-381.879"/>
</g>
<!-- Node25&#45;&gt;Node21 -->
<g id="edge54" class="edge"><title>Node25&#45;&gt;Node21</title>
<path fill="none" stroke="midnightblue" d="M221.112,-493.805C221.112,-484.91 221.112,-474.78 221.112,-467.751"/>
<polygon fill="midnightblue" stroke="midnightblue" points="217.612,-494.083 221.112,-504.083 224.612,-494.083 217.612,-494.083"/>
</g>
<!-- Node25&#45;&gt;Node22 -->
<g id="edge55" class="edge"><title>Node25&#45;&gt;Node22</title>
<path fill="none" stroke="midnightblue" d="M165.746,-501.33C146.255,-494.617 125.813,-484.167 112.112,-468 98.3343,-451.743 96.6129,-425.276 96.7344,-411.675"/>
<polygon fill="midnightblue" stroke="midnightblue" points="164.917,-504.739 175.507,-504.423 167.031,-498.066 164.917,-504.739"/>
</g>
<!-- Node26&#45;&gt;Node7 -->
<g id="edge61" class="edge"><title>Node26&#45;&gt;Node7</title>
<path fill="none" stroke="midnightblue" d="M1190.98,-455.922C1052.23,-453.141 758.92,-443.557 726.112,-412 710.87,-397.339 713.553,-369.669 716.16,-355.634"/>
<polygon fill="midnightblue" stroke="midnightblue" points="1191.03,-459.424 1201.1,-456.119 1191.17,-452.425 1191.03,-459.424"/>
</g>
<!-- Node26&#45;&gt;Node8 -->
<g id="edge60" class="edge"><title>Node26&#45;&gt;Node8</title>
<path fill="none" stroke="midnightblue" d="M1190.77,-449.853C1135.35,-443.225 1057.38,-431.399 991.112,-412 908.948,-387.949 893.716,-367.504 814.112,-336 780.04,-322.516 740.121,-308.309 714.972,-299.55"/>
<polygon fill="midnightblue" stroke="midnightblue" points="1190.52,-453.346 1200.85,-451.03 1191.33,-446.393 1190.52,-453.346"/>
</g>
<!-- Node26&#45;&gt;Node10 -->
<g id="edge67" class="edge"><title>Node26&#45;&gt;Node10</title>
<path fill="none" stroke="midnightblue" d="M1333.88,-446.812C1378.61,-439.074 1431.08,-427.18 1448.11,-412 1471.1,-391.513 1472.11,-377.795 1472.11,-347 1472.11,-347 1472.11,-347 1472.11,-289 1472.11,-250.262 1488.1,-206.004 1495.47,-187.662"/>
<polygon fill="midnightblue" stroke="midnightblue" points="1333.17,-443.384 1323.89,-448.496 1334.33,-450.287 1333.17,-443.384"/>
</g>
<!-- Node26&#45;&gt;Node11 -->
<g id="edge70" class="edge"><title>Node26&#45;&gt;Node11</title>
<path fill="none" stroke="midnightblue" d="M1317.8,-445.861C1367.84,-432.102 1434.11,-403.259 1434.11,-347 1434.11,-347 1434.11,-347 1434.11,-177 1434.11,-83.5701 1107.59,-69.1583 973.028,-67.1859"/>
<polygon fill="midnightblue" stroke="midnightblue" points="1316.83,-442.499 1308.04,-448.416 1318.6,-449.271 1316.83,-442.499"/>
</g>
<!-- Node26&#45;&gt;Node12 -->
<g id="edge69" class="edge"><title>Node26&#45;&gt;Node12</title>
<path fill="none" stroke="midnightblue" d="M1277.9,-440.703C1294.79,-420.343 1320.11,-383.7 1320.11,-347 1320.11,-347 1320.11,-347 1320.11,-289 1320.11,-258.902 1323.59,-244.018 1301.11,-224 1270.91,-197.097 1159.8,-185.976 1091.72,-181.612"/>
<polygon fill="midnightblue" stroke="midnightblue" points="1275.16,-438.525 1271.28,-448.384 1280.46,-443.096 1275.16,-438.525"/>
</g>
<!-- Node26&#45;&gt;Node13 -->
<g id="edge68" class="edge"><title>Node26&#45;&gt;Node13</title>
<path fill="none" stroke="midnightblue" d="M1287.36,-443.085C1315.5,-424.914 1358.11,-390.261 1358.11,-347 1358.11,-347 1358.11,-347 1358.11,-233 1358.11,-183.561 1009.06,-142.802 869.638,-128.494"/>
<polygon fill="midnightblue" stroke="midnightblue" points="1285.45,-440.149 1278.8,-448.396 1289.14,-446.097 1285.45,-440.149"/>
</g>
<!-- Node26&#45;&gt;Node14 -->
<g id="edge73" class="edge"><title>Node26&#45;&gt;Node14</title>
<path fill="none" stroke="midnightblue" d="M1321.17,-446.636C1372.85,-437.01 1444.3,-422.608 1471.11,-412 1542.2,-383.875 1766.11,-311.45 1766.11,-235 1766.11,-235 1766.11,-235 1766.11,-121 1766.11,-9.61992 879.052,-9.34266 682.409,-10.6496"/>
<polygon fill="midnightblue" stroke="midnightblue" points="1320.31,-443.235 1311.12,-448.494 1321.59,-450.118 1320.31,-443.235"/>
</g>
<!-- Node26&#45;&gt;Node16 -->
<g id="edge72" class="edge"><title>Node26&#45;&gt;Node16</title>
<path fill="none" stroke="midnightblue" d="M1314.51,-445.374C1334.69,-438.563 1356.67,-428.032 1372.11,-412 1393.47,-389.817 1396.11,-377.795 1396.11,-347 1396.11,-347 1396.11,-347 1396.11,-233 1396.11,-202.205 1396.15,-187.251 1372.11,-168 1329.92,-134.204 1174.93,-125.746 1091.36,-123.659"/>
<polygon fill="midnightblue" stroke="midnightblue" points="1313.27,-442.093 1304.78,-448.426 1315.37,-448.772 1313.27,-442.093"/>
</g>
<!-- Node26&#45;&gt;Node17 -->
<g id="edge74" class="edge"><title>Node26&#45;&gt;Node17</title>
<path fill="none" stroke="midnightblue" d="M1231.54,-444.598C1190.41,-427.7 1117.13,-395.037 1061.11,-356 1020.61,-327.777 1020.14,-308.891 980.112,-280 959.511,-265.131 933.429,-251.771 916.056,-243.543"/>
<polygon fill="midnightblue" stroke="midnightblue" points="1230.45,-447.932 1241.03,-448.451 1233.08,-441.446 1230.45,-447.932"/>
</g>
<!-- Node26&#45;&gt;Node18 -->
<g id="edge76" class="edge"><title>Node26&#45;&gt;Node18</title>
<path fill="none" stroke="midnightblue" d="M1261.25,-438.201C1257.85,-412.586 1248.57,-366.432 1224.11,-336 1184.89,-287.208 1115.3,-257.097 1077.43,-243.519"/>
<polygon fill="midnightblue" stroke="midnightblue" points="1257.8,-438.864 1262.43,-448.395 1264.76,-438.058 1257.8,-438.864"/>
</g>
<!-- Node26&#45;&gt;Node19 -->
<g id="edge77" class="edge"><title>Node26&#45;&gt;Node19</title>
<path fill="none" stroke="midnightblue" d="M1266.54,-437.994C1271.7,-404.697 1278.81,-334.206 1258.11,-280 1252.49,-265.289 1239.88,-251.993 1230.73,-243.733"/>
<polygon fill="midnightblue" stroke="midnightblue" points="1263.05,-437.692 1264.85,-448.133 1269.95,-438.847 1263.05,-437.692"/>
</g>
<!-- Node26&#45;&gt;Node20 -->
<g id="edge75" class="edge"><title>Node26&#45;&gt;Node20</title>
<path fill="none" stroke="midnightblue" d="M1190.89,-451.927C1143.01,-446.487 1079.74,-435.238 1028.11,-412 963.467,-382.906 901.199,-322.285 879.341,-299.715"/>
<polygon fill="midnightblue" stroke="midnightblue" points="1190.55,-455.41 1200.87,-453.002 1191.3,-448.45 1190.55,-455.41"/>
</g>
<!-- Node26&#45;&gt;Node24 -->
<g id="edge62" class="edge"><title>Node26&#45;&gt;Node24</title>
<path fill="none" stroke="midnightblue" d="M1190.68,-448.289C1106.47,-438.161 968.385,-421.554 884.886,-411.512"/>
<polygon fill="midnightblue" stroke="midnightblue" points="1190.33,-451.772 1200.68,-449.492 1191.17,-444.822 1190.33,-451.772"/>
</g>
<!-- Node27 -->
<g id="node27" class="node"><title>Node27</title>
<g id="a_node27"><a xlink:href="player__state_8hpp.html" target="_top" xlink:title="Declaration of the PlayerState class, and associated types. ">
<polygon fill="white" stroke="black" points="1070.61,-336.5 1070.61,-355.5 1215.61,-355.5 1215.61,-336.5 1070.61,-336.5"/>
<text text-anchor="middle" x="1143.11" y="-343.5" font-family="Helvetica,sans-Serif" font-size="10.00">src/player/player_state.hpp</text>
</a>
</g>
</g>
<!-- Node26&#45;&gt;Node27 -->
<g id="edge63" class="edge"><title>Node26&#45;&gt;Node27</title>
<path fill="none" stroke="midnightblue" d="M1246.22,-441.512C1220.57,-418.007 1172.69,-374.11 1152.48,-355.591"/>
<polygon fill="midnightblue" stroke="midnightblue" points="1243.96,-444.191 1253.7,-448.368 1248.69,-439.031 1243.96,-444.191"/>
</g>
<!-- Node26&#45;&gt;Node28 -->
<g id="edge71" class="edge"><title>Node26&#45;&gt;Node28</title>
<path fill="none" stroke="midnightblue" d="M1326.43,-446.854C1390.1,-436.651 1487.17,-421.098 1546.96,-411.516"/>
<polygon fill="midnightblue" stroke="midnightblue" points="1325.83,-443.405 1316.51,-448.444 1326.94,-450.317 1325.83,-443.405"/>
</g>
<!-- Node27&#45;&gt;Node8 -->
<g id="edge64" class="edge"><title>Node27&#45;&gt;Node8</title>
<path fill="none" stroke="midnightblue" d="M1061.4,-335.26C971.065,-324.491 827.819,-307.415 748.245,-297.93"/>
<polygon fill="midnightblue" stroke="midnightblue" points="1060.99,-338.735 1071.33,-336.444 1061.82,-331.784 1060.99,-338.735"/>
</g>
<!-- Node27&#45;&gt;Node17 -->
<g id="edge65" class="edge"><title>Node27&#45;&gt;Node17</title>
<path fill="none" stroke="midnightblue" d="M1125.95,-329.149C1109.25,-314.5 1082.6,-293.082 1056.11,-280 1020.36,-262.342 976.554,-250.593 943.984,-243.542"/>
<polygon fill="midnightblue" stroke="midnightblue" points="1123.94,-332.044 1133.72,-336.113 1128.61,-326.832 1123.94,-332.044"/>
</g>
<!-- Node27&#45;&gt;Node19 -->
<g id="edge66" class="edge"><title>Node27&#45;&gt;Node19</title>
<path fill="none" stroke="midnightblue" d="M1155.04,-327.957C1171.73,-304.118 1201.42,-261.709 1214.1,-243.591"/>
<polygon fill="midnightblue" stroke="midnightblue" points="1152.02,-326.169 1149.15,-336.368 1157.76,-330.183 1152.02,-326.169"/>
</g>
<!-- Node29&#45;&gt;Node8 -->
<g id="edge79" class="edge"><title>Node29&#45;&gt;Node8</title>
<path fill="none" stroke="midnightblue" d="M250.529,-335.868C393.581,-318.672 549.417,-303.797 631.892,-296.23"/>
<polygon fill="midnightblue" stroke="midnightblue" points="249.76,-332.436 240.252,-337.11 250.6,-339.385 249.76,-332.436"/>
</g>
<!-- Node29&#45;&gt;Node15 -->
<g id="edge80" class="edge"><title>Node29&#45;&gt;Node15</title>
<path fill="none" stroke="midnightblue" d="M205.313,-330.467C257.406,-293.132 400.85,-191.232 524.112,-112 544.677,-98.7808 569.039,-84.3903 584.288,-75.5303"/>
<polygon fill="midnightblue" stroke="midnightblue" points="203.025,-327.8 196.942,-336.474 207.107,-333.487 203.025,-327.8"/>
</g>
</g>
</svg>
