<?xml version="1.0" encoding="UTF-8" standalone="no"?>
<!DOCTYPE svg PUBLIC "-//W3C//DTD SVG 1.1//EN"
 "http://www.w3.org/Graphics/SVG/1.1/DTD/svg11.dtd">
<!-- Generated by graphviz version 2.36.0 (20140111.2315)
 -->
<!-- Title: src/errors.hpp Pages: 1 -->
<svg width="1699pt" height="364pt"
 viewBox="0.00 0.00 1699.00 364.00" xmlns="http://www.w3.org/2000/svg" xmlns:xlink="http://www.w3.org/1999/xlink">
<g id="graph0" class="graph" transform="scale(1 1) rotate(0) translate(4 360)">
<title>src/errors.hpp</title>
<polygon fill="white" stroke="none" points="-4,4 -4,-360 1695,-360 1695,4 -4,4"/>
<!-- Node3 -->
<g id="node1" class="node"><title>Node3</title>
<polygon fill="#bfbfbf" stroke="black" points="1079.5,-336.5 1079.5,-355.5 1162.5,-355.5 1162.5,-336.5 1079.5,-336.5"/>
<text text-anchor="middle" x="1121" y="-343.5" font-family="Helvetica,sans-Serif" font-size="10.00">src/errors.hpp</text>
</g>
<!-- Node4 -->
<g id="node2" class="node"><title>Node4</title>
<g id="a_node2"><a xlink:href="audio_8cpp.html" target="_top" xlink:title="Implementation of the PipeAudio class. ">
<polygon fill="white" stroke="black" points="462,-112.5 462,-131.5 572,-131.5 572,-112.5 462,-112.5"/>
<text text-anchor="middle" x="517" y="-119.5" font-family="Helvetica,sans-Serif" font-size="10.00">src/audio/audio.cpp</text>
</a>
</g>
</g>
<!-- Node3&#45;&gt;Node4 -->
<g id="edge1" class="edge"><title>Node3&#45;&gt;Node4</title>
<path fill="none" stroke="midnightblue" d="M1069.21,-341.223C947.451,-331.465 647.255,-302.026 567,-244 528.871,-216.432 519.713,-154.334 517.604,-131.572"/>
<polygon fill="midnightblue" stroke="midnightblue" points="1069.15,-344.729 1079.39,-342.027 1069.7,-337.751 1069.15,-344.729"/>
</g>
<!-- Node5 -->
<g id="node3" class="node"><title>Node5</title>
<g id="a_node3"><a xlink:href="response_8hpp.html" target="_top" xlink:title="Declaration of classes pertaining to responses to the client. ">
<polygon fill="white" stroke="black" points="256.5,-280.5 256.5,-299.5 355.5,-299.5 355.5,-280.5 256.5,-280.5"/>
<text text-anchor="middle" x="306" y="-287.5" font-family="Helvetica,sans-Serif" font-size="10.00">src/response.hpp</text>
</a>
</g>
</g>
<!-- Node3&#45;&gt;Node5 -->
<g id="edge2" class="edge"><title>Node3&#45;&gt;Node5</title>
<path fill="none" stroke="midnightblue" d="M1069.33,-341.576C921.86,-331.805 500.351,-303.877 355.55,-294.283"/>
<polygon fill="midnightblue" stroke="midnightblue" points="1069.25,-345.079 1079.46,-342.248 1069.72,-338.094 1069.25,-345.079"/>
</g>
<!-- Node8 -->
<g id="node6" class="node"><title>Node8</title>
<g id="a_node6"><a xlink:href="audio__sink_8cpp.html" target="_top" xlink:title="Implementation of the AudioSink class. ">
<polygon fill="white" stroke="black" points="953,-112.5 953,-131.5 1087,-131.5 1087,-112.5 953,-112.5"/>
<text text-anchor="middle" x="1020" y="-119.5" font-family="Helvetica,sans-Serif" font-size="10.00">src/audio/audio_sink.cpp</text>
</a>
</g>
</g>
<!-- Node3&#45;&gt;Node8 -->
<g id="edge39" class="edge"><title>Node3&#45;&gt;Node8</title>
<path fill="none" stroke="midnightblue" d="M1172.7,-340.023C1262.47,-329.316 1432.47,-298.721 1376,-224 1340.56,-177.103 1173.87,-145.643 1081.69,-131.514"/>
<polygon fill="midnightblue" stroke="midnightblue" points="1172.23,-336.554 1162.69,-341.174 1173.03,-343.508 1172.23,-336.554"/>
</g>
<!-- Node10 -->
<g id="node8" class="node"><title>Node10</title>
<g id="a_node8"><a xlink:href="io_8cpp.html" target="_top" xlink:title="Implementation of the non&#45;virtual aspects of the IoCore class. ">
<polygon fill="white" stroke="black" points="78,-0.5 78,-19.5 140,-19.5 140,-0.5 78,-0.5"/>
<text text-anchor="middle" x="109" y="-7.5" font-family="Helvetica,sans-Serif" font-size="10.00">src/io.cpp</text>
</a>
</g>
</g>
<!-- Node3&#45;&gt;Node10 -->
<g id="edge44" class="edge"><title>Node3&#45;&gt;Node10</title>
<path fill="none" stroke="midnightblue" d="M1069.11,-345.427C848.541,-346.569 0,-343.887 0,-235 0,-235 0,-235 0,-121 0,-70.5905 58.4722,-35.0144 89.7639,-19.5849"/>
<polygon fill="midnightblue" stroke="midnightblue" points="1069.46,-348.925 1079.44,-345.368 1069.42,-341.925 1069.46,-348.925"/>
</g>
<!-- Node13 -->
<g id="node11" class="node"><title>Node13</title>
<g id="a_node11"><a xlink:href="player_8cpp.html" target="_top" xlink:title="Main implementation file for the Player class. ">
<polygon fill="white" stroke="black" points="699.5,-56.5 699.5,-75.5 782.5,-75.5 782.5,-56.5 699.5,-56.5"/>
<text text-anchor="middle" x="741" y="-63.5" font-family="Helvetica,sans-Serif" font-size="10.00">src/player.cpp</text>
</a>
</g>
</g>
<!-- Node3&#45;&gt;Node13 -->
<g id="edge45" class="edge"><title>Node3&#45;&gt;Node13</title>
<path fill="none" stroke="midnightblue" d="M1173.06,-344.793C1225.84,-342.553 1308.42,-333.342 1371,-300 1406.51,-281.082 1434,-275.231 1434,-235 1434,-235 1434,-235 1434,-177 1434,-110.647 932.041,-77.5606 782.532,-69.1775"/>
<polygon fill="midnightblue" stroke="midnightblue" points="1172.78,-341.3 1162.92,-345.153 1173.03,-348.296 1172.78,-341.3"/>
</g>
<!-- Node16 -->
<g id="node14" class="node"><title>Node16</title>
<g id="a_node14"><a xlink:href="response_8cpp.html" target="_top" xlink:title="Implementation of client response classes. ">
<polygon fill="white" stroke="black" points="410,-224.5 410,-243.5 508,-243.5 508,-224.5 410,-224.5"/>
<text text-anchor="middle" x="459" y="-231.5" font-family="Helvetica,sans-Serif" font-size="10.00">src/response.cpp</text>
</a>
</g>
</g>
<!-- Node3&#45;&gt;Node16 -->
<g id="edge46" class="edge"><title>Node3&#45;&gt;Node16</title>
<path fill="none" stroke="midnightblue" d="M1068.85,-345.768C941.551,-346.904 618.337,-345.119 522,-300 495.244,-287.469 473.81,-258.288 464.31,-243.67"/>
<polygon fill="midnightblue" stroke="midnightblue" points="1069.14,-349.266 1079.11,-345.667 1069.08,-342.266 1069.14,-349.266"/>
</g>
<!-- Node17 -->
<g id="node15" class="node"><title>Node17</title>
<g id="a_node15"><a xlink:href="audio__source_8hpp.html" target="_top" xlink:title="Declaration of the AudioSource class. ">
<polygon fill="white" stroke="black" points="793,-280.5 793,-299.5 941,-299.5 941,-280.5 793,-280.5"/>
<text text-anchor="middle" x="867" y="-287.5" font-family="Helvetica,sans-Serif" font-size="10.00">src/audio/audio_source.hpp</text>
</a>
</g>
</g>
<!-- Node3&#45;&gt;Node17 -->
<g id="edge29" class="edge"><title>Node3&#45;&gt;Node17</title>
<path fill="none" stroke="midnightblue" d="M1070.88,-334.346C1022.88,-324.141 951.385,-308.94 907.059,-299.516"/>
<polygon fill="midnightblue" stroke="midnightblue" points="1070.24,-337.787 1080.75,-336.444 1071.7,-330.94 1070.24,-337.787"/>
</g>
<!-- Node19 -->
<g id="node17" class="node"><title>Node19</title>
<g id="a_node17"><a xlink:href="mp3_8cpp.html" target="_top" xlink:title="Implementation of the Mp3AudioSource class. ">
<polygon fill="white" stroke="black" points="1048,-224.5 1048,-243.5 1194,-243.5 1194,-224.5 1048,-224.5"/>
<text text-anchor="middle" x="1121" y="-231.5" font-family="Helvetica,sans-Serif" font-size="10.00">src/audio/sources/mp3.cpp</text>
</a>
</g>
</g>
<!-- Node3&#45;&gt;Node19 -->
<g id="edge41" class="edge"><title>Node3&#45;&gt;Node19</title>
<path fill="none" stroke="midnightblue" d="M1121,-326.348C1121,-302.254 1121,-261.308 1121,-243.591"/>
<polygon fill="midnightblue" stroke="midnightblue" points="1117.5,-326.368 1121,-336.368 1124.5,-326.369 1117.5,-326.368"/>
</g>
<!-- Node20 -->
<g id="node18" class="node"><title>Node20</title>
<g id="a_node18"><a xlink:href="sndfile_8cpp.html" target="_top" xlink:title="Implementation of the SndfileAudioSource class. ">
<polygon fill="white" stroke="black" points="1212.5,-224.5 1212.5,-243.5 1367.5,-243.5 1367.5,-224.5 1212.5,-224.5"/>
<text text-anchor="middle" x="1290" y="-231.5" font-family="Helvetica,sans-Serif" font-size="10.00">src/audio/sources/sndfile.cpp</text>
</a>
</g>
</g>
<!-- Node3&#45;&gt;Node20 -->
<g id="edge42" class="edge"><title>Node3&#45;&gt;Node20</title>
<path fill="none" stroke="midnightblue" d="M1142.95,-330.714C1178.56,-307.535 1247.86,-262.43 1276.8,-243.591"/>
<polygon fill="midnightblue" stroke="midnightblue" points="1140.73,-327.98 1134.26,-336.368 1144.55,-333.847 1140.73,-327.98"/>
</g>
<!-- Node21 -->
<g id="node19" class="node"><title>Node21</title>
<g id="a_node19"><a xlink:href="ringbuffer_8cpp.html" target="_top" xlink:title="Implementation of the RingBuffer class. ">
<polygon fill="white" stroke="black" points="1462,-280.5 1462,-299.5 1590,-299.5 1590,-280.5 1462,-280.5"/>
<text text-anchor="middle" x="1526" y="-287.5" font-family="Helvetica,sans-Serif" font-size="10.00">src/audio/ringbuffer.cpp</text>
</a>
</g>
</g>
<!-- Node3&#45;&gt;Node21 -->
<g id="edge40" class="edge"><title>Node3&#45;&gt;Node21</title>
<path fill="none" stroke="midnightblue" d="M1172.81,-338.092C1246.6,-328.253 1381.88,-310.216 1461.89,-299.548"/>
<polygon fill="midnightblue" stroke="midnightblue" points="1172.27,-334.633 1162.82,-339.424 1173.19,-341.572 1172.27,-334.633"/>
</g>
<!-- Node22 -->
<g id="node20" class="node"><title>Node22</title>
<g id="a_node20"><a xlink:href="errors_8cpp.html" target="_top" xlink:title="Implementation of the playd Error exception set. ">
<polygon fill="white" stroke="black" points="1608.5,-280.5 1608.5,-299.5 1691.5,-299.5 1691.5,-280.5 1608.5,-280.5"/>
<text text-anchor="middle" x="1650" y="-287.5" font-family="Helvetica,sans-Serif" font-size="10.00">src/errors.cpp</text>
</a>
</g>
</g>
<!-- Node3&#45;&gt;Node22 -->
<g id="edge43" class="edge"><title>Node3&#45;&gt;Node22</title>
<path fill="none" stroke="midnightblue" d="M1172.93,-341.493C1260.87,-335.244 1444.61,-320.855 1599,-300 1602.03,-299.591 1605.15,-299.132 1608.29,-298.643"/>
<polygon fill="midnightblue" stroke="midnightblue" points="1172.42,-338.02 1162.69,-342.214 1172.91,-345.003 1172.42,-338.02"/>
</g>
<!-- Node5&#45;&gt;Node4 -->
<g id="edge3" class="edge"><title>Node5&#45;&gt;Node4</title>
<path fill="none" stroke="midnightblue" d="M319.73,-272.766C331.752,-259.02 350.058,-239.185 368,-224 413.801,-185.237 474.713,-147.806 502.306,-131.513"/>
<polygon fill="midnightblue" stroke="midnightblue" points="316.992,-270.582 313.116,-280.443 322.295,-275.152 316.992,-270.582"/>
</g>
<!-- Node6 -->
<g id="node4" class="node"><title>Node6</title>
<g id="a_node4"><a xlink:href="audio_8hpp.html" target="_top" xlink:title="Declaration of the Audio class. ">
<polygon fill="white" stroke="black" points="602,-224.5 602,-243.5 712,-243.5 712,-224.5 602,-224.5"/>
<text text-anchor="middle" x="657" y="-231.5" font-family="Helvetica,sans-Serif" font-size="10.00">src/audio/audio.hpp</text>
</a>
</g>
</g>
<!-- Node5&#45;&gt;Node6 -->
<g id="edge4" class="edge"><title>Node5&#45;&gt;Node6</title>
<path fill="none" stroke="midnightblue" d="M365.813,-279.798C431.984,-269.618 537.722,-253.35 601.927,-243.473"/>
<polygon fill="midnightblue" stroke="midnightblue" points="364.897,-276.398 355.545,-281.378 365.961,-283.316 364.897,-276.398"/>
</g>
<!-- Node9 -->
<g id="node7" class="node"><title>Node9</title>
<g id="a_node7"><a xlink:href="player_8hpp.html" target="_top" xlink:title="Declaration of the Player class, and associated types. ">
<polygon fill="white" stroke="black" points="590.5,-112.5 590.5,-131.5 673.5,-131.5 673.5,-112.5 590.5,-112.5"/>
<text text-anchor="middle" x="632" y="-119.5" font-family="Helvetica,sans-Serif" font-size="10.00">src/player.hpp</text>
</a>
</g>
</g>
<!-- Node5&#45;&gt;Node9 -->
<g id="edge19" class="edge"><title>Node5&#45;&gt;Node9</title>
<path fill="none" stroke="midnightblue" d="M324.972,-274.441C343.676,-260.474 373.387,-239.305 401,-224 473.929,-183.578 566.234,-147.387 608.694,-131.514"/>
<polygon fill="midnightblue" stroke="midnightblue" points="322.84,-271.665 316.966,-280.483 327.057,-277.253 322.84,-271.665"/>
</g>
<!-- Node5&#45;&gt;Node10 -->
<g id="edge20" class="edge"><title>Node5&#45;&gt;Node10</title>
<path fill="none" stroke="midnightblue" d="M246.325,-285.344C181.719,-280.183 84.2415,-268.507 57,-244 34.6242,-223.87 38,-209.098 38,-179 38,-179 38,-179 38,-121 38,-77.1315 78.3546,-36.8873 98.2166,-19.7363"/>
<polygon fill="midnightblue" stroke="midnightblue" points="246.157,-288.841 256.395,-286.117 246.693,-281.862 246.157,-288.841"/>
</g>
<!-- Node11 -->
<g id="node9" class="node"><title>Node11</title>
<g id="a_node9"><a xlink:href="io_8hpp.html" target="_top" xlink:title="Declaration of the I/O classes used in playd. ">
<polygon fill="white" stroke="black" points="176.5,-56.5 176.5,-75.5 239.5,-75.5 239.5,-56.5 176.5,-56.5"/>
<text text-anchor="middle" x="208" y="-63.5" font-family="Helvetica,sans-Serif" font-size="10.00">src/io.hpp</text>
</a>
</g>
</g>
<!-- Node5&#45;&gt;Node11 -->
<g id="edge21" class="edge"><title>Node5&#45;&gt;Node11</title>
<path fill="none" stroke="midnightblue" d="M283.637,-274.45C273.211,-266.596 261.481,-256.043 254,-244 218.483,-186.823 210.245,-102.961 208.462,-75.8217"/>
<polygon fill="midnightblue" stroke="midnightblue" points="281.793,-277.433 291.968,-280.386 285.855,-271.733 281.793,-277.433"/>
</g>
<!-- Node12 -->
<g id="node10" class="node"><title>Node12</title>
<g id="a_node10"><a xlink:href="main_8cpp.html" target="_top" xlink:title="Main entry point and implementation of the playd class. ">
<polygon fill="white" stroke="black" points="229,-0.5 229,-19.5 307,-19.5 307,-0.5 229,-0.5"/>
<text text-anchor="middle" x="268" y="-7.5" font-family="Helvetica,sans-Serif" font-size="10.00">src/main.cpp</text>
</a>
</g>
</g>
<!-- Node5&#45;&gt;Node12 -->
<g id="edge25" class="edge"><title>Node5&#45;&gt;Node12</title>
<path fill="none" stroke="midnightblue" d="M295.857,-271.429C284.6,-250.236 268,-213.187 268,-179 268,-179 268,-179 268,-121 268,-83.1875 268,-38.0636 268,-19.5578"/>
<polygon fill="midnightblue" stroke="midnightblue" points="292.819,-273.168 300.716,-280.231 298.947,-269.785 292.819,-273.168"/>
</g>
<!-- Node5&#45;&gt;Node13 -->
<g id="edge26" class="edge"><title>Node5&#45;&gt;Node13</title>
<path fill="none" stroke="midnightblue" d="M314.559,-271.134C333.507,-233.847 382.937,-148.208 453,-112 495.148,-90.2185 630.051,-76.2036 699.228,-70.263"/>
<polygon fill="midnightblue" stroke="midnightblue" points="311.328,-269.773 310.031,-280.288 317.602,-272.876 311.328,-269.773"/>
</g>
<!-- Node14 -->
<g id="node12" class="node"><title>Node14</title>
<g id="a_node12"><a xlink:href="tokeniser_8hpp.html" target="_top" xlink:title="Declaration of the Tokeniser class. ">
<polygon fill="white" stroke="black" points="66,-224.5 66,-243.5 164,-243.5 164,-224.5 66,-224.5"/>
<text text-anchor="middle" x="115" y="-231.5" font-family="Helvetica,sans-Serif" font-size="10.00">src/tokeniser.hpp</text>
</a>
</g>
</g>
<!-- Node5&#45;&gt;Node14 -->
<g id="edge22" class="edge"><title>Node5&#45;&gt;Node14</title>
<path fill="none" stroke="midnightblue" d="M266.027,-277.699C229.979,-267.507 177.757,-252.743 145.123,-243.516"/>
<polygon fill="midnightblue" stroke="midnightblue" points="265.16,-281.091 275.735,-280.444 267.065,-274.355 265.16,-281.091"/>
</g>
<!-- Node15 -->
<g id="node13" class="node"><title>Node15</title>
<g id="a_node13"><a xlink:href="tokeniser_8cpp.html" target="_top" xlink:title="Definition of the Tokeniser class. ">
<polygon fill="white" stroke="black" points="104,-168.5 104,-187.5 202,-187.5 202,-168.5 104,-168.5"/>
<text text-anchor="middle" x="153" y="-175.5" font-family="Helvetica,sans-Serif" font-size="10.00">src/tokeniser.cpp</text>
</a>
</g>
</g>
<!-- Node5&#45;&gt;Node15 -->
<g id="edge28" class="edge"><title>Node5&#45;&gt;Node15</title>
<path fill="none" stroke="midnightblue" d="M274.277,-276.301C256.329,-268.361 233.954,-257.155 216,-244 192.928,-227.095 170.819,-201.374 159.966,-187.916"/>
<polygon fill="midnightblue" stroke="midnightblue" points="273.168,-279.634 283.737,-280.367 275.932,-273.203 273.168,-279.634"/>
</g>
<!-- Node5&#45;&gt;Node16 -->
<g id="edge27" class="edge"><title>Node5&#45;&gt;Node16</title>
<path fill="none" stroke="midnightblue" d="M339.889,-277.039C368.677,-266.879 409.287,-252.546 434.87,-243.516"/>
<polygon fill="midnightblue" stroke="midnightblue" points="338.508,-273.815 330.243,-280.444 340.838,-280.416 338.508,-273.815"/>
</g>
<!-- Node6&#45;&gt;Node4 -->
<g id="edge5" class="edge"><title>Node6&#45;&gt;Node4</title>
<path fill="none" stroke="midnightblue" d="M638.059,-218.118C608.342,-194.769 551.707,-150.27 527.935,-131.591"/>
<polygon fill="midnightblue" stroke="midnightblue" points="635.989,-220.942 646.014,-224.368 640.314,-215.438 635.989,-220.942"/>
</g>
<!-- Node7 -->
<g id="node5" class="node"><title>Node7</title>
<g id="a_node5"><a xlink:href="audio__sink_8hpp.html" target="_top" xlink:title="Declaration of the AudioSink class. ">
<polygon fill="white" stroke="black" points="736,-168.5 736,-187.5 870,-187.5 870,-168.5 736,-168.5"/>
<text text-anchor="middle" x="803" y="-175.5" font-family="Helvetica,sans-Serif" font-size="10.00">src/audio/audio_sink.hpp</text>
</a>
</g>
</g>
<!-- Node6&#45;&gt;Node7 -->
<g id="edge6" class="edge"><title>Node6&#45;&gt;Node7</title>
<path fill="none" stroke="midnightblue" d="M689.699,-220.906C717.148,-210.754 755.668,-196.506 779.974,-187.516"/>
<polygon fill="midnightblue" stroke="midnightblue" points="688.299,-217.692 680.134,-224.444 690.727,-224.257 688.299,-217.692"/>
</g>
<!-- Node6&#45;&gt;Node9 -->
<g id="edge17" class="edge"><title>Node6&#45;&gt;Node9</title>
<path fill="none" stroke="midnightblue" d="M652.761,-214.348C647.285,-190.254 637.979,-149.308 633.953,-131.591"/>
<polygon fill="midnightblue" stroke="midnightblue" points="649.409,-215.393 655.038,-224.368 656.235,-213.841 649.409,-215.393"/>
</g>
<!-- Node6&#45;&gt;Node13 -->
<g id="edge18" class="edge"><title>Node6&#45;&gt;Node13</title>
<path fill="none" stroke="midnightblue" d="M666.182,-214.856C684.198,-179.252 723.566,-101.453 736.664,-75.5681"/>
<polygon fill="midnightblue" stroke="midnightblue" points="662.908,-213.572 661.516,-224.075 669.154,-216.733 662.908,-213.572"/>
</g>
<!-- Node7&#45;&gt;Node4 -->
<g id="edge7" class="edge"><title>Node7&#45;&gt;Node4</title>
<path fill="none" stroke="midnightblue" d="M747.586,-166.537C693.534,-156.332 612.329,-140.999 562.106,-131.516"/>
<polygon fill="midnightblue" stroke="midnightblue" points="747.207,-170.027 757.682,-168.444 748.505,-163.149 747.207,-170.027"/>
</g>
<!-- Node7&#45;&gt;Node8 -->
<g id="edge8" class="edge"><title>Node7&#45;&gt;Node8</title>
<path fill="none" stroke="midnightblue" d="M847.108,-166.024C888.1,-155.823 948.304,-140.841 985.777,-131.516"/>
<polygon fill="midnightblue" stroke="midnightblue" points="846.243,-162.632 837.384,-168.444 847.934,-169.425 846.243,-162.632"/>
</g>
<!-- Node7&#45;&gt;Node9 -->
<g id="edge9" class="edge"><title>Node7&#45;&gt;Node9</title>
<path fill="none" stroke="midnightblue" d="M765.964,-165.304C733.743,-155.129 687.811,-140.625 658.969,-131.516"/>
<polygon fill="midnightblue" stroke="midnightblue" points="765.315,-168.77 775.905,-168.444 767.423,-162.095 765.315,-168.77"/>
</g>
<!-- Node7&#45;&gt;Node13 -->
<g id="edge16" class="edge"><title>Node7&#45;&gt;Node13</title>
<path fill="none" stroke="midnightblue" d="M793.215,-159.64C779.746,-135.744 756.009,-93.6286 745.842,-75.5914"/>
<polygon fill="midnightblue" stroke="midnightblue" points="790.176,-161.376 798.135,-168.368 796.274,-157.938 790.176,-161.376"/>
</g>
<!-- Node9&#45;&gt;Node10 -->
<g id="edge10" class="edge"><title>Node9&#45;&gt;Node10</title>
<path fill="none" stroke="midnightblue" d="M580.264,-110.418C536.081,-101.357 470.844,-87.9239 414,-76 313.854,-54.9928 195.337,-29.5752 140.16,-17.7096"/>
<polygon fill="midnightblue" stroke="midnightblue" points="579.692,-113.873 590.191,-112.453 581.098,-107.016 579.692,-113.873"/>
</g>
<!-- Node9&#45;&gt;Node11 -->
<g id="edge11" class="edge"><title>Node9&#45;&gt;Node11</title>
<path fill="none" stroke="midnightblue" d="M580.337,-111.976C447.542,-92.4824 302.279,-76.7428 239.516,-70.2147"/>
<polygon fill="midnightblue" stroke="midnightblue" points="579.877,-115.446 590.282,-113.447 580.901,-108.522 579.877,-115.446"/>
</g>
<!-- Node9&#45;&gt;Node12 -->
<g id="edge14" class="edge"><title>Node9&#45;&gt;Node12</title>
<path fill="none" stroke="midnightblue" d="M593.98,-109.51C520.621,-87.3417 361.075,-39.127 296.242,-19.5345"/>
<polygon fill="midnightblue" stroke="midnightblue" points="593.155,-112.918 603.74,-112.46 595.18,-106.217 593.155,-112.918"/>
</g>
<!-- Node9&#45;&gt;Node13 -->
<g id="edge15" class="edge"><title>Node9&#45;&gt;Node13</title>
<path fill="none" stroke="midnightblue" d="M658.519,-107.862C678.73,-97.8492 705.987,-84.3458 723.531,-75.6545"/>
<polygon fill="midnightblue" stroke="midnightblue" points="656.92,-104.748 649.513,-112.324 660.027,-111.021 656.92,-104.748"/>
</g>
<!-- Node11&#45;&gt;Node10 -->
<g id="edge12" class="edge"><title>Node11&#45;&gt;Node10</title>
<path fill="none" stroke="midnightblue" d="M183.163,-51.4526C164.886,-41.4835 140.584,-28.2279 124.867,-19.6545"/>
<polygon fill="midnightblue" stroke="midnightblue" points="181.639,-54.608 192.094,-56.324 184.991,-48.4628 181.639,-54.608"/>
</g>
<!-- Node11&#45;&gt;Node12 -->
<g id="edge13" class="edge"><title>Node11&#45;&gt;Node12</title>
<path fill="none" stroke="midnightblue" d="M225.181,-49.5372C235.879,-39.9087 249.256,-27.8694 258.185,-19.8339"/>
<polygon fill="midnightblue" stroke="midnightblue" points="222.732,-47.0327 217.64,-56.324 227.414,-52.2358 222.732,-47.0327"/>
</g>
<!-- Node14&#45;&gt;Node11 -->
<g id="edge23" class="edge"><title>Node14&#45;&gt;Node11</title>
<path fill="none" stroke="midnightblue" d="M103.012,-215.707C95.3372,-202.364 88.0157,-183.61 95,-168 114.988,-123.327 165.583,-90.2522 191.757,-75.5046"/>
<polygon fill="midnightblue" stroke="midnightblue" points="100.166,-217.756 108.464,-224.344 106.086,-214.02 100.166,-217.756"/>
</g>
<!-- Node14&#45;&gt;Node15 -->
<g id="edge24" class="edge"><title>Node14&#45;&gt;Node15</title>
<path fill="none" stroke="midnightblue" d="M127.065,-215.855C133.645,-206.505 141.511,-195.327 146.842,-187.751"/>
<polygon fill="midnightblue" stroke="midnightblue" points="124.168,-213.891 121.275,-224.083 129.892,-217.919 124.168,-213.891"/>
</g>
<!-- Node17&#45;&gt;Node4 -->
<g id="edge32" class="edge"><title>Node17&#45;&gt;Node4</title>
<path fill="none" stroke="midnightblue" d="M782.897,-282.764C714.134,-276.302 623.474,-264.244 593,-244 550.434,-215.723 527.161,-154.604 519.694,-131.808"/>
<polygon fill="midnightblue" stroke="midnightblue" points="782.597,-286.251 792.874,-283.677 783.235,-279.28 782.597,-286.251"/>
</g>
<!-- Node17&#45;&gt;Node6 -->
<g id="edge30" class="edge"><title>Node17&#45;&gt;Node6</title>
<path fill="none" stroke="midnightblue" d="M823.81,-277.894C784.153,-267.697 726.23,-252.802 690.119,-243.516"/>
<polygon fill="midnightblue" stroke="midnightblue" points="823.168,-281.343 833.725,-280.444 824.912,-274.563 823.168,-281.343"/>
</g>
<!-- Node17&#45;&gt;Node7 -->
<g id="edge31" class="edge"><title>Node17&#45;&gt;Node7</title>
<path fill="none" stroke="midnightblue" d="M835.983,-275.667C823.009,-268.348 809.279,-257.892 802,-244 792.467,-225.806 796.994,-200.628 800.408,-187.593"/>
<polygon fill="midnightblue" stroke="midnightblue" points="834.704,-278.947 845.192,-280.447 837.928,-272.734 834.704,-278.947"/>
</g>
<!-- Node17&#45;&gt;Node8 -->
<g id="edge33" class="edge"><title>Node17&#45;&gt;Node8</title>
<path fill="none" stroke="midnightblue" d="M945.078,-277.626C965.638,-270.992 985.968,-260.519 1000,-244 1028.26,-210.733 1024.08,-153.154 1021.3,-131.533"/>
<polygon fill="midnightblue" stroke="midnightblue" points="943.922,-274.317 935.317,-280.497 945.898,-281.033 943.922,-274.317"/>
</g>
<!-- Node17&#45;&gt;Node9 -->
<g id="edge37" class="edge"><title>Node17&#45;&gt;Node9</title>
<path fill="none" stroke="midnightblue" d="M843.049,-275.242C828.375,-266.616 809.339,-255.069 793,-244 734.525,-204.386 668.089,-151.951 642.663,-131.592"/>
<polygon fill="midnightblue" stroke="midnightblue" points="841.587,-278.441 851.989,-280.454 845.113,-272.394 841.587,-278.441"/>
</g>
<!-- Node17&#45;&gt;Node13 -->
<g id="edge38" class="edge"><title>Node17&#45;&gt;Node13</title>
<path fill="none" stroke="midnightblue" d="M850.325,-272.879C838.874,-259.766 827.06,-240.755 835,-224 845.82,-201.167 868.18,-210.833 879,-188 882.806,-179.967 883.022,-175.927 879,-168 854.687,-120.077 795.769,-89.4307 763.333,-75.5874"/>
<polygon fill="midnightblue" stroke="midnightblue" points="847.824,-275.329 857.228,-280.209 852.92,-270.53 847.824,-275.329"/>
</g>
<!-- Node18 -->
<g id="node16" class="node"><title>Node18</title>
<g id="a_node16"><a xlink:href="audio__source_8cpp.html" target="_top" xlink:title="Implementation of the AudioSource class. ">
<polygon fill="white" stroke="black" points="844.5,-224.5 844.5,-243.5 991.5,-243.5 991.5,-224.5 844.5,-224.5"/>
<text text-anchor="middle" x="918" y="-231.5" font-family="Helvetica,sans-Serif" font-size="10.00">src/audio/audio_source.cpp</text>
</a>
</g>
</g>
<!-- Node17&#45;&gt;Node18 -->
<g id="edge34" class="edge"><title>Node17&#45;&gt;Node18</title>
<path fill="none" stroke="midnightblue" d="M882.378,-272.718C891.367,-263.2 902.359,-251.561 909.735,-243.751"/>
<polygon fill="midnightblue" stroke="midnightblue" points="879.743,-270.41 875.422,-280.083 884.832,-275.216 879.743,-270.41"/>
</g>
<!-- Node17&#45;&gt;Node19 -->
<g id="edge35" class="edge"><title>Node17&#45;&gt;Node19</title>
<path fill="none" stroke="midnightblue" d="M917.115,-278.346C965.117,-268.141 1036.62,-252.94 1080.94,-243.516"/>
<polygon fill="midnightblue" stroke="midnightblue" points="916.301,-274.94 907.247,-280.444 917.756,-281.787 916.301,-274.94"/>
</g>
<!-- Node17&#45;&gt;Node20 -->
<g id="edge36" class="edge"><title>Node17&#45;&gt;Node20</title>
<path fill="none" stroke="midnightblue" d="M944.026,-279.167C1023.89,-268.972 1147.46,-253.196 1223.29,-243.516"/>
<polygon fill="midnightblue" stroke="midnightblue" points="943.502,-275.705 934.026,-280.444 944.388,-282.649 943.502,-275.705"/>
</g>
</g>
</svg>
