<?xml version="1.0" encoding="UTF-8" standalone="no"?>
<!DOCTYPE svg PUBLIC "-//W3C//DTD SVG 1.1//EN"
 "http://www.w3.org/Graphics/SVG/1.1/DTD/svg11.dtd">
<!-- Generated by graphviz version 2.38.0 (20140413.2041)
 -->
<!-- Title: Graphical Class Hierarchy Pages: 1 -->
<svg width="162pt" height="180pt"
 viewBox="0.00 0.00 162.00 180.00" xmlns="http://www.w3.org/2000/svg" xmlns:xlink="http://www.w3.org/1999/xlink">
<g id="graph0" class="graph" transform="scale(1 1) rotate(0) translate(4 176)">
<title>Graphical Class Hierarchy</title>
<polygon fill="white" stroke="none" points="-4,4 -4,-176 158,-176 158,4 -4,4"/>
<!-- Node1 -->
<g id="node1" class="node"><title>Node1</title>
<g id="a_node1"><a xlink:href="classError.html" target="_top" xlink:title="A playd exception. ">
<polygon fill="white" stroke="black" points="0,-76.5 0,-95.5 41,-95.5 41,-76.5 0,-76.5"/>
<text text-anchor="middle" x="20.5" y="-83.5" font-family="Helvetica,sans-Serif" font-size="10.00">Error</text>
</a>
</g>
</g>
<!-- Node2 -->
<g id="node2" class="node"><title>Node2</title>
<g id="a_node2"><a xlink:href="classConfigError.html" target="_top" xlink:title="An Error signifying that playd has been improperly configured. ">
<polygon fill="white" stroke="black" points="80,-152.5 80,-171.5 151,-171.5 151,-152.5 80,-152.5"/>
<text text-anchor="middle" x="115.5" y="-159.5" font-family="Helvetica,sans-Serif" font-size="10.00">ConfigError</text>
</a>
</g>
</g>
<!-- Node1&#45;&gt;Node2 -->
<g id="edge1" class="edge"><title>Node1&#45;&gt;Node2</title>
<path fill="none" stroke="midnightblue" d="M35.8184,-103.515C46.3356,-115.631 61.4472,-131.568 77,-143 81.7046,-146.458 87.1309,-149.61 92.3684,-152.31"/>
<polygon fill="midnightblue" stroke="midnightblue" points="38.454,-101.211 29.3222,-95.839 33.1107,-105.733 38.454,-101.211"/>
</g>
<!-- Node3 -->
<g id="node3" class="node"><title>Node3</title>
<g id="a_node3"><a xlink:href="classFileError.html" target="_top" xlink:title="An Error signifying that playd can&#39;t read a file. ">
<polygon fill="white" stroke="black" points="87,-114.5 87,-133.5 144,-133.5 144,-114.5 87,-114.5"/>
<text text-anchor="middle" x="115.5" y="-121.5" font-family="Helvetica,sans-Serif" font-size="10.00">FileError</text>
</a>
</g>
</g>
<!-- Node1&#45;&gt;Node3 -->
<g id="edge2" class="edge"><title>Node1&#45;&gt;Node3</title>
<path fill="none" stroke="midnightblue" d="M50.7046,-97.9331C63.7524,-103.264 78.9189,-109.461 91.1897,-114.475"/>
<polygon fill="midnightblue" stroke="midnightblue" points="51.8038,-94.6014 41.2229,-94.0588 49.1561,-101.081 51.8038,-94.6014"/>
</g>
<!-- Node4 -->
<g id="node4" class="node"><title>Node4</title>
<g id="a_node4"><a xlink:href="classInternalError.html" target="_top" xlink:title="An Error signifying that playd has hit an internal snag. ">
<polygon fill="white" stroke="black" points="77,-76.5 77,-95.5 154,-95.5 154,-76.5 77,-76.5"/>
<text text-anchor="middle" x="115.5" y="-83.5" font-family="Helvetica,sans-Serif" font-size="10.00">InternalError</text>
</a>
</g>
</g>
<!-- Node1&#45;&gt;Node4 -->
<g id="edge3" class="edge"><title>Node1&#45;&gt;Node4</title>
<path fill="none" stroke="midnightblue" d="M51.3252,-86C59.4267,-86 68.3065,-86 76.7823,-86"/>
<polygon fill="midnightblue" stroke="midnightblue" points="51.2229,-82.5001 41.2229,-86 51.2229,-89.5001 51.2229,-82.5001"/>
</g>
<!-- Node5 -->
<g id="node5" class="node"><title>Node5</title>
<g id="a_node5"><a xlink:href="classNetError.html" target="_top" xlink:title="A network error. ">
<polygon fill="white" stroke="black" points="87,-38.5 87,-57.5 144,-57.5 144,-38.5 87,-38.5"/>
<text text-anchor="middle" x="115.5" y="-45.5" font-family="Helvetica,sans-Serif" font-size="10.00">NetError</text>
</a>
</g>
</g>
<!-- Node1&#45;&gt;Node5 -->
<g id="edge4" class="edge"><title>Node1&#45;&gt;Node5</title>
<path fill="none" stroke="midnightblue" d="M50.7046,-74.0669C63.7524,-68.7356 78.9189,-62.5385 91.1897,-57.5246"/>
<polygon fill="midnightblue" stroke="midnightblue" points="49.1561,-70.9187 41.2229,-77.9412 51.8038,-77.3986 49.1561,-70.9187"/>
</g>
<!-- Node6 -->
<g id="node6" class="node"><title>Node6</title>
<g id="a_node6"><a xlink:href="classSeekError.html" target="_top" xlink:title="An Error signifying that playd can&#39;t seek in a file. ">
<polygon fill="white" stroke="black" points="83,-0.5 83,-19.5 148,-19.5 148,-0.5 83,-0.5"/>
<text text-anchor="middle" x="115.5" y="-7.5" font-family="Helvetica,sans-Serif" font-size="10.00">SeekError</text>
</a>
</g>
</g>
<!-- Node1&#45;&gt;Node6 -->
<g id="edge5" class="edge"><title>Node1&#45;&gt;Node6</title>
<path fill="none" stroke="midnightblue" d="M35.8184,-68.4852C46.3356,-56.3686 61.4472,-40.4317 77,-29 81.7046,-25.542 87.1309,-22.3898 92.3684,-19.69"/>
<polygon fill="midnightblue" stroke="midnightblue" points="33.1107,-66.2667 29.3222,-76.161 38.454,-70.7888 33.1107,-66.2667"/>
</g>
</g>
</svg>
