<?xml version="1.0" encoding="UTF-8" standalone="no"?>
<!DOCTYPE svg PUBLIC "-//W3C//DTD SVG 1.1//EN"
 "http://www.w3.org/Graphics/SVG/1.1/DTD/svg11.dtd">
<!-- Generated by graphviz version 2.38.0 (20140413.2041)
 -->
<!-- Title: Graphical Class Hierarchy Pages: 1 -->
<svg width="160pt" height="180pt"
 viewBox="0.00 0.00 160.00 180.00" xmlns="http://www.w3.org/2000/svg" xmlns:xlink="http://www.w3.org/1999/xlink">
<g id="graph0" class="graph" transform="scale(1 1) rotate(0) translate(4 176)">
<title>Graphical Class Hierarchy</title>
<polygon fill="white" stroke="none" points="-4,4 -4,-176 156,-176 156,4 -4,4"/>
<!-- Node1 -->
<g id="node1" class="node"><title>Node1</title>
<g id="a_node1"><a xlink:href="classError.html" target="_top" xlink:title="A playd exception. ">
<polygon fill="white" stroke="black" points="0,-76.5 0,-95.5 40,-95.5 40,-76.5 0,-76.5"/>
<text text-anchor="middle" x="20" y="-83.5" font-family="Helvetica,sans-Serif" font-size="10.00">Error</text>
</a>
</g>
</g>
<!-- Node2 -->
<g id="node2" class="node"><title>Node2</title>
<g id="a_node2"><a xlink:href="classConfigError.html" target="_top" xlink:title="An Error signifying that playd has been improperly configured. ">
<polygon fill="white" stroke="black" points="79,-152.5 79,-171.5 149,-171.5 149,-152.5 79,-152.5"/>
<text text-anchor="middle" x="114" y="-159.5" font-family="Helvetica,sans-Serif" font-size="10.00">ConfigError</text>
</a>
</g>
</g>
<!-- Node1&#45;&gt;Node2 -->
<g id="edge1" class="edge"><title>Node1&#45;&gt;Node2</title>
<path fill="none" stroke="midnightblue" d="M35.1799,-103.498C45.5981,-115.607 60.5721,-131.541 76,-143 80.7536,-146.531 86.2581,-149.749 91.5448,-152.492"/>
<polygon fill="midnightblue" stroke="midnightblue" points="37.8541,-101.24 28.7457,-95.8283 32.4913,-105.739 37.8541,-101.24"/>
</g>
<!-- Node3 -->
<g id="node3" class="node"><title>Node3</title>
<g id="a_node3"><a xlink:href="classFileError.html" target="_top" xlink:title="An Error signifying that playd can&#39;t read a file. ">
<polygon fill="white" stroke="black" points="86.5,-114.5 86.5,-133.5 141.5,-133.5 141.5,-114.5 86.5,-114.5"/>
<text text-anchor="middle" x="114" y="-121.5" font-family="Helvetica,sans-Serif" font-size="10.00">FileError</text>
</a>
</g>
</g>
<!-- Node1&#45;&gt;Node3 -->
<g id="edge2" class="edge"><title>Node1&#45;&gt;Node3</title>
<path fill="none" stroke="midnightblue" d="M49.4418,-97.7477C62.3714,-103.088 77.4785,-109.328 89.7195,-114.384"/>
<polygon fill="midnightblue" stroke="midnightblue" points="50.6413,-94.4564 40.0625,-93.8736 47.9689,-100.926 50.6413,-94.4564"/>
</g>
<!-- Node4 -->
<g id="node4" class="node"><title>Node4</title>
<g id="a_node4"><a xlink:href="classInternalError.html" target="_top" xlink:title="An Error signifying that playd has hit an internal snag. ">
<polygon fill="white" stroke="black" points="76,-76.5 76,-95.5 152,-95.5 152,-76.5 76,-76.5"/>
<text text-anchor="middle" x="114" y="-83.5" font-family="Helvetica,sans-Serif" font-size="10.00">InternalError</text>
</a>
</g>
</g>
<!-- Node1&#45;&gt;Node4 -->
<g id="edge3" class="edge"><title>Node1&#45;&gt;Node4</title>
<path fill="none" stroke="midnightblue" d="M50.1657,-86C58.2854,-86 67.2167,-86 75.7334,-86"/>
<polygon fill="midnightblue" stroke="midnightblue" points="50.0625,-82.5001 40.0625,-86 50.0624,-89.5001 50.0625,-82.5001"/>
</g>
<!-- Node5 -->
<g id="node5" class="node"><title>Node5</title>
<g id="a_node5"><a xlink:href="classNetError.html" target="_top" xlink:title="A network error. ">
<polygon fill="white" stroke="black" points="85.5,-38.5 85.5,-57.5 142.5,-57.5 142.5,-38.5 85.5,-38.5"/>
<text text-anchor="middle" x="114" y="-45.5" font-family="Helvetica,sans-Serif" font-size="10.00">NetError</text>
</a>
</g>
</g>
<!-- Node1&#45;&gt;Node5 -->
<g id="edge4" class="edge"><title>Node1&#45;&gt;Node5</title>
<path fill="none" stroke="midnightblue" d="M49.4418,-74.2523C62.3714,-68.9118 77.4785,-62.6719 89.7195,-57.6159"/>
<polygon fill="midnightblue" stroke="midnightblue" points="47.9689,-71.0738 40.0625,-78.1264 50.6413,-77.5436 47.9689,-71.0738"/>
</g>
<!-- Node6 -->
<g id="node6" class="node"><title>Node6</title>
<g id="a_node6"><a xlink:href="classSeekError.html" target="_top" xlink:title="An Error signifying that playd can&#39;t seek in a file. ">
<polygon fill="white" stroke="black" points="82,-0.5 82,-19.5 146,-19.5 146,-0.5 82,-0.5"/>
<text text-anchor="middle" x="114" y="-7.5" font-family="Helvetica,sans-Serif" font-size="10.00">SeekError</text>
</a>
</g>
</g>
<!-- Node1&#45;&gt;Node6 -->
<g id="edge5" class="edge"><title>Node1&#45;&gt;Node6</title>
<path fill="none" stroke="midnightblue" d="M35.1799,-68.5019C45.5981,-56.3931 60.5721,-40.4586 76,-29 80.7536,-25.4694 86.2581,-22.2512 91.5448,-19.5075"/>
<polygon fill="midnightblue" stroke="midnightblue" points="32.4913,-66.261 28.7457,-76.1717 37.8541,-70.76 32.4913,-66.261"/>
</g>
</g>
</svg>
