<?xml version="1.0" encoding="UTF-8" standalone="no"?>
<!DOCTYPE svg PUBLIC "-//W3C//DTD SVG 1.1//EN"
 "http://www.w3.org/Graphics/SVG/1.1/DTD/svg11.dtd">
<!-- Generated by graphviz version 2.36.0 (20140111.2315)
 -->
<!-- Title: Graphical Class Hierarchy Pages: 1 -->
<svg width="164pt" height="218pt"
 viewBox="0.00 0.00 164.00 218.00" xmlns="http://www.w3.org/2000/svg" xmlns:xlink="http://www.w3.org/1999/xlink">
<g id="graph0" class="graph" transform="scale(1 1) rotate(0) translate(4 214)">
<title>Graphical Class Hierarchy</title>
<polygon fill="white" stroke="none" points="-4,4 -4,-214 160,-214 160,4 -4,4"/>
<!-- Node0 -->
<g id="node1" class="node"><title>Node0</title>
<g id="a_node1"><a xlink:href="classError.html" target="_top" xlink:title="A playd exception. ">
<polygon fill="white" stroke="black" points="0,-95.5 0,-114.5 40,-114.5 40,-95.5 0,-95.5"/>
<text text-anchor="middle" x="20" y="-102.5" font-family="Helvetica,sans-Serif" font-size="10.00">Error</text>
</a>
</g>
</g>
<!-- Node1 -->
<g id="node2" class="node"><title>Node1</title>
<g id="a_node2"><a xlink:href="classConfigError.html" target="_top" xlink:title="An Error signifying that playd has been improperly configured. ">
<polygon fill="white" stroke="black" points="81,-190.5 81,-209.5 151,-209.5 151,-190.5 81,-190.5"/>
<text text-anchor="middle" x="116" y="-197.5" font-family="Helvetica,sans-Serif" font-size="10.00">ConfigError</text>
</a>
</g>
</g>
<!-- Node0&#45;&gt;Node1 -->
<g id="edge1" class="edge"><title>Node0&#45;&gt;Node1</title>
<path fill="none" stroke="midnightblue" d="M30.8122,-123.414C40.4865,-140.171 56.6124,-164.708 76,-181 80.3822,-184.682 85.5998,-187.853 90.7704,-190.491"/>
<polygon fill="midnightblue" stroke="midnightblue" points="33.809,-121.602 25.8856,-114.568 27.6934,-125.008 33.809,-121.602"/>
</g>
<!-- Node2 -->
<g id="node3" class="node"><title>Node2</title>
<g id="a_node3"><a xlink:href="classFileError.html" target="_top" xlink:title="An Error signifying that playd can&#39;t read a file. ">
<polygon fill="white" stroke="black" points="88.5,-152.5 88.5,-171.5 143.5,-171.5 143.5,-152.5 88.5,-152.5"/>
<text text-anchor="middle" x="116" y="-159.5" font-family="Helvetica,sans-Serif" font-size="10.00">FileError</text>
</a>
</g>
</g>
<!-- Node0&#45;&gt;Node2 -->
<g id="edge2" class="edge"><title>Node0&#45;&gt;Node2</title>
<path fill="none" stroke="midnightblue" d="M41.9235,-120.565C51.9913,-127.765 64.3755,-136.205 76,-143 81.5919,-146.269 87.8281,-149.485 93.6446,-152.316"/>
<polygon fill="midnightblue" stroke="midnightblue" points="43.8981,-117.674 33.7496,-114.631 39.7855,-123.338 43.8981,-117.674"/>
</g>
<!-- Node3 -->
<g id="node4" class="node"><title>Node3</title>
<g id="a_node4"><a xlink:href="classInternalError.html" target="_top" xlink:title="An Error signifying that playd has hit an internal snag. ">
<polygon fill="white" stroke="black" points="78,-114.5 78,-133.5 154,-133.5 154,-114.5 78,-114.5"/>
<text text-anchor="middle" x="116" y="-121.5" font-family="Helvetica,sans-Serif" font-size="10.00">InternalError</text>
</a>
</g>
</g>
<!-- Node0&#45;&gt;Node3 -->
<g id="edge3" class="edge"><title>Node0&#45;&gt;Node3</title>
<path fill="none" stroke="midnightblue" d="M50.1015,-110.882C58.8416,-112.649 68.5524,-114.612 77.7432,-116.469"/>
<polygon fill="midnightblue" stroke="midnightblue" points="50.5175,-107.396 40.0223,-108.845 49.1306,-114.257 50.5175,-107.396"/>
</g>
<!-- Node4 -->
<g id="node5" class="node"><title>Node4</title>
<g id="a_node5"><a xlink:href="classNetError.html" target="_top" xlink:title="A network error. ">
<polygon fill="white" stroke="black" points="87.5,-76.5 87.5,-95.5 144.5,-95.5 144.5,-76.5 87.5,-76.5"/>
<text text-anchor="middle" x="116" y="-83.5" font-family="Helvetica,sans-Serif" font-size="10.00">NetError</text>
</a>
</g>
</g>
<!-- Node0&#45;&gt;Node4 -->
<g id="edge4" class="edge"><title>Node0&#45;&gt;Node4</title>
<path fill="none" stroke="midnightblue" d="M49.9476,-99.1489C61.888,-96.7354 75.6614,-93.9514 87.4518,-91.5682"/>
<polygon fill="midnightblue" stroke="midnightblue" points="49.1306,-95.7432 40.0223,-101.155 50.5175,-102.604 49.1306,-95.7432"/>
</g>
<!-- Node5 -->
<g id="node6" class="node"><title>Node5</title>
<g id="a_node6"><a xlink:href="classNoAudioError.html" target="_top" xlink:title="An Error signifying that no audio is loaded. ">
<polygon fill="white" stroke="black" points="76,-38.5 76,-57.5 156,-57.5 156,-38.5 76,-38.5"/>
<text text-anchor="middle" x="116" y="-45.5" font-family="Helvetica,sans-Serif" font-size="10.00">NoAudioError</text>
</a>
</g>
</g>
<!-- Node0&#45;&gt;Node5 -->
<g id="edge5" class="edge"><title>Node0&#45;&gt;Node5</title>
<path fill="none" stroke="midnightblue" d="M41.9235,-89.4345C51.9913,-82.2354 64.3755,-73.7949 76,-67 81.5919,-63.7313 87.8281,-60.5146 93.6446,-57.6837"/>
<polygon fill="midnightblue" stroke="midnightblue" points="39.7855,-86.6615 33.7496,-95.3689 43.8981,-92.3261 39.7855,-86.6615"/>
</g>
<!-- Node6 -->
<g id="node7" class="node"><title>Node6</title>
<g id="a_node7"><a xlink:href="classSeekError.html" target="_top" xlink:title="An Error signifying that playd can&#39;t seek in a file. ">
<polygon fill="white" stroke="black" points="84,-0.5 84,-19.5 148,-19.5 148,-0.5 84,-0.5"/>
<text text-anchor="middle" x="116" y="-7.5" font-family="Helvetica,sans-Serif" font-size="10.00">SeekError</text>
</a>
</g>
</g>
<!-- Node0&#45;&gt;Node6 -->
<g id="edge6" class="edge"><title>Node0&#45;&gt;Node6</title>
<path fill="none" stroke="midnightblue" d="M30.8122,-86.5859C40.4865,-69.829 56.6124,-45.2917 76,-29 80.3822,-25.3175 85.5998,-22.147 90.7704,-19.5089"/>
<polygon fill="midnightblue" stroke="midnightblue" points="27.6934,-84.9924 25.8856,-95.4319 33.809,-88.3984 27.6934,-84.9924"/>
</g>
</g>
</svg>
