<?xml version="1.0" encoding="UTF-8" standalone="no"?>
<!DOCTYPE svg PUBLIC "-//W3C//DTD SVG 1.1//EN"
 "http://www.w3.org/Graphics/SVG/1.1/DTD/svg11.dtd">
<!-- Generated by graphviz version 2.38.0 (20140413.2041)
 -->
<!-- Title: Graphical Class Hierarchy Pages: 1 -->
<svg width="162pt" height="142pt"
 viewBox="0.00 0.00 162.00 142.00" xmlns="http://www.w3.org/2000/svg" xmlns:xlink="http://www.w3.org/1999/xlink">
<g id="graph0" class="graph" transform="scale(1 1) rotate(0) translate(4 138)">
<title>Graphical Class Hierarchy</title>
<polygon fill="white" stroke="none" points="-4,4 -4,-138 158,-138 158,4 -4,4"/>
<!-- Node1 -->
<g id="node1" class="node"><title>Node1</title>
<g id="a_node1"><a xlink:href="classError.html" target="_top" xlink:title="A playd exception. ">
<polygon fill="white" stroke="black" points="0,-57.5 0,-76.5 41,-76.5 41,-57.5 0,-57.5"/>
<text text-anchor="middle" x="20.5" y="-64.5" font-family="Helvetica,sans-Serif" font-size="10.00">Error</text>
</a>
</g>
</g>
<!-- Node2 -->
<g id="node2" class="node"><title>Node2</title>
<g id="a_node2"><a xlink:href="classConfigError.html" target="_top" xlink:title="An Error signifying that playd has been improperly configured. ">
<polygon fill="white" stroke="black" points="80,-114.5 80,-133.5 151,-133.5 151,-114.5 80,-114.5"/>
<text text-anchor="middle" x="115.5" y="-121.5" font-family="Helvetica,sans-Serif" font-size="10.00">ConfigError</text>
</a>
</g>
</g>
<!-- Node1&#45;&gt;Node2 -->
<g id="edge1" class="edge"><title>Node1&#45;&gt;Node2</title>
<path fill="none" stroke="midnightblue" d="M42.6794,-82.4682C52.8531,-89.646 65.343,-98.0966 77,-105 82.5262,-108.273 88.6843,-111.54 94.3869,-114.42"/>
<polygon fill="midnightblue" stroke="midnightblue" points="44.5846,-79.5278 34.4141,-76.559 40.5134,-85.2222 44.5846,-79.5278"/>
</g>
<!-- Node3 -->
<g id="node3" class="node"><title>Node3</title>
<g id="a_node3"><a xlink:href="classFileError.html" target="_top" xlink:title="An Error signifying that playd can&#39;t read a file. ">
<polygon fill="white" stroke="black" points="87,-76.5 87,-95.5 144,-95.5 144,-76.5 87,-76.5"/>
<text text-anchor="middle" x="115.5" y="-83.5" font-family="Helvetica,sans-Serif" font-size="10.00">FileError</text>
</a>
</g>
</g>
<!-- Node1&#45;&gt;Node3 -->
<g id="edge2" class="edge"><title>Node1&#45;&gt;Node3</title>
<path fill="none" stroke="midnightblue" d="M51.148,-73.0571C62.5357,-75.3836 75.4827,-78.0287 86.6914,-80.3187"/>
<polygon fill="midnightblue" stroke="midnightblue" points="51.7211,-69.602 41.2229,-71.0294 50.3199,-76.4603 51.7211,-69.602"/>
</g>
<!-- Node4 -->
<g id="node4" class="node"><title>Node4</title>
<g id="a_node4"><a xlink:href="classInternalError.html" target="_top" xlink:title="An Error signifying that playd has hit an internal snag. ">
<polygon fill="white" stroke="black" points="77,-38.5 77,-57.5 154,-57.5 154,-38.5 77,-38.5"/>
<text text-anchor="middle" x="115.5" y="-45.5" font-family="Helvetica,sans-Serif" font-size="10.00">InternalError</text>
</a>
</g>
</g>
<!-- Node1&#45;&gt;Node4 -->
<g id="edge3" class="edge"><title>Node1&#45;&gt;Node4</title>
<path fill="none" stroke="midnightblue" d="M51.0524,-60.9624C59.2271,-59.2923 68.2112,-57.4568 76.7823,-55.7058"/>
<polygon fill="midnightblue" stroke="midnightblue" points="50.3199,-57.5397 41.2229,-62.9706 51.7211,-64.398 50.3199,-57.5397"/>
</g>
<!-- Node5 -->
<g id="node5" class="node"><title>Node5</title>
<g id="a_node5"><a xlink:href="classSeekError.html" target="_top" xlink:title="An Error signifying that playd can&#39;t seek in a file. ">
<polygon fill="white" stroke="black" points="83,-0.5 83,-19.5 148,-19.5 148,-0.5 83,-0.5"/>
<text text-anchor="middle" x="115.5" y="-7.5" font-family="Helvetica,sans-Serif" font-size="10.00">SeekError</text>
</a>
</g>
</g>
<!-- Node1&#45;&gt;Node5 -->
<g id="edge4" class="edge"><title>Node1&#45;&gt;Node5</title>
<path fill="none" stroke="midnightblue" d="M42.6794,-51.5318C52.8531,-44.354 65.343,-35.9034 77,-29 82.5262,-25.7273 88.6843,-22.4595 94.3869,-19.5799"/>
<polygon fill="midnightblue" stroke="midnightblue" points="40.5134,-48.7778 34.4141,-57.441 44.5846,-54.4722 40.5134,-48.7778"/>
</g>
</g>
</svg>
