<?xml version="1.0" encoding="UTF-8" standalone="no"?>
<!DOCTYPE svg PUBLIC "-//W3C//DTD SVG 1.1//EN"
 "http://www.w3.org/Graphics/SVG/1.1/DTD/svg11.dtd">
<!-- Generated by graphviz version 2.38.0 (20140413.2041)
 -->
<!-- Title: Graphical Class Hierarchy Pages: 1 -->
<svg width="223pt" height="104pt"
 viewBox="0.00 0.00 223.00 104.00" xmlns="http://www.w3.org/2000/svg" xmlns:xlink="http://www.w3.org/1999/xlink">
<g id="graph0" class="graph" transform="scale(1 1) rotate(0) translate(4 100)">
<title>Graphical Class Hierarchy</title>
<polygon fill="white" stroke="none" points="-4,4 -4,-100 219,-100 219,4 -4,4"/>
<!-- Node1 -->
<g id="node1" class="node"><title>Node1</title>
<g id="a_node1"><a xlink:href="classResponseSource.html" target="_top" xlink:title="Abstract helper class for sources of responses. ">
<polygon fill="white" stroke="black" points="0,-38.5 0,-57.5 96,-57.5 96,-38.5 0,-38.5"/>
<text text-anchor="middle" x="48" y="-45.5" font-family="Helvetica,sans-Serif" font-size="10.00">ResponseSource</text>
</a>
</g>
</g>
<!-- Node2 -->
<g id="node2" class="node"><title>Node2</title>
<g id="a_node2"><a xlink:href="classPlayerFile.html" target="_top" xlink:title="The subcomponent of a Player that stores the audio file. ">
<polygon fill="white" stroke="black" points="143,-76.5 143,-95.5 204,-95.5 204,-76.5 143,-76.5"/>
<text text-anchor="middle" x="173.5" y="-83.5" font-family="Helvetica,sans-Serif" font-size="10.00">PlayerFile</text>
</a>
</g>
</g>
<!-- Node1&#45;&gt;Node2 -->
<g id="edge1" class="edge"><title>Node1&#45;&gt;Node2</title>
<path fill="none" stroke="midnightblue" d="M89.9664,-60.605C107.173,-65.8995 126.818,-71.944 142.624,-76.8073"/>
<polygon fill="midnightblue" stroke="midnightblue" points="90.7514,-57.1847 80.1643,-57.589 88.6927,-63.8752 90.7514,-57.1847"/>
</g>
<!-- Node3 -->
<g id="node3" class="node"><title>Node3</title>
<g id="a_node3"><a xlink:href="classPlayerPosition.html" target="_top" xlink:title="Tracker and broadcaster for the Player&#39;s current position in a song. ">
<polygon fill="white" stroke="black" points="132,-38.5 132,-57.5 215,-57.5 215,-38.5 132,-38.5"/>
<text text-anchor="middle" x="173.5" y="-45.5" font-family="Helvetica,sans-Serif" font-size="10.00">PlayerPosition</text>
</a>
</g>
</g>
<!-- Node1&#45;&gt;Node3 -->
<g id="edge2" class="edge"><title>Node1&#45;&gt;Node3</title>
<path fill="none" stroke="midnightblue" d="M106.073,-48C114.699,-48 123.449,-48 131.642,-48"/>
<polygon fill="midnightblue" stroke="midnightblue" points="106.042,-44.5001 96.0424,-48 106.042,-51.5001 106.042,-44.5001"/>
</g>
<!-- Node4 -->
<g id="node4" class="node"><title>Node4</title>
<g id="a_node4"><a xlink:href="classPlayerState.html" target="_top" xlink:title="An object holding and representing the current state of a Player. ">
<polygon fill="white" stroke="black" points="137.5,-0.5 137.5,-19.5 209.5,-19.5 209.5,-0.5 137.5,-0.5"/>
<text text-anchor="middle" x="173.5" y="-7.5" font-family="Helvetica,sans-Serif" font-size="10.00">PlayerState</text>
</a>
</g>
</g>
<!-- Node1&#45;&gt;Node4 -->
<g id="edge3" class="edge"><title>Node1&#45;&gt;Node4</title>
<path fill="none" stroke="midnightblue" d="M89.7397,-35.4647C106.54,-30.2952 125.697,-24.4009 141.346,-19.5859"/>
<polygon fill="midnightblue" stroke="midnightblue" points="88.6927,-32.1248 80.1643,-38.411 90.7514,-38.8153 88.6927,-32.1248"/>
</g>
</g>
</svg>
