<?xml version="1.0" encoding="UTF-8" standalone="no"?>
<!DOCTYPE svg PUBLIC "-//W3C//DTD SVG 1.1//EN"
 "http://www.w3.org/Graphics/SVG/1.1/DTD/svg11.dtd">
<!-- Generated by graphviz version 2.36.0 (20140111.2315)
 -->
<!-- Title: src/io.hpp Pages: 1 -->
<svg width="1111pt" height="376pt"
 viewBox="0.00 0.00 1110.74 376.00" xmlns="http://www.w3.org/2000/svg" xmlns:xlink="http://www.w3.org/1999/xlink">
<g id="graph0" class="graph" transform="scale(1 1) rotate(0) translate(4 372)">
<title>src/io.hpp</title>
<polygon fill="white" stroke="none" points="-4,4 -4,-372 1106.74,-372 1106.74,4 -4,4"/>
<!-- Node0 -->
<g id="node1" class="node"><title>Node0</title>
<polygon fill="#bfbfbf" stroke="black" points="304.5,-348.5 304.5,-367.5 367.5,-367.5 367.5,-348.5 304.5,-348.5"/>
<text text-anchor="middle" x="336" y="-355.5" font-family="Helvetica,sans-Serif" font-size="10.00">src/io.hpp</text>
</g>
<!-- Node1 -->
<g id="node2" class="node"><title>Node1</title>
<polygon fill="white" stroke="#bfbfbf" points="-0.5,-56.5 -0.5,-75.5 56.5,-75.5 56.5,-56.5 -0.5,-56.5"/>
<text text-anchor="middle" x="28" y="-63.5" font-family="Helvetica,sans-Serif" font-size="10.00">ostream</text>
</g>
<!-- Node0&#45;&gt;Node1 -->
<g id="edge1" class="edge"><title>Node0&#45;&gt;Node1</title>
<path fill="none" stroke="midnightblue" d="M304.391,-352.237C227.697,-339.792 38,-303.32 38,-247 38,-247 38,-247 38,-189 38,-152.291 33.4472,-109.576 30.4856,-85.6734"/>
<polygon fill="midnightblue" stroke="midnightblue" points="33.932,-85.0317 29.1864,-75.5591 26.989,-85.9235 33.932,-85.0317"/>
</g>
<!-- Node2 -->
<g id="node3" class="node"><title>Node2</title>
<polygon fill="white" stroke="#bfbfbf" points="450,-292.5 450,-311.5 482,-311.5 482,-292.5 450,-292.5"/>
<text text-anchor="middle" x="466" y="-299.5" font-family="Helvetica,sans-Serif" font-size="10.00">set</text>
</g>
<!-- Node0&#45;&gt;Node2 -->
<g id="edge2" class="edge"><title>Node0&#45;&gt;Node2</title>
<path fill="none" stroke="midnightblue" d="M356.599,-348.444C379.252,-339.034 415.687,-323.899 440.219,-313.709"/>
<polygon fill="midnightblue" stroke="midnightblue" points="441.721,-316.875 449.614,-309.807 439.036,-310.411 441.721,-316.875"/>
</g>
<!-- Node3 -->
<g id="node4" class="node"><title>Node3</title>
<polygon fill="white" stroke="#bfbfbf" points="500,-292.5 500,-311.5 536,-311.5 536,-292.5 500,-292.5"/>
<text text-anchor="middle" x="518" y="-299.5" font-family="Helvetica,sans-Serif" font-size="10.00">uv.h</text>
</g>
<!-- Node0&#45;&gt;Node3 -->
<g id="edge3" class="edge"><title>Node0&#45;&gt;Node3</title>
<path fill="none" stroke="midnightblue" d="M366.692,-348.472C396.081,-340.223 441.884,-327.148 490.067,-312.209"/>
<polygon fill="midnightblue" stroke="midnightblue" points="491.226,-315.514 499.731,-309.197 489.143,-308.831 491.226,-315.514"/>
</g>
<!-- Node4 -->
<g id="node5" class="node"><title>Node4</title>
<g id="a_node5"><a xlink:href="player_8hpp.html" target="_top" xlink:title="Declaration of the Player class, and associated types. ">
<polygon fill="white" stroke="black" points="366,-292.5 366,-311.5 432,-311.5 432,-292.5 366,-292.5"/>
<text text-anchor="middle" x="399" y="-299.5" font-family="Helvetica,sans-Serif" font-size="10.00">player.hpp</text>
</a>
</g>
</g>
<!-- Node0&#45;&gt;Node4 -->
<g id="edge4" class="edge"><title>Node0&#45;&gt;Node4</title>
<path fill="none" stroke="midnightblue" d="M346.122,-348.324C355.526,-340.263 369.744,-328.077 381.069,-318.369"/>
<polygon fill="midnightblue" stroke="midnightblue" points="383.379,-320.999 388.694,-311.834 378.823,-315.684 383.379,-320.999"/>
</g>
<!-- Node16 -->
<g id="node17" class="node"><title>Node16</title>
<g id="a_node17"><a xlink:href="response_8hpp.html" target="_top" xlink:title="Declaration of classes pertaining to responses to the client. ">
<polygon fill="white" stroke="black" points="184.5,-118.5 184.5,-137.5 275.5,-137.5 275.5,-118.5 184.5,-118.5"/>
<text text-anchor="middle" x="230" y="-125.5" font-family="Helvetica,sans-Serif" font-size="10.00">../response.hpp</text>
</a>
</g>
</g>
<!-- Node0&#45;&gt;Node16 -->
<g id="edge51" class="edge"><title>Node0&#45;&gt;Node16</title>
<path fill="none" stroke="midnightblue" d="M308.396,-348.414C271.414,-335.245 207.284,-306.168 180,-256 159.442,-218.199 193.207,-170.125 214.572,-145.371"/>
<polygon fill="midnightblue" stroke="midnightblue" points="217.432,-147.424 221.503,-137.643 212.221,-142.751 217.432,-147.424"/>
</g>
<!-- Node24 -->
<g id="node25" class="node"><title>Node24</title>
<g id="a_node25"><a xlink:href="tokeniser_8hpp.html" target="_top" xlink:title="Declaration of the Tokeniser class. ">
<polygon fill="white" stroke="black" points="189.5,-236.5 189.5,-255.5 270.5,-255.5 270.5,-236.5 189.5,-236.5"/>
<text text-anchor="middle" x="230" y="-243.5" font-family="Helvetica,sans-Serif" font-size="10.00">tokeniser.hpp</text>
</a>
</g>
</g>
<!-- Node0&#45;&gt;Node24 -->
<g id="edge52" class="edge"><title>Node0&#45;&gt;Node24</title>
<path fill="none" stroke="midnightblue" d="M327.682,-348.368C309.957,-329.974 268.229,-286.671 245.468,-263.052"/>
<polygon fill="midnightblue" stroke="midnightblue" points="247.738,-260.364 238.279,-255.591 242.698,-265.221 247.738,-260.364"/>
</g>
<!-- Node5 -->
<g id="node6" class="node"><title>Node5</title>
<polygon fill="white" stroke="#bfbfbf" points="422.5,-0.5 422.5,-19.5 471.5,-19.5 471.5,-0.5 422.5,-0.5"/>
<text text-anchor="middle" x="447" y="-7.5" font-family="Helvetica,sans-Serif" font-size="10.00">cstdint</text>
</g>
<!-- Node4&#45;&gt;Node5 -->
<g id="edge5" class="edge"><title>Node4&#45;&gt;Node5</title>
<path fill="none" stroke="midnightblue" d="M365.716,-299.873C318.493,-297.143 230.311,-287.819 163,-256 122.203,-236.715 85,-236.126 85,-191 85,-191 85,-191 85,-127 85,-92.2025 90.0025,-76.6641 118,-56 141.416,-38.7171 332.598,-20.7003 412.308,-13.8611"/>
<polygon fill="midnightblue" stroke="midnightblue" points="412.677,-17.3424 422.345,-13.0085 412.084,-10.3675 412.677,-17.3424"/>
</g>
<!-- Node6 -->
<g id="node7" class="node"><title>Node6</title>
<polygon fill="white" stroke="#bfbfbf" points="288.5,-236.5 288.5,-255.5 351.5,-255.5 351.5,-236.5 288.5,-236.5"/>
<text text-anchor="middle" x="320" y="-243.5" font-family="Helvetica,sans-Serif" font-size="10.00">functional</text>
</g>
<!-- Node4&#45;&gt;Node6 -->
<g id="edge6" class="edge"><title>Node4&#45;&gt;Node6</title>
<path fill="none" stroke="midnightblue" d="M386.307,-292.324C374.099,-283.979 355.422,-271.212 340.997,-261.352"/>
<polygon fill="midnightblue" stroke="midnightblue" points="342.892,-258.408 332.661,-255.655 338.942,-264.187 342.892,-258.408"/>
</g>
<!-- Node7 -->
<g id="node8" class="node"><title>Node7</title>
<polygon fill="white" stroke="#bfbfbf" points="127,-56.5 127,-75.5 165,-75.5 165,-56.5 127,-56.5"/>
<text text-anchor="middle" x="146" y="-63.5" font-family="Helvetica,sans-Serif" font-size="10.00">map</text>
</g>
<!-- Node4&#45;&gt;Node7 -->
<g id="edge7" class="edge"><title>Node4&#45;&gt;Node7</title>
<path fill="none" stroke="midnightblue" d="M365.81,-298.653C311.08,-294.079 205.412,-282.046 180,-256 134.426,-209.287 138.669,-123.506 143.19,-85.7164"/>
<polygon fill="midnightblue" stroke="midnightblue" points="146.683,-86.0029 144.548,-75.6256 139.746,-85.0697 146.683,-86.0029"/>
</g>
<!-- Node8 -->
<g id="node9" class="node"><title>Node8</title>
<polygon fill="white" stroke="#bfbfbf" points="900.5,-56.5 900.5,-75.5 957.5,-75.5 957.5,-56.5 900.5,-56.5"/>
<text text-anchor="middle" x="929" y="-63.5" font-family="Helvetica,sans-Serif" font-size="10.00">memory</text>
</g>
<!-- Node4&#45;&gt;Node8 -->
<g id="edge8" class="edge"><title>Node4&#45;&gt;Node8</title>
<path fill="none" stroke="midnightblue" d="M432.402,-293.448C435.301,-292.912 438.197,-292.419 441,-292 625.413,-264.411 686.103,-325.829 859,-256 922.833,-230.219 945.781,-209.807 966,-144 970.177,-130.405 970.797,-125.389 966,-112 962.059,-101.003 954.143,-90.7688 946.64,-82.8479"/>
<polygon fill="midnightblue" stroke="midnightblue" points="949.019,-80.2784 939.438,-75.7555 944.108,-85.2659 949.019,-80.2784"/>
</g>
<!-- Node9 -->
<g id="node10" class="node"><title>Node9</title>
<polygon fill="white" stroke="#bfbfbf" points="320,-56.5 320,-75.5 364,-75.5 364,-56.5 320,-56.5"/>
<text text-anchor="middle" x="342" y="-63.5" font-family="Helvetica,sans-Serif" font-size="10.00">string</text>
</g>
<!-- Node4&#45;&gt;Node9 -->
<g id="edge9" class="edge"><title>Node4&#45;&gt;Node9</title>
<path fill="none" stroke="midnightblue" d="M396.937,-292.098C393.959,-279.511 388.138,-255.834 382,-236 369.158,-194.502 358.375,-186.416 349,-144 344.664,-124.383 343.005,-101.384 342.376,-85.6631"/>
<polygon fill="midnightblue" stroke="midnightblue" points="345.874,-85.5452 342.075,-75.6547 338.877,-85.7553 345.874,-85.5452"/>
</g>
<!-- Node10 -->
<g id="node11" class="node"><title>Node10</title>
<polygon fill="white" stroke="#bfbfbf" points="900,-118.5 900,-137.5 942,-137.5 942,-118.5 900,-118.5"/>
<text text-anchor="middle" x="921" y="-125.5" font-family="Helvetica,sans-Serif" font-size="10.00">utility</text>
</g>
<!-- Node4&#45;&gt;Node10 -->
<g id="edge10" class="edge"><title>Node4&#45;&gt;Node10</title>
<path fill="none" stroke="midnightblue" d="M432.406,-293.476C435.305,-292.935 438.199,-292.432 441,-292 607.348,-266.323 658.409,-309.495 818,-256 863.027,-240.907 882.449,-239.374 909,-200 919.359,-184.637 921.746,-163.264 921.919,-147.989"/>
<polygon fill="midnightblue" stroke="midnightblue" points="925.412,-147.627 921.715,-137.698 918.414,-147.766 925.412,-147.627"/>
</g>
<!-- Node11 -->
<g id="node12" class="node"><title>Node11</title>
<polygon fill="white" stroke="#bfbfbf" points="552.5,-56.5 552.5,-75.5 599.5,-75.5 599.5,-56.5 552.5,-56.5"/>
<text text-anchor="middle" x="576" y="-63.5" font-family="Helvetica,sans-Serif" font-size="10.00">vector</text>
</g>
<!-- Node4&#45;&gt;Node11 -->
<g id="edge11" class="edge"><title>Node4&#45;&gt;Node11</title>
<path fill="none" stroke="midnightblue" d="M423.893,-292.459C459.543,-278.854 524.419,-248.709 557,-200 580.375,-165.054 580.252,-113.383 578.134,-85.8642"/>
<polygon fill="midnightblue" stroke="midnightblue" points="581.595,-85.2928 577.166,-75.6682 574.626,-85.9542 581.595,-85.2928"/>
</g>
<!-- Node12 -->
<g id="node13" class="node"><title>Node12</title>
<g id="a_node13"><a xlink:href="audio__sink_8hpp.html" target="_top" xlink:title="Declaration of the AudioSink class. ">
<polygon fill="white" stroke="black" points="692.5,-236.5 692.5,-255.5 809.5,-255.5 809.5,-236.5 692.5,-236.5"/>
<text text-anchor="middle" x="751" y="-243.5" font-family="Helvetica,sans-Serif" font-size="10.00">audio/audio_sink.hpp</text>
</a>
</g>
</g>
<!-- Node4&#45;&gt;Node12 -->
<g id="edge12" class="edge"><title>Node4&#45;&gt;Node12</title>
<path fill="none" stroke="midnightblue" d="M432.431,-293.625C435.324,-293.051 438.211,-292.501 441,-292 523.523,-277.186 619.078,-263.894 682.042,-255.664"/>
<polygon fill="midnightblue" stroke="midnightblue" points="682.781,-259.098 692.246,-254.337 681.878,-252.156 682.781,-259.098"/>
</g>
<!-- Node15 -->
<g id="node16" class="node"><title>Node15</title>
<g id="a_node16"><a xlink:href="audio_8hpp.html" target="_top" xlink:title="Declaration of the Audio class. ">
<polygon fill="white" stroke="black" points="484,-180.5 484,-199.5 548,-199.5 548,-180.5 484,-180.5"/>
<text text-anchor="middle" x="516" y="-187.5" font-family="Helvetica,sans-Serif" font-size="10.00">audio.hpp</text>
</a>
</g>
</g>
<!-- Node4&#45;&gt;Node15 -->
<g id="edge49" class="edge"><title>Node4&#45;&gt;Node15</title>
<path fill="none" stroke="midnightblue" d="M416.371,-292.478C431.615,-284.451 453.814,-271.381 470,-256 484.677,-242.053 497.616,-222.79 506.002,-208.859"/>
<polygon fill="midnightblue" stroke="midnightblue" points="509.263,-210.213 511.263,-199.809 503.211,-206.695 509.263,-210.213"/>
</g>
<!-- Node4&#45;&gt;Node16 -->
<g id="edge50" class="edge"><title>Node4&#45;&gt;Node16</title>
<path fill="none" stroke="midnightblue" d="M395.027,-292.394C388.751,-279.343 375.636,-254.144 360,-236 327.083,-197.803 279.501,-162.499 251.963,-143.533"/>
<polygon fill="midnightblue" stroke="midnightblue" points="253.682,-140.47 243.443,-137.747 249.749,-146.261 253.682,-140.47"/>
</g>
<!-- Node20 -->
<g id="node21" class="node"><title>Node20</title>
<g id="a_node21"><a xlink:href="audio__source_8hpp.html" target="_top" xlink:title="Declaration of the AudioSource class. ">
<polygon fill="white" stroke="black" points="446.5,-118.5 446.5,-137.5 547.5,-137.5 547.5,-118.5 446.5,-118.5"/>
<text text-anchor="middle" x="497" y="-125.5" font-family="Helvetica,sans-Serif" font-size="10.00">audio_source.hpp</text>
</a>
</g>
</g>
<!-- Node4&#45;&gt;Node20 -->
<g id="edge48" class="edge"><title>Node4&#45;&gt;Node20</title>
<path fill="none" stroke="midnightblue" d="M406.007,-292.327C413.004,-283.472 423.86,-269.191 432,-256 455.104,-218.56 477.44,-171.934 488.95,-146.894"/>
<polygon fill="midnightblue" stroke="midnightblue" points="492.235,-148.126 493.191,-137.574 485.863,-145.227 492.235,-148.126"/>
</g>
<!-- Node12&#45;&gt;Node5 -->
<g id="edge14" class="edge"><title>Node12&#45;&gt;Node5</title>
<path fill="none" stroke="midnightblue" d="M779.688,-236.389C798.266,-229.41 821.597,-217.771 836,-200 861.03,-169.117 876.473,-143.326 852,-112 806.022,-53.1472 571.528,-23.5897 481.897,-14.3059"/>
<polygon fill="midnightblue" stroke="midnightblue" points="482.008,-10.7994 471.707,-13.2737 481.303,-17.7638 482.008,-10.7994"/>
</g>
<!-- Node12&#45;&gt;Node8 -->
<g id="edge15" class="edge"><title>Node12&#45;&gt;Node8</title>
<path fill="none" stroke="midnightblue" d="M809.791,-237.711C841.384,-231.576 879.74,-220.369 909,-200 934.316,-182.376 940.414,-173.319 950,-144 956.57,-123.905 947.849,-100.411 939.73,-84.7083"/>
<polygon fill="midnightblue" stroke="midnightblue" points="942.586,-82.6454 934.648,-75.6283 936.478,-86.064 942.586,-82.6454"/>
</g>
<!-- Node12&#45;&gt;Node9 -->
<g id="edge16" class="edge"><title>Node12&#45;&gt;Node9</title>
<path fill="none" stroke="midnightblue" d="M692.307,-241.034C635.496,-235.902 547.558,-224.512 475,-200 424.893,-183.073 404.667,-183.943 370,-144 355.607,-127.416 348.39,-102.833 344.929,-85.9285"/>
<polygon fill="midnightblue" stroke="midnightblue" points="348.296,-84.8731 343.091,-75.645 341.406,-86.1049 348.296,-84.8731"/>
</g>
<!-- Node12&#45;&gt;Node10 -->
<g id="edge17" class="edge"><title>Node12&#45;&gt;Node10</title>
<path fill="none" stroke="midnightblue" d="M807.578,-236.493C833.889,-230.127 864.124,-219.082 886,-200 901.82,-186.201 911.222,-163.591 916.232,-147.598"/>
<polygon fill="midnightblue" stroke="midnightblue" points="919.658,-148.348 919.025,-137.772 912.924,-146.435 919.658,-148.348"/>
</g>
<!-- Node12&#45;&gt;Node11 -->
<g id="edge18" class="edge"><title>Node12&#45;&gt;Node11</title>
<path fill="none" stroke="midnightblue" d="M747.484,-236.418C737.714,-213.486 708.16,-149.95 666,-112 649.601,-97.2389 627.477,-86.0897 609.268,-78.5813"/>
<polygon fill="midnightblue" stroke="midnightblue" points="610.473,-75.2942 599.886,-74.886 607.908,-81.8072 610.473,-75.2942"/>
</g>
<!-- Node13 -->
<g id="node14" class="node"><title>Node13</title>
<polygon fill="white" stroke="#bfbfbf" points="1056.5,-0.5 1056.5,-19.5 1097.5,-19.5 1097.5,-0.5 1056.5,-0.5"/>
<text text-anchor="middle" x="1077" y="-7.5" font-family="Helvetica,sans-Serif" font-size="10.00">array</text>
</g>
<!-- Node12&#45;&gt;Node13 -->
<g id="edge13" class="edge"><title>Node12&#45;&gt;Node13</title>
<path fill="none" stroke="midnightblue" d="M809.838,-240.545C853.503,-235.349 913.457,-224.136 961,-200 1034.82,-162.525 1066.15,-151.552 1100,-76 1107.16,-60.0233 1098.63,-41.0871 1090,-27.7872"/>
<polygon fill="midnightblue" stroke="midnightblue" points="1092.84,-25.7317 1084.21,-19.5857 1087.12,-29.772 1092.84,-25.7317"/>
</g>
<!-- Node14 -->
<g id="node15" class="node"><title>Node14</title>
<polygon fill="white" stroke="#bfbfbf" points="642.5,-180.5 642.5,-199.5 687.5,-199.5 687.5,-180.5 642.5,-180.5"/>
<text text-anchor="middle" x="665" y="-187.5" font-family="Helvetica,sans-Serif" font-size="10.00">SDL.h</text>
</g>
<!-- Node12&#45;&gt;Node14 -->
<g id="edge19" class="edge"><title>Node12&#45;&gt;Node14</title>
<path fill="none" stroke="midnightblue" d="M737.183,-236.324C723.767,-227.9 703.176,-214.971 687.414,-205.074"/>
<polygon fill="midnightblue" stroke="midnightblue" points="689.113,-202.008 678.783,-199.655 685.391,-207.936 689.113,-202.008"/>
</g>
<!-- Node12&#45;&gt;Node15 -->
<g id="edge20" class="edge"><title>Node12&#45;&gt;Node15</title>
<path fill="none" stroke="midnightblue" d="M713.764,-236.444C671.379,-226.704 602.305,-210.832 558.025,-200.657"/>
<polygon fill="midnightblue" stroke="midnightblue" points="558.683,-197.217 548.153,-198.388 557.115,-204.039 558.683,-197.217"/>
</g>
<!-- Node12&#45;&gt;Node20 -->
<g id="edge44" class="edge"><title>Node12&#45;&gt;Node20</title>
<path fill="none" stroke="midnightblue" d="M725.792,-236.352C701.662,-227.848 664.392,-214.122 633,-200 592.978,-181.996 548.137,-157.756 521.258,-142.765"/>
<polygon fill="midnightblue" stroke="midnightblue" points="522.645,-139.53 512.211,-137.69 519.22,-145.635 522.645,-139.53"/>
</g>
<!-- Node21 -->
<g id="node22" class="node"><title>Node21</title>
<g id="a_node22"><a xlink:href="sample__formats_8hpp.html" target="_top" xlink:title="The SampleFormat enumeration and related declarations. ">
<polygon fill="white" stroke="black" points="976,-56.5 976,-75.5 1092,-75.5 1092,-56.5 976,-56.5"/>
<text text-anchor="middle" x="1034" y="-63.5" font-family="Helvetica,sans-Serif" font-size="10.00">sample_formats.hpp</text>
</a>
</g>
</g>
<!-- Node12&#45;&gt;Node21 -->
<g id="edge47" class="edge"><title>Node12&#45;&gt;Node21</title>
<path fill="none" stroke="midnightblue" d="M809.813,-240.896C848.122,-235.867 897.722,-224.711 935,-200 979.446,-170.537 1011.41,-114.07 1025.68,-85.1093"/>
<polygon fill="midnightblue" stroke="midnightblue" points="1028.98,-86.3176 1030.13,-75.7849 1022.66,-83.3037 1028.98,-86.3176"/>
</g>
<!-- Node22 -->
<g id="node23" class="node"><title>Node22</title>
<g id="a_node23"><a xlink:href="ringbuffer_8hpp.html" target="_top" xlink:title="The RingBuffer class template. ">
<polygon fill="white" stroke="black" points="744.5,-180.5 744.5,-199.5 827.5,-199.5 827.5,-180.5 744.5,-180.5"/>
<text text-anchor="middle" x="786" y="-187.5" font-family="Helvetica,sans-Serif" font-size="10.00">ringbuffer.hpp</text>
</a>
</g>
</g>
<!-- Node12&#45;&gt;Node22 -->
<g id="edge45" class="edge"><title>Node12&#45;&gt;Node22</title>
<path fill="none" stroke="midnightblue" d="M756.78,-236.083C761.672,-228.534 768.827,-217.495 774.833,-208.23"/>
<polygon fill="midnightblue" stroke="midnightblue" points="777.826,-210.046 780.328,-199.751 771.952,-206.239 777.826,-210.046"/>
</g>
<!-- Node15&#45;&gt;Node5 -->
<g id="edge21" class="edge"><title>Node15&#45;&gt;Node5</title>
<path fill="none" stroke="midnightblue" d="M486.119,-180.387C468.46,-173.587 447.549,-162.15 437,-144 415.839,-107.593 429.789,-55.7934 439.645,-28.8437"/>
<polygon fill="midnightblue" stroke="midnightblue" points="442.908,-30.1082 443.261,-19.5192 436.382,-27.5769 442.908,-30.1082"/>
</g>
<!-- Node15&#45;&gt;Node8 -->
<g id="edge22" class="edge"><title>Node15&#45;&gt;Node8</title>
<path fill="none" stroke="midnightblue" d="M534.242,-180.448C568.043,-164.891 642.987,-131.749 709,-112 771.413,-93.3285 846.083,-79.859 890.417,-72.7558"/>
<polygon fill="midnightblue" stroke="midnightblue" points="891.139,-76.1852 900.472,-71.1708 890.049,-69.2706 891.139,-76.1852"/>
</g>
<!-- Node15&#45;&gt;Node9 -->
<g id="edge23" class="edge"><title>Node15&#45;&gt;Node9</title>
<path fill="none" stroke="midnightblue" d="M483.874,-180.862C460.206,-173.786 428.081,-161.835 404,-144 381.979,-127.691 363.309,-101.773 352.376,-84.5767"/>
<polygon fill="midnightblue" stroke="midnightblue" points="355.08,-82.2905 346.866,-75.598 349.114,-85.9518 355.08,-82.2905"/>
</g>
<!-- Node15&#45;&gt;Node10 -->
<g id="edge24" class="edge"><title>Node15&#45;&gt;Node10</title>
<path fill="none" stroke="midnightblue" d="M548.099,-185.577C608.044,-178.991 740.988,-163.467 852,-144 864.514,-141.805 878.205,-138.929 890.068,-136.283"/>
<polygon fill="midnightblue" stroke="midnightblue" points="890.971,-139.667 899.948,-134.04 889.421,-132.841 890.971,-139.667"/>
</g>
<!-- Node15&#45;&gt;Node11 -->
<g id="edge25" class="edge"><title>Node15&#45;&gt;Node11</title>
<path fill="none" stroke="midnightblue" d="M526.027,-180.35C535.147,-171.948 548.32,-158.385 556,-144 565.841,-125.568 571.035,-102.031 573.638,-85.8594"/>
<polygon fill="midnightblue" stroke="midnightblue" points="577.159,-85.9576 575.105,-75.5639 570.229,-84.9702 577.159,-85.9576"/>
</g>
<!-- Node15&#45;&gt;Node16 -->
<g id="edge26" class="edge"><title>Node15&#45;&gt;Node16</title>
<path fill="none" stroke="midnightblue" d="M483.748,-182.234C434.309,-171.862 339.365,-151.944 280.672,-139.63"/>
<polygon fill="midnightblue" stroke="midnightblue" points="281.371,-136.201 270.865,-137.573 279.934,-143.052 281.371,-136.201"/>
</g>
<!-- Node15&#45;&gt;Node20 -->
<g id="edge36" class="edge"><title>Node15&#45;&gt;Node20</title>
<path fill="none" stroke="midnightblue" d="M513.278,-180.403C510.541,-171.76 506.237,-158.17 502.742,-147.134"/>
<polygon fill="midnightblue" stroke="midnightblue" points="506.073,-146.057 499.717,-137.581 499.399,-148.171 506.073,-146.057"/>
</g>
<!-- Node16&#45;&gt;Node1 -->
<g id="edge30" class="edge"><title>Node16&#45;&gt;Node1</title>
<path fill="none" stroke="midnightblue" d="M201.058,-118.403C165.633,-107.881 105.529,-90.0284 66.3012,-78.3766"/>
<polygon fill="midnightblue" stroke="midnightblue" points="67.1443,-74.976 56.5616,-75.4837 65.1511,-81.6862 67.1443,-74.976"/>
</g>
<!-- Node16&#45;&gt;Node5 -->
<g id="edge27" class="edge"><title>Node16&#45;&gt;Node5</title>
<path fill="none" stroke="midnightblue" d="M237.65,-118.328C251.105,-103.565 280.484,-73.4569 311,-56 343.204,-37.5773 384.058,-25.3447 412.545,-18.3437"/>
<polygon fill="midnightblue" stroke="midnightblue" points="413.518,-21.7102 422.441,-15.9993 411.904,-14.8987 413.518,-21.7102"/>
</g>
<!-- Node16&#45;&gt;Node7 -->
<g id="edge28" class="edge"><title>Node16&#45;&gt;Node7</title>
<path fill="none" stroke="midnightblue" d="M217.965,-118.403C204.492,-108.78 182.434,-93.0242 166.285,-81.4891"/>
<polygon fill="midnightblue" stroke="midnightblue" points="168.185,-78.5449 158.013,-75.5806 164.116,-84.2411 168.185,-78.5449"/>
</g>
<!-- Node16&#45;&gt;Node8 -->
<g id="edge29" class="edge"><title>Node16&#45;&gt;Node8</title>
<path fill="none" stroke="midnightblue" d="M275.594,-123.086C404.475,-112.024 769.881,-80.6583 890.115,-70.3378"/>
<polygon fill="midnightblue" stroke="midnightblue" points="890.654,-73.8044 900.318,-69.4619 890.056,-66.8301 890.654,-73.8044"/>
</g>
<!-- Node16&#45;&gt;Node9 -->
<g id="edge31" class="edge"><title>Node16&#45;&gt;Node9</title>
<path fill="none" stroke="midnightblue" d="M246.047,-118.403C264.593,-108.468 295.34,-91.9966 317.022,-80.3812"/>
<polygon fill="midnightblue" stroke="midnightblue" points="318.821,-83.388 325.983,-75.5806 315.515,-77.2177 318.821,-83.388"/>
</g>
<!-- Node16&#45;&gt;Node11 -->
<g id="edge32" class="edge"><title>Node16&#45;&gt;Node11</title>
<path fill="none" stroke="midnightblue" d="M275.589,-119.094C346.017,-106.881 479.662,-83.7061 542.174,-72.8658"/>
<polygon fill="midnightblue" stroke="midnightblue" points="543.028,-76.27 552.283,-71.1128 541.832,-69.3729 543.028,-76.27"/>
</g>
<!-- Node17 -->
<g id="node18" class="node"><title>Node17</title>
<g id="a_node18"><a xlink:href="errors_8hpp.html" target="_top" xlink:title="Declarations of the playd Error exception set. ">
<polygon fill="white" stroke="black" points="197,-56.5 197,-75.5 263,-75.5 263,-56.5 197,-56.5"/>
<text text-anchor="middle" x="230" y="-63.5" font-family="Helvetica,sans-Serif" font-size="10.00">errors.hpp</text>
</a>
</g>
</g>
<!-- Node16&#45;&gt;Node17 -->
<g id="edge33" class="edge"><title>Node16&#45;&gt;Node17</title>
<path fill="none" stroke="midnightblue" d="M230,-118.403C230,-109.938 230,-96.7283 230,-85.8199"/>
<polygon fill="midnightblue" stroke="midnightblue" points="233.5,-85.5806 230,-75.5806 226.5,-85.5806 233.5,-85.5806"/>
</g>
<!-- Node18 -->
<g id="node19" class="node"><title>Node18</title>
<polygon fill="white" stroke="#bfbfbf" points="238.5,-0.5 238.5,-19.5 297.5,-19.5 297.5,-0.5 238.5,-0.5"/>
<text text-anchor="middle" x="268" y="-7.5" font-family="Helvetica,sans-Serif" font-size="10.00">iostream</text>
</g>
<!-- Node17&#45;&gt;Node18 -->
<g id="edge34" class="edge"><title>Node17&#45;&gt;Node18</title>
<path fill="none" stroke="midnightblue" d="M236.275,-56.083C241.642,-48.4554 249.518,-37.2645 256.079,-27.9408"/>
<polygon fill="midnightblue" stroke="midnightblue" points="258.949,-29.9434 261.842,-19.7511 253.225,-25.9149 258.949,-29.9434"/>
</g>
<!-- Node19 -->
<g id="node20" class="node"><title>Node19</title>
<polygon fill="white" stroke="#bfbfbf" points="164,-0.5 164,-19.5 220,-19.5 220,-0.5 164,-0.5"/>
<text text-anchor="middle" x="192" y="-7.5" font-family="Helvetica,sans-Serif" font-size="10.00">sstream</text>
</g>
<!-- Node17&#45;&gt;Node19 -->
<g id="edge35" class="edge"><title>Node17&#45;&gt;Node19</title>
<path fill="none" stroke="midnightblue" d="M223.725,-56.083C218.358,-48.4554 210.482,-37.2645 203.921,-27.9408"/>
<polygon fill="midnightblue" stroke="midnightblue" points="206.775,-25.9149 198.158,-19.7511 201.051,-29.9434 206.775,-25.9149"/>
</g>
<!-- Node20&#45;&gt;Node5 -->
<g id="edge37" class="edge"><title>Node20&#45;&gt;Node5</title>
<path fill="none" stroke="midnightblue" d="M493.242,-118.281C485.094,-99.3787 465.662,-54.295 454.759,-29"/>
<polygon fill="midnightblue" stroke="midnightblue" points="457.838,-27.3026 450.666,-19.5048 451.41,-30.0734 457.838,-27.3026"/>
</g>
<!-- Node20&#45;&gt;Node9 -->
<g id="edge38" class="edge"><title>Node20&#45;&gt;Node9</title>
<path fill="none" stroke="midnightblue" d="M474.792,-118.403C448.319,-108.156 403.886,-90.9561 373.78,-79.3021"/>
<polygon fill="midnightblue" stroke="midnightblue" points="374.756,-75.9266 364.167,-75.5806 372.229,-82.4546 374.756,-75.9266"/>
</g>
<!-- Node20&#45;&gt;Node11 -->
<g id="edge39" class="edge"><title>Node20&#45;&gt;Node11</title>
<path fill="none" stroke="midnightblue" d="M508.319,-118.403C520.873,-108.869 541.351,-93.3154 556.499,-81.8106"/>
<polygon fill="midnightblue" stroke="midnightblue" points="558.856,-84.4162 564.702,-75.5806 554.622,-78.8417 558.856,-84.4162"/>
</g>
<!-- Node20&#45;&gt;Node17 -->
<g id="edge40" class="edge"><title>Node20&#45;&gt;Node17</title>
<path fill="none" stroke="midnightblue" d="M459.029,-118.467C409.898,-107.427 324.518,-88.2401 273.035,-76.6707"/>
<polygon fill="midnightblue" stroke="midnightblue" points="273.735,-73.2408 263.211,-74.4631 272.2,-80.0705 273.735,-73.2408"/>
</g>
<!-- Node20&#45;&gt;Node21 -->
<g id="edge41" class="edge"><title>Node20&#45;&gt;Node21</title>
<path fill="none" stroke="midnightblue" d="M547.708,-121.877C632.014,-113.273 806.591,-95.0933 965.794,-75.9977"/>
<polygon fill="midnightblue" stroke="midnightblue" points="966.262,-79.4667 975.773,-74.7971 965.426,-72.5168 966.262,-79.4667"/>
</g>
<!-- Node21&#45;&gt;Node5 -->
<g id="edge43" class="edge"><title>Node21&#45;&gt;Node5</title>
<path fill="none" stroke="midnightblue" d="M975.782,-57.1192C972.475,-56.7261 969.196,-56.3499 966,-56 784.051,-36.0815 565.425,-19.5327 481.823,-13.4741"/>
<polygon fill="midnightblue" stroke="midnightblue" points="481.848,-9.9669 471.622,-12.7385 481.344,-16.9488 481.848,-9.9669"/>
</g>
<!-- Node21&#45;&gt;Node13 -->
<g id="edge42" class="edge"><title>Node21&#45;&gt;Node13</title>
<path fill="none" stroke="midnightblue" d="M1041.1,-56.083C1047.24,-48.3768 1056.27,-37.0333 1063.74,-27.6531"/>
<polygon fill="midnightblue" stroke="midnightblue" points="1066.54,-29.7542 1070.03,-19.7511 1061.06,-25.3936 1066.54,-29.7542"/>
</g>
<!-- Node23 -->
<g id="node24" class="node"><title>Node23</title>
<polygon fill="white" stroke="#bfbfbf" points="718.5,-113 718.5,-143 843.5,-143 843.5,-113 718.5,-113"/>
<text text-anchor="start" x="726.5" y="-131" font-family="Helvetica,sans-Serif" font-size="10.00">../contrib/pa_ringbuffer</text>
<text text-anchor="middle" x="781" y="-120" font-family="Helvetica,sans-Serif" font-size="10.00">/pa_ringbuffer.h</text>
</g>
<!-- Node22&#45;&gt;Node23 -->
<g id="edge46" class="edge"><title>Node22&#45;&gt;Node23</title>
<path fill="none" stroke="midnightblue" d="M785.284,-180.403C784.695,-173.341 783.831,-162.975 783.033,-153.399"/>
<polygon fill="midnightblue" stroke="midnightblue" points="786.497,-152.816 782.178,-143.141 779.521,-153.397 786.497,-152.816"/>
</g>
<!-- Node24&#45;&gt;Node16 -->
<g id="edge53" class="edge"><title>Node24&#45;&gt;Node16</title>
<path fill="none" stroke="midnightblue" d="M230,-236.281C230,-217.547 230,-173.098 230,-147.682"/>
<polygon fill="midnightblue" stroke="midnightblue" points="233.5,-147.505 230,-137.505 226.5,-147.505 233.5,-147.505"/>
</g>
</g>
</svg>
