<?xml version="1.0" encoding="UTF-8" standalone="no"?>
<!DOCTYPE svg PUBLIC "-//W3C//DTD SVG 1.1//EN"
 "http://www.w3.org/Graphics/SVG/1.1/DTD/svg11.dtd">
<!-- Generated by graphviz version 2.36.0 (20140111.2315)
 -->
<!-- Title: src/io.cpp Pages: 1 -->
<!--zoomable 432 -->
<svg id="main" version="1.1" xmlns="http://www.w3.org/2000/svg" xmlns:xlink="http://www.w3.org/1999/xlink" xml:space="preserve" onload="init(evt)">
<style type="text/css"><![CDATA[
.edge:hover path { stroke: red; }
.edge:hover polygon { stroke: red; fill: red; }
]]></style>
<script type="text/javascript"><![CDATA[
var edges = document.getElementsByTagName('g');
if (edges && edges.length) {
  for (var i=0;i<edges.length;i++) {
    if (edges[i].id.substr(0,4)=='edge') {
      edges[i].setAttribute('class','edge');
    }
  }
}
]]></script>
        <defs>
                <circle id="rim" cx="0" cy="0" r="7"/>
                <circle id="rim2" cx="0" cy="0" r="3.5"/>
                <g id="zoomPlus">
                        <use xlink:href="#rim" fill="#404040">
                                <set attributeName="fill" to="#808080" begin="zoomplus.mouseover" end="zoomplus.mouseout"/>
                        </use>
                        <path d="M-4,0h8M0,-4v8" fill="none" stroke="white" stroke-width="1.5" pointer-events="none"/>
                </g>
                <g id="zoomMin">
                        <use xlink:href="#rim" fill="#404040">
                                <set attributeName="fill" to="#808080" begin="zoomminus.mouseover" end="zoomminus.mouseout"/>
                        </use>
                        <path d="M-4,0h8" fill="none" stroke="white" stroke-width="1.5" pointer-events="none"/>
                </g>
                <g id="dirArrow">
                        <path fill="none" stroke="white" stroke-width="1.5" d="M0,-3.0v7 M-2.5,-0.5L0,-3.0L2.5,-0.5"/>
                </g>
               <g id="resetDef">
                       <use xlink:href="#rim2" fill="#404040">
                               <set attributeName="fill" to="#808080" begin="reset.mouseover" end="reset.mouseout"/>
                       </use>
               </g>
        </defs>

<script type="text/javascript">
var viewWidth = 1577;
var viewHeight = 432;
var sectionId = 'dynsection-0';
</script>
<script xlink:href="svgpan.js"/>
<svg id="graph" class="graph">
<g id="viewport">
<title>src/io.cpp</title>
<polygon fill="white" stroke="none" points="-4,4 -4,-428 1573.41,-428 1573.41,4 -4,4"/>
<!-- Node0 -->
<g id="node1" class="node"><title>Node0</title>
<polygon fill="#bfbfbf" stroke="black" points="329,-404.5 329,-423.5 391,-423.5 391,-404.5 329,-404.5"/>
<text text-anchor="middle" x="360" y="-411.5" font-family="Helvetica,sans-Serif" font-size="10.00">src/io.cpp</text>
</g>
<!-- Node1 -->
<g id="node2" class="node"><title>Node1</title>
<polygon fill="white" stroke="#bfbfbf" points="0,-348.5 0,-367.5 62,-367.5 62,-348.5 0,-348.5"/>
<text text-anchor="middle" x="31" y="-355.5" font-family="Helvetica,sans-Serif" font-size="10.00">algorithm</text>
</g>
<!-- Node0&#45;&gt;Node1 -->
<g id="edge1" class="edge"><title>Node0&#45;&gt;Node1</title>
<path fill="none" stroke="midnightblue" d="M328.663,-408.82C277.205,-401.806 171.391,-386.748 72.2783,-368.144"/>
<polygon fill="midnightblue" stroke="midnightblue" points="72.8782,-364.695 62.4016,-366.274 71.5758,-371.573 72.8782,-364.695"/>
</g>
<!-- Node2 -->
<g id="node3" class="node"><title>Node2</title>
<polygon fill="white" stroke="#bfbfbf" points="80,-348.5 80,-367.5 132,-367.5 132,-348.5 80,-348.5"/>
<text text-anchor="middle" x="106" y="-355.5" font-family="Helvetica,sans-Serif" font-size="10.00">cassert</text>
</g>
<!-- Node0&#45;&gt;Node2 -->
<g id="edge2" class="edge"><title>Node0&#45;&gt;Node2</title>
<path fill="none" stroke="midnightblue" d="M328.706,-407.071C288.025,-399.254 214.544,-384.764 142.493,-368.262"/>
<polygon fill="midnightblue" stroke="midnightblue" points="142.87,-364.757 132.339,-365.92 141.297,-371.578 142.87,-364.757"/>
</g>
<!-- Node3 -->
<g id="node4" class="node"><title>Node3</title>
<polygon fill="white" stroke="#bfbfbf" points="150,-348.5 150,-367.5 200,-367.5 200,-348.5 150,-348.5"/>
<text text-anchor="middle" x="175" y="-355.5" font-family="Helvetica,sans-Serif" font-size="10.00">csignal</text>
</g>
<!-- Node0&#45;&gt;Node3 -->
<g id="edge3" class="edge"><title>Node0&#45;&gt;Node3</title>
<path fill="none" stroke="midnightblue" d="M330.686,-404.444C297.859,-394.862 244.695,-379.344 209.79,-369.155"/>
<polygon fill="midnightblue" stroke="midnightblue" points="210.604,-365.746 200.024,-366.304 208.642,-372.466 210.604,-365.746"/>
</g>
<!-- Node4 -->
<g id="node5" class="node"><title>Node4</title>
<polygon fill="white" stroke="#bfbfbf" points="218.5,-348.5 218.5,-367.5 267.5,-367.5 267.5,-348.5 218.5,-348.5"/>
<text text-anchor="middle" x="243" y="-355.5" font-family="Helvetica,sans-Serif" font-size="10.00">cstring</text>
</g>
<!-- Node0&#45;&gt;Node4 -->
<g id="edge4" class="edge"><title>Node0&#45;&gt;Node4</title>
<path fill="none" stroke="midnightblue" d="M341.461,-404.444C322.377,-395.636 292.425,-381.812 270.564,-371.722"/>
<polygon fill="midnightblue" stroke="midnightblue" points="271.999,-368.529 261.452,-367.516 269.065,-374.885 271.999,-368.529"/>
</g>
<!-- Node5 -->
<g id="node6" class="node"><title>Node5</title>
<polygon fill="white" stroke="#bfbfbf" points="369,-0.5 369,-19.5 425,-19.5 425,-0.5 369,-0.5"/>
<text text-anchor="middle" x="397" y="-7.5" font-family="Helvetica,sans-Serif" font-size="10.00">sstream</text>
</g>
<!-- Node0&#45;&gt;Node5 -->
<g id="edge5" class="edge"><title>Node0&#45;&gt;Node5</title>
<path fill="none" stroke="midnightblue" d="M350.557,-404.311C332.754,-386.933 296,-345.863 296,-303 296,-303 296,-303 296,-127 296,-80.5371 342.659,-43.6456 372.551,-24.7791"/>
<polygon fill="midnightblue" stroke="midnightblue" points="374.49,-27.696 381.219,-19.512 370.855,-21.7138 374.49,-27.696"/>
</g>
<!-- Node6 -->
<g id="node7" class="node"><title>Node6</title>
<polygon fill="white" stroke="#bfbfbf" points="478,-56.5 478,-75.5 522,-75.5 522,-56.5 478,-56.5"/>
<text text-anchor="middle" x="500" y="-63.5" font-family="Helvetica,sans-Serif" font-size="10.00">string</text>
</g>
<!-- Node0&#45;&gt;Node6 -->
<g id="edge6" class="edge"><title>Node0&#45;&gt;Node6</title>
<path fill="none" stroke="midnightblue" d="M356.494,-404.325C349.397,-385.959 334,-341.658 334,-303 334,-303 334,-303 334,-189 334,-123.054 420.115,-88.8142 468.296,-74.8182"/>
<polygon fill="midnightblue" stroke="midnightblue" points="469.258,-78.1835 477.956,-72.1348 467.385,-71.4389 469.258,-78.1835"/>
</g>
<!-- Node7 -->
<g id="node8" class="node"><title>Node7</title>
<polygon fill="white" stroke="#bfbfbf" points="1515,-292.5 1515,-311.5 1551,-311.5 1551,-292.5 1515,-292.5"/>
<text text-anchor="middle" x="1533" y="-299.5" font-family="Helvetica,sans-Serif" font-size="10.00">uv.h</text>
</g>
<!-- Node0&#45;&gt;Node7 -->
<g id="edge7" class="edge"><title>Node0&#45;&gt;Node7</title>
<path fill="none" stroke="midnightblue" d="M391.099,-412.713C557.146,-411.043 1335.47,-401.473 1437,-368 1468.05,-357.764 1498.34,-334.351 1516.34,-318.603"/>
<polygon fill="midnightblue" stroke="midnightblue" points="1519.05,-320.872 1524.14,-311.579 1514.37,-315.671 1519.05,-320.872"/>
</g>
<!-- Node8 -->
<g id="node9" class="node"><title>Node8</title>
<g id="a_node9"><a xlink:href="errors_8hpp.html" target="_top" xlink:title="Declarations of the playd Error exception set. ">
<polygon fill="white" stroke="black" points="540,-56.5 540,-75.5 606,-75.5 606,-56.5 540,-56.5"/>
<text text-anchor="middle" x="573" y="-63.5" font-family="Helvetica,sans-Serif" font-size="10.00">errors.hpp</text>
</a>
</g>
</g>
<!-- Node0&#45;&gt;Node8 -->
<g id="edge8" class="edge"><title>Node0&#45;&gt;Node8</title>
<path fill="none" stroke="midnightblue" d="M378.464,-404.393C408.833,-388.812 466,-352.86 466,-303 466,-303 466,-303 466,-245 466,-176.155 525.523,-110.986 555.779,-82.3076"/>
<polygon fill="midnightblue" stroke="midnightblue" points="558.158,-84.8749 563.125,-75.5169 553.406,-79.7345 558.158,-84.8749"/>
</g>
<!-- Node10 -->
<g id="node11" class="node"><title>Node10</title>
<g id="a_node11"><a xlink:href="messages_8h.html" target="_top" xlink:title="Constant human&#45;readable messages used within playd. ">
<polygon fill="white" stroke="black" points="362.5,-236.5 362.5,-255.5 437.5,-255.5 437.5,-236.5 362.5,-236.5"/>
<text text-anchor="middle" x="400" y="-243.5" font-family="Helvetica,sans-Serif" font-size="10.00">messages.h</text>
</a>
</g>
</g>
<!-- Node0&#45;&gt;Node10 -->
<g id="edge11" class="edge"><title>Node0&#45;&gt;Node10</title>
<path fill="none" stroke="midnightblue" d="M362.151,-404.075C368.447,-377.945 386.937,-301.211 395.524,-265.577"/>
<polygon fill="midnightblue" stroke="midnightblue" points="398.995,-266.11 397.935,-255.568 392.19,-264.47 398.995,-266.11"/>
</g>
<!-- Node11 -->
<g id="node12" class="node"><title>Node11</title>
<g id="a_node12"><a xlink:href="player_8hpp.html" target="_top" xlink:title="Declaration of the Player class, and associated types. ">
<polygon fill="white" stroke="black" points="1063,-292.5 1063,-311.5 1129,-311.5 1129,-292.5 1063,-292.5"/>
<text text-anchor="middle" x="1096" y="-299.5" font-family="Helvetica,sans-Serif" font-size="10.00">player.hpp</text>
</a>
</g>
</g>
<!-- Node0&#45;&gt;Node11 -->
<g id="edge13" class="edge"><title>Node0&#45;&gt;Node11</title>
<path fill="none" stroke="midnightblue" d="M391.155,-408.344C507.685,-390.927 918.073,-329.592 1052.8,-309.457"/>
<polygon fill="midnightblue" stroke="midnightblue" points="1053.38,-312.908 1062.75,-307.969 1052.35,-305.985 1053.38,-312.908"/>
</g>
<!-- Node22 -->
<g id="node23" class="node"><title>Node22</title>
<g id="a_node23"><a xlink:href="response_8hpp.html" target="_top" xlink:title="Declaration of classes pertaining to responses to the client. ">
<polygon fill="white" stroke="black" points="1256.5,-118.5 1256.5,-137.5 1347.5,-137.5 1347.5,-118.5 1256.5,-118.5"/>
<text text-anchor="middle" x="1302" y="-125.5" font-family="Helvetica,sans-Serif" font-size="10.00">../response.hpp</text>
</a>
</g>
</g>
<!-- Node0&#45;&gt;Node22 -->
<g id="edge58" class="edge"><title>Node0&#45;&gt;Node22</title>
<path fill="none" stroke="midnightblue" d="M391.192,-412.685C560.411,-410.848 1364.53,-400.46 1470,-368 1515.03,-354.143 1537.12,-353.183 1560,-312 1611.49,-219.323 1438.59,-162.352 1350.45,-139.94"/>
<polygon fill="midnightblue" stroke="midnightblue" points="1351.21,-136.521 1340.66,-137.503 1349.52,-143.314 1351.21,-136.521"/>
</g>
<!-- Node28 -->
<g id="node29" class="node"><title>Node28</title>
<g id="a_node29"><a xlink:href="io_8hpp.html" target="_top" xlink:title="Declaration of the I/O classes used in playd. ">
<polygon fill="white" stroke="black" points="1382,-348.5 1382,-367.5 1428,-367.5 1428,-348.5 1382,-348.5"/>
<text text-anchor="middle" x="1405" y="-355.5" font-family="Helvetica,sans-Serif" font-size="10.00">io.hpp</text>
</a>
</g>
</g>
<!-- Node0&#45;&gt;Node28 -->
<g id="edge59" class="edge"><title>Node0&#45;&gt;Node28</title>
<path fill="none" stroke="midnightblue" d="M391.275,-411.384C544.48,-403.467 1214.73,-368.832 1371.92,-360.709"/>
<polygon fill="midnightblue" stroke="midnightblue" points="1372.13,-364.203 1381.93,-360.192 1371.77,-357.213 1372.13,-364.203"/>
</g>
<!-- Node8&#45;&gt;Node5 -->
<g id="edge10" class="edge"><title>Node8&#45;&gt;Node5</title>
<path fill="none" stroke="midnightblue" d="M545.112,-56.4435C515.246,-47.2801 467.685,-32.6876 434.544,-22.5192"/>
<polygon fill="midnightblue" stroke="midnightblue" points="435.344,-19.1037 424.757,-19.5164 433.291,-25.7958 435.344,-19.1037"/>
</g>
<!-- Node9 -->
<g id="node10" class="node"><title>Node9</title>
<polygon fill="white" stroke="#bfbfbf" points="543.5,-0.5 543.5,-19.5 602.5,-19.5 602.5,-0.5 543.5,-0.5"/>
<text text-anchor="middle" x="573" y="-7.5" font-family="Helvetica,sans-Serif" font-size="10.00">iostream</text>
</g>
<!-- Node8&#45;&gt;Node9 -->
<g id="edge9" class="edge"><title>Node8&#45;&gt;Node9</title>
<path fill="none" stroke="midnightblue" d="M573,-56.083C573,-49.0059 573,-38.8611 573,-29.9865"/>
<polygon fill="midnightblue" stroke="midnightblue" points="576.5,-29.751 573,-19.7511 569.5,-29.7511 576.5,-29.751"/>
</g>
<!-- Node10&#45;&gt;Node6 -->
<g id="edge12" class="edge"><title>Node10&#45;&gt;Node6</title>
<path fill="none" stroke="midnightblue" d="M400.16,-236.362C400.977,-213.825 405.821,-152.204 434,-112 443.442,-98.5283 458.305,-87.8792 471.538,-80.3295"/>
<polygon fill="midnightblue" stroke="midnightblue" points="473.194,-83.4128 480.352,-75.6013 469.885,-77.2443 473.194,-83.4128"/>
</g>
<!-- Node11&#45;&gt;Node6 -->
<g id="edge18" class="edge"><title>Node11&#45;&gt;Node6</title>
<path fill="none" stroke="midnightblue" d="M1062.94,-299.005C955.921,-291.95 621.036,-265.02 538,-200 503.114,-172.684 498.776,-115.655 499.073,-85.9332"/>
<polygon fill="midnightblue" stroke="midnightblue" points="502.58,-85.7729 499.376,-75.6739 495.583,-85.5662 502.58,-85.7729"/>
</g>
<!-- Node12 -->
<g id="node13" class="node"><title>Node12</title>
<polygon fill="white" stroke="#bfbfbf" points="959.5,-0.5 959.5,-19.5 1008.5,-19.5 1008.5,-0.5 959.5,-0.5"/>
<text text-anchor="middle" x="984" y="-7.5" font-family="Helvetica,sans-Serif" font-size="10.00">cstdint</text>
</g>
<!-- Node11&#45;&gt;Node12 -->
<g id="edge14" class="edge"><title>Node11&#45;&gt;Node12</title>
<path fill="none" stroke="midnightblue" d="M1129.27,-298.263C1165.24,-293.979 1223.07,-283.136 1265,-256 1346.83,-203.043 1420.29,-128.376 1355,-56 1332.63,-31.2037 1106.29,-17.1861 1018.52,-12.6478"/>
<polygon fill="midnightblue" stroke="midnightblue" points="1018.69,-9.15207 1008.53,-12.1413 1018.34,-16.1431 1018.69,-9.15207"/>
</g>
<!-- Node13 -->
<g id="node14" class="node"><title>Node13</title>
<polygon fill="white" stroke="#bfbfbf" points="1004.5,-236.5 1004.5,-255.5 1067.5,-255.5 1067.5,-236.5 1004.5,-236.5"/>
<text text-anchor="middle" x="1036" y="-243.5" font-family="Helvetica,sans-Serif" font-size="10.00">functional</text>
</g>
<!-- Node11&#45;&gt;Node13 -->
<g id="edge15" class="edge"><title>Node11&#45;&gt;Node13</title>
<path fill="none" stroke="midnightblue" d="M1086.36,-292.324C1077.49,-284.341 1064.13,-272.313 1053.39,-262.653"/>
<polygon fill="midnightblue" stroke="midnightblue" points="1055.59,-259.922 1045.82,-255.834 1050.91,-265.125 1055.59,-259.922"/>
</g>
<!-- Node14 -->
<g id="node15" class="node"><title>Node14</title>
<polygon fill="white" stroke="#bfbfbf" points="1308,-56.5 1308,-75.5 1346,-75.5 1346,-56.5 1308,-56.5"/>
<text text-anchor="middle" x="1327" y="-63.5" font-family="Helvetica,sans-Serif" font-size="10.00">map</text>
</g>
<!-- Node11&#45;&gt;Node14 -->
<g id="edge16" class="edge"><title>Node11&#45;&gt;Node14</title>
<path fill="none" stroke="midnightblue" d="M1129.27,-298.263C1165.24,-293.979 1223.07,-283.136 1265,-256 1318.85,-221.155 1334.54,-204.441 1356,-144 1360.76,-130.597 1360.02,-125.644 1356,-112 1352.99,-101.765 1346.85,-91.6599 1340.99,-83.627"/>
<polygon fill="midnightblue" stroke="midnightblue" points="1343.59,-81.2694 1334.67,-75.5413 1338.07,-85.5773 1343.59,-81.2694"/>
</g>
<!-- Node15 -->
<g id="node16" class="node"><title>Node15</title>
<polygon fill="white" stroke="#bfbfbf" points="1175.5,-56.5 1175.5,-75.5 1232.5,-75.5 1232.5,-56.5 1175.5,-56.5"/>
<text text-anchor="middle" x="1204" y="-63.5" font-family="Helvetica,sans-Serif" font-size="10.00">memory</text>
</g>
<!-- Node11&#45;&gt;Node15 -->
<g id="edge17" class="edge"><title>Node11&#45;&gt;Node15</title>
<path fill="none" stroke="midnightblue" d="M1100.79,-292.304C1113.64,-268.795 1149.64,-201.847 1175,-144 1183.67,-124.229 1192.21,-100.967 1197.75,-85.2258"/>
<polygon fill="midnightblue" stroke="midnightblue" points="1201.1,-86.2597 1201.07,-75.6649 1194.48,-83.9616 1201.1,-86.2597"/>
</g>
<!-- Node16 -->
<g id="node17" class="node"><title>Node16</title>
<polygon fill="white" stroke="#bfbfbf" points="968,-118.5 968,-137.5 1010,-137.5 1010,-118.5 968,-118.5"/>
<text text-anchor="middle" x="989" y="-125.5" font-family="Helvetica,sans-Serif" font-size="10.00">utility</text>
</g>
<!-- Node11&#45;&gt;Node16 -->
<g id="edge19" class="edge"><title>Node11&#45;&gt;Node16</title>
<path fill="none" stroke="midnightblue" d="M1062.9,-295.566C1039.77,-289.89 1010.38,-278.506 995,-256 972.662,-223.309 978.682,-174.079 984.287,-147.536"/>
<polygon fill="midnightblue" stroke="midnightblue" points="987.727,-148.197 986.58,-137.665 980.908,-146.613 987.727,-148.197"/>
</g>
<!-- Node17 -->
<g id="node18" class="node"><title>Node17</title>
<polygon fill="white" stroke="#bfbfbf" points="1066.5,-56.5 1066.5,-75.5 1113.5,-75.5 1113.5,-56.5 1066.5,-56.5"/>
<text text-anchor="middle" x="1090" y="-63.5" font-family="Helvetica,sans-Serif" font-size="10.00">vector</text>
</g>
<!-- Node11&#45;&gt;Node17 -->
<g id="edge20" class="edge"><title>Node11&#45;&gt;Node17</title>
<path fill="none" stroke="midnightblue" d="M1095.78,-292.394C1094.91,-258.573 1091.73,-134.281 1090.49,-86.1838"/>
<polygon fill="midnightblue" stroke="midnightblue" points="1093.98,-85.8409 1090.23,-75.9339 1086.99,-86.0204 1093.98,-85.8409"/>
</g>
<!-- Node18 -->
<g id="node19" class="node"><title>Node18</title>
<g id="a_node19"><a xlink:href="audio__sink_8hpp.html" target="_top" xlink:title="Declaration of the AudioSink class. ">
<polygon fill="white" stroke="black" points="744.5,-236.5 744.5,-255.5 861.5,-255.5 861.5,-236.5 744.5,-236.5"/>
<text text-anchor="middle" x="803" y="-243.5" font-family="Helvetica,sans-Serif" font-size="10.00">audio/audio_sink.hpp</text>
</a>
</g>
</g>
<!-- Node11&#45;&gt;Node18 -->
<g id="edge21" class="edge"><title>Node11&#45;&gt;Node18</title>
<path fill="none" stroke="midnightblue" d="M1062.96,-294.91C1013.51,-285.798 919.635,-268.496 859.257,-257.368"/>
<polygon fill="midnightblue" stroke="midnightblue" points="859.598,-253.872 849.129,-255.502 858.329,-260.756 859.598,-253.872"/>
</g>
<!-- Node21 -->
<g id="node22" class="node"><title>Node21</title>
<g id="a_node22"><a xlink:href="audio_8hpp.html" target="_top" xlink:title="Declaration of the Audio class. ">
<polygon fill="white" stroke="black" points="1006,-180.5 1006,-199.5 1070,-199.5 1070,-180.5 1006,-180.5"/>
<text text-anchor="middle" x="1038" y="-187.5" font-family="Helvetica,sans-Serif" font-size="10.00">audio.hpp</text>
</a>
</g>
</g>
<!-- Node11&#45;&gt;Node21 -->
<g id="edge56" class="edge"><title>Node11&#45;&gt;Node21</title>
<path fill="none" stroke="midnightblue" d="M1094.45,-292.147C1091.94,-279.21 1086.19,-254.652 1076,-236 1070.19,-225.366 1061.62,-214.934 1054.08,-206.797"/>
<polygon fill="midnightblue" stroke="midnightblue" points="1056.5,-204.262 1047.04,-199.501 1051.47,-209.125 1056.5,-204.262"/>
</g>
<!-- Node11&#45;&gt;Node22 -->
<g id="edge57" class="edge"><title>Node11&#45;&gt;Node22</title>
<path fill="none" stroke="midnightblue" d="M1129.27,-298.412C1161.53,-294.293 1210.13,-283.624 1242,-256 1275.52,-226.94 1291.7,-175.041 1298.26,-147.443"/>
<polygon fill="midnightblue" stroke="midnightblue" points="1301.7,-148.062 1300.44,-137.543 1294.87,-146.556 1301.7,-148.062"/>
</g>
<!-- Node24 -->
<g id="node25" class="node"><title>Node24</title>
<g id="a_node25"><a xlink:href="audio__source_8hpp.html" target="_top" xlink:title="Declaration of the AudioSource class. ">
<polygon fill="white" stroke="black" points="810.5,-118.5 810.5,-137.5 911.5,-137.5 911.5,-118.5 810.5,-118.5"/>
<text text-anchor="middle" x="861" y="-125.5" font-family="Helvetica,sans-Serif" font-size="10.00">audio_source.hpp</text>
</a>
</g>
</g>
<!-- Node11&#45;&gt;Node24 -->
<g id="edge55" class="edge"><title>Node11&#45;&gt;Node24</title>
<path fill="none" stroke="midnightblue" d="M1063.97,-292.45C1040.08,-285.132 1007.32,-273.058 982,-256 935.456,-224.649 893.224,-172.628 873.212,-145.939"/>
<polygon fill="midnightblue" stroke="midnightblue" points="875.84,-143.605 867.09,-137.631 870.204,-147.757 875.84,-143.605"/>
</g>
<!-- Node18&#45;&gt;Node6 -->
<g id="edge25" class="edge"><title>Node18&#45;&gt;Node6</title>
<path fill="none" stroke="midnightblue" d="M744.389,-240.285C682.139,-234.22 588.928,-221.779 561,-200 524.039,-171.177 508.669,-114.814 502.967,-85.5808"/>
<polygon fill="midnightblue" stroke="midnightblue" points="506.372,-84.7366 501.18,-75.5014 499.48,-85.959 506.372,-84.7366"/>
</g>
<!-- Node18&#45;&gt;Node12 -->
<g id="edge23" class="edge"><title>Node18&#45;&gt;Node12</title>
<path fill="none" stroke="midnightblue" d="M800.034,-236.449C792.849,-214.123 776.818,-152.967 801,-112 833.105,-57.6099 906.143,-30.4916 949.615,-18.703"/>
<polygon fill="midnightblue" stroke="midnightblue" points="950.659,-22.0484 959.464,-16.1571 948.907,-15.2712 950.659,-22.0484"/>
</g>
<!-- Node18&#45;&gt;Node15 -->
<g id="edge24" class="edge"><title>Node18&#45;&gt;Node15</title>
<path fill="none" stroke="midnightblue" d="M861.582,-239.757C931.054,-232.799 1042.09,-219.123 1079,-200 1131.83,-172.628 1174.41,-113.855 1193.35,-84.4723"/>
<polygon fill="midnightblue" stroke="midnightblue" points="1196.5,-86.0514 1198.85,-75.7222 1190.57,-82.3268 1196.5,-86.0514"/>
</g>
<!-- Node18&#45;&gt;Node16 -->
<g id="edge26" class="edge"><title>Node18&#45;&gt;Node16</title>
<path fill="none" stroke="midnightblue" d="M817.017,-236.409C831.729,-227.379 855.523,-212.744 876,-200 907.638,-180.31 944.126,-157.335 966.881,-142.976"/>
<polygon fill="midnightblue" stroke="midnightblue" points="968.869,-145.86 975.456,-137.562 965.132,-139.941 968.869,-145.86"/>
</g>
<!-- Node18&#45;&gt;Node17 -->
<g id="edge27" class="edge"><title>Node18&#45;&gt;Node17</title>
<path fill="none" stroke="midnightblue" d="M812.339,-236.459C826.116,-223.91 852.768,-199.832 876,-180 895.217,-163.595 900.456,-160.014 920,-144 937.343,-129.79 939.421,-122.926 959,-112 990.096,-94.647 1029.05,-82.3126 1056.37,-74.9971"/>
<polygon fill="midnightblue" stroke="midnightblue" points="1057.42,-78.3384 1066.22,-72.4391 1055.67,-71.5628 1057.42,-78.3384"/>
</g>
<!-- Node19 -->
<g id="node20" class="node"><title>Node19</title>
<polygon fill="white" stroke="#bfbfbf" points="641.5,-0.5 641.5,-19.5 682.5,-19.5 682.5,-0.5 641.5,-0.5"/>
<text text-anchor="middle" x="662" y="-7.5" font-family="Helvetica,sans-Serif" font-size="10.00">array</text>
</g>
<!-- Node18&#45;&gt;Node19 -->
<g id="edge22" class="edge"><title>Node18&#45;&gt;Node19</title>
<path fill="none" stroke="midnightblue" d="M744.382,-240.869C676.704,-235.11 570.514,-222.721 538,-200 531.701,-195.598 470.106,-80.3454 469,-76 466.808,-67.3856 463.474,-62.9625 469,-56 474.088,-49.589 578.274,-27.8405 631.405,-17.1016"/>
<polygon fill="midnightblue" stroke="midnightblue" points="632.194,-20.5131 641.306,-15.1084 630.812,-13.6508 632.194,-20.5131"/>
</g>
<!-- Node20 -->
<g id="node21" class="node"><title>Node20</title>
<polygon fill="white" stroke="#bfbfbf" points="671.5,-180.5 671.5,-199.5 716.5,-199.5 716.5,-180.5 671.5,-180.5"/>
<text text-anchor="middle" x="694" y="-187.5" font-family="Helvetica,sans-Serif" font-size="10.00">SDL.h</text>
</g>
<!-- Node18&#45;&gt;Node20 -->
<g id="edge28" class="edge"><title>Node18&#45;&gt;Node20</title>
<path fill="none" stroke="midnightblue" d="M785.487,-236.324C767.928,-227.625 740.669,-214.12 720.469,-204.113"/>
<polygon fill="midnightblue" stroke="midnightblue" points="721.984,-200.958 711.469,-199.655 718.876,-207.23 721.984,-200.958"/>
</g>
<!-- Node18&#45;&gt;Node21 -->
<g id="edge29" class="edge"><title>Node18&#45;&gt;Node21</title>
<path fill="none" stroke="midnightblue" d="M840.236,-236.444C882.621,-226.704 951.695,-210.832 995.975,-200.657"/>
<polygon fill="midnightblue" stroke="midnightblue" points="996.885,-204.039 1005.85,-198.388 995.317,-197.217 996.885,-204.039"/>
</g>
<!-- Node18&#45;&gt;Node24 -->
<g id="edge51" class="edge"><title>Node18&#45;&gt;Node24</title>
<path fill="none" stroke="midnightblue" d="M807.359,-236.281C816.853,-217.294 839.554,-171.892 852.169,-146.662"/>
<polygon fill="midnightblue" stroke="midnightblue" points="855.406,-148.014 856.748,-137.505 849.145,-144.884 855.406,-148.014"/>
</g>
<!-- Node25 -->
<g id="node26" class="node"><title>Node25</title>
<g id="a_node26"><a xlink:href="sample__formats_8hpp.html" target="_top" xlink:title="The SampleFormat enumeration and related declarations. ">
<polygon fill="white" stroke="black" points="624,-56.5 624,-75.5 740,-75.5 740,-56.5 624,-56.5"/>
<text text-anchor="middle" x="682" y="-63.5" font-family="Helvetica,sans-Serif" font-size="10.00">sample_formats.hpp</text>
</a>
</g>
</g>
<!-- Node18&#45;&gt;Node25 -->
<g id="edge54" class="edge"><title>Node18&#45;&gt;Node25</title>
<path fill="none" stroke="midnightblue" d="M796.382,-236.447C789.457,-227.449 778.316,-212.839 769,-200 751.188,-175.451 746.694,-169.322 730,-144 716.644,-123.742 701.983,-99.9862 692.423,-84.2754"/>
<polygon fill="midnightblue" stroke="midnightblue" points="695.363,-82.3737 687.186,-75.636 689.377,-86.002 695.363,-82.3737"/>
</g>
<!-- Node26 -->
<g id="node27" class="node"><title>Node26</title>
<g id="a_node27"><a xlink:href="ringbuffer_8hpp.html" target="_top" xlink:title="The RingBuffer class template. ">
<polygon fill="white" stroke="black" points="570.5,-180.5 570.5,-199.5 653.5,-199.5 653.5,-180.5 570.5,-180.5"/>
<text text-anchor="middle" x="612" y="-187.5" font-family="Helvetica,sans-Serif" font-size="10.00">ringbuffer.hpp</text>
</a>
</g>
</g>
<!-- Node18&#45;&gt;Node26 -->
<g id="edge52" class="edge"><title>Node18&#45;&gt;Node26</title>
<path fill="none" stroke="midnightblue" d="M772.735,-236.444C740.045,-227.201 687.818,-212.436 651.817,-202.257"/>
<polygon fill="midnightblue" stroke="midnightblue" points="652.698,-198.869 642.123,-199.516 650.794,-205.605 652.698,-198.869"/>
</g>
<!-- Node21&#45;&gt;Node6 -->
<g id="edge32" class="edge"><title>Node21&#45;&gt;Node6</title>
<path fill="none" stroke="midnightblue" d="M1005.62,-183.737C959.816,-176.091 873.593,-160.96 801,-144 749.338,-131.93 737.406,-125.115 686,-112 620.551,-95.3018 601.152,-93.9581 532.356,-76.2457"/>
<polygon fill="midnightblue" stroke="midnightblue" points="532.87,-72.763 522.311,-73.6344 531.109,-79.5378 532.87,-72.763"/>
</g>
<!-- Node21&#45;&gt;Node12 -->
<g id="edge30" class="edge"><title>Node21&#45;&gt;Node12</title>
<path fill="none" stroke="midnightblue" d="M1035.98,-180.4C1032.57,-166.112 1025.33,-136.621 1018,-112 1009.27,-82.6901 997.64,-49.123 990.493,-29.0154"/>
<polygon fill="midnightblue" stroke="midnightblue" points="993.782,-27.8172 987.118,-19.5811 987.191,-30.1757 993.782,-27.8172"/>
</g>
<!-- Node21&#45;&gt;Node15 -->
<g id="edge31" class="edge"><title>Node21&#45;&gt;Node15</title>
<path fill="none" stroke="midnightblue" d="M1049.67,-180.421C1077.7,-159.821 1149.07,-107.369 1184.06,-81.6575"/>
<polygon fill="midnightblue" stroke="midnightblue" points="1186.13,-84.475 1192.12,-75.7326 1181.99,-78.8345 1186.13,-84.475"/>
</g>
<!-- Node21&#45;&gt;Node16 -->
<g id="edge33" class="edge"><title>Node21&#45;&gt;Node16</title>
<path fill="none" stroke="midnightblue" d="M1030.98,-180.403C1023.56,-171.314 1011.67,-156.756 1002.43,-145.449"/>
<polygon fill="midnightblue" stroke="midnightblue" points="1005.04,-143.112 996.007,-137.581 999.622,-147.54 1005.04,-143.112"/>
</g>
<!-- Node21&#45;&gt;Node17 -->
<g id="edge34" class="edge"><title>Node21&#45;&gt;Node17</title>
<path fill="none" stroke="midnightblue" d="M1041.74,-180.226C1050.21,-160.354 1071,-111.576 1082.33,-84.9894"/>
<polygon fill="midnightblue" stroke="midnightblue" points="1085.59,-86.266 1086.29,-75.6944 1079.15,-83.5213 1085.59,-86.266"/>
</g>
<!-- Node21&#45;&gt;Node22 -->
<g id="edge35" class="edge"><title>Node21&#45;&gt;Node22</title>
<path fill="none" stroke="midnightblue" d="M1070.11,-181.703C1116.19,-171.229 1201.41,-151.862 1254.71,-139.748"/>
<polygon fill="midnightblue" stroke="midnightblue" points="1255.62,-143.13 1264.6,-137.5 1254.07,-136.304 1255.62,-143.13"/>
</g>
<!-- Node21&#45;&gt;Node24 -->
<g id="edge43" class="edge"><title>Node21&#45;&gt;Node24</title>
<path fill="none" stroke="midnightblue" d="M1012.64,-180.403C982.016,-170.022 930.343,-152.506 895.954,-140.849"/>
<polygon fill="midnightblue" stroke="midnightblue" points="896.907,-137.476 886.313,-137.581 894.66,-144.106 896.907,-137.476"/>
</g>
<!-- Node22&#45;&gt;Node6 -->
<g id="edge40" class="edge"><title>Node22&#45;&gt;Node6</title>
<path fill="none" stroke="midnightblue" d="M1256.37,-124.559C1107.04,-116.495 636.982,-90.4753 532.183,-75.6488"/>
<polygon fill="midnightblue" stroke="midnightblue" points="532.639,-72.1775 522.215,-74.0741 531.546,-79.0918 532.639,-72.1775"/>
</g>
<!-- Node22&#45;&gt;Node8 -->
<g id="edge42" class="edge"><title>Node22&#45;&gt;Node8</title>
<path fill="none" stroke="midnightblue" d="M1256.42,-124.435C1127.02,-117.027 758.21,-95.0006 616.594,-76.0078"/>
<polygon fill="midnightblue" stroke="midnightblue" points="616.783,-72.5005 606.396,-74.5879 615.818,-79.4336 616.783,-72.5005"/>
</g>
<!-- Node22&#45;&gt;Node12 -->
<g id="edge36" class="edge"><title>Node22&#45;&gt;Node12</title>
<path fill="none" stroke="midnightblue" d="M1297.28,-118.32C1288.44,-102.982 1267.84,-71.2663 1241,-56 1203.58,-34.7141 1080.03,-20.2283 1018.9,-14.18"/>
<polygon fill="midnightblue" stroke="midnightblue" points="1018.88,-10.6623 1008.59,-13.1822 1018.21,-17.6297 1018.88,-10.6623"/>
</g>
<!-- Node22&#45;&gt;Node14 -->
<g id="edge37" class="edge"><title>Node22&#45;&gt;Node14</title>
<path fill="none" stroke="midnightblue" d="M1305.58,-118.403C1309.18,-109.76 1314.85,-96.17 1319.44,-85.1341"/>
<polygon fill="midnightblue" stroke="midnightblue" points="1322.81,-86.1575 1323.42,-75.5806 1316.35,-83.4652 1322.81,-86.1575"/>
</g>
<!-- Node22&#45;&gt;Node15 -->
<g id="edge38" class="edge"><title>Node22&#45;&gt;Node15</title>
<path fill="none" stroke="midnightblue" d="M1287.96,-118.403C1271.95,-108.601 1245.55,-92.4385 1226.63,-80.8526"/>
<polygon fill="midnightblue" stroke="midnightblue" points="1228.37,-77.8172 1218.01,-75.5806 1224.72,-83.7872 1228.37,-77.8172"/>
</g>
<!-- Node22&#45;&gt;Node17 -->
<g id="edge41" class="edge"><title>Node22&#45;&gt;Node17</title>
<path fill="none" stroke="midnightblue" d="M1271.63,-118.403C1232.36,-107.291 1164.21,-88.0036 1123.49,-76.4778"/>
<polygon fill="midnightblue" stroke="midnightblue" points="1124.33,-73.08 1113.76,-73.7244 1122.43,-79.8154 1124.33,-73.08"/>
</g>
<!-- Node23 -->
<g id="node24" class="node"><title>Node23</title>
<polygon fill="white" stroke="#bfbfbf" points="1484.5,-56.5 1484.5,-75.5 1541.5,-75.5 1541.5,-56.5 1484.5,-56.5"/>
<text text-anchor="middle" x="1513" y="-63.5" font-family="Helvetica,sans-Serif" font-size="10.00">ostream</text>
</g>
<!-- Node22&#45;&gt;Node23 -->
<g id="edge39" class="edge"><title>Node22&#45;&gt;Node23</title>
<path fill="none" stroke="midnightblue" d="M1332.23,-118.403C1369.71,-107.747 1433.63,-89.5708 1474.55,-77.9329"/>
<polygon fill="midnightblue" stroke="midnightblue" points="1475.52,-81.2972 1484.18,-75.1954 1473.6,-74.5641 1475.52,-81.2972"/>
</g>
<!-- Node24&#45;&gt;Node6 -->
<g id="edge45" class="edge"><title>Node24&#45;&gt;Node6</title>
<path fill="none" stroke="midnightblue" d="M826.714,-118.468C816.839,-116.179 806.025,-113.834 796,-112 682.277,-91.1989 649.081,-100.112 532.302,-75.9994"/>
<polygon fill="midnightblue" stroke="midnightblue" points="532.758,-72.5188 522.251,-73.8861 531.317,-79.369 532.758,-72.5188"/>
</g>
<!-- Node24&#45;&gt;Node8 -->
<g id="edge47" class="edge"><title>Node24&#45;&gt;Node8</title>
<path fill="none" stroke="midnightblue" d="M824.943,-118.473C815.535,-116.305 805.398,-114.019 796,-112 718.941,-95.4493 697.016,-92.7868 616.165,-76.2127"/>
<polygon fill="midnightblue" stroke="midnightblue" points="616.506,-72.7095 606.005,-74.1207 615.094,-79.5657 616.506,-72.7095"/>
</g>
<!-- Node24&#45;&gt;Node12 -->
<g id="edge44" class="edge"><title>Node24&#45;&gt;Node12</title>
<path fill="none" stroke="midnightblue" d="M870.245,-118.281C891.004,-98.7036 941.542,-51.0414 967.705,-26.3676"/>
<polygon fill="midnightblue" stroke="midnightblue" points="970.108,-28.9121 974.982,-19.5048 965.306,-23.8196 970.108,-28.9121"/>
</g>
<!-- Node24&#45;&gt;Node17 -->
<g id="edge46" class="edge"><title>Node24&#45;&gt;Node17</title>
<path fill="none" stroke="midnightblue" d="M893.81,-118.403C937.089,-107.064 1012.86,-87.212 1056.49,-75.7811"/>
<polygon fill="midnightblue" stroke="midnightblue" points="1057.54,-79.1233 1066.33,-73.203 1055.76,-72.3518 1057.54,-79.1233"/>
</g>
<!-- Node24&#45;&gt;Node25 -->
<g id="edge48" class="edge"><title>Node24&#45;&gt;Node25</title>
<path fill="none" stroke="midnightblue" d="M835.354,-118.403C804.383,-108.022 752.127,-90.5062 717.349,-78.849"/>
<polygon fill="midnightblue" stroke="midnightblue" points="718.193,-75.4403 707.599,-75.5806 715.968,-82.0774 718.193,-75.4403"/>
</g>
<!-- Node25&#45;&gt;Node12 -->
<g id="edge50" class="edge"><title>Node25&#45;&gt;Node12</title>
<path fill="none" stroke="midnightblue" d="M729.853,-56.4435C790.975,-45.5143 895.29,-26.8621 949.302,-17.2043"/>
<polygon fill="midnightblue" stroke="midnightblue" points="950.178,-20.6032 959.406,-15.3976 948.946,-13.7125 950.178,-20.6032"/>
</g>
<!-- Node25&#45;&gt;Node19 -->
<g id="edge49" class="edge"><title>Node25&#45;&gt;Node19</title>
<path fill="none" stroke="midnightblue" d="M678.697,-56.083C676.018,-48.8486 672.151,-38.4087 668.814,-29.3968"/>
<polygon fill="midnightblue" stroke="midnightblue" points="671.996,-27.9129 665.241,-19.7511 665.432,-30.3442 671.996,-27.9129"/>
</g>
<!-- Node27 -->
<g id="node28" class="node"><title>Node27</title>
<polygon fill="white" stroke="#bfbfbf" points="552.5,-113 552.5,-143 677.5,-143 677.5,-113 552.5,-113"/>
<text text-anchor="start" x="560.5" y="-131" font-family="Helvetica,sans-Serif" font-size="10.00">../contrib/pa_ringbuffer</text>
<text text-anchor="middle" x="615" y="-120" font-family="Helvetica,sans-Serif" font-size="10.00">/pa_ringbuffer.h</text>
</g>
<!-- Node26&#45;&gt;Node27 -->
<g id="edge53" class="edge"><title>Node26&#45;&gt;Node27</title>
<path fill="none" stroke="midnightblue" d="M612.43,-180.403C612.783,-173.341 613.301,-162.975 613.78,-153.399"/>
<polygon fill="midnightblue" stroke="midnightblue" points="617.289,-153.303 614.293,-143.141 610.298,-152.954 617.289,-153.303"/>
</g>
<!-- Node28&#45;&gt;Node7 -->
<g id="edge62" class="edge"><title>Node28&#45;&gt;Node7</title>
<path fill="none" stroke="midnightblue" d="M1425.28,-348.444C1446.97,-339.295 1481.48,-324.736 1505.58,-314.569"/>
<polygon fill="midnightblue" stroke="midnightblue" points="1507.03,-317.755 1514.88,-310.643 1504.31,-311.306 1507.03,-317.755"/>
</g>
<!-- Node28&#45;&gt;Node11 -->
<g id="edge63" class="edge"><title>Node28&#45;&gt;Node11</title>
<path fill="none" stroke="midnightblue" d="M1381.77,-352.941C1330.22,-343.931 1205.53,-322.142 1139.2,-310.549"/>
<polygon fill="midnightblue" stroke="midnightblue" points="1139.52,-307.053 1129.07,-308.779 1138.32,-313.949 1139.52,-307.053"/>
</g>
<!-- Node28&#45;&gt;Node22 -->
<g id="edge64" class="edge"><title>Node28&#45;&gt;Node22</title>
<path fill="none" stroke="midnightblue" d="M1399.74,-348.181C1394.48,-339.212 1386.28,-324.845 1380,-312 1351.09,-252.912 1322.02,-180.447 1309.03,-147.219"/>
<polygon fill="midnightblue" stroke="midnightblue" points="1312.15,-145.584 1305.27,-137.531 1305.63,-148.12 1312.15,-145.584"/>
</g>
<!-- Node28&#45;&gt;Node23 -->
<g id="edge60" class="edge"><title>Node28&#45;&gt;Node23</title>
<path fill="none" stroke="midnightblue" d="M1417.1,-348.361C1437.93,-332.687 1480.09,-297.335 1498,-256 1523.05,-198.204 1519.03,-121.204 1515.4,-86.0065"/>
<polygon fill="midnightblue" stroke="midnightblue" points="1518.85,-85.2983 1514.23,-75.7609 1511.89,-86.0939 1518.85,-85.2983"/>
</g>
<!-- Node29 -->
<g id="node30" class="node"><title>Node29</title>
<polygon fill="white" stroke="#bfbfbf" points="1389,-292.5 1389,-311.5 1421,-311.5 1421,-292.5 1389,-292.5"/>
<text text-anchor="middle" x="1405" y="-299.5" font-family="Helvetica,sans-Serif" font-size="10.00">set</text>
</g>
<!-- Node28&#45;&gt;Node29 -->
<g id="edge61" class="edge"><title>Node28&#45;&gt;Node29</title>
<path fill="none" stroke="midnightblue" d="M1405,-348.083C1405,-341.006 1405,-330.861 1405,-321.986"/>
<polygon fill="midnightblue" stroke="midnightblue" points="1408.5,-321.751 1405,-311.751 1401.5,-321.751 1408.5,-321.751"/>
</g>
<!-- Node30 -->
<g id="node31" class="node"><title>Node30</title>
<g id="a_node31"><a xlink:href="tokeniser_8hpp.html" target="_top" xlink:title="Declaration of the Tokeniser class. ">
<polygon fill="white" stroke="black" points="1408.5,-236.5 1408.5,-255.5 1489.5,-255.5 1489.5,-236.5 1408.5,-236.5"/>
<text text-anchor="middle" x="1449" y="-243.5" font-family="Helvetica,sans-Serif" font-size="10.00">tokeniser.hpp</text>
</a>
</g>
</g>
<!-- Node28&#45;&gt;Node30 -->
<g id="edge65" class="edge"><title>Node28&#45;&gt;Node30</title>
<path fill="none" stroke="midnightblue" d="M1410.58,-348.328C1416.1,-339.474 1424.49,-325.194 1430,-312 1436.37,-296.745 1441.48,-278.636 1444.78,-265.411"/>
<polygon fill="midnightblue" stroke="midnightblue" points="1448.2,-266.162 1447.13,-255.622 1441.4,-264.532 1448.2,-266.162"/>
</g>
<!-- Node30&#45;&gt;Node22 -->
<g id="edge66" class="edge"><title>Node30&#45;&gt;Node22</title>
<path fill="none" stroke="midnightblue" d="M1443.08,-236.125C1433.82,-222.722 1414.79,-197.071 1394,-180 1374.92,-164.338 1350.34,-150.998 1331.39,-141.893"/>
<polygon fill="midnightblue" stroke="midnightblue" points="1332.86,-138.717 1322.32,-137.65 1329.89,-145.058 1332.86,-138.717"/>
</g>
</g>
</svg>
        <g id="navigator" transform="translate(0 0)" fill="#404254">
                <rect fill="#f2f5e9" fill-opacity="0.5" stroke="#606060" stroke-width=".5" x="0" y="0" width="60" height="60"/>
                <use id="zoomplus" xlink:href="#zoomPlus" x="17" y="9" onmousedown="handleZoom(evt,'in')"/>
                <use id="zoomminus" xlink:href="#zoomMin" x="42" y="9" onmousedown="handleZoom(evt,'out')"/>
                <use id="reset" xlink:href="#resetDef" x="30" y="36" onmousedown="handleReset()"/>
                <g id="arrowUp" xlink:href="#dirArrow" transform="translate(30 24)" onmousedown="handlePan(0,-1)">
                  <use xlink:href="#rim" fill="#404040">
                        <set attributeName="fill" to="#808080" begin="arrowUp.mouseover" end="arrowUp.mouseout"/>
                  </use>
                  <path fill="none" stroke="white" stroke-width="1.5" d="M0,-3.0v7 M-2.5,-0.5L0,-3.0L2.5,-0.5"/>
                </g>
                <g id="arrowRight" xlink:href="#dirArrow" transform="rotate(90) translate(36 -43)" onmousedown="handlePan(1,0)">
                  <use xlink:href="#rim" fill="#404040">
                        <set attributeName="fill" to="#808080" begin="arrowRight.mouseover" end="arrowRight.mouseout"/>
                  </use>
                  <path fill="none" stroke="white" stroke-width="1.5" d="M0,-3.0v7 M-2.5,-0.5L0,-3.0L2.5,-0.5"/>
                </g>
                <g id="arrowDown" xlink:href="#dirArrow" transform="rotate(180) translate(-30 -48)" onmousedown="handlePan(0,1)">
                  <use xlink:href="#rim" fill="#404040">
                        <set attributeName="fill" to="#808080" begin="arrowDown.mouseover" end="arrowDown.mouseout"/>
                  </use>
                  <path fill="none" stroke="white" stroke-width="1.5" d="M0,-3.0v7 M-2.5,-0.5L0,-3.0L2.5,-0.5"/>
                </g>
                <g id="arrowLeft" xlink:href="#dirArrow" transform="rotate(270) translate(-36 17)" onmousedown="handlePan(-1,0)">
                  <use xlink:href="#rim" fill="#404040">
                        <set attributeName="fill" to="#808080" begin="arrowLeft.mouseover" end="arrowLeft.mouseout"/>
                  </use>
                  <path fill="none" stroke="white" stroke-width="1.5" d="M0,-3.0v7 M-2.5,-0.5L0,-3.0L2.5,-0.5"/>
                </g>
        </g>
        <svg viewBox="0 0 15 15" width="100%" height="30px" preserveAspectRatio="xMaxYMin meet">
         <g id="arrow_out" transform="scale(0.3 0.3)">
          <a xlink:href="io_8cpp__incl_org.svg" target="_base">
           <rect id="button" ry="5" rx="5" y="6" x="6" height="38" width="38"
                fill="#f2f5e9" fill-opacity="0.5" stroke="#606060" stroke-width="1.0"/>
           <path id="arrow"
             d="M 11.500037,31.436501 C 11.940474,20.09759 22.043105,11.32322 32.158766,21.979434 L 37.068811,17.246167 C 37.068811,17.246167 37.088388,32 37.088388,32 L 22.160133,31.978069 C 22.160133,31.978069 26.997745,27.140456 26.997745,27.140456 C 18.528582,18.264221 13.291696,25.230495 11.500037,31.436501 z"
             style="fill:#404040;"/>
          </a>
         </g>
        </svg>
</svg>
