<?xml version="1.0" encoding="UTF-8" standalone="no"?>
<!DOCTYPE svg PUBLIC "-//W3C//DTD SVG 1.1//EN"
 "http://www.w3.org/Graphics/SVG/1.1/DTD/svg11.dtd">
<!-- Generated by graphviz version 2.38.0 (20140413.2041)
 -->
<!-- Title: src/io/io_response.hpp Pages: 1 -->
<svg width="378pt" height="140pt"
 viewBox="0.00 0.00 378.00 140.00" xmlns="http://www.w3.org/2000/svg" xmlns:xlink="http://www.w3.org/1999/xlink">
<g id="graph0" class="graph" transform="scale(1 1) rotate(0) translate(4 136)">
<title>src/io/io_response.hpp</title>
<polygon fill="white" stroke="none" points="-4,4 -4,-136 374,-136 374,4 -4,4"/>
<!-- Node1 -->
<g id="node1" class="node"><title>Node1</title>
<polygon fill="#bfbfbf" stroke="black" points="101,-112.5 101,-131.5 225,-131.5 225,-112.5 101,-112.5"/>
<text text-anchor="middle" x="163" y="-119.5" font-family="Helvetica,sans-Serif" font-size="10.00">src/io/io_response.hpp</text>
</g>
<!-- Node2 -->
<g id="node2" class="node"><title>Node2</title>
<polygon fill="white" stroke="#bfbfbf" points="-3.55271e-15,-56.5 -3.55271e-15,-75.5 62,-75.5 62,-56.5 -3.55271e-15,-56.5"/>
<text text-anchor="middle" x="31" y="-63.5" font-family="Helvetica,sans-Serif" font-size="10.00">functional</text>
</g>
<!-- Node1&#45;&gt;Node2 -->
<g id="edge1" class="edge"><title>Node1&#45;&gt;Node2</title>
<path fill="none" stroke="midnightblue" d="M142.084,-112.444C120.264,-103.517 85.8502,-89.4387 61.1078,-79.3168"/>
<polygon fill="midnightblue" stroke="midnightblue" points="62.3987,-76.0634 51.8179,-75.5164 59.7482,-82.5422 62.3987,-76.0634"/>
</g>
<!-- Node3 -->
<g id="node3" class="node"><title>Node3</title>
<polygon fill="white" stroke="#bfbfbf" points="80.5,-56.5 80.5,-75.5 117.5,-75.5 117.5,-56.5 80.5,-56.5"/>
<text text-anchor="middle" x="99" y="-63.5" font-family="Helvetica,sans-Serif" font-size="10.00">map</text>
</g>
<!-- Node1&#45;&gt;Node3 -->
<g id="edge2" class="edge"><title>Node1&#45;&gt;Node3</title>
<path fill="none" stroke="midnightblue" d="M152.717,-112.324C143.164,-104.263 128.72,-92.0765 117.216,-82.3695"/>
<polygon fill="midnightblue" stroke="midnightblue" points="119.37,-79.6076 109.47,-75.8339 114.856,-84.9577 119.37,-79.6076"/>
</g>
<!-- Node4 -->
<g id="node4" class="node"><title>Node4</title>
<polygon fill="white" stroke="#bfbfbf" points="135.5,-56.5 135.5,-75.5 190.5,-75.5 190.5,-56.5 135.5,-56.5"/>
<text text-anchor="middle" x="163" y="-63.5" font-family="Helvetica,sans-Serif" font-size="10.00">ostream</text>
</g>
<!-- Node1&#45;&gt;Node4 -->
<g id="edge3" class="edge"><title>Node1&#45;&gt;Node4</title>
<path fill="none" stroke="midnightblue" d="M163,-112.083C163,-105.006 163,-94.8611 163,-85.9865"/>
<polygon fill="midnightblue" stroke="midnightblue" points="166.5,-85.751 163,-75.7511 159.5,-85.7511 166.5,-85.751"/>
</g>
<!-- Node5 -->
<g id="node5" class="node"><title>Node5</title>
<polygon fill="white" stroke="#bfbfbf" points="208.5,-56.5 208.5,-75.5 251.5,-75.5 251.5,-56.5 208.5,-56.5"/>
<text text-anchor="middle" x="230" y="-63.5" font-family="Helvetica,sans-Serif" font-size="10.00">string</text>
</g>
<!-- Node1&#45;&gt;Node5 -->
<g id="edge4" class="edge"><title>Node1&#45;&gt;Node5</title>
<path fill="none" stroke="midnightblue" d="M173.765,-112.324C183.766,-104.263 198.887,-92.0765 210.93,-82.3695"/>
<polygon fill="midnightblue" stroke="midnightblue" points="213.45,-84.8343 219.039,-75.8339 209.057,-79.3841 213.45,-84.8343"/>
</g>
<!-- Node6 -->
<g id="node6" class="node"><title>Node6</title>
<g id="a_node6"><a xlink:href="errors_8hpp.html" target="_top" xlink:title="Declarations of the playd Error exception set. ">
<polygon fill="white" stroke="black" points="269.5,-56.5 269.5,-75.5 342.5,-75.5 342.5,-56.5 269.5,-56.5"/>
<text text-anchor="middle" x="306" y="-63.5" font-family="Helvetica,sans-Serif" font-size="10.00">../errors.hpp</text>
</a>
</g>
</g>
<!-- Node1&#45;&gt;Node6 -->
<g id="edge5" class="edge"><title>Node1&#45;&gt;Node6</title>
<path fill="none" stroke="midnightblue" d="M185.659,-112.444C209.402,-103.478 246.909,-89.314 273.738,-79.1827"/>
<polygon fill="midnightblue" stroke="midnightblue" points="275.329,-82.3235 283.447,-75.5164 272.856,-75.7749 275.329,-82.3235"/>
</g>
<!-- Node7 -->
<g id="node7" class="node"><title>Node7</title>
<polygon fill="white" stroke="#bfbfbf" points="240.5,-0.5 240.5,-19.5 297.5,-19.5 297.5,-0.5 240.5,-0.5"/>
<text text-anchor="middle" x="269" y="-7.5" font-family="Helvetica,sans-Serif" font-size="10.00">iostream</text>
</g>
<!-- Node6&#45;&gt;Node7 -->
<g id="edge6" class="edge"><title>Node6&#45;&gt;Node7</title>
<path fill="none" stroke="midnightblue" d="M299.89,-56.083C294.718,-48.5341 287.154,-37.4948 280.806,-28.2298"/>
<polygon fill="midnightblue" stroke="midnightblue" points="283.536,-26.0221 274.996,-19.7511 277.761,-29.9787 283.536,-26.0221"/>
</g>
<!-- Node8 -->
<g id="node8" class="node"><title>Node8</title>
<polygon fill="white" stroke="#bfbfbf" points="316,-0.5 316,-19.5 370,-19.5 370,-0.5 316,-0.5"/>
<text text-anchor="middle" x="343" y="-7.5" font-family="Helvetica,sans-Serif" font-size="10.00">sstream</text>
</g>
<!-- Node6&#45;&gt;Node8 -->
<g id="edge7" class="edge"><title>Node6&#45;&gt;Node8</title>
<path fill="none" stroke="midnightblue" d="M312.11,-56.083C317.282,-48.5341 324.846,-37.4948 331.194,-28.2298"/>
<polygon fill="midnightblue" stroke="midnightblue" points="334.239,-29.9787 337.004,-19.7511 328.464,-26.0221 334.239,-29.9787"/>
</g>
</g>
</svg>
