<?xml version="1.0" encoding="UTF-8" standalone="no"?>
<!DOCTYPE svg PUBLIC "-//W3C//DTD SVG 1.1//EN"
 "http://www.w3.org/Graphics/SVG/1.1/DTD/svg11.dtd">
<!-- Generated by graphviz version 2.38.0 (20140413.2041)
 -->
<!-- Title: src/io/io_response.hpp Pages: 1 -->
<!--zoomable 476 -->
<svg id="main" version="1.1" xmlns="http://www.w3.org/2000/svg" xmlns:xlink="http://www.w3.org/1999/xlink" xml:space="preserve" onload="init(evt)">
<style type="text/css"><![CDATA[
.edge:hover path { stroke: red; }
.edge:hover polygon { stroke: red; fill: red; }
]]></style>
<script type="text/javascript"><![CDATA[
var edges = document.getElementsByTagName('g');
if (edges && edges.length) {
  for (var i=0;i<edges.length;i++) {
    if (edges[i].id.substr(0,4)=='edge') {
      edges[i].setAttribute('class','edge');
    }
  }
}
]]></script>
        <defs>
                <circle id="rim" cx="0" cy="0" r="7"/>
                <circle id="rim2" cx="0" cy="0" r="3.5"/>
                <g id="zoomPlus">
                        <use xlink:href="#rim" fill="#404040">
                                <set attributeName="fill" to="#808080" begin="zoomplus.mouseover" end="zoomplus.mouseout"/>
                        </use>
                        <path d="M-4,0h8M0,-4v8" fill="none" stroke="white" stroke-width="1.5" pointer-events="none"/>
                </g>
                <g id="zoomMin">
                        <use xlink:href="#rim" fill="#404040">
                                <set attributeName="fill" to="#808080" begin="zoomminus.mouseover" end="zoomminus.mouseout"/>
                        </use>
                        <path d="M-4,0h8" fill="none" stroke="white" stroke-width="1.5" pointer-events="none"/>
                </g>
                <g id="dirArrow">
                        <path fill="none" stroke="white" stroke-width="1.5" d="M0,-3.0v7 M-2.5,-0.5L0,-3.0L2.5,-0.5"/>
                </g>
               <g id="resetDef">
                       <use xlink:href="#rim2" fill="#404040">
                               <set attributeName="fill" to="#808080" begin="reset.mouseover" end="reset.mouseout"/>
                       </use>
               </g>
        </defs>

<script type="text/javascript">
var viewWidth = 1216;
var viewHeight = 476;
var sectionId = 'dynsection-1';
</script>
<script xlink:href="svgpan.js"/>
<svg id="graph" class="graph">
<g id="viewport">
<title>src/io/io_response.hpp</title>
<polygon fill="white" stroke="none" points="-4,4 -4,-472 1212.25,-472 1212.25,4 -4,4"/>
<!-- Node1 -->
<g id="node1" class="node"><title>Node1</title>
<polygon fill="#bfbfbf" stroke="black" points="586.752,-448.5 586.752,-467.5 710.752,-467.5 710.752,-448.5 586.752,-448.5"/>
<text text-anchor="middle" x="648.752" y="-455.5" font-family="Helvetica,sans-Serif" font-size="10.00">src/io/io_response.hpp</text>
</g>
<!-- Node2 -->
<g id="node2" class="node"><title>Node2</title>
<g id="a_node2"><a xlink:href="cmd__result_8hpp.html" target="_top" xlink:title="Declaration of the CommandResult class. ">
<polygon fill="white" stroke="black" points="184.752,-336.5 184.752,-355.5 292.752,-355.5 292.752,-336.5 184.752,-336.5"/>
<text text-anchor="middle" x="238.752" y="-343.5" font-family="Helvetica,sans-Serif" font-size="10.00">src/cmd_result.hpp</text>
</a>
</g>
</g>
<!-- Node1&#45;&gt;Node2 -->
<g id="edge1" class="edge"><title>Node1&#45;&gt;Node2</title>
<path fill="none" stroke="midnightblue" d="M576.383,-452.759C490.47,-446.813 353.005,-434.163 306.752,-412 279.063,-398.733 255.369,-369.897 244.736,-355.514"/>
<polygon fill="midnightblue" stroke="midnightblue" points="576.381,-456.267 586.595,-453.451 576.854,-449.283 576.381,-456.267"/>
</g>
<!-- Node4 -->
<g id="node4" class="node"><title>Node4</title>
<g id="a_node4"><a xlink:href="cmd_8cpp.html" target="_top" xlink:title="Implementation of the CommandHandler class. ">
<polygon fill="white" stroke="black" points="29.2518,-168.5 29.2518,-187.5 104.252,-187.5 104.252,-168.5 29.2518,-168.5"/>
<text text-anchor="middle" x="66.7518" y="-175.5" font-family="Helvetica,sans-Serif" font-size="10.00">src/cmd.cpp</text>
</a>
</g>
</g>
<!-- Node1&#45;&gt;Node4 -->
<g id="edge42" class="edge"><title>Node1&#45;&gt;Node4</title>
<path fill="none" stroke="midnightblue" d="M576.471,-453.589C465.227,-447.729 257.497,-434.189 186.752,-412 130.362,-394.314 70.7518,-406.098 70.7518,-347 70.7518,-347 70.7518,-347 70.7518,-289 70.7518,-251.163 68.3589,-206.052 67.2747,-187.554"/>
<polygon fill="midnightblue" stroke="midnightblue" points="576.433,-457.092 586.601,-454.116 576.796,-450.101 576.433,-457.092"/>
</g>
<!-- Node5 -->
<g id="node5" class="node"><title>Node5</title>
<g id="a_node5"><a xlink:href="io__core_8cpp.html" target="_top" xlink:title="Implementation of the non&#45;virtual aspects of the IoCore class. ">
<polygon fill="white" stroke="black" points="474.752,-56.5 474.752,-75.5 574.752,-75.5 574.752,-56.5 474.752,-56.5"/>
<text text-anchor="middle" x="524.752" y="-63.5" font-family="Helvetica,sans-Serif" font-size="10.00">src/io/io_core.cpp</text>
</a>
</g>
</g>
<!-- Node1&#45;&gt;Node5 -->
<g id="edge46" class="edge"><title>Node1&#45;&gt;Node5</title>
<path fill="none" stroke="midnightblue" d="M720.98,-457.236C783.012,-454.878 873.446,-445.205 944.752,-412 984.435,-393.521 1018.75,-390.775 1018.75,-347 1018.75,-347 1018.75,-347 1018.75,-177 1018.75,-86.7194 700.427,-70.4994 574.838,-67.6133"/>
<polygon fill="midnightblue" stroke="midnightblue" points="720.773,-453.741 710.892,-457.565 721.001,-460.737 720.773,-453.741"/>
</g>
<!-- Node6 -->
<g id="node6" class="node"><title>Node6</title>
<g id="a_node6"><a xlink:href="io__core_8hpp.html" target="_top" xlink:title="Declaration of the IoCore class. ">
<polygon fill="white" stroke="black" points="175.252,-112.5 175.252,-131.5 276.252,-131.5 276.252,-112.5 175.252,-112.5"/>
<text text-anchor="middle" x="225.752" y="-119.5" font-family="Helvetica,sans-Serif" font-size="10.00">src/io/io_core.hpp</text>
</a>
</g>
</g>
<!-- Node1&#45;&gt;Node6 -->
<g id="edge44" class="edge"><title>Node1&#45;&gt;Node6</title>
<path fill="none" stroke="midnightblue" d="M576.476,-455.655C447.548,-452.506 183.297,-442.445 96.7518,-412 48.1448,-394.901 0.751757,-398.527 0.751757,-347 0.751757,-347 0.751757,-347 0.751757,-233 0.751757,-202.902 -2.25527,-188.532 19.7518,-168 41.9012,-147.335 121.508,-134.582 175.025,-128.147"/>
<polygon fill="midnightblue" stroke="midnightblue" points="576.567,-459.158 586.647,-455.896 576.733,-452.16 576.567,-459.158"/>
</g>
<!-- Node7 -->
<g id="node7" class="node"><title>Node7</title>
<g id="a_node7"><a xlink:href="main_8cpp.html" target="_top" xlink:title="Main entry point and implementation of the playd class. ">
<polygon fill="white" stroke="black" points="283.752,-0.5 283.752,-19.5 361.752,-19.5 361.752,-0.5 283.752,-0.5"/>
<text text-anchor="middle" x="322.752" y="-7.5" font-family="Helvetica,sans-Serif" font-size="10.00">src/main.cpp</text>
</a>
</g>
</g>
<!-- Node1&#45;&gt;Node7 -->
<g id="edge49" class="edge"><title>Node1&#45;&gt;Node7</title>
<path fill="none" stroke="midnightblue" d="M721.071,-452.077C804.677,-445.544 936.583,-432.4 981.752,-412 1021.95,-393.845 1056.75,-391.11 1056.75,-347 1056.75,-347 1056.75,-347 1056.75,-121 1056.75,-50.0903 514.058,-19.7957 361.955,-12.6975"/>
<polygon fill="midnightblue" stroke="midnightblue" points="720.575,-448.605 710.872,-452.86 721.111,-455.584 720.575,-448.605"/>
</g>
<!-- Node9 -->
<g id="node9" class="node"><title>Node9</title>
<g id="a_node9"><a xlink:href="tokeniser_8hpp.html" target="_top" xlink:title="Declaration of the Tokeniser class. ">
<polygon fill="white" stroke="black" points="198.752,-168.5 198.752,-187.5 308.752,-187.5 308.752,-168.5 198.752,-168.5"/>
<text text-anchor="middle" x="253.752" y="-175.5" font-family="Helvetica,sans-Serif" font-size="10.00">src/io/tokeniser.hpp</text>
</a>
</g>
</g>
<!-- Node1&#45;&gt;Node9 -->
<g id="edge45" class="edge"><title>Node1&#45;&gt;Node9</title>
<path fill="none" stroke="midnightblue" d="M576.044,-455.705C439.144,-451.284 156.752,-431.877 156.752,-347 156.752,-347 156.752,-347 156.752,-289 156.752,-240.623 210.183,-203.463 237.734,-187.518"/>
<polygon fill="midnightblue" stroke="midnightblue" points="576.338,-459.215 586.44,-456.021 576.551,-452.219 576.338,-459.215"/>
</g>
<!-- Node10 -->
<g id="node10" class="node"><title>Node10</title>
<g id="a_node10"><a xlink:href="tokeniser_8cpp.html" target="_top" xlink:title="Definition of the Tokeniser class. ">
<polygon fill="white" stroke="black" points="351.252,-112.5 351.252,-131.5 460.252,-131.5 460.252,-112.5 351.252,-112.5"/>
<text text-anchor="middle" x="405.752" y="-119.5" font-family="Helvetica,sans-Serif" font-size="10.00">src/io/tokeniser.cpp</text>
</a>
</g>
</g>
<!-- Node1&#45;&gt;Node10 -->
<g id="edge48" class="edge"><title>Node1&#45;&gt;Node10</title>
<path fill="none" stroke="midnightblue" d="M720.937,-455.044C774.775,-451.129 848.869,-440.426 907.752,-412 946.874,-393.114 980.752,-390.442 980.752,-347 980.752,-347 980.752,-347 980.752,-289 980.752,-258.902 984.118,-244.14 961.752,-224 888.298,-157.86 586.012,-133.265 460.633,-125.791"/>
<polygon fill="midnightblue" stroke="midnightblue" points="720.536,-451.563 710.79,-455.719 721,-458.547 720.536,-451.563"/>
</g>
<!-- Node11 -->
<g id="node11" class="node"><title>Node11</title>
<g id="a_node11"><a xlink:href="player_8hpp.html" target="_top" xlink:title="Declaration of the Player class, and associated types. ">
<polygon fill="white" stroke="black" points="468.752,-280.5 468.752,-299.5 584.752,-299.5 584.752,-280.5 468.752,-280.5"/>
<text text-anchor="middle" x="526.752" y="-287.5" font-family="Helvetica,sans-Serif" font-size="10.00">src/player/player.hpp</text>
</a>
</g>
</g>
<!-- Node1&#45;&gt;Node11 -->
<g id="edge29" class="edge"><title>Node1&#45;&gt;Node11</title>
<path fill="none" stroke="midnightblue" d="M576.663,-446.982C522.27,-435.229 451.169,-409.954 415.752,-356 396.573,-326.783 442.326,-308.997 480.79,-299.584"/>
<polygon fill="midnightblue" stroke="midnightblue" points="576.113,-450.442 586.613,-449.023 577.52,-443.584 576.113,-450.442"/>
</g>
<!-- Node12 -->
<g id="node12" class="node"><title>Node12</title>
<g id="a_node12"><a xlink:href="player_8cpp.html" target="_top" xlink:title="Main implementation file for the Player class. ">
<polygon fill="white" stroke="black" points="295.252,-224.5 295.252,-243.5 410.252,-243.5 410.252,-224.5 295.252,-224.5"/>
<text text-anchor="middle" x="352.752" y="-231.5" font-family="Helvetica,sans-Serif" font-size="10.00">src/player/player.cpp</text>
</a>
</g>
</g>
<!-- Node1&#45;&gt;Node12 -->
<g id="edge50" class="edge"><title>Node1&#45;&gt;Node12</title>
<path fill="none" stroke="midnightblue" d="M576.587,-453.134C536.246,-448.08 486.623,-436.816 448.752,-412 392.856,-375.374 405.133,-340.5 376.752,-280 370.735,-267.174 362.864,-252.803 357.807,-243.827"/>
<polygon fill="midnightblue" stroke="midnightblue" points="576.297,-456.623 586.631,-454.289 577.097,-449.669 576.297,-456.623"/>
</g>
<!-- Node13 -->
<g id="node13" class="node"><title>Node13</title>
<g id="a_node13"><a xlink:href="player__position_8cpp.html" target="_top" xlink:title="Implementation of the PlayerPosition class, and related Player methods. ">
<polygon fill="white" stroke="black" points="794.752,-224.5 794.752,-243.5 952.752,-243.5 952.752,-224.5 794.752,-224.5"/>
<text text-anchor="middle" x="873.752" y="-231.5" font-family="Helvetica,sans-Serif" font-size="10.00">src/player/player_position.cpp</text>
</a>
</g>
</g>
<!-- Node1&#45;&gt;Node13 -->
<g id="edge52" class="edge"><title>Node1&#45;&gt;Node13</title>
<path fill="none" stroke="midnightblue" d="M721.103,-451.573C781.499,-445.574 861.356,-433.741 884.752,-412 928.082,-371.734 918.002,-336.875 901.752,-280 897.758,-266.021 888.028,-252.156 881.164,-243.589"/>
<polygon fill="midnightblue" stroke="midnightblue" points="720.452,-448.119 710.831,-452.556 721.119,-455.087 720.452,-448.119"/>
</g>
<!-- Node14 -->
<g id="node14" class="node"><title>Node14</title>
<g id="a_node14"><a xlink:href="player__state_8cpp.html" target="_top" xlink:title="Implementation of the PlayerState class, and related Player methods. ">
<polygon fill="white" stroke="black" points="630.752,-224.5 630.752,-243.5 776.752,-243.5 776.752,-224.5 630.752,-224.5"/>
<text text-anchor="middle" x="703.752" y="-231.5" font-family="Helvetica,sans-Serif" font-size="10.00">src/player/player_state.cpp</text>
</a>
</g>
</g>
<!-- Node1&#45;&gt;Node14 -->
<g id="edge53" class="edge"><title>Node1&#45;&gt;Node14</title>
<path fill="none" stroke="midnightblue" d="M721.111,-450.264C775.189,-443.722 843.032,-431.813 862.752,-412 898.6,-375.983 880.614,-350.556 885.752,-300 886.65,-291.157 891.231,-286.999 885.752,-280 871.857,-262.252 819.726,-250.536 774.798,-243.521"/>
<polygon fill="midnightblue" stroke="midnightblue" points="720.37,-446.827 710.843,-451.463 721.182,-453.78 720.37,-446.827"/>
</g>
<!-- Node15 -->
<g id="node15" class="node"><title>Node15</title>
<g id="a_node15"><a xlink:href="cmd__result_8cpp.html" target="_top" xlink:title="Definition of the CommandResult class. ">
<polygon fill="white" stroke="black" points="261.252,-280.5 261.252,-299.5 368.252,-299.5 368.252,-280.5 261.252,-280.5"/>
<text text-anchor="middle" x="314.752" y="-287.5" font-family="Helvetica,sans-Serif" font-size="10.00">src/cmd_result.cpp</text>
</a>
</g>
</g>
<!-- Node1&#45;&gt;Node15 -->
<g id="edge43" class="edge"><title>Node1&#45;&gt;Node15</title>
<path fill="none" stroke="midnightblue" d="M576.37,-455.34C497.394,-452.005 377.777,-441.996 344.752,-412 311.748,-382.024 312.434,-321.941 313.961,-299.614"/>
<polygon fill="midnightblue" stroke="midnightblue" points="576.62,-458.853 586.751,-455.75 576.897,-451.858 576.62,-458.853"/>
</g>
<!-- Node16 -->
<g id="node16" class="node"><title>Node16</title>
<g id="a_node16"><a xlink:href="player__file_8hpp.html" target="_top" xlink:title="Declaration of the PlayerFile class, and associated types. ">
<polygon fill="white" stroke="black" points="589.252,-336.5 589.252,-355.5 724.252,-355.5 724.252,-336.5 589.252,-336.5"/>
<text text-anchor="middle" x="656.752" y="-343.5" font-family="Helvetica,sans-Serif" font-size="10.00">src/player/player_file.hpp</text>
</a>
</g>
</g>
<!-- Node1&#45;&gt;Node16 -->
<g id="edge30" class="edge"><title>Node1&#45;&gt;Node16</title>
<path fill="none" stroke="midnightblue" d="M650.108,-438.348C651.861,-414.254 654.838,-373.308 656.127,-355.591"/>
<polygon fill="midnightblue" stroke="midnightblue" points="646.614,-438.141 649.38,-448.368 653.596,-438.649 646.614,-438.141"/>
</g>
<!-- Node17 -->
<g id="node17" class="node"><title>Node17</title>
<g id="a_node17"><a xlink:href="player__file_8cpp.html" target="_top" xlink:title="Implementation of the PlayerFile class, and associated types. ">
<polygon fill="white" stroke="black" points="742.752,-280.5 742.752,-299.5 876.752,-299.5 876.752,-280.5 742.752,-280.5"/>
<text text-anchor="middle" x="809.752" y="-287.5" font-family="Helvetica,sans-Serif" font-size="10.00">src/player/player_file.cpp</text>
</a>
</g>
</g>
<!-- Node1&#45;&gt;Node17 -->
<g id="edge51" class="edge"><title>Node1&#45;&gt;Node17</title>
<path fill="none" stroke="midnightblue" d="M720.974,-449.69C769.91,-443.072 828.373,-431.332 843.752,-412 871.464,-377.164 833.419,-321.012 816.821,-299.637"/>
<polygon fill="midnightblue" stroke="midnightblue" points="720.477,-446.225 711.012,-450.985 721.38,-453.166 720.477,-446.225"/>
</g>
<!-- Node18 -->
<g id="node18" class="node"><title>Node18</title>
<g id="a_node18"><a xlink:href="player__position_8hpp.html" target="_top" xlink:title="Declaration of the PlayerPosition class. ">
<polygon fill="white" stroke="black" points="676.252,-392.5 676.252,-411.5 835.252,-411.5 835.252,-392.5 676.252,-392.5"/>
<text text-anchor="middle" x="755.752" y="-399.5" font-family="Helvetica,sans-Serif" font-size="10.00">src/player/player_position.hpp</text>
</a>
</g>
</g>
<!-- Node1&#45;&gt;Node18 -->
<g id="edge33" class="edge"><title>Node1&#45;&gt;Node18</title>
<path fill="none" stroke="midnightblue" d="M675.054,-443.726C694.867,-433.727 721.459,-420.307 738.603,-411.655"/>
<polygon fill="midnightblue" stroke="midnightblue" points="673.294,-440.694 665.943,-448.324 676.448,-446.943 673.294,-440.694"/>
</g>
<!-- Node19 -->
<g id="node19" class="node"><title>Node19</title>
<g id="a_node19"><a xlink:href="player__state_8hpp.html" target="_top" xlink:title="Declaration of the PlayerState class, and associated types. ">
<polygon fill="white" stroke="black" points="424.752,-336.5 424.752,-355.5 570.752,-355.5 570.752,-336.5 424.752,-336.5"/>
<text text-anchor="middle" x="497.752" y="-343.5" font-family="Helvetica,sans-Serif" font-size="10.00">src/player/player_state.hpp</text>
</a>
</g>
</g>
<!-- Node1&#45;&gt;Node19 -->
<g id="edge38" class="edge"><title>Node1&#45;&gt;Node19</title>
<path fill="none" stroke="midnightblue" d="M628.733,-442.417C596.796,-419.151 535.296,-374.35 509.545,-355.591"/>
<polygon fill="midnightblue" stroke="midnightblue" points="626.759,-445.309 636.903,-448.368 630.881,-439.651 626.759,-445.309"/>
</g>
<!-- Node20 -->
<g id="node20" class="node"><title>Node20</title>
<g id="a_node20"><a xlink:href="io__response_8cpp.html" target="_top" xlink:title="Implementation of client response classes. ">
<polygon fill="white" stroke="black" points="1085.25,-392.5 1085.25,-411.5 1208.25,-411.5 1208.25,-392.5 1085.25,-392.5"/>
<text text-anchor="middle" x="1146.75" y="-399.5" font-family="Helvetica,sans-Serif" font-size="10.00">src/io/io_response.cpp</text>
</a>
</g>
</g>
<!-- Node1&#45;&gt;Node20 -->
<g id="edge47" class="edge"><title>Node1&#45;&gt;Node20</title>
<path fill="none" stroke="midnightblue" d="M720.936,-449.561C804.985,-440.839 947.979,-425.815 1070.75,-412 1075.37,-411.48 1080.15,-410.934 1084.96,-410.379"/>
<polygon fill="midnightblue" stroke="midnightblue" points="720.569,-446.08 710.984,-450.593 721.291,-453.043 720.569,-446.08"/>
</g>
<!-- Node3 -->
<g id="node3" class="node"><title>Node3</title>
<g id="a_node3"><a xlink:href="cmd_8hpp.html" target="_top" xlink:title="Declaration of the CommandHandler class. ">
<polygon fill="white" stroke="black" points="200.752,-224.5 200.752,-243.5 276.752,-243.5 276.752,-224.5 200.752,-224.5"/>
<text text-anchor="middle" x="238.752" y="-231.5" font-family="Helvetica,sans-Serif" font-size="10.00">src/cmd.hpp</text>
</a>
</g>
</g>
<!-- Node2&#45;&gt;Node3 -->
<g id="edge2" class="edge"><title>Node2&#45;&gt;Node3</title>
<path fill="none" stroke="midnightblue" d="M228.826,-327.302C224.853,-319.238 220.748,-309.409 218.752,-300 214.389,-279.442 225.762,-256.047 233.098,-243.7"/>
<polygon fill="midnightblue" stroke="midnightblue" points="225.865,-329.19 233.622,-336.407 232.058,-325.928 225.865,-329.19"/>
</g>
<!-- Node2&#45;&gt;Node4 -->
<g id="edge26" class="edge"><title>Node2&#45;&gt;Node4</title>
<path fill="none" stroke="midnightblue" d="M222.265,-329.088C186.546,-294.615 103.026,-214.009 75.6296,-187.568"/>
<polygon fill="midnightblue" stroke="midnightblue" points="219.878,-331.649 229.504,-336.075 224.739,-326.612 219.878,-331.649"/>
</g>
<!-- Node2&#45;&gt;Node11 -->
<g id="edge17" class="edge"><title>Node2&#45;&gt;Node11</title>
<path fill="none" stroke="midnightblue" d="M294.554,-334.537C348.983,-324.332 430.756,-308.999 481.331,-299.516"/>
<polygon fill="midnightblue" stroke="midnightblue" points="293.57,-331.161 284.386,-336.444 294.86,-338.041 293.57,-331.161"/>
</g>
<!-- Node2&#45;&gt;Node12 -->
<g id="edge28" class="edge"><title>Node2&#45;&gt;Node12</title>
<path fill="none" stroke="midnightblue" d="M238.085,-326.342C238.537,-312.204 241.317,-293.049 251.752,-280 266.738,-261.259 291.169,-250.091 312.249,-243.569"/>
<polygon fill="midnightblue" stroke="midnightblue" points="234.585,-326.404 238.12,-336.392 241.585,-326.38 234.585,-326.404"/>
</g>
<!-- Node2&#45;&gt;Node15 -->
<g id="edge27" class="edge"><title>Node2&#45;&gt;Node15</title>
<path fill="none" stroke="midnightblue" d="M259.328,-330.38C273.064,-320.62 290.677,-308.106 302.319,-299.834"/>
<polygon fill="midnightblue" stroke="midnightblue" points="257.087,-327.679 250.962,-336.324 261.142,-333.385 257.087,-327.679"/>
</g>
<!-- Node3&#45;&gt;Node4 -->
<g id="edge3" class="edge"><title>Node3&#45;&gt;Node4</title>
<path fill="none" stroke="midnightblue" d="M201.919,-221.436C169.49,-211.255 123.015,-196.664 93.8782,-187.516"/>
<polygon fill="midnightblue" stroke="midnightblue" points="200.909,-224.787 211.498,-224.444 203.005,-218.109 200.909,-224.787"/>
</g>
<!-- Node3&#45;&gt;Node5 -->
<g id="edge4" class="edge"><title>Node3&#45;&gt;Node5</title>
<path fill="none" stroke="midnightblue" d="M286.77,-223.037C329.345,-213.708 387.91,-199.518 408.752,-188 461.221,-159.005 504.36,-98.3235 519.21,-75.726"/>
<polygon fill="midnightblue" stroke="midnightblue" points="285.898,-219.644 276.866,-225.183 287.38,-226.485 285.898,-219.644"/>
</g>
<!-- Node3&#45;&gt;Node6 -->
<g id="edge5" class="edge"><title>Node3&#45;&gt;Node6</title>
<path fill="none" stroke="midnightblue" d="M215.656,-218.354C205.71,-210.659 195.142,-200.268 189.752,-188 180.516,-166.978 201.528,-143.765 215.19,-131.571"/>
<polygon fill="midnightblue" stroke="midnightblue" points="213.924,-221.419 224.09,-224.402 218.003,-215.73 213.924,-221.419"/>
</g>
<!-- Node3&#45;&gt;Node7 -->
<g id="edge15" class="edge"><title>Node3&#45;&gt;Node7</title>
<path fill="none" stroke="midnightblue" d="M215.717,-218.741C204.68,-210.877 192.083,-200.229 183.752,-188 164.208,-159.312 149.123,-142.47 165.752,-112 193.233,-61.645 257.765,-32.6392 294.977,-19.5325"/>
<polygon fill="midnightblue" stroke="midnightblue" points="213.879,-221.723 224.123,-224.427 217.802,-215.925 213.879,-221.723"/>
</g>
<!-- Node8 -->
<g id="node8" class="node"><title>Node8</title>
<g id="a_node8"><a xlink:href="main_8hpp.html" target="_top" xlink:title="Declaration of the playd class. ">
<polygon fill="white" stroke="black" points="283.252,-56.5 283.252,-75.5 362.252,-75.5 362.252,-56.5 283.252,-56.5"/>
<text text-anchor="middle" x="322.752" y="-63.5" font-family="Helvetica,sans-Serif" font-size="10.00">src/main.hpp</text>
</a>
</g>
</g>
<!-- Node3&#45;&gt;Node8 -->
<g id="edge16" class="edge"><title>Node3&#45;&gt;Node8</title>
<path fill="none" stroke="midnightblue" d="M277.315,-220.439C292.583,-213.404 308.639,-202.958 317.752,-188 339.957,-151.551 330.09,-96.8229 325.053,-75.7246"/>
<polygon fill="midnightblue" stroke="midnightblue" points="275.825,-217.268 267.979,-224.388 278.552,-223.715 275.825,-217.268"/>
</g>
<!-- Node3&#45;&gt;Node9 -->
<g id="edge11" class="edge"><title>Node3&#45;&gt;Node9</title>
<path fill="none" stroke="midnightblue" d="M243.92,-214.396C246.429,-205.362 249.325,-194.936 251.321,-187.751"/>
<polygon fill="midnightblue" stroke="midnightblue" points="240.533,-213.511 241.229,-224.083 247.278,-215.385 240.533,-213.511"/>
</g>
<!-- Node3&#45;&gt;Node10 -->
<g id="edge14" class="edge"><title>Node3&#45;&gt;Node10</title>
<path fill="none" stroke="midnightblue" d="M283.525,-221.936C324.947,-211.323 381.23,-195.795 388.752,-188 403.655,-172.556 405.917,-145.734 406.011,-131.868"/>
<polygon fill="midnightblue" stroke="midnightblue" points="282.447,-218.598 273.618,-224.454 284.172,-225.383 282.447,-218.598"/>
</g>
<!-- Node6&#45;&gt;Node5 -->
<g id="edge6" class="edge"><title>Node6&#45;&gt;Node5</title>
<path fill="none" stroke="midnightblue" d="M282.982,-110.664C339.487,-100.459 424.871,-85.0386 477.596,-75.5164"/>
<polygon fill="midnightblue" stroke="midnightblue" points="282.348,-107.222 273.129,-112.444 283.592,-114.11 282.348,-107.222"/>
</g>
<!-- Node6&#45;&gt;Node6 -->
<g id="edge7" class="edge"><title>Node6&#45;&gt;Node6</title>
<path fill="none" stroke="midnightblue" d="M265.069,-132.432C280.924,-133.04 294.252,-129.563 294.252,-122 294.252,-112.867 274.818,-109.692 254.967,-112.475"/>
<polygon fill="midnightblue" stroke="midnightblue" points="265.24,-128.933 254.967,-131.525 264.614,-135.905 265.24,-128.933"/>
</g>
<!-- Node6&#45;&gt;Node7 -->
<g id="edge8" class="edge"><title>Node6&#45;&gt;Node7</title>
<path fill="none" stroke="midnightblue" d="M237.093,-103.818C246.329,-90.299 260.04,-71.2607 273.752,-56 285.949,-42.4256 301.755,-28.4657 312.07,-19.7669"/>
<polygon fill="midnightblue" stroke="midnightblue" points="234.145,-101.93 231.469,-112.181 239.954,-105.836 234.145,-101.93"/>
</g>
<!-- Node6&#45;&gt;Node8 -->
<g id="edge9" class="edge"><title>Node6&#45;&gt;Node8</title>
<path fill="none" stroke="midnightblue" d="M250.087,-107.453C267.994,-97.4835 291.805,-84.2279 307.206,-75.6545"/>
<polygon fill="midnightblue" stroke="midnightblue" points="248.371,-104.402 241.336,-112.324 251.776,-110.518 248.371,-104.402"/>
</g>
<!-- Node8&#45;&gt;Node7 -->
<g id="edge10" class="edge"><title>Node8&#45;&gt;Node7</title>
<path fill="none" stroke="midnightblue" d="M322.752,-45.8045C322.752,-36.9102 322.752,-26.7798 322.752,-19.7511"/>
<polygon fill="midnightblue" stroke="midnightblue" points="319.252,-46.083 322.752,-56.083 326.252,-46.083 319.252,-46.083"/>
</g>
<!-- Node9&#45;&gt;Node6 -->
<g id="edge12" class="edge"><title>Node9&#45;&gt;Node6</title>
<path fill="none" stroke="midnightblue" d="M244.409,-158.983C239.657,-149.817 234.096,-139.092 230.289,-131.751"/>
<polygon fill="midnightblue" stroke="midnightblue" points="241.418,-160.817 249.128,-168.083 247.632,-157.594 241.418,-160.817"/>
</g>
<!-- Node9&#45;&gt;Node10 -->
<g id="edge13" class="edge"><title>Node9&#45;&gt;Node10</title>
<path fill="none" stroke="midnightblue" d="M287.419,-165.039C316.019,-154.879 356.364,-140.546 381.78,-131.516"/>
<polygon fill="midnightblue" stroke="midnightblue" points="286.088,-161.798 277.837,-168.444 288.431,-168.394 286.088,-161.798"/>
</g>
<!-- Node11&#45;&gt;Node3 -->
<g id="edge18" class="edge"><title>Node11&#45;&gt;Node3</title>
<path fill="none" stroke="midnightblue" d="M470.487,-278.57C421.636,-269.496 349.005,-255.961 285.752,-244 282.895,-243.46 279.94,-242.899 276.968,-242.333"/>
<polygon fill="midnightblue" stroke="midnightblue" points="470.068,-282.052 480.539,-280.436 471.346,-275.169 470.068,-282.052"/>
</g>
<!-- Node11&#45;&gt;Node5 -->
<g id="edge19" class="edge"><title>Node11&#45;&gt;Node5</title>
<path fill="none" stroke="midnightblue" d="M533.806,-270.74C536.561,-262.675 539.384,-252.999 540.752,-244 550.533,-179.636 533.321,-101.129 526.968,-75.5183"/>
<polygon fill="midnightblue" stroke="midnightblue" points="530.486,-269.628 530.352,-280.222 537.064,-272.024 530.486,-269.628"/>
</g>
<!-- Node11&#45;&gt;Node6 -->
<g id="edge20" class="edge"><title>Node11&#45;&gt;Node6</title>
<path fill="none" stroke="midnightblue" d="M504.051,-275.017C482.292,-261.691 448.461,-241.169 418.752,-224 374.312,-198.318 363.265,-191.728 317.752,-168 292.368,-154.766 262.524,-140.379 243.87,-131.524"/>
<polygon fill="midnightblue" stroke="midnightblue" points="502.512,-278.179 512.865,-280.427 506.173,-272.213 502.512,-278.179"/>
</g>
<!-- Node11&#45;&gt;Node7 -->
<g id="edge21" class="edge"><title>Node11&#45;&gt;Node7</title>
<path fill="none" stroke="midnightblue" d="M546.27,-273.846C568.788,-254.496 602.752,-218.724 602.752,-179 602.752,-179 602.752,-179 602.752,-121 602.752,-90.9022 606.208,-76.0393 583.752,-56 551.588,-27.2989 426.528,-16.5006 361.904,-12.7767"/>
<polygon fill="midnightblue" stroke="midnightblue" points="543.776,-271.366 538.295,-280.433 548.234,-276.764 543.776,-271.366"/>
</g>
<!-- Node11&#45;&gt;Node8 -->
<g id="edge22" class="edge"><title>Node11&#45;&gt;Node8</title>
<path fill="none" stroke="midnightblue" d="M526.035,-270.121C523.64,-234.213 513.294,-155.762 468.752,-112 440.371,-84.1169 395.124,-73.4598 362.52,-69.4149"/>
<polygon fill="midnightblue" stroke="midnightblue" points="522.544,-270.385 526.567,-280.187 529.534,-270.016 522.544,-270.385"/>
</g>
<!-- Node11&#45;&gt;Node12 -->
<g id="edge23" class="edge"><title>Node11&#45;&gt;Node12</title>
<path fill="none" stroke="midnightblue" d="M489.491,-277.436C456.685,-267.255 409.669,-252.664 380.194,-243.516"/>
<polygon fill="midnightblue" stroke="midnightblue" points="488.593,-280.822 499.181,-280.444 490.668,-274.137 488.593,-280.822"/>
</g>
<!-- Node11&#45;&gt;Node13 -->
<g id="edge24" class="edge"><title>Node11&#45;&gt;Node13</title>
<path fill="none" stroke="midnightblue" d="M591.951,-278.854C657.513,-268.651 757.457,-253.098 819.026,-243.516"/>
<polygon fill="midnightblue" stroke="midnightblue" points="591.078,-275.447 581.735,-280.444 592.154,-282.364 591.078,-275.447"/>
</g>
<!-- Node11&#45;&gt;Node14 -->
<g id="edge25" class="edge"><title>Node11&#45;&gt;Node14</title>
<path fill="none" stroke="midnightblue" d="M564.655,-277.436C598.027,-267.255 645.853,-252.664 675.837,-243.516"/>
<polygon fill="midnightblue" stroke="midnightblue" points="563.341,-274.178 554.798,-280.444 565.384,-280.873 563.341,-274.178"/>
</g>
<!-- Node16&#45;&gt;Node11 -->
<g id="edge31" class="edge"><title>Node16&#45;&gt;Node11</title>
<path fill="none" stroke="midnightblue" d="M626.666,-332.503C602.295,-322.38 568.612,-308.388 547.254,-299.516"/>
<polygon fill="midnightblue" stroke="midnightblue" points="625.575,-335.84 636.153,-336.444 628.261,-329.375 625.575,-335.84"/>
</g>
<!-- Node16&#45;&gt;Node17 -->
<g id="edge32" class="edge"><title>Node16&#45;&gt;Node17</title>
<path fill="none" stroke="midnightblue" d="M690.641,-333.039C719.429,-322.879 760.039,-308.546 785.622,-299.516"/>
<polygon fill="midnightblue" stroke="midnightblue" points="689.26,-329.815 680.995,-336.444 691.59,-336.416 689.26,-329.815"/>
</g>
<!-- Node18&#45;&gt;Node11 -->
<g id="edge35" class="edge"><title>Node18&#45;&gt;Node11</title>
<path fill="none" stroke="midnightblue" d="M754.029,-382.378C751.665,-367.673 746.057,-347.737 732.752,-336 711.099,-316.898 637.91,-304.251 584.921,-297.356"/>
<polygon fill="midnightblue" stroke="midnightblue" points="750.566,-382.893 755.278,-392.382 757.512,-382.025 750.566,-382.893"/>
</g>
<!-- Node18&#45;&gt;Node13 -->
<g id="edge37" class="edge"><title>Node18&#45;&gt;Node13</title>
<path fill="none" stroke="midnightblue" d="M757.49,-382.222C758.153,-369.048 757.928,-351.153 753.752,-336 746.73,-310.521 718.184,-301.357 733.752,-280 748.114,-260.298 771.244,-249.033 794.601,-242.652"/>
<polygon fill="midnightblue" stroke="midnightblue" points="753.985,-382.169 756.755,-392.395 760.967,-382.673 753.985,-382.169"/>
</g>
<!-- Node18&#45;&gt;Node16 -->
<g id="edge34" class="edge"><title>Node18&#45;&gt;Node16</title>
<path fill="none" stroke="midnightblue" d="M730.915,-387.453C712.638,-377.483 688.336,-364.228 672.618,-355.655"/>
<polygon fill="midnightblue" stroke="midnightblue" points="729.391,-390.608 739.846,-392.324 732.743,-384.463 729.391,-390.608"/>
</g>
<!-- Node18&#45;&gt;Node17 -->
<g id="edge36" class="edge"><title>Node18&#45;&gt;Node17</title>
<path fill="none" stroke="midnightblue" d="M778.429,-386.16C788.283,-378.423 798.895,-368.052 804.752,-356 813.755,-337.473 812.484,-312.436 810.997,-299.51"/>
<polygon fill="midnightblue" stroke="midnightblue" points="776.102,-383.526 770.103,-392.258 780.238,-389.173 776.102,-383.526"/>
</g>
<!-- Node19&#45;&gt;Node11 -->
<g id="edge39" class="edge"><title>Node19&#45;&gt;Node11</title>
<path fill="none" stroke="midnightblue" d="M507.428,-326.983C512.35,-317.817 518.11,-307.092 522.052,-299.751"/>
<polygon fill="midnightblue" stroke="midnightblue" points="504.188,-325.617 502.541,-336.083 510.355,-328.929 504.188,-325.617"/>
</g>
<!-- Node19&#45;&gt;Node12 -->
<g id="edge40" class="edge"><title>Node19&#45;&gt;Node12</title>
<path fill="none" stroke="midnightblue" d="M478.134,-330.118C447.356,-306.769 388.698,-262.27 364.077,-243.591"/>
<polygon fill="midnightblue" stroke="midnightblue" points="476.292,-333.113 486.374,-336.368 480.522,-327.536 476.292,-333.113"/>
</g>
<!-- Node19&#45;&gt;Node14 -->
<g id="edge41" class="edge"><title>Node19&#45;&gt;Node14</title>
<path fill="none" stroke="midnightblue" d="M526.659,-332.318C545.9,-323.666 571.614,-311.695 593.752,-300 629.252,-281.246 669.541,-256.518 690.101,-243.639"/>
<polygon fill="midnightblue" stroke="midnightblue" points="525.214,-329.13 517.509,-336.402 528.068,-335.522 525.214,-329.13"/>
</g>
</g>
</svg>
        <g id="navigator" transform="translate(0 0)" fill="#404254">
                <rect fill="#f2f5e9" fill-opacity="0.5" stroke="#606060" stroke-width=".5" x="0" y="0" width="60" height="60"/>
                <use id="zoomplus" xlink:href="#zoomPlus" x="17" y="9" onmousedown="handleZoom(evt,'in')"/>
                <use id="zoomminus" xlink:href="#zoomMin" x="42" y="9" onmousedown="handleZoom(evt,'out')"/>
                <use id="reset" xlink:href="#resetDef" x="30" y="36" onmousedown="handleReset()"/>
                <g id="arrowUp" xlink:href="#dirArrow" transform="translate(30 24)" onmousedown="handlePan(0,-1)">
                  <use xlink:href="#rim" fill="#404040">
                        <set attributeName="fill" to="#808080" begin="arrowUp.mouseover" end="arrowUp.mouseout"/>
                  </use>
                  <path fill="none" stroke="white" stroke-width="1.5" d="M0,-3.0v7 M-2.5,-0.5L0,-3.0L2.5,-0.5"/>
                </g>
                <g id="arrowRight" xlink:href="#dirArrow" transform="rotate(90) translate(36 -43)" onmousedown="handlePan(1,0)">
                  <use xlink:href="#rim" fill="#404040">
                        <set attributeName="fill" to="#808080" begin="arrowRight.mouseover" end="arrowRight.mouseout"/>
                  </use>
                  <path fill="none" stroke="white" stroke-width="1.5" d="M0,-3.0v7 M-2.5,-0.5L0,-3.0L2.5,-0.5"/>
                </g>
                <g id="arrowDown" xlink:href="#dirArrow" transform="rotate(180) translate(-30 -48)" onmousedown="handlePan(0,1)">
                  <use xlink:href="#rim" fill="#404040">
                        <set attributeName="fill" to="#808080" begin="arrowDown.mouseover" end="arrowDown.mouseout"/>
                  </use>
                  <path fill="none" stroke="white" stroke-width="1.5" d="M0,-3.0v7 M-2.5,-0.5L0,-3.0L2.5,-0.5"/>
                </g>
                <g id="arrowLeft" xlink:href="#dirArrow" transform="rotate(270) translate(-36 17)" onmousedown="handlePan(-1,0)">
                  <use xlink:href="#rim" fill="#404040">
                        <set attributeName="fill" to="#808080" begin="arrowLeft.mouseover" end="arrowLeft.mouseout"/>
                  </use>
                  <path fill="none" stroke="white" stroke-width="1.5" d="M0,-3.0v7 M-2.5,-0.5L0,-3.0L2.5,-0.5"/>
                </g>
        </g>
        <svg viewBox="0 0 15 15" width="100%" height="30px" preserveAspectRatio="xMaxYMin meet">
         <g id="arrow_out" transform="scale(0.3 0.3)">
          <a xlink:href="io__response_8hpp__dep__incl_org.svg" target="_base">
           <rect id="button" ry="5" rx="5" y="6" x="6" height="38" width="38"
                fill="#f2f5e9" fill-opacity="0.5" stroke="#606060" stroke-width="1.0"/>
           <path id="arrow"
             d="M 11.500037,31.436501 C 11.940474,20.09759 22.043105,11.32322 32.158766,21.979434 L 37.068811,17.246167 C 37.068811,17.246167 37.088388,32 37.088388,32 L 22.160133,31.978069 C 22.160133,31.978069 26.997745,27.140456 26.997745,27.140456 C 18.528582,18.264221 13.291696,25.230495 11.500037,31.436501 z"
             style="fill:#404040;"/>
          </a>
         </g>
        </svg>
</svg>
