<?xml version="1.0" encoding="UTF-8" standalone="no"?>
<!DOCTYPE svg PUBLIC "-//W3C//DTD SVG 1.1//EN"
 "http://www.w3.org/Graphics/SVG/1.1/DTD/svg11.dtd">
<!-- Generated by graphviz version 2.38.0 (20140413.2041)
 -->
<!-- Title: src/io/io_response.cpp Pages: 1 -->
<svg width="380pt" height="196pt"
 viewBox="0.00 0.00 380.00 196.00" xmlns="http://www.w3.org/2000/svg" xmlns:xlink="http://www.w3.org/1999/xlink">
<g id="graph0" class="graph" transform="scale(1 1) rotate(0) translate(4 192)">
<title>src/io/io_response.cpp</title>
<polygon fill="white" stroke="none" points="-4,4 -4,-192 376,-192 376,4 -4,4"/>
<!-- Node1 -->
<g id="node1" class="node"><title>Node1</title>
<polygon fill="#bfbfbf" stroke="black" points="52,-168.5 52,-187.5 175,-187.5 175,-168.5 52,-168.5"/>
<text text-anchor="middle" x="113.5" y="-175.5" font-family="Helvetica,sans-Serif" font-size="10.00">src/io/io_response.cpp</text>
</g>
<!-- Node2 -->
<g id="node2" class="node"><title>Node2</title>
<g id="a_node2"><a xlink:href="errors_8hpp.html" target="_top" xlink:title="Declarations of the playd Error exception set. ">
<polygon fill="white" stroke="black" points="29,-56.5 29,-75.5 102,-75.5 102,-56.5 29,-56.5"/>
<text text-anchor="middle" x="65.5" y="-63.5" font-family="Helvetica,sans-Serif" font-size="10.00">../errors.hpp</text>
</a>
</g>
</g>
<!-- Node1&#45;&gt;Node2 -->
<g id="edge1" class="edge"><title>Node1&#45;&gt;Node2</title>
<path fill="none" stroke="midnightblue" d="M109.734,-168.368C101.917,-150.456 83.7938,-108.923 73.3319,-84.9482"/>
<polygon fill="midnightblue" stroke="midnightblue" points="76.4564,-83.357 69.249,-75.5914 70.0406,-86.1566 76.4564,-83.357"/>
</g>
<!-- Node5 -->
<g id="node5" class="node"><title>Node5</title>
<g id="a_node5"><a xlink:href="io__response_8hpp.html" target="_top" xlink:title="Declaration of classes pertaining to responses to the client. ">
<polygon fill="white" stroke="black" points="138,-112.5 138,-131.5 233,-131.5 233,-112.5 138,-112.5"/>
<text text-anchor="middle" x="185.5" y="-119.5" font-family="Helvetica,sans-Serif" font-size="10.00">io_response.hpp</text>
</a>
</g>
</g>
<!-- Node1&#45;&gt;Node5 -->
<g id="edge4" class="edge"><title>Node1&#45;&gt;Node5</title>
<path fill="none" stroke="midnightblue" d="M125.068,-168.324C135.92,-160.185 152.381,-147.839 165.383,-138.087"/>
<polygon fill="midnightblue" stroke="midnightblue" points="167.821,-140.634 173.721,-131.834 163.621,-135.034 167.821,-140.634"/>
</g>
<!-- Node3 -->
<g id="node3" class="node"><title>Node3</title>
<polygon fill="white" stroke="#bfbfbf" points="0,-0.5 0,-19.5 57,-19.5 57,-0.5 0,-0.5"/>
<text text-anchor="middle" x="28.5" y="-7.5" font-family="Helvetica,sans-Serif" font-size="10.00">iostream</text>
</g>
<!-- Node2&#45;&gt;Node3 -->
<g id="edge2" class="edge"><title>Node2&#45;&gt;Node3</title>
<path fill="none" stroke="midnightblue" d="M59.3902,-56.083C54.2178,-48.5341 46.6539,-37.4948 40.3056,-28.2298"/>
<polygon fill="midnightblue" stroke="midnightblue" points="43.0357,-26.0221 34.4961,-19.7511 37.2612,-29.9787 43.0357,-26.0221"/>
</g>
<!-- Node4 -->
<g id="node4" class="node"><title>Node4</title>
<polygon fill="white" stroke="#bfbfbf" points="75.5,-0.5 75.5,-19.5 129.5,-19.5 129.5,-0.5 75.5,-0.5"/>
<text text-anchor="middle" x="102.5" y="-7.5" font-family="Helvetica,sans-Serif" font-size="10.00">sstream</text>
</g>
<!-- Node2&#45;&gt;Node4 -->
<g id="edge3" class="edge"><title>Node2&#45;&gt;Node4</title>
<path fill="none" stroke="midnightblue" d="M71.6098,-56.083C76.7822,-48.5341 84.3461,-37.4948 90.6944,-28.2298"/>
<polygon fill="midnightblue" stroke="midnightblue" points="93.7388,-29.9787 96.5039,-19.7511 87.9643,-26.0221 93.7388,-29.9787"/>
</g>
<!-- Node5&#45;&gt;Node2 -->
<g id="edge9" class="edge"><title>Node5&#45;&gt;Node2</title>
<path fill="none" stroke="midnightblue" d="M166.486,-112.444C146.912,-103.636 116.192,-89.8116 93.7711,-79.722"/>
<polygon fill="midnightblue" stroke="midnightblue" points="94.9809,-76.4284 84.4254,-75.5164 92.1083,-82.8119 94.9809,-76.4284"/>
</g>
<!-- Node6 -->
<g id="node6" class="node"><title>Node6</title>
<polygon fill="white" stroke="#bfbfbf" points="120.5,-56.5 120.5,-75.5 182.5,-75.5 182.5,-56.5 120.5,-56.5"/>
<text text-anchor="middle" x="151.5" y="-63.5" font-family="Helvetica,sans-Serif" font-size="10.00">functional</text>
</g>
<!-- Node5&#45;&gt;Node6 -->
<g id="edge5" class="edge"><title>Node5&#45;&gt;Node6</title>
<path fill="none" stroke="midnightblue" d="M179.886,-112.083C175.133,-104.534 168.182,-93.4948 162.348,-84.2298"/>
<polygon fill="midnightblue" stroke="midnightblue" points="165.3,-82.3486 157.01,-75.7511 159.376,-86.0783 165.3,-82.3486"/>
</g>
<!-- Node7 -->
<g id="node7" class="node"><title>Node7</title>
<polygon fill="white" stroke="#bfbfbf" points="201,-56.5 201,-75.5 238,-75.5 238,-56.5 201,-56.5"/>
<text text-anchor="middle" x="219.5" y="-63.5" font-family="Helvetica,sans-Serif" font-size="10.00">map</text>
</g>
<!-- Node5&#45;&gt;Node7 -->
<g id="edge6" class="edge"><title>Node5&#45;&gt;Node7</title>
<path fill="none" stroke="midnightblue" d="M191.114,-112.083C195.867,-104.534 202.818,-93.4948 208.652,-84.2298"/>
<polygon fill="midnightblue" stroke="midnightblue" points="211.624,-86.0783 213.99,-75.7511 205.7,-82.3486 211.624,-86.0783"/>
</g>
<!-- Node8 -->
<g id="node8" class="node"><title>Node8</title>
<polygon fill="white" stroke="#bfbfbf" points="256,-56.5 256,-75.5 311,-75.5 311,-56.5 256,-56.5"/>
<text text-anchor="middle" x="283.5" y="-63.5" font-family="Helvetica,sans-Serif" font-size="10.00">ostream</text>
</g>
<!-- Node5&#45;&gt;Node8 -->
<g id="edge7" class="edge"><title>Node5&#45;&gt;Node8</title>
<path fill="none" stroke="midnightblue" d="M201.245,-112.324C216.819,-103.743 240.877,-90.486 258.959,-80.5224"/>
<polygon fill="midnightblue" stroke="midnightblue" points="260.724,-83.546 267.794,-75.6545 257.346,-77.4152 260.724,-83.546"/>
</g>
<!-- Node9 -->
<g id="node9" class="node"><title>Node9</title>
<polygon fill="white" stroke="#bfbfbf" points="329,-56.5 329,-75.5 372,-75.5 372,-56.5 329,-56.5"/>
<text text-anchor="middle" x="350.5" y="-63.5" font-family="Helvetica,sans-Serif" font-size="10.00">string</text>
</g>
<!-- Node5&#45;&gt;Node9 -->
<g id="edge8" class="edge"><title>Node5&#45;&gt;Node9</title>
<path fill="none" stroke="midnightblue" d="M211.645,-112.444C240.791,-102.905 287.912,-87.4834 319.049,-77.293"/>
<polygon fill="midnightblue" stroke="midnightblue" points="320.532,-80.4906 328.947,-74.0537 318.354,-73.8378 320.532,-80.4906"/>
</g>
</g>
</svg>
