<?xml version="1.0" encoding="UTF-8" standalone="no"?>
<!DOCTYPE svg PUBLIC "-//W3C//DTD SVG 1.1//EN"
 "http://www.w3.org/Graphics/SVG/1.1/DTD/svg11.dtd">
<!-- Generated by graphviz version 2.38.0 (20140413.2041)
 -->
<!-- Title: src/io/io_response.hpp Pages: 1 -->
<svg width="298pt" height="140pt"
 viewBox="0.00 0.00 297.50 140.00" xmlns="http://www.w3.org/2000/svg" xmlns:xlink="http://www.w3.org/1999/xlink">
<g id="graph0" class="graph" transform="scale(1 1) rotate(0) translate(4 136)">
<title>src/io/io_response.hpp</title>
<polygon fill="white" stroke="none" points="-4,4 -4,-136 293.5,-136 293.5,4 -4,4"/>
<!-- Node1 -->
<g id="node1" class="node"><title>Node1</title>
<polygon fill="#bfbfbf" stroke="black" points="53.5,-112.5 53.5,-131.5 177.5,-131.5 177.5,-112.5 53.5,-112.5"/>
<text text-anchor="middle" x="115.5" y="-119.5" font-family="Helvetica,sans-Serif" font-size="10.00">src/io/io_response.hpp</text>
</g>
<!-- Node2 -->
<g id="node2" class="node"><title>Node2</title>
<polygon fill="white" stroke="#bfbfbf" points="0,-56.5 0,-75.5 37,-75.5 37,-56.5 0,-56.5"/>
<text text-anchor="middle" x="18.5" y="-63.5" font-family="Helvetica,sans-Serif" font-size="10.00">map</text>
</g>
<!-- Node1&#45;&gt;Node2 -->
<g id="edge1" class="edge"><title>Node1&#45;&gt;Node2</title>
<path fill="none" stroke="midnightblue" d="M99.9153,-112.324C84.5009,-103.743 60.6878,-90.486 42.7903,-80.5224"/>
<polygon fill="midnightblue" stroke="midnightblue" points="44.4858,-77.4606 34.0461,-75.6545 41.0809,-83.5767 44.4858,-77.4606"/>
</g>
<!-- Node3 -->
<g id="node3" class="node"><title>Node3</title>
<polygon fill="white" stroke="#bfbfbf" points="55,-56.5 55,-75.5 110,-75.5 110,-56.5 55,-56.5"/>
<text text-anchor="middle" x="82.5" y="-63.5" font-family="Helvetica,sans-Serif" font-size="10.00">ostream</text>
</g>
<!-- Node1&#45;&gt;Node3 -->
<g id="edge2" class="edge"><title>Node1&#45;&gt;Node3</title>
<path fill="none" stroke="midnightblue" d="M110.051,-112.083C105.486,-104.613 98.8316,-93.7244 93.2066,-84.5199"/>
<polygon fill="midnightblue" stroke="midnightblue" points="96.0489,-82.4588 87.8479,-75.7511 90.0759,-86.109 96.0489,-82.4588"/>
</g>
<!-- Node4 -->
<g id="node4" class="node"><title>Node4</title>
<polygon fill="white" stroke="#bfbfbf" points="128,-56.5 128,-75.5 171,-75.5 171,-56.5 128,-56.5"/>
<text text-anchor="middle" x="149.5" y="-63.5" font-family="Helvetica,sans-Serif" font-size="10.00">string</text>
</g>
<!-- Node1&#45;&gt;Node4 -->
<g id="edge3" class="edge"><title>Node1&#45;&gt;Node4</title>
<path fill="none" stroke="midnightblue" d="M121.114,-112.083C125.867,-104.534 132.818,-93.4948 138.652,-84.2298"/>
<polygon fill="midnightblue" stroke="midnightblue" points="141.624,-86.0783 143.99,-75.7511 135.7,-82.3486 141.624,-86.0783"/>
</g>
<!-- Node5 -->
<g id="node5" class="node"><title>Node5</title>
<g id="a_node5"><a xlink:href="errors_8hpp.html" target="_top" xlink:title="Declarations of the playd Error exception set. ">
<polygon fill="white" stroke="black" points="189,-56.5 189,-75.5 262,-75.5 262,-56.5 189,-56.5"/>
<text text-anchor="middle" x="225.5" y="-63.5" font-family="Helvetica,sans-Serif" font-size="10.00">../errors.hpp</text>
</a>
</g>
</g>
<!-- Node1&#45;&gt;Node5 -->
<g id="edge4" class="edge"><title>Node1&#45;&gt;Node5</title>
<path fill="none" stroke="midnightblue" d="M133.173,-112.324C150.894,-103.625 178.403,-90.1202 198.788,-80.113"/>
<polygon fill="midnightblue" stroke="midnightblue" points="200.436,-83.2031 207.87,-75.6545 197.351,-76.9195 200.436,-83.2031"/>
</g>
<!-- Node6 -->
<g id="node6" class="node"><title>Node6</title>
<polygon fill="white" stroke="#bfbfbf" points="160,-0.5 160,-19.5 217,-19.5 217,-0.5 160,-0.5"/>
<text text-anchor="middle" x="188.5" y="-7.5" font-family="Helvetica,sans-Serif" font-size="10.00">iostream</text>
</g>
<!-- Node5&#45;&gt;Node6 -->
<g id="edge5" class="edge"><title>Node5&#45;&gt;Node6</title>
<path fill="none" stroke="midnightblue" d="M219.39,-56.083C214.218,-48.5341 206.654,-37.4948 200.306,-28.2298"/>
<polygon fill="midnightblue" stroke="midnightblue" points="203.036,-26.0221 194.496,-19.7511 197.261,-29.9787 203.036,-26.0221"/>
</g>
<!-- Node7 -->
<g id="node7" class="node"><title>Node7</title>
<polygon fill="white" stroke="#bfbfbf" points="235.5,-0.5 235.5,-19.5 289.5,-19.5 289.5,-0.5 235.5,-0.5"/>
<text text-anchor="middle" x="262.5" y="-7.5" font-family="Helvetica,sans-Serif" font-size="10.00">sstream</text>
</g>
<!-- Node5&#45;&gt;Node7 -->
<g id="edge6" class="edge"><title>Node5&#45;&gt;Node7</title>
<path fill="none" stroke="midnightblue" d="M231.61,-56.083C236.782,-48.5341 244.346,-37.4948 250.694,-28.2298"/>
<polygon fill="midnightblue" stroke="midnightblue" points="253.739,-29.9787 256.504,-19.7511 247.964,-26.0221 253.739,-29.9787"/>
</g>
</g>
</svg>
