<?xml version="1.0" encoding="UTF-8" standalone="no"?>
<!DOCTYPE svg PUBLIC "-//W3C//DTD SVG 1.1//EN"
 "http://www.w3.org/Graphics/SVG/1.1/DTD/svg11.dtd">
<!-- Generated by graphviz version 2.38.0 (20140413.2041)
 -->
<!-- Title: src/io/io_response.cpp Pages: 1 -->
<svg width="599pt" height="196pt"
 viewBox="0.00 0.00 598.50 196.00" xmlns="http://www.w3.org/2000/svg" xmlns:xlink="http://www.w3.org/1999/xlink">
<g id="graph0" class="graph" transform="scale(1 1) rotate(0) translate(4 192)">
<title>src/io/io_response.cpp</title>
<polygon fill="white" stroke="none" points="-4,4 -4,-192 594.5,-192 594.5,4 -4,4"/>
<!-- Node1 -->
<g id="node1" class="node"><title>Node1</title>
<polygon fill="#bfbfbf" stroke="black" points="109,-168.5 109,-187.5 232,-187.5 232,-168.5 109,-168.5"/>
<text text-anchor="middle" x="170.5" y="-175.5" font-family="Helvetica,sans-Serif" font-size="10.00">src/io/io_response.cpp</text>
</g>
<!-- Node2 -->
<g id="node2" class="node"><title>Node2</title>
<polygon fill="white" stroke="#bfbfbf" points="0,-112.5 0,-131.5 47,-131.5 47,-112.5 0,-112.5"/>
<text text-anchor="middle" x="23.5" y="-119.5" font-family="Helvetica,sans-Serif" font-size="10.00">cctype</text>
</g>
<!-- Node1&#45;&gt;Node2 -->
<g id="edge1" class="edge"><title>Node1&#45;&gt;Node2</title>
<path fill="none" stroke="midnightblue" d="M147.207,-168.444C122.693,-159.438 83.9038,-145.189 56.3001,-135.049"/>
<polygon fill="midnightblue" stroke="midnightblue" points="57.2772,-131.679 46.6836,-131.516 54.8634,-138.25 57.2772,-131.679"/>
</g>
<!-- Node3 -->
<g id="node3" class="node"><title>Node3</title>
<polygon fill="white" stroke="#bfbfbf" points="65,-112.5 65,-131.5 142,-131.5 142,-112.5 65,-112.5"/>
<text text-anchor="middle" x="103.5" y="-119.5" font-family="Helvetica,sans-Serif" font-size="10.00">initializer_list</text>
</g>
<!-- Node1&#45;&gt;Node3 -->
<g id="edge2" class="edge"><title>Node1&#45;&gt;Node3</title>
<path fill="none" stroke="midnightblue" d="M159.735,-168.324C149.734,-160.263 134.613,-148.077 122.57,-138.369"/>
<polygon fill="midnightblue" stroke="midnightblue" points="124.443,-135.384 114.461,-131.834 120.05,-140.834 124.443,-135.384"/>
</g>
<!-- Node4 -->
<g id="node4" class="node"><title>Node4</title>
<polygon fill="white" stroke="#bfbfbf" points="143.5,-0.5 143.5,-19.5 197.5,-19.5 197.5,-0.5 143.5,-0.5"/>
<text text-anchor="middle" x="170.5" y="-7.5" font-family="Helvetica,sans-Serif" font-size="10.00">sstream</text>
</g>
<!-- Node1&#45;&gt;Node4 -->
<g id="edge3" class="edge"><title>Node1&#45;&gt;Node4</title>
<path fill="none" stroke="midnightblue" d="M170.5,-168.075C170.5,-141.945 170.5,-65.2106 170.5,-29.577"/>
<polygon fill="midnightblue" stroke="midnightblue" points="174,-29.5681 170.5,-19.5681 167,-29.5681 174,-29.5681"/>
</g>
<!-- Node5 -->
<g id="node5" class="node"><title>Node5</title>
<g id="a_node5"><a xlink:href="errors_8hpp.html" target="_top" xlink:title="Declarations of the playd Error exception set. ">
<polygon fill="white" stroke="black" points="199,-56.5 199,-75.5 272,-75.5 272,-56.5 199,-56.5"/>
<text text-anchor="middle" x="235.5" y="-63.5" font-family="Helvetica,sans-Serif" font-size="10.00">../errors.hpp</text>
</a>
</g>
</g>
<!-- Node1&#45;&gt;Node5 -->
<g id="edge4" class="edge"><title>Node1&#45;&gt;Node5</title>
<path fill="none" stroke="midnightblue" d="M175.6,-168.368C186.28,-150.296 211.168,-108.176 225.273,-84.3074"/>
<polygon fill="midnightblue" stroke="midnightblue" points="228.349,-85.9813 230.423,-75.5914 222.323,-82.4201 228.349,-85.9813"/>
</g>
<!-- Node7 -->
<g id="node7" class="node"><title>Node7</title>
<g id="a_node7"><a xlink:href="io__response_8hpp.html" target="_top" xlink:title="Declaration of classes pertaining to responses to the client. ">
<polygon fill="white" stroke="black" points="326,-112.5 326,-131.5 421,-131.5 421,-112.5 326,-112.5"/>
<text text-anchor="middle" x="373.5" y="-119.5" font-family="Helvetica,sans-Serif" font-size="10.00">io_response.hpp</text>
</a>
</g>
</g>
<!-- Node1&#45;&gt;Node7 -->
<g id="edge7" class="edge"><title>Node1&#45;&gt;Node7</title>
<path fill="none" stroke="midnightblue" d="M202.666,-168.444C237.559,-159.162 293.393,-144.309 331.671,-134.127"/>
<polygon fill="midnightblue" stroke="midnightblue" points="332.72,-137.47 341.485,-131.516 330.921,-130.705 332.72,-137.47"/>
</g>
<!-- Node5&#45;&gt;Node4 -->
<g id="edge6" class="edge"><title>Node5&#45;&gt;Node4</title>
<path fill="none" stroke="midnightblue" d="M225.057,-56.324C215.354,-48.2631 200.685,-36.0765 189,-26.3695"/>
<polygon fill="midnightblue" stroke="midnightblue" points="191.062,-23.532 181.133,-19.8339 186.589,-28.9163 191.062,-23.532"/>
</g>
<!-- Node6 -->
<g id="node6" class="node"><title>Node6</title>
<polygon fill="white" stroke="#bfbfbf" points="216,-0.5 216,-19.5 273,-19.5 273,-0.5 216,-0.5"/>
<text text-anchor="middle" x="244.5" y="-7.5" font-family="Helvetica,sans-Serif" font-size="10.00">iostream</text>
</g>
<!-- Node5&#45;&gt;Node6 -->
<g id="edge5" class="edge"><title>Node5&#45;&gt;Node6</title>
<path fill="none" stroke="midnightblue" d="M236.986,-56.083C238.179,-48.9272 239.894,-38.6353 241.385,-29.6911"/>
<polygon fill="midnightblue" stroke="midnightblue" points="244.85,-30.1904 243.041,-19.7511 237.945,-29.0396 244.85,-30.1904"/>
</g>
<!-- Node7&#45;&gt;Node5 -->
<g id="edge13" class="edge"><title>Node7&#45;&gt;Node5</title>
<path fill="none" stroke="midnightblue" d="M351.633,-112.444C328.721,-103.478 292.525,-89.314 266.634,-79.1827"/>
<polygon fill="midnightblue" stroke="midnightblue" points="267.852,-75.9011 257.264,-75.5164 265.301,-82.4198 267.852,-75.9011"/>
</g>
<!-- Node8 -->
<g id="node8" class="node"><title>Node8</title>
<polygon fill="white" stroke="#bfbfbf" points="290,-56.5 290,-75.5 337,-75.5 337,-56.5 290,-56.5"/>
<text text-anchor="middle" x="313.5" y="-63.5" font-family="Helvetica,sans-Serif" font-size="10.00">cstdint</text>
</g>
<!-- Node7&#45;&gt;Node8 -->
<g id="edge8" class="edge"><title>Node7&#45;&gt;Node8</title>
<path fill="none" stroke="midnightblue" d="M363.86,-112.324C354.99,-104.341 341.625,-92.3128 330.892,-82.6529"/>
<polygon fill="midnightblue" stroke="midnightblue" points="333.09,-79.922 323.315,-75.8339 328.407,-85.1251 333.09,-79.922"/>
</g>
<!-- Node9 -->
<g id="node9" class="node"><title>Node9</title>
<polygon fill="white" stroke="#bfbfbf" points="355,-56.5 355,-75.5 392,-75.5 392,-56.5 355,-56.5"/>
<text text-anchor="middle" x="373.5" y="-63.5" font-family="Helvetica,sans-Serif" font-size="10.00">map</text>
</g>
<!-- Node7&#45;&gt;Node9 -->
<g id="edge9" class="edge"><title>Node7&#45;&gt;Node9</title>
<path fill="none" stroke="midnightblue" d="M373.5,-112.083C373.5,-105.006 373.5,-94.8611 373.5,-85.9865"/>
<polygon fill="midnightblue" stroke="midnightblue" points="377,-85.751 373.5,-75.7511 370,-85.7511 377,-85.751"/>
</g>
<!-- Node10 -->
<g id="node10" class="node"><title>Node10</title>
<polygon fill="white" stroke="#bfbfbf" points="410,-56.5 410,-75.5 465,-75.5 465,-56.5 410,-56.5"/>
<text text-anchor="middle" x="437.5" y="-63.5" font-family="Helvetica,sans-Serif" font-size="10.00">ostream</text>
</g>
<!-- Node7&#45;&gt;Node10 -->
<g id="edge10" class="edge"><title>Node7&#45;&gt;Node10</title>
<path fill="none" stroke="midnightblue" d="M383.783,-112.324C393.336,-104.263 407.78,-92.0765 419.284,-82.3695"/>
<polygon fill="midnightblue" stroke="midnightblue" points="421.644,-84.9577 427.03,-75.8339 417.13,-79.6076 421.644,-84.9577"/>
</g>
<!-- Node11 -->
<g id="node11" class="node"><title>Node11</title>
<polygon fill="white" stroke="#bfbfbf" points="483,-56.5 483,-75.5 526,-75.5 526,-56.5 483,-56.5"/>
<text text-anchor="middle" x="504.5" y="-63.5" font-family="Helvetica,sans-Serif" font-size="10.00">string</text>
</g>
<!-- Node7&#45;&gt;Node11 -->
<g id="edge11" class="edge"><title>Node7&#45;&gt;Node11</title>
<path fill="none" stroke="midnightblue" d="M394.257,-112.444C415.816,-103.557 449.763,-89.5632 474.294,-79.4514"/>
<polygon fill="midnightblue" stroke="midnightblue" points="475.928,-82.5634 483.84,-75.5164 473.261,-76.0917 475.928,-82.5634"/>
</g>
<!-- Node12 -->
<g id="node12" class="node"><title>Node12</title>
<polygon fill="white" stroke="#bfbfbf" points="544.5,-56.5 544.5,-75.5 590.5,-75.5 590.5,-56.5 544.5,-56.5"/>
<text text-anchor="middle" x="567.5" y="-63.5" font-family="Helvetica,sans-Serif" font-size="10.00">vector</text>
</g>
<!-- Node7&#45;&gt;Node12 -->
<g id="edge12" class="edge"><title>Node7&#45;&gt;Node12</title>
<path fill="none" stroke="midnightblue" d="M404.263,-112.486C434.883,-104.006 483.479,-90.527 534.533,-76.2642"/>
<polygon fill="midnightblue" stroke="midnightblue" points="535.742,-79.5605 544.43,-73.4979 533.857,-72.8189 535.742,-79.5605"/>
</g>
</g>
</svg>
