<?xml version="1.0" encoding="UTF-8" standalone="no"?>
<!DOCTYPE svg PUBLIC "-//W3C//DTD SVG 1.1//EN"
 "http://www.w3.org/Graphics/SVG/1.1/DTD/svg11.dtd">
<!-- Generated by graphviz version 2.38.0 (20140413.2041)
 -->
<!-- Title: src/io/io_response.cpp Pages: 1 -->
<svg width="299pt" height="196pt"
 viewBox="0.00 0.00 299.00 196.00" xmlns="http://www.w3.org/2000/svg" xmlns:xlink="http://www.w3.org/1999/xlink">
<g id="graph0" class="graph" transform="scale(1 1) rotate(0) translate(4 192)">
<title>src/io/io_response.cpp</title>
<polygon fill="white" stroke="none" points="-4,4 -4,-192 295,-192 295,4 -4,4"/>
<!-- Node1 -->
<g id="node1" class="node"><title>Node1</title>
<polygon fill="#bfbfbf" stroke="black" points="42,-168.5 42,-187.5 165,-187.5 165,-168.5 42,-168.5"/>
<text text-anchor="middle" x="103.5" y="-175.5" font-family="Helvetica,sans-Serif" font-size="10.00">src/io/io_response.cpp</text>
</g>
<!-- Node2 -->
<g id="node2" class="node"><title>Node2</title>
<g id="a_node2"><a xlink:href="errors_8hpp.html" target="_top" xlink:title="Declarations of the playd Error exception set. ">
<polygon fill="white" stroke="black" points="29,-56.5 29,-75.5 102,-75.5 102,-56.5 29,-56.5"/>
<text text-anchor="middle" x="65.5" y="-63.5" font-family="Helvetica,sans-Serif" font-size="10.00">../errors.hpp</text>
</a>
</g>
</g>
<!-- Node1&#45;&gt;Node2 -->
<g id="edge1" class="edge"><title>Node1&#45;&gt;Node2</title>
<path fill="none" stroke="midnightblue" d="M99.5595,-168.489C95.4917,-159.525 89.1067,-144.943 84.5,-132 78.956,-116.424 73.7696,-98.3467 70.2208,-85.2161"/>
<polygon fill="midnightblue" stroke="midnightblue" points="73.595,-84.2851 67.6531,-75.5133 66.828,-86.076 73.595,-84.2851"/>
</g>
<!-- Node5 -->
<g id="node5" class="node"><title>Node5</title>
<g id="a_node5"><a xlink:href="io__response_8hpp.html" target="_top" xlink:title="Declaration of classes pertaining to responses to the client. ">
<polygon fill="white" stroke="black" points="94,-112.5 94,-131.5 189,-131.5 189,-112.5 94,-112.5"/>
<text text-anchor="middle" x="141.5" y="-119.5" font-family="Helvetica,sans-Serif" font-size="10.00">io_response.hpp</text>
</a>
</g>
</g>
<!-- Node1&#45;&gt;Node5 -->
<g id="edge4" class="edge"><title>Node1&#45;&gt;Node5</title>
<path fill="none" stroke="midnightblue" d="M109.775,-168.083C115.142,-160.455 123.018,-149.264 129.579,-139.941"/>
<polygon fill="midnightblue" stroke="midnightblue" points="132.449,-141.943 135.342,-131.751 126.725,-137.915 132.449,-141.943"/>
</g>
<!-- Node3 -->
<g id="node3" class="node"><title>Node3</title>
<polygon fill="white" stroke="#bfbfbf" points="0,-0.5 0,-19.5 57,-19.5 57,-0.5 0,-0.5"/>
<text text-anchor="middle" x="28.5" y="-7.5" font-family="Helvetica,sans-Serif" font-size="10.00">iostream</text>
</g>
<!-- Node2&#45;&gt;Node3 -->
<g id="edge2" class="edge"><title>Node2&#45;&gt;Node3</title>
<path fill="none" stroke="midnightblue" d="M59.3902,-56.083C54.2178,-48.5341 46.6539,-37.4948 40.3056,-28.2298"/>
<polygon fill="midnightblue" stroke="midnightblue" points="43.0357,-26.0221 34.4961,-19.7511 37.2612,-29.9787 43.0357,-26.0221"/>
</g>
<!-- Node4 -->
<g id="node4" class="node"><title>Node4</title>
<polygon fill="white" stroke="#bfbfbf" points="75.5,-0.5 75.5,-19.5 129.5,-19.5 129.5,-0.5 75.5,-0.5"/>
<text text-anchor="middle" x="102.5" y="-7.5" font-family="Helvetica,sans-Serif" font-size="10.00">sstream</text>
</g>
<!-- Node2&#45;&gt;Node4 -->
<g id="edge3" class="edge"><title>Node2&#45;&gt;Node4</title>
<path fill="none" stroke="midnightblue" d="M71.6098,-56.083C76.7822,-48.5341 84.3461,-37.4948 90.6944,-28.2298"/>
<polygon fill="midnightblue" stroke="midnightblue" points="93.7388,-29.9787 96.5039,-19.7511 87.9643,-26.0221 93.7388,-29.9787"/>
</g>
<!-- Node5&#45;&gt;Node2 -->
<g id="edge8" class="edge"><title>Node5&#45;&gt;Node2</title>
<path fill="none" stroke="midnightblue" d="M129.289,-112.324C117.724,-104.107 100.125,-91.6017 86.3393,-81.8069"/>
<polygon fill="midnightblue" stroke="midnightblue" points="88.112,-78.7729 77.9329,-75.8339 84.0575,-84.4791 88.112,-78.7729"/>
</g>
<!-- Node6 -->
<g id="node6" class="node"><title>Node6</title>
<polygon fill="white" stroke="#bfbfbf" points="120,-56.5 120,-75.5 157,-75.5 157,-56.5 120,-56.5"/>
<text text-anchor="middle" x="138.5" y="-63.5" font-family="Helvetica,sans-Serif" font-size="10.00">map</text>
</g>
<!-- Node5&#45;&gt;Node6 -->
<g id="edge5" class="edge"><title>Node5&#45;&gt;Node6</title>
<path fill="none" stroke="midnightblue" d="M141.005,-112.083C140.611,-105.006 140.048,-94.8611 139.555,-85.9865"/>
<polygon fill="midnightblue" stroke="midnightblue" points="143.036,-85.5415 138.986,-75.7511 136.046,-85.9299 143.036,-85.5415"/>
</g>
<!-- Node7 -->
<g id="node7" class="node"><title>Node7</title>
<polygon fill="white" stroke="#bfbfbf" points="175,-56.5 175,-75.5 230,-75.5 230,-56.5 175,-56.5"/>
<text text-anchor="middle" x="202.5" y="-63.5" font-family="Helvetica,sans-Serif" font-size="10.00">ostream</text>
</g>
<!-- Node5&#45;&gt;Node7 -->
<g id="edge6" class="edge"><title>Node5&#45;&gt;Node7</title>
<path fill="none" stroke="midnightblue" d="M151.301,-112.324C160.318,-104.341 173.906,-92.3128 184.818,-82.6529"/>
<polygon fill="midnightblue" stroke="midnightblue" points="187.353,-85.083 192.521,-75.8339 182.713,-79.8416 187.353,-85.083"/>
</g>
<!-- Node8 -->
<g id="node8" class="node"><title>Node8</title>
<polygon fill="white" stroke="#bfbfbf" points="248,-56.5 248,-75.5 291,-75.5 291,-56.5 248,-56.5"/>
<text text-anchor="middle" x="269.5" y="-63.5" font-family="Helvetica,sans-Serif" font-size="10.00">string</text>
</g>
<!-- Node5&#45;&gt;Node8 -->
<g id="edge7" class="edge"><title>Node5&#45;&gt;Node8</title>
<path fill="none" stroke="midnightblue" d="M161.782,-112.444C182.847,-103.557 216.017,-89.5632 239.986,-79.4514"/>
<polygon fill="midnightblue" stroke="midnightblue" points="241.46,-82.6283 249.313,-75.5164 238.739,-76.1787 241.46,-82.6283"/>
</g>
</g>
</svg>
