<?xml version="1.0" encoding="UTF-8" standalone="no"?>
<!DOCTYPE svg PUBLIC "-//W3C//DTD SVG 1.1//EN"
 "http://www.w3.org/Graphics/SVG/1.1/DTD/svg11.dtd">
<!-- Generated by graphviz version 2.38.0 (20140413.2041)
 -->
<!-- Title: src/io/io_response.hpp Pages: 1 -->
<!--zoomable 476 -->
<svg id="main" version="1.1" xmlns="http://www.w3.org/2000/svg" xmlns:xlink="http://www.w3.org/1999/xlink" xml:space="preserve" onload="init(evt)">
<style type="text/css"><![CDATA[
.edge:hover path { stroke: red; }
.edge:hover polygon { stroke: red; fill: red; }
]]></style>
<script type="text/javascript"><![CDATA[
var edges = document.getElementsByTagName('g');
if (edges && edges.length) {
  for (var i=0;i<edges.length;i++) {
    if (edges[i].id.substr(0,4)=='edge') {
      edges[i].setAttribute('class','edge');
    }
  }
}
]]></script>
        <defs>
                <circle id="rim" cx="0" cy="0" r="7"/>
                <circle id="rim2" cx="0" cy="0" r="3.5"/>
                <g id="zoomPlus">
                        <use xlink:href="#rim" fill="#404040">
                                <set attributeName="fill" to="#808080" begin="zoomplus.mouseover" end="zoomplus.mouseout"/>
                        </use>
                        <path d="M-4,0h8M0,-4v8" fill="none" stroke="white" stroke-width="1.5" pointer-events="none"/>
                </g>
                <g id="zoomMin">
                        <use xlink:href="#rim" fill="#404040">
                                <set attributeName="fill" to="#808080" begin="zoomminus.mouseover" end="zoomminus.mouseout"/>
                        </use>
                        <path d="M-4,0h8" fill="none" stroke="white" stroke-width="1.5" pointer-events="none"/>
                </g>
                <g id="dirArrow">
                        <path fill="none" stroke="white" stroke-width="1.5" d="M0,-3.0v7 M-2.5,-0.5L0,-3.0L2.5,-0.5"/>
                </g>
               <g id="resetDef">
                       <use xlink:href="#rim2" fill="#404040">
                               <set attributeName="fill" to="#808080" begin="reset.mouseover" end="reset.mouseout"/>
                       </use>
               </g>
        </defs>

<script type="text/javascript">
var viewWidth = 1071;
var viewHeight = 476;
var sectionId = 'dynsection-1';
</script>
<script xlink:href="svgpan.js"/>
<svg id="graph" class="graph">
<g id="viewport">
<title>src/io/io_response.hpp</title>
<polygon fill="white" stroke="none" points="-4,4 -4,-472 1066.5,-472 1066.5,4 -4,4"/>
<!-- Node1 -->
<g id="node1" class="node"><title>Node1</title>
<polygon fill="#bfbfbf" stroke="black" points="439,-448.5 439,-467.5 563,-467.5 563,-448.5 439,-448.5"/>
<text text-anchor="middle" x="501" y="-455.5" font-family="Helvetica,sans-Serif" font-size="10.00">src/io/io_response.hpp</text>
</g>
<!-- Node2 -->
<g id="node2" class="node"><title>Node2</title>
<g id="a_node2"><a xlink:href="player_8hpp.html" target="_top" xlink:title="Declaration of the Player class, and associated types. ">
<polygon fill="white" stroke="black" points="347,-280.5 347,-299.5 463,-299.5 463,-280.5 347,-280.5"/>
<text text-anchor="middle" x="405" y="-287.5" font-family="Helvetica,sans-Serif" font-size="10.00">src/player/player.hpp</text>
</a>
</g>
</g>
<!-- Node1&#45;&gt;Node2 -->
<g id="edge1" class="edge"><title>Node1&#45;&gt;Node2</title>
<path fill="none" stroke="midnightblue" d="M494.065,-439.006C484.323,-414.688 465.262,-370.419 443,-336 434.226,-322.434 421.807,-308.472 413.585,-299.771"/>
<polygon fill="midnightblue" stroke="midnightblue" points="490.84,-440.369 497.758,-448.394 497.354,-437.807 490.84,-440.369"/>
</g>
<!-- Node4 -->
<g id="node4" class="node"><title>Node4</title>
<g id="a_node4"><a xlink:href="cmd_8cpp.html" target="_top" xlink:title="Implementation of the CommandHandler class. ">
<polygon fill="white" stroke="black" points="635.5,-168.5 635.5,-187.5 708.5,-187.5 708.5,-168.5 635.5,-168.5"/>
<text text-anchor="middle" x="672" y="-175.5" font-family="Helvetica,sans-Serif" font-size="10.00">src/cmd.cpp</text>
</a>
</g>
</g>
<!-- Node1&#45;&gt;Node4 -->
<g id="edge35" class="edge"><title>Node1&#45;&gt;Node4</title>
<path fill="none" stroke="midnightblue" d="M511.143,-439.429C522.4,-418.236 539,-381.187 539,-347 539,-347 539,-347 539,-289 539,-258.205 541.64,-246.183 563,-224 582.312,-203.943 611.868,-192.496 635.333,-186.172"/>
<polygon fill="midnightblue" stroke="midnightblue" points="508.053,-437.785 506.284,-448.231 514.181,-441.168 508.053,-437.785"/>
</g>
<!-- Node5 -->
<g id="node5" class="node"><title>Node5</title>
<g id="a_node5"><a xlink:href="io__reactor_8cpp.html" target="_top" xlink:title="Implementation of the non&#45;virtual aspects of the IoReactor class. ">
<polygon fill="white" stroke="black" points="107.5,-56.5 107.5,-75.5 220.5,-75.5 220.5,-56.5 107.5,-56.5"/>
<text text-anchor="middle" x="164" y="-63.5" font-family="Helvetica,sans-Serif" font-size="10.00">src/io/io_reactor.cpp</text>
</a>
</g>
</g>
<!-- Node1&#45;&gt;Node5 -->
<g id="edge38" class="edge"><title>Node1&#45;&gt;Node5</title>
<path fill="none" stroke="midnightblue" d="M428.81,-454.661C324.109,-450.382 135.866,-439.1 74,-412 33.9033,-394.436 0,-390.775 0,-347 0,-347 0,-347 0,-289 0,-187.654 111.94,-102.238 150.856,-75.605"/>
<polygon fill="midnightblue" stroke="midnightblue" points="428.853,-458.165 438.984,-455.066 429.131,-451.171 428.853,-458.165"/>
</g>
<!-- Node6 -->
<g id="node6" class="node"><title>Node6</title>
<g id="a_node6"><a xlink:href="tokeniser_8hpp.html" target="_top" xlink:title="Declaration of the Tokeniser class. ">
<polygon fill="white" stroke="black" points="508.5,-168.5 508.5,-187.5 617.5,-187.5 617.5,-168.5 508.5,-168.5"/>
<text text-anchor="middle" x="563" y="-175.5" font-family="Helvetica,sans-Serif" font-size="10.00">src/io/tokeniser.hpp</text>
</a>
</g>
</g>
<!-- Node1&#45;&gt;Node6 -->
<g id="edge37" class="edge"><title>Node1&#45;&gt;Node6</title>
<path fill="none" stroke="midnightblue" d="M501,-438.251C501,-416.357 501,-379.052 501,-347 501,-347 501,-347 501,-289 501,-246.472 536.605,-205.23 553.852,-187.747"/>
<polygon fill="midnightblue" stroke="midnightblue" points="497.5,-438.442 501,-448.442 504.5,-438.442 497.5,-438.442"/>
</g>
<!-- Node7 -->
<g id="node7" class="node"><title>Node7</title>
<g id="a_node7"><a xlink:href="io__reactor_8hpp.html" target="_top" xlink:title="Declaration of the IoReactor class. ">
<polygon fill="white" stroke="black" points="206.5,-112.5 206.5,-131.5 319.5,-131.5 319.5,-112.5 206.5,-112.5"/>
<text text-anchor="middle" x="263" y="-119.5" font-family="Helvetica,sans-Serif" font-size="10.00">src/io/io_reactor.hpp</text>
</a>
</g>
</g>
<!-- Node1&#45;&gt;Node7 -->
<g id="edge36" class="edge"><title>Node1&#45;&gt;Node7</title>
<path fill="none" stroke="midnightblue" d="M428.26,-454.665C297.911,-448.487 38,-426.234 38,-347 38,-347 38,-347 38,-289 38,-258.902 37.6182,-247.027 57,-224 101.118,-171.586 178.944,-144.01 225.267,-131.557"/>
<polygon fill="midnightblue" stroke="midnightblue" points="428.409,-458.176 438.558,-455.133 428.727,-451.183 428.409,-458.176"/>
</g>
<!-- Node8 -->
<g id="node8" class="node"><title>Node8</title>
<g id="a_node8"><a xlink:href="main_8cpp.html" target="_top" xlink:title="Main entry point and implementation of the playd class. ">
<polygon fill="white" stroke="black" points="328,-0.5 328,-19.5 404,-19.5 404,-0.5 328,-0.5"/>
<text text-anchor="middle" x="366" y="-7.5" font-family="Helvetica,sans-Serif" font-size="10.00">src/main.cpp</text>
</a>
</g>
</g>
<!-- Node1&#45;&gt;Node8 -->
<g id="edge41" class="edge"><title>Node1&#45;&gt;Node8</title>
<path fill="none" stroke="midnightblue" d="M573.292,-452.433C690.979,-442.993 911,-416.104 911,-347 911,-347 911,-347 911,-121 911,-17.4758 528.377,-10.2088 404.323,-10.5733"/>
<polygon fill="midnightblue" stroke="midnightblue" points="572.968,-448.948 563.27,-453.215 573.512,-455.926 572.968,-448.948"/>
</g>
<!-- Node10 -->
<g id="node10" class="node"><title>Node10</title>
<g id="a_node10"><a xlink:href="tokeniser_8cpp.html" target="_top" xlink:title="Definition of the Tokeniser class. ">
<polygon fill="white" stroke="black" points="509,-112.5 509,-131.5 617,-131.5 617,-112.5 509,-112.5"/>
<text text-anchor="middle" x="563" y="-119.5" font-family="Helvetica,sans-Serif" font-size="10.00">src/io/tokeniser.cpp</text>
</a>
</g>
</g>
<!-- Node1&#45;&gt;Node10 -->
<g id="edge40" class="edge"><title>Node1&#45;&gt;Node10</title>
<path fill="none" stroke="midnightblue" d="M520.518,-441.846C543.036,-422.496 577,-386.724 577,-347 577,-347 577,-347 577,-289 577,-258.902 574.769,-245.333 596,-224 637.801,-181.998 752.543,-215.415 717,-168 704.679,-151.563 655.432,-139.128 615.901,-131.54"/>
<polygon fill="midnightblue" stroke="midnightblue" points="518.024,-439.366 512.543,-448.433 522.482,-444.764 518.024,-439.366"/>
</g>
<!-- Node11 -->
<g id="node11" class="node"><title>Node11</title>
<g id="a_node11"><a xlink:href="player_8cpp.html" target="_top" xlink:title="Main implementation file for the Player class. ">
<polygon fill="white" stroke="black" points="767.5,-224.5 767.5,-243.5 882.5,-243.5 882.5,-224.5 767.5,-224.5"/>
<text text-anchor="middle" x="825" y="-231.5" font-family="Helvetica,sans-Serif" font-size="10.00">src/player/player.cpp</text>
</a>
</g>
</g>
<!-- Node1&#45;&gt;Node11 -->
<g id="edge42" class="edge"><title>Node1&#45;&gt;Node11</title>
<path fill="none" stroke="midnightblue" d="M573.291,-452.83C641.77,-444.814 742.193,-421.765 798,-356 826.41,-322.521 826.687,-265.563 825.627,-243.805"/>
<polygon fill="midnightblue" stroke="midnightblue" points="572.57,-449.388 563.007,-453.95 573.328,-456.347 572.57,-449.388"/>
</g>
<!-- Node12 -->
<g id="node12" class="node"><title>Node12</title>
<g id="a_node12"><a xlink:href="player__position_8cpp.html" target="_top" xlink:title="Implementation of the PlayerPosition class, and related Player methods. ">
<polygon fill="white" stroke="black" points="66,-224.5 66,-243.5 224,-243.5 224,-224.5 66,-224.5"/>
<text text-anchor="middle" x="145" y="-231.5" font-family="Helvetica,sans-Serif" font-size="10.00">src/player/player_position.cpp</text>
</a>
</g>
</g>
<!-- Node1&#45;&gt;Node12 -->
<g id="edge44" class="edge"><title>Node1&#45;&gt;Node12</title>
<path fill="none" stroke="midnightblue" d="M428.433,-456.929C342.41,-455.224 206.246,-446.884 171,-412 123.539,-365.026 137.459,-272.109 143.135,-243.551"/>
<polygon fill="midnightblue" stroke="midnightblue" points="428.606,-460.433 438.665,-457.106 428.727,-453.434 428.606,-460.433"/>
</g>
<!-- Node13 -->
<g id="node13" class="node"><title>Node13</title>
<g id="a_node13"><a xlink:href="player__state_8cpp.html" target="_top" xlink:title="Implementation of the PlayerState class, and related Player methods. ">
<polygon fill="white" stroke="black" points="605,-224.5 605,-243.5 749,-243.5 749,-224.5 605,-224.5"/>
<text text-anchor="middle" x="677" y="-231.5" font-family="Helvetica,sans-Serif" font-size="10.00">src/player/player_state.cpp</text>
</a>
</g>
</g>
<!-- Node1&#45;&gt;Node13 -->
<g id="edge45" class="edge"><title>Node1&#45;&gt;Node13</title>
<path fill="none" stroke="midnightblue" d="M538.572,-444.671C556.21,-437.387 576.492,-426.674 591,-412 604.211,-398.638 658.229,-277.523 673.16,-243.724"/>
<polygon fill="midnightblue" stroke="midnightblue" points="537.142,-441.472 529.099,-448.367 539.687,-447.993 537.142,-441.472"/>
</g>
<!-- Node14 -->
<g id="node14" class="node"><title>Node14</title>
<g id="a_node14"><a xlink:href="player__file_8hpp.html" target="_top" xlink:title="Declaration of the PlayerFile class, and associated types. ">
<polygon fill="white" stroke="black" points="299.5,-336.5 299.5,-355.5 434.5,-355.5 434.5,-336.5 299.5,-336.5"/>
<text text-anchor="middle" x="367" y="-343.5" font-family="Helvetica,sans-Serif" font-size="10.00">src/player/player_file.hpp</text>
</a>
</g>
</g>
<!-- Node1&#45;&gt;Node14 -->
<g id="edge23" class="edge"><title>Node1&#45;&gt;Node14</title>
<path fill="none" stroke="midnightblue" d="M482.503,-441.816C453.963,-418.387 400.122,-374.19 377.466,-355.591"/>
<polygon fill="midnightblue" stroke="midnightblue" points="480.535,-444.729 490.485,-448.368 484.977,-439.318 480.535,-444.729"/>
</g>
<!-- Node15 -->
<g id="node15" class="node"><title>Node15</title>
<g id="a_node15"><a xlink:href="player__file_8cpp.html" target="_top" xlink:title="Implementation of the PlayerFile class, and associated types. ">
<polygon fill="white" stroke="black" points="195,-280.5 195,-299.5 329,-299.5 329,-280.5 195,-280.5"/>
<text text-anchor="middle" x="262" y="-287.5" font-family="Helvetica,sans-Serif" font-size="10.00">src/player/player_file.cpp</text>
</a>
</g>
</g>
<!-- Node1&#45;&gt;Node15 -->
<g id="edge43" class="edge"><title>Node1&#45;&gt;Node15</title>
<path fill="none" stroke="midnightblue" d="M428.552,-457.301C344.713,-455.924 214.149,-447.867 183,-412 149.771,-373.737 218.168,-320.521 248.502,-299.773"/>
<polygon fill="midnightblue" stroke="midnightblue" points="428.741,-460.804 438.788,-457.441 428.836,-453.805 428.741,-460.804"/>
</g>
<!-- Node16 -->
<g id="node16" class="node"><title>Node16</title>
<g id="a_node16"><a xlink:href="player__position_8hpp.html" target="_top" xlink:title="Declaration of the PlayerPosition class. ">
<polygon fill="white" stroke="black" points="192,-392.5 192,-411.5 350,-411.5 350,-392.5 192,-392.5"/>
<text text-anchor="middle" x="271" y="-399.5" font-family="Helvetica,sans-Serif" font-size="10.00">src/player/player_position.hpp</text>
</a>
</g>
</g>
<!-- Node1&#45;&gt;Node16 -->
<g id="edge26" class="edge"><title>Node1&#45;&gt;Node16</title>
<path fill="none" stroke="midnightblue" d="M454.799,-446.153C411.342,-435.95 347.159,-420.881 307.274,-411.516"/>
<polygon fill="midnightblue" stroke="midnightblue" points="454.021,-449.565 464.556,-448.444 455.621,-442.75 454.021,-449.565"/>
</g>
<!-- Node17 -->
<g id="node17" class="node"><title>Node17</title>
<g id="a_node17"><a xlink:href="player__state_8hpp.html" target="_top" xlink:title="Declaration of the PlayerState class, and associated types. ">
<polygon fill="white" stroke="black" points="643.5,-336.5 643.5,-355.5 788.5,-355.5 788.5,-336.5 643.5,-336.5"/>
<text text-anchor="middle" x="716" y="-343.5" font-family="Helvetica,sans-Serif" font-size="10.00">src/player/player_state.hpp</text>
</a>
</g>
</g>
<!-- Node1&#45;&gt;Node17 -->
<g id="edge31" class="edge"><title>Node1&#45;&gt;Node17</title>
<path fill="none" stroke="midnightblue" d="M543.477,-445.615C569.064,-437.902 601.843,-426.481 629,-412 659.612,-395.677 691.164,-369.239 706.49,-355.659"/>
<polygon fill="midnightblue" stroke="midnightblue" points="542.304,-442.311 533.697,-448.489 544.278,-449.027 542.304,-442.311"/>
</g>
<!-- Node18 -->
<g id="node18" class="node"><title>Node18</title>
<g id="a_node18"><a xlink:href="io__response_8cpp.html" target="_top" xlink:title="Implementation of client response classes. ">
<polygon fill="white" stroke="black" points="939.5,-392.5 939.5,-411.5 1062.5,-411.5 1062.5,-392.5 939.5,-392.5"/>
<text text-anchor="middle" x="1001" y="-399.5" font-family="Helvetica,sans-Serif" font-size="10.00">src/io/io_response.cpp</text>
</a>
</g>
</g>
<!-- Node1&#45;&gt;Node18 -->
<g id="edge39" class="edge"><title>Node1&#45;&gt;Node18</title>
<path fill="none" stroke="midnightblue" d="M573.165,-449.61C657.564,-440.905 801.471,-425.869 925,-412 929.621,-411.481 934.4,-410.936 939.205,-410.381"/>
<polygon fill="midnightblue" stroke="midnightblue" points="572.761,-446.133 563.173,-450.64 573.479,-453.096 572.761,-446.133"/>
</g>
<!-- Node3 -->
<g id="node3" class="node"><title>Node3</title>
<g id="a_node3"><a xlink:href="cmd_8hpp.html" target="_top" xlink:title="Declaration of the CommandHandler class. ">
<polygon fill="white" stroke="black" points="399,-224.5 399,-243.5 473,-243.5 473,-224.5 399,-224.5"/>
<text text-anchor="middle" x="436" y="-231.5" font-family="Helvetica,sans-Serif" font-size="10.00">src/cmd.hpp</text>
</a>
</g>
</g>
<!-- Node2&#45;&gt;Node3 -->
<g id="edge2" class="edge"><title>Node2&#45;&gt;Node3</title>
<path fill="none" stroke="midnightblue" d="M415.176,-271.275C420.474,-262.045 426.717,-251.17 430.976,-243.751"/>
<polygon fill="midnightblue" stroke="midnightblue" points="412.062,-269.668 410.119,-280.083 418.133,-273.153 412.062,-269.668"/>
</g>
<!-- Node2&#45;&gt;Node5 -->
<g id="edge16" class="edge"><title>Node2&#45;&gt;Node5</title>
<path fill="none" stroke="midnightblue" d="M372.521,-276.581C321.856,-255.358 225.054,-206.999 179,-132 167.97,-114.038 165.042,-88.7627 164.271,-75.6512"/>
<polygon fill="midnightblue" stroke="midnightblue" points="371.43,-279.916 382.011,-280.464 374.081,-273.437 371.43,-279.916"/>
</g>
<!-- Node2&#45;&gt;Node7 -->
<g id="edge17" class="edge"><title>Node2&#45;&gt;Node7</title>
<path fill="none" stroke="midnightblue" d="M385.258,-274.063C374.846,-265.747 362.162,-254.897 352,-244 316.074,-205.476 281.43,-152.411 268.414,-131.738"/>
<polygon fill="midnightblue" stroke="midnightblue" points="383.33,-276.998 393.364,-280.397 387.64,-271.482 383.33,-276.998"/>
</g>
<!-- Node2&#45;&gt;Node8 -->
<g id="edge19" class="edge"><title>Node2&#45;&gt;Node8</title>
<path fill="none" stroke="midnightblue" d="M358.793,-277.763C332.622,-270.31 299.852,-259.104 273,-244 179.029,-191.143 138.353,-175.981 98,-76 94.6732,-67.7572 92.2585,-62.7859 98,-56 126.988,-21.7388 260.905,-13.5478 327.782,-11.6004"/>
<polygon fill="midnightblue" stroke="midnightblue" points="357.903,-281.148 368.474,-280.435 359.766,-274.4 357.903,-281.148"/>
</g>
<!-- Node9 -->
<g id="node9" class="node"><title>Node9</title>
<g id="a_node9"><a xlink:href="main_8hpp.html" target="_top" xlink:title="Declaration of the playd class. ">
<polygon fill="white" stroke="black" points="327.5,-56.5 327.5,-75.5 404.5,-75.5 404.5,-56.5 327.5,-56.5"/>
<text text-anchor="middle" x="366" y="-63.5" font-family="Helvetica,sans-Serif" font-size="10.00">src/main.hpp</text>
</a>
</g>
</g>
<!-- Node2&#45;&gt;Node9 -->
<g id="edge18" class="edge"><title>Node2&#45;&gt;Node9</title>
<path fill="none" stroke="midnightblue" d="M398.025,-270.668C395.177,-262.59 392.073,-252.924 390,-244 375.194,-180.265 368.491,-101.351 366.592,-75.5766"/>
<polygon fill="midnightblue" stroke="midnightblue" points="394.783,-271.993 401.512,-280.176 401.354,-269.583 394.783,-271.993"/>
</g>
<!-- Node2&#45;&gt;Node11 -->
<g id="edge20" class="edge"><title>Node2&#45;&gt;Node11</title>
<path fill="none" stroke="midnightblue" d="M473.277,-280.434C544.395,-271.48 659.035,-256.955 758,-244 761.026,-243.604 764.128,-243.195 767.26,-242.781"/>
<polygon fill="midnightblue" stroke="midnightblue" points="472.592,-276.993 463.107,-281.714 473.466,-283.938 472.592,-276.993"/>
</g>
<!-- Node2&#45;&gt;Node12 -->
<g id="edge21" class="edge"><title>Node2&#45;&gt;Node12</title>
<path fill="none" stroke="midnightblue" d="M354.009,-278.41C304.872,-268.204 231.473,-252.96 186.005,-243.516"/>
<polygon fill="midnightblue" stroke="midnightblue" points="353.299,-281.837 363.802,-280.444 354.723,-274.983 353.299,-281.837"/>
</g>
<!-- Node2&#45;&gt;Node13 -->
<g id="edge22" class="edge"><title>Node2&#45;&gt;Node13</title>
<path fill="none" stroke="midnightblue" d="M458.023,-278.473C509.429,-268.268 586.437,-252.979 634.102,-243.516"/>
<polygon fill="midnightblue" stroke="midnightblue" points="457.226,-275.063 448.099,-280.444 458.589,-281.929 457.226,-275.063"/>
</g>
<!-- Node3&#45;&gt;Node4 -->
<g id="edge3" class="edge"><title>Node3&#45;&gt;Node4</title>
<path fill="none" stroke="midnightblue" d="M482.915,-222.265C527.762,-212.004 594.448,-196.745 635.47,-187.359"/>
<polygon fill="midnightblue" stroke="midnightblue" points="482.102,-218.861 473.135,-224.503 483.663,-225.684 482.102,-218.861"/>
</g>
<!-- Node3&#45;&gt;Node5 -->
<g id="edge4" class="edge"><title>Node3&#45;&gt;Node5</title>
<path fill="none" stroke="midnightblue" d="M388.815,-223.33C336.36,-210.456 251.825,-183.118 197,-132 179.968,-116.12 170.372,-89.4883 166.321,-75.7642"/>
<polygon fill="midnightblue" stroke="midnightblue" points="388.322,-226.81 398.86,-225.715 389.939,-219.999 388.322,-226.81"/>
</g>
<!-- Node3&#45;&gt;Node6 -->
<g id="edge5" class="edge"><title>Node3&#45;&gt;Node6</title>
<path fill="none" stroke="midnightblue" d="M465.391,-220.503C489.2,-210.38 522.106,-196.388 542.971,-187.516"/>
<polygon fill="midnightblue" stroke="midnightblue" points="463.957,-217.31 456.124,-224.444 466.696,-223.751 463.957,-217.31"/>
</g>
<!-- Node3&#45;&gt;Node8 -->
<g id="edge14" class="edge"><title>Node3&#45;&gt;Node8</title>
<path fill="none" stroke="midnightblue" d="M437.531,-214.047C439.423,-180.291 439.621,-108.389 413,-56 405.221,-40.6919 390.111,-27.6979 379.117,-19.6667"/>
<polygon fill="midnightblue" stroke="midnightblue" points="434.02,-214.087 436.833,-224.301 441.004,-214.562 434.02,-214.087"/>
</g>
<!-- Node3&#45;&gt;Node9 -->
<g id="edge15" class="edge"><title>Node3&#45;&gt;Node9</title>
<path fill="none" stroke="midnightblue" d="M428.349,-214.856C413.335,-179.252 380.529,-101.453 369.613,-75.5681"/>
<polygon fill="midnightblue" stroke="midnightblue" points="425.126,-216.221 432.236,-224.075 431.576,-213.501 425.126,-216.221"/>
</g>
<!-- Node3&#45;&gt;Node10 -->
<g id="edge13" class="edge"><title>Node3&#45;&gt;Node10</title>
<path fill="none" stroke="midnightblue" d="M450.471,-216.414C462.759,-202.749 481.188,-183.215 499,-168 515.318,-154.061 535.872,-140.187 549.218,-131.607"/>
<polygon fill="midnightblue" stroke="midnightblue" points="447.694,-214.27 443.674,-224.073 452.929,-218.917 447.694,-214.27"/>
</g>
<!-- Node6&#45;&gt;Node7 -->
<g id="edge6" class="edge"><title>Node6&#45;&gt;Node7</title>
<path fill="none" stroke="midnightblue" d="M505.579,-166.664C448.884,-156.459 363.214,-141.039 310.313,-131.516"/>
<polygon fill="midnightblue" stroke="midnightblue" points="505.002,-170.117 515.464,-168.444 506.242,-163.227 505.002,-170.117"/>
</g>
<!-- Node6&#45;&gt;Node10 -->
<g id="edge12" class="edge"><title>Node6&#45;&gt;Node10</title>
<path fill="none" stroke="midnightblue" d="M563,-157.805C563,-148.91 563,-138.78 563,-131.751"/>
<polygon fill="midnightblue" stroke="midnightblue" points="559.5,-158.083 563,-168.083 566.5,-158.083 559.5,-158.083"/>
</g>
<!-- Node7&#45;&gt;Node5 -->
<g id="edge7" class="edge"><title>Node7&#45;&gt;Node5</title>
<path fill="none" stroke="midnightblue" d="M238.163,-107.453C219.886,-97.4835 195.584,-84.2279 179.867,-75.6545"/>
<polygon fill="midnightblue" stroke="midnightblue" points="236.639,-110.608 247.094,-112.324 239.991,-104.463 236.639,-110.608"/>
</g>
<!-- Node7&#45;&gt;Node7 -->
<g id="edge8" class="edge"><title>Node7&#45;&gt;Node7</title>
<path fill="none" stroke="midnightblue" d="M304.782,-132.393C322.453,-133.17 337.5,-129.706 337.5,-122 337.5,-112.867 316.364,-109.692 294.774,-112.475"/>
<polygon fill="midnightblue" stroke="midnightblue" points="305.039,-128.902 294.774,-131.525 304.435,-135.876 305.039,-128.902"/>
</g>
<!-- Node7&#45;&gt;Node8 -->
<g id="edge9" class="edge"><title>Node7&#45;&gt;Node8</title>
<path fill="none" stroke="midnightblue" d="M276.136,-104.429C286.975,-91.0163 302.964,-71.8219 318,-56 330.59,-42.752 346.193,-28.4859 356.124,-19.6493"/>
<polygon fill="midnightblue" stroke="midnightblue" points="273.339,-102.322 269.818,-112.315 278.802,-106.699 273.339,-102.322"/>
</g>
<!-- Node7&#45;&gt;Node9 -->
<g id="edge10" class="edge"><title>Node7&#45;&gt;Node9</title>
<path fill="none" stroke="midnightblue" d="M288.579,-107.59C307.623,-97.6052 333.064,-84.2672 349.492,-75.6545"/>
<polygon fill="midnightblue" stroke="midnightblue" points="286.78,-104.581 279.549,-112.324 290.031,-110.78 286.78,-104.581"/>
</g>
<!-- Node9&#45;&gt;Node8 -->
<g id="edge11" class="edge"><title>Node9&#45;&gt;Node8</title>
<path fill="none" stroke="midnightblue" d="M366,-45.8045C366,-36.9102 366,-26.7798 366,-19.7511"/>
<polygon fill="midnightblue" stroke="midnightblue" points="362.5,-46.083 366,-56.083 369.5,-46.083 362.5,-46.083"/>
</g>
<!-- Node14&#45;&gt;Node2 -->
<g id="edge24" class="edge"><title>Node14&#45;&gt;Node2</title>
<path fill="none" stroke="midnightblue" d="M379.065,-327.855C385.645,-318.505 393.511,-307.327 398.842,-299.751"/>
<polygon fill="midnightblue" stroke="midnightblue" points="376.168,-325.891 373.275,-336.083 381.892,-329.919 376.168,-325.891"/>
</g>
<!-- Node14&#45;&gt;Node15 -->
<g id="edge25" class="edge"><title>Node14&#45;&gt;Node15</title>
<path fill="none" stroke="midnightblue" d="M341.19,-331.726C321.747,-321.727 295.652,-308.307 278.828,-299.655"/>
<polygon fill="midnightblue" stroke="midnightblue" points="339.636,-334.863 350.13,-336.324 342.838,-328.638 339.636,-334.863"/>
</g>
<!-- Node16&#45;&gt;Node2 -->
<g id="edge28" class="edge"><title>Node16&#45;&gt;Node2</title>
<path fill="none" stroke="midnightblue" d="M272.121,-382.085C273.912,-367.809 278.476,-348.593 290,-336 307.368,-317.02 333.722,-305.946 356.822,-299.537"/>
<polygon fill="midnightblue" stroke="midnightblue" points="268.616,-381.979 271.198,-392.255 275.587,-382.612 268.616,-381.979"/>
</g>
<!-- Node16&#45;&gt;Node12 -->
<g id="edge30" class="edge"><title>Node16&#45;&gt;Node12</title>
<path fill="none" stroke="midnightblue" d="M256.138,-384.765C238.575,-365.267 208.854,-331.268 186,-300 171.829,-280.611 157.316,-256.353 149.948,-243.658"/>
<polygon fill="midnightblue" stroke="midnightblue" points="253.764,-387.358 263.074,-392.413 258.949,-382.655 253.764,-387.358"/>
</g>
<!-- Node16&#45;&gt;Node14 -->
<g id="edge27" class="edge"><title>Node16&#45;&gt;Node14</title>
<path fill="none" stroke="midnightblue" d="M295.574,-387.177C313.239,-377.241 336.513,-364.149 351.614,-355.655"/>
<polygon fill="midnightblue" stroke="midnightblue" points="293.424,-384.371 286.424,-392.324 296.856,-390.472 293.424,-384.371"/>
</g>
<!-- Node16&#45;&gt;Node15 -->
<g id="edge29" class="edge"><title>Node16&#45;&gt;Node15</title>
<path fill="none" stroke="midnightblue" d="M263.945,-382.74C261.19,-374.675 258.368,-364.999 257,-356 253.973,-336.083 257.573,-312.438 260.047,-299.879"/>
<polygon fill="midnightblue" stroke="midnightblue" points="260.688,-384.024 267.4,-392.222 267.265,-381.628 260.688,-384.024"/>
</g>
<!-- Node17&#45;&gt;Node2 -->
<g id="edge32" class="edge"><title>Node17&#45;&gt;Node2</title>
<path fill="none" stroke="midnightblue" d="M656.838,-334.727C598.068,-324.523 509.002,-309.058 454.048,-299.516"/>
<polygon fill="midnightblue" stroke="midnightblue" points="656.27,-338.181 666.721,-336.444 657.467,-331.284 656.27,-338.181"/>
</g>
<!-- Node17&#45;&gt;Node11 -->
<g id="edge33" class="edge"><title>Node17&#45;&gt;Node11</title>
<path fill="none" stroke="midnightblue" d="M731.651,-329.205C755.015,-305.627 798.216,-262.029 816.487,-243.591"/>
<polygon fill="midnightblue" stroke="midnightblue" points="729.106,-326.802 724.553,-336.368 734.078,-331.729 729.106,-326.802"/>
</g>
<!-- Node17&#45;&gt;Node13 -->
<g id="edge34" class="edge"><title>Node17&#45;&gt;Node13</title>
<path fill="none" stroke="midnightblue" d="M709.503,-326.674C700.976,-302.625 686.356,-261.388 680.046,-243.591"/>
<polygon fill="midnightblue" stroke="midnightblue" points="706.299,-328.113 712.94,-336.368 712.897,-325.774 706.299,-328.113"/>
</g>
</g>
</svg>
        <g id="navigator" transform="translate(0 0)" fill="#404254">
                <rect fill="#f2f5e9" fill-opacity="0.5" stroke="#606060" stroke-width=".5" x="0" y="0" width="60" height="60"/>
                <use id="zoomplus" xlink:href="#zoomPlus" x="17" y="9" onmousedown="handleZoom(evt,'in')"/>
                <use id="zoomminus" xlink:href="#zoomMin" x="42" y="9" onmousedown="handleZoom(evt,'out')"/>
                <use id="reset" xlink:href="#resetDef" x="30" y="36" onmousedown="handleReset()"/>
                <g id="arrowUp" xlink:href="#dirArrow" transform="translate(30 24)" onmousedown="handlePan(0,-1)">
                  <use xlink:href="#rim" fill="#404040">
                        <set attributeName="fill" to="#808080" begin="arrowUp.mouseover" end="arrowUp.mouseout"/>
                  </use>
                  <path fill="none" stroke="white" stroke-width="1.5" d="M0,-3.0v7 M-2.5,-0.5L0,-3.0L2.5,-0.5"/>
                </g>
                <g id="arrowRight" xlink:href="#dirArrow" transform="rotate(90) translate(36 -43)" onmousedown="handlePan(1,0)">
                  <use xlink:href="#rim" fill="#404040">
                        <set attributeName="fill" to="#808080" begin="arrowRight.mouseover" end="arrowRight.mouseout"/>
                  </use>
                  <path fill="none" stroke="white" stroke-width="1.5" d="M0,-3.0v7 M-2.5,-0.5L0,-3.0L2.5,-0.5"/>
                </g>
                <g id="arrowDown" xlink:href="#dirArrow" transform="rotate(180) translate(-30 -48)" onmousedown="handlePan(0,1)">
                  <use xlink:href="#rim" fill="#404040">
                        <set attributeName="fill" to="#808080" begin="arrowDown.mouseover" end="arrowDown.mouseout"/>
                  </use>
                  <path fill="none" stroke="white" stroke-width="1.5" d="M0,-3.0v7 M-2.5,-0.5L0,-3.0L2.5,-0.5"/>
                </g>
                <g id="arrowLeft" xlink:href="#dirArrow" transform="rotate(270) translate(-36 17)" onmousedown="handlePan(-1,0)">
                  <use xlink:href="#rim" fill="#404040">
                        <set attributeName="fill" to="#808080" begin="arrowLeft.mouseover" end="arrowLeft.mouseout"/>
                  </use>
                  <path fill="none" stroke="white" stroke-width="1.5" d="M0,-3.0v7 M-2.5,-0.5L0,-3.0L2.5,-0.5"/>
                </g>
        </g>
        <svg viewBox="0 0 15 15" width="100%" height="30px" preserveAspectRatio="xMaxYMin meet">
         <g id="arrow_out" transform="scale(0.3 0.3)">
          <a xlink:href="io__response_8hpp__dep__incl_org.svg" target="_base">
           <rect id="button" ry="5" rx="5" y="6" x="6" height="38" width="38"
                fill="#f2f5e9" fill-opacity="0.5" stroke="#606060" stroke-width="1.0"/>
           <path id="arrow"
             d="M 11.500037,31.436501 C 11.940474,20.09759 22.043105,11.32322 32.158766,21.979434 L 37.068811,17.246167 C 37.068811,17.246167 37.088388,32 37.088388,32 L 22.160133,31.978069 C 22.160133,31.978069 26.997745,27.140456 26.997745,27.140456 C 18.528582,18.264221 13.291696,25.230495 11.500037,31.436501 z"
             style="fill:#404040;"/>
          </a>
         </g>
        </svg>
</svg>
