<?xml version="1.0" encoding="UTF-8" standalone="no"?>
<!DOCTYPE svg PUBLIC "-//W3C//DTD SVG 1.1//EN"
 "http://www.w3.org/Graphics/SVG/1.1/DTD/svg11.dtd">
<!-- Generated by graphviz version 2.38.0 (20140413.2041)
 -->
<!-- Title: src/io/io_response.hpp Pages: 1 -->
<svg width="371pt" height="140pt"
 viewBox="0.00 0.00 371.00 140.00" xmlns="http://www.w3.org/2000/svg" xmlns:xlink="http://www.w3.org/1999/xlink">
<g id="graph0" class="graph" transform="scale(1 1) rotate(0) translate(4 136)">
<title>src/io/io_response.hpp</title>
<polygon fill="white" stroke="none" points="-4,4 -4,-136 367,-136 367,4 -4,4"/>
<!-- Node1 -->
<g id="node1" class="node"><title>Node1</title>
<polygon fill="#bfbfbf" stroke="black" points="92,-112.5 92,-131.5 216,-131.5 216,-112.5 92,-112.5"/>
<text text-anchor="middle" x="154" y="-119.5" font-family="Helvetica,sans-Serif" font-size="10.00">src/io/io_response.hpp</text>
</g>
<!-- Node2 -->
<g id="node2" class="node"><title>Node2</title>
<polygon fill="white" stroke="#bfbfbf" points="0,-56.5 0,-75.5 38,-75.5 38,-56.5 0,-56.5"/>
<text text-anchor="middle" x="19" y="-63.5" font-family="Helvetica,sans-Serif" font-size="10.00">map</text>
</g>
<!-- Node1&#45;&gt;Node2 -->
<g id="edge1" class="edge"><title>Node1&#45;&gt;Node2</title>
<path fill="none" stroke="midnightblue" d="M132.609,-112.444C109.636,-103.255 73.0153,-88.6061 47.5855,-78.4342"/>
<polygon fill="midnightblue" stroke="midnightblue" points="48.693,-75.1076 38.1083,-74.6433 46.0932,-81.607 48.693,-75.1076"/>
</g>
<!-- Node3 -->
<g id="node3" class="node"><title>Node3</title>
<polygon fill="white" stroke="#bfbfbf" points="56.5,-56.5 56.5,-75.5 113.5,-75.5 113.5,-56.5 56.5,-56.5"/>
<text text-anchor="middle" x="85" y="-63.5" font-family="Helvetica,sans-Serif" font-size="10.00">ostream</text>
</g>
<!-- Node1&#45;&gt;Node3 -->
<g id="edge2" class="edge"><title>Node1&#45;&gt;Node3</title>
<path fill="none" stroke="midnightblue" d="M142.914,-112.324C132.514,-104.185 116.739,-91.8395 104.278,-82.0874"/>
<polygon fill="midnightblue" stroke="midnightblue" points="106.32,-79.2407 96.2878,-75.8339 102.006,-84.7533 106.32,-79.2407"/>
</g>
<!-- Node4 -->
<g id="node4" class="node"><title>Node4</title>
<polygon fill="white" stroke="#bfbfbf" points="132,-56.5 132,-75.5 176,-75.5 176,-56.5 132,-56.5"/>
<text text-anchor="middle" x="154" y="-63.5" font-family="Helvetica,sans-Serif" font-size="10.00">string</text>
</g>
<!-- Node1&#45;&gt;Node4 -->
<g id="edge3" class="edge"><title>Node1&#45;&gt;Node4</title>
<path fill="none" stroke="midnightblue" d="M154,-112.083C154,-105.006 154,-94.8611 154,-85.9865"/>
<polygon fill="midnightblue" stroke="midnightblue" points="157.5,-85.751 154,-75.7511 150.5,-85.7511 157.5,-85.751"/>
</g>
<!-- Node5 -->
<g id="node5" class="node"><title>Node5</title>
<polygon fill="white" stroke="#bfbfbf" points="194.5,-56.5 194.5,-75.5 241.5,-75.5 241.5,-56.5 194.5,-56.5"/>
<text text-anchor="middle" x="218" y="-63.5" font-family="Helvetica,sans-Serif" font-size="10.00">vector</text>
</g>
<!-- Node1&#45;&gt;Node5 -->
<g id="edge4" class="edge"><title>Node1&#45;&gt;Node5</title>
<path fill="none" stroke="midnightblue" d="M164.283,-112.324C173.836,-104.263 188.28,-92.0765 199.784,-82.3695"/>
<polygon fill="midnightblue" stroke="midnightblue" points="202.144,-84.9577 207.53,-75.8339 197.63,-79.6076 202.144,-84.9577"/>
</g>
<!-- Node6 -->
<g id="node6" class="node"><title>Node6</title>
<g id="a_node6"><a xlink:href="errors_8hpp.html" target="_top" xlink:title="Declarations of the playd Error exception set. ">
<polygon fill="white" stroke="black" points="259.5,-56.5 259.5,-75.5 334.5,-75.5 334.5,-56.5 259.5,-56.5"/>
<text text-anchor="middle" x="297" y="-63.5" font-family="Helvetica,sans-Serif" font-size="10.00">../errors.hpp</text>
</a>
</g>
</g>
<!-- Node1&#45;&gt;Node6 -->
<g id="edge5" class="edge"><title>Node1&#45;&gt;Node6</title>
<path fill="none" stroke="midnightblue" d="M176.659,-112.444C200.402,-103.478 237.909,-89.314 264.738,-79.1827"/>
<polygon fill="midnightblue" stroke="midnightblue" points="266.329,-82.3235 274.447,-75.5164 263.856,-75.7749 266.329,-82.3235"/>
</g>
<!-- Node7 -->
<g id="node7" class="node"><title>Node7</title>
<polygon fill="white" stroke="#bfbfbf" points="229.5,-0.5 229.5,-19.5 288.5,-19.5 288.5,-0.5 229.5,-0.5"/>
<text text-anchor="middle" x="259" y="-7.5" font-family="Helvetica,sans-Serif" font-size="10.00">iostream</text>
</g>
<!-- Node6&#45;&gt;Node7 -->
<g id="edge6" class="edge"><title>Node6&#45;&gt;Node7</title>
<path fill="none" stroke="midnightblue" d="M290.725,-56.083C285.358,-48.4554 277.482,-37.2645 270.921,-27.9408"/>
<polygon fill="midnightblue" stroke="midnightblue" points="273.775,-25.9149 265.158,-19.7511 268.051,-29.9434 273.775,-25.9149"/>
</g>
<!-- Node8 -->
<g id="node8" class="node"><title>Node8</title>
<polygon fill="white" stroke="#bfbfbf" points="307,-0.5 307,-19.5 363,-19.5 363,-0.5 307,-0.5"/>
<text text-anchor="middle" x="335" y="-7.5" font-family="Helvetica,sans-Serif" font-size="10.00">sstream</text>
</g>
<!-- Node6&#45;&gt;Node8 -->
<g id="edge7" class="edge"><title>Node6&#45;&gt;Node8</title>
<path fill="none" stroke="midnightblue" d="M303.275,-56.083C308.642,-48.4554 316.518,-37.2645 323.079,-27.9408"/>
<polygon fill="midnightblue" stroke="midnightblue" points="325.949,-29.9434 328.842,-19.7511 320.225,-25.9149 325.949,-29.9434"/>
</g>
</g>
</svg>
