<?xml version="1.0" encoding="UTF-8" standalone="no"?>
<!DOCTYPE svg PUBLIC "-//W3C//DTD SVG 1.1//EN"
 "http://www.w3.org/Graphics/SVG/1.1/DTD/svg11.dtd">
<!-- Generated by graphviz version 2.36.0 (20140111.2315)
 -->
<!-- Title: src/main.cpp Pages: 1 -->
<svg width="1395pt" height="432pt"
 viewBox="0.00 0.00 1395.00 432.00" xmlns="http://www.w3.org/2000/svg" xmlns:xlink="http://www.w3.org/1999/xlink">
<g id="graph0" class="graph" transform="scale(1 1) rotate(0) translate(4 428)">
<title>src/main.cpp</title>
<polygon fill="white" stroke="none" points="-4,4 -4,-428 1391,-428 1391,4 -4,4"/>
<!-- Node0 -->
<g id="node1" class="node"><title>Node0</title>
<polygon fill="#bfbfbf" stroke="black" points="967,-404.5 967,-423.5 1045,-423.5 1045,-404.5 967,-404.5"/>
<text text-anchor="middle" x="1006" y="-411.5" font-family="Helvetica,sans-Serif" font-size="10.00">src/main.cpp</text>
</g>
<!-- Node1 -->
<g id="node2" class="node"><title>Node1</title>
<polygon fill="white" stroke="#bfbfbf" points="0,-348.5 0,-367.5 62,-367.5 62,-348.5 0,-348.5"/>
<text text-anchor="middle" x="31" y="-355.5" font-family="Helvetica,sans-Serif" font-size="10.00">algorithm</text>
</g>
<!-- Node0&#45;&gt;Node1 -->
<g id="edge1" class="edge"><title>Node0&#45;&gt;Node1</title>
<path fill="none" stroke="midnightblue" d="M966.839,-413.187C838.527,-413.357 419.317,-410.398 76,-368 74.893,-367.863 73.7725,-367.715 72.6433,-367.556"/>
<polygon fill="midnightblue" stroke="midnightblue" points="72.8047,-364.036 62.3742,-365.895 71.6872,-370.947 72.8047,-364.036"/>
</g>
<!-- Node2 -->
<g id="node3" class="node"><title>Node2</title>
<polygon fill="white" stroke="#bfbfbf" points="313.5,-0.5 313.5,-19.5 362.5,-19.5 362.5,-0.5 313.5,-0.5"/>
<text text-anchor="middle" x="338" y="-7.5" font-family="Helvetica,sans-Serif" font-size="10.00">cstdint</text>
</g>
<!-- Node0&#45;&gt;Node2 -->
<g id="edge2" class="edge"><title>Node0&#45;&gt;Node2</title>
<path fill="none" stroke="midnightblue" d="M966.934,-412.483C792.095,-409.661 90,-392.745 90,-303 90,-303 90,-303 90,-127 90,-34.055 234.69,-15.4197 303.035,-11.8017"/>
<polygon fill="midnightblue" stroke="midnightblue" points="303.481,-15.2853 313.314,-11.3409 303.167,-8.2923 303.481,-15.2853"/>
</g>
<!-- Node3 -->
<g id="node4" class="node"><title>Node3</title>
<polygon fill="white" stroke="#bfbfbf" points="1177.5,-0.5 1177.5,-19.5 1236.5,-19.5 1236.5,-0.5 1177.5,-0.5"/>
<text text-anchor="middle" x="1207" y="-7.5" font-family="Helvetica,sans-Serif" font-size="10.00">iostream</text>
</g>
<!-- Node0&#45;&gt;Node3 -->
<g id="edge3" class="edge"><title>Node0&#45;&gt;Node3</title>
<path fill="none" stroke="midnightblue" d="M1045.2,-407.615C1129,-395.005 1318,-360.219 1318,-303 1318,-303 1318,-303 1318,-127 1318,-78.7982 1267.35,-42.7858 1234.48,-24.4897"/>
<polygon fill="midnightblue" stroke="midnightblue" points="1235.8,-21.2263 1225.33,-19.5947 1232.5,-27.3984 1235.8,-21.2263"/>
</g>
<!-- Node4 -->
<g id="node5" class="node"><title>Node4</title>
<polygon fill="white" stroke="#bfbfbf" points="1346.5,-348.5 1346.5,-367.5 1387.5,-367.5 1387.5,-348.5 1346.5,-348.5"/>
<text text-anchor="middle" x="1367" y="-355.5" font-family="Helvetica,sans-Serif" font-size="10.00">tuple</text>
</g>
<!-- Node0&#45;&gt;Node4 -->
<g id="edge4" class="edge"><title>Node0&#45;&gt;Node4</title>
<path fill="none" stroke="midnightblue" d="M1045.13,-409.064C1106.57,-402.555 1229.27,-388.228 1332,-368 1333.46,-367.712 1334.95,-367.4 1336.46,-367.071"/>
<polygon fill="midnightblue" stroke="midnightblue" points="1337.44,-370.436 1346.36,-364.725 1335.82,-363.624 1337.44,-370.436"/>
</g>
<!-- Node5 -->
<g id="node6" class="node"><title>Node5</title>
<g id="a_node6"><a xlink:href="io_8hpp.html" target="_top" xlink:title="Declaration of the I/O classes used in playd. ">
<polygon fill="white" stroke="black" points="1021,-348.5 1021,-367.5 1067,-367.5 1067,-348.5 1021,-348.5"/>
<text text-anchor="middle" x="1044" y="-355.5" font-family="Helvetica,sans-Serif" font-size="10.00">io.hpp</text>
</a>
</g>
</g>
<!-- Node0&#45;&gt;Node5 -->
<g id="edge5" class="edge"><title>Node0&#45;&gt;Node5</title>
<path fill="none" stroke="midnightblue" d="M1012.27,-404.083C1017.64,-396.455 1025.52,-385.264 1032.08,-375.941"/>
<polygon fill="midnightblue" stroke="midnightblue" points="1034.95,-377.943 1037.84,-367.751 1029.22,-373.915 1034.95,-377.943"/>
</g>
<!-- Node9 -->
<g id="node10" class="node"><title>Node9</title>
<g id="a_node10"><a xlink:href="player_8hpp.html" target="_top" xlink:title="Declaration of the Player class, and associated types. ">
<polygon fill="white" stroke="black" points="761,-292.5 761,-311.5 827,-311.5 827,-292.5 761,-292.5"/>
<text text-anchor="middle" x="794" y="-299.5" font-family="Helvetica,sans-Serif" font-size="10.00">player.hpp</text>
</a>
</g>
</g>
<!-- Node0&#45;&gt;Node9 -->
<g id="edge60" class="edge"><title>Node0&#45;&gt;Node9</title>
<path fill="none" stroke="midnightblue" d="M989.365,-404.368C952.444,-385.211 863.45,-339.036 819.473,-316.217"/>
<polygon fill="midnightblue" stroke="midnightblue" points="821.046,-313.09 810.558,-311.591 817.822,-319.304 821.046,-313.09"/>
</g>
<!-- Node20 -->
<g id="node21" class="node"><title>Node20</title>
<g id="a_node21"><a xlink:href="response_8hpp.html" target="_top" xlink:title="Declaration of classes pertaining to responses to the client. ">
<polygon fill="white" stroke="black" points="974.5,-118.5 974.5,-137.5 1065.5,-137.5 1065.5,-118.5 974.5,-118.5"/>
<text text-anchor="middle" x="1020" y="-125.5" font-family="Helvetica,sans-Serif" font-size="10.00">../response.hpp</text>
</a>
</g>
</g>
<!-- Node0&#45;&gt;Node20 -->
<g id="edge59" class="edge"><title>Node0&#45;&gt;Node20</title>
<path fill="none" stroke="midnightblue" d="M1000.72,-404.231C990.275,-386.043 968,-342.601 968,-303 968,-303 968,-303 968,-245 968,-206.957 991.576,-167.553 1006.98,-145.869"/>
<polygon fill="midnightblue" stroke="midnightblue" points="1009.87,-147.843 1012.99,-137.716 1004.24,-143.69 1009.87,-147.843"/>
</g>
<!-- Node28 -->
<g id="node29" class="node"><title>Node28</title>
<g id="a_node29"><a xlink:href="messages_8h.html" target="_top" xlink:title="Constant human&#45;readable messages used within playd. ">
<polygon fill="white" stroke="black" points="1214.5,-292.5 1214.5,-311.5 1289.5,-311.5 1289.5,-292.5 1214.5,-292.5"/>
<text text-anchor="middle" x="1252" y="-299.5" font-family="Helvetica,sans-Serif" font-size="10.00">messages.h</text>
</a>
</g>
</g>
<!-- Node0&#45;&gt;Node28 -->
<g id="edge61" class="edge"><title>Node0&#45;&gt;Node28</title>
<path fill="none" stroke="midnightblue" d="M1025.3,-404.368C1068.42,-385.091 1172.71,-338.454 1223.4,-315.789"/>
<polygon fill="midnightblue" stroke="midnightblue" points="1225.09,-318.869 1232.79,-311.591 1222.23,-312.478 1225.09,-318.869"/>
</g>
<!-- Node6 -->
<g id="node7" class="node"><title>Node6</title>
<polygon fill="white" stroke="#bfbfbf" points="1142.5,-56.5 1142.5,-75.5 1199.5,-75.5 1199.5,-56.5 1142.5,-56.5"/>
<text text-anchor="middle" x="1171" y="-63.5" font-family="Helvetica,sans-Serif" font-size="10.00">ostream</text>
</g>
<!-- Node5&#45;&gt;Node6 -->
<g id="edge6" class="edge"><title>Node5&#45;&gt;Node6</title>
<path fill="none" stroke="midnightblue" d="M1067.37,-354.733C1095.01,-350.808 1140.59,-340.225 1167,-312 1187.56,-290.024 1186,-277.098 1186,-247 1186,-247 1186,-247 1186,-189 1186,-152.138 1179.17,-109.477 1174.73,-85.6249"/>
<polygon fill="midnightblue" stroke="midnightblue" points="1178.11,-84.6893 1172.78,-75.5345 1171.24,-86.0168 1178.11,-84.6893"/>
</g>
<!-- Node7 -->
<g id="node8" class="node"><title>Node7</title>
<polygon fill="white" stroke="#bfbfbf" points="1072,-292.5 1072,-311.5 1104,-311.5 1104,-292.5 1072,-292.5"/>
<text text-anchor="middle" x="1088" y="-299.5" font-family="Helvetica,sans-Serif" font-size="10.00">set</text>
</g>
<!-- Node5&#45;&gt;Node7 -->
<g id="edge7" class="edge"><title>Node5&#45;&gt;Node7</title>
<path fill="none" stroke="midnightblue" d="M1051.27,-348.083C1057.54,-340.377 1066.79,-329.033 1074.43,-319.653"/>
<polygon fill="midnightblue" stroke="midnightblue" points="1077.27,-321.714 1080.87,-311.751 1071.84,-317.293 1077.27,-321.714"/>
</g>
<!-- Node8 -->
<g id="node9" class="node"><title>Node8</title>
<polygon fill="white" stroke="#bfbfbf" points="1122,-292.5 1122,-311.5 1158,-311.5 1158,-292.5 1122,-292.5"/>
<text text-anchor="middle" x="1140" y="-299.5" font-family="Helvetica,sans-Serif" font-size="10.00">uv.h</text>
</g>
<!-- Node5&#45;&gt;Node8 -->
<g id="edge8" class="edge"><title>Node5&#45;&gt;Node8</title>
<path fill="none" stroke="midnightblue" d="M1059.42,-348.324C1074.54,-339.822 1097.82,-326.729 1115.47,-316.797"/>
<polygon fill="midnightblue" stroke="midnightblue" points="1117.61,-319.608 1124.61,-311.655 1114.18,-313.507 1117.61,-319.608"/>
</g>
<!-- Node5&#45;&gt;Node9 -->
<g id="edge9" class="edge"><title>Node5&#45;&gt;Node9</title>
<path fill="none" stroke="midnightblue" d="M1020.93,-352.017C979.139,-342.99 890.319,-323.805 837.035,-312.296"/>
<polygon fill="midnightblue" stroke="midnightblue" points="837.712,-308.861 827.198,-310.171 836.234,-315.703 837.712,-308.861"/>
</g>
<!-- Node5&#45;&gt;Node20 -->
<g id="edge56" class="edge"><title>Node5&#45;&gt;Node20</title>
<path fill="none" stroke="midnightblue" d="M1044.55,-348.08C1045.8,-334.618 1049.86,-308.891 1063,-292 1082.33,-267.15 1108.39,-283.338 1124,-256 1128.41,-248.281 1127.34,-244.236 1124,-236 1107.44,-195.204 1067.03,-161.415 1041.73,-143.31"/>
<polygon fill="midnightblue" stroke="midnightblue" points="1043.69,-140.408 1033.48,-137.575 1039.7,-146.156 1043.69,-140.408"/>
</g>
<!-- Node27 -->
<g id="node28" class="node"><title>Node27</title>
<g id="a_node28"><a xlink:href="tokeniser_8hpp.html" target="_top" xlink:title="Declaration of the Tokeniser class. ">
<polygon fill="white" stroke="black" points="1034.5,-236.5 1034.5,-255.5 1115.5,-255.5 1115.5,-236.5 1034.5,-236.5"/>
<text text-anchor="middle" x="1075" y="-243.5" font-family="Helvetica,sans-Serif" font-size="10.00">tokeniser.hpp</text>
</a>
</g>
</g>
<!-- Node5&#45;&gt;Node27 -->
<g id="edge57" class="edge"><title>Node5&#45;&gt;Node27</title>
<path fill="none" stroke="midnightblue" d="M1038.93,-348.291C1032.2,-335.533 1022.05,-311.197 1030,-292 1034.92,-280.121 1044.67,-269.743 1053.83,-261.956"/>
<polygon fill="midnightblue" stroke="midnightblue" points="1056.25,-264.506 1061.94,-255.564 1051.92,-259.01 1056.25,-264.506"/>
</g>
<!-- Node9&#45;&gt;Node2 -->
<g id="edge10" class="edge"><title>Node9&#45;&gt;Node2</title>
<path fill="none" stroke="midnightblue" d="M760.971,-299.45C671.336,-294.962 425.082,-280.679 348,-256 300.224,-240.704 284.822,-236.111 250,-200 201.258,-149.455 142.933,-112.222 185,-56 199.191,-37.034 262.762,-23.318 303.364,-16.3068"/>
<polygon fill="midnightblue" stroke="midnightblue" points="304.112,-19.7305 313.398,-14.6292 302.957,-12.8264 304.112,-19.7305"/>
</g>
<!-- Node10 -->
<g id="node11" class="node"><title>Node10</title>
<polygon fill="white" stroke="#bfbfbf" points="762.5,-236.5 762.5,-255.5 825.5,-255.5 825.5,-236.5 762.5,-236.5"/>
<text text-anchor="middle" x="794" y="-243.5" font-family="Helvetica,sans-Serif" font-size="10.00">functional</text>
</g>
<!-- Node9&#45;&gt;Node10 -->
<g id="edge11" class="edge"><title>Node9&#45;&gt;Node10</title>
<path fill="none" stroke="midnightblue" d="M794,-292.083C794,-285.006 794,-274.861 794,-265.986"/>
<polygon fill="midnightblue" stroke="midnightblue" points="797.5,-265.751 794,-255.751 790.5,-265.751 797.5,-265.751"/>
</g>
<!-- Node11 -->
<g id="node12" class="node"><title>Node11</title>
<polygon fill="white" stroke="#bfbfbf" points="1078,-56.5 1078,-75.5 1116,-75.5 1116,-56.5 1078,-56.5"/>
<text text-anchor="middle" x="1097" y="-63.5" font-family="Helvetica,sans-Serif" font-size="10.00">map</text>
</g>
<!-- Node9&#45;&gt;Node11 -->
<g id="edge12" class="edge"><title>Node9&#45;&gt;Node11</title>
<path fill="none" stroke="midnightblue" d="M827.168,-293.282C855.298,-285.968 896.189,-273.489 929,-256 1000.86,-217.697 1027.91,-211.13 1074,-144 1086.06,-126.431 1091.92,-102.414 1094.68,-85.8992"/>
<polygon fill="midnightblue" stroke="midnightblue" points="1098.17,-86.2335 1096.14,-75.8355 1091.24,-85.2314 1098.17,-86.2335"/>
</g>
<!-- Node12 -->
<g id="node13" class="node"><title>Node12</title>
<polygon fill="white" stroke="#bfbfbf" points="461.5,-56.5 461.5,-75.5 518.5,-75.5 518.5,-56.5 461.5,-56.5"/>
<text text-anchor="middle" x="490" y="-63.5" font-family="Helvetica,sans-Serif" font-size="10.00">memory</text>
</g>
<!-- Node9&#45;&gt;Node12 -->
<g id="edge13" class="edge"><title>Node9&#45;&gt;Node12</title>
<path fill="none" stroke="midnightblue" d="M760.825,-299.969C658.38,-295.972 350.815,-277.589 299,-200 277.279,-167.475 274.722,-142.663 299,-112 317.608,-88.4983 400.892,-76.0429 451.138,-70.5527"/>
<polygon fill="midnightblue" stroke="midnightblue" points="451.742,-74.0086 461.323,-69.4854 451.013,-67.0467 451.742,-74.0086"/>
</g>
<!-- Node13 -->
<g id="node14" class="node"><title>Node13</title>
<polygon fill="white" stroke="#bfbfbf" points="841,-56.5 841,-75.5 885,-75.5 885,-56.5 841,-56.5"/>
<text text-anchor="middle" x="863" y="-63.5" font-family="Helvetica,sans-Serif" font-size="10.00">string</text>
</g>
<!-- Node9&#45;&gt;Node13 -->
<g id="edge14" class="edge"><title>Node9&#45;&gt;Node13</title>
<path fill="none" stroke="midnightblue" d="M808.229,-292.414C821.157,-284.156 840.253,-270.777 854,-256 894.307,-212.674 909.324,-200.778 926,-144 930.008,-130.354 932.508,-124.646 926,-112 918.923,-98.2475 905.479,-87.7663 892.822,-80.3942"/>
<polygon fill="midnightblue" stroke="midnightblue" points="894.313,-77.2221 883.847,-75.5733 891.001,-83.3888 894.313,-77.2221"/>
</g>
<!-- Node14 -->
<g id="node15" class="node"><title>Node14</title>
<polygon fill="white" stroke="#bfbfbf" points="876,-118.5 876,-137.5 918,-137.5 918,-118.5 876,-118.5"/>
<text text-anchor="middle" x="897" y="-125.5" font-family="Helvetica,sans-Serif" font-size="10.00">utility</text>
</g>
<!-- Node9&#45;&gt;Node14 -->
<g id="edge15" class="edge"><title>Node9&#45;&gt;Node14</title>
<path fill="none" stroke="midnightblue" d="M803.036,-292.284C811.691,-283.623 824.763,-269.69 834,-256 858.452,-219.76 879.302,-172.669 889.776,-147.232"/>
<polygon fill="midnightblue" stroke="midnightblue" points="893.106,-148.334 893.611,-137.751 886.617,-145.709 893.106,-148.334"/>
</g>
<!-- Node15 -->
<g id="node16" class="node"><title>Node15</title>
<polygon fill="white" stroke="#bfbfbf" points="628.5,-56.5 628.5,-75.5 675.5,-75.5 675.5,-56.5 628.5,-56.5"/>
<text text-anchor="middle" x="652" y="-63.5" font-family="Helvetica,sans-Serif" font-size="10.00">vector</text>
</g>
<!-- Node9&#45;&gt;Node15 -->
<g id="edge16" class="edge"><title>Node9&#45;&gt;Node15</title>
<path fill="none" stroke="midnightblue" d="M762.109,-292.479C722.453,-279.876 657.052,-251.951 633,-200 615.265,-161.694 632.101,-111.079 643.492,-84.7032"/>
<polygon fill="midnightblue" stroke="midnightblue" points="646.693,-86.118 647.646,-75.5661 640.321,-83.2204 646.693,-86.118"/>
</g>
<!-- Node16 -->
<g id="node17" class="node"><title>Node16</title>
<g id="a_node17"><a xlink:href="audio__sink_8hpp.html" target="_top" xlink:title="Declaration of the AudioSink class. ">
<polygon fill="white" stroke="black" points="443.5,-236.5 443.5,-255.5 560.5,-255.5 560.5,-236.5 443.5,-236.5"/>
<text text-anchor="middle" x="502" y="-243.5" font-family="Helvetica,sans-Serif" font-size="10.00">audio/audio_sink.hpp</text>
</a>
</g>
</g>
<!-- Node9&#45;&gt;Node16 -->
<g id="edge17" class="edge"><title>Node9&#45;&gt;Node16</title>
<path fill="none" stroke="midnightblue" d="M760.788,-294.858C711.473,-285.738 618.262,-268.5 558.2,-257.393"/>
<polygon fill="midnightblue" stroke="midnightblue" points="558.594,-253.907 548.124,-255.53 557.321,-260.79 558.594,-253.907"/>
</g>
<!-- Node19 -->
<g id="node20" class="node"><title>Node19</title>
<g id="a_node20"><a xlink:href="audio_8hpp.html" target="_top" xlink:title="Declaration of the Audio class. ">
<polygon fill="white" stroke="black" points="642,-180.5 642,-199.5 706,-199.5 706,-180.5 642,-180.5"/>
<text text-anchor="middle" x="674" y="-187.5" font-family="Helvetica,sans-Serif" font-size="10.00">audio.hpp</text>
</a>
</g>
</g>
<!-- Node9&#45;&gt;Node19 -->
<g id="edge54" class="edge"><title>Node9&#45;&gt;Node19</title>
<path fill="none" stroke="midnightblue" d="M775.559,-292.473C759.667,-284.531 736.713,-271.59 720,-256 705.051,-242.055 692.023,-222.532 683.686,-208.529"/>
<polygon fill="midnightblue" stroke="midnightblue" points="686.716,-206.776 678.697,-199.852 680.647,-210.265 686.716,-206.776"/>
</g>
<!-- Node9&#45;&gt;Node20 -->
<g id="edge55" class="edge"><title>Node9&#45;&gt;Node20</title>
<path fill="none" stroke="midnightblue" d="M827.25,-293.51C851.181,-286.812 883.141,-275.05 906,-256 936.69,-230.424 927.118,-209.553 954,-180 966.949,-165.765 984.239,-152.566 997.874,-143.163"/>
<polygon fill="midnightblue" stroke="midnightblue" points="999.871,-146.038 1006.22,-137.56 995.97,-140.226 999.871,-146.038"/>
</g>
<!-- Node23 -->
<g id="node24" class="node"><title>Node23</title>
<g id="a_node24"><a xlink:href="audio__source_8hpp.html" target="_top" xlink:title="Declaration of the AudioSource class. ">
<polygon fill="white" stroke="black" points="680.5,-118.5 680.5,-137.5 781.5,-137.5 781.5,-118.5 680.5,-118.5"/>
<text text-anchor="middle" x="731" y="-125.5" font-family="Helvetica,sans-Serif" font-size="10.00">audio_source.hpp</text>
</a>
</g>
</g>
<!-- Node9&#45;&gt;Node23 -->
<g id="edge53" class="edge"><title>Node9&#45;&gt;Node23</title>
<path fill="none" stroke="midnightblue" d="M783.068,-292.223C773.539,-283.934 760.156,-270.619 753,-256 735.595,-220.445 731.74,-173.383 731.018,-147.696"/>
<polygon fill="midnightblue" stroke="midnightblue" points="734.515,-147.464 730.87,-137.516 727.516,-147.566 734.515,-147.464"/>
</g>
<!-- Node16&#45;&gt;Node2 -->
<g id="edge19" class="edge"><title>Node16&#45;&gt;Node2</title>
<path fill="none" stroke="midnightblue" d="M443.378,-240.043C389.993,-234.169 316.85,-222.24 299,-200 274.519,-169.498 289.596,-149.964 299,-112 303.35,-94.439 311.087,-92.7189 318,-76 324.344,-60.6564 329.753,-42.5562 333.34,-29.3577"/>
<polygon fill="midnightblue" stroke="midnightblue" points="336.75,-30.1531 335.906,-19.592 329.98,-28.3747 336.75,-30.1531"/>
</g>
<!-- Node16&#45;&gt;Node12 -->
<g id="edge20" class="edge"><title>Node16&#45;&gt;Node12</title>
<path fill="none" stroke="midnightblue" d="M500.17,-236.408C496.578,-219.049 488.717,-178.512 486,-144 484.884,-129.822 485.37,-126.208 486,-112 486.383,-103.372 487.176,-93.8414 487.956,-85.7805"/>
<polygon fill="midnightblue" stroke="midnightblue" points="491.461,-85.9182 489.006,-75.6117 484.498,-85.1994 491.461,-85.9182"/>
</g>
<!-- Node16&#45;&gt;Node13 -->
<g id="edge21" class="edge"><title>Node16&#45;&gt;Node13</title>
<path fill="none" stroke="midnightblue" d="M560.715,-242.233C631.93,-235.738 751.205,-214.293 822,-144 838.751,-127.368 850.302,-102.447 856.776,-85.4943"/>
<polygon fill="midnightblue" stroke="midnightblue" points="860.218,-86.2667 860.301,-75.6721 853.629,-83.9021 860.218,-86.2667"/>
</g>
<!-- Node16&#45;&gt;Node14 -->
<g id="edge22" class="edge"><title>Node16&#45;&gt;Node14</title>
<path fill="none" stroke="midnightblue" d="M560.625,-243.397C620.632,-240.055 715.649,-229.988 792,-200 825.9,-186.685 859.854,-160.91 879.623,-144.352"/>
<polygon fill="midnightblue" stroke="midnightblue" points="882.101,-146.838 887.421,-137.676 877.548,-141.52 882.101,-146.838"/>
</g>
<!-- Node16&#45;&gt;Node15 -->
<g id="edge23" class="edge"><title>Node16&#45;&gt;Node15</title>
<path fill="none" stroke="midnightblue" d="M507.366,-236.408C521.253,-214.488 560.084,-155.172 600,-112 610.005,-101.179 622.451,-90.3313 632.658,-81.9981"/>
<polygon fill="midnightblue" stroke="midnightblue" points="634.979,-84.6241 640.603,-75.6455 630.607,-79.157 634.979,-84.6241"/>
</g>
<!-- Node17 -->
<g id="node18" class="node"><title>Node17</title>
<polygon fill="white" stroke="#bfbfbf" points="169.5,-0.5 169.5,-19.5 210.5,-19.5 210.5,-0.5 169.5,-0.5"/>
<text text-anchor="middle" x="190" y="-7.5" font-family="Helvetica,sans-Serif" font-size="10.00">array</text>
</g>
<!-- Node16&#45;&gt;Node17 -->
<g id="edge18" class="edge"><title>Node16&#45;&gt;Node17</title>
<path fill="none" stroke="midnightblue" d="M443.237,-240.472C378.641,-234.475 280.023,-221.999 250,-200 199.808,-163.223 199.876,-136.419 185,-76 181.233,-60.7 183.042,-42.8177 185.476,-29.6865"/>
<polygon fill="midnightblue" stroke="midnightblue" points="188.974,-30.0664 187.652,-19.5544 182.13,-28.5967 188.974,-30.0664"/>
</g>
<!-- Node18 -->
<g id="node19" class="node"><title>Node18</title>
<polygon fill="white" stroke="#bfbfbf" points="409.5,-180.5 409.5,-199.5 454.5,-199.5 454.5,-180.5 409.5,-180.5"/>
<text text-anchor="middle" x="432" y="-187.5" font-family="Helvetica,sans-Serif" font-size="10.00">SDL.h</text>
</g>
<!-- Node16&#45;&gt;Node18 -->
<g id="edge24" class="edge"><title>Node16&#45;&gt;Node18</title>
<path fill="none" stroke="midnightblue" d="M490.753,-236.324C480.203,-228.185 464.199,-215.839 451.558,-206.087"/>
<polygon fill="midnightblue" stroke="midnightblue" points="453.507,-203.171 443.451,-199.834 449.231,-208.713 453.507,-203.171"/>
</g>
<!-- Node16&#45;&gt;Node19 -->
<g id="edge25" class="edge"><title>Node16&#45;&gt;Node19</title>
<path fill="none" stroke="midnightblue" d="M529.254,-236.444C558.441,-227.28 604.921,-212.688 637.309,-202.519"/>
<polygon fill="midnightblue" stroke="midnightblue" points="638.381,-205.851 646.874,-199.516 636.284,-199.173 638.381,-205.851"/>
</g>
<!-- Node16&#45;&gt;Node23 -->
<g id="edge49" class="edge"><title>Node16&#45;&gt;Node23</title>
<path fill="none" stroke="midnightblue" d="M518.839,-236.47C558.458,-216.401 657.791,-166.084 705.129,-142.105"/>
<polygon fill="midnightblue" stroke="midnightblue" points="706.797,-145.183 714.136,-137.542 703.634,-138.939 706.797,-145.183"/>
</g>
<!-- Node24 -->
<g id="node25" class="node"><title>Node24</title>
<g id="a_node25"><a xlink:href="sample__formats_8hpp.html" target="_top" xlink:title="The SampleFormat enumeration and related declarations. ">
<polygon fill="white" stroke="black" points="194,-56.5 194,-75.5 310,-75.5 310,-56.5 194,-56.5"/>
<text text-anchor="middle" x="252" y="-63.5" font-family="Helvetica,sans-Serif" font-size="10.00">sample_formats.hpp</text>
</a>
</g>
</g>
<!-- Node16&#45;&gt;Node24 -->
<g id="edge52" class="edge"><title>Node16&#45;&gt;Node24</title>
<path fill="none" stroke="midnightblue" d="M443.413,-241.651C381.432,-236.803 289.401,-225.442 266,-200 237.139,-168.621 242.478,-113.829 247.804,-85.3562"/>
<polygon fill="midnightblue" stroke="midnightblue" points="251.239,-86.0277 249.844,-75.5251 244.385,-84.6053 251.239,-86.0277"/>
</g>
<!-- Node25 -->
<g id="node26" class="node"><title>Node25</title>
<g id="a_node26"><a xlink:href="ringbuffer_8hpp.html" target="_top" xlink:title="The RingBuffer class template. ">
<polygon fill="white" stroke="black" points="308.5,-180.5 308.5,-199.5 391.5,-199.5 391.5,-180.5 308.5,-180.5"/>
<text text-anchor="middle" x="350" y="-187.5" font-family="Helvetica,sans-Serif" font-size="10.00">ringbuffer.hpp</text>
</a>
</g>
</g>
<!-- Node16&#45;&gt;Node25 -->
<g id="edge50" class="edge"><title>Node16&#45;&gt;Node25</title>
<path fill="none" stroke="midnightblue" d="M477.915,-236.444C452.455,-227.399 412.106,-213.064 383.541,-202.916"/>
<polygon fill="midnightblue" stroke="midnightblue" points="384.567,-199.566 373.972,-199.516 382.223,-206.162 384.567,-199.566"/>
</g>
<!-- Node19&#45;&gt;Node2 -->
<g id="edge26" class="edge"><title>Node19&#45;&gt;Node2</title>
<path fill="none" stroke="midnightblue" d="M667.115,-180.243C647.797,-156.306 590.344,-89.348 527,-56 477.242,-29.8043 412.137,-18.6429 372.776,-14.0439"/>
<polygon fill="midnightblue" stroke="midnightblue" points="372.951,-10.5423 362.63,-12.9379 372.192,-17.5011 372.951,-10.5423"/>
</g>
<!-- Node19&#45;&gt;Node12 -->
<g id="edge27" class="edge"><title>Node19&#45;&gt;Node12</title>
<path fill="none" stroke="midnightblue" d="M642.741,-180.488C619.222,-173.158 586.897,-161.051 562,-144 537.665,-127.334 515.436,-101.137 502.305,-84.0129"/>
<polygon fill="midnightblue" stroke="midnightblue" points="504.776,-81.4723 495.99,-75.5512 499.166,-85.6589 504.776,-81.4723"/>
</g>
<!-- Node19&#45;&gt;Node13 -->
<g id="edge28" class="edge"><title>Node19&#45;&gt;Node13</title>
<path fill="none" stroke="midnightblue" d="M706.097,-180.725C730.464,-173.489 764.082,-161.394 790,-144 814.878,-127.304 837.611,-100.742 850.883,-83.5892"/>
<polygon fill="midnightblue" stroke="midnightblue" points="853.696,-85.6715 856.922,-75.5795 848.107,-81.4574 853.696,-85.6715"/>
</g>
<!-- Node19&#45;&gt;Node14 -->
<g id="edge29" class="edge"><title>Node19&#45;&gt;Node14</title>
<path fill="none" stroke="midnightblue" d="M705.95,-180.403C748.674,-168.908 823.911,-148.665 866.096,-137.315"/>
<polygon fill="midnightblue" stroke="midnightblue" points="867.072,-140.677 875.82,-134.699 865.254,-133.917 867.072,-140.677"/>
</g>
<!-- Node19&#45;&gt;Node15 -->
<g id="edge30" class="edge"><title>Node19&#45;&gt;Node15</title>
<path fill="none" stroke="midnightblue" d="M672.418,-180.226C668.866,-160.53 660.194,-112.437 655.372,-85.7004"/>
<polygon fill="midnightblue" stroke="midnightblue" points="658.787,-84.9146 653.568,-75.6944 651.898,-86.1569 658.787,-84.9146"/>
</g>
<!-- Node19&#45;&gt;Node20 -->
<g id="edge31" class="edge"><title>Node19&#45;&gt;Node20</title>
<path fill="none" stroke="midnightblue" d="M706.24,-183.409C765.284,-173.17 891.41,-151.299 964.496,-138.625"/>
<polygon fill="midnightblue" stroke="midnightblue" points="965.189,-142.057 974.444,-136.9 963.993,-135.16 965.189,-142.057"/>
</g>
<!-- Node19&#45;&gt;Node23 -->
<g id="edge41" class="edge"><title>Node19&#45;&gt;Node23</title>
<path fill="none" stroke="midnightblue" d="M682.167,-180.403C690.886,-171.225 704.904,-156.47 715.689,-145.117"/>
<polygon fill="midnightblue" stroke="midnightblue" points="718.498,-147.241 722.848,-137.581 713.423,-142.42 718.498,-147.241"/>
</g>
<!-- Node20&#45;&gt;Node2 -->
<g id="edge32" class="edge"><title>Node20&#45;&gt;Node2</title>
<path fill="none" stroke="midnightblue" d="M1008.52,-118.309C987.135,-102.654 939.158,-70.0429 893,-56 794.98,-26.1789 478.776,-14.8901 372.906,-11.8891"/>
<polygon fill="midnightblue" stroke="midnightblue" points="372.853,-8.38642 362.76,-11.6088 372.66,-15.3838 372.853,-8.38642"/>
</g>
<!-- Node20&#45;&gt;Node6 -->
<g id="edge35" class="edge"><title>Node20&#45;&gt;Node6</title>
<path fill="none" stroke="midnightblue" d="M1041.63,-118.403C1067.42,-108.156 1110.71,-90.9561 1140.04,-79.3021"/>
<polygon fill="midnightblue" stroke="midnightblue" points="1141.4,-82.526 1149.41,-75.5806 1138.82,-76.0207 1141.4,-82.526"/>
</g>
<!-- Node20&#45;&gt;Node11 -->
<g id="edge33" class="edge"><title>Node20&#45;&gt;Node11</title>
<path fill="none" stroke="midnightblue" d="M1031.03,-118.403C1043.27,-108.869 1063.23,-93.3154 1077.99,-81.8106"/>
<polygon fill="midnightblue" stroke="midnightblue" points="1080.25,-84.4879 1085.99,-75.5806 1075.95,-78.9663 1080.25,-84.4879"/>
</g>
<!-- Node20&#45;&gt;Node12 -->
<g id="edge34" class="edge"><title>Node20&#45;&gt;Node12</title>
<path fill="none" stroke="midnightblue" d="M974.176,-119.166C958.881,-116.691 941.73,-114.065 926,-112 779.719,-92.7947 604.93,-76.8687 528.718,-70.2705"/>
<polygon fill="midnightblue" stroke="midnightblue" points="528.895,-66.7729 518.631,-69.402 528.294,-73.7471 528.895,-66.7729"/>
</g>
<!-- Node20&#45;&gt;Node13 -->
<g id="edge36" class="edge"><title>Node20&#45;&gt;Node13</title>
<path fill="none" stroke="midnightblue" d="M997.506,-118.403C970.615,-108.127 925.429,-90.8583 894.931,-79.2029"/>
<polygon fill="midnightblue" stroke="midnightblue" points="895.789,-75.7842 885.199,-75.4837 893.291,-82.323 895.789,-75.7842"/>
</g>
<!-- Node20&#45;&gt;Node15 -->
<g id="edge37" class="edge"><title>Node20&#45;&gt;Node15</title>
<path fill="none" stroke="midnightblue" d="M974.137,-119.522C899.152,-107.297 752.038,-83.3106 685.773,-72.5065"/>
<polygon fill="midnightblue" stroke="midnightblue" points="686.288,-69.0443 675.855,-70.8895 685.162,-75.9531 686.288,-69.0443"/>
</g>
<!-- Node21 -->
<g id="node22" class="node"><title>Node21</title>
<g id="a_node22"><a xlink:href="errors_8hpp.html" target="_top" xlink:title="Declarations of the playd Error exception set. ">
<polygon fill="white" stroke="black" points="987,-56.5 987,-75.5 1053,-75.5 1053,-56.5 987,-56.5"/>
<text text-anchor="middle" x="1020" y="-63.5" font-family="Helvetica,sans-Serif" font-size="10.00">errors.hpp</text>
</a>
</g>
</g>
<!-- Node20&#45;&gt;Node21 -->
<g id="edge38" class="edge"><title>Node20&#45;&gt;Node21</title>
<path fill="none" stroke="midnightblue" d="M1020,-118.403C1020,-109.938 1020,-96.7283 1020,-85.8199"/>
<polygon fill="midnightblue" stroke="midnightblue" points="1023.5,-85.5806 1020,-75.5806 1016.5,-85.5806 1023.5,-85.5806"/>
</g>
<!-- Node21&#45;&gt;Node3 -->
<g id="edge39" class="edge"><title>Node21&#45;&gt;Node3</title>
<path fill="none" stroke="midnightblue" d="M1049.63,-56.4435C1081.5,-47.2406 1132.33,-32.5617 1167.56,-22.3879"/>
<polygon fill="midnightblue" stroke="midnightblue" points="1168.87,-25.6534 1177.51,-19.5164 1166.93,-18.9282 1168.87,-25.6534"/>
</g>
<!-- Node22 -->
<g id="node23" class="node"><title>Node22</title>
<polygon fill="white" stroke="#bfbfbf" points="992,-0.5 992,-19.5 1048,-19.5 1048,-0.5 992,-0.5"/>
<text text-anchor="middle" x="1020" y="-7.5" font-family="Helvetica,sans-Serif" font-size="10.00">sstream</text>
</g>
<!-- Node21&#45;&gt;Node22 -->
<g id="edge40" class="edge"><title>Node21&#45;&gt;Node22</title>
<path fill="none" stroke="midnightblue" d="M1020,-56.083C1020,-49.0059 1020,-38.8611 1020,-29.9865"/>
<polygon fill="midnightblue" stroke="midnightblue" points="1023.5,-29.751 1020,-19.7511 1016.5,-29.7511 1023.5,-29.751"/>
</g>
<!-- Node23&#45;&gt;Node2 -->
<g id="edge42" class="edge"><title>Node23&#45;&gt;Node2</title>
<path fill="none" stroke="midnightblue" d="M727.991,-118.24C722.177,-102.774 707.831,-70.8643 684,-56 632.519,-23.8893 449.735,-14.4779 372.669,-11.9031"/>
<polygon fill="midnightblue" stroke="midnightblue" points="372.626,-8.4001 362.521,-11.5835 372.406,-15.3966 372.626,-8.4001"/>
</g>
<!-- Node23&#45;&gt;Node13 -->
<g id="edge43" class="edge"><title>Node23&#45;&gt;Node13</title>
<path fill="none" stroke="midnightblue" d="M749.912,-118.403C772.163,-108.29 809.312,-91.4036 834.926,-79.761"/>
<polygon fill="midnightblue" stroke="midnightblue" points="836.467,-82.905 844.123,-75.5806 833.571,-76.5324 836.467,-82.905"/>
</g>
<!-- Node23&#45;&gt;Node15 -->
<g id="edge44" class="edge"><title>Node23&#45;&gt;Node15</title>
<path fill="none" stroke="midnightblue" d="M719.681,-118.403C707.127,-108.869 686.649,-93.3154 671.501,-81.8106"/>
<polygon fill="midnightblue" stroke="midnightblue" points="673.378,-78.8417 663.298,-75.5806 669.144,-84.4162 673.378,-78.8417"/>
</g>
<!-- Node23&#45;&gt;Node21 -->
<g id="edge45" class="edge"><title>Node23&#45;&gt;Node21</title>
<path fill="none" stroke="midnightblue" d="M772.1,-118.467C826.38,-107.198 921.54,-87.4415 976.835,-75.9616"/>
<polygon fill="midnightblue" stroke="midnightblue" points="977.597,-79.378 986.677,-73.9182 976.174,-72.5242 977.597,-79.378"/>
</g>
<!-- Node23&#45;&gt;Node24 -->
<g id="edge46" class="edge"><title>Node23&#45;&gt;Node24</title>
<path fill="none" stroke="midnightblue" d="M680.192,-120.636C593.569,-109.785 417.262,-87.7009 320.078,-75.5275"/>
<polygon fill="midnightblue" stroke="midnightblue" points="320.423,-72.0434 310.065,-74.2733 319.553,-78.9891 320.423,-72.0434"/>
</g>
<!-- Node24&#45;&gt;Node2 -->
<g id="edge48" class="edge"><title>Node24&#45;&gt;Node2</title>
<path fill="none" stroke="midnightblue" d="M265.817,-56.324C279.233,-47.9002 299.824,-34.9709 315.586,-25.0741"/>
<polygon fill="midnightblue" stroke="midnightblue" points="317.609,-27.9364 324.217,-19.6545 313.887,-22.0081 317.609,-27.9364"/>
</g>
<!-- Node24&#45;&gt;Node17 -->
<g id="edge47" class="edge"><title>Node24&#45;&gt;Node17</title>
<path fill="none" stroke="midnightblue" d="M242.039,-56.324C232.873,-48.3414 219.063,-36.3128 207.972,-26.6529"/>
<polygon fill="midnightblue" stroke="midnightblue" points="209.982,-23.7624 200.143,-19.8339 205.385,-29.041 209.982,-23.7624"/>
</g>
<!-- Node26 -->
<g id="node27" class="node"><title>Node26</title>
<polygon fill="white" stroke="#bfbfbf" points="308.5,-113 308.5,-143 433.5,-143 433.5,-113 308.5,-113"/>
<text text-anchor="start" x="316.5" y="-131" font-family="Helvetica,sans-Serif" font-size="10.00">../contrib/pa_ringbuffer</text>
<text text-anchor="middle" x="371" y="-120" font-family="Helvetica,sans-Serif" font-size="10.00">/pa_ringbuffer.h</text>
</g>
<!-- Node25&#45;&gt;Node26 -->
<g id="edge51" class="edge"><title>Node25&#45;&gt;Node26</title>
<path fill="none" stroke="midnightblue" d="M353.009,-180.403C355.534,-173.189 359.265,-162.528 362.676,-152.782"/>
<polygon fill="midnightblue" stroke="midnightblue" points="366.051,-153.736 366.051,-143.141 359.444,-151.423 366.051,-153.736"/>
</g>
<!-- Node27&#45;&gt;Node20 -->
<g id="edge58" class="edge"><title>Node27&#45;&gt;Node20</title>
<path fill="none" stroke="midnightblue" d="M1070.87,-236.281C1061.86,-217.294 1040.34,-171.892 1028.37,-146.662"/>
<polygon fill="midnightblue" stroke="midnightblue" points="1031.48,-145.041 1024.03,-137.505 1025.15,-148.04 1031.48,-145.041"/>
</g>
<!-- Node28&#45;&gt;Node13 -->
<g id="edge62" class="edge"><title>Node28&#45;&gt;Node13</title>
<path fill="none" stroke="midnightblue" d="M1246.53,-292.097C1227.23,-261.477 1158.84,-159.761 1074,-112 1016.68,-79.731 938.707,-70.5583 895.391,-67.9794"/>
<polygon fill="midnightblue" stroke="midnightblue" points="895.325,-64.4715 885.159,-67.4557 894.967,-71.4623 895.325,-64.4715"/>
</g>
</g>
</svg>
