<?xml version="1.0" encoding="UTF-8" standalone="no"?>
<!DOCTYPE svg PUBLIC "-//W3C//DTD SVG 1.1//EN"
 "http://www.w3.org/Graphics/SVG/1.1/DTD/svg11.dtd">
<!-- Generated by graphviz version 2.38.0 (20140413.2041)
 -->
<!-- Title: src/main.hpp Pages: 1 -->
<svg width="1619pt" height="599pt"
 viewBox="0.00 0.00 1618.50 599.00" xmlns="http://www.w3.org/2000/svg" xmlns:xlink="http://www.w3.org/1999/xlink">
<g id="graph0" class="graph" transform="scale(1 1) rotate(0) translate(4 595)">
<title>src/main.hpp</title>
<polygon fill="white" stroke="none" points="-4,4 -4,-595 1614.5,-595 1614.5,4 -4,4"/>
<!-- Node1 -->
<g id="node1" class="node"><title>Node1</title>
<polygon fill="#bfbfbf" stroke="black" points="1049,-571.5 1049,-590.5 1126,-590.5 1126,-571.5 1049,-571.5"/>
<text text-anchor="middle" x="1087.5" y="-578.5" font-family="Helvetica,sans-Serif" font-size="10.00">src/main.hpp</text>
</g>
<!-- Node2 -->
<g id="node2" class="node"><title>Node2</title>
<g id="a_node2"><a xlink:href="audio__system_8hpp.html" target="_top" xlink:title="Declaration of the AudioSystem class. ">
<polygon fill="white" stroke="black" points="442.5,-235.5 442.5,-254.5 572.5,-254.5 572.5,-235.5 442.5,-235.5"/>
<text text-anchor="middle" x="507.5" y="-242.5" font-family="Helvetica,sans-Serif" font-size="10.00">audio/audio_system.hpp</text>
</a>
</g>
</g>
<!-- Node1&#45;&gt;Node2 -->
<g id="edge1" class="edge"><title>Node1&#45;&gt;Node2</title>
<path fill="none" stroke="midnightblue" d="M1048.94,-579.71C869.675,-577.864 126.5,-564.513 126.5,-470 126.5,-470 126.5,-470 126.5,-356 126.5,-292.992 321.268,-263.851 432.292,-252.358"/>
<polygon fill="midnightblue" stroke="midnightblue" points="432.839,-255.821 442.437,-251.333 432.135,-248.857 432.839,-255.821"/>
</g>
<!-- Node25 -->
<g id="node25" class="node"><title>Node25</title>
<g id="a_node25"><a xlink:href="cmd_8hpp.html" target="_top" xlink:title="Declaration of the CommandHandler class. ">
<polygon fill="white" stroke="black" points="1316.5,-403.5 1316.5,-422.5 1372.5,-422.5 1372.5,-403.5 1316.5,-403.5"/>
<text text-anchor="middle" x="1344.5" y="-410.5" font-family="Helvetica,sans-Serif" font-size="10.00">cmd.hpp</text>
</a>
</g>
</g>
<!-- Node1&#45;&gt;Node25 -->
<g id="edge43" class="edge"><title>Node1&#45;&gt;Node25</title>
<path fill="none" stroke="midnightblue" d="M1096.3,-571.383C1118.44,-550.056 1178.9,-494.001 1237.5,-459 1260.05,-445.529 1287.38,-434.109 1308.77,-426.144"/>
<polygon fill="midnightblue" stroke="midnightblue" points="1310.25,-429.332 1318.45,-422.625 1307.86,-422.754 1310.25,-429.332"/>
</g>
<!-- Node27 -->
<g id="node27" class="node"><title>Node27</title>
<g id="a_node27"><a xlink:href="player_8hpp.html" target="_top" xlink:title="Declaration of the Player class, and associated types. ">
<polygon fill="white" stroke="black" points="1038.5,-347.5 1038.5,-366.5 1136.5,-366.5 1136.5,-347.5 1038.5,-347.5"/>
<text text-anchor="middle" x="1087.5" y="-354.5" font-family="Helvetica,sans-Serif" font-size="10.00">player/player.hpp</text>
</a>
</g>
</g>
<!-- Node1&#45;&gt;Node27 -->
<g id="edge88" class="edge"><title>Node1&#45;&gt;Node27</title>
<path fill="none" stroke="midnightblue" d="M1087.5,-571.297C1087.5,-538.633 1087.5,-422.866 1087.5,-376.957"/>
<polygon fill="midnightblue" stroke="midnightblue" points="1091,-376.884 1087.5,-366.884 1084,-376.884 1091,-376.884"/>
</g>
<!-- Node31 -->
<g id="node31" class="node"><title>Node31</title>
<g id="a_node31"><a xlink:href="time__parser_8hpp.html" target="_top" xlink:title="The TimeParser template class. ">
<polygon fill="white" stroke="black" points="0,-123.5 0,-142.5 101,-142.5 101,-123.5 0,-123.5"/>
<text text-anchor="middle" x="50.5" y="-130.5" font-family="Helvetica,sans-Serif" font-size="10.00">../time_parser.hpp</text>
</a>
</g>
</g>
<!-- Node1&#45;&gt;Node31 -->
<g id="edge89" class="edge"><title>Node1&#45;&gt;Node31</title>
<path fill="none" stroke="midnightblue" d="M1048.83,-579.796C900.707,-578.743 369.568,-572.383 205.5,-535 132.666,-518.405 50.5,-544.701 50.5,-470 50.5,-470 50.5,-470 50.5,-244 50.5,-211.948 50.5,-174.643 50.5,-152.749"/>
<polygon fill="midnightblue" stroke="midnightblue" points="54.0001,-152.558 50.5,-142.558 47.0001,-152.558 54.0001,-152.558"/>
</g>
<!-- Node36 -->
<g id="node36" class="node"><title>Node36</title>
<g id="a_node36"><a xlink:href="io__reactor_8hpp.html" target="_top" xlink:title="Declaration of the IoReactor class. ">
<polygon fill="white" stroke="black" points="1216.5,-515.5 1216.5,-534.5 1312.5,-534.5 1312.5,-515.5 1216.5,-515.5"/>
<text text-anchor="middle" x="1264.5" y="-522.5" font-family="Helvetica,sans-Serif" font-size="10.00">io/io_reactor.hpp</text>
</a>
</g>
</g>
<!-- Node1&#45;&gt;Node36 -->
<g id="edge78" class="edge"><title>Node1&#45;&gt;Node36</title>
<path fill="none" stroke="midnightblue" d="M1115.55,-571.444C1145.58,-562.28 1193.41,-547.688 1226.74,-537.519"/>
<polygon fill="midnightblue" stroke="midnightblue" points="1228.04,-540.782 1236.59,-534.516 1226,-534.087 1228.04,-540.782"/>
</g>
<!-- Node3 -->
<g id="node3" class="node"><title>Node3</title>
<polygon fill="white" stroke="#bfbfbf" points="988,-0.5 988,-19.5 1031,-19.5 1031,-0.5 988,-0.5"/>
<text text-anchor="middle" x="1009.5" y="-7.5" font-family="Helvetica,sans-Serif" font-size="10.00">string</text>
</g>
<!-- Node2&#45;&gt;Node3 -->
<g id="edge2" class="edge"><title>Node2&#45;&gt;Node3</title>
<path fill="none" stroke="midnightblue" d="M502.625,-235.266C496.17,-222.477 486.488,-198.103 494.5,-179 508.236,-146.25 521.589,-142.146 551.5,-123 589.529,-98.6577 604.643,-103.932 646.5,-87 678.798,-73.935 685.017,-65.6281 718.5,-56 810.62,-29.5111 923.903,-17.6844 977.932,-13.2518"/>
<polygon fill="midnightblue" stroke="midnightblue" points="978.231,-16.7392 987.924,-12.4618 977.679,-9.76101 978.231,-16.7392"/>
</g>
<!-- Node4 -->
<g id="node4" class="node"><title>Node4</title>
<polygon fill="white" stroke="#bfbfbf" points="599.5,-123.5 599.5,-142.5 639.5,-142.5 639.5,-123.5 599.5,-123.5"/>
<text text-anchor="middle" x="619.5" y="-130.5" font-family="Helvetica,sans-Serif" font-size="10.00">utility</text>
</g>
<!-- Node2&#45;&gt;Node4 -->
<g id="edge3" class="edge"><title>Node2&#45;&gt;Node4</title>
<path fill="none" stroke="midnightblue" d="M539.721,-235.421C559.539,-228.593 584.02,-217.112 599.5,-199 610.637,-185.969 615.575,-166.812 617.762,-152.668"/>
<polygon fill="midnightblue" stroke="midnightblue" points="621.252,-152.965 618.993,-142.614 614.304,-152.114 621.252,-152.965"/>
</g>
<!-- Node5 -->
<g id="node5" class="node"><title>Node5</title>
<polygon fill="white" stroke="#bfbfbf" points="247,-179.5 247,-198.5 438,-198.5 438,-179.5 247,-179.5"/>
<text text-anchor="middle" x="342.5" y="-186.5" font-family="Helvetica,sans-Serif" font-size="10.00">portaudiocpp/SampleDataFormat.hxx</text>
</g>
<!-- Node2&#45;&gt;Node5 -->
<g id="edge4" class="edge"><title>Node2&#45;&gt;Node5</title>
<path fill="none" stroke="midnightblue" d="M481.355,-235.444C453.477,-226.32 409.152,-211.813 378.1,-201.651"/>
<polygon fill="midnightblue" stroke="midnightblue" points="379.115,-198.3 368.522,-198.516 376.938,-204.953 379.115,-198.3"/>
</g>
<!-- Node6 -->
<g id="node6" class="node"><title>Node6</title>
<polygon fill="white" stroke="#bfbfbf" points="195.5,-123.5 195.5,-142.5 329.5,-142.5 329.5,-123.5 195.5,-123.5"/>
<text text-anchor="middle" x="262.5" y="-130.5" font-family="Helvetica,sans-Serif" font-size="10.00">portaudiocpp/Stream.hxx</text>
</g>
<!-- Node2&#45;&gt;Node6 -->
<g id="edge5" class="edge"><title>Node2&#45;&gt;Node6</title>
<path fill="none" stroke="midnightblue" d="M442.23,-242.472C370.875,-239.261 263.225,-229.368 237.5,-199 225.592,-184.943 236.716,-164.591 247.674,-150.419"/>
<polygon fill="midnightblue" stroke="midnightblue" points="250.556,-152.428 254.267,-142.504 245.177,-147.947 250.556,-152.428"/>
</g>
<!-- Node7 -->
<g id="node7" class="node"><title>Node7</title>
<g id="a_node7"><a xlink:href="sample__formats_8hpp.html" target="_top" xlink:title="The SampleFormat enumeration. ">
<polygon fill="white" stroke="black" points="519,-62 519,-81 638,-81 638,-62 519,-62"/>
<text text-anchor="middle" x="578.5" y="-69" font-family="Helvetica,sans-Serif" font-size="10.00">../sample_formats.hpp</text>
</a>
</g>
</g>
<!-- Node2&#45;&gt;Node7 -->
<g id="edge6" class="edge"><title>Node2&#45;&gt;Node7</title>
<path fill="none" stroke="midnightblue" d="M442.154,-241.014C327.802,-233.538 110.451,-207.996 186.5,-123 234.657,-69.177 438.19,-98.4396 509.5,-87 516.402,-85.8927 523.659,-84.5579 530.768,-83.1521"/>
<polygon fill="midnightblue" stroke="midnightblue" points="531.922,-86.4888 541.021,-81.0599 530.523,-79.6302 531.922,-86.4888"/>
</g>
<!-- Node9 -->
<g id="node9" class="node"><title>Node9</title>
<g id="a_node9"><a xlink:href="audio__sink_8hpp.html" target="_top" xlink:title="Declaration of the AudioSink class. ">
<polygon fill="white" stroke="black" points="504,-179.5 504,-198.5 591,-198.5 591,-179.5 504,-179.5"/>
<text text-anchor="middle" x="547.5" y="-186.5" font-family="Helvetica,sans-Serif" font-size="10.00">audio_sink.hpp</text>
</a>
</g>
</g>
<!-- Node2&#45;&gt;Node9 -->
<g id="edge8" class="edge"><title>Node2&#45;&gt;Node9</title>
<path fill="none" stroke="midnightblue" d="M514.105,-235.083C519.755,-227.455 528.045,-216.264 534.951,-206.941"/>
<polygon fill="midnightblue" stroke="midnightblue" points="537.878,-208.87 541.018,-198.751 532.253,-204.703 537.878,-208.87"/>
</g>
<!-- Node14 -->
<g id="node14" class="node"><title>Node14</title>
<g id="a_node14"><a xlink:href="audio__source_8hpp.html" target="_top" xlink:title="Declaration of the AudioSource class. ">
<polygon fill="white" stroke="black" points="945.5,-123.5 945.5,-142.5 1045.5,-142.5 1045.5,-123.5 945.5,-123.5"/>
<text text-anchor="middle" x="995.5" y="-130.5" font-family="Helvetica,sans-Serif" font-size="10.00">audio_source.hpp</text>
</a>
</g>
</g>
<!-- Node2&#45;&gt;Node14 -->
<g id="edge33" class="edge"><title>Node2&#45;&gt;Node14</title>
<path fill="none" stroke="midnightblue" d="M545.386,-235.46C633.307,-215.642 851.056,-166.559 947.829,-144.745"/>
<polygon fill="midnightblue" stroke="midnightblue" points="948.652,-148.148 957.638,-142.535 947.113,-141.319 948.652,-148.148"/>
</g>
<!-- Node24 -->
<g id="node24" class="node"><title>Node24</title>
<g id="a_node24"><a xlink:href="audio_8hpp.html" target="_top" xlink:title="Declaration of the Audio class. ">
<polygon fill="white" stroke="black" points="805.5,-179.5 805.5,-198.5 867.5,-198.5 867.5,-179.5 805.5,-179.5"/>
<text text-anchor="middle" x="836.5" y="-186.5" font-family="Helvetica,sans-Serif" font-size="10.00">audio.hpp</text>
</a>
</g>
</g>
<!-- Node2&#45;&gt;Node24 -->
<g id="edge34" class="edge"><title>Node2&#45;&gt;Node24</title>
<path fill="none" stroke="midnightblue" d="M559.631,-235.444C624.925,-224.727 735.463,-206.584 795.211,-196.777"/>
<polygon fill="midnightblue" stroke="midnightblue" points="796.102,-200.178 805.403,-195.104 794.968,-193.27 796.102,-200.178"/>
</g>
<!-- Node8 -->
<g id="node8" class="node"><title>Node8</title>
<polygon fill="white" stroke="#bfbfbf" points="643,-0.5 643,-19.5 690,-19.5 690,-0.5 643,-0.5"/>
<text text-anchor="middle" x="666.5" y="-7.5" font-family="Helvetica,sans-Serif" font-size="10.00">cstdint</text>
</g>
<!-- Node7&#45;&gt;Node8 -->
<g id="edge7" class="edge"><title>Node7&#45;&gt;Node8</title>
<path fill="none" stroke="midnightblue" d="M591.108,-61.9751C605.223,-52.4315 628.331,-36.8073 645.249,-25.3683"/>
<polygon fill="midnightblue" stroke="midnightblue" points="647.591,-28.0098 653.915,-19.5091 643.671,-22.2109 647.591,-28.0098"/>
</g>
<!-- Node9&#45;&gt;Node3 -->
<g id="edge11" class="edge"><title>Node9&#45;&gt;Node3</title>
<path fill="none" stroke="midnightblue" d="M547.575,-179.447C548.181,-165.527 551.479,-138.02 567.5,-123 617.831,-75.8126 651.564,-103.718 718.5,-87 813.011,-63.395 924.318,-33.8318 977.746,-19.5311"/>
<polygon fill="midnightblue" stroke="midnightblue" points="978.885,-22.8496 987.638,-16.8807 977.073,-16.0881 978.885,-22.8496"/>
</g>
<!-- Node9&#45;&gt;Node4 -->
<g id="edge12" class="edge"><title>Node9&#45;&gt;Node4</title>
<path fill="none" stroke="midnightblue" d="M559.068,-179.324C569.92,-171.185 586.381,-158.839 599.383,-149.087"/>
<polygon fill="midnightblue" stroke="midnightblue" points="601.821,-151.634 607.721,-142.834 597.621,-146.034 601.821,-151.634"/>
</g>
<!-- Node9&#45;&gt;Node6 -->
<g id="edge16" class="edge"><title>Node9&#45;&gt;Node6</title>
<path fill="none" stroke="midnightblue" d="M503.904,-179.74C453.951,-170.275 372.001,-154.748 317.651,-144.45"/>
<polygon fill="midnightblue" stroke="midnightblue" points="317.979,-140.95 307.502,-142.527 316.676,-147.827 317.979,-140.95"/>
</g>
<!-- Node9&#45;&gt;Node8 -->
<g id="edge9" class="edge"><title>Node9&#45;&gt;Node8</title>
<path fill="none" stroke="midnightblue" d="M538.453,-179.318C525.856,-166.166 506.015,-140.839 519.5,-123 554.879,-76.199 605.409,-128.875 646.5,-87 661.33,-71.8875 665.529,-47.1689 666.537,-30.0443"/>
<polygon fill="midnightblue" stroke="midnightblue" points="670.048,-29.7035 666.817,-19.6134 663.05,-29.5161 670.048,-29.7035"/>
</g>
<!-- Node10 -->
<g id="node10" class="node"><title>Node10</title>
<polygon fill="white" stroke="#bfbfbf" points="1177.5,-123.5 1177.5,-142.5 1231.5,-142.5 1231.5,-123.5 1177.5,-123.5"/>
<text text-anchor="middle" x="1204.5" y="-130.5" font-family="Helvetica,sans-Serif" font-size="10.00">memory</text>
</g>
<!-- Node9&#45;&gt;Node10 -->
<g id="edge10" class="edge"><title>Node9&#45;&gt;Node10</title>
<path fill="none" stroke="midnightblue" d="M591.116,-184.415C712.585,-174.431 1053.26,-146.43 1167,-137.082"/>
<polygon fill="midnightblue" stroke="midnightblue" points="1167.6,-140.544 1177.28,-136.237 1167.03,-133.568 1167.6,-140.544"/>
</g>
<!-- Node11 -->
<g id="node11" class="node"><title>Node11</title>
<polygon fill="white" stroke="#bfbfbf" points="1037.5,-62 1037.5,-81 1083.5,-81 1083.5,-62 1037.5,-62"/>
<text text-anchor="middle" x="1060.5" y="-69" font-family="Helvetica,sans-Serif" font-size="10.00">vector</text>
</g>
<!-- Node9&#45;&gt;Node11 -->
<g id="edge13" class="edge"><title>Node9&#45;&gt;Node11</title>
<path fill="none" stroke="midnightblue" d="M550.367,-179.438C555.706,-164.982 568.658,-136.038 590.5,-123 666.943,-77.3681 901.417,-99.927 989.5,-87 1001.92,-85.1774 1015.44,-82.5729 1027.32,-80.0729"/>
<polygon fill="midnightblue" stroke="midnightblue" points="1028.24,-83.4567 1037.27,-77.9251 1026.76,-76.6144 1028.24,-83.4567"/>
</g>
<!-- Node12 -->
<g id="node12" class="node"><title>Node12</title>
<polygon fill="white" stroke="#bfbfbf" points="658,-123.5 658,-142.5 727,-142.5 727,-123.5 658,-123.5"/>
<text text-anchor="middle" x="692.5" y="-130.5" font-family="Helvetica,sans-Serif" font-size="10.00">portaudio.h</text>
</g>
<!-- Node9&#45;&gt;Node12 -->
<g id="edge14" class="edge"><title>Node9&#45;&gt;Node12</title>
<path fill="none" stroke="midnightblue" d="M570.476,-179.444C594.657,-170.438 632.918,-156.189 660.146,-146.049"/>
<polygon fill="midnightblue" stroke="midnightblue" points="661.482,-149.286 669.632,-142.516 659.039,-142.727 661.482,-149.286"/>
</g>
<!-- Node13 -->
<g id="node13" class="node"><title>Node13</title>
<polygon fill="white" stroke="#bfbfbf" points="745.5,-123.5 745.5,-142.5 927.5,-142.5 927.5,-123.5 745.5,-123.5"/>
<text text-anchor="middle" x="836.5" y="-130.5" font-family="Helvetica,sans-Serif" font-size="10.00">portaudiocpp/CallbackInterface.hxx</text>
</g>
<!-- Node9&#45;&gt;Node13 -->
<g id="edge15" class="edge"><title>Node9&#45;&gt;Node13</title>
<path fill="none" stroke="midnightblue" d="M591.079,-179.857C641.699,-170.399 725.322,-154.774 780.663,-144.433"/>
<polygon fill="midnightblue" stroke="midnightblue" points="781.466,-147.844 790.653,-142.567 780.18,-140.963 781.466,-147.844"/>
</g>
<!-- Node9&#45;&gt;Node14 -->
<g id="edge17" class="edge"><title>Node9&#45;&gt;Node14</title>
<path fill="none" stroke="midnightblue" d="M591.027,-183.485C661.181,-176.093 803.854,-160.593 935.075,-143.15"/>
<polygon fill="midnightblue" stroke="midnightblue" points="935.857,-146.577 945.306,-141.783 934.93,-139.639 935.857,-146.577"/>
</g>
<!-- Node20 -->
<g id="node20" class="node"><title>Node20</title>
<g id="a_node20"><a xlink:href="ringbuffer_8hpp.html" target="_top" xlink:title="The RingBuffer class template. ">
<polygon fill="white" stroke="black" points="348,-123.5 348,-142.5 429,-142.5 429,-123.5 348,-123.5"/>
<text text-anchor="middle" x="388.5" y="-130.5" font-family="Helvetica,sans-Serif" font-size="10.00">ringbuffer.hpp</text>
</a>
</g>
</g>
<!-- Node9&#45;&gt;Node20 -->
<g id="edge27" class="edge"><title>Node9&#45;&gt;Node20</title>
<path fill="none" stroke="midnightblue" d="M522.306,-179.444C495.557,-170.359 453.097,-155.939 423.195,-145.783"/>
<polygon fill="midnightblue" stroke="midnightblue" points="424.171,-142.418 413.576,-142.516 421.919,-149.046 424.171,-142.418"/>
</g>
<!-- Node14&#45;&gt;Node3 -->
<g id="edge20" class="edge"><title>Node14&#45;&gt;Node3</title>
<path fill="none" stroke="midnightblue" d="M996.507,-123.298C998.757,-103.85 1004.24,-56.49 1007.31,-29.9036"/>
<polygon fill="midnightblue" stroke="midnightblue" points="1010.83,-29.9592 1008.5,-19.6232 1003.88,-29.1546 1010.83,-29.9592"/>
</g>
<!-- Node14&#45;&gt;Node7 -->
<g id="edge26" class="edge"><title>Node14&#45;&gt;Node7</title>
<path fill="none" stroke="midnightblue" d="M945.294,-124.302C942.319,-123.858 939.37,-123.421 936.5,-123 836.466,-108.315 720.583,-92.1169 648.399,-82.1234"/>
<polygon fill="midnightblue" stroke="midnightblue" points="648.458,-78.5984 638.073,-80.6949 647.499,-85.5323 648.458,-78.5984"/>
</g>
<!-- Node14&#45;&gt;Node8 -->
<g id="edge19" class="edge"><title>Node14&#45;&gt;Node8</title>
<path fill="none" stroke="midnightblue" d="M971.711,-123.422C946.735,-114.403 906.331,-99.7765 871.5,-87 810.56,-64.6466 739.56,-38.2443 699.133,-23.1771"/>
<polygon fill="midnightblue" stroke="midnightblue" points="700.131,-19.8139 689.539,-19.6 697.686,-26.3729 700.131,-19.8139"/>
</g>
<!-- Node14&#45;&gt;Node11 -->
<g id="edge21" class="edge"><title>Node14&#45;&gt;Node11</title>
<path fill="none" stroke="midnightblue" d="M1004.81,-123.475C1014.95,-114.197 1031.36,-99.1706 1043.75,-87.831"/>
<polygon fill="midnightblue" stroke="midnightblue" points="1046.19,-90.3429 1051.2,-81.0091 1041.46,-85.1795 1046.19,-90.3429"/>
</g>
<!-- Node15 -->
<g id="node15" class="node"><title>Node15</title>
<polygon fill="white" stroke="#bfbfbf" points="881,-62 881,-81 922,-81 922,-62 881,-62"/>
<text text-anchor="middle" x="901.5" y="-69" font-family="Helvetica,sans-Serif" font-size="10.00">array</text>
</g>
<!-- Node14&#45;&gt;Node15 -->
<g id="edge18" class="edge"><title>Node14&#45;&gt;Node15</title>
<path fill="none" stroke="midnightblue" d="M982.032,-123.475C966.815,-113.843 941.813,-98.0175 923.699,-86.5517"/>
<polygon fill="midnightblue" stroke="midnightblue" points="925.264,-83.4002 914.943,-81.0091 921.521,-89.3149 925.264,-83.4002"/>
</g>
<!-- Node16 -->
<g id="node16" class="node"><title>Node16</title>
<polygon fill="white" stroke="#bfbfbf" points="940,-62 940,-81 981,-81 981,-62 940,-62"/>
<text text-anchor="middle" x="960.5" y="-69" font-family="Helvetica,sans-Serif" font-size="10.00">sox.h</text>
</g>
<!-- Node14&#45;&gt;Node16 -->
<g id="edge22" class="edge"><title>Node14&#45;&gt;Node16</title>
<path fill="none" stroke="midnightblue" d="M990.485,-123.475C985.339,-114.727 977.188,-100.869 970.682,-89.8093"/>
<polygon fill="midnightblue" stroke="midnightblue" points="973.592,-87.8539 965.505,-81.0091 967.559,-91.403 973.592,-87.8539"/>
</g>
<!-- Node17 -->
<g id="node17" class="node"><title>Node17</title>
<g id="a_node17"><a xlink:href="errors_8hpp.html" target="_top" xlink:title="Declarations of the playd Error exception set. ">
<polygon fill="white" stroke="black" points="428,-62 428,-81 501,-81 501,-62 428,-62"/>
<text text-anchor="middle" x="464.5" y="-69" font-family="Helvetica,sans-Serif" font-size="10.00">../errors.hpp</text>
</a>
</g>
</g>
<!-- Node14&#45;&gt;Node17 -->
<g id="edge23" class="edge"><title>Node14&#45;&gt;Node17</title>
<path fill="none" stroke="midnightblue" d="M945.319,-124.11C942.338,-123.715 939.381,-123.341 936.5,-123 747.368,-100.628 696.233,-124.447 509.5,-87 505.539,-86.2057 501.438,-85.1808 497.396,-84.0434"/>
<polygon fill="midnightblue" stroke="midnightblue" points="498.175,-80.6217 487.589,-81.0514 496.132,-87.317 498.175,-80.6217"/>
</g>
<!-- Node18 -->
<g id="node18" class="node"><title>Node18</title>
<polygon fill="white" stroke="#bfbfbf" points="436,-0.5 436,-19.5 493,-19.5 493,-0.5 436,-0.5"/>
<text text-anchor="middle" x="464.5" y="-7.5" font-family="Helvetica,sans-Serif" font-size="10.00">iostream</text>
</g>
<!-- Node17&#45;&gt;Node18 -->
<g id="edge24" class="edge"><title>Node17&#45;&gt;Node18</title>
<path fill="none" stroke="midnightblue" d="M464.5,-61.9751C464.5,-53.5803 464.5,-40.4806 464.5,-29.6631"/>
<polygon fill="midnightblue" stroke="midnightblue" points="468,-29.5091 464.5,-19.5091 461,-29.5091 468,-29.5091"/>
</g>
<!-- Node19 -->
<g id="node19" class="node"><title>Node19</title>
<polygon fill="white" stroke="#bfbfbf" points="177.5,-0.5 177.5,-19.5 231.5,-19.5 231.5,-0.5 177.5,-0.5"/>
<text text-anchor="middle" x="204.5" y="-7.5" font-family="Helvetica,sans-Serif" font-size="10.00">sstream</text>
</g>
<!-- Node17&#45;&gt;Node19 -->
<g id="edge25" class="edge"><title>Node17&#45;&gt;Node19</title>
<path fill="none" stroke="midnightblue" d="M438.841,-61.9225C432.248,-59.8539 425.142,-57.7407 418.5,-56 357.091,-39.9063 284.603,-25.6379 241.709,-17.6765"/>
<polygon fill="midnightblue" stroke="midnightblue" points="242.193,-14.207 231.725,-15.8383 240.926,-21.0913 242.193,-14.207"/>
</g>
<!-- Node20&#45;&gt;Node17 -->
<g id="edge30" class="edge"><title>Node20&#45;&gt;Node17</title>
<path fill="none" stroke="midnightblue" d="M399.389,-123.475C411.466,-114.02 431.167,-98.5961 445.74,-87.1871"/>
<polygon fill="midnightblue" stroke="midnightblue" points="447.915,-89.9295 453.631,-81.0091 443.6,-84.4177 447.915,-89.9295"/>
</g>
<!-- Node21 -->
<g id="node21" class="node"><title>Node21</title>
<polygon fill="white" stroke="#bfbfbf" points="359,-62 359,-81 410,-81 410,-62 359,-62"/>
<text text-anchor="middle" x="384.5" y="-69" font-family="Helvetica,sans-Serif" font-size="10.00">cassert</text>
</g>
<!-- Node20&#45;&gt;Node21 -->
<g id="edge28" class="edge"><title>Node20&#45;&gt;Node21</title>
<path fill="none" stroke="midnightblue" d="M387.927,-123.475C387.363,-115.08 386.482,-101.981 385.755,-91.1631"/>
<polygon fill="midnightblue" stroke="midnightblue" points="389.235,-90.7518 385.072,-81.0091 382.251,-91.2214 389.235,-90.7518"/>
</g>
<!-- Node22 -->
<g id="node22" class="node"><title>Node22</title>
<polygon fill="white" stroke="#bfbfbf" points="220,-56.5 220,-86.5 341,-86.5 341,-56.5 220,-56.5"/>
<text text-anchor="start" x="228" y="-74.5" font-family="Helvetica,sans-Serif" font-size="10.00">../contrib/pa_ringbuffer</text>
<text text-anchor="middle" x="280.5" y="-63.5" font-family="Helvetica,sans-Serif" font-size="10.00">/pa_ringbuffer.h</text>
</g>
<!-- Node20&#45;&gt;Node22 -->
<g id="edge29" class="edge"><title>Node20&#45;&gt;Node22</title>
<path fill="none" stroke="midnightblue" d="M373.026,-123.475C357.921,-115.153 334.423,-102.207 314.888,-91.445"/>
<polygon fill="midnightblue" stroke="midnightblue" points="316.401,-88.2829 305.953,-86.523 313.023,-94.414 316.401,-88.2829"/>
</g>
<!-- Node23 -->
<g id="node23" class="node"><title>Node23</title>
<g id="a_node23"><a xlink:href="messages_8h.html" target="_top" xlink:title="Constant human&#45;readable messages used within playd. ">
<polygon fill="white" stroke="black" points="121.5,-62 121.5,-81 201.5,-81 201.5,-62 121.5,-62"/>
<text text-anchor="middle" x="161.5" y="-69" font-family="Helvetica,sans-Serif" font-size="10.00">../messages.h</text>
</a>
</g>
</g>
<!-- Node20&#45;&gt;Node23 -->
<g id="edge31" class="edge"><title>Node20&#45;&gt;Node23</title>
<path fill="none" stroke="midnightblue" d="M352.929,-123.452C316.919,-114.694 259.684,-100.488 210.5,-87 206.909,-86.0153 203.179,-84.9637 199.451,-83.8937"/>
<polygon fill="midnightblue" stroke="midnightblue" points="200.268,-80.4861 189.688,-81.0514 198.311,-87.2071 200.268,-80.4861"/>
</g>
<!-- Node23&#45;&gt;Node3 -->
<g id="edge32" class="edge"><title>Node23&#45;&gt;Node3</title>
<path fill="none" stroke="midnightblue" d="M186.163,-61.9918C193.869,-59.6623 202.459,-57.3968 210.5,-56 361.95,-29.6931 848.546,-15.2428 977.752,-11.807"/>
<polygon fill="midnightblue" stroke="midnightblue" points="977.882,-15.3049 987.786,-11.5434 977.698,-8.30735 977.882,-15.3049"/>
</g>
<!-- Node24&#45;&gt;Node3 -->
<g id="edge37" class="edge"><title>Node24&#45;&gt;Node3</title>
<path fill="none" stroke="midnightblue" d="M867.946,-181.576C872.49,-180.687 877.111,-179.804 881.5,-179 977.23,-161.454 1024.9,-207.817 1097.5,-143 1126.83,-116.816 1135.09,-88.8594 1113.5,-56 1097.53,-31.6851 1065.31,-20.4457 1040.94,-15.289"/>
<polygon fill="midnightblue" stroke="midnightblue" points="1041.52,-11.8371 1031.05,-13.431 1040.23,-18.7168 1041.52,-11.8371"/>
</g>
<!-- Node24&#45;&gt;Node4 -->
<g id="edge38" class="edge"><title>Node24&#45;&gt;Node4</title>
<path fill="none" stroke="midnightblue" d="M805.402,-181.217C769.888,-173.327 709.85,-159.551 649.428,-143.124"/>
<polygon fill="midnightblue" stroke="midnightblue" points="650.301,-139.734 639.731,-140.465 648.45,-146.485 650.301,-139.734"/>
</g>
<!-- Node24&#45;&gt;Node8 -->
<g id="edge35" class="edge"><title>Node24&#45;&gt;Node8</title>
<path fill="none" stroke="midnightblue" d="M867.962,-181.657C872.503,-180.757 877.12,-179.849 881.5,-179 966.735,-162.486 1007.92,-199.89 1073.5,-143 1103.4,-117.066 1118.98,-85.4191 1092.5,-56 1066.37,-26.9607 796.137,-15.2754 700.122,-12.0198"/>
<polygon fill="midnightblue" stroke="midnightblue" points="700.19,-8.52021 690.08,-11.6887 699.959,-15.5164 700.19,-8.52021"/>
</g>
<!-- Node24&#45;&gt;Node10 -->
<g id="edge36" class="edge"><title>Node24&#45;&gt;Node10</title>
<path fill="none" stroke="midnightblue" d="M867.92,-181.423C872.467,-180.556 877.097,-179.72 881.5,-179 1006.19,-158.598 1039,-164.567 1163.5,-143 1164.75,-142.783 1166.02,-142.554 1167.31,-142.315"/>
<polygon fill="midnightblue" stroke="midnightblue" points="1168.09,-145.727 1177.22,-140.343 1166.73,-138.862 1168.09,-145.727"/>
</g>
<!-- Node24&#45;&gt;Node11 -->
<g id="edge39" class="edge"><title>Node24&#45;&gt;Node11</title>
<path fill="none" stroke="midnightblue" d="M867.601,-181.703C927.64,-169.529 1053.72,-143.881 1054.5,-143 1066.84,-129.104 1066.69,-107.012 1064.5,-91.2632"/>
<polygon fill="midnightblue" stroke="midnightblue" points="1067.9,-90.3577 1062.7,-81.1248 1061,-91.5831 1067.9,-90.3577"/>
</g>
<!-- Node24&#45;&gt;Node12 -->
<g id="edge40" class="edge"><title>Node24&#45;&gt;Node12</title>
<path fill="none" stroke="midnightblue" d="M813.683,-179.444C789.668,-170.438 751.671,-156.189 724.631,-146.049"/>
<polygon fill="midnightblue" stroke="midnightblue" points="725.803,-142.751 715.21,-142.516 723.345,-149.305 725.803,-142.751"/>
</g>
<!-- Node24&#45;&gt;Node13 -->
<g id="edge41" class="edge"><title>Node24&#45;&gt;Node13</title>
<path fill="none" stroke="midnightblue" d="M836.5,-179.083C836.5,-172.006 836.5,-161.861 836.5,-152.986"/>
<polygon fill="midnightblue" stroke="midnightblue" points="840,-152.751 836.5,-142.751 833,-152.751 840,-152.751"/>
</g>
<!-- Node24&#45;&gt;Node14 -->
<g id="edge42" class="edge"><title>Node24&#45;&gt;Node14</title>
<path fill="none" stroke="midnightblue" d="M861.694,-179.444C888.443,-170.359 930.903,-155.939 960.805,-145.783"/>
<polygon fill="midnightblue" stroke="midnightblue" points="962.081,-149.046 970.424,-142.516 959.829,-142.418 962.081,-149.046"/>
</g>
<!-- Node25&#45;&gt;Node10 -->
<g id="edge45" class="edge"><title>Node25&#45;&gt;Node10</title>
<path fill="none" stroke="midnightblue" d="M1340.16,-403.375C1320.6,-364.54 1240.49,-205.47 1213.46,-151.789"/>
<polygon fill="midnightblue" stroke="midnightblue" points="1216.42,-149.881 1208.79,-142.524 1210.16,-153.03 1216.42,-149.881"/>
</g>
<!-- Node25&#45;&gt;Node11 -->
<g id="edge46" class="edge"><title>Node25&#45;&gt;Node11</title>
<path fill="none" stroke="midnightblue" d="M1372.73,-405.316C1416.69,-393.037 1496.5,-362.425 1496.5,-302 1496.5,-302 1496.5,-302 1496.5,-244 1496.5,-178.023 1466.81,-157.378 1410.5,-123 1357.58,-90.6905 1170.26,-77.9272 1093.59,-73.9802"/>
<polygon fill="midnightblue" stroke="midnightblue" points="1093.69,-70.4811 1083.53,-73.4807 1093.34,-77.4725 1093.69,-70.4811"/>
</g>
<!-- Node26 -->
<g id="node26" class="node"><title>Node26</title>
<polygon fill="white" stroke="#bfbfbf" points="1364,-123.5 1364,-142.5 1401,-142.5 1401,-123.5 1364,-123.5"/>
<text text-anchor="middle" x="1382.5" y="-130.5" font-family="Helvetica,sans-Serif" font-size="10.00">map</text>
</g>
<!-- Node25&#45;&gt;Node26 -->
<g id="edge44" class="edge"><title>Node25&#45;&gt;Node26</title>
<path fill="none" stroke="midnightblue" d="M1348.58,-403.338C1361.74,-374.889 1402.95,-281.427 1416.5,-199 1417.94,-190.229 1419.33,-187.428 1416.5,-179 1412.9,-168.251 1405.6,-158.02 1398.68,-150.038"/>
<polygon fill="midnightblue" stroke="midnightblue" points="1401.15,-147.556 1391.79,-142.605 1396.02,-152.317 1401.15,-147.556"/>
</g>
<!-- Node25&#45;&gt;Node27 -->
<g id="edge47" class="edge"><title>Node25&#45;&gt;Node27</title>
<path fill="none" stroke="midnightblue" d="M1316.01,-406.015C1273.17,-397.011 1191.49,-379.849 1138.28,-368.67"/>
<polygon fill="midnightblue" stroke="midnightblue" points="1138.87,-365.218 1128.37,-366.587 1137.43,-372.068 1138.87,-365.218"/>
</g>
<!-- Node27&#45;&gt;Node3 -->
<g id="edge52" class="edge"><title>Node27&#45;&gt;Node3</title>
<path fill="none" stroke="midnightblue" d="M1136.89,-349.865C1271.73,-331.104 1629.17,-266.809 1522.5,-123 1464.28,-44.5077 1143.72,-18.9311 1041.11,-12.6925"/>
<polygon fill="midnightblue" stroke="midnightblue" points="1041.24,-9.19448 1031.05,-12.1014 1040.83,-16.1824 1041.24,-9.19448"/>
</g>
<!-- Node27&#45;&gt;Node4 -->
<g id="edge53" class="edge"><title>Node27&#45;&gt;Node4</title>
<path fill="none" stroke="midnightblue" d="M1038.49,-352.569C991.011,-347.827 917.833,-336.712 859.5,-311 764.806,-269.261 671.672,-184.795 635.391,-149.77"/>
<polygon fill="midnightblue" stroke="midnightblue" points="637.76,-147.191 628.158,-142.711 632.87,-152.201 637.76,-147.191"/>
</g>
<!-- Node27&#45;&gt;Node8 -->
<g id="edge48" class="edge"><title>Node27&#45;&gt;Node8</title>
<path fill="none" stroke="midnightblue" d="M1038.33,-353.19C869.696,-342.703 317.472,-301.088 177.5,-199 131,-165.086 127.459,-142.576 112.5,-87 108.919,-73.6957 103.16,-66.1291 112.5,-56 121.38,-46.3698 513.968,-20.6889 632.783,-13.1246"/>
<polygon fill="midnightblue" stroke="midnightblue" points="633.017,-16.617 642.775,-12.4902 632.573,-9.63102 633.017,-16.617"/>
</g>
<!-- Node27&#45;&gt;Node10 -->
<g id="edge51" class="edge"><title>Node27&#45;&gt;Node10</title>
<path fill="none" stroke="midnightblue" d="M1050.13,-347.396C1007.08,-335.181 938.76,-308.129 911.5,-255 903.037,-238.506 902.615,-194.63 917.5,-179 926.075,-169.996 1091.78,-148.157 1167.42,-138.603"/>
<polygon fill="midnightblue" stroke="midnightblue" points="1167.98,-142.06 1177.47,-137.339 1167.11,-135.115 1167.98,-142.06"/>
</g>
<!-- Node27&#45;&gt;Node24 -->
<g id="edge54" class="edge"><title>Node27&#45;&gt;Node24</title>
<path fill="none" stroke="midnightblue" d="M1038.18,-350.97C984.07,-344.507 901.78,-331.599 878.5,-311 848.617,-284.558 839.991,-235.733 837.504,-208.896"/>
<polygon fill="midnightblue" stroke="midnightblue" points="840.97,-208.291 836.755,-198.57 833.988,-208.798 840.97,-208.291"/>
</g>
<!-- Node27&#45;&gt;Node26 -->
<g id="edge50" class="edge"><title>Node27&#45;&gt;Node26</title>
<path fill="none" stroke="midnightblue" d="M1136.57,-353.953C1181.36,-350.206 1248.08,-339.78 1298.5,-311 1357.23,-277.475 1376.93,-262.007 1401.5,-199 1407.63,-183.288 1400.92,-164.777 1393.84,-151.536"/>
<polygon fill="midnightblue" stroke="midnightblue" points="1396.65,-149.411 1388.56,-142.572 1390.62,-152.964 1396.65,-149.411"/>
</g>
<!-- Node28 -->
<g id="node28" class="node"><title>Node28</title>
<polygon fill="white" stroke="#bfbfbf" points="1125,-235.5 1125,-254.5 1202,-254.5 1202,-235.5 1125,-235.5"/>
<text text-anchor="middle" x="1163.5" y="-242.5" font-family="Helvetica,sans-Serif" font-size="10.00">initializer_list</text>
</g>
<!-- Node27&#45;&gt;Node28 -->
<g id="edge49" class="edge"><title>Node27&#45;&gt;Node28</title>
<path fill="none" stroke="midnightblue" d="M1093.46,-347.368C1106.01,-329.215 1135.31,-286.802 1151.76,-262.99"/>
<polygon fill="midnightblue" stroke="midnightblue" points="1154.76,-264.808 1157.56,-254.591 1149,-260.829 1154.76,-264.808"/>
</g>
<!-- Node29 -->
<g id="node29" class="node"><title>Node29</title>
<g id="a_node29"><a xlink:href="io__response_8hpp.html" target="_top" xlink:title="Declaration of classes pertaining to responses to the client. ">
<polygon fill="white" stroke="black" points="1278.5,-179.5 1278.5,-198.5 1392.5,-198.5 1392.5,-179.5 1278.5,-179.5"/>
<text text-anchor="middle" x="1335.5" y="-186.5" font-family="Helvetica,sans-Serif" font-size="10.00">../io/io_response.hpp</text>
</a>
</g>
</g>
<!-- Node27&#45;&gt;Node29 -->
<g id="edge55" class="edge"><title>Node27&#45;&gt;Node29</title>
<path fill="none" stroke="midnightblue" d="M1136.53,-355.272C1177.4,-352.275 1235.11,-342.208 1274.5,-311 1307.74,-284.667 1324.41,-235.43 1331.37,-208.596"/>
<polygon fill="midnightblue" stroke="midnightblue" points="1334.84,-209.142 1333.78,-198.6 1328.03,-207.503 1334.84,-209.142"/>
</g>
<!-- Node27&#45;&gt;Node31 -->
<g id="edge60" class="edge"><title>Node27&#45;&gt;Node31</title>
<path fill="none" stroke="midnightblue" d="M1038.26,-356.389C856.003,-357.455 226.281,-357.698 150.5,-311 120.233,-292.349 75.6727,-193.435 58.0606,-152.137"/>
<polygon fill="midnightblue" stroke="midnightblue" points="61.2133,-150.606 54.1011,-142.753 54.7639,-153.327 61.2133,-150.606"/>
</g>
<!-- Node32 -->
<g id="node32" class="node"><title>Node32</title>
<g id="a_node32"><a xlink:href="player__file_8hpp.html" target="_top" xlink:title="Declaration of the PlayerFile class, and associated types. ">
<polygon fill="white" stroke="black" points="1015.5,-291.5 1015.5,-310.5 1101.5,-310.5 1101.5,-291.5 1015.5,-291.5"/>
<text text-anchor="middle" x="1058.5" y="-298.5" font-family="Helvetica,sans-Serif" font-size="10.00">player_file.hpp</text>
</a>
</g>
</g>
<!-- Node27&#45;&gt;Node32 -->
<g id="edge65" class="edge"><title>Node27&#45;&gt;Node32</title>
<path fill="none" stroke="midnightblue" d="M1082.71,-347.083C1078.74,-339.691 1072.97,-328.953 1068.07,-319.811"/>
<polygon fill="midnightblue" stroke="midnightblue" points="1071.01,-317.905 1063.2,-310.751 1064.85,-321.217 1071.01,-317.905"/>
</g>
<!-- Node33 -->
<g id="node33" class="node"><title>Node33</title>
<g id="a_node33"><a xlink:href="player__position_8hpp.html" target="_top" xlink:title="Declaration of the PlayerPosition class. ">
<polygon fill="white" stroke="black" points="921,-235.5 921,-254.5 1030,-254.5 1030,-235.5 921,-235.5"/>
<text text-anchor="middle" x="975.5" y="-242.5" font-family="Helvetica,sans-Serif" font-size="10.00">player_position.hpp</text>
</a>
</g>
</g>
<!-- Node27&#45;&gt;Node33 -->
<g id="edge73" class="edge"><title>Node27&#45;&gt;Node33</title>
<path fill="none" stroke="midnightblue" d="M1063.66,-347.39C1046.01,-340.009 1022.36,-327.881 1006.5,-311 993.946,-297.641 985.603,-278.262 980.766,-264.141"/>
<polygon fill="midnightblue" stroke="midnightblue" points="984.088,-263.036 977.739,-254.555 977.413,-265.144 984.088,-263.036"/>
</g>
<!-- Node35 -->
<g id="node35" class="node"><title>Node35</title>
<g id="a_node35"><a xlink:href="player__state_8hpp.html" target="_top" xlink:title="Declaration of the PlayerState class, and associated types. ">
<polygon fill="white" stroke="black" points="1171,-291.5 1171,-310.5 1266,-310.5 1266,-291.5 1171,-291.5"/>
<text text-anchor="middle" x="1218.5" y="-298.5" font-family="Helvetica,sans-Serif" font-size="10.00">player_state.hpp</text>
</a>
</g>
</g>
<!-- Node27&#45;&gt;Node35 -->
<g id="edge74" class="edge"><title>Node27&#45;&gt;Node35</title>
<path fill="none" stroke="midnightblue" d="M1108.26,-347.444C1129.82,-338.557 1163.76,-324.563 1188.29,-314.451"/>
<polygon fill="midnightblue" stroke="midnightblue" points="1189.93,-317.563 1197.84,-310.516 1187.26,-311.092 1189.93,-317.563"/>
</g>
<!-- Node29&#45;&gt;Node3 -->
<g id="edge58" class="edge"><title>Node29&#45;&gt;Node3</title>
<path fill="none" stroke="midnightblue" d="M1334.2,-179.181C1330.15,-155.096 1315.42,-87.8816 1273.5,-56 1237.46,-28.584 1103.4,-16.8354 1041.37,-12.785"/>
<polygon fill="midnightblue" stroke="midnightblue" points="1041.21,-9.26836 1031.01,-12.137 1040.77,-16.2547 1041.21,-9.26836"/>
</g>
<!-- Node29&#45;&gt;Node17 -->
<g id="edge59" class="edge"><title>Node29&#45;&gt;Node17</title>
<path fill="none" stroke="midnightblue" d="M1326.49,-179.214C1310.65,-164.421 1276.11,-134.983 1240.5,-123 1086.35,-71.1244 669.5,-116.192 509.5,-87 505.321,-86.2376 500.993,-85.1909 496.747,-84.006"/>
<polygon fill="midnightblue" stroke="midnightblue" points="497.682,-80.6321 487.096,-81.0592 495.638,-87.327 497.682,-80.6321"/>
</g>
<!-- Node29&#45;&gt;Node26 -->
<g id="edge56" class="edge"><title>Node29&#45;&gt;Node26</title>
<path fill="none" stroke="midnightblue" d="M1343.26,-179.083C1350.04,-171.298 1360.04,-159.801 1368.26,-150.367"/>
<polygon fill="midnightblue" stroke="midnightblue" points="1370.96,-152.592 1374.88,-142.751 1365.68,-147.996 1370.96,-152.592"/>
</g>
<!-- Node30 -->
<g id="node30" class="node"><title>Node30</title>
<polygon fill="white" stroke="#bfbfbf" points="1458,-123.5 1458,-142.5 1513,-142.5 1513,-123.5 1458,-123.5"/>
<text text-anchor="middle" x="1485.5" y="-130.5" font-family="Helvetica,sans-Serif" font-size="10.00">ostream</text>
</g>
<!-- Node29&#45;&gt;Node30 -->
<g id="edge57" class="edge"><title>Node29&#45;&gt;Node30</title>
<path fill="none" stroke="midnightblue" d="M1359.27,-179.444C1384.39,-170.399 1424.21,-156.064 1452.4,-145.916"/>
<polygon fill="midnightblue" stroke="midnightblue" points="1453.62,-149.197 1461.84,-142.516 1451.25,-142.611 1453.62,-149.197"/>
</g>
<!-- Node31&#45;&gt;Node8 -->
<g id="edge61" class="edge"><title>Node31&#45;&gt;Node8</title>
<path fill="none" stroke="midnightblue" d="M50.9576,-123.167C52.3244,-106.862 57.7737,-72.2232 79.5,-56 90.6668,-47.6616 509.116,-20.8536 632.557,-13.1118"/>
<polygon fill="midnightblue" stroke="midnightblue" points="633.147,-16.5818 642.909,-12.4639 632.71,-9.59549 633.147,-16.5818"/>
</g>
<!-- Node31&#45;&gt;Node17 -->
<g id="edge63" class="edge"><title>Node31&#45;&gt;Node17</title>
<path fill="none" stroke="midnightblue" d="M101.053,-126.98C187.259,-118.225 359.135,-99.8717 418.5,-87 422.438,-86.1461 426.521,-85.1008 430.556,-83.9663"/>
<polygon fill="midnightblue" stroke="midnightblue" points="431.801,-87.2468 440.374,-81.0205 429.79,-80.5421 431.801,-87.2468"/>
</g>
<!-- Node31&#45;&gt;Node19 -->
<g id="edge62" class="edge"><title>Node31&#45;&gt;Node19</title>
<path fill="none" stroke="midnightblue" d="M45.9646,-123.455C38.5726,-108.221 26.2079,-76.0859 41.5,-56 56.6875,-36.0514 124.172,-22.6899 167.405,-16.0061"/>
<polygon fill="midnightblue" stroke="midnightblue" points="167.924,-19.4676 177.296,-14.5274 166.889,-12.5446 167.924,-19.4676"/>
</g>
<!-- Node31&#45;&gt;Node23 -->
<g id="edge64" class="edge"><title>Node31&#45;&gt;Node23</title>
<path fill="none" stroke="midnightblue" d="M66.4036,-123.475C84.7846,-113.622 115.256,-97.2883 136.745,-85.7697"/>
<polygon fill="midnightblue" stroke="midnightblue" points="138.466,-88.8183 145.626,-81.0091 135.159,-82.6488 138.466,-88.8183"/>
</g>
<!-- Node32&#45;&gt;Node2 -->
<g id="edge67" class="edge"><title>Node32&#45;&gt;Node2</title>
<path fill="none" stroke="midnightblue" d="M1015.26,-295.763C921.712,-286.594 699.531,-264.82 582.53,-253.353"/>
<polygon fill="midnightblue" stroke="midnightblue" points="582.867,-249.87 572.573,-252.377 582.184,-256.836 582.867,-249.87"/>
</g>
<!-- Node32&#45;&gt;Node10 -->
<g id="edge66" class="edge"><title>Node32&#45;&gt;Node10</title>
<path fill="none" stroke="midnightblue" d="M1061.17,-291.383C1065.49,-278.316 1074.93,-253.097 1088.5,-235 1115.61,-198.849 1157.56,-166.36 1182.89,-148.487"/>
<polygon fill="midnightblue" stroke="midnightblue" points="1185.19,-151.156 1191.41,-142.584 1181.2,-145.402 1185.19,-151.156"/>
</g>
<!-- Node32&#45;&gt;Node29 -->
<g id="edge68" class="edge"><title>Node32&#45;&gt;Node29</title>
<path fill="none" stroke="midnightblue" d="M1063.54,-291.224C1072.21,-276.983 1091.36,-249.024 1115.5,-235 1162.04,-207.962 1222.36,-196.999 1268.07,-192.637"/>
<polygon fill="midnightblue" stroke="midnightblue" points="1268.52,-196.111 1278.18,-191.756 1267.91,-189.137 1268.52,-196.111"/>
</g>
<!-- Node32&#45;&gt;Node33 -->
<g id="edge69" class="edge"><title>Node32&#45;&gt;Node33</title>
<path fill="none" stroke="midnightblue" d="M1045.16,-291.324C1032.34,-282.979 1012.72,-270.212 997.56,-260.352"/>
<polygon fill="midnightblue" stroke="midnightblue" points="999.093,-257.174 988.802,-254.655 995.276,-263.042 999.093,-257.174"/>
</g>
<!-- Node33&#45;&gt;Node14 -->
<g id="edge71" class="edge"><title>Node33&#45;&gt;Node14</title>
<path fill="none" stroke="midnightblue" d="M977.069,-235.368C980.297,-217.617 987.742,-176.666 992.119,-152.597"/>
<polygon fill="midnightblue" stroke="midnightblue" points="995.593,-153.056 993.938,-142.591 988.705,-151.804 995.593,-153.056"/>
</g>
<!-- Node33&#45;&gt;Node29 -->
<g id="edge72" class="edge"><title>Node33&#45;&gt;Node29</title>
<path fill="none" stroke="midnightblue" d="M1030.18,-235.799C1094.07,-226.215 1199.78,-210.358 1268.54,-200.045"/>
<polygon fill="midnightblue" stroke="midnightblue" points="1269.45,-203.447 1278.82,-198.502 1268.41,-196.524 1269.45,-203.447"/>
</g>
<!-- Node34 -->
<g id="node34" class="node"><title>Node34</title>
<polygon fill="white" stroke="#bfbfbf" points="927,-179.5 927,-198.5 958,-198.5 958,-179.5 927,-179.5"/>
<text text-anchor="middle" x="942.5" y="-186.5" font-family="Helvetica,sans-Serif" font-size="10.00">set</text>
</g>
<!-- Node33&#45;&gt;Node34 -->
<g id="edge70" class="edge"><title>Node33&#45;&gt;Node34</title>
<path fill="none" stroke="midnightblue" d="M970.051,-235.083C965.486,-227.613 958.832,-216.724 953.207,-207.52"/>
<polygon fill="midnightblue" stroke="midnightblue" points="956.049,-205.459 947.848,-198.751 950.076,-209.109 956.049,-205.459"/>
</g>
<!-- Node35&#45;&gt;Node8 -->
<g id="edge75" class="edge"><title>Node35&#45;&gt;Node8</title>
<path fill="none" stroke="midnightblue" d="M1223.04,-291.477C1236.71,-264.507 1274.56,-179.481 1240.5,-123 1207.54,-68.3509 1174.6,-74.4256 1113.5,-56 1036.09,-32.6562 790.892,-17.6087 700.443,-12.7303"/>
<polygon fill="midnightblue" stroke="midnightblue" points="700.373,-9.2217 690.201,-12.1859 700.001,-16.2118 700.373,-9.2217"/>
</g>
<!-- Node35&#45;&gt;Node28 -->
<g id="edge76" class="edge"><title>Node35&#45;&gt;Node28</title>
<path fill="none" stroke="midnightblue" d="M1209.42,-291.083C1201.33,-283.141 1189.3,-271.335 1179.59,-261.797"/>
<polygon fill="midnightblue" stroke="midnightblue" points="1182,-259.26 1172.41,-254.751 1177.1,-264.254 1182,-259.26"/>
</g>
<!-- Node35&#45;&gt;Node29 -->
<g id="edge77" class="edge"><title>Node35&#45;&gt;Node29</title>
<path fill="none" stroke="midnightblue" d="M1227.68,-291.368C1247.33,-272.894 1293.71,-229.293 1318.75,-205.744"/>
<polygon fill="midnightblue" stroke="midnightblue" points="1321.47,-207.991 1326.36,-198.591 1316.68,-202.891 1321.47,-207.991"/>
</g>
<!-- Node36&#45;&gt;Node27 -->
<g id="edge82" class="edge"><title>Node36&#45;&gt;Node27</title>
<path fill="none" stroke="midnightblue" d="M1254.98,-515.075C1226.28,-488.153 1140.29,-407.514 1103.98,-373.453"/>
<polygon fill="midnightblue" stroke="midnightblue" points="1106.32,-370.856 1096.64,-366.568 1101.54,-375.962 1106.32,-370.856"/>
</g>
<!-- Node36&#45;&gt;Node29 -->
<g id="edge84" class="edge"><title>Node36&#45;&gt;Node29</title>
<path fill="none" stroke="midnightblue" d="M1312.62,-517.033C1399.25,-503.129 1572.5,-468.509 1572.5,-414 1572.5,-414 1572.5,-414 1572.5,-300 1572.5,-224.662 1472.75,-200.779 1402.68,-193.296"/>
<polygon fill="midnightblue" stroke="midnightblue" points="1402.86,-189.797 1392.57,-192.306 1402.18,-196.764 1402.86,-189.797"/>
</g>
<!-- Node36&#45;&gt;Node30 -->
<g id="edge79" class="edge"><title>Node36&#45;&gt;Node30</title>
<path fill="none" stroke="midnightblue" d="M1312.61,-518.885C1407.68,-507.435 1610.5,-475.771 1610.5,-414 1610.5,-414 1610.5,-414 1610.5,-244 1610.5,-195.173 1556.08,-162.892 1519.06,-146.578"/>
<polygon fill="midnightblue" stroke="midnightblue" points="1520.18,-143.25 1509.6,-142.587 1517.45,-149.7 1520.18,-143.25"/>
</g>
<!-- Node36&#45;&gt;Node34 -->
<g id="edge80" class="edge"><title>Node36&#45;&gt;Node34</title>
<path fill="none" stroke="midnightblue" d="M1216.13,-522.32C1100.29,-516.985 816.5,-495.59 816.5,-414 816.5,-414 816.5,-414 816.5,-300 816.5,-247.047 880.433,-213.719 917.217,-198.926"/>
<polygon fill="midnightblue" stroke="midnightblue" points="918.718,-202.098 926.797,-195.244 916.207,-195.564 918.718,-202.098"/>
</g>
<!-- Node36&#45;&gt;Node36 -->
<g id="edge83" class="edge"><title>Node36&#45;&gt;Node36</title>
<path fill="none" stroke="midnightblue" d="M1292.65,-534.525C1311.78,-537.308 1330.5,-534.133 1330.5,-525 1330.5,-517.508 1317.9,-514.026 1302.81,-514.552"/>
<polygon fill="midnightblue" stroke="midnightblue" points="1302.29,-511.085 1292.65,-515.475 1302.92,-518.056 1302.29,-511.085"/>
</g>
<!-- Node37 -->
<g id="node37" class="node"><title>Node37</title>
<polygon fill="white" stroke="#bfbfbf" points="1247,-459.5 1247,-478.5 1282,-478.5 1282,-459.5 1247,-459.5"/>
<text text-anchor="middle" x="1264.5" y="-466.5" font-family="Helvetica,sans-Serif" font-size="10.00">uv.h</text>
</g>
<!-- Node36&#45;&gt;Node37 -->
<g id="edge81" class="edge"><title>Node36&#45;&gt;Node37</title>
<path fill="none" stroke="midnightblue" d="M1264.5,-515.083C1264.5,-508.006 1264.5,-497.861 1264.5,-488.986"/>
<polygon fill="midnightblue" stroke="midnightblue" points="1268,-488.751 1264.5,-478.751 1261,-488.751 1268,-488.751"/>
</g>
<!-- Node38 -->
<g id="node38" class="node"><title>Node38</title>
<g id="a_node38"><a xlink:href="tokeniser_8hpp.html" target="_top" xlink:title="Declaration of the Tokeniser class. ">
<polygon fill="white" stroke="black" points="1304.5,-459.5 1304.5,-478.5 1384.5,-478.5 1384.5,-459.5 1304.5,-459.5"/>
<text text-anchor="middle" x="1344.5" y="-466.5" font-family="Helvetica,sans-Serif" font-size="10.00">tokeniser.hpp</text>
</a>
</g>
</g>
<!-- Node36&#45;&gt;Node38 -->
<g id="edge85" class="edge"><title>Node36&#45;&gt;Node38</title>
<path fill="none" stroke="midnightblue" d="M1277.35,-515.324C1289.72,-506.979 1308.63,-494.212 1323.24,-484.352"/>
<polygon fill="midnightblue" stroke="midnightblue" points="1325.35,-487.15 1331.68,-478.655 1321.43,-481.348 1325.35,-487.15"/>
</g>
<!-- Node38&#45;&gt;Node25 -->
<g id="edge86" class="edge"><title>Node38&#45;&gt;Node25</title>
<path fill="none" stroke="midnightblue" d="M1344.5,-459.083C1344.5,-452.006 1344.5,-441.861 1344.5,-432.986"/>
<polygon fill="midnightblue" stroke="midnightblue" points="1348,-432.751 1344.5,-422.751 1341,-432.751 1348,-432.751"/>
</g>
<!-- Node38&#45;&gt;Node29 -->
<g id="edge87" class="edge"><title>Node38&#45;&gt;Node29</title>
<path fill="none" stroke="midnightblue" d="M1354.94,-459.245C1363.92,-450.969 1376.25,-437.663 1381.5,-423 1384.5,-414.632 1382.1,-411.868 1381.5,-403 1376.38,-327.811 1381.08,-306.901 1358.5,-235 1355.51,-225.478 1350.64,-215.534 1346.14,-207.422"/>
<polygon fill="midnightblue" stroke="midnightblue" points="1349.06,-205.471 1341,-198.588 1343.01,-208.992 1349.06,-205.471"/>
</g>
</g>
</svg>
