<?xml version="1.0" encoding="UTF-8" standalone="no"?>
<!DOCTYPE svg PUBLIC "-//W3C//DTD SVG 1.1//EN"
 "http://www.w3.org/Graphics/SVG/1.1/DTD/svg11.dtd">
<!-- Generated by graphviz version 2.36.0 (20140111.2315)
 -->
<!-- Title: src/messages.h Pages: 1 -->
<svg width="1031pt" height="84pt"
 viewBox="0.00 0.00 1031.00 84.00" xmlns="http://www.w3.org/2000/svg" xmlns:xlink="http://www.w3.org/1999/xlink">
<g id="graph0" class="graph" transform="scale(1 1) rotate(0) translate(4 80)">
<title>src/messages.h</title>
<polygon fill="white" stroke="none" points="-4,4 -4,-80 1027,-80 1027,4 -4,4"/>
<!-- Node2 -->
<g id="node1" class="node"><title>Node2</title>
<polygon fill="#bfbfbf" stroke="black" points="537,-56.5 537,-75.5 629,-75.5 629,-56.5 537,-56.5"/>
<text text-anchor="middle" x="583" y="-63.5" font-family="Helvetica,sans-Serif" font-size="10.00">src/messages.h</text>
</g>
<!-- Node3 -->
<g id="node2" class="node"><title>Node3</title>
<g id="a_node2"><a xlink:href="audio_8cpp.html" target="_top" xlink:title="Implementation of the PipeAudio class. ">
<polygon fill="white" stroke="black" points="0,-0.5 0,-19.5 110,-19.5 110,-0.5 0,-0.5"/>
<text text-anchor="middle" x="55" y="-7.5" font-family="Helvetica,sans-Serif" font-size="10.00">src/audio/audio.cpp</text>
</a>
</g>
</g>
<!-- Node2&#45;&gt;Node3 -->
<g id="edge1" class="edge"><title>Node2&#45;&gt;Node3</title>
<path fill="none" stroke="midnightblue" d="M526.602,-60.3185C439.182,-52.8841 265.736,-37.4246 119,-20 116.103,-19.656 113.134,-19.289 110.138,-18.9073"/>
<polygon fill="midnightblue" stroke="midnightblue" points="526.569,-63.8281 536.829,-61.1849 527.16,-56.8531 526.569,-63.8281"/>
</g>
<!-- Node4 -->
<g id="node3" class="node"><title>Node4</title>
<g id="a_node3"><a xlink:href="audio__sink_8cpp.html" target="_top" xlink:title="Implementation of the AudioSink class. ">
<polygon fill="white" stroke="black" points="128,-0.5 128,-19.5 262,-19.5 262,-0.5 128,-0.5"/>
<text text-anchor="middle" x="195" y="-7.5" font-family="Helvetica,sans-Serif" font-size="10.00">src/audio/audio_sink.cpp</text>
</a>
</g>
</g>
<!-- Node2&#45;&gt;Node4 -->
<g id="edge2" class="edge"><title>Node2&#45;&gt;Node4</title>
<path fill="none" stroke="midnightblue" d="M526.741,-57.1701C454.775,-47.1542 330.581,-29.8695 256.279,-19.5285"/>
<polygon fill="midnightblue" stroke="midnightblue" points="526.581,-60.6815 536.968,-58.5934 527.546,-53.7483 526.581,-60.6815"/>
</g>
<!-- Node5 -->
<g id="node4" class="node"><title>Node5</title>
<g id="a_node4"><a xlink:href="ringbuffer_8cpp.html" target="_top" xlink:title="Implementation of the RingBuffer class. ">
<polygon fill="white" stroke="black" points="280,-0.5 280,-19.5 408,-19.5 408,-0.5 280,-0.5"/>
<text text-anchor="middle" x="344" y="-7.5" font-family="Helvetica,sans-Serif" font-size="10.00">src/audio/ringbuffer.cpp</text>
</a>
</g>
</g>
<!-- Node2&#45;&gt;Node5 -->
<g id="edge3" class="edge"><title>Node2&#45;&gt;Node5</title>
<path fill="none" stroke="midnightblue" d="M535.276,-54.2172C490.115,-44.0134 423.227,-28.9006 381.693,-19.5164"/>
<polygon fill="midnightblue" stroke="midnightblue" points="534.604,-57.6535 545.13,-56.4435 536.147,-50.8257 534.604,-57.6535"/>
</g>
<!-- Node6 -->
<g id="node5" class="node"><title>Node6</title>
<g id="a_node5"><a xlink:href="mp3_8cpp.html" target="_top" xlink:title="Implementation of the Mp3AudioSource class. ">
<polygon fill="white" stroke="black" points="426,-0.5 426,-19.5 572,-19.5 572,-0.5 426,-0.5"/>
<text text-anchor="middle" x="499" y="-7.5" font-family="Helvetica,sans-Serif" font-size="10.00">src/audio/sources/mp3.cpp</text>
</a>
</g>
</g>
<!-- Node2&#45;&gt;Node6 -->
<g id="edge4" class="edge"><title>Node2&#45;&gt;Node6</title>
<path fill="none" stroke="midnightblue" d="M561.068,-50.9005C545.665,-40.9986 525.554,-28.0705 512.463,-19.6545"/>
<polygon fill="midnightblue" stroke="midnightblue" points="559.199,-53.8605 569.504,-56.324 562.985,-47.9722 559.199,-53.8605"/>
</g>
<!-- Node7 -->
<g id="node6" class="node"><title>Node7</title>
<g id="a_node6"><a xlink:href="sndfile_8cpp.html" target="_top" xlink:title="Implementation of the SndfileAudioSource class. ">
<polygon fill="white" stroke="black" points="590.5,-0.5 590.5,-19.5 745.5,-19.5 745.5,-0.5 590.5,-0.5"/>
<text text-anchor="middle" x="668" y="-7.5" font-family="Helvetica,sans-Serif" font-size="10.00">src/audio/sources/sndfile.cpp</text>
</a>
</g>
</g>
<!-- Node2&#45;&gt;Node7 -->
<g id="edge5" class="edge"><title>Node2&#45;&gt;Node7</title>
<path fill="none" stroke="midnightblue" d="M605.194,-50.9005C620.78,-40.9986 641.13,-28.0705 654.377,-19.6545"/>
<polygon fill="midnightblue" stroke="midnightblue" points="603.221,-48.0073 596.657,-56.324 606.974,-53.9158 603.221,-48.0073"/>
</g>
<!-- Node8 -->
<g id="node7" class="node"><title>Node8</title>
<g id="a_node7"><a xlink:href="io_8cpp.html" target="_top" xlink:title="Implementation of the non&#45;virtual aspects of the IoCore class. ">
<polygon fill="white" stroke="black" points="764,-0.5 764,-19.5 826,-19.5 826,-0.5 764,-0.5"/>
<text text-anchor="middle" x="795" y="-7.5" font-family="Helvetica,sans-Serif" font-size="10.00">src/io.cpp</text>
</a>
</g>
</g>
<!-- Node2&#45;&gt;Node8 -->
<g id="edge6" class="edge"><title>Node2&#45;&gt;Node8</title>
<path fill="none" stroke="midnightblue" d="M626.296,-53.9717C667.232,-43.5446 727.647,-28.1559 763.979,-18.9015"/>
<polygon fill="midnightblue" stroke="midnightblue" points="625.419,-50.5834 616.592,-56.4435 627.147,-57.3668 625.419,-50.5834"/>
</g>
<!-- Node9 -->
<g id="node8" class="node"><title>Node9</title>
<g id="a_node8"><a xlink:href="main_8cpp.html" target="_top" xlink:title="Main entry point and implementation of the playd class. ">
<polygon fill="white" stroke="black" points="844,-0.5 844,-19.5 922,-19.5 922,-0.5 844,-0.5"/>
<text text-anchor="middle" x="883" y="-7.5" font-family="Helvetica,sans-Serif" font-size="10.00">src/main.cpp</text>
</a>
</g>
</g>
<!-- Node2&#45;&gt;Node9 -->
<g id="edge7" class="edge"><title>Node2&#45;&gt;Node9</title>
<path fill="none" stroke="midnightblue" d="M639.406,-54.9581C690.285,-45.8832 767.167,-32.1288 834,-20 837.234,-19.4131 840.587,-18.8022 843.954,-18.1872"/>
<polygon fill="midnightblue" stroke="midnightblue" points="638.502,-51.5638 629.272,-56.765 639.731,-58.4552 638.502,-51.5638"/>
</g>
<!-- Node10 -->
<g id="node9" class="node"><title>Node10</title>
<g id="a_node9"><a xlink:href="player_8cpp.html" target="_top" xlink:title="Main implementation file for the Player class. ">
<polygon fill="white" stroke="black" points="940.5,-0.5 940.5,-19.5 1023.5,-19.5 1023.5,-0.5 940.5,-0.5"/>
<text text-anchor="middle" x="982" y="-7.5" font-family="Helvetica,sans-Serif" font-size="10.00">src/player.cpp</text>
</a>
</g>
</g>
<!-- Node2&#45;&gt;Node10 -->
<g id="edge8" class="edge"><title>Node2&#45;&gt;Node10</title>
<path fill="none" stroke="midnightblue" d="M639.457,-58.5103C708.39,-50.3996 828.468,-35.6676 931,-20 934.022,-19.5382 937.141,-19.0404 940.277,-18.5242"/>
<polygon fill="midnightblue" stroke="midnightblue" points="638.779,-55.0657 629.254,-59.7063 639.594,-62.0181 638.779,-55.0657"/>
</g>
</g>
</svg>
