<?xml version="1.0" encoding="UTF-8" standalone="no"?>
<!DOCTYPE svg PUBLIC "-//W3C//DTD SVG 1.1//EN"
 "http://www.w3.org/Graphics/SVG/1.1/DTD/svg11.dtd">
<!-- Generated by graphviz version 2.38.0 (20140413.2041)
 -->
<!-- Title: src/messages.h Pages: 1 -->
<svg width="1175pt" height="84pt"
 viewBox="0.00 0.00 1175.00 84.00" xmlns="http://www.w3.org/2000/svg" xmlns:xlink="http://www.w3.org/1999/xlink">
<g id="graph0" class="graph" transform="scale(1 1) rotate(0) translate(4 80)">
<title>src/messages.h</title>
<polygon fill="white" stroke="none" points="-4,4 -4,-80 1171,-80 1171,4 -4,4"/>
<!-- Node1 -->
<g id="node1" class="node"><title>Node1</title>
<polygon fill="#bfbfbf" stroke="black" points="621.5,-56.5 621.5,-75.5 711.5,-75.5 711.5,-56.5 621.5,-56.5"/>
<text text-anchor="middle" x="666.5" y="-63.5" font-family="Helvetica,sans-Serif" font-size="10.00">src/messages.h</text>
</g>
<!-- Node2 -->
<g id="node2" class="node"><title>Node2</title>
<g id="a_node2"><a xlink:href="audio_8cpp.html" target="_top" xlink:title="Implementation of the Audio class. ">
<polygon fill="white" stroke="black" points="0,-0.5 0,-19.5 107,-19.5 107,-0.5 0,-0.5"/>
<text text-anchor="middle" x="53.5" y="-7.5" font-family="Helvetica,sans-Serif" font-size="10.00">src/audio/audio.cpp</text>
</a>
</g>
</g>
<!-- Node1&#45;&gt;Node2 -->
<g id="edge1" class="edge"><title>Node1&#45;&gt;Node2</title>
<path fill="none" stroke="midnightblue" d="M611.411,-61.5958C512.246,-55.2223 297.188,-40.2794 116.5,-20 113.426,-19.655 110.27,-19.2777 107.088,-18.8795"/>
<polygon fill="midnightblue" stroke="midnightblue" points="611.294,-65.0953 621.497,-62.2401 611.74,-58.1096 611.294,-65.0953"/>
</g>
<!-- Node3 -->
<g id="node3" class="node"><title>Node3</title>
<g id="a_node3"><a xlink:href="audio__sink_8cpp.html" target="_top" xlink:title="Implementation of the AudioSink class. ">
<polygon fill="white" stroke="black" points="125.5,-0.5 125.5,-19.5 257.5,-19.5 257.5,-0.5 125.5,-0.5"/>
<text text-anchor="middle" x="191.5" y="-7.5" font-family="Helvetica,sans-Serif" font-size="10.00">src/audio/audio_sink.cpp</text>
</a>
</g>
</g>
<!-- Node1&#45;&gt;Node3 -->
<g id="edge2" class="edge"><title>Node1&#45;&gt;Node3</title>
<path fill="none" stroke="midnightblue" d="M611.527,-58.9457C534.41,-50.4231 389.732,-34.3255 266.5,-20 263.634,-19.6669 260.707,-19.3245 257.75,-18.977"/>
<polygon fill="midnightblue" stroke="midnightblue" points="611.173,-62.4279 621.497,-60.047 611.942,-55.4702 611.173,-62.4279"/>
</g>
<!-- Node4 -->
<g id="node4" class="node"><title>Node4</title>
<g id="a_node4"><a xlink:href="audio__source_8cpp.html" target="_top" xlink:title="Implementation of the AudioSource class. ">
<polygon fill="white" stroke="black" points="276,-0.5 276,-19.5 421,-19.5 421,-0.5 276,-0.5"/>
<text text-anchor="middle" x="348.5" y="-7.5" font-family="Helvetica,sans-Serif" font-size="10.00">src/audio/audio_source.cpp</text>
</a>
</g>
</g>
<!-- Node1&#45;&gt;Node4 -->
<g id="edge3" class="edge"><title>Node1&#45;&gt;Node4</title>
<path fill="none" stroke="midnightblue" d="M611.249,-55.6178C551.381,-45.4514 456.681,-29.3703 398.815,-19.544"/>
<polygon fill="midnightblue" stroke="midnightblue" points="610.831,-59.0968 621.276,-57.3205 612.003,-52.1956 610.831,-59.0968"/>
</g>
<!-- Node5 -->
<g id="node5" class="node"><title>Node5</title>
<g id="a_node5"><a xlink:href="audio__system_8cpp.html" target="_top" xlink:title="Implementation of the PaSoxAudioSystem class. ">
<polygon fill="white" stroke="black" points="439.5,-0.5 439.5,-19.5 585.5,-19.5 585.5,-0.5 439.5,-0.5"/>
<text text-anchor="middle" x="512.5" y="-7.5" font-family="Helvetica,sans-Serif" font-size="10.00">src/audio/audio_system.cpp</text>
</a>
</g>
</g>
<!-- Node1&#45;&gt;Node5 -->
<g id="edge4" class="edge"><title>Node1&#45;&gt;Node5</title>
<path fill="none" stroke="midnightblue" d="M632.389,-53.0392C603.413,-42.8786 562.538,-28.5457 536.788,-19.5164"/>
<polygon fill="midnightblue" stroke="midnightblue" points="631.503,-56.4373 642.098,-56.4435 633.82,-49.8317 631.503,-56.4373"/>
</g>
<!-- Node6 -->
<g id="node6" class="node"><title>Node6</title>
<g id="a_node6"><a xlink:href="ringbuffer_8cpp.html" target="_top" xlink:title="Implementation of the RingBuffer class. ">
<polygon fill="white" stroke="black" points="603.5,-0.5 603.5,-19.5 729.5,-19.5 729.5,-0.5 603.5,-0.5"/>
<text text-anchor="middle" x="666.5" y="-7.5" font-family="Helvetica,sans-Serif" font-size="10.00">src/audio/ringbuffer.cpp</text>
</a>
</g>
</g>
<!-- Node1&#45;&gt;Node6 -->
<g id="edge5" class="edge"><title>Node1&#45;&gt;Node6</title>
<path fill="none" stroke="midnightblue" d="M666.5,-45.8045C666.5,-36.9102 666.5,-26.7798 666.5,-19.7511"/>
<polygon fill="midnightblue" stroke="midnightblue" points="663,-46.083 666.5,-56.083 670,-46.083 663,-46.083"/>
</g>
<!-- Node7 -->
<g id="node7" class="node"><title>Node7</title>
<g id="a_node7"><a xlink:href="cmd_8cpp.html" target="_top" xlink:title="Implementation of the CommandHandler class. ">
<polygon fill="white" stroke="black" points="748,-0.5 748,-19.5 821,-19.5 821,-0.5 748,-0.5"/>
<text text-anchor="middle" x="784.5" y="-7.5" font-family="Helvetica,sans-Serif" font-size="10.00">src/cmd.cpp</text>
</a>
</g>
</g>
<!-- Node1&#45;&gt;Node7 -->
<g id="edge6" class="edge"><title>Node1&#45;&gt;Node7</title>
<path fill="none" stroke="midnightblue" d="M694.4,-52.2321C716.473,-42.1312 746.676,-28.3091 765.89,-19.5164"/>
<polygon fill="midnightblue" stroke="midnightblue" points="692.834,-49.0997 685.197,-56.4435 695.747,-55.4648 692.834,-49.0997"/>
</g>
<!-- Node8 -->
<g id="node8" class="node"><title>Node8</title>
<g id="a_node8"><a xlink:href="io__core_8cpp.html" target="_top" xlink:title="Implementation of the non&#45;virtual aspects of the IoCore class. ">
<polygon fill="white" stroke="black" points="839.5,-0.5 839.5,-19.5 939.5,-19.5 939.5,-0.5 839.5,-0.5"/>
<text text-anchor="middle" x="889.5" y="-7.5" font-family="Helvetica,sans-Serif" font-size="10.00">src/io/io_core.cpp</text>
</a>
</g>
</g>
<!-- Node1&#45;&gt;Node8 -->
<g id="edge7" class="edge"><title>Node1&#45;&gt;Node8</title>
<path fill="none" stroke="midnightblue" d="M711.561,-54.0884C753.691,-43.8865 815.74,-28.8612 854.33,-19.5164"/>
<polygon fill="midnightblue" stroke="midnightblue" points="710.73,-50.6883 701.835,-56.4435 712.378,-57.4916 710.73,-50.6883"/>
</g>
<!-- Node9 -->
<g id="node9" class="node"><title>Node9</title>
<g id="a_node9"><a xlink:href="main_8cpp.html" target="_top" xlink:title="Main entry point and implementation of the playd class. ">
<polygon fill="white" stroke="black" points="957.5,-0.5 957.5,-19.5 1033.5,-19.5 1033.5,-0.5 957.5,-0.5"/>
<text text-anchor="middle" x="995.5" y="-7.5" font-family="Helvetica,sans-Serif" font-size="10.00">src/main.cpp</text>
</a>
</g>
</g>
<!-- Node1&#45;&gt;Node9 -->
<g id="edge8" class="edge"><title>Node1&#45;&gt;Node9</title>
<path fill="none" stroke="midnightblue" d="M721.722,-56.7051C778.635,-48.0348 869.891,-33.795 948.5,-20 951.364,-19.4974 954.323,-18.964 957.299,-18.4176"/>
<polygon fill="midnightblue" stroke="midnightblue" points="720.866,-53.2949 711.505,-58.2578 721.917,-60.2154 720.866,-53.2949"/>
</g>
<!-- Node10 -->
<g id="node10" class="node"><title>Node10</title>
<g id="a_node10"><a xlink:href="player_8cpp.html" target="_top" xlink:title="Main implementation file for the Player class. ">
<polygon fill="white" stroke="black" points="1052,-0.5 1052,-19.5 1167,-19.5 1167,-0.5 1052,-0.5"/>
<text text-anchor="middle" x="1109.5" y="-7.5" font-family="Helvetica,sans-Serif" font-size="10.00">src/player/player.cpp</text>
</a>
</g>
</g>
<!-- Node1&#45;&gt;Node10 -->
<g id="edge9" class="edge"><title>Node1&#45;&gt;Node10</title>
<path fill="none" stroke="midnightblue" d="M721.605,-58.6568C794.907,-50.1614 928.509,-34.4766 1042.5,-20 1045.53,-19.6156 1048.63,-19.2164 1051.76,-18.8094"/>
<polygon fill="midnightblue" stroke="midnightblue" points="721.202,-55.1801 711.67,-59.807 722.007,-62.1337 721.202,-55.1801"/>
</g>
</g>
</svg>
