<?xml version="1.0" encoding="UTF-8" standalone="no"?>
<!DOCTYPE svg PUBLIC "-//W3C//DTD SVG 1.1//EN"
 "http://www.w3.org/Graphics/SVG/1.1/DTD/svg11.dtd">
<!-- Generated by graphviz version 2.38.0 (20140413.2041)
 -->
<!-- Title: src/messages.h Pages: 1 -->
<svg width="1050pt" height="588pt"
 viewBox="0.00 0.00 1049.50 588.00" xmlns="http://www.w3.org/2000/svg" xmlns:xlink="http://www.w3.org/1999/xlink">
<g id="graph0" class="graph" transform="scale(1 1) rotate(0) translate(4 584)">
<title>src/messages.h</title>
<polygon fill="white" stroke="none" points="-4,4 -4,-584 1045.5,-584 1045.5,4 -4,4"/>
<!-- Node1 -->
<g id="node1" class="node"><title>Node1</title>
<polygon fill="#bfbfbf" stroke="black" points="202,-560.5 202,-579.5 292,-579.5 292,-560.5 202,-560.5"/>
<text text-anchor="middle" x="247" y="-567.5" font-family="Helvetica,sans-Serif" font-size="10.00">src/messages.h</text>
</g>
<!-- Node2 -->
<g id="node2" class="node"><title>Node2</title>
<g id="a_node2"><a xlink:href="audio_8cpp.html" target="_top" xlink:title="Implementation of the Audio class. ">
<polygon fill="white" stroke="black" points="193.5,-392.5 193.5,-411.5 300.5,-411.5 300.5,-392.5 193.5,-392.5"/>
<text text-anchor="middle" x="247" y="-399.5" font-family="Helvetica,sans-Serif" font-size="10.00">src/audio/audio.cpp</text>
</a>
</g>
</g>
<!-- Node1&#45;&gt;Node2 -->
<g id="edge1" class="edge"><title>Node1&#45;&gt;Node2</title>
<path fill="none" stroke="midnightblue" d="M247,-549.93C247,-513.92 247,-437.231 247,-411.568"/>
<polygon fill="midnightblue" stroke="midnightblue" points="243.5,-550.075 247,-560.075 250.5,-550.075 243.5,-550.075"/>
</g>
<!-- Node3 -->
<g id="node3" class="node"><title>Node3</title>
<g id="a_node3"><a xlink:href="ringbuffer_8hpp.html" target="_top" xlink:title="The RingBuffer class template. ">
<polygon fill="white" stroke="black" points="292.5,-504.5 292.5,-523.5 419.5,-523.5 419.5,-504.5 292.5,-504.5"/>
<text text-anchor="middle" x="356" y="-511.5" font-family="Helvetica,sans-Serif" font-size="10.00">src/audio/ringbuffer.hpp</text>
</a>
</g>
</g>
<!-- Node1&#45;&gt;Node3 -->
<g id="edge2" class="edge"><title>Node1&#45;&gt;Node3</title>
<path fill="none" stroke="midnightblue" d="M273.519,-555.862C293.73,-545.849 320.987,-532.346 338.531,-523.655"/>
<polygon fill="midnightblue" stroke="midnightblue" points="271.92,-552.748 264.513,-560.324 275.027,-559.021 271.92,-552.748"/>
</g>
<!-- Node5 -->
<g id="node5" class="node"><title>Node5</title>
<g id="a_node5"><a xlink:href="audio__sink_8cpp.html" target="_top" xlink:title="Implementation of the AudioSink class. ">
<polygon fill="white" stroke="black" points="523,-392.5 523,-411.5 655,-411.5 655,-392.5 523,-392.5"/>
<text text-anchor="middle" x="589" y="-399.5" font-family="Helvetica,sans-Serif" font-size="10.00">src/audio/audio_sink.cpp</text>
</a>
</g>
</g>
<!-- Node1&#45;&gt;Node5 -->
<g id="edge37" class="edge"><title>Node1&#45;&gt;Node5</title>
<path fill="none" stroke="midnightblue" d="M302.285,-561.173C339.17,-554.548 388.044,-543.011 428,-524 493.042,-493.054 557.658,-433.562 580.418,-411.503"/>
<polygon fill="midnightblue" stroke="midnightblue" points="301.474,-557.762 292.217,-562.914 302.667,-564.659 301.474,-557.762"/>
</g>
<!-- Node6 -->
<g id="node6" class="node"><title>Node6</title>
<g id="a_node6"><a xlink:href="audio__system_8cpp.html" target="_top" xlink:title="Implementation of the AudioSystem class. ">
<polygon fill="white" stroke="black" points="178,-336.5 178,-355.5 324,-355.5 324,-336.5 178,-336.5"/>
<text text-anchor="middle" x="251" y="-343.5" font-family="Helvetica,sans-Serif" font-size="10.00">src/audio/audio_system.cpp</text>
</a>
</g>
</g>
<!-- Node1&#45;&gt;Node6 -->
<g id="edge39" class="edge"><title>Node1&#45;&gt;Node6</title>
<path fill="none" stroke="midnightblue" d="M231.997,-552.144C205.164,-519.846 154.411,-447.516 184,-392 193.293,-374.565 212.674,-362.684 228.212,-355.529"/>
<polygon fill="midnightblue" stroke="midnightblue" points="229.683,-554.823 238.844,-560.145 235.001,-550.272 229.683,-554.823"/>
</g>
<!-- Node11 -->
<g id="node11" class="node"><title>Node11</title>
<g id="a_node11"><a xlink:href="cmd_8cpp.html" target="_top" xlink:title="Implementation of the CommandHandler class. ">
<polygon fill="white" stroke="black" points="238.5,-168.5 238.5,-187.5 311.5,-187.5 311.5,-168.5 238.5,-168.5"/>
<text text-anchor="middle" x="275" y="-175.5" font-family="Helvetica,sans-Serif" font-size="10.00">src/cmd.cpp</text>
</a>
</g>
</g>
<!-- Node1&#45;&gt;Node11 -->
<g id="edge40" class="edge"><title>Node1&#45;&gt;Node11</title>
<path fill="none" stroke="midnightblue" d="M219.307,-555.929C162.483,-526.966 38,-451.582 38,-347 38,-347 38,-347 38,-289 38,-258.902 34.8752,-244.405 57,-224 82.9932,-200.027 183.223,-187.333 238.271,-182.043"/>
<polygon fill="midnightblue" stroke="midnightblue" points="217.941,-559.159 228.453,-560.486 221.063,-552.894 217.941,-559.159"/>
</g>
<!-- Node12 -->
<g id="node12" class="node"><title>Node12</title>
<g id="a_node12"><a xlink:href="io__reactor_8cpp.html" target="_top" xlink:title="Implementation of the non&#45;virtual aspects of the IoReactor class. ">
<polygon fill="white" stroke="black" points="200.5,-56.5 200.5,-75.5 313.5,-75.5 313.5,-56.5 200.5,-56.5"/>
<text text-anchor="middle" x="257" y="-63.5" font-family="Helvetica,sans-Serif" font-size="10.00">src/io/io_reactor.cpp</text>
</a>
</g>
</g>
<!-- Node1&#45;&gt;Node12 -->
<g id="edge41" class="edge"><title>Node1&#45;&gt;Node12</title>
<path fill="none" stroke="midnightblue" d="M191.592,-567.819C118.771,-562.987 0,-542.331 0,-459 0,-459 0,-459 0,-177 0,-90.4895 124.598,-71.1216 200.282,-67.3369"/>
<polygon fill="midnightblue" stroke="midnightblue" points="191.797,-571.337 201.984,-568.423 192.203,-564.349 191.797,-571.337"/>
</g>
<!-- Node15 -->
<g id="node15" class="node"><title>Node15</title>
<g id="a_node15"><a xlink:href="main_8cpp.html" target="_top" xlink:title="Main entry point and implementation of the playd class. ">
<polygon fill="white" stroke="black" points="694,-0.5 694,-19.5 770,-19.5 770,-0.5 694,-0.5"/>
<text text-anchor="middle" x="732" y="-7.5" font-family="Helvetica,sans-Serif" font-size="10.00">src/main.cpp</text>
</a>
</g>
</g>
<!-- Node1&#45;&gt;Node15 -->
<g id="edge42" class="edge"><title>Node1&#45;&gt;Node15</title>
<path fill="none" stroke="midnightblue" d="M302.221,-565.015C454.294,-553.305 868,-516.195 868,-459 868,-459 868,-459 868,-121 868,-65.8829 799.638,-33.6276 759.85,-19.522"/>
<polygon fill="midnightblue" stroke="midnightblue" points="301.866,-561.531 292.161,-565.781 302.398,-568.511 301.866,-561.531"/>
</g>
<!-- Node18 -->
<g id="node18" class="node"><title>Node18</title>
<g id="a_node18"><a xlink:href="player_8cpp.html" target="_top" xlink:title="Main implementation file for the Player class. ">
<polygon fill="white" stroke="black" points="66.5,-224.5 66.5,-243.5 181.5,-243.5 181.5,-224.5 66.5,-224.5"/>
<text text-anchor="middle" x="124" y="-231.5" font-family="Helvetica,sans-Serif" font-size="10.00">src/player/player.cpp</text>
</a>
</g>
</g>
<!-- Node1&#45;&gt;Node18 -->
<g id="edge43" class="edge"><title>Node1&#45;&gt;Node18</title>
<path fill="none" stroke="midnightblue" d="M192.307,-557.861C142.276,-544.102 76,-515.259 76,-459 76,-459 76,-459 76,-345 76,-304.161 104.137,-261.377 117.326,-243.565"/>
<polygon fill="midnightblue" stroke="midnightblue" points="191.512,-561.271 202.072,-560.416 193.283,-554.499 191.512,-561.271"/>
</g>
<!-- Node22 -->
<g id="node22" class="node"><title>Node22</title>
<g id="a_node22"><a xlink:href="audio__source_8cpp.html" target="_top" xlink:title="Implementation of the AudioSource class. ">
<polygon fill="white" stroke="black" points="896.5,-504.5 896.5,-523.5 1041.5,-523.5 1041.5,-504.5 896.5,-504.5"/>
<text text-anchor="middle" x="969" y="-511.5" font-family="Helvetica,sans-Serif" font-size="10.00">src/audio/audio_source.cpp</text>
</a>
</g>
</g>
<!-- Node1&#45;&gt;Node22 -->
<g id="edge38" class="edge"><title>Node1&#45;&gt;Node22</title>
<path fill="none" stroke="midnightblue" d="M302.297,-565.685C412.62,-558.937 667.877,-542.657 882,-524 886.69,-523.591 891.519,-523.15 896.386,-522.689"/>
<polygon fill="midnightblue" stroke="midnightblue" points="301.848,-562.206 292.079,-566.308 302.274,-569.193 301.848,-562.206"/>
</g>
<!-- Node4 -->
<g id="node4" class="node"><title>Node4</title>
<g id="a_node4"><a xlink:href="audio__sink_8hpp.html" target="_top" xlink:title="Declaration of the AudioSink class. ">
<polygon fill="white" stroke="black" points="289.5,-448.5 289.5,-467.5 422.5,-467.5 422.5,-448.5 289.5,-448.5"/>
<text text-anchor="middle" x="356" y="-455.5" font-family="Helvetica,sans-Serif" font-size="10.00">src/audio/audio_sink.hpp</text>
</a>
</g>
</g>
<!-- Node3&#45;&gt;Node4 -->
<g id="edge3" class="edge"><title>Node3&#45;&gt;Node4</title>
<path fill="none" stroke="midnightblue" d="M356,-493.805C356,-484.91 356,-474.78 356,-467.751"/>
<polygon fill="midnightblue" stroke="midnightblue" points="352.5,-494.083 356,-504.083 359.5,-494.083 352.5,-494.083"/>
</g>
<!-- Node3&#45;&gt;Node5 -->
<g id="edge36" class="edge"><title>Node3&#45;&gt;Node5</title>
<path fill="none" stroke="midnightblue" d="M383.491,-500.021C431.679,-477.272 530.134,-430.791 570.802,-411.591"/>
<polygon fill="midnightblue" stroke="midnightblue" points="381.832,-496.934 374.283,-504.368 384.82,-503.264 381.832,-496.934"/>
</g>
<!-- Node4&#45;&gt;Node2 -->
<g id="edge4" class="edge"><title>Node4&#45;&gt;Node2</title>
<path fill="none" stroke="midnightblue" d="M329.481,-443.862C309.27,-433.849 282.013,-420.346 264.469,-411.655"/>
<polygon fill="midnightblue" stroke="midnightblue" points="327.973,-447.021 338.487,-448.324 331.08,-440.748 327.973,-447.021"/>
</g>
<!-- Node4&#45;&gt;Node5 -->
<g id="edge5" class="edge"><title>Node4&#45;&gt;Node5</title>
<path fill="none" stroke="midnightblue" d="M402.803,-446.153C446.827,-435.95 511.847,-420.881 552.253,-411.516"/>
<polygon fill="midnightblue" stroke="midnightblue" points="401.871,-442.776 392.92,-448.444 403.452,-449.595 401.871,-442.776"/>
</g>
<!-- Node4&#45;&gt;Node6 -->
<g id="edge6" class="edge"><title>Node4&#45;&gt;Node6</title>
<path fill="none" stroke="midnightblue" d="M345.589,-439.932C336.773,-426.195 323.313,-406.805 309,-392 295.181,-377.706 276.666,-364.122 264.31,-355.692"/>
<polygon fill="midnightblue" stroke="midnightblue" points="342.629,-441.799 350.905,-448.414 348.56,-438.082 342.629,-441.799"/>
</g>
<!-- Node7 -->
<g id="node7" class="node"><title>Node7</title>
<g id="a_node7"><a xlink:href="audio__system_8hpp.html" target="_top" xlink:title="Declaration of the AudioSystem class. ">
<polygon fill="white" stroke="black" points="357.5,-392.5 357.5,-411.5 504.5,-411.5 504.5,-392.5 357.5,-392.5"/>
<text text-anchor="middle" x="431" y="-399.5" font-family="Helvetica,sans-Serif" font-size="10.00">src/audio/audio_system.hpp</text>
</a>
</g>
</g>
<!-- Node4&#45;&gt;Node7 -->
<g id="edge7" class="edge"><title>Node4&#45;&gt;Node7</title>
<path fill="none" stroke="midnightblue" d="M376.305,-442.38C389.861,-432.62 407.242,-420.106 418.731,-411.834"/>
<polygon fill="midnightblue" stroke="midnightblue" points="374.12,-439.641 368.05,-448.324 378.21,-445.321 374.12,-439.641"/>
</g>
<!-- Node7&#45;&gt;Node6 -->
<g id="edge8" class="edge"><title>Node7&#45;&gt;Node6</title>
<path fill="none" stroke="midnightblue" d="M392.892,-389.568C358.937,-379.381 310.011,-364.703 279.388,-355.516"/>
<polygon fill="midnightblue" stroke="midnightblue" points="391.894,-392.922 402.478,-392.444 393.906,-386.218 391.894,-392.922"/>
</g>
<!-- Node8 -->
<g id="node8" class="node"><title>Node8</title>
<g id="a_node8"><a xlink:href="player__file_8hpp.html" target="_top" xlink:title="Declaration of the PlayerFile class, and associated types. ">
<polygon fill="white" stroke="black" points="380.5,-336.5 380.5,-355.5 515.5,-355.5 515.5,-336.5 380.5,-336.5"/>
<text text-anchor="middle" x="448" y="-343.5" font-family="Helvetica,sans-Serif" font-size="10.00">src/player/player_file.hpp</text>
</a>
</g>
</g>
<!-- Node7&#45;&gt;Node8 -->
<g id="edge9" class="edge"><title>Node7&#45;&gt;Node8</title>
<path fill="none" stroke="midnightblue" d="M436.857,-382.396C439.701,-373.362 442.983,-362.936 445.245,-355.751"/>
<polygon fill="midnightblue" stroke="midnightblue" points="433.472,-381.493 433.807,-392.083 440.149,-383.596 433.472,-381.493"/>
</g>
<!-- Node7&#45;&gt;Node15 -->
<g id="edge33" class="edge"><title>Node7&#45;&gt;Node15</title>
<path fill="none" stroke="midnightblue" d="M500.349,-390.975C564.417,-381.338 654.7,-366.698 689,-356 754.875,-335.455 830,-360.005 830,-291 830,-291 830,-291 830,-121 830,-72.6597 776.584,-35.7404 748.624,-19.7265"/>
<polygon fill="midnightblue" stroke="midnightblue" points="499.676,-387.537 490.304,-392.478 500.712,-394.46 499.676,-387.537"/>
</g>
<!-- Node16 -->
<g id="node16" class="node"><title>Node16</title>
<g id="a_node16"><a xlink:href="main_8hpp.html" target="_top" xlink:title="Declaration of the playd class. ">
<polygon fill="white" stroke="black" points="655.5,-56.5 655.5,-75.5 732.5,-75.5 732.5,-56.5 655.5,-56.5"/>
<text text-anchor="middle" x="694" y="-63.5" font-family="Helvetica,sans-Serif" font-size="10.00">src/main.hpp</text>
</a>
</g>
</g>
<!-- Node7&#45;&gt;Node16 -->
<g id="edge34" class="edge"><title>Node7&#45;&gt;Node16</title>
<path fill="none" stroke="midnightblue" d="M484.136,-390.388C584.504,-369.603 792,-322.79 792,-291 792,-291 792,-291 792,-233 792,-164.058 728.543,-98.581 703.755,-75.6338"/>
<polygon fill="midnightblue" stroke="midnightblue" points="483.276,-386.991 474.186,-392.435 484.687,-393.848 483.276,-386.991"/>
</g>
<!-- Node7&#45;&gt;Node18 -->
<g id="edge35" class="edge"><title>Node7&#45;&gt;Node18</title>
<path fill="none" stroke="midnightblue" d="M410.906,-386.506C391.445,-372.752 360.871,-351.88 333,-336 265.772,-297.695 181.824,-260.035 144.051,-243.599"/>
<polygon fill="midnightblue" stroke="midnightblue" points="409.085,-389.506 419.261,-392.457 413.147,-383.805 409.085,-389.506"/>
</g>
<!-- Node9 -->
<g id="node9" class="node"><title>Node9</title>
<g id="a_node9"><a xlink:href="player_8hpp.html" target="_top" xlink:title="Declaration of the Player class, and associated types. ">
<polygon fill="white" stroke="black" points="385,-280.5 385,-299.5 501,-299.5 501,-280.5 385,-280.5"/>
<text text-anchor="middle" x="443" y="-287.5" font-family="Helvetica,sans-Serif" font-size="10.00">src/player/player.hpp</text>
</a>
</g>
</g>
<!-- Node8&#45;&gt;Node9 -->
<g id="edge10" class="edge"><title>Node8&#45;&gt;Node9</title>
<path fill="none" stroke="midnightblue" d="M446.25,-326.101C445.42,-317.136 444.468,-306.858 443.81,-299.751"/>
<polygon fill="midnightblue" stroke="midnightblue" points="442.767,-326.448 447.174,-336.083 449.737,-325.803 442.767,-326.448"/>
</g>
<!-- Node21 -->
<g id="node21" class="node"><title>Node21</title>
<g id="a_node21"><a xlink:href="player__file_8cpp.html" target="_top" xlink:title="Implementation of the PlayerFile class, and associated types. ">
<polygon fill="white" stroke="black" points="519,-280.5 519,-299.5 653,-299.5 653,-280.5 519,-280.5"/>
<text text-anchor="middle" x="586" y="-287.5" font-family="Helvetica,sans-Serif" font-size="10.00">src/player/player_file.cpp</text>
</a>
</g>
</g>
<!-- Node8&#45;&gt;Node21 -->
<g id="edge32" class="edge"><title>Node8&#45;&gt;Node21</title>
<path fill="none" stroke="midnightblue" d="M479.249,-332.772C505.171,-322.629 541.362,-308.467 564.236,-299.516"/>
<polygon fill="midnightblue" stroke="midnightblue" points="477.904,-329.54 469.867,-336.444 480.454,-336.059 477.904,-329.54"/>
</g>
<!-- Node10 -->
<g id="node10" class="node"><title>Node10</title>
<g id="a_node10"><a xlink:href="cmd_8hpp.html" target="_top" xlink:title="Declaration of the CommandHandler class. ">
<polygon fill="white" stroke="black" points="438,-224.5 438,-243.5 512,-243.5 512,-224.5 438,-224.5"/>
<text text-anchor="middle" x="475" y="-231.5" font-family="Helvetica,sans-Serif" font-size="10.00">src/cmd.hpp</text>
</a>
</g>
</g>
<!-- Node9&#45;&gt;Node10 -->
<g id="edge11" class="edge"><title>Node9&#45;&gt;Node10</title>
<path fill="none" stroke="midnightblue" d="M453.504,-271.275C458.973,-262.045 465.418,-251.17 469.814,-243.751"/>
<polygon fill="midnightblue" stroke="midnightblue" points="450.371,-269.696 448.284,-280.083 456.393,-273.264 450.371,-269.696"/>
</g>
<!-- Node9&#45;&gt;Node12 -->
<g id="edge25" class="edge"><title>Node9&#45;&gt;Node12</title>
<path fill="none" stroke="midnightblue" d="M374.784,-283.851C319.252,-278.073 247.187,-266.409 229,-244 187.045,-192.305 234.8,-103.351 251.598,-75.555"/>
<polygon fill="midnightblue" stroke="midnightblue" points="374.647,-287.354 384.944,-284.862 375.34,-280.389 374.647,-287.354"/>
</g>
<!-- Node14 -->
<g id="node14" class="node"><title>Node14</title>
<g id="a_node14"><a xlink:href="io__reactor_8hpp.html" target="_top" xlink:title="Declaration of the IoReactor class. ">
<polygon fill="white" stroke="black" points="332.5,-112.5 332.5,-131.5 445.5,-131.5 445.5,-112.5 332.5,-112.5"/>
<text text-anchor="middle" x="389" y="-119.5" font-family="Helvetica,sans-Serif" font-size="10.00">src/io/io_reactor.hpp</text>
</a>
</g>
</g>
<!-- Node9&#45;&gt;Node14 -->
<g id="edge26" class="edge"><title>Node9&#45;&gt;Node14</title>
<path fill="none" stroke="midnightblue" d="M436.948,-270.395C425.299,-234.585 400.172,-157.342 391.787,-131.568"/>
<polygon fill="midnightblue" stroke="midnightblue" points="433.675,-271.648 440.097,-280.075 440.332,-269.483 433.675,-271.648"/>
</g>
<!-- Node9&#45;&gt;Node15 -->
<g id="edge28" class="edge"><title>Node9&#45;&gt;Node15</title>
<path fill="none" stroke="midnightblue" d="M511.24,-279.572C596.358,-267.657 731.275,-248.19 735,-244 794.139,-177.489 749.417,-53.2174 735.67,-19.5813"/>
<polygon fill="midnightblue" stroke="midnightblue" points="510.538,-276.136 501.119,-280.987 511.507,-283.069 510.538,-276.136"/>
</g>
<!-- Node9&#45;&gt;Node16 -->
<g id="edge27" class="edge"><title>Node9&#45;&gt;Node16</title>
<path fill="none" stroke="midnightblue" d="M466.658,-275.194C495.042,-258.728 541.05,-232.374 559,-224 599.919,-204.911 620.937,-218.75 654,-188 687.212,-157.111 692.883,-98.1012 693.824,-75.8156"/>
<polygon fill="midnightblue" stroke="midnightblue" points="464.659,-272.307 457.773,-280.359 468.178,-278.359 464.659,-272.307"/>
</g>
<!-- Node9&#45;&gt;Node18 -->
<g id="edge29" class="edge"><title>Node9&#45;&gt;Node18</title>
<path fill="none" stroke="midnightblue" d="M382.316,-278.727C322.034,-268.523 230.678,-253.058 174.31,-243.516"/>
<polygon fill="midnightblue" stroke="midnightblue" points="382.01,-282.225 392.454,-280.444 383.178,-275.324 382.01,-282.225"/>
</g>
<!-- Node19 -->
<g id="node19" class="node"><title>Node19</title>
<g id="a_node19"><a xlink:href="player__position_8cpp.html" target="_top" xlink:title="Implementation of the PlayerPosition class, and related Player methods. ">
<polygon fill="white" stroke="black" points="568,-224.5 568,-243.5 726,-243.5 726,-224.5 568,-224.5"/>
<text text-anchor="middle" x="647" y="-231.5" font-family="Helvetica,sans-Serif" font-size="10.00">src/player/player_position.cpp</text>
</a>
</g>
</g>
<!-- Node9&#45;&gt;Node19 -->
<g id="edge30" class="edge"><title>Node9&#45;&gt;Node19</title>
<path fill="none" stroke="midnightblue" d="M485.201,-277.829C523.718,-267.633 579.822,-252.782 614.827,-243.516"/>
<polygon fill="midnightblue" stroke="midnightblue" points="484.096,-274.501 475.324,-280.444 485.887,-281.268 484.096,-274.501"/>
</g>
<!-- Node20 -->
<g id="node20" class="node"><title>Node20</title>
<g id="a_node20"><a xlink:href="player__state_8cpp.html" target="_top" xlink:title="Implementation of the PlayerState class, and related Player methods. ">
<polygon fill="white" stroke="black" points="238,-224.5 238,-243.5 382,-243.5 382,-224.5 238,-224.5"/>
<text text-anchor="middle" x="310" y="-231.5" font-family="Helvetica,sans-Serif" font-size="10.00">src/player/player_state.cpp</text>
</a>
</g>
</g>
<!-- Node9&#45;&gt;Node20 -->
<g id="edge31" class="edge"><title>Node9&#45;&gt;Node20</title>
<path fill="none" stroke="midnightblue" d="M412.552,-276.638C387.593,-266.504 352.923,-252.427 330.976,-243.516"/>
<polygon fill="midnightblue" stroke="midnightblue" points="411.344,-279.924 421.926,-280.444 413.977,-273.439 411.344,-279.924"/>
</g>
<!-- Node10&#45;&gt;Node11 -->
<g id="edge12" class="edge"><title>Node10&#45;&gt;Node11</title>
<path fill="none" stroke="midnightblue" d="M433.626,-221.829C395.864,-211.633 340.86,-196.782 306.542,-187.516"/>
<polygon fill="midnightblue" stroke="midnightblue" points="432.743,-225.216 443.309,-224.444 434.567,-218.458 432.743,-225.216"/>
</g>
<!-- Node10&#45;&gt;Node12 -->
<g id="edge13" class="edge"><title>Node10&#45;&gt;Node12</title>
<path fill="none" stroke="midnightblue" d="M451.377,-219.249C420.635,-200.925 365.793,-166.756 323,-132 300.28,-113.547 276.506,-88.4789 264.661,-75.5281"/>
<polygon fill="midnightblue" stroke="midnightblue" points="449.715,-222.332 460.104,-224.41 453.278,-216.307 449.715,-222.332"/>
</g>
<!-- Node13 -->
<g id="node13" class="node"><title>Node13</title>
<g id="a_node13"><a xlink:href="tokeniser_8hpp.html" target="_top" xlink:title="Declaration of the Tokeniser class. ">
<polygon fill="white" stroke="black" points="429.5,-168.5 429.5,-187.5 538.5,-187.5 538.5,-168.5 429.5,-168.5"/>
<text text-anchor="middle" x="484" y="-175.5" font-family="Helvetica,sans-Serif" font-size="10.00">src/io/tokeniser.hpp</text>
</a>
</g>
</g>
<!-- Node10&#45;&gt;Node13 -->
<g id="edge14" class="edge"><title>Node10&#45;&gt;Node13</title>
<path fill="none" stroke="midnightblue" d="M478.15,-214.101C479.644,-205.136 481.357,-194.858 482.541,-187.751"/>
<polygon fill="midnightblue" stroke="midnightblue" points="474.678,-213.644 476.486,-224.083 481.583,-214.794 474.678,-213.644"/>
</g>
<!-- Node10&#45;&gt;Node15 -->
<g id="edge23" class="edge"><title>Node10&#45;&gt;Node15</title>
<path fill="none" stroke="midnightblue" d="M510.024,-220.536C527.631,-213.044 548.467,-202.187 564,-188 614.995,-141.422 595.443,-103.053 646,-56 664.01,-39.2388 689.449,-26.9593 707.986,-19.5013"/>
<polygon fill="midnightblue" stroke="midnightblue" points="508.577,-217.346 500.629,-224.352 511.211,-223.832 508.577,-217.346"/>
</g>
<!-- Node10&#45;&gt;Node16 -->
<g id="edge24" class="edge"><title>Node10&#45;&gt;Node16</title>
<path fill="none" stroke="midnightblue" d="M521.916,-223.858C561.78,-215.327 615.142,-201.863 632,-188 651.143,-172.258 680.6,-100.92 690.568,-75.7916"/>
<polygon fill="midnightblue" stroke="midnightblue" points="521.17,-220.438 512.103,-225.918 522.608,-227.289 521.17,-220.438"/>
</g>
<!-- Node17 -->
<g id="node17" class="node"><title>Node17</title>
<g id="a_node17"><a xlink:href="tokeniser_8cpp.html" target="_top" xlink:title="Definition of the Tokeniser class. ">
<polygon fill="white" stroke="black" points="482,-112.5 482,-131.5 590,-131.5 590,-112.5 482,-112.5"/>
<text text-anchor="middle" x="536" y="-119.5" font-family="Helvetica,sans-Serif" font-size="10.00">src/io/tokeniser.cpp</text>
</a>
</g>
</g>
<!-- Node10&#45;&gt;Node17 -->
<g id="edge22" class="edge"><title>Node10&#45;&gt;Node17</title>
<path fill="none" stroke="midnightblue" d="M509.664,-220.239C523.897,-213.082 538.911,-202.595 547,-188 557.098,-169.781 547.278,-144.614 540.757,-131.587"/>
<polygon fill="midnightblue" stroke="midnightblue" points="508.114,-217.1 500.504,-224.472 511.05,-223.454 508.114,-217.1"/>
</g>
<!-- Node13&#45;&gt;Node14 -->
<g id="edge15" class="edge"><title>Node13&#45;&gt;Node14</title>
<path fill="none" stroke="midnightblue" d="M459.682,-163.177C442.201,-153.241 419.17,-140.149 404.226,-131.655"/>
<polygon fill="midnightblue" stroke="midnightblue" points="458.313,-166.425 468.737,-168.324 461.773,-160.339 458.313,-166.425"/>
</g>
<!-- Node13&#45;&gt;Node17 -->
<g id="edge21" class="edge"><title>Node13&#45;&gt;Node17</title>
<path fill="none" stroke="midnightblue" d="M499.679,-160.718C508.845,-151.2 520.053,-139.561 527.573,-131.751"/>
<polygon fill="midnightblue" stroke="midnightblue" points="497.002,-158.452 492.587,-168.083 502.044,-163.308 497.002,-158.452"/>
</g>
<!-- Node14&#45;&gt;Node12 -->
<g id="edge16" class="edge"><title>Node14&#45;&gt;Node12</title>
<path fill="none" stroke="midnightblue" d="M358.781,-108.638C334.01,-98.504 299.6,-84.4274 277.818,-75.5164"/>
<polygon fill="midnightblue" stroke="midnightblue" points="357.503,-111.897 368.084,-112.444 360.154,-105.418 357.503,-111.897"/>
</g>
<!-- Node14&#45;&gt;Node14 -->
<g id="edge17" class="edge"><title>Node14&#45;&gt;Node14</title>
<path fill="none" stroke="midnightblue" d="M430.782,-132.393C448.453,-133.17 463.5,-129.706 463.5,-122 463.5,-112.867 442.364,-109.692 420.774,-112.475"/>
<polygon fill="midnightblue" stroke="midnightblue" points="431.039,-128.902 420.774,-131.525 430.435,-135.876 431.039,-128.902"/>
</g>
<!-- Node14&#45;&gt;Node15 -->
<g id="edge18" class="edge"><title>Node14&#45;&gt;Node15</title>
<path fill="none" stroke="midnightblue" d="M425.239,-109.378C494.46,-87.1791 644.03,-39.2121 705.151,-19.6104"/>
<polygon fill="midnightblue" stroke="midnightblue" points="424.083,-106.073 415.629,-112.46 426.22,-112.739 424.083,-106.073"/>
</g>
<!-- Node14&#45;&gt;Node16 -->
<g id="edge19" class="edge"><title>Node14&#45;&gt;Node16</title>
<path fill="none" stroke="midnightblue" d="M447.202,-110.695C508.251,-99.8866 602.487,-83.2023 655.092,-73.8886"/>
<polygon fill="midnightblue" stroke="midnightblue" points="446.565,-107.254 437.328,-112.444 447.785,-114.146 446.565,-107.254"/>
</g>
<!-- Node16&#45;&gt;Node15 -->
<g id="edge20" class="edge"><title>Node16&#45;&gt;Node15</title>
<path fill="none" stroke="midnightblue" d="M706.065,-47.8554C712.645,-38.5048 720.511,-27.3265 725.842,-19.7511"/>
<polygon fill="midnightblue" stroke="midnightblue" points="703.168,-45.8907 700.275,-56.083 708.892,-49.9192 703.168,-45.8907"/>
</g>
</g>
</svg>
