<?xml version="1.0" encoding="UTF-8" standalone="no"?>
<!DOCTYPE svg PUBLIC "-//W3C//DTD SVG 1.1//EN"
 "http://www.w3.org/Graphics/SVG/1.1/DTD/svg11.dtd">
<!-- Generated by graphviz version 2.36.0 (20140111.2315)
 -->
<!-- Title: src/audio/sources/mp3.cpp Pages: 1 -->
<!--zoomable 196 -->
<svg id="main" version="1.1" xmlns="http://www.w3.org/2000/svg" xmlns:xlink="http://www.w3.org/1999/xlink" xml:space="preserve" onload="init(evt)">
<style type="text/css"><![CDATA[
.edge:hover path { stroke: red; }
.edge:hover polygon { stroke: red; fill: red; }
]]></style>
<script type="text/javascript"><![CDATA[
var edges = document.getElementsByTagName('g');
if (edges && edges.length) {
  for (var i=0;i<edges.length;i++) {
    if (edges[i].id.substr(0,4)=='edge') {
      edges[i].setAttribute('class','edge');
    }
  }
}
]]></script>
        <defs>
                <circle id="rim" cx="0" cy="0" r="7"/>
                <circle id="rim2" cx="0" cy="0" r="3.5"/>
                <g id="zoomPlus">
                        <use xlink:href="#rim" fill="#404040">
                                <set attributeName="fill" to="#808080" begin="zoomplus.mouseover" end="zoomplus.mouseout"/>
                        </use>
                        <path d="M-4,0h8M0,-4v8" fill="none" stroke="white" stroke-width="1.5" pointer-events="none"/>
                </g>
                <g id="zoomMin">
                        <use xlink:href="#rim" fill="#404040">
                                <set attributeName="fill" to="#808080" begin="zoomminus.mouseover" end="zoomminus.mouseout"/>
                        </use>
                        <path d="M-4,0h8" fill="none" stroke="white" stroke-width="1.5" pointer-events="none"/>
                </g>
                <g id="dirArrow">
                        <path fill="none" stroke="white" stroke-width="1.5" d="M0,-3.0v7 M-2.5,-0.5L0,-3.0L2.5,-0.5"/>
                </g>
               <g id="resetDef">
                       <use xlink:href="#rim2" fill="#404040">
                               <set attributeName="fill" to="#808080" begin="reset.mouseover" end="reset.mouseout"/>
                       </use>
               </g>
        </defs>

<script type="text/javascript">
var viewWidth = 891;
var viewHeight = 196;
var sectionId = 'dynsection-0';
</script>
<script xlink:href="svgpan.js"/>
<svg id="graph" class="graph">
<g id="viewport">
<title>src/audio/sources/mp3.cpp</title>
<polygon fill="white" stroke="none" points="-4,4 -4,-192 887,-192 887,4 -4,4"/>
<!-- Node0 -->
<g id="node1" class="node"><title>Node0</title>
<polygon fill="#bfbfbf" stroke="black" points="406,-168.5 406,-187.5 552,-187.5 552,-168.5 406,-168.5"/>
<text text-anchor="middle" x="479" y="-175.5" font-family="Helvetica,sans-Serif" font-size="10.00">src/audio/sources/mp3.cpp</text>
</g>
<!-- Node1 -->
<g id="node2" class="node"><title>Node1</title>
<polygon fill="white" stroke="#bfbfbf" points="26,-112.5 26,-131.5 78,-131.5 78,-112.5 26,-112.5"/>
<text text-anchor="middle" x="52" y="-119.5" font-family="Helvetica,sans-Serif" font-size="10.00">cassert</text>
</g>
<!-- Node0&#45;&gt;Node1 -->
<g id="edge1" class="edge"><title>Node0&#45;&gt;Node1</title>
<path fill="none" stroke="midnightblue" d="M405.92,-170.821C327.865,-163.68 200.691,-150.494 92,-132 90.7369,-131.785 89.4537,-131.556 88.1594,-131.316"/>
<polygon fill="midnightblue" stroke="midnightblue" points="88.6656,-127.847 78.1714,-129.304 87.2837,-134.71 88.6656,-127.847"/>
</g>
<!-- Node2 -->
<g id="node3" class="node"><title>Node2</title>
<polygon fill="white" stroke="#bfbfbf" points="119.5,-0.5 119.5,-19.5 168.5,-19.5 168.5,-0.5 119.5,-0.5"/>
<text text-anchor="middle" x="144" y="-7.5" font-family="Helvetica,sans-Serif" font-size="10.00">cstdint</text>
</g>
<!-- Node0&#45;&gt;Node2 -->
<g id="edge2" class="edge"><title>Node0&#45;&gt;Node2</title>
<path fill="none" stroke="midnightblue" d="M405.872,-176.331C323.38,-173.955 196.346,-164.873 163,-132 135.704,-105.092 137.427,-56.089 140.836,-29.4452"/>
<polygon fill="midnightblue" stroke="midnightblue" points="144.302,-29.9329 142.321,-19.525 137.379,-28.8967 144.302,-29.9329"/>
</g>
<!-- Node3 -->
<g id="node4" class="node"><title>Node3</title>
<polygon fill="white" stroke="#bfbfbf" points="564.5,-112.5 564.5,-131.5 609.5,-131.5 609.5,-112.5 564.5,-112.5"/>
<text text-anchor="middle" x="587" y="-119.5" font-family="Helvetica,sans-Serif" font-size="10.00">cstdio</text>
</g>
<!-- Node0&#45;&gt;Node3 -->
<g id="edge3" class="edge"><title>Node0&#45;&gt;Node3</title>
<path fill="none" stroke="midnightblue" d="M496.352,-168.324C513.672,-159.664 540.515,-146.242 560.502,-136.249"/>
<polygon fill="midnightblue" stroke="midnightblue" points="562.312,-139.257 569.691,-131.655 559.181,-132.996 562.312,-139.257"/>
</g>
<!-- Node4 -->
<g id="node5" class="node"><title>Node4</title>
<polygon fill="white" stroke="#bfbfbf" points="627.5,-112.5 627.5,-131.5 674.5,-131.5 674.5,-112.5 627.5,-112.5"/>
<text text-anchor="middle" x="651" y="-119.5" font-family="Helvetica,sans-Serif" font-size="10.00">cstdlib</text>
</g>
<!-- Node0&#45;&gt;Node4 -->
<g id="edge4" class="edge"><title>Node0&#45;&gt;Node4</title>
<path fill="none" stroke="midnightblue" d="M506.254,-168.444C536.427,-158.971 585.079,-143.696 617.54,-133.505"/>
<polygon fill="midnightblue" stroke="midnightblue" points="618.974,-136.723 627.467,-130.388 616.877,-130.045 618.974,-136.723"/>
</g>
<!-- Node5 -->
<g id="node6" class="node"><title>Node5</title>
<polygon fill="white" stroke="#bfbfbf" points="398.5,-0.5 398.5,-19.5 457.5,-19.5 457.5,-0.5 398.5,-0.5"/>
<text text-anchor="middle" x="428" y="-7.5" font-family="Helvetica,sans-Serif" font-size="10.00">iostream</text>
</g>
<!-- Node0&#45;&gt;Node5 -->
<g id="edge5" class="edge"><title>Node0&#45;&gt;Node5</title>
<path fill="none" stroke="midnightblue" d="M473.36,-168.265C462.753,-151.298 440.084,-112.351 431,-76 427.187,-60.742 426.634,-42.856 426.923,-29.7128"/>
<polygon fill="midnightblue" stroke="midnightblue" points="430.426,-29.702 427.333,-19.5688 423.432,-29.4193 430.426,-29.702"/>
</g>
<!-- Node6 -->
<g id="node7" class="node"><title>Node6</title>
<polygon fill="white" stroke="#bfbfbf" points="693,-112.5 693,-131.5 731,-131.5 731,-112.5 693,-112.5"/>
<text text-anchor="middle" x="712" y="-119.5" font-family="Helvetica,sans-Serif" font-size="10.00">map</text>
</g>
<!-- Node0&#45;&gt;Node6 -->
<g id="edge6" class="edge"><title>Node0&#45;&gt;Node6</title>
<path fill="none" stroke="midnightblue" d="M522.631,-168.479C564.111,-160.118 628.134,-146.538 683,-132 683.099,-131.974 683.198,-131.948 683.297,-131.921"/>
<polygon fill="midnightblue" stroke="midnightblue" points="684.067,-135.341 692.722,-129.23 682.145,-128.61 684.067,-135.341"/>
</g>
<!-- Node7 -->
<g id="node8" class="node"><title>Node7</title>
<polygon fill="white" stroke="#bfbfbf" points="749.5,-112.5 749.5,-131.5 806.5,-131.5 806.5,-112.5 749.5,-112.5"/>
<text text-anchor="middle" x="778" y="-119.5" font-family="Helvetica,sans-Serif" font-size="10.00">memory</text>
</g>
<!-- Node0&#45;&gt;Node7 -->
<g id="edge7" class="edge"><title>Node0&#45;&gt;Node7</title>
<path fill="none" stroke="midnightblue" d="M534.43,-168.462C585.22,-160.409 662.708,-147.545 739.554,-131.983"/>
<polygon fill="midnightblue" stroke="midnightblue" points="740.31,-135.401 749.408,-129.972 738.91,-128.542 740.31,-135.401"/>
</g>
<!-- Node8 -->
<g id="node9" class="node"><title>Node8</title>
<polygon fill="white" stroke="#bfbfbf" points="508,-0.5 508,-19.5 564,-19.5 564,-0.5 508,-0.5"/>
<text text-anchor="middle" x="536" y="-7.5" font-family="Helvetica,sans-Serif" font-size="10.00">sstream</text>
</g>
<!-- Node0&#45;&gt;Node8 -->
<g id="edge8" class="edge"><title>Node0&#45;&gt;Node8</title>
<path fill="none" stroke="midnightblue" d="M485.182,-168.348C496.816,-151.523 521.719,-112.81 532,-76 536.234,-60.84 537.046,-42.9454 536.906,-29.7739"/>
<polygon fill="midnightblue" stroke="midnightblue" points="540.399,-29.4923 536.599,-19.6023 533.402,-29.7032 540.399,-29.4923"/>
</g>
<!-- Node9 -->
<g id="node10" class="node"><title>Node9</title>
<polygon fill="white" stroke="#bfbfbf" points="288,-56.5 288,-75.5 332,-75.5 332,-56.5 288,-56.5"/>
<text text-anchor="middle" x="310" y="-63.5" font-family="Helvetica,sans-Serif" font-size="10.00">string</text>
</g>
<!-- Node0&#45;&gt;Node9 -->
<g id="edge9" class="edge"><title>Node0&#45;&gt;Node9</title>
<path fill="none" stroke="midnightblue" d="M405.769,-169.82C378.514,-163.681 349.306,-152.45 329,-132 316.973,-119.887 312.476,-100.607 310.837,-86.1847"/>
<polygon fill="midnightblue" stroke="midnightblue" points="314.302,-85.5923 310.046,-75.8899 307.323,-86.1287 314.302,-85.5923"/>
</g>
<!-- Node10 -->
<g id="node11" class="node"><title>Node10</title>
<g id="a_node11"><a xlink:href="errors_8hpp.html" target="_top" xlink:title="Declarations of the playd Error exception set. ">
<polygon fill="white" stroke="black" points="440,-56.5 440,-75.5 524,-75.5 524,-56.5 440,-56.5"/>
<text text-anchor="middle" x="482" y="-63.5" font-family="Helvetica,sans-Serif" font-size="10.00">../../errors.hpp</text>
</a>
</g>
</g>
<!-- Node0&#45;&gt;Node10 -->
<g id="edge10" class="edge"><title>Node0&#45;&gt;Node10</title>
<path fill="none" stroke="midnightblue" d="M479.235,-168.368C479.72,-150.617 480.836,-109.666 481.493,-85.5974"/>
<polygon fill="midnightblue" stroke="midnightblue" points="484.992,-85.6832 481.766,-75.5914 477.994,-85.4922 484.992,-85.6832"/>
</g>
<!-- Node11 -->
<g id="node12" class="node"><title>Node11</title>
<g id="a_node12"><a xlink:href="messages_8h.html" target="_top" xlink:title="Constant human&#45;readable messages used within playd. ">
<polygon fill="white" stroke="black" points="338.5,-112.5 338.5,-131.5 431.5,-131.5 431.5,-112.5 338.5,-112.5"/>
<text text-anchor="middle" x="385" y="-119.5" font-family="Helvetica,sans-Serif" font-size="10.00">../../messages.h</text>
</a>
</g>
</g>
<!-- Node0&#45;&gt;Node11 -->
<g id="edge13" class="edge"><title>Node0&#45;&gt;Node11</title>
<path fill="none" stroke="midnightblue" d="M463.897,-168.324C449.097,-159.822 426.306,-146.729 409.018,-136.797"/>
<polygon fill="midnightblue" stroke="midnightblue" points="410.48,-133.601 400.065,-131.655 406.993,-139.671 410.48,-133.601"/>
</g>
<!-- Node12 -->
<g id="node13" class="node"><title>Node12</title>
<g id="a_node13"><a xlink:href="audio__source_8hpp.html" target="_top" xlink:title="Declaration of the AudioSource class. ">
<polygon fill="white" stroke="black" points="172,-112.5 172,-131.5 282,-131.5 282,-112.5 172,-112.5"/>
<text text-anchor="middle" x="227" y="-119.5" font-family="Helvetica,sans-Serif" font-size="10.00">../audio_source.hpp</text>
</a>
</g>
</g>
<!-- Node0&#45;&gt;Node12 -->
<g id="edge15" class="edge"><title>Node0&#45;&gt;Node12</title>
<path fill="none" stroke="midnightblue" d="M439.07,-168.444C395.109,-159.023 324.373,-143.866 276.817,-133.675"/>
<polygon fill="midnightblue" stroke="midnightblue" points="277.255,-130.189 266.743,-131.516 275.788,-137.034 277.255,-130.189"/>
</g>
<!-- Node14 -->
<g id="node15" class="node"><title>Node14</title>
<g id="a_node15"><a xlink:href="sample__formats_8hpp.html" target="_top" xlink:title="The SampleFormat enumeration and related declarations. ">
<polygon fill="white" stroke="black" points="0,-56.5 0,-75.5 116,-75.5 116,-56.5 0,-56.5"/>
<text text-anchor="middle" x="58" y="-63.5" font-family="Helvetica,sans-Serif" font-size="10.00">sample_formats.hpp</text>
</a>
</g>
</g>
<!-- Node0&#45;&gt;Node14 -->
<g id="edge23" class="edge"><title>Node0&#45;&gt;Node14</title>
<path fill="none" stroke="midnightblue" d="M405.967,-172.713C318.456,-166.69 177.658,-153.932 130,-132 105.958,-120.936 84.3002,-98.9603 71.1599,-83.6395"/>
<polygon fill="midnightblue" stroke="midnightblue" points="73.5207,-81.0016 64.4537,-75.5207 68.1237,-85.4596 73.5207,-81.0016"/>
</g>
<!-- Node16 -->
<g id="node17" class="node"><title>Node16</title>
<g id="a_node17"><a xlink:href="mp3_8hpp.html" target="_top" xlink:title="Declaration of the Mp3AudioSource class. ">
<polygon fill="white" stroke="black" points="824.5,-112.5 824.5,-131.5 883.5,-131.5 883.5,-112.5 824.5,-112.5"/>
<text text-anchor="middle" x="854" y="-119.5" font-family="Helvetica,sans-Serif" font-size="10.00">mp3.hpp</text>
</a>
</g>
</g>
<!-- Node0&#45;&gt;Node16 -->
<g id="edge24" class="edge"><title>Node0&#45;&gt;Node16</title>
<path fill="none" stroke="midnightblue" d="M552.062,-169.213C618.067,-161.723 718.052,-149.245 814.343,-131.965"/>
<polygon fill="midnightblue" stroke="midnightblue" points="815.034,-135.397 824.249,-130.168 813.785,-128.509 815.034,-135.397"/>
</g>
<!-- Node10&#45;&gt;Node5 -->
<g id="edge11" class="edge"><title>Node10&#45;&gt;Node5</title>
<path fill="none" stroke="midnightblue" d="M473.083,-56.083C465.22,-48.2195 453.569,-36.5688 444.081,-27.0813"/>
<polygon fill="midnightblue" stroke="midnightblue" points="446.297,-24.3473 436.751,-19.7511 441.347,-29.2971 446.297,-24.3473"/>
</g>
<!-- Node10&#45;&gt;Node8 -->
<g id="edge12" class="edge"><title>Node10&#45;&gt;Node8</title>
<path fill="none" stroke="midnightblue" d="M490.917,-56.083C498.78,-48.2195 510.431,-36.5688 519.919,-27.0813"/>
<polygon fill="midnightblue" stroke="midnightblue" points="522.653,-29.2971 527.249,-19.7511 517.703,-24.3473 522.653,-29.2971"/>
</g>
<!-- Node11&#45;&gt;Node9 -->
<g id="edge14" class="edge"><title>Node11&#45;&gt;Node9</title>
<path fill="none" stroke="midnightblue" d="M372.95,-112.324C361.537,-104.107 344.169,-91.6017 330.565,-81.8069"/>
<polygon fill="midnightblue" stroke="midnightblue" points="332.43,-78.8366 322.269,-75.8339 328.34,-84.5174 332.43,-78.8366"/>
</g>
<!-- Node12&#45;&gt;Node2 -->
<g id="edge16" class="edge"><title>Node12&#45;&gt;Node2</title>
<path fill="none" stroke="midnightblue" d="M220.487,-112.368C206.729,-94.135 174.503,-51.4257 156.582,-27.6752"/>
<polygon fill="midnightblue" stroke="midnightblue" points="159.3,-25.4659 150.483,-19.5914 153.712,-29.6821 159.3,-25.4659"/>
</g>
<!-- Node12&#45;&gt;Node9 -->
<g id="edge17" class="edge"><title>Node12&#45;&gt;Node9</title>
<path fill="none" stroke="midnightblue" d="M240.335,-112.324C253.162,-103.979 272.785,-91.2122 287.94,-81.3524"/>
<polygon fill="midnightblue" stroke="midnightblue" points="290.224,-84.0417 296.698,-75.6545 286.407,-78.1742 290.224,-84.0417"/>
</g>
<!-- Node12&#45;&gt;Node10 -->
<g id="edge19" class="edge"><title>Node12&#45;&gt;Node10</title>
<path fill="none" stroke="midnightblue" d="M267.406,-112.444C311.983,-103.004 383.768,-87.802 431.892,-77.6111"/>
<polygon fill="midnightblue" stroke="midnightblue" points="432.726,-81.0123 441.784,-75.5164 431.275,-74.1641 432.726,-81.0123"/>
</g>
<!-- Node13 -->
<g id="node14" class="node"><title>Node13</title>
<polygon fill="white" stroke="#bfbfbf" points="210.5,-56.5 210.5,-75.5 257.5,-75.5 257.5,-56.5 210.5,-56.5"/>
<text text-anchor="middle" x="234" y="-63.5" font-family="Helvetica,sans-Serif" font-size="10.00">vector</text>
</g>
<!-- Node12&#45;&gt;Node13 -->
<g id="edge18" class="edge"><title>Node12&#45;&gt;Node13</title>
<path fill="none" stroke="midnightblue" d="M228.156,-112.083C229.084,-104.927 230.418,-94.6353 231.577,-85.6911"/>
<polygon fill="midnightblue" stroke="midnightblue" points="235.051,-86.1181 232.866,-75.7511 228.109,-85.2181 235.051,-86.1181"/>
</g>
<!-- Node12&#45;&gt;Node14 -->
<g id="edge20" class="edge"><title>Node12&#45;&gt;Node14</title>
<path fill="none" stroke="midnightblue" d="M200.221,-112.444C171.667,-103.32 126.267,-88.8133 94.4631,-78.6509"/>
<polygon fill="midnightblue" stroke="midnightblue" points="95.2441,-75.2262 84.6533,-75.5164 93.1135,-81.8941 95.2441,-75.2262"/>
</g>
<!-- Node14&#45;&gt;Node2 -->
<g id="edge22" class="edge"><title>Node14&#45;&gt;Node2</title>
<path fill="none" stroke="midnightblue" d="M71.8174,-56.324C85.233,-47.9002 105.824,-34.9709 121.586,-25.0741"/>
<polygon fill="midnightblue" stroke="midnightblue" points="123.609,-27.9364 130.217,-19.6545 119.887,-22.0081 123.609,-27.9364"/>
</g>
<!-- Node15 -->
<g id="node16" class="node"><title>Node15</title>
<polygon fill="white" stroke="#bfbfbf" points="37.5,-0.5 37.5,-19.5 78.5,-19.5 78.5,-0.5 37.5,-0.5"/>
<text text-anchor="middle" x="58" y="-7.5" font-family="Helvetica,sans-Serif" font-size="10.00">array</text>
</g>
<!-- Node14&#45;&gt;Node15 -->
<g id="edge21" class="edge"><title>Node14&#45;&gt;Node15</title>
<path fill="none" stroke="midnightblue" d="M58,-56.083C58,-49.0059 58,-38.8611 58,-29.9865"/>
<polygon fill="midnightblue" stroke="midnightblue" points="61.5001,-29.751 58,-19.7511 54.5001,-29.7511 61.5001,-29.751"/>
</g>
</g>
</svg>
        <g id="navigator" transform="translate(0 0)" fill="#404254">
                <rect fill="#f2f5e9" fill-opacity="0.5" stroke="#606060" stroke-width=".5" x="0" y="0" width="60" height="60"/>
                <use id="zoomplus" xlink:href="#zoomPlus" x="17" y="9" onmousedown="handleZoom(evt,'in')"/>
                <use id="zoomminus" xlink:href="#zoomMin" x="42" y="9" onmousedown="handleZoom(evt,'out')"/>
                <use id="reset" xlink:href="#resetDef" x="30" y="36" onmousedown="handleReset()"/>
                <g id="arrowUp" xlink:href="#dirArrow" transform="translate(30 24)" onmousedown="handlePan(0,-1)">
                  <use xlink:href="#rim" fill="#404040">
                        <set attributeName="fill" to="#808080" begin="arrowUp.mouseover" end="arrowUp.mouseout"/>
                  </use>
                  <path fill="none" stroke="white" stroke-width="1.5" d="M0,-3.0v7 M-2.5,-0.5L0,-3.0L2.5,-0.5"/>
                </g>
                <g id="arrowRight" xlink:href="#dirArrow" transform="rotate(90) translate(36 -43)" onmousedown="handlePan(1,0)">
                  <use xlink:href="#rim" fill="#404040">
                        <set attributeName="fill" to="#808080" begin="arrowRight.mouseover" end="arrowRight.mouseout"/>
                  </use>
                  <path fill="none" stroke="white" stroke-width="1.5" d="M0,-3.0v7 M-2.5,-0.5L0,-3.0L2.5,-0.5"/>
                </g>
                <g id="arrowDown" xlink:href="#dirArrow" transform="rotate(180) translate(-30 -48)" onmousedown="handlePan(0,1)">
                  <use xlink:href="#rim" fill="#404040">
                        <set attributeName="fill" to="#808080" begin="arrowDown.mouseover" end="arrowDown.mouseout"/>
                  </use>
                  <path fill="none" stroke="white" stroke-width="1.5" d="M0,-3.0v7 M-2.5,-0.5L0,-3.0L2.5,-0.5"/>
                </g>
                <g id="arrowLeft" xlink:href="#dirArrow" transform="rotate(270) translate(-36 17)" onmousedown="handlePan(-1,0)">
                  <use xlink:href="#rim" fill="#404040">
                        <set attributeName="fill" to="#808080" begin="arrowLeft.mouseover" end="arrowLeft.mouseout"/>
                  </use>
                  <path fill="none" stroke="white" stroke-width="1.5" d="M0,-3.0v7 M-2.5,-0.5L0,-3.0L2.5,-0.5"/>
                </g>
        </g>
        <svg viewBox="0 0 15 15" width="100%" height="30px" preserveAspectRatio="xMaxYMin meet">
         <g id="arrow_out" transform="scale(0.3 0.3)">
          <a xlink:href="mp3_8cpp__incl_org.svg" target="_base">
           <rect id="button" ry="5" rx="5" y="6" x="6" height="38" width="38"
                fill="#f2f5e9" fill-opacity="0.5" stroke="#606060" stroke-width="1.0"/>
           <path id="arrow"
             d="M 11.500037,31.436501 C 11.940474,20.09759 22.043105,11.32322 32.158766,21.979434 L 37.068811,17.246167 C 37.068811,17.246167 37.088388,32 37.088388,32 L 22.160133,31.978069 C 22.160133,31.978069 26.997745,27.140456 26.997745,27.140456 C 18.528582,18.264221 13.291696,25.230495 11.500037,31.436501 z"
             style="fill:#404040;"/>
          </a>
         </g>
        </svg>
</svg>
