<?xml version="1.0" encoding="UTF-8" standalone="no"?>
<!DOCTYPE svg PUBLIC "-//W3C//DTD SVG 1.1//EN"
 "http://www.w3.org/Graphics/SVG/1.1/DTD/svg11.dtd">
<!-- Generated by graphviz version 2.38.0 (20140413.2041)
 -->
<!-- Title: src/player/player_file.cpp Pages: 1 -->
<svg width="1442pt" height="375pt"
 viewBox="0.00 0.00 1441.50 375.00" xmlns="http://www.w3.org/2000/svg" xmlns:xlink="http://www.w3.org/1999/xlink">
<g id="graph0" class="graph" transform="scale(1 1) rotate(0) translate(4 371)">
<title>src/player/player_file.cpp</title>
<polygon fill="white" stroke="none" points="-4,4 -4,-371 1437.5,-371 1437.5,4 -4,4"/>
<!-- Node1 -->
<g id="node1" class="node"><title>Node1</title>
<polygon fill="#bfbfbf" stroke="black" points="1128,-347.5 1128,-366.5 1262,-366.5 1262,-347.5 1128,-347.5"/>
<text text-anchor="middle" x="1195" y="-354.5" font-family="Helvetica,sans-Serif" font-size="10.00">src/player/player_file.cpp</text>
</g>
<!-- Node2 -->
<g id="node2" class="node"><title>Node2</title>
<g id="a_node2"><a xlink:href="io__response_8hpp.html" target="_top" xlink:title="Declaration of classes pertaining to responses to the client. ">
<polygon fill="white" stroke="black" points="1243,-123.5 1243,-142.5 1357,-142.5 1357,-123.5 1243,-123.5"/>
<text text-anchor="middle" x="1300" y="-130.5" font-family="Helvetica,sans-Serif" font-size="10.00">../io/io_response.hpp</text>
</a>
</g>
</g>
<!-- Node1&#45;&gt;Node2 -->
<g id="edge1" class="edge"><title>Node1&#45;&gt;Node2</title>
<path fill="none" stroke="midnightblue" d="M1199.12,-347.297C1214.66,-314.425 1270.02,-197.391 1291.44,-152.09"/>
<polygon fill="midnightblue" stroke="midnightblue" points="1294.69,-153.42 1295.8,-142.884 1288.36,-150.427 1294.69,-153.42"/>
</g>
<!-- Node10 -->
<g id="node10" class="node"><title>Node10</title>
<g id="a_node10"><a xlink:href="player__file_8hpp.html" target="_top" xlink:title="Declaration of the PlayerFile class, and associated types. ">
<polygon fill="white" stroke="black" points="974,-291.5 974,-310.5 1060,-310.5 1060,-291.5 974,-291.5"/>
<text text-anchor="middle" x="1017" y="-298.5" font-family="Helvetica,sans-Serif" font-size="10.00">player_file.hpp</text>
</a>
</g>
</g>
<!-- Node1&#45;&gt;Node10 -->
<g id="edge9" class="edge"><title>Node1&#45;&gt;Node10</title>
<path fill="none" stroke="midnightblue" d="M1166.8,-347.444C1136.59,-338.28 1088.49,-323.688 1054.97,-313.519"/>
<polygon fill="midnightblue" stroke="midnightblue" points="1055.66,-310.07 1045.07,-310.516 1053.63,-316.769 1055.66,-310.07"/>
</g>
<!-- Node3 -->
<g id="node3" class="node"><title>Node3</title>
<polygon fill="white" stroke="#bfbfbf" points="1205,-62 1205,-81 1267,-81 1267,-62 1205,-62"/>
<text text-anchor="middle" x="1236" y="-69" font-family="Helvetica,sans-Serif" font-size="10.00">functional</text>
</g>
<!-- Node2&#45;&gt;Node3 -->
<g id="edge2" class="edge"><title>Node2&#45;&gt;Node3</title>
<path fill="none" stroke="midnightblue" d="M1290.83,-123.475C1280.85,-114.197 1264.69,-99.1706 1252.49,-87.831"/>
<polygon fill="midnightblue" stroke="midnightblue" points="1254.86,-85.2547 1245.15,-81.0091 1250.09,-90.3814 1254.86,-85.2547"/>
</g>
<!-- Node4 -->
<g id="node4" class="node"><title>Node4</title>
<polygon fill="white" stroke="#bfbfbf" points="1396.5,-62 1396.5,-81 1433.5,-81 1433.5,-62 1396.5,-62"/>
<text text-anchor="middle" x="1415" y="-69" font-family="Helvetica,sans-Serif" font-size="10.00">map</text>
</g>
<!-- Node2&#45;&gt;Node4 -->
<g id="edge3" class="edge"><title>Node2&#45;&gt;Node4</title>
<path fill="none" stroke="midnightblue" d="M1316.92,-123.474C1334.68,-114.497 1363.38,-99.9048 1388,-87 1388.67,-86.648 1389.35,-86.2903 1390.04,-85.9286"/>
<polygon fill="midnightblue" stroke="midnightblue" points="1391.85,-88.9274 1399.04,-81.1407 1388.57,-82.7475 1391.85,-88.9274"/>
</g>
<!-- Node5 -->
<g id="node5" class="node"><title>Node5</title>
<polygon fill="white" stroke="#bfbfbf" points="1323.5,-62 1323.5,-81 1378.5,-81 1378.5,-62 1323.5,-62"/>
<text text-anchor="middle" x="1351" y="-69" font-family="Helvetica,sans-Serif" font-size="10.00">ostream</text>
</g>
<!-- Node2&#45;&gt;Node5 -->
<g id="edge4" class="edge"><title>Node2&#45;&gt;Node5</title>
<path fill="none" stroke="midnightblue" d="M1307.31,-123.475C1315.03,-114.462 1327.41,-100.025 1337.02,-88.8118"/>
<polygon fill="midnightblue" stroke="midnightblue" points="1339.86,-90.8795 1343.71,-81.0091 1334.54,-86.3239 1339.86,-90.8795"/>
</g>
<!-- Node6 -->
<g id="node6" class="node"><title>Node6</title>
<polygon fill="white" stroke="#bfbfbf" points="1098.5,-0.5 1098.5,-19.5 1141.5,-19.5 1141.5,-0.5 1098.5,-0.5"/>
<text text-anchor="middle" x="1120" y="-7.5" font-family="Helvetica,sans-Serif" font-size="10.00">string</text>
</g>
<!-- Node2&#45;&gt;Node6 -->
<g id="edge5" class="edge"><title>Node2&#45;&gt;Node6</title>
<path fill="none" stroke="midnightblue" d="M1299.8,-123.358C1298.97,-107.676 1294.92,-74.4521 1276,-56 1242.44,-23.2719 1186.65,-14.075 1151.68,-11.6482"/>
<polygon fill="midnightblue" stroke="midnightblue" points="1151.72,-8.14511 1141.54,-11.0939 1151.33,-15.1347 1151.72,-8.14511"/>
</g>
<!-- Node7 -->
<g id="node7" class="node"><title>Node7</title>
<g id="a_node7"><a xlink:href="errors_8hpp.html" target="_top" xlink:title="Declarations of the playd Error exception set. ">
<polygon fill="white" stroke="black" points="764.5,-62 764.5,-81 837.5,-81 837.5,-62 764.5,-62"/>
<text text-anchor="middle" x="801" y="-69" font-family="Helvetica,sans-Serif" font-size="10.00">../errors.hpp</text>
</a>
</g>
</g>
<!-- Node2&#45;&gt;Node7 -->
<g id="edge6" class="edge"><title>Node2&#45;&gt;Node7</title>
<path fill="none" stroke="midnightblue" d="M1242.79,-130.229C1156.12,-126.674 986.741,-116.301 846,-87 842.133,-86.1949 838.129,-85.1801 834.177,-84.0628"/>
<polygon fill="midnightblue" stroke="midnightblue" points="835.153,-80.7013 824.567,-81.1357 833.114,-87.3976 835.153,-80.7013"/>
</g>
<!-- Node8 -->
<g id="node8" class="node"><title>Node8</title>
<polygon fill="white" stroke="#bfbfbf" points="735.5,-0.5 735.5,-19.5 792.5,-19.5 792.5,-0.5 735.5,-0.5"/>
<text text-anchor="middle" x="764" y="-7.5" font-family="Helvetica,sans-Serif" font-size="10.00">iostream</text>
</g>
<!-- Node7&#45;&gt;Node8 -->
<g id="edge7" class="edge"><title>Node7&#45;&gt;Node8</title>
<path fill="none" stroke="midnightblue" d="M795.699,-61.9751C790.259,-53.2268 781.641,-39.3691 774.764,-28.3093"/>
<polygon fill="midnightblue" stroke="midnightblue" points="777.544,-26.1528 769.291,-19.5091 771.6,-29.8494 777.544,-26.1528"/>
</g>
<!-- Node9 -->
<g id="node9" class="node"><title>Node9</title>
<polygon fill="white" stroke="#bfbfbf" points="811,-0.5 811,-19.5 865,-19.5 865,-0.5 811,-0.5"/>
<text text-anchor="middle" x="838" y="-7.5" font-family="Helvetica,sans-Serif" font-size="10.00">sstream</text>
</g>
<!-- Node7&#45;&gt;Node9 -->
<g id="edge8" class="edge"><title>Node7&#45;&gt;Node9</title>
<path fill="none" stroke="midnightblue" d="M806.301,-61.9751C811.741,-53.2268 820.359,-39.3691 827.236,-28.3093"/>
<polygon fill="midnightblue" stroke="midnightblue" points="830.4,-29.8494 832.709,-19.5091 824.456,-26.1528 830.4,-29.8494"/>
</g>
<!-- Node10&#45;&gt;Node2 -->
<g id="edge56" class="edge"><title>Node10&#45;&gt;Node2</title>
<path fill="none" stroke="midnightblue" d="M1040.47,-291.473C1080.9,-276.224 1165.44,-241.831 1229,-199 1250.09,-184.792 1271.19,-164.514 1284.84,-150.399"/>
<polygon fill="midnightblue" stroke="midnightblue" points="1287.61,-152.557 1291.95,-142.893 1282.53,-147.74 1287.61,-152.557"/>
</g>
<!-- Node11 -->
<g id="node11" class="node"><title>Node11</title>
<polygon fill="white" stroke="#bfbfbf" points="342,-123.5 342,-142.5 396,-142.5 396,-123.5 342,-123.5"/>
<text text-anchor="middle" x="369" y="-130.5" font-family="Helvetica,sans-Serif" font-size="10.00">memory</text>
</g>
<!-- Node10&#45;&gt;Node11 -->
<g id="edge10" class="edge"><title>Node10&#45;&gt;Node11</title>
<path fill="none" stroke="midnightblue" d="M973.664,-297.763C849.618,-290.615 496.168,-264.81 404,-199 388.388,-187.853 379.068,-167.522 374.018,-152.556"/>
<polygon fill="midnightblue" stroke="midnightblue" points="377.317,-151.371 371.068,-142.815 370.617,-153.4 377.317,-151.371"/>
</g>
<!-- Node12 -->
<g id="node12" class="node"><title>Node12</title>
<g id="a_node12"><a xlink:href="audio__system_8hpp.html" target="_top" xlink:title="Declaration of the AudioSystem class. ">
<polygon fill="white" stroke="black" points="859.5,-235.5 859.5,-254.5 996.5,-254.5 996.5,-235.5 859.5,-235.5"/>
<text text-anchor="middle" x="928" y="-242.5" font-family="Helvetica,sans-Serif" font-size="10.00">../audio/audio_system.hpp</text>
</a>
</g>
</g>
<!-- Node10&#45;&gt;Node12 -->
<g id="edge11" class="edge"><title>Node10&#45;&gt;Node12</title>
<path fill="none" stroke="midnightblue" d="M1002.7,-291.324C988.817,-282.9 967.508,-269.971 951.196,-260.074"/>
<polygon fill="midnightblue" stroke="midnightblue" points="952.629,-256.85 942.264,-254.655 948.998,-262.834 952.629,-256.85"/>
</g>
<!-- Node12&#45;&gt;Node3 -->
<g id="edge12" class="edge"><title>Node12&#45;&gt;Node3</title>
<path fill="none" stroke="midnightblue" d="M996.722,-240.022C1064.59,-234.756 1162.28,-223.151 1191,-199 1223.46,-171.704 1232.51,-119.315 1235.03,-91.285"/>
<polygon fill="midnightblue" stroke="midnightblue" points="1238.53,-91.4386 1235.74,-81.2159 1231.55,-90.9432 1238.53,-91.4386"/>
</g>
<!-- Node12&#45;&gt;Node6 -->
<g id="edge13" class="edge"><title>Node12&#45;&gt;Node6</title>
<path fill="none" stroke="midnightblue" d="M958.242,-235.433C980.974,-228.075 1012.17,-215.956 1036,-199 1087.81,-162.142 1105.96,-147.662 1125,-87 1130.93,-68.1174 1128.21,-45.3359 1124.94,-29.6691"/>
<polygon fill="midnightblue" stroke="midnightblue" points="1128.28,-28.5988 1122.57,-19.6761 1121.47,-30.2138 1128.28,-28.5988"/>
</g>
<!-- Node13 -->
<g id="node13" class="node"><title>Node13</title>
<polygon fill="white" stroke="#bfbfbf" points="578,-123.5 578,-142.5 618,-142.5 618,-123.5 578,-123.5"/>
<text text-anchor="middle" x="598" y="-130.5" font-family="Helvetica,sans-Serif" font-size="10.00">utility</text>
</g>
<!-- Node12&#45;&gt;Node13 -->
<g id="edge14" class="edge"><title>Node12&#45;&gt;Node13</title>
<path fill="none" stroke="midnightblue" d="M859.27,-240.424C784.054,-235.321 669.431,-223.682 634,-199 618.157,-187.964 608.534,-167.614 603.273,-152.613"/>
<polygon fill="midnightblue" stroke="midnightblue" points="606.537,-151.327 600.187,-142.846 599.863,-153.436 606.537,-151.327"/>
</g>
<!-- Node14 -->
<g id="node14" class="node"><title>Node14</title>
<polygon fill="white" stroke="#bfbfbf" points="643.5,-179.5 643.5,-198.5 834.5,-198.5 834.5,-179.5 643.5,-179.5"/>
<text text-anchor="middle" x="739" y="-186.5" font-family="Helvetica,sans-Serif" font-size="10.00">portaudiocpp/SampleDataFormat.hxx</text>
</g>
<!-- Node12&#45;&gt;Node14 -->
<g id="edge15" class="edge"><title>Node12&#45;&gt;Node14</title>
<path fill="none" stroke="midnightblue" d="M898.052,-235.444C865.842,-226.241 814.466,-211.562 778.858,-201.388"/>
<polygon fill="midnightblue" stroke="midnightblue" points="779.384,-197.898 768.808,-198.516 777.461,-204.629 779.384,-197.898"/>
</g>
<!-- Node15 -->
<g id="node15" class="node"><title>Node15</title>
<polygon fill="white" stroke="#bfbfbf" points="0,-123.5 0,-142.5 134,-142.5 134,-123.5 0,-123.5"/>
<text text-anchor="middle" x="67" y="-130.5" font-family="Helvetica,sans-Serif" font-size="10.00">portaudiocpp/Stream.hxx</text>
</g>
<!-- Node12&#45;&gt;Node15 -->
<g id="edge16" class="edge"><title>Node12&#45;&gt;Node15</title>
<path fill="none" stroke="midnightblue" d="M859.497,-240.415C759.177,-234.645 566.562,-221.594 404,-199 299.941,-184.537 179.361,-159.163 114.379,-144.768"/>
<polygon fill="midnightblue" stroke="midnightblue" points="114.96,-141.312 104.438,-142.556 113.439,-148.145 114.96,-141.312"/>
</g>
<!-- Node16 -->
<g id="node16" class="node"><title>Node16</title>
<g id="a_node16"><a xlink:href="sample__formats_8hpp.html" target="_top" xlink:title="The SampleFormat enumeration. ">
<polygon fill="white" stroke="black" points="953.5,-62 953.5,-81 1072.5,-81 1072.5,-62 953.5,-62"/>
<text text-anchor="middle" x="1013" y="-69" font-family="Helvetica,sans-Serif" font-size="10.00">../sample_formats.hpp</text>
</a>
</g>
</g>
<!-- Node12&#45;&gt;Node16 -->
<g id="edge17" class="edge"><title>Node12&#45;&gt;Node16</title>
<path fill="none" stroke="midnightblue" d="M948.476,-235.435C979.145,-221.336 1035.87,-190.032 1059,-143 1068.88,-122.897 1050.44,-101.593 1034.05,-87.7331"/>
<polygon fill="midnightblue" stroke="midnightblue" points="1035.83,-84.6819 1025.82,-81.2095 1031.48,-90.1661 1035.83,-84.6819"/>
</g>
<!-- Node18 -->
<g id="node18" class="node"><title>Node18</title>
<g id="a_node18"><a xlink:href="audio__sink_8hpp.html" target="_top" xlink:title="Declaration of the AudioSink class. ">
<polygon fill="white" stroke="black" points="413.5,-179.5 413.5,-198.5 500.5,-198.5 500.5,-179.5 413.5,-179.5"/>
<text text-anchor="middle" x="457" y="-186.5" font-family="Helvetica,sans-Serif" font-size="10.00">audio_sink.hpp</text>
</a>
</g>
</g>
<!-- Node12&#45;&gt;Node18 -->
<g id="edge19" class="edge"><title>Node12&#45;&gt;Node18</title>
<path fill="none" stroke="midnightblue" d="M859.261,-236.119C764.676,-225.275 596.384,-205.98 510.555,-196.14"/>
<polygon fill="midnightblue" stroke="midnightblue" points="510.841,-192.65 500.507,-194.988 510.043,-199.604 510.841,-192.65"/>
</g>
<!-- Node23 -->
<g id="node23" class="node"><title>Node23</title>
<g id="a_node23"><a xlink:href="audio__source_8hpp.html" target="_top" xlink:title="Declaration of the AudioSource class. ">
<polygon fill="white" stroke="black" points="950,-123.5 950,-142.5 1050,-142.5 1050,-123.5 950,-123.5"/>
<text text-anchor="middle" x="1000" y="-130.5" font-family="Helvetica,sans-Serif" font-size="10.00">audio_source.hpp</text>
</a>
</g>
</g>
<!-- Node12&#45;&gt;Node23 -->
<g id="edge45" class="edge"><title>Node12&#45;&gt;Node23</title>
<path fill="none" stroke="midnightblue" d="M933.65,-235.368C945.532,-217.215 973.294,-174.802 988.879,-150.99"/>
<polygon fill="midnightblue" stroke="midnightblue" points="991.828,-152.875 994.377,-142.591 985.971,-149.042 991.828,-152.875"/>
</g>
<!-- Node30 -->
<g id="node30" class="node"><title>Node30</title>
<g id="a_node30"><a xlink:href="audio_8hpp.html" target="_top" xlink:title="Declaration of the Audio class. ">
<polygon fill="white" stroke="black" points="853,-179.5 853,-198.5 915,-198.5 915,-179.5 853,-179.5"/>
<text text-anchor="middle" x="884" y="-186.5" font-family="Helvetica,sans-Serif" font-size="10.00">audio.hpp</text>
</a>
</g>
</g>
<!-- Node12&#45;&gt;Node30 -->
<g id="edge46" class="edge"><title>Node12&#45;&gt;Node30</title>
<path fill="none" stroke="midnightblue" d="M920.734,-235.083C914.455,-227.377 905.212,-216.033 897.569,-206.653"/>
<polygon fill="midnightblue" stroke="midnightblue" points="900.161,-204.293 891.131,-198.751 894.734,-208.714 900.161,-204.293"/>
</g>
<!-- Node17 -->
<g id="node17" class="node"><title>Node17</title>
<polygon fill="white" stroke="#bfbfbf" points="527.5,-0.5 527.5,-19.5 574.5,-19.5 574.5,-0.5 527.5,-0.5"/>
<text text-anchor="middle" x="551" y="-7.5" font-family="Helvetica,sans-Serif" font-size="10.00">cstdint</text>
</g>
<!-- Node16&#45;&gt;Node17 -->
<g id="edge18" class="edge"><title>Node16&#45;&gt;Node17</title>
<path fill="none" stroke="midnightblue" d="M972.388,-61.9504C961.568,-59.8348 949.866,-57.692 939,-56 808.615,-35.6965 652.268,-20.2591 584.761,-14.0211"/>
<polygon fill="midnightblue" stroke="midnightblue" points="584.984,-10.527 574.707,-13.0995 584.345,-17.4978 584.984,-10.527"/>
</g>
<!-- Node18&#45;&gt;Node6 -->
<g id="edge23" class="edge"><title>Node18&#45;&gt;Node6</title>
<path fill="none" stroke="midnightblue" d="M413.461,-181.294C368.098,-172.479 306.985,-154.317 333,-123 388.757,-55.8809 446.845,-123.72 526,-87 545.772,-77.8278 543.779,-64.1357 564,-56 612.691,-36.4093 977.612,-17.7292 1088.28,-12.4654"/>
<polygon fill="midnightblue" stroke="midnightblue" points="1088.64,-15.9522 1098.47,-11.9847 1088.31,-8.96 1088.64,-15.9522"/>
</g>
<!-- Node18&#45;&gt;Node11 -->
<g id="edge22" class="edge"><title>Node18&#45;&gt;Node11</title>
<path fill="none" stroke="midnightblue" d="M442.861,-179.324C429.134,-170.9 408.064,-157.971 391.936,-148.074"/>
<polygon fill="midnightblue" stroke="midnightblue" points="393.457,-144.902 383.104,-142.655 389.796,-150.868 393.457,-144.902"/>
</g>
<!-- Node18&#45;&gt;Node13 -->
<g id="edge24" class="edge"><title>Node18&#45;&gt;Node13</title>
<path fill="none" stroke="midnightblue" d="M479.342,-179.444C503.304,-170.267 541.483,-155.645 568.039,-145.474"/>
<polygon fill="midnightblue" stroke="midnightblue" points="569.507,-148.66 577.594,-141.815 567.004,-142.123 569.507,-148.66"/>
</g>
<!-- Node18&#45;&gt;Node15 -->
<g id="edge28" class="edge"><title>Node18&#45;&gt;Node15</title>
<path fill="none" stroke="midnightblue" d="M413.397,-181.963C346.777,-172.738 218.938,-155.038 138.579,-143.911"/>
<polygon fill="midnightblue" stroke="midnightblue" points="138.923,-140.425 128.537,-142.521 137.963,-147.359 138.923,-140.425"/>
</g>
<!-- Node18&#45;&gt;Node17 -->
<g id="edge21" class="edge"><title>Node18&#45;&gt;Node17</title>
<path fill="none" stroke="midnightblue" d="M413.325,-183.12C342.971,-174.876 210.796,-157.655 195,-143 166.29,-116.363 155.032,-85.3173 181,-56 203.138,-31.006 430.075,-17.0638 517.196,-12.5989"/>
<polygon fill="midnightblue" stroke="midnightblue" points="517.531,-16.0866 527.343,-12.0895 517.18,-9.09537 517.531,-16.0866"/>
</g>
<!-- Node19 -->
<g id="node19" class="node"><title>Node19</title>
<polygon fill="white" stroke="#bfbfbf" points="573,-62 573,-81 623,-81 623,-62 573,-62"/>
<text text-anchor="middle" x="598" y="-69" font-family="Helvetica,sans-Serif" font-size="10.00">chrono</text>
</g>
<!-- Node18&#45;&gt;Node19 -->
<g id="edge20" class="edge"><title>Node18&#45;&gt;Node19</title>
<path fill="none" stroke="midnightblue" d="M452.34,-179.491C445.716,-166.116 435.674,-139.955 448,-123 478.496,-81.0501 510.016,-104.041 559,-87 561.245,-86.219 563.557,-85.3992 565.882,-84.5634"/>
<polygon fill="midnightblue" stroke="midnightblue" points="567.181,-87.8152 575.374,-81.0969 564.78,-81.2401 567.181,-87.8152"/>
</g>
<!-- Node20 -->
<g id="node20" class="node"><title>Node20</title>
<polygon fill="white" stroke="#bfbfbf" points="641,-62 641,-81 687,-81 687,-62 641,-62"/>
<text text-anchor="middle" x="664" y="-69" font-family="Helvetica,sans-Serif" font-size="10.00">vector</text>
</g>
<!-- Node18&#45;&gt;Node20 -->
<g id="edge25" class="edge"><title>Node18&#45;&gt;Node20</title>
<path fill="none" stroke="midnightblue" d="M457.647,-179.408C459.176,-165.432 464.261,-137.847 481,-123 532.615,-77.2196 566.725,-109.34 632,-87 633.666,-86.4297 635.364,-85.8036 637.064,-85.1416"/>
<polygon fill="midnightblue" stroke="midnightblue" points="638.791,-88.2115 646.64,-81.0944 636.066,-81.7638 638.791,-88.2115"/>
</g>
<!-- Node21 -->
<g id="node21" class="node"><title>Node21</title>
<polygon fill="white" stroke="#bfbfbf" points="490.5,-123.5 490.5,-142.5 559.5,-142.5 559.5,-123.5 490.5,-123.5"/>
<text text-anchor="middle" x="525" y="-130.5" font-family="Helvetica,sans-Serif" font-size="10.00">portaudio.h</text>
</g>
<!-- Node18&#45;&gt;Node21 -->
<g id="edge26" class="edge"><title>Node18&#45;&gt;Node21</title>
<path fill="none" stroke="midnightblue" d="M467.925,-179.324C478.175,-171.185 493.721,-158.839 506.001,-149.087"/>
<polygon fill="midnightblue" stroke="midnightblue" points="508.221,-151.794 513.876,-142.834 503.868,-146.312 508.221,-151.794"/>
</g>
<!-- Node22 -->
<g id="node22" class="node"><title>Node22</title>
<polygon fill="white" stroke="#bfbfbf" points="636,-123.5 636,-142.5 818,-142.5 818,-123.5 636,-123.5"/>
<text text-anchor="middle" x="727" y="-130.5" font-family="Helvetica,sans-Serif" font-size="10.00">portaudiocpp/CallbackInterface.hxx</text>
</g>
<!-- Node18&#45;&gt;Node22 -->
<g id="edge27" class="edge"><title>Node18&#45;&gt;Node22</title>
<path fill="none" stroke="midnightblue" d="M499.782,-179.444C547.179,-169.964 623.626,-154.675 674.583,-144.483"/>
<polygon fill="midnightblue" stroke="midnightblue" points="675.298,-147.91 684.418,-142.516 673.926,-141.046 675.298,-147.91"/>
</g>
<!-- Node18&#45;&gt;Node23 -->
<g id="edge29" class="edge"><title>Node18&#45;&gt;Node23</title>
<path fill="none" stroke="midnightblue" d="M500.518,-183.672C597.038,-174.074 829.223,-150.983 939.668,-140"/>
<polygon fill="midnightblue" stroke="midnightblue" points="940.043,-143.48 949.648,-139.007 939.35,-136.514 940.043,-143.48"/>
</g>
<!-- Node26 -->
<g id="node26" class="node"><title>Node26</title>
<g id="a_node26"><a xlink:href="ringbuffer_8hpp.html" target="_top" xlink:title="The RingBuffer class template. ">
<polygon fill="white" stroke="black" points="204.5,-123.5 204.5,-142.5 285.5,-142.5 285.5,-123.5 204.5,-123.5"/>
<text text-anchor="middle" x="245" y="-130.5" font-family="Helvetica,sans-Serif" font-size="10.00">ringbuffer.hpp</text>
</a>
</g>
</g>
<!-- Node18&#45;&gt;Node26 -->
<g id="edge39" class="edge"><title>Node18&#45;&gt;Node26</title>
<path fill="none" stroke="midnightblue" d="M423.408,-179.444C386.813,-170.122 328.162,-155.183 288.174,-144.997"/>
<polygon fill="midnightblue" stroke="midnightblue" points="288.989,-141.593 278.435,-142.516 287.261,-148.377 288.989,-141.593"/>
</g>
<!-- Node23&#45;&gt;Node3 -->
<g id="edge33" class="edge"><title>Node23&#45;&gt;Node3</title>
<path fill="none" stroke="midnightblue" d="M1033.81,-123.475C1076.35,-112.75 1149.35,-94.3468 1195.02,-82.8329"/>
<polygon fill="midnightblue" stroke="midnightblue" points="1196.04,-86.1836 1204.88,-80.345 1194.33,-79.396 1196.04,-86.1836"/>
</g>
<!-- Node23&#45;&gt;Node6 -->
<g id="edge34" class="edge"><title>Node23&#45;&gt;Node6</title>
<path fill="none" stroke="midnightblue" d="M1023.33,-123.411C1040.95,-115.974 1064.78,-103.764 1081,-87 1097.07,-70.3884 1108.03,-45.8331 1114.14,-29.1642"/>
<polygon fill="midnightblue" stroke="midnightblue" points="1117.52,-30.1066 1117.47,-19.5119 1110.9,-27.8279 1117.52,-30.1066"/>
</g>
<!-- Node23&#45;&gt;Node7 -->
<g id="edge37" class="edge"><title>Node23&#45;&gt;Node7</title>
<path fill="none" stroke="midnightblue" d="M969.828,-123.448C938.727,-114.571 888.869,-100.167 846,-87 843.036,-86.0895 839.966,-85.1319 836.887,-84.1609"/>
<polygon fill="midnightblue" stroke="midnightblue" points="837.727,-80.7554 827.137,-81.0556 835.603,-87.4253 837.727,-80.7554"/>
</g>
<!-- Node23&#45;&gt;Node16 -->
<g id="edge38" class="edge"><title>Node23&#45;&gt;Node16</title>
<path fill="none" stroke="midnightblue" d="M1001.86,-123.475C1003.72,-114.992 1006.62,-101.704 1009,-90.8222"/>
<polygon fill="midnightblue" stroke="midnightblue" points="1012.43,-91.5257 1011.14,-81.0091 1005.59,-90.0315 1012.43,-91.5257"/>
</g>
<!-- Node23&#45;&gt;Node17 -->
<g id="edge32" class="edge"><title>Node23&#45;&gt;Node17</title>
<path fill="none" stroke="midnightblue" d="M989.184,-123.317C964.408,-103.429 905.614,-56.26 905,-56 847.654,-31.7146 662.053,-17.8199 585.009,-12.9735"/>
<polygon fill="midnightblue" stroke="midnightblue" points="585.079,-9.47125 574.883,-12.3495 584.649,-16.458 585.079,-9.47125"/>
</g>
<!-- Node23&#45;&gt;Node19 -->
<g id="edge31" class="edge"><title>Node23&#45;&gt;Node19</title>
<path fill="none" stroke="midnightblue" d="M949.987,-127.64C863.787,-119.831 690.82,-102.799 632,-87 629.699,-86.382 627.351,-85.6383 625.017,-84.8184"/>
<polygon fill="midnightblue" stroke="midnightblue" points="626.25,-81.5428 615.663,-81.1453 623.692,-88.0584 626.25,-81.5428"/>
</g>
<!-- Node23&#45;&gt;Node20 -->
<g id="edge35" class="edge"><title>Node23&#45;&gt;Node20</title>
<path fill="none" stroke="midnightblue" d="M949.925,-124.958C866.76,-113.209 708.044,-90.5443 696,-87 694.069,-86.4318 692.104,-85.7691 690.146,-85.0458"/>
<polygon fill="midnightblue" stroke="midnightblue" points="691.181,-81.6855 680.603,-81.0801 688.495,-88.1496 691.181,-81.6855"/>
</g>
<!-- Node24 -->
<g id="node24" class="node"><title>Node24</title>
<polygon fill="white" stroke="#bfbfbf" points="855.5,-62 855.5,-81 896.5,-81 896.5,-62 855.5,-62"/>
<text text-anchor="middle" x="876" y="-69" font-family="Helvetica,sans-Serif" font-size="10.00">array</text>
</g>
<!-- Node23&#45;&gt;Node24 -->
<g id="edge30" class="edge"><title>Node23&#45;&gt;Node24</title>
<path fill="none" stroke="midnightblue" d="M982.234,-123.475C961.516,-113.534 927.048,-96.9947 903.011,-85.461"/>
<polygon fill="midnightblue" stroke="midnightblue" points="904.263,-82.1797 893.733,-81.0091 901.235,-88.4908 904.263,-82.1797"/>
</g>
<!-- Node25 -->
<g id="node25" class="node"><title>Node25</title>
<polygon fill="white" stroke="#bfbfbf" points="705.5,-62 705.5,-81 746.5,-81 746.5,-62 705.5,-62"/>
<text text-anchor="middle" x="726" y="-69" font-family="Helvetica,sans-Serif" font-size="10.00">sox.h</text>
</g>
<!-- Node23&#45;&gt;Node25 -->
<g id="edge36" class="edge"><title>Node23&#45;&gt;Node25</title>
<path fill="none" stroke="midnightblue" d="M949.834,-124.495C889.031,-115.1 790.324,-98.8099 755,-87 753.385,-86.4601 751.747,-85.8453 750.114,-85.1809"/>
<polygon fill="midnightblue" stroke="midnightblue" points="751.555,-81.9916 741.006,-81.0085 748.64,-88.3555 751.555,-81.9916"/>
</g>
<!-- Node26&#45;&gt;Node7 -->
<g id="edge42" class="edge"><title>Node26&#45;&gt;Node7</title>
<path fill="none" stroke="midnightblue" d="M285.731,-127.69C300.602,-126.155 317.557,-124.448 333,-123 520.414,-105.424 570.339,-123.517 755,-87 759.159,-86.1777 763.471,-85.1135 767.715,-83.9353"/>
<polygon fill="midnightblue" stroke="midnightblue" points="768.809,-87.2613 777.384,-81.0395 766.801,-80.5556 768.809,-87.2613"/>
</g>
<!-- Node27 -->
<g id="node27" class="node"><title>Node27</title>
<polygon fill="white" stroke="#bfbfbf" points="190.5,-62 190.5,-81 241.5,-81 241.5,-62 190.5,-62"/>
<text text-anchor="middle" x="216" y="-69" font-family="Helvetica,sans-Serif" font-size="10.00">cassert</text>
</g>
<!-- Node26&#45;&gt;Node27 -->
<g id="edge40" class="edge"><title>Node26&#45;&gt;Node27</title>
<path fill="none" stroke="midnightblue" d="M240.845,-123.475C236.624,-114.815 229.963,-101.149 224.6,-90.1453"/>
<polygon fill="midnightblue" stroke="midnightblue" points="227.675,-88.4648 220.147,-81.0091 221.382,-91.5317 227.675,-88.4648"/>
</g>
<!-- Node28 -->
<g id="node28" class="node"><title>Node28</title>
<polygon fill="white" stroke="#bfbfbf" points="259.5,-56.5 259.5,-86.5 380.5,-86.5 380.5,-56.5 259.5,-56.5"/>
<text text-anchor="start" x="267.5" y="-74.5" font-family="Helvetica,sans-Serif" font-size="10.00">../contrib/pa_ringbuffer</text>
<text text-anchor="middle" x="320" y="-63.5" font-family="Helvetica,sans-Serif" font-size="10.00">/pa_ringbuffer.h</text>
</g>
<!-- Node26&#45;&gt;Node28 -->
<g id="edge41" class="edge"><title>Node26&#45;&gt;Node28</title>
<path fill="none" stroke="midnightblue" d="M255.746,-123.475C265.808,-115.492 281.234,-103.254 294.449,-92.7703"/>
<polygon fill="midnightblue" stroke="midnightblue" points="296.665,-95.48 302.324,-86.523 292.315,-89.9961 296.665,-95.48"/>
</g>
<!-- Node29 -->
<g id="node29" class="node"><title>Node29</title>
<g id="a_node29"><a xlink:href="messages_8h.html" target="_top" xlink:title="Constant human&#45;readable messages used within playd. ">
<polygon fill="white" stroke="black" points="437,-62 437,-81 517,-81 517,-62 437,-62"/>
<text text-anchor="middle" x="477" y="-69" font-family="Helvetica,sans-Serif" font-size="10.00">../messages.h</text>
</a>
</g>
</g>
<!-- Node26&#45;&gt;Node29 -->
<g id="edge43" class="edge"><title>Node26&#45;&gt;Node29</title>
<path fill="none" stroke="midnightblue" d="M278.24,-123.475C319.242,-112.959 389.029,-95.0615 434.054,-83.5142"/>
<polygon fill="midnightblue" stroke="midnightblue" points="435.005,-86.8837 443.822,-81.0091 433.266,-80.1031 435.005,-86.8837"/>
</g>
<!-- Node29&#45;&gt;Node6 -->
<g id="edge44" class="edge"><title>Node29&#45;&gt;Node6</title>
<path fill="none" stroke="midnightblue" d="M504.808,-61.9731C513.158,-59.7011 522.389,-57.4719 531,-56 639.849,-37.3946 982.378,-18.2471 1088.4,-12.6359"/>
<polygon fill="midnightblue" stroke="midnightblue" points="1088.67,-16.1269 1098.47,-12.1063 1088.3,-9.13655 1088.67,-16.1269"/>
</g>
<!-- Node30&#45;&gt;Node6 -->
<g id="edge50" class="edge"><title>Node30&#45;&gt;Node6</title>
<path fill="none" stroke="midnightblue" d="M915.028,-185.766C951.878,-181.879 1014.01,-171.34 1059,-143 1086.49,-125.682 1092.15,-116.395 1106,-87 1114.56,-68.8338 1117.89,-45.931 1119.19,-30.0398"/>
<polygon fill="midnightblue" stroke="midnightblue" points="1122.69,-30.0727 1119.82,-19.8758 1115.71,-29.6408 1122.69,-30.0727"/>
</g>
<!-- Node30&#45;&gt;Node11 -->
<g id="edge49" class="edge"><title>Node30&#45;&gt;Node11</title>
<path fill="none" stroke="midnightblue" d="M852.735,-180.727C849.458,-180.088 846.168,-179.496 843,-179 758.775,-165.808 502.552,-144.66 406.18,-136.941"/>
<polygon fill="midnightblue" stroke="midnightblue" points="406.28,-133.438 396.033,-136.131 405.722,-140.416 406.28,-133.438"/>
</g>
<!-- Node30&#45;&gt;Node13 -->
<g id="edge51" class="edge"><title>Node30&#45;&gt;Node13</title>
<path fill="none" stroke="midnightblue" d="M852.695,-180.956C849.426,-180.272 846.148,-179.608 843,-179 750.518,-161.155 723.425,-165.183 627.955,-142.958"/>
<polygon fill="midnightblue" stroke="midnightblue" points="628.722,-139.542 618.185,-140.648 627.111,-146.355 628.722,-139.542"/>
</g>
<!-- Node30&#45;&gt;Node17 -->
<g id="edge48" class="edge"><title>Node30&#45;&gt;Node17</title>
<path fill="none" stroke="midnightblue" d="M879.395,-179.385C871.102,-164.85 852.152,-135.79 827,-123 747.644,-82.6468 488.056,-152.719 428,-87 418.706,-76.8293 420.107,-67.2927 428,-56 447.955,-27.4504 488.071,-16.9552 517.074,-13.13"/>
<polygon fill="midnightblue" stroke="midnightblue" points="517.648,-16.5878 527.199,-12.0015 516.873,-9.6309 517.648,-16.5878"/>
</g>
<!-- Node30&#45;&gt;Node19 -->
<g id="edge47" class="edge"><title>Node30&#45;&gt;Node19</title>
<path fill="none" stroke="midnightblue" d="M883.479,-179.26C882.131,-165.072 877.301,-137.188 860,-123 780.673,-57.9482 730.597,-115.337 632,-87 629.71,-86.3419 627.37,-85.5698 625.041,-84.7305"/>
<polygon fill="midnightblue" stroke="midnightblue" points="626.283,-81.4579 615.697,-81.0225 623.701,-87.9643 626.283,-81.4579"/>
</g>
<!-- Node30&#45;&gt;Node20 -->
<g id="edge52" class="edge"><title>Node30&#45;&gt;Node20</title>
<path fill="none" stroke="midnightblue" d="M889.936,-179.331C898.439,-165.738 911.638,-139.283 898,-123 839.447,-53.0889 783.095,-114.028 696,-87 694.121,-86.417 692.208,-85.7508 690.299,-85.0315"/>
<polygon fill="midnightblue" stroke="midnightblue" points="691.541,-81.7574 680.965,-81.1336 688.844,-88.2168 691.541,-81.7574"/>
</g>
<!-- Node30&#45;&gt;Node21 -->
<g id="edge53" class="edge"><title>Node30&#45;&gt;Node21</title>
<path fill="none" stroke="midnightblue" d="M852.715,-180.844C849.442,-180.182 846.158,-179.553 843,-179 725.207,-158.372 691.875,-163.048 569.671,-142.992"/>
<polygon fill="midnightblue" stroke="midnightblue" points="569.983,-139.496 559.544,-141.308 568.834,-146.401 569.983,-139.496"/>
</g>
<!-- Node30&#45;&gt;Node22 -->
<g id="edge54" class="edge"><title>Node30&#45;&gt;Node22</title>
<path fill="none" stroke="midnightblue" d="M859.123,-179.444C832.711,-170.359 790.785,-155.939 761.258,-145.783"/>
<polygon fill="midnightblue" stroke="midnightblue" points="762.355,-142.459 751.761,-142.516 760.079,-149.079 762.355,-142.459"/>
</g>
<!-- Node30&#45;&gt;Node23 -->
<g id="edge55" class="edge"><title>Node30&#45;&gt;Node23</title>
<path fill="none" stroke="midnightblue" d="M902.381,-179.444C921.216,-170.675 950.731,-156.935 972.379,-146.858"/>
<polygon fill="midnightblue" stroke="midnightblue" points="974.117,-149.91 981.705,-142.516 971.162,-143.564 974.117,-149.91"/>
</g>
</g>
</svg>
