<?xml version="1.0" encoding="UTF-8" standalone="no"?>
<!DOCTYPE svg PUBLIC "-//W3C//DTD SVG 1.1//EN"
 "http://www.w3.org/Graphics/SVG/1.1/DTD/svg11.dtd">
<!-- Generated by graphviz version 2.38.0 (20140413.2041)
 -->
<!-- Title: src/player/player_state.hpp Pages: 1 -->
<svg width="936pt" height="364pt"
 viewBox="0.00 0.00 935.84 364.00" xmlns="http://www.w3.org/2000/svg" xmlns:xlink="http://www.w3.org/1999/xlink">
<g id="graph0" class="graph" transform="scale(1 1) rotate(0) translate(4 360)">
<title>src/player/player_state.hpp</title>
<polygon fill="white" stroke="none" points="-4,4 -4,-360 931.839,-360 931.839,4 -4,4"/>
<!-- Node1 -->
<g id="node1" class="node"><title>Node1</title>
<polygon fill="#bfbfbf" stroke="black" points="632.839,-336.5 632.839,-355.5 778.839,-355.5 778.839,-336.5 632.839,-336.5"/>
<text text-anchor="middle" x="705.839" y="-343.5" font-family="Helvetica,sans-Serif" font-size="10.00">src/player/player_state.hpp</text>
</g>
<!-- Node2 -->
<g id="node2" class="node"><title>Node2</title>
<g id="a_node2"><a xlink:href="player_8hpp.html" target="_top" xlink:title="Declaration of the Player class, and associated types. ">
<polygon fill="white" stroke="black" points="523.839,-280.5 523.839,-299.5 639.839,-299.5 639.839,-280.5 523.839,-280.5"/>
<text text-anchor="middle" x="581.839" y="-287.5" font-family="Helvetica,sans-Serif" font-size="10.00">src/player/player.hpp</text>
</a>
</g>
</g>
<!-- Node1&#45;&gt;Node2 -->
<g id="edge1" class="edge"><title>Node1&#45;&gt;Node2</title>
<path fill="none" stroke="midnightblue" d="M676.831,-332.368C653.61,-322.255 621.676,-308.349 601.395,-299.516"/>
<polygon fill="midnightblue" stroke="midnightblue" points="675.625,-335.66 686.191,-336.444 678.42,-329.242 675.625,-335.66"/>
</g>
<!-- Node11 -->
<g id="node11" class="node"><title>Node11</title>
<g id="a_node11"><a xlink:href="player_8cpp.html" target="_top" xlink:title="Main implementation file for the Player class. ">
<polygon fill="white" stroke="black" points="648.339,-224.5 648.339,-243.5 763.339,-243.5 763.339,-224.5 648.339,-224.5"/>
<text text-anchor="middle" x="705.839" y="-231.5" font-family="Helvetica,sans-Serif" font-size="10.00">src/player/player.cpp</text>
</a>
</g>
</g>
<!-- Node1&#45;&gt;Node11 -->
<g id="edge24" class="edge"><title>Node1&#45;&gt;Node11</title>
<path fill="none" stroke="midnightblue" d="M705.839,-326.348C705.839,-302.254 705.839,-261.308 705.839,-243.591"/>
<polygon fill="midnightblue" stroke="midnightblue" points="702.339,-326.368 705.839,-336.368 709.339,-326.369 702.339,-326.368"/>
</g>
<!-- Node13 -->
<g id="node13" class="node"><title>Node13</title>
<g id="a_node13"><a xlink:href="player__state_8cpp.html" target="_top" xlink:title="Implementation of the PlayerState class, and related Player methods. ">
<polygon fill="white" stroke="black" points="781.839,-224.5 781.839,-243.5 927.839,-243.5 927.839,-224.5 781.839,-224.5"/>
<text text-anchor="middle" x="854.839" y="-231.5" font-family="Helvetica,sans-Serif" font-size="10.00">src/player/player_state.cpp</text>
</a>
</g>
</g>
<!-- Node1&#45;&gt;Node13 -->
<g id="edge25" class="edge"><title>Node1&#45;&gt;Node13</title>
<path fill="none" stroke="midnightblue" d="M725.592,-330.417C757.107,-307.151 817.792,-262.35 843.201,-243.591"/>
<polygon fill="midnightblue" stroke="midnightblue" points="723.497,-327.613 717.531,-336.368 727.655,-333.245 723.497,-327.613"/>
</g>
<!-- Node3 -->
<g id="node3" class="node"><title>Node3</title>
<g id="a_node3"><a xlink:href="cmd_8hpp.html" target="_top" xlink:title="Declaration of the CommandHandler class. ">
<polygon fill="white" stroke="black" points="354.839,-224.5 354.839,-243.5 430.839,-243.5 430.839,-224.5 354.839,-224.5"/>
<text text-anchor="middle" x="392.839" y="-231.5" font-family="Helvetica,sans-Serif" font-size="10.00">src/cmd.hpp</text>
</a>
</g>
</g>
<!-- Node2&#45;&gt;Node3 -->
<g id="edge2" class="edge"><title>Node2&#45;&gt;Node3</title>
<path fill="none" stroke="midnightblue" d="M541.826,-277.568C506.172,-267.381 454.801,-252.703 422.646,-243.516"/>
<polygon fill="midnightblue" stroke="midnightblue" points="541.314,-281.062 551.891,-280.444 543.238,-274.331 541.314,-281.062"/>
</g>
<!-- Node5 -->
<g id="node5" class="node"><title>Node5</title>
<g id="a_node5"><a xlink:href="io__core_8cpp.html" target="_top" xlink:title="Implementation of the non&#45;virtual aspects of the IoCore class. ">
<polygon fill="white" stroke="black" points="439.839,-56.5 439.839,-75.5 539.839,-75.5 539.839,-56.5 439.839,-56.5"/>
<text text-anchor="middle" x="489.839" y="-63.5" font-family="Helvetica,sans-Serif" font-size="10.00">src/io/io_core.cpp</text>
</a>
</g>
</g>
<!-- Node2&#45;&gt;Node5 -->
<g id="edge17" class="edge"><title>Node2&#45;&gt;Node5</title>
<path fill="none" stroke="midnightblue" d="M581.357,-270.41C580.154,-246.028 576.009,-202.319 561.839,-168 546.06,-129.784 513.449,-92.0794 498.13,-75.6157"/>
<polygon fill="midnightblue" stroke="midnightblue" points="577.861,-270.566 581.736,-280.426 584.856,-270.301 577.861,-270.566"/>
</g>
<!-- Node6 -->
<g id="node6" class="node"><title>Node6</title>
<g id="a_node6"><a xlink:href="io__core_8hpp.html" target="_top" xlink:title="Declaration of the IoCore class. ">
<polygon fill="white" stroke="black" points="137.339,-112.5 137.339,-131.5 238.339,-131.5 238.339,-112.5 137.339,-112.5"/>
<text text-anchor="middle" x="187.839" y="-119.5" font-family="Helvetica,sans-Serif" font-size="10.00">src/io/io_core.hpp</text>
</a>
</g>
</g>
<!-- Node2&#45;&gt;Node6 -->
<g id="edge18" class="edge"><title>Node2&#45;&gt;Node6</title>
<path fill="none" stroke="midnightblue" d="M513.555,-279.805C416.364,-265.265 245.383,-233.83 204.839,-188 190.618,-171.925 188.057,-145.379 187.742,-131.718"/>
<polygon fill="midnightblue" stroke="midnightblue" points="513.184,-283.288 523.588,-281.285 514.206,-276.363 513.184,-283.288"/>
</g>
<!-- Node7 -->
<g id="node7" class="node"><title>Node7</title>
<g id="a_node7"><a xlink:href="main_8cpp.html" target="_top" xlink:title="Main entry point and implementation of the playd class. ">
<polygon fill="white" stroke="black" points="278.839,-0.5 278.839,-19.5 356.839,-19.5 356.839,-0.5 278.839,-0.5"/>
<text text-anchor="middle" x="317.839" y="-7.5" font-family="Helvetica,sans-Serif" font-size="10.00">src/main.cpp</text>
</a>
</g>
</g>
<!-- Node2&#45;&gt;Node7 -->
<g id="edge19" class="edge"><title>Node2&#45;&gt;Node7</title>
<path fill="none" stroke="midnightblue" d="M591.982,-271.429C603.238,-250.236 619.839,-213.187 619.839,-179 619.839,-179 619.839,-179 619.839,-121 619.839,-78.2177 587.043,-75.2553 548.839,-56 486.631,-24.6463 404.819,-15.0957 357.111,-12.2136"/>
<polygon fill="midnightblue" stroke="midnightblue" points="588.891,-269.785 587.123,-280.231 595.02,-273.168 588.891,-269.785"/>
</g>
<!-- Node8 -->
<g id="node8" class="node"><title>Node8</title>
<g id="a_node8"><a xlink:href="main_8hpp.html" target="_top" xlink:title="Declaration of the playd class. ">
<polygon fill="white" stroke="black" points="111.339,-56.5 111.339,-75.5 190.339,-75.5 190.339,-56.5 111.339,-56.5"/>
<text text-anchor="middle" x="150.839" y="-63.5" font-family="Helvetica,sans-Serif" font-size="10.00">src/main.hpp</text>
</a>
</g>
</g>
<!-- Node2&#45;&gt;Node8 -->
<g id="edge20" class="edge"><title>Node2&#45;&gt;Node8</title>
<path fill="none" stroke="midnightblue" d="M513.758,-288.666C370.258,-287.251 47.1489,-280.053 13.8388,-244 -42.0653,-183.492 88.5752,-101.815 135.134,-75.5265"/>
<polygon fill="midnightblue" stroke="midnightblue" points="513.741,-292.166 523.773,-288.758 513.805,-285.166 513.741,-292.166"/>
</g>
<!-- Node2&#45;&gt;Node11 -->
<g id="edge21" class="edge"><title>Node2&#45;&gt;Node11</title>
<path fill="none" stroke="midnightblue" d="M610.846,-276.368C634.067,-266.255 666.001,-252.349 686.283,-243.516"/>
<polygon fill="midnightblue" stroke="midnightblue" points="609.258,-273.242 601.487,-280.444 612.053,-279.66 609.258,-273.242"/>
</g>
<!-- Node12 -->
<g id="node12" class="node"><title>Node12</title>
<g id="a_node12"><a xlink:href="player__position_8cpp.html" target="_top" xlink:title="Implementation of the PlayerPosition class, and related Player methods. ">
<polygon fill="white" stroke="black" points="22.8388,-224.5 22.8388,-243.5 180.839,-243.5 180.839,-224.5 22.8388,-224.5"/>
<text text-anchor="middle" x="101.839" y="-231.5" font-family="Helvetica,sans-Serif" font-size="10.00">src/player/player_position.cpp</text>
</a>
</g>
</g>
<!-- Node2&#45;&gt;Node12 -->
<g id="edge22" class="edge"><title>Node2&#45;&gt;Node12</title>
<path fill="none" stroke="midnightblue" d="M513.487,-281.31C424.621,-271.313 269.893,-253.906 177.553,-243.518"/>
<polygon fill="midnightblue" stroke="midnightblue" points="513.133,-284.793 523.461,-282.433 513.915,-277.836 513.133,-284.793"/>
</g>
<!-- Node2&#45;&gt;Node13 -->
<g id="edge23" class="edge"><title>Node2&#45;&gt;Node13</title>
<path fill="none" stroke="midnightblue" d="M635.057,-278.473C686.651,-268.268 763.943,-252.979 811.784,-243.516"/>
<polygon fill="midnightblue" stroke="midnightblue" points="634.227,-275.07 625.097,-280.444 635.586,-281.937 634.227,-275.07"/>
</g>
<!-- Node4 -->
<g id="node4" class="node"><title>Node4</title>
<g id="a_node4"><a xlink:href="cmd_8cpp.html" target="_top" xlink:title="Implementation of the CommandHandler class. ">
<polygon fill="white" stroke="black" points="478.339,-168.5 478.339,-187.5 553.339,-187.5 553.339,-168.5 478.339,-168.5"/>
<text text-anchor="middle" x="515.839" y="-175.5" font-family="Helvetica,sans-Serif" font-size="10.00">src/cmd.cpp</text>
</a>
</g>
</g>
<!-- Node3&#45;&gt;Node4 -->
<g id="edge3" class="edge"><title>Node3&#45;&gt;Node4</title>
<path fill="none" stroke="midnightblue" d="M421.612,-220.368C444.646,-210.255 476.323,-196.349 496.44,-187.516"/>
<polygon fill="midnightblue" stroke="midnightblue" points="420.078,-217.219 412.329,-224.444 422.892,-223.628 420.078,-217.219"/>
</g>
<!-- Node3&#45;&gt;Node5 -->
<g id="edge4" class="edge"><title>Node3&#45;&gt;Node5</title>
<path fill="none" stroke="midnightblue" d="M406.058,-216.209C412.348,-207.918 419.796,-197.647 425.839,-188 451.197,-147.52 476.189,-96.0135 485.757,-75.7501"/>
<polygon fill="midnightblue" stroke="midnightblue" points="403.149,-214.249 399.809,-224.304 408.69,-218.527 403.149,-214.249"/>
</g>
<!-- Node3&#45;&gt;Node6 -->
<g id="edge5" class="edge"><title>Node3&#45;&gt;Node6</title>
<path fill="none" stroke="midnightblue" d="M344.529,-229.527C308.934,-224.834 260.977,-213.821 226.839,-188 207.316,-173.234 195.575,-145.612 190.613,-131.61"/>
<polygon fill="midnightblue" stroke="midnightblue" points="344.338,-233.029 354.683,-230.74 345.169,-226.079 344.338,-233.029"/>
</g>
<!-- Node3&#45;&gt;Node7 -->
<g id="edge15" class="edge"><title>Node3&#45;&gt;Node7</title>
<path fill="none" stroke="midnightblue" d="M396.116,-214.548C399.657,-190.316 403.373,-146.771 391.839,-112 378.767,-72.5929 344.008,-35.7663 327.2,-19.6059"/>
<polygon fill="midnightblue" stroke="midnightblue" points="392.648,-214.066 394.508,-224.496 399.559,-215.183 392.648,-214.066"/>
</g>
<!-- Node3&#45;&gt;Node8 -->
<g id="edge16" class="edge"><title>Node3&#45;&gt;Node8</title>
<path fill="none" stroke="midnightblue" d="M344.612,-226.805C305.579,-220.549 249.885,-208.761 204.839,-188 166.408,-170.288 147.041,-169.708 127.839,-132 118.061,-112.799 133.404,-88.4647 143.376,-75.7081"/>
<polygon fill="midnightblue" stroke="midnightblue" points="344.242,-230.289 354.658,-228.352 345.307,-223.371 344.242,-230.289"/>
</g>
<!-- Node9 -->
<g id="node9" class="node"><title>Node9</title>
<g id="a_node9"><a xlink:href="tokeniser_8hpp.html" target="_top" xlink:title="Declaration of the Tokeniser class. ">
<polygon fill="white" stroke="black" points="235.839,-168.5 235.839,-187.5 345.839,-187.5 345.839,-168.5 235.839,-168.5"/>
<text text-anchor="middle" x="290.839" y="-175.5" font-family="Helvetica,sans-Serif" font-size="10.00">src/io/tokeniser.hpp</text>
</a>
</g>
</g>
<!-- Node3&#45;&gt;Node9 -->
<g id="edge11" class="edge"><title>Node3&#45;&gt;Node9</title>
<path fill="none" stroke="midnightblue" d="M367.508,-219.59C348.649,-209.605 323.455,-196.267 307.186,-187.655"/>
<polygon fill="midnightblue" stroke="midnightblue" points="365.975,-222.738 376.451,-224.324 369.251,-216.552 365.975,-222.738"/>
</g>
<!-- Node10 -->
<g id="node10" class="node"><title>Node10</title>
<g id="a_node10"><a xlink:href="tokeniser_8cpp.html" target="_top" xlink:title="Definition of the Tokeniser class. ">
<polygon fill="white" stroke="black" points="274.339,-112.5 274.339,-131.5 383.339,-131.5 383.339,-112.5 274.339,-112.5"/>
<text text-anchor="middle" x="328.839" y="-119.5" font-family="Helvetica,sans-Serif" font-size="10.00">src/io/tokeniser.cpp</text>
</a>
</g>
</g>
<!-- Node3&#45;&gt;Node10 -->
<g id="edge14" class="edge"><title>Node3&#45;&gt;Node10</title>
<path fill="none" stroke="midnightblue" d="M382.738,-215.64C368.835,-191.744 344.332,-149.629 333.837,-131.591"/>
<polygon fill="midnightblue" stroke="midnightblue" points="379.763,-217.485 387.817,-224.368 385.813,-213.965 379.763,-217.485"/>
</g>
<!-- Node6&#45;&gt;Node5 -->
<g id="edge6" class="edge"><title>Node6&#45;&gt;Node5</title>
<path fill="none" stroke="midnightblue" d="M245.643,-110.664C302.715,-100.459 388.956,-85.0386 442.21,-75.5164"/>
<polygon fill="midnightblue" stroke="midnightblue" points="244.919,-107.238 235.692,-112.444 246.152,-114.129 244.919,-107.238"/>
</g>
<!-- Node6&#45;&gt;Node6 -->
<g id="edge7" class="edge"><title>Node6&#45;&gt;Node6</title>
<path fill="none" stroke="midnightblue" d="M227.156,-132.432C243.011,-133.04 256.339,-129.563 256.339,-122 256.339,-112.867 236.905,-109.692 217.054,-112.475"/>
<polygon fill="midnightblue" stroke="midnightblue" points="227.327,-128.933 217.054,-131.525 226.701,-135.905 227.327,-128.933"/>
</g>
<!-- Node6&#45;&gt;Node7 -->
<g id="edge8" class="edge"><title>Node6&#45;&gt;Node7</title>
<path fill="none" stroke="midnightblue" d="M205.784,-105.816C233.472,-82.3874 285.705,-38.1898 307.685,-19.5914"/>
<polygon fill="midnightblue" stroke="midnightblue" points="203.413,-103.237 198.04,-112.368 207.934,-108.581 203.413,-103.237"/>
</g>
<!-- Node6&#45;&gt;Node8 -->
<g id="edge9" class="edge"><title>Node6&#45;&gt;Node8</title>
<path fill="none" stroke="midnightblue" d="M175.893,-103.566C169.527,-94.2747 161.972,-83.2484 156.835,-75.7511"/>
<polygon fill="midnightblue" stroke="midnightblue" points="173.189,-105.812 181.729,-112.083 178.964,-101.855 173.189,-105.812"/>
</g>
<!-- Node8&#45;&gt;Node7 -->
<g id="edge10" class="edge"><title>Node8&#45;&gt;Node7</title>
<path fill="none" stroke="midnightblue" d="M187.008,-53.3044C218.476,-43.1294 263.333,-28.6246 291.501,-19.5164"/>
<polygon fill="midnightblue" stroke="midnightblue" points="185.739,-50.0366 177.3,-56.4435 187.892,-56.697 185.739,-50.0366"/>
</g>
<!-- Node9&#45;&gt;Node6 -->
<g id="edge12" class="edge"><title>Node9&#45;&gt;Node6</title>
<path fill="none" stroke="midnightblue" d="M265.26,-163.59C246.215,-153.605 220.774,-140.267 204.347,-131.655"/>
<polygon fill="midnightblue" stroke="midnightblue" points="263.808,-166.78 274.29,-168.324 267.059,-160.581 263.808,-166.78"/>
</g>
<!-- Node9&#45;&gt;Node10 -->
<g id="edge13" class="edge"><title>Node9&#45;&gt;Node10</title>
<path fill="none" stroke="midnightblue" d="M302.904,-159.855C309.484,-150.505 317.35,-139.327 322.681,-131.751"/>
<polygon fill="midnightblue" stroke="midnightblue" points="300.006,-157.891 297.114,-168.083 305.731,-161.919 300.006,-157.891"/>
</g>
</g>
</svg>
