<?xml version="1.0" encoding="UTF-8" standalone="no"?>
<!DOCTYPE svg PUBLIC "-//W3C//DTD SVG 1.1//EN"
 "http://www.w3.org/Graphics/SVG/1.1/DTD/svg11.dtd">
<!-- Generated by graphviz version 2.38.0 (20140413.2041)
 -->
<!-- Title: src/player/player.cpp Pages: 1 -->
<!--zoomable 431 -->
<svg id="main" version="1.1" xmlns="http://www.w3.org/2000/svg" xmlns:xlink="http://www.w3.org/1999/xlink" xml:space="preserve" onload="init(evt)">
<style type="text/css"><![CDATA[
.edge:hover path { stroke: red; }
.edge:hover polygon { stroke: red; fill: red; }
]]></style>
<script type="text/javascript"><![CDATA[
var edges = document.getElementsByTagName('g');
if (edges && edges.length) {
  for (var i=0;i<edges.length;i++) {
    if (edges[i].id.substr(0,4)=='edge') {
      edges[i].setAttribute('class','edge');
    }
  }
}
]]></script>
        <defs>
                <circle id="rim" cx="0" cy="0" r="7"/>
                <circle id="rim2" cx="0" cy="0" r="3.5"/>
                <g id="zoomPlus">
                        <use xlink:href="#rim" fill="#404040">
                                <set attributeName="fill" to="#808080" begin="zoomplus.mouseover" end="zoomplus.mouseout"/>
                        </use>
                        <path d="M-4,0h8M0,-4v8" fill="none" stroke="white" stroke-width="1.5" pointer-events="none"/>
                </g>
                <g id="zoomMin">
                        <use xlink:href="#rim" fill="#404040">
                                <set attributeName="fill" to="#808080" begin="zoomminus.mouseover" end="zoomminus.mouseout"/>
                        </use>
                        <path d="M-4,0h8" fill="none" stroke="white" stroke-width="1.5" pointer-events="none"/>
                </g>
                <g id="dirArrow">
                        <path fill="none" stroke="white" stroke-width="1.5" d="M0,-3.0v7 M-2.5,-0.5L0,-3.0L2.5,-0.5"/>
                </g>
               <g id="resetDef">
                       <use xlink:href="#rim2" fill="#404040">
                               <set attributeName="fill" to="#808080" begin="reset.mouseover" end="reset.mouseout"/>
                       </use>
               </g>
        </defs>

<script type="text/javascript">
var viewWidth = 1752;
var viewHeight = 431;
var sectionId = 'dynsection-0';
</script>
<script xlink:href="svgpan.js"/>
<svg id="graph" class="graph">
<g id="viewport">
<title>src/player/player.cpp</title>
<polygon fill="white" stroke="none" points="-4,4 -4,-427 1748,-427 1748,4 -4,4"/>
<!-- Node1 -->
<g id="node1" class="node"><title>Node1</title>
<polygon fill="#bfbfbf" stroke="black" points="625.5,-403.5 625.5,-422.5 740.5,-422.5 740.5,-403.5 625.5,-403.5"/>
<text text-anchor="middle" x="683" y="-410.5" font-family="Helvetica,sans-Serif" font-size="10.00">src/player/player.cpp</text>
</g>
<!-- Node2 -->
<g id="node2" class="node"><title>Node2</title>
<polygon fill="white" stroke="#bfbfbf" points="358.5,-62 358.5,-81 409.5,-81 409.5,-62 358.5,-62"/>
<text text-anchor="middle" x="384" y="-69" font-family="Helvetica,sans-Serif" font-size="10.00">cassert</text>
</g>
<!-- Node1&#45;&gt;Node2 -->
<g id="edge1" class="edge"><title>Node1&#45;&gt;Node2</title>
<path fill="none" stroke="midnightblue" d="M625.411,-407.107C557.839,-400.542 450.618,-387.303 416,-367 322.203,-311.989 361.514,-146.959 378.044,-91.1666"/>
<polygon fill="midnightblue" stroke="midnightblue" points="381.495,-91.8495 381.085,-81.2626 374.804,-89.7948 381.495,-91.8495"/>
</g>
<!-- Node3 -->
<g id="node3" class="node"><title>Node3</title>
<polygon fill="white" stroke="#bfbfbf" points="11,-0.5 11,-19.5 65,-19.5 65,-0.5 11,-0.5"/>
<text text-anchor="middle" x="38" y="-7.5" font-family="Helvetica,sans-Serif" font-size="10.00">sstream</text>
</g>
<!-- Node1&#45;&gt;Node3 -->
<g id="edge2" class="edge"><title>Node1&#45;&gt;Node3</title>
<path fill="none" stroke="midnightblue" d="M625.177,-411.585C495.899,-410.018 187.208,-402.551 90,-367 43.6605,-350.053 0,-351.341 0,-302 0,-302 0,-302 0,-132 0,-93.8116 17.4417,-51.8296 28.692,-28.7224"/>
<polygon fill="midnightblue" stroke="midnightblue" points="31.9579,-30.0195 33.3405,-19.5153 25.7091,-26.8646 31.9579,-30.0195"/>
</g>
<!-- Node4 -->
<g id="node4" class="node"><title>Node4</title>
<polygon fill="white" stroke="#bfbfbf" points="1638,-347.5 1638,-366.5 1700,-366.5 1700,-347.5 1638,-347.5"/>
<text text-anchor="middle" x="1669" y="-354.5" font-family="Helvetica,sans-Serif" font-size="10.00">stdexcept</text>
</g>
<!-- Node1&#45;&gt;Node4 -->
<g id="edge3" class="edge"><title>Node1&#45;&gt;Node4</title>
<path fill="none" stroke="midnightblue" d="M740.538,-412.235C887.995,-412.192 1291.23,-408 1624,-367 1625.11,-366.864 1626.23,-366.715 1627.36,-366.557"/>
<polygon fill="midnightblue" stroke="midnightblue" points="1628.31,-369.948 1637.63,-364.897 1627.2,-363.037 1628.31,-369.948"/>
</g>
<!-- Node5 -->
<g id="node5" class="node"><title>Node5</title>
<polygon fill="white" stroke="#bfbfbf" points="681.5,-0.5 681.5,-19.5 724.5,-19.5 724.5,-0.5 681.5,-0.5"/>
<text text-anchor="middle" x="703" y="-7.5" font-family="Helvetica,sans-Serif" font-size="10.00">string</text>
</g>
<!-- Node1&#45;&gt;Node5 -->
<g id="edge4" class="edge"><title>Node1&#45;&gt;Node5</title>
<path fill="none" stroke="midnightblue" d="M625.209,-409.287C514.417,-403.652 276.107,-389.315 197,-367 134.062,-349.246 65,-367.394 65,-302 65,-302 65,-302 65,-188 65,-126.569 57.7206,-93.9858 106,-56 155.438,-17.103 608.99,-30.5742 671,-20 671.213,-19.9636 671.427,-19.9264 671.642,-19.8883"/>
<polygon fill="midnightblue" stroke="midnightblue" points="672.44,-23.2964 681.452,-17.725 670.933,-16.4606 672.44,-23.2964"/>
</g>
<!-- Node6 -->
<g id="node6" class="node"><title>Node6</title>
<g id="a_node6"><a xlink:href="audio__system_8hpp.html" target="_top" xlink:title="Declaration of the AudioSystem class. ">
<polygon fill="white" stroke="black" points="614.5,-235.5 614.5,-254.5 751.5,-254.5 751.5,-235.5 614.5,-235.5"/>
<text text-anchor="middle" x="683" y="-242.5" font-family="Helvetica,sans-Serif" font-size="10.00">../audio/audio_system.hpp</text>
</a>
</g>
</g>
<!-- Node1&#45;&gt;Node6 -->
<g id="edge5" class="edge"><title>Node1&#45;&gt;Node6</title>
<path fill="none" stroke="midnightblue" d="M683,-403.075C683,-376.945 683,-300.211 683,-264.577"/>
<polygon fill="midnightblue" stroke="midnightblue" points="686.5,-264.568 683,-254.568 679.5,-264.568 686.5,-264.568"/>
</g>
<!-- Node20 -->
<g id="node20" class="node"><title>Node20</title>
<g id="a_node20"><a xlink:href="errors_8hpp.html" target="_top" xlink:title="Declarations of the playd Error exception set. ">
<polygon fill="white" stroke="black" points="597.5,-62 597.5,-81 670.5,-81 670.5,-62 597.5,-62"/>
<text text-anchor="middle" x="634" y="-69" font-family="Helvetica,sans-Serif" font-size="10.00">../errors.hpp</text>
</a>
</g>
</g>
<!-- Node1&#45;&gt;Node20 -->
<g id="edge48" class="edge"><title>Node1&#45;&gt;Node20</title>
<path fill="none" stroke="midnightblue" d="M625.429,-403.49C536.282,-388.671 375,-354.593 375,-302 375,-302 375,-302 375,-188 375,-153.605 388.658,-142.486 417,-123 480.999,-78.9984 512.874,-106.698 588,-87 591.425,-86.1021 594.973,-85.1052 598.51,-84.0666"/>
<polygon fill="midnightblue" stroke="midnightblue" points="599.792,-87.3352 608.34,-81.0764 597.755,-80.6382 599.792,-87.3352"/>
</g>
<!-- Node24 -->
<g id="node24" class="node"><title>Node24</title>
<g id="a_node24"><a xlink:href="messages_8h.html" target="_top" xlink:title="Constant human&#45;readable messages used within playd. ">
<polygon fill="white" stroke="black" points="115,-62 115,-81 195,-81 195,-62 115,-62"/>
<text text-anchor="middle" x="155" y="-69" font-family="Helvetica,sans-Serif" font-size="10.00">../messages.h</text>
</a>
</g>
</g>
<!-- Node1&#45;&gt;Node24 -->
<g id="edge54" class="edge"><title>Node1&#45;&gt;Node24</title>
<path fill="none" stroke="midnightblue" d="M625.267,-407.091C478.563,-393.845 103,-354.782 103,-302 103,-302 103,-302 103,-188 103,-150.094 126.576,-110.869 141.979,-89.2874"/>
<polygon fill="midnightblue" stroke="midnightblue" points="144.849,-91.2931 147.987,-81.1737 139.223,-87.1273 144.849,-91.2931"/>
</g>
<!-- Node25 -->
<g id="node25" class="node"><title>Node25</title>
<g id="a_node25"><a xlink:href="audio_8hpp.html" target="_top" xlink:title="Declaration of the Audio class. ">
<polygon fill="white" stroke="black" points="1136,-179.5 1136,-198.5 1198,-198.5 1198,-179.5 1136,-179.5"/>
<text text-anchor="middle" x="1167" y="-186.5" font-family="Helvetica,sans-Serif" font-size="10.00">audio.hpp</text>
</a>
</g>
</g>
<!-- Node1&#45;&gt;Node25 -->
<g id="edge47" class="edge"><title>Node1&#45;&gt;Node25</title>
<path fill="none" stroke="midnightblue" d="M701.677,-403.433C775.941,-369.37 1050.56,-243.407 1139.21,-202.745"/>
<polygon fill="midnightblue" stroke="midnightblue" points="1140.75,-205.892 1148.38,-198.541 1137.83,-199.529 1140.75,-205.892"/>
</g>
<!-- Node26 -->
<g id="node26" class="node"><title>Node26</title>
<g id="a_node26"><a xlink:href="io__response_8hpp.html" target="_top" xlink:title="Declaration of classes pertaining to responses to the client. ">
<polygon fill="white" stroke="black" points="1410,-179.5 1410,-198.5 1524,-198.5 1524,-179.5 1410,-179.5"/>
<text text-anchor="middle" x="1467" y="-186.5" font-family="Helvetica,sans-Serif" font-size="10.00">../io/io_response.hpp</text>
</a>
</g>
</g>
<!-- Node1&#45;&gt;Node26 -->
<g id="edge49" class="edge"><title>Node1&#45;&gt;Node26</title>
<path fill="none" stroke="midnightblue" d="M740.542,-412.713C881.895,-413.738 1242.67,-411.751 1353,-367 1415.95,-341.467 1432.16,-318.223 1457,-255 1462.81,-240.206 1465.26,-222.279 1466.28,-209.002"/>
<polygon fill="midnightblue" stroke="midnightblue" points="1469.8,-208.909 1466.87,-198.727 1462.81,-208.514 1469.8,-208.909"/>
</g>
<!-- Node29 -->
<g id="node29" class="node"><title>Node29</title>
<g id="a_node29"><a xlink:href="player__state_8hpp.html" target="_top" xlink:title="Declaration of the PlayerState class, and associated types. ">
<polygon fill="white" stroke="black" points="1638.5,-291.5 1638.5,-310.5 1733.5,-310.5 1733.5,-291.5 1638.5,-291.5"/>
<text text-anchor="middle" x="1686" y="-298.5" font-family="Helvetica,sans-Serif" font-size="10.00">player_state.hpp</text>
</a>
</g>
</g>
<!-- Node1&#45;&gt;Node29 -->
<g id="edge55" class="edge"><title>Node1&#45;&gt;Node29</title>
<path fill="none" stroke="midnightblue" d="M740.509,-410.873C926.751,-406.982 1505.97,-392.91 1586,-367 1618.29,-356.547 1650.22,-332.836 1669.02,-317.127"/>
<polygon fill="midnightblue" stroke="midnightblue" points="1671.38,-319.717 1676.69,-310.55 1666.82,-314.405 1671.38,-319.717"/>
</g>
<!-- Node31 -->
<g id="node31" class="node"><title>Node31</title>
<g id="a_node31"><a xlink:href="player_8hpp.html" target="_top" xlink:title="Declaration of the Player class, and associated types. ">
<polygon fill="white" stroke="black" points="1278,-347.5 1278,-366.5 1344,-366.5 1344,-347.5 1278,-347.5"/>
<text text-anchor="middle" x="1311" y="-354.5" font-family="Helvetica,sans-Serif" font-size="10.00">player.hpp</text>
</a>
</g>
</g>
<!-- Node1&#45;&gt;Node31 -->
<g id="edge59" class="edge"><title>Node1&#45;&gt;Node31</title>
<path fill="none" stroke="midnightblue" d="M740.675,-407.041C865.222,-396.331 1156.99,-371.242 1267.52,-361.738"/>
<polygon fill="midnightblue" stroke="midnightblue" points="1267.98,-365.212 1277.64,-360.868 1267.38,-358.238 1267.98,-365.212"/>
</g>
<!-- Node6&#45;&gt;Node5 -->
<g id="edge6" class="edge"><title>Node6&#45;&gt;Node5</title>
<path fill="none" stroke="midnightblue" d="M614.482,-237.438C550.928,-230.337 461.815,-217.494 432,-199 369.553,-160.264 300.01,-110.773 349,-56 397.001,-2.3334 600.332,-33.7927 671,-20 671.212,-19.9585 671.425,-19.9164 671.639,-19.8735"/>
<polygon fill="midnightblue" stroke="midnightblue" points="672.487,-23.2697 681.426,-17.5821 670.891,-16.454 672.487,-23.2697"/>
</g>
<!-- Node7 -->
<g id="node7" class="node"><title>Node7</title>
<polygon fill="white" stroke="#bfbfbf" points="1007,-123.5 1007,-142.5 1047,-142.5 1047,-123.5 1007,-123.5"/>
<text text-anchor="middle" x="1027" y="-130.5" font-family="Helvetica,sans-Serif" font-size="10.00">utility</text>
</g>
<!-- Node6&#45;&gt;Node7 -->
<g id="edge7" class="edge"><title>Node6&#45;&gt;Node7</title>
<path fill="none" stroke="midnightblue" d="M705.785,-235.444C728.401,-226.793 763.94,-212.768 794,-199 811.71,-190.888 814.664,-185.576 833,-179 900.755,-154.702 923.555,-161.503 997.065,-143.031"/>
<polygon fill="midnightblue" stroke="midnightblue" points="997.978,-146.41 1006.78,-140.518 996.225,-139.633 997.978,-146.41"/>
</g>
<!-- Node8 -->
<g id="node8" class="node"><title>Node8</title>
<polygon fill="white" stroke="#bfbfbf" points="842.5,-179.5 842.5,-198.5 1033.5,-198.5 1033.5,-179.5 842.5,-179.5"/>
<text text-anchor="middle" x="938" y="-186.5" font-family="Helvetica,sans-Serif" font-size="10.00">portaudiocpp/SampleDataFormat.hxx</text>
</g>
<!-- Node6&#45;&gt;Node8 -->
<g id="edge8" class="edge"><title>Node6&#45;&gt;Node8</title>
<path fill="none" stroke="midnightblue" d="M723.406,-235.444C767.983,-226.004 839.768,-210.802 887.892,-200.611"/>
<polygon fill="midnightblue" stroke="midnightblue" points="888.726,-204.012 897.784,-198.516 887.275,-197.164 888.726,-204.012"/>
</g>
<!-- Node9 -->
<g id="node9" class="node"><title>Node9</title>
<polygon fill="white" stroke="#bfbfbf" points="441,-123.5 441,-142.5 575,-142.5 575,-123.5 441,-123.5"/>
<text text-anchor="middle" x="508" y="-130.5" font-family="Helvetica,sans-Serif" font-size="10.00">portaudiocpp/Stream.hxx</text>
</g>
<!-- Node6&#45;&gt;Node9 -->
<g id="edge9" class="edge"><title>Node6&#45;&gt;Node9</title>
<path fill="none" stroke="midnightblue" d="M669.268,-235.368C639.11,-216.412 566.865,-171.001 530.181,-147.942"/>
<polygon fill="midnightblue" stroke="midnightblue" points="531.997,-144.95 521.668,-142.591 528.272,-150.876 531.997,-144.95"/>
</g>
<!-- Node10 -->
<g id="node10" class="node"><title>Node10</title>
<g id="a_node10"><a xlink:href="sample__formats_8hpp.html" target="_top" xlink:title="The SampleFormat enumeration. ">
<polygon fill="white" stroke="black" points="769.5,-62 769.5,-81 888.5,-81 888.5,-62 769.5,-62"/>
<text text-anchor="middle" x="829" y="-69" font-family="Helvetica,sans-Serif" font-size="10.00">../sample_formats.hpp</text>
</a>
</g>
</g>
<!-- Node6&#45;&gt;Node10 -->
<g id="edge10" class="edge"><title>Node6&#45;&gt;Node10</title>
<path fill="none" stroke="midnightblue" d="M614.165,-235.557C521.507,-221.525 374.524,-188.251 432,-123 437.365,-116.909 646.536,-92.7912 759.04,-80.2176"/>
<polygon fill="midnightblue" stroke="midnightblue" points="759.735,-83.6619 769.285,-79.0746 758.959,-76.705 759.735,-83.6619"/>
</g>
<!-- Node12 -->
<g id="node12" class="node"><title>Node12</title>
<g id="a_node12"><a xlink:href="audio__sink_8hpp.html" target="_top" xlink:title="Declaration of the AudioSink class. ">
<polygon fill="white" stroke="black" points="698.5,-179.5 698.5,-198.5 785.5,-198.5 785.5,-179.5 698.5,-179.5"/>
<text text-anchor="middle" x="742" y="-186.5" font-family="Helvetica,sans-Serif" font-size="10.00">audio_sink.hpp</text>
</a>
</g>
</g>
<!-- Node6&#45;&gt;Node12 -->
<g id="edge12" class="edge"><title>Node6&#45;&gt;Node12</title>
<path fill="none" stroke="midnightblue" d="M692.479,-235.324C701.201,-227.341 714.343,-215.313 724.898,-205.653"/>
<polygon fill="midnightblue" stroke="midnightblue" points="727.334,-208.167 732.348,-198.834 722.608,-203.004 727.334,-208.167"/>
</g>
<!-- Node17 -->
<g id="node17" class="node"><title>Node17</title>
<g id="a_node17"><a xlink:href="audio__source_8hpp.html" target="_top" xlink:title="Declaration of the AudioSource class. ">
<polygon fill="white" stroke="black" points="1153,-123.5 1153,-142.5 1253,-142.5 1253,-123.5 1153,-123.5"/>
<text text-anchor="middle" x="1203" y="-130.5" font-family="Helvetica,sans-Serif" font-size="10.00">audio_source.hpp</text>
</a>
</g>
</g>
<!-- Node6&#45;&gt;Node17 -->
<g id="edge37" class="edge"><title>Node6&#45;&gt;Node17</title>
<path fill="none" stroke="midnightblue" d="M751.901,-236.336C848.272,-225.468 1014.64,-206.108 1042,-199 1091.23,-186.209 1145.51,-162.04 1176.79,-147.05"/>
<polygon fill="midnightblue" stroke="midnightblue" points="1178.64,-150.045 1186.11,-142.531 1175.58,-143.747 1178.64,-150.045"/>
</g>
<!-- Node6&#45;&gt;Node25 -->
<g id="edge38" class="edge"><title>Node6&#45;&gt;Node25</title>
<path fill="none" stroke="midnightblue" d="M751.575,-236.349C853.734,-224.951 1042.76,-203.861 1125.92,-194.583"/>
<polygon fill="midnightblue" stroke="midnightblue" points="1126.44,-198.047 1136,-193.459 1125.67,-191.09 1126.44,-198.047"/>
</g>
<!-- Node11 -->
<g id="node11" class="node"><title>Node11</title>
<polygon fill="white" stroke="#bfbfbf" points="1186.5,-0.5 1186.5,-19.5 1233.5,-19.5 1233.5,-0.5 1186.5,-0.5"/>
<text text-anchor="middle" x="1210" y="-7.5" font-family="Helvetica,sans-Serif" font-size="10.00">cstdint</text>
</g>
<!-- Node10&#45;&gt;Node11 -->
<g id="edge11" class="edge"><title>Node10&#45;&gt;Node11</title>
<path fill="none" stroke="midnightblue" d="M870.81,-61.9443C881.302,-59.8975 892.548,-57.789 903,-56 1002.01,-39.0526 1119.68,-22.9173 1176.28,-15.4038"/>
<polygon fill="midnightblue" stroke="midnightblue" points="1176.99,-18.8409 1186.45,-14.0606 1176.07,-11.9012 1176.99,-18.8409"/>
</g>
<!-- Node12&#45;&gt;Node5 -->
<g id="edge15" class="edge"><title>Node12&#45;&gt;Node5</title>
<path fill="none" stroke="midnightblue" d="M738.757,-179.481C735.438,-170.511 730.311,-155.923 727,-143 716.824,-103.279 709.294,-55.7683 705.583,-29.9637"/>
<polygon fill="midnightblue" stroke="midnightblue" points="709.005,-29.1586 704.151,-19.7409 702.072,-30.1298 709.005,-29.1586"/>
</g>
<!-- Node12&#45;&gt;Node7 -->
<g id="edge16" class="edge"><title>Node12&#45;&gt;Node7</title>
<path fill="none" stroke="midnightblue" d="M785.595,-181.025C843.812,-171.599 944.814,-154.835 997.042,-142.936"/>
<polygon fill="midnightblue" stroke="midnightblue" points="997.884,-146.333 1006.81,-140.625 996.273,-139.522 997.884,-146.333"/>
</g>
<!-- Node12&#45;&gt;Node9 -->
<g id="edge20" class="edge"><title>Node12&#45;&gt;Node9</title>
<path fill="none" stroke="midnightblue" d="M704.922,-179.444C664.272,-170.063 598.968,-154.993 554.816,-144.804"/>
<polygon fill="midnightblue" stroke="midnightblue" points="555.435,-141.355 544.905,-142.516 553.861,-148.175 555.435,-141.355"/>
</g>
<!-- Node12&#45;&gt;Node11 -->
<g id="edge13" class="edge"><title>Node12&#45;&gt;Node11</title>
<path fill="none" stroke="midnightblue" d="M743.378,-179.401C746.081,-165.415 753.428,-137.815 771,-123 778.968,-116.282 1074.79,-43.8838 1176.26,-19.194"/>
<polygon fill="midnightblue" stroke="midnightblue" points="1177.39,-22.5211 1186.28,-16.757 1175.73,-15.7194 1177.39,-22.5211"/>
</g>
<!-- Node13 -->
<g id="node13" class="node"><title>Node13</title>
<polygon fill="white" stroke="#bfbfbf" points="1385,-123.5 1385,-142.5 1439,-142.5 1439,-123.5 1385,-123.5"/>
<text text-anchor="middle" x="1412" y="-130.5" font-family="Helvetica,sans-Serif" font-size="10.00">memory</text>
</g>
<!-- Node12&#45;&gt;Node13 -->
<g id="edge14" class="edge"><title>Node12&#45;&gt;Node13</title>
<path fill="none" stroke="midnightblue" d="M785.954,-183.465C800.88,-181.975 817.66,-180.355 833,-179 1037.33,-160.958 1282.57,-143.172 1374.65,-136.63"/>
<polygon fill="midnightblue" stroke="midnightblue" points="1375.12,-140.105 1384.85,-135.906 1374.63,-133.122 1375.12,-140.105"/>
</g>
<!-- Node14 -->
<g id="node14" class="node"><title>Node14</title>
<polygon fill="white" stroke="#bfbfbf" points="1238,-62 1238,-81 1284,-81 1284,-62 1238,-62"/>
<text text-anchor="middle" x="1261" y="-69" font-family="Helvetica,sans-Serif" font-size="10.00">vector</text>
</g>
<!-- Node12&#45;&gt;Node14 -->
<g id="edge17" class="edge"><title>Node12&#45;&gt;Node14</title>
<path fill="none" stroke="midnightblue" d="M746.485,-179.392C754.573,-164.867 773.105,-135.822 798,-123 875.769,-82.9456 1103.46,-99.7712 1190,-87 1202.42,-85.1674 1215.94,-82.5608 1227.82,-80.0619"/>
<polygon fill="midnightblue" stroke="midnightblue" points="1228.73,-83.4458 1237.77,-77.9157 1227.26,-76.6032 1228.73,-83.4458"/>
</g>
<!-- Node15 -->
<g id="node15" class="node"><title>Node15</title>
<polygon fill="white" stroke="#bfbfbf" points="1065.5,-123.5 1065.5,-142.5 1134.5,-142.5 1134.5,-123.5 1065.5,-123.5"/>
<text text-anchor="middle" x="1100" y="-130.5" font-family="Helvetica,sans-Serif" font-size="10.00">portaudio.h</text>
</g>
<!-- Node12&#45;&gt;Node15 -->
<g id="edge18" class="edge"><title>Node12&#45;&gt;Node15</title>
<path fill="none" stroke="midnightblue" d="M785.557,-182.589C844.404,-175.096 952.784,-160.651 1055.53,-142.988"/>
<polygon fill="midnightblue" stroke="midnightblue" points="1056.19,-146.425 1065.45,-141.269 1055,-139.528 1056.19,-146.425"/>
</g>
<!-- Node16 -->
<g id="node16" class="node"><title>Node16</title>
<polygon fill="white" stroke="#bfbfbf" points="807,-123.5 807,-142.5 989,-142.5 989,-123.5 807,-123.5"/>
<text text-anchor="middle" x="898" y="-130.5" font-family="Helvetica,sans-Serif" font-size="10.00">portaudiocpp/CallbackInterface.hxx</text>
</g>
<!-- Node12&#45;&gt;Node16 -->
<g id="edge19" class="edge"><title>Node12&#45;&gt;Node16</title>
<path fill="none" stroke="midnightblue" d="M766.719,-179.444C792.848,-170.399 834.259,-156.064 863.576,-145.916"/>
<polygon fill="midnightblue" stroke="midnightblue" points="865.092,-149.095 873.397,-142.516 862.802,-142.48 865.092,-149.095"/>
</g>
<!-- Node12&#45;&gt;Node17 -->
<g id="edge21" class="edge"><title>Node12&#45;&gt;Node17</title>
<path fill="none" stroke="midnightblue" d="M785.678,-183.635C859.425,-176.145 1013.28,-160.001 1143,-143 1143.1,-142.987 1143.2,-142.973 1143.3,-142.96"/>
<polygon fill="midnightblue" stroke="midnightblue" points="1143.49,-146.467 1152.93,-141.653 1142.55,-139.531 1143.49,-146.467"/>
</g>
<!-- Node22 -->
<g id="node22" class="node"><title>Node22</title>
<g id="a_node22"><a xlink:href="ringbuffer_8hpp.html" target="_top" xlink:title="The RingBuffer class template. ">
<polygon fill="white" stroke="black" points="593.5,-123.5 593.5,-142.5 674.5,-142.5 674.5,-123.5 593.5,-123.5"/>
<text text-anchor="middle" x="634" y="-130.5" font-family="Helvetica,sans-Serif" font-size="10.00">ringbuffer.hpp</text>
</a>
</g>
</g>
<!-- Node12&#45;&gt;Node22 -->
<g id="edge31" class="edge"><title>Node12&#45;&gt;Node22</title>
<path fill="none" stroke="midnightblue" d="M724.648,-179.324C707.328,-170.664 680.485,-157.242 660.498,-147.249"/>
<polygon fill="midnightblue" stroke="midnightblue" points="661.819,-143.996 651.309,-142.655 658.688,-150.257 661.819,-143.996"/>
</g>
<!-- Node17&#45;&gt;Node5 -->
<g id="edge24" class="edge"><title>Node17&#45;&gt;Node5</title>
<path fill="none" stroke="midnightblue" d="M1152.94,-124.28C1149.58,-123.827 1146.24,-123.395 1143,-123 1058.14,-112.656 834.586,-128.77 760,-87 736.796,-74.0051 720.209,-47.2276 711.109,-29.186"/>
<polygon fill="midnightblue" stroke="midnightblue" points="714.183,-27.5001 706.726,-19.9738 707.862,-30.5076 714.183,-27.5001"/>
</g>
<!-- Node17&#45;&gt;Node10 -->
<g id="edge30" class="edge"><title>Node17&#45;&gt;Node10</title>
<path fill="none" stroke="midnightblue" d="M1152.95,-124.037C1085.75,-113.346 966.311,-94.3449 892.75,-82.6421"/>
<polygon fill="midnightblue" stroke="midnightblue" points="893.111,-79.1555 882.685,-81.0408 892.011,-86.0686 893.111,-79.1555"/>
</g>
<!-- Node17&#45;&gt;Node11 -->
<g id="edge23" class="edge"><title>Node17&#45;&gt;Node11</title>
<path fill="none" stroke="midnightblue" d="M1203.5,-123.298C1204.63,-103.85 1207.37,-56.49 1208.91,-29.9036"/>
<polygon fill="midnightblue" stroke="midnightblue" points="1212.42,-29.8087 1209.5,-19.6232 1205.43,-29.4043 1212.42,-29.8087"/>
</g>
<!-- Node17&#45;&gt;Node14 -->
<g id="edge25" class="edge"><title>Node17&#45;&gt;Node14</title>
<path fill="none" stroke="midnightblue" d="M1211.31,-123.475C1220.18,-114.373 1234.45,-99.741 1245.42,-88.483"/>
<polygon fill="midnightblue" stroke="midnightblue" points="1248.23,-90.613 1252.71,-81.0091 1243.22,-85.7268 1248.23,-90.613"/>
</g>
<!-- Node18 -->
<g id="node18" class="node"><title>Node18</title>
<polygon fill="white" stroke="#bfbfbf" points="1081.5,-62 1081.5,-81 1122.5,-81 1122.5,-62 1081.5,-62"/>
<text text-anchor="middle" x="1102" y="-69" font-family="Helvetica,sans-Serif" font-size="10.00">array</text>
</g>
<!-- Node17&#45;&gt;Node18 -->
<g id="edge22" class="edge"><title>Node17&#45;&gt;Node18</title>
<path fill="none" stroke="midnightblue" d="M1188.53,-123.475C1172.03,-113.755 1144.82,-97.7266 1125.32,-86.2372"/>
<polygon fill="midnightblue" stroke="midnightblue" points="1126.84,-83.0693 1116.44,-81.0091 1123.28,-89.1005 1126.84,-83.0693"/>
</g>
<!-- Node19 -->
<g id="node19" class="node"><title>Node19</title>
<polygon fill="white" stroke="#bfbfbf" points="1140.5,-62 1140.5,-81 1181.5,-81 1181.5,-62 1140.5,-62"/>
<text text-anchor="middle" x="1161" y="-69" font-family="Helvetica,sans-Serif" font-size="10.00">sox.h</text>
</g>
<!-- Node17&#45;&gt;Node19 -->
<g id="edge26" class="edge"><title>Node17&#45;&gt;Node19</title>
<path fill="none" stroke="midnightblue" d="M1196.98,-123.475C1190.74,-114.638 1180.83,-100.589 1172.98,-89.475"/>
<polygon fill="midnightblue" stroke="midnightblue" points="1175.63,-87.1604 1167.01,-81.0091 1169.91,-91.1972 1175.63,-87.1604"/>
</g>
<!-- Node17&#45;&gt;Node20 -->
<g id="edge27" class="edge"><title>Node17&#45;&gt;Node20</title>
<path fill="none" stroke="midnightblue" d="M1152.94,-124.252C1149.58,-123.805 1146.24,-123.383 1143,-123 958.702,-101.225 911.234,-109.308 727,-87 711.842,-85.1647 695.36,-82.7374 680.54,-80.3949"/>
<polygon fill="midnightblue" stroke="midnightblue" points="681.01,-76.9256 670.581,-78.7949 679.9,-83.837 681.01,-76.9256"/>
</g>
<!-- Node20&#45;&gt;Node3 -->
<g id="edge29" class="edge"><title>Node20&#45;&gt;Node3</title>
<path fill="none" stroke="midnightblue" d="M610.387,-61.9443C603.276,-59.6715 595.395,-57.4491 588,-56 397.824,-18.7353 164.8,-12.2648 75.3728,-11.1902"/>
<polygon fill="midnightblue" stroke="midnightblue" points="75.2273,-7.68859 65.1914,-11.0842 75.1544,-14.6882 75.2273,-7.68859"/>
</g>
<!-- Node21 -->
<g id="node21" class="node"><title>Node21</title>
<polygon fill="white" stroke="#bfbfbf" points="605.5,-0.5 605.5,-19.5 662.5,-19.5 662.5,-0.5 605.5,-0.5"/>
<text text-anchor="middle" x="634" y="-7.5" font-family="Helvetica,sans-Serif" font-size="10.00">iostream</text>
</g>
<!-- Node20&#45;&gt;Node21 -->
<g id="edge28" class="edge"><title>Node20&#45;&gt;Node21</title>
<path fill="none" stroke="midnightblue" d="M634,-61.9751C634,-53.5803 634,-40.4806 634,-29.6631"/>
<polygon fill="midnightblue" stroke="midnightblue" points="637.5,-29.5091 634,-19.5091 630.5,-29.5091 637.5,-29.5091"/>
</g>
<!-- Node22&#45;&gt;Node2 -->
<g id="edge32" class="edge"><title>Node22&#45;&gt;Node2</title>
<path fill="none" stroke="midnightblue" d="M598.181,-123.475C550.635,-112.159 467.168,-92.294 419.688,-80.9937"/>
<polygon fill="midnightblue" stroke="midnightblue" points="420.384,-77.5618 409.846,-78.6513 418.764,-84.3716 420.384,-77.5618"/>
</g>
<!-- Node22&#45;&gt;Node20 -->
<g id="edge34" class="edge"><title>Node22&#45;&gt;Node20</title>
<path fill="none" stroke="midnightblue" d="M634,-123.475C634,-115.08 634,-101.981 634,-91.1631"/>
<polygon fill="midnightblue" stroke="midnightblue" points="637.5,-91.0091 634,-81.0091 630.5,-91.0091 637.5,-91.0091"/>
</g>
<!-- Node23 -->
<g id="node23" class="node"><title>Node23</title>
<polygon fill="white" stroke="#bfbfbf" points="458.5,-56.5 458.5,-86.5 579.5,-86.5 579.5,-56.5 458.5,-56.5"/>
<text text-anchor="start" x="466.5" y="-74.5" font-family="Helvetica,sans-Serif" font-size="10.00">../contrib/pa_ringbuffer</text>
<text text-anchor="middle" x="519" y="-63.5" font-family="Helvetica,sans-Serif" font-size="10.00">/pa_ringbuffer.h</text>
</g>
<!-- Node22&#45;&gt;Node23 -->
<g id="edge33" class="edge"><title>Node22&#45;&gt;Node23</title>
<path fill="none" stroke="midnightblue" d="M617.523,-123.475C601.293,-115.078 575.964,-101.973 555.053,-91.1534"/>
<polygon fill="midnightblue" stroke="midnightblue" points="556.593,-88.0097 546.103,-86.523 553.377,-94.2269 556.593,-88.0097"/>
</g>
<!-- Node22&#45;&gt;Node24 -->
<g id="edge35" class="edge"><title>Node22&#45;&gt;Node24</title>
<path fill="none" stroke="midnightblue" d="M593.375,-124.474C590.207,-123.952 587.053,-123.454 584,-123 447.521,-102.703 285.623,-85.4961 205.341,-77.4215"/>
<polygon fill="midnightblue" stroke="midnightblue" points="205.329,-73.903 195.03,-76.3897 204.632,-80.8682 205.329,-73.903"/>
</g>
<!-- Node24&#45;&gt;Node5 -->
<g id="edge36" class="edge"><title>Node24&#45;&gt;Node5</title>
<path fill="none" stroke="midnightblue" d="M182.809,-61.9813C191.159,-59.7095 200.39,-57.4785 209,-56 411.985,-21.1462 468.225,-56.0545 671,-20 671.213,-19.9621 671.427,-19.9234 671.641,-19.8839"/>
<polygon fill="midnightblue" stroke="midnightblue" points="672.454,-23.2885 681.445,-17.6826 670.921,-16.4586 672.454,-23.2885"/>
</g>
<!-- Node25&#45;&gt;Node5 -->
<g id="edge41" class="edge"><title>Node25&#45;&gt;Node5</title>
<path fill="none" stroke="midnightblue" d="M1198.2,-183.651C1223.87,-178.418 1259.29,-167.102 1280,-143 1305.48,-113.35 1319.57,-84.677 1293,-56 1254.87,-14.8524 852.272,-11.1616 734.927,-10.9644"/>
<polygon fill="midnightblue" stroke="midnightblue" points="734.794,-7.46443 724.791,-10.9552 734.788,-14.4644 734.794,-7.46443"/>
</g>
<!-- Node25&#45;&gt;Node7 -->
<g id="edge42" class="edge"><title>Node25&#45;&gt;Node7</title>
<path fill="none" stroke="midnightblue" d="M1144.82,-179.444C1121.02,-170.267 1083.12,-155.645 1056.75,-145.474"/>
<polygon fill="midnightblue" stroke="midnightblue" points="1057.85,-142.148 1047.26,-141.815 1055.33,-148.679 1057.85,-142.148"/>
</g>
<!-- Node25&#45;&gt;Node11 -->
<g id="edge39" class="edge"><title>Node25&#45;&gt;Node11</title>
<path fill="none" stroke="midnightblue" d="M1198.25,-184.048C1241.66,-177.845 1316.72,-164.285 1333,-143 1356.49,-112.289 1355.15,-87.6923 1333,-56 1313.04,-27.4504 1272.93,-16.9552 1243.93,-13.13"/>
<polygon fill="midnightblue" stroke="midnightblue" points="1244.13,-9.6309 1233.8,-12.0015 1243.35,-16.5878 1244.13,-9.6309"/>
</g>
<!-- Node25&#45;&gt;Node13 -->
<g id="edge40" class="edge"><title>Node25&#45;&gt;Node13</title>
<path fill="none" stroke="midnightblue" d="M1198.03,-181.161C1243.13,-171.219 1326.68,-152.806 1374.95,-142.166"/>
<polygon fill="midnightblue" stroke="midnightblue" points="1375.96,-145.527 1384.98,-139.956 1374.46,-138.691 1375.96,-145.527"/>
</g>
<!-- Node25&#45;&gt;Node14 -->
<g id="edge43" class="edge"><title>Node25&#45;&gt;Node14</title>
<path fill="none" stroke="midnightblue" d="M1198.03,-182.327C1220.04,-176.509 1248.04,-165.052 1262,-143 1271.8,-127.519 1269.8,-106.041 1266.44,-90.871"/>
<polygon fill="midnightblue" stroke="midnightblue" points="1269.81,-89.9164 1263.91,-81.1154 1263.04,-91.6738 1269.81,-89.9164"/>
</g>
<!-- Node25&#45;&gt;Node15 -->
<g id="edge44" class="edge"><title>Node25&#45;&gt;Node15</title>
<path fill="none" stroke="midnightblue" d="M1156.24,-179.324C1146.23,-171.263 1131.11,-159.077 1119.07,-149.369"/>
<polygon fill="midnightblue" stroke="midnightblue" points="1120.94,-146.384 1110.96,-142.834 1116.55,-151.834 1120.94,-146.384"/>
</g>
<!-- Node25&#45;&gt;Node16 -->
<g id="edge45" class="edge"><title>Node25&#45;&gt;Node16</title>
<path fill="none" stroke="midnightblue" d="M1135.88,-181.753C1090.57,-172.657 1005.85,-155.651 950.707,-144.581"/>
<polygon fill="midnightblue" stroke="midnightblue" points="951.263,-141.123 940.77,-142.586 949.886,-147.986 951.263,-141.123"/>
</g>
<!-- Node25&#45;&gt;Node17 -->
<g id="edge46" class="edge"><title>Node25&#45;&gt;Node17</title>
<path fill="none" stroke="midnightblue" d="M1172.94,-179.083C1177.98,-171.534 1185.34,-160.495 1191.51,-151.23"/>
<polygon fill="midnightblue" stroke="midnightblue" points="1194.53,-153.013 1197.17,-142.751 1188.71,-149.13 1194.53,-153.013"/>
</g>
<!-- Node26&#45;&gt;Node5 -->
<g id="edge52" class="edge"><title>Node26&#45;&gt;Node5</title>
<path fill="none" stroke="midnightblue" d="M1470.23,-179.154C1474.5,-165.788 1480.26,-140.185 1469,-123 1428.08,-60.574 1387.47,-73.8788 1315,-56 1203.26,-28.4327 844.215,-15.3446 734.889,-11.9314"/>
<polygon fill="midnightblue" stroke="midnightblue" points="734.919,-8.43075 724.816,-11.6224 734.704,-15.4275 734.919,-8.43075"/>
</g>
<!-- Node26&#45;&gt;Node20 -->
<g id="edge53" class="edge"><title>Node26&#45;&gt;Node20</title>
<path fill="none" stroke="midnightblue" d="M1467.36,-179.121C1467.41,-164.733 1465.15,-136.568 1448,-123 1387.97,-75.5035 836.283,-93.3788 760,-87 733.718,-84.8023 704.447,-81.4869 680.738,-78.5809"/>
<polygon fill="midnightblue" stroke="midnightblue" points="680.96,-75.0817 670.605,-77.3226 680.097,-82.0284 680.96,-75.0817"/>
</g>
<!-- Node27 -->
<g id="node27" class="node"><title>Node27</title>
<polygon fill="white" stroke="#bfbfbf" points="1606.5,-123.5 1606.5,-142.5 1643.5,-142.5 1643.5,-123.5 1606.5,-123.5"/>
<text text-anchor="middle" x="1625" y="-130.5" font-family="Helvetica,sans-Serif" font-size="10.00">map</text>
</g>
<!-- Node26&#45;&gt;Node27 -->
<g id="edge50" class="edge"><title>Node26&#45;&gt;Node27</title>
<path fill="none" stroke="midnightblue" d="M1492.04,-179.444C1520.52,-169.707 1566.95,-153.841 1596.72,-143.665"/>
<polygon fill="midnightblue" stroke="midnightblue" points="1598.17,-146.869 1606.5,-140.323 1595.9,-140.245 1598.17,-146.869"/>
</g>
<!-- Node28 -->
<g id="node28" class="node"><title>Node28</title>
<polygon fill="white" stroke="#bfbfbf" points="1533.5,-123.5 1533.5,-142.5 1588.5,-142.5 1588.5,-123.5 1533.5,-123.5"/>
<text text-anchor="middle" x="1561" y="-130.5" font-family="Helvetica,sans-Serif" font-size="10.00">ostream</text>
</g>
<!-- Node26&#45;&gt;Node28 -->
<g id="edge51" class="edge"><title>Node26&#45;&gt;Node28</title>
<path fill="none" stroke="midnightblue" d="M1482.1,-179.324C1496.9,-170.822 1519.69,-157.729 1536.98,-147.797"/>
<polygon fill="midnightblue" stroke="midnightblue" points="1539.01,-150.671 1545.93,-142.655 1535.52,-144.601 1539.01,-150.671"/>
</g>
<!-- Node29&#45;&gt;Node11 -->
<g id="edge56" class="edge"><title>Node29&#45;&gt;Node11</title>
<path fill="none" stroke="midnightblue" d="M1694.31,-291.411C1710.35,-273.887 1744,-232.099 1744,-190 1744,-190 1744,-190 1744,-132 1744,-89.5096 1723.15,-76.6164 1686,-56 1610,-13.8261 1339.78,-10.539 1243.98,-10.7387"/>
<polygon fill="midnightblue" stroke="midnightblue" points="1243.69,-7.23965 1233.7,-10.7753 1243.72,-14.2396 1243.69,-7.23965"/>
</g>
<!-- Node29&#45;&gt;Node26 -->
<g id="edge58" class="edge"><title>Node29&#45;&gt;Node26</title>
<path fill="none" stroke="midnightblue" d="M1689.31,-291.285C1693.87,-277.629 1700.13,-251.088 1687,-235 1667.96,-211.672 1591.79,-200.112 1534.38,-194.612"/>
<polygon fill="midnightblue" stroke="midnightblue" points="1534.53,-191.112 1524.25,-193.686 1533.89,-198.082 1534.53,-191.112"/>
</g>
<!-- Node30 -->
<g id="node30" class="node"><title>Node30</title>
<polygon fill="white" stroke="#bfbfbf" points="1600.5,-235.5 1600.5,-254.5 1677.5,-254.5 1677.5,-235.5 1600.5,-235.5"/>
<text text-anchor="middle" x="1639" y="-242.5" font-family="Helvetica,sans-Serif" font-size="10.00">initializer_list</text>
</g>
<!-- Node29&#45;&gt;Node30 -->
<g id="edge57" class="edge"><title>Node29&#45;&gt;Node30</title>
<path fill="none" stroke="midnightblue" d="M1678.24,-291.083C1671.46,-283.298 1661.46,-271.801 1653.24,-262.367"/>
<polygon fill="midnightblue" stroke="midnightblue" points="1655.82,-259.996 1646.62,-254.751 1650.54,-264.592 1655.82,-259.996"/>
</g>
<!-- Node31&#45;&gt;Node5 -->
<g id="edge64" class="edge"><title>Node31&#45;&gt;Node5</title>
<path fill="none" stroke="midnightblue" d="M1277.8,-355.032C1117.67,-349.519 429.099,-315.869 338,-143 319.897,-108.648 304.024,-84.8622 330,-56 380.974,0.638603 596.168,-34.3665 671,-20 671.213,-19.9592 671.426,-19.9177 671.639,-19.8754"/>
<polygon fill="midnightblue" stroke="midnightblue" points="672.481,-23.2731 681.429,-17.6005 670.897,-16.4548 672.481,-23.2731"/>
</g>
<!-- Node31&#45;&gt;Node7 -->
<g id="edge65" class="edge"><title>Node31&#45;&gt;Node7</title>
<path fill="none" stroke="midnightblue" d="M1290.83,-347.351C1272.65,-339.148 1245.54,-325.887 1224,-311 1149.72,-259.676 1073.49,-182.951 1042,-149.987"/>
<polygon fill="midnightblue" stroke="midnightblue" points="1044.41,-147.439 1034.99,-142.592 1039.33,-152.256 1044.41,-147.439"/>
</g>
<!-- Node31&#45;&gt;Node11 -->
<g id="edge60" class="edge"><title>Node31&#45;&gt;Node11</title>
<path fill="none" stroke="midnightblue" d="M1344.06,-348.259C1372.37,-340.894 1413.7,-328.357 1447,-311 1501.96,-282.356 1691.08,-171.9 1653,-123 1602.02,-57.5317 1338.56,-24.2725 1243.91,-14.2981"/>
<polygon fill="midnightblue" stroke="midnightblue" points="1244.04,-10.7938 1233.74,-13.2481 1243.33,-17.7567 1244.04,-10.7938"/>
</g>
<!-- Node31&#45;&gt;Node13 -->
<g id="edge63" class="edge"><title>Node31&#45;&gt;Node13</title>
<path fill="none" stroke="midnightblue" d="M1324.97,-347.349C1336.79,-339.327 1353.3,-326.339 1363,-311 1371.6,-297.393 1397.13,-195.102 1407.52,-152.517"/>
<polygon fill="midnightblue" stroke="midnightblue" points="1410.96,-153.181 1409.92,-142.637 1404.16,-151.528 1410.96,-153.181"/>
</g>
<!-- Node31&#45;&gt;Node25 -->
<g id="edge66" class="edge"><title>Node31&#45;&gt;Node25</title>
<path fill="none" stroke="midnightblue" d="M1297.46,-347.344C1273.9,-331.644 1225.21,-296.252 1197,-255 1187.04,-240.429 1178.89,-222.018 1173.62,-208.514"/>
<polygon fill="midnightblue" stroke="midnightblue" points="1176.81,-207.042 1170.02,-198.902 1170.25,-209.495 1176.81,-207.042"/>
</g>
<!-- Node31&#45;&gt;Node26 -->
<g id="edge67" class="edge"><title>Node31&#45;&gt;Node26</title>
<path fill="none" stroke="midnightblue" d="M1335.22,-347.398C1353.56,-339.955 1378.51,-327.741 1396,-311 1427.41,-280.937 1449.53,-233.97 1460.05,-208.288"/>
<polygon fill="midnightblue" stroke="midnightblue" points="1463.42,-209.283 1463.84,-198.696 1456.91,-206.71 1463.42,-209.283"/>
</g>
<!-- Node31&#45;&gt;Node27 -->
<g id="edge62" class="edge"><title>Node31&#45;&gt;Node27</title>
<path fill="none" stroke="midnightblue" d="M1337.87,-347.466C1360.44,-339.688 1393.06,-326.986 1419,-311 1497.82,-262.423 1576.92,-184.231 1609.5,-150.435"/>
<polygon fill="midnightblue" stroke="midnightblue" points="1612.38,-152.492 1616.75,-142.844 1607.31,-147.657 1612.38,-152.492"/>
</g>
<!-- Node31&#45;&gt;Node29 -->
<g id="edge82" class="edge"><title>Node31&#45;&gt;Node29</title>
<path fill="none" stroke="midnightblue" d="M1344.35,-351.22C1401.57,-343.016 1522.12,-325.718 1624,-311 1625.3,-310.812 1626.62,-310.622 1627.95,-310.429"/>
<polygon fill="midnightblue" stroke="midnightblue" points="1628.88,-313.831 1638.27,-308.935 1627.88,-306.903 1628.88,-313.831"/>
</g>
<!-- Node31&#45;&gt;Node30 -->
<g id="edge61" class="edge"><title>Node31&#45;&gt;Node30</title>
<path fill="none" stroke="midnightblue" d="M1344.11,-354.203C1391.16,-350.669 1479.26,-340.383 1548,-311 1576.54,-298.802 1604.91,-276.496 1622.21,-261.46"/>
<polygon fill="midnightblue" stroke="midnightblue" points="1624.62,-264.002 1629.76,-254.738 1619.96,-258.773 1624.62,-264.002"/>
</g>
<!-- Node32 -->
<g id="node32" class="node"><title>Node32</title>
<g id="a_node32"><a xlink:href="time__parser_8hpp.html" target="_top" xlink:title="The TimeParser template class. ">
<polygon fill="white" stroke="black" points="131.5,-123.5 131.5,-142.5 232.5,-142.5 232.5,-123.5 131.5,-123.5"/>
<text text-anchor="middle" x="182" y="-130.5" font-family="Helvetica,sans-Serif" font-size="10.00">../time_parser.hpp</text>
</a>
</g>
</g>
<!-- Node31&#45;&gt;Node32 -->
<g id="edge68" class="edge"><title>Node31&#45;&gt;Node32</title>
<path fill="none" stroke="midnightblue" d="M1277.85,-355.343C1126.38,-351.932 500.018,-333.254 323,-255 267.893,-230.639 218.139,-177.412 195.263,-150.41"/>
<polygon fill="midnightblue" stroke="midnightblue" points="197.888,-148.093 188.807,-142.635 192.502,-152.564 197.888,-148.093"/>
</g>
<!-- Node33 -->
<g id="node33" class="node"><title>Node33</title>
<g id="a_node33"><a xlink:href="player__file_8hpp.html" target="_top" xlink:title="Declaration of the PlayerFile class, and associated types. ">
<polygon fill="white" stroke="black" points="1268,-291.5 1268,-310.5 1354,-310.5 1354,-291.5 1268,-291.5"/>
<text text-anchor="middle" x="1311" y="-298.5" font-family="Helvetica,sans-Serif" font-size="10.00">player_file.hpp</text>
</a>
</g>
</g>
<!-- Node31&#45;&gt;Node33 -->
<g id="edge73" class="edge"><title>Node31&#45;&gt;Node33</title>
<path fill="none" stroke="midnightblue" d="M1311,-347.083C1311,-340.006 1311,-329.861 1311,-320.986"/>
<polygon fill="midnightblue" stroke="midnightblue" points="1314.5,-320.751 1311,-310.751 1307.5,-320.751 1314.5,-320.751"/>
</g>
<!-- Node34 -->
<g id="node34" class="node"><title>Node34</title>
<g id="a_node34"><a xlink:href="player__position_8hpp.html" target="_top" xlink:title="Declaration of the PlayerPosition class. ">
<polygon fill="white" stroke="black" points="1206.5,-235.5 1206.5,-254.5 1315.5,-254.5 1315.5,-235.5 1206.5,-235.5"/>
<text text-anchor="middle" x="1261" y="-242.5" font-family="Helvetica,sans-Serif" font-size="10.00">player_position.hpp</text>
</a>
</g>
</g>
<!-- Node31&#45;&gt;Node34 -->
<g id="edge81" class="edge"><title>Node31&#45;&gt;Node34</title>
<path fill="none" stroke="midnightblue" d="M1295.22,-347.467C1282.8,-339.769 1266.39,-327.179 1259,-311 1252.4,-296.56 1253.65,-278.371 1256.13,-264.908"/>
<polygon fill="midnightblue" stroke="midnightblue" points="1259.6,-265.418 1258.34,-254.898 1252.76,-263.905 1259.6,-265.418"/>
</g>
<!-- Node32&#45;&gt;Node3 -->
<g id="edge70" class="edge"><title>Node32&#45;&gt;Node3</title>
<path fill="none" stroke="midnightblue" d="M164.109,-123.4C148.043,-115.23 124.246,-101.99 106,-87 84.2997,-69.1721 63.3838,-44.2581 50.6118,-27.8844"/>
<polygon fill="midnightblue" stroke="midnightblue" points="53.2568,-25.5815 44.4008,-19.7657 47.6971,-29.8348 53.2568,-25.5815"/>
</g>
<!-- Node32&#45;&gt;Node11 -->
<g id="edge69" class="edge"><title>Node32&#45;&gt;Node11</title>
<path fill="none" stroke="midnightblue" d="M196.078,-123.367C224.018,-106.75 288.969,-70.6682 349,-56 510.022,-16.6553 1036.88,-11.7069 1176.04,-11.0878"/>
<polygon fill="midnightblue" stroke="midnightblue" points="1176.13,-14.5876 1186.11,-11.0477 1176.1,-7.58766 1176.13,-14.5876"/>
</g>
<!-- Node32&#45;&gt;Node20 -->
<g id="edge71" class="edge"><title>Node32&#45;&gt;Node20</title>
<path fill="none" stroke="midnightblue" d="M232.502,-129.571C309.782,-125.144 461.708,-113.637 588,-87 591.943,-86.1683 596.029,-85.137 600.065,-84.0103"/>
<polygon fill="midnightblue" stroke="midnightblue" points="601.307,-87.292 609.885,-81.073 599.301,-80.5856 601.307,-87.292"/>
</g>
<!-- Node32&#45;&gt;Node24 -->
<g id="edge72" class="edge"><title>Node32&#45;&gt;Node24</title>
<path fill="none" stroke="midnightblue" d="M178.132,-123.475C174.202,-114.815 168,-101.149 163.007,-90.1453"/>
<polygon fill="midnightblue" stroke="midnightblue" points="166.181,-88.6691 158.861,-81.0091 159.806,-91.5617 166.181,-88.6691"/>
</g>
<!-- Node33&#45;&gt;Node6 -->
<g id="edge75" class="edge"><title>Node33&#45;&gt;Node6</title>
<path fill="none" stroke="midnightblue" d="M1267.84,-296.288C1163.38,-287.307 895.756,-264.294 761.821,-252.778"/>
<polygon fill="midnightblue" stroke="midnightblue" points="761.894,-249.271 751.631,-251.901 761.294,-256.245 761.894,-249.271"/>
</g>
<!-- Node33&#45;&gt;Node13 -->
<g id="edge74" class="edge"><title>Node33&#45;&gt;Node13</title>
<path fill="none" stroke="midnightblue" d="M1313.97,-291.262C1321.22,-270.588 1341.24,-217.522 1368,-179 1375.54,-168.145 1385.78,-157.501 1394.48,-149.292"/>
<polygon fill="midnightblue" stroke="midnightblue" points="1396.9,-151.828 1401.92,-142.502 1392.18,-146.658 1396.9,-151.828"/>
</g>
<!-- Node33&#45;&gt;Node26 -->
<g id="edge76" class="edge"><title>Node33&#45;&gt;Node26</title>
<path fill="none" stroke="midnightblue" d="M1323.24,-291.368C1349.9,-272.573 1413.44,-227.768 1446.39,-204.533"/>
<polygon fill="midnightblue" stroke="midnightblue" points="1448.66,-207.215 1454.82,-198.591 1444.63,-201.494 1448.66,-207.215"/>
</g>
<!-- Node33&#45;&gt;Node34 -->
<g id="edge77" class="edge"><title>Node33&#45;&gt;Node34</title>
<path fill="none" stroke="midnightblue" d="M1302.74,-291.083C1295.54,-283.298 1284.89,-271.801 1276.15,-262.367"/>
<polygon fill="midnightblue" stroke="midnightblue" points="1278.47,-259.711 1269.1,-254.751 1273.33,-264.467 1278.47,-259.711"/>
</g>
<!-- Node34&#45;&gt;Node17 -->
<g id="edge79" class="edge"><title>Node34&#45;&gt;Node17</title>
<path fill="none" stroke="midnightblue" d="M1256.45,-235.368C1246.96,-217.376 1224.91,-175.55 1212.29,-151.627"/>
<polygon fill="midnightblue" stroke="midnightblue" points="1215.29,-149.805 1207.53,-142.591 1209.1,-153.07 1215.29,-149.805"/>
</g>
<!-- Node34&#45;&gt;Node26 -->
<g id="edge80" class="edge"><title>Node34&#45;&gt;Node26</title>
<path fill="none" stroke="midnightblue" d="M1293.64,-235.444C1329.05,-226.162 1385.71,-211.309 1424.55,-201.127"/>
<polygon fill="midnightblue" stroke="midnightblue" points="1425.73,-204.438 1434.51,-198.516 1423.95,-197.667 1425.73,-204.438"/>
</g>
<!-- Node35 -->
<g id="node35" class="node"><title>Node35</title>
<polygon fill="white" stroke="#bfbfbf" points="1254.5,-179.5 1254.5,-198.5 1285.5,-198.5 1285.5,-179.5 1254.5,-179.5"/>
<text text-anchor="middle" x="1270" y="-186.5" font-family="Helvetica,sans-Serif" font-size="10.00">set</text>
</g>
<!-- Node34&#45;&gt;Node35 -->
<g id="edge78" class="edge"><title>Node34&#45;&gt;Node35</title>
<path fill="none" stroke="midnightblue" d="M1262.49,-235.083C1263.68,-227.927 1265.39,-217.635 1266.88,-208.691"/>
<polygon fill="midnightblue" stroke="midnightblue" points="1270.35,-209.19 1268.54,-198.751 1263.45,-208.04 1270.35,-209.19"/>
</g>
</g>
</svg>
        <g id="navigator" transform="translate(0 0)" fill="#404254">
                <rect fill="#f2f5e9" fill-opacity="0.5" stroke="#606060" stroke-width=".5" x="0" y="0" width="60" height="60"/>
                <use id="zoomplus" xlink:href="#zoomPlus" x="17" y="9" onmousedown="handleZoom(evt,'in')"/>
                <use id="zoomminus" xlink:href="#zoomMin" x="42" y="9" onmousedown="handleZoom(evt,'out')"/>
                <use id="reset" xlink:href="#resetDef" x="30" y="36" onmousedown="handleReset()"/>
                <g id="arrowUp" xlink:href="#dirArrow" transform="translate(30 24)" onmousedown="handlePan(0,-1)">
                  <use xlink:href="#rim" fill="#404040">
                        <set attributeName="fill" to="#808080" begin="arrowUp.mouseover" end="arrowUp.mouseout"/>
                  </use>
                  <path fill="none" stroke="white" stroke-width="1.5" d="M0,-3.0v7 M-2.5,-0.5L0,-3.0L2.5,-0.5"/>
                </g>
                <g id="arrowRight" xlink:href="#dirArrow" transform="rotate(90) translate(36 -43)" onmousedown="handlePan(1,0)">
                  <use xlink:href="#rim" fill="#404040">
                        <set attributeName="fill" to="#808080" begin="arrowRight.mouseover" end="arrowRight.mouseout"/>
                  </use>
                  <path fill="none" stroke="white" stroke-width="1.5" d="M0,-3.0v7 M-2.5,-0.5L0,-3.0L2.5,-0.5"/>
                </g>
                <g id="arrowDown" xlink:href="#dirArrow" transform="rotate(180) translate(-30 -48)" onmousedown="handlePan(0,1)">
                  <use xlink:href="#rim" fill="#404040">
                        <set attributeName="fill" to="#808080" begin="arrowDown.mouseover" end="arrowDown.mouseout"/>
                  </use>
                  <path fill="none" stroke="white" stroke-width="1.5" d="M0,-3.0v7 M-2.5,-0.5L0,-3.0L2.5,-0.5"/>
                </g>
                <g id="arrowLeft" xlink:href="#dirArrow" transform="rotate(270) translate(-36 17)" onmousedown="handlePan(-1,0)">
                  <use xlink:href="#rim" fill="#404040">
                        <set attributeName="fill" to="#808080" begin="arrowLeft.mouseover" end="arrowLeft.mouseout"/>
                  </use>
                  <path fill="none" stroke="white" stroke-width="1.5" d="M0,-3.0v7 M-2.5,-0.5L0,-3.0L2.5,-0.5"/>
                </g>
        </g>
        <svg viewBox="0 0 15 15" width="100%" height="30px" preserveAspectRatio="xMaxYMin meet">
         <g id="arrow_out" transform="scale(0.3 0.3)">
          <a xlink:href="player_8cpp__incl_org.svg" target="_base">
           <rect id="button" ry="5" rx="5" y="6" x="6" height="38" width="38"
                fill="#f2f5e9" fill-opacity="0.5" stroke="#606060" stroke-width="1.0"/>
           <path id="arrow"
             d="M 11.500037,31.436501 C 11.940474,20.09759 22.043105,11.32322 32.158766,21.979434 L 37.068811,17.246167 C 37.068811,17.246167 37.088388,32 37.088388,32 L 22.160133,31.978069 C 22.160133,31.978069 26.997745,27.140456 26.997745,27.140456 C 18.528582,18.264221 13.291696,25.230495 11.500037,31.436501 z"
             style="fill:#404040;"/>
          </a>
         </g>
        </svg>
</svg>
