<?xml version="1.0" encoding="UTF-8" standalone="no"?>
<!DOCTYPE svg PUBLIC "-//W3C//DTD SVG 1.1//EN"
 "http://www.w3.org/Graphics/SVG/1.1/DTD/svg11.dtd">
<!-- Generated by graphviz version 2.38.0 (20140413.2041)
 -->
<!-- Title: src/player/player.hpp Pages: 1 -->
<!--zoomable 308 -->
<svg id="main" version="1.1" xmlns="http://www.w3.org/2000/svg" xmlns:xlink="http://www.w3.org/1999/xlink" xml:space="preserve" onload="init(evt)">
<style type="text/css"><![CDATA[
.edge:hover path { stroke: red; }
.edge:hover polygon { stroke: red; fill: red; }
]]></style>
<script type="text/javascript"><![CDATA[
var edges = document.getElementsByTagName('g');
if (edges && edges.length) {
  for (var i=0;i<edges.length;i++) {
    if (edges[i].id.substr(0,4)=='edge') {
      edges[i].setAttribute('class','edge');
    }
  }
}
]]></script>
        <defs>
                <circle id="rim" cx="0" cy="0" r="7"/>
                <circle id="rim2" cx="0" cy="0" r="3.5"/>
                <g id="zoomPlus">
                        <use xlink:href="#rim" fill="#404040">
                                <set attributeName="fill" to="#808080" begin="zoomplus.mouseover" end="zoomplus.mouseout"/>
                        </use>
                        <path d="M-4,0h8M0,-4v8" fill="none" stroke="white" stroke-width="1.5" pointer-events="none"/>
                </g>
                <g id="zoomMin">
                        <use xlink:href="#rim" fill="#404040">
                                <set attributeName="fill" to="#808080" begin="zoomminus.mouseover" end="zoomminus.mouseout"/>
                        </use>
                        <path d="M-4,0h8" fill="none" stroke="white" stroke-width="1.5" pointer-events="none"/>
                </g>
                <g id="dirArrow">
                        <path fill="none" stroke="white" stroke-width="1.5" d="M0,-3.0v7 M-2.5,-0.5L0,-3.0L2.5,-0.5"/>
                </g>
               <g id="resetDef">
                       <use xlink:href="#rim2" fill="#404040">
                               <set attributeName="fill" to="#808080" begin="reset.mouseover" end="reset.mouseout"/>
                       </use>
               </g>
        </defs>

<script type="text/javascript">
var viewWidth = 934;
var viewHeight = 308;
var sectionId = 'dynsection-1';
</script>
<script xlink:href="svgpan.js"/>
<svg id="graph" class="graph">
<g id="viewport">
<title>src/player/player.hpp</title>
<polygon fill="white" stroke="none" points="-4,4 -4,-304 929.5,-304 929.5,4 -4,4"/>
<!-- Node1 -->
<g id="node1" class="node"><title>Node1</title>
<polygon fill="#bfbfbf" stroke="black" points="367.5,-280.5 367.5,-299.5 483.5,-299.5 483.5,-280.5 367.5,-280.5"/>
<text text-anchor="middle" x="425.5" y="-287.5" font-family="Helvetica,sans-Serif" font-size="10.00">src/player/player.hpp</text>
</g>
<!-- Node2 -->
<g id="node2" class="node"><title>Node2</title>
<g id="a_node2"><a xlink:href="cmd_8hpp.html" target="_top" xlink:title="Declaration of the CommandHandler class. ">
<polygon fill="white" stroke="black" points="196.5,-224.5 196.5,-243.5 270.5,-243.5 270.5,-224.5 196.5,-224.5"/>
<text text-anchor="middle" x="233.5" y="-231.5" font-family="Helvetica,sans-Serif" font-size="10.00">src/cmd.hpp</text>
</a>
</g>
</g>
<!-- Node1&#45;&gt;Node2 -->
<g id="edge1" class="edge"><title>Node1&#45;&gt;Node2</title>
<path fill="none" stroke="midnightblue" d="M385.317,-277.699C349.081,-267.507 296.586,-252.743 263.781,-243.516"/>
<polygon fill="midnightblue" stroke="midnightblue" points="384.503,-281.105 395.077,-280.444 386.398,-274.367 384.503,-281.105"/>
</g>
<!-- Node4 -->
<g id="node4" class="node"><title>Node4</title>
<g id="a_node4"><a xlink:href="io__core_8cpp.html" target="_top" xlink:title="Implementation of the non&#45;virtual aspects of the IoCore class. ">
<polygon fill="white" stroke="black" points="278.5,-56.5 278.5,-75.5 378.5,-75.5 378.5,-56.5 278.5,-56.5"/>
<text text-anchor="middle" x="328.5" y="-63.5" font-family="Helvetica,sans-Serif" font-size="10.00">src/io/io_core.cpp</text>
</a>
</g>
</g>
<!-- Node1&#45;&gt;Node4 -->
<g id="edge16" class="edge"><title>Node1&#45;&gt;Node4</title>
<path fill="none" stroke="midnightblue" d="M417.579,-270.872C397.81,-225.627 346.848,-108.993 332.382,-75.8837"/>
<polygon fill="midnightblue" stroke="midnightblue" points="414.486,-272.535 421.697,-280.297 420.901,-269.732 414.486,-272.535"/>
</g>
<!-- Node5 -->
<g id="node5" class="node"><title>Node5</title>
<g id="a_node5"><a xlink:href="io__core_8hpp.html" target="_top" xlink:title="Declaration of the IoCore class. ">
<polygon fill="white" stroke="black" points="25,-112.5 25,-131.5 126,-131.5 126,-112.5 25,-112.5"/>
<text text-anchor="middle" x="75.5" y="-119.5" font-family="Helvetica,sans-Serif" font-size="10.00">src/io/io_core.hpp</text>
</a>
</g>
</g>
<!-- Node1&#45;&gt;Node5 -->
<g id="edge17" class="edge"><title>Node1&#45;&gt;Node5</title>
<path fill="none" stroke="midnightblue" d="M357.362,-281.434C257.769,-268.737 80.4507,-239.354 45.5,-188 32.9128,-169.505 52.8579,-144.884 65.8097,-131.895"/>
<polygon fill="midnightblue" stroke="midnightblue" points="356.981,-284.914 367.339,-282.683 357.851,-277.968 356.981,-284.914"/>
</g>
<!-- Node6 -->
<g id="node6" class="node"><title>Node6</title>
<g id="a_node6"><a xlink:href="main_8cpp.html" target="_top" xlink:title="Main entry point and implementation of the playd class. ">
<polygon fill="white" stroke="black" points="220.5,-0.5 220.5,-19.5 296.5,-19.5 296.5,-0.5 220.5,-0.5"/>
<text text-anchor="middle" x="258.5" y="-7.5" font-family="Helvetica,sans-Serif" font-size="10.00">src/main.cpp</text>
</a>
</g>
</g>
<!-- Node1&#45;&gt;Node6 -->
<g id="edge18" class="edge"><title>Node1&#45;&gt;Node6</title>
<path fill="none" stroke="midnightblue" d="M430.716,-270.39C436.341,-248.65 444.5,-211.511 444.5,-179 444.5,-179 444.5,-179 444.5,-121 444.5,-52.9083 351.005,-26.076 296.589,-16.2255"/>
<polygon fill="midnightblue" stroke="midnightblue" points="427.282,-269.683 428.062,-280.249 434.041,-271.502 427.282,-269.683"/>
</g>
<!-- Node7 -->
<g id="node7" class="node"><title>Node7</title>
<g id="a_node7"><a xlink:href="main_8hpp.html" target="_top" xlink:title="Declaration of the playd class. ">
<polygon fill="white" stroke="black" points="0,-56.5 0,-75.5 77,-75.5 77,-56.5 0,-56.5"/>
<text text-anchor="middle" x="38.5" y="-63.5" font-family="Helvetica,sans-Serif" font-size="10.00">src/main.hpp</text>
</a>
</g>
</g>
<!-- Node1&#45;&gt;Node7 -->
<g id="edge19" class="edge"><title>Node1&#45;&gt;Node7</title>
<path fill="none" stroke="midnightblue" d="M357.029,-284.205C275.515,-277.687 144.834,-264.446 100.5,-244 42.2581,-217.14 24.2357,-194.421 9.5,-132 7.45775,-123.349 6.99033,-120.527 9.5,-112 13.6461,-97.9125 23.7211,-84.0728 30.8271,-75.5413"/>
<polygon fill="midnightblue" stroke="midnightblue" points="356.964,-287.711 367.208,-285.004 357.513,-280.732 356.964,-287.711"/>
</g>
<!-- Node10 -->
<g id="node10" class="node"><title>Node10</title>
<g id="a_node10"><a xlink:href="player_8cpp.html" target="_top" xlink:title="Main implementation file for the Player class. ">
<polygon fill="white" stroke="black" points="473,-224.5 473,-243.5 588,-243.5 588,-224.5 473,-224.5"/>
<text text-anchor="middle" x="530.5" y="-231.5" font-family="Helvetica,sans-Serif" font-size="10.00">src/player/player.cpp</text>
</a>
</g>
</g>
<!-- Node1&#45;&gt;Node10 -->
<g id="edge20" class="edge"><title>Node1&#45;&gt;Node10</title>
<path fill="none" stroke="midnightblue" d="M451.31,-275.726C470.753,-265.727 496.848,-252.307 513.672,-243.655"/>
<polygon fill="midnightblue" stroke="midnightblue" points="449.662,-272.638 442.37,-280.324 452.864,-278.863 449.662,-272.638"/>
</g>
<!-- Node11 -->
<g id="node11" class="node"><title>Node11</title>
<g id="a_node11"><a xlink:href="player__position_8cpp.html" target="_top" xlink:title="Implementation of the PlayerPosition class, and related Player methods. ">
<polygon fill="white" stroke="black" points="605.5,-224.5 605.5,-243.5 763.5,-243.5 763.5,-224.5 605.5,-224.5"/>
<text text-anchor="middle" x="684.5" y="-231.5" font-family="Helvetica,sans-Serif" font-size="10.00">src/player/player_position.cpp</text>
</a>
</g>
</g>
<!-- Node1&#45;&gt;Node11 -->
<g id="edge21" class="edge"><title>Node1&#45;&gt;Node11</title>
<path fill="none" stroke="midnightblue" d="M476.602,-278.346C525.548,-268.141 598.454,-252.94 643.653,-243.516"/>
<polygon fill="midnightblue" stroke="midnightblue" points="475.614,-274.976 466.539,-280.444 477.043,-281.829 475.614,-274.976"/>
</g>
<!-- Node12 -->
<g id="node12" class="node"><title>Node12</title>
<g id="a_node12"><a xlink:href="player__state_8cpp.html" target="_top" xlink:title="Implementation of the PlayerState class, and related Player methods. ">
<polygon fill="white" stroke="black" points="781.5,-224.5 781.5,-243.5 925.5,-243.5 925.5,-224.5 781.5,-224.5"/>
<text text-anchor="middle" x="853.5" y="-231.5" font-family="Helvetica,sans-Serif" font-size="10.00">src/player/player_state.cpp</text>
</a>
</g>
</g>
<!-- Node1&#45;&gt;Node12 -->
<g id="edge22" class="edge"><title>Node1&#45;&gt;Node12</title>
<path fill="none" stroke="midnightblue" d="M493.658,-280.401C573.813,-270.288 706.037,-253.605 785.934,-243.525"/>
<polygon fill="midnightblue" stroke="midnightblue" points="493.151,-276.937 483.667,-281.661 494.027,-283.882 493.151,-276.937"/>
</g>
<!-- Node3 -->
<g id="node3" class="node"><title>Node3</title>
<g id="a_node3"><a xlink:href="cmd_8cpp.html" target="_top" xlink:title="Implementation of the CommandHandler class. ">
<polygon fill="white" stroke="black" points="229,-168.5 229,-187.5 302,-187.5 302,-168.5 229,-168.5"/>
<text text-anchor="middle" x="265.5" y="-175.5" font-family="Helvetica,sans-Serif" font-size="10.00">src/cmd.cpp</text>
</a>
</g>
</g>
<!-- Node2&#45;&gt;Node3 -->
<g id="edge2" class="edge"><title>Node2&#45;&gt;Node3</title>
<path fill="none" stroke="midnightblue" d="M244.004,-215.275C249.473,-206.045 255.918,-195.17 260.314,-187.751"/>
<polygon fill="midnightblue" stroke="midnightblue" points="240.871,-213.696 238.784,-224.083 246.893,-217.264 240.871,-213.696"/>
</g>
<!-- Node2&#45;&gt;Node4 -->
<g id="edge3" class="edge"><title>Node2&#45;&gt;Node4</title>
<path fill="none" stroke="midnightblue" d="M269.05,-220.371C284.177,-213.194 300.585,-202.656 310.5,-188 334.777,-152.115 331.793,-96.5855 329.579,-75.5073"/>
<polygon fill="midnightblue" stroke="midnightblue" points="267.61,-217.181 259.866,-224.412 270.429,-223.588 267.61,-217.181"/>
</g>
<!-- Node2&#45;&gt;Node5 -->
<g id="edge4" class="edge"><title>Node2&#45;&gt;Node5</title>
<path fill="none" stroke="midnightblue" d="M186.331,-227.75C138.636,-221.355 69.706,-208.756 53.5,-188 40.1562,-170.91 56.9051,-145.267 67.7031,-131.87"/>
<polygon fill="midnightblue" stroke="midnightblue" points="186.092,-231.248 196.458,-229.058 186.989,-224.306 186.092,-231.248"/>
</g>
<!-- Node2&#45;&gt;Node6 -->
<g id="edge14" class="edge"><title>Node2&#45;&gt;Node6</title>
<path fill="none" stroke="midnightblue" d="M273.694,-220.902C292.399,-213.701 313.906,-202.99 329.5,-188 369.913,-149.153 374.234,-130.464 387.5,-76 389.604,-67.3636 392.647,-63.247 387.5,-56 367.035,-27.1864 326.692,-16.6694 296.544,-12.9115"/>
<polygon fill="midnightblue" stroke="midnightblue" points="272.414,-217.643 264.214,-224.352 274.808,-224.221 272.414,-217.643"/>
</g>
<!-- Node2&#45;&gt;Node7 -->
<g id="edge15" class="edge"><title>Node2&#45;&gt;Node7</title>
<path fill="none" stroke="midnightblue" d="M186.46,-232.239C145.395,-229.312 86.1683,-219.366 45.5,-188 16.7447,-165.822 7.00043,-147.305 15.5,-112 18.7446,-98.5225 26.7453,-84.5398 32.3954,-75.8095"/>
<polygon fill="midnightblue" stroke="midnightblue" points="186.295,-235.735 196.487,-232.841 186.715,-228.748 186.295,-235.735"/>
</g>
<!-- Node8 -->
<g id="node8" class="node"><title>Node8</title>
<g id="a_node8"><a xlink:href="tokeniser_8hpp.html" target="_top" xlink:title="Declaration of the Tokeniser class. ">
<polygon fill="white" stroke="black" points="63,-168.5 63,-187.5 172,-187.5 172,-168.5 63,-168.5"/>
<text text-anchor="middle" x="117.5" y="-175.5" font-family="Helvetica,sans-Serif" font-size="10.00">src/io/tokeniser.hpp</text>
</a>
</g>
</g>
<!-- Node2&#45;&gt;Node8 -->
<g id="edge10" class="edge"><title>Node2&#45;&gt;Node8</title>
<path fill="none" stroke="midnightblue" d="M205.78,-220.096C184.108,-210.007 154.598,-196.27 135.795,-187.516"/>
<polygon fill="midnightblue" stroke="midnightblue" points="204.577,-223.396 215.119,-224.444 207.531,-217.05 204.577,-223.396"/>
</g>
<!-- Node9 -->
<g id="node9" class="node"><title>Node9</title>
<g id="a_node9"><a xlink:href="tokeniser_8cpp.html" target="_top" xlink:title="Definition of the Tokeniser class. ">
<polygon fill="white" stroke="black" points="162.5,-112.5 162.5,-131.5 270.5,-131.5 270.5,-112.5 162.5,-112.5"/>
<text text-anchor="middle" x="216.5" y="-119.5" font-family="Helvetica,sans-Serif" font-size="10.00">src/io/tokeniser.cpp</text>
</a>
</g>
</g>
<!-- Node2&#45;&gt;Node9 -->
<g id="edge13" class="edge"><title>Node2&#45;&gt;Node9</title>
<path fill="none" stroke="midnightblue" d="M226.644,-214.707C223.925,-206.637 221.075,-196.965 219.5,-188 216.021,-168.195 215.93,-144.506 216.197,-131.91"/>
<polygon fill="midnightblue" stroke="midnightblue" points="223.373,-215.955 230.026,-224.201 229.967,-213.607 223.373,-215.955"/>
</g>
<!-- Node5&#45;&gt;Node4 -->
<g id="edge5" class="edge"><title>Node5&#45;&gt;Node4</title>
<path fill="none" stroke="midnightblue" d="M125.418,-110.346C173.231,-100.141 244.448,-84.94 288.599,-75.5164"/>
<polygon fill="midnightblue" stroke="midnightblue" points="124.638,-106.933 115.589,-112.444 126.099,-113.779 124.638,-106.933"/>
</g>
<!-- Node5&#45;&gt;Node5 -->
<g id="edge6" class="edge"><title>Node5&#45;&gt;Node5</title>
<path fill="none" stroke="midnightblue" d="M114.818,-132.432C130.673,-133.04 144,-129.563 144,-122 144,-112.867 124.566,-109.692 104.715,-112.475"/>
<polygon fill="midnightblue" stroke="midnightblue" points="114.988,-128.933 104.715,-131.525 114.362,-135.905 114.988,-128.933"/>
</g>
<!-- Node5&#45;&gt;Node6 -->
<g id="edge7" class="edge"><title>Node5&#45;&gt;Node6</title>
<path fill="none" stroke="midnightblue" d="M98.7763,-107.009C137.189,-83.919 212.733,-38.5104 244.207,-19.5914"/>
<polygon fill="midnightblue" stroke="midnightblue" points="96.6273,-104.217 89.8597,-112.368 100.234,-110.216 96.6273,-104.217"/>
</g>
<!-- Node5&#45;&gt;Node7 -->
<g id="edge8" class="edge"><title>Node5&#45;&gt;Node7</title>
<path fill="none" stroke="midnightblue" d="M63.5542,-103.566C57.1883,-94.2747 49.6332,-83.2484 44.4961,-75.7511"/>
<polygon fill="midnightblue" stroke="midnightblue" points="60.8506,-105.812 69.3902,-112.083 66.6251,-101.855 60.8506,-105.812"/>
</g>
<!-- Node7&#45;&gt;Node6 -->
<g id="edge9" class="edge"><title>Node7&#45;&gt;Node6</title>
<path fill="none" stroke="midnightblue" d="M83.2182,-54.0237C124.776,-43.8232 185.813,-28.8414 223.803,-19.5164"/>
<polygon fill="midnightblue" stroke="midnightblue" points="82.237,-50.6606 73.3597,-56.4435 83.9057,-57.4588 82.237,-50.6606"/>
</g>
<!-- Node8&#45;&gt;Node5 -->
<g id="edge11" class="edge"><title>Node8&#45;&gt;Node5</title>
<path fill="none" stroke="midnightblue" d="M104.39,-160.144C97.0722,-150.736 88.2591,-139.405 82.3064,-131.751"/>
<polygon fill="midnightblue" stroke="midnightblue" points="101.662,-162.338 110.565,-168.083 107.188,-158.041 101.662,-162.338"/>
</g>
<!-- Node8&#45;&gt;Node9 -->
<g id="edge12" class="edge"><title>Node8&#45;&gt;Node9</title>
<path fill="none" stroke="midnightblue" d="M142.337,-163.453C160.614,-153.483 184.916,-140.228 200.633,-131.655"/>
<polygon fill="midnightblue" stroke="midnightblue" points="140.509,-160.463 133.406,-168.324 143.861,-166.608 140.509,-160.463"/>
</g>
</g>
</svg>
        <g id="navigator" transform="translate(0 0)" fill="#404254">
                <rect fill="#f2f5e9" fill-opacity="0.5" stroke="#606060" stroke-width=".5" x="0" y="0" width="60" height="60"/>
                <use id="zoomplus" xlink:href="#zoomPlus" x="17" y="9" onmousedown="handleZoom(evt,'in')"/>
                <use id="zoomminus" xlink:href="#zoomMin" x="42" y="9" onmousedown="handleZoom(evt,'out')"/>
                <use id="reset" xlink:href="#resetDef" x="30" y="36" onmousedown="handleReset()"/>
                <g id="arrowUp" xlink:href="#dirArrow" transform="translate(30 24)" onmousedown="handlePan(0,-1)">
                  <use xlink:href="#rim" fill="#404040">
                        <set attributeName="fill" to="#808080" begin="arrowUp.mouseover" end="arrowUp.mouseout"/>
                  </use>
                  <path fill="none" stroke="white" stroke-width="1.5" d="M0,-3.0v7 M-2.5,-0.5L0,-3.0L2.5,-0.5"/>
                </g>
                <g id="arrowRight" xlink:href="#dirArrow" transform="rotate(90) translate(36 -43)" onmousedown="handlePan(1,0)">
                  <use xlink:href="#rim" fill="#404040">
                        <set attributeName="fill" to="#808080" begin="arrowRight.mouseover" end="arrowRight.mouseout"/>
                  </use>
                  <path fill="none" stroke="white" stroke-width="1.5" d="M0,-3.0v7 M-2.5,-0.5L0,-3.0L2.5,-0.5"/>
                </g>
                <g id="arrowDown" xlink:href="#dirArrow" transform="rotate(180) translate(-30 -48)" onmousedown="handlePan(0,1)">
                  <use xlink:href="#rim" fill="#404040">
                        <set attributeName="fill" to="#808080" begin="arrowDown.mouseover" end="arrowDown.mouseout"/>
                  </use>
                  <path fill="none" stroke="white" stroke-width="1.5" d="M0,-3.0v7 M-2.5,-0.5L0,-3.0L2.5,-0.5"/>
                </g>
                <g id="arrowLeft" xlink:href="#dirArrow" transform="rotate(270) translate(-36 17)" onmousedown="handlePan(-1,0)">
                  <use xlink:href="#rim" fill="#404040">
                        <set attributeName="fill" to="#808080" begin="arrowLeft.mouseover" end="arrowLeft.mouseout"/>
                  </use>
                  <path fill="none" stroke="white" stroke-width="1.5" d="M0,-3.0v7 M-2.5,-0.5L0,-3.0L2.5,-0.5"/>
                </g>
        </g>
        <svg viewBox="0 0 15 15" width="100%" height="30px" preserveAspectRatio="xMaxYMin meet">
         <g id="arrow_out" transform="scale(0.3 0.3)">
          <a xlink:href="player_8hpp__dep__incl_org.svg" target="_base">
           <rect id="button" ry="5" rx="5" y="6" x="6" height="38" width="38"
                fill="#f2f5e9" fill-opacity="0.5" stroke="#606060" stroke-width="1.0"/>
           <path id="arrow"
             d="M 11.500037,31.436501 C 11.940474,20.09759 22.043105,11.32322 32.158766,21.979434 L 37.068811,17.246167 C 37.068811,17.246167 37.088388,32 37.088388,32 L 22.160133,31.978069 C 22.160133,31.978069 26.997745,27.140456 26.997745,27.140456 C 18.528582,18.264221 13.291696,25.230495 11.500037,31.436501 z"
             style="fill:#404040;"/>
          </a>
         </g>
        </svg>
</svg>
