<?xml version="1.0" encoding="UTF-8" standalone="no"?>
<!DOCTYPE svg PUBLIC "-//W3C//DTD SVG 1.1//EN"
 "http://www.w3.org/Graphics/SVG/1.1/DTD/svg11.dtd">
<!-- Generated by graphviz version 2.38.0 (20140413.2041)
 -->
<!-- Title: src/player/player_position.hpp Pages: 1 -->
<svg width="683pt" height="196pt"
 viewBox="0.00 0.00 682.98 196.00" xmlns="http://www.w3.org/2000/svg" xmlns:xlink="http://www.w3.org/1999/xlink">
<g id="graph0" class="graph" transform="scale(1 1) rotate(0) translate(4 192)">
<title>src/player/player_position.hpp</title>
<polygon fill="white" stroke="none" points="-4,4 -4,-192 678.976,-192 678.976,4 -4,4"/>
<!-- Node1 -->
<g id="node1" class="node"><title>Node1</title>
<polygon fill="#bfbfbf" stroke="black" points="257.476,-168.5 257.476,-187.5 415.476,-187.5 415.476,-168.5 257.476,-168.5"/>
<text text-anchor="middle" x="336.476" y="-175.5" font-family="Helvetica,sans-Serif" font-size="10.00">src/player/player_position.hpp</text>
</g>
<!-- Node2 -->
<g id="node2" class="node"><title>Node2</title>
<polygon fill="white" stroke="#bfbfbf" points="134.976,-0.5 134.976,-19.5 181.976,-19.5 181.976,-0.5 134.976,-0.5"/>
<text text-anchor="middle" x="158.476" y="-7.5" font-family="Helvetica,sans-Serif" font-size="10.00">cstdint</text>
</g>
<!-- Node1&#45;&gt;Node2 -->
<g id="edge1" class="edge"><title>Node1&#45;&gt;Node2</title>
<path fill="none" stroke="midnightblue" d="M282.599,-168.477C197.708,-153.814 39.088,-120.996 6.47631,-76 -25.025,-32.5363 70.6348,-17.8864 124.464,-13.1474"/>
<polygon fill="midnightblue" stroke="midnightblue" points="124.937,-16.6207 134.623,-12.3261 124.373,-9.64343 124.937,-16.6207"/>
</g>
<!-- Node3 -->
<g id="node3" class="node"><title>Node3</title>
<polygon fill="white" stroke="#bfbfbf" points="494.976,-112.5 494.976,-131.5 525.976,-131.5 525.976,-112.5 494.976,-112.5"/>
<text text-anchor="middle" x="510.476" y="-119.5" font-family="Helvetica,sans-Serif" font-size="10.00">set</text>
</g>
<!-- Node1&#45;&gt;Node3 -->
<g id="edge2" class="edge"><title>Node1&#45;&gt;Node3</title>
<path fill="none" stroke="midnightblue" d="M366.304,-168.489C394.542,-160.323 438.322,-147.383 485.19,-131.965"/>
<polygon fill="midnightblue" stroke="midnightblue" points="486.524,-135.21 494.917,-128.743 484.323,-128.565 486.524,-135.21"/>
</g>
<!-- Node4 -->
<g id="node4" class="node"><title>Node4</title>
<g id="a_node4"><a xlink:href="audio__source_8hpp.html" target="_top" xlink:title="Declaration of the AudioSource class. ">
<polygon fill="white" stroke="black" points="186.476,-112.5 186.476,-131.5 322.476,-131.5 322.476,-112.5 186.476,-112.5"/>
<text text-anchor="middle" x="254.476" y="-119.5" font-family="Helvetica,sans-Serif" font-size="10.00">../audio/audio_source.hpp</text>
</a>
</g>
</g>
<!-- Node1&#45;&gt;Node4 -->
<g id="edge3" class="edge"><title>Node1&#45;&gt;Node4</title>
<path fill="none" stroke="midnightblue" d="M323.302,-168.324C310.63,-159.979 291.243,-147.212 276.271,-137.352"/>
<polygon fill="midnightblue" stroke="midnightblue" points="277.895,-134.231 267.618,-131.655 274.045,-140.078 277.895,-134.231"/>
</g>
<!-- Node13 -->
<g id="node13" class="node"><title>Node13</title>
<g id="a_node13"><a xlink:href="io__response_8hpp.html" target="_top" xlink:title="Declaration of classes pertaining to responses to the client. ">
<polygon fill="white" stroke="black" points="362.476,-112.5 362.476,-131.5 476.476,-131.5 476.476,-112.5 362.476,-112.5"/>
<text text-anchor="middle" x="419.476" y="-119.5" font-family="Helvetica,sans-Serif" font-size="10.00">../io/io_response.hpp</text>
</a>
</g>
</g>
<!-- Node1&#45;&gt;Node13 -->
<g id="edge14" class="edge"><title>Node1&#45;&gt;Node13</title>
<path fill="none" stroke="midnightblue" d="M349.812,-168.324C362.638,-159.979 382.261,-147.212 397.416,-137.352"/>
<polygon fill="midnightblue" stroke="midnightblue" points="399.701,-140.042 406.174,-131.655 395.883,-134.174 399.701,-140.042"/>
</g>
<!-- Node4&#45;&gt;Node2 -->
<g id="edge5" class="edge"><title>Node4&#45;&gt;Node2</title>
<path fill="none" stroke="midnightblue" d="M186.239,-118.114C156.147,-113.015 123.384,-101.412 104.476,-76 90.8974,-57.7495 113.577,-37.7617 133.575,-24.8363"/>
<polygon fill="midnightblue" stroke="midnightblue" points="135.446,-27.7946 142.151,-19.5906 131.794,-21.8232 135.446,-27.7946"/>
</g>
<!-- Node5 -->
<g id="node5" class="node"><title>Node5</title>
<polygon fill="white" stroke="#bfbfbf" points="113.976,-56.5 113.976,-75.5 154.976,-75.5 154.976,-56.5 113.976,-56.5"/>
<text text-anchor="middle" x="134.476" y="-63.5" font-family="Helvetica,sans-Serif" font-size="10.00">array</text>
</g>
<!-- Node4&#45;&gt;Node5 -->
<g id="edge4" class="edge"><title>Node4&#45;&gt;Node5</title>
<path fill="none" stroke="midnightblue" d="M235.462,-112.444C215.889,-103.636 185.169,-89.8116 162.747,-79.722"/>
<polygon fill="midnightblue" stroke="midnightblue" points="163.957,-76.4284 153.402,-75.5164 161.085,-82.8119 163.957,-76.4284"/>
</g>
<!-- Node6 -->
<g id="node6" class="node"><title>Node6</title>
<polygon fill="white" stroke="#bfbfbf" points="309.976,-56.5 309.976,-75.5 352.976,-75.5 352.976,-56.5 309.976,-56.5"/>
<text text-anchor="middle" x="331.476" y="-63.5" font-family="Helvetica,sans-Serif" font-size="10.00">string</text>
</g>
<!-- Node4&#45;&gt;Node6 -->
<g id="edge6" class="edge"><title>Node4&#45;&gt;Node6</title>
<path fill="none" stroke="midnightblue" d="M266.848,-112.324C278.635,-104.058 296.609,-91.4527 310.612,-81.6322"/>
<polygon fill="midnightblue" stroke="midnightblue" points="312.958,-84.2619 319.136,-75.6545 308.939,-78.5307 312.958,-84.2619"/>
</g>
<!-- Node7 -->
<g id="node7" class="node"><title>Node7</title>
<polygon fill="white" stroke="#bfbfbf" points="371.476,-56.5 371.476,-75.5 417.476,-75.5 417.476,-56.5 371.476,-56.5"/>
<text text-anchor="middle" x="394.476" y="-63.5" font-family="Helvetica,sans-Serif" font-size="10.00">vector</text>
</g>
<!-- Node4&#45;&gt;Node7 -->
<g id="edge7" class="edge"><title>Node4&#45;&gt;Node7</title>
<path fill="none" stroke="midnightblue" d="M276.66,-112.444C299.905,-103.478 336.625,-89.314 362.892,-79.1827"/>
<polygon fill="midnightblue" stroke="midnightblue" points="364.326,-82.3807 372.397,-75.5164 361.807,-75.8497 364.326,-82.3807"/>
</g>
<!-- Node8 -->
<g id="node8" class="node"><title>Node8</title>
<polygon fill="white" stroke="#bfbfbf" points="15.9763,-56.5 15.9763,-75.5 56.9763,-75.5 56.9763,-56.5 15.9763,-56.5"/>
<text text-anchor="middle" x="36.4763" y="-63.5" font-family="Helvetica,sans-Serif" font-size="10.00">sox.h</text>
</g>
<!-- Node4&#45;&gt;Node8 -->
<g id="edge8" class="edge"><title>Node4&#45;&gt;Node8</title>
<path fill="none" stroke="midnightblue" d="M219.367,-112.483C182.507,-103.514 122.877,-88.9281 71.4763,-76 70.0312,-75.6365 68.553,-75.2631 67.0603,-74.8845"/>
<polygon fill="midnightblue" stroke="midnightblue" points="67.7502,-71.4485 57.1952,-72.3663 66.0188,-78.231 67.7502,-71.4485"/>
</g>
<!-- Node9 -->
<g id="node9" class="node"><title>Node9</title>
<g id="a_node9"><a xlink:href="errors_8hpp.html" target="_top" xlink:title="Declarations of the playd Error exception set. ">
<polygon fill="white" stroke="black" points="473.976,-56.5 473.976,-75.5 546.976,-75.5 546.976,-56.5 473.976,-56.5"/>
<text text-anchor="middle" x="510.476" y="-63.5" font-family="Helvetica,sans-Serif" font-size="10.00">../errors.hpp</text>
</a>
</g>
</g>
<!-- Node4&#45;&gt;Node9 -->
<g id="edge9" class="edge"><title>Node4&#45;&gt;Node9</title>
<path fill="none" stroke="midnightblue" d="M295.04,-112.444C340.977,-102.754 415.694,-86.9932 463.957,-76.8126"/>
<polygon fill="midnightblue" stroke="midnightblue" points="464.773,-80.2177 473.835,-74.729 463.328,-73.3684 464.773,-80.2177"/>
</g>
<!-- Node12 -->
<g id="node12" class="node"><title>Node12</title>
<g id="a_node12"><a xlink:href="sample__formats_8hpp.html" target="_top" xlink:title="The SampleFormat enumeration. ">
<polygon fill="white" stroke="black" points="172.976,-56.5 172.976,-75.5 291.976,-75.5 291.976,-56.5 172.976,-56.5"/>
<text text-anchor="middle" x="232.476" y="-63.5" font-family="Helvetica,sans-Serif" font-size="10.00">../sample_formats.hpp</text>
</a>
</g>
</g>
<!-- Node4&#45;&gt;Node12 -->
<g id="edge12" class="edge"><title>Node4&#45;&gt;Node12</title>
<path fill="none" stroke="midnightblue" d="M250.843,-112.083C247.864,-104.77 243.55,-94.1814 239.852,-85.1034"/>
<polygon fill="midnightblue" stroke="midnightblue" points="243.056,-83.6914 236.042,-75.7511 236.573,-86.3326 243.056,-83.6914"/>
</g>
<!-- Node10 -->
<g id="node10" class="node"><title>Node10</title>
<polygon fill="white" stroke="#bfbfbf" points="518.976,-0.5 518.976,-19.5 575.976,-19.5 575.976,-0.5 518.976,-0.5"/>
<text text-anchor="middle" x="547.476" y="-7.5" font-family="Helvetica,sans-Serif" font-size="10.00">iostream</text>
</g>
<!-- Node9&#45;&gt;Node10 -->
<g id="edge10" class="edge"><title>Node9&#45;&gt;Node10</title>
<path fill="none" stroke="midnightblue" d="M516.586,-56.083C521.759,-48.5341 529.322,-37.4948 535.671,-28.2298"/>
<polygon fill="midnightblue" stroke="midnightblue" points="538.715,-29.9787 541.48,-19.7511 532.941,-26.0221 538.715,-29.9787"/>
</g>
<!-- Node11 -->
<g id="node11" class="node"><title>Node11</title>
<polygon fill="white" stroke="#bfbfbf" points="446.476,-0.5 446.476,-19.5 500.476,-19.5 500.476,-0.5 446.476,-0.5"/>
<text text-anchor="middle" x="473.476" y="-7.5" font-family="Helvetica,sans-Serif" font-size="10.00">sstream</text>
</g>
<!-- Node9&#45;&gt;Node11 -->
<g id="edge11" class="edge"><title>Node9&#45;&gt;Node11</title>
<path fill="none" stroke="midnightblue" d="M504.367,-56.083C499.194,-48.5341 491.63,-37.4948 485.282,-28.2298"/>
<polygon fill="midnightblue" stroke="midnightblue" points="488.012,-26.0221 479.472,-19.7511 482.238,-29.9787 488.012,-26.0221"/>
</g>
<!-- Node12&#45;&gt;Node2 -->
<g id="edge13" class="edge"><title>Node12&#45;&gt;Node2</title>
<path fill="none" stroke="midnightblue" d="M220.587,-56.324C209.326,-48.1066 192.19,-35.6017 178.767,-25.8069"/>
<polygon fill="midnightblue" stroke="midnightblue" points="180.723,-22.9014 170.582,-19.8339 176.597,-28.5559 180.723,-22.9014"/>
</g>
<!-- Node13&#45;&gt;Node2 -->
<g id="edge15" class="edge"><title>Node13&#45;&gt;Node2</title>
<path fill="none" stroke="midnightblue" d="M424.027,-112.251C430.448,-98.5471 439.966,-71.943 426.476,-56 396.816,-20.944 257.302,-13.1818 192.151,-11.4747"/>
<polygon fill="midnightblue" stroke="midnightblue" points="192.071,-7.972 181.993,-11.2422 191.91,-14.9702 192.071,-7.972"/>
</g>
<!-- Node13&#45;&gt;Node6 -->
<g id="edge18" class="edge"><title>Node13&#45;&gt;Node6</title>
<path fill="none" stroke="midnightblue" d="M405.338,-112.324C391.61,-103.9 370.54,-90.9709 354.412,-81.0741"/>
<polygon fill="midnightblue" stroke="midnightblue" points="355.934,-77.9016 345.58,-75.6545 352.273,-83.8678 355.934,-77.9016"/>
</g>
<!-- Node13&#45;&gt;Node7 -->
<g id="edge19" class="edge"><title>Node13&#45;&gt;Node7</title>
<path fill="none" stroke="midnightblue" d="M415.348,-112.083C411.962,-104.77 407.06,-94.1814 402.858,-85.1034"/>
<polygon fill="midnightblue" stroke="midnightblue" points="405.905,-83.3553 398.528,-75.7511 399.553,-86.2962 405.905,-83.3553"/>
</g>
<!-- Node13&#45;&gt;Node9 -->
<g id="edge20" class="edge"><title>Node13&#45;&gt;Node9</title>
<path fill="none" stroke="midnightblue" d="M434.097,-112.324C448.425,-103.822 470.489,-90.7288 487.225,-80.7975"/>
<polygon fill="midnightblue" stroke="midnightblue" points="489.078,-83.7677 495.892,-75.6545 485.506,-77.7478 489.078,-83.7677"/>
</g>
<!-- Node14 -->
<g id="node14" class="node"><title>Node14</title>
<polygon fill="white" stroke="#bfbfbf" points="637.976,-56.5 637.976,-75.5 674.976,-75.5 674.976,-56.5 637.976,-56.5"/>
<text text-anchor="middle" x="656.476" y="-63.5" font-family="Helvetica,sans-Serif" font-size="10.00">map</text>
</g>
<!-- Node13&#45;&gt;Node14 -->
<g id="edge16" class="edge"><title>Node13&#45;&gt;Node14</title>
<path fill="none" stroke="midnightblue" d="M466.542,-112.461C507.166,-104.744 567.563,-92.4466 628.231,-76.1236"/>
<polygon fill="midnightblue" stroke="midnightblue" points="629.24,-79.4763 637.968,-73.4693 627.399,-72.7228 629.24,-79.4763"/>
</g>
<!-- Node15 -->
<g id="node15" class="node"><title>Node15</title>
<polygon fill="white" stroke="#bfbfbf" points="564.976,-56.5 564.976,-75.5 619.976,-75.5 619.976,-56.5 564.976,-56.5"/>
<text text-anchor="middle" x="592.476" y="-63.5" font-family="Helvetica,sans-Serif" font-size="10.00">ostream</text>
</g>
<!-- Node13&#45;&gt;Node15 -->
<g id="edge17" class="edge"><title>Node13&#45;&gt;Node15</title>
<path fill="none" stroke="midnightblue" d="M446.889,-112.444C476.246,-103.28 522.996,-88.6876 555.572,-78.5192"/>
<polygon fill="midnightblue" stroke="midnightblue" points="556.689,-81.8371 565.192,-75.5164 554.604,-75.1551 556.689,-81.8371"/>
</g>
</g>
</svg>
