<?xml version="1.0" encoding="UTF-8" standalone="no"?>
<!DOCTYPE svg PUBLIC "-//W3C//DTD SVG 1.1//EN"
 "http://www.w3.org/Graphics/SVG/1.1/DTD/svg11.dtd">
<!-- Generated by graphviz version 2.38.0 (20140413.2041)
 -->
<!-- Title: src/player/player_state.cpp Pages: 1 -->
<svg width="1869pt" height="431pt"
 viewBox="0.00 0.00 1868.50 431.00" xmlns="http://www.w3.org/2000/svg" xmlns:xlink="http://www.w3.org/1999/xlink">
<g id="graph0" class="graph" transform="scale(1 1) rotate(0) translate(4 427)">
<title>src/player/player_state.cpp</title>
<polygon fill="white" stroke="none" points="-4,4 -4,-427 1864.5,-427 1864.5,4 -4,4"/>
<!-- Node1 -->
<g id="node1" class="node"><title>Node1</title>
<polygon fill="#bfbfbf" stroke="black" points="961.5,-403.5 961.5,-422.5 1107.5,-422.5 1107.5,-403.5 961.5,-403.5"/>
<text text-anchor="middle" x="1034.5" y="-410.5" font-family="Helvetica,sans-Serif" font-size="10.00">src/player/player_state.cpp</text>
</g>
<!-- Node2 -->
<g id="node2" class="node"><title>Node2</title>
<polygon fill="white" stroke="#bfbfbf" points="914.5,-347.5 914.5,-366.5 976.5,-366.5 976.5,-347.5 914.5,-347.5"/>
<text text-anchor="middle" x="945.5" y="-354.5" font-family="Helvetica,sans-Serif" font-size="10.00">algorithm</text>
</g>
<!-- Node1&#45;&gt;Node2 -->
<g id="edge1" class="edge"><title>Node1&#45;&gt;Node2</title>
<path fill="none" stroke="midnightblue" d="M1020.2,-403.324C1006.32,-394.9 985.008,-381.971 968.696,-372.074"/>
<polygon fill="midnightblue" stroke="midnightblue" points="970.129,-368.85 959.764,-366.655 966.498,-374.834 970.129,-368.85"/>
</g>
<!-- Node3 -->
<g id="node3" class="node"><title>Node3</title>
<g id="a_node3"><a xlink:href="io__response_8hpp.html" target="_top" xlink:title="Declaration of classes pertaining to responses to the client. ">
<polygon fill="white" stroke="black" points="1509.5,-179.5 1509.5,-198.5 1625.5,-198.5 1625.5,-179.5 1509.5,-179.5"/>
<text text-anchor="middle" x="1567.5" y="-186.5" font-family="Helvetica,sans-Serif" font-size="10.00">../io/io_response.hpp</text>
</a>
</g>
</g>
<!-- Node1&#45;&gt;Node3 -->
<g id="edge2" class="edge"><title>Node1&#45;&gt;Node3</title>
<path fill="none" stroke="midnightblue" d="M1107.65,-406.172C1259.96,-392.189 1601.62,-350.55 1656.5,-255 1670.58,-230.479 1638.74,-212.607 1609.31,-201.879"/>
<polygon fill="midnightblue" stroke="midnightblue" points="1610.08,-198.445 1599.49,-198.515 1607.82,-205.067 1610.08,-198.445"/>
</g>
<!-- Node11 -->
<g id="node11" class="node"><title>Node11</title>
<g id="a_node11"><a xlink:href="player__state_8hpp.html" target="_top" xlink:title="Declaration of the PlayerState class, and associated types. ">
<polygon fill="white" stroke="black" points="18,-291.5 18,-310.5 115,-310.5 115,-291.5 18,-291.5"/>
<text text-anchor="middle" x="66.5" y="-298.5" font-family="Helvetica,sans-Serif" font-size="10.00">player_state.hpp</text>
</a>
</g>
</g>
<!-- Node1&#45;&gt;Node11 -->
<g id="edge10" class="edge"><title>Node1&#45;&gt;Node11</title>
<path fill="none" stroke="midnightblue" d="M1030.94,-403.292C1024.42,-388.616 1009.02,-359.349 985.5,-347 901.214,-302.751 224.293,-319.742 129.5,-311 128.2,-310.88 126.887,-310.752 125.563,-310.617"/>
<polygon fill="midnightblue" stroke="midnightblue" points="125.611,-307.101 115.282,-309.459 124.828,-314.057 125.611,-307.101"/>
</g>
<!-- Node14 -->
<g id="node14" class="node"><title>Node14</title>
<g id="a_node14"><a xlink:href="player_8hpp.html" target="_top" xlink:title="Declaration of the Player class, and associated types. ">
<polygon fill="white" stroke="black" points="1032.5,-347.5 1032.5,-366.5 1098.5,-366.5 1098.5,-347.5 1032.5,-347.5"/>
<text text-anchor="middle" x="1065.5" y="-354.5" font-family="Helvetica,sans-Serif" font-size="10.00">player.hpp</text>
</a>
</g>
</g>
<!-- Node1&#45;&gt;Node14 -->
<g id="edge14" class="edge"><title>Node1&#45;&gt;Node14</title>
<path fill="none" stroke="midnightblue" d="M1039.62,-403.083C1043.91,-395.613 1050.16,-384.724 1055.44,-375.52"/>
<polygon fill="midnightblue" stroke="midnightblue" points="1058.53,-377.166 1060.48,-366.751 1052.46,-373.681 1058.53,-377.166"/>
</g>
<!-- Node4 -->
<g id="node4" class="node"><title>Node4</title>
<polygon fill="white" stroke="#bfbfbf" points="1699.5,-123.5 1699.5,-142.5 1737.5,-142.5 1737.5,-123.5 1699.5,-123.5"/>
<text text-anchor="middle" x="1718.5" y="-130.5" font-family="Helvetica,sans-Serif" font-size="10.00">map</text>
</g>
<!-- Node3&#45;&gt;Node4 -->
<g id="edge3" class="edge"><title>Node3&#45;&gt;Node4</title>
<path fill="none" stroke="midnightblue" d="M1591.43,-179.444C1618.09,-169.908 1661.19,-154.495 1689.69,-144.304"/>
<polygon fill="midnightblue" stroke="midnightblue" points="1691.23,-147.47 1699.47,-140.807 1688.87,-140.878 1691.23,-147.47"/>
</g>
<!-- Node5 -->
<g id="node5" class="node"><title>Node5</title>
<polygon fill="white" stroke="#bfbfbf" points="1586,-123.5 1586,-142.5 1643,-142.5 1643,-123.5 1586,-123.5"/>
<text text-anchor="middle" x="1614.5" y="-130.5" font-family="Helvetica,sans-Serif" font-size="10.00">ostream</text>
</g>
<!-- Node3&#45;&gt;Node5 -->
<g id="edge4" class="edge"><title>Node3&#45;&gt;Node5</title>
<path fill="none" stroke="midnightblue" d="M1575.26,-179.083C1582.04,-171.298 1592.04,-159.801 1600.26,-150.367"/>
<polygon fill="midnightblue" stroke="midnightblue" points="1602.96,-152.592 1606.88,-142.751 1597.68,-147.996 1602.96,-152.592"/>
</g>
<!-- Node6 -->
<g id="node6" class="node"><title>Node6</title>
<polygon fill="white" stroke="#bfbfbf" points="1412.5,-0.5 1412.5,-19.5 1456.5,-19.5 1456.5,-0.5 1412.5,-0.5"/>
<text text-anchor="middle" x="1434.5" y="-7.5" font-family="Helvetica,sans-Serif" font-size="10.00">string</text>
</g>
<!-- Node3&#45;&gt;Node6 -->
<g id="edge5" class="edge"><title>Node3&#45;&gt;Node6</title>
<path fill="none" stroke="midnightblue" d="M1597.84,-179.438C1627.17,-169.374 1665.43,-150.483 1652.5,-123 1618.77,-51.3235 1518.8,-24.6647 1466.78,-15.4544"/>
<polygon fill="midnightblue" stroke="midnightblue" points="1467.19,-11.9739 1456.75,-13.7902 1466.04,-18.8796 1467.19,-11.9739"/>
</g>
<!-- Node7 -->
<g id="node7" class="node"><title>Node7</title>
<polygon fill="white" stroke="#bfbfbf" points="1399,-62 1399,-81 1446,-81 1446,-62 1399,-62"/>
<text text-anchor="middle" x="1422.5" y="-69" font-family="Helvetica,sans-Serif" font-size="10.00">vector</text>
</g>
<!-- Node3&#45;&gt;Node7 -->
<g id="edge6" class="edge"><title>Node3&#45;&gt;Node7</title>
<path fill="none" stroke="midnightblue" d="M1558.51,-179.191C1545.21,-166.308 1519.26,-141.818 1495.5,-123 1478.99,-109.928 1459.31,-96.423 1444.54,-86.6719"/>
<polygon fill="midnightblue" stroke="midnightblue" points="1446.34,-83.6665 1436.06,-81.1228 1442.51,-89.5251 1446.34,-83.6665"/>
</g>
<!-- Node8 -->
<g id="node8" class="node"><title>Node8</title>
<g id="a_node8"><a xlink:href="errors_8hpp.html" target="_top" xlink:title="Declarations of the playd Error exception set. ">
<polygon fill="white" stroke="black" points="854,-62 854,-81 929,-81 929,-62 854,-62"/>
<text text-anchor="middle" x="891.5" y="-69" font-family="Helvetica,sans-Serif" font-size="10.00">../errors.hpp</text>
</a>
</g>
</g>
<!-- Node3&#45;&gt;Node8 -->
<g id="edge7" class="edge"><title>Node3&#45;&gt;Node8</title>
<path fill="none" stroke="midnightblue" d="M1509.2,-184.365C1379.82,-176.117 1076.55,-155.716 1031.5,-143 1019.57,-139.632 953.694,-105.341 916.712,-85.8539"/>
<polygon fill="midnightblue" stroke="midnightblue" points="918.026,-82.5901 907.549,-81.017 914.759,-88.7805 918.026,-82.5901"/>
</g>
<!-- Node9 -->
<g id="node9" class="node"><title>Node9</title>
<polygon fill="white" stroke="#bfbfbf" points="824,-0.5 824,-19.5 883,-19.5 883,-0.5 824,-0.5"/>
<text text-anchor="middle" x="853.5" y="-7.5" font-family="Helvetica,sans-Serif" font-size="10.00">iostream</text>
</g>
<!-- Node8&#45;&gt;Node9 -->
<g id="edge8" class="edge"><title>Node8&#45;&gt;Node9</title>
<path fill="none" stroke="midnightblue" d="M886.056,-61.9751C880.412,-53.1384 871.439,-39.0886 864.341,-27.975"/>
<polygon fill="midnightblue" stroke="midnightblue" points="867.267,-26.0531 858.934,-19.5091 861.367,-29.8208 867.267,-26.0531"/>
</g>
<!-- Node10 -->
<g id="node10" class="node"><title>Node10</title>
<polygon fill="white" stroke="#bfbfbf" points="901.5,-0.5 901.5,-19.5 957.5,-19.5 957.5,-0.5 901.5,-0.5"/>
<text text-anchor="middle" x="929.5" y="-7.5" font-family="Helvetica,sans-Serif" font-size="10.00">sstream</text>
</g>
<!-- Node8&#45;&gt;Node10 -->
<g id="edge9" class="edge"><title>Node8&#45;&gt;Node10</title>
<path fill="none" stroke="midnightblue" d="M896.944,-61.9751C902.588,-53.1384 911.561,-39.0886 918.659,-27.975"/>
<polygon fill="midnightblue" stroke="midnightblue" points="921.633,-29.8208 924.066,-19.5091 915.733,-26.0531 921.633,-29.8208"/>
</g>
<!-- Node11&#45;&gt;Node3 -->
<g id="edge13" class="edge"><title>Node11&#45;&gt;Node3</title>
<path fill="none" stroke="midnightblue" d="M115.097,-299.757C265.941,-298.613 739.436,-292.096 1129.5,-255 1267.25,-241.9 1427.82,-215.089 1511.02,-200.323"/>
<polygon fill="midnightblue" stroke="midnightblue" points="1511.79,-203.741 1521.02,-198.54 1510.56,-196.849 1511.79,-203.741"/>
</g>
<!-- Node12 -->
<g id="node12" class="node"><title>Node12</title>
<polygon fill="white" stroke="#bfbfbf" points="404,-0.5 404,-19.5 453,-19.5 453,-0.5 404,-0.5"/>
<text text-anchor="middle" x="428.5" y="-7.5" font-family="Helvetica,sans-Serif" font-size="10.00">cstdint</text>
</g>
<!-- Node11&#45;&gt;Node12 -->
<g id="edge11" class="edge"><title>Node11&#45;&gt;Node12</title>
<path fill="none" stroke="midnightblue" d="M71.9228,-291.25C82.6389,-273.096 105.5,-229.713 105.5,-190 105.5,-190 105.5,-190 105.5,-132 105.5,-96.578 102.572,-79.0126 129.5,-56 168.692,-22.507 323.759,-13.9188 393.818,-11.7353"/>
<polygon fill="midnightblue" stroke="midnightblue" points="394.012,-15.2313 403.908,-11.4472 393.812,-8.23414 394.012,-15.2313"/>
</g>
<!-- Node13 -->
<g id="node13" class="node"><title>Node13</title>
<polygon fill="white" stroke="#bfbfbf" points="0,-235.5 0,-254.5 77,-254.5 77,-235.5 0,-235.5"/>
<text text-anchor="middle" x="38.5" y="-242.5" font-family="Helvetica,sans-Serif" font-size="10.00">initializer_list</text>
</g>
<!-- Node11&#45;&gt;Node13 -->
<g id="edge12" class="edge"><title>Node11&#45;&gt;Node13</title>
<path fill="none" stroke="midnightblue" d="M61.8764,-291.083C58.0437,-283.691 52.4758,-272.953 47.7354,-263.811"/>
<polygon fill="midnightblue" stroke="midnightblue" points="50.748,-262.018 43.0376,-254.751 44.5337,-265.24 50.748,-262.018"/>
</g>
<!-- Node14&#45;&gt;Node3 -->
<g id="edge41" class="edge"><title>Node14&#45;&gt;Node3</title>
<path fill="none" stroke="midnightblue" d="M1098.62,-356.361C1187.73,-356.745 1430.29,-353.735 1495.5,-311 1527.96,-289.729 1518.42,-268.214 1538.5,-235 1544.16,-225.638 1550.74,-215.372 1556.21,-207.012"/>
<polygon fill="midnightblue" stroke="midnightblue" points="1559.21,-208.811 1561.79,-198.534 1553.37,-204.961 1559.21,-208.811"/>
</g>
<!-- Node14&#45;&gt;Node4 -->
<g id="edge16" class="edge"><title>Node14&#45;&gt;Node4</title>
<path fill="none" stroke="midnightblue" d="M1098.65,-354.861C1195.07,-351.255 1473.99,-338.651 1560.5,-311 1607.55,-295.961 1622.54,-290.867 1656.5,-255 1685.47,-224.406 1704.18,-177.648 1712.86,-152.142"/>
<polygon fill="midnightblue" stroke="midnightblue" points="1716.19,-153.214 1715.96,-142.621 1709.54,-151.044 1716.19,-153.214"/>
</g>
<!-- Node14&#45;&gt;Node6 -->
<g id="edge18" class="edge"><title>Node14&#45;&gt;Node6</title>
<path fill="none" stroke="midnightblue" d="M1098.65,-354.966C1249.11,-349.84 1860.5,-324.202 1860.5,-246 1860.5,-246 1860.5,-246 1860.5,-132 1860.5,-50.1228 1565.62,-20.7306 1466.53,-13.1653"/>
<polygon fill="midnightblue" stroke="midnightblue" points="1466.74,-9.6709 1456.51,-12.4238 1466.22,-16.6518 1466.74,-9.6709"/>
</g>
<!-- Node14&#45;&gt;Node7 -->
<g id="edge20" class="edge"><title>Node14&#45;&gt;Node7</title>
<path fill="none" stroke="midnightblue" d="M1098.84,-354.345C1197.56,-348.546 1481.5,-325 1481.5,-246 1481.5,-246 1481.5,-246 1481.5,-188 1481.5,-157.902 1476.32,-149.736 1462.5,-123 1455.98,-110.398 1446.11,-97.8859 1437.8,-88.4689"/>
<polygon fill="midnightblue" stroke="midnightblue" points="1440.35,-86.08 1431.02,-81.0654 1435.19,-90.8057 1440.35,-86.08"/>
</g>
<!-- Node14&#45;&gt;Node11 -->
<g id="edge82" class="edge"><title>Node14&#45;&gt;Node11</title>
<path fill="none" stroke="midnightblue" d="M1032.47,-349.036C1027.8,-348.238 1023.04,-347.524 1018.5,-347 625.67,-301.69 523.292,-347.008 129.5,-311 128.2,-310.881 126.886,-310.754 125.562,-310.62"/>
<polygon fill="midnightblue" stroke="midnightblue" points="125.609,-307.103 115.282,-309.467 124.829,-314.06 125.609,-307.103"/>
</g>
<!-- Node14&#45;&gt;Node12 -->
<g id="edge15" class="edge"><title>Node14&#45;&gt;Node12</title>
<path fill="none" stroke="midnightblue" d="M1032.43,-349.964C1025.22,-348.823 1017.62,-347.753 1010.5,-347 846.775,-329.678 429.57,-353.458 270.5,-311 209.237,-294.648 143.5,-309.408 143.5,-246 143.5,-246 143.5,-246 143.5,-132 143.5,-24.4445 317.605,-11.1009 393.655,-10.4028"/>
<polygon fill="midnightblue" stroke="midnightblue" points="393.715,-13.9028 403.707,-10.3797 393.699,-6.90278 393.715,-13.9028"/>
</g>
<!-- Node15 -->
<g id="node15" class="node"><title>Node15</title>
<polygon fill="white" stroke="#bfbfbf" points="248,-123.5 248,-142.5 305,-142.5 305,-123.5 248,-123.5"/>
<text text-anchor="middle" x="276.5" y="-130.5" font-family="Helvetica,sans-Serif" font-size="10.00">memory</text>
</g>
<!-- Node14&#45;&gt;Node15 -->
<g id="edge17" class="edge"><title>Node14&#45;&gt;Node15</title>
<path fill="none" stroke="midnightblue" d="M1032.21,-349.68C989.838,-341.486 914.452,-326.413 850.5,-311 666.859,-266.742 619.69,-258.781 440.5,-199 392.318,-182.926 337.735,-160.399 305.267,-146.526"/>
<polygon fill="midnightblue" stroke="midnightblue" points="306.501,-143.247 295.932,-142.515 303.738,-149.678 306.501,-143.247"/>
</g>
<!-- Node16 -->
<g id="node16" class="node"><title>Node16</title>
<polygon fill="white" stroke="#bfbfbf" points="1255.5,-123.5 1255.5,-142.5 1297.5,-142.5 1297.5,-123.5 1255.5,-123.5"/>
<text text-anchor="middle" x="1276.5" y="-130.5" font-family="Helvetica,sans-Serif" font-size="10.00">utility</text>
</g>
<!-- Node14&#45;&gt;Node16 -->
<g id="edge19" class="edge"><title>Node14&#45;&gt;Node16</title>
<path fill="none" stroke="midnightblue" d="M1098.66,-352.63C1170.92,-343.292 1341.85,-309.935 1413.5,-199 1418.32,-191.533 1418.71,-186.2 1413.5,-179 1411.88,-176.757 1347.01,-156.104 1307.12,-143.57"/>
<polygon fill="midnightblue" stroke="midnightblue" points="1308.17,-140.229 1297.58,-140.575 1306.07,-146.908 1308.17,-140.229"/>
</g>
<!-- Node17 -->
<g id="node17" class="node"><title>Node17</title>
<g id="a_node17"><a xlink:href="audio_8hpp.html" target="_top" xlink:title="Declaration of the Audio class. ">
<polygon fill="white" stroke="black" points="572.5,-179.5 572.5,-198.5 674.5,-198.5 674.5,-179.5 572.5,-179.5"/>
<text text-anchor="middle" x="623.5" y="-186.5" font-family="Helvetica,sans-Serif" font-size="10.00">../audio/audio.hpp</text>
</a>
</g>
</g>
<!-- Node14&#45;&gt;Node17 -->
<g id="edge21" class="edge"><title>Node14&#45;&gt;Node17</title>
<path fill="none" stroke="midnightblue" d="M1032.32,-348.022C999.68,-339.86 948.622,-326.241 905.5,-311 809.671,-277.129 700.056,-226.541 650.424,-202.963"/>
<polygon fill="midnightblue" stroke="midnightblue" points="651.852,-199.767 641.319,-198.621 648.838,-206.085 651.852,-199.767"/>
</g>
<!-- Node20 -->
<g id="node20" class="node"><title>Node20</title>
<g id="a_node20"><a xlink:href="time__parser_8hpp.html" target="_top" xlink:title="Declaration of the TimeParser class. ">
<polygon fill="white" stroke="black" points="277.5,-62 277.5,-81 381.5,-81 381.5,-62 277.5,-62"/>
<text text-anchor="middle" x="329.5" y="-69" font-family="Helvetica,sans-Serif" font-size="10.00">../time_parser.hpp</text>
</a>
</g>
</g>
<!-- Node14&#45;&gt;Node20 -->
<g id="edge47" class="edge"><title>Node14&#45;&gt;Node20</title>
<path fill="none" stroke="midnightblue" d="M1032.38,-350.355C1025.17,-349.19 1017.59,-348.011 1010.5,-347 918.638,-333.894 181.5,-338.792 181.5,-246 181.5,-246 181.5,-246 181.5,-188 181.5,-132.852 246.154,-100.147 289.997,-84.3099"/>
<polygon fill="midnightblue" stroke="midnightblue" points="291.245,-87.5818 299.55,-81.0036 288.955,-80.9668 291.245,-87.5818"/>
</g>
<!-- Node25 -->
<g id="node25" class="node"><title>Node25</title>
<g id="a_node25"><a xlink:href="cmd__result_8hpp.html" target="_top" xlink:title="Declaration of the CommandResult class. ">
<polygon fill="white" stroke="black" points="1547.5,-235.5 1547.5,-254.5 1647.5,-254.5 1647.5,-235.5 1547.5,-235.5"/>
<text text-anchor="middle" x="1597.5" y="-242.5" font-family="Helvetica,sans-Serif" font-size="10.00">../cmd_result.hpp</text>
</a>
</g>
</g>
<!-- Node14&#45;&gt;Node25 -->
<g id="edge42" class="edge"><title>Node14&#45;&gt;Node25</title>
<path fill="none" stroke="midnightblue" d="M1098.57,-355.724C1192.03,-354.494 1456.31,-347.767 1533.5,-311 1555.97,-300.298 1574.97,-278.239 1586.29,-262.801"/>
<polygon fill="midnightblue" stroke="midnightblue" points="1589.16,-264.808 1592.04,-254.612 1583.43,-260.786 1589.16,-264.808"/>
</g>
<!-- Node26 -->
<g id="node26" class="node"><title>Node26</title>
<g id="a_node26"><a xlink:href="player__file_8hpp.html" target="_top" xlink:title="Declaration of the PlayerFile class, and associated types. ">
<polygon fill="white" stroke="black" points="914.5,-291.5 914.5,-310.5 1000.5,-310.5 1000.5,-291.5 914.5,-291.5"/>
<text text-anchor="middle" x="957.5" y="-298.5" font-family="Helvetica,sans-Serif" font-size="10.00">player_file.hpp</text>
</a>
</g>
</g>
<!-- Node14&#45;&gt;Node26 -->
<g id="edge48" class="edge"><title>Node14&#45;&gt;Node26</title>
<path fill="none" stroke="midnightblue" d="M1048.15,-347.324C1030.83,-338.664 1003.98,-325.242 983.998,-315.249"/>
<polygon fill="midnightblue" stroke="midnightblue" points="985.319,-311.996 974.809,-310.655 982.188,-318.257 985.319,-311.996"/>
</g>
<!-- Node35 -->
<g id="node35" class="node"><title>Node35</title>
<g id="a_node35"><a xlink:href="player__position_8hpp.html" target="_top" xlink:title="Declaration of the PlayerPosition class. ">
<polygon fill="white" stroke="black" points="1010.5,-235.5 1010.5,-254.5 1120.5,-254.5 1120.5,-235.5 1010.5,-235.5"/>
<text text-anchor="middle" x="1065.5" y="-242.5" font-family="Helvetica,sans-Serif" font-size="10.00">player_position.hpp</text>
</a>
</g>
</g>
<!-- Node14&#45;&gt;Node35 -->
<g id="edge81" class="edge"><title>Node14&#45;&gt;Node35</title>
<path fill="none" stroke="midnightblue" d="M1065.5,-347.368C1065.5,-329.617 1065.5,-288.666 1065.5,-264.597"/>
<polygon fill="midnightblue" stroke="midnightblue" points="1069,-264.591 1065.5,-254.591 1062,-264.591 1069,-264.591"/>
</g>
<!-- Node17&#45;&gt;Node6 -->
<g id="edge24" class="edge"><title>Node17&#45;&gt;Node6</title>
<path fill="none" stroke="midnightblue" d="M626.061,-179.087C630.715,-164.65 642.026,-136.415 662.5,-123 765.973,-55.2022 824.591,-135.248 938.5,-87 958.889,-78.3641 956.978,-64.3132 977.5,-56 1054.81,-24.6844 1311.05,-14.4976 1402.07,-11.8211"/>
<polygon fill="midnightblue" stroke="midnightblue" points="1402.43,-15.3124 1412.33,-11.531 1402.23,-8.31519 1402.43,-15.3124"/>
</g>
<!-- Node17&#45;&gt;Node7 -->
<g id="edge26" class="edge"><title>Node17&#45;&gt;Node7</title>
<path fill="none" stroke="midnightblue" d="M674.531,-180.101C677.563,-179.708 680.57,-179.337 683.5,-179 882.386,-156.138 935.442,-178.307 1132.5,-143 1164.77,-137.218 1171.74,-131.13 1203.5,-123 1268.8,-106.284 1345.7,-89.1314 1388.8,-79.744"/>
<polygon fill="midnightblue" stroke="midnightblue" points="1389.72,-83.1263 1398.75,-77.5849 1388.24,-76.2856 1389.72,-83.1263"/>
</g>
<!-- Node17&#45;&gt;Node12 -->
<g id="edge22" class="edge"><title>Node17&#45;&gt;Node12</title>
<path fill="none" stroke="midnightblue" d="M572.416,-181.777C540.922,-175.903 501.05,-164.6 471.5,-143 447.218,-125.25 443.274,-115.446 433.5,-87 427.069,-68.2829 426.449,-45.4734 427.043,-29.7548"/>
<polygon fill="midnightblue" stroke="midnightblue" points="430.54,-29.908 427.624,-19.7222 423.552,-29.5029 430.54,-29.908"/>
</g>
<!-- Node17&#45;&gt;Node15 -->
<g id="edge23" class="edge"><title>Node17&#45;&gt;Node15</title>
<path fill="none" stroke="midnightblue" d="M572.299,-180.032C502.116,-169.11 377.612,-149.735 314.884,-139.973"/>
<polygon fill="midnightblue" stroke="midnightblue" points="315.422,-136.515 305.002,-138.436 314.345,-143.432 315.422,-136.515"/>
</g>
<!-- Node17&#45;&gt;Node16 -->
<g id="edge25" class="edge"><title>Node17&#45;&gt;Node16</title>
<path fill="none" stroke="midnightblue" d="M674.527,-180.063C677.56,-179.679 680.568,-179.321 683.5,-179 913.789,-153.797 972.9,-165.181 1203.5,-143 1217.2,-141.682 1232.31,-139.878 1245.21,-138.231"/>
<polygon fill="midnightblue" stroke="midnightblue" points="1245.98,-141.66 1255.45,-136.898 1245.08,-134.718 1245.98,-141.66"/>
</g>
<!-- Node18 -->
<g id="node18" class="node"><title>Node18</title>
<polygon fill="white" stroke="#bfbfbf" points="672,-123.5 672,-142.5 743,-142.5 743,-123.5 672,-123.5"/>
<text text-anchor="middle" x="707.5" y="-130.5" font-family="Helvetica,sans-Serif" font-size="10.00">portaudio.h</text>
</g>
<!-- Node17&#45;&gt;Node18 -->
<g id="edge27" class="edge"><title>Node17&#45;&gt;Node18</title>
<path fill="none" stroke="midnightblue" d="M636.996,-179.324C650.1,-170.9 670.212,-157.971 685.607,-148.074"/>
<polygon fill="midnightblue" stroke="midnightblue" points="687.518,-151.006 694.037,-142.655 683.733,-145.118 687.518,-151.006"/>
</g>
<!-- Node19 -->
<g id="node19" class="node"><title>Node19</title>
<polygon fill="white" stroke="#bfbfbf" points="761.5,-123.5 761.5,-142.5 945.5,-142.5 945.5,-123.5 761.5,-123.5"/>
<text text-anchor="middle" x="853.5" y="-130.5" font-family="Helvetica,sans-Serif" font-size="10.00">portaudiocpp/CallbackInterface.hxx</text>
</g>
<!-- Node17&#45;&gt;Node19 -->
<g id="edge28" class="edge"><title>Node17&#45;&gt;Node19</title>
<path fill="none" stroke="midnightblue" d="M659.944,-179.444C699.899,-170.063 764.087,-154.993 807.485,-144.804"/>
<polygon fill="midnightblue" stroke="midnightblue" points="808.291,-148.21 817.226,-142.516 806.691,-141.395 808.291,-148.21"/>
</g>
<!-- Node17&#45;&gt;Node20 -->
<g id="edge29" class="edge"><title>Node17&#45;&gt;Node20</title>
<path fill="none" stroke="midnightblue" d="M572.429,-186.805C524.093,-183.697 450.888,-173.736 395.5,-143 372.216,-130.079 352.419,-106.054 340.744,-89.6767"/>
<polygon fill="midnightblue" stroke="midnightblue" points="343.382,-87.3335 334.844,-81.0595 337.606,-91.2882 343.382,-87.3335"/>
</g>
<!-- Node21 -->
<g id="node21" class="node"><title>Node21</title>
<g id="a_node21"><a xlink:href="audio__source_8hpp.html" target="_top" xlink:title="Declaration of the AudioSource class. ">
<polygon fill="white" stroke="black" points="514,-123.5 514,-142.5 615,-142.5 615,-123.5 514,-123.5"/>
<text text-anchor="middle" x="564.5" y="-130.5" font-family="Helvetica,sans-Serif" font-size="10.00">audio_source.hpp</text>
</a>
</g>
</g>
<!-- Node17&#45;&gt;Node21 -->
<g id="edge31" class="edge"><title>Node17&#45;&gt;Node21</title>
<path fill="none" stroke="midnightblue" d="M614.021,-179.324C605.299,-171.341 592.157,-159.313 581.602,-149.653"/>
<polygon fill="midnightblue" stroke="midnightblue" points="583.892,-147.004 574.152,-142.834 579.166,-152.167 583.892,-147.004"/>
</g>
<!-- Node20&#45;&gt;Node12 -->
<g id="edge30" class="edge"><title>Node20&#45;&gt;Node12</title>
<path fill="none" stroke="midnightblue" d="M343.684,-61.9751C359.858,-52.2548 386.526,-36.2266 405.643,-24.7372"/>
<polygon fill="midnightblue" stroke="midnightblue" points="407.574,-27.6603 414.342,-19.5091 403.968,-21.6606 407.574,-27.6603"/>
</g>
<!-- Node21&#45;&gt;Node6 -->
<g id="edge34" class="edge"><title>Node21&#45;&gt;Node6</title>
<path fill="none" stroke="midnightblue" d="M614.147,-123.433C655.829,-115.675 716.7,-103.02 768.5,-87 803.745,-76.1004 809.576,-64.3924 845.5,-56 952.791,-30.9352 1294.92,-16.2441 1402.08,-12.1705"/>
<polygon fill="midnightblue" stroke="midnightblue" points="1402.41,-15.6607 1412.27,-11.7884 1402.15,-8.66562 1402.41,-15.6607"/>
</g>
<!-- Node21&#45;&gt;Node7 -->
<g id="edge35" class="edge"><title>Node21&#45;&gt;Node7</title>
<path fill="none" stroke="midnightblue" d="M615.084,-127.019C630.315,-125.609 647.08,-124.148 662.5,-123 942.182,-102.173 1013.03,-110.553 1292.5,-87 1325.12,-84.251 1362.22,-80.0008 1388.41,-76.8114"/>
<polygon fill="midnightblue" stroke="midnightblue" points="1389.08,-80.2557 1398.58,-75.5602 1388.23,-73.3081 1389.08,-80.2557"/>
</g>
<!-- Node21&#45;&gt;Node8 -->
<g id="edge37" class="edge"><title>Node21&#45;&gt;Node8</title>
<path fill="none" stroke="midnightblue" d="M611.351,-123.475C673.247,-112.213 781.681,-92.4824 843.933,-81.1552"/>
<polygon fill="midnightblue" stroke="midnightblue" points="844.672,-84.5782 853.884,-79.3445 843.419,-77.6913 844.672,-84.5782"/>
</g>
<!-- Node21&#45;&gt;Node12 -->
<g id="edge33" class="edge"><title>Node21&#45;&gt;Node12</title>
<path fill="none" stroke="midnightblue" d="M576.394,-123.336C595.009,-108.73 627.161,-78.5898 609.5,-56 591.7,-33.2329 510.724,-20.3372 463.327,-14.6158"/>
<polygon fill="midnightblue" stroke="midnightblue" points="463.528,-11.1157 453.191,-13.4396 462.721,-18.069 463.528,-11.1157"/>
</g>
<!-- Node21&#45;&gt;Node20 -->
<g id="edge40" class="edge"><title>Node21&#45;&gt;Node20</title>
<path fill="none" stroke="midnightblue" d="M530.83,-123.475C489.298,-112.959 418.609,-95.0615 373.001,-83.5142"/>
<polygon fill="midnightblue" stroke="midnightblue" points="373.661,-80.0707 363.107,-81.0091 371.942,-86.8566 373.661,-80.0707"/>
</g>
<!-- Node22 -->
<g id="node22" class="node"><title>Node22</title>
<polygon fill="white" stroke="#bfbfbf" points="658,-62 658,-81 699,-81 699,-62 658,-62"/>
<text text-anchor="middle" x="678.5" y="-69" font-family="Helvetica,sans-Serif" font-size="10.00">array</text>
</g>
<!-- Node21&#45;&gt;Node22 -->
<g id="edge32" class="edge"><title>Node21&#45;&gt;Node22</title>
<path fill="none" stroke="midnightblue" d="M580.833,-123.475C599.711,-113.622 631.007,-97.2883 653.076,-85.7697"/>
<polygon fill="midnightblue" stroke="midnightblue" points="654.951,-88.7389 662.197,-81.0091 651.712,-82.5333 654.951,-88.7389"/>
</g>
<!-- Node23 -->
<g id="node23" class="node"><title>Node23</title>
<polygon fill="white" stroke="#bfbfbf" points="717.5,-62 717.5,-81 759.5,-81 759.5,-62 717.5,-62"/>
<text text-anchor="middle" x="738.5" y="-69" font-family="Helvetica,sans-Serif" font-size="10.00">sox.h</text>
</g>
<!-- Node21&#45;&gt;Node23 -->
<g id="edge36" class="edge"><title>Node21&#45;&gt;Node23</title>
<path fill="none" stroke="midnightblue" d="M595.875,-123.427C625.126,-115.129 669.785,-101.68 707.5,-87 708.919,-86.4477 710.364,-85.8608 711.817,-85.2515"/>
<polygon fill="midnightblue" stroke="midnightblue" points="713.579,-88.2988 721.297,-81.0407 710.737,-81.9014 713.579,-88.2988"/>
</g>
<!-- Node24 -->
<g id="node24" class="node"><title>Node24</title>
<g id="a_node24"><a xlink:href="sample__formats_8hpp.html" target="_top" xlink:title="The SampleFormat enumeration. ">
<polygon fill="white" stroke="black" points="476,-62 476,-81 601,-81 601,-62 476,-62"/>
<text text-anchor="middle" x="538.5" y="-69" font-family="Helvetica,sans-Serif" font-size="10.00">../sample_formats.hpp</text>
</a>
</g>
</g>
<!-- Node21&#45;&gt;Node24 -->
<g id="edge38" class="edge"><title>Node21&#45;&gt;Node24</title>
<path fill="none" stroke="midnightblue" d="M560.775,-123.475C557.029,-114.904 551.14,-101.427 546.358,-90.483"/>
<polygon fill="midnightblue" stroke="midnightblue" points="549.43,-88.771 542.218,-81.0091 543.015,-91.5739 549.43,-88.771"/>
</g>
<!-- Node24&#45;&gt;Node12 -->
<g id="edge39" class="edge"><title>Node24&#45;&gt;Node12</title>
<path fill="none" stroke="midnightblue" d="M522.74,-61.9751C504.524,-52.1222 474.327,-35.7883 453.032,-24.2697"/>
<polygon fill="midnightblue" stroke="midnightblue" points="454.692,-21.1883 444.231,-19.5091 451.362,-27.3453 454.692,-21.1883"/>
</g>
<!-- Node25&#45;&gt;Node3 -->
<g id="edge46" class="edge"><title>Node25&#45;&gt;Node3</title>
<path fill="none" stroke="midnightblue" d="M1592.55,-235.083C1588.4,-227.613 1582.35,-216.724 1577.23,-207.52"/>
<polygon fill="midnightblue" stroke="midnightblue" points="1580.28,-205.793 1572.36,-198.751 1574.16,-209.192 1580.28,-205.793"/>
</g>
<!-- Node25&#45;&gt;Node6 -->
<g id="edge44" class="edge"><title>Node25&#45;&gt;Node6</title>
<path fill="none" stroke="midnightblue" d="M1647.67,-237.864C1676.76,-232.055 1712.47,-220.791 1737.5,-199 1764.54,-175.464 1783.77,-153.224 1764.5,-123 1699.97,-21.7977 1537.27,-10.1875 1467.31,-10.0874"/>
<polygon fill="midnightblue" stroke="midnightblue" points="1466.89,-6.59013 1456.91,-10.1582 1466.93,-13.59 1466.89,-6.59013"/>
</g>
<!-- Node25&#45;&gt;Node7 -->
<g id="edge45" class="edge"><title>Node25&#45;&gt;Node7</title>
<path fill="none" stroke="midnightblue" d="M1624.81,-235.49C1678.51,-217.411 1789.09,-172.739 1746.5,-123 1709.45,-79.7224 1532.27,-73.248 1456.74,-72.4826"/>
<polygon fill="midnightblue" stroke="midnightblue" points="1456.38,-68.9801 1446.36,-72.4075 1456.33,-75.9799 1456.38,-68.9801"/>
</g>
<!-- Node25&#45;&gt;Node12 -->
<g id="edge43" class="edge"><title>Node25&#45;&gt;Node12</title>
<path fill="none" stroke="midnightblue" d="M1547.14,-243.506C1440.82,-241.774 1185.9,-233.985 975.5,-199 941.045,-193.271 933.9,-185.05 899.5,-179 812.691,-163.731 580.427,-187.767 504.5,-143 462.083,-117.991 441.162,-59.5242 432.908,-29.5054"/>
<polygon fill="midnightblue" stroke="midnightblue" points="436.222,-28.3385 430.346,-19.5223 429.442,-30.0784 436.222,-28.3385"/>
</g>
<!-- Node26&#45;&gt;Node3 -->
<g id="edge74" class="edge"><title>Node26&#45;&gt;Node3</title>
<path fill="none" stroke="midnightblue" d="M1000.77,-295.912C1066.36,-289.365 1194.74,-275.179 1302.5,-255 1383.25,-239.878 1476.22,-215.411 1527.79,-201.203"/>
<polygon fill="midnightblue" stroke="midnightblue" points="1528.83,-204.546 1537.53,-198.504 1526.96,-197.8 1528.83,-204.546"/>
</g>
<!-- Node26&#45;&gt;Node15 -->
<g id="edge49" class="edge"><title>Node26&#45;&gt;Node15</title>
<path fill="none" stroke="midnightblue" d="M918.52,-291.447C842.017,-274.56 666.91,-235.41 520.5,-199 447.618,-180.875 363.012,-157.9 315.011,-144.683"/>
<polygon fill="midnightblue" stroke="midnightblue" points="315.912,-141.301 305.341,-142.016 314.051,-148.049 315.912,-141.301"/>
</g>
<!-- Node26&#45;&gt;Node20 -->
<g id="edge75" class="edge"><title>Node26&#45;&gt;Node20</title>
<path fill="none" stroke="midnightblue" d="M914.478,-297.621C772.269,-288.757 321.642,-252.327 238.5,-143 219.341,-117.808 258.712,-96.8044 291.528,-84.4484"/>
<polygon fill="midnightblue" stroke="midnightblue" points="292.766,-87.7229 300.992,-81.0464 290.398,-81.1356 292.766,-87.7229"/>
</g>
<!-- Node27 -->
<g id="node27" class="node"><title>Node27</title>
<g id="a_node27"><a xlink:href="audio__system_8hpp.html" target="_top" xlink:title="Declaration of the AudioSystem class. ">
<polygon fill="white" stroke="black" points="849,-235.5 849,-254.5 992,-254.5 992,-235.5 849,-235.5"/>
<text text-anchor="middle" x="920.5" y="-242.5" font-family="Helvetica,sans-Serif" font-size="10.00">../audio/audio_system.hpp</text>
</a>
</g>
</g>
<!-- Node26&#45;&gt;Node27 -->
<g id="edge50" class="edge"><title>Node26&#45;&gt;Node27</title>
<path fill="none" stroke="midnightblue" d="M951.39,-291.083C946.218,-283.534 938.654,-272.495 932.306,-263.23"/>
<polygon fill="midnightblue" stroke="midnightblue" points="935.036,-261.022 926.496,-254.751 929.261,-264.979 935.036,-261.022"/>
</g>
<!-- Node26&#45;&gt;Node35 -->
<g id="edge76" class="edge"><title>Node26&#45;&gt;Node35</title>
<path fill="none" stroke="midnightblue" d="M974.852,-291.324C992.172,-282.664 1019.02,-269.242 1039,-259.249"/>
<polygon fill="midnightblue" stroke="midnightblue" points="1040.81,-262.257 1048.19,-254.655 1037.68,-255.996 1040.81,-262.257"/>
</g>
<!-- Node27&#45;&gt;Node6 -->
<g id="edge51" class="edge"><title>Node27&#45;&gt;Node6</title>
<path fill="none" stroke="midnightblue" d="M992.026,-235.797C1132.36,-218.979 1432.78,-179.128 1462.5,-143 1490.06,-109.5 1463.1,-55.4021 1446.07,-28.0302"/>
<polygon fill="midnightblue" stroke="midnightblue" points="1448.95,-26.0282 1440.57,-19.5407 1443.07,-29.8358 1448.95,-26.0282"/>
</g>
<!-- Node27&#45;&gt;Node16 -->
<g id="edge52" class="edge"><title>Node27&#45;&gt;Node16</title>
<path fill="none" stroke="midnightblue" d="M952.71,-235.498C985.308,-226.775 1037.1,-212.596 1081.5,-199 1139.92,-181.112 1207.41,-158.079 1245.72,-144.783"/>
<polygon fill="midnightblue" stroke="midnightblue" points="1246.96,-148.055 1255.26,-141.462 1244.66,-141.443 1246.96,-148.055"/>
</g>
<!-- Node27&#45;&gt;Node17 -->
<g id="edge73" class="edge"><title>Node27&#45;&gt;Node17</title>
<path fill="none" stroke="midnightblue" d="M873.439,-235.444C821.085,-225.925 736.51,-210.547 680.46,-200.356"/>
<polygon fill="midnightblue" stroke="midnightblue" points="680.805,-196.862 670.34,-198.516 679.553,-203.749 680.805,-196.862"/>
</g>
<!-- Node27&#45;&gt;Node21 -->
<g id="edge72" class="edge"><title>Node27&#45;&gt;Node21</title>
<path fill="none" stroke="midnightblue" d="M848.882,-239.979C750.098,-233.69 582.042,-220.025 563.5,-199 552.555,-186.589 554.475,-167.071 558.115,-152.66"/>
<polygon fill="midnightblue" stroke="midnightblue" points="561.54,-153.42 561.048,-142.837 554.833,-151.417 561.54,-153.42"/>
</g>
<!-- Node27&#45;&gt;Node24 -->
<g id="edge55" class="edge"><title>Node27&#45;&gt;Node24</title>
<path fill="none" stroke="midnightblue" d="M848.988,-241.363C756.759,-236.926 602.283,-225.677 552.5,-199 523.606,-183.517 515.873,-173.744 504.5,-143 497.406,-123.823 510.397,-102.834 522.314,-88.7875"/>
<polygon fill="midnightblue" stroke="midnightblue" points="524.907,-91.1386 529.046,-81.3858 519.728,-86.4287 524.907,-91.1386"/>
</g>
<!-- Node28 -->
<g id="node28" class="node"><title>Node28</title>
<polygon fill="white" stroke="#bfbfbf" points="693,-179.5 693,-198.5 890,-198.5 890,-179.5 693,-179.5"/>
<text text-anchor="middle" x="791.5" y="-186.5" font-family="Helvetica,sans-Serif" font-size="10.00">portaudiocpp/SampleDataFormat.hxx</text>
</g>
<!-- Node27&#45;&gt;Node28 -->
<g id="edge53" class="edge"><title>Node27&#45;&gt;Node28</title>
<path fill="none" stroke="midnightblue" d="M900.06,-235.444C878.83,-226.557 845.401,-212.563 821.245,-202.451"/>
<polygon fill="midnightblue" stroke="midnightblue" points="822.421,-199.149 811.845,-198.516 819.718,-205.606 822.421,-199.149"/>
</g>
<!-- Node29 -->
<g id="node29" class="node"><title>Node29</title>
<polygon fill="white" stroke="#bfbfbf" points="1315.5,-123.5 1315.5,-142.5 1453.5,-142.5 1453.5,-123.5 1315.5,-123.5"/>
<text text-anchor="middle" x="1384.5" y="-130.5" font-family="Helvetica,sans-Serif" font-size="10.00">portaudiocpp/Stream.hxx</text>
</g>
<!-- Node27&#45;&gt;Node29 -->
<g id="edge54" class="edge"><title>Node27&#45;&gt;Node29</title>
<path fill="none" stroke="midnightblue" d="M960.831,-235.45C1002.04,-226.633 1067.84,-212.33 1124.5,-199 1201.35,-180.92 1290.56,-158.25 1341.97,-145.019"/>
<polygon fill="midnightblue" stroke="midnightblue" points="1342.93,-148.387 1351.74,-142.502 1341.18,-141.609 1342.93,-148.387"/>
</g>
<!-- Node30 -->
<g id="node30" class="node"><title>Node30</title>
<g id="a_node30"><a xlink:href="audio__sink_8hpp.html" target="_top" xlink:title="Declaration of the AudioSink class. ">
<polygon fill="white" stroke="black" points="984.5,-179.5 984.5,-198.5 1072.5,-198.5 1072.5,-179.5 984.5,-179.5"/>
<text text-anchor="middle" x="1028.5" y="-186.5" font-family="Helvetica,sans-Serif" font-size="10.00">audio_sink.hpp</text>
</a>
</g>
</g>
<!-- Node27&#45;&gt;Node30 -->
<g id="edge56" class="edge"><title>Node27&#45;&gt;Node30</title>
<path fill="none" stroke="midnightblue" d="M937.852,-235.324C955.172,-226.664 982.015,-213.242 1002,-203.249"/>
<polygon fill="midnightblue" stroke="midnightblue" points="1003.81,-206.257 1011.19,-198.655 1000.68,-199.996 1003.81,-206.257"/>
</g>
<!-- Node30&#45;&gt;Node6 -->
<g id="edge59" class="edge"><title>Node30&#45;&gt;Node6</title>
<path fill="none" stroke="midnightblue" d="M1050.89,-179.478C1113.57,-155.611 1286.66,-89.6693 1292.5,-87 1335.27,-67.4653 1383.13,-40.7987 1410.93,-24.8004"/>
<polygon fill="midnightblue" stroke="midnightblue" points="1412.99,-27.6549 1419.89,-19.6158 1409.48,-21.5967 1412.99,-27.6549"/>
</g>
<!-- Node30&#45;&gt;Node7 -->
<g id="edge61" class="edge"><title>Node30&#45;&gt;Node7</title>
<path fill="none" stroke="midnightblue" d="M1070.52,-179.473C1106.38,-171.659 1159.05,-158.901 1203.5,-143 1223.35,-135.901 1226.75,-130.373 1246.5,-123 1295.02,-104.883 1353.06,-89.3723 1388.86,-80.4884"/>
<polygon fill="midnightblue" stroke="midnightblue" points="1389.9,-83.8368 1398.78,-78.0552 1388.23,-77.0383 1389.9,-83.8368"/>
</g>
<!-- Node30&#45;&gt;Node12 -->
<g id="edge57" class="edge"><title>Node30&#45;&gt;Node12</title>
<path fill="none" stroke="midnightblue" d="M1020.71,-179.176C1008.09,-165.371 981.806,-138.63 954.5,-123 910.222,-97.6559 893.41,-104.536 845.5,-87 810.856,-74.3198 804.178,-65.383 768.5,-56 659.357,-27.2966 525.456,-16.4288 463.284,-12.7204"/>
<polygon fill="midnightblue" stroke="midnightblue" points="463.415,-9.22237 453.232,-12.1467 463.016,-16.211 463.415,-9.22237"/>
</g>
<!-- Node30&#45;&gt;Node15 -->
<g id="edge58" class="edge"><title>Node30&#45;&gt;Node15</title>
<path fill="none" stroke="midnightblue" d="M984.266,-184.824C849.067,-175.115 442.772,-145.94 315.239,-136.782"/>
<polygon fill="midnightblue" stroke="midnightblue" points="315.381,-133.283 305.156,-136.058 314.88,-140.265 315.381,-133.283"/>
</g>
<!-- Node30&#45;&gt;Node16 -->
<g id="edge60" class="edge"><title>Node30&#45;&gt;Node16</title>
<path fill="none" stroke="midnightblue" d="M1071.46,-179.495C1114.56,-170.827 1182.8,-156.74 1241.5,-143 1242.77,-142.702 1244.07,-142.394 1245.38,-142.078"/>
<polygon fill="midnightblue" stroke="midnightblue" points="1246.58,-145.385 1255.44,-139.574 1244.89,-138.592 1246.58,-145.385"/>
</g>
<!-- Node30&#45;&gt;Node18 -->
<g id="edge62" class="edge"><title>Node30&#45;&gt;Node18</title>
<path fill="none" stroke="midnightblue" d="M984.362,-181.001C922.011,-171.082 810.252,-153.18 753.31,-143.08"/>
<polygon fill="midnightblue" stroke="midnightblue" points="753.801,-139.612 743.339,-141.288 752.563,-146.501 753.801,-139.612"/>
</g>
<!-- Node30&#45;&gt;Node19 -->
<g id="edge63" class="edge"><title>Node30&#45;&gt;Node19</title>
<path fill="none" stroke="midnightblue" d="M1000.77,-179.444C971.074,-170.28 923.784,-155.688 890.831,-145.519"/>
<polygon fill="midnightblue" stroke="midnightblue" points="891.687,-142.121 881.1,-142.516 889.623,-148.809 891.687,-142.121"/>
</g>
<!-- Node30&#45;&gt;Node21 -->
<g id="edge65" class="edge"><title>Node30&#45;&gt;Node21</title>
<path fill="none" stroke="midnightblue" d="M984.195,-180.922C979.575,-180.244 974.944,-179.591 970.5,-179 848.389,-162.767 705.07,-147.845 625.541,-139.929"/>
<polygon fill="midnightblue" stroke="midnightblue" points="625.519,-136.41 615.222,-138.905 624.828,-143.375 625.519,-136.41"/>
</g>
<!-- Node30&#45;&gt;Node29 -->
<g id="edge64" class="edge"><title>Node30&#45;&gt;Node29</title>
<path fill="none" stroke="midnightblue" d="M1072.51,-181.324C1134.04,-171.992 1246.26,-154.969 1318.01,-144.086"/>
<polygon fill="midnightblue" stroke="midnightblue" points="1318.93,-147.486 1328.29,-142.526 1317.88,-140.565 1318.93,-147.486"/>
</g>
<!-- Node31 -->
<g id="node31" class="node"><title>Node31</title>
<g id="a_node31"><a xlink:href="ringbuffer_8hpp.html" target="_top" xlink:title="The RingBuffer class template. ">
<polygon fill="white" stroke="black" points="1040,-123.5 1040,-142.5 1123,-142.5 1123,-123.5 1040,-123.5"/>
<text text-anchor="middle" x="1081.5" y="-130.5" font-family="Helvetica,sans-Serif" font-size="10.00">ringbuffer.hpp</text>
</a>
</g>
</g>
<!-- Node30&#45;&gt;Node31 -->
<g id="edge66" class="edge"><title>Node30&#45;&gt;Node31</title>
<path fill="none" stroke="midnightblue" d="M1037.25,-179.083C1044.97,-171.22 1056.4,-159.569 1065.72,-150.081"/>
<polygon fill="midnightblue" stroke="midnightblue" points="1068.4,-152.34 1072.91,-142.751 1063.41,-147.436 1068.4,-152.34"/>
</g>
<!-- Node31&#45;&gt;Node8 -->
<g id="edge69" class="edge"><title>Node31&#45;&gt;Node8</title>
<path fill="none" stroke="midnightblue" d="M1054.28,-123.475C1021.26,-113.136 965.46,-95.6611 928.547,-84.1017"/>
<polygon fill="midnightblue" stroke="midnightblue" points="929.261,-80.6576 918.672,-81.0091 927.169,-87.3377 929.261,-80.6576"/>
</g>
<!-- Node32 -->
<g id="node32" class="node"><title>Node32</title>
<polygon fill="white" stroke="#bfbfbf" points="1129.5,-62 1129.5,-81 1181.5,-81 1181.5,-62 1129.5,-62"/>
<text text-anchor="middle" x="1155.5" y="-69" font-family="Helvetica,sans-Serif" font-size="10.00">cassert</text>
</g>
<!-- Node31&#45;&gt;Node32 -->
<g id="edge67" class="edge"><title>Node31&#45;&gt;Node32</title>
<path fill="none" stroke="midnightblue" d="M1092.1,-123.475C1103.75,-114.108 1122.69,-98.8839 1136.83,-87.5081"/>
<polygon fill="midnightblue" stroke="midnightblue" points="1139.32,-90.003 1144.92,-81.0091 1134.93,-84.5477 1139.32,-90.003"/>
</g>
<!-- Node33 -->
<g id="node33" class="node"><title>Node33</title>
<polygon fill="white" stroke="#bfbfbf" points="986,-56.5 986,-86.5 1111,-86.5 1111,-56.5 986,-56.5"/>
<text text-anchor="start" x="994" y="-74.5" font-family="Helvetica,sans-Serif" font-size="10.00">../contrib/pa_ringbuffer</text>
<text text-anchor="middle" x="1048.5" y="-63.5" font-family="Helvetica,sans-Serif" font-size="10.00">/pa_ringbuffer.h</text>
</g>
<!-- Node31&#45;&gt;Node33 -->
<g id="edge68" class="edge"><title>Node31&#45;&gt;Node33</title>
<path fill="none" stroke="midnightblue" d="M1076.77,-123.475C1072.72,-116.17 1066.69,-105.302 1061.24,-95.475"/>
<polygon fill="midnightblue" stroke="midnightblue" points="1064.19,-93.5704 1056.28,-86.523 1058.07,-96.9656 1064.19,-93.5704"/>
</g>
<!-- Node34 -->
<g id="node34" class="node"><title>Node34</title>
<g id="a_node34"><a xlink:href="messages_8h.html" target="_top" xlink:title="Constant human&#45;readable messages used within playd. ">
<polygon fill="white" stroke="black" points="1199.5,-62 1199.5,-81 1283.5,-81 1283.5,-62 1199.5,-62"/>
<text text-anchor="middle" x="1241.5" y="-69" font-family="Helvetica,sans-Serif" font-size="10.00">../messages.h</text>
</a>
</g>
</g>
<!-- Node31&#45;&gt;Node34 -->
<g id="edge70" class="edge"><title>Node31&#45;&gt;Node34</title>
<path fill="none" stroke="midnightblue" d="M1104.42,-123.475C1131.87,-113.269 1178.02,-96.108 1209.1,-84.5492"/>
<polygon fill="midnightblue" stroke="midnightblue" points="1210.47,-87.7752 1218.62,-81.0091 1208.03,-81.2142 1210.47,-87.7752"/>
</g>
<!-- Node34&#45;&gt;Node6 -->
<g id="edge71" class="edge"><title>Node34&#45;&gt;Node6</title>
<path fill="none" stroke="midnightblue" d="M1269.15,-61.9751C1304.4,-51.1075 1365.23,-32.3552 1402.46,-20.8765"/>
<polygon fill="midnightblue" stroke="midnightblue" points="1403.77,-24.1353 1412.3,-17.8445 1401.71,-17.4459 1403.77,-24.1353"/>
</g>
<!-- Node35&#45;&gt;Node3 -->
<g id="edge79" class="edge"><title>Node35&#45;&gt;Node3</title>
<path fill="none" stroke="midnightblue" d="M1120.66,-238.067C1213,-228.134 1398.62,-208.167 1499.11,-197.356"/>
<polygon fill="midnightblue" stroke="midnightblue" points="1499.59,-200.825 1509.16,-196.276 1498.84,-193.866 1499.59,-200.825"/>
</g>
<!-- Node35&#45;&gt;Node20 -->
<g id="edge80" class="edge"><title>Node35&#45;&gt;Node20</title>
<path fill="none" stroke="midnightblue" d="M1010.37,-236.041C1007.37,-235.673 1004.4,-235.323 1001.5,-235 807.376,-213.391 755.685,-233.869 563.5,-199 541.109,-194.938 384.163,-157.348 366.5,-143 350.112,-129.687 340.107,-107.161 334.704,-91.1568"/>
<polygon fill="midnightblue" stroke="midnightblue" points="337.961,-89.841 331.675,-81.3119 331.27,-91.899 337.961,-89.841"/>
</g>
<!-- Node35&#45;&gt;Node21 -->
<g id="edge78" class="edge"><title>Node35&#45;&gt;Node21</title>
<path fill="none" stroke="midnightblue" d="M1047.55,-235.315C1017.61,-221.205 955.229,-193.43 899.5,-179 849.039,-165.934 707.287,-149.332 625.248,-140.393"/>
<polygon fill="midnightblue" stroke="midnightblue" points="625.38,-136.887 615.061,-139.289 624.626,-143.846 625.38,-136.887"/>
</g>
<!-- Node36 -->
<g id="node36" class="node"><title>Node36</title>
<polygon fill="white" stroke="#bfbfbf" points="1372.5,-179.5 1372.5,-198.5 1404.5,-198.5 1404.5,-179.5 1372.5,-179.5"/>
<text text-anchor="middle" x="1388.5" y="-186.5" font-family="Helvetica,sans-Serif" font-size="10.00">set</text>
</g>
<!-- Node35&#45;&gt;Node36 -->
<g id="edge77" class="edge"><title>Node35&#45;&gt;Node36</title>
<path fill="none" stroke="midnightblue" d="M1120.74,-237.842C1179.96,-230.699 1276.54,-217.493 1358.5,-199 1359.78,-198.711 1361.09,-198.395 1362.41,-198.062"/>
<polygon fill="midnightblue" stroke="midnightblue" points="1363.72,-201.329 1372.42,-195.274 1361.84,-194.586 1363.72,-201.329"/>
</g>
</g>
</svg>
