<?xml version="1.0" encoding="UTF-8" standalone="no"?>
<!DOCTYPE svg PUBLIC "-//W3C//DTD SVG 1.1//EN"
 "http://www.w3.org/Graphics/SVG/1.1/DTD/svg11.dtd">
<!-- Generated by graphviz version 2.38.0 (20140413.2041)
 -->
<!-- Title: src/player/player.hpp Pages: 1 -->
<svg width="1502pt" height="375pt"
 viewBox="0.00 0.00 1502.00 375.00" xmlns="http://www.w3.org/2000/svg" xmlns:xlink="http://www.w3.org/1999/xlink">
<g id="graph0" class="graph" transform="scale(1 1) rotate(0) translate(4 371)">
<title>src/player/player.hpp</title>
<polygon fill="white" stroke="none" points="-4,4 -4,-371 1498,-371 1498,4 -4,4"/>
<!-- Node1 -->
<g id="node1" class="node"><title>Node1</title>
<polygon fill="#bfbfbf" stroke="black" points="1089,-347.5 1089,-366.5 1205,-366.5 1205,-347.5 1089,-347.5"/>
<text text-anchor="middle" x="1147" y="-354.5" font-family="Helvetica,sans-Serif" font-size="10.00">src/player/player.hpp</text>
</g>
<!-- Node2 -->
<g id="node2" class="node"><title>Node2</title>
<polygon fill="white" stroke="#bfbfbf" points="556.5,-0.5 556.5,-19.5 603.5,-19.5 603.5,-0.5 556.5,-0.5"/>
<text text-anchor="middle" x="580" y="-7.5" font-family="Helvetica,sans-Serif" font-size="10.00">cstdint</text>
</g>
<!-- Node1&#45;&gt;Node2 -->
<g id="edge1" class="edge"><title>Node1&#45;&gt;Node2</title>
<path fill="none" stroke="midnightblue" d="M1088.94,-356.589C855.774,-358.202 0,-356.588 0,-246 0,-246 0,-246 0,-132 0,-19.682 422.079,-10.939 546.114,-10.7946"/>
<polygon fill="midnightblue" stroke="midnightblue" points="546.18,-14.2946 556.182,-10.8016 546.184,-7.29459 546.18,-14.2946"/>
</g>
<!-- Node3 -->
<g id="node3" class="node"><title>Node3</title>
<polygon fill="white" stroke="#bfbfbf" points="1270.5,-235.5 1270.5,-254.5 1347.5,-254.5 1347.5,-235.5 1270.5,-235.5"/>
<text text-anchor="middle" x="1309" y="-242.5" font-family="Helvetica,sans-Serif" font-size="10.00">initializer_list</text>
</g>
<!-- Node1&#45;&gt;Node3 -->
<g id="edge2" class="edge"><title>Node1&#45;&gt;Node3</title>
<path fill="none" stroke="midnightblue" d="M1205.1,-353.166C1237.05,-348.472 1274.8,-337.222 1298,-311 1309.01,-298.556 1311.07,-279.32 1310.79,-264.998"/>
<polygon fill="midnightblue" stroke="midnightblue" points="1314.27,-264.567 1310.19,-254.79 1307.28,-264.978 1314.27,-264.567"/>
</g>
<!-- Node4 -->
<g id="node4" class="node"><title>Node4</title>
<polygon fill="white" stroke="#bfbfbf" points="1270.5,-123.5 1270.5,-142.5 1307.5,-142.5 1307.5,-123.5 1270.5,-123.5"/>
<text text-anchor="middle" x="1289" y="-130.5" font-family="Helvetica,sans-Serif" font-size="10.00">map</text>
</g>
<!-- Node1&#45;&gt;Node4 -->
<g id="edge3" class="edge"><title>Node1&#45;&gt;Node4</title>
<path fill="none" stroke="midnightblue" d="M1205.18,-350.756C1240.15,-345.264 1284.11,-334.02 1317,-311 1341.85,-293.61 1346.92,-283.938 1356,-255 1368.86,-214.039 1331.08,-171.274 1307.12,-149.203"/>
<polygon fill="midnightblue" stroke="midnightblue" points="1309.42,-146.565 1299.61,-142.544 1304.77,-151.8 1309.42,-146.565"/>
</g>
<!-- Node5 -->
<g id="node5" class="node"><title>Node5</title>
<polygon fill="white" stroke="#bfbfbf" points="28,-123.5 28,-142.5 82,-142.5 82,-123.5 28,-123.5"/>
<text text-anchor="middle" x="55" y="-130.5" font-family="Helvetica,sans-Serif" font-size="10.00">memory</text>
</g>
<!-- Node1&#45;&gt;Node5 -->
<g id="edge4" class="edge"><title>Node1&#45;&gt;Node5</title>
<path fill="none" stroke="midnightblue" d="M1088.69,-354.301C993.324,-350.755 798.36,-340.293 636,-311 451.79,-277.764 408.124,-256.53 230,-199 178.772,-182.454 120.347,-160.015 85.6319,-146.296"/>
<polygon fill="midnightblue" stroke="midnightblue" points="86.66,-142.938 76.0742,-142.502 84.0774,-149.444 86.66,-142.938"/>
</g>
<!-- Node6 -->
<g id="node6" class="node"><title>Node6</title>
<polygon fill="white" stroke="#bfbfbf" points="1035.5,-0.5 1035.5,-19.5 1078.5,-19.5 1078.5,-0.5 1035.5,-0.5"/>
<text text-anchor="middle" x="1057" y="-7.5" font-family="Helvetica,sans-Serif" font-size="10.00">string</text>
</g>
<!-- Node1&#45;&gt;Node6 -->
<g id="edge5" class="edge"><title>Node1&#45;&gt;Node6</title>
<path fill="none" stroke="midnightblue" d="M1205.08,-349.71C1303.86,-337.384 1494,-305.88 1494,-246 1494,-246 1494,-246 1494,-132 1494,-47.8798 1189.45,-19.8823 1088.83,-12.9281"/>
<polygon fill="midnightblue" stroke="midnightblue" points="1088.88,-9.42375 1078.67,-12.2501 1088.42,-16.4082 1088.88,-9.42375"/>
</g>
<!-- Node7 -->
<g id="node7" class="node"><title>Node7</title>
<polygon fill="white" stroke="#bfbfbf" points="1024,-123.5 1024,-142.5 1064,-142.5 1064,-123.5 1024,-123.5"/>
<text text-anchor="middle" x="1044" y="-130.5" font-family="Helvetica,sans-Serif" font-size="10.00">utility</text>
</g>
<!-- Node1&#45;&gt;Node7 -->
<g id="edge6" class="edge"><title>Node1&#45;&gt;Node7</title>
<path fill="none" stroke="midnightblue" d="M1142.96,-347.297C1127.71,-314.425 1073.41,-197.391 1052.39,-152.09"/>
<polygon fill="midnightblue" stroke="midnightblue" points="1055.51,-150.482 1048.12,-142.884 1049.16,-153.428 1055.51,-150.482"/>
</g>
<!-- Node8 -->
<g id="node8" class="node"><title>Node8</title>
<g id="a_node8"><a xlink:href="audio_8hpp.html" target="_top" xlink:title="Declaration of the Audio class. ">
<polygon fill="white" stroke="black" points="325,-179.5 325,-198.5 423,-198.5 423,-179.5 325,-179.5"/>
<text text-anchor="middle" x="374" y="-186.5" font-family="Helvetica,sans-Serif" font-size="10.00">../audio/audio.hpp</text>
</a>
</g>
</g>
<!-- Node1&#45;&gt;Node8 -->
<g id="edge7" class="edge"><title>Node1&#45;&gt;Node8</title>
<path fill="none" stroke="midnightblue" d="M1088.86,-354.346C1005.07,-350.978 845.944,-340.884 714,-311 594.715,-283.984 459.654,-227.813 402.234,-202.659"/>
<polygon fill="midnightblue" stroke="midnightblue" points="403.628,-199.449 393.066,-198.617 400.804,-205.854 403.628,-199.449"/>
</g>
<!-- Node19 -->
<g id="node19" class="node"><title>Node19</title>
<g id="a_node19"><a xlink:href="io__response_8hpp.html" target="_top" xlink:title="Declaration of classes pertaining to responses to the client. ">
<polygon fill="white" stroke="black" points="1156,-179.5 1156,-198.5 1270,-198.5 1270,-179.5 1156,-179.5"/>
<text text-anchor="middle" x="1213" y="-186.5" font-family="Helvetica,sans-Serif" font-size="10.00">../io/io_response.hpp</text>
</a>
</g>
</g>
<!-- Node1&#45;&gt;Node19 -->
<g id="edge26" class="edge"><title>Node1&#45;&gt;Node19</title>
<path fill="none" stroke="midnightblue" d="M1150.55,-347.075C1160.98,-320.832 1191.71,-243.545 1205.8,-208.117"/>
<polygon fill="midnightblue" stroke="midnightblue" points="1209.15,-209.154 1209.59,-198.568 1202.65,-206.567 1209.15,-209.154"/>
</g>
<!-- Node21 -->
<g id="node21" class="node"><title>Node21</title>
<g id="a_node21"><a xlink:href="time__parser_8hpp.html" target="_top" xlink:title="The TimeParser template class. ">
<polygon fill="white" stroke="black" points="1364.5,-123.5 1364.5,-142.5 1465.5,-142.5 1465.5,-123.5 1364.5,-123.5"/>
<text text-anchor="middle" x="1415" y="-130.5" font-family="Helvetica,sans-Serif" font-size="10.00">../time_parser.hpp</text>
</a>
</g>
</g>
<!-- Node1&#45;&gt;Node21 -->
<g id="edge31" class="edge"><title>Node1&#45;&gt;Node21</title>
<path fill="none" stroke="midnightblue" d="M1205.23,-355.279C1247.4,-351.967 1303.68,-341.477 1343,-311 1393.87,-271.575 1408.99,-190.253 1413.33,-153.177"/>
<polygon fill="midnightblue" stroke="midnightblue" points="1416.85,-153.108 1414.39,-142.804 1409.89,-152.395 1416.85,-153.108"/>
</g>
<!-- Node23 -->
<g id="node23" class="node"><title>Node23</title>
<g id="a_node23"><a xlink:href="player__file_8hpp.html" target="_top" xlink:title="Declaration of the PlayerFile class, and associated types. ">
<polygon fill="white" stroke="black" points="761,-291.5 761,-310.5 847,-310.5 847,-291.5 761,-291.5"/>
<text text-anchor="middle" x="804" y="-298.5" font-family="Helvetica,sans-Serif" font-size="10.00">player_file.hpp</text>
</a>
</g>
</g>
<!-- Node1&#45;&gt;Node23 -->
<g id="edge37" class="edge"><title>Node1&#45;&gt;Node23</title>
<path fill="none" stroke="midnightblue" d="M1092.65,-347.444C1028.1,-337.281 921.135,-320.441 857.126,-310.364"/>
<polygon fill="midnightblue" stroke="midnightblue" points="857.658,-306.905 847.235,-308.807 856.569,-313.819 857.658,-306.905"/>
</g>
<!-- Node31 -->
<g id="node31" class="node"><title>Node31</title>
<g id="a_node31"><a xlink:href="player__position_8hpp.html" target="_top" xlink:title="Declaration of the PlayerPosition class. ">
<polygon fill="white" stroke="black" points="608.5,-235.5 608.5,-254.5 717.5,-254.5 717.5,-235.5 608.5,-235.5"/>
<text text-anchor="middle" x="663" y="-242.5" font-family="Helvetica,sans-Serif" font-size="10.00">player_position.hpp</text>
</a>
</g>
</g>
<!-- Node1&#45;&gt;Node31 -->
<g id="edge67" class="edge"><title>Node1&#45;&gt;Node31</title>
<path fill="none" stroke="midnightblue" d="M1088.73,-353.025C994.195,-347.589 811.956,-334.401 752,-311 723.465,-299.863 695.813,-277.235 679.1,-261.844"/>
<polygon fill="midnightblue" stroke="midnightblue" points="681.075,-258.894 671.41,-254.554 676.259,-263.974 681.075,-258.894"/>
</g>
<!-- Node33 -->
<g id="node33" class="node"><title>Node33</title>
<g id="a_node33"><a xlink:href="player__state_8hpp.html" target="_top" xlink:title="Declaration of the PlayerState class, and associated types. ">
<polygon fill="white" stroke="black" points="1194.5,-291.5 1194.5,-310.5 1289.5,-310.5 1289.5,-291.5 1194.5,-291.5"/>
<text text-anchor="middle" x="1242" y="-298.5" font-family="Helvetica,sans-Serif" font-size="10.00">player_state.hpp</text>
</a>
</g>
</g>
<!-- Node1&#45;&gt;Node33 -->
<g id="edge68" class="edge"><title>Node1&#45;&gt;Node33</title>
<path fill="none" stroke="midnightblue" d="M1162.26,-347.324C1177.22,-338.822 1200.25,-325.729 1217.73,-315.797"/>
<polygon fill="midnightblue" stroke="midnightblue" points="1219.81,-318.639 1226.77,-310.655 1216.35,-312.553 1219.81,-318.639"/>
</g>
<!-- Node8&#45;&gt;Node2 -->
<g id="edge8" class="edge"><title>Node8&#45;&gt;Node2</title>
<path fill="none" stroke="midnightblue" d="M324.778,-185.941C261.735,-182.152 157.757,-171.625 134,-143 109.306,-113.246 108.067,-84.681 134,-56 161.54,-25.5411 446.825,-14.7185 546.138,-11.8575"/>
<polygon fill="midnightblue" stroke="midnightblue" points="546.334,-15.3535 556.232,-11.5759 546.138,-8.35618 546.334,-15.3535"/>
</g>
<!-- Node8&#45;&gt;Node5 -->
<g id="edge9" class="edge"><title>Node8&#45;&gt;Node5</title>
<path fill="none" stroke="midnightblue" d="M324.893,-180.895C269.23,-172.646 175.847,-158.214 96,-143 94.7517,-142.762 93.4832,-142.515 92.2031,-142.261"/>
<polygon fill="midnightblue" stroke="midnightblue" points="92.805,-138.811 82.3036,-140.215 91.3884,-145.666 92.805,-138.811"/>
</g>
<!-- Node8&#45;&gt;Node6 -->
<g id="edge10" class="edge"><title>Node8&#45;&gt;Node6</title>
<path fill="none" stroke="midnightblue" d="M324.565,-182.209C277.818,-175.596 212.57,-163.024 197,-143 167.872,-105.54 204.726,-79.9921 252,-56 321.797,-20.5768 884.157,-12.7011 1025.07,-11.2769"/>
<polygon fill="midnightblue" stroke="midnightblue" points="1025.24,-14.7755 1035.21,-11.1784 1025.18,-7.77582 1025.24,-14.7755"/>
</g>
<!-- Node8&#45;&gt;Node7 -->
<g id="edge11" class="edge"><title>Node8&#45;&gt;Node7</title>
<path fill="none" stroke="midnightblue" d="M423.065,-184.714C546.898,-176.361 869.848,-154.185 977,-143 989.065,-141.741 1002.31,-140.031 1013.81,-138.44"/>
<polygon fill="midnightblue" stroke="midnightblue" points="1014.39,-141.893 1023.81,-137.029 1013.42,-134.962 1014.39,-141.893"/>
</g>
<!-- Node9 -->
<g id="node9" class="node"><title>Node9</title>
<polygon fill="white" stroke="#bfbfbf" points="261,-62 261,-81 307,-81 307,-62 261,-62"/>
<text text-anchor="middle" x="284" y="-69" font-family="Helvetica,sans-Serif" font-size="10.00">vector</text>
</g>
<!-- Node8&#45;&gt;Node9 -->
<g id="edge12" class="edge"><title>Node8&#45;&gt;Node9</title>
<path fill="none" stroke="midnightblue" d="M324.666,-181.561C280.181,-174.622 219.571,-161.958 205,-143 187.086,-119.691 222.383,-97.9921 251.4,-84.9875"/>
<polygon fill="midnightblue" stroke="midnightblue" points="253.095,-88.0696 260.914,-80.9209 250.343,-81.633 253.095,-88.0696"/>
</g>
<!-- Node10 -->
<g id="node10" class="node"><title>Node10</title>
<polygon fill="white" stroke="#bfbfbf" points="414.5,-123.5 414.5,-142.5 483.5,-142.5 483.5,-123.5 414.5,-123.5"/>
<text text-anchor="middle" x="449" y="-130.5" font-family="Helvetica,sans-Serif" font-size="10.00">portaudio.h</text>
</g>
<!-- Node8&#45;&gt;Node10 -->
<g id="edge13" class="edge"><title>Node8&#45;&gt;Node10</title>
<path fill="none" stroke="midnightblue" d="M386.05,-179.324C397.463,-171.107 414.831,-158.602 428.435,-148.807"/>
<polygon fill="midnightblue" stroke="midnightblue" points="430.66,-151.517 436.731,-142.834 426.57,-145.837 430.66,-151.517"/>
</g>
<!-- Node11 -->
<g id="node11" class="node"><title>Node11</title>
<polygon fill="white" stroke="#bfbfbf" points="214,-123.5 214,-142.5 396,-142.5 396,-123.5 214,-123.5"/>
<text text-anchor="middle" x="305" y="-130.5" font-family="Helvetica,sans-Serif" font-size="10.00">portaudiocpp/CallbackInterface.hxx</text>
</g>
<!-- Node8&#45;&gt;Node11 -->
<g id="edge14" class="edge"><title>Node8&#45;&gt;Node11</title>
<path fill="none" stroke="midnightblue" d="M362.914,-179.324C352.514,-171.185 336.739,-158.839 324.278,-149.087"/>
<polygon fill="midnightblue" stroke="midnightblue" points="326.32,-146.241 316.288,-142.834 322.006,-151.753 326.32,-146.241"/>
</g>
<!-- Node12 -->
<g id="node12" class="node"><title>Node12</title>
<g id="a_node12"><a xlink:href="audio__source_8hpp.html" target="_top" xlink:title="Declaration of the AudioSource class. ">
<polygon fill="white" stroke="black" points="540,-123.5 540,-142.5 640,-142.5 640,-123.5 540,-123.5"/>
<text text-anchor="middle" x="590" y="-130.5" font-family="Helvetica,sans-Serif" font-size="10.00">audio_source.hpp</text>
</a>
</g>
</g>
<!-- Node8&#45;&gt;Node12 -->
<g id="edge15" class="edge"><title>Node8&#45;&gt;Node12</title>
<path fill="none" stroke="midnightblue" d="M408.226,-179.444C445.512,-170.122 505.269,-155.183 546.011,-144.997"/>
<polygon fill="midnightblue" stroke="midnightblue" points="547.082,-148.337 555.934,-142.516 545.384,-141.546 547.082,-148.337"/>
</g>
<!-- Node12&#45;&gt;Node2 -->
<g id="edge17" class="edge"><title>Node12&#45;&gt;Node2</title>
<path fill="none" stroke="midnightblue" d="M539.84,-124.096C472.33,-113.22 359.933,-94.1707 354,-87 300.932,-22.8571 470.717,-12.5907 545.966,-11.137"/>
<polygon fill="midnightblue" stroke="midnightblue" points="546.398,-14.631 556.344,-10.9811 546.293,-7.63179 546.398,-14.631"/>
</g>
<!-- Node12&#45;&gt;Node6 -->
<g id="edge18" class="edge"><title>Node12&#45;&gt;Node6</title>
<path fill="none" stroke="midnightblue" d="M560.119,-123.387C542.46,-116.587 521.549,-105.15 511,-87 504.076,-75.0882 501.666,-66.1346 511,-56 545.92,-18.0835 913.221,-12.1142 1024.94,-11.1751"/>
<polygon fill="midnightblue" stroke="midnightblue" points="1025.26,-14.6729 1035.23,-11.0971 1025.2,-7.67315 1025.26,-14.6729"/>
</g>
<!-- Node12&#45;&gt;Node9 -->
<g id="edge19" class="edge"><title>Node12&#45;&gt;Node9</title>
<path fill="none" stroke="midnightblue" d="M539.939,-124.896C473.884,-115.304 361.277,-98.1307 321,-87 318.409,-86.2839 315.749,-85.4497 313.101,-84.5502"/>
<polygon fill="midnightblue" stroke="midnightblue" points="314.306,-81.2642 303.713,-81.0994 311.891,-87.8345 314.306,-81.2642"/>
</g>
<!-- Node13 -->
<g id="node13" class="node"><title>Node13</title>
<polygon fill="white" stroke="#bfbfbf" points="422.5,-62 422.5,-81 463.5,-81 463.5,-62 422.5,-62"/>
<text text-anchor="middle" x="443" y="-69" font-family="Helvetica,sans-Serif" font-size="10.00">array</text>
</g>
<!-- Node12&#45;&gt;Node13 -->
<g id="edge16" class="edge"><title>Node12&#45;&gt;Node13</title>
<path fill="none" stroke="midnightblue" d="M568.501,-123.441C545.933,-114.439 509.432,-99.8248 478,-87 476.409,-86.3509 474.778,-85.6832 473.132,-85.0076"/>
<polygon fill="midnightblue" stroke="midnightblue" points="474.292,-81.6999 463.713,-81.1241 471.624,-88.1715 474.292,-81.6999"/>
</g>
<!-- Node14 -->
<g id="node14" class="node"><title>Node14</title>
<polygon fill="white" stroke="#bfbfbf" points="363.5,-62 363.5,-81 404.5,-81 404.5,-62 363.5,-62"/>
<text text-anchor="middle" x="384" y="-69" font-family="Helvetica,sans-Serif" font-size="10.00">sox.h</text>
</g>
<!-- Node12&#45;&gt;Node14 -->
<g id="edge20" class="edge"><title>Node12&#45;&gt;Node14</title>
<path fill="none" stroke="midnightblue" d="M545.555,-123.47C509.265,-115.851 456.979,-103.368 413,-87 411.615,-86.4846 410.209,-85.9224 408.802,-85.3285"/>
<polygon fill="midnightblue" stroke="midnightblue" points="410.226,-82.1311 399.681,-81.1075 407.286,-88.4838 410.226,-82.1311"/>
</g>
<!-- Node15 -->
<g id="node15" class="node"><title>Node15</title>
<g id="a_node15"><a xlink:href="errors_8hpp.html" target="_top" xlink:title="Declarations of the playd Error exception set. ">
<polygon fill="white" stroke="black" points="1252.5,-62 1252.5,-81 1325.5,-81 1325.5,-62 1252.5,-62"/>
<text text-anchor="middle" x="1289" y="-69" font-family="Helvetica,sans-Serif" font-size="10.00">../errors.hpp</text>
</a>
</g>
</g>
<!-- Node12&#45;&gt;Node15 -->
<g id="edge21" class="edge"><title>Node12&#45;&gt;Node15</title>
<path fill="none" stroke="midnightblue" d="M640.048,-128.629C791.59,-118.413 1235.59,-88.4019 1243,-87 1247.17,-86.2116 1251.48,-85.1679 1255.73,-84.0008"/>
<polygon fill="midnightblue" stroke="midnightblue" points="1256.82,-87.3283 1265.4,-81.1156 1254.82,-80.6204 1256.82,-87.3283"/>
</g>
<!-- Node18 -->
<g id="node18" class="node"><title>Node18</title>
<g id="a_node18"><a xlink:href="sample__formats_8hpp.html" target="_top" xlink:title="The SampleFormat enumeration. ">
<polygon fill="white" stroke="black" points="520.5,-62 520.5,-81 639.5,-81 639.5,-62 520.5,-62"/>
<text text-anchor="middle" x="580" y="-69" font-family="Helvetica,sans-Serif" font-size="10.00">../sample_formats.hpp</text>
</a>
</g>
</g>
<!-- Node12&#45;&gt;Node18 -->
<g id="edge24" class="edge"><title>Node12&#45;&gt;Node18</title>
<path fill="none" stroke="midnightblue" d="M588.567,-123.475C587.156,-115.08 584.955,-101.981 583.137,-91.1631"/>
<polygon fill="midnightblue" stroke="midnightblue" points="586.539,-90.2906 581.43,-81.0091 579.636,-91.4509 586.539,-90.2906"/>
</g>
<!-- Node16 -->
<g id="node16" class="node"><title>Node16</title>
<polygon fill="white" stroke="#bfbfbf" points="1260.5,-0.5 1260.5,-19.5 1317.5,-19.5 1317.5,-0.5 1260.5,-0.5"/>
<text text-anchor="middle" x="1289" y="-7.5" font-family="Helvetica,sans-Serif" font-size="10.00">iostream</text>
</g>
<!-- Node15&#45;&gt;Node16 -->
<g id="edge22" class="edge"><title>Node15&#45;&gt;Node16</title>
<path fill="none" stroke="midnightblue" d="M1289,-61.9751C1289,-53.5803 1289,-40.4806 1289,-29.6631"/>
<polygon fill="midnightblue" stroke="midnightblue" points="1292.5,-29.5091 1289,-19.5091 1285.5,-29.5091 1292.5,-29.5091"/>
</g>
<!-- Node17 -->
<g id="node17" class="node"><title>Node17</title>
<polygon fill="white" stroke="#bfbfbf" points="1355,-0.5 1355,-19.5 1409,-19.5 1409,-0.5 1355,-0.5"/>
<text text-anchor="middle" x="1382" y="-7.5" font-family="Helvetica,sans-Serif" font-size="10.00">sstream</text>
</g>
<!-- Node15&#45;&gt;Node17 -->
<g id="edge23" class="edge"><title>Node15&#45;&gt;Node17</title>
<path fill="none" stroke="midnightblue" d="M1302.32,-61.9751C1317.38,-52.3431 1342.12,-36.5175 1360.04,-25.0517"/>
<polygon fill="midnightblue" stroke="midnightblue" points="1362.16,-27.8466 1368.7,-19.5091 1358.39,-21.9501 1362.16,-27.8466"/>
</g>
<!-- Node18&#45;&gt;Node2 -->
<g id="edge25" class="edge"><title>Node18&#45;&gt;Node2</title>
<path fill="none" stroke="midnightblue" d="M580,-61.9751C580,-53.5803 580,-40.4806 580,-29.6631"/>
<polygon fill="midnightblue" stroke="midnightblue" points="583.5,-29.5091 580,-19.5091 576.5,-29.5091 583.5,-29.5091"/>
</g>
<!-- Node19&#45;&gt;Node4 -->
<g id="edge27" class="edge"><title>Node19&#45;&gt;Node4</title>
<path fill="none" stroke="midnightblue" d="M1225.21,-179.324C1236.78,-171.107 1254.38,-158.602 1268.16,-148.807"/>
<polygon fill="midnightblue" stroke="midnightblue" points="1270.44,-151.479 1276.57,-142.834 1266.39,-145.773 1270.44,-151.479"/>
</g>
<!-- Node19&#45;&gt;Node6 -->
<g id="edge29" class="edge"><title>Node19&#45;&gt;Node6</title>
<path fill="none" stroke="midnightblue" d="M1197.91,-179.48C1184.18,-171.268 1163.86,-157.918 1149,-143 1113.17,-107.021 1081.84,-55.5833 1066.68,-28.7806"/>
<polygon fill="midnightblue" stroke="midnightblue" points="1069.61,-26.8384 1061.69,-19.7981 1063.49,-30.2391 1069.61,-26.8384"/>
</g>
<!-- Node19&#45;&gt;Node15 -->
<g id="edge30" class="edge"><title>Node19&#45;&gt;Node15</title>
<path fill="none" stroke="midnightblue" d="M1218.71,-179.319C1231.2,-160.339 1261.13,-114.848 1277.62,-89.7882"/>
<polygon fill="midnightblue" stroke="midnightblue" points="1280.65,-91.5597 1283.22,-81.282 1274.8,-87.7119 1280.65,-91.5597"/>
</g>
<!-- Node20 -->
<g id="node20" class="node"><title>Node20</title>
<polygon fill="white" stroke="#bfbfbf" points="1158.5,-123.5 1158.5,-142.5 1213.5,-142.5 1213.5,-123.5 1158.5,-123.5"/>
<text text-anchor="middle" x="1186" y="-130.5" font-family="Helvetica,sans-Serif" font-size="10.00">ostream</text>
</g>
<!-- Node19&#45;&gt;Node20 -->
<g id="edge28" class="edge"><title>Node19&#45;&gt;Node20</title>
<path fill="none" stroke="midnightblue" d="M1208.54,-179.083C1204.85,-171.691 1199.48,-160.953 1194.91,-151.811"/>
<polygon fill="midnightblue" stroke="midnightblue" points="1197.98,-150.13 1190.38,-142.751 1191.72,-153.261 1197.98,-150.13"/>
</g>
<!-- Node21&#45;&gt;Node2 -->
<g id="edge32" class="edge"><title>Node21&#45;&gt;Node2</title>
<path fill="none" stroke="midnightblue" d="M1409.09,-123.389C1397.16,-106.811 1368.36,-70.7946 1334,-56 1267.38,-27.3133 752.682,-14.599 614.21,-11.6764"/>
<polygon fill="midnightblue" stroke="midnightblue" points="613.875,-8.16877 603.804,-11.4604 613.729,-15.1673 613.875,-8.16877"/>
</g>
<!-- Node21&#45;&gt;Node15 -->
<g id="edge34" class="edge"><title>Node21&#45;&gt;Node15</title>
<path fill="none" stroke="midnightblue" d="M1396.95,-123.475C1375.8,-113.49 1340.56,-96.8476 1316.12,-85.3075"/>
<polygon fill="midnightblue" stroke="midnightblue" points="1317.56,-82.1143 1307.02,-81.0091 1314.57,-88.4441 1317.56,-82.1143"/>
</g>
<!-- Node21&#45;&gt;Node17 -->
<g id="edge33" class="edge"><title>Node21&#45;&gt;Node17</title>
<path fill="none" stroke="midnightblue" d="M1412.63,-123.298C1407.3,-103.763 1394.29,-56.0646 1387.06,-29.5471"/>
<polygon fill="midnightblue" stroke="midnightblue" points="1390.36,-28.3499 1384.35,-19.6232 1383.61,-30.1917 1390.36,-28.3499"/>
</g>
<!-- Node22 -->
<g id="node22" class="node"><title>Node22</title>
<g id="a_node22"><a xlink:href="messages_8h.html" target="_top" xlink:title="Constant human&#45;readable messages used within playd. ">
<polygon fill="white" stroke="black" points="1161.5,-62 1161.5,-81 1234.5,-81 1234.5,-62 1161.5,-62"/>
<text text-anchor="middle" x="1198" y="-69" font-family="Helvetica,sans-Serif" font-size="10.00">messages.h</text>
</a>
</g>
</g>
<!-- Node21&#45;&gt;Node22 -->
<g id="edge35" class="edge"><title>Node21&#45;&gt;Node22</title>
<path fill="none" stroke="midnightblue" d="M1379.92,-123.433C1345.05,-114.773 1290.11,-100.742 1243,-87 1239.85,-86.0807 1236.58,-85.0946 1233.32,-84.0851"/>
<polygon fill="midnightblue" stroke="midnightblue" points="1234.21,-80.6986 1223.62,-81.0298 1232.11,-87.3747 1234.21,-80.6986"/>
</g>
<!-- Node22&#45;&gt;Node6 -->
<g id="edge36" class="edge"><title>Node22&#45;&gt;Node6</title>
<path fill="none" stroke="midnightblue" d="M1177.8,-61.9751C1153.93,-51.9013 1114,-35.0525 1086.63,-23.5023"/>
<polygon fill="midnightblue" stroke="midnightblue" points="1087.74,-20.1724 1077.16,-19.5091 1085.02,-26.6217 1087.74,-20.1724"/>
</g>
<!-- Node23&#45;&gt;Node5 -->
<g id="edge38" class="edge"><title>Node23&#45;&gt;Node5</title>
<path fill="none" stroke="midnightblue" d="M760.79,-291.66C675.516,-275.068 479.648,-236.297 316,-199 235.922,-180.75 142.679,-156.895 92.1597,-143.752"/>
<polygon fill="midnightblue" stroke="midnightblue" points="92.9045,-140.329 82.3449,-141.193 91.1386,-147.102 92.9045,-140.329"/>
</g>
<!-- Node23&#45;&gt;Node19 -->
<g id="edge62" class="edge"><title>Node23&#45;&gt;Node19</title>
<path fill="none" stroke="midnightblue" d="M835.753,-291.46C908.994,-271.762 1089.73,-223.154 1171.56,-201.146"/>
<polygon fill="midnightblue" stroke="midnightblue" points="1172.52,-204.512 1181.27,-198.535 1170.7,-197.752 1172.52,-204.512"/>
</g>
<!-- Node24 -->
<g id="node24" class="node"><title>Node24</title>
<g id="a_node24"><a xlink:href="audio__system_8hpp.html" target="_top" xlink:title="Declaration of the AudioSystem class. ">
<polygon fill="white" stroke="black" points="735.5,-235.5 735.5,-254.5 872.5,-254.5 872.5,-235.5 735.5,-235.5"/>
<text text-anchor="middle" x="804" y="-242.5" font-family="Helvetica,sans-Serif" font-size="10.00">../audio/audio_system.hpp</text>
</a>
</g>
</g>
<!-- Node23&#45;&gt;Node24 -->
<g id="edge39" class="edge"><title>Node23&#45;&gt;Node24</title>
<path fill="none" stroke="midnightblue" d="M804,-291.083C804,-284.006 804,-273.861 804,-264.986"/>
<polygon fill="midnightblue" stroke="midnightblue" points="807.5,-264.751 804,-254.751 800.5,-264.751 807.5,-264.751"/>
</g>
<!-- Node23&#45;&gt;Node31 -->
<g id="edge63" class="edge"><title>Node23&#45;&gt;Node31</title>
<path fill="none" stroke="midnightblue" d="M781.658,-291.444C758.247,-282.478 721.264,-268.314 694.81,-258.183"/>
<polygon fill="midnightblue" stroke="midnightblue" points="695.828,-254.824 685.237,-254.516 693.324,-261.361 695.828,-254.824"/>
</g>
<!-- Node24&#45;&gt;Node6 -->
<g id="edge40" class="edge"><title>Node24&#45;&gt;Node6</title>
<path fill="none" stroke="midnightblue" d="M872.634,-239.09C936.377,-233.219 1025.34,-221.263 1052,-199 1101.71,-157.489 1077.39,-67.442 1063.92,-28.9918"/>
<polygon fill="midnightblue" stroke="midnightblue" points="1067.2,-27.7835 1060.47,-19.5983 1060.63,-30.192 1067.2,-27.7835"/>
</g>
<!-- Node24&#45;&gt;Node7 -->
<g id="edge41" class="edge"><title>Node24&#45;&gt;Node7</title>
<path fill="none" stroke="midnightblue" d="M872.774,-238.845C931.587,-232.974 1010.1,-221.174 1032,-199 1043.84,-187.018 1046.04,-167.411 1045.77,-152.859"/>
<polygon fill="midnightblue" stroke="midnightblue" points="1049.25,-152.292 1045.16,-142.516 1042.26,-152.705 1049.25,-152.292"/>
</g>
<!-- Node24&#45;&gt;Node8 -->
<g id="edge61" class="edge"><title>Node24&#45;&gt;Node8</title>
<path fill="none" stroke="midnightblue" d="M735.865,-235.444C652.463,-224.97 512.58,-207.403 433.381,-197.457"/>
<polygon fill="midnightblue" stroke="midnightblue" points="433.449,-193.938 423.091,-196.165 432.577,-200.884 433.449,-193.938"/>
</g>
<!-- Node24&#45;&gt;Node12 -->
<g id="edge60" class="edge"><title>Node24&#45;&gt;Node12</title>
<path fill="none" stroke="midnightblue" d="M737.306,-235.444C706.094,-229.072 669.59,-218.037 641,-199 622.783,-186.871 608.165,-166.11 599.326,-151.315"/>
<polygon fill="midnightblue" stroke="midnightblue" points="602.359,-149.568 594.373,-142.605 596.274,-153.028 602.359,-149.568"/>
</g>
<!-- Node24&#45;&gt;Node18 -->
<g id="edge44" class="edge"><title>Node24&#45;&gt;Node18</title>
<path fill="none" stroke="midnightblue" d="M803.923,-235.45C804.285,-221.535 807.12,-194.034 823,-179 875.888,-128.931 1025.14,-177.651 977,-123 971.635,-116.909 762.464,-92.7912 649.96,-80.2176"/>
<polygon fill="midnightblue" stroke="midnightblue" points="650.041,-76.705 639.715,-79.0746 649.265,-83.6619 650.041,-76.705"/>
</g>
<!-- Node25 -->
<g id="node25" class="node"><title>Node25</title>
<polygon fill="white" stroke="#bfbfbf" points="832.5,-179.5 832.5,-198.5 1023.5,-198.5 1023.5,-179.5 832.5,-179.5"/>
<text text-anchor="middle" x="928" y="-186.5" font-family="Helvetica,sans-Serif" font-size="10.00">portaudiocpp/SampleDataFormat.hxx</text>
</g>
<!-- Node24&#45;&gt;Node25 -->
<g id="edge42" class="edge"><title>Node24&#45;&gt;Node25</title>
<path fill="none" stroke="midnightblue" d="M823.648,-235.444C843.965,-226.596 875.903,-212.687 899.098,-202.586"/>
<polygon fill="midnightblue" stroke="midnightblue" points="900.673,-205.718 908.444,-198.516 897.878,-199.3 900.673,-205.718"/>
</g>
<!-- Node26 -->
<g id="node26" class="node"><title>Node26</title>
<polygon fill="white" stroke="#bfbfbf" points="834,-123.5 834,-142.5 968,-142.5 968,-123.5 834,-123.5"/>
<text text-anchor="middle" x="901" y="-130.5" font-family="Helvetica,sans-Serif" font-size="10.00">portaudiocpp/Stream.hxx</text>
</g>
<!-- Node24&#45;&gt;Node26 -->
<g id="edge43" class="edge"><title>Node24&#45;&gt;Node26</title>
<path fill="none" stroke="midnightblue" d="M798.225,-235.214C790.29,-221.927 778.262,-196.424 790,-179 800.982,-162.698 818.986,-152.3 837.331,-145.668"/>
<polygon fill="midnightblue" stroke="midnightblue" points="838.503,-148.967 846.92,-142.532 836.327,-142.314 838.503,-148.967"/>
</g>
<!-- Node27 -->
<g id="node27" class="node"><title>Node27</title>
<g id="a_node27"><a xlink:href="audio__sink_8hpp.html" target="_top" xlink:title="Declaration of the AudioSink class. ">
<polygon fill="white" stroke="black" points="650.5,-179.5 650.5,-198.5 737.5,-198.5 737.5,-179.5 650.5,-179.5"/>
<text text-anchor="middle" x="694" y="-186.5" font-family="Helvetica,sans-Serif" font-size="10.00">audio_sink.hpp</text>
</a>
</g>
</g>
<!-- Node24&#45;&gt;Node27 -->
<g id="edge45" class="edge"><title>Node24&#45;&gt;Node27</title>
<path fill="none" stroke="midnightblue" d="M786.327,-235.324C768.606,-226.625 741.097,-213.12 720.712,-203.113"/>
<polygon fill="midnightblue" stroke="midnightblue" points="722.149,-199.919 711.63,-198.655 719.064,-206.203 722.149,-199.919"/>
</g>
<!-- Node27&#45;&gt;Node2 -->
<g id="edge46" class="edge"><title>Node27&#45;&gt;Node2</title>
<path fill="none" stroke="midnightblue" d="M692.932,-179.378C689.771,-156.891 678.681,-95.4706 648,-56 637.623,-42.6506 622.127,-31.9623 608.548,-24.3579"/>
<polygon fill="midnightblue" stroke="midnightblue" points="610.015,-21.1746 599.539,-19.5912 606.741,-27.3618 610.015,-21.1746"/>
</g>
<!-- Node27&#45;&gt;Node5 -->
<g id="edge47" class="edge"><title>Node27&#45;&gt;Node5</title>
<path fill="none" stroke="midnightblue" d="M650.079,-184.288C530.982,-174.224 203.406,-146.541 92.3714,-137.158"/>
<polygon fill="midnightblue" stroke="midnightblue" points="92.5757,-133.663 82.3164,-136.308 91.9861,-140.638 92.5757,-133.663"/>
</g>
<!-- Node27&#45;&gt;Node6 -->
<g id="edge48" class="edge"><title>Node27&#45;&gt;Node6</title>
<path fill="none" stroke="midnightblue" d="M693.038,-179.291C690.944,-155.486 688.757,-88.9223 725,-56 768.601,-16.3937 951.025,-11.2903 1025.32,-10.886"/>
<polygon fill="midnightblue" stroke="midnightblue" points="1025.47,-14.3857 1035.46,-10.8569 1025.45,-7.3857 1025.47,-14.3857"/>
</g>
<!-- Node27&#45;&gt;Node7 -->
<g id="edge49" class="edge"><title>Node27&#45;&gt;Node7</title>
<path fill="none" stroke="midnightblue" d="M737.62,-181.27C809.683,-170.152 951.789,-148.227 1013.83,-138.655"/>
<polygon fill="midnightblue" stroke="midnightblue" points="1014.42,-142.106 1023.77,-137.122 1013.35,-135.188 1014.42,-142.106"/>
</g>
<!-- Node27&#45;&gt;Node9 -->
<g id="edge50" class="edge"><title>Node27&#45;&gt;Node9</title>
<path fill="none" stroke="midnightblue" d="M654.408,-179.468C620.94,-171.691 572.03,-158.99 531,-143 512.85,-135.927 510.277,-129.738 492,-123 426.861,-98.9857 407.385,-103.702 340,-87 332.561,-85.1562 324.581,-83.1232 317.043,-81.1776"/>
<polygon fill="midnightblue" stroke="midnightblue" points="317.69,-77.7296 307.131,-78.6047 315.931,-84.505 317.69,-77.7296"/>
</g>
<!-- Node27&#45;&gt;Node10 -->
<g id="edge51" class="edge"><title>Node27&#45;&gt;Node10</title>
<path fill="none" stroke="midnightblue" d="M655.179,-179.444C611.275,-169.767 539.9,-154.035 493.705,-143.853"/>
<polygon fill="midnightblue" stroke="midnightblue" points="494.197,-140.378 483.678,-141.643 492.69,-147.214 494.197,-140.378"/>
</g>
<!-- Node27&#45;&gt;Node11 -->
<g id="edge52" class="edge"><title>Node27&#45;&gt;Node11</title>
<path fill="none" stroke="midnightblue" d="M650.133,-181.91C583.536,-172.666 456.232,-154.994 376.239,-143.889"/>
<polygon fill="midnightblue" stroke="midnightblue" points="376.63,-140.41 366.243,-142.502 375.667,-147.343 376.63,-140.41"/>
</g>
<!-- Node27&#45;&gt;Node12 -->
<g id="edge54" class="edge"><title>Node27&#45;&gt;Node12</title>
<path fill="none" stroke="midnightblue" d="M677.291,-179.324C660.688,-170.703 634.998,-157.364 615.78,-147.386"/>
<polygon fill="midnightblue" stroke="midnightblue" points="617.156,-144.156 606.668,-142.655 613.93,-150.369 617.156,-144.156"/>
</g>
<!-- Node27&#45;&gt;Node26 -->
<g id="edge53" class="edge"><title>Node27&#45;&gt;Node26</title>
<path fill="none" stroke="midnightblue" d="M726.8,-179.444C762.38,-170.162 819.314,-155.309 858.347,-145.127"/>
<polygon fill="midnightblue" stroke="midnightblue" points="859.561,-148.427 868.354,-142.516 857.794,-141.654 859.561,-148.427"/>
</g>
<!-- Node28 -->
<g id="node28" class="node"><title>Node28</title>
<g id="a_node28"><a xlink:href="ringbuffer_8hpp.html" target="_top" xlink:title="The RingBuffer class template. ">
<polygon fill="white" stroke="black" points="734.5,-123.5 734.5,-142.5 815.5,-142.5 815.5,-123.5 734.5,-123.5"/>
<text text-anchor="middle" x="775" y="-130.5" font-family="Helvetica,sans-Serif" font-size="10.00">ringbuffer.hpp</text>
</a>
</g>
</g>
<!-- Node27&#45;&gt;Node28 -->
<g id="edge55" class="edge"><title>Node27&#45;&gt;Node28</title>
<path fill="none" stroke="midnightblue" d="M707.014,-179.324C719.532,-170.979 738.682,-158.212 753.471,-148.352"/>
<polygon fill="midnightblue" stroke="midnightblue" points="755.639,-151.114 762.018,-142.655 751.756,-145.289 755.639,-151.114"/>
</g>
<!-- Node28&#45;&gt;Node15 -->
<g id="edge58" class="edge"><title>Node28&#45;&gt;Node15</title>
<path fill="none" stroke="midnightblue" d="M815.61,-124.367C818.782,-123.87 821.94,-123.406 825,-123 1009.84,-98.4575 1060.09,-123.247 1243,-87 1247.16,-86.176 1251.47,-85.1108 1255.71,-83.9321"/>
<polygon fill="midnightblue" stroke="midnightblue" points="1256.81,-87.258 1265.38,-81.0358 1254.8,-80.5523 1256.81,-87.258"/>
</g>
<!-- Node28&#45;&gt;Node22 -->
<g id="edge59" class="edge"><title>Node28&#45;&gt;Node22</title>
<path fill="none" stroke="midnightblue" d="M815.634,-124.533C818.8,-123.998 821.951,-123.481 825,-123 941.965,-104.564 1080.22,-86.9264 1151.03,-78.1931"/>
<polygon fill="midnightblue" stroke="midnightblue" points="1151.89,-81.6136 1161.39,-76.9196 1151.04,-74.6659 1151.89,-81.6136"/>
</g>
<!-- Node29 -->
<g id="node29" class="node"><title>Node29</title>
<polygon fill="white" stroke="#bfbfbf" points="873.5,-62 873.5,-81 924.5,-81 924.5,-62 873.5,-62"/>
<text text-anchor="middle" x="899" y="-69" font-family="Helvetica,sans-Serif" font-size="10.00">cassert</text>
</g>
<!-- Node28&#45;&gt;Node29 -->
<g id="edge56" class="edge"><title>Node28&#45;&gt;Node29</title>
<path fill="none" stroke="midnightblue" d="M792.766,-123.475C813.484,-113.534 847.952,-96.9947 871.989,-85.461"/>
<polygon fill="midnightblue" stroke="midnightblue" points="873.765,-88.4908 881.267,-81.0091 870.737,-82.1797 873.765,-88.4908"/>
</g>
<!-- Node30 -->
<g id="node30" class="node"><title>Node30</title>
<polygon fill="white" stroke="#bfbfbf" points="734.5,-56.5 734.5,-86.5 855.5,-86.5 855.5,-56.5 734.5,-56.5"/>
<text text-anchor="start" x="742.5" y="-74.5" font-family="Helvetica,sans-Serif" font-size="10.00">../contrib/pa_ringbuffer</text>
<text text-anchor="middle" x="795" y="-63.5" font-family="Helvetica,sans-Serif" font-size="10.00">/pa_ringbuffer.h</text>
</g>
<!-- Node28&#45;&gt;Node30 -->
<g id="edge57" class="edge"><title>Node28&#45;&gt;Node30</title>
<path fill="none" stroke="midnightblue" d="M777.866,-123.475C780.27,-116.32 783.824,-105.748 787.073,-96.0841"/>
<polygon fill="midnightblue" stroke="midnightblue" points="790.418,-97.117 790.286,-86.523 783.783,-94.8866 790.418,-97.117"/>
</g>
<!-- Node31&#45;&gt;Node12 -->
<g id="edge65" class="edge"><title>Node31&#45;&gt;Node12</title>
<path fill="none" stroke="midnightblue" d="M647.966,-235.376C635.48,-227.459 618.172,-214.607 608,-199 598.909,-185.052 594.364,-166.546 592.119,-152.848"/>
<polygon fill="midnightblue" stroke="midnightblue" points="595.551,-152.11 590.726,-142.678 588.616,-153.061 595.551,-152.11"/>
</g>
<!-- Node31&#45;&gt;Node19 -->
<g id="edge66" class="edge"><title>Node31&#45;&gt;Node19</title>
<path fill="none" stroke="midnightblue" d="M717.614,-236.028C720.448,-235.668 723.257,-235.322 726,-235 875.557,-217.419 1051.63,-202.6 1145.69,-195.154"/>
<polygon fill="midnightblue" stroke="midnightblue" points="1146.23,-198.623 1155.92,-194.348 1145.68,-191.644 1146.23,-198.623"/>
</g>
<!-- Node32 -->
<g id="node32" class="node"><title>Node32</title>
<polygon fill="white" stroke="#bfbfbf" points="524.5,-179.5 524.5,-198.5 555.5,-198.5 555.5,-179.5 524.5,-179.5"/>
<text text-anchor="middle" x="540" y="-186.5" font-family="Helvetica,sans-Serif" font-size="10.00">set</text>
</g>
<!-- Node31&#45;&gt;Node32 -->
<g id="edge64" class="edge"><title>Node31&#45;&gt;Node32</title>
<path fill="none" stroke="midnightblue" d="M643.51,-235.444C622.172,-226.076 587.91,-211.034 564.703,-200.845"/>
<polygon fill="midnightblue" stroke="midnightblue" points="566.067,-197.622 555.504,-196.807 563.254,-204.031 566.067,-197.622"/>
</g>
<!-- Node33&#45;&gt;Node2 -->
<g id="edge69" class="edge"><title>Node33&#45;&gt;Node2</title>
<path fill="none" stroke="midnightblue" d="M1243.79,-291.343C1246.58,-278.651 1252.53,-254.395 1261,-235 1283.19,-184.176 1351.68,-165.458 1316,-123 1302.1,-106.462 954.358,-59.2278 933,-56 816.064,-38.3282 676.631,-21.9235 613.729,-14.7719"/>
<polygon fill="midnightblue" stroke="midnightblue" points="613.93,-11.2724 603.6,-13.6252 613.142,-18.228 613.93,-11.2724"/>
</g>
<!-- Node33&#45;&gt;Node3 -->
<g id="edge70" class="edge"><title>Node33&#45;&gt;Node3</title>
<path fill="none" stroke="midnightblue" d="M1252.76,-291.324C1262.77,-283.263 1277.89,-271.077 1289.93,-261.369"/>
<polygon fill="midnightblue" stroke="midnightblue" points="1292.45,-263.834 1298.04,-254.834 1288.06,-258.384 1292.45,-263.834"/>
</g>
<!-- Node33&#45;&gt;Node19 -->
<g id="edge71" class="edge"><title>Node33&#45;&gt;Node19</title>
<path fill="none" stroke="midnightblue" d="M1239.12,-291.429C1236.15,-282.416 1231.46,-267.795 1228,-255 1223.84,-239.609 1219.81,-221.974 1216.98,-208.959"/>
<polygon fill="midnightblue" stroke="midnightblue" points="1220.34,-207.931 1214.83,-198.884 1213.5,-209.394 1220.34,-207.931"/>
</g>
</g>
</svg>
