<?xml version="1.0" encoding="UTF-8" standalone="no"?>
<!DOCTYPE svg PUBLIC "-//W3C//DTD SVG 1.1//EN"
 "http://www.w3.org/Graphics/SVG/1.1/DTD/svg11.dtd">
<!-- Generated by graphviz version 2.38.0 (20140413.2041)
 -->
<!-- Title: src/player/player.hpp Pages: 1 -->
<!--zoomable 375 -->
<svg id="main" version="1.1" xmlns="http://www.w3.org/2000/svg" xmlns:xlink="http://www.w3.org/1999/xlink" xml:space="preserve" onload="init(evt)">
<style type="text/css"><![CDATA[
.edge:hover path { stroke: red; }
.edge:hover polygon { stroke: red; fill: red; }
]]></style>
<script type="text/javascript"><![CDATA[
var edges = document.getElementsByTagName('g');
if (edges && edges.length) {
  for (var i=0;i<edges.length;i++) {
    if (edges[i].id.substr(0,4)=='edge') {
      edges[i].setAttribute('class','edge');
    }
  }
}
]]></script>
        <defs>
                <circle id="rim" cx="0" cy="0" r="7"/>
                <circle id="rim2" cx="0" cy="0" r="3.5"/>
                <g id="zoomPlus">
                        <use xlink:href="#rim" fill="#404040">
                                <set attributeName="fill" to="#808080" begin="zoomplus.mouseover" end="zoomplus.mouseout"/>
                        </use>
                        <path d="M-4,0h8M0,-4v8" fill="none" stroke="white" stroke-width="1.5" pointer-events="none"/>
                </g>
                <g id="zoomMin">
                        <use xlink:href="#rim" fill="#404040">
                                <set attributeName="fill" to="#808080" begin="zoomminus.mouseover" end="zoomminus.mouseout"/>
                        </use>
                        <path d="M-4,0h8" fill="none" stroke="white" stroke-width="1.5" pointer-events="none"/>
                </g>
                <g id="dirArrow">
                        <path fill="none" stroke="white" stroke-width="1.5" d="M0,-3.0v7 M-2.5,-0.5L0,-3.0L2.5,-0.5"/>
                </g>
               <g id="resetDef">
                       <use xlink:href="#rim2" fill="#404040">
                               <set attributeName="fill" to="#808080" begin="reset.mouseover" end="reset.mouseout"/>
                       </use>
               </g>
        </defs>

<script type="text/javascript">
var viewWidth = 1926;
var viewHeight = 375;
var sectionId = 'dynsection-0';
</script>
<script xlink:href="svgpan.js"/>
<svg id="graph" class="graph">
<g id="viewport">
<title>src/player/player.hpp</title>
<polygon fill="white" stroke="none" points="-4,4 -4,-371 1921.5,-371 1921.5,4 -4,4"/>
<!-- Node1 -->
<g id="node1" class="node"><title>Node1</title>
<polygon fill="#bfbfbf" stroke="black" points="529.5,-347.5 529.5,-366.5 645.5,-366.5 645.5,-347.5 529.5,-347.5"/>
<text text-anchor="middle" x="587.5" y="-354.5" font-family="Helvetica,sans-Serif" font-size="10.00">src/player/player.hpp</text>
</g>
<!-- Node2 -->
<g id="node2" class="node"><title>Node2</title>
<polygon fill="white" stroke="#bfbfbf" points="340.5,-62 340.5,-81 390.5,-81 390.5,-62 340.5,-62"/>
<text text-anchor="middle" x="365.5" y="-69" font-family="Helvetica,sans-Serif" font-size="10.00">chrono</text>
</g>
<!-- Node1&#45;&gt;Node2 -->
<g id="edge1" class="edge"><title>Node1&#45;&gt;Node2</title>
<path fill="none" stroke="midnightblue" d="M529.482,-351.393C422.619,-341.3 205.5,-312.599 205.5,-246 205.5,-246 205.5,-246 205.5,-188 205.5,-157.902 203.861,-144.906 224.5,-123 252.214,-93.5846 298.252,-81.2725 330.146,-76.1385"/>
<polygon fill="midnightblue" stroke="midnightblue" points="330.978,-79.5547 340.374,-74.6583 329.976,-72.6269 330.978,-79.5547"/>
</g>
<!-- Node3 -->
<g id="node3" class="node"><title>Node3</title>
<polygon fill="white" stroke="#bfbfbf" points="644,-0.5 644,-19.5 691,-19.5 691,-0.5 644,-0.5"/>
<text text-anchor="middle" x="667.5" y="-7.5" font-family="Helvetica,sans-Serif" font-size="10.00">cstdint</text>
</g>
<!-- Node1&#45;&gt;Node3 -->
<g id="edge2" class="edge"><title>Node1&#45;&gt;Node3</title>
<path fill="none" stroke="midnightblue" d="M529.33,-354.228C434.032,-350.528 249.439,-339.784 191.5,-311 155.746,-293.237 129.5,-285.923 129.5,-246 129.5,-246 129.5,-246 129.5,-132 129.5,-90.564 147.6,-76.692 183.5,-56 222.339,-33.614 530.134,-17.3882 633.661,-12.5184"/>
<polygon fill="midnightblue" stroke="midnightblue" points="634.037,-16.0048 643.864,-12.0443 633.712,-9.01238 634.037,-16.0048"/>
</g>
<!-- Node4 -->
<g id="node4" class="node"><title>Node4</title>
<polygon fill="white" stroke="#bfbfbf" points="542.5,-62 542.5,-81 604.5,-81 604.5,-62 542.5,-62"/>
<text text-anchor="middle" x="573.5" y="-69" font-family="Helvetica,sans-Serif" font-size="10.00">functional</text>
</g>
<!-- Node1&#45;&gt;Node4 -->
<g id="edge3" class="edge"><title>Node1&#45;&gt;Node4</title>
<path fill="none" stroke="midnightblue" d="M601.317,-347.281C625.628,-330.744 673.5,-292.3 673.5,-246 673.5,-246 673.5,-246 673.5,-188 673.5,-157.775 671.867,-147.005 653.5,-123 640.902,-106.534 621.278,-94.0288 604.619,-85.581"/>
<polygon fill="midnightblue" stroke="midnightblue" points="605.759,-82.246 595.229,-81.0768 602.732,-88.5575 605.759,-82.246"/>
</g>
<!-- Node5 -->
<g id="node5" class="node"><title>Node5</title>
<polygon fill="white" stroke="#bfbfbf" points="568,-123.5 568,-142.5 645,-142.5 645,-123.5 568,-123.5"/>
<text text-anchor="middle" x="606.5" y="-130.5" font-family="Helvetica,sans-Serif" font-size="10.00">initializer_list</text>
</g>
<!-- Node1&#45;&gt;Node5 -->
<g id="edge4" class="edge"><title>Node1&#45;&gt;Node5</title>
<path fill="none" stroke="midnightblue" d="M588.822,-347.175C592.324,-323.345 601.824,-255.672 605.5,-199 606.506,-183.495 606.719,-165.868 606.701,-152.886"/>
<polygon fill="midnightblue" stroke="midnightblue" points="610.201,-152.821 606.64,-142.842 603.201,-152.864 610.201,-152.821"/>
</g>
<!-- Node6 -->
<g id="node6" class="node"><title>Node6</title>
<polygon fill="white" stroke="#bfbfbf" points="193,-62 193,-81 230,-81 230,-62 193,-62"/>
<text text-anchor="middle" x="211.5" y="-69" font-family="Helvetica,sans-Serif" font-size="10.00">map</text>
</g>
<!-- Node1&#45;&gt;Node6 -->
<g id="edge5" class="edge"><title>Node1&#45;&gt;Node6</title>
<path fill="none" stroke="midnightblue" d="M529.371,-352.544C444.569,-346.813 291.581,-333.668 241.5,-311 201.62,-292.949 167.5,-289.775 167.5,-246 167.5,-246 167.5,-246 167.5,-188 167.5,-151.156 187.294,-111.777 200.329,-89.8381"/>
<polygon fill="midnightblue" stroke="midnightblue" points="203.475,-91.4053 205.748,-81.057 197.518,-87.7293 203.475,-91.4053"/>
</g>
<!-- Node7 -->
<g id="node7" class="node"><title>Node7</title>
<polygon fill="white" stroke="#bfbfbf" points="1797.5,-123.5 1797.5,-142.5 1851.5,-142.5 1851.5,-123.5 1797.5,-123.5"/>
<text text-anchor="middle" x="1824.5" y="-130.5" font-family="Helvetica,sans-Serif" font-size="10.00">memory</text>
</g>
<!-- Node1&#45;&gt;Node7 -->
<g id="edge6" class="edge"><title>Node1&#45;&gt;Node7</title>
<path fill="none" stroke="midnightblue" d="M645.737,-352.345C734.931,-346.317 910.59,-332.747 1058.5,-311 1310.48,-273.952 1373.89,-262.649 1620.5,-199 1681.38,-183.286 1750.88,-159.957 1791.02,-145.939"/>
<polygon fill="midnightblue" stroke="midnightblue" points="1792.3,-149.201 1800.57,-142.586 1789.98,-142.596 1792.3,-149.201"/>
</g>
<!-- Node8 -->
<g id="node8" class="node"><title>Node8</title>
<polygon fill="white" stroke="#bfbfbf" points="1438,-0.5 1438,-19.5 1481,-19.5 1481,-0.5 1438,-0.5"/>
<text text-anchor="middle" x="1459.5" y="-7.5" font-family="Helvetica,sans-Serif" font-size="10.00">string</text>
</g>
<!-- Node1&#45;&gt;Node8 -->
<g id="edge7" class="edge"><title>Node1&#45;&gt;Node8</title>
<path fill="none" stroke="midnightblue" d="M645.504,-354.288C901.49,-346.358 1917.5,-310.801 1917.5,-246 1917.5,-246 1917.5,-246 1917.5,-132 1917.5,-92.7452 1905.5,-77.2613 1872.5,-56 1809.49,-15.3998 1576.52,-11.0635 1491.14,-10.8683"/>
<polygon fill="midnightblue" stroke="midnightblue" points="1491.02,-7.36833 1481.01,-10.8635 1491.01,-14.3683 1491.02,-7.36833"/>
</g>
<!-- Node9 -->
<g id="node9" class="node"><title>Node9</title>
<polygon fill="white" stroke="#bfbfbf" points="1739.5,-123.5 1739.5,-142.5 1779.5,-142.5 1779.5,-123.5 1739.5,-123.5"/>
<text text-anchor="middle" x="1759.5" y="-130.5" font-family="Helvetica,sans-Serif" font-size="10.00">utility</text>
</g>
<!-- Node1&#45;&gt;Node9 -->
<g id="edge8" class="edge"><title>Node1&#45;&gt;Node9</title>
<path fill="none" stroke="midnightblue" d="M645.797,-350.695C722.529,-343.395 861.511,-329.079 979.5,-311 1240.31,-271.037 1307.13,-265.363 1562.5,-199 1622.82,-183.325 1691.6,-159.144 1729.84,-145.116"/>
<polygon fill="midnightblue" stroke="midnightblue" points="1731.17,-148.359 1739.34,-141.613 1728.75,-141.791 1731.17,-148.359"/>
</g>
<!-- Node10 -->
<g id="node10" class="node"><title>Node10</title>
<g id="a_node10"><a xlink:href="audio_8hpp.html" target="_top" xlink:title="Declaration of the Audio class. ">
<polygon fill="white" stroke="black" points="989.5,-179.5 989.5,-198.5 1087.5,-198.5 1087.5,-179.5 989.5,-179.5"/>
<text text-anchor="middle" x="1038.5" y="-186.5" font-family="Helvetica,sans-Serif" font-size="10.00">../audio/audio.hpp</text>
</a>
</g>
</g>
<!-- Node1&#45;&gt;Node10 -->
<g id="edge9" class="edge"><title>Node1&#45;&gt;Node10</title>
<path fill="none" stroke="midnightblue" d="M610.798,-347.425C685.492,-319.932 919.144,-233.932 1005.76,-202.05"/>
<polygon fill="midnightblue" stroke="midnightblue" points="1007.17,-205.263 1015.34,-198.524 1004.75,-198.694 1007.17,-205.263"/>
</g>
<!-- Node21 -->
<g id="node21" class="node"><title>Node21</title>
<g id="a_node21"><a xlink:href="io__response_8hpp.html" target="_top" xlink:title="Declaration of classes pertaining to responses to the client. ">
<polygon fill="white" stroke="black" points="397.5,-123.5 397.5,-142.5 511.5,-142.5 511.5,-123.5 397.5,-123.5"/>
<text text-anchor="middle" x="454.5" y="-130.5" font-family="Helvetica,sans-Serif" font-size="10.00">../io/io_response.hpp</text>
</a>
</g>
</g>
<!-- Node1&#45;&gt;Node21 -->
<g id="edge31" class="edge"><title>Node1&#45;&gt;Node21</title>
<path fill="none" stroke="midnightblue" d="M579.092,-347.252C557.827,-324.649 501.473,-261.676 471.5,-199 464.423,-184.202 459.992,-166.048 457.434,-152.69"/>
<polygon fill="midnightblue" stroke="midnightblue" points="460.872,-152.029 455.71,-142.777 453.976,-153.229 460.872,-152.029"/>
</g>
<!-- Node23 -->
<g id="node23" class="node"><title>Node23</title>
<g id="a_node23"><a xlink:href="time__parser_8hpp.html" target="_top" xlink:title="The TimeParser template class. ">
<polygon fill="white" stroke="black" points="0,-123.5 0,-142.5 101,-142.5 101,-123.5 0,-123.5"/>
<text text-anchor="middle" x="50.5" y="-130.5" font-family="Helvetica,sans-Serif" font-size="10.00">../time_parser.hpp</text>
</a>
</g>
</g>
<!-- Node1&#45;&gt;Node23 -->
<g id="edge37" class="edge"><title>Node1&#45;&gt;Node23</title>
<path fill="none" stroke="midnightblue" d="M529.412,-353.895C410.471,-349.094 147.643,-335.79 115.5,-311 65.2103,-272.215 53.8128,-190.563 51.2418,-153.29"/>
<polygon fill="midnightblue" stroke="midnightblue" points="54.7127,-152.655 50.6791,-142.858 47.7229,-153.032 54.7127,-152.655"/>
</g>
<!-- Node24 -->
<g id="node24" class="node"><title>Node24</title>
<g id="a_node24"><a xlink:href="player__file_8hpp.html" target="_top" xlink:title="Declaration of the PlayerFile class, and associated types. ">
<polygon fill="white" stroke="black" points="884.5,-291.5 884.5,-310.5 970.5,-310.5 970.5,-291.5 884.5,-291.5"/>
<text text-anchor="middle" x="927.5" y="-298.5" font-family="Helvetica,sans-Serif" font-size="10.00">player_file.hpp</text>
</a>
</g>
</g>
<!-- Node1&#45;&gt;Node24 -->
<g id="edge41" class="edge"><title>Node1&#45;&gt;Node24</title>
<path fill="none" stroke="midnightblue" d="M641.374,-347.444C705.14,-337.316 810.66,-320.557 874.182,-310.468"/>
<polygon fill="midnightblue" stroke="midnightblue" points="875.058,-313.873 884.386,-308.848 873.96,-306.96 875.058,-313.873"/>
</g>
<!-- Node33 -->
<g id="node33" class="node"><title>Node33</title>
<g id="a_node33"><a xlink:href="player__position_8hpp.html" target="_top" xlink:title="Declaration of the PlayerPosition class. ">
<polygon fill="white" stroke="black" points="298,-179.5 298,-198.5 407,-198.5 407,-179.5 298,-179.5"/>
<text text-anchor="middle" x="352.5" y="-186.5" font-family="Helvetica,sans-Serif" font-size="10.00">player_position.hpp</text>
</a>
</g>
</g>
<!-- Node1&#45;&gt;Node33 -->
<g id="edge70" class="edge"><title>Node1&#45;&gt;Node33</title>
<path fill="none" stroke="midnightblue" d="M529.149,-351.354C494.851,-346.077 452.316,-334.849 421.5,-311 386.875,-284.203 366.713,-234.786 357.876,-208.149"/>
<polygon fill="midnightblue" stroke="midnightblue" points="361.198,-207.045 354.86,-198.555 354.52,-209.144 361.198,-207.045"/>
</g>
<!-- Node35 -->
<g id="node35" class="node"><title>Node35</title>
<g id="a_node35"><a xlink:href="player__state_8hpp.html" target="_top" xlink:title="Declaration of the PlayerState class, and associated types. ">
<polygon fill="white" stroke="black" points="502,-179.5 502,-198.5 597,-198.5 597,-179.5 502,-179.5"/>
<text text-anchor="middle" x="549.5" y="-186.5" font-family="Helvetica,sans-Serif" font-size="10.00">player_state.hpp</text>
</a>
</g>
</g>
<!-- Node1&#45;&gt;Node35 -->
<g id="edge75" class="edge"><title>Node1&#45;&gt;Node35</title>
<path fill="none" stroke="midnightblue" d="M585.457,-347.075C579.475,-320.945 561.91,-244.211 553.753,-208.577"/>
<polygon fill="midnightblue" stroke="midnightblue" points="557.105,-207.535 551.461,-198.568 550.281,-209.097 557.105,-207.535"/>
</g>
<!-- Node10&#45;&gt;Node2 -->
<g id="edge10" class="edge"><title>Node10&#45;&gt;Node2</title>
<path fill="none" stroke="midnightblue" d="M989.267,-179.643C892.961,-163.302 686.169,-128.249 653.5,-123 548.741,-106.168 521.234,-109.29 417.5,-87 412.002,-85.8187 406.225,-84.3946 400.601,-82.9064"/>
<polygon fill="midnightblue" stroke="midnightblue" points="401.308,-79.471 390.738,-80.1971 399.454,-86.221 401.308,-79.471"/>
</g>
<!-- Node10&#45;&gt;Node3 -->
<g id="edge11" class="edge"><title>Node10&#45;&gt;Node3</title>
<path fill="none" stroke="midnightblue" d="M989.463,-182.065C923.665,-172.05 805.702,-146.699 724.5,-87 703.283,-71.4017 686.36,-45.6974 676.627,-28.5606"/>
<polygon fill="midnightblue" stroke="midnightblue" points="679.605,-26.7109 671.749,-19.6018 673.457,-30.0581 679.605,-26.7109"/>
</g>
<!-- Node10&#45;&gt;Node7 -->
<g id="edge12" class="edge"><title>Node10&#45;&gt;Node7</title>
<path fill="none" stroke="midnightblue" d="M1087.5,-180.037C1090.54,-179.654 1093.56,-179.304 1096.5,-179 1399.55,-147.687 1482.15,-187.682 1787.46,-142.839"/>
<polygon fill="midnightblue" stroke="midnightblue" points="1788.11,-146.281 1797.49,-141.348 1787.08,-139.357 1788.11,-146.281"/>
</g>
<!-- Node10&#45;&gt;Node8 -->
<g id="edge13" class="edge"><title>Node10&#45;&gt;Node8</title>
<path fill="none" stroke="midnightblue" d="M1041.13,-179.38C1045.86,-165.363 1057.15,-137.719 1076.5,-123 1126.27,-85.1466 1152.39,-104.197 1212.5,-87 1290.46,-64.6967 1381.46,-36.004 1428.22,-21.0608"/>
<polygon fill="midnightblue" stroke="midnightblue" points="1429.32,-24.3837 1437.78,-18.0015 1427.19,-17.7169 1429.32,-24.3837"/>
</g>
<!-- Node10&#45;&gt;Node9 -->
<g id="edge14" class="edge"><title>Node10&#45;&gt;Node9</title>
<path fill="none" stroke="midnightblue" d="M1087.5,-180.053C1090.54,-179.666 1093.56,-179.311 1096.5,-179 1373.88,-149.674 1450.97,-192.182 1729.39,-142.733"/>
<polygon fill="midnightblue" stroke="midnightblue" points="1730.15,-146.151 1739.38,-140.935 1728.91,-139.262 1730.15,-146.151"/>
</g>
<!-- Node11 -->
<g id="node11" class="node"><title>Node11</title>
<polygon fill="white" stroke="#bfbfbf" points="1157.5,-62 1157.5,-81 1203.5,-81 1203.5,-62 1157.5,-62"/>
<text text-anchor="middle" x="1180.5" y="-69" font-family="Helvetica,sans-Serif" font-size="10.00">vector</text>
</g>
<!-- Node10&#45;&gt;Node11 -->
<g id="edge15" class="edge"><title>Node10&#45;&gt;Node11</title>
<path fill="none" stroke="midnightblue" d="M1036.47,-179.399C1033.82,-165.897 1030.88,-139.566 1043.5,-123 1072.12,-85.4244 1099.28,-103.619 1143.5,-87 1145.39,-86.29 1147.33,-85.5529 1149.28,-84.8043"/>
<polygon fill="midnightblue" stroke="midnightblue" points="1150.96,-87.9105 1159.02,-81.0359 1148.43,-81.3827 1150.96,-87.9105"/>
</g>
<!-- Node12 -->
<g id="node12" class="node"><title>Node12</title>
<polygon fill="white" stroke="#bfbfbf" points="1086,-123.5 1086,-142.5 1155,-142.5 1155,-123.5 1086,-123.5"/>
<text text-anchor="middle" x="1120.5" y="-130.5" font-family="Helvetica,sans-Serif" font-size="10.00">portaudio.h</text>
</g>
<!-- Node10&#45;&gt;Node12 -->
<g id="edge16" class="edge"><title>Node10&#45;&gt;Node12</title>
<path fill="none" stroke="midnightblue" d="M1051.67,-179.324C1064.35,-170.979 1083.73,-158.212 1098.71,-148.352"/>
<polygon fill="midnightblue" stroke="midnightblue" points="1100.93,-151.078 1107.36,-142.655 1097.08,-145.231 1100.93,-151.078"/>
</g>
<!-- Node13 -->
<g id="node13" class="node"><title>Node13</title>
<polygon fill="white" stroke="#bfbfbf" points="1173.5,-123.5 1173.5,-142.5 1355.5,-142.5 1355.5,-123.5 1173.5,-123.5"/>
<text text-anchor="middle" x="1264.5" y="-130.5" font-family="Helvetica,sans-Serif" font-size="10.00">portaudiocpp/CallbackInterface.hxx</text>
</g>
<!-- Node10&#45;&gt;Node13 -->
<g id="edge17" class="edge"><title>Node10&#45;&gt;Node13</title>
<path fill="none" stroke="midnightblue" d="M1074.31,-179.444C1113.49,-170.083 1176.38,-155.056 1219.02,-144.868"/>
<polygon fill="midnightblue" stroke="midnightblue" points="1219.94,-148.245 1228.86,-142.516 1218.32,-141.436 1219.94,-148.245"/>
</g>
<!-- Node14 -->
<g id="node14" class="node"><title>Node14</title>
<g id="a_node14"><a xlink:href="audio__source_8hpp.html" target="_top" xlink:title="Declaration of the AudioSource class. ">
<polygon fill="white" stroke="black" points="891.5,-123.5 891.5,-142.5 991.5,-142.5 991.5,-123.5 891.5,-123.5"/>
<text text-anchor="middle" x="941.5" y="-130.5" font-family="Helvetica,sans-Serif" font-size="10.00">audio_source.hpp</text>
</a>
</g>
</g>
<!-- Node10&#45;&gt;Node14 -->
<g id="edge18" class="edge"><title>Node10&#45;&gt;Node14</title>
<path fill="none" stroke="midnightblue" d="M1022.92,-179.324C1007.5,-170.743 983.688,-157.486 965.79,-147.522"/>
<polygon fill="midnightblue" stroke="midnightblue" points="967.486,-144.461 957.046,-142.655 964.081,-150.577 967.486,-144.461"/>
</g>
<!-- Node14&#45;&gt;Node2 -->
<g id="edge20" class="edge"><title>Node14&#45;&gt;Node2</title>
<path fill="none" stroke="midnightblue" d="M891.228,-124.632C886.591,-124.043 881.962,-123.488 877.5,-123 673.645,-100.711 619.437,-122.708 417.5,-87 411.963,-86.0208 406.164,-84.7041 400.532,-83.2619"/>
<polygon fill="midnightblue" stroke="midnightblue" points="401.232,-79.8253 390.664,-80.5762 399.394,-86.5796 401.232,-79.8253"/>
</g>
<!-- Node14&#45;&gt;Node3 -->
<g id="edge21" class="edge"><title>Node14&#45;&gt;Node3</title>
<path fill="none" stroke="midnightblue" d="M946.598,-123.29C954.926,-107.794 968.956,-75.2577 952.5,-56 920.53,-18.5861 769.741,-12.0952 701.361,-11.0992"/>
<polygon fill="midnightblue" stroke="midnightblue" points="701.164,-7.59686 691.125,-10.9827 701.085,-14.5964 701.164,-7.59686"/>
</g>
<!-- Node14&#45;&gt;Node4 -->
<g id="edge22" class="edge"><title>Node14&#45;&gt;Node4</title>
<path fill="none" stroke="midnightblue" d="M891.487,-123.914C818.026,-112.036 682.331,-90.0964 614.435,-79.1185"/>
<polygon fill="midnightblue" stroke="midnightblue" points="614.962,-75.6584 604.532,-77.5174 613.845,-82.5687 614.962,-75.6584"/>
</g>
<!-- Node14&#45;&gt;Node8 -->
<g id="edge23" class="edge"><title>Node14&#45;&gt;Node8</title>
<path fill="none" stroke="midnightblue" d="M991.583,-124.153C1026.04,-117.443 1072.15,-105.815 1109.5,-87 1129.27,-77.0382 1128.17,-64.7783 1148.5,-56 1243.98,-14.7682 1369.72,-9.9905 1427.7,-10.2388"/>
<polygon fill="midnightblue" stroke="midnightblue" points="1427.68,-13.7387 1437.72,-10.336 1427.75,-6.73904 1427.68,-13.7387"/>
</g>
<!-- Node14&#45;&gt;Node11 -->
<g id="edge24" class="edge"><title>Node14&#45;&gt;Node11</title>
<path fill="none" stroke="midnightblue" d="M989.383,-123.495C1030.66,-115.653 1091.61,-102.843 1143.5,-87 1145.92,-86.2596 1148.42,-85.4329 1150.9,-84.56"/>
<polygon fill="midnightblue" stroke="midnightblue" points="1152.19,-87.816 1160.34,-81.0491 1149.75,-81.2553 1152.19,-87.816"/>
</g>
<!-- Node15 -->
<g id="node15" class="node"><title>Node15</title>
<polygon fill="white" stroke="#bfbfbf" points="1001,-62 1001,-81 1042,-81 1042,-62 1001,-62"/>
<text text-anchor="middle" x="1021.5" y="-69" font-family="Helvetica,sans-Serif" font-size="10.00">array</text>
</g>
<!-- Node14&#45;&gt;Node15 -->
<g id="edge19" class="edge"><title>Node14&#45;&gt;Node15</title>
<path fill="none" stroke="midnightblue" d="M952.962,-123.475C965.675,-114.02 986.413,-98.5961 1001.75,-87.1871"/>
<polygon fill="midnightblue" stroke="midnightblue" points="1004.12,-89.7854 1010.06,-81.0091 999.946,-84.1686 1004.12,-89.7854"/>
</g>
<!-- Node16 -->
<g id="node16" class="node"><title>Node16</title>
<polygon fill="white" stroke="#bfbfbf" points="1060,-62 1060,-81 1101,-81 1101,-62 1060,-62"/>
<text text-anchor="middle" x="1080.5" y="-69" font-family="Helvetica,sans-Serif" font-size="10.00">sox.h</text>
</g>
<!-- Node14&#45;&gt;Node16 -->
<g id="edge25" class="edge"><title>Node14&#45;&gt;Node16</title>
<path fill="none" stroke="midnightblue" d="M963.375,-123.408C985.498,-114.615 1020.6,-100.383 1050.5,-87 1051.66,-86.4815 1052.84,-85.9454 1054.03,-85.3985"/>
<polygon fill="midnightblue" stroke="midnightblue" points="1055.58,-88.5375 1063.13,-81.1082 1052.59,-82.2055 1055.58,-88.5375"/>
</g>
<!-- Node17 -->
<g id="node17" class="node"><title>Node17</title>
<g id="a_node17"><a xlink:href="errors_8hpp.html" target="_top" xlink:title="Declarations of the playd Error exception set. ">
<polygon fill="white" stroke="black" points="871,-62 871,-81 944,-81 944,-62 871,-62"/>
<text text-anchor="middle" x="907.5" y="-69" font-family="Helvetica,sans-Serif" font-size="10.00">../errors.hpp</text>
</a>
</g>
</g>
<!-- Node14&#45;&gt;Node17 -->
<g id="edge26" class="edge"><title>Node14&#45;&gt;Node17</title>
<path fill="none" stroke="midnightblue" d="M936.629,-123.475C931.63,-114.727 923.711,-100.869 917.391,-89.8093"/>
<polygon fill="midnightblue" stroke="midnightblue" points="920.363,-87.955 912.362,-81.0091 914.285,-91.428 920.363,-87.955"/>
</g>
<!-- Node20 -->
<g id="node20" class="node"><title>Node20</title>
<g id="a_node20"><a xlink:href="sample__formats_8hpp.html" target="_top" xlink:title="The SampleFormat enumeration. ">
<polygon fill="white" stroke="black" points="734,-62 734,-81 853,-81 853,-62 734,-62"/>
<text text-anchor="middle" x="793.5" y="-69" font-family="Helvetica,sans-Serif" font-size="10.00">../sample_formats.hpp</text>
</a>
</g>
</g>
<!-- Node14&#45;&gt;Node20 -->
<g id="edge29" class="edge"><title>Node14&#45;&gt;Node20</title>
<path fill="none" stroke="midnightblue" d="M920.295,-123.475C895.128,-113.357 852.96,-96.4046 824.221,-84.8507"/>
<polygon fill="midnightblue" stroke="midnightblue" points="825.249,-81.4919 814.665,-81.0091 822.638,-87.9867 825.249,-81.4919"/>
</g>
<!-- Node18 -->
<g id="node18" class="node"><title>Node18</title>
<polygon fill="white" stroke="#bfbfbf" points="879,-0.5 879,-19.5 936,-19.5 936,-0.5 879,-0.5"/>
<text text-anchor="middle" x="907.5" y="-7.5" font-family="Helvetica,sans-Serif" font-size="10.00">iostream</text>
</g>
<!-- Node17&#45;&gt;Node18 -->
<g id="edge27" class="edge"><title>Node17&#45;&gt;Node18</title>
<path fill="none" stroke="midnightblue" d="M907.5,-61.9751C907.5,-53.5803 907.5,-40.4806 907.5,-29.6631"/>
<polygon fill="midnightblue" stroke="midnightblue" points="911,-29.5091 907.5,-19.5091 904,-29.5091 911,-29.5091"/>
</g>
<!-- Node19 -->
<g id="node19" class="node"><title>Node19</title>
<polygon fill="white" stroke="#bfbfbf" points="298.5,-0.5 298.5,-19.5 352.5,-19.5 352.5,-0.5 298.5,-0.5"/>
<text text-anchor="middle" x="325.5" y="-7.5" font-family="Helvetica,sans-Serif" font-size="10.00">sstream</text>
</g>
<!-- Node17&#45;&gt;Node19 -->
<g id="edge28" class="edge"><title>Node17&#45;&gt;Node19</title>
<path fill="none" stroke="midnightblue" d="M883.886,-61.9542C876.774,-59.6817 868.894,-57.457 861.5,-56 676.799,-19.6045 450.614,-12.6248 362.813,-11.302"/>
<polygon fill="midnightblue" stroke="midnightblue" points="362.608,-7.79902 352.562,-11.1643 362.514,-14.7984 362.608,-7.79902"/>
</g>
<!-- Node20&#45;&gt;Node3 -->
<g id="edge30" class="edge"><title>Node20&#45;&gt;Node3</title>
<path fill="none" stroke="midnightblue" d="M775.447,-61.9751C754.302,-51.9897 719.06,-35.3476 694.622,-23.8075"/>
<polygon fill="midnightblue" stroke="midnightblue" points="696.056,-20.6143 685.519,-19.5091 693.067,-26.9441 696.056,-20.6143"/>
</g>
<!-- Node21&#45;&gt;Node4 -->
<g id="edge32" class="edge"><title>Node21&#45;&gt;Node4</title>
<path fill="none" stroke="midnightblue" d="M471.55,-123.475C491.344,-113.578 524.217,-97.1416 547.27,-85.6151"/>
<polygon fill="midnightblue" stroke="midnightblue" points="549.103,-88.6118 556.482,-81.0091 545.972,-82.3508 549.103,-88.6118"/>
</g>
<!-- Node21&#45;&gt;Node6 -->
<g id="edge33" class="edge"><title>Node21&#45;&gt;Node6</title>
<path fill="none" stroke="midnightblue" d="M419.684,-123.475C371.33,-111.635 284.754,-90.4367 240.011,-79.4812"/>
<polygon fill="midnightblue" stroke="midnightblue" points="240.644,-76.0327 230.098,-77.0539 238.979,-82.8319 240.644,-76.0327"/>
</g>
<!-- Node21&#45;&gt;Node8 -->
<g id="edge35" class="edge"><title>Node21&#45;&gt;Node8</title>
<path fill="none" stroke="midnightblue" d="M484.549,-123.497C554.29,-103.769 721.462,-56.5146 724.5,-56 993.577,-10.4299 1324.98,-9.56868 1427.66,-10.5402"/>
<polygon fill="midnightblue" stroke="midnightblue" points="1427.93,-14.0431 1437.96,-10.6516 1428,-7.04353 1427.93,-14.0431"/>
</g>
<!-- Node21&#45;&gt;Node17 -->
<g id="edge36" class="edge"><title>Node21&#45;&gt;Node17</title>
<path fill="none" stroke="midnightblue" d="M511.553,-127.079C607.265,-118.591 796.112,-100.782 861.5,-87 865.443,-86.1689 869.529,-85.1378 873.565,-84.0114"/>
<polygon fill="midnightblue" stroke="midnightblue" points="874.808,-87.2931 883.385,-81.0743 872.802,-80.5867 874.808,-87.2931"/>
</g>
<!-- Node22 -->
<g id="node22" class="node"><title>Node22</title>
<polygon fill="white" stroke="#bfbfbf" points="427,-62 427,-81 482,-81 482,-62 427,-62"/>
<text text-anchor="middle" x="454.5" y="-69" font-family="Helvetica,sans-Serif" font-size="10.00">ostream</text>
</g>
<!-- Node21&#45;&gt;Node22 -->
<g id="edge34" class="edge"><title>Node21&#45;&gt;Node22</title>
<path fill="none" stroke="midnightblue" d="M454.5,-123.475C454.5,-115.08 454.5,-101.981 454.5,-91.1631"/>
<polygon fill="midnightblue" stroke="midnightblue" points="458,-91.0091 454.5,-81.0091 451,-91.0091 458,-91.0091"/>
</g>
<!-- Node23&#45;&gt;Node2 -->
<g id="edge38" class="edge"><title>Node23&#45;&gt;Node2</title>
<path fill="none" stroke="midnightblue" d="M95.6318,-123.475C158.891,-111.526 272.613,-90.0453 330.13,-79.181"/>
<polygon fill="midnightblue" stroke="midnightblue" points="331.014,-82.576 340.19,-77.2807 329.715,-75.6977 331.014,-82.576"/>
</g>
<!-- Node23&#45;&gt;Node3 -->
<g id="edge39" class="edge"><title>Node23&#45;&gt;Node3</title>
<path fill="none" stroke="midnightblue" d="M54.8129,-123.482C63.643,-107.067 85.5051,-71.3232 115.5,-56 161.589,-32.4551 520.604,-16.6841 633.581,-12.265"/>
<polygon fill="midnightblue" stroke="midnightblue" points="633.871,-15.7565 643.728,-11.8729 633.6,-8.76174 633.871,-15.7565"/>
</g>
<!-- Node23&#45;&gt;Node19 -->
<g id="edge40" class="edge"><title>Node23&#45;&gt;Node19</title>
<path fill="none" stroke="midnightblue" d="M50.7553,-123.397C51.7224,-107.476 56.1947,-73.4524 76.5,-56 107.757,-29.1348 226.972,-17.4762 288.408,-13.1655"/>
<polygon fill="midnightblue" stroke="midnightblue" points="288.719,-16.6526 298.462,-12.4896 288.249,-9.66833 288.719,-16.6526"/>
</g>
<!-- Node24&#45;&gt;Node7 -->
<g id="edge42" class="edge"><title>Node24&#45;&gt;Node7</title>
<path fill="none" stroke="midnightblue" d="M970.863,-294.491C1073.97,-281.092 1341.65,-244.528 1562.5,-199 1643.23,-182.357 1736.7,-157.901 1787.3,-144.224"/>
<polygon fill="midnightblue" stroke="midnightblue" points="1788.39,-147.554 1797.13,-141.557 1786.56,-140.798 1788.39,-147.554"/>
</g>
<!-- Node24&#45;&gt;Node21 -->
<g id="edge69" class="edge"><title>Node24&#45;&gt;Node21</title>
<path fill="none" stroke="midnightblue" d="M884.298,-300.793C800.483,-300.184 613.437,-288.098 492.5,-199 476.749,-187.395 466.426,-167.142 460.569,-152.319"/>
<polygon fill="midnightblue" stroke="midnightblue" points="463.776,-150.897 457.079,-142.687 457.195,-153.281 463.776,-150.897"/>
</g>
<!-- Node25 -->
<g id="node25" class="node"><title>Node25</title>
<g id="a_node25"><a xlink:href="audio__system_8hpp.html" target="_top" xlink:title="Declaration of the AudioSystem class. ">
<polygon fill="white" stroke="black" points="1078,-235.5 1078,-254.5 1215,-254.5 1215,-235.5 1078,-235.5"/>
<text text-anchor="middle" x="1146.5" y="-242.5" font-family="Helvetica,sans-Serif" font-size="10.00">../audio/audio_system.hpp</text>
</a>
</g>
</g>
<!-- Node24&#45;&gt;Node25 -->
<g id="edge43" class="edge"><title>Node24&#45;&gt;Node25</title>
<path fill="none" stroke="midnightblue" d="M962.201,-291.444C1000.08,-282.102 1060.85,-267.119 1102.16,-256.933"/>
<polygon fill="midnightblue" stroke="midnightblue" points="1103.09,-260.309 1111.96,-254.516 1101.41,-253.512 1103.09,-260.309"/>
</g>
<!-- Node25&#45;&gt;Node4 -->
<g id="edge44" class="edge"><title>Node25&#45;&gt;Node4</title>
<path fill="none" stroke="midnightblue" d="M1092.56,-235.495C1046.85,-227.734 979.795,-215.042 922.5,-199 801.939,-165.245 663.385,-109.876 603.568,-85.1336"/>
<polygon fill="midnightblue" stroke="midnightblue" points="604.574,-81.7613 593.996,-81.1571 601.888,-88.2257 604.574,-81.7613"/>
</g>
<!-- Node25&#45;&gt;Node8 -->
<g id="edge45" class="edge"><title>Node25&#45;&gt;Node8</title>
<path fill="none" stroke="midnightblue" d="M1215.03,-239.473C1385.8,-227.484 1819.51,-192.411 1860.5,-143 1962.06,-20.5793 1603.24,-10.8571 1491.62,-10.7344"/>
<polygon fill="midnightblue" stroke="midnightblue" points="1491.31,-7.23479 1481.32,-10.7503 1491.32,-14.2348 1491.31,-7.23479"/>
</g>
<!-- Node25&#45;&gt;Node9 -->
<g id="edge46" class="edge"><title>Node25&#45;&gt;Node9</title>
<path fill="none" stroke="midnightblue" d="M1215.18,-237.526C1286.57,-230.265 1401.38,-217.09 1499.5,-199 1600.24,-180.426 1627.07,-171.653 1729.45,-143.183"/>
<polygon fill="midnightblue" stroke="midnightblue" points="1730.57,-146.506 1739.27,-140.458 1728.69,-139.761 1730.57,-146.506"/>
</g>
<!-- Node25&#45;&gt;Node10 -->
<g id="edge68" class="edge"><title>Node25&#45;&gt;Node10</title>
<path fill="none" stroke="midnightblue" d="M1129.15,-235.324C1111.83,-226.664 1084.98,-213.242 1065,-203.249"/>
<polygon fill="midnightblue" stroke="midnightblue" points="1066.32,-199.996 1055.81,-198.655 1063.19,-206.257 1066.32,-199.996"/>
</g>
<!-- Node25&#45;&gt;Node14 -->
<g id="edge67" class="edge"><title>Node25&#45;&gt;Node14</title>
<path fill="none" stroke="midnightblue" d="M1077.88,-237.322C1045.75,-231.381 1008.48,-220.164 980.5,-199 964.79,-187.118 954.119,-166.911 947.965,-152.176"/>
<polygon fill="midnightblue" stroke="midnightblue" points="951.139,-150.68 944.274,-142.61 944.608,-153.2 951.139,-150.68"/>
</g>
<!-- Node25&#45;&gt;Node20 -->
<g id="edge49" class="edge"><title>Node25&#45;&gt;Node20</title>
<path fill="none" stroke="midnightblue" d="M1083.89,-235.466C1046.3,-228.789 998.218,-217.456 958.5,-199 920.45,-181.319 915.838,-168.474 882.5,-143 857.868,-124.178 829.912,-101.876 812.012,-87.4722"/>
<polygon fill="midnightblue" stroke="midnightblue" points="814.073,-84.6379 804.092,-81.0858 809.679,-90.0872 814.073,-84.6379"/>
</g>
<!-- Node26 -->
<g id="node26" class="node"><title>Node26</title>
<polygon fill="white" stroke="#bfbfbf" points="1106,-179.5 1106,-198.5 1297,-198.5 1297,-179.5 1106,-179.5"/>
<text text-anchor="middle" x="1201.5" y="-186.5" font-family="Helvetica,sans-Serif" font-size="10.00">portaudiocpp/SampleDataFormat.hxx</text>
</g>
<!-- Node25&#45;&gt;Node26 -->
<g id="edge47" class="edge"><title>Node25&#45;&gt;Node26</title>
<path fill="none" stroke="midnightblue" d="M1155.58,-235.083C1163.67,-227.141 1175.7,-215.335 1185.41,-205.797"/>
<polygon fill="midnightblue" stroke="midnightblue" points="1187.9,-208.254 1192.59,-198.751 1183,-203.26 1187.9,-208.254"/>
</g>
<!-- Node27 -->
<g id="node27" class="node"><title>Node27</title>
<polygon fill="white" stroke="#bfbfbf" points="1587.5,-123.5 1587.5,-142.5 1721.5,-142.5 1721.5,-123.5 1587.5,-123.5"/>
<text text-anchor="middle" x="1654.5" y="-130.5" font-family="Helvetica,sans-Serif" font-size="10.00">portaudiocpp/Stream.hxx</text>
</g>
<!-- Node25&#45;&gt;Node27 -->
<g id="edge48" class="edge"><title>Node25&#45;&gt;Node27</title>
<path fill="none" stroke="midnightblue" d="M1215.24,-237.107C1277.45,-230.102 1371.34,-217.616 1451.5,-199 1513.14,-184.685 1583.01,-160.49 1622.61,-146.003"/>
<polygon fill="midnightblue" stroke="midnightblue" points="1623.83,-149.283 1632.01,-142.541 1621.41,-142.715 1623.83,-149.283"/>
</g>
<!-- Node28 -->
<g id="node28" class="node"><title>Node28</title>
<g id="a_node28"><a xlink:href="audio__sink_8hpp.html" target="_top" xlink:title="Declaration of the AudioSink class. ">
<polygon fill="white" stroke="black" points="1356,-179.5 1356,-198.5 1443,-198.5 1443,-179.5 1356,-179.5"/>
<text text-anchor="middle" x="1399.5" y="-186.5" font-family="Helvetica,sans-Serif" font-size="10.00">audio_sink.hpp</text>
</a>
</g>
</g>
<!-- Node25&#45;&gt;Node28 -->
<g id="edge50" class="edge"><title>Node25&#45;&gt;Node28</title>
<path fill="none" stroke="midnightblue" d="M1186.59,-235.444C1230.82,-226.004 1302.04,-210.802 1349.78,-200.611"/>
<polygon fill="midnightblue" stroke="midnightblue" points="1350.55,-204.027 1359.6,-198.516 1349.09,-197.181 1350.55,-204.027"/>
</g>
<!-- Node28&#45;&gt;Node2 -->
<g id="edge51" class="edge"><title>Node28&#45;&gt;Node2</title>
<path fill="none" stroke="midnightblue" d="M1355.99,-183.737C1340.1,-182.207 1321.99,-180.491 1305.5,-179 1117.59,-162.008 1070.13,-162.851 882.5,-143 812.11,-135.553 794.762,-131.566 724.5,-123 588.13,-106.374 552.293,-113.53 417.5,-87 411.983,-85.9141 406.195,-84.5406 400.567,-83.0742"/>
<polygon fill="midnightblue" stroke="midnightblue" points="401.271,-79.6382 390.702,-80.376 399.424,-86.3902 401.271,-79.6382"/>
</g>
<!-- Node28&#45;&gt;Node3 -->
<g id="edge52" class="edge"><title>Node28&#45;&gt;Node3</title>
<path fill="none" stroke="midnightblue" d="M1400.39,-179.319C1401.29,-165.71 1401,-139.233 1387.5,-123 1334.24,-58.9731 1293.7,-74.5008 1212.5,-56 1114.27,-33.6191 804.317,-17.4181 701.22,-12.5333"/>
<polygon fill="midnightblue" stroke="midnightblue" points="701.223,-9.0297 691.071,-12.0574 700.896,-16.022 701.223,-9.0297"/>
</g>
<!-- Node28&#45;&gt;Node7 -->
<g id="edge53" class="edge"><title>Node28&#45;&gt;Node7</title>
<path fill="none" stroke="midnightblue" d="M1443.23,-184.803C1513.68,-179.249 1656.76,-166.297 1787.28,-143.003"/>
<polygon fill="midnightblue" stroke="midnightblue" points="1788.24,-146.387 1797.46,-141.161 1786.99,-139.498 1788.24,-146.387"/>
</g>
<!-- Node28&#45;&gt;Node8 -->
<g id="edge54" class="edge"><title>Node28&#45;&gt;Node8</title>
<path fill="none" stroke="midnightblue" d="M1408.73,-179.267C1417.08,-170.807 1429.03,-157.204 1435.5,-143 1452.65,-105.33 1457.56,-56.3537 1458.95,-29.9187"/>
<polygon fill="midnightblue" stroke="midnightblue" points="1462.46,-29.909 1459.37,-19.7736 1455.46,-29.6213 1462.46,-29.909"/>
</g>
<!-- Node28&#45;&gt;Node9 -->
<g id="edge55" class="edge"><title>Node28&#45;&gt;Node9</title>
<path fill="none" stroke="midnightblue" d="M1443.01,-184.403C1504.76,-178.793 1621.39,-166.332 1729.26,-142.949"/>
<polygon fill="midnightblue" stroke="midnightblue" points="1730.32,-146.299 1739.33,-140.727 1728.81,-139.463 1730.32,-146.299"/>
</g>
<!-- Node28&#45;&gt;Node11 -->
<g id="edge56" class="edge"><title>Node28&#45;&gt;Node11</title>
<path fill="none" stroke="midnightblue" d="M1397.26,-179.408C1393.18,-165.433 1383.15,-137.848 1364.5,-123 1341.19,-104.442 1259.78,-87.0289 1213.44,-78.3154"/>
<polygon fill="midnightblue" stroke="midnightblue" points="1214.03,-74.8665 1203.56,-76.491 1212.76,-81.75 1214.03,-74.8665"/>
</g>
<!-- Node28&#45;&gt;Node12 -->
<g id="edge57" class="edge"><title>Node28&#45;&gt;Node12</title>
<path fill="none" stroke="midnightblue" d="M1355.72,-179.787C1310.62,-171.289 1238.02,-157.501 1165.33,-143.145"/>
<polygon fill="midnightblue" stroke="midnightblue" points="1165.57,-139.624 1155.08,-141.116 1164.21,-146.49 1165.57,-139.624"/>
</g>
<!-- Node28&#45;&gt;Node13 -->
<g id="edge58" class="edge"><title>Node28&#45;&gt;Node13</title>
<path fill="none" stroke="midnightblue" d="M1378.11,-179.444C1355.79,-170.517 1320.6,-156.439 1295.29,-146.317"/>
<polygon fill="midnightblue" stroke="midnightblue" points="1296.38,-142.981 1285.79,-142.516 1293.78,-149.48 1296.38,-142.981"/>
</g>
<!-- Node28&#45;&gt;Node14 -->
<g id="edge60" class="edge"><title>Node28&#45;&gt;Node14</title>
<path fill="none" stroke="midnightblue" d="M1356,-182.871C1273.78,-173.178 1095.46,-152.152 1001.77,-141.106"/>
<polygon fill="midnightblue" stroke="midnightblue" points="1001.94,-137.602 991.6,-139.907 1001.12,-144.554 1001.94,-137.602"/>
</g>
<!-- Node28&#45;&gt;Node27 -->
<g id="edge59" class="edge"><title>Node28&#45;&gt;Node27</title>
<path fill="none" stroke="midnightblue" d="M1439.91,-179.444C1484.48,-170.004 1556.27,-154.802 1604.39,-144.611"/>
<polygon fill="midnightblue" stroke="midnightblue" points="1605.23,-148.012 1614.28,-142.516 1603.78,-141.164 1605.23,-148.012"/>
</g>
<!-- Node29 -->
<g id="node29" class="node"><title>Node29</title>
<g id="a_node29"><a xlink:href="ringbuffer_8hpp.html" target="_top" xlink:title="The RingBuffer class template. ">
<polygon fill="white" stroke="black" points="1488,-123.5 1488,-142.5 1569,-142.5 1569,-123.5 1488,-123.5"/>
<text text-anchor="middle" x="1528.5" y="-130.5" font-family="Helvetica,sans-Serif" font-size="10.00">ringbuffer.hpp</text>
</a>
</g>
</g>
<!-- Node28&#45;&gt;Node29 -->
<g id="edge61" class="edge"><title>Node28&#45;&gt;Node29</title>
<path fill="none" stroke="midnightblue" d="M1419.94,-179.444C1441.17,-170.557 1474.6,-156.563 1498.75,-146.451"/>
<polygon fill="midnightblue" stroke="midnightblue" points="1500.28,-149.606 1508.16,-142.516 1497.58,-143.149 1500.28,-149.606"/>
</g>
<!-- Node29&#45;&gt;Node17 -->
<g id="edge64" class="edge"><title>Node29&#45;&gt;Node17</title>
<path fill="none" stroke="midnightblue" d="M1487.95,-129.815C1398.23,-124.715 1176.17,-110.631 991.5,-87 979.344,-85.4445 966.262,-83.378 954.126,-81.2939"/>
<polygon fill="midnightblue" stroke="midnightblue" points="954.65,-77.8324 944.195,-79.55 953.439,-84.7269 954.65,-77.8324"/>
</g>
<!-- Node30 -->
<g id="node30" class="node"><title>Node30</title>
<polygon fill="white" stroke="#bfbfbf" points="1586,-62 1586,-81 1637,-81 1637,-62 1586,-62"/>
<text text-anchor="middle" x="1611.5" y="-69" font-family="Helvetica,sans-Serif" font-size="10.00">cassert</text>
</g>
<!-- Node29&#45;&gt;Node30 -->
<g id="edge62" class="edge"><title>Node29&#45;&gt;Node30</title>
<path fill="none" stroke="midnightblue" d="M1540.39,-123.475C1553.7,-113.931 1575.5,-98.3073 1591.46,-86.8683"/>
<polygon fill="midnightblue" stroke="midnightblue" points="1593.54,-89.68 1599.63,-81.0091 1589.46,-83.9908 1593.54,-89.68"/>
</g>
<!-- Node31 -->
<g id="node31" class="node"><title>Node31</title>
<polygon fill="white" stroke="#bfbfbf" points="1655,-56.5 1655,-86.5 1776,-86.5 1776,-56.5 1655,-56.5"/>
<text text-anchor="start" x="1663" y="-74.5" font-family="Helvetica,sans-Serif" font-size="10.00">../contrib/pa_ringbuffer</text>
<text text-anchor="middle" x="1715.5" y="-63.5" font-family="Helvetica,sans-Serif" font-size="10.00">/pa_ringbuffer.h</text>
</g>
<!-- Node29&#45;&gt;Node31 -->
<g id="edge63" class="edge"><title>Node29&#45;&gt;Node31</title>
<path fill="none" stroke="midnightblue" d="M1555.29,-123.475C1582.99,-114.664 1626.97,-100.668 1661.85,-89.5698"/>
<polygon fill="midnightblue" stroke="midnightblue" points="1662.96,-92.8903 1671.43,-86.523 1660.84,-86.2198 1662.96,-92.8903"/>
</g>
<!-- Node32 -->
<g id="node32" class="node"><title>Node32</title>
<g id="a_node32"><a xlink:href="messages_8h.html" target="_top" xlink:title="Constant human&#45;readable messages used within playd. ">
<polygon fill="white" stroke="black" points="1487.5,-62 1487.5,-81 1567.5,-81 1567.5,-62 1487.5,-62"/>
<text text-anchor="middle" x="1527.5" y="-69" font-family="Helvetica,sans-Serif" font-size="10.00">../messages.h</text>
</a>
</g>
</g>
<!-- Node29&#45;&gt;Node32 -->
<g id="edge65" class="edge"><title>Node29&#45;&gt;Node32</title>
<path fill="none" stroke="midnightblue" d="M1528.36,-123.475C1528.22,-115.08 1528,-101.981 1527.81,-91.1631"/>
<polygon fill="midnightblue" stroke="midnightblue" points="1531.31,-90.9488 1527.64,-81.0091 1524.31,-91.0665 1531.31,-90.9488"/>
</g>
<!-- Node32&#45;&gt;Node8 -->
<g id="edge66" class="edge"><title>Node32&#45;&gt;Node8</title>
<path fill="none" stroke="midnightblue" d="M1517.76,-61.9751C1507.15,-52.6966 1489.98,-37.6706 1477.02,-26.331"/>
<polygon fill="midnightblue" stroke="midnightblue" points="1479.06,-23.4601 1469.22,-19.5091 1474.45,-28.7282 1479.06,-23.4601"/>
</g>
<!-- Node33&#45;&gt;Node2 -->
<g id="edge71" class="edge"><title>Node33&#45;&gt;Node2</title>
<path fill="none" stroke="midnightblue" d="M352.491,-179.134C352.573,-166.589 353.077,-142.962 355.5,-123 356.801,-112.287 359.099,-100.444 361.165,-90.9218"/>
<polygon fill="midnightblue" stroke="midnightblue" points="364.613,-91.5416 363.409,-81.0154 357.786,-89.9949 364.613,-91.5416"/>
</g>
<!-- Node33&#45;&gt;Node4 -->
<g id="edge72" class="edge"><title>Node33&#45;&gt;Node4</title>
<path fill="none" stroke="midnightblue" d="M354.87,-179.402C359.176,-165.418 369.63,-137.82 388.5,-123 410.759,-105.519 485.056,-88.9822 532.449,-79.8467"/>
<polygon fill="midnightblue" stroke="midnightblue" points="533.242,-83.2587 542.416,-77.9578 531.939,-76.3811 533.242,-83.2587"/>
</g>
<!-- Node33&#45;&gt;Node21 -->
<g id="edge74" class="edge"><title>Node33&#45;&gt;Node21</title>
<path fill="none" stroke="midnightblue" d="M368.888,-179.324C385.171,-170.703 410.367,-157.364 429.216,-147.386"/>
<polygon fill="midnightblue" stroke="midnightblue" points="430.952,-150.427 438.153,-142.655 427.677,-144.24 430.952,-150.427"/>
</g>
<!-- Node34 -->
<g id="node34" class="node"><title>Node34</title>
<polygon fill="white" stroke="#bfbfbf" points="234,-123.5 234,-142.5 265,-142.5 265,-123.5 234,-123.5"/>
<text text-anchor="middle" x="249.5" y="-130.5" font-family="Helvetica,sans-Serif" font-size="10.00">set</text>
</g>
<!-- Node33&#45;&gt;Node34 -->
<g id="edge73" class="edge"><title>Node33&#45;&gt;Node34</title>
<path fill="none" stroke="midnightblue" d="M335.951,-179.324C319.314,-170.601 293.462,-157.048 274.359,-147.033"/>
<polygon fill="midnightblue" stroke="midnightblue" points="275.813,-143.843 265.331,-142.3 272.563,-150.043 275.813,-143.843"/>
</g>
<!-- Node35&#45;&gt;Node3 -->
<g id="edge76" class="edge"><title>Node35&#45;&gt;Node3</title>
<path fill="none" stroke="midnightblue" d="M505.563,-179.496C426.941,-162.436 275.415,-120.098 331.5,-56 370.551,-11.3708 556.331,-9.11991 633.633,-10.183"/>
<polygon fill="midnightblue" stroke="midnightblue" points="633.737,-13.6851 643.794,-10.351 633.853,-6.68608 633.737,-13.6851"/>
</g>
<!-- Node35&#45;&gt;Node4 -->
<g id="edge77" class="edge"><title>Node35&#45;&gt;Node4</title>
<path fill="none" stroke="midnightblue" d="M550.303,-179.094C551.535,-166.502 554.21,-142.819 558.5,-123 560.834,-112.219 564.298,-100.387 567.309,-90.8878"/>
<polygon fill="midnightblue" stroke="midnightblue" points="570.652,-91.9268 570.433,-81.3342 563.998,-89.7515 570.652,-91.9268"/>
</g>
<!-- Node35&#45;&gt;Node5 -->
<g id="edge78" class="edge"><title>Node35&#45;&gt;Node5</title>
<path fill="none" stroke="midnightblue" d="M558.658,-179.324C567.001,-171.42 579.532,-159.548 589.677,-149.938"/>
<polygon fill="midnightblue" stroke="midnightblue" points="592.323,-152.252 597.175,-142.834 587.509,-147.171 592.323,-152.252"/>
</g>
<!-- Node35&#45;&gt;Node21 -->
<g id="edge79" class="edge"><title>Node35&#45;&gt;Node21</title>
<path fill="none" stroke="midnightblue" d="M534.237,-179.324C519.279,-170.822 496.245,-157.729 478.773,-147.797"/>
<polygon fill="midnightblue" stroke="midnightblue" points="480.149,-144.553 469.726,-142.655 476.69,-150.639 480.149,-144.553"/>
</g>
</g>
</svg>
        <g id="navigator" transform="translate(0 0)" fill="#404254">
                <rect fill="#f2f5e9" fill-opacity="0.5" stroke="#606060" stroke-width=".5" x="0" y="0" width="60" height="60"/>
                <use id="zoomplus" xlink:href="#zoomPlus" x="17" y="9" onmousedown="handleZoom(evt,'in')"/>
                <use id="zoomminus" xlink:href="#zoomMin" x="42" y="9" onmousedown="handleZoom(evt,'out')"/>
                <use id="reset" xlink:href="#resetDef" x="30" y="36" onmousedown="handleReset()"/>
                <g id="arrowUp" xlink:href="#dirArrow" transform="translate(30 24)" onmousedown="handlePan(0,-1)">
                  <use xlink:href="#rim" fill="#404040">
                        <set attributeName="fill" to="#808080" begin="arrowUp.mouseover" end="arrowUp.mouseout"/>
                  </use>
                  <path fill="none" stroke="white" stroke-width="1.5" d="M0,-3.0v7 M-2.5,-0.5L0,-3.0L2.5,-0.5"/>
                </g>
                <g id="arrowRight" xlink:href="#dirArrow" transform="rotate(90) translate(36 -43)" onmousedown="handlePan(1,0)">
                  <use xlink:href="#rim" fill="#404040">
                        <set attributeName="fill" to="#808080" begin="arrowRight.mouseover" end="arrowRight.mouseout"/>
                  </use>
                  <path fill="none" stroke="white" stroke-width="1.5" d="M0,-3.0v7 M-2.5,-0.5L0,-3.0L2.5,-0.5"/>
                </g>
                <g id="arrowDown" xlink:href="#dirArrow" transform="rotate(180) translate(-30 -48)" onmousedown="handlePan(0,1)">
                  <use xlink:href="#rim" fill="#404040">
                        <set attributeName="fill" to="#808080" begin="arrowDown.mouseover" end="arrowDown.mouseout"/>
                  </use>
                  <path fill="none" stroke="white" stroke-width="1.5" d="M0,-3.0v7 M-2.5,-0.5L0,-3.0L2.5,-0.5"/>
                </g>
                <g id="arrowLeft" xlink:href="#dirArrow" transform="rotate(270) translate(-36 17)" onmousedown="handlePan(-1,0)">
                  <use xlink:href="#rim" fill="#404040">
                        <set attributeName="fill" to="#808080" begin="arrowLeft.mouseover" end="arrowLeft.mouseout"/>
                  </use>
                  <path fill="none" stroke="white" stroke-width="1.5" d="M0,-3.0v7 M-2.5,-0.5L0,-3.0L2.5,-0.5"/>
                </g>
        </g>
        <svg viewBox="0 0 15 15" width="100%" height="30px" preserveAspectRatio="xMaxYMin meet">
         <g id="arrow_out" transform="scale(0.3 0.3)">
          <a xlink:href="player_8hpp__incl_org.svg" target="_base">
           <rect id="button" ry="5" rx="5" y="6" x="6" height="38" width="38"
                fill="#f2f5e9" fill-opacity="0.5" stroke="#606060" stroke-width="1.0"/>
           <path id="arrow"
             d="M 11.500037,31.436501 C 11.940474,20.09759 22.043105,11.32322 32.158766,21.979434 L 37.068811,17.246167 C 37.068811,17.246167 37.088388,32 37.088388,32 L 22.160133,31.978069 C 22.160133,31.978069 26.997745,27.140456 26.997745,27.140456 C 18.528582,18.264221 13.291696,25.230495 11.500037,31.436501 z"
             style="fill:#404040;"/>
          </a>
         </g>
        </svg>
</svg>
