<?xml version="1.0" encoding="UTF-8" standalone="no"?>
<!DOCTYPE svg PUBLIC "-//W3C//DTD SVG 1.1//EN"
 "http://www.w3.org/Graphics/SVG/1.1/DTD/svg11.dtd">
<!-- Generated by graphviz version 2.36.0 (20140111.2315)
 -->
<!-- Title: src/player.cpp Pages: 1 -->
<!--zoomable 376 -->
<svg id="main" version="1.1" xmlns="http://www.w3.org/2000/svg" xmlns:xlink="http://www.w3.org/1999/xlink" xml:space="preserve" onload="init(evt)">
<style type="text/css"><![CDATA[
.edge:hover path { stroke: red; }
.edge:hover polygon { stroke: red; fill: red; }
]]></style>
<script type="text/javascript"><![CDATA[
var edges = document.getElementsByTagName('g');
if (edges && edges.length) {
  for (var i=0;i<edges.length;i++) {
    if (edges[i].id.substr(0,4)=='edge') {
      edges[i].setAttribute('class','edge');
    }
  }
}
]]></script>
        <defs>
                <circle id="rim" cx="0" cy="0" r="7"/>
                <circle id="rim2" cx="0" cy="0" r="3.5"/>
                <g id="zoomPlus">
                        <use xlink:href="#rim" fill="#404040">
                                <set attributeName="fill" to="#808080" begin="zoomplus.mouseover" end="zoomplus.mouseout"/>
                        </use>
                        <path d="M-4,0h8M0,-4v8" fill="none" stroke="white" stroke-width="1.5" pointer-events="none"/>
                </g>
                <g id="zoomMin">
                        <use xlink:href="#rim" fill="#404040">
                                <set attributeName="fill" to="#808080" begin="zoomminus.mouseover" end="zoomminus.mouseout"/>
                        </use>
                        <path d="M-4,0h8" fill="none" stroke="white" stroke-width="1.5" pointer-events="none"/>
                </g>
                <g id="dirArrow">
                        <path fill="none" stroke="white" stroke-width="1.5" d="M0,-3.0v7 M-2.5,-0.5L0,-3.0L2.5,-0.5"/>
                </g>
               <g id="resetDef">
                       <use xlink:href="#rim2" fill="#404040">
                               <set attributeName="fill" to="#808080" begin="reset.mouseover" end="reset.mouseout"/>
                       </use>
               </g>
        </defs>

<script type="text/javascript">
var viewWidth = 1382;
var viewHeight = 376;
var sectionId = 'dynsection-0';
</script>
<script xlink:href="svgpan.js"/>
<svg id="graph" class="graph">
<g id="viewport">
<title>src/player.cpp</title>
<polygon fill="white" stroke="none" points="-4,4 -4,-372 1378,-372 1378,4 -4,4"/>
<!-- Node0 -->
<g id="node1" class="node"><title>Node0</title>
<polygon fill="#bfbfbf" stroke="black" points="272.5,-348.5 272.5,-367.5 355.5,-367.5 355.5,-348.5 272.5,-348.5"/>
<text text-anchor="middle" x="314" y="-355.5" font-family="Helvetica,sans-Serif" font-size="10.00">src/player.cpp</text>
</g>
<!-- Node1 -->
<g id="node2" class="node"><title>Node1</title>
<polygon fill="white" stroke="#bfbfbf" points="0,-292.5 0,-311.5 52,-311.5 52,-292.5 0,-292.5"/>
<text text-anchor="middle" x="26" y="-299.5" font-family="Helvetica,sans-Serif" font-size="10.00">cassert</text>
</g>
<!-- Node0&#45;&gt;Node1 -->
<g id="edge1" class="edge"><title>Node0&#45;&gt;Node1</title>
<path fill="none" stroke="midnightblue" d="M272.212,-349.967C222.836,-341.529 138.258,-326.678 66,-312 64.7444,-311.745 63.4676,-311.481 62.1788,-311.211"/>
<polygon fill="midnightblue" stroke="midnightblue" points="62.7294,-307.75 52.2164,-309.063 61.254,-314.593 62.7294,-307.75"/>
</g>
<!-- Node2 -->
<g id="node3" class="node"><title>Node2</title>
<polygon fill="white" stroke="#bfbfbf" points="748.5,-0.5 748.5,-19.5 797.5,-19.5 797.5,-0.5 748.5,-0.5"/>
<text text-anchor="middle" x="773" y="-7.5" font-family="Helvetica,sans-Serif" font-size="10.00">cstdint</text>
</g>
<!-- Node0&#45;&gt;Node2 -->
<g id="edge2" class="edge"><title>Node0&#45;&gt;Node2</title>
<path fill="none" stroke="midnightblue" d="M355.721,-356.439C529.846,-353.909 1193.64,-342.342 1282,-312 1329.35,-295.74 1374,-297.065 1374,-247 1374,-247 1374,-247 1374,-189 1374,-141.227 1338.04,-139.541 1299,-112 1250.25,-77.605 1234.49,-71.9497 1177,-56 1044.08,-19.1222 878.609,-12.325 807.788,-11.1725"/>
<polygon fill="midnightblue" stroke="midnightblue" points="807.693,-7.671 797.647,-11.0363 807.599,-14.6704 807.693,-7.671"/>
</g>
<!-- Node3 -->
<g id="node4" class="node"><title>Node3</title>
<polygon fill="white" stroke="#bfbfbf" points="189,-0.5 189,-19.5 245,-19.5 245,-0.5 189,-0.5"/>
<text text-anchor="middle" x="217" y="-7.5" font-family="Helvetica,sans-Serif" font-size="10.00">sstream</text>
</g>
<!-- Node0&#45;&gt;Node3 -->
<g id="edge3" class="edge"><title>Node0&#45;&gt;Node3</title>
<path fill="none" stroke="midnightblue" d="M272.435,-355.648C205.193,-350.999 80,-331.056 80,-247 80,-247 80,-247 80,-127 80,-73.623 141.32,-39.7463 181.911,-23.1687"/>
<polygon fill="midnightblue" stroke="midnightblue" points="183.199,-26.4231 191.231,-19.5141 180.644,-19.9061 183.199,-26.4231"/>
</g>
<!-- Node4 -->
<g id="node5" class="node"><title>Node4</title>
<polygon fill="white" stroke="#bfbfbf" points="146,-292.5 146,-311.5 210,-311.5 210,-292.5 146,-292.5"/>
<text text-anchor="middle" x="178" y="-299.5" font-family="Helvetica,sans-Serif" font-size="10.00">stdexcept</text>
</g>
<!-- Node0&#45;&gt;Node4 -->
<g id="edge4" class="edge"><title>Node0&#45;&gt;Node4</title>
<path fill="none" stroke="midnightblue" d="M292.45,-348.444C269.969,-339.517 234.512,-325.439 209.02,-315.317"/>
<polygon fill="midnightblue" stroke="midnightblue" points="210.035,-311.954 199.449,-311.516 207.451,-318.46 210.035,-311.954"/>
</g>
<!-- Node5 -->
<g id="node6" class="node"><title>Node5</title>
<polygon fill="white" stroke="#bfbfbf" points="701,-56.5 701,-75.5 745,-75.5 745,-56.5 701,-56.5"/>
<text text-anchor="middle" x="723" y="-63.5" font-family="Helvetica,sans-Serif" font-size="10.00">string</text>
</g>
<!-- Node0&#45;&gt;Node5 -->
<g id="edge5" class="edge"><title>Node0&#45;&gt;Node5</title>
<path fill="none" stroke="midnightblue" d="M355.69,-356.425C513.481,-353.252 1070.16,-332.675 1169,-200 1192.59,-168.341 1162.38,-134.011 1128,-112 1066.36,-72.5411 839.811,-67.4702 755.177,-66.9765"/>
<polygon fill="midnightblue" stroke="midnightblue" points="755.134,-63.4764 745.12,-66.936 755.106,-70.4764 755.134,-63.4764"/>
</g>
<!-- Node6 -->
<g id="node7" class="node"><title>Node6</title>
<polygon fill="white" stroke="#bfbfbf" points="520.5,-56.5 520.5,-75.5 567.5,-75.5 567.5,-56.5 520.5,-56.5"/>
<text text-anchor="middle" x="544" y="-63.5" font-family="Helvetica,sans-Serif" font-size="10.00">vector</text>
</g>
<!-- Node0&#45;&gt;Node6 -->
<g id="edge6" class="edge"><title>Node0&#45;&gt;Node6</title>
<path fill="none" stroke="midnightblue" d="M301.98,-348.391C281.326,-332.764 239.801,-297.482 224,-256 201.13,-195.957 232.497,-156.584 296,-112 313.344,-99.8232 446.444,-80.3079 510.183,-71.5326"/>
<polygon fill="midnightblue" stroke="midnightblue" points="510.718,-74.9922 520.151,-70.17 509.769,-68.0567 510.718,-74.9922"/>
</g>
<!-- Node7 -->
<g id="node8" class="node"><title>Node7</title>
<g id="a_node8"><a xlink:href="audio__sink_8hpp.html" target="_top" xlink:title="Declaration of the AudioSink class. ">
<polygon fill="white" stroke="black" points="850.5,-236.5 850.5,-255.5 967.5,-255.5 967.5,-236.5 850.5,-236.5"/>
<text text-anchor="middle" x="909" y="-243.5" font-family="Helvetica,sans-Serif" font-size="10.00">audio/audio_sink.hpp</text>
</a>
</g>
</g>
<!-- Node0&#45;&gt;Node7 -->
<g id="edge7" class="edge"><title>Node0&#45;&gt;Node7</title>
<path fill="none" stroke="midnightblue" d="M355.757,-356.709C434.476,-355.287 609.702,-347.949 752,-312 800.263,-299.807 853.112,-275.448 883.533,-260.258"/>
<polygon fill="midnightblue" stroke="midnightblue" points="885.246,-263.314 892.588,-255.676 882.085,-257.069 885.246,-263.314"/>
</g>
<!-- Node12 -->
<g id="node13" class="node"><title>Node12</title>
<g id="a_node13"><a xlink:href="audio_8hpp.html" target="_top" xlink:title="Declaration of the Audio class. ">
<polygon fill="white" stroke="black" points="703,-180.5 703,-199.5 767,-199.5 767,-180.5 703,-180.5"/>
<text text-anchor="middle" x="735" y="-187.5" font-family="Helvetica,sans-Serif" font-size="10.00">audio.hpp</text>
</a>
</g>
</g>
<!-- Node0&#45;&gt;Node12 -->
<g id="edge44" class="edge"><title>Node0&#45;&gt;Node12</title>
<path fill="none" stroke="midnightblue" d="M355.546,-357.464C432.873,-356.133 600.247,-342.642 702,-256 716.129,-243.97 724.898,-224.397 729.813,-209.869"/>
<polygon fill="midnightblue" stroke="midnightblue" points="733.269,-210.536 732.845,-199.95 726.574,-208.49 733.269,-210.536"/>
</g>
<!-- Node13 -->
<g id="node14" class="node"><title>Node13</title>
<g id="a_node14"><a xlink:href="response_8hpp.html" target="_top" xlink:title="Declaration of classes pertaining to responses to the client. ">
<polygon fill="white" stroke="black" points="305.5,-118.5 305.5,-137.5 396.5,-137.5 396.5,-118.5 305.5,-118.5"/>
<text text-anchor="middle" x="351" y="-125.5" font-family="Helvetica,sans-Serif" font-size="10.00">../response.hpp</text>
</a>
</g>
</g>
<!-- Node0&#45;&gt;Node13 -->
<g id="edge46" class="edge"><title>Node0&#45;&gt;Node13</title>
<path fill="none" stroke="midnightblue" d="M310.4,-348.222C306.944,-339.285 301.967,-324.942 300,-312 294.925,-278.606 292.55,-268.946 300,-236 307.641,-202.211 327.286,-166.592 339.843,-146.161"/>
<polygon fill="midnightblue" stroke="midnightblue" points="342.828,-147.989 345.201,-137.664 336.906,-144.256 342.828,-147.989"/>
</g>
<!-- Node16 -->
<g id="node17" class="node"><title>Node16</title>
<g id="a_node17"><a xlink:href="errors_8hpp.html" target="_top" xlink:title="Declarations of the playd Error exception set. ">
<polygon fill="white" stroke="black" points="398,-56.5 398,-75.5 464,-75.5 464,-56.5 398,-56.5"/>
<text text-anchor="middle" x="431" y="-63.5" font-family="Helvetica,sans-Serif" font-size="10.00">errors.hpp</text>
</a>
</g>
</g>
<!-- Node0&#45;&gt;Node16 -->
<g id="edge45" class="edge"><title>Node0&#45;&gt;Node16</title>
<path fill="none" stroke="midnightblue" d="M272.268,-357.577C232.394,-355.835 173.16,-346.901 137,-312 115.344,-291.098 118,-277.098 118,-247 118,-247 118,-247 118,-189 118,-143.343 146.195,-134.363 186,-112 262.787,-68.8594 296.164,-91.6474 387.74,-75.8972"/>
<polygon fill="midnightblue" stroke="midnightblue" points="388.48,-79.32 397.685,-74.0756 387.218,-72.4345 388.48,-79.32"/>
</g>
<!-- Node18 -->
<g id="node19" class="node"><title>Node18</title>
<g id="a_node19"><a xlink:href="audio__source_8hpp.html" target="_top" xlink:title="Declaration of the AudioSource class. ">
<polygon fill="white" stroke="black" points="491.5,-118.5 491.5,-137.5 592.5,-137.5 592.5,-118.5 491.5,-118.5"/>
<text text-anchor="middle" x="542" y="-125.5" font-family="Helvetica,sans-Serif" font-size="10.00">audio_source.hpp</text>
</a>
</g>
</g>
<!-- Node0&#45;&gt;Node18 -->
<g id="edge43" class="edge"><title>Node0&#45;&gt;Node18</title>
<path fill="none" stroke="midnightblue" d="M322.659,-348.341C356.73,-314.27 481.847,-189.153 526.245,-144.755"/>
<polygon fill="midnightblue" stroke="midnightblue" points="528.736,-147.214 533.332,-137.668 523.786,-142.264 528.736,-147.214"/>
</g>
<!-- Node22 -->
<g id="node23" class="node"><title>Node22</title>
<g id="a_node23"><a xlink:href="messages_8h.html" target="_top" xlink:title="Constant human&#45;readable messages used within playd. ">
<polygon fill="white" stroke="black" points="1270.5,-236.5 1270.5,-255.5 1345.5,-255.5 1345.5,-236.5 1270.5,-236.5"/>
<text text-anchor="middle" x="1308" y="-243.5" font-family="Helvetica,sans-Serif" font-size="10.00">messages.h</text>
</a>
</g>
</g>
<!-- Node0&#45;&gt;Node22 -->
<g id="edge47" class="edge"><title>Node0&#45;&gt;Node22</title>
<path fill="none" stroke="midnightblue" d="M355.731,-357.015C527.564,-356.805 1175.15,-353.26 1256,-312 1275.85,-301.869 1290.66,-280.355 1299.29,-264.85"/>
<polygon fill="midnightblue" stroke="midnightblue" points="1302.54,-266.192 1304.06,-255.708 1296.33,-262.952 1302.54,-266.192"/>
</g>
<!-- Node23 -->
<g id="node24" class="node"><title>Node23</title>
<g id="a_node24"><a xlink:href="player_8hpp.html" target="_top" xlink:title="Declaration of the Player class, and associated types. ">
<polygon fill="white" stroke="black" points="452,-292.5 452,-311.5 518,-311.5 518,-292.5 452,-292.5"/>
<text text-anchor="middle" x="485" y="-299.5" font-family="Helvetica,sans-Serif" font-size="10.00">player.hpp</text>
</a>
</g>
</g>
<!-- Node0&#45;&gt;Node23 -->
<g id="edge49" class="edge"><title>Node0&#45;&gt;Node23</title>
<path fill="none" stroke="midnightblue" d="M341.095,-348.444C369.988,-339.32 415.925,-324.813 448.105,-314.651"/>
<polygon fill="midnightblue" stroke="midnightblue" points="449.549,-317.865 458.031,-311.516 447.441,-311.19 449.549,-317.865"/>
</g>
<!-- Node7&#45;&gt;Node2 -->
<g id="edge9" class="edge"><title>Node7&#45;&gt;Node2</title>
<path fill="none" stroke="midnightblue" d="M913.366,-236.307C917.559,-227.437 923.6,-213.145 926,-200 933.171,-160.728 930.331,-145.091 908,-112 880.549,-71.3213 831.152,-40.6049 800.328,-24.2493"/>
<polygon fill="midnightblue" stroke="midnightblue" points="801.894,-21.1189 791.403,-19.6393 798.681,-27.3382 801.894,-21.1189"/>
</g>
<!-- Node7&#45;&gt;Node5 -->
<g id="edge11" class="edge"><title>Node7&#45;&gt;Node5</title>
<path fill="none" stroke="midnightblue" d="M967.699,-237.578C999.265,-231.403 1037.62,-220.2 1067,-200 1102.71,-175.445 1137.82,-144.37 1109,-112 1085.59,-85.6992 843.665,-72.3686 755.185,-68.3445"/>
<polygon fill="midnightblue" stroke="midnightblue" points="755.326,-64.8474 745.18,-67.8997 755.015,-71.8405 755.326,-64.8474"/>
</g>
<!-- Node7&#45;&gt;Node6 -->
<g id="edge13" class="edge"><title>Node7&#45;&gt;Node6</title>
<path fill="none" stroke="midnightblue" d="M908.083,-236.43C905.018,-212.386 892.831,-143.969 851,-112 845.584,-107.861 656.688,-82.1189 577.938,-71.5359"/>
<polygon fill="midnightblue" stroke="midnightblue" points="577.964,-68.0081 567.587,-70.147 577.033,-74.9459 577.964,-68.0081"/>
</g>
<!-- Node8 -->
<g id="node9" class="node"><title>Node8</title>
<polygon fill="white" stroke="#bfbfbf" points="1202.5,-0.5 1202.5,-19.5 1243.5,-19.5 1243.5,-0.5 1202.5,-0.5"/>
<text text-anchor="middle" x="1223" y="-7.5" font-family="Helvetica,sans-Serif" font-size="10.00">array</text>
</g>
<!-- Node7&#45;&gt;Node8 -->
<g id="edge8" class="edge"><title>Node7&#45;&gt;Node8</title>
<path fill="none" stroke="midnightblue" d="M967.534,-243.205C1039.71,-239.73 1156.6,-229.572 1187,-200 1233.87,-154.411 1230.11,-68.0354 1225.75,-29.9031"/>
<polygon fill="midnightblue" stroke="midnightblue" points="1229.18,-29.1841 1224.43,-19.7164 1222.24,-30.0831 1229.18,-29.1841"/>
</g>
<!-- Node9 -->
<g id="node10" class="node"><title>Node9</title>
<polygon fill="white" stroke="#bfbfbf" points="625.5,-56.5 625.5,-75.5 682.5,-75.5 682.5,-56.5 625.5,-56.5"/>
<text text-anchor="middle" x="654" y="-63.5" font-family="Helvetica,sans-Serif" font-size="10.00">memory</text>
</g>
<!-- Node7&#45;&gt;Node9 -->
<g id="edge10" class="edge"><title>Node7&#45;&gt;Node9</title>
<path fill="none" stroke="midnightblue" d="M910.414,-236.376C913.747,-212.78 919.408,-146.611 885,-112 825.704,-52.3546 780.72,-91.0229 692.686,-75.8688"/>
<polygon fill="midnightblue" stroke="midnightblue" points="693.082,-72.3809 682.601,-73.9296 691.76,-79.2549 693.082,-72.3809"/>
</g>
<!-- Node10 -->
<g id="node11" class="node"><title>Node10</title>
<polygon fill="white" stroke="#bfbfbf" points="801,-118.5 801,-137.5 843,-137.5 843,-118.5 801,-118.5"/>
<text text-anchor="middle" x="822" y="-125.5" font-family="Helvetica,sans-Serif" font-size="10.00">utility</text>
</g>
<!-- Node7&#45;&gt;Node10 -->
<g id="edge12" class="edge"><title>Node7&#45;&gt;Node10</title>
<path fill="none" stroke="midnightblue" d="M896.166,-236.191C884.774,-227.879 868.239,-214.55 857,-200 844.561,-183.897 834.803,-162.671 828.785,-147.634"/>
<polygon fill="midnightblue" stroke="midnightblue" points="831.92,-146.032 825.08,-137.941 825.381,-148.531 831.92,-146.032"/>
</g>
<!-- Node11 -->
<g id="node12" class="node"><title>Node11</title>
<polygon fill="white" stroke="#bfbfbf" points="1115.5,-180.5 1115.5,-199.5 1160.5,-199.5 1160.5,-180.5 1115.5,-180.5"/>
<text text-anchor="middle" x="1138" y="-187.5" font-family="Helvetica,sans-Serif" font-size="10.00">SDL.h</text>
</g>
<!-- Node7&#45;&gt;Node11 -->
<g id="edge14" class="edge"><title>Node7&#45;&gt;Node11</title>
<path fill="none" stroke="midnightblue" d="M945.829,-236.465C984.496,-227.481 1047.05,-212.883 1101,-200 1102.45,-199.655 1103.93,-199.3 1105.42,-198.941"/>
<polygon fill="midnightblue" stroke="midnightblue" points="1106.41,-202.302 1115.31,-196.551 1104.77,-195.498 1106.41,-202.302"/>
</g>
<!-- Node7&#45;&gt;Node12 -->
<g id="edge15" class="edge"><title>Node7&#45;&gt;Node12</title>
<path fill="none" stroke="midnightblue" d="M881.429,-236.444C851.903,-227.28 804.882,-212.688 772.117,-202.519"/>
<polygon fill="midnightblue" stroke="midnightblue" points="773.03,-199.138 762.442,-199.516 770.955,-205.823 773.03,-199.138"/>
</g>
<!-- Node7&#45;&gt;Node18 -->
<g id="edge39" class="edge"><title>Node7&#45;&gt;Node18</title>
<path fill="none" stroke="midnightblue" d="M850.091,-236.438C806.333,-229.177 745.556,-217.18 694,-200 647.328,-184.448 596.074,-158.51 566.602,-142.661"/>
<polygon fill="midnightblue" stroke="midnightblue" points="567.938,-139.404 557.48,-137.703 564.595,-145.554 567.938,-139.404"/>
</g>
<!-- Node19 -->
<g id="node20" class="node"><title>Node19</title>
<g id="a_node20"><a xlink:href="sample__formats_8hpp.html" target="_top" xlink:title="The SampleFormat enumeration and related declarations. ">
<polygon fill="white" stroke="black" points="1053,-56.5 1053,-75.5 1169,-75.5 1169,-56.5 1053,-56.5"/>
<text text-anchor="middle" x="1111" y="-63.5" font-family="Helvetica,sans-Serif" font-size="10.00">sample_formats.hpp</text>
</a>
</g>
</g>
<!-- Node7&#45;&gt;Node19 -->
<g id="edge42" class="edge"><title>Node7&#45;&gt;Node19</title>
<path fill="none" stroke="midnightblue" d="M967.614,-243.322C1036.24,-239.976 1143.78,-229.964 1169,-200 1199.42,-163.868 1154.17,-109.321 1127.77,-82.7136"/>
<polygon fill="midnightblue" stroke="midnightblue" points="1130.19,-80.1861 1120.6,-75.6956 1125.3,-85.1902 1130.19,-80.1861"/>
</g>
<!-- Node20 -->
<g id="node21" class="node"><title>Node20</title>
<g id="a_node21"><a xlink:href="ringbuffer_8hpp.html" target="_top" xlink:title="The RingBuffer class template. ">
<polygon fill="white" stroke="black" points="975.5,-180.5 975.5,-199.5 1058.5,-199.5 1058.5,-180.5 975.5,-180.5"/>
<text text-anchor="middle" x="1017" y="-187.5" font-family="Helvetica,sans-Serif" font-size="10.00">ringbuffer.hpp</text>
</a>
</g>
</g>
<!-- Node7&#45;&gt;Node20 -->
<g id="edge40" class="edge"><title>Node7&#45;&gt;Node20</title>
<path fill="none" stroke="midnightblue" d="M926.352,-236.324C943.672,-227.664 970.515,-214.242 990.502,-204.249"/>
<polygon fill="midnightblue" stroke="midnightblue" points="992.312,-207.257 999.691,-199.655 989.181,-200.996 992.312,-207.257"/>
</g>
<!-- Node12&#45;&gt;Node2 -->
<g id="edge16" class="edge"><title>Node12&#45;&gt;Node2</title>
<path fill="none" stroke="midnightblue" d="M736.833,-180.415C742.662,-153.11 760.867,-67.8317 769.003,-29.7237"/>
<polygon fill="midnightblue" stroke="midnightblue" points="772.431,-30.4289 771.096,-19.9185 765.585,-28.9673 772.431,-30.4289"/>
</g>
<!-- Node12&#45;&gt;Node5 -->
<g id="edge18" class="edge"><title>Node12&#45;&gt;Node5</title>
<path fill="none" stroke="midnightblue" d="M734.137,-180.226C732.2,-160.53 727.469,-112.437 724.839,-85.7004"/>
<polygon fill="midnightblue" stroke="midnightblue" points="728.317,-85.3038 723.855,-75.6944 721.351,-85.9891 728.317,-85.3038"/>
</g>
<!-- Node12&#45;&gt;Node6 -->
<g id="edge20" class="edge"><title>Node12&#45;&gt;Node6</title>
<path fill="none" stroke="midnightblue" d="M721.569,-180.421C689.034,-159.64 605.751,-106.443 565.895,-80.9851"/>
<polygon fill="midnightblue" stroke="midnightblue" points="567.728,-78.0028 557.416,-75.5693 563.959,-83.902 567.728,-78.0028"/>
</g>
<!-- Node12&#45;&gt;Node9 -->
<g id="edge17" class="edge"><title>Node12&#45;&gt;Node9</title>
<path fill="none" stroke="midnightblue" d="M729.175,-180.226C715.864,-160.178 683.021,-110.71 665.479,-84.2888"/>
<polygon fill="midnightblue" stroke="midnightblue" points="668.22,-82.0895 659.773,-75.6944 662.388,-85.9614 668.22,-82.0895"/>
</g>
<!-- Node12&#45;&gt;Node10 -->
<g id="edge19" class="edge"><title>Node12&#45;&gt;Node10</title>
<path fill="none" stroke="midnightblue" d="M747.465,-180.403C761.419,-170.78 784.265,-155.024 800.991,-143.489"/>
<polygon fill="midnightblue" stroke="midnightblue" points="803.313,-146.139 809.558,-137.581 799.339,-140.377 803.313,-146.139"/>
</g>
<!-- Node12&#45;&gt;Node13 -->
<g id="edge21" class="edge"><title>Node12&#45;&gt;Node13</title>
<path fill="none" stroke="midnightblue" d="M702.921,-183.988C637.579,-173.778 488.356,-150.462 406.781,-137.716"/>
<polygon fill="midnightblue" stroke="midnightblue" points="407.118,-134.226 396.697,-136.14 406.037,-141.142 407.118,-134.226"/>
</g>
<!-- Node12&#45;&gt;Node18 -->
<g id="edge31" class="edge"><title>Node12&#45;&gt;Node18</title>
<path fill="none" stroke="midnightblue" d="M707.348,-180.403C673.668,-169.933 616.643,-152.205 579.153,-140.55"/>
<polygon fill="midnightblue" stroke="midnightblue" points="580.189,-137.207 569.601,-137.581 578.111,-143.892 580.189,-137.207"/>
</g>
<!-- Node13&#45;&gt;Node2 -->
<g id="edge22" class="edge"><title>Node13&#45;&gt;Node2</title>
<path fill="none" stroke="midnightblue" d="M372.819,-118.475C397.402,-108.733 438.439,-92.0558 473,-76 490.666,-67.7928 493.523,-62.17 512,-56 590.381,-29.8258 687.341,-18.2238 738.166,-13.6335"/>
<polygon fill="midnightblue" stroke="midnightblue" points="738.626,-17.1068 748.288,-12.7577 738.023,-10.1329 738.626,-17.1068"/>
</g>
<!-- Node13&#45;&gt;Node5 -->
<g id="edge26" class="edge"><title>Node13&#45;&gt;Node5</title>
<path fill="none" stroke="midnightblue" d="M396.698,-121.99C460.359,-114.607 579.447,-99.3299 690.663,-75.8064"/>
<polygon fill="midnightblue" stroke="midnightblue" points="691.665,-79.1713 700.71,-73.654 690.198,-72.3266 691.665,-79.1713"/>
</g>
<!-- Node13&#45;&gt;Node6 -->
<g id="edge27" class="edge"><title>Node13&#45;&gt;Node6</title>
<path fill="none" stroke="midnightblue" d="M378.652,-118.403C413.427,-107.593 473.091,-89.0443 510.441,-77.4328"/>
<polygon fill="midnightblue" stroke="midnightblue" points="511.835,-80.6648 520.345,-74.3539 509.757,-73.9804 511.835,-80.6648"/>
</g>
<!-- Node13&#45;&gt;Node9 -->
<g id="edge24" class="edge"><title>Node13&#45;&gt;Node9</title>
<path fill="none" stroke="midnightblue" d="M394.091,-118.467C453.154,-106.771 558.382,-85.9343 615.141,-74.6949"/>
<polygon fill="midnightblue" stroke="midnightblue" points="616.023,-78.0882 625.153,-72.7123 614.663,-71.2215 616.023,-78.0882"/>
</g>
<!-- Node14 -->
<g id="node15" class="node"><title>Node14</title>
<polygon fill="white" stroke="#bfbfbf" points="266,-56.5 266,-75.5 304,-75.5 304,-56.5 266,-56.5"/>
<text text-anchor="middle" x="285" y="-63.5" font-family="Helvetica,sans-Serif" font-size="10.00">map</text>
</g>
<!-- Node13&#45;&gt;Node14 -->
<g id="edge23" class="edge"><title>Node13&#45;&gt;Node14</title>
<path fill="none" stroke="midnightblue" d="M341.544,-118.403C331.252,-109.047 314.584,-93.8948 302.006,-82.4599"/>
<polygon fill="midnightblue" stroke="midnightblue" points="304.192,-79.7176 294.439,-75.5806 299.484,-84.8971 304.192,-79.7176"/>
</g>
<!-- Node15 -->
<g id="node16" class="node"><title>Node15</title>
<polygon fill="white" stroke="#bfbfbf" points="322.5,-56.5 322.5,-75.5 379.5,-75.5 379.5,-56.5 322.5,-56.5"/>
<text text-anchor="middle" x="351" y="-63.5" font-family="Helvetica,sans-Serif" font-size="10.00">ostream</text>
</g>
<!-- Node13&#45;&gt;Node15 -->
<g id="edge25" class="edge"><title>Node13&#45;&gt;Node15</title>
<path fill="none" stroke="midnightblue" d="M351,-118.403C351,-109.938 351,-96.7283 351,-85.8199"/>
<polygon fill="midnightblue" stroke="midnightblue" points="354.5,-85.5806 351,-75.5806 347.5,-85.5806 354.5,-85.5806"/>
</g>
<!-- Node13&#45;&gt;Node16 -->
<g id="edge28" class="edge"><title>Node13&#45;&gt;Node16</title>
<path fill="none" stroke="midnightblue" d="M362.462,-118.403C375.175,-108.869 395.913,-93.3154 411.253,-81.8106"/>
<polygon fill="midnightblue" stroke="midnightblue" points="413.659,-84.3806 419.559,-75.5806 409.459,-78.7806 413.659,-84.3806"/>
</g>
<!-- Node16&#45;&gt;Node3 -->
<g id="edge30" class="edge"><title>Node16&#45;&gt;Node3</title>
<path fill="none" stroke="midnightblue" d="M397.562,-56.5625C358.874,-46.8001 295.318,-30.7625 254.849,-20.5507"/>
<polygon fill="midnightblue" stroke="midnightblue" points="255.639,-17.1404 245.087,-18.0873 253.926,-23.9277 255.639,-17.1404"/>
</g>
<!-- Node17 -->
<g id="node18" class="node"><title>Node17</title>
<polygon fill="white" stroke="#bfbfbf" points="401.5,-0.5 401.5,-19.5 460.5,-19.5 460.5,-0.5 401.5,-0.5"/>
<text text-anchor="middle" x="431" y="-7.5" font-family="Helvetica,sans-Serif" font-size="10.00">iostream</text>
</g>
<!-- Node16&#45;&gt;Node17 -->
<g id="edge29" class="edge"><title>Node16&#45;&gt;Node17</title>
<path fill="none" stroke="midnightblue" d="M431,-56.083C431,-49.0059 431,-38.8611 431,-29.9865"/>
<polygon fill="midnightblue" stroke="midnightblue" points="434.5,-29.751 431,-19.7511 427.5,-29.7511 434.5,-29.751"/>
</g>
<!-- Node18&#45;&gt;Node2 -->
<g id="edge32" class="edge"><title>Node18&#45;&gt;Node2</title>
<path fill="none" stroke="midnightblue" d="M548.87,-118.174C561.006,-103.18 587.738,-72.7321 617,-56 655.42,-34.0319 705.392,-22.0836 738.295,-16.1279"/>
<polygon fill="midnightblue" stroke="midnightblue" points="739.08,-19.5443 748.342,-14.3996 737.893,-12.6457 739.08,-19.5443"/>
</g>
<!-- Node18&#45;&gt;Node5 -->
<g id="edge33" class="edge"><title>Node18&#45;&gt;Node5</title>
<path fill="none" stroke="midnightblue" d="M567.933,-118.403C600.406,-107.639 656.022,-89.2026 691.078,-77.582"/>
<polygon fill="midnightblue" stroke="midnightblue" points="692.425,-80.8227 700.816,-74.3539 690.222,-74.1783 692.425,-80.8227"/>
</g>
<!-- Node18&#45;&gt;Node6 -->
<g id="edge34" class="edge"><title>Node18&#45;&gt;Node6</title>
<path fill="none" stroke="midnightblue" d="M542.287,-118.403C542.569,-109.938 543.009,-96.7283 543.373,-85.8199"/>
<polygon fill="midnightblue" stroke="midnightblue" points="546.879,-85.6917 543.714,-75.5806 539.883,-85.4584 546.879,-85.6917"/>
</g>
<!-- Node18&#45;&gt;Node16 -->
<g id="edge35" class="edge"><title>Node18&#45;&gt;Node16</title>
<path fill="none" stroke="midnightblue" d="M526.096,-118.403C507.715,-108.468 477.244,-91.9966 455.755,-80.3812"/>
<polygon fill="midnightblue" stroke="midnightblue" points="457.335,-77.2568 446.874,-75.5806 454.007,-83.4148 457.335,-77.2568"/>
</g>
<!-- Node18&#45;&gt;Node19 -->
<g id="edge36" class="edge"><title>Node18&#45;&gt;Node19</title>
<path fill="none" stroke="midnightblue" d="M592.745,-121.649C695.2,-110.845 926.833,-86.4201 1042.54,-74.2188"/>
<polygon fill="midnightblue" stroke="midnightblue" points="1043.12,-77.6777 1052.69,-73.1482 1042.38,-70.7163 1043.12,-77.6777"/>
</g>
<!-- Node19&#45;&gt;Node2 -->
<g id="edge38" class="edge"><title>Node19&#45;&gt;Node2</title>
<path fill="none" stroke="midnightblue" d="M1057.44,-56.4435C987.377,-45.2496 866.601,-25.9541 807.543,-16.5186"/>
<polygon fill="midnightblue" stroke="midnightblue" points="808.023,-13.0511 797.596,-14.9296 806.919,-19.9635 808.023,-13.0511"/>
</g>
<!-- Node19&#45;&gt;Node8 -->
<g id="edge37" class="edge"><title>Node19&#45;&gt;Node8</title>
<path fill="none" stroke="midnightblue" d="M1128.99,-56.324C1147.04,-47.6247 1175.05,-34.1202 1195.8,-24.113"/>
<polygon fill="midnightblue" stroke="midnightblue" points="1197.56,-27.1502 1205.05,-19.6545 1194.52,-20.8449 1197.56,-27.1502"/>
</g>
<!-- Node21 -->
<g id="node22" class="node"><title>Node21</title>
<polygon fill="white" stroke="#bfbfbf" points="975.5,-113 975.5,-143 1100.5,-143 1100.5,-113 975.5,-113"/>
<text text-anchor="start" x="983.5" y="-131" font-family="Helvetica,sans-Serif" font-size="10.00">../contrib/pa_ringbuffer</text>
<text text-anchor="middle" x="1038" y="-120" font-family="Helvetica,sans-Serif" font-size="10.00">/pa_ringbuffer.h</text>
</g>
<!-- Node20&#45;&gt;Node21 -->
<g id="edge41" class="edge"><title>Node20&#45;&gt;Node21</title>
<path fill="none" stroke="midnightblue" d="M1020.01,-180.403C1022.53,-173.189 1026.27,-162.528 1029.68,-152.782"/>
<polygon fill="midnightblue" stroke="midnightblue" points="1033.05,-153.736 1033.05,-143.141 1026.44,-151.423 1033.05,-153.736"/>
</g>
<!-- Node22&#45;&gt;Node5 -->
<g id="edge48" class="edge"><title>Node22&#45;&gt;Node5</title>
<path fill="none" stroke="midnightblue" d="M1308.83,-236.446C1310.64,-212.444 1312.07,-144.127 1274,-112 1234.29,-78.4881 867.533,-69.4724 755.409,-67.4893"/>
<polygon fill="midnightblue" stroke="midnightblue" points="755.135,-63.9842 745.077,-67.3139 755.016,-70.9832 755.135,-63.9842"/>
</g>
<!-- Node23&#45;&gt;Node2 -->
<g id="edge50" class="edge"><title>Node23&#45;&gt;Node2</title>
<path fill="none" stroke="midnightblue" d="M451.945,-300.909C384.64,-298.804 238,-283.593 238,-191 238,-191 238,-191 238,-127 238,-94.3341 231.977,-76.9978 257,-56 293.749,-25.1629 627.769,-14.4678 737.933,-11.762"/>
<polygon fill="midnightblue" stroke="midnightblue" points="738.261,-15.2553 748.175,-11.5178 738.094,-8.25726 738.261,-15.2553"/>
</g>
<!-- Node23&#45;&gt;Node5 -->
<g id="edge54" class="edge"><title>Node23&#45;&gt;Node5</title>
<path fill="none" stroke="midnightblue" d="M518.059,-299.628C552.828,-296.51 607.224,-286.657 642,-256 694.42,-209.789 714.034,-123.743 720.363,-85.7998"/>
<polygon fill="midnightblue" stroke="midnightblue" points="723.86,-86.0821 721.922,-75.6661 716.942,-85.0175 723.86,-86.0821"/>
</g>
<!-- Node23&#45;&gt;Node6 -->
<g id="edge56" class="edge"><title>Node23&#45;&gt;Node6</title>
<path fill="none" stroke="midnightblue" d="M476.068,-292.311C468.078,-283.881 456.894,-270.299 452,-256 431.271,-195.435 414.769,-166.092 449,-112 456.162,-100.683 486.341,-87.55 510.788,-78.4041"/>
<polygon fill="midnightblue" stroke="midnightblue" points="512.296,-81.5799 520.492,-74.866 509.898,-75.0034 512.296,-81.5799"/>
</g>
<!-- Node23&#45;&gt;Node7 -->
<g id="edge57" class="edge"><title>Node23&#45;&gt;Node7</title>
<path fill="none" stroke="midnightblue" d="M518.271,-296.763C587.423,-287.956 747.909,-267.516 840.254,-255.755"/>
<polygon fill="midnightblue" stroke="midnightblue" points="840.866,-259.206 850.344,-254.47 839.982,-252.262 840.866,-259.206"/>
</g>
<!-- Node23&#45;&gt;Node9 -->
<g id="edge53" class="edge"><title>Node23&#45;&gt;Node9</title>
<path fill="none" stroke="midnightblue" d="M481.476,-292.307C470.305,-263.198 438.883,-167.849 482,-112 498.143,-91.0901 569.592,-78.0244 615.173,-71.6611"/>
<polygon fill="midnightblue" stroke="midnightblue" points="615.872,-75.0987 625.315,-70.2956 614.938,-68.1613 615.872,-75.0987"/>
</g>
<!-- Node23&#45;&gt;Node10 -->
<g id="edge55" class="edge"><title>Node23&#45;&gt;Node10</title>
<path fill="none" stroke="midnightblue" d="M492.501,-292.146C505.206,-277.794 532.476,-249.679 562,-236 649.511,-195.454 695.393,-252.959 776,-200 795.132,-187.43 808.019,-163.849 815.173,-147.323"/>
<polygon fill="midnightblue" stroke="midnightblue" points="818.571,-148.253 819.055,-137.669 812.077,-145.641 818.571,-148.253"/>
</g>
<!-- Node23&#45;&gt;Node12 -->
<g id="edge59" class="edge"><title>Node23&#45;&gt;Node12</title>
<path fill="none" stroke="midnightblue" d="M518.291,-299.133C558.25,-295.601 626.106,-285.406 676,-256 696.224,-244.081 713.47,-222.973 724.001,-208.049"/>
<polygon fill="midnightblue" stroke="midnightblue" points="726.95,-209.937 729.656,-199.694 721.153,-206.013 726.95,-209.937"/>
</g>
<!-- Node23&#45;&gt;Node13 -->
<g id="edge60" class="edge"><title>Node23&#45;&gt;Node13</title>
<path fill="none" stroke="midnightblue" d="M465.785,-292.455C450.217,-284.751 428.552,-272.157 414,-256 384.454,-223.196 365.382,-174.011 356.613,-147.506"/>
<polygon fill="midnightblue" stroke="midnightblue" points="359.845,-146.122 353.484,-137.649 353.173,-148.239 359.845,-146.122"/>
</g>
<!-- Node23&#45;&gt;Node14 -->
<g id="edge52" class="edge"><title>Node23&#45;&gt;Node14</title>
<path fill="none" stroke="midnightblue" d="M462.173,-292.457C443.104,-284.673 415.776,-271.968 395,-256 342.324,-215.514 323.869,-204.309 296,-144 287.43,-125.456 285.148,-101.939 284.714,-85.803"/>
<polygon fill="midnightblue" stroke="midnightblue" points="288.213,-85.5163 284.662,-75.5344 281.213,-85.5521 288.213,-85.5163"/>
</g>
<!-- Node23&#45;&gt;Node18 -->
<g id="edge58" class="edge"><title>Node23&#45;&gt;Node18</title>
<path fill="none" stroke="midnightblue" d="M487.905,-292.234C496.787,-265.433 523.714,-184.178 535.897,-147.415"/>
<polygon fill="midnightblue" stroke="midnightblue" points="539.345,-148.138 539.168,-137.544 532.7,-145.936 539.345,-148.138"/>
</g>
<!-- Node24 -->
<g id="node25" class="node"><title>Node24</title>
<polygon fill="white" stroke="#bfbfbf" points="570.5,-236.5 570.5,-255.5 633.5,-255.5 633.5,-236.5 570.5,-236.5"/>
<text text-anchor="middle" x="602" y="-243.5" font-family="Helvetica,sans-Serif" font-size="10.00">functional</text>
</g>
<!-- Node23&#45;&gt;Node24 -->
<g id="edge51" class="edge"><title>Node23&#45;&gt;Node24</title>
<path fill="none" stroke="midnightblue" d="M503.539,-292.444C522.623,-283.636 552.575,-269.812 574.436,-259.722"/>
<polygon fill="midnightblue" stroke="midnightblue" points="575.935,-262.885 583.548,-255.516 573.001,-256.529 575.935,-262.885"/>
</g>
</g>
</svg>
        <g id="navigator" transform="translate(0 0)" fill="#404254">
                <rect fill="#f2f5e9" fill-opacity="0.5" stroke="#606060" stroke-width=".5" x="0" y="0" width="60" height="60"/>
                <use id="zoomplus" xlink:href="#zoomPlus" x="17" y="9" onmousedown="handleZoom(evt,'in')"/>
                <use id="zoomminus" xlink:href="#zoomMin" x="42" y="9" onmousedown="handleZoom(evt,'out')"/>
                <use id="reset" xlink:href="#resetDef" x="30" y="36" onmousedown="handleReset()"/>
                <g id="arrowUp" xlink:href="#dirArrow" transform="translate(30 24)" onmousedown="handlePan(0,-1)">
                  <use xlink:href="#rim" fill="#404040">
                        <set attributeName="fill" to="#808080" begin="arrowUp.mouseover" end="arrowUp.mouseout"/>
                  </use>
                  <path fill="none" stroke="white" stroke-width="1.5" d="M0,-3.0v7 M-2.5,-0.5L0,-3.0L2.5,-0.5"/>
                </g>
                <g id="arrowRight" xlink:href="#dirArrow" transform="rotate(90) translate(36 -43)" onmousedown="handlePan(1,0)">
                  <use xlink:href="#rim" fill="#404040">
                        <set attributeName="fill" to="#808080" begin="arrowRight.mouseover" end="arrowRight.mouseout"/>
                  </use>
                  <path fill="none" stroke="white" stroke-width="1.5" d="M0,-3.0v7 M-2.5,-0.5L0,-3.0L2.5,-0.5"/>
                </g>
                <g id="arrowDown" xlink:href="#dirArrow" transform="rotate(180) translate(-30 -48)" onmousedown="handlePan(0,1)">
                  <use xlink:href="#rim" fill="#404040">
                        <set attributeName="fill" to="#808080" begin="arrowDown.mouseover" end="arrowDown.mouseout"/>
                  </use>
                  <path fill="none" stroke="white" stroke-width="1.5" d="M0,-3.0v7 M-2.5,-0.5L0,-3.0L2.5,-0.5"/>
                </g>
                <g id="arrowLeft" xlink:href="#dirArrow" transform="rotate(270) translate(-36 17)" onmousedown="handlePan(-1,0)">
                  <use xlink:href="#rim" fill="#404040">
                        <set attributeName="fill" to="#808080" begin="arrowLeft.mouseover" end="arrowLeft.mouseout"/>
                  </use>
                  <path fill="none" stroke="white" stroke-width="1.5" d="M0,-3.0v7 M-2.5,-0.5L0,-3.0L2.5,-0.5"/>
                </g>
        </g>
        <svg viewBox="0 0 15 15" width="100%" height="30px" preserveAspectRatio="xMaxYMin meet">
         <g id="arrow_out" transform="scale(0.3 0.3)">
          <a xlink:href="player_8cpp__incl_org.svg" target="_base">
           <rect id="button" ry="5" rx="5" y="6" x="6" height="38" width="38"
                fill="#f2f5e9" fill-opacity="0.5" stroke="#606060" stroke-width="1.0"/>
           <path id="arrow"
             d="M 11.500037,31.436501 C 11.940474,20.09759 22.043105,11.32322 32.158766,21.979434 L 37.068811,17.246167 C 37.068811,17.246167 37.088388,32 37.088388,32 L 22.160133,31.978069 C 22.160133,31.978069 26.997745,27.140456 26.997745,27.140456 C 18.528582,18.264221 13.291696,25.230495 11.500037,31.436501 z"
             style="fill:#404040;"/>
          </a>
         </g>
        </svg>
</svg>
