<?xml version="1.0" encoding="UTF-8" standalone="no"?>
<!DOCTYPE svg PUBLIC "-//W3C//DTD SVG 1.1//EN"
 "http://www.w3.org/Graphics/SVG/1.1/DTD/svg11.dtd">
<!-- Generated by graphviz version 2.38.0 (20140413.2041)
 -->
<!-- Title: src/player/player_state.cpp Pages: 1 -->
<svg width="1788pt" height="431pt"
 viewBox="0.00 0.00 1788.00 431.00" xmlns="http://www.w3.org/2000/svg" xmlns:xlink="http://www.w3.org/1999/xlink">
<g id="graph0" class="graph" transform="scale(1 1) rotate(0) translate(4 427)">
<title>src/player/player_state.cpp</title>
<polygon fill="white" stroke="none" points="-4,4 -4,-427 1784,-427 1784,4 -4,4"/>
<!-- Node1 -->
<g id="node1" class="node"><title>Node1</title>
<polygon fill="#bfbfbf" stroke="black" points="90.5,-403.5 90.5,-422.5 234.5,-422.5 234.5,-403.5 90.5,-403.5"/>
<text text-anchor="middle" x="162.5" y="-410.5" font-family="Helvetica,sans-Serif" font-size="10.00">src/player/player_state.cpp</text>
</g>
<!-- Node2 -->
<g id="node2" class="node"><title>Node2</title>
<polygon fill="white" stroke="#bfbfbf" points="55.5,-347.5 55.5,-366.5 115.5,-366.5 115.5,-347.5 55.5,-347.5"/>
<text text-anchor="middle" x="85.5" y="-354.5" font-family="Helvetica,sans-Serif" font-size="10.00">algorithm</text>
</g>
<!-- Node1&#45;&gt;Node2 -->
<g id="edge1" class="edge"><title>Node1&#45;&gt;Node2</title>
<path fill="none" stroke="midnightblue" d="M150.129,-403.324C138.342,-395.058 120.368,-382.453 106.364,-372.632"/>
<polygon fill="midnightblue" stroke="midnightblue" points="108.038,-369.531 97.8407,-366.655 104.018,-375.262 108.038,-369.531"/>
</g>
<!-- Node3 -->
<g id="node3" class="node"><title>Node3</title>
<g id="a_node3"><a xlink:href="io__response_8hpp.html" target="_top" xlink:title="Declaration of classes pertaining to responses to the client. ">
<polygon fill="white" stroke="black" points="323.5,-123.5 323.5,-142.5 437.5,-142.5 437.5,-123.5 323.5,-123.5"/>
<text text-anchor="middle" x="380.5" y="-130.5" font-family="Helvetica,sans-Serif" font-size="10.00">../io/io_response.hpp</text>
</a>
</g>
</g>
<!-- Node1&#45;&gt;Node3 -->
<g id="edge2" class="edge"><title>Node1&#45;&gt;Node3</title>
<path fill="none" stroke="midnightblue" d="M165.062,-403.249C170.249,-384.738 181.5,-340.179 181.5,-302 181.5,-302 181.5,-302 181.5,-244 181.5,-182.241 255.822,-154.885 313.626,-142.948"/>
<polygon fill="midnightblue" stroke="midnightblue" points="314.329,-146.377 323.475,-141.027 312.99,-139.506 314.329,-146.377"/>
</g>
<!-- Node12 -->
<g id="node12" class="node"><title>Node12</title>
<g id="a_node12"><a xlink:href="player__state_8hpp.html" target="_top" xlink:title="Declaration of the PlayerState class, and associated types. ">
<polygon fill="white" stroke="black" points="58,-291.5 58,-310.5 153,-310.5 153,-291.5 58,-291.5"/>
<text text-anchor="middle" x="105.5" y="-298.5" font-family="Helvetica,sans-Serif" font-size="10.00">player_state.hpp</text>
</a>
</g>
</g>
<!-- Node1&#45;&gt;Node12 -->
<g id="edge11" class="edge"><title>Node1&#45;&gt;Node12</title>
<path fill="none" stroke="midnightblue" d="M158.027,-403.368C148.704,-385.376 127.031,-343.55 114.634,-319.627"/>
<polygon fill="midnightblue" stroke="midnightblue" points="117.66,-317.86 109.952,-310.591 111.445,-321.081 117.66,-317.86"/>
</g>
<!-- Node14 -->
<g id="node14" class="node"><title>Node14</title>
<g id="a_node14"><a xlink:href="player_8hpp.html" target="_top" xlink:title="Declaration of the Player class, and associated types. ">
<polygon fill="white" stroke="black" points="465.5,-347.5 465.5,-366.5 531.5,-366.5 531.5,-347.5 465.5,-347.5"/>
<text text-anchor="middle" x="498.5" y="-354.5" font-family="Helvetica,sans-Serif" font-size="10.00">player.hpp</text>
</a>
</g>
</g>
<!-- Node1&#45;&gt;Node14 -->
<g id="edge15" class="edge"><title>Node1&#45;&gt;Node14</title>
<path fill="none" stroke="midnightblue" d="M215.74,-403.444C282.037,-392.789 394.005,-374.794 455.265,-364.948"/>
<polygon fill="midnightblue" stroke="midnightblue" points="456.052,-368.367 465.369,-363.325 454.941,-361.456 456.052,-368.367"/>
</g>
<!-- Node4 -->
<g id="node4" class="node"><title>Node4</title>
<polygon fill="white" stroke="#bfbfbf" points="742,-0.5 742,-19.5 789,-19.5 789,-0.5 742,-0.5"/>
<text text-anchor="middle" x="765.5" y="-7.5" font-family="Helvetica,sans-Serif" font-size="10.00">cstdint</text>
</g>
<!-- Node3&#45;&gt;Node4 -->
<g id="edge3" class="edge"><title>Node3&#45;&gt;Node4</title>
<path fill="none" stroke="midnightblue" d="M401.192,-123.464C437.889,-108.522 516.965,-77.2005 585.5,-56 635.915,-40.4048 695.521,-26.3407 731.907,-18.2349"/>
<polygon fill="midnightblue" stroke="midnightblue" points="732.962,-21.5863 741.972,-16.0129 731.453,-14.7509 732.962,-21.5863"/>
</g>
<!-- Node5 -->
<g id="node5" class="node"><title>Node5</title>
<polygon fill="white" stroke="#bfbfbf" points="324,-62 324,-81 361,-81 361,-62 324,-62"/>
<text text-anchor="middle" x="342.5" y="-69" font-family="Helvetica,sans-Serif" font-size="10.00">map</text>
</g>
<!-- Node3&#45;&gt;Node5 -->
<g id="edge4" class="edge"><title>Node3&#45;&gt;Node5</title>
<path fill="none" stroke="midnightblue" d="M375.056,-123.475C369.412,-114.638 360.439,-100.589 353.341,-89.475"/>
<polygon fill="midnightblue" stroke="midnightblue" points="356.267,-87.5531 347.934,-81.0091 350.367,-91.3208 356.267,-87.5531"/>
</g>
<!-- Node6 -->
<g id="node6" class="node"><title>Node6</title>
<polygon fill="white" stroke="#bfbfbf" points="379,-62 379,-81 434,-81 434,-62 379,-62"/>
<text text-anchor="middle" x="406.5" y="-69" font-family="Helvetica,sans-Serif" font-size="10.00">ostream</text>
</g>
<!-- Node3&#45;&gt;Node6 -->
<g id="edge5" class="edge"><title>Node3&#45;&gt;Node6</title>
<path fill="none" stroke="midnightblue" d="M384.225,-123.475C387.971,-114.904 393.86,-101.427 398.642,-90.483"/>
<polygon fill="midnightblue" stroke="midnightblue" points="401.985,-91.5739 402.782,-81.0091 395.57,-88.771 401.985,-91.5739"/>
</g>
<!-- Node7 -->
<g id="node7" class="node"><title>Node7</title>
<polygon fill="white" stroke="#bfbfbf" points="694,-62 694,-81 737,-81 737,-62 694,-62"/>
<text text-anchor="middle" x="715.5" y="-69" font-family="Helvetica,sans-Serif" font-size="10.00">string</text>
</g>
<!-- Node3&#45;&gt;Node7 -->
<g id="edge6" class="edge"><title>Node3&#45;&gt;Node7</title>
<path fill="none" stroke="midnightblue" d="M436.547,-123.469C491.065,-114.972 576.163,-101.181 649.5,-87 660.76,-84.8227 673.045,-82.1939 683.929,-79.7759"/>
<polygon fill="midnightblue" stroke="midnightblue" points="684.869,-83.1522 693.857,-77.5438 683.333,-76.3226 684.869,-83.1522"/>
</g>
<!-- Node8 -->
<g id="node8" class="node"><title>Node8</title>
<polygon fill="white" stroke="#bfbfbf" points="594.5,-62 594.5,-81 640.5,-81 640.5,-62 594.5,-62"/>
<text text-anchor="middle" x="617.5" y="-69" font-family="Helvetica,sans-Serif" font-size="10.00">vector</text>
</g>
<!-- Node3&#45;&gt;Node8 -->
<g id="edge7" class="edge"><title>Node3&#45;&gt;Node8</title>
<path fill="none" stroke="midnightblue" d="M414.456,-123.475C459.816,-112.087 539.662,-92.0416 584.521,-80.7796"/>
<polygon fill="midnightblue" stroke="midnightblue" points="585.487,-84.1457 594.334,-78.316 583.782,-77.3564 585.487,-84.1457"/>
</g>
<!-- Node9 -->
<g id="node9" class="node"><title>Node9</title>
<g id="a_node9"><a xlink:href="errors_8hpp.html" target="_top" xlink:title="Declarations of the playd Error exception set. ">
<polygon fill="white" stroke="black" points="1423,-62 1423,-81 1496,-81 1496,-62 1423,-62"/>
<text text-anchor="middle" x="1459.5" y="-69" font-family="Helvetica,sans-Serif" font-size="10.00">../errors.hpp</text>
</a>
</g>
</g>
<!-- Node3&#45;&gt;Node9 -->
<g id="edge8" class="edge"><title>Node3&#45;&gt;Node9</title>
<path fill="none" stroke="midnightblue" d="M437.737,-129.547C630.376,-121.26 1248.14,-94.4014 1337.5,-87 1362.39,-84.9387 1390.02,-81.7303 1412.69,-78.8551"/>
<polygon fill="midnightblue" stroke="midnightblue" points="1413.26,-82.3111 1422.73,-77.5628 1412.37,-75.3684 1413.26,-82.3111"/>
</g>
<!-- Node10 -->
<g id="node10" class="node"><title>Node10</title>
<polygon fill="white" stroke="#bfbfbf" points="1468,-0.5 1468,-19.5 1525,-19.5 1525,-0.5 1468,-0.5"/>
<text text-anchor="middle" x="1496.5" y="-7.5" font-family="Helvetica,sans-Serif" font-size="10.00">iostream</text>
</g>
<!-- Node9&#45;&gt;Node10 -->
<g id="edge9" class="edge"><title>Node9&#45;&gt;Node10</title>
<path fill="none" stroke="midnightblue" d="M1464.8,-61.9751C1470.24,-53.2268 1478.86,-39.3691 1485.74,-28.3093"/>
<polygon fill="midnightblue" stroke="midnightblue" points="1488.9,-29.8494 1491.21,-19.5091 1482.96,-26.1528 1488.9,-29.8494"/>
</g>
<!-- Node11 -->
<g id="node11" class="node"><title>Node11</title>
<polygon fill="white" stroke="#bfbfbf" points="1395.5,-0.5 1395.5,-19.5 1449.5,-19.5 1449.5,-0.5 1395.5,-0.5"/>
<text text-anchor="middle" x="1422.5" y="-7.5" font-family="Helvetica,sans-Serif" font-size="10.00">sstream</text>
</g>
<!-- Node9&#45;&gt;Node11 -->
<g id="edge10" class="edge"><title>Node9&#45;&gt;Node11</title>
<path fill="none" stroke="midnightblue" d="M1454.2,-61.9751C1448.76,-53.2268 1440.14,-39.3691 1433.26,-28.3093"/>
<polygon fill="midnightblue" stroke="midnightblue" points="1436.04,-26.1528 1427.79,-19.5091 1430.1,-29.8494 1436.04,-26.1528"/>
</g>
<!-- Node12&#45;&gt;Node3 -->
<g id="edge14" class="edge"><title>Node12&#45;&gt;Node3</title>
<path fill="none" stroke="midnightblue" d="M108.879,-291.142C118.704,-265.832 147.811,-194.053 167.5,-179 190.101,-161.72 259.782,-149.202 313.354,-141.82"/>
<polygon fill="midnightblue" stroke="midnightblue" points="314.05,-145.258 323.494,-140.457 313.117,-138.321 314.05,-145.258"/>
</g>
<!-- Node12&#45;&gt;Node4 -->
<g id="edge12" class="edge"><title>Node12&#45;&gt;Node4</title>
<path fill="none" stroke="midnightblue" d="M105.5,-291.442C105.5,-272.936 105.5,-227.812 105.5,-190 105.5,-190 105.5,-190 105.5,-132 105.5,-76.1766 153.355,-75.9275 205.5,-56 302.613,-18.8879 626.314,-12.3798 731.888,-11.2409"/>
<polygon fill="midnightblue" stroke="midnightblue" points="732.01,-14.74 741.975,-11.1415 731.941,-7.74029 732.01,-14.74"/>
</g>
<!-- Node13 -->
<g id="node13" class="node"><title>Node13</title>
<polygon fill="white" stroke="#bfbfbf" points="0,-235.5 0,-254.5 77,-254.5 77,-235.5 0,-235.5"/>
<text text-anchor="middle" x="38.5" y="-242.5" font-family="Helvetica,sans-Serif" font-size="10.00">initializer_list</text>
</g>
<!-- Node12&#45;&gt;Node13 -->
<g id="edge13" class="edge"><title>Node12&#45;&gt;Node13</title>
<path fill="none" stroke="midnightblue" d="M94.7353,-291.324C84.7339,-283.263 69.6135,-271.077 57.5695,-261.369"/>
<polygon fill="midnightblue" stroke="midnightblue" points="59.4429,-258.384 49.4606,-254.834 55.0502,-263.834 59.4429,-258.384"/>
</g>
<!-- Node14&#45;&gt;Node3 -->
<g id="edge40" class="edge"><title>Node14&#45;&gt;Node3</title>
<path fill="none" stroke="midnightblue" d="M487.137,-347.31C460.039,-325.775 392.053,-266.751 367.5,-199 361.931,-183.633 366.543,-165.309 371.753,-152.04"/>
<polygon fill="midnightblue" stroke="midnightblue" points="375.067,-153.199 375.877,-142.635 368.656,-150.388 375.067,-153.199"/>
</g>
<!-- Node14&#45;&gt;Node4 -->
<g id="edge16" class="edge"><title>Node14&#45;&gt;Node4</title>
<path fill="none" stroke="midnightblue" d="M465.344,-356.478C418.519,-355.677 331.891,-348.655 270.5,-311 239.199,-291.801 219.5,-282.72 219.5,-246 219.5,-246 219.5,-246 219.5,-132 219.5,-84.5442 251.638,-76.3693 294.5,-56 372.1,-19.1222 637.375,-12.4657 731.797,-11.2645"/>
<polygon fill="midnightblue" stroke="midnightblue" points="731.973,-14.7628 741.932,-11.1485 731.892,-7.76324 731.973,-14.7628"/>
</g>
<!-- Node14&#45;&gt;Node5 -->
<g id="edge17" class="edge"><title>Node14&#45;&gt;Node5</title>
<path fill="none" stroke="midnightblue" d="M465.495,-355.582C399.491,-352.82 257.5,-336.375 257.5,-246 257.5,-246 257.5,-246 257.5,-188 257.5,-144.794 296.56,-107.09 321.724,-87.2827"/>
<polygon fill="midnightblue" stroke="midnightblue" points="324.101,-89.8724 329.958,-81.0434 319.874,-84.2931 324.101,-89.8724"/>
</g>
<!-- Node14&#45;&gt;Node7 -->
<g id="edge19" class="edge"><title>Node14&#45;&gt;Node7</title>
<path fill="none" stroke="midnightblue" d="M502.626,-347.419C506.934,-338.397 513.84,-323.768 519.5,-311 556.226,-228.142 534.723,-187.396 598.5,-123 621.864,-99.4088 658.045,-86.1221 683.985,-79.1658"/>
<polygon fill="midnightblue" stroke="midnightblue" points="684.874,-82.5514 693.72,-76.721 683.169,-75.7622 684.874,-82.5514"/>
</g>
<!-- Node14&#45;&gt;Node8 -->
<g id="edge21" class="edge"><title>Node14&#45;&gt;Node8</title>
<path fill="none" stroke="midnightblue" d="M499.15,-347.185C501.911,-314.698 514.961,-199.585 565.5,-123 574.448,-109.441 587.595,-96.7148 598.43,-87.4299"/>
<polygon fill="midnightblue" stroke="midnightblue" points="600.679,-90.1119 606.158,-81.0435 596.22,-84.7161 600.679,-90.1119"/>
</g>
<!-- Node14&#45;&gt;Node12 -->
<g id="edge76" class="edge"><title>Node14&#45;&gt;Node12</title>
<path fill="none" stroke="midnightblue" d="M465.332,-351.443C398.449,-342.253 246.686,-321.4 163.206,-309.929"/>
<polygon fill="midnightblue" stroke="midnightblue" points="163.511,-306.438 153.128,-308.544 162.558,-313.373 163.511,-306.438"/>
</g>
<!-- Node15 -->
<g id="node15" class="node"><title>Node15</title>
<polygon fill="white" stroke="#bfbfbf" points="607.5,-123.5 607.5,-142.5 661.5,-142.5 661.5,-123.5 607.5,-123.5"/>
<text text-anchor="middle" x="634.5" y="-130.5" font-family="Helvetica,sans-Serif" font-size="10.00">memory</text>
</g>
<!-- Node14&#45;&gt;Node15 -->
<g id="edge18" class="edge"><title>Node14&#45;&gt;Node15</title>
<path fill="none" stroke="midnightblue" d="M511.386,-347.231C522.813,-338.946 539.369,-325.634 550.5,-311 589.722,-259.435 617.079,-186.62 628.515,-152.72"/>
<polygon fill="midnightblue" stroke="midnightblue" points="631.978,-153.395 631.778,-142.802 625.328,-151.208 631.978,-153.395"/>
</g>
<!-- Node16 -->
<g id="node16" class="node"><title>Node16</title>
<polygon fill="white" stroke="#bfbfbf" points="831.5,-123.5 831.5,-142.5 871.5,-142.5 871.5,-123.5 831.5,-123.5"/>
<text text-anchor="middle" x="851.5" y="-130.5" font-family="Helvetica,sans-Serif" font-size="10.00">utility</text>
</g>
<!-- Node14&#45;&gt;Node16 -->
<g id="edge20" class="edge"><title>Node14&#45;&gt;Node16</title>
<path fill="none" stroke="midnightblue" d="M531.849,-354.38C637.335,-348.566 961.046,-325.227 1033.5,-255 1058.29,-230.976 1071.2,-205.844 1049.5,-179 1001.49,-119.616 955.464,-161.987 881.5,-143 881.401,-142.975 881.302,-142.949 881.203,-142.924"/>
<polygon fill="midnightblue" stroke="midnightblue" points="882.342,-139.607 871.771,-140.322 880.481,-146.355 882.342,-139.607"/>
</g>
<!-- Node17 -->
<g id="node17" class="node"><title>Node17</title>
<g id="a_node17"><a xlink:href="audio_8hpp.html" target="_top" xlink:title="Declaration of the Audio class. ">
<polygon fill="white" stroke="black" points="678.5,-179.5 678.5,-198.5 776.5,-198.5 776.5,-179.5 678.5,-179.5"/>
<text text-anchor="middle" x="727.5" y="-186.5" font-family="Helvetica,sans-Serif" font-size="10.00">../audio/audio.hpp</text>
</a>
</g>
</g>
<!-- Node14&#45;&gt;Node17 -->
<g id="edge22" class="edge"><title>Node14&#45;&gt;Node17</title>
<path fill="none" stroke="midnightblue" d="M531.505,-349.54C558.775,-343.052 597.568,-331.077 626.5,-311 667.365,-282.642 701.12,-233.548 717.258,-207.465"/>
<polygon fill="midnightblue" stroke="midnightblue" points="720.386,-209.055 722.559,-198.686 714.394,-205.437 720.386,-209.055"/>
</g>
<!-- Node24 -->
<g id="node24" class="node"><title>Node24</title>
<g id="a_node24"><a xlink:href="cmd__result_8hpp.html" target="_top" xlink:title="Declaration of the CommandResult class. ">
<polygon fill="white" stroke="black" points="388,-179.5 388,-198.5 483,-198.5 483,-179.5 388,-179.5"/>
<text text-anchor="middle" x="435.5" y="-186.5" font-family="Helvetica,sans-Serif" font-size="10.00">../cmd_result.hpp</text>
</a>
</g>
</g>
<!-- Node14&#45;&gt;Node24 -->
<g id="edge41" class="edge"><title>Node14&#45;&gt;Node24</title>
<path fill="none" stroke="midnightblue" d="M495.113,-347.075C485.153,-320.832 455.821,-243.545 442.376,-208.117"/>
<polygon fill="midnightblue" stroke="midnightblue" points="445.572,-206.676 438.752,-198.568 439.028,-209.159 445.572,-206.676"/>
</g>
<!-- Node25 -->
<g id="node25" class="node"><title>Node25</title>
<g id="a_node25"><a xlink:href="player__file_8hpp.html" target="_top" xlink:title="Declaration of the PlayerFile class, and associated types. ">
<polygon fill="white" stroke="black" points="716.5,-291.5 716.5,-310.5 802.5,-310.5 802.5,-291.5 716.5,-291.5"/>
<text text-anchor="middle" x="759.5" y="-298.5" font-family="Helvetica,sans-Serif" font-size="10.00">player_file.hpp</text>
</a>
</g>
</g>
<!-- Node14&#45;&gt;Node25 -->
<g id="edge46" class="edge"><title>Node14&#45;&gt;Node25</title>
<path fill="none" stroke="midnightblue" d="M531.556,-349.161C576.051,-339.955 655.659,-323.484 708.029,-312.649"/>
<polygon fill="midnightblue" stroke="midnightblue" points="709.038,-316.015 718.121,-310.561 707.62,-309.16 709.038,-316.015"/>
</g>
<!-- Node32 -->
<g id="node32" class="node"><title>Node32</title>
<g id="a_node32"><a xlink:href="player__position_8hpp.html" target="_top" xlink:title="Declaration of the PlayerPosition class. ">
<polygon fill="white" stroke="black" points="1671,-179.5 1671,-198.5 1780,-198.5 1780,-179.5 1671,-179.5"/>
<text text-anchor="middle" x="1725.5" y="-186.5" font-family="Helvetica,sans-Serif" font-size="10.00">player_position.hpp</text>
</a>
</g>
</g>
<!-- Node14&#45;&gt;Node32 -->
<g id="edge75" class="edge"><title>Node14&#45;&gt;Node32</title>
<path fill="none" stroke="midnightblue" d="M531.817,-354.911C623.521,-351.614 887.272,-340.125 1104.5,-311 1321.58,-281.895 1577.25,-224.719 1679.69,-200.86"/>
<polygon fill="midnightblue" stroke="midnightblue" points="1680.76,-204.206 1689.7,-198.522 1679.16,-197.39 1680.76,-204.206"/>
</g>
<!-- Node17&#45;&gt;Node3 -->
<g id="edge30" class="edge"><title>Node17&#45;&gt;Node3</title>
<path fill="none" stroke="midnightblue" d="M678.152,-180.32C617.107,-170.821 513.001,-154.62 445.499,-144.115"/>
<polygon fill="midnightblue" stroke="midnightblue" points="445.822,-140.623 435.403,-142.544 444.746,-147.54 445.822,-140.623"/>
</g>
<!-- Node17&#45;&gt;Node4 -->
<g id="edge23" class="edge"><title>Node17&#45;&gt;Node4</title>
<path fill="none" stroke="midnightblue" d="M729.333,-179.463C735.137,-152.428 753.211,-68.2392 761.398,-30.109"/>
<polygon fill="midnightblue" stroke="midnightblue" points="764.919,-30.3803 763.596,-19.8684 758.075,-28.9109 764.919,-30.3803"/>
</g>
<!-- Node17&#45;&gt;Node7 -->
<g id="edge25" class="edge"><title>Node17&#45;&gt;Node7</title>
<path fill="none" stroke="midnightblue" d="M726.598,-179.319C724.67,-160.757 720.107,-116.839 717.471,-91.4734"/>
<polygon fill="midnightblue" stroke="midnightblue" points="720.927,-90.8668 716.412,-81.282 713.965,-91.5902 720.927,-90.8668"/>
</g>
<!-- Node17&#45;&gt;Node8 -->
<g id="edge27" class="edge"><title>Node17&#45;&gt;Node8</title>
<path fill="none" stroke="midnightblue" d="M720.357,-179.369C709.786,-166.71 689.205,-142.494 670.5,-123 658.86,-110.869 645.098,-97.7909 634.515,-87.9837"/>
<polygon fill="midnightblue" stroke="midnightblue" points="636.86,-85.3846 627.13,-81.1915 632.121,-90.537 636.86,-85.3846"/>
</g>
<!-- Node17&#45;&gt;Node15 -->
<g id="edge24" class="edge"><title>Node17&#45;&gt;Node15</title>
<path fill="none" stroke="midnightblue" d="M712.558,-179.324C697.915,-170.822 675.366,-157.729 658.262,-147.797"/>
<polygon fill="midnightblue" stroke="midnightblue" points="659.81,-144.649 649.405,-142.655 656.295,-150.703 659.81,-144.649"/>
</g>
<!-- Node17&#45;&gt;Node16 -->
<g id="edge26" class="edge"><title>Node17&#45;&gt;Node16</title>
<path fill="none" stroke="midnightblue" d="M747.148,-179.444C767.465,-170.596 799.403,-156.687 822.598,-146.586"/>
<polygon fill="midnightblue" stroke="midnightblue" points="824.173,-149.718 831.944,-142.516 821.378,-143.3 824.173,-149.718"/>
</g>
<!-- Node18 -->
<g id="node18" class="node"><title>Node18</title>
<polygon fill="white" stroke="#bfbfbf" points="890,-123.5 890,-142.5 959,-142.5 959,-123.5 890,-123.5"/>
<text text-anchor="middle" x="924.5" y="-130.5" font-family="Helvetica,sans-Serif" font-size="10.00">portaudio.h</text>
</g>
<!-- Node17&#45;&gt;Node18 -->
<g id="edge28" class="edge"><title>Node17&#45;&gt;Node18</title>
<path fill="none" stroke="midnightblue" d="M758.715,-179.444C792.433,-170.201 846.3,-155.436 883.432,-145.257"/>
<polygon fill="midnightblue" stroke="midnightblue" points="884.712,-148.536 893.431,-142.516 882.861,-141.785 884.712,-148.536"/>
</g>
<!-- Node19 -->
<g id="node19" class="node"><title>Node19</title>
<polygon fill="white" stroke="#bfbfbf" points="977.5,-123.5 977.5,-142.5 1159.5,-142.5 1159.5,-123.5 977.5,-123.5"/>
<text text-anchor="middle" x="1068.5" y="-130.5" font-family="Helvetica,sans-Serif" font-size="10.00">portaudiocpp/CallbackInterface.hxx</text>
</g>
<!-- Node17&#45;&gt;Node19 -->
<g id="edge29" class="edge"><title>Node17&#45;&gt;Node19</title>
<path fill="none" stroke="midnightblue" d="M776.72,-180.206C836.894,-170.677 938.855,-154.53 1004.92,-144.069"/>
<polygon fill="midnightblue" stroke="midnightblue" points="1005.47,-147.526 1014.79,-142.505 1004.37,-140.612 1005.47,-147.526"/>
</g>
<!-- Node20 -->
<g id="node20" class="node"><title>Node20</title>
<g id="a_node20"><a xlink:href="audio__source_8hpp.html" target="_top" xlink:title="Declaration of the AudioSource class. ">
<polygon fill="white" stroke="black" points="1543.5,-123.5 1543.5,-142.5 1643.5,-142.5 1643.5,-123.5 1543.5,-123.5"/>
<text text-anchor="middle" x="1593.5" y="-130.5" font-family="Helvetica,sans-Serif" font-size="10.00">audio_source.hpp</text>
</a>
</g>
</g>
<!-- Node17&#45;&gt;Node20 -->
<g id="edge31" class="edge"><title>Node17&#45;&gt;Node20</title>
<path fill="none" stroke="midnightblue" d="M776.798,-182.97C791.784,-181.55 808.306,-180.096 823.5,-179 1135.69,-156.473 1217.95,-174.501 1532.99,-143.047"/>
<polygon fill="midnightblue" stroke="midnightblue" points="1533.73,-146.489 1543.33,-142.005 1533.03,-139.525 1533.73,-146.489"/>
</g>
<!-- Node20&#45;&gt;Node4 -->
<g id="edge33" class="edge"><title>Node20&#45;&gt;Node4</title>
<path fill="none" stroke="midnightblue" d="M1543.23,-124.462C1506.41,-117.74 1455.86,-105.97 1414.5,-87 1392.76,-77.0271 1393.02,-64.0679 1370.5,-56 1264.11,-17.8842 910.934,-12.0497 799.497,-11.1595"/>
<polygon fill="midnightblue" stroke="midnightblue" points="799.211,-7.65745 789.187,-11.086 799.161,-14.6573 799.211,-7.65745"/>
</g>
<!-- Node20&#45;&gt;Node7 -->
<g id="edge34" class="edge"><title>Node20&#45;&gt;Node7</title>
<path fill="none" stroke="midnightblue" d="M1543.33,-124.033C1540.34,-123.657 1537.38,-123.308 1534.5,-123 1228.8,-90.3256 856.472,-76.8521 747.11,-73.4271"/>
<polygon fill="midnightblue" stroke="midnightblue" points="747.175,-69.9275 737.072,-73.118 746.96,-76.9242 747.175,-69.9275"/>
</g>
<!-- Node20&#45;&gt;Node8 -->
<g id="edge35" class="edge"><title>Node20&#45;&gt;Node8</title>
<path fill="none" stroke="midnightblue" d="M1543.33,-123.967C1540.35,-123.607 1537.39,-123.281 1534.5,-123 1158.16,-86.4361 1059.54,-135.165 684.5,-87 673.318,-85.5639 661.238,-83.2053 650.455,-80.8035"/>
<polygon fill="midnightblue" stroke="midnightblue" points="651.118,-77.3645 640.586,-78.5162 649.538,-84.1837 651.118,-77.3645"/>
</g>
<!-- Node20&#45;&gt;Node9 -->
<g id="edge37" class="edge"><title>Node20&#45;&gt;Node9</title>
<path fill="none" stroke="midnightblue" d="M1574.3,-123.475C1551.71,-113.445 1514,-96.7002 1488,-85.1546"/>
<polygon fill="midnightblue" stroke="midnightblue" points="1489.22,-81.8685 1478.66,-81.0091 1486.38,-88.2662 1489.22,-81.8685"/>
</g>
<!-- Node21 -->
<g id="node21" class="node"><title>Node21</title>
<polygon fill="white" stroke="#bfbfbf" points="1514,-62 1514,-81 1555,-81 1555,-62 1514,-62"/>
<text text-anchor="middle" x="1534.5" y="-69" font-family="Helvetica,sans-Serif" font-size="10.00">array</text>
</g>
<!-- Node20&#45;&gt;Node21 -->
<g id="edge32" class="edge"><title>Node20&#45;&gt;Node21</title>
<path fill="none" stroke="midnightblue" d="M1585.05,-123.475C1575.93,-114.285 1561.23,-99.4563 1550.02,-88.156"/>
<polygon fill="midnightblue" stroke="midnightblue" points="1552.46,-85.6455 1542.94,-81.0091 1547.49,-90.5744 1552.46,-85.6455"/>
</g>
<!-- Node22 -->
<g id="node22" class="node"><title>Node22</title>
<polygon fill="white" stroke="#bfbfbf" points="1573,-62 1573,-81 1614,-81 1614,-62 1573,-62"/>
<text text-anchor="middle" x="1593.5" y="-69" font-family="Helvetica,sans-Serif" font-size="10.00">sox.h</text>
</g>
<!-- Node20&#45;&gt;Node22 -->
<g id="edge36" class="edge"><title>Node20&#45;&gt;Node22</title>
<path fill="none" stroke="midnightblue" d="M1593.5,-123.475C1593.5,-115.08 1593.5,-101.981 1593.5,-91.1631"/>
<polygon fill="midnightblue" stroke="midnightblue" points="1597,-91.0091 1593.5,-81.0091 1590,-91.0091 1597,-91.0091"/>
</g>
<!-- Node23 -->
<g id="node23" class="node"><title>Node23</title>
<g id="a_node23"><a xlink:href="sample__formats_8hpp.html" target="_top" xlink:title="The SampleFormat enumeration. ">
<polygon fill="white" stroke="black" points="1632,-62 1632,-81 1751,-81 1751,-62 1632,-62"/>
<text text-anchor="middle" x="1691.5" y="-69" font-family="Helvetica,sans-Serif" font-size="10.00">../sample_formats.hpp</text>
</a>
</g>
</g>
<!-- Node20&#45;&gt;Node23 -->
<g id="edge38" class="edge"><title>Node20&#45;&gt;Node23</title>
<path fill="none" stroke="midnightblue" d="M1607.54,-123.475C1623.55,-113.755 1649.95,-97.7266 1668.87,-86.2372"/>
<polygon fill="midnightblue" stroke="midnightblue" points="1670.75,-89.1907 1677.49,-81.0091 1667.12,-83.2072 1670.75,-89.1907"/>
</g>
<!-- Node23&#45;&gt;Node4 -->
<g id="edge39" class="edge"><title>Node23&#45;&gt;Node4</title>
<path fill="none" stroke="midnightblue" d="M1656.74,-61.9855C1646.13,-59.6853 1634.39,-57.4375 1623.5,-56 1305.11,-13.9712 915.377,-10.8075 799.515,-10.8637"/>
<polygon fill="midnightblue" stroke="midnightblue" points="799.164,-7.36409 789.169,-10.878 799.174,-14.3641 799.164,-7.36409"/>
</g>
<!-- Node24&#45;&gt;Node3 -->
<g id="edge45" class="edge"><title>Node24&#45;&gt;Node3</title>
<path fill="none" stroke="midnightblue" d="M426.418,-179.083C418.329,-171.141 406.305,-159.335 396.59,-149.797"/>
<polygon fill="midnightblue" stroke="midnightblue" points="399.001,-147.26 389.413,-142.751 394.097,-152.254 399.001,-147.26"/>
</g>
<!-- Node24&#45;&gt;Node4 -->
<g id="edge42" class="edge"><title>Node24&#45;&gt;Node4</title>
<path fill="none" stroke="midnightblue" d="M387.892,-183.293C361.596,-177.982 331.001,-166.741 314.5,-143 292.432,-111.249 288.551,-84.6666 314.5,-56 342.395,-25.1833 631.496,-14.581 731.604,-11.8181"/>
<polygon fill="midnightblue" stroke="midnightblue" points="731.869,-15.3124 741.772,-11.5467 731.682,-8.31489 731.869,-15.3124"/>
</g>
<!-- Node24&#45;&gt;Node7 -->
<g id="edge43" class="edge"><title>Node24&#45;&gt;Node7</title>
<path fill="none" stroke="midnightblue" d="M450.783,-179.484C474.754,-166.33 522.864,-140.735 565.5,-123 605.617,-106.312 653.404,-90.973 684.08,-81.6829"/>
<polygon fill="midnightblue" stroke="midnightblue" points="685.218,-84.9957 693.792,-78.7711 683.208,-78.2906 685.218,-84.9957"/>
</g>
<!-- Node24&#45;&gt;Node8 -->
<g id="edge44" class="edge"><title>Node24&#45;&gt;Node8</title>
<path fill="none" stroke="midnightblue" d="M440.723,-179.224C449.304,-165.484 467.635,-138.831 489.5,-123 518.325,-102.129 556.946,-88.4482 584.202,-80.6564"/>
<polygon fill="midnightblue" stroke="midnightblue" points="585.329,-83.9765 594.047,-77.9557 583.477,-77.2258 585.329,-83.9765"/>
</g>
<!-- Node25&#45;&gt;Node3 -->
<g id="edge69" class="edge"><title>Node25&#45;&gt;Node3</title>
<path fill="none" stroke="midnightblue" d="M716.397,-295.107C625.655,-283.826 419.865,-252.759 378.5,-199 368.405,-185.88 370.53,-166.466 374.189,-152.272"/>
<polygon fill="midnightblue" stroke="midnightblue" points="377.561,-153.211 377.108,-142.626 370.861,-151.183 377.561,-153.211"/>
</g>
<!-- Node25&#45;&gt;Node15 -->
<g id="edge47" class="edge"><title>Node25&#45;&gt;Node15</title>
<path fill="none" stroke="midnightblue" d="M750.555,-291.406C733.451,-274.681 695.501,-236.13 669.5,-199 658.955,-183.941 649.239,-165.351 642.733,-151.915"/>
<polygon fill="midnightblue" stroke="midnightblue" points="645.859,-150.336 638.424,-142.788 639.529,-153.325 645.859,-150.336"/>
</g>
<!-- Node25&#45;&gt;Node17 -->
<g id="edge68" class="edge"><title>Node25&#45;&gt;Node17</title>
<path fill="none" stroke="midnightblue" d="M756.989,-291.368C751.802,-273.537 739.804,-232.295 732.815,-208.272"/>
<polygon fill="midnightblue" stroke="midnightblue" points="736.153,-207.216 729.999,-198.591 729.432,-209.171 736.153,-207.216"/>
</g>
<!-- Node26 -->
<g id="node26" class="node"><title>Node26</title>
<g id="a_node26"><a xlink:href="audio__system_8hpp.html" target="_top" xlink:title="Declaration of the AudioSystem class. ">
<polygon fill="white" stroke="black" points="887,-235.5 887,-254.5 1024,-254.5 1024,-235.5 887,-235.5"/>
<text text-anchor="middle" x="955.5" y="-242.5" font-family="Helvetica,sans-Serif" font-size="10.00">../audio/audio_system.hpp</text>
</a>
</g>
</g>
<!-- Node25&#45;&gt;Node26 -->
<g id="edge48" class="edge"><title>Node25&#45;&gt;Node26</title>
<path fill="none" stroke="midnightblue" d="M790.557,-291.444C824.103,-282.201 877.697,-267.436 914.641,-257.257"/>
<polygon fill="midnightblue" stroke="midnightblue" points="915.877,-260.547 924.589,-254.516 914.018,-253.798 915.877,-260.547"/>
</g>
<!-- Node25&#45;&gt;Node32 -->
<g id="edge70" class="edge"><title>Node25&#45;&gt;Node32</title>
<path fill="none" stroke="midnightblue" d="M802.938,-295.383C932.674,-281.534 1328.64,-238.837 1656.5,-199 1657.96,-198.822 1659.44,-198.641 1660.93,-198.457"/>
<polygon fill="midnightblue" stroke="midnightblue" points="1661.41,-201.925 1670.9,-197.212 1660.54,-194.979 1661.41,-201.925"/>
</g>
<!-- Node26&#45;&gt;Node7 -->
<g id="edge49" class="edge"><title>Node26&#45;&gt;Node7</title>
<path fill="none" stroke="midnightblue" d="M912.427,-235.495C885.252,-228.696 850.344,-217.221 823.5,-199 779.664,-169.245 743.189,-117.166 726.039,-90.0441"/>
<polygon fill="midnightblue" stroke="midnightblue" points="728.851,-87.9361 720.618,-81.2684 722.896,-91.6154 728.851,-87.9361"/>
</g>
<!-- Node26&#45;&gt;Node16 -->
<g id="edge50" class="edge"><title>Node26&#45;&gt;Node16</title>
<path fill="none" stroke="midnightblue" d="M980.746,-235.476C1010.14,-224.195 1052.42,-202.919 1033.5,-179 990.436,-124.546 948.555,-160.982 881.5,-143 881.402,-142.974 881.303,-142.947 881.204,-142.92"/>
<polygon fill="midnightblue" stroke="midnightblue" points="882.362,-139.611 871.787,-140.262 880.46,-146.347 882.362,-139.611"/>
</g>
<!-- Node26&#45;&gt;Node17 -->
<g id="edge67" class="edge"><title>Node26&#45;&gt;Node17</title>
<path fill="none" stroke="midnightblue" d="M919.373,-235.444C879.849,-226.083 816.403,-211.056 773.387,-200.868"/>
<polygon fill="midnightblue" stroke="midnightblue" points="773.996,-197.415 763.458,-198.516 772.382,-204.227 773.996,-197.415"/>
</g>
<!-- Node26&#45;&gt;Node20 -->
<g id="edge66" class="edge"><title>Node26&#45;&gt;Node20</title>
<path fill="none" stroke="midnightblue" d="M1024.07,-236.372C1091.95,-228.448 1198.72,-214.983 1290.5,-199 1382.69,-182.944 1489.48,-158.7 1548.48,-144.806"/>
<polygon fill="midnightblue" stroke="midnightblue" points="1549.3,-148.209 1558.22,-142.502 1547.68,-141.396 1549.3,-148.209"/>
</g>
<!-- Node26&#45;&gt;Node23 -->
<g id="edge53" class="edge"><title>Node26&#45;&gt;Node23</title>
<path fill="none" stroke="midnightblue" d="M1024.11,-241.993C1179.56,-236.211 1552.83,-215.005 1652.5,-143 1670,-130.355 1680.58,-107.324 1686.22,-91.0309"/>
<polygon fill="midnightblue" stroke="midnightblue" points="1689.7,-91.6276 1689.36,-81.0383 1683.02,-89.5298 1689.7,-91.6276"/>
</g>
<!-- Node27 -->
<g id="node27" class="node"><title>Node27</title>
<polygon fill="white" stroke="#bfbfbf" points="833,-179.5 833,-198.5 1024,-198.5 1024,-179.5 833,-179.5"/>
<text text-anchor="middle" x="928.5" y="-186.5" font-family="Helvetica,sans-Serif" font-size="10.00">portaudiocpp/SampleDataFormat.hxx</text>
</g>
<!-- Node26&#45;&gt;Node27 -->
<g id="edge51" class="edge"><title>Node26&#45;&gt;Node27</title>
<path fill="none" stroke="midnightblue" d="M951.041,-235.083C947.346,-227.691 941.977,-216.953 937.406,-207.811"/>
<polygon fill="midnightblue" stroke="midnightblue" points="940.478,-206.13 932.876,-198.751 934.217,-209.261 940.478,-206.13"/>
</g>
<!-- Node28 -->
<g id="node28" class="node"><title>Node28</title>
<polygon fill="white" stroke="#bfbfbf" points="1391.5,-123.5 1391.5,-142.5 1525.5,-142.5 1525.5,-123.5 1391.5,-123.5"/>
<text text-anchor="middle" x="1458.5" y="-130.5" font-family="Helvetica,sans-Serif" font-size="10.00">portaudiocpp/Stream.hxx</text>
</g>
<!-- Node26&#45;&gt;Node28 -->
<g id="edge52" class="edge"><title>Node26&#45;&gt;Node28</title>
<path fill="none" stroke="midnightblue" d="M1024.23,-235.76C1082.26,-228.18 1167.35,-215.603 1240.5,-199 1306.28,-184.069 1381.33,-160.126 1424,-145.844"/>
<polygon fill="midnightblue" stroke="midnightblue" points="1425.25,-149.114 1433.61,-142.605 1423.02,-142.48 1425.25,-149.114"/>
</g>
<!-- Node29 -->
<g id="node29" class="node"><title>Node29</title>
<g id="a_node29"><a xlink:href="audio__sink_8hpp.html" target="_top" xlink:title="Declaration of the AudioSink class. ">
<polygon fill="white" stroke="black" points="1144,-179.5 1144,-198.5 1231,-198.5 1231,-179.5 1144,-179.5"/>
<text text-anchor="middle" x="1187.5" y="-186.5" font-family="Helvetica,sans-Serif" font-size="10.00">audio_sink.hpp</text>
</a>
</g>
</g>
<!-- Node26&#45;&gt;Node29 -->
<g id="edge54" class="edge"><title>Node26&#45;&gt;Node29</title>
<path fill="none" stroke="midnightblue" d="M992.261,-235.444C1032.56,-226.063 1097.31,-210.993 1141.08,-200.804"/>
<polygon fill="midnightblue" stroke="midnightblue" points="1141.96,-204.192 1150.91,-198.516 1140.38,-197.375 1141.96,-204.192"/>
</g>
<!-- Node29&#45;&gt;Node4 -->
<g id="edge55" class="edge"><title>Node29&#45;&gt;Node4</title>
<path fill="none" stroke="midnightblue" d="M1226.29,-179.435C1270.39,-169.31 1337.25,-152.624 1344.5,-143 1357.72,-125.458 1371.77,-89.4055 1337.5,-56 1298.89,-18.3686 916.514,-12.2026 799.408,-11.1957"/>
<polygon fill="midnightblue" stroke="midnightblue" points="799.261,-7.69453 789.234,-11.1157 799.206,-14.6943 799.261,-7.69453"/>
</g>
<!-- Node29&#45;&gt;Node7 -->
<g id="edge57" class="edge"><title>Node29&#45;&gt;Node7</title>
<path fill="none" stroke="midnightblue" d="M1193.57,-179.211C1202.27,-165.453 1215.72,-138.776 1201.5,-123 1171.05,-89.2264 850.686,-76.6018 747.4,-73.3913"/>
<polygon fill="midnightblue" stroke="midnightblue" points="747.374,-69.889 737.273,-73.0853 747.162,-76.8858 747.374,-69.889"/>
</g>
<!-- Node29&#45;&gt;Node8 -->
<g id="edge59" class="edge"><title>Node29&#45;&gt;Node8</title>
<path fill="none" stroke="midnightblue" d="M1187.83,-179.164C1187.83,-164.836 1185.5,-136.756 1168.5,-123 1126.58,-89.0778 737.871,-94.7219 684.5,-87 673.343,-85.3857 661.269,-82.9807 650.484,-80.5913"/>
<polygon fill="midnightblue" stroke="midnightblue" points="651.14,-77.151 640.611,-78.3314 649.578,-83.9745 651.14,-77.151"/>
</g>
<!-- Node29&#45;&gt;Node15 -->
<g id="edge56" class="edge"><title>Node29&#45;&gt;Node15</title>
<path fill="none" stroke="midnightblue" d="M1143.64,-183.718C1037.9,-173.392 770.373,-147.268 671.753,-137.638"/>
<polygon fill="midnightblue" stroke="midnightblue" points="671.955,-134.141 661.662,-136.652 671.274,-141.108 671.955,-134.141"/>
</g>
<!-- Node29&#45;&gt;Node16 -->
<g id="edge58" class="edge"><title>Node29&#45;&gt;Node16</title>
<path fill="none" stroke="midnightblue" d="M1143.76,-182.367C1071.57,-172.935 930.575,-153.909 881.5,-143 881.4,-142.978 881.301,-142.956 881.201,-142.933"/>
<polygon fill="midnightblue" stroke="midnightblue" points="882.284,-139.598 871.728,-140.504 880.545,-146.378 882.284,-139.598"/>
</g>
<!-- Node29&#45;&gt;Node18 -->
<g id="edge60" class="edge"><title>Node29&#45;&gt;Node18</title>
<path fill="none" stroke="midnightblue" d="M1145.83,-179.444C1097.69,-169.559 1018.78,-153.359 969.341,-143.207"/>
<polygon fill="midnightblue" stroke="midnightblue" points="969.759,-139.72 959.259,-141.137 968.351,-146.577 969.759,-139.72"/>
</g>
<!-- Node29&#45;&gt;Node19 -->
<g id="edge61" class="edge"><title>Node29&#45;&gt;Node19</title>
<path fill="none" stroke="midnightblue" d="M1168.64,-179.444C1149.23,-170.636 1118.77,-156.812 1096.54,-146.722"/>
<polygon fill="midnightblue" stroke="midnightblue" points="1097.82,-143.462 1087.27,-142.516 1094.93,-149.836 1097.82,-143.462"/>
</g>
<!-- Node29&#45;&gt;Node20 -->
<g id="edge63" class="edge"><title>Node29&#45;&gt;Node20</title>
<path fill="none" stroke="midnightblue" d="M1231.09,-182.665C1295.03,-174.771 1418.24,-159.292 1533.26,-143.149"/>
<polygon fill="midnightblue" stroke="midnightblue" points="1533.88,-146.596 1543.3,-141.736 1532.91,-139.665 1533.88,-146.596"/>
</g>
<!-- Node29&#45;&gt;Node28 -->
<g id="edge62" class="edge"><title>Node29&#45;&gt;Node28</title>
<path fill="none" stroke="midnightblue" d="M1230.44,-179.444C1278.01,-169.964 1354.74,-154.675 1405.89,-144.483"/>
<polygon fill="midnightblue" stroke="midnightblue" points="1406.64,-147.903 1415.76,-142.516 1405.27,-141.038 1406.64,-147.903"/>
</g>
<!-- Node30 -->
<g id="node30" class="node"><title>Node30</title>
<g id="a_node30"><a xlink:href="ringbuffer_8hpp.html" target="_top" xlink:title="The RingBuffer class template. ">
<polygon fill="white" stroke="black" points="1254,-123.5 1254,-142.5 1335,-142.5 1335,-123.5 1254,-123.5"/>
<text text-anchor="middle" x="1294.5" y="-130.5" font-family="Helvetica,sans-Serif" font-size="10.00">ringbuffer.hpp</text>
</a>
</g>
</g>
<!-- Node29&#45;&gt;Node30 -->
<g id="edge64" class="edge"><title>Node29&#45;&gt;Node30</title>
<path fill="none" stroke="midnightblue" d="M1204.69,-179.324C1221.85,-170.664 1248.45,-157.242 1268.25,-147.249"/>
<polygon fill="midnightblue" stroke="midnightblue" points="1270,-150.285 1277.35,-142.655 1266.85,-144.035 1270,-150.285"/>
</g>
<!-- Node31 -->
<g id="node31" class="node"><title>Node31</title>
<polygon fill="white" stroke="#bfbfbf" points="1207,-56.5 1207,-86.5 1328,-86.5 1328,-56.5 1207,-56.5"/>
<text text-anchor="start" x="1215" y="-74.5" font-family="Helvetica,sans-Serif" font-size="10.00">../contrib/pa_ringbuffer</text>
<text text-anchor="middle" x="1267.5" y="-63.5" font-family="Helvetica,sans-Serif" font-size="10.00">/pa_ringbuffer.h</text>
</g>
<!-- Node30&#45;&gt;Node31 -->
<g id="edge65" class="edge"><title>Node30&#45;&gt;Node31</title>
<path fill="none" stroke="midnightblue" d="M1290.63,-123.475C1287.35,-116.245 1282.49,-105.525 1278.06,-95.7792"/>
<polygon fill="midnightblue" stroke="midnightblue" points="1281.18,-94.183 1273.86,-86.523 1274.81,-97.0756 1281.18,-94.183"/>
</g>
<!-- Node32&#45;&gt;Node3 -->
<g id="edge74" class="edge"><title>Node32&#45;&gt;Node3</title>
<path fill="none" stroke="midnightblue" d="M1670.96,-185.849C1508.07,-179.417 1010.84,-159.744 598.5,-143 548.044,-140.951 491.02,-138.596 447.952,-136.808"/>
<polygon fill="midnightblue" stroke="midnightblue" points="448.01,-133.308 437.873,-136.39 447.719,-140.302 448.01,-133.308"/>
</g>
<!-- Node32&#45;&gt;Node4 -->
<g id="edge71" class="edge"><title>Node32&#45;&gt;Node4</title>
<path fill="none" stroke="midnightblue" d="M1732.58,-179.243C1750.6,-155.886 1794.41,-91.4778 1760.5,-56 1726.58,-20.5099 969.621,-12.5727 799.317,-11.2338"/>
<polygon fill="midnightblue" stroke="midnightblue" points="799.208,-7.73294 789.182,-11.1565 799.155,-14.7327 799.208,-7.73294"/>
</g>
<!-- Node32&#45;&gt;Node20 -->
<g id="edge73" class="edge"><title>Node32&#45;&gt;Node20</title>
<path fill="none" stroke="midnightblue" d="M1704.58,-179.444C1682.76,-170.517 1648.35,-156.439 1623.61,-146.317"/>
<polygon fill="midnightblue" stroke="midnightblue" points="1624.9,-143.063 1614.32,-142.516 1622.25,-149.542 1624.9,-143.063"/>
</g>
<!-- Node33 -->
<g id="node33" class="node"><title>Node33</title>
<polygon fill="white" stroke="#bfbfbf" points="1710,-123.5 1710,-142.5 1741,-142.5 1741,-123.5 1710,-123.5"/>
<text text-anchor="middle" x="1725.5" y="-130.5" font-family="Helvetica,sans-Serif" font-size="10.00">set</text>
</g>
<!-- Node32&#45;&gt;Node33 -->
<g id="edge72" class="edge"><title>Node32&#45;&gt;Node33</title>
<path fill="none" stroke="midnightblue" d="M1725.5,-179.083C1725.5,-172.006 1725.5,-161.861 1725.5,-152.986"/>
<polygon fill="midnightblue" stroke="midnightblue" points="1729,-152.751 1725.5,-142.751 1722,-152.751 1729,-152.751"/>
</g>
</g>
</svg>
