<?xml version="1.0" encoding="UTF-8" standalone="no"?>
<!DOCTYPE svg PUBLIC "-//W3C//DTD SVG 1.1//EN"
 "http://www.w3.org/Graphics/SVG/1.1/DTD/svg11.dtd">
<!-- Generated by graphviz version 2.38.0 (20140413.2041)
 -->
<!-- Title: src/player/player_position.hpp Pages: 1 -->
<svg width="427pt" height="196pt"
 viewBox="0.00 0.00 427.00 196.00" xmlns="http://www.w3.org/2000/svg" xmlns:xlink="http://www.w3.org/1999/xlink">
<g id="graph0" class="graph" transform="scale(1 1) rotate(0) translate(4 192)">
<title>src/player/player_position.hpp</title>
<polygon fill="white" stroke="none" points="-4,4 -4,-192 423,-192 423,4 -4,4"/>
<!-- Node1 -->
<g id="node1" class="node"><title>Node1</title>
<polygon fill="#bfbfbf" stroke="black" points="21,-168.5 21,-187.5 179,-187.5 179,-168.5 21,-168.5"/>
<text text-anchor="middle" x="100" y="-175.5" font-family="Helvetica,sans-Serif" font-size="10.00">src/player/player_position.hpp</text>
</g>
<!-- Node2 -->
<g id="node2" class="node"><title>Node2</title>
<polygon fill="white" stroke="#bfbfbf" points="0,-112.5 0,-131.5 50,-131.5 50,-112.5 0,-112.5"/>
<text text-anchor="middle" x="25" y="-119.5" font-family="Helvetica,sans-Serif" font-size="10.00">chrono</text>
</g>
<!-- Node1&#45;&gt;Node2 -->
<g id="edge1" class="edge"><title>Node1&#45;&gt;Node2</title>
<path fill="none" stroke="midnightblue" d="M87.95,-168.324C76.5369,-160.107 59.169,-147.602 45.5651,-137.807"/>
<polygon fill="midnightblue" stroke="midnightblue" points="47.4297,-134.837 37.2693,-131.834 43.3396,-140.517 47.4297,-134.837"/>
</g>
<!-- Node3 -->
<g id="node3" class="node"><title>Node3</title>
<polygon fill="white" stroke="#bfbfbf" points="48,-56.5 48,-75.5 110,-75.5 110,-56.5 48,-56.5"/>
<text text-anchor="middle" x="79" y="-63.5" font-family="Helvetica,sans-Serif" font-size="10.00">functional</text>
</g>
<!-- Node1&#45;&gt;Node3 -->
<g id="edge2" class="edge"><title>Node1&#45;&gt;Node3</title>
<path fill="none" stroke="midnightblue" d="M98.3522,-168.368C94.9632,-150.617 87.1454,-109.666 82.5504,-85.5974"/>
<polygon fill="midnightblue" stroke="midnightblue" points="85.9534,-84.7577 80.6402,-75.5914 79.0776,-86.0704 85.9534,-84.7577"/>
</g>
<!-- Node4 -->
<g id="node4" class="node"><title>Node4</title>
<polygon fill="white" stroke="#bfbfbf" points="106.5,-112.5 106.5,-131.5 137.5,-131.5 137.5,-112.5 106.5,-112.5"/>
<text text-anchor="middle" x="122" y="-119.5" font-family="Helvetica,sans-Serif" font-size="10.00">set</text>
</g>
<!-- Node1&#45;&gt;Node4 -->
<g id="edge3" class="edge"><title>Node1&#45;&gt;Node4</title>
<path fill="none" stroke="midnightblue" d="M103.633,-168.083C106.612,-160.77 110.926,-150.181 114.625,-141.103"/>
<polygon fill="midnightblue" stroke="midnightblue" points="117.903,-142.333 118.435,-131.751 111.42,-139.691 117.903,-142.333"/>
</g>
<!-- Node5 -->
<g id="node5" class="node"><title>Node5</title>
<g id="a_node5"><a xlink:href="io__response_8hpp.html" target="_top" xlink:title="Declaration of classes pertaining to responses to the client. ">
<polygon fill="white" stroke="black" points="156,-112.5 156,-131.5 270,-131.5 270,-112.5 156,-112.5"/>
<text text-anchor="middle" x="213" y="-119.5" font-family="Helvetica,sans-Serif" font-size="10.00">../io/io_response.hpp</text>
</a>
</g>
</g>
<!-- Node1&#45;&gt;Node5 -->
<g id="edge4" class="edge"><title>Node1&#45;&gt;Node5</title>
<path fill="none" stroke="midnightblue" d="M117.905,-168.444C136.254,-159.675 165.005,-145.935 186.094,-135.858"/>
<polygon fill="midnightblue" stroke="midnightblue" points="187.665,-138.986 195.179,-131.516 184.647,-132.67 187.665,-138.986"/>
</g>
<!-- Node5&#45;&gt;Node3 -->
<g id="edge5" class="edge"><title>Node5&#45;&gt;Node3</title>
<path fill="none" stroke="midnightblue" d="M191.767,-112.444C169.616,-103.517 134.681,-89.4387 109.564,-79.3168"/>
<polygon fill="midnightblue" stroke="midnightblue" points="110.717,-76.0079 100.133,-75.5164 108.1,-82.5006 110.717,-76.0079"/>
</g>
<!-- Node6 -->
<g id="node6" class="node"><title>Node6</title>
<polygon fill="white" stroke="#bfbfbf" points="129.5,-56.5 129.5,-75.5 166.5,-75.5 166.5,-56.5 129.5,-56.5"/>
<text text-anchor="middle" x="148" y="-63.5" font-family="Helvetica,sans-Serif" font-size="10.00">map</text>
</g>
<!-- Node5&#45;&gt;Node6 -->
<g id="edge6" class="edge"><title>Node5&#45;&gt;Node6</title>
<path fill="none" stroke="midnightblue" d="M202.557,-112.324C192.854,-104.263 178.185,-92.0765 166.5,-82.3695"/>
<polygon fill="midnightblue" stroke="midnightblue" points="168.562,-79.532 158.633,-75.8339 164.089,-84.9163 168.562,-79.532"/>
</g>
<!-- Node7 -->
<g id="node7" class="node"><title>Node7</title>
<polygon fill="white" stroke="#bfbfbf" points="184.5,-56.5 184.5,-75.5 239.5,-75.5 239.5,-56.5 184.5,-56.5"/>
<text text-anchor="middle" x="212" y="-63.5" font-family="Helvetica,sans-Serif" font-size="10.00">ostream</text>
</g>
<!-- Node5&#45;&gt;Node7 -->
<g id="edge7" class="edge"><title>Node5&#45;&gt;Node7</title>
<path fill="none" stroke="midnightblue" d="M212.835,-112.083C212.704,-105.006 212.516,-94.8611 212.352,-85.9865"/>
<polygon fill="midnightblue" stroke="midnightblue" points="215.847,-85.6845 212.162,-75.7511 208.848,-85.8142 215.847,-85.6845"/>
</g>
<!-- Node8 -->
<g id="node8" class="node"><title>Node8</title>
<polygon fill="white" stroke="#bfbfbf" points="257.5,-56.5 257.5,-75.5 300.5,-75.5 300.5,-56.5 257.5,-56.5"/>
<text text-anchor="middle" x="279" y="-63.5" font-family="Helvetica,sans-Serif" font-size="10.00">string</text>
</g>
<!-- Node5&#45;&gt;Node8 -->
<g id="edge8" class="edge"><title>Node5&#45;&gt;Node8</title>
<path fill="none" stroke="midnightblue" d="M223.604,-112.324C233.456,-104.263 248.351,-92.0765 260.215,-82.3695"/>
<polygon fill="midnightblue" stroke="midnightblue" points="262.68,-84.8752 268.203,-75.8339 258.247,-79.4575 262.68,-84.8752"/>
</g>
<!-- Node9 -->
<g id="node9" class="node"><title>Node9</title>
<g id="a_node9"><a xlink:href="errors_8hpp.html" target="_top" xlink:title="Declarations of the playd Error exception set. ">
<polygon fill="white" stroke="black" points="318.5,-56.5 318.5,-75.5 391.5,-75.5 391.5,-56.5 318.5,-56.5"/>
<text text-anchor="middle" x="355" y="-63.5" font-family="Helvetica,sans-Serif" font-size="10.00">../errors.hpp</text>
</a>
</g>
</g>
<!-- Node5&#45;&gt;Node9 -->
<g id="edge9" class="edge"><title>Node5&#45;&gt;Node9</title>
<path fill="none" stroke="midnightblue" d="M235.5,-112.444C259.077,-103.478 296.322,-89.314 322.964,-79.1827"/>
<polygon fill="midnightblue" stroke="midnightblue" points="324.502,-82.3424 332.605,-75.5164 322.014,-75.7995 324.502,-82.3424"/>
</g>
<!-- Node10 -->
<g id="node10" class="node"><title>Node10</title>
<polygon fill="white" stroke="#bfbfbf" points="289.5,-0.5 289.5,-19.5 346.5,-19.5 346.5,-0.5 289.5,-0.5"/>
<text text-anchor="middle" x="318" y="-7.5" font-family="Helvetica,sans-Serif" font-size="10.00">iostream</text>
</g>
<!-- Node9&#45;&gt;Node10 -->
<g id="edge10" class="edge"><title>Node9&#45;&gt;Node10</title>
<path fill="none" stroke="midnightblue" d="M348.89,-56.083C343.718,-48.5341 336.154,-37.4948 329.806,-28.2298"/>
<polygon fill="midnightblue" stroke="midnightblue" points="332.536,-26.0221 323.996,-19.7511 326.761,-29.9787 332.536,-26.0221"/>
</g>
<!-- Node11 -->
<g id="node11" class="node"><title>Node11</title>
<polygon fill="white" stroke="#bfbfbf" points="365,-0.5 365,-19.5 419,-19.5 419,-0.5 365,-0.5"/>
<text text-anchor="middle" x="392" y="-7.5" font-family="Helvetica,sans-Serif" font-size="10.00">sstream</text>
</g>
<!-- Node9&#45;&gt;Node11 -->
<g id="edge11" class="edge"><title>Node9&#45;&gt;Node11</title>
<path fill="none" stroke="midnightblue" d="M361.11,-56.083C366.282,-48.5341 373.846,-37.4948 380.194,-28.2298"/>
<polygon fill="midnightblue" stroke="midnightblue" points="383.239,-29.9787 386.004,-19.7511 377.464,-26.0221 383.239,-29.9787"/>
</g>
</g>
</svg>
