<?xml version="1.0" encoding="UTF-8" standalone="no"?>
<!DOCTYPE svg PUBLIC "-//W3C//DTD SVG 1.1//EN"
 "http://www.w3.org/Graphics/SVG/1.1/DTD/svg11.dtd">
<!-- Generated by graphviz version 2.38.0 (20140413.2041)
 -->
<!-- Title: src/player/player.hpp Pages: 1 -->
<!--zoomable 375 -->
<svg id="main" version="1.1" xmlns="http://www.w3.org/2000/svg" xmlns:xlink="http://www.w3.org/1999/xlink" xml:space="preserve" onload="init(evt)">
<style type="text/css"><![CDATA[
.edge:hover path { stroke: red; }
.edge:hover polygon { stroke: red; fill: red; }
]]></style>
<script type="text/javascript"><![CDATA[
var edges = document.getElementsByTagName('g');
if (edges && edges.length) {
  for (var i=0;i<edges.length;i++) {
    if (edges[i].id.substr(0,4)=='edge') {
      edges[i].setAttribute('class','edge');
    }
  }
}
]]></script>
        <defs>
                <circle id="rim" cx="0" cy="0" r="7"/>
                <circle id="rim2" cx="0" cy="0" r="3.5"/>
                <g id="zoomPlus">
                        <use xlink:href="#rim" fill="#404040">
                                <set attributeName="fill" to="#808080" begin="zoomplus.mouseover" end="zoomplus.mouseout"/>
                        </use>
                        <path d="M-4,0h8M0,-4v8" fill="none" stroke="white" stroke-width="1.5" pointer-events="none"/>
                </g>
                <g id="zoomMin">
                        <use xlink:href="#rim" fill="#404040">
                                <set attributeName="fill" to="#808080" begin="zoomminus.mouseover" end="zoomminus.mouseout"/>
                        </use>
                        <path d="M-4,0h8" fill="none" stroke="white" stroke-width="1.5" pointer-events="none"/>
                </g>
                <g id="dirArrow">
                        <path fill="none" stroke="white" stroke-width="1.5" d="M0,-3.0v7 M-2.5,-0.5L0,-3.0L2.5,-0.5"/>
                </g>
               <g id="resetDef">
                       <use xlink:href="#rim2" fill="#404040">
                               <set attributeName="fill" to="#808080" begin="reset.mouseover" end="reset.mouseout"/>
                       </use>
               </g>
        </defs>

<script type="text/javascript">
var viewWidth = 1683;
var viewHeight = 375;
var sectionId = 'dynsection-0';
</script>
<script xlink:href="svgpan.js"/>
<svg id="graph" class="graph">
<g id="viewport">
<title>src/player/player.hpp</title>
<polygon fill="white" stroke="none" points="-4,4 -4,-371 1679,-371 1679,4 -4,4"/>
<!-- Node1 -->
<g id="node1" class="node"><title>Node1</title>
<polygon fill="#bfbfbf" stroke="black" points="379,-347.5 379,-366.5 495,-366.5 495,-347.5 379,-347.5"/>
<text text-anchor="middle" x="437" y="-354.5" font-family="Helvetica,sans-Serif" font-size="10.00">src/player/player.hpp</text>
</g>
<!-- Node2 -->
<g id="node2" class="node"><title>Node2</title>
<polygon fill="white" stroke="#bfbfbf" points="1140.5,-0.5 1140.5,-19.5 1187.5,-19.5 1187.5,-0.5 1140.5,-0.5"/>
<text text-anchor="middle" x="1164" y="-7.5" font-family="Helvetica,sans-Serif" font-size="10.00">cstdint</text>
</g>
<!-- Node1&#45;&gt;Node2 -->
<g id="edge1" class="edge"><title>Node1&#45;&gt;Node2</title>
<path fill="none" stroke="midnightblue" d="M495.336,-355.104C709.612,-351.612 1446.07,-337.764 1548,-311 1609.33,-294.897 1675,-309.408 1675,-246 1675,-246 1675,-246 1675,-132 1675,-89.2385 1653.42,-76.6864 1616,-56 1544.13,-16.276 1290.07,-11.4027 1197.8,-10.9667"/>
<polygon fill="midnightblue" stroke="midnightblue" points="1197.64,-7.46623 1187.63,-10.9339 1197.61,-14.4662 1197.64,-7.46623"/>
</g>
<!-- Node3 -->
<g id="node3" class="node"><title>Node3</title>
<polygon fill="white" stroke="#bfbfbf" points="24.5,-62 24.5,-81 61.5,-81 61.5,-62 24.5,-62"/>
<text text-anchor="middle" x="43" y="-69" font-family="Helvetica,sans-Serif" font-size="10.00">map</text>
</g>
<!-- Node1&#45;&gt;Node3 -->
<g id="edge2" class="edge"><title>Node1&#45;&gt;Node3</title>
<path fill="none" stroke="midnightblue" d="M378.97,-353.496C260.097,-346.779 0,-323.257 0,-246 0,-246 0,-246 0,-188 0,-151.261 19.3439,-111.846 32.0833,-89.8723"/>
<polygon fill="midnightblue" stroke="midnightblue" points="35.2198,-91.4483 37.3785,-81.0757 29.2225,-87.8381 35.2198,-91.4483"/>
</g>
<!-- Node4 -->
<g id="node4" class="node"><title>Node4</title>
<polygon fill="white" stroke="#bfbfbf" points="446,-123.5 446,-142.5 500,-142.5 500,-123.5 446,-123.5"/>
<text text-anchor="middle" x="473" y="-130.5" font-family="Helvetica,sans-Serif" font-size="10.00">memory</text>
</g>
<!-- Node1&#45;&gt;Node4 -->
<g id="edge3" class="edge"><title>Node1&#45;&gt;Node4</title>
<path fill="none" stroke="midnightblue" d="M438.411,-347.297C443.708,-314.633 462.481,-198.866 469.926,-152.957"/>
<polygon fill="midnightblue" stroke="midnightblue" points="473.413,-153.315 471.559,-142.884 466.504,-152.195 473.413,-153.315"/>
</g>
<!-- Node5 -->
<g id="node5" class="node"><title>Node5</title>
<polygon fill="white" stroke="#bfbfbf" points="953.5,-62 953.5,-81 996.5,-81 996.5,-62 953.5,-62"/>
<text text-anchor="middle" x="975" y="-69" font-family="Helvetica,sans-Serif" font-size="10.00">string</text>
</g>
<!-- Node1&#45;&gt;Node5 -->
<g id="edge4" class="edge"><title>Node1&#45;&gt;Node5</title>
<path fill="none" stroke="midnightblue" d="M495.222,-354.939C701.478,-349.702 1390.4,-319.075 1491,-143 1544.93,-48.6055 1110,-115.167 1005,-87 1003.07,-86.4829 1001.12,-85.8419 999.183,-85.1196"/>
<polygon fill="midnightblue" stroke="midnightblue" points="1000.4,-81.8305 989.833,-81.0303 997.592,-88.244 1000.4,-81.8305"/>
</g>
<!-- Node6 -->
<g id="node6" class="node"><title>Node6</title>
<polygon fill="white" stroke="#bfbfbf" points="632,-123.5 632,-142.5 672,-142.5 672,-123.5 632,-123.5"/>
<text text-anchor="middle" x="652" y="-130.5" font-family="Helvetica,sans-Serif" font-size="10.00">utility</text>
</g>
<!-- Node1&#45;&gt;Node6 -->
<g id="edge5" class="edge"><title>Node1&#45;&gt;Node6</title>
<path fill="none" stroke="midnightblue" d="M495.03,-354.339C531.892,-350.324 578.279,-339.38 609,-311 654.064,-269.37 655.522,-189.185 653.585,-152.79"/>
<polygon fill="midnightblue" stroke="midnightblue" points="657.063,-152.353 652.887,-142.616 650.079,-152.832 657.063,-152.353"/>
</g>
<!-- Node7 -->
<g id="node7" class="node"><title>Node7</title>
<polygon fill="white" stroke="#bfbfbf" points="362,-62 362,-81 408,-81 408,-62 362,-62"/>
<text text-anchor="middle" x="385" y="-69" font-family="Helvetica,sans-Serif" font-size="10.00">vector</text>
</g>
<!-- Node1&#45;&gt;Node7 -->
<g id="edge6" class="edge"><title>Node1&#45;&gt;Node7</title>
<path fill="none" stroke="midnightblue" d="M426.146,-347.303C394.085,-320.824 299.991,-237.222 267,-143 252.05,-100.302 310.462,-104.921 352,-87 353.365,-86.4112 354.76,-85.8069 356.169,-85.195"/>
<polygon fill="midnightblue" stroke="midnightblue" points="357.712,-88.3404 365.475,-81.1306 354.91,-81.9255 357.712,-88.3404"/>
</g>
<!-- Node8 -->
<g id="node8" class="node"><title>Node8</title>
<g id="a_node8"><a xlink:href="audio_8hpp.html" target="_top" xlink:title="Declaration of the Audio class. ">
<polygon fill="white" stroke="black" points="541,-179.5 541,-198.5 639,-198.5 639,-179.5 541,-179.5"/>
<text text-anchor="middle" x="590" y="-186.5" font-family="Helvetica,sans-Serif" font-size="10.00">../audio/audio.hpp</text>
</a>
</g>
</g>
<!-- Node1&#45;&gt;Node8 -->
<g id="edge7" class="edge"><title>Node1&#45;&gt;Node8</title>
<path fill="none" stroke="midnightblue" d="M445.226,-347.075C469.831,-320.38 543.118,-240.865 574.956,-206.322"/>
<polygon fill="midnightblue" stroke="midnightblue" points="577.899,-208.293 582.103,-198.568 572.752,-203.549 577.899,-208.293"/>
</g>
<!-- Node11 -->
<g id="node11" class="node"><title>Node11</title>
<g id="a_node11"><a xlink:href="io__response_8hpp.html" target="_top" xlink:title="Declaration of classes pertaining to responses to the client. ">
<polygon fill="white" stroke="black" points="276,-123.5 276,-142.5 390,-142.5 390,-123.5 276,-123.5"/>
<text text-anchor="middle" x="333" y="-130.5" font-family="Helvetica,sans-Serif" font-size="10.00">../io/io_response.hpp</text>
</a>
</g>
</g>
<!-- Node1&#45;&gt;Node11 -->
<g id="edge33" class="edge"><title>Node1&#45;&gt;Node11</title>
<path fill="none" stroke="midnightblue" d="M432.923,-347.297C417.523,-314.425 362.697,-197.391 341.475,-152.09"/>
<polygon fill="midnightblue" stroke="midnightblue" points="344.574,-150.455 337.162,-142.884 338.235,-153.424 344.574,-150.455"/>
</g>
<!-- Node20 -->
<g id="node20" class="node"><title>Node20</title>
<g id="a_node20"><a xlink:href="cmd__result_8hpp.html" target="_top" xlink:title="Declaration of the CommandResult class. ">
<polygon fill="white" stroke="black" points="166.5,-179.5 166.5,-198.5 261.5,-198.5 261.5,-179.5 166.5,-179.5"/>
<text text-anchor="middle" x="214" y="-186.5" font-family="Helvetica,sans-Serif" font-size="10.00">../cmd_result.hpp</text>
</a>
</g>
</g>
<!-- Node1&#45;&gt;Node20 -->
<g id="edge34" class="edge"><title>Node1&#45;&gt;Node20</title>
<path fill="none" stroke="midnightblue" d="M378.852,-351.25C345.651,-345.926 304.996,-334.684 276,-311 243.049,-284.085 225.763,-235.085 218.418,-208.443"/>
<polygon fill="midnightblue" stroke="midnightblue" points="221.746,-207.334 215.862,-198.524 214.968,-209.081 221.746,-207.334"/>
</g>
<!-- Node21 -->
<g id="node21" class="node"><title>Node21</title>
<g id="a_node21"><a xlink:href="player__file_8hpp.html" target="_top" xlink:title="Declaration of the PlayerFile class, and associated types. ">
<polygon fill="white" stroke="black" points="514,-291.5 514,-310.5 600,-310.5 600,-291.5 514,-291.5"/>
<text text-anchor="middle" x="557" y="-298.5" font-family="Helvetica,sans-Serif" font-size="10.00">player_file.hpp</text>
</a>
</g>
</g>
<!-- Node1&#45;&gt;Node21 -->
<g id="edge39" class="edge"><title>Node1&#45;&gt;Node21</title>
<path fill="none" stroke="midnightblue" d="M456.014,-347.444C475.588,-338.636 506.308,-324.812 528.729,-314.722"/>
<polygon fill="midnightblue" stroke="midnightblue" points="530.392,-317.812 538.075,-310.516 527.519,-311.428 530.392,-317.812"/>
</g>
<!-- Node28 -->
<g id="node28" class="node"><title>Node28</title>
<g id="a_node28"><a xlink:href="player__position_8hpp.html" target="_top" xlink:title="Declaration of the PlayerPosition class. ">
<polygon fill="white" stroke="black" points="1537.5,-179.5 1537.5,-198.5 1646.5,-198.5 1646.5,-179.5 1537.5,-179.5"/>
<text text-anchor="middle" x="1592" y="-186.5" font-family="Helvetica,sans-Serif" font-size="10.00">player_position.hpp</text>
</a>
</g>
</g>
<!-- Node1&#45;&gt;Node28 -->
<g id="edge68" class="edge"><title>Node1&#45;&gt;Node28</title>
<path fill="none" stroke="midnightblue" d="M495.359,-355.141C714.611,-351.714 1478.85,-337.883 1523,-311 1560.58,-288.117 1579.59,-236.646 1587.45,-208.779"/>
<polygon fill="midnightblue" stroke="midnightblue" points="1590.93,-209.301 1590.08,-198.74 1584.16,-207.526 1590.93,-209.301"/>
</g>
<!-- Node30 -->
<g id="node30" class="node"><title>Node30</title>
<g id="a_node30"><a xlink:href="player__state_8hpp.html" target="_top" xlink:title="Declaration of the PlayerState class, and associated types. ">
<polygon fill="white" stroke="black" points="53.5,-179.5 53.5,-198.5 148.5,-198.5 148.5,-179.5 53.5,-179.5"/>
<text text-anchor="middle" x="101" y="-186.5" font-family="Helvetica,sans-Serif" font-size="10.00">player_state.hpp</text>
</a>
</g>
</g>
<!-- Node1&#45;&gt;Node30 -->
<g id="edge69" class="edge"><title>Node1&#45;&gt;Node30</title>
<path fill="none" stroke="midnightblue" d="M378.759,-348.211C341.672,-341.698 293.378,-330.272 254,-311 197.213,-283.209 141.884,-231.603 116.086,-205.695"/>
<polygon fill="midnightblue" stroke="midnightblue" points="118.561,-203.221 109.059,-198.535 113.565,-208.124 118.561,-203.221"/>
</g>
<!-- Node8&#45;&gt;Node2 -->
<g id="edge8" class="edge"><title>Node8&#45;&gt;Node2</title>
<path fill="none" stroke="midnightblue" d="M588.989,-179.472C587.859,-165.589 587.862,-138.133 603,-123 678.284,-47.7415 1020.84,-19.989 1130.28,-12.9521"/>
<polygon fill="midnightblue" stroke="midnightblue" points="1130.66,-16.4354 1140.42,-12.3171 1130.22,-9.44913 1130.66,-16.4354"/>
</g>
<!-- Node8&#45;&gt;Node4 -->
<g id="edge9" class="edge"><title>Node8&#45;&gt;Node4</title>
<path fill="none" stroke="midnightblue" d="M571.461,-179.444C552.377,-170.636 522.425,-156.812 500.564,-146.722"/>
<polygon fill="midnightblue" stroke="midnightblue" points="501.999,-143.529 491.452,-142.516 499.065,-149.885 501.999,-143.529"/>
</g>
<!-- Node8&#45;&gt;Node5 -->
<g id="edge10" class="edge"><title>Node8&#45;&gt;Node5</title>
<path fill="none" stroke="midnightblue" d="M591.761,-179.153C595.115,-164.811 603.866,-136.711 623,-123 674.044,-86.4237 866.243,-76.0889 943.025,-73.3868"/>
<polygon fill="midnightblue" stroke="midnightblue" points="943.188,-76.8834 953.066,-73.0543 942.956,-69.8873 943.188,-76.8834"/>
</g>
<!-- Node8&#45;&gt;Node6 -->
<g id="edge11" class="edge"><title>Node8&#45;&gt;Node6</title>
<path fill="none" stroke="midnightblue" d="M599.961,-179.324C609.127,-171.341 622.937,-159.313 634.028,-149.653"/>
<polygon fill="midnightblue" stroke="midnightblue" points="636.615,-152.041 641.857,-142.834 632.018,-146.762 636.615,-152.041"/>
</g>
<!-- Node8&#45;&gt;Node7 -->
<g id="edge12" class="edge"><title>Node8&#45;&gt;Node7</title>
<path fill="none" stroke="midnightblue" d="M581.196,-179.411C566.997,-165.926 537.714,-139.617 509,-123 470.997,-101.007 457.455,-104.067 417,-87 415.63,-86.4221 414.231,-85.8228 412.821,-85.2115"/>
<polygon fill="midnightblue" stroke="midnightblue" points="414.101,-81.9507 403.541,-81.0999 411.266,-88.3507 414.101,-81.9507"/>
</g>
<!-- Node9 -->
<g id="node9" class="node"><title>Node9</title>
<polygon fill="white" stroke="#bfbfbf" points="890.5,-123.5 890.5,-142.5 959.5,-142.5 959.5,-123.5 890.5,-123.5"/>
<text text-anchor="middle" x="925" y="-130.5" font-family="Helvetica,sans-Serif" font-size="10.00">portaudio.h</text>
</g>
<!-- Node8&#45;&gt;Node9 -->
<g id="edge13" class="edge"><title>Node8&#45;&gt;Node9</title>
<path fill="none" stroke="midnightblue" d="M639.034,-181.156C694.935,-173.188 789.288,-159.242 880.489,-143.015"/>
<polygon fill="midnightblue" stroke="midnightblue" points="881.217,-146.441 890.443,-141.233 879.983,-139.55 881.217,-146.441"/>
</g>
<!-- Node10 -->
<g id="node10" class="node"><title>Node10</title>
<polygon fill="white" stroke="#bfbfbf" points="690,-123.5 690,-142.5 872,-142.5 872,-123.5 690,-123.5"/>
<text text-anchor="middle" x="781" y="-130.5" font-family="Helvetica,sans-Serif" font-size="10.00">portaudiocpp/CallbackInterface.hxx</text>
</g>
<!-- Node8&#45;&gt;Node10 -->
<g id="edge14" class="edge"><title>Node8&#45;&gt;Node10</title>
<path fill="none" stroke="midnightblue" d="M620.265,-179.444C652.955,-170.201 705.182,-155.436 741.183,-145.257"/>
<polygon fill="midnightblue" stroke="midnightblue" points="742.206,-148.605 750.877,-142.516 740.302,-141.869 742.206,-148.605"/>
</g>
<!-- Node8&#45;&gt;Node11 -->
<g id="edge15" class="edge"><title>Node8&#45;&gt;Node11</title>
<path fill="none" stroke="midnightblue" d="M549.278,-179.444C504.351,-170.004 432.002,-154.802 383.501,-144.611"/>
<polygon fill="midnightblue" stroke="midnightblue" points="384.038,-141.148 373.532,-142.516 382.598,-147.998 384.038,-141.148"/>
</g>
<!-- Node16 -->
<g id="node16" class="node"><title>Node16</title>
<g id="a_node16"><a xlink:href="audio__source_8hpp.html" target="_top" xlink:title="Declaration of the AudioSource class. ">
<polygon fill="white" stroke="black" points="1382,-123.5 1382,-142.5 1482,-142.5 1482,-123.5 1382,-123.5"/>
<text text-anchor="middle" x="1432" y="-130.5" font-family="Helvetica,sans-Serif" font-size="10.00">audio_source.hpp</text>
</a>
</g>
</g>
<!-- Node8&#45;&gt;Node16 -->
<g id="edge24" class="edge"><title>Node8&#45;&gt;Node16</title>
<path fill="none" stroke="midnightblue" d="M639.095,-185.242C782.459,-177.155 1198.94,-153.419 1335,-143 1346.86,-142.092 1359.52,-141.004 1371.65,-139.903"/>
<polygon fill="midnightblue" stroke="midnightblue" points="1372.04,-143.381 1381.68,-138.979 1371.4,-136.411 1372.04,-143.381"/>
</g>
<!-- Node11&#45;&gt;Node2 -->
<g id="edge16" class="edge"><title>Node11&#45;&gt;Node2</title>
<path fill="none" stroke="midnightblue" d="M386.385,-123.476C421.954,-116.558 469.127,-104.957 508,-87 529.717,-76.9684 529.476,-64.0583 552,-56 659.865,-17.4088 1018.42,-11.8989 1130.33,-11.1236"/>
<polygon fill="midnightblue" stroke="midnightblue" points="1130.4,-14.6234 1140.37,-11.0624 1130.35,-7.62352 1130.4,-14.6234"/>
</g>
<!-- Node11&#45;&gt;Node3 -->
<g id="edge17" class="edge"><title>Node11&#45;&gt;Node3</title>
<path fill="none" stroke="midnightblue" d="M291.45,-123.475C231.794,-111.235 123.391,-88.994 71.79,-78.4069"/>
<polygon fill="midnightblue" stroke="midnightblue" points="72.1785,-74.9138 61.6791,-76.3324 70.7715,-81.7709 72.1785,-74.9138"/>
</g>
<!-- Node11&#45;&gt;Node5 -->
<g id="edge19" class="edge"><title>Node11&#45;&gt;Node5</title>
<path fill="none" stroke="midnightblue" d="M390.329,-124.544C394.952,-124 399.553,-123.478 404,-123 609.199,-100.928 856.65,-81.4767 943.24,-74.8843"/>
<polygon fill="midnightblue" stroke="midnightblue" points="943.745,-78.3562 953.452,-74.1098 943.216,-71.3762 943.745,-78.3562"/>
</g>
<!-- Node11&#45;&gt;Node7 -->
<g id="edge20" class="edge"><title>Node11&#45;&gt;Node7</title>
<path fill="none" stroke="midnightblue" d="M340.45,-123.475C348.328,-114.462 360.945,-100.025 370.744,-88.8118"/>
<polygon fill="midnightblue" stroke="midnightblue" points="373.618,-90.842 377.563,-81.0091 368.347,-86.2356 373.618,-90.842"/>
</g>
<!-- Node12 -->
<g id="node12" class="node"><title>Node12</title>
<polygon fill="white" stroke="#bfbfbf" points="288.5,-62 288.5,-81 343.5,-81 343.5,-62 288.5,-62"/>
<text text-anchor="middle" x="316" y="-69" font-family="Helvetica,sans-Serif" font-size="10.00">ostream</text>
</g>
<!-- Node11&#45;&gt;Node12 -->
<g id="edge18" class="edge"><title>Node11&#45;&gt;Node12</title>
<path fill="none" stroke="midnightblue" d="M330.564,-123.475C328.141,-114.992 324.344,-101.704 321.235,-90.8222"/>
<polygon fill="midnightblue" stroke="midnightblue" points="324.544,-89.6628 318.431,-81.0091 317.813,-91.5859 324.544,-89.6628"/>
</g>
<!-- Node13 -->
<g id="node13" class="node"><title>Node13</title>
<g id="a_node13"><a xlink:href="errors_8hpp.html" target="_top" xlink:title="Declarations of the playd Error exception set. ">
<polygon fill="white" stroke="black" points="426.5,-62 426.5,-81 499.5,-81 499.5,-62 426.5,-62"/>
<text text-anchor="middle" x="463" y="-69" font-family="Helvetica,sans-Serif" font-size="10.00">../errors.hpp</text>
</a>
</g>
</g>
<!-- Node11&#45;&gt;Node13 -->
<g id="edge21" class="edge"><title>Node11&#45;&gt;Node13</title>
<path fill="none" stroke="midnightblue" d="M351.626,-123.475C373.443,-113.49 409.804,-96.8476 435.017,-85.3075"/>
<polygon fill="midnightblue" stroke="midnightblue" points="436.772,-88.3534 444.409,-81.0091 433.859,-81.9884 436.772,-88.3534"/>
</g>
<!-- Node14 -->
<g id="node14" class="node"><title>Node14</title>
<polygon fill="white" stroke="#bfbfbf" points="471.5,-0.5 471.5,-19.5 528.5,-19.5 528.5,-0.5 471.5,-0.5"/>
<text text-anchor="middle" x="500" y="-7.5" font-family="Helvetica,sans-Serif" font-size="10.00">iostream</text>
</g>
<!-- Node13&#45;&gt;Node14 -->
<g id="edge22" class="edge"><title>Node13&#45;&gt;Node14</title>
<path fill="none" stroke="midnightblue" d="M468.301,-61.9751C473.741,-53.2268 482.359,-39.3691 489.236,-28.3093"/>
<polygon fill="midnightblue" stroke="midnightblue" points="492.4,-29.8494 494.709,-19.5091 486.456,-26.1528 492.4,-29.8494"/>
</g>
<!-- Node15 -->
<g id="node15" class="node"><title>Node15</title>
<polygon fill="white" stroke="#bfbfbf" points="399,-0.5 399,-19.5 453,-19.5 453,-0.5 399,-0.5"/>
<text text-anchor="middle" x="426" y="-7.5" font-family="Helvetica,sans-Serif" font-size="10.00">sstream</text>
</g>
<!-- Node13&#45;&gt;Node15 -->
<g id="edge23" class="edge"><title>Node13&#45;&gt;Node15</title>
<path fill="none" stroke="midnightblue" d="M457.699,-61.9751C452.259,-53.2268 443.641,-39.3691 436.764,-28.3093"/>
<polygon fill="midnightblue" stroke="midnightblue" points="439.544,-26.1528 431.291,-19.5091 433.6,-29.8494 439.544,-26.1528"/>
</g>
<!-- Node16&#45;&gt;Node2 -->
<g id="edge26" class="edge"><title>Node16&#45;&gt;Node2</title>
<path fill="none" stroke="midnightblue" d="M1432.48,-123.46C1432.86,-107.644 1431.23,-73.7886 1412,-56 1381.32,-27.6178 1258.33,-16.5364 1197.88,-12.7398"/>
<polygon fill="midnightblue" stroke="midnightblue" points="1197.9,-9.23443 1187.71,-12.1326 1197.48,-16.222 1197.9,-9.23443"/>
</g>
<!-- Node16&#45;&gt;Node5 -->
<g id="edge27" class="edge"><title>Node16&#45;&gt;Node5</title>
<path fill="none" stroke="midnightblue" d="M1381.72,-124.731C1377.08,-124.121 1372.46,-123.534 1368,-123 1207.03,-103.708 1161.05,-130.952 1005,-87 1003.12,-86.4707 1001.22,-85.829 999.324,-85.1136"/>
<polygon fill="midnightblue" stroke="midnightblue" points="1000.73,-81.9069 990.162,-81.1033 997.919,-88.3195 1000.73,-81.9069"/>
</g>
<!-- Node16&#45;&gt;Node7 -->
<g id="edge28" class="edge"><title>Node16&#45;&gt;Node7</title>
<path fill="none" stroke="midnightblue" d="M1381.7,-126.819C1366.69,-125.411 1350.19,-124.002 1335,-123 1131.29,-109.565 615.672,-134.005 417,-87 414.782,-86.4751 412.529,-85.7945 410.299,-85.0147"/>
<polygon fill="midnightblue" stroke="midnightblue" points="411.429,-81.6952 400.849,-81.1373 408.772,-88.1713 411.429,-81.6952"/>
</g>
<!-- Node16&#45;&gt;Node13 -->
<g id="edge30" class="edge"><title>Node16&#45;&gt;Node13</title>
<path fill="none" stroke="midnightblue" d="M1381.68,-126.997C1366.67,-125.595 1350.18,-124.143 1335,-123 1019.93,-99.2675 640.094,-80.714 509.626,-74.6302"/>
<polygon fill="midnightblue" stroke="midnightblue" points="509.733,-71.1315 499.582,-74.1636 509.408,-78.124 509.733,-71.1315"/>
</g>
<!-- Node17 -->
<g id="node17" class="node"><title>Node17</title>
<polygon fill="white" stroke="#bfbfbf" points="1303.5,-62 1303.5,-81 1344.5,-81 1344.5,-62 1303.5,-62"/>
<text text-anchor="middle" x="1324" y="-69" font-family="Helvetica,sans-Serif" font-size="10.00">array</text>
</g>
<!-- Node16&#45;&gt;Node17 -->
<g id="edge25" class="edge"><title>Node16&#45;&gt;Node17</title>
<path fill="none" stroke="midnightblue" d="M1416.53,-123.475C1398.72,-113.666 1369.26,-97.4346 1348.37,-85.925"/>
<polygon fill="midnightblue" stroke="midnightblue" points="1349.89,-82.769 1339.45,-81.0091 1346.51,-88.9001 1349.89,-82.769"/>
</g>
<!-- Node18 -->
<g id="node18" class="node"><title>Node18</title>
<polygon fill="white" stroke="#bfbfbf" points="1362.5,-62 1362.5,-81 1403.5,-81 1403.5,-62 1362.5,-62"/>
<text text-anchor="middle" x="1383" y="-69" font-family="Helvetica,sans-Serif" font-size="10.00">sox.h</text>
</g>
<!-- Node16&#45;&gt;Node18 -->
<g id="edge29" class="edge"><title>Node16&#45;&gt;Node18</title>
<path fill="none" stroke="midnightblue" d="M1424.98,-123.475C1417.56,-114.462 1405.67,-100.025 1396.43,-88.8118"/>
<polygon fill="midnightblue" stroke="midnightblue" points="1399.07,-86.5034 1390.01,-81.0091 1393.66,-90.9534 1399.07,-86.5034"/>
</g>
<!-- Node19 -->
<g id="node19" class="node"><title>Node19</title>
<g id="a_node19"><a xlink:href="sample__formats_8hpp.html" target="_top" xlink:title="The SampleFormat enumeration. ">
<polygon fill="white" stroke="black" points="1460.5,-62 1460.5,-81 1579.5,-81 1579.5,-62 1460.5,-62"/>
<text text-anchor="middle" x="1520" y="-69" font-family="Helvetica,sans-Serif" font-size="10.00">../sample_formats.hpp</text>
</a>
</g>
</g>
<!-- Node16&#45;&gt;Node19 -->
<g id="edge31" class="edge"><title>Node16&#45;&gt;Node19</title>
<path fill="none" stroke="midnightblue" d="M1444.61,-123.475C1458.72,-113.931 1481.83,-98.3073 1498.75,-86.8683"/>
<polygon fill="midnightblue" stroke="midnightblue" points="1501.09,-89.5098 1507.42,-81.0091 1497.17,-83.7109 1501.09,-89.5098"/>
</g>
<!-- Node19&#45;&gt;Node2 -->
<g id="edge32" class="edge"><title>Node19&#45;&gt;Node2</title>
<path fill="none" stroke="midnightblue" d="M1477.78,-61.9613C1467.41,-59.9356 1456.31,-57.8324 1446,-56 1356.72,-40.1349 1251.07,-23.9697 1198.01,-16.0313"/>
<polygon fill="midnightblue" stroke="midnightblue" points="1198.22,-12.5244 1187.82,-14.5106 1197.19,-19.4478 1198.22,-12.5244"/>
</g>
<!-- Node20&#45;&gt;Node2 -->
<g id="edge35" class="edge"><title>Node20&#45;&gt;Node2</title>
<path fill="none" stroke="midnightblue" d="M212.945,-179.169C211.778,-166.26 211,-141.736 219,-123 234.697,-86.2381 242.931,-73.2294 279,-56 356.781,-18.8456 976.683,-12.2562 1129.87,-11.1912"/>
<polygon fill="midnightblue" stroke="midnightblue" points="1130.1,-14.6898 1140.07,-11.1237 1130.05,-7.68998 1130.1,-14.6898"/>
</g>
<!-- Node20&#45;&gt;Node5 -->
<g id="edge36" class="edge"><title>Node20&#45;&gt;Node5</title>
<path fill="none" stroke="midnightblue" d="M261.725,-179.745C299.667,-172.39 353.706,-160.129 399,-143 416.851,-136.249 418.706,-128.44 437,-123 532.979,-94.4595 842.985,-78.4024 943.337,-73.8551"/>
<polygon fill="midnightblue" stroke="midnightblue" points="943.617,-77.3461 953.451,-73.4038 943.305,-70.3531 943.617,-77.3461"/>
</g>
<!-- Node20&#45;&gt;Node7 -->
<g id="edge37" class="edge"><title>Node20&#45;&gt;Node7</title>
<path fill="none" stroke="midnightblue" d="M214.206,-179.108C215.017,-165.21 218.62,-138.343 234,-123 272.817,-84.275 300.589,-106.062 352,-87 353.654,-86.3868 355.344,-85.7328 357.041,-85.0545"/>
<polygon fill="midnightblue" stroke="midnightblue" points="358.791,-88.1159 366.657,-81.0176 356.081,-81.6617 358.791,-88.1159"/>
</g>
<!-- Node20&#45;&gt;Node11 -->
<g id="edge38" class="edge"><title>Node20&#45;&gt;Node11</title>
<path fill="none" stroke="midnightblue" d="M232.856,-179.444C252.266,-170.636 282.73,-156.812 304.965,-146.722"/>
<polygon fill="midnightblue" stroke="midnightblue" points="306.572,-149.836 314.232,-142.516 303.68,-143.462 306.572,-149.836"/>
</g>
<!-- Node21&#45;&gt;Node4 -->
<g id="edge40" class="edge"><title>Node21&#45;&gt;Node4</title>
<path fill="none" stroke="midnightblue" d="M552.484,-291.075C539.147,-264.719 499.758,-186.878 481.937,-151.661"/>
<polygon fill="midnightblue" stroke="midnightblue" points="484.974,-149.91 477.336,-142.568 478.728,-153.071 484.974,-149.91"/>
</g>
<!-- Node21&#45;&gt;Node8 -->
<g id="edge61" class="edge"><title>Node21&#45;&gt;Node8</title>
<path fill="none" stroke="midnightblue" d="M559.589,-291.368C564.939,-273.537 577.311,-232.295 584.518,-208.272"/>
<polygon fill="midnightblue" stroke="midnightblue" points="587.901,-209.175 587.423,-198.591 581.197,-207.164 587.901,-209.175"/>
</g>
<!-- Node21&#45;&gt;Node11 -->
<g id="edge62" class="edge"><title>Node21&#45;&gt;Node11</title>
<path fill="none" stroke="midnightblue" d="M545.272,-291.309C508.983,-264.416 398.246,-182.352 352.791,-148.666"/>
<polygon fill="midnightblue" stroke="midnightblue" points="354.73,-145.747 344.612,-142.605 350.562,-151.371 354.73,-145.747"/>
</g>
<!-- Node22 -->
<g id="node22" class="node"><title>Node22</title>
<g id="a_node22"><a xlink:href="audio__system_8hpp.html" target="_top" xlink:title="Declaration of the AudioSystem class. ">
<polygon fill="white" stroke="black" points="957.5,-235.5 957.5,-254.5 1094.5,-254.5 1094.5,-235.5 957.5,-235.5"/>
<text text-anchor="middle" x="1026" y="-242.5" font-family="Helvetica,sans-Serif" font-size="10.00">../audio/audio_system.hpp</text>
</a>
</g>
</g>
<!-- Node21&#45;&gt;Node22 -->
<g id="edge41" class="edge"><title>Node21&#45;&gt;Node22</title>
<path fill="none" stroke="midnightblue" d="M600.282,-295.017C679.207,-285.929 847.553,-266.546 947.276,-255.064"/>
<polygon fill="midnightblue" stroke="midnightblue" points="947.767,-258.531 957.301,-253.91 946.966,-251.577 947.767,-258.531"/>
</g>
<!-- Node21&#45;&gt;Node28 -->
<g id="edge63" class="edge"><title>Node21&#45;&gt;Node28</title>
<path fill="none" stroke="midnightblue" d="M600.246,-297.173C692.667,-290.968 916.23,-275.097 1103,-255 1255.45,-238.596 1433.84,-213.344 1527.32,-199.644"/>
<polygon fill="midnightblue" stroke="midnightblue" points="1528.09,-203.069 1537.47,-198.153 1527.07,-196.144 1528.09,-203.069"/>
</g>
<!-- Node22&#45;&gt;Node5 -->
<g id="edge42" class="edge"><title>Node22&#45;&gt;Node5</title>
<path fill="none" stroke="midnightblue" d="M1094.69,-240.026C1206.24,-231.166 1407.41,-203.741 1335,-123 1285.75,-68.0822 1075.91,-107.347 1005,-87 1003.12,-86.4615 1001.22,-85.813 999.33,-85.0928"/>
<polygon fill="midnightblue" stroke="midnightblue" points="1000.73,-81.8869 990.171,-81.0723 997.921,-88.2966 1000.73,-81.8869"/>
</g>
<!-- Node22&#45;&gt;Node6 -->
<g id="edge43" class="edge"><title>Node22&#45;&gt;Node6</title>
<path fill="none" stroke="midnightblue" d="M957.259,-238.913C903.392,-233.343 827.235,-221.938 764,-199 729.604,-186.523 693.675,-163.64 672.064,-148.624"/>
<polygon fill="midnightblue" stroke="midnightblue" points="673.91,-145.642 663.725,-142.724 669.867,-151.357 673.91,-145.642"/>
</g>
<!-- Node22&#45;&gt;Node8 -->
<g id="edge60" class="edge"><title>Node22&#45;&gt;Node8</title>
<path fill="none" stroke="midnightblue" d="M957.395,-235.503C872.534,-224.993 729.479,-207.275 649.206,-197.333"/>
<polygon fill="midnightblue" stroke="midnightblue" points="649.615,-193.857 639.26,-196.101 648.754,-200.804 649.615,-193.857"/>
</g>
<!-- Node22&#45;&gt;Node16 -->
<g id="edge59" class="edge"><title>Node22&#45;&gt;Node16</title>
<path fill="none" stroke="midnightblue" d="M1094.8,-240.231C1180.53,-234.63 1321.43,-222.19 1368,-199 1390.07,-188.01 1408.97,-166.347 1420.39,-151.057"/>
<polygon fill="midnightblue" stroke="midnightblue" points="1423.53,-152.684 1426.49,-142.513 1417.83,-148.614 1423.53,-152.684"/>
</g>
<!-- Node22&#45;&gt;Node19 -->
<g id="edge46" class="edge"><title>Node22&#45;&gt;Node19</title>
<path fill="none" stroke="midnightblue" d="M1094.78,-235.517C1096.2,-235.343 1097.61,-235.17 1099,-235 1230.98,-218.865 1270.06,-241.663 1396,-199 1442.42,-183.274 1458.9,-180.034 1491,-143 1503.97,-128.032 1511.69,-106.468 1515.86,-91.1369"/>
<polygon fill="midnightblue" stroke="midnightblue" points="1519.3,-91.8057 1518.3,-81.2586 1512.51,-90.1301 1519.3,-91.8057"/>
</g>
<!-- Node23 -->
<g id="node23" class="node"><title>Node23</title>
<polygon fill="white" stroke="#bfbfbf" points="773.5,-179.5 773.5,-198.5 964.5,-198.5 964.5,-179.5 773.5,-179.5"/>
<text text-anchor="middle" x="869" y="-186.5" font-family="Helvetica,sans-Serif" font-size="10.00">portaudiocpp/SampleDataFormat.hxx</text>
</g>
<!-- Node22&#45;&gt;Node23 -->
<g id="edge44" class="edge"><title>Node22&#45;&gt;Node23</title>
<path fill="none" stroke="midnightblue" d="M1001.12,-235.444C974.711,-226.359 932.785,-211.939 903.258,-201.783"/>
<polygon fill="midnightblue" stroke="midnightblue" points="904.355,-198.459 893.761,-198.516 902.079,-205.079 904.355,-198.459"/>
</g>
<!-- Node24 -->
<g id="node24" class="node"><title>Node24</title>
<polygon fill="white" stroke="#bfbfbf" points="1192,-123.5 1192,-142.5 1326,-142.5 1326,-123.5 1192,-123.5"/>
<text text-anchor="middle" x="1259" y="-130.5" font-family="Helvetica,sans-Serif" font-size="10.00">portaudiocpp/Stream.hxx</text>
</g>
<!-- Node22&#45;&gt;Node24 -->
<g id="edge45" class="edge"><title>Node22&#45;&gt;Node24</title>
<path fill="none" stroke="midnightblue" d="M1044.28,-235.368C1085.03,-216.131 1183.49,-169.648 1231.61,-146.931"/>
<polygon fill="midnightblue" stroke="midnightblue" points="1233.25,-150.026 1240.8,-142.591 1230.26,-143.696 1233.25,-150.026"/>
</g>
<!-- Node25 -->
<g id="node25" class="node"><title>Node25</title>
<g id="a_node25"><a xlink:href="audio__sink_8hpp.html" target="_top" xlink:title="Declaration of the AudioSink class. ">
<polygon fill="white" stroke="black" points="982.5,-179.5 982.5,-198.5 1069.5,-198.5 1069.5,-179.5 982.5,-179.5"/>
<text text-anchor="middle" x="1026" y="-186.5" font-family="Helvetica,sans-Serif" font-size="10.00">audio_sink.hpp</text>
</a>
</g>
</g>
<!-- Node22&#45;&gt;Node25 -->
<g id="edge47" class="edge"><title>Node22&#45;&gt;Node25</title>
<path fill="none" stroke="midnightblue" d="M1026,-235.083C1026,-228.006 1026,-217.861 1026,-208.986"/>
<polygon fill="midnightblue" stroke="midnightblue" points="1029.5,-208.751 1026,-198.751 1022.5,-208.751 1029.5,-208.751"/>
</g>
<!-- Node25&#45;&gt;Node2 -->
<g id="edge48" class="edge"><title>Node25&#45;&gt;Node2</title>
<path fill="none" stroke="midnightblue" d="M1069.74,-182.35C1095.27,-176.707 1125.91,-165.447 1144,-143 1170.46,-110.169 1169.41,-57.334 1166.59,-29.5097"/>
<polygon fill="midnightblue" stroke="midnightblue" points="1170.06,-29.0604 1165.39,-19.5511 1163.11,-29.8981 1170.06,-29.0604"/>
</g>
<!-- Node25&#45;&gt;Node4 -->
<g id="edge49" class="edge"><title>Node25&#45;&gt;Node4</title>
<path fill="none" stroke="midnightblue" d="M982.368,-180.312C979.202,-179.84 976.054,-179.396 973,-179 800.77,-156.661 593.722,-141.834 510.41,-136.359"/>
<polygon fill="midnightblue" stroke="midnightblue" points="510.388,-132.851 500.181,-135.694 509.933,-139.836 510.388,-132.851"/>
</g>
<!-- Node25&#45;&gt;Node5 -->
<g id="edge50" class="edge"><title>Node25&#45;&gt;Node5</title>
<path fill="none" stroke="midnightblue" d="M1023.26,-179.437C1019.14,-166.862 1010.88,-142.75 1002,-123 996.979,-111.828 990.538,-99.7125 985.205,-90.1497"/>
<polygon fill="midnightblue" stroke="midnightblue" points="988.137,-88.2236 980.157,-81.2546 982.049,-91.6791 988.137,-88.2236"/>
</g>
<!-- Node25&#45;&gt;Node6 -->
<g id="edge51" class="edge"><title>Node25&#45;&gt;Node6</title>
<path fill="none" stroke="midnightblue" d="M982.352,-180.426C979.19,-179.927 976.047,-179.446 973,-179 846.779,-160.512 810.593,-169.996 681.991,-142.867"/>
<polygon fill="midnightblue" stroke="midnightblue" points="682.671,-139.433 672.159,-140.76 681.204,-146.278 682.671,-139.433"/>
</g>
<!-- Node25&#45;&gt;Node7 -->
<g id="edge52" class="edge"><title>Node25&#45;&gt;Node7</title>
<path fill="none" stroke="midnightblue" d="M1021.31,-179.316C1012.86,-164.676 993.556,-135.463 968,-123 857.711,-69.2139 536.031,-116.804 417,-87 414.789,-86.4463 412.541,-85.7452 410.315,-84.9516"/>
<polygon fill="midnightblue" stroke="midnightblue" points="411.449,-81.6333 400.87,-81.0499 408.776,-88.103 411.449,-81.6333"/>
</g>
<!-- Node25&#45;&gt;Node9 -->
<g id="edge53" class="edge"><title>Node25&#45;&gt;Node9</title>
<path fill="none" stroke="midnightblue" d="M1009.77,-179.324C993.649,-170.703 968.7,-157.364 950.036,-147.386"/>
<polygon fill="midnightblue" stroke="midnightblue" points="951.656,-144.283 941.187,-142.655 948.356,-150.456 951.656,-144.283"/>
</g>
<!-- Node25&#45;&gt;Node10 -->
<g id="edge54" class="edge"><title>Node25&#45;&gt;Node10</title>
<path fill="none" stroke="midnightblue" d="M987.179,-179.444C944.439,-170.023 875.668,-154.866 829.434,-144.675"/>
<polygon fill="midnightblue" stroke="midnightblue" points="830.158,-141.251 819.639,-142.516 828.652,-148.087 830.158,-141.251"/>
</g>
<!-- Node25&#45;&gt;Node16 -->
<g id="edge56" class="edge"><title>Node25&#45;&gt;Node16</title>
<path fill="none" stroke="midnightblue" d="M1069.83,-182.17C1142.76,-172.47 1289.13,-153.002 1371.72,-142.017"/>
<polygon fill="midnightblue" stroke="midnightblue" points="1372.26,-145.477 1381.71,-140.689 1371.34,-138.538 1372.26,-145.477"/>
</g>
<!-- Node25&#45;&gt;Node24 -->
<g id="edge55" class="edge"><title>Node25&#45;&gt;Node24</title>
<path fill="none" stroke="midnightblue" d="M1062.92,-179.444C1103.4,-170.063 1168.42,-154.993 1212.38,-144.804"/>
<polygon fill="midnightblue" stroke="midnightblue" points="1213.3,-148.184 1222.25,-142.516 1211.72,-141.365 1213.3,-148.184"/>
</g>
<!-- Node26 -->
<g id="node26" class="node"><title>Node26</title>
<g id="a_node26"><a xlink:href="ringbuffer_8hpp.html" target="_top" xlink:title="The RingBuffer class template. ">
<polygon fill="white" stroke="black" points="1054.5,-123.5 1054.5,-142.5 1135.5,-142.5 1135.5,-123.5 1054.5,-123.5"/>
<text text-anchor="middle" x="1095" y="-130.5" font-family="Helvetica,sans-Serif" font-size="10.00">ringbuffer.hpp</text>
</a>
</g>
</g>
<!-- Node25&#45;&gt;Node26 -->
<g id="edge57" class="edge"><title>Node25&#45;&gt;Node26</title>
<path fill="none" stroke="midnightblue" d="M1037.09,-179.324C1047.49,-171.185 1063.26,-158.839 1075.72,-149.087"/>
<polygon fill="midnightblue" stroke="midnightblue" points="1077.99,-151.753 1083.71,-142.834 1073.68,-146.241 1077.99,-151.753"/>
</g>
<!-- Node27 -->
<g id="node27" class="node"><title>Node27</title>
<polygon fill="white" stroke="#bfbfbf" points="1014.5,-56.5 1014.5,-86.5 1135.5,-86.5 1135.5,-56.5 1014.5,-56.5"/>
<text text-anchor="start" x="1022.5" y="-74.5" font-family="Helvetica,sans-Serif" font-size="10.00">../contrib/pa_ringbuffer</text>
<text text-anchor="middle" x="1075" y="-63.5" font-family="Helvetica,sans-Serif" font-size="10.00">/pa_ringbuffer.h</text>
</g>
<!-- Node26&#45;&gt;Node27 -->
<g id="edge58" class="edge"><title>Node26&#45;&gt;Node27</title>
<path fill="none" stroke="midnightblue" d="M1092.13,-123.475C1089.73,-116.32 1086.18,-105.748 1082.93,-96.0841"/>
<polygon fill="midnightblue" stroke="midnightblue" points="1086.22,-94.8866 1079.71,-86.523 1079.58,-97.117 1086.22,-94.8866"/>
</g>
<!-- Node28&#45;&gt;Node2 -->
<g id="edge64" class="edge"><title>Node28&#45;&gt;Node2</title>
<path fill="none" stroke="midnightblue" d="M1598.63,-179.275C1604.77,-170.607 1613.46,-156.669 1617,-143 1627.19,-103.679 1621.58,-80.2651 1589,-56 1557.85,-32.7936 1293.23,-17.4401 1197.98,-12.6219"/>
<polygon fill="midnightblue" stroke="midnightblue" points="1197.91,-9.11403 1187.75,-12.1119 1197.56,-16.1054 1197.91,-9.11403"/>
</g>
<!-- Node28&#45;&gt;Node11 -->
<g id="edge67" class="edge"><title>Node28&#45;&gt;Node11</title>
<path fill="none" stroke="midnightblue" d="M1537.24,-186.788C1371.41,-182.919 860.09,-169.534 437,-143 425.13,-142.256 412.512,-141.301 400.308,-140.294"/>
<polygon fill="midnightblue" stroke="midnightblue" points="400.44,-136.793 390.181,-139.439 399.851,-143.768 400.44,-136.793"/>
</g>
<!-- Node28&#45;&gt;Node16 -->
<g id="edge66" class="edge"><title>Node28&#45;&gt;Node16</title>
<path fill="none" stroke="midnightblue" d="M1566.65,-179.444C1539.73,-170.359 1497,-155.939 1466.91,-145.783"/>
<polygon fill="midnightblue" stroke="midnightblue" points="1467.83,-142.398 1457.23,-142.516 1465.59,-149.031 1467.83,-142.398"/>
</g>
<!-- Node29 -->
<g id="node29" class="node"><title>Node29</title>
<polygon fill="white" stroke="#bfbfbf" points="1576.5,-123.5 1576.5,-142.5 1607.5,-142.5 1607.5,-123.5 1576.5,-123.5"/>
<text text-anchor="middle" x="1592" y="-130.5" font-family="Helvetica,sans-Serif" font-size="10.00">set</text>
</g>
<!-- Node28&#45;&gt;Node29 -->
<g id="edge65" class="edge"><title>Node28&#45;&gt;Node29</title>
<path fill="none" stroke="midnightblue" d="M1592,-179.083C1592,-172.006 1592,-161.861 1592,-152.986"/>
<polygon fill="midnightblue" stroke="midnightblue" points="1595.5,-152.751 1592,-142.751 1588.5,-152.751 1595.5,-152.751"/>
</g>
<!-- Node30&#45;&gt;Node2 -->
<g id="edge70" class="edge"><title>Node30&#45;&gt;Node2</title>
<path fill="none" stroke="midnightblue" d="M106.284,-179.414C122.035,-154.723 171.481,-83.544 234,-56 317.238,-19.3276 973.012,-12.3552 1130.22,-11.2059"/>
<polygon fill="midnightblue" stroke="midnightblue" points="1130.27,-14.7057 1140.25,-11.1356 1130.23,-7.70584 1130.27,-14.7057"/>
</g>
<!-- Node30&#45;&gt;Node11 -->
<g id="edge72" class="edge"><title>Node30&#45;&gt;Node11</title>
<path fill="none" stroke="midnightblue" d="M137.761,-179.444C178.063,-170.063 242.809,-154.993 286.585,-144.804"/>
<polygon fill="midnightblue" stroke="midnightblue" points="287.465,-148.192 296.411,-142.516 285.878,-141.375 287.465,-148.192"/>
</g>
<!-- Node31 -->
<g id="node31" class="node"><title>Node31</title>
<polygon fill="white" stroke="#bfbfbf" points="28.5,-123.5 28.5,-142.5 105.5,-142.5 105.5,-123.5 28.5,-123.5"/>
<text text-anchor="middle" x="67" y="-130.5" font-family="Helvetica,sans-Serif" font-size="10.00">initializer_list</text>
</g>
<!-- Node30&#45;&gt;Node31 -->
<g id="edge71" class="edge"><title>Node30&#45;&gt;Node31</title>
<path fill="none" stroke="midnightblue" d="M95.3856,-179.083C90.6326,-171.534 83.6819,-160.495 77.8484,-151.23"/>
<polygon fill="midnightblue" stroke="midnightblue" points="80.7999,-149.349 72.5099,-142.751 74.8763,-153.078 80.7999,-149.349"/>
</g>
</g>
</svg>
        <g id="navigator" transform="translate(0 0)" fill="#404254">
                <rect fill="#f2f5e9" fill-opacity="0.5" stroke="#606060" stroke-width=".5" x="0" y="0" width="60" height="60"/>
                <use id="zoomplus" xlink:href="#zoomPlus" x="17" y="9" onmousedown="handleZoom(evt,'in')"/>
                <use id="zoomminus" xlink:href="#zoomMin" x="42" y="9" onmousedown="handleZoom(evt,'out')"/>
                <use id="reset" xlink:href="#resetDef" x="30" y="36" onmousedown="handleReset()"/>
                <g id="arrowUp" xlink:href="#dirArrow" transform="translate(30 24)" onmousedown="handlePan(0,-1)">
                  <use xlink:href="#rim" fill="#404040">
                        <set attributeName="fill" to="#808080" begin="arrowUp.mouseover" end="arrowUp.mouseout"/>
                  </use>
                  <path fill="none" stroke="white" stroke-width="1.5" d="M0,-3.0v7 M-2.5,-0.5L0,-3.0L2.5,-0.5"/>
                </g>
                <g id="arrowRight" xlink:href="#dirArrow" transform="rotate(90) translate(36 -43)" onmousedown="handlePan(1,0)">
                  <use xlink:href="#rim" fill="#404040">
                        <set attributeName="fill" to="#808080" begin="arrowRight.mouseover" end="arrowRight.mouseout"/>
                  </use>
                  <path fill="none" stroke="white" stroke-width="1.5" d="M0,-3.0v7 M-2.5,-0.5L0,-3.0L2.5,-0.5"/>
                </g>
                <g id="arrowDown" xlink:href="#dirArrow" transform="rotate(180) translate(-30 -48)" onmousedown="handlePan(0,1)">
                  <use xlink:href="#rim" fill="#404040">
                        <set attributeName="fill" to="#808080" begin="arrowDown.mouseover" end="arrowDown.mouseout"/>
                  </use>
                  <path fill="none" stroke="white" stroke-width="1.5" d="M0,-3.0v7 M-2.5,-0.5L0,-3.0L2.5,-0.5"/>
                </g>
                <g id="arrowLeft" xlink:href="#dirArrow" transform="rotate(270) translate(-36 17)" onmousedown="handlePan(-1,0)">
                  <use xlink:href="#rim" fill="#404040">
                        <set attributeName="fill" to="#808080" begin="arrowLeft.mouseover" end="arrowLeft.mouseout"/>
                  </use>
                  <path fill="none" stroke="white" stroke-width="1.5" d="M0,-3.0v7 M-2.5,-0.5L0,-3.0L2.5,-0.5"/>
                </g>
        </g>
        <svg viewBox="0 0 15 15" width="100%" height="30px" preserveAspectRatio="xMaxYMin meet">
         <g id="arrow_out" transform="scale(0.3 0.3)">
          <a xlink:href="player_8hpp__incl_org.svg" target="_base">
           <rect id="button" ry="5" rx="5" y="6" x="6" height="38" width="38"
                fill="#f2f5e9" fill-opacity="0.5" stroke="#606060" stroke-width="1.0"/>
           <path id="arrow"
             d="M 11.500037,31.436501 C 11.940474,20.09759 22.043105,11.32322 32.158766,21.979434 L 37.068811,17.246167 C 37.068811,17.246167 37.088388,32 37.088388,32 L 22.160133,31.978069 C 22.160133,31.978069 26.997745,27.140456 26.997745,27.140456 C 18.528582,18.264221 13.291696,25.230495 11.500037,31.436501 z"
             style="fill:#404040;"/>
          </a>
         </g>
        </svg>
</svg>
