<?xml version="1.0" encoding="UTF-8" standalone="no"?>
<!DOCTYPE svg PUBLIC "-//W3C//DTD SVG 1.1//EN"
 "http://www.w3.org/Graphics/SVG/1.1/DTD/svg11.dtd">
<!-- Generated by graphviz version 2.38.0 (20140413.2041)
 -->
<!-- Title: src/player/player_state.hpp Pages: 1 -->
<svg width="438pt" height="196pt"
 viewBox="0.00 0.00 437.50 196.00" xmlns="http://www.w3.org/2000/svg" xmlns:xlink="http://www.w3.org/1999/xlink">
<g id="graph0" class="graph" transform="scale(1 1) rotate(0) translate(4 192)">
<title>src/player/player_state.hpp</title>
<polygon fill="white" stroke="none" points="-4,4 -4,-192 433.5,-192 433.5,4 -4,4"/>
<!-- Node1 -->
<g id="node1" class="node"><title>Node1</title>
<polygon fill="#bfbfbf" stroke="black" points="32.5,-168.5 32.5,-187.5 178.5,-187.5 178.5,-168.5 32.5,-168.5"/>
<text text-anchor="middle" x="105.5" y="-175.5" font-family="Helvetica,sans-Serif" font-size="10.00">src/player/player_state.hpp</text>
</g>
<!-- Node2 -->
<g id="node2" class="node"><title>Node2</title>
<polygon fill="white" stroke="#bfbfbf" points="0,-112.5 0,-131.5 49,-131.5 49,-112.5 0,-112.5"/>
<text text-anchor="middle" x="24.5" y="-119.5" font-family="Helvetica,sans-Serif" font-size="10.00">cstdint</text>
</g>
<!-- Node1&#45;&gt;Node2 -->
<g id="edge1" class="edge"><title>Node1&#45;&gt;Node2</title>
<path fill="none" stroke="midnightblue" d="M92.4859,-168.324C79.9684,-159.979 60.8183,-147.212 46.0286,-137.352"/>
<polygon fill="midnightblue" stroke="midnightblue" points="47.7437,-134.289 37.4818,-131.655 43.8608,-140.114 47.7437,-134.289"/>
</g>
<!-- Node3 -->
<g id="node3" class="node"><title>Node3</title>
<polygon fill="white" stroke="#bfbfbf" points="67,-112.5 67,-131.5 144,-131.5 144,-112.5 67,-112.5"/>
<text text-anchor="middle" x="105.5" y="-119.5" font-family="Helvetica,sans-Serif" font-size="10.00">initializer_list</text>
</g>
<!-- Node1&#45;&gt;Node3 -->
<g id="edge2" class="edge"><title>Node1&#45;&gt;Node3</title>
<path fill="none" stroke="midnightblue" d="M105.5,-168.083C105.5,-161.006 105.5,-150.861 105.5,-141.986"/>
<polygon fill="midnightblue" stroke="midnightblue" points="109,-141.751 105.5,-131.751 102,-141.751 109,-141.751"/>
</g>
<!-- Node4 -->
<g id="node4" class="node"><title>Node4</title>
<g id="a_node4"><a xlink:href="io__response_8hpp.html" target="_top" xlink:title="Declaration of classes pertaining to responses to the client. ">
<polygon fill="white" stroke="black" points="162.5,-112.5 162.5,-131.5 278.5,-131.5 278.5,-112.5 162.5,-112.5"/>
<text text-anchor="middle" x="220.5" y="-119.5" font-family="Helvetica,sans-Serif" font-size="10.00">../io/io_response.hpp</text>
</a>
</g>
</g>
<!-- Node1&#45;&gt;Node4 -->
<g id="edge3" class="edge"><title>Node1&#45;&gt;Node4</title>
<path fill="none" stroke="midnightblue" d="M123.722,-168.444C142.396,-159.675 171.656,-145.935 193.117,-135.858"/>
<polygon fill="midnightblue" stroke="midnightblue" points="194.799,-138.935 202.363,-131.516 191.824,-132.599 194.799,-138.935"/>
</g>
<!-- Node5 -->
<g id="node5" class="node"><title>Node5</title>
<polygon fill="white" stroke="#bfbfbf" points="66.5,-56.5 66.5,-75.5 104.5,-75.5 104.5,-56.5 66.5,-56.5"/>
<text text-anchor="middle" x="85.5" y="-63.5" font-family="Helvetica,sans-Serif" font-size="10.00">map</text>
</g>
<!-- Node4&#45;&gt;Node5 -->
<g id="edge4" class="edge"><title>Node4&#45;&gt;Node5</title>
<path fill="none" stroke="midnightblue" d="M199.109,-112.444C176.136,-103.255 139.515,-88.6061 114.086,-78.4342"/>
<polygon fill="midnightblue" stroke="midnightblue" points="115.193,-75.1076 104.608,-74.6433 112.593,-81.607 115.193,-75.1076"/>
</g>
<!-- Node6 -->
<g id="node6" class="node"><title>Node6</title>
<polygon fill="white" stroke="#bfbfbf" points="123,-56.5 123,-75.5 180,-75.5 180,-56.5 123,-56.5"/>
<text text-anchor="middle" x="151.5" y="-63.5" font-family="Helvetica,sans-Serif" font-size="10.00">ostream</text>
</g>
<!-- Node4&#45;&gt;Node6 -->
<g id="edge5" class="edge"><title>Node4&#45;&gt;Node6</title>
<path fill="none" stroke="midnightblue" d="M209.414,-112.324C199.014,-104.185 183.239,-91.8395 170.778,-82.0874"/>
<polygon fill="midnightblue" stroke="midnightblue" points="172.82,-79.2407 162.788,-75.8339 168.506,-84.7533 172.82,-79.2407"/>
</g>
<!-- Node7 -->
<g id="node7" class="node"><title>Node7</title>
<polygon fill="white" stroke="#bfbfbf" points="198.5,-56.5 198.5,-75.5 242.5,-75.5 242.5,-56.5 198.5,-56.5"/>
<text text-anchor="middle" x="220.5" y="-63.5" font-family="Helvetica,sans-Serif" font-size="10.00">string</text>
</g>
<!-- Node4&#45;&gt;Node7 -->
<g id="edge6" class="edge"><title>Node4&#45;&gt;Node7</title>
<path fill="none" stroke="midnightblue" d="M220.5,-112.083C220.5,-105.006 220.5,-94.8611 220.5,-85.9865"/>
<polygon fill="midnightblue" stroke="midnightblue" points="224,-85.751 220.5,-75.7511 217,-85.7511 224,-85.751"/>
</g>
<!-- Node8 -->
<g id="node8" class="node"><title>Node8</title>
<polygon fill="white" stroke="#bfbfbf" points="261,-56.5 261,-75.5 308,-75.5 308,-56.5 261,-56.5"/>
<text text-anchor="middle" x="284.5" y="-63.5" font-family="Helvetica,sans-Serif" font-size="10.00">vector</text>
</g>
<!-- Node4&#45;&gt;Node8 -->
<g id="edge7" class="edge"><title>Node4&#45;&gt;Node8</title>
<path fill="none" stroke="midnightblue" d="M230.783,-112.324C240.336,-104.263 254.78,-92.0765 266.284,-82.3695"/>
<polygon fill="midnightblue" stroke="midnightblue" points="268.644,-84.9577 274.03,-75.8339 264.13,-79.6076 268.644,-84.9577"/>
</g>
<!-- Node9 -->
<g id="node9" class="node"><title>Node9</title>
<g id="a_node9"><a xlink:href="errors_8hpp.html" target="_top" xlink:title="Declarations of the playd Error exception set. ">
<polygon fill="white" stroke="black" points="326,-56.5 326,-75.5 401,-75.5 401,-56.5 326,-56.5"/>
<text text-anchor="middle" x="363.5" y="-63.5" font-family="Helvetica,sans-Serif" font-size="10.00">../errors.hpp</text>
</a>
</g>
</g>
<!-- Node4&#45;&gt;Node9 -->
<g id="edge8" class="edge"><title>Node4&#45;&gt;Node9</title>
<path fill="none" stroke="midnightblue" d="M243.159,-112.444C266.902,-103.478 304.409,-89.314 331.238,-79.1827"/>
<polygon fill="midnightblue" stroke="midnightblue" points="332.829,-82.3235 340.947,-75.5164 330.356,-75.7749 332.829,-82.3235"/>
</g>
<!-- Node10 -->
<g id="node10" class="node"><title>Node10</title>
<polygon fill="white" stroke="#bfbfbf" points="296,-0.5 296,-19.5 355,-19.5 355,-0.5 296,-0.5"/>
<text text-anchor="middle" x="325.5" y="-7.5" font-family="Helvetica,sans-Serif" font-size="10.00">iostream</text>
</g>
<!-- Node9&#45;&gt;Node10 -->
<g id="edge9" class="edge"><title>Node9&#45;&gt;Node10</title>
<path fill="none" stroke="midnightblue" d="M357.225,-56.083C351.858,-48.4554 343.982,-37.2645 337.421,-27.9408"/>
<polygon fill="midnightblue" stroke="midnightblue" points="340.275,-25.9149 331.658,-19.7511 334.551,-29.9434 340.275,-25.9149"/>
</g>
<!-- Node11 -->
<g id="node11" class="node"><title>Node11</title>
<polygon fill="white" stroke="#bfbfbf" points="373.5,-0.5 373.5,-19.5 429.5,-19.5 429.5,-0.5 373.5,-0.5"/>
<text text-anchor="middle" x="401.5" y="-7.5" font-family="Helvetica,sans-Serif" font-size="10.00">sstream</text>
</g>
<!-- Node9&#45;&gt;Node11 -->
<g id="edge10" class="edge"><title>Node9&#45;&gt;Node11</title>
<path fill="none" stroke="midnightblue" d="M369.775,-56.083C375.142,-48.4554 383.018,-37.2645 389.579,-27.9408"/>
<polygon fill="midnightblue" stroke="midnightblue" points="392.449,-29.9434 395.342,-19.7511 386.725,-25.9149 392.449,-29.9434"/>
</g>
</g>
</svg>
