<?xml version="1.0" encoding="UTF-8" standalone="no"?>
<!DOCTYPE svg PUBLIC "-//W3C//DTD SVG 1.1//EN"
 "http://www.w3.org/Graphics/SVG/1.1/DTD/svg11.dtd">
<!-- Generated by graphviz version 2.38.0 (20140413.2041)
 -->
<!-- Title: src/player/player_state.hpp Pages: 1 -->
<svg width="428pt" height="196pt"
 viewBox="0.00 0.00 427.50 196.00" xmlns="http://www.w3.org/2000/svg" xmlns:xlink="http://www.w3.org/1999/xlink">
<g id="graph0" class="graph" transform="scale(1 1) rotate(0) translate(4 192)">
<title>src/player/player_state.hpp</title>
<polygon fill="white" stroke="none" points="-4,4 -4,-192 423.5,-192 423.5,4 -4,4"/>
<!-- Node1 -->
<g id="node1" class="node"><title>Node1</title>
<polygon fill="#bfbfbf" stroke="black" points="18,-168.5 18,-187.5 163,-187.5 163,-168.5 18,-168.5"/>
<text text-anchor="middle" x="90.5" y="-175.5" font-family="Helvetica,sans-Serif" font-size="10.00">src/player/player_state.hpp</text>
</g>
<!-- Node2 -->
<g id="node2" class="node"><title>Node2</title>
<polygon fill="white" stroke="#bfbfbf" points="0,-56.5 0,-75.5 47,-75.5 47,-56.5 0,-56.5"/>
<text text-anchor="middle" x="23.5" y="-63.5" font-family="Helvetica,sans-Serif" font-size="10.00">cstdint</text>
</g>
<!-- Node1&#45;&gt;Node2 -->
<g id="edge1" class="edge"><title>Node1&#45;&gt;Node2</title>
<path fill="none" stroke="midnightblue" d="M78.0982,-168.399C67.2092,-160.228 51.7098,-146.987 42.5,-132 33.7478,-117.757 28.8566,-99.284 26.2374,-85.6734"/>
<polygon fill="midnightblue" stroke="midnightblue" points="29.6502,-84.863 24.5367,-75.5838 22.7476,-86.0265 29.6502,-84.863"/>
</g>
<!-- Node3 -->
<g id="node3" class="node"><title>Node3</title>
<polygon fill="white" stroke="#bfbfbf" points="52,-112.5 52,-131.5 129,-131.5 129,-112.5 52,-112.5"/>
<text text-anchor="middle" x="90.5" y="-119.5" font-family="Helvetica,sans-Serif" font-size="10.00">initializer_list</text>
</g>
<!-- Node1&#45;&gt;Node3 -->
<g id="edge2" class="edge"><title>Node1&#45;&gt;Node3</title>
<path fill="none" stroke="midnightblue" d="M90.5,-168.083C90.5,-161.006 90.5,-150.861 90.5,-141.986"/>
<polygon fill="midnightblue" stroke="midnightblue" points="94.0001,-141.751 90.5,-131.751 87.0001,-141.751 94.0001,-141.751"/>
</g>
<!-- Node4 -->
<g id="node4" class="node"><title>Node4</title>
<g id="a_node4"><a xlink:href="io__response_8hpp.html" target="_top" xlink:title="Declaration of classes pertaining to responses to the client. ">
<polygon fill="white" stroke="black" points="147.5,-112.5 147.5,-131.5 261.5,-131.5 261.5,-112.5 147.5,-112.5"/>
<text text-anchor="middle" x="204.5" y="-119.5" font-family="Helvetica,sans-Serif" font-size="10.00">../io/io_response.hpp</text>
</a>
</g>
</g>
<!-- Node1&#45;&gt;Node4 -->
<g id="edge3" class="edge"><title>Node1&#45;&gt;Node4</title>
<path fill="none" stroke="midnightblue" d="M108.564,-168.444C127.075,-159.675 156.081,-145.935 177.355,-135.858"/>
<polygon fill="midnightblue" stroke="midnightblue" points="178.982,-138.96 186.521,-131.516 175.985,-132.634 178.982,-138.96"/>
</g>
<!-- Node4&#45;&gt;Node2 -->
<g id="edge4" class="edge"><title>Node4&#45;&gt;Node2</title>
<path fill="none" stroke="midnightblue" d="M175.82,-112.444C143.57,-102.822 91.2568,-87.2147 57.1135,-77.0283"/>
<polygon fill="midnightblue" stroke="midnightblue" points="57.7263,-73.5588 47.143,-74.0537 55.725,-80.2666 57.7263,-73.5588"/>
</g>
<!-- Node5 -->
<g id="node5" class="node"><title>Node5</title>
<polygon fill="white" stroke="#bfbfbf" points="65,-56.5 65,-75.5 102,-75.5 102,-56.5 65,-56.5"/>
<text text-anchor="middle" x="83.5" y="-63.5" font-family="Helvetica,sans-Serif" font-size="10.00">map</text>
</g>
<!-- Node4&#45;&gt;Node5 -->
<g id="edge5" class="edge"><title>Node4&#45;&gt;Node5</title>
<path fill="none" stroke="midnightblue" d="M185.327,-112.444C165.475,-103.584 134.25,-89.6488 111.609,-79.5443"/>
<polygon fill="midnightblue" stroke="midnightblue" points="112.744,-76.2183 102.186,-75.339 109.891,-82.6106 112.744,-76.2183"/>
</g>
<!-- Node6 -->
<g id="node6" class="node"><title>Node6</title>
<polygon fill="white" stroke="#bfbfbf" points="120,-56.5 120,-75.5 175,-75.5 175,-56.5 120,-56.5"/>
<text text-anchor="middle" x="147.5" y="-63.5" font-family="Helvetica,sans-Serif" font-size="10.00">ostream</text>
</g>
<!-- Node4&#45;&gt;Node6 -->
<g id="edge6" class="edge"><title>Node4&#45;&gt;Node6</title>
<path fill="none" stroke="midnightblue" d="M195.342,-112.324C186.999,-104.42 174.468,-92.5482 164.323,-82.9377"/>
<polygon fill="midnightblue" stroke="midnightblue" points="166.491,-80.1705 156.825,-75.8339 161.677,-85.2522 166.491,-80.1705"/>
</g>
<!-- Node7 -->
<g id="node7" class="node"><title>Node7</title>
<polygon fill="white" stroke="#bfbfbf" points="193,-56.5 193,-75.5 236,-75.5 236,-56.5 193,-56.5"/>
<text text-anchor="middle" x="214.5" y="-63.5" font-family="Helvetica,sans-Serif" font-size="10.00">string</text>
</g>
<!-- Node4&#45;&gt;Node7 -->
<g id="edge7" class="edge"><title>Node4&#45;&gt;Node7</title>
<path fill="none" stroke="midnightblue" d="M206.151,-112.083C207.476,-104.927 209.382,-94.6353 211.039,-85.6911"/>
<polygon fill="midnightblue" stroke="midnightblue" points="214.5,-86.2212 212.879,-75.7511 207.617,-84.9466 214.5,-86.2212"/>
</g>
<!-- Node8 -->
<g id="node8" class="node"><title>Node8</title>
<polygon fill="white" stroke="#bfbfbf" points="254.5,-56.5 254.5,-75.5 300.5,-75.5 300.5,-56.5 254.5,-56.5"/>
<text text-anchor="middle" x="277.5" y="-63.5" font-family="Helvetica,sans-Serif" font-size="10.00">vector</text>
</g>
<!-- Node4&#45;&gt;Node8 -->
<g id="edge8" class="edge"><title>Node4&#45;&gt;Node8</title>
<path fill="none" stroke="midnightblue" d="M216.229,-112.324C227.337,-104.107 244.242,-91.6017 257.483,-81.8069"/>
<polygon fill="midnightblue" stroke="midnightblue" points="259.6,-84.5948 265.558,-75.8339 255.437,-78.9671 259.6,-84.5948"/>
</g>
<!-- Node9 -->
<g id="node9" class="node"><title>Node9</title>
<g id="a_node9"><a xlink:href="errors_8hpp.html" target="_top" xlink:title="Declarations of the playd Error exception set. ">
<polygon fill="white" stroke="black" points="319,-56.5 319,-75.5 392,-75.5 392,-56.5 319,-56.5"/>
<text text-anchor="middle" x="355.5" y="-63.5" font-family="Helvetica,sans-Serif" font-size="10.00">../errors.hpp</text>
</a>
</g>
</g>
<!-- Node4&#45;&gt;Node9 -->
<g id="edge9" class="edge"><title>Node4&#45;&gt;Node9</title>
<path fill="none" stroke="midnightblue" d="M228.426,-112.444C253.719,-103.399 293.802,-89.064 322.18,-78.9158"/>
<polygon fill="midnightblue" stroke="midnightblue" points="323.448,-82.1794 331.686,-75.5164 321.091,-75.5882 323.448,-82.1794"/>
</g>
<!-- Node10 -->
<g id="node10" class="node"><title>Node10</title>
<polygon fill="white" stroke="#bfbfbf" points="290,-0.5 290,-19.5 347,-19.5 347,-0.5 290,-0.5"/>
<text text-anchor="middle" x="318.5" y="-7.5" font-family="Helvetica,sans-Serif" font-size="10.00">iostream</text>
</g>
<!-- Node9&#45;&gt;Node10 -->
<g id="edge10" class="edge"><title>Node9&#45;&gt;Node10</title>
<path fill="none" stroke="midnightblue" d="M349.39,-56.083C344.218,-48.5341 336.654,-37.4948 330.306,-28.2298"/>
<polygon fill="midnightblue" stroke="midnightblue" points="333.036,-26.0221 324.496,-19.7511 327.261,-29.9787 333.036,-26.0221"/>
</g>
<!-- Node11 -->
<g id="node11" class="node"><title>Node11</title>
<polygon fill="white" stroke="#bfbfbf" points="365.5,-0.5 365.5,-19.5 419.5,-19.5 419.5,-0.5 365.5,-0.5"/>
<text text-anchor="middle" x="392.5" y="-7.5" font-family="Helvetica,sans-Serif" font-size="10.00">sstream</text>
</g>
<!-- Node9&#45;&gt;Node11 -->
<g id="edge11" class="edge"><title>Node9&#45;&gt;Node11</title>
<path fill="none" stroke="midnightblue" d="M361.61,-56.083C366.782,-48.5341 374.346,-37.4948 380.694,-28.2298"/>
<polygon fill="midnightblue" stroke="midnightblue" points="383.739,-29.9787 386.504,-19.7511 377.964,-26.0221 383.739,-29.9787"/>
</g>
</g>
</svg>
