<?xml version="1.0" encoding="UTF-8" standalone="no"?>
<!DOCTYPE svg PUBLIC "-//W3C//DTD SVG 1.1//EN"
 "http://www.w3.org/Graphics/SVG/1.1/DTD/svg11.dtd">
<!-- Generated by graphviz version 2.38.0 (20140413.2041)
 -->
<!-- Title: src/player/player_position.hpp Pages: 1 -->
<!--zoomable 196 -->
<svg id="main" version="1.1" xmlns="http://www.w3.org/2000/svg" xmlns:xlink="http://www.w3.org/1999/xlink" xml:space="preserve" onload="init(evt)">
<style type="text/css"><![CDATA[
.edge:hover path { stroke: red; }
.edge:hover polygon { stroke: red; fill: red; }
]]></style>
<script type="text/javascript"><![CDATA[
var edges = document.getElementsByTagName('g');
if (edges && edges.length) {
  for (var i=0;i<edges.length;i++) {
    if (edges[i].id.substr(0,4)=='edge') {
      edges[i].setAttribute('class','edge');
    }
  }
}
]]></script>
        <defs>
                <circle id="rim" cx="0" cy="0" r="7"/>
                <circle id="rim2" cx="0" cy="0" r="3.5"/>
                <g id="zoomPlus">
                        <use xlink:href="#rim" fill="#404040">
                                <set attributeName="fill" to="#808080" begin="zoomplus.mouseover" end="zoomplus.mouseout"/>
                        </use>
                        <path d="M-4,0h8M0,-4v8" fill="none" stroke="white" stroke-width="1.5" pointer-events="none"/>
                </g>
                <g id="zoomMin">
                        <use xlink:href="#rim" fill="#404040">
                                <set attributeName="fill" to="#808080" begin="zoomminus.mouseover" end="zoomminus.mouseout"/>
                        </use>
                        <path d="M-4,0h8" fill="none" stroke="white" stroke-width="1.5" pointer-events="none"/>
                </g>
                <g id="dirArrow">
                        <path fill="none" stroke="white" stroke-width="1.5" d="M0,-3.0v7 M-2.5,-0.5L0,-3.0L2.5,-0.5"/>
                </g>
               <g id="resetDef">
                       <use xlink:href="#rim2" fill="#404040">
                               <set attributeName="fill" to="#808080" begin="reset.mouseover" end="reset.mouseout"/>
                       </use>
               </g>
        </defs>

<script type="text/javascript">
var viewWidth = 605;
var viewHeight = 196;
var sectionId = 'dynsection-0';
</script>
<script xlink:href="svgpan.js"/>
<svg id="graph" class="graph">
<g id="viewport">
<title>src/player/player_position.hpp</title>
<polygon fill="white" stroke="none" points="-4,4 -4,-192 600.629,-192 600.629,4 -4,4"/>
<!-- Node1 -->
<g id="node1" class="node"><title>Node1</title>
<polygon fill="#bfbfbf" stroke="black" points="129.129,-168.5 129.129,-187.5 287.129,-187.5 287.129,-168.5 129.129,-168.5"/>
<text text-anchor="middle" x="208.129" y="-175.5" font-family="Helvetica,sans-Serif" font-size="10.00">src/player/player_position.hpp</text>
</g>
<!-- Node2 -->
<g id="node2" class="node"><title>Node2</title>
<polygon fill="white" stroke="#bfbfbf" points="90.6289,-112.5 90.6289,-131.5 121.629,-131.5 121.629,-112.5 90.6289,-112.5"/>
<text text-anchor="middle" x="106.129" y="-119.5" font-family="Helvetica,sans-Serif" font-size="10.00">set</text>
</g>
<!-- Node1&#45;&gt;Node2 -->
<g id="edge1" class="edge"><title>Node1&#45;&gt;Node2</title>
<path fill="none" stroke="midnightblue" d="M191.741,-168.324C175.265,-159.601 149.664,-146.048 130.746,-136.033"/>
<polygon fill="midnightblue" stroke="midnightblue" points="132.282,-132.885 121.806,-131.3 129.007,-139.072 132.282,-132.885"/>
</g>
<!-- Node3 -->
<g id="node3" class="node"><title>Node3</title>
<g id="a_node3"><a xlink:href="audio__source_8hpp.html" target="_top" xlink:title="Declaration of the AudioSource class. ">
<polygon fill="white" stroke="black" points="140.129,-112.5 140.129,-131.5 276.129,-131.5 276.129,-112.5 140.129,-112.5"/>
<text text-anchor="middle" x="208.129" y="-119.5" font-family="Helvetica,sans-Serif" font-size="10.00">../audio/audio_source.hpp</text>
</a>
</g>
</g>
<!-- Node1&#45;&gt;Node3 -->
<g id="edge2" class="edge"><title>Node1&#45;&gt;Node3</title>
<path fill="none" stroke="midnightblue" d="M208.129,-168.083C208.129,-161.006 208.129,-150.861 208.129,-141.986"/>
<polygon fill="midnightblue" stroke="midnightblue" points="211.629,-141.751 208.129,-131.751 204.629,-141.751 211.629,-141.751"/>
</g>
<!-- Node13 -->
<g id="node13" class="node"><title>Node13</title>
<g id="a_node13"><a xlink:href="io__response_8hpp.html" target="_top" xlink:title="Declaration of classes pertaining to responses to the client. ">
<polygon fill="white" stroke="black" points="390.129,-112.5 390.129,-131.5 504.129,-131.5 504.129,-112.5 390.129,-112.5"/>
<text text-anchor="middle" x="447.129" y="-119.5" font-family="Helvetica,sans-Serif" font-size="10.00">../io/io_response.hpp</text>
</a>
</g>
</g>
<!-- Node1&#45;&gt;Node13 -->
<g id="edge13" class="edge"><title>Node1&#45;&gt;Node13</title>
<path fill="none" stroke="midnightblue" d="M245.999,-168.444C287.605,-159.043 354.498,-143.929 399.597,-133.739"/>
<polygon fill="midnightblue" stroke="midnightblue" points="400.453,-137.134 409.436,-131.516 398.91,-130.306 400.453,-137.134"/>
</g>
<!-- Node4 -->
<g id="node4" class="node"><title>Node4</title>
<polygon fill="white" stroke="#bfbfbf" points="138.629,-56.5 138.629,-75.5 179.629,-75.5 179.629,-56.5 138.629,-56.5"/>
<text text-anchor="middle" x="159.129" y="-63.5" font-family="Helvetica,sans-Serif" font-size="10.00">array</text>
</g>
<!-- Node3&#45;&gt;Node4 -->
<g id="edge3" class="edge"><title>Node3&#45;&gt;Node4</title>
<path fill="none" stroke="midnightblue" d="M200.038,-112.083C192.974,-104.298 182.541,-92.8015 173.98,-83.3665"/>
<polygon fill="midnightblue" stroke="midnightblue" points="176.382,-80.8047 167.07,-75.7511 171.198,-85.5087 176.382,-80.8047"/>
</g>
<!-- Node5 -->
<g id="node5" class="node"><title>Node5</title>
<polygon fill="white" stroke="#bfbfbf" points="98.6289,-0.5 98.6289,-19.5 145.629,-19.5 145.629,-0.5 98.6289,-0.5"/>
<text text-anchor="middle" x="122.129" y="-7.5" font-family="Helvetica,sans-Serif" font-size="10.00">cstdint</text>
</g>
<!-- Node3&#45;&gt;Node5 -->
<g id="edge4" class="edge"><title>Node3&#45;&gt;Node5</title>
<path fill="none" stroke="midnightblue" d="M153.986,-112.496C97.3747,-103.054 15.4417,-87.6158 6.12888,-76 -19.4178,-44.136 45.743,-25.2701 88.4418,-16.6545"/>
<polygon fill="midnightblue" stroke="midnightblue" points="89.3193,-20.0501 98.4821,-14.7309 88.0021,-13.1751 89.3193,-20.0501"/>
</g>
<!-- Node6 -->
<g id="node6" class="node"><title>Node6</title>
<polygon fill="white" stroke="#bfbfbf" points="425.629,-56.5 425.629,-75.5 468.629,-75.5 468.629,-56.5 425.629,-56.5"/>
<text text-anchor="middle" x="447.129" y="-63.5" font-family="Helvetica,sans-Serif" font-size="10.00">string</text>
</g>
<!-- Node3&#45;&gt;Node6 -->
<g id="edge5" class="edge"><title>Node3&#45;&gt;Node6</title>
<path fill="none" stroke="midnightblue" d="M251.757,-112.48C291.842,-104.446 353.101,-91.6553 415.483,-76.0204"/>
<polygon fill="midnightblue" stroke="midnightblue" points="416.664,-79.3318 425.501,-73.4869 414.948,-72.5454 416.664,-79.3318"/>
</g>
<!-- Node7 -->
<g id="node7" class="node"><title>Node7</title>
<polygon fill="white" stroke="#bfbfbf" points="15.1289,-56.5 15.1289,-75.5 61.1289,-75.5 61.1289,-56.5 15.1289,-56.5"/>
<text text-anchor="middle" x="38.1289" y="-63.5" font-family="Helvetica,sans-Serif" font-size="10.00">vector</text>
</g>
<!-- Node3&#45;&gt;Node7 -->
<g id="edge6" class="edge"><title>Node3&#45;&gt;Node7</title>
<path fill="none" stroke="midnightblue" d="M181.192,-112.444C151.37,-102.971 103.283,-87.6961 71.1997,-77.5048"/>
<polygon fill="midnightblue" stroke="midnightblue" points="71.979,-74.0801 61.3887,-74.3884 69.8598,-80.7516 71.979,-74.0801"/>
</g>
<!-- Node8 -->
<g id="node8" class="node"><title>Node8</title>
<polygon fill="white" stroke="#bfbfbf" points="79.6289,-56.5 79.6289,-75.5 120.629,-75.5 120.629,-56.5 79.6289,-56.5"/>
<text text-anchor="middle" x="100.129" y="-63.5" font-family="Helvetica,sans-Serif" font-size="10.00">sox.h</text>
</g>
<!-- Node3&#45;&gt;Node8 -->
<g id="edge7" class="edge"><title>Node3&#45;&gt;Node8</title>
<path fill="none" stroke="midnightblue" d="M190.777,-112.324C173.457,-103.664 146.614,-90.2424 126.627,-80.249"/>
<polygon fill="midnightblue" stroke="midnightblue" points="127.947,-76.9962 117.438,-75.6545 124.817,-83.2572 127.947,-76.9962"/>
</g>
<!-- Node9 -->
<g id="node9" class="node"><title>Node9</title>
<g id="a_node9"><a xlink:href="errors_8hpp.html" target="_top" xlink:title="Declarations of the playd Error exception set. ">
<polygon fill="white" stroke="black" points="334.629,-56.5 334.629,-75.5 407.629,-75.5 407.629,-56.5 334.629,-56.5"/>
<text text-anchor="middle" x="371.129" y="-63.5" font-family="Helvetica,sans-Serif" font-size="10.00">../errors.hpp</text>
</a>
</g>
</g>
<!-- Node3&#45;&gt;Node9 -->
<g id="edge8" class="edge"><title>Node3&#45;&gt;Node9</title>
<path fill="none" stroke="midnightblue" d="M233.957,-112.444C261.378,-103.359 304.906,-88.9388 335.561,-78.7831"/>
<polygon fill="midnightblue" stroke="midnightblue" points="337.03,-81.9837 345.422,-75.5164 334.829,-75.3389 337.03,-81.9837"/>
</g>
<!-- Node12 -->
<g id="node12" class="node"><title>Node12</title>
<g id="a_node12"><a xlink:href="sample__formats_8hpp.html" target="_top" xlink:title="The SampleFormat enumeration. ">
<polygon fill="white" stroke="black" points="197.629,-56.5 197.629,-75.5 316.629,-75.5 316.629,-56.5 197.629,-56.5"/>
<text text-anchor="middle" x="257.129" y="-63.5" font-family="Helvetica,sans-Serif" font-size="10.00">../sample_formats.hpp</text>
</a>
</g>
</g>
<!-- Node3&#45;&gt;Node12 -->
<g id="edge11" class="edge"><title>Node3&#45;&gt;Node12</title>
<path fill="none" stroke="midnightblue" d="M216.22,-112.083C223.284,-104.298 233.716,-92.8015 242.278,-83.3665"/>
<polygon fill="midnightblue" stroke="midnightblue" points="245.06,-85.5087 249.188,-75.7511 239.876,-80.8047 245.06,-85.5087"/>
</g>
<!-- Node10 -->
<g id="node10" class="node"><title>Node10</title>
<polygon fill="white" stroke="#bfbfbf" points="379.629,-0.5 379.629,-19.5 436.629,-19.5 436.629,-0.5 379.629,-0.5"/>
<text text-anchor="middle" x="408.129" y="-7.5" font-family="Helvetica,sans-Serif" font-size="10.00">iostream</text>
</g>
<!-- Node9&#45;&gt;Node10 -->
<g id="edge9" class="edge"><title>Node9&#45;&gt;Node10</title>
<path fill="none" stroke="midnightblue" d="M377.239,-56.083C382.411,-48.5341 389.975,-37.4948 396.323,-28.2298"/>
<polygon fill="midnightblue" stroke="midnightblue" points="399.368,-29.9787 402.133,-19.7511 393.593,-26.0221 399.368,-29.9787"/>
</g>
<!-- Node11 -->
<g id="node11" class="node"><title>Node11</title>
<polygon fill="white" stroke="#bfbfbf" points="307.129,-0.5 307.129,-19.5 361.129,-19.5 361.129,-0.5 307.129,-0.5"/>
<text text-anchor="middle" x="334.129" y="-7.5" font-family="Helvetica,sans-Serif" font-size="10.00">sstream</text>
</g>
<!-- Node9&#45;&gt;Node11 -->
<g id="edge10" class="edge"><title>Node9&#45;&gt;Node11</title>
<path fill="none" stroke="midnightblue" d="M365.019,-56.083C359.847,-48.5341 352.283,-37.4948 345.934,-28.2298"/>
<polygon fill="midnightblue" stroke="midnightblue" points="348.665,-26.0221 340.125,-19.7511 342.89,-29.9787 348.665,-26.0221"/>
</g>
<!-- Node12&#45;&gt;Node5 -->
<g id="edge12" class="edge"><title>Node12&#45;&gt;Node5</title>
<path fill="none" stroke="midnightblue" d="M235.738,-56.4435C213.422,-47.5171 178.226,-33.4387 152.921,-23.3168"/>
<polygon fill="midnightblue" stroke="midnightblue" points="154.005,-19.9807 143.42,-19.5164 151.405,-26.4801 154.005,-19.9807"/>
</g>
<!-- Node13&#45;&gt;Node6 -->
<g id="edge16" class="edge"><title>Node13&#45;&gt;Node6</title>
<path fill="none" stroke="midnightblue" d="M447.129,-112.083C447.129,-105.006 447.129,-94.8611 447.129,-85.9865"/>
<polygon fill="midnightblue" stroke="midnightblue" points="450.629,-85.751 447.129,-75.7511 443.629,-85.7511 450.629,-85.751"/>
</g>
<!-- Node13&#45;&gt;Node9 -->
<g id="edge17" class="edge"><title>Node13&#45;&gt;Node9</title>
<path fill="none" stroke="midnightblue" d="M434.918,-112.324C423.353,-104.107 405.753,-91.6017 391.968,-81.8069"/>
<polygon fill="midnightblue" stroke="midnightblue" points="393.741,-78.7729 383.562,-75.8339 389.686,-84.4791 393.741,-78.7729"/>
</g>
<!-- Node14 -->
<g id="node14" class="node"><title>Node14</title>
<polygon fill="white" stroke="#bfbfbf" points="559.629,-56.5 559.629,-75.5 596.629,-75.5 596.629,-56.5 559.629,-56.5"/>
<text text-anchor="middle" x="578.129" y="-63.5" font-family="Helvetica,sans-Serif" font-size="10.00">map</text>
</g>
<!-- Node13&#45;&gt;Node14 -->
<g id="edge14" class="edge"><title>Node13&#45;&gt;Node14</title>
<path fill="none" stroke="midnightblue" d="M467.886,-112.444C490.079,-103.295 525.4,-88.7356 550.062,-78.5695"/>
<polygon fill="midnightblue" stroke="midnightblue" points="551.675,-81.6903 559.587,-74.6433 549.008,-75.2186 551.675,-81.6903"/>
</g>
<!-- Node15 -->
<g id="node15" class="node"><title>Node15</title>
<polygon fill="white" stroke="#bfbfbf" points="486.629,-56.5 486.629,-75.5 541.629,-75.5 541.629,-56.5 486.629,-56.5"/>
<text text-anchor="middle" x="514.129" y="-63.5" font-family="Helvetica,sans-Serif" font-size="10.00">ostream</text>
</g>
<!-- Node13&#45;&gt;Node15 -->
<g id="edge15" class="edge"><title>Node13&#45;&gt;Node15</title>
<path fill="none" stroke="midnightblue" d="M457.894,-112.324C467.895,-104.263 483.015,-92.0765 495.059,-82.3695"/>
<polygon fill="midnightblue" stroke="midnightblue" points="497.579,-84.8343 503.168,-75.8339 493.186,-79.3841 497.579,-84.8343"/>
</g>
</g>
</svg>
        <g id="navigator" transform="translate(0 0)" fill="#404254">
                <rect fill="#f2f5e9" fill-opacity="0.5" stroke="#606060" stroke-width=".5" x="0" y="0" width="60" height="60"/>
                <use id="zoomplus" xlink:href="#zoomPlus" x="17" y="9" onmousedown="handleZoom(evt,'in')"/>
                <use id="zoomminus" xlink:href="#zoomMin" x="42" y="9" onmousedown="handleZoom(evt,'out')"/>
                <use id="reset" xlink:href="#resetDef" x="30" y="36" onmousedown="handleReset()"/>
                <g id="arrowUp" xlink:href="#dirArrow" transform="translate(30 24)" onmousedown="handlePan(0,-1)">
                  <use xlink:href="#rim" fill="#404040">
                        <set attributeName="fill" to="#808080" begin="arrowUp.mouseover" end="arrowUp.mouseout"/>
                  </use>
                  <path fill="none" stroke="white" stroke-width="1.5" d="M0,-3.0v7 M-2.5,-0.5L0,-3.0L2.5,-0.5"/>
                </g>
                <g id="arrowRight" xlink:href="#dirArrow" transform="rotate(90) translate(36 -43)" onmousedown="handlePan(1,0)">
                  <use xlink:href="#rim" fill="#404040">
                        <set attributeName="fill" to="#808080" begin="arrowRight.mouseover" end="arrowRight.mouseout"/>
                  </use>
                  <path fill="none" stroke="white" stroke-width="1.5" d="M0,-3.0v7 M-2.5,-0.5L0,-3.0L2.5,-0.5"/>
                </g>
                <g id="arrowDown" xlink:href="#dirArrow" transform="rotate(180) translate(-30 -48)" onmousedown="handlePan(0,1)">
                  <use xlink:href="#rim" fill="#404040">
                        <set attributeName="fill" to="#808080" begin="arrowDown.mouseover" end="arrowDown.mouseout"/>
                  </use>
                  <path fill="none" stroke="white" stroke-width="1.5" d="M0,-3.0v7 M-2.5,-0.5L0,-3.0L2.5,-0.5"/>
                </g>
                <g id="arrowLeft" xlink:href="#dirArrow" transform="rotate(270) translate(-36 17)" onmousedown="handlePan(-1,0)">
                  <use xlink:href="#rim" fill="#404040">
                        <set attributeName="fill" to="#808080" begin="arrowLeft.mouseover" end="arrowLeft.mouseout"/>
                  </use>
                  <path fill="none" stroke="white" stroke-width="1.5" d="M0,-3.0v7 M-2.5,-0.5L0,-3.0L2.5,-0.5"/>
                </g>
        </g>
        <svg viewBox="0 0 15 15" width="100%" height="30px" preserveAspectRatio="xMaxYMin meet">
         <g id="arrow_out" transform="scale(0.3 0.3)">
          <a xlink:href="player__position_8hpp__incl_org.svg" target="_base">
           <rect id="button" ry="5" rx="5" y="6" x="6" height="38" width="38"
                fill="#f2f5e9" fill-opacity="0.5" stroke="#606060" stroke-width="1.0"/>
           <path id="arrow"
             d="M 11.500037,31.436501 C 11.940474,20.09759 22.043105,11.32322 32.158766,21.979434 L 37.068811,17.246167 C 37.068811,17.246167 37.088388,32 37.088388,32 L 22.160133,31.978069 C 22.160133,31.978069 26.997745,27.140456 26.997745,27.140456 C 18.528582,18.264221 13.291696,25.230495 11.500037,31.436501 z"
             style="fill:#404040;"/>
          </a>
         </g>
        </svg>
</svg>
