<?xml version="1.0" encoding="UTF-8" standalone="no"?>
<!DOCTYPE svg PUBLIC "-//W3C//DTD SVG 1.1//EN"
 "http://www.w3.org/Graphics/SVG/1.1/DTD/svg11.dtd">
<!-- Generated by graphviz version 2.36.0 (20140111.2315)
 -->
<!-- Title: src/player.hpp Pages: 1 -->
<svg width="262pt" height="140pt"
 viewBox="0.00 0.00 262.00 140.00" xmlns="http://www.w3.org/2000/svg" xmlns:xlink="http://www.w3.org/1999/xlink">
<g id="graph0" class="graph" transform="scale(1 1) rotate(0) translate(4 136)">
<title>src/player.hpp</title>
<polygon fill="white" stroke="none" points="-4,4 -4,-136 258,-136 258,4 -4,4"/>
<!-- Node21 -->
<g id="node1" class="node"><title>Node21</title>
<polygon fill="#bfbfbf" stroke="black" points="71.5,-112.5 71.5,-131.5 154.5,-131.5 154.5,-112.5 71.5,-112.5"/>
<text text-anchor="middle" x="113" y="-119.5" font-family="Helvetica,sans-Serif" font-size="10.00">src/player.hpp</text>
</g>
<!-- Node22 -->
<g id="node2" class="node"><title>Node22</title>
<g id="a_node2"><a xlink:href="io_8cpp.html" target="_top" xlink:title="Implementation of the non&#45;virtual aspects of the IoCore class. ">
<polygon fill="white" stroke="black" points="0,-0.5 0,-19.5 62,-19.5 62,-0.5 0,-0.5"/>
<text text-anchor="middle" x="31" y="-7.5" font-family="Helvetica,sans-Serif" font-size="10.00">src/io.cpp</text>
</a>
</g>
</g>
<!-- Node21&#45;&gt;Node22 -->
<g id="edge1" class="edge"><title>Node21&#45;&gt;Node22</title>
<path fill="none" stroke="midnightblue" d="M81.1086,-108.085C66.9587,-100.746 51.4121,-90.1559 42,-76 30.4669,-58.654 29.7727,-33.1187 30.335,-19.8056"/>
<polygon fill="midnightblue" stroke="midnightblue" points="79.6001,-111.243 90.1268,-112.443 82.6458,-104.941 79.6001,-111.243"/>
</g>
<!-- Node23 -->
<g id="node3" class="node"><title>Node23</title>
<g id="a_node3"><a xlink:href="io_8hpp.html" target="_top" xlink:title="Declaration of the I/O classes used in playd. ">
<polygon fill="white" stroke="black" points="51.5,-56.5 51.5,-75.5 114.5,-75.5 114.5,-56.5 51.5,-56.5"/>
<text text-anchor="middle" x="83" y="-63.5" font-family="Helvetica,sans-Serif" font-size="10.00">src/io.hpp</text>
</a>
</g>
</g>
<!-- Node21&#45;&gt;Node23 -->
<g id="edge2" class="edge"><title>Node21&#45;&gt;Node23</title>
<path fill="none" stroke="midnightblue" d="M103.153,-103.275C98.0252,-94.0454 91.9835,-83.1703 87.8617,-75.7511"/>
<polygon fill="midnightblue" stroke="midnightblue" points="100.13,-105.041 108.046,-112.083 106.249,-101.642 100.13,-105.041"/>
</g>
<!-- Node24 -->
<g id="node4" class="node"><title>Node24</title>
<g id="a_node4"><a xlink:href="main_8cpp.html" target="_top" xlink:title="Main entry point and implementation of the playd class. ">
<polygon fill="white" stroke="black" points="96,-0.5 96,-19.5 174,-19.5 174,-0.5 96,-0.5"/>
<text text-anchor="middle" x="135" y="-7.5" font-family="Helvetica,sans-Serif" font-size="10.00">src/main.cpp</text>
</a>
</g>
</g>
<!-- Node21&#45;&gt;Node24 -->
<g id="edge5" class="edge"><title>Node21&#45;&gt;Node24</title>
<path fill="none" stroke="midnightblue" d="M117.268,-102.504C119.1,-94.3866 121.224,-84.7347 123,-76 127.07,-55.9834 131.282,-32.3775 133.47,-19.8509"/>
<polygon fill="midnightblue" stroke="midnightblue" points="113.824,-101.865 115.01,-112.393 120.648,-103.423 113.824,-101.865"/>
</g>
<!-- Node25 -->
<g id="node5" class="node"><title>Node25</title>
<g id="a_node5"><a xlink:href="player_8cpp.html" target="_top" xlink:title="Main implementation file for the Player class. ">
<polygon fill="white" stroke="black" points="171.5,-56.5 171.5,-75.5 254.5,-75.5 254.5,-56.5 171.5,-56.5"/>
<text text-anchor="middle" x="213" y="-63.5" font-family="Helvetica,sans-Serif" font-size="10.00">src/player.cpp</text>
</a>
</g>
</g>
<!-- Node21&#45;&gt;Node25 -->
<g id="edge6" class="edge"><title>Node21&#45;&gt;Node25</title>
<path fill="none" stroke="midnightblue" d="M138.088,-107.453C156.549,-97.4835 181.097,-84.2279 196.973,-75.6545"/>
<polygon fill="midnightblue" stroke="midnightblue" points="136.203,-104.493 129.067,-112.324 139.529,-110.652 136.203,-104.493"/>
</g>
<!-- Node23&#45;&gt;Node22 -->
<g id="edge3" class="edge"><title>Node23&#45;&gt;Node22</title>
<path fill="none" stroke="midnightblue" d="M67.3206,-48.7175C58.1553,-39.1997 46.9474,-27.5608 39.427,-19.7511"/>
<polygon fill="midnightblue" stroke="midnightblue" points="64.9557,-51.3075 74.4133,-56.083 69.9979,-46.452 64.9557,-51.3075"/>
</g>
<!-- Node23&#45;&gt;Node24 -->
<g id="edge4" class="edge"><title>Node23&#45;&gt;Node24</title>
<path fill="none" stroke="midnightblue" d="M98.6794,-48.7175C107.845,-39.1997 119.053,-27.5608 126.573,-19.7511"/>
<polygon fill="midnightblue" stroke="midnightblue" points="96.0021,-46.452 91.5867,-56.083 101.044,-51.3075 96.0021,-46.452"/>
</g>
</g>
</svg>
