<?xml version="1.0" encoding="UTF-8" standalone="no"?>
<!DOCTYPE svg PUBLIC "-//W3C//DTD SVG 1.1//EN"
 "http://www.w3.org/Graphics/SVG/1.1/DTD/svg11.dtd">
<!-- Generated by graphviz version 2.38.0 (20140413.2041)
 -->
<!-- Title: src/player/player_file.cpp Pages: 1 -->
<svg width="1484pt" height="375pt"
 viewBox="0.00 0.00 1484.40 375.00" xmlns="http://www.w3.org/2000/svg" xmlns:xlink="http://www.w3.org/1999/xlink">
<g id="graph0" class="graph" transform="scale(1 1) rotate(0) translate(4 371)">
<title>src/player/player_file.cpp</title>
<polygon fill="white" stroke="none" points="-4,4 -4,-371 1480.4,-371 1480.4,4 -4,4"/>
<!-- Node1 -->
<g id="node1" class="node"><title>Node1</title>
<polygon fill="#bfbfbf" stroke="black" points="184,-347.5 184,-366.5 318,-366.5 318,-347.5 184,-347.5"/>
<text text-anchor="middle" x="251" y="-354.5" font-family="Helvetica,sans-Serif" font-size="10.00">src/player/player_file.cpp</text>
</g>
<!-- Node2 -->
<g id="node2" class="node"><title>Node2</title>
<g id="a_node2"><a xlink:href="audio__system_8hpp.html" target="_top" xlink:title="Declaration of the AudioSystem class. ">
<polygon fill="white" stroke="black" points="788.5,-235.5 788.5,-254.5 931.5,-254.5 931.5,-235.5 788.5,-235.5"/>
<text text-anchor="middle" x="860" y="-242.5" font-family="Helvetica,sans-Serif" font-size="10.00">../audio/audio_system.hpp</text>
</a>
</g>
</g>
<!-- Node1&#45;&gt;Node2 -->
<g id="edge1" class="edge"><title>Node1&#45;&gt;Node2</title>
<path fill="none" stroke="midnightblue" d="M298.28,-347.46C408.667,-327.522 683.044,-277.963 802.69,-256.352"/>
<polygon fill="midnightblue" stroke="midnightblue" points="803.531,-259.756 812.75,-254.535 802.287,-252.868 803.531,-259.756"/>
</g>
<!-- Node20 -->
<g id="node20" class="node"><title>Node20</title>
<g id="a_node20"><a xlink:href="time__parser_8hpp.html" target="_top" xlink:title="Declaration of the TimeParser class. ">
<polygon fill="white" stroke="black" points="0,-62 0,-81 104,-81 104,-62 0,-62"/>
<text text-anchor="middle" x="52" y="-69" font-family="Helvetica,sans-Serif" font-size="10.00">../time_parser.hpp</text>
</a>
</g>
</g>
<!-- Node1&#45;&gt;Node20 -->
<g id="edge52" class="edge"><title>Node1&#45;&gt;Node20</title>
<path fill="none" stroke="midnightblue" d="M183.92,-347.878C124.462,-336.49 47,-309.474 47,-246 47,-246 47,-246 47,-188 47,-153.832 49.2111,-114.031 50.6925,-91.1984"/>
<polygon fill="midnightblue" stroke="midnightblue" points="54.1868,-91.4005 51.3667,-81.1878 47.2026,-90.93 54.1868,-91.4005"/>
</g>
<!-- Node26 -->
<g id="node26" class="node"><title>Node26</title>
<g id="a_node26"><a xlink:href="io__response_8hpp.html" target="_top" xlink:title="Declaration of classes pertaining to responses to the client. ">
<polygon fill="white" stroke="black" points="432,-123.5 432,-142.5 548,-142.5 548,-123.5 432,-123.5"/>
<text text-anchor="middle" x="490" y="-130.5" font-family="Helvetica,sans-Serif" font-size="10.00">../io/io_response.hpp</text>
</a>
</g>
</g>
<!-- Node1&#45;&gt;Node26 -->
<g id="edge46" class="edge"><title>Node1&#45;&gt;Node26</title>
<path fill="none" stroke="midnightblue" d="M261.478,-347.17C272.066,-338.192 288.838,-323.819 303,-311 367.466,-252.649 441.928,-180.783 473.977,-149.628"/>
<polygon fill="midnightblue" stroke="midnightblue" points="476.455,-152.1 481.179,-142.617 471.572,-147.084 476.455,-152.1"/>
</g>
<!-- Node29 -->
<g id="node29" class="node"><title>Node29</title>
<g id="a_node29"><a xlink:href="player__file_8hpp.html" target="_top" xlink:title="Declaration of the PlayerFile class, and associated types. ">
<polygon fill="white" stroke="black" points="208,-291.5 208,-310.5 294,-310.5 294,-291.5 208,-291.5"/>
<text text-anchor="middle" x="251" y="-298.5" font-family="Helvetica,sans-Serif" font-size="10.00">player_file.hpp</text>
</a>
</g>
</g>
<!-- Node1&#45;&gt;Node29 -->
<g id="edge53" class="edge"><title>Node1&#45;&gt;Node29</title>
<path fill="none" stroke="midnightblue" d="M251,-347.083C251,-340.006 251,-329.861 251,-320.986"/>
<polygon fill="midnightblue" stroke="midnightblue" points="254.5,-320.751 251,-310.751 247.5,-320.751 254.5,-320.751"/>
</g>
<!-- Node30 -->
<g id="node30" class="node"><title>Node30</title>
<g id="a_node30"><a xlink:href="player__position_8hpp.html" target="_top" xlink:title="Declaration of the PlayerPosition class. ">
<polygon fill="white" stroke="black" points="75,-179.5 75,-198.5 185,-198.5 185,-179.5 75,-179.5"/>
<text text-anchor="middle" x="130" y="-186.5" font-family="Helvetica,sans-Serif" font-size="10.00">player_position.hpp</text>
</a>
</g>
</g>
<!-- Node1&#45;&gt;Node30 -->
<g id="edge63" class="edge"><title>Node1&#45;&gt;Node30</title>
<path fill="none" stroke="midnightblue" d="M238.808,-347.352C227.547,-338.952 210.824,-325.39 199,-311 171.729,-277.813 149.084,-232.427 137.774,-207.748"/>
<polygon fill="midnightblue" stroke="midnightblue" points="140.927,-206.226 133.64,-198.534 134.54,-209.091 140.927,-206.226"/>
</g>
<!-- Node3 -->
<g id="node3" class="node"><title>Node3</title>
<polygon fill="white" stroke="#bfbfbf" points="1029,-0.5 1029,-19.5 1073,-19.5 1073,-0.5 1029,-0.5"/>
<text text-anchor="middle" x="1051" y="-7.5" font-family="Helvetica,sans-Serif" font-size="10.00">string</text>
</g>
<!-- Node2&#45;&gt;Node3 -->
<g id="edge2" class="edge"><title>Node2&#45;&gt;Node3</title>
<path fill="none" stroke="midnightblue" d="M931.545,-243.757C1078.56,-241.521 1406.3,-227.011 1471,-143 1521.22,-77.7953 1189.73,-28.8831 1083.2,-14.9949"/>
<polygon fill="midnightblue" stroke="midnightblue" points="1083.41,-11.4931 1073.04,-13.6886 1082.52,-18.4359 1083.41,-11.4931"/>
</g>
<!-- Node4 -->
<g id="node4" class="node"><title>Node4</title>
<polygon fill="white" stroke="#bfbfbf" points="1124,-123.5 1124,-142.5 1166,-142.5 1166,-123.5 1124,-123.5"/>
<text text-anchor="middle" x="1145" y="-130.5" font-family="Helvetica,sans-Serif" font-size="10.00">utility</text>
</g>
<!-- Node2&#45;&gt;Node4 -->
<g id="edge3" class="edge"><title>Node2&#45;&gt;Node4</title>
<path fill="none" stroke="midnightblue" d="M931.508,-244.93C1019.53,-244.367 1161.49,-237.318 1195,-199 1209.63,-182.272 1187.83,-161.778 1168.59,-148.329"/>
<polygon fill="midnightblue" stroke="midnightblue" points="1170.33,-145.289 1160.06,-142.685 1166.47,-151.125 1170.33,-145.289"/>
</g>
<!-- Node5 -->
<g id="node5" class="node"><title>Node5</title>
<polygon fill="white" stroke="#bfbfbf" points="989.5,-179.5 989.5,-198.5 1186.5,-198.5 1186.5,-179.5 989.5,-179.5"/>
<text text-anchor="middle" x="1088" y="-186.5" font-family="Helvetica,sans-Serif" font-size="10.00">portaudiocpp/SampleDataFormat.hxx</text>
</g>
<!-- Node2&#45;&gt;Node5 -->
<g id="edge4" class="edge"><title>Node2&#45;&gt;Node5</title>
<path fill="none" stroke="midnightblue" d="M896.127,-235.444C935.651,-226.083 999.097,-211.056 1042.11,-200.868"/>
<polygon fill="midnightblue" stroke="midnightblue" points="1043.12,-204.227 1052.04,-198.516 1041.5,-197.415 1043.12,-204.227"/>
</g>
<!-- Node6 -->
<g id="node6" class="node"><title>Node6</title>
<polygon fill="white" stroke="#bfbfbf" points="1324,-123.5 1324,-142.5 1462,-142.5 1462,-123.5 1324,-123.5"/>
<text text-anchor="middle" x="1393" y="-130.5" font-family="Helvetica,sans-Serif" font-size="10.00">portaudiocpp/Stream.hxx</text>
</g>
<!-- Node2&#45;&gt;Node6 -->
<g id="edge5" class="edge"><title>Node2&#45;&gt;Node6</title>
<path fill="none" stroke="midnightblue" d="M931.615,-239.431C1003.33,-233.787 1116.46,-221.972 1212,-199 1267.1,-185.751 1328.71,-161.494 1363.97,-146.653"/>
<polygon fill="midnightblue" stroke="midnightblue" points="1365.78,-149.687 1373.61,-142.552 1363.04,-143.246 1365.78,-149.687"/>
</g>
<!-- Node7 -->
<g id="node7" class="node"><title>Node7</title>
<g id="a_node7"><a xlink:href="sample__formats_8hpp.html" target="_top" xlink:title="The SampleFormat enumeration. ">
<polygon fill="white" stroke="black" points="122.5,-62 122.5,-81 247.5,-81 247.5,-62 122.5,-62"/>
<text text-anchor="middle" x="185" y="-69" font-family="Helvetica,sans-Serif" font-size="10.00">../sample_formats.hpp</text>
</a>
</g>
</g>
<!-- Node2&#45;&gt;Node7 -->
<g id="edge6" class="edge"><title>Node2&#45;&gt;Node7</title>
<path fill="none" stroke="midnightblue" d="M788.103,-239.931C679.573,-231.828 468.957,-208.391 303,-143 266.119,-128.468 227.417,-103.111 204.786,-87.0964"/>
<polygon fill="midnightblue" stroke="midnightblue" points="206.556,-84.0583 196.394,-81.0617 202.47,-89.7415 206.556,-84.0583"/>
</g>
<!-- Node9 -->
<g id="node9" class="node"><title>Node9</title>
<g id="a_node9"><a xlink:href="audio__sink_8hpp.html" target="_top" xlink:title="Declaration of the AudioSink class. ">
<polygon fill="white" stroke="black" points="883,-179.5 883,-198.5 971,-198.5 971,-179.5 883,-179.5"/>
<text text-anchor="middle" x="927" y="-186.5" font-family="Helvetica,sans-Serif" font-size="10.00">audio_sink.hpp</text>
</a>
</g>
</g>
<!-- Node2&#45;&gt;Node9 -->
<g id="edge8" class="edge"><title>Node2&#45;&gt;Node9</title>
<path fill="none" stroke="midnightblue" d="M870.765,-235.324C880.766,-227.263 895.887,-215.077 907.93,-205.369"/>
<polygon fill="midnightblue" stroke="midnightblue" points="910.45,-207.834 916.039,-198.834 906.057,-202.384 910.45,-207.834"/>
</g>
<!-- Node14 -->
<g id="node14" class="node"><title>Node14</title>
<g id="a_node14"><a xlink:href="audio__source_8hpp.html" target="_top" xlink:title="Declaration of the AudioSource class. ">
<polygon fill="white" stroke="black" points="312.5,-123.5 312.5,-142.5 413.5,-142.5 413.5,-123.5 312.5,-123.5"/>
<text text-anchor="middle" x="363" y="-130.5" font-family="Helvetica,sans-Serif" font-size="10.00">audio_source.hpp</text>
</a>
</g>
</g>
<!-- Node2&#45;&gt;Node14 -->
<g id="edge35" class="edge"><title>Node2&#45;&gt;Node14</title>
<path fill="none" stroke="midnightblue" d="M821.415,-235.46C731.873,-215.642 510.108,-166.559 411.55,-144.745"/>
<polygon fill="midnightblue" stroke="midnightblue" points="412.081,-141.278 401.561,-142.535 410.568,-148.113 412.081,-141.278"/>
</g>
<!-- Node25 -->
<g id="node25" class="node"><title>Node25</title>
<g id="a_node25"><a xlink:href="audio_8hpp.html" target="_top" xlink:title="Declaration of the Audio class. ">
<polygon fill="white" stroke="black" points="667,-179.5 667,-198.5 731,-198.5 731,-179.5 667,-179.5"/>
<text text-anchor="middle" x="699" y="-186.5" font-family="Helvetica,sans-Serif" font-size="10.00">audio.hpp</text>
</a>
</g>
</g>
<!-- Node2&#45;&gt;Node25 -->
<g id="edge36" class="edge"><title>Node2&#45;&gt;Node25</title>
<path fill="none" stroke="midnightblue" d="M834.489,-235.444C807.404,-226.359 764.41,-211.939 734.131,-201.783"/>
<polygon fill="midnightblue" stroke="midnightblue" points="734.986,-198.378 724.392,-198.516 732.76,-205.015 734.986,-198.378"/>
</g>
<!-- Node8 -->
<g id="node8" class="node"><title>Node8</title>
<polygon fill="white" stroke="#bfbfbf" points="251.5,-0.5 251.5,-19.5 300.5,-19.5 300.5,-0.5 251.5,-0.5"/>
<text text-anchor="middle" x="276" y="-7.5" font-family="Helvetica,sans-Serif" font-size="10.00">cstdint</text>
</g>
<!-- Node7&#45;&gt;Node8 -->
<g id="edge7" class="edge"><title>Node7&#45;&gt;Node8</title>
<path fill="none" stroke="midnightblue" d="M198.038,-61.9751C212.769,-52.3431 236.973,-36.5175 254.509,-25.0517"/>
<polygon fill="midnightblue" stroke="midnightblue" points="256.532,-27.911 262.986,-19.5091 252.701,-22.0522 256.532,-27.911"/>
</g>
<!-- Node9&#45;&gt;Node3 -->
<g id="edge11" class="edge"><title>Node9&#45;&gt;Node3</title>
<path fill="none" stroke="midnightblue" d="M971.222,-180.33C974.19,-179.865 977.137,-179.417 980,-179 1045.57,-169.451 1231.62,-192.208 1276,-143 1301.9,-114.283 1301.53,-85.8941 1277,-56 1252.86,-26.5816 1139.79,-16.0358 1083.3,-12.559"/>
<polygon fill="midnightblue" stroke="midnightblue" points="1083.3,-9.05357 1073.12,-11.9717 1082.9,-16.0419 1083.3,-9.05357"/>
</g>
<!-- Node9&#45;&gt;Node4 -->
<g id="edge12" class="edge"><title>Node9&#45;&gt;Node4</title>
<path fill="none" stroke="midnightblue" d="M962.11,-179.483C998.97,-170.514 1058.6,-155.928 1110,-143 1111.27,-142.681 1112.56,-142.355 1113.86,-142.025"/>
<polygon fill="midnightblue" stroke="midnightblue" points="1115.09,-145.325 1123.91,-139.462 1113.36,-138.542 1115.09,-145.325"/>
</g>
<!-- Node9&#45;&gt;Node6 -->
<g id="edge16" class="edge"><title>Node9&#45;&gt;Node6</title>
<path fill="none" stroke="midnightblue" d="M971.216,-180.289C974.186,-179.833 977.134,-179.399 980,-179 984.1,-178.429 1194.86,-155.519 1313.66,-142.615"/>
<polygon fill="midnightblue" stroke="midnightblue" points="1314.24,-146.072 1323.81,-141.513 1313.49,-139.113 1314.24,-146.072"/>
</g>
<!-- Node9&#45;&gt;Node8 -->
<g id="edge9" class="edge"><title>Node9&#45;&gt;Node8</title>
<path fill="none" stroke="midnightblue" d="M966.752,-179.433C1000.6,-171.236 1045.39,-157.939 1056,-143 1061.15,-135.753 1061.93,-129.617 1056,-123 1006.75,-68.0822 796.556,-108.534 726,-87 697.669,-78.3533 695.306,-64.7306 667,-56 540.253,-16.9061 380.911,-11.2258 311.28,-10.764"/>
<polygon fill="midnightblue" stroke="midnightblue" points="310.905,-7.2629 300.893,-10.7304 310.882,-14.2629 310.905,-7.2629"/>
</g>
<!-- Node10 -->
<g id="node10" class="node"><title>Node10</title>
<polygon fill="white" stroke="#bfbfbf" points="642.5,-123.5 642.5,-142.5 699.5,-142.5 699.5,-123.5 642.5,-123.5"/>
<text text-anchor="middle" x="671" y="-130.5" font-family="Helvetica,sans-Serif" font-size="10.00">memory</text>
</g>
<!-- Node9&#45;&gt;Node10 -->
<g id="edge10" class="edge"><title>Node9&#45;&gt;Node10</title>
<path fill="none" stroke="midnightblue" d="M886.436,-179.444C837.968,-169.22 757.462,-152.238 709.792,-142.183"/>
<polygon fill="midnightblue" stroke="midnightblue" points="710.361,-138.726 699.854,-140.086 708.917,-145.575 710.361,-138.726"/>
</g>
<!-- Node11 -->
<g id="node11" class="node"><title>Node11</title>
<polygon fill="white" stroke="#bfbfbf" points="593.5,-62 593.5,-81 640.5,-81 640.5,-62 593.5,-62"/>
<text text-anchor="middle" x="617" y="-69" font-family="Helvetica,sans-Serif" font-size="10.00">vector</text>
</g>
<!-- Node9&#45;&gt;Node11 -->
<g id="edge13" class="edge"><title>Node9&#45;&gt;Node11</title>
<path fill="none" stroke="midnightblue" d="M968.829,-179.484C1009.75,-169.348 1062.59,-150.291 1038,-123 986.4,-65.7355 769.26,-98.2331 693,-87 679.054,-84.9457 663.77,-82.139 650.589,-79.5419"/>
<polygon fill="midnightblue" stroke="midnightblue" points="651.028,-76.0602 640.534,-77.5224 649.649,-82.9231 651.028,-76.0602"/>
</g>
<!-- Node12 -->
<g id="node12" class="node"><title>Node12</title>
<polygon fill="white" stroke="#bfbfbf" points="958.5,-123.5 958.5,-142.5 1029.5,-142.5 1029.5,-123.5 958.5,-123.5"/>
<text text-anchor="middle" x="994" y="-130.5" font-family="Helvetica,sans-Serif" font-size="10.00">portaudio.h</text>
</g>
<!-- Node9&#45;&gt;Node12 -->
<g id="edge14" class="edge"><title>Node9&#45;&gt;Node12</title>
<path fill="none" stroke="midnightblue" d="M937.765,-179.324C947.766,-171.263 962.887,-159.077 974.93,-149.369"/>
<polygon fill="midnightblue" stroke="midnightblue" points="977.45,-151.834 983.039,-142.834 973.057,-146.384 977.45,-151.834"/>
</g>
<!-- Node13 -->
<g id="node13" class="node"><title>Node13</title>
<polygon fill="white" stroke="#bfbfbf" points="756,-123.5 756,-142.5 940,-142.5 940,-123.5 756,-123.5"/>
<text text-anchor="middle" x="848" y="-130.5" font-family="Helvetica,sans-Serif" font-size="10.00">portaudiocpp/CallbackInterface.hxx</text>
</g>
<!-- Node9&#45;&gt;Node13 -->
<g id="edge15" class="edge"><title>Node9&#45;&gt;Node13</title>
<path fill="none" stroke="midnightblue" d="M914.307,-179.324C902.099,-170.979 883.422,-158.212 868.997,-148.352"/>
<polygon fill="midnightblue" stroke="midnightblue" points="870.892,-145.408 860.661,-142.655 866.942,-151.187 870.892,-145.408"/>
</g>
<!-- Node9&#45;&gt;Node14 -->
<g id="edge17" class="edge"><title>Node9&#45;&gt;Node14</title>
<path fill="none" stroke="midnightblue" d="M882.75,-184.944C796.554,-178.796 599.913,-163.823 423.683,-143.011"/>
<polygon fill="midnightblue" stroke="midnightblue" points="424.054,-139.531 413.71,-141.824 423.227,-146.482 424.054,-139.531"/>
</g>
<!-- Node21 -->
<g id="node21" class="node"><title>Node21</title>
<g id="a_node21"><a xlink:href="ringbuffer_8hpp.html" target="_top" xlink:title="The RingBuffer class template. ">
<polygon fill="white" stroke="black" points="1184.5,-123.5 1184.5,-142.5 1267.5,-142.5 1267.5,-123.5 1184.5,-123.5"/>
<text text-anchor="middle" x="1226" y="-130.5" font-family="Helvetica,sans-Serif" font-size="10.00">ringbuffer.hpp</text>
</a>
</g>
</g>
<!-- Node9&#45;&gt;Node21 -->
<g id="edge29" class="edge"><title>Node9&#45;&gt;Node21</title>
<path fill="none" stroke="midnightblue" d="M971.118,-180.032C1025.21,-170.262 1116.76,-153.729 1174.16,-143.362"/>
<polygon fill="midnightblue" stroke="midnightblue" points="1174.9,-146.786 1184.12,-141.564 1173.65,-139.898 1174.9,-146.786"/>
</g>
<!-- Node14&#45;&gt;Node3 -->
<g id="edge20" class="edge"><title>Node14&#45;&gt;Node3</title>
<path fill="none" stroke="midnightblue" d="M373.019,-123.253C395.474,-103.687 448.244,-57.9449 453,-56 505.507,-34.5281 902.04,-17.0005 1018.77,-12.264"/>
<polygon fill="midnightblue" stroke="midnightblue" points="1019.01,-15.7572 1028.86,-11.8581 1018.73,-8.76281 1019.01,-15.7572"/>
</g>
<!-- Node14&#45;&gt;Node7 -->
<g id="edge26" class="edge"><title>Node14&#45;&gt;Node7</title>
<path fill="none" stroke="midnightblue" d="M337.497,-123.475C306.699,-113.18 254.735,-95.8103 220.152,-84.2502"/>
<polygon fill="midnightblue" stroke="midnightblue" points="221.05,-80.86 210.456,-81.0091 218.83,-87.4989 221.05,-80.86"/>
</g>
<!-- Node14&#45;&gt;Node8 -->
<g id="edge19" class="edge"><title>Node14&#45;&gt;Node8</title>
<path fill="none" stroke="midnightblue" d="M342.419,-123.408C327.094,-115.97 306.853,-103.759 295,-87 283.004,-70.0387 278.559,-46.2603 276.925,-29.8387"/>
<polygon fill="midnightblue" stroke="midnightblue" points="280.412,-29.5343 276.184,-19.8195 273.431,-30.0503 280.412,-29.5343"/>
</g>
<!-- Node14&#45;&gt;Node11 -->
<g id="edge21" class="edge"><title>Node14&#45;&gt;Node11</title>
<path fill="none" stroke="midnightblue" d="M410.811,-123.498C465.742,-113.514 552.372,-97.0421 584,-87 585.924,-86.3893 587.886,-85.7023 589.847,-84.968"/>
<polygon fill="midnightblue" stroke="midnightblue" points="591.527,-88.0625 599.456,-81.0358 588.876,-81.584 591.527,-88.0625"/>
</g>
<!-- Node15 -->
<g id="node15" class="node"><title>Node15</title>
<polygon fill="white" stroke="#bfbfbf" points="364.5,-62 364.5,-81 405.5,-81 405.5,-62 364.5,-62"/>
<text text-anchor="middle" x="385" y="-69" font-family="Helvetica,sans-Serif" font-size="10.00">array</text>
</g>
<!-- Node14&#45;&gt;Node15 -->
<g id="edge18" class="edge"><title>Node14&#45;&gt;Node15</title>
<path fill="none" stroke="midnightblue" d="M366.152,-123.475C369.321,-114.904 374.304,-101.427 378.351,-90.483"/>
<polygon fill="midnightblue" stroke="midnightblue" points="381.668,-91.6023 381.854,-81.0091 375.103,-89.1747 381.668,-91.6023"/>
</g>
<!-- Node16 -->
<g id="node16" class="node"><title>Node16</title>
<polygon fill="white" stroke="#bfbfbf" points="304,-62 304,-81 346,-81 346,-62 304,-62"/>
<text text-anchor="middle" x="325" y="-69" font-family="Helvetica,sans-Serif" font-size="10.00">sox.h</text>
</g>
<!-- Node14&#45;&gt;Node16 -->
<g id="edge22" class="edge"><title>Node14&#45;&gt;Node16</title>
<path fill="none" stroke="midnightblue" d="M357.556,-123.475C351.912,-114.638 342.939,-100.589 335.841,-89.475"/>
<polygon fill="midnightblue" stroke="midnightblue" points="338.767,-87.5531 330.434,-81.0091 332.867,-91.3208 338.767,-87.5531"/>
</g>
<!-- Node17 -->
<g id="node17" class="node"><title>Node17</title>
<g id="a_node17"><a xlink:href="errors_8hpp.html" target="_top" xlink:title="Declarations of the playd Error exception set. ">
<polygon fill="white" stroke="black" points="735.5,-62 735.5,-81 810.5,-81 810.5,-62 735.5,-62"/>
<text text-anchor="middle" x="773" y="-69" font-family="Helvetica,sans-Serif" font-size="10.00">../errors.hpp</text>
</a>
</g>
</g>
<!-- Node14&#45;&gt;Node17 -->
<g id="edge23" class="edge"><title>Node14&#45;&gt;Node17</title>
<path fill="none" stroke="midnightblue" d="M413.736,-124.369C416.871,-123.904 419.978,-123.445 423,-123 530.958,-107.115 657.725,-88.9441 725.14,-79.3191"/>
<polygon fill="midnightblue" stroke="midnightblue" points="726.033,-82.7272 735.438,-77.8493 725.044,-75.7974 726.033,-82.7272"/>
</g>
<!-- Node14&#45;&gt;Node20 -->
<g id="edge27" class="edge"><title>Node14&#45;&gt;Node20</title>
<path fill="none" stroke="midnightblue" d="M312.087,-123.684C261.456,-115.214 181.641,-101.324 113,-87 107.605,-85.8742 101.959,-84.6267 96.3713,-83.3495"/>
<polygon fill="midnightblue" stroke="midnightblue" points="96.9769,-79.897 86.4438,-81.0386 95.3898,-86.7147 96.9769,-79.897"/>
</g>
<!-- Node18 -->
<g id="node18" class="node"><title>Node18</title>
<polygon fill="white" stroke="#bfbfbf" points="705.5,-0.5 705.5,-19.5 764.5,-19.5 764.5,-0.5 705.5,-0.5"/>
<text text-anchor="middle" x="735" y="-7.5" font-family="Helvetica,sans-Serif" font-size="10.00">iostream</text>
</g>
<!-- Node17&#45;&gt;Node18 -->
<g id="edge24" class="edge"><title>Node17&#45;&gt;Node18</title>
<path fill="none" stroke="midnightblue" d="M767.556,-61.9751C761.912,-53.1384 752.939,-39.0886 745.841,-27.975"/>
<polygon fill="midnightblue" stroke="midnightblue" points="748.767,-26.0531 740.434,-19.5091 742.867,-29.8208 748.767,-26.0531"/>
</g>
<!-- Node19 -->
<g id="node19" class="node"><title>Node19</title>
<polygon fill="white" stroke="#bfbfbf" points="783,-0.5 783,-19.5 839,-19.5 839,-0.5 783,-0.5"/>
<text text-anchor="middle" x="811" y="-7.5" font-family="Helvetica,sans-Serif" font-size="10.00">sstream</text>
</g>
<!-- Node17&#45;&gt;Node19 -->
<g id="edge25" class="edge"><title>Node17&#45;&gt;Node19</title>
<path fill="none" stroke="midnightblue" d="M778.444,-61.9751C784.088,-53.1384 793.061,-39.0886 800.159,-27.975"/>
<polygon fill="midnightblue" stroke="midnightblue" points="803.133,-29.8208 805.566,-19.5091 797.233,-26.0531 803.133,-29.8208"/>
</g>
<!-- Node20&#45;&gt;Node8 -->
<g id="edge28" class="edge"><title>Node20&#45;&gt;Node8</title>
<path fill="none" stroke="midnightblue" d="M84.0937,-61.9751C125.868,-50.8789 198.587,-31.5629 241.508,-20.1621"/>
<polygon fill="midnightblue" stroke="midnightblue" points="242.458,-23.531 251.224,-17.581 240.661,-16.7656 242.458,-23.531"/>
</g>
<!-- Node21&#45;&gt;Node17 -->
<g id="edge32" class="edge"><title>Node21&#45;&gt;Node17</title>
<path fill="none" stroke="midnightblue" d="M1184.28,-124.463C1181.14,-123.95 1178.02,-123.456 1175,-123 1047.46,-103.748 896.37,-86.165 820.909,-77.7385"/>
<polygon fill="midnightblue" stroke="midnightblue" points="821.099,-74.2381 810.774,-76.611 820.325,-81.1952 821.099,-74.2381"/>
</g>
<!-- Node22 -->
<g id="node22" class="node"><title>Node22</title>
<polygon fill="white" stroke="#bfbfbf" points="1114,-62 1114,-81 1166,-81 1166,-62 1114,-62"/>
<text text-anchor="middle" x="1140" y="-69" font-family="Helvetica,sans-Serif" font-size="10.00">cassert</text>
</g>
<!-- Node21&#45;&gt;Node22 -->
<g id="edge30" class="edge"><title>Node21&#45;&gt;Node22</title>
<path fill="none" stroke="midnightblue" d="M1213.68,-123.475C1199.88,-113.931 1177.3,-98.3073 1160.77,-86.8683"/>
<polygon fill="midnightblue" stroke="midnightblue" points="1162.51,-83.8205 1152.3,-81.0091 1158.53,-89.577 1162.51,-83.8205"/>
</g>
<!-- Node23 -->
<g id="node23" class="node"><title>Node23</title>
<polygon fill="white" stroke="#bfbfbf" points="970.5,-56.5 970.5,-86.5 1095.5,-86.5 1095.5,-56.5 970.5,-56.5"/>
<text text-anchor="start" x="978.5" y="-74.5" font-family="Helvetica,sans-Serif" font-size="10.00">../contrib/pa_ringbuffer</text>
<text text-anchor="middle" x="1033" y="-63.5" font-family="Helvetica,sans-Serif" font-size="10.00">/pa_ringbuffer.h</text>
</g>
<!-- Node21&#45;&gt;Node23 -->
<g id="edge31" class="edge"><title>Node21&#45;&gt;Node23</title>
<path fill="none" stroke="midnightblue" d="M1198.35,-123.475C1169.77,-114.664 1124.37,-100.668 1088.37,-89.5698"/>
<polygon fill="midnightblue" stroke="midnightblue" points="1089.07,-86.1245 1078.49,-86.523 1087.01,-92.8138 1089.07,-86.1245"/>
</g>
<!-- Node24 -->
<g id="node24" class="node"><title>Node24</title>
<g id="a_node24"><a xlink:href="messages_8h.html" target="_top" xlink:title="Constant human&#45;readable messages used within playd. ">
<polygon fill="white" stroke="black" points="1184,-62 1184,-81 1268,-81 1268,-62 1184,-62"/>
<text text-anchor="middle" x="1226" y="-69" font-family="Helvetica,sans-Serif" font-size="10.00">../messages.h</text>
</a>
</g>
</g>
<!-- Node21&#45;&gt;Node24 -->
<g id="edge33" class="edge"><title>Node21&#45;&gt;Node24</title>
<path fill="none" stroke="midnightblue" d="M1226,-123.475C1226,-115.08 1226,-101.981 1226,-91.1631"/>
<polygon fill="midnightblue" stroke="midnightblue" points="1229.5,-91.0091 1226,-81.0091 1222.5,-91.0091 1229.5,-91.0091"/>
</g>
<!-- Node24&#45;&gt;Node3 -->
<g id="edge34" class="edge"><title>Node24&#45;&gt;Node3</title>
<path fill="none" stroke="midnightblue" d="M1200.93,-61.9751C1169.92,-51.4333 1117.1,-33.4726 1083.14,-21.9283"/>
<polygon fill="midnightblue" stroke="midnightblue" points="1083.85,-18.4722 1073.26,-18.5669 1081.6,-25.0997 1083.85,-18.4722"/>
</g>
<!-- Node25&#45;&gt;Node3 -->
<g id="edge39" class="edge"><title>Node25&#45;&gt;Node3</title>
<path fill="none" stroke="midnightblue" d="M703.299,-179.067C710.456,-165.112 726.117,-138.17 747,-123 787.936,-93.2635 807.399,-104.151 855,-87 913.941,-65.7633 981.964,-38.8348 1020.39,-23.3966"/>
<polygon fill="midnightblue" stroke="midnightblue" points="1021.98,-26.5273 1029.95,-19.5453 1019.37,-20.034 1021.98,-26.5273"/>
</g>
<!-- Node25&#45;&gt;Node4 -->
<g id="edge40" class="edge"><title>Node25&#45;&gt;Node4</title>
<path fill="none" stroke="midnightblue" d="M731.075,-184.116C813.557,-174.13 1032.26,-147.65 1113.79,-137.779"/>
<polygon fill="midnightblue" stroke="midnightblue" points="1114.41,-141.23 1123.91,-136.553 1113.56,-134.281 1114.41,-141.23"/>
</g>
<!-- Node25&#45;&gt;Node8 -->
<g id="edge37" class="edge"><title>Node25&#45;&gt;Node8</title>
<path fill="none" stroke="midnightblue" d="M676.541,-179.382C661.231,-172.184 642.137,-160.288 633,-143 614.63,-108.241 675.082,-85.4178 649,-56 626.728,-30.8794 399.033,-17.0591 310.731,-12.6105"/>
<polygon fill="midnightblue" stroke="midnightblue" points="310.837,-9.11158 300.677,-12.1143 310.492,-16.1031 310.837,-9.11158"/>
</g>
<!-- Node25&#45;&gt;Node10 -->
<g id="edge38" class="edge"><title>Node25&#45;&gt;Node10</title>
<path fill="none" stroke="midnightblue" d="M694.376,-179.083C690.544,-171.691 684.976,-160.953 680.235,-151.811"/>
<polygon fill="midnightblue" stroke="midnightblue" points="683.248,-150.018 675.538,-142.751 677.034,-153.24 683.248,-150.018"/>
</g>
<!-- Node25&#45;&gt;Node11 -->
<g id="edge41" class="edge"><title>Node25&#45;&gt;Node11</title>
<path fill="none" stroke="midnightblue" d="M666.705,-182.705C643.794,-177.08 614.616,-165.699 600,-143 589.6,-126.849 597.636,-104.906 605.826,-89.8137"/>
<polygon fill="midnightblue" stroke="midnightblue" points="608.953,-91.402 611.038,-81.0144 602.93,-87.8345 608.953,-91.402"/>
</g>
<!-- Node25&#45;&gt;Node12 -->
<g id="edge42" class="edge"><title>Node25&#45;&gt;Node12</title>
<path fill="none" stroke="midnightblue" d="M731.002,-182.443C776.777,-174.451 863.839,-159.085 948.152,-143.132"/>
<polygon fill="midnightblue" stroke="midnightblue" points="948.979,-146.538 958.151,-141.235 947.674,-139.66 948.979,-146.538"/>
</g>
<!-- Node25&#45;&gt;Node13 -->
<g id="edge43" class="edge"><title>Node25&#45;&gt;Node13</title>
<path fill="none" stroke="midnightblue" d="M722.609,-179.444C747.458,-170.438 786.774,-156.189 814.754,-146.049"/>
<polygon fill="midnightblue" stroke="midnightblue" points="816.292,-149.214 824.501,-142.516 813.907,-142.633 816.292,-149.214"/>
</g>
<!-- Node25&#45;&gt;Node14 -->
<g id="edge45" class="edge"><title>Node25&#45;&gt;Node14</title>
<path fill="none" stroke="midnightblue" d="M666.783,-182.822C610.893,-173.84 495.119,-155.233 423.741,-143.762"/>
<polygon fill="midnightblue" stroke="midnightblue" points="423.973,-140.254 413.544,-142.123 422.862,-147.166 423.973,-140.254"/>
</g>
<!-- Node25&#45;&gt;Node20 -->
<g id="edge44" class="edge"><title>Node25&#45;&gt;Node20</title>
<path fill="none" stroke="midnightblue" d="M666.909,-186.108C599.16,-181.729 436.766,-169.21 303,-143 261.956,-134.958 149.363,-101.786 89.9146,-83.9581"/>
<polygon fill="midnightblue" stroke="midnightblue" points="90.7391,-80.5514 80.1549,-81.026 88.7249,-87.2553 90.7391,-80.5514"/>
</g>
<!-- Node26&#45;&gt;Node3 -->
<g id="edge49" class="edge"><title>Node26&#45;&gt;Node3</title>
<path fill="none" stroke="midnightblue" d="M548.018,-127.392C628.87,-120.406 770.919,-105.918 819,-87 841.261,-78.2414 841.2,-65.8494 863,-56 914.858,-32.5701 980.495,-20.4361 1018.91,-14.9131"/>
<polygon fill="midnightblue" stroke="midnightblue" points="1019.56,-18.3569 1028.99,-13.5268 1018.6,-11.4222 1019.56,-18.3569"/>
</g>
<!-- Node26&#45;&gt;Node11 -->
<g id="edge50" class="edge"><title>Node26&#45;&gt;Node11</title>
<path fill="none" stroke="midnightblue" d="M508.196,-123.475C529.509,-113.49 565.031,-96.8476 589.663,-85.3075"/>
<polygon fill="midnightblue" stroke="midnightblue" points="591.267,-88.4211 598.838,-81.0091 588.297,-82.0822 591.267,-88.4211"/>
</g>
<!-- Node26&#45;&gt;Node17 -->
<g id="edge51" class="edge"><title>Node26&#45;&gt;Node17</title>
<path fill="none" stroke="midnightblue" d="M530.547,-123.475C582.056,-112.645 670.807,-93.9859 725.452,-82.4969"/>
<polygon fill="midnightblue" stroke="midnightblue" points="726.176,-85.9213 735.241,-80.4386 724.735,-79.0711 726.176,-85.9213"/>
</g>
<!-- Node27 -->
<g id="node27" class="node"><title>Node27</title>
<polygon fill="white" stroke="#bfbfbf" points="462,-62 462,-81 500,-81 500,-62 462,-62"/>
<text text-anchor="middle" x="481" y="-69" font-family="Helvetica,sans-Serif" font-size="10.00">map</text>
</g>
<!-- Node26&#45;&gt;Node27 -->
<g id="edge47" class="edge"><title>Node26&#45;&gt;Node27</title>
<path fill="none" stroke="midnightblue" d="M488.711,-123.475C487.441,-115.08 485.459,-101.981 483.823,-91.1631"/>
<polygon fill="midnightblue" stroke="midnightblue" points="487.243,-90.3731 482.287,-81.0091 480.322,-91.4201 487.243,-90.3731"/>
</g>
<!-- Node28 -->
<g id="node28" class="node"><title>Node28</title>
<polygon fill="white" stroke="#bfbfbf" points="518.5,-62 518.5,-81 575.5,-81 575.5,-62 518.5,-62"/>
<text text-anchor="middle" x="547" y="-69" font-family="Helvetica,sans-Serif" font-size="10.00">ostream</text>
</g>
<!-- Node26&#45;&gt;Node28 -->
<g id="edge48" class="edge"><title>Node26&#45;&gt;Node28</title>
<path fill="none" stroke="midnightblue" d="M498.167,-123.475C506.886,-114.373 520.904,-99.741 531.689,-88.483"/>
<polygon fill="midnightblue" stroke="midnightblue" points="534.458,-90.6515 538.848,-81.0091 529.403,-85.809 534.458,-90.6515"/>
</g>
<!-- Node29&#45;&gt;Node2 -->
<g id="edge55" class="edge"><title>Node29&#45;&gt;Node2</title>
<path fill="none" stroke="midnightblue" d="M294.31,-296.16C395.28,-287.207 647.631,-264.831 778.464,-253.23"/>
<polygon fill="midnightblue" stroke="midnightblue" points="778.786,-256.715 788.437,-252.345 778.167,-249.742 778.786,-256.715"/>
</g>
<!-- Node29&#45;&gt;Node10 -->
<g id="edge54" class="edge"><title>Node29&#45;&gt;Node10</title>
<path fill="none" stroke="midnightblue" d="M272.697,-291.425C342.045,-264.016 558.524,-178.455 639.772,-146.342"/>
<polygon fill="midnightblue" stroke="midnightblue" points="641.42,-149.455 649.433,-142.524 638.847,-142.945 641.42,-149.455"/>
</g>
<!-- Node29&#45;&gt;Node20 -->
<g id="edge57" class="edge"><title>Node29&#45;&gt;Node20</title>
<path fill="none" stroke="midnightblue" d="M248.68,-291.204C240.713,-262.671 211.774,-171.716 155,-123 135.298,-106.094 108.954,-93.3114 87.8409,-84.8361"/>
<polygon fill="midnightblue" stroke="midnightblue" points="88.84,-81.4701 78.2505,-81.1343 86.3192,-88.0005 88.84,-81.4701"/>
</g>
<!-- Node29&#45;&gt;Node26 -->
<g id="edge56" class="edge"><title>Node29&#45;&gt;Node26</title>
<path fill="none" stroke="midnightblue" d="M249.801,-291.222C247.306,-269.025 244.119,-210.207 275,-179 285.555,-168.334 364.402,-153.773 423.577,-144.138"/>
<polygon fill="midnightblue" stroke="midnightblue" points="424.317,-147.564 433.632,-142.517 423.203,-140.654 424.317,-147.564"/>
</g>
<!-- Node29&#45;&gt;Node30 -->
<g id="edge58" class="edge"><title>Node29&#45;&gt;Node30</title>
<path fill="none" stroke="midnightblue" d="M240.922,-291.497C230.365,-282.539 213.355,-267.962 199,-255 180.621,-238.404 160.01,-218.862 146.14,-205.57"/>
<polygon fill="midnightblue" stroke="midnightblue" points="148.455,-202.941 138.82,-198.536 143.605,-207.988 148.455,-202.941"/>
</g>
<!-- Node30&#45;&gt;Node14 -->
<g id="edge60" class="edge"><title>Node30&#45;&gt;Node14</title>
<path fill="none" stroke="midnightblue" d="M166.92,-179.444C207.395,-170.063 272.421,-154.993 316.384,-144.804"/>
<polygon fill="midnightblue" stroke="midnightblue" points="317.302,-148.184 326.253,-142.516 315.721,-141.365 317.302,-148.184"/>
</g>
<!-- Node30&#45;&gt;Node20 -->
<g id="edge62" class="edge"><title>Node30&#45;&gt;Node20</title>
<path fill="none" stroke="midnightblue" d="M124.137,-179.319C111.32,-160.339 80.5986,-114.848 63.6751,-89.7882"/>
<polygon fill="midnightblue" stroke="midnightblue" points="66.4279,-87.6105 57.9307,-81.282 60.6268,-91.5281 66.4279,-87.6105"/>
</g>
<!-- Node30&#45;&gt;Node26 -->
<g id="edge61" class="edge"><title>Node30&#45;&gt;Node26</title>
<path fill="none" stroke="midnightblue" d="M185.068,-179.74C248.954,-170.157 354.271,-154.359 422.888,-144.067"/>
<polygon fill="midnightblue" stroke="midnightblue" points="423.785,-147.472 433.155,-142.527 422.746,-140.549 423.785,-147.472"/>
</g>
<!-- Node31 -->
<g id="node31" class="node"><title>Node31</title>
<polygon fill="white" stroke="#bfbfbf" points="114,-123.5 114,-142.5 146,-142.5 146,-123.5 114,-123.5"/>
<text text-anchor="middle" x="130" y="-130.5" font-family="Helvetica,sans-Serif" font-size="10.00">set</text>
</g>
<!-- Node30&#45;&gt;Node31 -->
<g id="edge59" class="edge"><title>Node30&#45;&gt;Node31</title>
<path fill="none" stroke="midnightblue" d="M130,-179.083C130,-172.006 130,-161.861 130,-152.986"/>
<polygon fill="midnightblue" stroke="midnightblue" points="133.5,-152.751 130,-142.751 126.5,-152.751 133.5,-152.751"/>
</g>
</g>
</svg>
