<?xml version="1.0" encoding="UTF-8" standalone="no"?>
<!DOCTYPE svg PUBLIC "-//W3C//DTD SVG 1.1//EN"
 "http://www.w3.org/Graphics/SVG/1.1/DTD/svg11.dtd">
<!-- Generated by graphviz version 2.38.0 (20140413.2041)
 -->
<!-- Title: src/player/player_file.cpp Pages: 1 -->
<svg width="1370pt" height="375pt"
 viewBox="0.00 0.00 1369.65 375.00" xmlns="http://www.w3.org/2000/svg" xmlns:xlink="http://www.w3.org/1999/xlink">
<g id="graph0" class="graph" transform="scale(1 1) rotate(0) translate(4 371)">
<title>src/player/player_file.cpp</title>
<polygon fill="white" stroke="none" points="-4,4 -4,-371 1365.65,-371 1365.65,4 -4,4"/>
<!-- Node1 -->
<g id="node1" class="node"><title>Node1</title>
<polygon fill="#bfbfbf" stroke="black" points="910.649,-347.5 910.649,-366.5 1044.65,-366.5 1044.65,-347.5 910.649,-347.5"/>
<text text-anchor="middle" x="977.649" y="-354.5" font-family="Helvetica,sans-Serif" font-size="10.00">src/player/player_file.cpp</text>
</g>
<!-- Node2 -->
<g id="node2" class="node"><title>Node2</title>
<polygon fill="white" stroke="#bfbfbf" points="789.149,-291.5 789.149,-310.5 840.149,-310.5 840.149,-291.5 789.149,-291.5"/>
<text text-anchor="middle" x="814.649" y="-298.5" font-family="Helvetica,sans-Serif" font-size="10.00">cassert</text>
</g>
<!-- Node1&#45;&gt;Node2 -->
<g id="edge1" class="edge"><title>Node1&#45;&gt;Node2</title>
<path fill="none" stroke="midnightblue" d="M951.822,-347.444C924.4,-338.359 880.872,-323.939 850.217,-313.783"/>
<polygon fill="midnightblue" stroke="midnightblue" points="850.95,-310.339 840.356,-310.516 848.748,-316.984 850.95,-310.339"/>
</g>
<!-- Node3 -->
<g id="node3" class="node"><title>Node3</title>
<polygon fill="white" stroke="#bfbfbf" points="979.149,-0.5 979.149,-19.5 1026.15,-19.5 1026.15,-0.5 979.149,-0.5"/>
<text text-anchor="middle" x="1002.65" y="-7.5" font-family="Helvetica,sans-Serif" font-size="10.00">cstdint</text>
</g>
<!-- Node1&#45;&gt;Node3 -->
<g id="edge2" class="edge"><title>Node1&#45;&gt;Node3</title>
<path fill="none" stroke="midnightblue" d="M1044.98,-350.595C1155.11,-339.878 1361.65,-311.1 1361.65,-246 1361.65,-246 1361.65,-246 1361.65,-132 1361.65,-88.1259 1336.9,-77.4942 1298.65,-56 1202.32,-1.86652 1161.71,-37.7899 1052.65,-20 1047.4,-19.1433 1041.84,-18.1906 1036.42,-17.2347"/>
<polygon fill="midnightblue" stroke="midnightblue" points="1036.74,-13.7351 1026.28,-15.4169 1035.5,-20.6254 1036.74,-13.7351"/>
</g>
<!-- Node4 -->
<g id="node4" class="node"><title>Node4</title>
<g id="a_node4"><a xlink:href="audio__system_8hpp.html" target="_top" xlink:title="Declaration of the AudioSystem class. ">
<polygon fill="white" stroke="black" points="514.149,-235.5 514.149,-254.5 651.149,-254.5 651.149,-235.5 514.149,-235.5"/>
<text text-anchor="middle" x="582.649" y="-242.5" font-family="Helvetica,sans-Serif" font-size="10.00">../audio/audio_system.hpp</text>
</a>
</g>
</g>
<!-- Node1&#45;&gt;Node4 -->
<g id="edge3" class="edge"><title>Node1&#45;&gt;Node4</title>
<path fill="none" stroke="midnightblue" d="M960.342,-347.48C942.181,-338.508 912.829,-323.919 887.649,-311 870.669,-302.287 867.731,-297.107 849.649,-291 788.25,-270.262 715.547,-258.809 661.522,-252.656"/>
<polygon fill="midnightblue" stroke="midnightblue" points="661.64,-249.148 651.317,-251.531 660.873,-256.105 661.64,-249.148"/>
</g>
<!-- Node24 -->
<g id="node24" class="node"><title>Node24</title>
<g id="a_node24"><a xlink:href="io__response_8hpp.html" target="_top" xlink:title="Declaration of classes pertaining to responses to the client. ">
<polygon fill="white" stroke="black" points="1041.65,-123.5 1041.65,-142.5 1155.65,-142.5 1155.65,-123.5 1041.65,-123.5"/>
<text text-anchor="middle" x="1098.65" y="-130.5" font-family="Helvetica,sans-Serif" font-size="10.00">../io/io_response.hpp</text>
</a>
</g>
</g>
<!-- Node1&#45;&gt;Node24 -->
<g id="edge48" class="edge"><title>Node1&#45;&gt;Node24</title>
<path fill="none" stroke="midnightblue" d="M980.457,-347.181C991.702,-311.894 1033.01,-182.6 1035.65,-179 1045.19,-166.012 1059.61,-155.319 1072.25,-147.62"/>
<polygon fill="midnightblue" stroke="midnightblue" points="1074.13,-150.579 1081.05,-142.554 1070.63,-144.514 1074.13,-150.579"/>
</g>
<!-- Node27 -->
<g id="node27" class="node"><title>Node27</title>
<g id="a_node27"><a xlink:href="player__file_8hpp.html" target="_top" xlink:title="Declaration of the PlayerFile class, and associated types. ">
<polygon fill="white" stroke="black" points="896.649,-291.5 896.649,-310.5 982.649,-310.5 982.649,-291.5 896.649,-291.5"/>
<text text-anchor="middle" x="939.649" y="-298.5" font-family="Helvetica,sans-Serif" font-size="10.00">player_file.hpp</text>
</a>
</g>
</g>
<!-- Node1&#45;&gt;Node27 -->
<g id="edge49" class="edge"><title>Node1&#45;&gt;Node27</title>
<path fill="none" stroke="midnightblue" d="M971.375,-347.083C966.007,-339.455 958.132,-328.264 951.571,-318.941"/>
<polygon fill="midnightblue" stroke="midnightblue" points="954.425,-316.915 945.808,-310.751 948.7,-320.943 954.425,-316.915"/>
</g>
<!-- Node28 -->
<g id="node28" class="node"><title>Node28</title>
<g id="a_node28"><a xlink:href="player__position_8hpp.html" target="_top" xlink:title="Declaration of the PlayerPosition class. ">
<polygon fill="white" stroke="black" points="1044.15,-179.5 1044.15,-198.5 1153.15,-198.5 1153.15,-179.5 1044.15,-179.5"/>
<text text-anchor="middle" x="1098.65" y="-186.5" font-family="Helvetica,sans-Serif" font-size="10.00">player_position.hpp</text>
</a>
</g>
</g>
<!-- Node1&#45;&gt;Node28 -->
<g id="edge59" class="edge"><title>Node1&#45;&gt;Node28</title>
<path fill="none" stroke="midnightblue" d="M989.842,-347.352C1001.1,-338.952 1017.83,-325.39 1029.65,-311 1056.92,-277.813 1079.57,-232.427 1090.88,-207.748"/>
<polygon fill="midnightblue" stroke="midnightblue" points="1094.11,-209.091 1095.01,-198.534 1087.72,-206.226 1094.11,-209.091"/>
</g>
<!-- Node5 -->
<g id="node5" class="node"><title>Node5</title>
<polygon fill="white" stroke="#bfbfbf" points="710.149,-62 710.149,-81 753.149,-81 753.149,-62 710.149,-62"/>
<text text-anchor="middle" x="731.649" y="-69" font-family="Helvetica,sans-Serif" font-size="10.00">string</text>
</g>
<!-- Node4&#45;&gt;Node5 -->
<g id="edge4" class="edge"><title>Node4&#45;&gt;Node5</title>
<path fill="none" stroke="midnightblue" d="M514.037,-240.369C348.662,-230.377 -53.3107,-198.076 16.6495,-123 40.2679,-97.6546 563.967,-78.187 699.735,-73.5535"/>
<polygon fill="midnightblue" stroke="midnightblue" points="700.019,-77.046 709.895,-73.2099 699.782,-70.05 700.019,-77.046"/>
</g>
<!-- Node6 -->
<g id="node6" class="node"><title>Node6</title>
<polygon fill="white" stroke="#bfbfbf" points="679.649,-123.5 679.649,-142.5 719.649,-142.5 719.649,-123.5 679.649,-123.5"/>
<text text-anchor="middle" x="699.649" y="-130.5" font-family="Helvetica,sans-Serif" font-size="10.00">utility</text>
</g>
<!-- Node4&#45;&gt;Node6 -->
<g id="edge5" class="edge"><title>Node4&#45;&gt;Node6</title>
<path fill="none" stroke="midnightblue" d="M569.626,-235.337C552.142,-222.636 524.885,-198.369 539.649,-179 574.395,-133.418 608.995,-157.207 669.463,-143.001"/>
<polygon fill="midnightblue" stroke="midnightblue" points="670.619,-146.316 679.394,-140.379 668.831,-139.548 670.619,-146.316"/>
</g>
<!-- Node7 -->
<g id="node7" class="node"><title>Node7</title>
<polygon fill="white" stroke="#bfbfbf" points="549.149,-179.5 549.149,-198.5 740.149,-198.5 740.149,-179.5 549.149,-179.5"/>
<text text-anchor="middle" x="644.649" y="-186.5" font-family="Helvetica,sans-Serif" font-size="10.00">portaudiocpp/SampleDataFormat.hxx</text>
</g>
<!-- Node4&#45;&gt;Node7 -->
<g id="edge6" class="edge"><title>Node4&#45;&gt;Node7</title>
<path fill="none" stroke="midnightblue" d="M592.611,-235.324C601.776,-227.341 615.587,-215.313 626.678,-205.653"/>
<polygon fill="midnightblue" stroke="midnightblue" points="629.265,-208.041 634.507,-198.834 624.667,-202.762 629.265,-208.041"/>
</g>
<!-- Node8 -->
<g id="node8" class="node"><title>Node8</title>
<polygon fill="white" stroke="#bfbfbf" points="25.6495,-123.5 25.6495,-142.5 159.649,-142.5 159.649,-123.5 25.6495,-123.5"/>
<text text-anchor="middle" x="92.6495" y="-130.5" font-family="Helvetica,sans-Serif" font-size="10.00">portaudiocpp/Stream.hxx</text>
</g>
<!-- Node4&#45;&gt;Node8 -->
<g id="edge7" class="edge"><title>Node4&#45;&gt;Node8</title>
<path fill="none" stroke="midnightblue" d="M542.152,-235.472C500.019,-226.554 432.151,-212.063 373.649,-199 290.839,-180.508 194.538,-158.017 138.889,-144.924"/>
<polygon fill="midnightblue" stroke="midnightblue" points="139.52,-141.477 128.984,-142.591 137.916,-148.29 139.52,-141.477"/>
</g>
<!-- Node9 -->
<g id="node9" class="node"><title>Node9</title>
<g id="a_node9"><a xlink:href="sample__formats_8hpp.html" target="_top" xlink:title="The SampleFormat enumeration. ">
<polygon fill="white" stroke="black" points="1.14946,-62 1.14946,-81 120.149,-81 120.149,-62 1.14946,-62"/>
<text text-anchor="middle" x="60.6495" y="-69" font-family="Helvetica,sans-Serif" font-size="10.00">../sample_formats.hpp</text>
</a>
</g>
</g>
<!-- Node4&#45;&gt;Node9 -->
<g id="edge8" class="edge"><title>Node4&#45;&gt;Node9</title>
<path fill="none" stroke="midnightblue" d="M514.012,-243.861C391.215,-242.667 139.402,-235.662 60.6495,-199 22.6122,-181.292 -12.4014,-161.336 4.64946,-123 11.328,-107.984 24.922,-95.552 37.0435,-86.78"/>
<polygon fill="midnightblue" stroke="midnightblue" points="39.1758,-89.563 45.4897,-81.055 35.2482,-83.7686 39.1758,-89.563"/>
</g>
<!-- Node10 -->
<g id="node10" class="node"><title>Node10</title>
<g id="a_node10"><a xlink:href="audio__sink_8hpp.html" target="_top" xlink:title="Declaration of the AudioSink class. ">
<polygon fill="white" stroke="black" points="383.149,-179.5 383.149,-198.5 470.149,-198.5 470.149,-179.5 383.149,-179.5"/>
<text text-anchor="middle" x="426.649" y="-186.5" font-family="Helvetica,sans-Serif" font-size="10.00">audio_sink.hpp</text>
</a>
</g>
</g>
<!-- Node4&#45;&gt;Node10 -->
<g id="edge10" class="edge"><title>Node4&#45;&gt;Node10</title>
<path fill="none" stroke="midnightblue" d="M557.931,-235.444C531.801,-226.399 490.39,-212.064 461.073,-201.916"/>
<polygon fill="midnightblue" stroke="midnightblue" points="461.847,-198.48 451.252,-198.516 459.557,-205.095 461.847,-198.48"/>
</g>
<!-- Node15 -->
<g id="node15" class="node"><title>Node15</title>
<g id="a_node15"><a xlink:href="audio__source_8hpp.html" target="_top" xlink:title="Declaration of the AudioSource class. ">
<polygon fill="white" stroke="black" points="847.649,-123.5 847.649,-142.5 947.649,-142.5 947.649,-123.5 847.649,-123.5"/>
<text text-anchor="middle" x="897.649" y="-130.5" font-family="Helvetica,sans-Serif" font-size="10.00">audio_source.hpp</text>
</a>
</g>
</g>
<!-- Node4&#45;&gt;Node15 -->
<g id="edge31" class="edge"><title>Node4&#45;&gt;Node15</title>
<path fill="none" stroke="midnightblue" d="M651.261,-240.524C724.499,-235.555 834.488,-224.079 867.649,-199 882.342,-187.888 890.078,-167.854 893.987,-152.955"/>
<polygon fill="midnightblue" stroke="midnightblue" points="897.493,-153.32 896.283,-142.794 890.665,-151.777 897.493,-153.32"/>
</g>
<!-- Node23 -->
<g id="node23" class="node"><title>Node23</title>
<g id="a_node23"><a xlink:href="audio_8hpp.html" target="_top" xlink:title="Declaration of the Audio class. ">
<polygon fill="white" stroke="black" points="796.649,-179.5 796.649,-198.5 858.649,-198.5 858.649,-179.5 796.649,-179.5"/>
<text text-anchor="middle" x="827.649" y="-186.5" font-family="Helvetica,sans-Serif" font-size="10.00">audio.hpp</text>
</a>
</g>
</g>
<!-- Node4&#45;&gt;Node23 -->
<g id="edge32" class="edge"><title>Node4&#45;&gt;Node23</title>
<path fill="none" stroke="midnightblue" d="M621.47,-235.444C666.504,-225.518 740.438,-209.222 786.458,-199.079"/>
<polygon fill="midnightblue" stroke="midnightblue" points="787.383,-202.459 796.396,-196.889 785.877,-195.623 787.383,-202.459"/>
</g>
<!-- Node9&#45;&gt;Node3 -->
<g id="edge9" class="edge"><title>Node9&#45;&gt;Node3</title>
<path fill="none" stroke="midnightblue" d="M95.4083,-61.979C106.018,-59.6785 117.759,-57.4323 128.649,-56 453.676,-13.2538 851.674,-10.5968 968.753,-10.8176"/>
<polygon fill="midnightblue" stroke="midnightblue" points="968.876,-14.3178 978.886,-10.8456 968.895,-7.31788 968.876,-14.3178"/>
</g>
<!-- Node10&#45;&gt;Node3 -->
<g id="edge11" class="edge"><title>Node10&#45;&gt;Node3</title>
<path fill="none" stroke="midnightblue" d="M398.018,-179.496C365.699,-168.464 320.128,-147.68 340.649,-123 421.934,-25.2414 845.372,-12.7628 968.832,-11.2099"/>
<polygon fill="midnightblue" stroke="midnightblue" points="968.886,-14.7096 978.847,-11.1001 968.809,-7.71005 968.886,-14.7096"/>
</g>
<!-- Node10&#45;&gt;Node5 -->
<g id="edge13" class="edge"><title>Node10&#45;&gt;Node5</title>
<path fill="none" stroke="midnightblue" d="M402.088,-179.411C372.614,-167.818 329.527,-145.957 349.649,-123 372.666,-96.7407 612.241,-79.723 699.817,-74.3396"/>
<polygon fill="midnightblue" stroke="midnightblue" points="700.185,-77.8239 709.956,-73.7269 699.763,-70.8367 700.185,-77.8239"/>
</g>
<!-- Node10&#45;&gt;Node6 -->
<g id="edge14" class="edge"><title>Node10&#45;&gt;Node6</title>
<path fill="none" stroke="midnightblue" d="M470.174,-181.57C517.13,-174.28 594.237,-161.289 669.351,-143.086"/>
<polygon fill="midnightblue" stroke="midnightblue" points="670.578,-146.389 679.454,-140.603 668.907,-139.591 670.578,-146.389"/>
</g>
<!-- Node10&#45;&gt;Node8 -->
<g id="edge18" class="edge"><title>Node10&#45;&gt;Node8</title>
<path fill="none" stroke="midnightblue" d="M382.985,-180.94C324.875,-171.545 221.749,-154.872 155.335,-144.135"/>
<polygon fill="midnightblue" stroke="midnightblue" points="155.839,-140.671 145.409,-142.53 154.722,-147.581 155.839,-140.671"/>
</g>
<!-- Node11 -->
<g id="node11" class="node"><title>Node11</title>
<polygon fill="white" stroke="#bfbfbf" points="737.649,-123.5 737.649,-142.5 791.649,-142.5 791.649,-123.5 737.649,-123.5"/>
<text text-anchor="middle" x="764.649" y="-130.5" font-family="Helvetica,sans-Serif" font-size="10.00">memory</text>
</g>
<!-- Node10&#45;&gt;Node11 -->
<g id="edge12" class="edge"><title>Node10&#45;&gt;Node11</title>
<path fill="none" stroke="midnightblue" d="M470.389,-182.836C527.377,-175.81 630.285,-162.108 727.583,-143.048"/>
<polygon fill="midnightblue" stroke="midnightblue" points="728.458,-146.443 737.586,-141.065 727.097,-139.576 728.458,-146.443"/>
</g>
<!-- Node12 -->
<g id="node12" class="node"><title>Node12</title>
<polygon fill="white" stroke="#bfbfbf" points="928.649,-62 928.649,-81 974.649,-81 974.649,-62 928.649,-62"/>
<text text-anchor="middle" x="951.649" y="-69" font-family="Helvetica,sans-Serif" font-size="10.00">vector</text>
</g>
<!-- Node10&#45;&gt;Node12 -->
<g id="edge15" class="edge"><title>Node10&#45;&gt;Node12</title>
<path fill="none" stroke="midnightblue" d="M413.499,-179.387C395.095,-166.325 365.709,-141.114 382.649,-123 423.496,-79.3233 861.652,-101.574 919.649,-87 921.86,-86.4444 924.108,-85.742 926.334,-84.9475"/>
<polygon fill="midnightblue" stroke="midnightblue" points="927.873,-88.0986 935.778,-81.0442 925.199,-81.6293 927.873,-88.0986"/>
</g>
<!-- Node13 -->
<g id="node13" class="node"><title>Node13</title>
<polygon fill="white" stroke="#bfbfbf" points="392.149,-123.5 392.149,-142.5 461.149,-142.5 461.149,-123.5 392.149,-123.5"/>
<text text-anchor="middle" x="426.649" y="-130.5" font-family="Helvetica,sans-Serif" font-size="10.00">portaudio.h</text>
</g>
<!-- Node10&#45;&gt;Node13 -->
<g id="edge16" class="edge"><title>Node10&#45;&gt;Node13</title>
<path fill="none" stroke="midnightblue" d="M426.649,-179.083C426.649,-172.006 426.649,-161.861 426.649,-152.986"/>
<polygon fill="midnightblue" stroke="midnightblue" points="430.15,-152.751 426.649,-142.751 423.15,-152.751 430.15,-152.751"/>
</g>
<!-- Node14 -->
<g id="node14" class="node"><title>Node14</title>
<polygon fill="white" stroke="#bfbfbf" points="479.649,-123.5 479.649,-142.5 661.649,-142.5 661.649,-123.5 479.649,-123.5"/>
<text text-anchor="middle" x="570.649" y="-130.5" font-family="Helvetica,sans-Serif" font-size="10.00">portaudiocpp/CallbackInterface.hxx</text>
</g>
<!-- Node10&#45;&gt;Node14 -->
<g id="edge17" class="edge"><title>Node10&#45;&gt;Node14</title>
<path fill="none" stroke="midnightblue" d="M449.467,-179.444C473.481,-170.438 511.478,-156.189 538.519,-146.049"/>
<polygon fill="midnightblue" stroke="midnightblue" points="539.805,-149.305 547.939,-142.516 537.347,-142.751 539.805,-149.305"/>
</g>
<!-- Node10&#45;&gt;Node15 -->
<g id="edge19" class="edge"><title>Node10&#45;&gt;Node15</title>
<path fill="none" stroke="midnightblue" d="M470.537,-182.968C555.148,-173.268 740.96,-151.964 837.201,-140.93"/>
<polygon fill="midnightblue" stroke="midnightblue" points="837.82,-144.382 847.356,-139.766 837.022,-137.428 837.82,-144.382"/>
</g>
<!-- Node21 -->
<g id="node21" class="node"><title>Node21</title>
<g id="a_node21"><a xlink:href="ringbuffer_8hpp.html" target="_top" xlink:title="The RingBuffer class template. ">
<polygon fill="white" stroke="black" points="178.149,-123.5 178.149,-142.5 259.149,-142.5 259.149,-123.5 178.149,-123.5"/>
<text text-anchor="middle" x="218.649" y="-130.5" font-family="Helvetica,sans-Serif" font-size="10.00">ringbuffer.hpp</text>
</a>
</g>
</g>
<!-- Node10&#45;&gt;Node21 -->
<g id="edge29" class="edge"><title>Node10&#45;&gt;Node21</title>
<path fill="none" stroke="midnightblue" d="M393.691,-179.444C357.863,-170.142 300.486,-155.246 261.259,-145.062"/>
<polygon fill="midnightblue" stroke="midnightblue" points="262.012,-141.642 251.453,-142.516 260.253,-148.417 262.012,-141.642"/>
</g>
<!-- Node15&#45;&gt;Node3 -->
<g id="edge21" class="edge"><title>Node15&#45;&gt;Node3</title>
<path fill="none" stroke="midnightblue" d="M856.179,-123.497C836.064,-117.06 813.696,-105.952 801.649,-87 794.258,-75.3725 793.037,-66.754 801.649,-56 822.249,-30.279 917.367,-18.2691 969.03,-13.5595"/>
<polygon fill="midnightblue" stroke="midnightblue" points="969.391,-17.0414 979.05,-12.688 968.785,-10.0677 969.391,-17.0414"/>
</g>
<!-- Node15&#45;&gt;Node5 -->
<g id="edge22" class="edge"><title>Node15&#45;&gt;Node5</title>
<path fill="none" stroke="midnightblue" d="M871.615,-123.412C845.273,-114.623 803.439,-100.393 767.649,-87 765.804,-86.3093 763.91,-85.5871 762.003,-84.8497"/>
<polygon fill="midnightblue" stroke="midnightblue" points="763.108,-81.5232 752.521,-81.1105 760.54,-88.0351 763.108,-81.5232"/>
</g>
<!-- Node15&#45;&gt;Node9 -->
<g id="edge28" class="edge"><title>Node15&#45;&gt;Node9</title>
<path fill="none" stroke="midnightblue" d="M847.336,-126.956C832.326,-125.553 815.83,-124.11 800.649,-123 502.352,-101.18 425.15,-126.308 128.649,-87 121.078,-85.9962 113.095,-84.6029 105.367,-83.0738"/>
<polygon fill="midnightblue" stroke="midnightblue" points="105.913,-79.6125 95.4101,-81.0069 104.49,-86.4664 105.913,-79.6125"/>
</g>
<!-- Node15&#45;&gt;Node12 -->
<g id="edge23" class="edge"><title>Node15&#45;&gt;Node12</title>
<path fill="none" stroke="midnightblue" d="M905.386,-123.475C913.647,-114.373 926.927,-99.741 937.144,-88.483"/>
<polygon fill="midnightblue" stroke="midnightblue" points="939.798,-90.7663 943.927,-81.0091 934.615,-86.0619 939.798,-90.7663"/>
</g>
<!-- Node16 -->
<g id="node16" class="node"><title>Node16</title>
<polygon fill="white" stroke="#bfbfbf" points="810.149,-62 810.149,-81 851.149,-81 851.149,-62 810.149,-62"/>
<text text-anchor="middle" x="830.649" y="-69" font-family="Helvetica,sans-Serif" font-size="10.00">array</text>
</g>
<!-- Node15&#45;&gt;Node16 -->
<g id="edge20" class="edge"><title>Node15&#45;&gt;Node16</title>
<path fill="none" stroke="midnightblue" d="M888.05,-123.475C877.602,-114.197 860.682,-99.1706 847.913,-87.831"/>
<polygon fill="midnightblue" stroke="midnightblue" points="850.032,-85.0323 840.231,-81.0091 845.384,-90.2663 850.032,-85.0323"/>
</g>
<!-- Node17 -->
<g id="node17" class="node"><title>Node17</title>
<polygon fill="white" stroke="#bfbfbf" points="869.149,-62 869.149,-81 910.149,-81 910.149,-62 869.149,-62"/>
<text text-anchor="middle" x="889.649" y="-69" font-family="Helvetica,sans-Serif" font-size="10.00">sox.h</text>
</g>
<!-- Node15&#45;&gt;Node17 -->
<g id="edge24" class="edge"><title>Node15&#45;&gt;Node17</title>
<path fill="none" stroke="midnightblue" d="M896.503,-123.475C895.375,-115.08 893.613,-101.981 892.159,-91.1631"/>
<polygon fill="midnightblue" stroke="midnightblue" points="895.595,-90.4535 890.794,-81.0091 888.657,-91.3863 895.595,-90.4535"/>
</g>
<!-- Node18 -->
<g id="node18" class="node"><title>Node18</title>
<g id="a_node18"><a xlink:href="errors_8hpp.html" target="_top" xlink:title="Declarations of the playd Error exception set. ">
<polygon fill="white" stroke="black" points="1069.15,-62 1069.15,-81 1142.15,-81 1142.15,-62 1069.15,-62"/>
<text text-anchor="middle" x="1105.65" y="-69" font-family="Helvetica,sans-Serif" font-size="10.00">../errors.hpp</text>
</a>
</g>
</g>
<!-- Node15&#45;&gt;Node18 -->
<g id="edge25" class="edge"><title>Node15&#45;&gt;Node18</title>
<path fill="none" stroke="midnightblue" d="M927.451,-123.475C963.902,-113.048 1025.73,-95.3618 1066.12,-83.8066"/>
<polygon fill="midnightblue" stroke="midnightblue" points="1067.25,-87.1244 1075.9,-81.0091 1065.33,-80.3944 1067.25,-87.1244"/>
</g>
<!-- Node19 -->
<g id="node19" class="node"><title>Node19</title>
<polygon fill="white" stroke="#bfbfbf" points="1134.15,-0.5 1134.15,-19.5 1191.15,-19.5 1191.15,-0.5 1134.15,-0.5"/>
<text text-anchor="middle" x="1162.65" y="-7.5" font-family="Helvetica,sans-Serif" font-size="10.00">iostream</text>
</g>
<!-- Node18&#45;&gt;Node19 -->
<g id="edge26" class="edge"><title>Node18&#45;&gt;Node19</title>
<path fill="none" stroke="midnightblue" d="M1113.82,-61.9751C1122.54,-52.8733 1136.55,-38.241 1147.34,-26.983"/>
<polygon fill="midnightblue" stroke="midnightblue" points="1150.11,-29.1515 1154.5,-19.5091 1145.05,-24.309 1150.11,-29.1515"/>
</g>
<!-- Node20 -->
<g id="node20" class="node"><title>Node20</title>
<polygon fill="white" stroke="#bfbfbf" points="1061.65,-0.5 1061.65,-19.5 1115.65,-19.5 1115.65,-0.5 1061.65,-0.5"/>
<text text-anchor="middle" x="1088.65" y="-7.5" font-family="Helvetica,sans-Serif" font-size="10.00">sstream</text>
</g>
<!-- Node18&#45;&gt;Node20 -->
<g id="edge27" class="edge"><title>Node18&#45;&gt;Node20</title>
<path fill="none" stroke="midnightblue" d="M1103.21,-61.9751C1100.79,-53.4919 1096.99,-40.2043 1093.88,-29.3222"/>
<polygon fill="midnightblue" stroke="midnightblue" points="1097.19,-28.1628 1091.08,-19.5091 1090.46,-30.0859 1097.19,-28.1628"/>
</g>
<!-- Node22 -->
<g id="node22" class="node"><title>Node22</title>
<polygon fill="white" stroke="#bfbfbf" points="138.149,-56.5 138.149,-86.5 259.149,-86.5 259.149,-56.5 138.149,-56.5"/>
<text text-anchor="start" x="146.149" y="-74.5" font-family="Helvetica,sans-Serif" font-size="10.00">../contrib/pa_ringbuffer</text>
<text text-anchor="middle" x="198.649" y="-63.5" font-family="Helvetica,sans-Serif" font-size="10.00">/pa_ringbuffer.h</text>
</g>
<!-- Node21&#45;&gt;Node22 -->
<g id="edge30" class="edge"><title>Node21&#45;&gt;Node22</title>
<path fill="none" stroke="midnightblue" d="M215.784,-123.475C213.379,-116.32 209.825,-105.748 206.577,-96.0841"/>
<polygon fill="midnightblue" stroke="midnightblue" points="209.867,-94.8866 203.363,-86.523 203.232,-97.117 209.867,-94.8866"/>
</g>
<!-- Node23&#45;&gt;Node3 -->
<g id="edge33" class="edge"><title>Node23&#45;&gt;Node3</title>
<path fill="none" stroke="midnightblue" d="M858.946,-187.166C892.241,-184.528 944.099,-175.102 973.649,-143 1002.56,-111.593 1005.03,-58.1583 1004.03,-29.8675"/>
<polygon fill="midnightblue" stroke="midnightblue" points="1007.52,-29.5259 1003.48,-19.7292 1000.53,-29.9035 1007.52,-29.5259"/>
</g>
<!-- Node23&#45;&gt;Node5 -->
<g id="edge35" class="edge"><title>Node23&#45;&gt;Node5</title>
<path fill="none" stroke="midnightblue" d="M825.632,-179.229C822.243,-165.96 814.396,-140.482 800.649,-123 788.832,-107.971 771.442,-95.2828 757.076,-86.3835"/>
<polygon fill="midnightblue" stroke="midnightblue" points="758.549,-83.1874 748.162,-81.0961 754.977,-89.208 758.549,-83.1874"/>
</g>
<!-- Node23&#45;&gt;Node6 -->
<g id="edge36" class="edge"><title>Node23&#45;&gt;Node6</title>
<path fill="none" stroke="midnightblue" d="M807.367,-179.444C786.302,-170.557 753.133,-156.563 729.164,-146.451"/>
<polygon fill="midnightblue" stroke="midnightblue" points="730.411,-143.179 719.837,-142.516 727.69,-149.628 730.411,-143.179"/>
</g>
<!-- Node23&#45;&gt;Node11 -->
<g id="edge34" class="edge"><title>Node23&#45;&gt;Node11</title>
<path fill="none" stroke="midnightblue" d="M817.527,-179.324C808.123,-171.263 793.905,-159.077 782.58,-149.369"/>
<polygon fill="midnightblue" stroke="midnightblue" points="784.826,-146.684 774.956,-142.834 780.27,-151.999 784.826,-146.684"/>
</g>
<!-- Node23&#45;&gt;Node12 -->
<g id="edge37" class="edge"><title>Node23&#45;&gt;Node12</title>
<path fill="none" stroke="midnightblue" d="M858.908,-186.843C889.496,-183.845 934.605,-174.037 956.649,-143 967.387,-127.882 963.705,-106.044 958.886,-90.6895"/>
<polygon fill="midnightblue" stroke="midnightblue" points="962.18,-89.5061 955.531,-81.2571 955.584,-91.8519 962.18,-89.5061"/>
</g>
<!-- Node23&#45;&gt;Node13 -->
<g id="edge38" class="edge"><title>Node23&#45;&gt;Node13</title>
<path fill="none" stroke="midnightblue" d="M796.401,-184.372C724.716,-176.002 549.252,-155.229 471.109,-142.928"/>
<polygon fill="midnightblue" stroke="midnightblue" points="471.621,-139.466 461.19,-141.325 470.504,-146.376 471.621,-139.466"/>
</g>
<!-- Node23&#45;&gt;Node14 -->
<g id="edge39" class="edge"><title>Node23&#45;&gt;Node14</title>
<path fill="none" stroke="midnightblue" d="M796.649,-181.486C753.219,-172.361 673.741,-155.661 621.556,-144.696"/>
<polygon fill="midnightblue" stroke="midnightblue" points="622.008,-141.215 611.502,-142.584 620.568,-148.065 622.008,-141.215"/>
</g>
<!-- Node23&#45;&gt;Node15 -->
<g id="edge47" class="edge"><title>Node23&#45;&gt;Node15</title>
<path fill="none" stroke="midnightblue" d="M838.896,-179.324C849.447,-171.185 865.45,-158.839 878.092,-149.087"/>
<polygon fill="midnightblue" stroke="midnightblue" points="880.418,-151.713 886.198,-142.834 876.142,-146.171 880.418,-151.713"/>
</g>
<!-- Node23&#45;&gt;Node24 -->
<g id="edge40" class="edge"><title>Node23&#45;&gt;Node24</title>
<path fill="none" stroke="midnightblue" d="M858.737,-181.806C904.415,-172.704 990.261,-155.598 1045.91,-144.508"/>
<polygon fill="midnightblue" stroke="midnightblue" points="1046.81,-147.898 1055.94,-142.511 1045.45,-141.033 1046.81,-147.898"/>
</g>
<!-- Node24&#45;&gt;Node3 -->
<g id="edge41" class="edge"><title>Node24&#45;&gt;Node3</title>
<path fill="none" stroke="midnightblue" d="M1091.24,-123.478C1083.48,-114.506 1071.02,-99.9163 1060.65,-87 1044.49,-66.8776 1026.57,-43.1629 1014.98,-27.6424"/>
<polygon fill="midnightblue" stroke="midnightblue" points="1017.73,-25.4743 1008.95,-19.5402 1012.11,-29.6526 1017.73,-25.4743"/>
</g>
<!-- Node24&#45;&gt;Node5 -->
<g id="edge44" class="edge"><title>Node24&#45;&gt;Node5</title>
<path fill="none" stroke="midnightblue" d="M1041.56,-124.281C981.654,-115.964 884.809,-101.902 801.649,-87 789.083,-84.7482 775.313,-81.9648 763.336,-79.4407"/>
<polygon fill="midnightblue" stroke="midnightblue" points="763.858,-75.9733 753.347,-77.3091 762.397,-82.8191 763.858,-75.9733"/>
</g>
<!-- Node24&#45;&gt;Node12 -->
<g id="edge45" class="edge"><title>Node24&#45;&gt;Node12</title>
<path fill="none" stroke="midnightblue" d="M1077.59,-123.475C1052.59,-113.357 1010.71,-96.4046 982.163,-84.8507"/>
<polygon fill="midnightblue" stroke="midnightblue" points="983.255,-81.5168 972.672,-81.0091 980.628,-88.0054 983.255,-81.5168"/>
</g>
<!-- Node24&#45;&gt;Node18 -->
<g id="edge46" class="edge"><title>Node24&#45;&gt;Node18</title>
<path fill="none" stroke="midnightblue" d="M1099.65,-123.475C1100.64,-115.08 1102.18,-101.981 1103.45,-91.1631"/>
<polygon fill="midnightblue" stroke="midnightblue" points="1106.96,-91.3496 1104.65,-81.0091 1100,-90.5316 1106.96,-91.3496"/>
</g>
<!-- Node25 -->
<g id="node25" class="node"><title>Node25</title>
<polygon fill="white" stroke="#bfbfbf" points="1160.15,-62 1160.15,-81 1197.15,-81 1197.15,-62 1160.15,-62"/>
<text text-anchor="middle" x="1178.65" y="-69" font-family="Helvetica,sans-Serif" font-size="10.00">map</text>
</g>
<!-- Node24&#45;&gt;Node25 -->
<g id="edge42" class="edge"><title>Node24&#45;&gt;Node25</title>
<path fill="none" stroke="midnightblue" d="M1110.11,-123.475C1122.82,-114.02 1143.56,-98.5961 1158.9,-87.1871"/>
<polygon fill="midnightblue" stroke="midnightblue" points="1161.27,-89.7854 1167.21,-81.0091 1157.1,-84.1686 1161.27,-89.7854"/>
</g>
<!-- Node26 -->
<g id="node26" class="node"><title>Node26</title>
<polygon fill="white" stroke="#bfbfbf" points="1215.15,-62 1215.15,-81 1270.15,-81 1270.15,-62 1215.15,-62"/>
<text text-anchor="middle" x="1242.65" y="-69" font-family="Helvetica,sans-Serif" font-size="10.00">ostream</text>
</g>
<!-- Node24&#45;&gt;Node26 -->
<g id="edge43" class="edge"><title>Node24&#45;&gt;Node26</title>
<path fill="none" stroke="midnightblue" d="M1119.28,-123.475C1143.77,-113.357 1184.8,-96.4046 1212.76,-84.8507"/>
<polygon fill="midnightblue" stroke="midnightblue" points="1214.15,-88.0627 1222.06,-81.0091 1211.48,-81.5932 1214.15,-88.0627"/>
</g>
<!-- Node27&#45;&gt;Node4 -->
<g id="edge51" class="edge"><title>Node27&#45;&gt;Node4</title>
<path fill="none" stroke="midnightblue" d="M896.395,-293.134C891.756,-292.409 887.105,-291.686 882.649,-291 803.058,-278.747 711.52,-265.078 650.7,-256.055"/>
<polygon fill="midnightblue" stroke="midnightblue" points="650.867,-252.541 640.461,-254.537 649.84,-259.466 650.867,-252.541"/>
</g>
<!-- Node27&#45;&gt;Node11 -->
<g id="edge50" class="edge"><title>Node27&#45;&gt;Node11</title>
<path fill="none" stroke="midnightblue" d="M918.481,-291.397C885.754,-277.049 822.973,-245.178 787.649,-199 777.205,-185.346 771.241,-166.556 768.017,-152.689"/>
<polygon fill="midnightblue" stroke="midnightblue" points="771.429,-151.906 765.986,-142.816 764.573,-153.316 771.429,-151.906"/>
</g>
<!-- Node27&#45;&gt;Node23 -->
<g id="edge52" class="edge"><title>Node27&#45;&gt;Node23</title>
<path fill="none" stroke="midnightblue" d="M930.861,-291.368C912.051,-272.894 867.656,-229.293 843.679,-205.744"/>
<polygon fill="midnightblue" stroke="midnightblue" points="845.984,-203.101 836.397,-198.591 841.079,-208.096 845.984,-203.101"/>
</g>
<!-- Node27&#45;&gt;Node24 -->
<g id="edge53" class="edge"><title>Node27&#45;&gt;Node24</title>
<path fill="none" stroke="midnightblue" d="M941.898,-291.5C947.995,-269.955 966.771,-212.539 1001.65,-179 1017.37,-163.879 1039.1,-153.158 1058.01,-145.983"/>
<polygon fill="midnightblue" stroke="midnightblue" points="1059.36,-149.218 1067.59,-142.55 1057,-142.628 1059.36,-149.218"/>
</g>
<!-- Node27&#45;&gt;Node28 -->
<g id="edge54" class="edge"><title>Node27&#45;&gt;Node28</title>
<path fill="none" stroke="midnightblue" d="M952.126,-291.368C979.294,-272.573 1044.06,-227.768 1077.64,-204.533"/>
<polygon fill="midnightblue" stroke="midnightblue" points="1080,-207.159 1086.23,-198.591 1076.02,-201.403 1080,-207.159"/>
</g>
<!-- Node28&#45;&gt;Node3 -->
<g id="edge55" class="edge"><title>Node28&#45;&gt;Node3</title>
<path fill="none" stroke="midnightblue" d="M1130.99,-179.482C1195.4,-161.024 1329.4,-114.266 1279.65,-56 1246.48,-17.159 1103.01,-28.5245 1052.65,-20 1047.4,-19.1119 1041.85,-18.1426 1036.43,-17.1796"/>
<polygon fill="midnightblue" stroke="midnightblue" points="1036.75,-13.6801 1026.29,-15.3587 1035.51,-20.5701 1036.75,-13.6801"/>
</g>
<!-- Node28&#45;&gt;Node15 -->
<g id="edge57" class="edge"><title>Node28&#45;&gt;Node15</title>
<path fill="none" stroke="midnightblue" d="M1066.8,-179.444C1032.25,-170.162 976.967,-155.309 939.066,-145.127"/>
<polygon fill="midnightblue" stroke="midnightblue" points="939.915,-141.731 929.35,-142.516 938.099,-148.491 939.915,-141.731"/>
</g>
<!-- Node28&#45;&gt;Node24 -->
<g id="edge58" class="edge"><title>Node28&#45;&gt;Node24</title>
<path fill="none" stroke="midnightblue" d="M1098.65,-179.083C1098.65,-172.006 1098.65,-161.861 1098.65,-152.986"/>
<polygon fill="midnightblue" stroke="midnightblue" points="1102.15,-152.751 1098.65,-142.751 1095.15,-152.751 1102.15,-152.751"/>
</g>
<!-- Node29 -->
<g id="node29" class="node"><title>Node29</title>
<polygon fill="white" stroke="#bfbfbf" points="1302.15,-123.5 1302.15,-142.5 1333.15,-142.5 1333.15,-123.5 1302.15,-123.5"/>
<text text-anchor="middle" x="1317.65" y="-130.5" font-family="Helvetica,sans-Serif" font-size="10.00">set</text>
</g>
<!-- Node28&#45;&gt;Node29 -->
<g id="edge56" class="edge"><title>Node28&#45;&gt;Node29</title>
<path fill="none" stroke="midnightblue" d="M1137.55,-179.429C1175.87,-170.821 1236.02,-156.878 1287.65,-143 1289.13,-142.603 1290.64,-142.185 1292.17,-141.754"/>
<polygon fill="midnightblue" stroke="midnightblue" points="1293.51,-145.008 1302.13,-138.843 1291.55,-138.289 1293.51,-145.008"/>
</g>
</g>
</svg>
