<?xml version="1.0" encoding="UTF-8" standalone="no"?>
<!DOCTYPE svg PUBLIC "-//W3C//DTD SVG 1.1//EN"
 "http://www.w3.org/Graphics/SVG/1.1/DTD/svg11.dtd">
<!-- Generated by graphviz version 2.38.0 (20140413.2041)
 -->
<!-- Title: src/player/player_position.cpp Pages: 1 -->
<svg width="1708pt" height="431pt"
 viewBox="0.00 0.00 1708.00 431.00" xmlns="http://www.w3.org/2000/svg" xmlns:xlink="http://www.w3.org/1999/xlink">
<g id="graph0" class="graph" transform="scale(1 1) rotate(0) translate(4 427)">
<title>src/player/player_position.cpp</title>
<polygon fill="white" stroke="none" points="-4,4 -4,-427 1704,-427 1704,4 -4,4"/>
<!-- Node1 -->
<g id="node1" class="node"><title>Node1</title>
<polygon fill="#bfbfbf" stroke="black" points="1393,-403.5 1393,-422.5 1551,-422.5 1551,-403.5 1393,-403.5"/>
<text text-anchor="middle" x="1472" y="-410.5" font-family="Helvetica,sans-Serif" font-size="10.00">src/player/player_position.cpp</text>
</g>
<!-- Node2 -->
<g id="node2" class="node"><title>Node2</title>
<polygon fill="white" stroke="#bfbfbf" points="1133.5,-0.5 1133.5,-19.5 1180.5,-19.5 1180.5,-0.5 1133.5,-0.5"/>
<text text-anchor="middle" x="1157" y="-7.5" font-family="Helvetica,sans-Serif" font-size="10.00">cstdint</text>
</g>
<!-- Node1&#45;&gt;Node2 -->
<g id="edge1" class="edge"><title>Node1&#45;&gt;Node2</title>
<path fill="none" stroke="midnightblue" d="M1529.52,-403.485C1585.44,-391.565 1662,-363.938 1662,-302 1662,-302 1662,-302 1662,-132 1662,-97.0722 1668.65,-78.581 1642,-56 1607.69,-26.926 1295.52,-15.0986 1190.96,-11.9306"/>
<polygon fill="midnightblue" stroke="midnightblue" points="1190.75,-8.42326 1180.66,-11.6264 1190.55,-15.4202 1190.75,-8.42326"/>
</g>
<!-- Node3 -->
<g id="node3" class="node"><title>Node3</title>
<polygon fill="white" stroke="#bfbfbf" points="1571,-0.5 1571,-19.5 1625,-19.5 1625,-0.5 1571,-0.5"/>
<text text-anchor="middle" x="1598" y="-7.5" font-family="Helvetica,sans-Serif" font-size="10.00">sstream</text>
</g>
<!-- Node1&#45;&gt;Node3 -->
<g id="edge2" class="edge"><title>Node1&#45;&gt;Node3</title>
<path fill="none" stroke="midnightblue" d="M1544.2,-403.475C1594.66,-396.171 1656.39,-384.102 1676,-367 1699.21,-346.761 1700,-332.795 1700,-302 1700,-302 1700,-302 1700,-132 1700,-96.578 1698.18,-83.6165 1676,-56 1664.49,-41.6668 1647.09,-31.0064 1631.65,-23.669"/>
<polygon fill="midnightblue" stroke="midnightblue" points="1632.92,-20.401 1622.36,-19.5266 1630.07,-26.7947 1632.92,-20.401"/>
</g>
<!-- Node4 -->
<g id="node4" class="node"><title>Node4</title>
<g id="a_node4"><a xlink:href="io__response_8hpp.html" target="_top" xlink:title="Declaration of classes pertaining to responses to the client. ">
<polygon fill="white" stroke="black" points="1348,-123.5 1348,-142.5 1462,-142.5 1462,-123.5 1348,-123.5"/>
<text text-anchor="middle" x="1405" y="-130.5" font-family="Helvetica,sans-Serif" font-size="10.00">../io/io_response.hpp</text>
</a>
</g>
</g>
<!-- Node1&#45;&gt;Node4 -->
<g id="edge3" class="edge"><title>Node1&#45;&gt;Node4</title>
<path fill="none" stroke="midnightblue" d="M1472,-403.442C1472,-384.936 1472,-339.812 1472,-302 1472,-302 1472,-302 1472,-244 1472,-205.704 1442.01,-169.416 1422.16,-149.589"/>
<polygon fill="midnightblue" stroke="midnightblue" points="1424.52,-147.003 1414.89,-142.598 1419.67,-152.05 1424.52,-147.003"/>
</g>
<!-- Node11 -->
<g id="node11" class="node"><title>Node11</title>
<g id="a_node11"><a xlink:href="player_8hpp.html" target="_top" xlink:title="Declaration of the Player class, and associated types. ">
<polygon fill="white" stroke="black" points="1154,-347.5 1154,-366.5 1220,-366.5 1220,-347.5 1154,-347.5"/>
<text text-anchor="middle" x="1187" y="-354.5" font-family="Helvetica,sans-Serif" font-size="10.00">player.hpp</text>
</a>
</g>
</g>
<!-- Node1&#45;&gt;Node11 -->
<g id="edge12" class="edge"><title>Node1&#45;&gt;Node11</title>
<path fill="none" stroke="midnightblue" d="M1426.84,-403.444C1372.98,-393.239 1283.6,-376.302 1230.49,-366.24"/>
<polygon fill="midnightblue" stroke="midnightblue" points="1230.85,-362.746 1220.37,-364.323 1229.54,-369.623 1230.85,-362.746"/>
</g>
<!-- Node29 -->
<g id="node29" class="node"><title>Node29</title>
<g id="a_node29"><a xlink:href="player__position_8hpp.html" target="_top" xlink:title="Declaration of the PlayerPosition class. ">
<polygon fill="white" stroke="black" points="973.5,-235.5 973.5,-254.5 1082.5,-254.5 1082.5,-235.5 973.5,-235.5"/>
<text text-anchor="middle" x="1028" y="-242.5" font-family="Helvetica,sans-Serif" font-size="10.00">player_position.hpp</text>
</a>
</g>
</g>
<!-- Node1&#45;&gt;Node29 -->
<g id="edge77" class="edge"><title>Node1&#45;&gt;Node29</title>
<path fill="none" stroke="midnightblue" d="M1392.89,-409.17C1325.51,-404.875 1226.88,-394.083 1145,-367 1095.9,-350.76 1074.21,-352.241 1043,-311 1032.95,-297.724 1029.46,-278.863 1028.33,-264.874"/>
<polygon fill="midnightblue" stroke="midnightblue" points="1031.81,-264.325 1027.84,-254.5 1024.81,-264.653 1031.81,-264.325"/>
</g>
<!-- Node4&#45;&gt;Node2 -->
<g id="edge4" class="edge"><title>Node4&#45;&gt;Node2</title>
<path fill="none" stroke="midnightblue" d="M1399.5,-123.435C1388.86,-107.575 1363.84,-73.6509 1334,-56 1288.92,-29.3328 1228.32,-18.3438 1191,-13.9032"/>
<polygon fill="midnightblue" stroke="midnightblue" points="1190.98,-10.381 1180.66,-12.7708 1190.22,-17.3393 1190.98,-10.381"/>
</g>
<!-- Node5 -->
<g id="node5" class="node"><title>Node5</title>
<polygon fill="white" stroke="#bfbfbf" points="1596.5,-62 1596.5,-81 1633.5,-81 1633.5,-62 1596.5,-62"/>
<text text-anchor="middle" x="1615" y="-69" font-family="Helvetica,sans-Serif" font-size="10.00">map</text>
</g>
<!-- Node4&#45;&gt;Node5 -->
<g id="edge5" class="edge"><title>Node4&#45;&gt;Node5</title>
<path fill="none" stroke="midnightblue" d="M1435.09,-123.475C1475.59,-112.001 1547.11,-91.7362 1586.68,-80.5242"/>
<polygon fill="midnightblue" stroke="midnightblue" points="1587.81,-83.8416 1596.48,-77.748 1585.9,-77.1067 1587.81,-83.8416"/>
</g>
<!-- Node6 -->
<g id="node6" class="node"><title>Node6</title>
<polygon fill="white" stroke="#bfbfbf" points="1477.5,-62 1477.5,-81 1532.5,-81 1532.5,-62 1477.5,-62"/>
<text text-anchor="middle" x="1505" y="-69" font-family="Helvetica,sans-Serif" font-size="10.00">ostream</text>
</g>
<!-- Node4&#45;&gt;Node6 -->
<g id="edge6" class="edge"><title>Node4&#45;&gt;Node6</title>
<path fill="none" stroke="midnightblue" d="M1419.33,-123.475C1435.66,-113.755 1462.6,-97.7266 1481.91,-86.2372"/>
<polygon fill="midnightblue" stroke="midnightblue" points="1483.89,-89.1303 1490.7,-81.0091 1480.32,-83.1146 1483.89,-89.1303"/>
</g>
<!-- Node7 -->
<g id="node7" class="node"><title>Node7</title>
<polygon fill="white" stroke="#bfbfbf" points="854.5,-62 854.5,-81 897.5,-81 897.5,-62 854.5,-62"/>
<text text-anchor="middle" x="876" y="-69" font-family="Helvetica,sans-Serif" font-size="10.00">string</text>
</g>
<!-- Node4&#45;&gt;Node7 -->
<g id="edge7" class="edge"><title>Node4&#45;&gt;Node7</title>
<path fill="none" stroke="midnightblue" d="M1347.84,-129.136C1235.69,-123.136 990.635,-108.04 909,-87 906.699,-86.407 904.355,-85.671 902.031,-84.8473"/>
<polygon fill="midnightblue" stroke="midnightblue" points="903.336,-81.5998 892.752,-81.1106 900.721,-88.093 903.336,-81.5998"/>
</g>
<!-- Node8 -->
<g id="node8" class="node"><title>Node8</title>
<polygon fill="white" stroke="#bfbfbf" points="1234,-62 1234,-81 1280,-81 1280,-62 1234,-62"/>
<text text-anchor="middle" x="1257" y="-69" font-family="Helvetica,sans-Serif" font-size="10.00">vector</text>
</g>
<!-- Node4&#45;&gt;Node8 -->
<g id="edge8" class="edge"><title>Node4&#45;&gt;Node8</title>
<path fill="none" stroke="midnightblue" d="M1383.8,-123.475C1358.63,-113.357 1316.46,-96.4046 1287.72,-84.8507"/>
<polygon fill="midnightblue" stroke="midnightblue" points="1288.75,-81.4919 1278.17,-81.0091 1286.14,-87.9867 1288.75,-81.4919"/>
</g>
<!-- Node9 -->
<g id="node9" class="node"><title>Node9</title>
<g id="a_node9"><a xlink:href="errors_8hpp.html" target="_top" xlink:title="Declarations of the playd Error exception set. ">
<polygon fill="white" stroke="black" points="1386.5,-62 1386.5,-81 1459.5,-81 1459.5,-62 1386.5,-62"/>
<text text-anchor="middle" x="1423" y="-69" font-family="Helvetica,sans-Serif" font-size="10.00">../errors.hpp</text>
</a>
</g>
</g>
<!-- Node4&#45;&gt;Node9 -->
<g id="edge9" class="edge"><title>Node4&#45;&gt;Node9</title>
<path fill="none" stroke="midnightblue" d="M1407.58,-123.475C1410.15,-114.992 1414.17,-101.704 1417.46,-90.8222"/>
<polygon fill="midnightblue" stroke="midnightblue" points="1420.88,-91.5942 1420.43,-81.0091 1414.18,-89.5672 1420.88,-91.5942"/>
</g>
<!-- Node9&#45;&gt;Node3 -->
<g id="edge11" class="edge"><title>Node9&#45;&gt;Node3</title>
<path fill="none" stroke="midnightblue" d="M1448.07,-61.9751C1478.35,-51.6804 1529.44,-34.3103 1563.44,-22.7502"/>
<polygon fill="midnightblue" stroke="midnightblue" points="1564.63,-26.0419 1572.97,-19.5091 1562.38,-19.4145 1564.63,-26.0419"/>
</g>
<!-- Node10 -->
<g id="node10" class="node"><title>Node10</title>
<polygon fill="white" stroke="#bfbfbf" points="1394.5,-0.5 1394.5,-19.5 1451.5,-19.5 1451.5,-0.5 1394.5,-0.5"/>
<text text-anchor="middle" x="1423" y="-7.5" font-family="Helvetica,sans-Serif" font-size="10.00">iostream</text>
</g>
<!-- Node9&#45;&gt;Node10 -->
<g id="edge10" class="edge"><title>Node9&#45;&gt;Node10</title>
<path fill="none" stroke="midnightblue" d="M1423,-61.9751C1423,-53.5803 1423,-40.4806 1423,-29.6631"/>
<polygon fill="midnightblue" stroke="midnightblue" points="1426.5,-29.5091 1423,-19.5091 1419.5,-29.5091 1426.5,-29.5091"/>
</g>
<!-- Node11&#45;&gt;Node2 -->
<g id="edge13" class="edge"><title>Node11&#45;&gt;Node2</title>
<path fill="none" stroke="midnightblue" d="M1153.7,-354.706C961.261,-347.012 0,-305.598 0,-246 0,-246 0,-246 0,-132 0,-54.4766 81.8465,-75.0217 157,-56 345.793,-8.21556 970.473,-9.60871 1123.12,-10.6967"/>
<polygon fill="midnightblue" stroke="midnightblue" points="1123.26,-14.1977 1133.29,-10.7738 1123.31,-7.19791 1123.26,-14.1977"/>
</g>
<!-- Node11&#45;&gt;Node4 -->
<g id="edge37" class="edge"><title>Node11&#45;&gt;Node4</title>
<path fill="none" stroke="midnightblue" d="M1205.4,-347.469C1245.86,-327.681 1342.65,-274.52 1389,-199 1397.64,-184.917 1401.62,-166.426 1403.45,-152.768"/>
<polygon fill="midnightblue" stroke="midnightblue" points="1406.95,-152.951 1404.54,-142.635 1399.99,-152.205 1406.95,-152.951"/>
</g>
<!-- Node11&#45;&gt;Node5 -->
<g id="edge14" class="edge"><title>Node11&#45;&gt;Node5</title>
<path fill="none" stroke="midnightblue" d="M1220.2,-354.768C1322.19,-350.092 1624,-329.222 1624,-246 1624,-246 1624,-246 1624,-188 1624,-153.76 1620.02,-113.983 1617.35,-91.1743"/>
<polygon fill="midnightblue" stroke="midnightblue" points="1620.82,-90.6808 1616.14,-81.1754 1613.87,-91.5243 1620.82,-90.6808"/>
</g>
<!-- Node11&#45;&gt;Node7 -->
<g id="edge16" class="edge"><title>Node11&#45;&gt;Node7</title>
<path fill="none" stroke="midnightblue" d="M1153.86,-356.011C981.485,-355.209 191.691,-340.699 95,-143 91.0947,-135.015 88.9208,-129.485 95,-123 121.038,-95.2242 700.285,-77.3714 843.97,-73.3602"/>
<polygon fill="midnightblue" stroke="midnightblue" points="844.396,-76.8499 854.295,-73.075 844.202,-69.8526 844.396,-76.8499"/>
</g>
<!-- Node11&#45;&gt;Node8 -->
<g id="edge18" class="edge"><title>Node11&#45;&gt;Node8</title>
<path fill="none" stroke="midnightblue" d="M1188.58,-347.469C1193.38,-321.822 1208.49,-243.227 1225,-179 1233.02,-147.792 1244.19,-112.007 1250.99,-90.8796"/>
<polygon fill="midnightblue" stroke="midnightblue" points="1254.35,-91.861 1254.1,-81.269 1247.69,-89.7012 1254.35,-91.861"/>
</g>
<!-- Node12 -->
<g id="node12" class="node"><title>Node12</title>
<polygon fill="white" stroke="#bfbfbf" points="1086,-123.5 1086,-142.5 1140,-142.5 1140,-123.5 1086,-123.5"/>
<text text-anchor="middle" x="1113" y="-130.5" font-family="Helvetica,sans-Serif" font-size="10.00">memory</text>
</g>
<!-- Node11&#45;&gt;Node12 -->
<g id="edge15" class="edge"><title>Node11&#45;&gt;Node12</title>
<path fill="none" stroke="midnightblue" d="M1184.18,-347.157C1180.19,-334.639 1172.62,-311.044 1166,-291 1149.44,-240.86 1129.38,-181.91 1119.35,-152.559"/>
<polygon fill="midnightblue" stroke="midnightblue" points="1122.58,-151.169 1116.03,-142.839 1115.95,-153.434 1122.58,-151.169"/>
</g>
<!-- Node13 -->
<g id="node13" class="node"><title>Node13</title>
<polygon fill="white" stroke="#bfbfbf" points="104,-123.5 104,-142.5 144,-142.5 144,-123.5 104,-123.5"/>
<text text-anchor="middle" x="124" y="-130.5" font-family="Helvetica,sans-Serif" font-size="10.00">utility</text>
</g>
<!-- Node11&#45;&gt;Node13 -->
<g id="edge17" class="edge"><title>Node11&#45;&gt;Node13</title>
<path fill="none" stroke="midnightblue" d="M1153.99,-353.885C1041.78,-346.288 665.016,-317.454 360,-255 272.5,-237.084 238.939,-251.935 167,-199 150.689,-186.997 138.752,-166.811 131.65,-152.113"/>
<polygon fill="midnightblue" stroke="midnightblue" points="134.648,-150.247 127.34,-142.576 128.269,-153.13 134.648,-150.247"/>
</g>
<!-- Node14 -->
<g id="node14" class="node"><title>Node14</title>
<g id="a_node14"><a xlink:href="audio_8hpp.html" target="_top" xlink:title="Declaration of the Audio class. ">
<polygon fill="white" stroke="black" points="820,-179.5 820,-198.5 918,-198.5 918,-179.5 820,-179.5"/>
<text text-anchor="middle" x="869" y="-186.5" font-family="Helvetica,sans-Serif" font-size="10.00">../audio/audio.hpp</text>
</a>
</g>
</g>
<!-- Node11&#45;&gt;Node14 -->
<g id="edge19" class="edge"><title>Node11&#45;&gt;Node14</title>
<path fill="none" stroke="midnightblue" d="M1153.92,-349.17C1101.76,-337.146 999.046,-308.279 928,-255 909.597,-241.199 892.385,-221.076 881.356,-206.884"/>
<polygon fill="midnightblue" stroke="midnightblue" points="883.873,-204.409 875.052,-198.54 878.288,-208.629 883.873,-204.409"/>
</g>
<!-- Node21 -->
<g id="node21" class="node"><title>Node21</title>
<g id="a_node21"><a xlink:href="cmd__result_8hpp.html" target="_top" xlink:title="Declaration of the CommandResult class. ">
<polygon fill="white" stroke="black" points="1234.5,-179.5 1234.5,-198.5 1329.5,-198.5 1329.5,-179.5 1234.5,-179.5"/>
<text text-anchor="middle" x="1282" y="-186.5" font-family="Helvetica,sans-Serif" font-size="10.00">../cmd_result.hpp</text>
</a>
</g>
</g>
<!-- Node11&#45;&gt;Node21 -->
<g id="edge38" class="edge"><title>Node11&#45;&gt;Node21</title>
<path fill="none" stroke="midnightblue" d="M1200.25,-347.491C1211.92,-339.381 1228.63,-326.18 1239,-311 1261.14,-278.596 1273.17,-233.541 1278.52,-208.556"/>
<polygon fill="midnightblue" stroke="midnightblue" points="1281.98,-209.101 1280.52,-198.607 1275.11,-207.72 1281.98,-209.101"/>
</g>
<!-- Node22 -->
<g id="node22" class="node"><title>Node22</title>
<g id="a_node22"><a xlink:href="player__file_8hpp.html" target="_top" xlink:title="Declaration of the PlayerFile class, and associated types. ">
<polygon fill="white" stroke="black" points="1071,-291.5 1071,-310.5 1157,-310.5 1157,-291.5 1071,-291.5"/>
<text text-anchor="middle" x="1114" y="-298.5" font-family="Helvetica,sans-Serif" font-size="10.00">player_file.hpp</text>
</a>
</g>
</g>
<!-- Node11&#45;&gt;Node22 -->
<g id="edge43" class="edge"><title>Node11&#45;&gt;Node22</title>
<path fill="none" stroke="midnightblue" d="M1175.27,-347.324C1164.16,-339.107 1147.26,-326.602 1134.02,-316.807"/>
<polygon fill="midnightblue" stroke="midnightblue" points="1136.06,-313.967 1125.94,-310.834 1131.9,-319.595 1136.06,-313.967"/>
</g>
<!-- Node11&#45;&gt;Node29 -->
<g id="edge72" class="edge"><title>Node11&#45;&gt;Node29</title>
<path fill="none" stroke="midnightblue" d="M1153.87,-350.94C1126.51,-345.281 1088.07,-333.74 1062,-311 1047.93,-298.726 1038.82,-279.189 1033.61,-264.735"/>
<polygon fill="midnightblue" stroke="midnightblue" points="1036.82,-263.282 1030.36,-254.878 1030.17,-265.471 1036.82,-263.282"/>
</g>
<!-- Node31 -->
<g id="node31" class="node"><title>Node31</title>
<g id="a_node31"><a xlink:href="player__state_8hpp.html" target="_top" xlink:title="Declaration of the PlayerState class, and associated types. ">
<polygon fill="white" stroke="black" points="1500.5,-179.5 1500.5,-198.5 1595.5,-198.5 1595.5,-179.5 1500.5,-179.5"/>
<text text-anchor="middle" x="1548" y="-186.5" font-family="Helvetica,sans-Serif" font-size="10.00">player_state.hpp</text>
</a>
</g>
</g>
<!-- Node11&#45;&gt;Node31 -->
<g id="edge73" class="edge"><title>Node11&#45;&gt;Node31</title>
<path fill="none" stroke="midnightblue" d="M1220.08,-354.621C1265.19,-351.592 1347.52,-341.916 1410,-311 1462.86,-284.846 1511.42,-233.265 1534.26,-206.693"/>
<polygon fill="midnightblue" stroke="midnightblue" points="1537.22,-208.613 1541,-198.713 1531.87,-204.099 1537.22,-208.613"/>
</g>
<!-- Node14&#45;&gt;Node2 -->
<g id="edge20" class="edge"><title>Node14&#45;&gt;Node2</title>
<path fill="none" stroke="midnightblue" d="M863.229,-179.349C848.608,-156.257 813.434,-92.4456 845,-56 880.687,-14.7968 1049.75,-10.4697 1123.01,-10.5778"/>
<polygon fill="midnightblue" stroke="midnightblue" points="1123.08,-14.0781 1133.1,-10.6221 1123.11,-7.07812 1123.08,-14.0781"/>
</g>
<!-- Node14&#45;&gt;Node4 -->
<g id="edge27" class="edge"><title>Node14&#45;&gt;Node4</title>
<path fill="none" stroke="midnightblue" d="M918.465,-183.017C1014.87,-173.304 1228.03,-151.829 1337.39,-140.812"/>
<polygon fill="midnightblue" stroke="midnightblue" points="1338.04,-144.264 1347.64,-139.779 1337.34,-137.299 1338.04,-144.264"/>
</g>
<!-- Node14&#45;&gt;Node7 -->
<g id="edge22" class="edge"><title>Node14&#45;&gt;Node7</title>
<path fill="none" stroke="midnightblue" d="M869.526,-179.319C870.651,-160.757 873.313,-116.839 874.85,-91.4734"/>
<polygon fill="midnightblue" stroke="midnightblue" points="878.356,-91.4755 875.468,-81.282 871.369,-91.0519 878.356,-91.4755"/>
</g>
<!-- Node14&#45;&gt;Node8 -->
<g id="edge24" class="edge"><title>Node14&#45;&gt;Node8</title>
<path fill="none" stroke="midnightblue" d="M907.584,-179.433C941.395,-171.466 991.617,-158.51 1034,-143 1053.79,-135.757 1057.23,-130.315 1077,-123 1127.14,-104.443 1187.29,-88.857 1223.8,-80.1027"/>
<polygon fill="midnightblue" stroke="midnightblue" points="1224.97,-83.4239 1233.89,-77.7137 1223.35,-76.6122 1224.97,-83.4239"/>
</g>
<!-- Node14&#45;&gt;Node12 -->
<g id="edge21" class="edge"><title>Node14&#45;&gt;Node12</title>
<path fill="none" stroke="midnightblue" d="M907.663,-179.444C953.789,-169.235 1030.36,-152.289 1075.82,-142.228"/>
<polygon fill="midnightblue" stroke="midnightblue" points="1076.84,-145.587 1085.85,-140.008 1075.33,-138.752 1076.84,-145.587"/>
</g>
<!-- Node14&#45;&gt;Node13 -->
<g id="edge23" class="edge"><title>Node14&#45;&gt;Node13</title>
<path fill="none" stroke="midnightblue" d="M819.914,-186.437C683.356,-181.854 300.012,-167.325 154.208,-142.709"/>
<polygon fill="midnightblue" stroke="midnightblue" points="154.586,-139.221 144.128,-140.919 153.362,-146.113 154.586,-139.221"/>
</g>
<!-- Node15 -->
<g id="node15" class="node"><title>Node15</title>
<polygon fill="white" stroke="#bfbfbf" points="528.5,-123.5 528.5,-142.5 597.5,-142.5 597.5,-123.5 528.5,-123.5"/>
<text text-anchor="middle" x="563" y="-130.5" font-family="Helvetica,sans-Serif" font-size="10.00">portaudio.h</text>
</g>
<!-- Node14&#45;&gt;Node15 -->
<g id="edge25" class="edge"><title>Node14&#45;&gt;Node15</title>
<path fill="none" stroke="midnightblue" d="M819.662,-180.004C769.096,-171.703 687.93,-158.082 607.835,-143.107"/>
<polygon fill="midnightblue" stroke="midnightblue" points="608.041,-139.584 597.567,-141.178 606.749,-146.464 608.041,-139.584"/>
</g>
<!-- Node16 -->
<g id="node16" class="node"><title>Node16</title>
<polygon fill="white" stroke="#bfbfbf" points="616,-123.5 616,-142.5 798,-142.5 798,-123.5 616,-123.5"/>
<text text-anchor="middle" x="707" y="-130.5" font-family="Helvetica,sans-Serif" font-size="10.00">portaudiocpp/CallbackInterface.hxx</text>
</g>
<!-- Node14&#45;&gt;Node16 -->
<g id="edge26" class="edge"><title>Node14&#45;&gt;Node16</title>
<path fill="none" stroke="midnightblue" d="M843.331,-179.444C816.077,-170.359 772.816,-155.939 742.349,-145.783"/>
<polygon fill="midnightblue" stroke="midnightblue" points="743.143,-142.358 732.549,-142.516 740.929,-148.999 743.143,-142.358"/>
</g>
<!-- Node17 -->
<g id="node17" class="node"><title>Node17</title>
<g id="a_node17"><a xlink:href="audio__source_8hpp.html" target="_top" xlink:title="Declaration of the AudioSource class. ">
<polygon fill="white" stroke="black" points="892,-123.5 892,-142.5 992,-142.5 992,-123.5 892,-123.5"/>
<text text-anchor="middle" x="942" y="-130.5" font-family="Helvetica,sans-Serif" font-size="10.00">audio_source.hpp</text>
</a>
</g>
</g>
<!-- Node14&#45;&gt;Node17 -->
<g id="edge28" class="edge"><title>Node14&#45;&gt;Node17</title>
<path fill="none" stroke="midnightblue" d="M880.729,-179.324C891.837,-171.107 908.742,-158.602 921.983,-148.807"/>
<polygon fill="midnightblue" stroke="midnightblue" points="924.1,-151.595 930.058,-142.834 919.937,-145.967 924.1,-151.595"/>
</g>
<!-- Node17&#45;&gt;Node2 -->
<g id="edge30" class="edge"><title>Node17&#45;&gt;Node2</title>
<path fill="none" stroke="midnightblue" d="M958.725,-123.41C975.948,-114.503 1003.51,-100.076 1027,-87 1064.84,-65.935 1108.14,-40.3085 1133.99,-24.8445"/>
<polygon fill="midnightblue" stroke="midnightblue" points="1135.91,-27.7777 1142.69,-19.6343 1132.31,-21.7737 1135.91,-27.7777"/>
</g>
<!-- Node17&#45;&gt;Node7 -->
<g id="edge31" class="edge"><title>Node17&#45;&gt;Node7</title>
<path fill="none" stroke="midnightblue" d="M932.544,-123.475C922.252,-114.197 905.584,-99.1706 893.006,-87.831"/>
<polygon fill="midnightblue" stroke="midnightblue" points="895.21,-85.1054 885.439,-81.0091 890.522,-90.3046 895.21,-85.1054"/>
</g>
<!-- Node17&#45;&gt;Node8 -->
<g id="edge32" class="edge"><title>Node17&#45;&gt;Node8</title>
<path fill="none" stroke="midnightblue" d="M987.132,-123.475C1051.19,-111.375 1167,-89.4999 1223.79,-78.7736"/>
<polygon fill="midnightblue" stroke="midnightblue" points="1224.5,-82.2007 1233.68,-76.9054 1223.2,-75.3224 1224.5,-82.2007"/>
</g>
<!-- Node17&#45;&gt;Node9 -->
<g id="edge34" class="edge"><title>Node17&#45;&gt;Node9</title>
<path fill="none" stroke="midnightblue" d="M992.114,-125.801C1085.6,-114.237 1285.33,-89.5305 1376.22,-78.2868"/>
<polygon fill="midnightblue" stroke="midnightblue" points="1376.74,-81.7496 1386.23,-77.0483 1375.88,-74.8025 1376.74,-81.7496"/>
</g>
<!-- Node18 -->
<g id="node18" class="node"><title>Node18</title>
<polygon fill="white" stroke="#bfbfbf" points="918.5,-62 918.5,-81 959.5,-81 959.5,-62 918.5,-62"/>
<text text-anchor="middle" x="939" y="-69" font-family="Helvetica,sans-Serif" font-size="10.00">array</text>
</g>
<!-- Node17&#45;&gt;Node18 -->
<g id="edge29" class="edge"><title>Node17&#45;&gt;Node18</title>
<path fill="none" stroke="midnightblue" d="M941.57,-123.475C941.147,-115.08 940.486,-101.981 939.941,-91.1631"/>
<polygon fill="midnightblue" stroke="midnightblue" points="943.428,-90.8201 939.429,-81.0091 936.437,-91.1727 943.428,-90.8201"/>
</g>
<!-- Node19 -->
<g id="node19" class="node"><title>Node19</title>
<polygon fill="white" stroke="#bfbfbf" points="977.5,-62 977.5,-81 1018.5,-81 1018.5,-62 977.5,-62"/>
<text text-anchor="middle" x="998" y="-69" font-family="Helvetica,sans-Serif" font-size="10.00">sox.h</text>
</g>
<!-- Node17&#45;&gt;Node19 -->
<g id="edge33" class="edge"><title>Node17&#45;&gt;Node19</title>
<path fill="none" stroke="midnightblue" d="M950.023,-123.475C958.59,-114.373 972.361,-99.741 982.957,-88.483"/>
<polygon fill="midnightblue" stroke="midnightblue" points="985.686,-90.6899 989.991,-81.0091 980.589,-85.8923 985.686,-90.6899"/>
</g>
<!-- Node20 -->
<g id="node20" class="node"><title>Node20</title>
<g id="a_node20"><a xlink:href="sample__formats_8hpp.html" target="_top" xlink:title="The SampleFormat enumeration. ">
<polygon fill="white" stroke="black" points="166.5,-62 166.5,-81 285.5,-81 285.5,-62 166.5,-62"/>
<text text-anchor="middle" x="226" y="-69" font-family="Helvetica,sans-Serif" font-size="10.00">../sample_formats.hpp</text>
</a>
</g>
</g>
<!-- Node17&#45;&gt;Node20 -->
<g id="edge35" class="edge"><title>Node17&#45;&gt;Node20</title>
<path fill="none" stroke="midnightblue" d="M891.936,-128.618C742.454,-118.506 308.779,-89.0783 294,-87 286.686,-85.9715 278.984,-84.6062 271.496,-83.124"/>
<polygon fill="midnightblue" stroke="midnightblue" points="271.978,-79.6497 261.477,-81.051 270.56,-86.5045 271.978,-79.6497"/>
</g>
<!-- Node20&#45;&gt;Node2 -->
<g id="edge36" class="edge"><title>Node20&#45;&gt;Node2</title>
<path fill="none" stroke="midnightblue" d="M260.759,-61.9835C271.369,-59.6831 283.11,-57.4359 294,-56 614.573,-13.7329 1007.04,-10.7392 1123.14,-10.8492"/>
<polygon fill="midnightblue" stroke="midnightblue" points="1123.19,-14.3492 1133.19,-10.8675 1123.2,-7.3492 1123.19,-14.3492"/>
</g>
<!-- Node21&#45;&gt;Node2 -->
<g id="edge39" class="edge"><title>Node21&#45;&gt;Node2</title>
<path fill="none" stroke="midnightblue" d="M1285.85,-179.26C1295.21,-156.49 1316.51,-94.445 1289,-56 1266.78,-24.9542 1221.86,-15.0808 1190.63,-12.0762"/>
<polygon fill="midnightblue" stroke="midnightblue" points="1190.85,-8.58336 1180.61,-11.2999 1190.31,-15.5624 1190.85,-8.58336"/>
</g>
<!-- Node21&#45;&gt;Node4 -->
<g id="edge42" class="edge"><title>Node21&#45;&gt;Node4</title>
<path fill="none" stroke="midnightblue" d="M1301.49,-179.444C1321.64,-170.596 1353.32,-156.687 1376.33,-146.586"/>
<polygon fill="midnightblue" stroke="midnightblue" points="1377.85,-149.741 1385.6,-142.516 1375.04,-143.332 1377.85,-149.741"/>
</g>
<!-- Node21&#45;&gt;Node7 -->
<g id="edge40" class="edge"><title>Node21&#45;&gt;Node7</title>
<path fill="none" stroke="midnightblue" d="M1268.22,-179.492C1244.7,-165.382 1194.89,-137.282 1149,-123 1046.01,-90.9462 1012.62,-116.957 909,-87 906.851,-86.3786 904.658,-85.648 902.477,-84.8509"/>
<polygon fill="midnightblue" stroke="midnightblue" points="903.73,-81.5822 893.148,-81.0617 901.095,-88.0676 903.73,-81.5822"/>
</g>
<!-- Node21&#45;&gt;Node8 -->
<g id="edge41" class="edge"><title>Node21&#45;&gt;Node8</title>
<path fill="none" stroke="midnightblue" d="M1280.12,-179.319C1276.09,-160.673 1266.51,-116.443 1261.03,-91.1317"/>
<polygon fill="midnightblue" stroke="midnightblue" points="1264.44,-90.3152 1258.9,-81.282 1257.6,-91.7961 1264.44,-90.3152"/>
</g>
<!-- Node22&#45;&gt;Node4 -->
<g id="edge66" class="edge"><title>Node22&#45;&gt;Node4</title>
<path fill="none" stroke="midnightblue" d="M1157.19,-291.606C1211.21,-279.261 1304.12,-251.737 1366,-199 1380.83,-186.361 1391.55,-166.599 1397.96,-152.181"/>
<polygon fill="midnightblue" stroke="midnightblue" points="1401.25,-153.383 1401.85,-142.805 1394.78,-150.696 1401.25,-153.383"/>
</g>
<!-- Node22&#45;&gt;Node12 -->
<g id="edge44" class="edge"><title>Node22&#45;&gt;Node12</title>
<path fill="none" stroke="midnightblue" d="M1113.95,-291.075C1113.79,-264.945 1113.33,-188.211 1113.11,-152.577"/>
<polygon fill="midnightblue" stroke="midnightblue" points="1116.61,-152.547 1113.05,-142.568 1109.61,-152.589 1116.61,-152.547"/>
</g>
<!-- Node22&#45;&gt;Node14 -->
<g id="edge65" class="edge"><title>Node22&#45;&gt;Node14</title>
<path fill="none" stroke="midnightblue" d="M1073.6,-291.466C1042.67,-284.092 999.448,-271.938 964,-255 935.333,-241.302 905.632,-219.549 887.239,-205.028"/>
<polygon fill="midnightblue" stroke="midnightblue" points="889.159,-202.082 879.171,-198.548 884.776,-207.539 889.159,-202.082"/>
</g>
<!-- Node23 -->
<g id="node23" class="node"><title>Node23</title>
<g id="a_node23"><a xlink:href="audio__system_8hpp.html" target="_top" xlink:title="Declaration of the AudioSystem class. ">
<polygon fill="white" stroke="black" points="369.5,-235.5 369.5,-254.5 506.5,-254.5 506.5,-235.5 369.5,-235.5"/>
<text text-anchor="middle" x="438" y="-242.5" font-family="Helvetica,sans-Serif" font-size="10.00">../audio/audio_system.hpp</text>
</a>
</g>
</g>
<!-- Node22&#45;&gt;Node23 -->
<g id="edge45" class="edge"><title>Node22&#45;&gt;Node23</title>
<path fill="none" stroke="midnightblue" d="M1070.94,-296.561C959.471,-287.656 660.168,-263.747 516.742,-252.29"/>
<polygon fill="midnightblue" stroke="midnightblue" points="516.936,-248.794 506.689,-251.487 516.379,-255.772 516.936,-248.794"/>
</g>
<!-- Node22&#45;&gt;Node29 -->
<g id="edge67" class="edge"><title>Node22&#45;&gt;Node29</title>
<path fill="none" stroke="midnightblue" d="M1100.18,-291.324C1086.77,-282.9 1066.18,-269.971 1050.41,-260.074"/>
<polygon fill="midnightblue" stroke="midnightblue" points="1052.11,-257.008 1041.78,-254.655 1048.39,-262.936 1052.11,-257.008"/>
</g>
<!-- Node23&#45;&gt;Node7 -->
<g id="edge46" class="edge"><title>Node23&#45;&gt;Node7</title>
<path fill="none" stroke="midnightblue" d="M439.364,-235.135C441.621,-222.183 446.919,-197.607 457,-179 472.615,-150.178 476.212,-138.679 505,-123 563.338,-91.2262 765.006,-77.9982 843.953,-73.9558"/>
<polygon fill="midnightblue" stroke="midnightblue" points="844.436,-77.4363 854.251,-73.4454 844.09,-70.4449 844.436,-77.4363"/>
</g>
<!-- Node23&#45;&gt;Node13 -->
<g id="edge47" class="edge"><title>Node23&#45;&gt;Node13</title>
<path fill="none" stroke="midnightblue" d="M369.432,-240.439C320.232,-235.688 253.462,-224.641 200,-199 175.432,-187.217 152.424,-165.453 138.297,-150.373"/>
<polygon fill="midnightblue" stroke="midnightblue" points="140.723,-147.839 131.408,-142.79 135.541,-152.545 140.723,-147.839"/>
</g>
<!-- Node23&#45;&gt;Node14 -->
<g id="edge64" class="edge"><title>Node23&#45;&gt;Node14</title>
<path fill="none" stroke="midnightblue" d="M506.293,-235.444C589.89,-224.97 730.098,-207.403 809.481,-197.457"/>
<polygon fill="midnightblue" stroke="midnightblue" points="810.308,-200.881 819.795,-196.165 809.437,-193.935 810.308,-200.881"/>
</g>
<!-- Node23&#45;&gt;Node17 -->
<g id="edge63" class="edge"><title>Node23&#45;&gt;Node17</title>
<path fill="none" stroke="midnightblue" d="M477.129,-235.46C568.024,-215.622 793.275,-166.46 893.069,-144.679"/>
<polygon fill="midnightblue" stroke="midnightblue" points="893.873,-148.086 902.896,-142.535 892.38,-141.247 893.873,-148.086"/>
</g>
<!-- Node23&#45;&gt;Node20 -->
<g id="edge50" class="edge"><title>Node23&#45;&gt;Node20</title>
<path fill="none" stroke="midnightblue" d="M369.377,-241.909C312.946,-238.04 231.984,-227.46 167,-199 129.866,-182.737 112.811,-179.417 95,-143 79.4134,-111.131 118.268,-93.1646 157.628,-83.3566"/>
<polygon fill="midnightblue" stroke="midnightblue" points="158.666,-86.7088 167.613,-81.0353 157.081,-79.8906 158.666,-86.7088"/>
</g>
<!-- Node24 -->
<g id="node24" class="node"><title>Node24</title>
<polygon fill="white" stroke="#bfbfbf" points="218.5,-179.5 218.5,-198.5 409.5,-198.5 409.5,-179.5 218.5,-179.5"/>
<text text-anchor="middle" x="314" y="-186.5" font-family="Helvetica,sans-Serif" font-size="10.00">portaudiocpp/SampleDataFormat.hxx</text>
</g>
<!-- Node23&#45;&gt;Node24 -->
<g id="edge48" class="edge"><title>Node23&#45;&gt;Node24</title>
<path fill="none" stroke="midnightblue" d="M418.352,-235.444C398.035,-226.596 366.097,-212.687 342.902,-202.586"/>
<polygon fill="midnightblue" stroke="midnightblue" points="344.122,-199.3 333.556,-198.516 341.327,-205.718 344.122,-199.3"/>
</g>
<!-- Node25 -->
<g id="node25" class="node"><title>Node25</title>
<polygon fill="white" stroke="#bfbfbf" points="162,-123.5 162,-142.5 296,-142.5 296,-123.5 162,-123.5"/>
<text text-anchor="middle" x="229" y="-130.5" font-family="Helvetica,sans-Serif" font-size="10.00">portaudiocpp/Stream.hxx</text>
</g>
<!-- Node23&#45;&gt;Node25 -->
<g id="edge49" class="edge"><title>Node23&#45;&gt;Node25</title>
<path fill="none" stroke="midnightblue" d="M369.373,-239.913C309.463,-234.741 229.045,-223.367 209,-199 197.679,-185.237 206.66,-165.108 215.939,-150.903"/>
<polygon fill="midnightblue" stroke="midnightblue" points="218.933,-152.731 221.869,-142.551 213.226,-148.679 218.933,-152.731"/>
</g>
<!-- Node26 -->
<g id="node26" class="node"><title>Node26</title>
<g id="a_node26"><a xlink:href="audio__sink_8hpp.html" target="_top" xlink:title="Declaration of the AudioSink class. ">
<polygon fill="white" stroke="black" points="466.5,-179.5 466.5,-198.5 553.5,-198.5 553.5,-179.5 466.5,-179.5"/>
<text text-anchor="middle" x="510" y="-186.5" font-family="Helvetica,sans-Serif" font-size="10.00">audio_sink.hpp</text>
</a>
</g>
</g>
<!-- Node23&#45;&gt;Node26 -->
<g id="edge51" class="edge"><title>Node23&#45;&gt;Node26</title>
<path fill="none" stroke="midnightblue" d="M449.568,-235.324C460.42,-227.185 476.881,-214.839 489.883,-205.087"/>
<polygon fill="midnightblue" stroke="midnightblue" points="492.321,-207.634 498.221,-198.834 488.121,-202.034 492.321,-207.634"/>
</g>
<!-- Node26&#45;&gt;Node2 -->
<g id="edge52" class="edge"><title>Node26&#45;&gt;Node2</title>
<path fill="none" stroke="midnightblue" d="M505.915,-179.299C500.186,-165.662 491.85,-139.148 505,-123 583.936,-26.0702 1000.05,-13.0021 1122.85,-11.2617"/>
<polygon fill="midnightblue" stroke="midnightblue" points="1123.2,-14.7578 1133.15,-11.1331 1123.11,-7.75833 1123.2,-14.7578"/>
</g>
<!-- Node26&#45;&gt;Node7 -->
<g id="edge54" class="edge"><title>Node26&#45;&gt;Node7</title>
<path fill="none" stroke="midnightblue" d="M508.295,-179.444C506.067,-165.519 504.039,-138.005 519,-123 564.167,-77.7006 764.771,-72.5443 843.825,-72.3065"/>
<polygon fill="midnightblue" stroke="midnightblue" points="844.146,-75.8064 854.144,-72.3019 844.143,-68.8064 844.146,-75.8064"/>
</g>
<!-- Node26&#45;&gt;Node8 -->
<g id="edge56" class="edge"><title>Node26&#45;&gt;Node8</title>
<path fill="none" stroke="midnightblue" d="M553.81,-186.507C658.089,-182.549 918.475,-170.177 1001,-143 1017.29,-137.636 1018.1,-129.421 1034,-123 1098.57,-96.9246 1179.37,-82.8716 1223.83,-76.609"/>
<polygon fill="midnightblue" stroke="midnightblue" points="1224.36,-80.0693 1233.79,-75.2508 1223.41,-73.1334 1224.36,-80.0693"/>
</g>
<!-- Node26&#45;&gt;Node12 -->
<g id="edge53" class="edge"><title>Node26&#45;&gt;Node12</title>
<path fill="none" stroke="midnightblue" d="M553.514,-184.674C643.368,-177.716 855.924,-160.786 1034,-143 1047.66,-141.636 1062.62,-139.974 1075.82,-138.451"/>
<polygon fill="midnightblue" stroke="midnightblue" points="1076.44,-141.903 1085.96,-137.268 1075.63,-134.95 1076.44,-141.903"/>
</g>
<!-- Node26&#45;&gt;Node13 -->
<g id="edge55" class="edge"><title>Node26&#45;&gt;Node13</title>
<path fill="none" stroke="midnightblue" d="M466.484,-183.482C388.733,-175.258 227.936,-157.52 154.363,-142.888"/>
<polygon fill="midnightblue" stroke="midnightblue" points="154.666,-139.375 144.161,-140.753 153.232,-146.227 154.666,-139.375"/>
</g>
<!-- Node26&#45;&gt;Node15 -->
<g id="edge57" class="edge"><title>Node26&#45;&gt;Node15</title>
<path fill="none" stroke="midnightblue" d="M518.752,-179.083C526.47,-171.22 537.905,-159.569 547.217,-150.081"/>
<polygon fill="midnightblue" stroke="midnightblue" points="549.904,-152.34 554.411,-142.751 544.908,-147.436 549.904,-152.34"/>
</g>
<!-- Node26&#45;&gt;Node16 -->
<g id="edge58" class="edge"><title>Node26&#45;&gt;Node16</title>
<path fill="none" stroke="midnightblue" d="M541.215,-179.444C574.933,-170.201 628.8,-155.436 665.932,-145.257"/>
<polygon fill="midnightblue" stroke="midnightblue" points="667.212,-148.536 675.931,-142.516 665.361,-141.785 667.212,-148.536"/>
</g>
<!-- Node26&#45;&gt;Node17 -->
<g id="edge60" class="edge"><title>Node26&#45;&gt;Node17</title>
<path fill="none" stroke="midnightblue" d="M553.8,-182.525C631.485,-172.814 793.501,-152.562 881.677,-141.54"/>
<polygon fill="midnightblue" stroke="midnightblue" points="882.305,-144.989 891.793,-140.276 881.436,-138.043 882.305,-144.989"/>
</g>
<!-- Node26&#45;&gt;Node25 -->
<g id="edge59" class="edge"><title>Node26&#45;&gt;Node25</title>
<path fill="none" stroke="midnightblue" d="M466.402,-179.622C417.163,-170.159 336.964,-154.748 283.598,-144.492"/>
<polygon fill="midnightblue" stroke="midnightblue" points="284.11,-141.027 273.63,-142.577 282.789,-147.901 284.11,-141.027"/>
</g>
<!-- Node27 -->
<g id="node27" class="node"><title>Node27</title>
<g id="a_node27"><a xlink:href="ringbuffer_8hpp.html" target="_top" xlink:title="The RingBuffer class template. ">
<polygon fill="white" stroke="black" points="314.5,-123.5 314.5,-142.5 395.5,-142.5 395.5,-123.5 314.5,-123.5"/>
<text text-anchor="middle" x="355" y="-130.5" font-family="Helvetica,sans-Serif" font-size="10.00">ringbuffer.hpp</text>
</a>
</g>
</g>
<!-- Node26&#45;&gt;Node27 -->
<g id="edge61" class="edge"><title>Node26&#45;&gt;Node27</title>
<path fill="none" stroke="midnightblue" d="M485.44,-179.444C459.477,-170.399 418.332,-156.064 389.203,-145.916"/>
<polygon fill="midnightblue" stroke="midnightblue" points="390.04,-142.501 379.445,-142.516 387.737,-149.112 390.04,-142.501"/>
</g>
<!-- Node28 -->
<g id="node28" class="node"><title>Node28</title>
<polygon fill="white" stroke="#bfbfbf" points="303.5,-56.5 303.5,-86.5 424.5,-86.5 424.5,-56.5 303.5,-56.5"/>
<text text-anchor="start" x="311.5" y="-74.5" font-family="Helvetica,sans-Serif" font-size="10.00">../contrib/pa_ringbuffer</text>
<text text-anchor="middle" x="364" y="-63.5" font-family="Helvetica,sans-Serif" font-size="10.00">/pa_ringbuffer.h</text>
</g>
<!-- Node27&#45;&gt;Node28 -->
<g id="edge62" class="edge"><title>Node27&#45;&gt;Node28</title>
<path fill="none" stroke="midnightblue" d="M356.289,-123.475C357.349,-116.471 358.904,-106.192 360.34,-96.6956"/>
<polygon fill="midnightblue" stroke="midnightblue" points="363.844,-96.934 361.879,-86.523 356.923,-95.887 363.844,-96.934"/>
</g>
<!-- Node29&#45;&gt;Node2 -->
<g id="edge68" class="edge"><title>Node29&#45;&gt;Node2</title>
<path fill="none" stroke="midnightblue" d="M1027.66,-235.211C1027.62,-221.454 1029.57,-194.778 1044,-179 1077.3,-142.6 1119.12,-182.258 1149,-143 1174.3,-109.761 1167.68,-57.098 1161.73,-29.4074"/>
<polygon fill="midnightblue" stroke="midnightblue" points="1165.1,-28.4307 1159.4,-19.5001 1158.28,-30.0363 1165.1,-28.4307"/>
</g>
<!-- Node29&#45;&gt;Node4 -->
<g id="edge71" class="edge"><title>Node29&#45;&gt;Node4</title>
<path fill="none" stroke="midnightblue" d="M1082.78,-237.905C1165.64,-228.409 1315.58,-210.028 1338,-199 1360.61,-187.876 1380.47,-166.287 1392.58,-151.049"/>
<polygon fill="midnightblue" stroke="midnightblue" points="1395.49,-153.008 1398.78,-142.937 1389.93,-148.759 1395.49,-153.008"/>
</g>
<!-- Node29&#45;&gt;Node17 -->
<g id="edge70" class="edge"><title>Node29&#45;&gt;Node17</title>
<path fill="none" stroke="midnightblue" d="M1021.25,-235.368C1007,-217.135 973.606,-174.426 955.037,-150.675"/>
<polygon fill="midnightblue" stroke="midnightblue" points="957.634,-148.314 948.717,-142.591 952.119,-152.625 957.634,-148.314"/>
</g>
<!-- Node30 -->
<g id="node30" class="node"><title>Node30</title>
<polygon fill="white" stroke="#bfbfbf" points="1053.5,-179.5 1053.5,-198.5 1084.5,-198.5 1084.5,-179.5 1053.5,-179.5"/>
<text text-anchor="middle" x="1069" y="-186.5" font-family="Helvetica,sans-Serif" font-size="10.00">set</text>
</g>
<!-- Node29&#45;&gt;Node30 -->
<g id="edge69" class="edge"><title>Node29&#45;&gt;Node30</title>
<path fill="none" stroke="midnightblue" d="M1034.77,-235.083C1040.56,-227.455 1049.06,-216.264 1056.14,-206.941"/>
<polygon fill="midnightblue" stroke="midnightblue" points="1059.1,-208.832 1062.36,-198.751 1053.52,-204.599 1059.1,-208.832"/>
</g>
<!-- Node31&#45;&gt;Node2 -->
<g id="edge74" class="edge"><title>Node31&#45;&gt;Node2</title>
<path fill="none" stroke="midnightblue" d="M1552.62,-179.339C1557.06,-170.493 1563.45,-156.22 1566,-143 1573.61,-103.494 1572.65,-80.8302 1541,-56 1513.66,-34.5529 1279.28,-18.3581 1190.71,-12.9521"/>
<polygon fill="midnightblue" stroke="midnightblue" points="1190.85,-9.45408 1180.66,-12.3466 1190.43,-16.4414 1190.85,-9.45408"/>
</g>
<!-- Node31&#45;&gt;Node4 -->
<g id="edge76" class="edge"><title>Node31&#45;&gt;Node4</title>
<path fill="none" stroke="midnightblue" d="M1525.34,-179.444C1501.6,-170.478 1464.09,-156.314 1437.26,-146.183"/>
<polygon fill="midnightblue" stroke="midnightblue" points="1438.14,-142.775 1427.55,-142.516 1435.67,-149.324 1438.14,-142.775"/>
</g>
<!-- Node32 -->
<g id="node32" class="node"><title>Node32</title>
<polygon fill="white" stroke="#bfbfbf" points="1480.5,-123.5 1480.5,-142.5 1557.5,-142.5 1557.5,-123.5 1480.5,-123.5"/>
<text text-anchor="middle" x="1519" y="-130.5" font-family="Helvetica,sans-Serif" font-size="10.00">initializer_list</text>
</g>
<!-- Node31&#45;&gt;Node32 -->
<g id="edge75" class="edge"><title>Node31&#45;&gt;Node32</title>
<path fill="none" stroke="midnightblue" d="M1543.21,-179.083C1539.24,-171.691 1533.47,-160.953 1528.57,-151.811"/>
<polygon fill="midnightblue" stroke="midnightblue" points="1531.51,-149.905 1523.7,-142.751 1525.35,-153.217 1531.51,-149.905"/>
</g>
</g>
</svg>
