<?xml version="1.0" encoding="UTF-8" standalone="no"?>
<!DOCTYPE svg PUBLIC "-//W3C//DTD SVG 1.1//EN"
 "http://www.w3.org/Graphics/SVG/1.1/DTD/svg11.dtd">
<!-- Generated by graphviz version 2.38.0 (20140413.2041)
 -->
<!-- Title: src/player/player_position.hpp Pages: 1 -->
<svg width="691pt" height="420pt"
 viewBox="0.00 0.00 691.46 420.00" xmlns="http://www.w3.org/2000/svg" xmlns:xlink="http://www.w3.org/1999/xlink">
<g id="graph0" class="graph" transform="scale(1 1) rotate(0) translate(4 416)">
<title>src/player/player_position.hpp</title>
<polygon fill="white" stroke="none" points="-4,4 -4,-416 687.462,-416 687.462,4 -4,4"/>
<!-- Node1 -->
<g id="node1" class="node"><title>Node1</title>
<polygon fill="#bfbfbf" stroke="black" points="430.962,-392.5 430.962,-411.5 589.962,-411.5 589.962,-392.5 430.962,-392.5"/>
<text text-anchor="middle" x="510.462" y="-399.5" font-family="Helvetica,sans-Serif" font-size="10.00">src/player/player_position.hpp</text>
</g>
<!-- Node2 -->
<g id="node2" class="node"><title>Node2</title>
<g id="a_node2"><a xlink:href="player__file_8hpp.html" target="_top" xlink:title="Declaration of the PlayerFile class, and associated types. ">
<polygon fill="white" stroke="black" points="394.962,-336.5 394.962,-355.5 529.962,-355.5 529.962,-336.5 394.962,-336.5"/>
<text text-anchor="middle" x="462.462" y="-343.5" font-family="Helvetica,sans-Serif" font-size="10.00">src/player/player_file.hpp</text>
</a>
</g>
</g>
<!-- Node1&#45;&gt;Node2 -->
<g id="edge1" class="edge"><title>Node1&#45;&gt;Node2</title>
<path fill="none" stroke="midnightblue" d="M495.734,-384.431C487.322,-374.967 477.113,-363.483 470.241,-355.751"/>
<polygon fill="midnightblue" stroke="midnightblue" points="493.276,-386.934 502.536,-392.083 498.508,-382.284 493.276,-386.934"/>
</g>
<!-- Node3 -->
<g id="node3" class="node"><title>Node3</title>
<g id="a_node3"><a xlink:href="player_8hpp.html" target="_top" xlink:title="Declaration of the Player class, and associated types. ">
<polygon fill="white" stroke="black" points="308.462,-280.5 308.462,-299.5 424.462,-299.5 424.462,-280.5 308.462,-280.5"/>
<text text-anchor="middle" x="366.462" y="-287.5" font-family="Helvetica,sans-Serif" font-size="10.00">src/player/player.hpp</text>
</a>
</g>
</g>
<!-- Node1&#45;&gt;Node3 -->
<g id="edge26" class="edge"><title>Node1&#45;&gt;Node3</title>
<path fill="none" stroke="midnightblue" d="M444.366,-389.636C423.088,-383.009 401.016,-372.536 385.462,-356 370.64,-340.243 367.309,-313.557 366.608,-299.793"/>
<polygon fill="midnightblue" stroke="midnightblue" points="443.482,-393.024 454.06,-392.418 445.413,-386.295 443.482,-393.024"/>
</g>
<!-- Node13 -->
<g id="node13" class="node"><title>Node13</title>
<g id="a_node13"><a xlink:href="player__position_8cpp.html" target="_top" xlink:title="Implementation of the PlayerPosition class, and related Player methods. ">
<polygon fill="white" stroke="black" points="525.462,-224.5 525.462,-243.5 683.462,-243.5 683.462,-224.5 525.462,-224.5"/>
<text text-anchor="middle" x="604.462" y="-231.5" font-family="Helvetica,sans-Serif" font-size="10.00">src/player/player_position.cpp</text>
</a>
</g>
</g>
<!-- Node1&#45;&gt;Node13 -->
<g id="edge28" class="edge"><title>Node1&#45;&gt;Node13</title>
<path fill="none" stroke="midnightblue" d="M527.466,-385.139C535.82,-376.884 545.726,-366.371 553.462,-356 570.602,-333.023 574.252,-326.383 585.462,-300 593.737,-280.523 599.769,-256.3 602.621,-243.635"/>
<polygon fill="midnightblue" stroke="midnightblue" points="524.826,-382.822 520.054,-392.282 529.683,-387.863 524.826,-382.822"/>
</g>
<!-- Node15 -->
<g id="node15" class="node"><title>Node15</title>
<g id="a_node15"><a xlink:href="player__file_8cpp.html" target="_top" xlink:title="Implementation of the PlayerFile class, and associated types. ">
<polygon fill="white" stroke="black" points="442.462,-280.5 442.462,-299.5 576.462,-299.5 576.462,-280.5 442.462,-280.5"/>
<text text-anchor="middle" x="509.462" y="-287.5" font-family="Helvetica,sans-Serif" font-size="10.00">src/player/player_file.cpp</text>
</a>
</g>
</g>
<!-- Node1&#45;&gt;Node15 -->
<g id="edge27" class="edge"><title>Node1&#45;&gt;Node15</title>
<path fill="none" stroke="midnightblue" d="M524.599,-384.476C533.891,-371.579 543.479,-353.047 538.462,-336 534.316,-321.912 524.241,-308.073 517.135,-299.541"/>
<polygon fill="midnightblue" stroke="midnightblue" points="521.793,-382.382 518.396,-392.418 527.31,-386.691 521.793,-382.382"/>
</g>
<!-- Node2&#45;&gt;Node3 -->
<g id="edge2" class="edge"><title>Node2&#45;&gt;Node3</title>
<path fill="none" stroke="midnightblue" d="M437.888,-331.177C420.223,-321.241 396.949,-308.149 381.848,-299.655"/>
<polygon fill="midnightblue" stroke="midnightblue" points="436.606,-334.472 447.038,-336.324 440.038,-328.371 436.606,-334.472"/>
</g>
<!-- Node2&#45;&gt;Node15 -->
<g id="edge25" class="edge"><title>Node2&#45;&gt;Node15</title>
<path fill="none" stroke="midnightblue" d="M476.883,-328.431C485.12,-318.967 495.116,-307.483 501.845,-299.751"/>
<polygon fill="midnightblue" stroke="midnightblue" points="474.148,-326.242 470.223,-336.083 479.428,-330.838 474.148,-326.242"/>
</g>
<!-- Node4 -->
<g id="node4" class="node"><title>Node4</title>
<g id="a_node4"><a xlink:href="cmd_8hpp.html" target="_top" xlink:title="Declaration of the CommandHandler class. ">
<polygon fill="white" stroke="black" points="333.462,-224.5 333.462,-243.5 409.462,-243.5 409.462,-224.5 333.462,-224.5"/>
<text text-anchor="middle" x="371.462" y="-231.5" font-family="Helvetica,sans-Serif" font-size="10.00">src/cmd.hpp</text>
</a>
</g>
</g>
<!-- Node3&#45;&gt;Node4 -->
<g id="edge3" class="edge"><title>Node3&#45;&gt;Node4</title>
<path fill="none" stroke="midnightblue" d="M368.212,-270.101C369.042,-261.136 369.994,-250.858 370.652,-243.751"/>
<polygon fill="midnightblue" stroke="midnightblue" points="364.725,-269.803 367.288,-280.083 371.695,-270.448 364.725,-269.803"/>
</g>
<!-- Node6 -->
<g id="node6" class="node"><title>Node6</title>
<g id="a_node6"><a xlink:href="io__core_8cpp.html" target="_top" xlink:title="Implementation of the non&#45;virtual aspects of the IoCore class. ">
<polygon fill="white" stroke="black" points="369.462,-56.5 369.462,-75.5 469.462,-75.5 469.462,-56.5 369.462,-56.5"/>
<text text-anchor="middle" x="419.462" y="-63.5" font-family="Helvetica,sans-Serif" font-size="10.00">src/io/io_core.cpp</text>
</a>
</g>
</g>
<!-- Node3&#45;&gt;Node6 -->
<g id="edge18" class="edge"><title>Node3&#45;&gt;Node6</title>
<path fill="none" stroke="midnightblue" d="M390.222,-274.69C400.77,-266.996 412.196,-256.509 418.462,-244 447.639,-185.752 429.177,-102.592 421.969,-75.7268"/>
<polygon fill="midnightblue" stroke="midnightblue" points="388.004,-271.965 381.7,-280.479 391.938,-277.755 388.004,-271.965"/>
</g>
<!-- Node7 -->
<g id="node7" class="node"><title>Node7</title>
<g id="a_node7"><a xlink:href="io__core_8hpp.html" target="_top" xlink:title="Declaration of the IoCore class. ">
<polygon fill="white" stroke="black" points="78.9619,-112.5 78.9619,-131.5 179.962,-131.5 179.962,-112.5 78.9619,-112.5"/>
<text text-anchor="middle" x="129.462" y="-119.5" font-family="Helvetica,sans-Serif" font-size="10.00">src/io/io_core.hpp</text>
</a>
</g>
</g>
<!-- Node3&#45;&gt;Node7 -->
<g id="edge19" class="edge"><title>Node3&#45;&gt;Node7</title>
<path fill="none" stroke="midnightblue" d="M298.18,-284.725C204.076,-278.128 44.0687,-264.091 26.4619,-244 -10.0847,-202.298 74.2547,-151.488 112.181,-131.581"/>
<polygon fill="midnightblue" stroke="midnightblue" points="297.976,-288.22 308.194,-285.417 298.459,-281.236 297.976,-288.22"/>
</g>
<!-- Node8 -->
<g id="node8" class="node"><title>Node8</title>
<g id="a_node8"><a xlink:href="main_8cpp.html" target="_top" xlink:title="Main entry point and implementation of the playd class. ">
<polygon fill="white" stroke="black" points="215.462,-0.5 215.462,-19.5 293.462,-19.5 293.462,-0.5 215.462,-0.5"/>
<text text-anchor="middle" x="254.462" y="-7.5" font-family="Helvetica,sans-Serif" font-size="10.00">src/main.cpp</text>
</a>
</g>
</g>
<!-- Node3&#45;&gt;Node8 -->
<g id="edge20" class="edge"><title>Node3&#45;&gt;Node8</title>
<path fill="none" stroke="midnightblue" d="M402.091,-276.697C440.882,-260.765 497.462,-228.964 497.462,-179 497.462,-179 497.462,-179 497.462,-121 497.462,-90.9022 500.641,-76.3464 478.462,-56 451.936,-31.6659 350.427,-19.2171 293.593,-14.0324"/>
<polygon fill="midnightblue" stroke="midnightblue" points="400.682,-273.49 392.657,-280.407 403.244,-280.005 400.682,-273.49"/>
</g>
<!-- Node9 -->
<g id="node9" class="node"><title>Node9</title>
<g id="a_node9"><a xlink:href="main_8hpp.html" target="_top" xlink:title="Declaration of the playd class. ">
<polygon fill="white" stroke="black" points="51.9619,-56.5 51.9619,-75.5 130.962,-75.5 130.962,-56.5 51.9619,-56.5"/>
<text text-anchor="middle" x="91.4619" y="-63.5" font-family="Helvetica,sans-Serif" font-size="10.00">src/main.hpp</text>
</a>
</g>
</g>
<!-- Node3&#45;&gt;Node9 -->
<g id="edge21" class="edge"><title>Node3&#45;&gt;Node9</title>
<path fill="none" stroke="midnightblue" d="M298.417,-285.074C201.387,-278.77 32.8916,-264.936 14.4619,-244 -32.7016,-190.423 51.9232,-103.469 81.6824,-75.769"/>
<polygon fill="midnightblue" stroke="midnightblue" points="298.237,-288.569 308.44,-285.715 298.684,-281.583 298.237,-288.569"/>
</g>
<!-- Node12 -->
<g id="node12" class="node"><title>Node12</title>
<g id="a_node12"><a xlink:href="player_8cpp.html" target="_top" xlink:title="Main implementation file for the Player class. ">
<polygon fill="white" stroke="black" points="35.9619,-224.5 35.9619,-243.5 150.962,-243.5 150.962,-224.5 35.9619,-224.5"/>
<text text-anchor="middle" x="93.4619" y="-231.5" font-family="Helvetica,sans-Serif" font-size="10.00">src/player/player.cpp</text>
</a>
</g>
</g>
<!-- Node3&#45;&gt;Node12 -->
<g id="edge22" class="edge"><title>Node3&#45;&gt;Node12</title>
<path fill="none" stroke="midnightblue" d="M313.244,-278.473C261.649,-268.268 184.358,-252.979 136.517,-243.516"/>
<polygon fill="midnightblue" stroke="midnightblue" points="312.715,-281.937 323.204,-280.444 314.073,-275.07 312.715,-281.937"/>
</g>
<!-- Node3&#45;&gt;Node13 -->
<g id="edge23" class="edge"><title>Node3&#45;&gt;Node13</title>
<path fill="none" stroke="midnightblue" d="M413.986,-278.217C458.958,-268.013 525.567,-252.901 566.927,-243.516"/>
<polygon fill="midnightblue" stroke="midnightblue" points="413.151,-274.818 404.174,-280.444 414.7,-281.644 413.151,-274.818"/>
</g>
<!-- Node14 -->
<g id="node14" class="node"><title>Node14</title>
<g id="a_node14"><a xlink:href="player__state_8cpp.html" target="_top" xlink:title="Implementation of the PlayerState class, and related Player methods. ">
<polygon fill="white" stroke="black" points="169.462,-224.5 169.462,-243.5 315.462,-243.5 315.462,-224.5 169.462,-224.5"/>
<text text-anchor="middle" x="242.462" y="-231.5" font-family="Helvetica,sans-Serif" font-size="10.00">src/player/player_state.cpp</text>
</a>
</g>
</g>
<!-- Node3&#45;&gt;Node14 -->
<g id="edge24" class="edge"><title>Node3&#45;&gt;Node14</title>
<path fill="none" stroke="midnightblue" d="M337.455,-276.368C314.233,-266.255 282.299,-252.349 262.018,-243.516"/>
<polygon fill="midnightblue" stroke="midnightblue" points="336.248,-279.66 346.814,-280.444 339.043,-273.242 336.248,-279.66"/>
</g>
<!-- Node5 -->
<g id="node5" class="node"><title>Node5</title>
<g id="a_node5"><a xlink:href="cmd_8cpp.html" target="_top" xlink:title="Implementation of the CommandHandler class. ">
<polygon fill="white" stroke="black" points="111.962,-168.5 111.962,-187.5 186.962,-187.5 186.962,-168.5 111.962,-168.5"/>
<text text-anchor="middle" x="149.462" y="-175.5" font-family="Helvetica,sans-Serif" font-size="10.00">src/cmd.cpp</text>
</a>
</g>
</g>
<!-- Node4&#45;&gt;Node5 -->
<g id="edge4" class="edge"><title>Node4&#45;&gt;Node5</title>
<path fill="none" stroke="midnightblue" d="M326.337,-222.024C284.402,-211.823 222.81,-196.841 184.474,-187.516"/>
<polygon fill="midnightblue" stroke="midnightblue" points="325.741,-225.481 336.285,-224.444 327.396,-218.679 325.741,-225.481"/>
</g>
<!-- Node4&#45;&gt;Node6 -->
<g id="edge5" class="edge"><title>Node4&#45;&gt;Node6</title>
<path fill="none" stroke="midnightblue" d="M382.321,-215.544C386.96,-207.426 392.076,-197.485 395.462,-188 409.934,-147.459 416.476,-95.9872 418.619,-75.7416"/>
<polygon fill="midnightblue" stroke="midnightblue" points="379.162,-214.009 377.046,-224.39 385.174,-217.594 379.162,-214.009"/>
</g>
<!-- Node4&#45;&gt;Node7 -->
<g id="edge6" class="edge"><title>Node4&#45;&gt;Node7</title>
<path fill="none" stroke="midnightblue" d="M323.034,-224.08C260.214,-216.331 133.079,-223.982 102.462,-188 88.0496,-171.062 107.776,-145.355 120.385,-131.908"/>
<polygon fill="midnightblue" stroke="midnightblue" points="322.855,-227.591 333.259,-225.59 323.878,-220.666 322.855,-227.591"/>
</g>
<!-- Node4&#45;&gt;Node8 -->
<g id="edge16" class="edge"><title>Node4&#45;&gt;Node8</title>
<path fill="none" stroke="midnightblue" d="M369.543,-214.169C366.432,-189.524 358.791,-145.528 341.462,-112 321.165,-72.7319 282.726,-35.8369 264.515,-19.6327"/>
<polygon fill="midnightblue" stroke="midnightblue" points="366.088,-214.766 370.7,-224.304 373.043,-213.971 366.088,-214.766"/>
</g>
<!-- Node4&#45;&gt;Node9 -->
<g id="edge17" class="edge"><title>Node4&#45;&gt;Node9</title>
<path fill="none" stroke="midnightblue" d="M323.341,-223.987C219.236,-208.881 173.046,-249.798 93.4619,-188 65.4843,-166.275 61.4776,-146.51 69.4619,-112 72.5982,-98.4442 80.4079,-84.255 85.8241,-75.5194"/>
<polygon fill="midnightblue" stroke="midnightblue" points="322.836,-227.451 333.263,-225.571 323.939,-220.538 322.836,-227.451"/>
</g>
<!-- Node10 -->
<g id="node10" class="node"><title>Node10</title>
<g id="a_node10"><a xlink:href="tokeniser_8hpp.html" target="_top" xlink:title="Declaration of the Tokeniser class. ">
<polygon fill="white" stroke="black" points="205.462,-168.5 205.462,-187.5 315.462,-187.5 315.462,-168.5 205.462,-168.5"/>
<text text-anchor="middle" x="260.462" y="-175.5" font-family="Helvetica,sans-Serif" font-size="10.00">src/io/tokeniser.hpp</text>
</a>
</g>
</g>
<!-- Node4&#45;&gt;Node10 -->
<g id="edge12" class="edge"><title>Node4&#45;&gt;Node10</title>
<path fill="none" stroke="midnightblue" d="M344.457,-219.862C323.874,-209.849 296.117,-196.346 278.252,-187.655"/>
<polygon fill="midnightblue" stroke="midnightblue" points="343.104,-223.097 353.628,-224.324 346.167,-216.802 343.104,-223.097"/>
</g>
<!-- Node11 -->
<g id="node11" class="node"><title>Node11</title>
<g id="a_node11"><a xlink:href="tokeniser_8cpp.html" target="_top" xlink:title="Definition of the Tokeniser class. ">
<polygon fill="white" stroke="black" points="223.962,-112.5 223.962,-131.5 332.962,-131.5 332.962,-112.5 223.962,-112.5"/>
<text text-anchor="middle" x="278.462" y="-119.5" font-family="Helvetica,sans-Serif" font-size="10.00">src/io/tokeniser.cpp</text>
</a>
</g>
</g>
<!-- Node4&#45;&gt;Node11 -->
<g id="edge15" class="edge"><title>Node4&#45;&gt;Node11</title>
<path fill="none" stroke="midnightblue" d="M360.021,-215.521C350.942,-202.078 337.628,-183.281 324.462,-168 312.794,-154.458 297.742,-140.266 288.094,-131.525"/>
<polygon fill="midnightblue" stroke="midnightblue" points="357.367,-217.85 365.821,-224.236 363.194,-213.972 357.367,-217.85"/>
</g>
<!-- Node7&#45;&gt;Node6 -->
<g id="edge7" class="edge"><title>Node7&#45;&gt;Node6</title>
<path fill="none" stroke="midnightblue" d="M185.31,-110.601C240.117,-100.395 322.694,-85.0189 373.726,-75.5164"/>
<polygon fill="midnightblue" stroke="midnightblue" points="184.604,-107.172 175.413,-112.444 185.885,-114.054 184.604,-107.172"/>
</g>
<!-- Node7&#45;&gt;Node7 -->
<g id="edge8" class="edge"><title>Node7&#45;&gt;Node7</title>
<path fill="none" stroke="midnightblue" d="M168.779,-132.432C184.635,-133.04 197.962,-129.563 197.962,-122 197.962,-112.867 178.528,-109.692 158.677,-112.475"/>
<polygon fill="midnightblue" stroke="midnightblue" points="168.95,-128.933 158.677,-131.525 168.324,-135.905 168.95,-128.933"/>
</g>
<!-- Node7&#45;&gt;Node8 -->
<g id="edge9" class="edge"><title>Node7&#45;&gt;Node8</title>
<path fill="none" stroke="midnightblue" d="M147.062,-105.512C173.772,-82.0068 223.656,-38.1096 244.699,-19.5914"/>
<polygon fill="midnightblue" stroke="midnightblue" points="144.465,-103.135 139.27,-112.368 149.09,-108.39 144.465,-103.135"/>
</g>
<!-- Node7&#45;&gt;Node9 -->
<g id="edge10" class="edge"><title>Node7&#45;&gt;Node9</title>
<path fill="none" stroke="midnightblue" d="M117.397,-103.855C110.817,-94.5048 102.951,-83.3265 97.6201,-75.7511"/>
<polygon fill="midnightblue" stroke="midnightblue" points="114.57,-105.919 123.187,-112.083 120.294,-101.891 114.57,-105.919"/>
</g>
<!-- Node9&#45;&gt;Node8 -->
<g id="edge11" class="edge"><title>Node9&#45;&gt;Node8</title>
<path fill="none" stroke="midnightblue" d="M127.165,-53.172C157.858,-43.0039 201.381,-28.5852 228.755,-19.5164"/>
<polygon fill="midnightblue" stroke="midnightblue" points="125.682,-49.9762 117.29,-56.4435 127.883,-56.6211 125.682,-49.9762"/>
</g>
<!-- Node10&#45;&gt;Node7 -->
<g id="edge13" class="edge"><title>Node10&#45;&gt;Node7</title>
<path fill="none" stroke="midnightblue" d="M230.145,-164.503C205.586,-154.38 171.644,-140.388 150.122,-131.516"/>
<polygon fill="midnightblue" stroke="midnightblue" points="229.125,-167.868 239.705,-168.444 231.793,-161.397 229.125,-167.868"/>
</g>
<!-- Node10&#45;&gt;Node11 -->
<g id="edge14" class="edge"><title>Node10&#45;&gt;Node11</title>
<path fill="none" stroke="midnightblue" d="M266.663,-158.396C269.675,-149.362 273.15,-138.936 275.545,-131.751"/>
<polygon fill="midnightblue" stroke="midnightblue" points="263.276,-157.489 263.434,-168.083 269.917,-159.703 263.276,-157.489"/>
</g>
</g>
</svg>
