<?xml version="1.0" encoding="UTF-8" standalone="no"?>
<!DOCTYPE svg PUBLIC "-//W3C//DTD SVG 1.1//EN"
 "http://www.w3.org/Graphics/SVG/1.1/DTD/svg11.dtd">
<!-- Generated by graphviz version 2.38.0 (20140413.2041)
 -->
<!-- Title: src/player/player_position.hpp Pages: 1 -->
<svg width="860pt" height="420pt"
 viewBox="0.00 0.00 859.89 420.00" xmlns="http://www.w3.org/2000/svg" xmlns:xlink="http://www.w3.org/1999/xlink">
<g id="graph0" class="graph" transform="scale(1 1) rotate(0) translate(4 416)">
<title>src/player/player_position.hpp</title>
<polygon fill="white" stroke="none" points="-4,4 -4,-416 855.89,-416 855.89,4 -4,4"/>
<!-- Node1 -->
<g id="node1" class="node"><title>Node1</title>
<polygon fill="#bfbfbf" stroke="black" points="592.89,-392.5 592.89,-411.5 750.89,-411.5 750.89,-392.5 592.89,-392.5"/>
<text text-anchor="middle" x="671.89" y="-399.5" font-family="Helvetica,sans-Serif" font-size="10.00">src/player/player_position.hpp</text>
</g>
<!-- Node2 -->
<g id="node2" class="node"><title>Node2</title>
<g id="a_node2"><a xlink:href="player__file_8hpp.html" target="_top" xlink:title="Declaration of the PlayerFile class, and associated types. ">
<polygon fill="white" stroke="black" points="556.39,-336.5 556.39,-355.5 691.39,-355.5 691.39,-336.5 556.39,-336.5"/>
<text text-anchor="middle" x="623.89" y="-343.5" font-family="Helvetica,sans-Serif" font-size="10.00">src/player/player_file.hpp</text>
</a>
</g>
</g>
<!-- Node1&#45;&gt;Node2 -->
<g id="edge1" class="edge"><title>Node1&#45;&gt;Node2</title>
<path fill="none" stroke="midnightblue" d="M657.162,-384.431C648.749,-374.967 638.541,-363.483 631.668,-355.751"/>
<polygon fill="midnightblue" stroke="midnightblue" points="654.704,-386.934 663.963,-392.083 659.936,-382.284 654.704,-386.934"/>
</g>
<!-- Node3 -->
<g id="node3" class="node"><title>Node3</title>
<g id="a_node3"><a xlink:href="player_8hpp.html" target="_top" xlink:title="Declaration of the Player class, and associated types. ">
<polygon fill="white" stroke="black" points="469.89,-280.5 469.89,-299.5 585.89,-299.5 585.89,-280.5 469.89,-280.5"/>
<text text-anchor="middle" x="527.89" y="-287.5" font-family="Helvetica,sans-Serif" font-size="10.00">src/player/player.hpp</text>
</a>
</g>
</g>
<!-- Node1&#45;&gt;Node3 -->
<g id="edge25" class="edge"><title>Node1&#45;&gt;Node3</title>
<path fill="none" stroke="midnightblue" d="M605.793,-389.636C584.515,-383.009 562.444,-372.536 546.89,-356 532.068,-340.243 528.737,-313.557 528.036,-299.793"/>
<polygon fill="midnightblue" stroke="midnightblue" points="604.91,-393.024 615.488,-392.418 606.841,-386.295 604.91,-393.024"/>
</g>
<!-- Node13 -->
<g id="node13" class="node"><title>Node13</title>
<g id="a_node13"><a xlink:href="player__position_8cpp.html" target="_top" xlink:title="Implementation of the PlayerPosition class, and related Player methods. ">
<polygon fill="white" stroke="black" points="693.89,-224.5 693.89,-243.5 851.89,-243.5 851.89,-224.5 693.89,-224.5"/>
<text text-anchor="middle" x="772.89" y="-231.5" font-family="Helvetica,sans-Serif" font-size="10.00">src/player/player_position.cpp</text>
</a>
</g>
</g>
<!-- Node1&#45;&gt;Node13 -->
<g id="edge27" class="edge"><title>Node1&#45;&gt;Node13</title>
<path fill="none" stroke="midnightblue" d="M688.777,-385.051C697.102,-376.774 707.017,-366.267 714.89,-356 732.607,-332.894 736.233,-326.222 748.89,-300 758.302,-280.5 766.343,-256.287 770.288,-243.629"/>
<polygon fill="midnightblue" stroke="midnightblue" points="686.132,-382.741 681.402,-392.222 691.012,-387.76 686.132,-382.741"/>
</g>
<!-- Node15 -->
<g id="node15" class="node"><title>Node15</title>
<g id="a_node15"><a xlink:href="player__file_8cpp.html" target="_top" xlink:title="Implementation of the PlayerFile class, and associated types. ">
<polygon fill="white" stroke="black" points="605.89,-280.5 605.89,-299.5 739.89,-299.5 739.89,-280.5 605.89,-280.5"/>
<text text-anchor="middle" x="672.89" y="-287.5" font-family="Helvetica,sans-Serif" font-size="10.00">src/player/player_file.cpp</text>
</a>
</g>
</g>
<!-- Node1&#45;&gt;Node15 -->
<g id="edge26" class="edge"><title>Node1&#45;&gt;Node15</title>
<path fill="none" stroke="midnightblue" d="M685.399,-384.301C691.058,-376.253 696.988,-366.156 699.89,-356 705.865,-335.086 690.477,-311.831 680.546,-299.601"/>
<polygon fill="midnightblue" stroke="midnightblue" points="682.514,-382.315 679.302,-392.411 688.109,-386.521 682.514,-382.315"/>
</g>
<!-- Node2&#45;&gt;Node3 -->
<g id="edge2" class="edge"><title>Node2&#45;&gt;Node3</title>
<path fill="none" stroke="midnightblue" d="M599.316,-331.177C581.651,-321.241 558.377,-308.149 543.275,-299.655"/>
<polygon fill="midnightblue" stroke="midnightblue" points="598.034,-334.472 608.466,-336.324 601.466,-328.371 598.034,-334.472"/>
</g>
<!-- Node2&#45;&gt;Node15 -->
<g id="edge24" class="edge"><title>Node2&#45;&gt;Node15</title>
<path fill="none" stroke="midnightblue" d="M638.924,-328.431C647.512,-318.967 657.933,-307.483 664.949,-299.751"/>
<polygon fill="midnightblue" stroke="midnightblue" points="636.109,-326.325 631.981,-336.083 641.293,-331.029 636.109,-326.325"/>
</g>
<!-- Node4 -->
<g id="node4" class="node"><title>Node4</title>
<g id="a_node4"><a xlink:href="cmd_8hpp.html" target="_top" xlink:title="Declaration of the CommandHandler class. ">
<polygon fill="white" stroke="black" points="118.89,-224.5 118.89,-243.5 192.89,-243.5 192.89,-224.5 118.89,-224.5"/>
<text text-anchor="middle" x="155.89" y="-231.5" font-family="Helvetica,sans-Serif" font-size="10.00">src/cmd.hpp</text>
</a>
</g>
</g>
<!-- Node3&#45;&gt;Node4 -->
<g id="edge3" class="edge"><title>Node3&#45;&gt;Node4</title>
<path fill="none" stroke="midnightblue" d="M459.488,-279.071C380.988,-267.676 255.109,-249.403 193.004,-240.388"/>
<polygon fill="midnightblue" stroke="midnightblue" points="459.365,-282.59 469.765,-280.562 460.371,-275.662 459.365,-282.59"/>
</g>
<!-- Node6 -->
<g id="node6" class="node"><title>Node6</title>
<g id="a_node6"><a xlink:href="io__reactor_8cpp.html" target="_top" xlink:title="Implementation of the non&#45;virtual aspects of the IoReactor class. ">
<polygon fill="white" stroke="black" points="25.3896,-56.5 25.3896,-75.5 138.39,-75.5 138.39,-56.5 25.3896,-56.5"/>
<text text-anchor="middle" x="81.8896" y="-63.5" font-family="Helvetica,sans-Serif" font-size="10.00">src/io/io_reactor.cpp</text>
</a>
</g>
</g>
<!-- Node3&#45;&gt;Node6 -->
<g id="edge17" class="edge"><title>Node3&#45;&gt;Node6</title>
<path fill="none" stroke="midnightblue" d="M459.542,-287.927C356.834,-285.271 168.47,-276.045 109.89,-244 60.1618,-216.797 56.7514,-188.134 48.8896,-132 47.6567,-123.197 46.124,-120.448 48.8896,-112 53.5917,-97.6367 64.8173,-84.0685 72.8697,-75.66"/>
<polygon fill="midnightblue" stroke="midnightblue" points="459.73,-291.432 469.813,-288.178 459.901,-284.434 459.73,-291.432"/>
</g>
<!-- Node8 -->
<g id="node8" class="node"><title>Node8</title>
<g id="a_node8"><a xlink:href="io__reactor_8hpp.html" target="_top" xlink:title="Declaration of the IoReactor class. ">
<polygon fill="white" stroke="black" points="189.39,-112.5 189.39,-131.5 302.39,-131.5 302.39,-112.5 189.39,-112.5"/>
<text text-anchor="middle" x="245.89" y="-119.5" font-family="Helvetica,sans-Serif" font-size="10.00">src/io/io_reactor.hpp</text>
</a>
</g>
</g>
<!-- Node3&#45;&gt;Node8 -->
<g id="edge18" class="edge"><title>Node3&#45;&gt;Node8</title>
<path fill="none" stroke="midnightblue" d="M459.576,-283.715C403.926,-277.851 331.609,-266.136 312.89,-244 291.062,-218.188 326.058,-197.687 309.89,-168 300.599,-150.942 281.718,-138.9 266.86,-131.593"/>
<polygon fill="midnightblue" stroke="midnightblue" points="459.456,-287.221 469.757,-284.744 460.159,-280.256 459.456,-287.221"/>
</g>
<!-- Node9 -->
<g id="node9" class="node"><title>Node9</title>
<g id="a_node9"><a xlink:href="main_8cpp.html" target="_top" xlink:title="Main entry point and implementation of the playd class. ">
<polygon fill="white" stroke="black" points="258.89,-0.5 258.89,-19.5 334.89,-19.5 334.89,-0.5 258.89,-0.5"/>
<text text-anchor="middle" x="296.89" y="-7.5" font-family="Helvetica,sans-Serif" font-size="10.00">src/main.cpp</text>
</a>
</g>
</g>
<!-- Node3&#45;&gt;Node9 -->
<g id="edge20" class="edge"><title>Node3&#45;&gt;Node9</title>
<path fill="none" stroke="midnightblue" d="M565.915,-277.069C606.764,-261.599 665.89,-230.34 665.89,-179 665.89,-179 665.89,-179 665.89,-121 665.89,-52.4804 429.268,-23.1617 334.989,-14.1994"/>
<polygon fill="midnightblue" stroke="midnightblue" points="564.692,-273.789 556.483,-280.487 567.077,-280.37 564.692,-273.789"/>
</g>
<!-- Node10 -->
<g id="node10" class="node"><title>Node10</title>
<g id="a_node10"><a xlink:href="main_8hpp.html" target="_top" xlink:title="Declaration of the playd class. ">
<polygon fill="white" stroke="black" points="301.39,-56.5 301.39,-75.5 378.39,-75.5 378.39,-56.5 301.39,-56.5"/>
<text text-anchor="middle" x="339.89" y="-63.5" font-family="Helvetica,sans-Serif" font-size="10.00">src/main.hpp</text>
</a>
</g>
</g>
<!-- Node3&#45;&gt;Node10 -->
<g id="edge19" class="edge"><title>Node3&#45;&gt;Node10</title>
<path fill="none" stroke="midnightblue" d="M565.069,-276.823C592.3,-265.698 622.342,-247.428 608.89,-224 558.133,-135.607 436.277,-92.2646 375.546,-75.5533"/>
<polygon fill="midnightblue" stroke="midnightblue" points="563.705,-273.598 555.63,-280.456 566.219,-280.13 563.705,-273.598"/>
</g>
<!-- Node12 -->
<g id="node12" class="node"><title>Node12</title>
<g id="a_node12"><a xlink:href="player_8cpp.html" target="_top" xlink:title="Main implementation file for the Player class. ">
<polygon fill="white" stroke="black" points="322.39,-224.5 322.39,-243.5 437.39,-243.5 437.39,-224.5 322.39,-224.5"/>
<text text-anchor="middle" x="379.89" y="-231.5" font-family="Helvetica,sans-Serif" font-size="10.00">src/player/player.cpp</text>
</a>
</g>
</g>
<!-- Node3&#45;&gt;Node12 -->
<g id="edge21" class="edge"><title>Node3&#45;&gt;Node12</title>
<path fill="none" stroke="midnightblue" d="M494.743,-276.906C466.918,-266.754 427.87,-252.506 403.231,-243.516"/>
<polygon fill="midnightblue" stroke="midnightblue" points="493.845,-280.304 504.439,-280.444 496.244,-273.728 493.845,-280.304"/>
</g>
<!-- Node3&#45;&gt;Node13 -->
<g id="edge22" class="edge"><title>Node3&#45;&gt;Node13</title>
<path fill="none" stroke="midnightblue" d="M576.52,-278.281C622.818,-268.077 691.584,-252.92 734.25,-243.516"/>
<polygon fill="midnightblue" stroke="midnightblue" points="575.723,-274.873 566.711,-280.444 577.23,-281.709 575.723,-274.873"/>
</g>
<!-- Node14 -->
<g id="node14" class="node"><title>Node14</title>
<g id="a_node14"><a xlink:href="player__state_8cpp.html" target="_top" xlink:title="Implementation of the PlayerState class, and related Player methods. ">
<polygon fill="white" stroke="black" points="455.89,-224.5 455.89,-243.5 599.89,-243.5 599.89,-224.5 455.89,-224.5"/>
<text text-anchor="middle" x="527.89" y="-231.5" font-family="Helvetica,sans-Serif" font-size="10.00">src/player/player_state.cpp</text>
</a>
</g>
</g>
<!-- Node3&#45;&gt;Node14 -->
<g id="edge23" class="edge"><title>Node3&#45;&gt;Node14</title>
<path fill="none" stroke="midnightblue" d="M527.89,-269.805C527.89,-260.91 527.89,-250.78 527.89,-243.751"/>
<polygon fill="midnightblue" stroke="midnightblue" points="524.39,-270.083 527.89,-280.083 531.39,-270.083 524.39,-270.083"/>
</g>
<!-- Node5 -->
<g id="node5" class="node"><title>Node5</title>
<g id="a_node5"><a xlink:href="cmd_8cpp.html" target="_top" xlink:title="Implementation of the CommandHandler class. ">
<polygon fill="white" stroke="black" points="228.39,-168.5 228.39,-187.5 301.39,-187.5 301.39,-168.5 228.39,-168.5"/>
<text text-anchor="middle" x="264.89" y="-175.5" font-family="Helvetica,sans-Serif" font-size="10.00">src/cmd.cpp</text>
</a>
</g>
</g>
<!-- Node4&#45;&gt;Node5 -->
<g id="edge4" class="edge"><title>Node4&#45;&gt;Node5</title>
<path fill="none" stroke="midnightblue" d="M182.408,-219.862C202.62,-209.849 229.877,-196.346 247.42,-187.655"/>
<polygon fill="midnightblue" stroke="midnightblue" points="180.809,-216.748 173.402,-224.324 183.917,-223.021 180.809,-216.748"/>
</g>
<!-- Node4&#45;&gt;Node6 -->
<g id="edge5" class="edge"><title>Node4&#45;&gt;Node6</title>
<path fill="none" stroke="midnightblue" d="M128.295,-219.769C114.084,-211.97 97.205,-201.069 84.8896,-188 65.3793,-167.297 61.0046,-159.544 53.8896,-132 51.6664,-123.394 51.4476,-120.547 53.8896,-112 57.8835,-98.0212 67.6132,-84.156 74.4772,-75.5891"/>
<polygon fill="midnightblue" stroke="midnightblue" points="126.694,-222.882 137.174,-224.438 129.952,-216.686 126.694,-222.882"/>
</g>
<!-- Node7 -->
<g id="node7" class="node"><title>Node7</title>
<g id="a_node7"><a xlink:href="tokeniser_8hpp.html" target="_top" xlink:title="Declaration of the Tokeniser class. ">
<polygon fill="white" stroke="black" points="101.39,-168.5 101.39,-187.5 210.39,-187.5 210.39,-168.5 101.39,-168.5"/>
<text text-anchor="middle" x="155.89" y="-175.5" font-family="Helvetica,sans-Serif" font-size="10.00">src/io/tokeniser.hpp</text>
</a>
</g>
</g>
<!-- Node4&#45;&gt;Node7 -->
<g id="edge6" class="edge"><title>Node4&#45;&gt;Node7</title>
<path fill="none" stroke="midnightblue" d="M155.89,-213.805C155.89,-204.91 155.89,-194.78 155.89,-187.751"/>
<polygon fill="midnightblue" stroke="midnightblue" points="152.39,-214.083 155.89,-224.083 159.39,-214.083 152.39,-214.083"/>
</g>
<!-- Node4&#45;&gt;Node9 -->
<g id="edge15" class="edge"><title>Node4&#45;&gt;Node9</title>
<path fill="none" stroke="midnightblue" d="M117.258,-220.853C99.4539,-213.651 79.1596,-202.954 64.8896,-188 21.6882,-142.727 -24.711,-103.62 15.8896,-56 46.662,-19.9075 189.338,-12.6413 258.753,-11.2639"/>
<polygon fill="midnightblue" stroke="midnightblue" points="116.247,-224.214 126.838,-224.5 118.737,-217.671 116.247,-224.214"/>
</g>
<!-- Node4&#45;&gt;Node10 -->
<g id="edge16" class="edge"><title>Node4&#45;&gt;Node10</title>
<path fill="none" stroke="midnightblue" d="M203.116,-230.48C236.895,-226.259 281.273,-215.417 309.89,-188 342.083,-157.156 341.891,-97.6014 340.588,-75.5145"/>
<polygon fill="midnightblue" stroke="midnightblue" points="202.561,-227.02 193.002,-231.589 203.324,-233.978 202.561,-227.02"/>
</g>
<!-- Node11 -->
<g id="node11" class="node"><title>Node11</title>
<g id="a_node11"><a xlink:href="tokeniser_8cpp.html" target="_top" xlink:title="Definition of the Tokeniser class. ">
<polygon fill="white" stroke="black" points="62.8896,-112.5 62.8896,-131.5 170.89,-131.5 170.89,-112.5 62.8896,-112.5"/>
<text text-anchor="middle" x="116.89" y="-119.5" font-family="Helvetica,sans-Serif" font-size="10.00">src/io/tokeniser.cpp</text>
</a>
</g>
</g>
<!-- Node4&#45;&gt;Node11 -->
<g id="edge14" class="edge"><title>Node4&#45;&gt;Node11</title>
<path fill="none" stroke="midnightblue" d="M125.337,-219.559C112.561,-212.217 99.0427,-201.774 91.8896,-188 81.8594,-168.686 98.2938,-144.397 108.936,-131.678"/>
<polygon fill="midnightblue" stroke="midnightblue" points="123.931,-222.775 134.407,-224.36 127.206,-216.588 123.931,-222.775"/>
</g>
<!-- Node7&#45;&gt;Node8 -->
<g id="edge7" class="edge"><title>Node7&#45;&gt;Node8</title>
<path fill="none" stroke="midnightblue" d="M178.927,-163.177C195.488,-153.241 217.308,-140.149 231.465,-131.655"/>
<polygon fill="midnightblue" stroke="midnightblue" points="177.124,-160.178 170.35,-168.324 180.725,-166.18 177.124,-160.178"/>
</g>
<!-- Node7&#45;&gt;Node11 -->
<g id="edge13" class="edge"><title>Node7&#45;&gt;Node11</title>
<path fill="none" stroke="midnightblue" d="M143.507,-159.855C136.754,-150.505 128.681,-139.327 123.21,-131.751"/>
<polygon fill="midnightblue" stroke="midnightblue" points="140.757,-162.025 149.45,-168.083 146.432,-157.927 140.757,-162.025"/>
</g>
<!-- Node8&#45;&gt;Node6 -->
<g id="edge8" class="edge"><title>Node8&#45;&gt;Node6</title>
<path fill="none" stroke="midnightblue" d="M210.37,-109.304C179.468,-99.1294 135.416,-84.6246 107.754,-75.5164"/>
<polygon fill="midnightblue" stroke="midnightblue" points="209.31,-112.64 219.903,-112.444 211.5,-105.992 209.31,-112.64"/>
</g>
<!-- Node8&#45;&gt;Node8 -->
<g id="edge9" class="edge"><title>Node8&#45;&gt;Node8</title>
<path fill="none" stroke="midnightblue" d="M287.672,-132.393C305.343,-133.17 320.39,-129.706 320.39,-122 320.39,-112.867 299.254,-109.692 277.664,-112.475"/>
<polygon fill="midnightblue" stroke="midnightblue" points="287.929,-128.902 277.664,-131.525 287.324,-135.876 287.929,-128.902"/>
</g>
<!-- Node8&#45;&gt;Node9 -->
<g id="edge10" class="edge"><title>Node8&#45;&gt;Node9</title>
<path fill="none" stroke="midnightblue" d="M254.236,-102.998C265.364,-78.9968 284.618,-37.4683 292.906,-19.5914"/>
<polygon fill="midnightblue" stroke="midnightblue" points="250.922,-101.824 249.891,-112.368 257.273,-104.768 250.922,-101.824"/>
</g>
<!-- Node8&#45;&gt;Node10 -->
<g id="edge11" class="edge"><title>Node8&#45;&gt;Node10</title>
<path fill="none" stroke="midnightblue" d="M269.951,-107.177C287.248,-97.2407 310.037,-84.1492 324.824,-75.6545"/>
<polygon fill="midnightblue" stroke="midnightblue" points="267.92,-104.308 260.992,-112.324 271.407,-110.378 267.92,-104.308"/>
</g>
<!-- Node10&#45;&gt;Node9 -->
<g id="edge12" class="edge"><title>Node10&#45;&gt;Node9</title>
<path fill="none" stroke="midnightblue" d="M326.467,-48.144C318.975,-38.7357 309.952,-27.4046 303.858,-19.7511"/>
<polygon fill="midnightblue" stroke="midnightblue" points="323.822,-50.4404 332.789,-56.083 329.298,-46.0799 323.822,-50.4404"/>
</g>
</g>
</svg>
