<?xml version="1.0" encoding="UTF-8" standalone="no"?>
<!DOCTYPE svg PUBLIC "-//W3C//DTD SVG 1.1//EN"
 "http://www.w3.org/Graphics/SVG/1.1/DTD/svg11.dtd">
<!-- Generated by graphviz version 2.36.0 (20140111.2315)
 -->
<!-- Title: src/player.hpp Pages: 1 -->
<!--zoomable 320 -->
<svg id="main" version="1.1" xmlns="http://www.w3.org/2000/svg" xmlns:xlink="http://www.w3.org/1999/xlink" xml:space="preserve" onload="init(evt)">
<style type="text/css"><![CDATA[
.edge:hover path { stroke: red; }
.edge:hover polygon { stroke: red; fill: red; }
]]></style>
<script type="text/javascript"><![CDATA[
var edges = document.getElementsByTagName('g');
if (edges && edges.length) {
  for (var i=0;i<edges.length;i++) {
    if (edges[i].id.substr(0,4)=='edge') {
      edges[i].setAttribute('class','edge');
    }
  }
}
]]></script>
        <defs>
                <circle id="rim" cx="0" cy="0" r="7"/>
                <circle id="rim2" cx="0" cy="0" r="3.5"/>
                <g id="zoomPlus">
                        <use xlink:href="#rim" fill="#404040">
                                <set attributeName="fill" to="#808080" begin="zoomplus.mouseover" end="zoomplus.mouseout"/>
                        </use>
                        <path d="M-4,0h8M0,-4v8" fill="none" stroke="white" stroke-width="1.5" pointer-events="none"/>
                </g>
                <g id="zoomMin">
                        <use xlink:href="#rim" fill="#404040">
                                <set attributeName="fill" to="#808080" begin="zoomminus.mouseover" end="zoomminus.mouseout"/>
                        </use>
                        <path d="M-4,0h8" fill="none" stroke="white" stroke-width="1.5" pointer-events="none"/>
                </g>
                <g id="dirArrow">
                        <path fill="none" stroke="white" stroke-width="1.5" d="M0,-3.0v7 M-2.5,-0.5L0,-3.0L2.5,-0.5"/>
                </g>
               <g id="resetDef">
                       <use xlink:href="#rim2" fill="#404040">
                               <set attributeName="fill" to="#808080" begin="reset.mouseover" end="reset.mouseout"/>
                       </use>
               </g>
        </defs>

<script type="text/javascript">
var viewWidth = 1034;
var viewHeight = 320;
var sectionId = 'dynsection-0';
</script>
<script xlink:href="svgpan.js"/>
<svg id="graph" class="graph">
<g id="viewport">
<title>src/player.hpp</title>
<polygon fill="white" stroke="none" points="-4,4 -4,-316 1029.67,-316 1029.67,4 -4,4"/>
<!-- Node0 -->
<g id="node1" class="node"><title>Node0</title>
<polygon fill="#bfbfbf" stroke="black" points="222.817,-292.5 222.817,-311.5 305.817,-311.5 305.817,-292.5 222.817,-292.5"/>
<text text-anchor="middle" x="264.317" y="-299.5" font-family="Helvetica,sans-Serif" font-size="10.00">src/player.hpp</text>
</g>
<!-- Node1 -->
<g id="node2" class="node"><title>Node1</title>
<polygon fill="white" stroke="#bfbfbf" points="475.817,-0.5 475.817,-19.5 524.817,-19.5 524.817,-0.5 475.817,-0.5"/>
<text text-anchor="middle" x="500.317" y="-7.5" font-family="Helvetica,sans-Serif" font-size="10.00">cstdint</text>
</g>
<!-- Node0&#45;&gt;Node1 -->
<g id="edge1" class="edge"><title>Node0&#45;&gt;Node1</title>
<path fill="none" stroke="midnightblue" d="M246.111,-292.442C180.975,-260.764 -32.2954,-147.286 50.3171,-56 57.2967,-48.2876 361.237,-22.4951 465.581,-13.8511"/>
<polygon fill="midnightblue" stroke="midnightblue" points="465.928,-17.3345 475.605,-13.0226 465.351,-10.3583 465.928,-17.3345"/>
</g>
<!-- Node2 -->
<g id="node3" class="node"><title>Node2</title>
<polygon fill="white" stroke="#bfbfbf" points="24.8171,-236.5 24.8171,-255.5 87.8171,-255.5 87.8171,-236.5 24.8171,-236.5"/>
<text text-anchor="middle" x="56.3171" y="-243.5" font-family="Helvetica,sans-Serif" font-size="10.00">functional</text>
</g>
<!-- Node0&#45;&gt;Node2 -->
<g id="edge2" class="edge"><title>Node0&#45;&gt;Node2</title>
<path fill="none" stroke="midnightblue" d="M231.359,-292.444C195.214,-283.06 137.139,-267.983 97.8923,-257.794"/>
<polygon fill="midnightblue" stroke="midnightblue" points="98.6566,-254.376 88.098,-255.251 96.8976,-261.151 98.6566,-254.376"/>
</g>
<!-- Node3 -->
<g id="node4" class="node"><title>Node3</title>
<polygon fill="white" stroke="#bfbfbf" points="59.3171,-56.5 59.3171,-75.5 97.3171,-75.5 97.3171,-56.5 59.3171,-56.5"/>
<text text-anchor="middle" x="78.3171" y="-63.5" font-family="Helvetica,sans-Serif" font-size="10.00">map</text>
</g>
<!-- Node0&#45;&gt;Node3 -->
<g id="edge3" class="edge"><title>Node0&#45;&gt;Node3</title>
<path fill="none" stroke="midnightblue" d="M222.717,-299.696C158.845,-296.719 41.2646,-287.057 15.3171,-256 -28.6362,-203.391 33.2349,-118.952 63.4123,-83.5063"/>
<polygon fill="midnightblue" stroke="midnightblue" points="66.376,-85.4336 70.318,-75.5994 61.1037,-80.8289 66.376,-85.4336"/>
</g>
<!-- Node4 -->
<g id="node5" class="node"><title>Node4</title>
<polygon fill="white" stroke="#bfbfbf" points="118.817,-56.5 118.817,-75.5 175.817,-75.5 175.817,-56.5 118.817,-56.5"/>
<text text-anchor="middle" x="147.317" y="-63.5" font-family="Helvetica,sans-Serif" font-size="10.00">memory</text>
</g>
<!-- Node0&#45;&gt;Node4 -->
<g id="edge4" class="edge"><title>Node0&#45;&gt;Node4</title>
<path fill="none" stroke="midnightblue" d="M254.498,-292.346C230.481,-270.436 169.145,-209.821 147.317,-144 141.019,-125.009 142.085,-101.904 144.058,-85.9872"/>
<polygon fill="midnightblue" stroke="midnightblue" points="147.559,-86.2341 145.562,-75.8293 140.635,-85.2088 147.559,-86.2341"/>
</g>
<!-- Node5 -->
<g id="node6" class="node"><title>Node5</title>
<polygon fill="white" stroke="#bfbfbf" points="393.317,-56.5 393.317,-75.5 437.317,-75.5 437.317,-56.5 393.317,-56.5"/>
<text text-anchor="middle" x="415.317" y="-63.5" font-family="Helvetica,sans-Serif" font-size="10.00">string</text>
</g>
<!-- Node0&#45;&gt;Node5 -->
<g id="edge5" class="edge"><title>Node0&#45;&gt;Node5</title>
<path fill="none" stroke="midnightblue" d="M266.352,-292.146C273.341,-263.327 298.71,-170.684 348.317,-112 359.342,-98.9582 375.055,-88.135 388.493,-80.3739"/>
<polygon fill="midnightblue" stroke="midnightblue" points="390.275,-83.3885 397.348,-75.5004 386.899,-77.256 390.275,-83.3885"/>
</g>
<!-- Node6 -->
<g id="node7" class="node"><title>Node6</title>
<polygon fill="white" stroke="#bfbfbf" points="357.317,-118.5 357.317,-137.5 399.317,-137.5 399.317,-118.5 357.317,-118.5"/>
<text text-anchor="middle" x="378.317" y="-125.5" font-family="Helvetica,sans-Serif" font-size="10.00">utility</text>
</g>
<!-- Node0&#45;&gt;Node6 -->
<g id="edge6" class="edge"><title>Node0&#45;&gt;Node6</title>
<path fill="none" stroke="midnightblue" d="M270.127,-292.234C288.12,-265.086 343.145,-182.067 367.042,-146.012"/>
<polygon fill="midnightblue" stroke="midnightblue" points="370.047,-147.813 372.654,-137.544 364.212,-143.946 370.047,-147.813"/>
</g>
<!-- Node7 -->
<g id="node8" class="node"><title>Node7</title>
<polygon fill="white" stroke="#bfbfbf" points="596.817,-56.5 596.817,-75.5 643.817,-75.5 643.817,-56.5 596.817,-56.5"/>
<text text-anchor="middle" x="620.317" y="-63.5" font-family="Helvetica,sans-Serif" font-size="10.00">vector</text>
</g>
<!-- Node0&#45;&gt;Node7 -->
<g id="edge7" class="edge"><title>Node0&#45;&gt;Node7</title>
<path fill="none" stroke="midnightblue" d="M305.825,-299.83C425.29,-295.561 766.159,-276.757 840.317,-200 868.256,-171.082 887.008,-142.932 861.317,-112 835.342,-80.7258 713.936,-71.0685 653.986,-68.181"/>
<polygon fill="midnightblue" stroke="midnightblue" points="654.033,-64.6797 643.887,-67.7309 653.721,-71.6727 654.033,-64.6797"/>
</g>
<!-- Node8 -->
<g id="node9" class="node"><title>Node8</title>
<g id="a_node9"><a xlink:href="audio__sink_8hpp.html" target="_top" xlink:title="Declaration of the AudioSink class. ">
<polygon fill="white" stroke="black" points="579.817,-236.5 579.817,-255.5 696.817,-255.5 696.817,-236.5 579.817,-236.5"/>
<text text-anchor="middle" x="638.317" y="-243.5" font-family="Helvetica,sans-Serif" font-size="10.00">audio/audio_sink.hpp</text>
</a>
</g>
</g>
<!-- Node0&#45;&gt;Node8 -->
<g id="edge8" class="edge"><title>Node0&#45;&gt;Node8</title>
<path fill="none" stroke="midnightblue" d="M306.131,-294.963C369.979,-285.744 492.463,-268.059 569.534,-256.931"/>
<polygon fill="midnightblue" stroke="midnightblue" points="570.233,-260.367 579.631,-255.473 569.233,-253.438 570.233,-260.367"/>
</g>
<!-- Node11 -->
<g id="node12" class="node"><title>Node11</title>
<g id="a_node12"><a xlink:href="audio_8hpp.html" target="_top" xlink:title="Declaration of the Audio class. ">
<polygon fill="white" stroke="black" points="406.317,-180.5 406.317,-199.5 470.317,-199.5 470.317,-180.5 406.317,-180.5"/>
<text text-anchor="middle" x="438.317" y="-187.5" font-family="Helvetica,sans-Serif" font-size="10.00">audio.hpp</text>
</a>
</g>
</g>
<!-- Node0&#45;&gt;Node11 -->
<g id="edge45" class="edge"><title>Node0&#45;&gt;Node11</title>
<path fill="none" stroke="midnightblue" d="M277.971,-292.368C307.956,-273.412 379.789,-228.001 416.263,-204.942"/>
<polygon fill="midnightblue" stroke="midnightblue" points="418.145,-207.893 424.727,-199.591 414.404,-201.977 418.145,-207.893"/>
</g>
<!-- Node12 -->
<g id="node13" class="node"><title>Node12</title>
<g id="a_node13"><a xlink:href="response_8hpp.html" target="_top" xlink:title="Declaration of classes pertaining to responses to the client. ">
<polygon fill="white" stroke="black" points="209.817,-118.5 209.817,-137.5 300.817,-137.5 300.817,-118.5 209.817,-118.5"/>
<text text-anchor="middle" x="255.317" y="-125.5" font-family="Helvetica,sans-Serif" font-size="10.00">../response.hpp</text>
</a>
</g>
</g>
<!-- Node0&#45;&gt;Node12 -->
<g id="edge46" class="edge"><title>Node0&#45;&gt;Node12</title>
<path fill="none" stroke="midnightblue" d="M260.717,-292.222C257.261,-283.285 252.284,-268.942 250.317,-256 244.536,-217.958 248.951,-172.814 252.354,-147.895"/>
<polygon fill="midnightblue" stroke="midnightblue" points="255.863,-148.088 253.85,-137.686 248.937,-147.073 255.863,-148.088"/>
</g>
<!-- Node17 -->
<g id="node18" class="node"><title>Node17</title>
<g id="a_node18"><a xlink:href="audio__source_8hpp.html" target="_top" xlink:title="Declaration of the AudioSource class. ">
<polygon fill="white" stroke="black" points="569.817,-118.5 569.817,-137.5 670.817,-137.5 670.817,-118.5 569.817,-118.5"/>
<text text-anchor="middle" x="620.317" y="-125.5" font-family="Helvetica,sans-Serif" font-size="10.00">audio_source.hpp</text>
</a>
</g>
</g>
<!-- Node0&#45;&gt;Node17 -->
<g id="edge44" class="edge"><title>Node0&#45;&gt;Node17</title>
<path fill="none" stroke="midnightblue" d="M284.157,-292.422C304.595,-283.525 337.327,-269.105 365.317,-256 450.206,-216.256 549.162,-165.754 594.833,-142.205"/>
<polygon fill="midnightblue" stroke="midnightblue" points="596.466,-145.301 603.745,-137.602 593.254,-139.081 596.466,-145.301"/>
</g>
<!-- Node8&#45;&gt;Node1 -->
<g id="edge10" class="edge"><title>Node8&#45;&gt;Node1</title>
<path fill="none" stroke="midnightblue" d="M697.023,-238.182C748.783,-231.075 819.167,-218.386 840.317,-200 870.663,-173.62 885.619,-144.034 861.317,-112 821.374,-59.3481 617.594,-26.6691 535.077,-15.4114"/>
<polygon fill="midnightblue" stroke="midnightblue" points="535.325,-11.9135 524.949,-14.0546 534.396,-18.8515 535.325,-11.9135"/>
</g>
<!-- Node8&#45;&gt;Node4 -->
<g id="edge11" class="edge"><title>Node8&#45;&gt;Node4</title>
<path fill="none" stroke="midnightblue" d="M579.778,-240.28C466.805,-229.958 224.774,-201.561 167.317,-144 151.949,-128.604 147.921,-103.007 147.096,-85.5882"/>
<polygon fill="midnightblue" stroke="midnightblue" points="150.594,-85.453 146.929,-75.5122 143.595,-85.5687 150.594,-85.453"/>
</g>
<!-- Node8&#45;&gt;Node5 -->
<g id="edge12" class="edge"><title>Node8&#45;&gt;Node5</title>
<path fill="none" stroke="midnightblue" d="M627.561,-236.415C592.244,-208.224 479.511,-118.24 434.321,-82.1688"/>
<polygon fill="midnightblue" stroke="midnightblue" points="436.225,-79.2107 426.226,-75.7077 431.858,-84.6816 436.225,-79.2107"/>
</g>
<!-- Node8&#45;&gt;Node6 -->
<g id="edge13" class="edge"><title>Node8&#45;&gt;Node6</title>
<path fill="none" stroke="midnightblue" d="M579.795,-241.149C517.159,-235.833 423.278,-224.038 397.317,-200 383.153,-186.885 379.094,-164.476 378.144,-148.338"/>
<polygon fill="midnightblue" stroke="midnightblue" points="381.633,-147.833 377.901,-137.917 374.635,-147.996 381.633,-147.833"/>
</g>
<!-- Node8&#45;&gt;Node7 -->
<g id="edge14" class="edge"><title>Node8&#45;&gt;Node7</title>
<path fill="none" stroke="midnightblue" d="M643.129,-236.438C652.364,-219.456 672.282,-180.033 679.317,-144 682.042,-130.041 685.626,-124.746 679.317,-112 672.714,-98.6595 660.052,-88.1941 648.146,-80.7262"/>
<polygon fill="midnightblue" stroke="midnightblue" points="649.709,-77.5866 639.301,-75.6018 646.199,-83.6435 649.709,-77.5866"/>
</g>
<!-- Node9 -->
<g id="node10" class="node"><title>Node9</title>
<polygon fill="white" stroke="#bfbfbf" points="979.817,-0.5 979.817,-19.5 1020.82,-19.5 1020.82,-0.5 979.817,-0.5"/>
<text text-anchor="middle" x="1000.32" y="-7.5" font-family="Helvetica,sans-Serif" font-size="10.00">array</text>
</g>
<!-- Node8&#45;&gt;Node9 -->
<g id="edge9" class="edge"><title>Node8&#45;&gt;Node9</title>
<path fill="none" stroke="midnightblue" d="M696.928,-245.475C753.188,-243.616 839.014,-234.562 904.317,-200 971.828,-164.269 994.814,-146.866 1023.32,-76 1029.72,-60.0928 1021.75,-41.6378 1013.5,-28.4657"/>
<polygon fill="midnightblue" stroke="midnightblue" points="1016.18,-26.1865 1007.64,-19.9201 1010.41,-30.1463 1016.18,-26.1865"/>
</g>
<!-- Node10 -->
<g id="node11" class="node"><title>Node10</title>
<polygon fill="white" stroke="#bfbfbf" points="685.817,-180.5 685.817,-199.5 730.817,-199.5 730.817,-180.5 685.817,-180.5"/>
<text text-anchor="middle" x="708.317" y="-187.5" font-family="Helvetica,sans-Serif" font-size="10.00">SDL.h</text>
</g>
<!-- Node8&#45;&gt;Node10 -->
<g id="edge15" class="edge"><title>Node8&#45;&gt;Node10</title>
<path fill="none" stroke="midnightblue" d="M649.564,-236.324C660.115,-228.185 676.118,-215.839 688.759,-206.087"/>
<polygon fill="midnightblue" stroke="midnightblue" points="691.086,-208.713 696.866,-199.834 686.81,-203.171 691.086,-208.713"/>
</g>
<!-- Node8&#45;&gt;Node11 -->
<g id="edge16" class="edge"><title>Node8&#45;&gt;Node11</title>
<path fill="none" stroke="midnightblue" d="M606.627,-236.444C572.249,-227.162 517.24,-212.309 479.528,-202.127"/>
<polygon fill="midnightblue" stroke="midnightblue" points="480.426,-198.744 469.859,-199.516 478.601,-205.502 480.426,-198.744"/>
</g>
<!-- Node8&#45;&gt;Node17 -->
<g id="edge40" class="edge"><title>Node8&#45;&gt;Node17</title>
<path fill="none" stroke="midnightblue" d="M636.964,-236.281C634.057,-217.547 627.16,-173.098 623.216,-147.682"/>
<polygon fill="midnightblue" stroke="midnightblue" points="626.629,-146.85 621.637,-137.505 619.712,-147.923 626.629,-146.85"/>
</g>
<!-- Node18 -->
<g id="node19" class="node"><title>Node18</title>
<g id="a_node19"><a xlink:href="sample__formats_8hpp.html" target="_top" xlink:title="The SampleFormat enumeration and related declarations. ">
<polygon fill="white" stroke="black" points="899.317,-56.5 899.317,-75.5 1015.32,-75.5 1015.32,-56.5 899.317,-56.5"/>
<text text-anchor="middle" x="957.317" y="-63.5" font-family="Helvetica,sans-Serif" font-size="10.00">sample_formats.hpp</text>
</a>
</g>
</g>
<!-- Node8&#45;&gt;Node18 -->
<g id="edge43" class="edge"><title>Node8&#45;&gt;Node18</title>
<path fill="none" stroke="midnightblue" d="M697.065,-242.967C746.713,-239.163 818.46,-228.646 874.317,-200 906.487,-183.502 914.211,-174.692 933.317,-144 944.621,-125.842 950.98,-101.939 954.27,-85.6117"/>
<polygon fill="midnightblue" stroke="midnightblue" points="957.73,-86.1477 956.081,-75.682 950.844,-84.8917 957.73,-86.1477"/>
</g>
<!-- Node19 -->
<g id="node20" class="node"><title>Node19</title>
<g id="a_node20"><a xlink:href="ringbuffer_8hpp.html" target="_top" xlink:title="The RingBuffer class template. ">
<polygon fill="white" stroke="black" points="748.817,-180.5 748.817,-199.5 831.817,-199.5 831.817,-180.5 748.817,-180.5"/>
<text text-anchor="middle" x="790.317" y="-187.5" font-family="Helvetica,sans-Serif" font-size="10.00">ringbuffer.hpp</text>
</a>
</g>
</g>
<!-- Node8&#45;&gt;Node19 -->
<g id="edge41" class="edge"><title>Node8&#45;&gt;Node19</title>
<path fill="none" stroke="midnightblue" d="M662.402,-236.444C687.862,-227.399 728.211,-213.064 756.776,-202.916"/>
<polygon fill="midnightblue" stroke="midnightblue" points="758.094,-206.162 766.345,-199.516 755.75,-199.566 758.094,-206.162"/>
</g>
<!-- Node11&#45;&gt;Node1 -->
<g id="edge17" class="edge"><title>Node11&#45;&gt;Node1</title>
<path fill="none" stroke="midnightblue" d="M441.308,-180.415C450.818,-153.11 480.522,-67.8317 493.795,-29.7237"/>
<polygon fill="midnightblue" stroke="midnightblue" points="497.227,-30.5133 497.211,-19.9185 490.616,-28.2107 497.227,-30.5133"/>
</g>
<!-- Node11&#45;&gt;Node4 -->
<g id="edge18" class="edge"><title>Node11&#45;&gt;Node4</title>
<path fill="none" stroke="midnightblue" d="M406.14,-185.964C349.282,-180.107 233.878,-165.864 200.317,-144 178.493,-129.782 163.201,-103.126 154.83,-85.2161"/>
<polygon fill="midnightblue" stroke="midnightblue" points="157.936,-83.5844 150.703,-75.8422 151.529,-86.4048 157.936,-83.5844"/>
</g>
<!-- Node11&#45;&gt;Node5 -->
<g id="edge19" class="edge"><title>Node11&#45;&gt;Node5</title>
<path fill="none" stroke="midnightblue" d="M436.663,-180.226C432.95,-160.53 423.883,-112.437 418.843,-85.7004"/>
<polygon fill="midnightblue" stroke="midnightblue" points="422.248,-84.8729 416.956,-75.6944 415.37,-86.1698 422.248,-84.8729"/>
</g>
<!-- Node11&#45;&gt;Node6 -->
<g id="edge20" class="edge"><title>Node11&#45;&gt;Node6</title>
<path fill="none" stroke="midnightblue" d="M429.721,-180.403C420.453,-171.136 405.5,-156.183 394.105,-144.788"/>
<polygon fill="midnightblue" stroke="midnightblue" points="396.444,-142.177 386.898,-137.581 391.494,-147.127 396.444,-142.177"/>
</g>
<!-- Node11&#45;&gt;Node7 -->
<g id="edge21" class="edge"><title>Node11&#45;&gt;Node7</title>
<path fill="none" stroke="midnightblue" d="M451.115,-180.421C481.977,-159.734 560.759,-106.923 598.936,-81.3321"/>
<polygon fill="midnightblue" stroke="midnightblue" points="600.932,-84.208 607.29,-75.7326 597.034,-78.3935 600.932,-84.208"/>
</g>
<!-- Node11&#45;&gt;Node12 -->
<g id="edge22" class="edge"><title>Node11&#45;&gt;Node12</title>
<path fill="none" stroke="midnightblue" d="M412.098,-180.403C380.299,-169.978 326.552,-152.356 291,-140.699"/>
<polygon fill="midnightblue" stroke="midnightblue" points="292.081,-137.37 281.488,-137.581 289.9,-144.022 292.081,-137.37"/>
</g>
<!-- Node11&#45;&gt;Node17 -->
<g id="edge32" class="edge"><title>Node11&#45;&gt;Node17</title>
<path fill="none" stroke="midnightblue" d="M464.393,-180.403C495.883,-170.022 549.015,-152.506 584.375,-140.849"/>
<polygon fill="midnightblue" stroke="midnightblue" points="585.888,-144.036 594.289,-137.581 583.696,-137.388 585.888,-144.036"/>
</g>
<!-- Node12&#45;&gt;Node1 -->
<g id="edge23" class="edge"><title>Node12&#45;&gt;Node1</title>
<path fill="none" stroke="midnightblue" d="M270.897,-118.273C302.667,-100.499 372.908,-61.3239 384.317,-56 411.208,-43.4518 442.642,-31.4125 466,-22.9494"/>
<polygon fill="midnightblue" stroke="midnightblue" points="467.247,-26.2204 475.479,-19.5503 464.885,-19.6312 467.247,-26.2204"/>
</g>
<!-- Node12&#45;&gt;Node3 -->
<g id="edge24" class="edge"><title>Node12&#45;&gt;Node3</title>
<path fill="none" stroke="midnightblue" d="M229.957,-118.403C197.472,-107.391 141.302,-88.351 107.202,-76.7916"/>
<polygon fill="midnightblue" stroke="midnightblue" points="107.973,-73.3573 97.3787,-73.4616 105.726,-79.9867 107.973,-73.3573"/>
</g>
<!-- Node12&#45;&gt;Node4 -->
<g id="edge25" class="edge"><title>Node12&#45;&gt;Node4</title>
<path fill="none" stroke="midnightblue" d="M239.843,-118.403C222.039,-108.512 192.577,-92.1442 171.685,-80.5378"/>
<polygon fill="midnightblue" stroke="midnightblue" points="173.204,-77.3775 162.762,-75.5806 169.804,-83.4966 173.204,-77.3775"/>
</g>
<!-- Node12&#45;&gt;Node5 -->
<g id="edge27" class="edge"><title>Node12&#45;&gt;Node5</title>
<path fill="none" stroke="midnightblue" d="M278.241,-118.403C305.921,-108.024 352.621,-90.5109 383.707,-78.8537"/>
<polygon fill="midnightblue" stroke="midnightblue" points="385.073,-82.0795 393.208,-75.2911 382.615,-75.5252 385.073,-82.0795"/>
</g>
<!-- Node12&#45;&gt;Node7 -->
<g id="edge28" class="edge"><title>Node12&#45;&gt;Node7</title>
<path fill="none" stroke="midnightblue" d="M301.175,-119.462C375.537,-107.238 520.719,-83.3723 586.492,-72.5604"/>
<polygon fill="midnightblue" stroke="midnightblue" points="587.412,-75.9561 596.712,-70.8803 586.277,-69.0488 587.412,-75.9561"/>
</g>
<!-- Node13 -->
<g id="node14" class="node"><title>Node13</title>
<polygon fill="white" stroke="#bfbfbf" points="195.817,-56.5 195.817,-75.5 252.817,-75.5 252.817,-56.5 195.817,-56.5"/>
<text text-anchor="middle" x="224.317" y="-63.5" font-family="Helvetica,sans-Serif" font-size="10.00">ostream</text>
</g>
<!-- Node12&#45;&gt;Node13 -->
<g id="edge26" class="edge"><title>Node12&#45;&gt;Node13</title>
<path fill="none" stroke="midnightblue" d="M250.876,-118.403C246.364,-109.671 239.243,-95.8893 233.51,-84.7936"/>
<polygon fill="midnightblue" stroke="midnightblue" points="236.45,-82.8583 228.75,-75.5806 230.231,-86.0714 236.45,-82.8583"/>
</g>
<!-- Node14 -->
<g id="node15" class="node"><title>Node14</title>
<g id="a_node15"><a xlink:href="errors_8hpp.html" target="_top" xlink:title="Declarations of the playd Error exception set. ">
<polygon fill="white" stroke="black" points="271.317,-56.5 271.317,-75.5 337.317,-75.5 337.317,-56.5 271.317,-56.5"/>
<text text-anchor="middle" x="304.317" y="-63.5" font-family="Helvetica,sans-Serif" font-size="10.00">errors.hpp</text>
</a>
</g>
</g>
<!-- Node12&#45;&gt;Node14 -->
<g id="edge29" class="edge"><title>Node12&#45;&gt;Node14</title>
<path fill="none" stroke="midnightblue" d="M262.338,-118.403C269.76,-109.314 281.65,-94.7559 290.884,-83.4489"/>
<polygon fill="midnightblue" stroke="midnightblue" points="293.695,-85.5398 297.31,-75.5806 288.273,-81.1121 293.695,-85.5398"/>
</g>
<!-- Node15 -->
<g id="node16" class="node"><title>Node15</title>
<polygon fill="white" stroke="#bfbfbf" points="312.817,-0.5 312.817,-19.5 371.817,-19.5 371.817,-0.5 312.817,-0.5"/>
<text text-anchor="middle" x="342.317" y="-7.5" font-family="Helvetica,sans-Serif" font-size="10.00">iostream</text>
</g>
<!-- Node14&#45;&gt;Node15 -->
<g id="edge30" class="edge"><title>Node14&#45;&gt;Node15</title>
<path fill="none" stroke="midnightblue" d="M310.592,-56.083C315.96,-48.4554 323.835,-37.2645 330.396,-27.9408"/>
<polygon fill="midnightblue" stroke="midnightblue" points="333.266,-29.9434 336.159,-19.7511 327.542,-25.9149 333.266,-29.9434"/>
</g>
<!-- Node16 -->
<g id="node17" class="node"><title>Node16</title>
<polygon fill="white" stroke="#bfbfbf" points="238.317,-0.5 238.317,-19.5 294.317,-19.5 294.317,-0.5 238.317,-0.5"/>
<text text-anchor="middle" x="266.317" y="-7.5" font-family="Helvetica,sans-Serif" font-size="10.00">sstream</text>
</g>
<!-- Node14&#45;&gt;Node16 -->
<g id="edge31" class="edge"><title>Node14&#45;&gt;Node16</title>
<path fill="none" stroke="midnightblue" d="M298.042,-56.083C292.675,-48.4554 284.8,-37.2645 278.238,-27.9408"/>
<polygon fill="midnightblue" stroke="midnightblue" points="281.093,-25.9149 272.475,-19.7511 275.368,-29.9434 281.093,-25.9149"/>
</g>
<!-- Node17&#45;&gt;Node1 -->
<g id="edge33" class="edge"><title>Node17&#45;&gt;Node1</title>
<path fill="none" stroke="midnightblue" d="M611.298,-118.281C591.132,-98.788 542.164,-51.4517 516.546,-26.6879"/>
<polygon fill="midnightblue" stroke="midnightblue" points="518.738,-23.9386 509.115,-19.5048 513.872,-28.9715 518.738,-23.9386"/>
</g>
<!-- Node17&#45;&gt;Node5 -->
<g id="edge34" class="edge"><title>Node17&#45;&gt;Node5</title>
<path fill="none" stroke="midnightblue" d="M590.946,-118.403C552.753,-107.225 486.297,-87.7747 447.002,-76.2736"/>
<polygon fill="midnightblue" stroke="midnightblue" points="447.975,-72.9115 437.394,-73.4616 446.008,-79.6297 447.975,-72.9115"/>
</g>
<!-- Node17&#45;&gt;Node7 -->
<g id="edge35" class="edge"><title>Node17&#45;&gt;Node7</title>
<path fill="none" stroke="midnightblue" d="M620.317,-118.403C620.317,-109.938 620.317,-96.7283 620.317,-85.8199"/>
<polygon fill="midnightblue" stroke="midnightblue" points="623.817,-85.5806 620.317,-75.5806 616.817,-85.5806 623.817,-85.5806"/>
</g>
<!-- Node17&#45;&gt;Node14 -->
<g id="edge36" class="edge"><title>Node17&#45;&gt;Node14</title>
<path fill="none" stroke="midnightblue" d="M575.378,-118.467C514.652,-106.937 407.135,-86.5224 347.387,-75.1779"/>
<polygon fill="midnightblue" stroke="midnightblue" points="347.993,-71.7305 337.516,-73.3036 346.687,-78.6076 347.993,-71.7305"/>
</g>
<!-- Node17&#45;&gt;Node18 -->
<g id="edge37" class="edge"><title>Node17&#45;&gt;Node18</title>
<path fill="none" stroke="midnightblue" d="M668.243,-118.467C729.132,-107.626 834.133,-88.9318 899.43,-77.3062"/>
<polygon fill="midnightblue" stroke="midnightblue" points="900.325,-80.7021 909.556,-75.5034 899.098,-73.8105 900.325,-80.7021"/>
</g>
<!-- Node18&#45;&gt;Node1 -->
<g id="edge39" class="edge"><title>Node18&#45;&gt;Node1</title>
<path fill="none" stroke="midnightblue" d="M899.163,-57.6903C894.479,-57.1138 889.819,-56.5445 885.317,-56 756.266,-40.3926 602.766,-22.7176 535.189,-14.9813"/>
<polygon fill="midnightblue" stroke="midnightblue" points="535.431,-11.4863 525.098,-13.8269 534.635,-18.4409 535.431,-11.4863"/>
</g>
<!-- Node18&#45;&gt;Node9 -->
<g id="edge38" class="edge"><title>Node18&#45;&gt;Node9</title>
<path fill="none" stroke="midnightblue" d="M964.418,-56.083C970.554,-48.3768 979.587,-37.0333 987.056,-27.6531"/>
<polygon fill="midnightblue" stroke="midnightblue" points="989.857,-29.7542 993.349,-19.7511 984.381,-25.3936 989.857,-29.7542"/>
</g>
<!-- Node20 -->
<g id="node21" class="node"><title>Node20</title>
<polygon fill="white" stroke="#bfbfbf" points="727.817,-113 727.817,-143 852.817,-143 852.817,-113 727.817,-113"/>
<text text-anchor="start" x="735.817" y="-131" font-family="Helvetica,sans-Serif" font-size="10.00">../contrib/pa_ringbuffer</text>
<text text-anchor="middle" x="790.317" y="-120" font-family="Helvetica,sans-Serif" font-size="10.00">/pa_ringbuffer.h</text>
</g>
<!-- Node19&#45;&gt;Node20 -->
<g id="edge42" class="edge"><title>Node19&#45;&gt;Node20</title>
<path fill="none" stroke="midnightblue" d="M790.317,-180.403C790.317,-173.341 790.317,-162.975 790.317,-153.399"/>
<polygon fill="midnightblue" stroke="midnightblue" points="793.817,-153.141 790.317,-143.141 786.817,-153.141 793.817,-153.141"/>
</g>
</g>
</svg>
        <g id="navigator" transform="translate(0 0)" fill="#404254">
                <rect fill="#f2f5e9" fill-opacity="0.5" stroke="#606060" stroke-width=".5" x="0" y="0" width="60" height="60"/>
                <use id="zoomplus" xlink:href="#zoomPlus" x="17" y="9" onmousedown="handleZoom(evt,'in')"/>
                <use id="zoomminus" xlink:href="#zoomMin" x="42" y="9" onmousedown="handleZoom(evt,'out')"/>
                <use id="reset" xlink:href="#resetDef" x="30" y="36" onmousedown="handleReset()"/>
                <g id="arrowUp" xlink:href="#dirArrow" transform="translate(30 24)" onmousedown="handlePan(0,-1)">
                  <use xlink:href="#rim" fill="#404040">
                        <set attributeName="fill" to="#808080" begin="arrowUp.mouseover" end="arrowUp.mouseout"/>
                  </use>
                  <path fill="none" stroke="white" stroke-width="1.5" d="M0,-3.0v7 M-2.5,-0.5L0,-3.0L2.5,-0.5"/>
                </g>
                <g id="arrowRight" xlink:href="#dirArrow" transform="rotate(90) translate(36 -43)" onmousedown="handlePan(1,0)">
                  <use xlink:href="#rim" fill="#404040">
                        <set attributeName="fill" to="#808080" begin="arrowRight.mouseover" end="arrowRight.mouseout"/>
                  </use>
                  <path fill="none" stroke="white" stroke-width="1.5" d="M0,-3.0v7 M-2.5,-0.5L0,-3.0L2.5,-0.5"/>
                </g>
                <g id="arrowDown" xlink:href="#dirArrow" transform="rotate(180) translate(-30 -48)" onmousedown="handlePan(0,1)">
                  <use xlink:href="#rim" fill="#404040">
                        <set attributeName="fill" to="#808080" begin="arrowDown.mouseover" end="arrowDown.mouseout"/>
                  </use>
                  <path fill="none" stroke="white" stroke-width="1.5" d="M0,-3.0v7 M-2.5,-0.5L0,-3.0L2.5,-0.5"/>
                </g>
                <g id="arrowLeft" xlink:href="#dirArrow" transform="rotate(270) translate(-36 17)" onmousedown="handlePan(-1,0)">
                  <use xlink:href="#rim" fill="#404040">
                        <set attributeName="fill" to="#808080" begin="arrowLeft.mouseover" end="arrowLeft.mouseout"/>
                  </use>
                  <path fill="none" stroke="white" stroke-width="1.5" d="M0,-3.0v7 M-2.5,-0.5L0,-3.0L2.5,-0.5"/>
                </g>
        </g>
        <svg viewBox="0 0 15 15" width="100%" height="30px" preserveAspectRatio="xMaxYMin meet">
         <g id="arrow_out" transform="scale(0.3 0.3)">
          <a xlink:href="player_8hpp__incl_org.svg" target="_base">
           <rect id="button" ry="5" rx="5" y="6" x="6" height="38" width="38"
                fill="#f2f5e9" fill-opacity="0.5" stroke="#606060" stroke-width="1.0"/>
           <path id="arrow"
             d="M 11.500037,31.436501 C 11.940474,20.09759 22.043105,11.32322 32.158766,21.979434 L 37.068811,17.246167 C 37.068811,17.246167 37.088388,32 37.088388,32 L 22.160133,31.978069 C 22.160133,31.978069 26.997745,27.140456 26.997745,27.140456 C 18.528582,18.264221 13.291696,25.230495 11.500037,31.436501 z"
             style="fill:#404040;"/>
          </a>
         </g>
        </svg>
</svg>
