<?xml version="1.0" encoding="UTF-8" standalone="no"?>
<!DOCTYPE svg PUBLIC "-//W3C//DTD SVG 1.1//EN"
 "http://www.w3.org/Graphics/SVG/1.1/DTD/svg11.dtd">
<!-- Generated by graphviz version 2.38.0 (20140413.2041)
 -->
<!-- Title: src/player/player.hpp Pages: 1 -->
<!--zoomable 308 -->
<svg id="main" version="1.1" xmlns="http://www.w3.org/2000/svg" xmlns:xlink="http://www.w3.org/1999/xlink" xml:space="preserve" onload="init(evt)">
<style type="text/css"><![CDATA[
.edge:hover path { stroke: red; }
.edge:hover polygon { stroke: red; fill: red; }
]]></style>
<script type="text/javascript"><![CDATA[
var edges = document.getElementsByTagName('g');
if (edges && edges.length) {
  for (var i=0;i<edges.length;i++) {
    if (edges[i].id.substr(0,4)=='edge') {
      edges[i].setAttribute('class','edge');
    }
  }
}
]]></script>
        <defs>
                <circle id="rim" cx="0" cy="0" r="7"/>
                <circle id="rim2" cx="0" cy="0" r="3.5"/>
                <g id="zoomPlus">
                        <use xlink:href="#rim" fill="#404040">
                                <set attributeName="fill" to="#808080" begin="zoomplus.mouseover" end="zoomplus.mouseout"/>
                        </use>
                        <path d="M-4,0h8M0,-4v8" fill="none" stroke="white" stroke-width="1.5" pointer-events="none"/>
                </g>
                <g id="zoomMin">
                        <use xlink:href="#rim" fill="#404040">
                                <set attributeName="fill" to="#808080" begin="zoomminus.mouseover" end="zoomminus.mouseout"/>
                        </use>
                        <path d="M-4,0h8" fill="none" stroke="white" stroke-width="1.5" pointer-events="none"/>
                </g>
                <g id="dirArrow">
                        <path fill="none" stroke="white" stroke-width="1.5" d="M0,-3.0v7 M-2.5,-0.5L0,-3.0L2.5,-0.5"/>
                </g>
               <g id="resetDef">
                       <use xlink:href="#rim2" fill="#404040">
                               <set attributeName="fill" to="#808080" begin="reset.mouseover" end="reset.mouseout"/>
                       </use>
               </g>
        </defs>

<script type="text/javascript">
var viewWidth = 939;
var viewHeight = 308;
var sectionId = 'dynsection-1';
</script>
<script xlink:href="svgpan.js"/>
<svg id="graph" class="graph">
<g id="viewport">
<title>src/player/player.hpp</title>
<polygon fill="white" stroke="none" points="-4,4 -4,-304 934.5,-304 934.5,4 -4,4"/>
<!-- Node1 -->
<g id="node1" class="node"><title>Node1</title>
<polygon fill="#bfbfbf" stroke="black" points="370.5,-280.5 370.5,-299.5 486.5,-299.5 486.5,-280.5 370.5,-280.5"/>
<text text-anchor="middle" x="428.5" y="-287.5" font-family="Helvetica,sans-Serif" font-size="10.00">src/player/player.hpp</text>
</g>
<!-- Node2 -->
<g id="node2" class="node"><title>Node2</title>
<g id="a_node2"><a xlink:href="cmd_8hpp.html" target="_top" xlink:title="Declaration of the CommandHandler class. ">
<polygon fill="white" stroke="black" points="196.5,-224.5 196.5,-243.5 272.5,-243.5 272.5,-224.5 196.5,-224.5"/>
<text text-anchor="middle" x="234.5" y="-231.5" font-family="Helvetica,sans-Serif" font-size="10.00">src/cmd.hpp</text>
</a>
</g>
</g>
<!-- Node1&#45;&gt;Node2 -->
<g id="edge1" class="edge"><title>Node1&#45;&gt;Node2</title>
<path fill="none" stroke="midnightblue" d="M387.899,-277.699C351.285,-267.507 298.243,-252.743 265.096,-243.516"/>
<polygon fill="midnightblue" stroke="midnightblue" points="387.188,-281.134 397.76,-280.444 389.065,-274.39 387.188,-281.134"/>
</g>
<!-- Node4 -->
<g id="node4" class="node"><title>Node4</title>
<g id="a_node4"><a xlink:href="io__core_8cpp.html" target="_top" xlink:title="Implementation of the non&#45;virtual aspects of the IoCore class. ">
<polygon fill="white" stroke="black" points="281.5,-56.5 281.5,-75.5 381.5,-75.5 381.5,-56.5 281.5,-56.5"/>
<text text-anchor="middle" x="331.5" y="-63.5" font-family="Helvetica,sans-Serif" font-size="10.00">src/io/io_core.cpp</text>
</a>
</g>
</g>
<!-- Node1&#45;&gt;Node4 -->
<g id="edge16" class="edge"><title>Node1&#45;&gt;Node4</title>
<path fill="none" stroke="midnightblue" d="M420.579,-270.872C400.81,-225.627 349.848,-108.993 335.382,-75.8837"/>
<polygon fill="midnightblue" stroke="midnightblue" points="417.486,-272.535 424.697,-280.297 423.901,-269.732 417.486,-272.535"/>
</g>
<!-- Node5 -->
<g id="node5" class="node"><title>Node5</title>
<g id="a_node5"><a xlink:href="io__core_8hpp.html" target="_top" xlink:title="Declaration of the IoCore class. ">
<polygon fill="white" stroke="black" points="26,-112.5 26,-131.5 127,-131.5 127,-112.5 26,-112.5"/>
<text text-anchor="middle" x="76.5" y="-119.5" font-family="Helvetica,sans-Serif" font-size="10.00">src/io/io_core.hpp</text>
</a>
</g>
</g>
<!-- Node1&#45;&gt;Node5 -->
<g id="edge17" class="edge"><title>Node1&#45;&gt;Node5</title>
<path fill="none" stroke="midnightblue" d="M360.383,-281.558C260.317,-268.986 81.6067,-239.717 46.5,-188 33.9352,-169.49 53.8712,-144.875 66.8156,-131.891"/>
<polygon fill="midnightblue" stroke="midnightblue" points="360.052,-285.044 370.405,-282.795 360.909,-278.096 360.052,-285.044"/>
</g>
<!-- Node6 -->
<g id="node6" class="node"><title>Node6</title>
<g id="a_node6"><a xlink:href="main_8cpp.html" target="_top" xlink:title="Main entry point and implementation of the playd class. ">
<polygon fill="white" stroke="black" points="221.5,-0.5 221.5,-19.5 299.5,-19.5 299.5,-0.5 221.5,-0.5"/>
<text text-anchor="middle" x="260.5" y="-7.5" font-family="Helvetica,sans-Serif" font-size="10.00">src/main.cpp</text>
</a>
</g>
</g>
<!-- Node1&#45;&gt;Node6 -->
<g id="edge18" class="edge"><title>Node1&#45;&gt;Node6</title>
<path fill="none" stroke="midnightblue" d="M433.716,-270.39C439.341,-248.65 447.5,-211.511 447.5,-179 447.5,-179 447.5,-179 447.5,-121 447.5,-53.0136 354.536,-26.2138 299.701,-16.3194"/>
<polygon fill="midnightblue" stroke="midnightblue" points="430.282,-269.683 431.062,-280.249 437.041,-271.502 430.282,-269.683"/>
</g>
<!-- Node7 -->
<g id="node7" class="node"><title>Node7</title>
<g id="a_node7"><a xlink:href="main_8hpp.html" target="_top" xlink:title="Declaration of the playd class. ">
<polygon fill="white" stroke="black" points="0,-56.5 0,-75.5 79,-75.5 79,-56.5 0,-56.5"/>
<text text-anchor="middle" x="39.5" y="-63.5" font-family="Helvetica,sans-Serif" font-size="10.00">src/main.hpp</text>
</a>
</g>
</g>
<!-- Node1&#45;&gt;Node7 -->
<g id="edge19" class="edge"><title>Node1&#45;&gt;Node7</title>
<path fill="none" stroke="midnightblue" d="M360.176,-284.344C278.177,-277.937 146.136,-264.778 101.5,-244 43.3542,-216.933 25.678,-194.315 10.5,-132 8.39645,-123.364 7.99033,-120.527 10.5,-112 14.6461,-97.9125 24.7211,-84.0728 31.8271,-75.5413"/>
<polygon fill="midnightblue" stroke="midnightblue" points="359.927,-287.835 370.166,-285.11 360.463,-280.855 359.927,-287.835"/>
</g>
<!-- Node10 -->
<g id="node10" class="node"><title>Node10</title>
<g id="a_node10"><a xlink:href="player_8cpp.html" target="_top" xlink:title="Main implementation file for the Player class. ">
<polygon fill="white" stroke="black" points="476,-224.5 476,-243.5 591,-243.5 591,-224.5 476,-224.5"/>
<text text-anchor="middle" x="533.5" y="-231.5" font-family="Helvetica,sans-Serif" font-size="10.00">src/player/player.cpp</text>
</a>
</g>
</g>
<!-- Node1&#45;&gt;Node10 -->
<g id="edge20" class="edge"><title>Node1&#45;&gt;Node10</title>
<path fill="none" stroke="midnightblue" d="M454.31,-275.726C473.753,-265.727 499.848,-252.307 516.672,-243.655"/>
<polygon fill="midnightblue" stroke="midnightblue" points="452.662,-272.638 445.37,-280.324 455.864,-278.863 452.662,-272.638"/>
</g>
<!-- Node11 -->
<g id="node11" class="node"><title>Node11</title>
<g id="a_node11"><a xlink:href="player__position_8cpp.html" target="_top" xlink:title="Implementation of the PlayerPosition class, and related Player methods. ">
<polygon fill="white" stroke="black" points="608.5,-224.5 608.5,-243.5 766.5,-243.5 766.5,-224.5 608.5,-224.5"/>
<text text-anchor="middle" x="687.5" y="-231.5" font-family="Helvetica,sans-Serif" font-size="10.00">src/player/player_position.cpp</text>
</a>
</g>
</g>
<!-- Node1&#45;&gt;Node11 -->
<g id="edge21" class="edge"><title>Node1&#45;&gt;Node11</title>
<path fill="none" stroke="midnightblue" d="M479.602,-278.346C528.548,-268.141 601.454,-252.94 646.653,-243.516"/>
<polygon fill="midnightblue" stroke="midnightblue" points="478.614,-274.976 469.539,-280.444 480.043,-281.829 478.614,-274.976"/>
</g>
<!-- Node12 -->
<g id="node12" class="node"><title>Node12</title>
<g id="a_node12"><a xlink:href="player__state_8cpp.html" target="_top" xlink:title="Implementation of the PlayerState class, and related Player methods. ">
<polygon fill="white" stroke="black" points="784.5,-224.5 784.5,-243.5 930.5,-243.5 930.5,-224.5 784.5,-224.5"/>
<text text-anchor="middle" x="857.5" y="-231.5" font-family="Helvetica,sans-Serif" font-size="10.00">src/player/player_state.cpp</text>
</a>
</g>
</g>
<!-- Node1&#45;&gt;Node12 -->
<g id="edge22" class="edge"><title>Node1&#45;&gt;Node12</title>
<path fill="none" stroke="midnightblue" d="M496.817,-280.401C577.159,-270.288 709.693,-253.605 789.777,-243.525"/>
<polygon fill="midnightblue" stroke="midnightblue" points="496.288,-276.94 486.803,-281.661 497.162,-283.885 496.288,-276.94"/>
</g>
<!-- Node3 -->
<g id="node3" class="node"><title>Node3</title>
<g id="a_node3"><a xlink:href="cmd_8cpp.html" target="_top" xlink:title="Implementation of the CommandHandler class. ">
<polygon fill="white" stroke="black" points="230,-168.5 230,-187.5 305,-187.5 305,-168.5 230,-168.5"/>
<text text-anchor="middle" x="267.5" y="-175.5" font-family="Helvetica,sans-Serif" font-size="10.00">src/cmd.cpp</text>
</a>
</g>
</g>
<!-- Node2&#45;&gt;Node3 -->
<g id="edge2" class="edge"><title>Node2&#45;&gt;Node3</title>
<path fill="none" stroke="midnightblue" d="M245.332,-215.275C250.972,-206.045 257.618,-195.17 262.152,-187.751"/>
<polygon fill="midnightblue" stroke="midnightblue" points="242.177,-213.725 239.949,-224.083 248.15,-217.375 242.177,-213.725"/>
</g>
<!-- Node2&#45;&gt;Node4 -->
<g id="edge3" class="edge"><title>Node2&#45;&gt;Node4</title>
<path fill="none" stroke="midnightblue" d="M271.295,-220.425C286.718,-213.294 303.383,-202.776 313.5,-188 337.976,-152.25 334.874,-96.6405 332.603,-75.524"/>
<polygon fill="midnightblue" stroke="midnightblue" points="269.739,-217.284 261.922,-224.436 272.492,-223.72 269.739,-217.284"/>
</g>
<!-- Node2&#45;&gt;Node5 -->
<g id="edge4" class="edge"><title>Node2&#45;&gt;Node5</title>
<path fill="none" stroke="midnightblue" d="M186.104,-227.585C138.462,-221.139 70.5675,-208.579 54.5,-188 41.1562,-170.91 57.9051,-145.267 68.7031,-131.87"/>
<polygon fill="midnightblue" stroke="midnightblue" points="185.867,-231.084 196.235,-228.906 186.772,-224.142 185.867,-231.084"/>
</g>
<!-- Node2&#45;&gt;Node6 -->
<g id="edge14" class="edge"><title>Node2&#45;&gt;Node6</title>
<path fill="none" stroke="midnightblue" d="M275.53,-221.072C294.624,-213.911 316.579,-203.184 332.5,-188 373.065,-149.312 377.234,-130.464 390.5,-76 392.604,-67.3636 395.656,-63.2408 390.5,-56 370.066,-27.3037 330.023,-16.7366 299.75,-12.934"/>
<polygon fill="midnightblue" stroke="midnightblue" points="274.112,-217.861 265.853,-224.497 276.447,-224.46 274.112,-217.861"/>
</g>
<!-- Node2&#45;&gt;Node7 -->
<g id="edge15" class="edge"><title>Node2&#45;&gt;Node7</title>
<path fill="none" stroke="midnightblue" d="M186.343,-232.158C145.326,-229.131 86.8008,-219.082 46.5,-188 17.7447,-165.822 8.00043,-147.305 16.5,-112 19.7446,-98.5225 27.7453,-84.5398 33.3954,-75.8095"/>
<polygon fill="midnightblue" stroke="midnightblue" points="186.173,-235.654 196.372,-232.785 186.609,-228.668 186.173,-235.654"/>
</g>
<!-- Node8 -->
<g id="node8" class="node"><title>Node8</title>
<g id="a_node8"><a xlink:href="tokeniser_8hpp.html" target="_top" xlink:title="Declaration of the Tokeniser class. ">
<polygon fill="white" stroke="black" points="63.5,-168.5 63.5,-187.5 173.5,-187.5 173.5,-168.5 63.5,-168.5"/>
<text text-anchor="middle" x="118.5" y="-175.5" font-family="Helvetica,sans-Serif" font-size="10.00">src/io/tokeniser.hpp</text>
</a>
</g>
</g>
<!-- Node2&#45;&gt;Node8 -->
<g id="edge10" class="edge"><title>Node2&#45;&gt;Node8</title>
<path fill="none" stroke="midnightblue" d="M206.78,-220.096C185.108,-210.007 155.598,-196.27 136.795,-187.516"/>
<polygon fill="midnightblue" stroke="midnightblue" points="205.577,-223.396 216.119,-224.444 208.531,-217.05 205.577,-223.396"/>
</g>
<!-- Node9 -->
<g id="node9" class="node"><title>Node9</title>
<g id="a_node9"><a xlink:href="tokeniser_8cpp.html" target="_top" xlink:title="Definition of the Tokeniser class. ">
<polygon fill="white" stroke="black" points="163,-112.5 163,-131.5 272,-131.5 272,-112.5 163,-112.5"/>
<text text-anchor="middle" x="217.5" y="-119.5" font-family="Helvetica,sans-Serif" font-size="10.00">src/io/tokeniser.cpp</text>
</a>
</g>
</g>
<!-- Node2&#45;&gt;Node9 -->
<g id="edge13" class="edge"><title>Node2&#45;&gt;Node9</title>
<path fill="none" stroke="midnightblue" d="M227.644,-214.707C224.925,-206.637 222.075,-196.965 220.5,-188 217.021,-168.195 216.93,-144.506 217.197,-131.91"/>
<polygon fill="midnightblue" stroke="midnightblue" points="224.373,-215.955 231.026,-224.201 230.967,-213.607 224.373,-215.955"/>
</g>
<!-- Node5&#45;&gt;Node4 -->
<g id="edge5" class="edge"><title>Node5&#45;&gt;Node4</title>
<path fill="none" stroke="midnightblue" d="M126.812,-110.346C175.003,-100.141 246.783,-84.94 291.284,-75.5164"/>
<polygon fill="midnightblue" stroke="midnightblue" points="125.963,-106.948 116.906,-112.444 127.414,-113.796 125.963,-106.948"/>
</g>
<!-- Node5&#45;&gt;Node5 -->
<g id="edge6" class="edge"><title>Node5&#45;&gt;Node5</title>
<path fill="none" stroke="midnightblue" d="M115.818,-132.432C131.673,-133.04 145,-129.563 145,-122 145,-112.867 125.566,-109.692 105.715,-112.475"/>
<polygon fill="midnightblue" stroke="midnightblue" points="115.988,-128.933 105.715,-131.525 115.362,-135.905 115.988,-128.933"/>
</g>
<!-- Node5&#45;&gt;Node6 -->
<g id="edge7" class="edge"><title>Node5&#45;&gt;Node6</title>
<path fill="none" stroke="midnightblue" d="M99.9035,-107.009C138.526,-83.919 214.483,-38.5104 246.129,-19.5914"/>
<polygon fill="midnightblue" stroke="midnightblue" points="97.7254,-104.233 90.9382,-112.368 101.317,-110.241 97.7254,-104.233"/>
</g>
<!-- Node5&#45;&gt;Node7 -->
<g id="edge8" class="edge"><title>Node5&#45;&gt;Node7</title>
<path fill="none" stroke="midnightblue" d="M64.5542,-103.566C58.1883,-94.2747 50.6332,-83.2484 45.4961,-75.7511"/>
<polygon fill="midnightblue" stroke="midnightblue" points="61.8506,-105.812 70.3902,-112.083 67.6251,-101.855 61.8506,-105.812"/>
</g>
<!-- Node7&#45;&gt;Node6 -->
<g id="edge9" class="edge"><title>Node7&#45;&gt;Node6</title>
<path fill="none" stroke="midnightblue" d="M84.4214,-54.0237C126.168,-43.8232 187.482,-28.8414 225.646,-19.5164"/>
<polygon fill="midnightblue" stroke="midnightblue" points="83.4015,-50.6699 74.5181,-56.4435 85.0631,-57.4698 83.4015,-50.6699"/>
</g>
<!-- Node8&#45;&gt;Node5 -->
<g id="edge11" class="edge"><title>Node8&#45;&gt;Node5</title>
<path fill="none" stroke="midnightblue" d="M105.39,-160.144C98.0722,-150.736 89.2591,-139.405 83.3064,-131.751"/>
<polygon fill="midnightblue" stroke="midnightblue" points="102.662,-162.338 111.565,-168.083 108.188,-158.041 102.662,-162.338"/>
</g>
<!-- Node8&#45;&gt;Node9 -->
<g id="edge12" class="edge"><title>Node8&#45;&gt;Node9</title>
<path fill="none" stroke="midnightblue" d="M143.337,-163.453C161.614,-153.483 185.916,-140.228 201.633,-131.655"/>
<polygon fill="midnightblue" stroke="midnightblue" points="141.509,-160.463 134.406,-168.324 144.861,-166.608 141.509,-160.463"/>
</g>
</g>
</svg>
        <g id="navigator" transform="translate(0 0)" fill="#404254">
                <rect fill="#f2f5e9" fill-opacity="0.5" stroke="#606060" stroke-width=".5" x="0" y="0" width="60" height="60"/>
                <use id="zoomplus" xlink:href="#zoomPlus" x="17" y="9" onmousedown="handleZoom(evt,'in')"/>
                <use id="zoomminus" xlink:href="#zoomMin" x="42" y="9" onmousedown="handleZoom(evt,'out')"/>
                <use id="reset" xlink:href="#resetDef" x="30" y="36" onmousedown="handleReset()"/>
                <g id="arrowUp" xlink:href="#dirArrow" transform="translate(30 24)" onmousedown="handlePan(0,-1)">
                  <use xlink:href="#rim" fill="#404040">
                        <set attributeName="fill" to="#808080" begin="arrowUp.mouseover" end="arrowUp.mouseout"/>
                  </use>
                  <path fill="none" stroke="white" stroke-width="1.5" d="M0,-3.0v7 M-2.5,-0.5L0,-3.0L2.5,-0.5"/>
                </g>
                <g id="arrowRight" xlink:href="#dirArrow" transform="rotate(90) translate(36 -43)" onmousedown="handlePan(1,0)">
                  <use xlink:href="#rim" fill="#404040">
                        <set attributeName="fill" to="#808080" begin="arrowRight.mouseover" end="arrowRight.mouseout"/>
                  </use>
                  <path fill="none" stroke="white" stroke-width="1.5" d="M0,-3.0v7 M-2.5,-0.5L0,-3.0L2.5,-0.5"/>
                </g>
                <g id="arrowDown" xlink:href="#dirArrow" transform="rotate(180) translate(-30 -48)" onmousedown="handlePan(0,1)">
                  <use xlink:href="#rim" fill="#404040">
                        <set attributeName="fill" to="#808080" begin="arrowDown.mouseover" end="arrowDown.mouseout"/>
                  </use>
                  <path fill="none" stroke="white" stroke-width="1.5" d="M0,-3.0v7 M-2.5,-0.5L0,-3.0L2.5,-0.5"/>
                </g>
                <g id="arrowLeft" xlink:href="#dirArrow" transform="rotate(270) translate(-36 17)" onmousedown="handlePan(-1,0)">
                  <use xlink:href="#rim" fill="#404040">
                        <set attributeName="fill" to="#808080" begin="arrowLeft.mouseover" end="arrowLeft.mouseout"/>
                  </use>
                  <path fill="none" stroke="white" stroke-width="1.5" d="M0,-3.0v7 M-2.5,-0.5L0,-3.0L2.5,-0.5"/>
                </g>
        </g>
        <svg viewBox="0 0 15 15" width="100%" height="30px" preserveAspectRatio="xMaxYMin meet">
         <g id="arrow_out" transform="scale(0.3 0.3)">
          <a xlink:href="player_8hpp__dep__incl_org.svg" target="_base">
           <rect id="button" ry="5" rx="5" y="6" x="6" height="38" width="38"
                fill="#f2f5e9" fill-opacity="0.5" stroke="#606060" stroke-width="1.0"/>
           <path id="arrow"
             d="M 11.500037,31.436501 C 11.940474,20.09759 22.043105,11.32322 32.158766,21.979434 L 37.068811,17.246167 C 37.068811,17.246167 37.088388,32 37.088388,32 L 22.160133,31.978069 C 22.160133,31.978069 26.997745,27.140456 26.997745,27.140456 C 18.528582,18.264221 13.291696,25.230495 11.500037,31.436501 z"
             style="fill:#404040;"/>
          </a>
         </g>
        </svg>
</svg>
