<?xml version="1.0" encoding="UTF-8" standalone="no"?>
<!DOCTYPE svg PUBLIC "-//W3C//DTD SVG 1.1//EN"
 "http://www.w3.org/Graphics/SVG/1.1/DTD/svg11.dtd">
<!-- Generated by graphviz version 2.38.0 (20140413.2041)
 -->
<!-- Title: src/player/player.cpp Pages: 1 -->
<svg width="1944pt" height="431pt"
 viewBox="0.00 0.00 1943.98 431.00" xmlns="http://www.w3.org/2000/svg" xmlns:xlink="http://www.w3.org/1999/xlink">
<g id="graph0" class="graph" transform="scale(1 1) rotate(0) translate(4 427)">
<title>src/player/player.cpp</title>
<polygon fill="white" stroke="none" points="-4,4 -4,-427 1939.98,-427 1939.98,4 -4,4"/>
<!-- Node1 -->
<g id="node1" class="node"><title>Node1</title>
<polygon fill="#bfbfbf" stroke="black" points="422.5,-403.5 422.5,-422.5 537.5,-422.5 537.5,-403.5 422.5,-403.5"/>
<text text-anchor="middle" x="480" y="-410.5" font-family="Helvetica,sans-Serif" font-size="10.00">src/player/player.cpp</text>
</g>
<!-- Node2 -->
<g id="node2" class="node"><title>Node2</title>
<polygon fill="white" stroke="#bfbfbf" points="510,-62 510,-81 562,-81 562,-62 510,-62"/>
<text text-anchor="middle" x="536" y="-69" font-family="Helvetica,sans-Serif" font-size="10.00">cassert</text>
</g>
<!-- Node1&#45;&gt;Node2 -->
<g id="edge1" class="edge"><title>Node1&#45;&gt;Node2</title>
<path fill="none" stroke="midnightblue" d="M448.977,-403.436C430.968,-396.694 409.769,-385.302 399,-367 369.249,-316.437 388.532,-292.725 399,-235 403.743,-208.845 405.136,-201.037 420,-179 446.121,-140.275 489.045,-105.802 514.708,-87.1552"/>
<polygon fill="midnightblue" stroke="midnightblue" points="516.898,-89.8926 523.01,-81.2384 512.835,-84.1922 516.898,-89.8926"/>
</g>
<!-- Node3 -->
<g id="node3" class="node"><title>Node3</title>
<polygon fill="white" stroke="#bfbfbf" points="0,-0.5 0,-19.5 56,-19.5 56,-0.5 0,-0.5"/>
<text text-anchor="middle" x="28" y="-7.5" font-family="Helvetica,sans-Serif" font-size="10.00">sstream</text>
</g>
<!-- Node1&#45;&gt;Node3 -->
<g id="edge2" class="edge"><title>Node1&#45;&gt;Node3</title>
<path fill="none" stroke="midnightblue" d="M422.443,-410.426C325.018,-406.977 132.319,-396.543 72,-367 35.8694,-349.304 9,-342.231 9,-302 9,-302 9,-302 9,-132 9,-95.2858 17.6425,-53.0556 23.2698,-29.4499"/>
<polygon fill="midnightblue" stroke="midnightblue" points="26.67,-30.2793 25.6702,-19.7318 19.8743,-28.6007 26.67,-30.2793"/>
</g>
<!-- Node4 -->
<g id="node4" class="node"><title>Node4</title>
<polygon fill="white" stroke="#bfbfbf" points="98,-347.5 98,-366.5 162,-366.5 162,-347.5 98,-347.5"/>
<text text-anchor="middle" x="130" y="-354.5" font-family="Helvetica,sans-Serif" font-size="10.00">stdexcept</text>
</g>
<!-- Node1&#45;&gt;Node4 -->
<g id="edge3" class="edge"><title>Node1&#45;&gt;Node4</title>
<path fill="none" stroke="midnightblue" d="M422.442,-404.288C361.213,-395.895 261.579,-381.698 176,-367 174.737,-366.783 173.455,-366.559 172.162,-366.329"/>
<polygon fill="midnightblue" stroke="midnightblue" points="172.604,-362.852 162.136,-364.484 171.337,-369.736 172.604,-362.852"/>
</g>
<!-- Node5 -->
<g id="node5" class="node"><title>Node5</title>
<polygon fill="white" stroke="#bfbfbf" points="568,-0.5 568,-19.5 612,-19.5 612,-0.5 568,-0.5"/>
<text text-anchor="middle" x="590" y="-7.5" font-family="Helvetica,sans-Serif" font-size="10.00">string</text>
</g>
<!-- Node1&#45;&gt;Node5 -->
<g id="edge4" class="edge"><title>Node1&#45;&gt;Node5</title>
<path fill="none" stroke="midnightblue" d="M449.207,-403.433C350.284,-375.012 47,-280.497 47,-190 47,-190 47,-190 47,-132 47,-95.8467 47.149,-77.7872 76,-56 114.443,-26.9693 451.202,-14.9532 557.794,-11.8554"/>
<polygon fill="midnightblue" stroke="midnightblue" points="558.044,-15.3498 567.941,-11.5675 557.846,-8.35266 558.044,-15.3498"/>
</g>
<!-- Node6 -->
<g id="node6" class="node"><title>Node6</title>
<polygon fill="white" stroke="#bfbfbf" points="619.5,-62 619.5,-81 666.5,-81 666.5,-62 619.5,-62"/>
<text text-anchor="middle" x="643" y="-69" font-family="Helvetica,sans-Serif" font-size="10.00">vector</text>
</g>
<!-- Node1&#45;&gt;Node6 -->
<g id="edge5" class="edge"><title>Node1&#45;&gt;Node6</title>
<path fill="none" stroke="midnightblue" d="M478.341,-403.271C472.755,-371.997 456.375,-262.959 482,-179 490.708,-150.468 495.933,-141.916 519,-123 545.616,-101.174 582.931,-87.7009 609.661,-80.2204"/>
<polygon fill="midnightblue" stroke="midnightblue" points="610.58,-83.5976 619.343,-77.6419 608.779,-76.8334 610.58,-83.5976"/>
</g>
<!-- Node7 -->
<g id="node7" class="node"><title>Node7</title>
<g id="a_node7"><a xlink:href="audio__system_8hpp.html" target="_top" xlink:title="Declaration of the AudioSystem class. ">
<polygon fill="white" stroke="black" points="1169.5,-235.5 1169.5,-254.5 1312.5,-254.5 1312.5,-235.5 1169.5,-235.5"/>
<text text-anchor="middle" x="1241" y="-242.5" font-family="Helvetica,sans-Serif" font-size="10.00">../audio/audio_system.hpp</text>
</a>
</g>
</g>
<!-- Node1&#45;&gt;Node7 -->
<g id="edge6" class="edge"><title>Node1&#45;&gt;Node7</title>
<path fill="none" stroke="midnightblue" d="M519.048,-403.482C646.566,-375.666 1050.67,-287.518 1191.79,-256.735"/>
<polygon fill="midnightblue" stroke="midnightblue" points="1192.86,-260.084 1201.88,-254.533 1191.36,-253.245 1192.86,-260.084"/>
</g>
<!-- Node20 -->
<g id="node20" class="node"><title>Node20</title>
<g id="a_node20"><a xlink:href="errors_8hpp.html" target="_top" xlink:title="Declarations of the playd Error exception set. ">
<polygon fill="white" stroke="black" points="85.5,-62 85.5,-81 160.5,-81 160.5,-62 85.5,-62"/>
<text text-anchor="middle" x="123" y="-69" font-family="Helvetica,sans-Serif" font-size="10.00">../errors.hpp</text>
</a>
</g>
</g>
<!-- Node1&#45;&gt;Node20 -->
<g id="edge62" class="edge"><title>Node1&#45;&gt;Node20</title>
<path fill="none" stroke="midnightblue" d="M422.191,-409.52C318.763,-404.485 110.769,-391.418 89,-367 17.2253,-286.491 85.7444,-140.444 112.964,-90.1083"/>
<polygon fill="midnightblue" stroke="midnightblue" points="116.159,-91.5641 117.943,-81.1204 110.036,-88.1723 116.159,-91.5641"/>
</g>
<!-- Node22 -->
<g id="node22" class="node"><title>Node22</title>
<g id="a_node22"><a xlink:href="time__parser_8hpp.html" target="_top" xlink:title="Declaration of the TimeParser class. ">
<polygon fill="white" stroke="black" points="1807,-62 1807,-81 1911,-81 1911,-62 1807,-62"/>
<text text-anchor="middle" x="1859" y="-69" font-family="Helvetica,sans-Serif" font-size="10.00">../time_parser.hpp</text>
</a>
</g>
</g>
<!-- Node1&#45;&gt;Node22 -->
<g id="edge65" class="edge"><title>Node1&#45;&gt;Node22</title>
<path fill="none" stroke="midnightblue" d="M537.661,-410.932C671.099,-407.998 1011.37,-397.862 1294,-367 1447.11,-350.281 1489.37,-358.163 1636,-311 1742.72,-276.674 1786.2,-281.594 1862,-199 1885.78,-173.092 1892.01,-157.24 1884,-123 1881.29,-111.406 1875.5,-99.4202 1870.18,-90.0369"/>
<polygon fill="midnightblue" stroke="midnightblue" points="1873.1,-88.0971 1864.95,-81.3258 1867.1,-91.7007 1873.1,-88.0971"/>
</g>
<!-- Node25 -->
<g id="node25" class="node"><title>Node25</title>
<g id="a_node25"><a xlink:href="messages_8h.html" target="_top" xlink:title="Constant human&#45;readable messages used within playd. ">
<polygon fill="white" stroke="black" points="265,-62 265,-81 349,-81 349,-62 265,-62"/>
<text text-anchor="middle" x="307" y="-69" font-family="Helvetica,sans-Serif" font-size="10.00">../messages.h</text>
</a>
</g>
</g>
<!-- Node1&#45;&gt;Node25 -->
<g id="edge64" class="edge"><title>Node1&#45;&gt;Node25</title>
<path fill="none" stroke="midnightblue" d="M451.481,-403.395C431.353,-396.203 404.741,-384.309 386,-367 301.442,-288.9 285.917,-254.151 256,-143 253.69,-134.417 252.578,-131.204 256,-123 262.039,-108.521 274.474,-96.0684 285.553,-87.1517"/>
<polygon fill="midnightblue" stroke="midnightblue" points="287.764,-89.8682 293.633,-81.0473 283.544,-84.2832 287.764,-89.8682"/>
</g>
<!-- Node26 -->
<g id="node26" class="node"><title>Node26</title>
<g id="a_node26"><a xlink:href="audio_8hpp.html" target="_top" xlink:title="Declaration of the Audio class. ">
<polygon fill="white" stroke="black" points="1448,-179.5 1448,-198.5 1512,-198.5 1512,-179.5 1448,-179.5"/>
<text text-anchor="middle" x="1480" y="-186.5" font-family="Helvetica,sans-Serif" font-size="10.00">audio.hpp</text>
</a>
</g>
</g>
<!-- Node1&#45;&gt;Node26 -->
<g id="edge51" class="edge"><title>Node1&#45;&gt;Node26</title>
<path fill="none" stroke="midnightblue" d="M537.615,-409.675C773.526,-399.512 1656.51,-354.958 1724,-255 1728.97,-247.633 1729.69,-241.832 1724,-235 1698.81,-204.737 1585.16,-194.748 1522.24,-191.51"/>
<polygon fill="midnightblue" stroke="midnightblue" points="1522.38,-188.013 1512.23,-191.03 1522.05,-195.005 1522.38,-188.013"/>
</g>
<!-- Node27 -->
<g id="node27" class="node"><title>Node27</title>
<g id="a_node27"><a xlink:href="cmd__result_8hpp.html" target="_top" xlink:title="Declaration of the CommandResult class. ">
<polygon fill="white" stroke="black" points="517,-235.5 517,-254.5 617,-254.5 617,-235.5 517,-235.5"/>
<text text-anchor="middle" x="567" y="-242.5" font-family="Helvetica,sans-Serif" font-size="10.00">../cmd_result.hpp</text>
</a>
</g>
</g>
<!-- Node1&#45;&gt;Node27 -->
<g id="edge52" class="edge"><title>Node1&#45;&gt;Node27</title>
<path fill="none" stroke="midnightblue" d="M484.677,-403.075C498.491,-376.719 539.287,-298.878 557.744,-263.661"/>
<polygon fill="midnightblue" stroke="midnightblue" points="560.967,-265.05 562.509,-254.568 554.767,-261.801 560.967,-265.05"/>
</g>
<!-- Node28 -->
<g id="node28" class="node"><title>Node28</title>
<g id="a_node28"><a xlink:href="io__response_8hpp.html" target="_top" xlink:title="Declaration of classes pertaining to responses to the client. ">
<polygon fill="white" stroke="black" points="675.5,-179.5 675.5,-198.5 782.5,-198.5 782.5,-179.5 675.5,-179.5"/>
<text text-anchor="middle" x="729" y="-186.5" font-family="Helvetica,sans-Serif" font-size="10.00">io/io_response.hpp</text>
</a>
</g>
</g>
<!-- Node1&#45;&gt;Node28 -->
<g id="edge63" class="edge"><title>Node1&#45;&gt;Node28</title>
<path fill="none" stroke="midnightblue" d="M488.487,-403.48C519.47,-372.436 626.608,-265.596 664,-235 677.591,-223.879 693.833,-212.634 706.681,-204.167"/>
<polygon fill="midnightblue" stroke="midnightblue" points="708.872,-206.917 715.35,-198.534 705.058,-201.047 708.872,-206.917"/>
</g>
<!-- Node31 -->
<g id="node31" class="node"><title>Node31</title>
<g id="a_node31"><a xlink:href="player__state_8hpp.html" target="_top" xlink:title="Declaration of the PlayerState class, and associated types. ">
<polygon fill="white" stroke="black" points="691.5,-291.5 691.5,-310.5 788.5,-310.5 788.5,-291.5 691.5,-291.5"/>
<text text-anchor="middle" x="740" y="-298.5" font-family="Helvetica,sans-Serif" font-size="10.00">player_state.hpp</text>
</a>
</g>
</g>
<!-- Node1&#45;&gt;Node31 -->
<g id="edge66" class="edge"><title>Node1&#45;&gt;Node31</title>
<path fill="none" stroke="midnightblue" d="M523.048,-403.452C555.742,-396.104 601.344,-383.989 639,-367 669.493,-353.243 701.433,-331.201 721.031,-316.661"/>
<polygon fill="midnightblue" stroke="midnightblue" points="723.239,-319.38 729.117,-310.565 719.025,-313.79 723.239,-319.38"/>
</g>
<!-- Node33 -->
<g id="node33" class="node"><title>Node33</title>
<g id="a_node33"><a xlink:href="player_8hpp.html" target="_top" xlink:title="Declaration of the Player class, and associated types. ">
<polygon fill="white" stroke="black" points="879,-347.5 879,-366.5 945,-366.5 945,-347.5 879,-347.5"/>
<text text-anchor="middle" x="912" y="-354.5" font-family="Helvetica,sans-Serif" font-size="10.00">player.hpp</text>
</a>
</g>
</g>
<!-- Node1&#45;&gt;Node33 -->
<g id="edge70" class="edge"><title>Node1&#45;&gt;Node33</title>
<path fill="none" stroke="midnightblue" d="M537.813,-404.773C625.607,-393.799 790.581,-373.177 868.778,-363.403"/>
<polygon fill="midnightblue" stroke="midnightblue" points="869.282,-366.867 878.771,-362.154 868.414,-359.921 869.282,-366.867"/>
</g>
<!-- Node7&#45;&gt;Node5 -->
<g id="edge7" class="edge"><title>Node7&#45;&gt;Node5</title>
<path fill="none" stroke="midnightblue" d="M1169.31,-238.269C1110.51,-232.266 1025.59,-220.59 954,-199 820.597,-158.765 797.517,-122.369 675,-56 655.118,-45.2296 632.485,-33.2617 615.575,-24.3771"/>
<polygon fill="midnightblue" stroke="midnightblue" points="616.826,-21.0808 606.344,-19.5346 613.574,-27.2796 616.826,-21.0808"/>
</g>
<!-- Node8 -->
<g id="node8" class="node"><title>Node8</title>
<polygon fill="white" stroke="#bfbfbf" points="997,-123.5 997,-142.5 1039,-142.5 1039,-123.5 997,-123.5"/>
<text text-anchor="middle" x="1018" y="-130.5" font-family="Helvetica,sans-Serif" font-size="10.00">utility</text>
</g>
<!-- Node7&#45;&gt;Node8 -->
<g id="edge8" class="edge"><title>Node7&#45;&gt;Node8</title>
<path fill="none" stroke="midnightblue" d="M1238.41,-235.329C1233.74,-221.239 1222.52,-193.494 1203,-179 1147.95,-138.13 1119.54,-159.538 1053,-143 1051.73,-142.685 1050.44,-142.362 1049.13,-142.034"/>
<polygon fill="midnightblue" stroke="midnightblue" points="1049.64,-138.551 1039.09,-139.481 1047.92,-145.335 1049.64,-138.551"/>
</g>
<!-- Node9 -->
<g id="node9" class="node"><title>Node9</title>
<polygon fill="white" stroke="#bfbfbf" points="997.5,-179.5 997.5,-198.5 1194.5,-198.5 1194.5,-179.5 997.5,-179.5"/>
<text text-anchor="middle" x="1096" y="-186.5" font-family="Helvetica,sans-Serif" font-size="10.00">portaudiocpp/SampleDataFormat.hxx</text>
</g>
<!-- Node7&#45;&gt;Node9 -->
<g id="edge9" class="edge"><title>Node7&#45;&gt;Node9</title>
<path fill="none" stroke="midnightblue" d="M1218.02,-235.444C1193.84,-226.438 1155.58,-212.189 1128.35,-202.049"/>
<polygon fill="midnightblue" stroke="midnightblue" points="1129.46,-198.727 1118.87,-198.516 1127.02,-205.286 1129.46,-198.727"/>
</g>
<!-- Node10 -->
<g id="node10" class="node"><title>Node10</title>
<polygon fill="white" stroke="#bfbfbf" points="841,-123.5 841,-142.5 979,-142.5 979,-123.5 841,-123.5"/>
<text text-anchor="middle" x="910" y="-130.5" font-family="Helvetica,sans-Serif" font-size="10.00">portaudiocpp/Stream.hxx</text>
</g>
<!-- Node7&#45;&gt;Node10 -->
<g id="edge10" class="edge"><title>Node7&#45;&gt;Node10</title>
<path fill="none" stroke="midnightblue" d="M1169.34,-241.072C1117,-236.642 1045.44,-225.718 988,-199 962.917,-187.333 939.274,-165.542 924.732,-150.425"/>
<polygon fill="midnightblue" stroke="midnightblue" points="927.019,-147.746 917.638,-142.82 921.9,-152.52 927.019,-147.746"/>
</g>
<!-- Node11 -->
<g id="node11" class="node"><title>Node11</title>
<g id="a_node11"><a xlink:href="sample__formats_8hpp.html" target="_top" xlink:title="The SampleFormat enumeration. ">
<polygon fill="white" stroke="black" points="1521.5,-62 1521.5,-81 1646.5,-81 1646.5,-62 1521.5,-62"/>
<text text-anchor="middle" x="1584" y="-69" font-family="Helvetica,sans-Serif" font-size="10.00">../sample_formats.hpp</text>
</a>
</g>
</g>
<!-- Node7&#45;&gt;Node11 -->
<g id="edge11" class="edge"><title>Node7&#45;&gt;Node11</title>
<path fill="none" stroke="midnightblue" d="M1299.83,-235.493C1440.53,-214.869 1786.02,-162.474 1802,-143 1844.68,-90.9802 1735.77,-76.9251 1656.98,-73.3756"/>
<polygon fill="midnightblue" stroke="midnightblue" points="1656.69,-69.8615 1646.56,-72.9585 1656.41,-76.8559 1656.69,-69.8615"/>
</g>
<!-- Node13 -->
<g id="node13" class="node"><title>Node13</title>
<g id="a_node13"><a xlink:href="audio__sink_8hpp.html" target="_top" xlink:title="Declaration of the AudioSink class. ">
<polygon fill="white" stroke="black" points="1251,-179.5 1251,-198.5 1339,-198.5 1339,-179.5 1251,-179.5"/>
<text text-anchor="middle" x="1295" y="-186.5" font-family="Helvetica,sans-Serif" font-size="10.00">audio_sink.hpp</text>
</a>
</g>
</g>
<!-- Node7&#45;&gt;Node13 -->
<g id="edge13" class="edge"><title>Node7&#45;&gt;Node13</title>
<path fill="none" stroke="midnightblue" d="M1249.92,-235.083C1257.78,-227.22 1269.43,-215.569 1278.92,-206.081"/>
<polygon fill="midnightblue" stroke="midnightblue" points="1281.65,-208.297 1286.25,-198.751 1276.7,-203.347 1281.65,-208.297"/>
</g>
<!-- Node17 -->
<g id="node17" class="node"><title>Node17</title>
<g id="a_node17"><a xlink:href="audio__source_8hpp.html" target="_top" xlink:title="Declaration of the AudioSource class. ">
<polygon fill="white" stroke="black" points="1539.5,-123.5 1539.5,-142.5 1640.5,-142.5 1640.5,-123.5 1539.5,-123.5"/>
<text text-anchor="middle" x="1590" y="-130.5" font-family="Helvetica,sans-Serif" font-size="10.00">audio_source.hpp</text>
</a>
</g>
</g>
<!-- Node7&#45;&gt;Node17 -->
<g id="edge40" class="edge"><title>Node7&#45;&gt;Node17</title>
<path fill="none" stroke="midnightblue" d="M1266.25,-235.465C1303.81,-222.823 1376.68,-198.512 1439,-179 1476.76,-167.178 1520.06,-154.349 1550.58,-145.425"/>
<polygon fill="midnightblue" stroke="midnightblue" points="1551.79,-148.716 1560.41,-142.555 1549.83,-141.997 1551.79,-148.716"/>
</g>
<!-- Node7&#45;&gt;Node26 -->
<g id="edge41" class="edge"><title>Node7&#45;&gt;Node26</title>
<path fill="none" stroke="midnightblue" d="M1278.87,-235.444C1322.1,-225.677 1392.62,-209.742 1437.64,-199.571"/>
<polygon fill="midnightblue" stroke="midnightblue" points="1438.69,-202.922 1447.67,-197.304 1437.15,-196.094 1438.69,-202.922"/>
</g>
<!-- Node12 -->
<g id="node12" class="node"><title>Node12</title>
<polygon fill="white" stroke="#bfbfbf" points="1513.5,-0.5 1513.5,-19.5 1562.5,-19.5 1562.5,-0.5 1513.5,-0.5"/>
<text text-anchor="middle" x="1538" y="-7.5" font-family="Helvetica,sans-Serif" font-size="10.00">cstdint</text>
</g>
<!-- Node11&#45;&gt;Node12 -->
<g id="edge12" class="edge"><title>Node11&#45;&gt;Node12</title>
<path fill="none" stroke="midnightblue" d="M1577.41,-61.9751C1570.51,-53.0501 1559.5,-38.8071 1550.87,-27.6425"/>
<polygon fill="midnightblue" stroke="midnightblue" points="1553.46,-25.2798 1544.58,-19.5091 1547.93,-29.5612 1553.46,-25.2798"/>
</g>
<!-- Node13&#45;&gt;Node5 -->
<g id="edge16" class="edge"><title>Node13&#45;&gt;Node5</title>
<path fill="none" stroke="midnightblue" d="M1267.94,-179.383C1219.41,-163.977 1119.37,-132.442 1084,-123 911.208,-76.8686 701.194,-33.3499 622.144,-17.4057"/>
<polygon fill="midnightblue" stroke="midnightblue" points="622.798,-13.9671 612.304,-15.4272 621.418,-20.8298 622.798,-13.9671"/>
</g>
<!-- Node13&#45;&gt;Node6 -->
<g id="edge18" class="edge"><title>Node13&#45;&gt;Node6</title>
<path fill="none" stroke="midnightblue" d="M1250.87,-181.134C1209.03,-173.957 1144.77,-161.19 1091,-143 1071.03,-136.245 1068.26,-128.819 1048,-123 914.233,-84.578 747.318,-75.3866 676.866,-73.1894"/>
<polygon fill="midnightblue" stroke="midnightblue" points="676.892,-69.6888 666.797,-72.9033 676.693,-76.686 676.892,-69.6888"/>
</g>
<!-- Node13&#45;&gt;Node8 -->
<g id="edge17" class="edge"><title>Node13&#45;&gt;Node8</title>
<path fill="none" stroke="midnightblue" d="M1250.66,-180.684C1201.99,-172.438 1121.64,-158.188 1053,-143 1051.73,-142.718 1050.43,-142.422 1049.12,-142.117"/>
<polygon fill="midnightblue" stroke="midnightblue" points="1049.59,-138.63 1039.04,-139.658 1047.93,-145.43 1049.59,-138.63"/>
</g>
<!-- Node13&#45;&gt;Node10 -->
<g id="edge21" class="edge"><title>Node13&#45;&gt;Node10</title>
<path fill="none" stroke="midnightblue" d="M1250.84,-181.806C1184.87,-172.553 1059.92,-155.028 981.019,-143.961"/>
<polygon fill="midnightblue" stroke="midnightblue" points="981.068,-140.434 970.679,-142.511 980.096,-147.366 981.068,-140.434"/>
</g>
<!-- Node13&#45;&gt;Node12 -->
<g id="edge14" class="edge"><title>Node13&#45;&gt;Node12</title>
<path fill="none" stroke="midnightblue" d="M1250.64,-182.851C1202.87,-175.396 1136.85,-158.412 1162,-123 1202.32,-66.2255 1418.1,-28.6942 1503.33,-15.8856"/>
<polygon fill="midnightblue" stroke="midnightblue" points="1503.91,-19.3379 1513.29,-14.4124 1502.89,-12.4132 1503.91,-19.3379"/>
</g>
<!-- Node14 -->
<g id="node14" class="node"><title>Node14</title>
<polygon fill="white" stroke="#bfbfbf" points="1735.5,-123.5 1735.5,-142.5 1792.5,-142.5 1792.5,-123.5 1735.5,-123.5"/>
<text text-anchor="middle" x="1764" y="-130.5" font-family="Helvetica,sans-Serif" font-size="10.00">memory</text>
</g>
<!-- Node13&#45;&gt;Node14 -->
<g id="edge15" class="edge"><title>Node13&#45;&gt;Node14</title>
<path fill="none" stroke="midnightblue" d="M1339.12,-182.92C1430.4,-172.41 1638.67,-148.431 1725.19,-138.468"/>
<polygon fill="midnightblue" stroke="midnightblue" points="1725.83,-141.918 1735.37,-137.297 1725.03,-134.964 1725.83,-141.918"/>
</g>
<!-- Node15 -->
<g id="node15" class="node"><title>Node15</title>
<polygon fill="white" stroke="#bfbfbf" points="1171.5,-123.5 1171.5,-142.5 1242.5,-142.5 1242.5,-123.5 1171.5,-123.5"/>
<text text-anchor="middle" x="1207" y="-130.5" font-family="Helvetica,sans-Serif" font-size="10.00">portaudio.h</text>
</g>
<!-- Node13&#45;&gt;Node15 -->
<g id="edge19" class="edge"><title>Node13&#45;&gt;Node15</title>
<path fill="none" stroke="midnightblue" d="M1280.86,-179.324C1267.13,-170.9 1246.06,-157.971 1229.94,-148.074"/>
<polygon fill="midnightblue" stroke="midnightblue" points="1231.46,-144.902 1221.1,-142.655 1227.8,-150.868 1231.46,-144.902"/>
</g>
<!-- Node16 -->
<g id="node16" class="node"><title>Node16</title>
<polygon fill="white" stroke="#bfbfbf" points="1261,-123.5 1261,-142.5 1445,-142.5 1445,-123.5 1261,-123.5"/>
<text text-anchor="middle" x="1353" y="-130.5" font-family="Helvetica,sans-Serif" font-size="10.00">portaudiocpp/CallbackInterface.hxx</text>
</g>
<!-- Node13&#45;&gt;Node16 -->
<g id="edge20" class="edge"><title>Node13&#45;&gt;Node16</title>
<path fill="none" stroke="midnightblue" d="M1304.32,-179.324C1312.89,-171.341 1325.81,-159.313 1336.19,-149.653"/>
<polygon fill="midnightblue" stroke="midnightblue" points="1338.58,-152.21 1343.51,-142.834 1333.81,-147.086 1338.58,-152.21"/>
</g>
<!-- Node13&#45;&gt;Node17 -->
<g id="edge22" class="edge"><title>Node13&#45;&gt;Node17</title>
<path fill="none" stroke="midnightblue" d="M1339.16,-179.916C1390.87,-170.451 1476.62,-154.754 1533.23,-144.393"/>
<polygon fill="midnightblue" stroke="midnightblue" points="1533.89,-147.83 1543.09,-142.587 1532.63,-140.944 1533.89,-147.83"/>
</g>
<!-- Node23 -->
<g id="node23" class="node"><title>Node23</title>
<g id="a_node23"><a xlink:href="ringbuffer_8hpp.html" target="_top" xlink:title="The RingBuffer class template. ">
<polygon fill="white" stroke="black" points="265.5,-123.5 265.5,-142.5 348.5,-142.5 348.5,-123.5 265.5,-123.5"/>
<text text-anchor="middle" x="307" y="-130.5" font-family="Helvetica,sans-Serif" font-size="10.00">ringbuffer.hpp</text>
</a>
</g>
</g>
<!-- Node13&#45;&gt;Node23 -->
<g id="edge34" class="edge"><title>Node13&#45;&gt;Node23</title>
<path fill="none" stroke="midnightblue" d="M1250.58,-183.226C1235.49,-181.719 1218.52,-180.149 1203,-179 882.446,-155.284 496.433,-140.561 358.82,-135.744"/>
<polygon fill="midnightblue" stroke="midnightblue" points="358.691,-132.237 348.576,-135.388 358.448,-139.233 358.691,-132.237"/>
</g>
<!-- Node17&#45;&gt;Node5 -->
<g id="edge25" class="edge"><title>Node17&#45;&gt;Node5</title>
<path fill="none" stroke="midnightblue" d="M1542.44,-123.446C1494.71,-114.741 1419.12,-100.625 1354,-87 1293.32,-74.3032 1279.32,-65.1309 1218,-56 991.545,-22.2788 715.251,-13.6137 622.271,-11.5776"/>
<polygon fill="midnightblue" stroke="midnightblue" points="622.174,-8.0749 612.103,-11.3658 622.028,-15.0734 622.174,-8.0749"/>
</g>
<!-- Node17&#45;&gt;Node6 -->
<g id="edge26" class="edge"><title>Node17&#45;&gt;Node6</title>
<path fill="none" stroke="midnightblue" d="M1539.47,-127.307C1522.77,-125.83 1504.1,-124.258 1487,-123 1172.16,-99.8302 790.656,-79.9495 676.692,-74.1836"/>
<polygon fill="midnightblue" stroke="midnightblue" points="676.674,-70.6783 666.51,-73.6701 676.321,-77.6695 676.674,-70.6783"/>
</g>
<!-- Node17&#45;&gt;Node11 -->
<g id="edge31" class="edge"><title>Node17&#45;&gt;Node11</title>
<path fill="none" stroke="midnightblue" d="M1589.14,-123.475C1588.29,-115.08 1586.97,-101.981 1585.88,-91.1631"/>
<polygon fill="midnightblue" stroke="midnightblue" points="1589.34,-90.6074 1584.86,-81.0091 1582.38,-91.3098 1589.34,-90.6074"/>
</g>
<!-- Node17&#45;&gt;Node12 -->
<g id="edge24" class="edge"><title>Node17&#45;&gt;Node12</title>
<path fill="none" stroke="midnightblue" d="M1560.88,-123.441C1543.36,-116.62 1522.48,-105.141 1512,-87 1501.16,-68.2241 1513.08,-44.2202 1524.11,-28.2651"/>
<polygon fill="midnightblue" stroke="midnightblue" points="1527.17,-30.0158 1530.32,-19.9015 1521.55,-25.841 1527.17,-30.0158"/>
</g>
<!-- Node18 -->
<g id="node18" class="node"><title>Node18</title>
<polygon fill="white" stroke="#bfbfbf" points="1423.5,-62 1423.5,-81 1464.5,-81 1464.5,-62 1423.5,-62"/>
<text text-anchor="middle" x="1444" y="-69" font-family="Helvetica,sans-Serif" font-size="10.00">array</text>
</g>
<!-- Node17&#45;&gt;Node18 -->
<g id="edge23" class="edge"><title>Node17&#45;&gt;Node18</title>
<path fill="none" stroke="midnightblue" d="M1568.7,-123.421C1546.34,-114.402 1510.17,-99.7748 1479,-87 1477.41,-86.3484 1475.78,-85.6787 1474.13,-85.0016"/>
<polygon fill="midnightblue" stroke="midnightblue" points="1475.3,-81.6945 1464.72,-81.1134 1472.62,-88.1648 1475.3,-81.6945"/>
</g>
<!-- Node19 -->
<g id="node19" class="node"><title>Node19</title>
<polygon fill="white" stroke="#bfbfbf" points="1363,-62 1363,-81 1405,-81 1405,-62 1363,-62"/>
<text text-anchor="middle" x="1384" y="-69" font-family="Helvetica,sans-Serif" font-size="10.00">sox.h</text>
</g>
<!-- Node17&#45;&gt;Node19 -->
<g id="edge27" class="edge"><title>Node17&#45;&gt;Node19</title>
<path fill="none" stroke="midnightblue" d="M1546.59,-123.439C1510.52,-115.724 1458.14,-103.126 1414,-87 1412.57,-86.4789 1411.12,-85.9122 1409.67,-85.3148"/>
<polygon fill="midnightblue" stroke="midnightblue" points="1410.8,-81.9869 1400.25,-81.0829 1407.94,-88.3725 1410.8,-81.9869"/>
</g>
<!-- Node17&#45;&gt;Node20 -->
<g id="edge28" class="edge"><title>Node17&#45;&gt;Node20</title>
<path fill="none" stroke="midnightblue" d="M1539.33,-128.211C1513.75,-126.41 1482.24,-124.358 1454,-123 921.93,-97.4087 787.406,-123.895 256,-87 227.692,-85.0346 196.113,-81.6429 170.832,-78.6337"/>
<polygon fill="midnightblue" stroke="midnightblue" points="171.114,-75.1424 160.766,-77.4165 170.274,-82.0918 171.114,-75.1424"/>
</g>
<!-- Node17&#45;&gt;Node22 -->
<g id="edge32" class="edge"><title>Node17&#45;&gt;Node22</title>
<path fill="none" stroke="midnightblue" d="M1628.54,-123.475C1676.48,-112.871 1758.36,-94.7602 1810.51,-83.2244"/>
<polygon fill="midnightblue" stroke="midnightblue" points="1811.52,-86.5863 1820.53,-81.0091 1810.01,-79.7515 1811.52,-86.5863"/>
</g>
<!-- Node20&#45;&gt;Node3 -->
<g id="edge30" class="edge"><title>Node20&#45;&gt;Node3</title>
<path fill="none" stroke="midnightblue" d="M109.389,-61.9751C93.9395,-52.2989 68.5101,-36.3721 50.1839,-24.8941"/>
<polygon fill="midnightblue" stroke="midnightblue" points="51.9187,-21.8509 41.5859,-19.5091 48.2031,-27.7834 51.9187,-21.8509"/>
</g>
<!-- Node21 -->
<g id="node21" class="node"><title>Node21</title>
<polygon fill="white" stroke="#bfbfbf" points="93.5,-0.5 93.5,-19.5 152.5,-19.5 152.5,-0.5 93.5,-0.5"/>
<text text-anchor="middle" x="123" y="-7.5" font-family="Helvetica,sans-Serif" font-size="10.00">iostream</text>
</g>
<!-- Node20&#45;&gt;Node21 -->
<g id="edge29" class="edge"><title>Node20&#45;&gt;Node21</title>
<path fill="none" stroke="midnightblue" d="M123,-61.9751C123,-53.5803 123,-40.4806 123,-29.6631"/>
<polygon fill="midnightblue" stroke="midnightblue" points="126.5,-29.5091 123,-19.5091 119.5,-29.5091 126.5,-29.5091"/>
</g>
<!-- Node22&#45;&gt;Node12 -->
<g id="edge33" class="edge"><title>Node22&#45;&gt;Node12</title>
<path fill="none" stroke="midnightblue" d="M1813.01,-61.9751C1748.05,-49.9354 1630.89,-28.2184 1572.72,-17.4353"/>
<polygon fill="midnightblue" stroke="midnightblue" points="1573.04,-13.9352 1562.57,-15.5539 1571.76,-20.8179 1573.04,-13.9352"/>
</g>
<!-- Node23&#45;&gt;Node2 -->
<g id="edge35" class="edge"><title>Node23&#45;&gt;Node2</title>
<path fill="none" stroke="midnightblue" d="M348.534,-124.241C387.96,-116.426 448.656,-103.22 500,-87 502.277,-86.2807 504.613,-85.4828 506.949,-84.6416"/>
<polygon fill="midnightblue" stroke="midnightblue" points="508.302,-87.8716 516.393,-81.0321 505.803,-81.3329 508.302,-87.8716"/>
</g>
<!-- Node23&#45;&gt;Node20 -->
<g id="edge37" class="edge"><title>Node23&#45;&gt;Node20</title>
<path fill="none" stroke="midnightblue" d="M280.637,-123.475C248.665,-113.136 194.624,-95.6611 158.878,-84.1017"/>
<polygon fill="midnightblue" stroke="midnightblue" points="159.906,-80.7558 149.314,-81.0091 157.752,-87.4162 159.906,-80.7558"/>
</g>
<!-- Node24 -->
<g id="node24" class="node"><title>Node24</title>
<polygon fill="white" stroke="#bfbfbf" points="366.5,-56.5 366.5,-86.5 491.5,-86.5 491.5,-56.5 366.5,-56.5"/>
<text text-anchor="start" x="374.5" y="-74.5" font-family="Helvetica,sans-Serif" font-size="10.00">../contrib/pa_ringbuffer</text>
<text text-anchor="middle" x="429" y="-63.5" font-family="Helvetica,sans-Serif" font-size="10.00">/pa_ringbuffer.h</text>
</g>
<!-- Node23&#45;&gt;Node24 -->
<g id="edge36" class="edge"><title>Node23&#45;&gt;Node24</title>
<path fill="none" stroke="midnightblue" d="M324.48,-123.475C341.775,-115.04 368.81,-101.855 391.051,-91.008"/>
<polygon fill="midnightblue" stroke="midnightblue" points="392.793,-94.0524 400.247,-86.523 389.725,-87.7607 392.793,-94.0524"/>
</g>
<!-- Node23&#45;&gt;Node25 -->
<g id="edge38" class="edge"><title>Node23&#45;&gt;Node25</title>
<path fill="none" stroke="midnightblue" d="M307,-123.475C307,-115.08 307,-101.981 307,-91.1631"/>
<polygon fill="midnightblue" stroke="midnightblue" points="310.5,-91.0091 307,-81.0091 303.5,-91.0091 310.5,-91.0091"/>
</g>
<!-- Node25&#45;&gt;Node5 -->
<g id="edge39" class="edge"><title>Node25&#45;&gt;Node5</title>
<path fill="none" stroke="midnightblue" d="M334.649,-61.9925C341.887,-59.9 349.707,-57.7578 357,-56 428.007,-38.8851 512.411,-23.8935 557.602,-16.2926"/>
<polygon fill="midnightblue" stroke="midnightblue" points="558.4,-19.7079 567.687,-14.6097 557.247,-12.8033 558.4,-19.7079"/>
</g>
<!-- Node26&#45;&gt;Node5 -->
<g id="edge44" class="edge"><title>Node26&#45;&gt;Node5</title>
<path fill="none" stroke="midnightblue" d="M1482.61,-179.068C1486.07,-165.115 1490.23,-138.175 1476,-123 1472.25,-118.997 781.293,-34.3694 622.34,-14.948"/>
<polygon fill="midnightblue" stroke="midnightblue" points="622.592,-11.4528 612.241,-13.7143 621.743,-18.4011 622.592,-11.4528"/>
</g>
<!-- Node26&#45;&gt;Node6 -->
<g id="edge46" class="edge"><title>Node26&#45;&gt;Node6</title>
<path fill="none" stroke="midnightblue" d="M1479.34,-179.05C1477.74,-164.559 1472.32,-136.25 1454,-123 1422.05,-99.8849 826.925,-78.6142 677.042,-73.6079"/>
<polygon fill="midnightblue" stroke="midnightblue" points="676.752,-70.0965 666.642,-73.2628 676.52,-77.0926 676.752,-70.0965"/>
</g>
<!-- Node26&#45;&gt;Node8 -->
<g id="edge45" class="edge"><title>Node26&#45;&gt;Node8</title>
<path fill="none" stroke="midnightblue" d="M1447.88,-184.246C1362.91,-174.314 1133.01,-147.443 1049.15,-137.641"/>
<polygon fill="midnightblue" stroke="midnightblue" points="1049.56,-134.165 1039.22,-136.48 1048.74,-141.117 1049.56,-134.165"/>
</g>
<!-- Node26&#45;&gt;Node12 -->
<g id="edge42" class="edge"><title>Node26&#45;&gt;Node12</title>
<path fill="none" stroke="midnightblue" d="M1512.24,-183.781C1556.16,-177.335 1631.36,-163.574 1649,-143 1674.22,-113.573 1676.94,-87.9491 1655,-56 1636.65,-29.2756 1600.03,-18.4158 1572.63,-14.0063"/>
<polygon fill="midnightblue" stroke="midnightblue" points="1573.02,-10.5272 1562.63,-12.6126 1572.05,-17.4602 1573.02,-10.5272"/>
</g>
<!-- Node26&#45;&gt;Node14 -->
<g id="edge43" class="edge"><title>Node26&#45;&gt;Node14</title>
<path fill="none" stroke="midnightblue" d="M1512.01,-182.252C1558.21,-173.902 1646.26,-157.797 1721,-143 1722.45,-142.713 1723.93,-142.418 1725.42,-142.118"/>
<polygon fill="midnightblue" stroke="midnightblue" points="1726.24,-145.522 1735.34,-140.09 1724.84,-138.664 1726.24,-145.522"/>
</g>
<!-- Node26&#45;&gt;Node15 -->
<g id="edge47" class="edge"><title>Node26&#45;&gt;Node15</title>
<path fill="none" stroke="midnightblue" d="M1447.9,-181.691C1405.66,-173.383 1328.82,-158.25 1253.05,-143.206"/>
<polygon fill="midnightblue" stroke="midnightblue" points="1253.35,-139.696 1242.86,-141.18 1251.99,-146.562 1253.35,-139.696"/>
</g>
<!-- Node26&#45;&gt;Node16 -->
<g id="edge48" class="edge"><title>Node26&#45;&gt;Node16</title>
<path fill="none" stroke="midnightblue" d="M1459.88,-179.444C1438.98,-170.557 1406.07,-156.563 1382.28,-146.451"/>
<polygon fill="midnightblue" stroke="midnightblue" points="1383.6,-143.208 1373.03,-142.516 1380.86,-149.65 1383.6,-143.208"/>
</g>
<!-- Node26&#45;&gt;Node17 -->
<g id="edge50" class="edge"><title>Node26&#45;&gt;Node17</title>
<path fill="none" stroke="midnightblue" d="M1497.67,-179.324C1515.39,-170.625 1542.9,-157.12 1563.29,-147.113"/>
<polygon fill="midnightblue" stroke="midnightblue" points="1564.94,-150.203 1572.37,-142.655 1561.85,-143.919 1564.94,-150.203"/>
</g>
<!-- Node26&#45;&gt;Node22 -->
<g id="edge49" class="edge"><title>Node26&#45;&gt;Node22</title>
<path fill="none" stroke="midnightblue" d="M1512.2,-182.999C1552.72,-176.223 1624.11,-162.672 1683,-143 1703.37,-136.194 1707.18,-131.286 1727,-123 1760.32,-109.068 1798.96,-94.4621 1825.79,-84.5628"/>
<polygon fill="midnightblue" stroke="midnightblue" points="1827.28,-87.7447 1835.46,-81.0106 1824.87,-81.1742 1827.28,-87.7447"/>
</g>
<!-- Node27&#45;&gt;Node5 -->
<g id="edge54" class="edge"><title>Node27&#45;&gt;Node5</title>
<path fill="none" stroke="midnightblue" d="M519.152,-235.484C439.982,-220.313 287.327,-186.112 256,-143 233.27,-111.72 230.549,-85.1097 256,-56 295.001,-11.3923 481.356,-9.20138 557.488,-10.2317"/>
<polygon fill="midnightblue" stroke="midnightblue" points="557.834,-13.7377 567.891,-10.4024 557.949,-6.73867 557.834,-13.7377"/>
</g>
<!-- Node27&#45;&gt;Node6 -->
<g id="edge55" class="edge"><title>Node27&#45;&gt;Node6</title>
<path fill="none" stroke="midnightblue" d="M562.035,-235.346C550.741,-214.405 525.766,-160 548,-123 561.349,-100.786 588.135,-87.8169 609.871,-80.597"/>
<polygon fill="midnightblue" stroke="midnightblue" points="610.896,-83.9433 619.436,-77.6717 608.849,-77.2494 610.896,-83.9433"/>
</g>
<!-- Node27&#45;&gt;Node12 -->
<g id="edge53" class="edge"><title>Node27&#45;&gt;Node12</title>
<path fill="none" stroke="midnightblue" d="M572.647,-235.089C593.214,-203.55 667.814,-96.92 761,-56 829.503,-25.9187 1361.06,-14.2052 1503.16,-11.5931"/>
<polygon fill="midnightblue" stroke="midnightblue" points="1503.53,-15.0872 1513.46,-11.4073 1503.4,-8.08838 1503.53,-15.0872"/>
</g>
<!-- Node27&#45;&gt;Node28 -->
<g id="edge56" class="edge"><title>Node27&#45;&gt;Node28</title>
<path fill="none" stroke="midnightblue" d="M592.669,-235.444C619.923,-226.359 663.184,-211.939 693.651,-201.783"/>
<polygon fill="midnightblue" stroke="midnightblue" points="695.071,-204.999 703.451,-198.516 692.857,-198.358 695.071,-204.999"/>
</g>
<!-- Node28&#45;&gt;Node5 -->
<g id="edge59" class="edge"><title>Node28&#45;&gt;Node5</title>
<path fill="none" stroke="midnightblue" d="M675.299,-181.937C627.775,-175.334 563.606,-162.961 548,-143 531.428,-121.803 560.355,-111.711 571,-87 579.053,-68.3047 584.185,-45.4915 587.058,-29.766"/>
<polygon fill="midnightblue" stroke="midnightblue" points="590.538,-30.1728 588.76,-19.7283 583.637,-29.0022 590.538,-30.1728"/>
</g>
<!-- Node28&#45;&gt;Node6 -->
<g id="edge60" class="edge"><title>Node28&#45;&gt;Node6</title>
<path fill="none" stroke="midnightblue" d="M722.536,-179.319C708.341,-160.255 674.233,-114.447 655.627,-89.4582"/>
<polygon fill="midnightblue" stroke="midnightblue" points="658.318,-87.2125 649.539,-81.282 652.704,-91.3931 658.318,-87.2125"/>
</g>
<!-- Node28&#45;&gt;Node20 -->
<g id="edge61" class="edge"><title>Node28&#45;&gt;Node20</title>
<path fill="none" stroke="midnightblue" d="M675.176,-185.526C568.359,-180.183 333.24,-166.145 256,-143 213.415,-130.239 168.699,-103.308 143.487,-86.6735"/>
<polygon fill="midnightblue" stroke="midnightblue" points="145.374,-83.7249 135.121,-81.056 141.472,-89.5363 145.374,-83.7249"/>
</g>
<!-- Node29 -->
<g id="node29" class="node"><title>Node29</title>
<polygon fill="white" stroke="#bfbfbf" points="709,-123.5 709,-142.5 747,-142.5 747,-123.5 709,-123.5"/>
<text text-anchor="middle" x="728" y="-130.5" font-family="Helvetica,sans-Serif" font-size="10.00">map</text>
</g>
<!-- Node28&#45;&gt;Node29 -->
<g id="edge57" class="edge"><title>Node28&#45;&gt;Node29</title>
<path fill="none" stroke="midnightblue" d="M728.835,-179.083C728.704,-172.006 728.516,-161.861 728.352,-152.986"/>
<polygon fill="midnightblue" stroke="midnightblue" points="731.847,-152.685 728.162,-142.751 724.848,-152.814 731.847,-152.685"/>
</g>
<!-- Node30 -->
<g id="node30" class="node"><title>Node30</title>
<polygon fill="white" stroke="#bfbfbf" points="557.5,-123.5 557.5,-142.5 614.5,-142.5 614.5,-123.5 557.5,-123.5"/>
<text text-anchor="middle" x="586" y="-130.5" font-family="Helvetica,sans-Serif" font-size="10.00">ostream</text>
</g>
<!-- Node28&#45;&gt;Node30 -->
<g id="edge58" class="edge"><title>Node28&#45;&gt;Node30</title>
<path fill="none" stroke="midnightblue" d="M706.341,-179.444C682.598,-170.478 645.091,-156.314 618.262,-146.183"/>
<polygon fill="midnightblue" stroke="midnightblue" points="619.144,-142.775 608.553,-142.516 616.671,-149.324 619.144,-142.775"/>
</g>
<!-- Node31&#45;&gt;Node12 -->
<g id="edge67" class="edge"><title>Node31&#45;&gt;Node12</title>
<path fill="none" stroke="midnightblue" d="M747.414,-291.463C754.773,-282.713 766.073,-268.513 774,-255 806.424,-199.728 781.609,-162.586 832,-123 938.324,-39.474 1375.14,-16.9948 1502.81,-12.1537"/>
<polygon fill="midnightblue" stroke="midnightblue" points="1503.3,-15.638 1513.16,-11.7743 1503.04,-8.64273 1503.3,-15.638"/>
</g>
<!-- Node31&#45;&gt;Node28 -->
<g id="edge69" class="edge"><title>Node31&#45;&gt;Node28</title>
<path fill="none" stroke="midnightblue" d="M745.906,-291.153C753.51,-278.63 765.064,-255.029 759,-235 755.883,-224.705 749.548,-214.612 743.499,-206.602"/>
<polygon fill="midnightblue" stroke="midnightblue" points="746.219,-204.399 737.214,-198.818 740.772,-208.797 746.219,-204.399"/>
</g>
<!-- Node32 -->
<g id="node32" class="node"><title>Node32</title>
<polygon fill="white" stroke="#bfbfbf" points="673.5,-235.5 673.5,-254.5 750.5,-254.5 750.5,-235.5 673.5,-235.5"/>
<text text-anchor="middle" x="712" y="-242.5" font-family="Helvetica,sans-Serif" font-size="10.00">initializer_list</text>
</g>
<!-- Node31&#45;&gt;Node32 -->
<g id="edge68" class="edge"><title>Node31&#45;&gt;Node32</title>
<path fill="none" stroke="midnightblue" d="M735.376,-291.083C731.544,-283.691 725.976,-272.953 721.235,-263.811"/>
<polygon fill="midnightblue" stroke="midnightblue" points="724.248,-262.018 716.538,-254.751 718.034,-265.24 724.248,-262.018"/>
</g>
<!-- Node33&#45;&gt;Node5 -->
<g id="edge74" class="edge"><title>Node33&#45;&gt;Node5</title>
<path fill="none" stroke="midnightblue" d="M878.652,-355.036C815.111,-352.485 672.792,-343.334 558,-311 404.521,-267.768 315.403,-284.029 241,-143 222.928,-108.744 210.398,-85.0621 236,-56 257.136,-32.0066 474.409,-17.4459 557.724,-12.7083"/>
<polygon fill="midnightblue" stroke="midnightblue" points="558.09,-16.1934 567.88,-12.1419 557.701,-9.20425 558.09,-16.1934"/>
</g>
<!-- Node33&#45;&gt;Node6 -->
<g id="edge76" class="edge"><title>Node33&#45;&gt;Node6</title>
<path fill="none" stroke="midnightblue" d="M878.736,-353.287C789.557,-345.207 549.105,-317.851 508,-255 486.348,-221.894 452.644,-225.254 537,-123 555.388,-100.711 585.912,-87.622 609.494,-80.3787"/>
<polygon fill="midnightblue" stroke="midnightblue" points="610.47,-83.74 619.121,-77.6226 608.543,-77.0104 610.47,-83.74"/>
</g>
<!-- Node33&#45;&gt;Node8 -->
<g id="edge75" class="edge"><title>Node33&#45;&gt;Node8</title>
<path fill="none" stroke="midnightblue" d="M915.102,-347.266C924.547,-321.051 954.369,-241.033 988,-179 993.202,-169.404 999.866,-159.244 1005.59,-151.011"/>
<polygon fill="midnightblue" stroke="midnightblue" points="1008.58,-152.844 1011.53,-142.667 1002.88,-148.785 1008.58,-152.844"/>
</g>
<!-- Node33&#45;&gt;Node12 -->
<g id="edge71" class="edge"><title>Node33&#45;&gt;Node12</title>
<path fill="none" stroke="midnightblue" d="M945.166,-354.849C1084.22,-349.92 1616.36,-329.974 1689,-311 1777.62,-287.851 1807.27,-272.447 1862,-199 1902.98,-144.005 1965.57,-107.255 1920,-56 1897.11,-30.2539 1662.9,-16.7748 1572.94,-12.5156"/>
<polygon fill="midnightblue" stroke="midnightblue" points="1572.85,-9.00816 1562.7,-12.0417 1572.53,-16.0007 1572.85,-9.00816"/>
</g>
<!-- Node33&#45;&gt;Node14 -->
<g id="edge73" class="edge"><title>Node33&#45;&gt;Node14</title>
<path fill="none" stroke="midnightblue" d="M945.068,-355.169C1062.78,-351.995 1461,-339.364 1585,-311 1649.93,-296.149 1677.85,-303.027 1724,-255 1751.37,-226.51 1760.02,-178.89 1762.75,-152.691"/>
<polygon fill="midnightblue" stroke="midnightblue" points="1766.25,-152.861 1763.61,-142.599 1759.27,-152.265 1766.25,-152.861"/>
</g>
<!-- Node33&#45;&gt;Node22 -->
<g id="edge80" class="edge"><title>Node33&#45;&gt;Node22</title>
<path fill="none" stroke="midnightblue" d="M945.064,-354.828C1078.88,-349.966 1576.39,-330.721 1644,-311 1740.32,-282.904 1770.52,-271.378 1840,-199 1865.15,-172.803 1873.89,-159.106 1870,-123 1868.85,-112.356 1866.39,-100.664 1864.08,-91.213"/>
<polygon fill="midnightblue" stroke="midnightblue" points="1867.42,-90.1527 1861.53,-81.345 1860.64,-91.9024 1867.42,-90.1527"/>
</g>
<!-- Node33&#45;&gt;Node26 -->
<g id="edge77" class="edge"><title>Node33&#45;&gt;Node26</title>
<path fill="none" stroke="midnightblue" d="M945.063,-349.547C1015.23,-335.483 1183.83,-299.709 1321,-255 1367.82,-239.739 1420.39,-217.121 1451.82,-202.987"/>
<polygon fill="midnightblue" stroke="midnightblue" points="1453.58,-206.032 1461.24,-198.716 1450.69,-199.656 1453.58,-206.032"/>
</g>
<!-- Node33&#45;&gt;Node27 -->
<g id="edge79" class="edge"><title>Node33&#45;&gt;Node27</title>
<path fill="none" stroke="midnightblue" d="M878.723,-352.875C833.169,-347.845 749.365,-335.883 682,-311 646.831,-298.009 609.683,-275.104 587.425,-260.244"/>
<polygon fill="midnightblue" stroke="midnightblue" points="589.358,-257.325 579.117,-254.607 585.427,-263.118 589.358,-257.325"/>
</g>
<!-- Node33&#45;&gt;Node28 -->
<g id="edge78" class="edge"><title>Node33&#45;&gt;Node28</title>
<path fill="none" stroke="midnightblue" d="M902.419,-347.309C873.019,-320.64 783.807,-239.716 746.108,-205.519"/>
<polygon fill="midnightblue" stroke="midnightblue" points="748.245,-202.731 738.486,-198.605 743.542,-207.916 748.245,-202.731"/>
</g>
<!-- Node33&#45;&gt;Node29 -->
<g id="edge72" class="edge"><title>Node33&#45;&gt;Node29</title>
<path fill="none" stroke="midnightblue" d="M907.608,-347.484C893.429,-320.535 846.558,-235.565 791,-179 779.253,-167.04 763.997,-156.052 751.441,-147.928"/>
<polygon fill="midnightblue" stroke="midnightblue" points="753.195,-144.896 742.864,-142.546 749.474,-150.826 753.195,-144.896"/>
</g>
<!-- Node33&#45;&gt;Node31 -->
<g id="edge92" class="edge"><title>Node33&#45;&gt;Node31</title>
<path fill="none" stroke="midnightblue" d="M884.746,-347.444C855.559,-338.28 809.079,-323.688 776.691,-313.519"/>
<polygon fill="midnightblue" stroke="midnightblue" points="777.716,-310.173 767.126,-310.516 775.619,-316.851 777.716,-310.173"/>
</g>
<!-- Node34 -->
<g id="node34" class="node"><title>Node34</title>
<g id="a_node34"><a xlink:href="player__file_8hpp.html" target="_top" xlink:title="Declaration of the PlayerFile class, and associated types. ">
<polygon fill="white" stroke="black" points="1453,-291.5 1453,-310.5 1539,-310.5 1539,-291.5 1453,-291.5"/>
<text text-anchor="middle" x="1496" y="-298.5" font-family="Helvetica,sans-Serif" font-size="10.00">player_file.hpp</text>
</a>
</g>
</g>
<!-- Node33&#45;&gt;Node34 -->
<g id="edge81" class="edge"><title>Node33&#45;&gt;Node34</title>
<path fill="none" stroke="midnightblue" d="M945.072,-352.942C1041.69,-344.008 1324.14,-317.891 1442.67,-306.931"/>
<polygon fill="midnightblue" stroke="midnightblue" points="1443.31,-310.387 1452.94,-305.981 1442.66,-303.417 1443.31,-310.387"/>
</g>
<!-- Node35 -->
<g id="node35" class="node"><title>Node35</title>
<g id="a_node35"><a xlink:href="player__position_8hpp.html" target="_top" xlink:title="Declaration of the PlayerPosition class. ">
<polygon fill="white" stroke="black" points="1605,-235.5 1605,-254.5 1715,-254.5 1715,-235.5 1605,-235.5"/>
<text text-anchor="middle" x="1660" y="-242.5" font-family="Helvetica,sans-Serif" font-size="10.00">player_position.hpp</text>
</a>
</g>
</g>
<!-- Node33&#45;&gt;Node35 -->
<g id="edge91" class="edge"><title>Node33&#45;&gt;Node35</title>
<path fill="none" stroke="midnightblue" d="M945.36,-355.62C1059.51,-354.014 1433.73,-346.128 1548,-311 1583.35,-300.133 1619.52,-276.393 1640.85,-260.811"/>
<polygon fill="midnightblue" stroke="midnightblue" points="1643.12,-263.481 1649.04,-254.693 1638.94,-257.873 1643.12,-263.481"/>
</g>
<!-- Node34&#45;&gt;Node7 -->
<g id="edge83" class="edge"><title>Node34&#45;&gt;Node7</title>
<path fill="none" stroke="midnightblue" d="M1455.59,-291.444C1411.02,-282.004 1339.23,-266.802 1291.11,-256.611"/>
<polygon fill="midnightblue" stroke="midnightblue" points="1291.72,-253.164 1281.22,-254.516 1290.27,-260.012 1291.72,-253.164"/>
</g>
<!-- Node34&#45;&gt;Node14 -->
<g id="edge82" class="edge"><title>Node34&#45;&gt;Node14</title>
<path fill="none" stroke="midnightblue" d="M1508.85,-291.44C1527.8,-278.868 1564.4,-254.761 1596,-235 1646.95,-203.14 1707.54,-167.182 1740.23,-147.935"/>
<polygon fill="midnightblue" stroke="midnightblue" points="1742.21,-150.829 1749.06,-142.743 1738.67,-144.794 1742.21,-150.829"/>
</g>
<!-- Node34&#45;&gt;Node22 -->
<g id="edge85" class="edge"><title>Node34&#45;&gt;Node22</title>
<path fill="none" stroke="midnightblue" d="M1539.42,-297.42C1586.69,-293.271 1663.61,-282.544 1724,-255 1793.39,-223.35 1821.73,-212.101 1854,-143 1861.54,-126.858 1862.13,-106.35 1861.24,-91.6193"/>
<polygon fill="midnightblue" stroke="midnightblue" points="1864.69,-90.8844 1860.3,-81.2386 1857.71,-91.5122 1864.69,-90.8844"/>
</g>
<!-- Node34&#45;&gt;Node28 -->
<g id="edge84" class="edge"><title>Node34&#45;&gt;Node28</title>
<path fill="none" stroke="midnightblue" d="M1452.74,-294.439C1388.73,-286.157 1265.03,-269.952 1160,-255 1029.34,-236.399 876.662,-212.973 792.615,-199.93"/>
<polygon fill="midnightblue" stroke="midnightblue" points="793.131,-196.469 782.712,-198.392 792.057,-203.386 793.131,-196.469"/>
</g>
<!-- Node34&#45;&gt;Node35 -->
<g id="edge86" class="edge"><title>Node34&#45;&gt;Node35</title>
<path fill="none" stroke="midnightblue" d="M1521.99,-291.444C1549.7,-282.32 1593.75,-267.813 1624.62,-257.651"/>
<polygon fill="midnightblue" stroke="midnightblue" points="1625.73,-260.968 1634.14,-254.516 1623.54,-254.32 1625.73,-260.968"/>
</g>
<!-- Node35&#45;&gt;Node17 -->
<g id="edge88" class="edge"><title>Node35&#45;&gt;Node17</title>
<path fill="none" stroke="midnightblue" d="M1654.51,-235.368C1643.01,-217.296 1616.2,-175.176 1601.01,-151.307"/>
<polygon fill="midnightblue" stroke="midnightblue" points="1603.79,-149.149 1595.47,-142.591 1597.88,-152.907 1603.79,-149.149"/>
</g>
<!-- Node35&#45;&gt;Node22 -->
<g id="edge90" class="edge"><title>Node35&#45;&gt;Node22</title>
<path fill="none" stroke="midnightblue" d="M1687.34,-235.404C1725.88,-221.901 1795.83,-192.075 1835,-143 1846.95,-128.022 1853.11,-106.755 1856.18,-91.5026"/>
<polygon fill="midnightblue" stroke="midnightblue" points="1859.7,-91.6662 1857.96,-81.2149 1852.8,-90.4687 1859.7,-91.6662"/>
</g>
<!-- Node35&#45;&gt;Node28 -->
<g id="edge89" class="edge"><title>Node35&#45;&gt;Node28</title>
<path fill="none" stroke="midnightblue" d="M1604.89,-240.804C1442.49,-231.384 966.288,-203.763 792.998,-193.712"/>
<polygon fill="midnightblue" stroke="midnightblue" points="792.948,-190.203 782.762,-193.118 792.542,-197.192 792.948,-190.203"/>
</g>
<!-- Node36 -->
<g id="node36" class="node"><title>Node36</title>
<polygon fill="white" stroke="#bfbfbf" points="1703,-179.5 1703,-198.5 1735,-198.5 1735,-179.5 1703,-179.5"/>
<text text-anchor="middle" x="1719" y="-186.5" font-family="Helvetica,sans-Serif" font-size="10.00">set</text>
</g>
<!-- Node35&#45;&gt;Node36 -->
<g id="edge87" class="edge"><title>Node35&#45;&gt;Node36</title>
<path fill="none" stroke="midnightblue" d="M1669.48,-235.324C1678.2,-227.341 1691.34,-215.313 1701.9,-205.653"/>
<polygon fill="midnightblue" stroke="midnightblue" points="1704.33,-208.167 1709.35,-198.834 1699.61,-203.004 1704.33,-208.167"/>
</g>
</g>
</svg>
