<?xml version="1.0" encoding="UTF-8" standalone="no"?>
<!DOCTYPE svg PUBLIC "-//W3C//DTD SVG 1.1//EN"
 "http://www.w3.org/Graphics/SVG/1.1/DTD/svg11.dtd">
<!-- Generated by graphviz version 2.38.0 (20140413.2041)
 -->
<!-- Title: src/player/player_position.cpp Pages: 1 -->
<!--zoomable 431 -->
<svg id="main" version="1.1" xmlns="http://www.w3.org/2000/svg" xmlns:xlink="http://www.w3.org/1999/xlink" xml:space="preserve" onload="init(evt)">
<style type="text/css"><![CDATA[
.edge:hover path { stroke: red; }
.edge:hover polygon { stroke: red; fill: red; }
]]></style>
<script type="text/javascript"><![CDATA[
var edges = document.getElementsByTagName('g');
if (edges && edges.length) {
  for (var i=0;i<edges.length;i++) {
    if (edges[i].id.substr(0,4)=='edge') {
      edges[i].setAttribute('class','edge');
    }
  }
}
]]></script>
        <defs>
                <circle id="rim" cx="0" cy="0" r="7"/>
                <circle id="rim2" cx="0" cy="0" r="3.5"/>
                <g id="zoomPlus">
                        <use xlink:href="#rim" fill="#404040">
                                <set attributeName="fill" to="#808080" begin="zoomplus.mouseover" end="zoomplus.mouseout"/>
                        </use>
                        <path d="M-4,0h8M0,-4v8" fill="none" stroke="white" stroke-width="1.5" pointer-events="none"/>
                </g>
                <g id="zoomMin">
                        <use xlink:href="#rim" fill="#404040">
                                <set attributeName="fill" to="#808080" begin="zoomminus.mouseover" end="zoomminus.mouseout"/>
                        </use>
                        <path d="M-4,0h8" fill="none" stroke="white" stroke-width="1.5" pointer-events="none"/>
                </g>
                <g id="dirArrow">
                        <path fill="none" stroke="white" stroke-width="1.5" d="M0,-3.0v7 M-2.5,-0.5L0,-3.0L2.5,-0.5"/>
                </g>
               <g id="resetDef">
                       <use xlink:href="#rim2" fill="#404040">
                               <set attributeName="fill" to="#808080" begin="reset.mouseover" end="reset.mouseout"/>
                       </use>
               </g>
        </defs>

<script type="text/javascript">
var viewWidth = 1936;
var viewHeight = 431;
var sectionId = 'dynsection-0';
</script>
<script xlink:href="svgpan.js"/>
<svg id="graph" class="graph">
<g id="viewport">
<title>src/player/player_position.cpp</title>
<polygon fill="white" stroke="none" points="-4,4 -4,-427 1932,-427 1932,4 -4,4"/>
<!-- Node1 -->
<g id="node1" class="node"><title>Node1</title>
<polygon fill="#bfbfbf" stroke="black" points="1545,-403.5 1545,-422.5 1703,-422.5 1703,-403.5 1545,-403.5"/>
<text text-anchor="middle" x="1624" y="-410.5" font-family="Helvetica,sans-Serif" font-size="10.00">src/player/player_position.cpp</text>
</g>
<!-- Node2 -->
<g id="node2" class="node"><title>Node2</title>
<polygon fill="white" stroke="#bfbfbf" points="1538,-62 1538,-81 1588,-81 1588,-62 1538,-62"/>
<text text-anchor="middle" x="1563" y="-69" font-family="Helvetica,sans-Serif" font-size="10.00">chrono</text>
</g>
<!-- Node1&#45;&gt;Node2 -->
<g id="edge1" class="edge"><title>Node1&#45;&gt;Node2</title>
<path fill="none" stroke="midnightblue" d="M1634.77,-403.492C1663.55,-379.674 1739.5,-309.203 1731,-235 1724.62,-179.308 1717.21,-157.464 1673,-123 1650.48,-105.444 1620.87,-92.2968 1598.05,-83.8245"/>
<polygon fill="midnightblue" stroke="midnightblue" points="1599,-80.448 1588.41,-80.3713 1596.64,-87.0381 1599,-80.448"/>
</g>
<!-- Node3 -->
<g id="node3" class="node"><title>Node3</title>
<polygon fill="white" stroke="#bfbfbf" points="1822,-0.5 1822,-19.5 1876,-19.5 1876,-0.5 1822,-0.5"/>
<text text-anchor="middle" x="1849" y="-7.5" font-family="Helvetica,sans-Serif" font-size="10.00">sstream</text>
</g>
<!-- Node1&#45;&gt;Node3 -->
<g id="edge2" class="edge"><title>Node1&#45;&gt;Node3</title>
<path fill="none" stroke="midnightblue" d="M1680.11,-403.472C1767.95,-388.521 1928,-354.128 1928,-302 1928,-302 1928,-302 1928,-132 1928,-88.0139 1890.94,-47.5222 1867.59,-26.3704"/>
<polygon fill="midnightblue" stroke="midnightblue" points="1869.82,-23.6678 1859.98,-19.7212 1865.21,-28.9379 1869.82,-23.6678"/>
</g>
<!-- Node4 -->
<g id="node4" class="node"><title>Node4</title>
<g id="a_node4"><a xlink:href="io__response_8hpp.html" target="_top" xlink:title="Declaration of classes pertaining to responses to the client. ">
<polygon fill="white" stroke="black" points="1219,-235.5 1219,-254.5 1333,-254.5 1333,-235.5 1219,-235.5"/>
<text text-anchor="middle" x="1276" y="-242.5" font-family="Helvetica,sans-Serif" font-size="10.00">../io/io_response.hpp</text>
</a>
</g>
</g>
<!-- Node1&#45;&gt;Node4 -->
<g id="edge3" class="edge"><title>Node1&#45;&gt;Node4</title>
<path fill="none" stroke="midnightblue" d="M1544.77,-405.588C1477.55,-398.905 1387.35,-386.62 1357,-367 1318.39,-342.04 1293.76,-291.48 1282.73,-264.288"/>
<polygon fill="midnightblue" stroke="midnightblue" points="1285.94,-262.868 1279.06,-254.809 1279.41,-265.398 1285.94,-262.868"/>
</g>
<!-- Node11 -->
<g id="node11" class="node"><title>Node11</title>
<g id="a_node11"><a xlink:href="player_8hpp.html" target="_top" xlink:title="Declaration of the Player class, and associated types. ">
<polygon fill="white" stroke="black" points="1366,-347.5 1366,-366.5 1432,-366.5 1432,-347.5 1366,-347.5"/>
<text text-anchor="middle" x="1399" y="-354.5" font-family="Helvetica,sans-Serif" font-size="10.00">player.hpp</text>
</a>
</g>
</g>
<!-- Node1&#45;&gt;Node11 -->
<g id="edge11" class="edge"><title>Node1&#45;&gt;Node11</title>
<path fill="none" stroke="midnightblue" d="M1588.35,-403.444C1548.66,-393.917 1484.52,-378.524 1442.06,-368.333"/>
<polygon fill="midnightblue" stroke="midnightblue" points="1442.83,-364.919 1432.28,-365.988 1441.19,-371.725 1442.83,-364.919"/>
</g>
<!-- Node5 -->
<g id="node5" class="node"><title>Node5</title>
<polygon fill="white" stroke="#bfbfbf" points="1418,-62 1418,-81 1480,-81 1480,-62 1418,-62"/>
<text text-anchor="middle" x="1449" y="-69" font-family="Helvetica,sans-Serif" font-size="10.00">functional</text>
</g>
<!-- Node4&#45;&gt;Node5 -->
<g id="edge4" class="edge"><title>Node4&#45;&gt;Node5</title>
<path fill="none" stroke="midnightblue" d="M1277.69,-235.214C1280.59,-221.926 1287.56,-196.423 1301,-179 1334.09,-136.114 1389.06,-102.978 1421.88,-85.7184"/>
<polygon fill="midnightblue" stroke="midnightblue" points="1423.62,-88.7614 1430.91,-81.0771 1420.42,-82.5356 1423.62,-88.7614"/>
</g>
<!-- Node6 -->
<g id="node6" class="node"><title>Node6</title>
<polygon fill="white" stroke="#bfbfbf" points="1383.5,-179.5 1383.5,-198.5 1420.5,-198.5 1420.5,-179.5 1383.5,-179.5"/>
<text text-anchor="middle" x="1402" y="-186.5" font-family="Helvetica,sans-Serif" font-size="10.00">map</text>
</g>
<!-- Node4&#45;&gt;Node6 -->
<g id="edge5" class="edge"><title>Node4&#45;&gt;Node6</title>
<path fill="none" stroke="midnightblue" d="M1295.97,-235.444C1316.97,-226.44 1350.21,-212.195 1373.87,-202.055"/>
<polygon fill="midnightblue" stroke="midnightblue" points="1375.55,-205.145 1383.36,-197.988 1372.79,-198.711 1375.55,-205.145"/>
</g>
<!-- Node7 -->
<g id="node7" class="node"><title>Node7</title>
<polygon fill="white" stroke="#bfbfbf" points="1310.5,-179.5 1310.5,-198.5 1365.5,-198.5 1365.5,-179.5 1310.5,-179.5"/>
<text text-anchor="middle" x="1338" y="-186.5" font-family="Helvetica,sans-Serif" font-size="10.00">ostream</text>
</g>
<!-- Node4&#45;&gt;Node7 -->
<g id="edge6" class="edge"><title>Node4&#45;&gt;Node7</title>
<path fill="none" stroke="midnightblue" d="M1285.96,-235.324C1295.13,-227.341 1308.94,-215.313 1320.03,-205.653"/>
<polygon fill="midnightblue" stroke="midnightblue" points="1322.62,-208.041 1327.86,-198.834 1318.02,-202.762 1322.62,-208.041"/>
</g>
<!-- Node8 -->
<g id="node8" class="node"><title>Node8</title>
<polygon fill="white" stroke="#bfbfbf" points="436.5,-0.5 436.5,-19.5 479.5,-19.5 479.5,-0.5 436.5,-0.5"/>
<text text-anchor="middle" x="458" y="-7.5" font-family="Helvetica,sans-Serif" font-size="10.00">string</text>
</g>
<!-- Node4&#45;&gt;Node8 -->
<g id="edge7" class="edge"><title>Node4&#45;&gt;Node8</title>
<path fill="none" stroke="midnightblue" d="M1269.58,-235.133C1246.29,-203.742 1162.33,-97.5498 1064,-56 958.903,-11.5909 598.793,-10.1009 489.623,-10.7069"/>
<polygon fill="midnightblue" stroke="midnightblue" points="489.547,-7.20724 479.57,-10.7729 489.593,-14.2071 489.547,-7.20724"/>
</g>
<!-- Node9 -->
<g id="node9" class="node"><title>Node9</title>
<g id="a_node9"><a xlink:href="errors_8hpp.html" target="_top" xlink:title="Declarations of the playd Error exception set. ">
<polygon fill="white" stroke="black" points="1150.5,-62 1150.5,-81 1223.5,-81 1223.5,-62 1150.5,-62"/>
<text text-anchor="middle" x="1187" y="-69" font-family="Helvetica,sans-Serif" font-size="10.00">../errors.hpp</text>
</a>
</g>
</g>
<!-- Node4&#45;&gt;Node9 -->
<g id="edge8" class="edge"><title>Node4&#45;&gt;Node9</title>
<path fill="none" stroke="midnightblue" d="M1272.48,-235.28C1264.21,-215.078 1242.56,-163.694 1220,-123 1213.61,-111.477 1205.53,-99.0842 1198.97,-89.4593"/>
<polygon fill="midnightblue" stroke="midnightblue" points="1201.82,-87.4229 1193.24,-81.198 1196.06,-91.4106 1201.82,-87.4229"/>
</g>
<!-- Node9&#45;&gt;Node3 -->
<g id="edge10" class="edge"><title>Node9&#45;&gt;Node3</title>
<path fill="none" stroke="midnightblue" d="M1223.69,-63.4027C1238.36,-60.7654 1255.43,-57.9451 1271,-56 1474.19,-30.6094 1719.47,-17.1548 1811.61,-12.7006"/>
<polygon fill="midnightblue" stroke="midnightblue" points="1812,-16.1861 1821.82,-12.2137 1811.67,-9.19402 1812,-16.1861"/>
</g>
<!-- Node10 -->
<g id="node10" class="node"><title>Node10</title>
<polygon fill="white" stroke="#bfbfbf" points="1158.5,-0.5 1158.5,-19.5 1215.5,-19.5 1215.5,-0.5 1158.5,-0.5"/>
<text text-anchor="middle" x="1187" y="-7.5" font-family="Helvetica,sans-Serif" font-size="10.00">iostream</text>
</g>
<!-- Node9&#45;&gt;Node10 -->
<g id="edge9" class="edge"><title>Node9&#45;&gt;Node10</title>
<path fill="none" stroke="midnightblue" d="M1187,-61.9751C1187,-53.5803 1187,-40.4806 1187,-29.6631"/>
<polygon fill="midnightblue" stroke="midnightblue" points="1190.5,-29.5091 1187,-19.5091 1183.5,-29.5091 1190.5,-29.5091"/>
</g>
<!-- Node11&#45;&gt;Node2 -->
<g id="edge12" class="edge"><title>Node11&#45;&gt;Node2</title>
<path fill="none" stroke="midnightblue" d="M1432.13,-353.973C1496.97,-349.477 1637.81,-336.952 1678,-311 1703.06,-294.817 1706.41,-283.569 1715,-255 1738.08,-178.206 1638.38,-112.772 1589.12,-85.7527"/>
<polygon fill="midnightblue" stroke="midnightblue" points="1590.74,-82.6493 1580.27,-81.0146 1587.44,-88.8204 1590.74,-82.6493"/>
</g>
<!-- Node11&#45;&gt;Node4 -->
<g id="edge40" class="edge"><title>Node11&#45;&gt;Node4</title>
<path fill="none" stroke="midnightblue" d="M1388.96,-347.455C1378.43,-338.464 1361.45,-323.859 1347,-311 1328.43,-294.467 1307.46,-275.193 1293.15,-261.951"/>
<polygon fill="midnightblue" stroke="midnightblue" points="1295.28,-259.151 1285.57,-254.917 1290.52,-264.284 1295.28,-259.151"/>
</g>
<!-- Node11&#45;&gt;Node5 -->
<g id="edge14" class="edge"><title>Node11&#45;&gt;Node5</title>
<path fill="none" stroke="midnightblue" d="M1399.93,-347.412C1402.17,-327.491 1408.42,-276.653 1418,-235 1421.75,-218.696 1425.24,-215.302 1429,-199 1437.71,-161.219 1443.84,-116.212 1446.85,-91.3545"/>
<polygon fill="midnightblue" stroke="midnightblue" points="1450.36,-91.5098 1448.05,-81.1692 1443.41,-90.6917 1450.36,-91.5098"/>
</g>
<!-- Node11&#45;&gt;Node6 -->
<g id="edge16" class="edge"><title>Node11&#45;&gt;Node6</title>
<path fill="none" stroke="midnightblue" d="M1395.4,-347.222C1391.94,-338.285 1386.97,-323.942 1385,-311 1379.93,-277.606 1378.93,-268.228 1385,-235 1386.69,-225.757 1390.17,-215.948 1393.55,-207.855"/>
<polygon fill="midnightblue" stroke="midnightblue" points="1396.76,-209.252 1397.63,-198.693 1390.37,-206.405 1396.76,-209.252"/>
</g>
<!-- Node11&#45;&gt;Node8 -->
<g id="edge18" class="edge"><title>Node11&#45;&gt;Node8</title>
<path fill="none" stroke="midnightblue" d="M1365.95,-355.476C1205.15,-352.8 503.564,-339.662 287,-311 157.345,-293.84 0,-376.786 0,-246 0,-246 0,-246 0,-132 0,-43.7323 322.004,-18.4168 426.018,-12.5419"/>
<polygon fill="midnightblue" stroke="midnightblue" points="426.422,-16.0253 436.218,-11.9893 426.043,-9.03554 426.422,-16.0253"/>
</g>
<!-- Node12 -->
<g id="node12" class="node"><title>Node12</title>
<polygon fill="white" stroke="#bfbfbf" points="1316.5,-0.5 1316.5,-19.5 1363.5,-19.5 1363.5,-0.5 1316.5,-0.5"/>
<text text-anchor="middle" x="1340" y="-7.5" font-family="Helvetica,sans-Serif" font-size="10.00">cstdint</text>
</g>
<!-- Node11&#45;&gt;Node12 -->
<g id="edge13" class="edge"><title>Node11&#45;&gt;Node12</title>
<path fill="none" stroke="midnightblue" d="M1432.03,-354.961C1501.8,-352.167 1661.25,-342.429 1704,-311 1732.88,-289.766 1740.96,-269.435 1731,-235 1704.86,-144.623 1696.48,-107.88 1618,-56 1578.4,-29.8224 1438.91,-17.4659 1373.87,-13.0251"/>
<polygon fill="midnightblue" stroke="midnightblue" points="1373.93,-9.52198 1363.73,-12.356 1373.47,-16.5068 1373.93,-9.52198"/>
</g>
<!-- Node13 -->
<g id="node13" class="node"><title>Node13</title>
<polygon fill="white" stroke="#bfbfbf" points="1629.5,-235.5 1629.5,-254.5 1706.5,-254.5 1706.5,-235.5 1629.5,-235.5"/>
<text text-anchor="middle" x="1668" y="-242.5" font-family="Helvetica,sans-Serif" font-size="10.00">initializer_list</text>
</g>
<!-- Node11&#45;&gt;Node13 -->
<g id="edge15" class="edge"><title>Node11&#45;&gt;Node13</title>
<path fill="none" stroke="midnightblue" d="M1432.25,-354.9C1494.93,-352.102 1627.08,-342.524 1658,-311 1669.73,-299.037 1671.3,-279.427 1670.5,-264.87"/>
<polygon fill="midnightblue" stroke="midnightblue" points="1673.95,-264.138 1669.5,-254.521 1666.98,-264.811 1673.95,-264.138"/>
</g>
<!-- Node14 -->
<g id="node14" class="node"><title>Node14</title>
<polygon fill="white" stroke="#bfbfbf" points="28,-123.5 28,-142.5 82,-142.5 82,-123.5 28,-123.5"/>
<text text-anchor="middle" x="55" y="-130.5" font-family="Helvetica,sans-Serif" font-size="10.00">memory</text>
</g>
<!-- Node11&#45;&gt;Node14 -->
<g id="edge17" class="edge"><title>Node11&#45;&gt;Node14</title>
<path fill="none" stroke="midnightblue" d="M1365.81,-355.579C1197.52,-353.309 442.692,-341.492 343,-311 229.591,-276.312 115.772,-186.098 72.855,-149.633"/>
<polygon fill="midnightblue" stroke="midnightblue" points="74.8832,-146.761 65.0179,-142.898 70.3206,-152.07 74.8832,-146.761"/>
</g>
<!-- Node15 -->
<g id="node15" class="node"><title>Node15</title>
<polygon fill="white" stroke="#bfbfbf" points="290,-123.5 290,-142.5 330,-142.5 330,-123.5 290,-123.5"/>
<text text-anchor="middle" x="310" y="-130.5" font-family="Helvetica,sans-Serif" font-size="10.00">utility</text>
</g>
<!-- Node11&#45;&gt;Node15 -->
<g id="edge19" class="edge"><title>Node11&#45;&gt;Node15</title>
<path fill="none" stroke="midnightblue" d="M1365.69,-355.142C1272.16,-352.401 999.312,-342.126 775,-311 531.356,-277.191 388.34,-389.722 233,-199 214.836,-176.698 251.764,-156.232 280.511,-144.442"/>
<polygon fill="midnightblue" stroke="midnightblue" points="281.818,-147.689 289.855,-140.787 279.267,-141.171 281.818,-147.689"/>
</g>
<!-- Node16 -->
<g id="node16" class="node"><title>Node16</title>
<g id="a_node16"><a xlink:href="audio_8hpp.html" target="_top" xlink:title="Declaration of the Audio class. ">
<polygon fill="white" stroke="black" points="811,-179.5 811,-198.5 909,-198.5 909,-179.5 811,-179.5"/>
<text text-anchor="middle" x="860" y="-186.5" font-family="Helvetica,sans-Serif" font-size="10.00">../audio/audio.hpp</text>
</a>
</g>
</g>
<!-- Node11&#45;&gt;Node16 -->
<g id="edge20" class="edge"><title>Node11&#45;&gt;Node16</title>
<path fill="none" stroke="midnightblue" d="M1371.16,-347.425C1281.34,-319.764 999.236,-232.882 897.253,-201.473"/>
<polygon fill="midnightblue" stroke="midnightblue" points="898.265,-198.123 887.678,-198.524 896.204,-204.812 898.265,-198.123"/>
</g>
<!-- Node24 -->
<g id="node24" class="node"><title>Node24</title>
<g id="a_node24"><a xlink:href="time__parser_8hpp.html" target="_top" xlink:title="The TimeParser template class. ">
<polygon fill="white" stroke="black" points="1798.5,-123.5 1798.5,-142.5 1899.5,-142.5 1899.5,-123.5 1798.5,-123.5"/>
<text text-anchor="middle" x="1849" y="-130.5" font-family="Helvetica,sans-Serif" font-size="10.00">../time_parser.hpp</text>
</a>
</g>
</g>
<!-- Node11&#45;&gt;Node24 -->
<g id="edge41" class="edge"><title>Node11&#45;&gt;Node24</title>
<path fill="none" stroke="midnightblue" d="M1432.29,-356.521C1516.04,-357.162 1732.65,-354.47 1787,-311 1836.33,-271.543 1846.5,-190.238 1848.53,-153.172"/>
<polygon fill="midnightblue" stroke="midnightblue" points="1852.04,-152.933 1848.95,-142.801 1845.05,-152.654 1852.04,-152.933"/>
</g>
<!-- Node25 -->
<g id="node25" class="node"><title>Node25</title>
<g id="a_node25"><a xlink:href="player__file_8hpp.html" target="_top" xlink:title="Declaration of the PlayerFile class, and associated types. ">
<polygon fill="white" stroke="black" points="784,-291.5 784,-310.5 870,-310.5 870,-291.5 784,-291.5"/>
<text text-anchor="middle" x="827" y="-298.5" font-family="Helvetica,sans-Serif" font-size="10.00">player_file.hpp</text>
</a>
</g>
</g>
<!-- Node11&#45;&gt;Node25 -->
<g id="edge45" class="edge"><title>Node11&#45;&gt;Node25</title>
<path fill="none" stroke="midnightblue" d="M1365.77,-352.863C1270.65,-343.883 996.638,-318.015 880.281,-307.03"/>
<polygon fill="midnightblue" stroke="midnightblue" points="880.47,-303.532 870.185,-306.077 879.812,-310.501 880.47,-303.532"/>
</g>
<!-- Node34 -->
<g id="node34" class="node"><title>Node34</title>
<g id="a_node34"><a xlink:href="player__position_8hpp.html" target="_top" xlink:title="Declaration of the PlayerPosition class. ">
<polygon fill="white" stroke="black" points="1427.5,-291.5 1427.5,-310.5 1536.5,-310.5 1536.5,-291.5 1427.5,-291.5"/>
<text text-anchor="middle" x="1482" y="-298.5" font-family="Helvetica,sans-Serif" font-size="10.00">player_position.hpp</text>
</a>
</g>
</g>
<!-- Node11&#45;&gt;Node34 -->
<g id="edge74" class="edge"><title>Node11&#45;&gt;Node34</title>
<path fill="none" stroke="midnightblue" d="M1412.34,-347.324C1425.16,-338.979 1444.78,-326.212 1459.94,-316.352"/>
<polygon fill="midnightblue" stroke="midnightblue" points="1462.22,-319.042 1468.7,-310.655 1458.41,-313.174 1462.22,-319.042"/>
</g>
<!-- Node36 -->
<g id="node36" class="node"><title>Node36</title>
<g id="a_node36"><a xlink:href="player__state_8hpp.html" target="_top" xlink:title="Declaration of the PlayerState class, and associated types. ">
<polygon fill="white" stroke="black" points="1554.5,-291.5 1554.5,-310.5 1649.5,-310.5 1649.5,-291.5 1554.5,-291.5"/>
<text text-anchor="middle" x="1602" y="-298.5" font-family="Helvetica,sans-Serif" font-size="10.00">player_state.hpp</text>
</a>
</g>
</g>
<!-- Node11&#45;&gt;Node36 -->
<g id="edge79" class="edge"><title>Node11&#45;&gt;Node36</title>
<path fill="none" stroke="midnightblue" d="M1431.17,-347.444C1466.06,-338.162 1521.89,-323.309 1560.17,-313.127"/>
<polygon fill="midnightblue" stroke="midnightblue" points="1561.22,-316.47 1569.98,-310.516 1559.42,-309.705 1561.22,-316.47"/>
</g>
<!-- Node16&#45;&gt;Node2 -->
<g id="edge21" class="edge"><title>Node16&#45;&gt;Node2</title>
<path fill="none" stroke="midnightblue" d="M909.031,-180.712C1015.04,-164.828 1273.41,-125.42 1489,-87 1501.69,-84.7391 1515.56,-82.073 1527.83,-79.6476"/>
<polygon fill="midnightblue" stroke="midnightblue" points="1528.57,-83.068 1537.7,-77.6811 1527.2,-76.203 1528.57,-83.068"/>
</g>
<!-- Node16&#45;&gt;Node8 -->
<g id="edge24" class="edge"><title>Node16&#45;&gt;Node8</title>
<path fill="none" stroke="midnightblue" d="M859.813,-179.088C859.03,-165.162 855.463,-138.259 840,-123 741.271,-25.5756 562.561,-12.0707 489.956,-10.7824"/>
<polygon fill="midnightblue" stroke="midnightblue" points="489.676,-7.27925 479.639,-10.6709 489.601,-14.2788 489.676,-7.27925"/>
</g>
<!-- Node16&#45;&gt;Node12 -->
<g id="edge22" class="edge"><title>Node16&#45;&gt;Node12</title>
<path fill="none" stroke="midnightblue" d="M909.027,-181.364C982.51,-169.979 1124.09,-142.395 1232,-87 1251.7,-76.8877 1253.04,-68.9509 1271,-56 1286.08,-45.1255 1303.64,-33.6911 1317.27,-25.0697"/>
<polygon fill="midnightblue" stroke="midnightblue" points="1319.39,-27.8717 1326,-19.5919 1315.67,-21.9422 1319.39,-27.8717"/>
</g>
<!-- Node16&#45;&gt;Node14 -->
<g id="edge23" class="edge"><title>Node16&#45;&gt;Node14</title>
<path fill="none" stroke="midnightblue" d="M810.725,-185.981C692.8,-180.928 385.091,-166.435 129,-143 116.939,-141.896 103.806,-140.397 91.998,-138.938"/>
<polygon fill="midnightblue" stroke="midnightblue" points="92.3818,-135.459 82.022,-137.678 91.5045,-142.404 92.3818,-135.459"/>
</g>
<!-- Node16&#45;&gt;Node15 -->
<g id="edge25" class="edge"><title>Node16&#45;&gt;Node15</title>
<path fill="none" stroke="midnightblue" d="M810.667,-187.255C719.319,-185.116 517.721,-176.841 340.182,-142.814"/>
<polygon fill="midnightblue" stroke="midnightblue" points="340.624,-139.335 330.139,-140.857 339.285,-146.205 340.624,-139.335"/>
</g>
<!-- Node17 -->
<g id="node17" class="node"><title>Node17</title>
<polygon fill="white" stroke="#bfbfbf" points="853,-62 853,-81 899,-81 899,-62 853,-62"/>
<text text-anchor="middle" x="876" y="-69" font-family="Helvetica,sans-Serif" font-size="10.00">vector</text>
</g>
<!-- Node16&#45;&gt;Node17 -->
<g id="edge26" class="edge"><title>Node16&#45;&gt;Node17</title>
<path fill="none" stroke="midnightblue" d="M863.523,-179.209C866.919,-170.263 871.85,-155.913 874,-143 876.888,-125.655 877.165,-105.584 876.852,-91.3043"/>
<polygon fill="midnightblue" stroke="midnightblue" points="880.348,-91.1325 876.513,-81.2564 873.352,-91.3688 880.348,-91.1325"/>
</g>
<!-- Node18 -->
<g id="node18" class="node"><title>Node18</title>
<polygon fill="white" stroke="#bfbfbf" points="762.5,-123.5 762.5,-142.5 831.5,-142.5 831.5,-123.5 762.5,-123.5"/>
<text text-anchor="middle" x="797" y="-130.5" font-family="Helvetica,sans-Serif" font-size="10.00">portaudio.h</text>
</g>
<!-- Node16&#45;&gt;Node18 -->
<g id="edge27" class="edge"><title>Node16&#45;&gt;Node18</title>
<path fill="none" stroke="midnightblue" d="M849.878,-179.324C840.474,-171.263 826.256,-159.077 814.931,-149.369"/>
<polygon fill="midnightblue" stroke="midnightblue" points="817.177,-146.684 807.306,-142.834 812.621,-151.999 817.177,-146.684"/>
</g>
<!-- Node19 -->
<g id="node19" class="node"><title>Node19</title>
<polygon fill="white" stroke="#bfbfbf" points="562,-123.5 562,-142.5 744,-142.5 744,-123.5 562,-123.5"/>
<text text-anchor="middle" x="653" y="-130.5" font-family="Helvetica,sans-Serif" font-size="10.00">portaudiocpp/CallbackInterface.hxx</text>
</g>
<!-- Node16&#45;&gt;Node19 -->
<g id="edge28" class="edge"><title>Node16&#45;&gt;Node19</title>
<path fill="none" stroke="midnightblue" d="M827.2,-179.444C791.62,-170.162 734.686,-155.309 695.653,-145.127"/>
<polygon fill="midnightblue" stroke="midnightblue" points="696.206,-141.654 685.646,-142.516 694.439,-148.427 696.206,-141.654"/>
</g>
<!-- Node20 -->
<g id="node20" class="node"><title>Node20</title>
<g id="a_node20"><a xlink:href="audio__source_8hpp.html" target="_top" xlink:title="Declaration of the AudioSource class. ">
<polygon fill="white" stroke="black" points="926,-123.5 926,-142.5 1026,-142.5 1026,-123.5 926,-123.5"/>
<text text-anchor="middle" x="976" y="-130.5" font-family="Helvetica,sans-Serif" font-size="10.00">audio_source.hpp</text>
</a>
</g>
</g>
<!-- Node16&#45;&gt;Node20 -->
<g id="edge29" class="edge"><title>Node16&#45;&gt;Node20</title>
<path fill="none" stroke="midnightblue" d="M878.381,-179.444C897.216,-170.675 926.731,-156.935 948.379,-146.858"/>
<polygon fill="midnightblue" stroke="midnightblue" points="950.117,-149.91 957.705,-142.516 947.162,-143.564 950.117,-149.91"/>
</g>
<!-- Node20&#45;&gt;Node2 -->
<g id="edge31" class="edge"><title>Node20&#45;&gt;Node2</title>
<path fill="none" stroke="midnightblue" d="M1026.06,-127.576C1042.6,-126.117 1061.09,-124.487 1078,-123 1260.66,-106.942 1307.44,-112.666 1489,-87 1501.76,-85.1962 1515.65,-82.6357 1527.91,-80.1671"/>
<polygon fill="midnightblue" stroke="midnightblue" points="1528.68,-83.5819 1537.77,-78.1337 1527.27,-76.7262 1528.68,-83.5819"/>
</g>
<!-- Node20&#45;&gt;Node5 -->
<g id="edge33" class="edge"><title>Node20&#45;&gt;Node5</title>
<path fill="none" stroke="midnightblue" d="M1026.07,-127.455C1131.87,-117.754 1371.5,-95.2341 1408,-87 1411.24,-86.269 1414.58,-85.3609 1417.88,-84.3583"/>
<polygon fill="midnightblue" stroke="midnightblue" points="1419.18,-87.6148 1427.58,-81.1489 1416.98,-80.9696 1419.18,-87.6148"/>
</g>
<!-- Node20&#45;&gt;Node8 -->
<g id="edge34" class="edge"><title>Node20&#45;&gt;Node8</title>
<path fill="none" stroke="midnightblue" d="M971.057,-123.013C961.402,-106.452 938.303,-71.4037 908,-56 834.69,-18.7348 580.033,-12.3252 489.911,-11.2262"/>
<polygon fill="midnightblue" stroke="midnightblue" points="489.796,-7.72486 479.759,-11.1168 489.721,-14.7245 489.796,-7.72486"/>
</g>
<!-- Node20&#45;&gt;Node9 -->
<g id="edge37" class="edge"><title>Node20&#45;&gt;Node9</title>
<path fill="none" stroke="midnightblue" d="M1006.23,-123.475C1043.29,-113.026 1106.19,-95.2868 1147.16,-83.7332"/>
<polygon fill="midnightblue" stroke="midnightblue" points="1148.15,-87.0918 1156.82,-81.0091 1146.25,-80.3546 1148.15,-87.0918"/>
</g>
<!-- Node20&#45;&gt;Node12 -->
<g id="edge32" class="edge"><title>Node20&#45;&gt;Node12</title>
<path fill="none" stroke="midnightblue" d="M991.931,-123.288C1020.85,-107.789 1084.25,-75.2484 1141,-56 1197.66,-36.7822 1266.18,-23.3343 1306.25,-16.4084"/>
<polygon fill="midnightblue" stroke="midnightblue" points="1307,-19.8302 1316.28,-14.7084 1305.83,-12.9286 1307,-19.8302"/>
</g>
<!-- Node20&#45;&gt;Node17 -->
<g id="edge35" class="edge"><title>Node20&#45;&gt;Node17</title>
<path fill="none" stroke="midnightblue" d="M961.672,-123.475C945.336,-113.755 918.398,-97.7266 899.088,-86.2372"/>
<polygon fill="midnightblue" stroke="midnightblue" points="900.685,-83.1146 890.301,-81.0091 897.105,-89.1303 900.685,-83.1146"/>
</g>
<!-- Node21 -->
<g id="node21" class="node"><title>Node21</title>
<polygon fill="white" stroke="#bfbfbf" points="955.5,-62 955.5,-81 996.5,-81 996.5,-62 955.5,-62"/>
<text text-anchor="middle" x="976" y="-69" font-family="Helvetica,sans-Serif" font-size="10.00">array</text>
</g>
<!-- Node20&#45;&gt;Node21 -->
<g id="edge30" class="edge"><title>Node20&#45;&gt;Node21</title>
<path fill="none" stroke="midnightblue" d="M976,-123.475C976,-115.08 976,-101.981 976,-91.1631"/>
<polygon fill="midnightblue" stroke="midnightblue" points="979.5,-91.0091 976,-81.0091 972.5,-91.0091 979.5,-91.0091"/>
</g>
<!-- Node22 -->
<g id="node22" class="node"><title>Node22</title>
<polygon fill="white" stroke="#bfbfbf" points="1014.5,-62 1014.5,-81 1055.5,-81 1055.5,-62 1014.5,-62"/>
<text text-anchor="middle" x="1035" y="-69" font-family="Helvetica,sans-Serif" font-size="10.00">sox.h</text>
</g>
<!-- Node20&#45;&gt;Node22 -->
<g id="edge36" class="edge"><title>Node20&#45;&gt;Node22</title>
<path fill="none" stroke="midnightblue" d="M984.453,-123.475C993.566,-114.285 1008.27,-99.4563 1019.48,-88.156"/>
<polygon fill="midnightblue" stroke="midnightblue" points="1022.01,-90.5744 1026.56,-81.0091 1017.04,-85.6455 1022.01,-90.5744"/>
</g>
<!-- Node23 -->
<g id="node23" class="node"><title>Node23</title>
<g id="a_node23"><a xlink:href="sample__formats_8hpp.html" target="_top" xlink:title="The SampleFormat enumeration. ">
<polygon fill="white" stroke="black" points="1280.5,-62 1280.5,-81 1399.5,-81 1399.5,-62 1280.5,-62"/>
<text text-anchor="middle" x="1340" y="-69" font-family="Helvetica,sans-Serif" font-size="10.00">../sample_formats.hpp</text>
</a>
</g>
</g>
<!-- Node20&#45;&gt;Node23 -->
<g id="edge38" class="edge"><title>Node20&#45;&gt;Node23</title>
<path fill="none" stroke="midnightblue" d="M1026.23,-123.789C1091.85,-113.063 1206.72,-94.286 1277.78,-82.6709"/>
<polygon fill="midnightblue" stroke="midnightblue" points="1278.63,-86.0784 1287.93,-81.0109 1277.5,-79.1701 1278.63,-86.0784"/>
</g>
<!-- Node23&#45;&gt;Node12 -->
<g id="edge39" class="edge"><title>Node23&#45;&gt;Node12</title>
<path fill="none" stroke="midnightblue" d="M1340,-61.9751C1340,-53.5803 1340,-40.4806 1340,-29.6631"/>
<polygon fill="midnightblue" stroke="midnightblue" points="1343.5,-29.5091 1340,-19.5091 1336.5,-29.5091 1343.5,-29.5091"/>
</g>
<!-- Node24&#45;&gt;Node2 -->
<g id="edge42" class="edge"><title>Node24&#45;&gt;Node2</title>
<path fill="none" stroke="midnightblue" d="M1808.02,-123.475C1751.69,-111.756 1651.3,-90.8699 1598.19,-79.821"/>
<polygon fill="midnightblue" stroke="midnightblue" points="1598.73,-76.3583 1588.23,-77.748 1597.3,-83.2115 1598.73,-76.3583"/>
</g>
<!-- Node24&#45;&gt;Node3 -->
<g id="edge44" class="edge"><title>Node24&#45;&gt;Node3</title>
<path fill="none" stroke="midnightblue" d="M1849,-123.298C1849,-103.85 1849,-56.49 1849,-29.9036"/>
<polygon fill="midnightblue" stroke="midnightblue" points="1852.5,-29.6231 1849,-19.6232 1845.5,-29.6232 1852.5,-29.6231"/>
</g>
<!-- Node24&#45;&gt;Node12 -->
<g id="edge43" class="edge"><title>Node24&#45;&gt;Node12</title>
<path fill="none" stroke="midnightblue" d="M1844.38,-123.023C1835.33,-106.478 1813.54,-71.4564 1784,-56 1712.69,-18.6796 1464.66,-12.2964 1373.74,-11.2159"/>
<polygon fill="midnightblue" stroke="midnightblue" points="1373.74,-7.71578 1363.7,-11.1109 1373.66,-14.7154 1373.74,-7.71578"/>
</g>
<!-- Node25&#45;&gt;Node4 -->
<g id="edge73" class="edge"><title>Node25&#45;&gt;Node4</title>
<path fill="none" stroke="midnightblue" d="M870.052,-294.822C948.436,-285.395 1114.96,-265.367 1208.55,-254.112"/>
<polygon fill="midnightblue" stroke="midnightblue" points="1209.24,-257.554 1218.75,-252.885 1208.41,-250.604 1209.24,-257.554"/>
</g>
<!-- Node25&#45;&gt;Node14 -->
<g id="edge46" class="edge"><title>Node25&#45;&gt;Node14</title>
<path fill="none" stroke="midnightblue" d="M783.74,-299.777C674.574,-297.899 380.56,-284.618 155,-199 123.607,-187.084 91.8598,-164.182 72.8039,-148.994"/>
<polygon fill="midnightblue" stroke="midnightblue" points="74.9516,-146.23 64.9884,-142.626 70.5298,-151.656 74.9516,-146.23"/>
</g>
<!-- Node26 -->
<g id="node26" class="node"><title>Node26</title>
<g id="a_node26"><a xlink:href="audio__system_8hpp.html" target="_top" xlink:title="Declaration of the AudioSystem class. ">
<polygon fill="white" stroke="black" points="611.5,-235.5 611.5,-254.5 748.5,-254.5 748.5,-235.5 611.5,-235.5"/>
<text text-anchor="middle" x="680" y="-242.5" font-family="Helvetica,sans-Serif" font-size="10.00">../audio/audio_system.hpp</text>
</a>
</g>
</g>
<!-- Node25&#45;&gt;Node26 -->
<g id="edge47" class="edge"><title>Node25&#45;&gt;Node26</title>
<path fill="none" stroke="midnightblue" d="M803.707,-291.444C779.193,-282.438 740.404,-268.189 712.8,-258.049"/>
<polygon fill="midnightblue" stroke="midnightblue" points="713.777,-254.679 703.184,-254.516 711.363,-261.25 713.777,-254.679"/>
</g>
<!-- Node26&#45;&gt;Node5 -->
<g id="edge48" class="edge"><title>Node26&#45;&gt;Node5</title>
<path fill="none" stroke="midnightblue" d="M748.756,-236.753C813.256,-229.362 912.211,-216.499 997,-199 1182.42,-160.732 1227.3,-143.49 1408,-87 1410.61,-86.1834 1413.31,-85.3073 1416.01,-84.4049"/>
<polygon fill="midnightblue" stroke="midnightblue" points="1417.36,-87.6402 1425.68,-81.0815 1415.09,-81.0199 1417.36,-87.6402"/>
</g>
<!-- Node26&#45;&gt;Node8 -->
<g id="edge49" class="edge"><title>Node26&#45;&gt;Node8</title>
<path fill="none" stroke="midnightblue" d="M611.413,-241.43C500.128,-236.584 285.469,-224.234 214,-199 171.341,-183.938 150.455,-182.828 129,-143 119.308,-125.008 103.895,-86.83 132,-56 170.887,-13.3417 351.486,-9.98912 425.862,-10.4701"/>
<polygon fill="midnightblue" stroke="midnightblue" points="426.003,-13.9714 436.035,-10.5646 426.068,-6.97175 426.003,-13.9714"/>
</g>
<!-- Node26&#45;&gt;Node15 -->
<g id="edge50" class="edge"><title>Node26&#45;&gt;Node15</title>
<path fill="none" stroke="midnightblue" d="M625.315,-235.461C584.732,-228.211 528.447,-216.219 481,-199 462.689,-192.355 459.933,-186.607 442,-179 423.315,-171.074 372.489,-154.229 339.634,-143.547"/>
<polygon fill="midnightblue" stroke="midnightblue" points="340.663,-140.201 330.071,-140.446 338.504,-146.859 340.663,-140.201"/>
</g>
<!-- Node26&#45;&gt;Node16 -->
<g id="edge72" class="edge"><title>Node26&#45;&gt;Node16</title>
<path fill="none" stroke="midnightblue" d="M708.522,-235.444C739.066,-226.28 787.708,-211.688 821.603,-201.519"/>
<polygon fill="midnightblue" stroke="midnightblue" points="823.039,-204.742 831.612,-198.516 821.028,-198.038 823.039,-204.742"/>
</g>
<!-- Node26&#45;&gt;Node20 -->
<g id="edge71" class="edge"><title>Node26&#45;&gt;Node20</title>
<path fill="none" stroke="midnightblue" d="M748.63,-242.66C798.477,-239.019 866.019,-228.388 918,-199 938.279,-187.535 955.153,-166.335 965.377,-151.265"/>
<polygon fill="midnightblue" stroke="midnightblue" points="968.351,-153.111 970.855,-142.817 962.478,-149.303 968.351,-153.111"/>
</g>
<!-- Node26&#45;&gt;Node23 -->
<g id="edge53" class="edge"><title>Node26&#45;&gt;Node23</title>
<path fill="none" stroke="midnightblue" d="M743.624,-235.463C797.583,-227.683 876.85,-214.98 945,-199 1029.05,-179.291 1048.75,-169.245 1131,-143 1193.01,-123.212 1264.82,-98.619 1306.07,-84.3268"/>
<polygon fill="midnightblue" stroke="midnightblue" points="1307.33,-87.5949 1315.63,-81.0101 1305.04,-80.9817 1307.33,-87.5949"/>
</g>
<!-- Node27 -->
<g id="node27" class="node"><title>Node27</title>
<polygon fill="white" stroke="#bfbfbf" points="242.5,-179.5 242.5,-198.5 433.5,-198.5 433.5,-179.5 242.5,-179.5"/>
<text text-anchor="middle" x="338" y="-186.5" font-family="Helvetica,sans-Serif" font-size="10.00">portaudiocpp/SampleDataFormat.hxx</text>
</g>
<!-- Node26&#45;&gt;Node27 -->
<g id="edge51" class="edge"><title>Node26&#45;&gt;Node27</title>
<path fill="none" stroke="midnightblue" d="M625.809,-235.444C565.022,-225.846 466.513,-210.292 401.99,-200.104"/>
<polygon fill="midnightblue" stroke="midnightblue" points="402.361,-196.619 391.937,-198.516 401.269,-203.533 402.361,-196.619"/>
</g>
<!-- Node28 -->
<g id="node28" class="node"><title>Node28</title>
<polygon fill="white" stroke="#bfbfbf" points="138,-123.5 138,-142.5 272,-142.5 272,-123.5 138,-123.5"/>
<text text-anchor="middle" x="205" y="-130.5" font-family="Helvetica,sans-Serif" font-size="10.00">portaudiocpp/Stream.hxx</text>
</g>
<!-- Node26&#45;&gt;Node28 -->
<g id="edge52" class="edge"><title>Node26&#45;&gt;Node28</title>
<path fill="none" stroke="midnightblue" d="M611.217,-240.888C493.419,-235.001 262.809,-220.835 233,-199 218.308,-188.238 211.242,-168.149 207.898,-153.141"/>
<polygon fill="midnightblue" stroke="midnightblue" points="211.262,-152.088 206,-142.893 204.379,-153.363 211.262,-152.088"/>
</g>
<!-- Node29 -->
<g id="node29" class="node"><title>Node29</title>
<g id="a_node29"><a xlink:href="audio__sink_8hpp.html" target="_top" xlink:title="Declaration of the AudioSink class. ">
<polygon fill="white" stroke="black" points="490.5,-179.5 490.5,-198.5 577.5,-198.5 577.5,-179.5 490.5,-179.5"/>
<text text-anchor="middle" x="534" y="-186.5" font-family="Helvetica,sans-Serif" font-size="10.00">audio_sink.hpp</text>
</a>
</g>
</g>
<!-- Node26&#45;&gt;Node29 -->
<g id="edge54" class="edge"><title>Node26&#45;&gt;Node29</title>
<path fill="none" stroke="midnightblue" d="M656.866,-235.444C632.518,-226.438 593.993,-212.189 566.577,-202.049"/>
<polygon fill="midnightblue" stroke="midnightblue" points="567.619,-198.703 557.026,-198.516 565.191,-205.268 567.619,-198.703"/>
</g>
<!-- Node29&#45;&gt;Node2 -->
<g id="edge55" class="edge"><title>Node29&#45;&gt;Node2</title>
<path fill="none" stroke="midnightblue" d="M577.668,-185.097C664.818,-179.079 866.451,-164.028 1035,-143 1090.83,-136.035 1104.24,-130.507 1160,-123 1305.78,-103.374 1343.58,-109.162 1489,-87 1501.74,-85.0584 1515.62,-82.466 1527.89,-80.0105"/>
<polygon fill="midnightblue" stroke="midnightblue" points="1528.65,-83.427 1537.75,-77.9972 1527.25,-76.5685 1528.65,-83.427"/>
</g>
<!-- Node29&#45;&gt;Node8 -->
<g id="edge58" class="edge"><title>Node29&#45;&gt;Node8</title>
<path fill="none" stroke="midnightblue" d="M519.203,-179.243C507.204,-171.329 490.877,-158.553 482,-143 461.382,-106.876 457.85,-56.9198 457.6,-30.0064"/>
<polygon fill="midnightblue" stroke="midnightblue" points="461.102,-29.7117 457.66,-19.6916 454.102,-29.6711 461.102,-29.7117"/>
</g>
<!-- Node29&#45;&gt;Node12 -->
<g id="edge56" class="edge"><title>Node29&#45;&gt;Node12</title>
<path fill="none" stroke="midnightblue" d="M531.397,-179.237C527.909,-165.514 523.593,-138.884 537,-123 627.078,-16.2773 705.968,-77.2392 844,-56 889.448,-49.0069 1201.84,-22.5644 1306.16,-13.8238"/>
<polygon fill="midnightblue" stroke="midnightblue" points="1306.76,-17.286 1316.44,-12.964 1306.18,-10.3103 1306.76,-17.286"/>
</g>
<!-- Node29&#45;&gt;Node14 -->
<g id="edge57" class="edge"><title>Node29&#45;&gt;Node14</title>
<path fill="none" stroke="midnightblue" d="M490.233,-183.287C415.938,-175.254 260.407,-158.291 129,-143 116.969,-141.6 103.845,-140.021 92.0352,-138.581"/>
<polygon fill="midnightblue" stroke="midnightblue" points="92.4065,-135.1 82.0552,-137.359 91.5557,-142.048 92.4065,-135.1"/>
</g>
<!-- Node29&#45;&gt;Node15 -->
<g id="edge59" class="edge"><title>Node29&#45;&gt;Node15</title>
<path fill="none" stroke="midnightblue" d="M493.072,-179.479C455.551,-171.462 398.267,-158.707 339.968,-143.116"/>
<polygon fill="midnightblue" stroke="midnightblue" points="340.792,-139.714 330.226,-140.487 338.968,-146.472 340.792,-139.714"/>
</g>
<!-- Node29&#45;&gt;Node17 -->
<g id="edge60" class="edge"><title>Node29&#45;&gt;Node17</title>
<path fill="none" stroke="midnightblue" d="M533.8,-179.315C533.985,-165.205 536.57,-137.432 553,-123 595.676,-85.5136 769.07,-75.7745 842.688,-73.3094"/>
<polygon fill="midnightblue" stroke="midnightblue" points="842.911,-76.8042 852.798,-72.996 842.695,-69.8076 842.911,-76.8042"/>
</g>
<!-- Node29&#45;&gt;Node18 -->
<g id="edge61" class="edge"><title>Node29&#45;&gt;Node18</title>
<path fill="none" stroke="midnightblue" d="M575.673,-179.444C623.813,-169.559 702.717,-153.359 752.159,-143.207"/>
<polygon fill="midnightblue" stroke="midnightblue" points="753.149,-146.577 762.241,-141.137 751.741,-139.72 753.149,-146.577"/>
</g>
<!-- Node29&#45;&gt;Node19 -->
<g id="edge62" class="edge"><title>Node29&#45;&gt;Node19</title>
<path fill="none" stroke="midnightblue" d="M552.856,-179.444C572.266,-170.636 602.73,-156.812 624.965,-146.722"/>
<polygon fill="midnightblue" stroke="midnightblue" points="626.572,-149.836 634.232,-142.516 623.68,-143.462 626.572,-149.836"/>
</g>
<!-- Node29&#45;&gt;Node20 -->
<g id="edge64" class="edge"><title>Node29&#45;&gt;Node20</title>
<path fill="none" stroke="midnightblue" d="M577.59,-182.674C656.966,-172.977 825.21,-152.422 915.586,-141.381"/>
<polygon fill="midnightblue" stroke="midnightblue" points="916.177,-144.835 925.679,-140.148 915.328,-137.886 916.177,-144.835"/>
</g>
<!-- Node29&#45;&gt;Node28 -->
<g id="edge63" class="edge"><title>Node29&#45;&gt;Node28</title>
<path fill="none" stroke="midnightblue" d="M490.311,-180.829C433.07,-171.434 332.332,-154.899 267.156,-144.202"/>
<polygon fill="midnightblue" stroke="midnightblue" points="267.448,-140.703 257.013,-142.537 266.314,-147.611 267.448,-140.703"/>
</g>
<!-- Node30 -->
<g id="node30" class="node"><title>Node30</title>
<g id="a_node30"><a xlink:href="ringbuffer_8hpp.html" target="_top" xlink:title="The RingBuffer class template. ">
<polygon fill="white" stroke="black" points="348.5,-123.5 348.5,-142.5 429.5,-142.5 429.5,-123.5 348.5,-123.5"/>
<text text-anchor="middle" x="389" y="-130.5" font-family="Helvetica,sans-Serif" font-size="10.00">ringbuffer.hpp</text>
</a>
</g>
</g>
<!-- Node29&#45;&gt;Node30 -->
<g id="edge65" class="edge"><title>Node29&#45;&gt;Node30</title>
<path fill="none" stroke="midnightblue" d="M511.024,-179.444C486.843,-170.438 448.582,-156.189 421.354,-146.049"/>
<polygon fill="midnightblue" stroke="midnightblue" points="422.461,-142.727 411.868,-142.516 420.018,-149.286 422.461,-142.727"/>
</g>
<!-- Node30&#45;&gt;Node9 -->
<g id="edge68" class="edge"><title>Node30&#45;&gt;Node9</title>
<path fill="none" stroke="midnightblue" d="M429.636,-129.563C555.774,-121.956 939.593,-98.4724 1064,-87 1089.25,-84.6714 1117.34,-81.4108 1140.3,-78.5713"/>
<polygon fill="midnightblue" stroke="midnightblue" points="1140.96,-82.0151 1150.45,-77.3011 1140.1,-75.0692 1140.96,-82.0151"/>
</g>
<!-- Node31 -->
<g id="node31" class="node"><title>Node31</title>
<polygon fill="white" stroke="#bfbfbf" points="239.5,-62 239.5,-81 290.5,-81 290.5,-62 239.5,-62"/>
<text text-anchor="middle" x="265" y="-69" font-family="Helvetica,sans-Serif" font-size="10.00">cassert</text>
</g>
<!-- Node30&#45;&gt;Node31 -->
<g id="edge66" class="edge"><title>Node30&#45;&gt;Node31</title>
<path fill="none" stroke="midnightblue" d="M371.234,-123.475C350.516,-113.534 316.048,-96.9947 292.011,-85.461"/>
<polygon fill="midnightblue" stroke="midnightblue" points="293.263,-82.1797 282.733,-81.0091 290.235,-88.4908 293.263,-82.1797"/>
</g>
<!-- Node32 -->
<g id="node32" class="node"><title>Node32</title>
<polygon fill="white" stroke="#bfbfbf" points="308.5,-56.5 308.5,-86.5 429.5,-86.5 429.5,-56.5 308.5,-56.5"/>
<text text-anchor="start" x="316.5" y="-74.5" font-family="Helvetica,sans-Serif" font-size="10.00">../contrib/pa_ringbuffer</text>
<text text-anchor="middle" x="369" y="-63.5" font-family="Helvetica,sans-Serif" font-size="10.00">/pa_ringbuffer.h</text>
</g>
<!-- Node30&#45;&gt;Node32 -->
<g id="edge67" class="edge"><title>Node30&#45;&gt;Node32</title>
<path fill="none" stroke="midnightblue" d="M386.134,-123.475C383.73,-116.32 380.176,-105.748 376.927,-96.0841"/>
<polygon fill="midnightblue" stroke="midnightblue" points="380.217,-94.8866 373.714,-86.523 373.582,-97.117 380.217,-94.8866"/>
</g>
<!-- Node33 -->
<g id="node33" class="node"><title>Node33</title>
<g id="a_node33"><a xlink:href="messages_8h.html" target="_top" xlink:title="Constant human&#45;readable messages used within playd. ">
<polygon fill="white" stroke="black" points="141,-62 141,-81 221,-81 221,-62 141,-62"/>
<text text-anchor="middle" x="181" y="-69" font-family="Helvetica,sans-Serif" font-size="10.00">../messages.h</text>
</a>
</g>
</g>
<!-- Node30&#45;&gt;Node33 -->
<g id="edge69" class="edge"><title>Node30&#45;&gt;Node33</title>
<path fill="none" stroke="midnightblue" d="M358.488,-123.481C326.456,-114.51 274.643,-99.9221 230,-87 226.617,-86.0206 223.104,-84.9963 219.584,-83.9645"/>
<polygon fill="midnightblue" stroke="midnightblue" points="220.325,-80.5342 209.743,-81.0679 218.348,-87.2493 220.325,-80.5342"/>
</g>
<!-- Node33&#45;&gt;Node8 -->
<g id="edge70" class="edge"><title>Node33&#45;&gt;Node8</title>
<path fill="none" stroke="midnightblue" d="M208.092,-61.9949C215.185,-59.9023 222.85,-57.7595 230,-56 299.492,-38.8993 382.142,-23.8926 426.355,-16.2877"/>
<polygon fill="midnightblue" stroke="midnightblue" points="427.21,-19.6925 436.479,-14.5605 426.033,-12.7922 427.21,-19.6925"/>
</g>
<!-- Node34&#45;&gt;Node2 -->
<g id="edge75" class="edge"><title>Node34&#45;&gt;Node2</title>
<path fill="none" stroke="midnightblue" d="M1485.28,-291.17C1494.11,-267.327 1519.08,-199.625 1539,-143 1545.22,-125.311 1552.1,-105.037 1556.89,-90.7847"/>
<polygon fill="midnightblue" stroke="midnightblue" points="1560.24,-91.7961 1560.1,-81.2022 1553.6,-89.5711 1560.24,-91.7961"/>
</g>
<!-- Node34&#45;&gt;Node4 -->
<g id="edge78" class="edge"><title>Node34&#45;&gt;Node4</title>
<path fill="none" stroke="midnightblue" d="M1449.36,-291.444C1413.95,-282.162 1357.29,-267.309 1318.45,-257.127"/>
<polygon fill="midnightblue" stroke="midnightblue" points="1319.05,-253.667 1308.49,-254.516 1317.27,-260.438 1319.05,-253.667"/>
</g>
<!-- Node34&#45;&gt;Node5 -->
<g id="edge76" class="edge"><title>Node34&#45;&gt;Node5</title>
<path fill="none" stroke="midnightblue" d="M1481.58,-291.453C1480.21,-265.761 1475.23,-187.054 1463,-123 1460.94,-112.222 1457.72,-100.39 1454.88,-90.8902"/>
<polygon fill="midnightblue" stroke="midnightblue" points="1458.22,-89.8553 1451.92,-81.3357 1451.53,-91.9233 1458.22,-89.8553"/>
</g>
<!-- Node35 -->
<g id="node35" class="node"><title>Node35</title>
<polygon fill="white" stroke="#bfbfbf" points="1427.5,-235.5 1427.5,-254.5 1458.5,-254.5 1458.5,-235.5 1427.5,-235.5"/>
<text text-anchor="middle" x="1443" y="-242.5" font-family="Helvetica,sans-Serif" font-size="10.00">set</text>
</g>
<!-- Node34&#45;&gt;Node35 -->
<g id="edge77" class="edge"><title>Node34&#45;&gt;Node35</title>
<path fill="none" stroke="midnightblue" d="M1475.56,-291.083C1470.05,-283.455 1461.97,-272.264 1455.24,-262.941"/>
<polygon fill="midnightblue" stroke="midnightblue" points="1458.01,-260.809 1449.32,-254.751 1452.34,-264.907 1458.01,-260.809"/>
</g>
<!-- Node36&#45;&gt;Node4 -->
<g id="edge83" class="edge"><title>Node36&#45;&gt;Node4</title>
<path fill="none" stroke="midnightblue" d="M1554.25,-292.09C1496.87,-282.586 1400.48,-266.62 1337.56,-256.198"/>
<polygon fill="midnightblue" stroke="midnightblue" points="1337.82,-252.692 1327.38,-254.511 1336.67,-259.598 1337.82,-252.692"/>
</g>
<!-- Node36&#45;&gt;Node5 -->
<g id="edge81" class="edge"><title>Node36&#45;&gt;Node5</title>
<path fill="none" stroke="midnightblue" d="M1596.19,-291.36C1573.56,-257.716 1491.1,-135.096 1460.52,-89.622"/>
<polygon fill="midnightblue" stroke="midnightblue" points="1463.3,-87.4939 1454.82,-81.1491 1457.49,-91.4003 1463.3,-87.4939"/>
</g>
<!-- Node36&#45;&gt;Node12 -->
<g id="edge80" class="edge"><title>Node36&#45;&gt;Node12</title>
<path fill="none" stroke="midnightblue" d="M1603.2,-291.466C1608.47,-252.531 1627.96,-92.0998 1597,-56 1568.56,-22.8485 1437.13,-14.1073 1374.02,-11.812"/>
<polygon fill="midnightblue" stroke="midnightblue" points="1373.89,-8.3061 1363.78,-11.4749 1373.66,-15.3023 1373.89,-8.3061"/>
</g>
<!-- Node36&#45;&gt;Node13 -->
<g id="edge82" class="edge"><title>Node36&#45;&gt;Node13</title>
<path fill="none" stroke="midnightblue" d="M1612.6,-291.324C1622.46,-283.263 1637.35,-271.077 1649.22,-261.369"/>
<polygon fill="midnightblue" stroke="midnightblue" points="1651.68,-263.875 1657.2,-254.834 1647.25,-258.457 1651.68,-263.875"/>
</g>
</g>
</svg>
        <g id="navigator" transform="translate(0 0)" fill="#404254">
                <rect fill="#f2f5e9" fill-opacity="0.5" stroke="#606060" stroke-width=".5" x="0" y="0" width="60" height="60"/>
                <use id="zoomplus" xlink:href="#zoomPlus" x="17" y="9" onmousedown="handleZoom(evt,'in')"/>
                <use id="zoomminus" xlink:href="#zoomMin" x="42" y="9" onmousedown="handleZoom(evt,'out')"/>
                <use id="reset" xlink:href="#resetDef" x="30" y="36" onmousedown="handleReset()"/>
                <g id="arrowUp" xlink:href="#dirArrow" transform="translate(30 24)" onmousedown="handlePan(0,-1)">
                  <use xlink:href="#rim" fill="#404040">
                        <set attributeName="fill" to="#808080" begin="arrowUp.mouseover" end="arrowUp.mouseout"/>
                  </use>
                  <path fill="none" stroke="white" stroke-width="1.5" d="M0,-3.0v7 M-2.5,-0.5L0,-3.0L2.5,-0.5"/>
                </g>
                <g id="arrowRight" xlink:href="#dirArrow" transform="rotate(90) translate(36 -43)" onmousedown="handlePan(1,0)">
                  <use xlink:href="#rim" fill="#404040">
                        <set attributeName="fill" to="#808080" begin="arrowRight.mouseover" end="arrowRight.mouseout"/>
                  </use>
                  <path fill="none" stroke="white" stroke-width="1.5" d="M0,-3.0v7 M-2.5,-0.5L0,-3.0L2.5,-0.5"/>
                </g>
                <g id="arrowDown" xlink:href="#dirArrow" transform="rotate(180) translate(-30 -48)" onmousedown="handlePan(0,1)">
                  <use xlink:href="#rim" fill="#404040">
                        <set attributeName="fill" to="#808080" begin="arrowDown.mouseover" end="arrowDown.mouseout"/>
                  </use>
                  <path fill="none" stroke="white" stroke-width="1.5" d="M0,-3.0v7 M-2.5,-0.5L0,-3.0L2.5,-0.5"/>
                </g>
                <g id="arrowLeft" xlink:href="#dirArrow" transform="rotate(270) translate(-36 17)" onmousedown="handlePan(-1,0)">
                  <use xlink:href="#rim" fill="#404040">
                        <set attributeName="fill" to="#808080" begin="arrowLeft.mouseover" end="arrowLeft.mouseout"/>
                  </use>
                  <path fill="none" stroke="white" stroke-width="1.5" d="M0,-3.0v7 M-2.5,-0.5L0,-3.0L2.5,-0.5"/>
                </g>
        </g>
        <svg viewBox="0 0 15 15" width="100%" height="30px" preserveAspectRatio="xMaxYMin meet">
         <g id="arrow_out" transform="scale(0.3 0.3)">
          <a xlink:href="player__position_8cpp__incl_org.svg" target="_base">
           <rect id="button" ry="5" rx="5" y="6" x="6" height="38" width="38"
                fill="#f2f5e9" fill-opacity="0.5" stroke="#606060" stroke-width="1.0"/>
           <path id="arrow"
             d="M 11.500037,31.436501 C 11.940474,20.09759 22.043105,11.32322 32.158766,21.979434 L 37.068811,17.246167 C 37.068811,17.246167 37.088388,32 37.088388,32 L 22.160133,31.978069 C 22.160133,31.978069 26.997745,27.140456 26.997745,27.140456 C 18.528582,18.264221 13.291696,25.230495 11.500037,31.436501 z"
             style="fill:#404040;"/>
          </a>
         </g>
        </svg>
</svg>
