<?xml version="1.0" encoding="UTF-8" standalone="no"?>
<!DOCTYPE svg PUBLIC "-//W3C//DTD SVG 1.1//EN"
 "http://www.w3.org/Graphics/SVG/1.1/DTD/svg11.dtd">
<!-- Generated by graphviz version 2.38.0 (20140413.2041)
 -->
<!-- Title: src/player/player_file.hpp Pages: 1 -->
<!--zoomable 364 -->
<svg id="main" version="1.1" xmlns="http://www.w3.org/2000/svg" xmlns:xlink="http://www.w3.org/1999/xlink" xml:space="preserve" onload="init(evt)">
<style type="text/css"><![CDATA[
.edge:hover path { stroke: red; }
.edge:hover polygon { stroke: red; fill: red; }
]]></style>
<script type="text/javascript"><![CDATA[
var edges = document.getElementsByTagName('g');
if (edges && edges.length) {
  for (var i=0;i<edges.length;i++) {
    if (edges[i].id.substr(0,4)=='edge') {
      edges[i].setAttribute('class','edge');
    }
  }
}
]]></script>
        <defs>
                <circle id="rim" cx="0" cy="0" r="7"/>
                <circle id="rim2" cx="0" cy="0" r="3.5"/>
                <g id="zoomPlus">
                        <use xlink:href="#rim" fill="#404040">
                                <set attributeName="fill" to="#808080" begin="zoomplus.mouseover" end="zoomplus.mouseout"/>
                        </use>
                        <path d="M-4,0h8M0,-4v8" fill="none" stroke="white" stroke-width="1.5" pointer-events="none"/>
                </g>
                <g id="zoomMin">
                        <use xlink:href="#rim" fill="#404040">
                                <set attributeName="fill" to="#808080" begin="zoomminus.mouseover" end="zoomminus.mouseout"/>
                        </use>
                        <path d="M-4,0h8" fill="none" stroke="white" stroke-width="1.5" pointer-events="none"/>
                </g>
                <g id="dirArrow">
                        <path fill="none" stroke="white" stroke-width="1.5" d="M0,-3.0v7 M-2.5,-0.5L0,-3.0L2.5,-0.5"/>
                </g>
               <g id="resetDef">
                       <use xlink:href="#rim2" fill="#404040">
                               <set attributeName="fill" to="#808080" begin="reset.mouseover" end="reset.mouseout"/>
                       </use>
               </g>
        </defs>

<script type="text/javascript">
var viewWidth = 910;
var viewHeight = 364;
var sectionId = 'dynsection-1';
</script>
<script xlink:href="svgpan.js"/>
<svg id="graph" class="graph">
<g id="viewport">
<title>src/player/player_file.hpp</title>
<polygon fill="white" stroke="none" points="-4,4 -4,-360 906.074,-360 906.074,4 -4,4"/>
<!-- Node1 -->
<g id="node1" class="node"><title>Node1</title>
<polygon fill="#bfbfbf" stroke="black" points="324.5,-336.5 324.5,-355.5 459.5,-355.5 459.5,-336.5 324.5,-336.5"/>
<text text-anchor="middle" x="392" y="-343.5" font-family="Helvetica,sans-Serif" font-size="10.00">src/player/player_file.hpp</text>
</g>
<!-- Node2 -->
<g id="node2" class="node"><title>Node2</title>
<g id="a_node2"><a xlink:href="player_8hpp.html" target="_top" xlink:title="Declaration of the Player class, and associated types. ">
<polygon fill="white" stroke="black" points="334,-280.5 334,-299.5 450,-299.5 450,-280.5 334,-280.5"/>
<text text-anchor="middle" x="392" y="-287.5" font-family="Helvetica,sans-Serif" font-size="10.00">src/player/player.hpp</text>
</a>
</g>
</g>
<!-- Node1&#45;&gt;Node2 -->
<g id="edge1" class="edge"><title>Node1&#45;&gt;Node2</title>
<path fill="none" stroke="midnightblue" d="M392,-325.805C392,-316.91 392,-306.78 392,-299.751"/>
<polygon fill="midnightblue" stroke="midnightblue" points="388.5,-326.083 392,-336.083 395.5,-326.083 388.5,-326.083"/>
</g>
<!-- Node8 -->
<g id="node8" class="node"><title>Node8</title>
<g id="a_node8"><a xlink:href="main_8hpp.html" target="_top" xlink:title="Declaration of the playd class. ">
<polygon fill="white" stroke="black" points="75.5,-56.5 75.5,-75.5 152.5,-75.5 152.5,-56.5 75.5,-56.5"/>
<text text-anchor="middle" x="114" y="-63.5" font-family="Helvetica,sans-Serif" font-size="10.00">src/main.hpp</text>
</a>
</g>
</g>
<!-- Node1&#45;&gt;Node8 -->
<g id="edge24" class="edge"><title>Node1&#45;&gt;Node8</title>
<path fill="none" stroke="midnightblue" d="M314.056,-338.997C199.733,-328.013 0,-299.582 0,-235 0,-235 0,-235 0,-177 0,-125.707 60.5038,-90.7686 93.3555,-75.5787"/>
<polygon fill="midnightblue" stroke="midnightblue" points="313.883,-342.496 324.166,-339.944 314.537,-335.527 313.883,-342.496"/>
</g>
<!-- Node14 -->
<g id="node14" class="node"><title>Node14</title>
<g id="a_node14"><a xlink:href="player__file_8cpp.html" target="_top" xlink:title="Implementation of the PlayerFile class, and associated types. ">
<polygon fill="white" stroke="black" points="468,-280.5 468,-299.5 602,-299.5 602,-280.5 468,-280.5"/>
<text text-anchor="middle" x="535" y="-287.5" font-family="Helvetica,sans-Serif" font-size="10.00">src/player/player_file.cpp</text>
</a>
</g>
</g>
<!-- Node1&#45;&gt;Node14 -->
<g id="edge25" class="edge"><title>Node1&#45;&gt;Node14</title>
<path fill="none" stroke="midnightblue" d="M424.027,-332.906C450.912,-322.754 488.641,-308.506 512.447,-299.516"/>
<polygon fill="midnightblue" stroke="midnightblue" points="422.778,-329.636 414.659,-336.444 425.25,-336.185 422.778,-329.636"/>
</g>
<!-- Node3 -->
<g id="node3" class="node"><title>Node3</title>
<g id="a_node3"><a xlink:href="cmd_8hpp.html" target="_top" xlink:title="Declaration of the CommandHandler class. ">
<polygon fill="white" stroke="black" points="290,-224.5 290,-243.5 364,-243.5 364,-224.5 290,-224.5"/>
<text text-anchor="middle" x="327" y="-231.5" font-family="Helvetica,sans-Serif" font-size="10.00">src/cmd.hpp</text>
</a>
</g>
</g>
<!-- Node2&#45;&gt;Node3 -->
<g id="edge2" class="edge"><title>Node2&#45;&gt;Node3</title>
<path fill="none" stroke="midnightblue" d="M373.727,-273.82C362.082,-264.145 347.401,-251.948 337.633,-243.834"/>
<polygon fill="midnightblue" stroke="midnightblue" points="371.628,-276.626 381.557,-280.324 376.101,-271.242 371.628,-276.626"/>
</g>
<!-- Node5 -->
<g id="node5" class="node"><title>Node5</title>
<g id="a_node5"><a xlink:href="io__core_8cpp.html" target="_top" xlink:title="Implementation of the non&#45;virtual aspects of the IoCore class. ">
<polygon fill="white" stroke="black" points="358,-56.5 358,-75.5 458,-75.5 458,-56.5 358,-56.5"/>
<text text-anchor="middle" x="408" y="-63.5" font-family="Helvetica,sans-Serif" font-size="10.00">src/io/io_core.cpp</text>
</a>
</g>
</g>
<!-- Node2&#45;&gt;Node5 -->
<g id="edge17" class="edge"><title>Node2&#45;&gt;Node5</title>
<path fill="none" stroke="midnightblue" d="M396.524,-270.712C399.978,-257.546 405.133,-239.457 411,-224 417.279,-207.457 421.635,-204.51 428,-188 437.356,-163.731 441.181,-157.729 445,-132 446.305,-123.207 447.998,-120.368 445,-112 439.746,-97.337 427.424,-84.0309 418.438,-75.7555"/>
<polygon fill="midnightblue" stroke="midnightblue" points="393.121,-269.892 394.044,-280.446 399.904,-271.62 393.121,-269.892"/>
</g>
<!-- Node6 -->
<g id="node6" class="node"><title>Node6</title>
<g id="a_node6"><a xlink:href="io__core_8hpp.html" target="_top" xlink:title="Declaration of the IoCore class. ">
<polygon fill="white" stroke="black" points="174.5,-112.5 174.5,-131.5 275.5,-131.5 275.5,-112.5 174.5,-112.5"/>
<text text-anchor="middle" x="225" y="-119.5" font-family="Helvetica,sans-Serif" font-size="10.00">src/io/io_core.hpp</text>
</a>
</g>
</g>
<!-- Node2&#45;&gt;Node6 -->
<g id="edge18" class="edge"><title>Node2&#45;&gt;Node6</title>
<path fill="none" stroke="midnightblue" d="M323.834,-283.272C262.433,-274.088 175.497,-250.187 133,-188 114.683,-161.197 158.804,-141.824 192.091,-131.514"/>
<polygon fill="midnightblue" stroke="midnightblue" points="323.45,-286.753 333.839,-284.674 324.421,-279.82 323.45,-286.753"/>
</g>
<!-- Node7 -->
<g id="node7" class="node"><title>Node7</title>
<g id="a_node7"><a xlink:href="main_8cpp.html" target="_top" xlink:title="Main entry point and implementation of the playd class. ">
<polygon fill="white" stroke="black" points="343,-0.5 343,-19.5 419,-19.5 419,-0.5 343,-0.5"/>
<text text-anchor="middle" x="381" y="-7.5" font-family="Helvetica,sans-Serif" font-size="10.00">src/main.cpp</text>
</a>
</g>
</g>
<!-- Node2&#45;&gt;Node7 -->
<g id="edge19" class="edge"><title>Node2&#45;&gt;Node7</title>
<path fill="none" stroke="midnightblue" d="M460.22,-280.152C538.33,-274.693 847.273,-272.409 882,-244 905.296,-224.943 901,-209.098 901,-179 901,-179 901,-179 901,-121 901,-22.4958 539.324,-11.7852 419.237,-10.9439"/>
<polygon fill="midnightblue" stroke="midnightblue" points="459.748,-276.68 450.084,-281.022 460.346,-283.654 459.748,-276.68"/>
</g>
<!-- Node2&#45;&gt;Node8 -->
<g id="edge20" class="edge"><title>Node2&#45;&gt;Node8</title>
<path fill="none" stroke="midnightblue" d="M323.674,-288.186C276.158,-284.711 213.138,-274.06 166,-244 118.387,-213.637 115.195,-187.717 106,-132 102.705,-112.032 107.86,-88.407 111.307,-75.8644"/>
<polygon fill="midnightblue" stroke="midnightblue" points="323.667,-291.692 333.87,-288.839 324.115,-284.707 323.667,-291.692"/>
</g>
<!-- Node11 -->
<g id="node11" class="node"><title>Node11</title>
<g id="a_node11"><a xlink:href="player_8cpp.html" target="_top" xlink:title="Main implementation file for the Player class. ">
<polygon fill="white" stroke="black" points="420.5,-224.5 420.5,-243.5 535.5,-243.5 535.5,-224.5 420.5,-224.5"/>
<text text-anchor="middle" x="478" y="-231.5" font-family="Helvetica,sans-Serif" font-size="10.00">src/player/player.cpp</text>
</a>
</g>
</g>
<!-- Node2&#45;&gt;Node11 -->
<g id="edge21" class="edge"><title>Node2&#45;&gt;Node11</title>
<path fill="none" stroke="midnightblue" d="M414.455,-274.901C430.224,-264.999 450.814,-252.071 464.217,-243.655"/>
<polygon fill="midnightblue" stroke="midnightblue" points="412.425,-272.042 405.817,-280.324 416.148,-277.97 412.425,-272.042"/>
</g>
<!-- Node12 -->
<g id="node12" class="node"><title>Node12</title>
<g id="a_node12"><a xlink:href="player__position_8cpp.html" target="_top" xlink:title="Implementation of the PlayerPosition class, and related Player methods. ">
<polygon fill="white" stroke="black" points="553,-224.5 553,-243.5 711,-243.5 711,-224.5 553,-224.5"/>
<text text-anchor="middle" x="632" y="-231.5" font-family="Helvetica,sans-Serif" font-size="10.00">src/player/player_position.cpp</text>
</a>
</g>
</g>
<!-- Node2&#45;&gt;Node12 -->
<g id="edge22" class="edge"><title>Node2&#45;&gt;Node12</title>
<path fill="none" stroke="midnightblue" d="M439.923,-278.217C485.274,-268.013 552.442,-252.901 594.149,-243.516"/>
<polygon fill="midnightblue" stroke="midnightblue" points="439.016,-274.834 430.029,-280.444 440.553,-281.663 439.016,-274.834"/>
</g>
<!-- Node13 -->
<g id="node13" class="node"><title>Node13</title>
<g id="a_node13"><a xlink:href="player__state_8cpp.html" target="_top" xlink:title="Implementation of the PlayerState class, and related Player methods. ">
<polygon fill="white" stroke="black" points="729,-224.5 729,-243.5 873,-243.5 873,-224.5 729,-224.5"/>
<text text-anchor="middle" x="801" y="-231.5" font-family="Helvetica,sans-Serif" font-size="10.00">src/player/player_state.cpp</text>
</a>
</g>
</g>
<!-- Node2&#45;&gt;Node13 -->
<g id="edge23" class="edge"><title>Node2&#45;&gt;Node13</title>
<path fill="none" stroke="midnightblue" d="M460.294,-279.831C562.468,-266.256 669.141,-252.254 735.748,-243.533"/>
<polygon fill="midnightblue" stroke="midnightblue" points="459.555,-276.398 450.103,-281.185 460.477,-283.337 459.555,-276.398"/>
</g>
<!-- Node4 -->
<g id="node4" class="node"><title>Node4</title>
<g id="a_node4"><a xlink:href="cmd_8cpp.html" target="_top" xlink:title="Implementation of the CommandHandler class. ">
<polygon fill="white" stroke="black" points="142.5,-168.5 142.5,-187.5 215.5,-187.5 215.5,-168.5 142.5,-168.5"/>
<text text-anchor="middle" x="179" y="-175.5" font-family="Helvetica,sans-Serif" font-size="10.00">src/cmd.cpp</text>
</a>
</g>
</g>
<!-- Node3&#45;&gt;Node4 -->
<g id="edge3" class="edge"><title>Node3&#45;&gt;Node4</title>
<path fill="none" stroke="midnightblue" d="M293.853,-220.906C266.028,-210.754 226.98,-196.506 202.341,-187.516"/>
<polygon fill="midnightblue" stroke="midnightblue" points="292.955,-224.304 303.549,-224.444 295.354,-217.728 292.955,-224.304"/>
</g>
<!-- Node3&#45;&gt;Node5 -->
<g id="edge4" class="edge"><title>Node3&#45;&gt;Node5</title>
<path fill="none" stroke="midnightblue" d="M359.903,-220.296C375.577,-212.865 393.569,-202.134 406,-188 429.306,-161.5 436.643,-146.453 429,-112 426.012,-98.5333 418.556,-84.3218 413.384,-75.557"/>
<polygon fill="midnightblue" stroke="midnightblue" points="358.211,-217.218 350.513,-224.497 361.07,-223.608 358.211,-217.218"/>
</g>
<!-- Node3&#45;&gt;Node6 -->
<g id="edge5" class="edge"><title>Node3&#45;&gt;Node6</title>
<path fill="none" stroke="midnightblue" d="M302.319,-219.163C289.554,-211.187 274.319,-200.31 263,-188 246.897,-170.488 234.484,-145.023 228.653,-131.764"/>
<polygon fill="midnightblue" stroke="midnightblue" points="300.714,-222.282 311.087,-224.437 304.322,-216.283 300.714,-222.282"/>
</g>
<!-- Node3&#45;&gt;Node7 -->
<g id="edge15" class="edge"><title>Node3&#45;&gt;Node7</title>
<path fill="none" stroke="midnightblue" d="M373.775,-221.086C392.788,-214.174 413.618,-203.645 428,-188 463.672,-149.196 458.21,-127.971 467,-76 468.482,-67.2356 471.603,-63.6041 467,-56 455.743,-37.4042 433.993,-26.123 415.184,-19.5065"/>
<polygon fill="midnightblue" stroke="midnightblue" points="372.393,-217.859 364.042,-224.379 374.637,-224.489 372.393,-217.859"/>
</g>
<!-- Node3&#45;&gt;Node8 -->
<g id="edge16" class="edge"><title>Node3&#45;&gt;Node8</title>
<path fill="none" stroke="midnightblue" d="M279.658,-228.076C228.797,-221.775 152.609,-209.078 133,-188 103.308,-156.084 108.986,-97.6921 112.427,-75.6933"/>
<polygon fill="midnightblue" stroke="midnightblue" points="279.437,-231.574 289.782,-229.288 280.269,-224.624 279.437,-231.574"/>
</g>
<!-- Node9 -->
<g id="node9" class="node"><title>Node9</title>
<g id="a_node9"><a xlink:href="tokeniser_8hpp.html" target="_top" xlink:title="Declaration of the Tokeniser class. ">
<polygon fill="white" stroke="black" points="272.5,-168.5 272.5,-187.5 381.5,-187.5 381.5,-168.5 272.5,-168.5"/>
<text text-anchor="middle" x="327" y="-175.5" font-family="Helvetica,sans-Serif" font-size="10.00">src/io/tokeniser.hpp</text>
</a>
</g>
</g>
<!-- Node3&#45;&gt;Node9 -->
<g id="edge11" class="edge"><title>Node3&#45;&gt;Node9</title>
<path fill="none" stroke="midnightblue" d="M327,-213.805C327,-204.91 327,-194.78 327,-187.751"/>
<polygon fill="midnightblue" stroke="midnightblue" points="323.5,-214.083 327,-224.083 330.5,-214.083 323.5,-214.083"/>
</g>
<!-- Node10 -->
<g id="node10" class="node"><title>Node10</title>
<g id="a_node10"><a xlink:href="tokeniser_8cpp.html" target="_top" xlink:title="Definition of the Tokeniser class. ">
<polygon fill="white" stroke="black" points="312,-112.5 312,-131.5 420,-131.5 420,-112.5 312,-112.5"/>
<text text-anchor="middle" x="366" y="-119.5" font-family="Helvetica,sans-Serif" font-size="10.00">src/io/tokeniser.cpp</text>
</a>
</g>
</g>
<!-- Node3&#45;&gt;Node10 -->
<g id="edge14" class="edge"><title>Node3&#45;&gt;Node10</title>
<path fill="none" stroke="midnightblue" d="M356.822,-219.606C369.479,-212.234 382.923,-201.753 390,-188 399.908,-168.747 384.018,-144.433 373.709,-131.694"/>
<polygon fill="midnightblue" stroke="midnightblue" points="355.001,-216.611 347.847,-224.427 358.313,-222.778 355.001,-216.611"/>
</g>
<!-- Node6&#45;&gt;Node5 -->
<g id="edge6" class="edge"><title>Node6&#45;&gt;Node5</title>
<path fill="none" stroke="midnightblue" d="M263.743,-109.568C298.265,-99.381 348.005,-84.7034 379.139,-75.5164"/>
<polygon fill="midnightblue" stroke="midnightblue" points="262.597,-106.256 253.997,-112.444 264.579,-112.97 262.597,-106.256"/>
</g>
<!-- Node6&#45;&gt;Node6 -->
<g id="edge7" class="edge"><title>Node6&#45;&gt;Node6</title>
<path fill="none" stroke="midnightblue" d="M264.318,-132.432C280.173,-133.04 293.5,-129.563 293.5,-122 293.5,-112.867 274.066,-109.692 254.215,-112.475"/>
<polygon fill="midnightblue" stroke="midnightblue" points="264.488,-128.933 254.215,-131.525 263.862,-135.905 264.488,-128.933"/>
</g>
<!-- Node6&#45;&gt;Node7 -->
<g id="edge8" class="edge"><title>Node6&#45;&gt;Node7</title>
<path fill="none" stroke="midnightblue" d="M245.681,-106.417C278.676,-83.1513 342.213,-38.3501 368.816,-19.5914"/>
<polygon fill="midnightblue" stroke="midnightblue" points="243.397,-103.745 237.241,-112.368 247.431,-109.466 243.397,-103.745"/>
</g>
<!-- Node6&#45;&gt;Node8 -->
<g id="edge9" class="edge"><title>Node6&#45;&gt;Node8</title>
<path fill="none" stroke="midnightblue" d="M197.995,-107.862C177.412,-97.8492 149.655,-84.3458 131.79,-75.6545"/>
<polygon fill="midnightblue" stroke="midnightblue" points="196.642,-111.097 207.166,-112.324 199.705,-104.802 196.642,-111.097"/>
</g>
<!-- Node8&#45;&gt;Node7 -->
<g id="edge10" class="edge"><title>Node8&#45;&gt;Node7</title>
<path fill="none" stroke="midnightblue" d="M162.498,-55.1914C214.338,-44.7068 295.457,-28.3008 342.905,-18.7046"/>
<polygon fill="midnightblue" stroke="midnightblue" points="161.647,-51.7927 152.539,-57.2056 163.034,-58.6537 161.647,-51.7927"/>
</g>
<!-- Node9&#45;&gt;Node6 -->
<g id="edge12" class="edge"><title>Node9&#45;&gt;Node6</title>
<path fill="none" stroke="midnightblue" d="M301.669,-163.59C282.81,-153.605 257.616,-140.267 241.347,-131.655"/>
<polygon fill="midnightblue" stroke="midnightblue" points="300.136,-166.738 310.612,-168.324 303.412,-160.552 300.136,-166.738"/>
</g>
<!-- Node9&#45;&gt;Node10 -->
<g id="edge13" class="edge"><title>Node9&#45;&gt;Node10</title>
<path fill="none" stroke="midnightblue" d="M339.382,-159.855C346.135,-150.505 354.209,-139.327 359.68,-131.751"/>
<polygon fill="midnightblue" stroke="midnightblue" points="336.458,-157.927 333.44,-168.083 342.132,-162.025 336.458,-157.927"/>
</g>
</g>
</svg>
        <g id="navigator" transform="translate(0 0)" fill="#404254">
                <rect fill="#f2f5e9" fill-opacity="0.5" stroke="#606060" stroke-width=".5" x="0" y="0" width="60" height="60"/>
                <use id="zoomplus" xlink:href="#zoomPlus" x="17" y="9" onmousedown="handleZoom(evt,'in')"/>
                <use id="zoomminus" xlink:href="#zoomMin" x="42" y="9" onmousedown="handleZoom(evt,'out')"/>
                <use id="reset" xlink:href="#resetDef" x="30" y="36" onmousedown="handleReset()"/>
                <g id="arrowUp" xlink:href="#dirArrow" transform="translate(30 24)" onmousedown="handlePan(0,-1)">
                  <use xlink:href="#rim" fill="#404040">
                        <set attributeName="fill" to="#808080" begin="arrowUp.mouseover" end="arrowUp.mouseout"/>
                  </use>
                  <path fill="none" stroke="white" stroke-width="1.5" d="M0,-3.0v7 M-2.5,-0.5L0,-3.0L2.5,-0.5"/>
                </g>
                <g id="arrowRight" xlink:href="#dirArrow" transform="rotate(90) translate(36 -43)" onmousedown="handlePan(1,0)">
                  <use xlink:href="#rim" fill="#404040">
                        <set attributeName="fill" to="#808080" begin="arrowRight.mouseover" end="arrowRight.mouseout"/>
                  </use>
                  <path fill="none" stroke="white" stroke-width="1.5" d="M0,-3.0v7 M-2.5,-0.5L0,-3.0L2.5,-0.5"/>
                </g>
                <g id="arrowDown" xlink:href="#dirArrow" transform="rotate(180) translate(-30 -48)" onmousedown="handlePan(0,1)">
                  <use xlink:href="#rim" fill="#404040">
                        <set attributeName="fill" to="#808080" begin="arrowDown.mouseover" end="arrowDown.mouseout"/>
                  </use>
                  <path fill="none" stroke="white" stroke-width="1.5" d="M0,-3.0v7 M-2.5,-0.5L0,-3.0L2.5,-0.5"/>
                </g>
                <g id="arrowLeft" xlink:href="#dirArrow" transform="rotate(270) translate(-36 17)" onmousedown="handlePan(-1,0)">
                  <use xlink:href="#rim" fill="#404040">
                        <set attributeName="fill" to="#808080" begin="arrowLeft.mouseover" end="arrowLeft.mouseout"/>
                  </use>
                  <path fill="none" stroke="white" stroke-width="1.5" d="M0,-3.0v7 M-2.5,-0.5L0,-3.0L2.5,-0.5"/>
                </g>
        </g>
        <svg viewBox="0 0 15 15" width="100%" height="30px" preserveAspectRatio="xMaxYMin meet">
         <g id="arrow_out" transform="scale(0.3 0.3)">
          <a xlink:href="player__file_8hpp__dep__incl_org.svg" target="_base">
           <rect id="button" ry="5" rx="5" y="6" x="6" height="38" width="38"
                fill="#f2f5e9" fill-opacity="0.5" stroke="#606060" stroke-width="1.0"/>
           <path id="arrow"
             d="M 11.500037,31.436501 C 11.940474,20.09759 22.043105,11.32322 32.158766,21.979434 L 37.068811,17.246167 C 37.068811,17.246167 37.088388,32 37.088388,32 L 22.160133,31.978069 C 22.160133,31.978069 26.997745,27.140456 26.997745,27.140456 C 18.528582,18.264221 13.291696,25.230495 11.500037,31.436501 z"
             style="fill:#404040;"/>
          </a>
         </g>
        </svg>
</svg>
