<?xml version="1.0" encoding="UTF-8" standalone="no"?>
<!DOCTYPE svg PUBLIC "-//W3C//DTD SVG 1.1//EN"
 "http://www.w3.org/Graphics/SVG/1.1/DTD/svg11.dtd">
<!-- Generated by graphviz version 2.38.0 (20140413.2041)
 -->
<!-- Title: src/player/player_position.cpp Pages: 1 -->
<svg width="1562pt" height="431pt"
 viewBox="0.00 0.00 1562.00 431.00" xmlns="http://www.w3.org/2000/svg" xmlns:xlink="http://www.w3.org/1999/xlink">
<g id="graph0" class="graph" transform="scale(1 1) rotate(0) translate(4 427)">
<title>src/player/player_position.cpp</title>
<polygon fill="white" stroke="none" points="-4,4 -4,-427 1558,-427 1558,4 -4,4"/>
<!-- Node1 -->
<g id="node1" class="node"><title>Node1</title>
<polygon fill="#bfbfbf" stroke="black" points="184,-403.5 184,-422.5 342,-422.5 342,-403.5 184,-403.5"/>
<text text-anchor="middle" x="263" y="-410.5" font-family="Helvetica,sans-Serif" font-size="10.00">src/player/player_position.cpp</text>
</g>
<!-- Node2 -->
<g id="node2" class="node"><title>Node2</title>
<polygon fill="white" stroke="#bfbfbf" points="14,-0.5 14,-19.5 68,-19.5 68,-0.5 14,-0.5"/>
<text text-anchor="middle" x="41" y="-7.5" font-family="Helvetica,sans-Serif" font-size="10.00">sstream</text>
</g>
<!-- Node1&#45;&gt;Node2 -->
<g id="edge1" class="edge"><title>Node1&#45;&gt;Node2</title>
<path fill="none" stroke="midnightblue" d="M183.735,-410.91C106.296,-405.14 0,-382.549 0,-302 0,-302 0,-302 0,-132 0,-93.5513 18.7992,-51.6922 30.9383,-28.6708"/>
<polygon fill="midnightblue" stroke="midnightblue" points="34.0835,-30.2138 35.8073,-19.7601 27.9408,-26.8572 34.0835,-30.2138"/>
</g>
<!-- Node3 -->
<g id="node3" class="node"><title>Node3</title>
<g id="a_node3"><a xlink:href="io__response_8hpp.html" target="_top" xlink:title="Declaration of classes pertaining to responses to the client. ">
<polygon fill="white" stroke="black" points="311,-179.5 311,-198.5 425,-198.5 425,-179.5 311,-179.5"/>
<text text-anchor="middle" x="368" y="-186.5" font-family="Helvetica,sans-Serif" font-size="10.00">../io/io_response.hpp</text>
</a>
</g>
</g>
<!-- Node1&#45;&gt;Node3 -->
<g id="edge2" class="edge"><title>Node1&#45;&gt;Node3</title>
<path fill="none" stroke="midnightblue" d="M260.167,-403.319C253.972,-382.77 241.074,-329.951 258,-291 275.192,-251.437 316.502,-220.637 343.318,-203.921"/>
<polygon fill="midnightblue" stroke="midnightblue" points="345.379,-206.766 352.135,-198.605 341.764,-200.771 345.379,-206.766"/>
</g>
<!-- Node9 -->
<g id="node9" class="node"><title>Node9</title>
<g id="a_node9"><a xlink:href="player_8hpp.html" target="_top" xlink:title="Declaration of the Player class, and associated types. ">
<polygon fill="white" stroke="black" points="411,-347.5 411,-366.5 477,-366.5 477,-347.5 411,-347.5"/>
<text text-anchor="middle" x="444" y="-354.5" font-family="Helvetica,sans-Serif" font-size="10.00">player.hpp</text>
</a>
</g>
</g>
<!-- Node1&#45;&gt;Node9 -->
<g id="edge9" class="edge"><title>Node1&#45;&gt;Node9</title>
<path fill="none" stroke="midnightblue" d="M291.68,-403.444C322.527,-394.241 371.728,-379.562 405.829,-369.388"/>
<polygon fill="midnightblue" stroke="midnightblue" points="406.872,-372.729 415.454,-366.516 404.871,-366.021 406.872,-372.729"/>
</g>
<!-- Node32 -->
<g id="node32" class="node"><title>Node32</title>
<g id="a_node32"><a xlink:href="player__position_8hpp.html" target="_top" xlink:title="Declaration of the PlayerPosition class. ">
<polygon fill="white" stroke="black" points="510.5,-235.5 510.5,-254.5 619.5,-254.5 619.5,-235.5 510.5,-235.5"/>
<text text-anchor="middle" x="565" y="-242.5" font-family="Helvetica,sans-Serif" font-size="10.00">player_position.hpp</text>
</a>
</g>
</g>
<!-- Node1&#45;&gt;Node32 -->
<g id="edge75" class="edge"><title>Node1&#45;&gt;Node32</title>
<path fill="none" stroke="midnightblue" d="M328.531,-403.445C421.821,-389.689 585.182,-359.205 617,-311 629.164,-292.571 608.282,-272.984 589.469,-260.188"/>
<polygon fill="midnightblue" stroke="midnightblue" points="591.134,-257.098 580.825,-254.651 587.357,-262.992 591.134,-257.098"/>
</g>
<!-- Node4 -->
<g id="node4" class="node"><title>Node4</title>
<polygon fill="white" stroke="#bfbfbf" points="246.5,-123.5 246.5,-142.5 283.5,-142.5 283.5,-123.5 246.5,-123.5"/>
<text text-anchor="middle" x="265" y="-130.5" font-family="Helvetica,sans-Serif" font-size="10.00">map</text>
</g>
<!-- Node3&#45;&gt;Node4 -->
<g id="edge3" class="edge"><title>Node3&#45;&gt;Node4</title>
<path fill="none" stroke="midnightblue" d="M351.451,-179.324C335.008,-170.703 309.565,-157.364 290.532,-147.386"/>
<polygon fill="midnightblue" stroke="midnightblue" points="291.989,-144.198 281.508,-142.655 288.739,-150.398 291.989,-144.198"/>
</g>
<!-- Node5 -->
<g id="node5" class="node"><title>Node5</title>
<polygon fill="white" stroke="#bfbfbf" points="340.5,-123.5 340.5,-142.5 395.5,-142.5 395.5,-123.5 340.5,-123.5"/>
<text text-anchor="middle" x="368" y="-130.5" font-family="Helvetica,sans-Serif" font-size="10.00">ostream</text>
</g>
<!-- Node3&#45;&gt;Node5 -->
<g id="edge4" class="edge"><title>Node3&#45;&gt;Node5</title>
<path fill="none" stroke="midnightblue" d="M368,-179.083C368,-172.006 368,-161.861 368,-152.986"/>
<polygon fill="midnightblue" stroke="midnightblue" points="371.5,-152.751 368,-142.751 364.5,-152.751 371.5,-152.751"/>
</g>
<!-- Node6 -->
<g id="node6" class="node"><title>Node6</title>
<polygon fill="white" stroke="#bfbfbf" points="1036.5,-0.5 1036.5,-19.5 1079.5,-19.5 1079.5,-0.5 1036.5,-0.5"/>
<text text-anchor="middle" x="1058" y="-7.5" font-family="Helvetica,sans-Serif" font-size="10.00">string</text>
</g>
<!-- Node3&#45;&gt;Node6 -->
<g id="edge5" class="edge"><title>Node3&#45;&gt;Node6</title>
<path fill="none" stroke="midnightblue" d="M379.165,-179.238C394.13,-166.415 417.352,-141.997 404,-123 376.838,-84.3535 331.162,-125.646 304,-87 296.078,-75.7278 294.552,-66.0284 304,-56 329.141,-29.3133 885.946,-14.9076 1026.17,-11.6948"/>
<polygon fill="midnightblue" stroke="midnightblue" points="1026.35,-15.1919 1036.26,-11.4665 1026.19,-8.19365 1026.35,-15.1919"/>
</g>
<!-- Node7 -->
<g id="node7" class="node"><title>Node7</title>
<g id="a_node7"><a xlink:href="errors_8hpp.html" target="_top" xlink:title="Declarations of the playd Error exception set. ">
<polygon fill="white" stroke="black" points="145.5,-62 145.5,-81 218.5,-81 218.5,-62 145.5,-62"/>
<text text-anchor="middle" x="182" y="-69" font-family="Helvetica,sans-Serif" font-size="10.00">../errors.hpp</text>
</a>
</g>
</g>
<!-- Node3&#45;&gt;Node7 -->
<g id="edge6" class="edge"><title>Node3&#45;&gt;Node7</title>
<path fill="none" stroke="midnightblue" d="M359.293,-179.114C345.803,-165.695 318.621,-140.024 292,-123 267.481,-107.32 237.294,-93.8243 214.75,-84.7395"/>
<polygon fill="midnightblue" stroke="midnightblue" points="215.873,-81.4202 205.287,-81.0034 213.303,-87.9311 215.873,-81.4202"/>
</g>
<!-- Node7&#45;&gt;Node2 -->
<g id="edge8" class="edge"><title>Node7&#45;&gt;Node2</title>
<path fill="none" stroke="midnightblue" d="M161.798,-61.9751C137.926,-51.9013 97.9984,-35.0525 70.6274,-23.5023"/>
<polygon fill="midnightblue" stroke="midnightblue" points="71.7384,-20.1724 61.1644,-19.5091 69.0169,-26.6217 71.7384,-20.1724"/>
</g>
<!-- Node8 -->
<g id="node8" class="node"><title>Node8</title>
<polygon fill="white" stroke="#bfbfbf" points="153.5,-0.5 153.5,-19.5 210.5,-19.5 210.5,-0.5 153.5,-0.5"/>
<text text-anchor="middle" x="182" y="-7.5" font-family="Helvetica,sans-Serif" font-size="10.00">iostream</text>
</g>
<!-- Node7&#45;&gt;Node8 -->
<g id="edge7" class="edge"><title>Node7&#45;&gt;Node8</title>
<path fill="none" stroke="midnightblue" d="M182,-61.9751C182,-53.5803 182,-40.4806 182,-29.6631"/>
<polygon fill="midnightblue" stroke="midnightblue" points="185.5,-29.5091 182,-19.5091 178.5,-29.5091 185.5,-29.5091"/>
</g>
<!-- Node9&#45;&gt;Node3 -->
<g id="edge33" class="edge"><title>Node9&#45;&gt;Node3</title>
<path fill="none" stroke="midnightblue" d="M444.587,-347.387C445.606,-326.537 445.807,-272.318 424,-235 416.602,-222.34 404.187,-211.817 392.925,-204.138"/>
<polygon fill="midnightblue" stroke="midnightblue" points="394.569,-201.035 384.257,-198.604 390.802,-206.935 394.569,-201.035"/>
</g>
<!-- Node9&#45;&gt;Node4 -->
<g id="edge12" class="edge"><title>Node9&#45;&gt;Node4</title>
<path fill="none" stroke="midnightblue" d="M410.648,-352.805C362.347,-347.41 276.645,-334.694 258,-311 221.117,-264.13 244.134,-186.692 257.462,-151.9"/>
<polygon fill="midnightblue" stroke="midnightblue" points="260.737,-153.137 261.21,-142.553 254.24,-150.532 260.737,-153.137"/>
</g>
<!-- Node9&#45;&gt;Node6 -->
<g id="edge14" class="edge"><title>Node9&#45;&gt;Node6</title>
<path fill="none" stroke="midnightblue" d="M477.22,-356.28C661.91,-357.408 1554,-357.108 1554,-246 1554,-246 1554,-246 1554,-132 1554,-36.0337 1199.13,-15.8426 1089.72,-11.8981"/>
<polygon fill="midnightblue" stroke="midnightblue" points="1089.74,-8.39694 1079.63,-11.5559 1089.51,-15.3929 1089.74,-8.39694"/>
</g>
<!-- Node10 -->
<g id="node10" class="node"><title>Node10</title>
<polygon fill="white" stroke="#bfbfbf" points="349.5,-0.5 349.5,-19.5 396.5,-19.5 396.5,-0.5 349.5,-0.5"/>
<text text-anchor="middle" x="373" y="-7.5" font-family="Helvetica,sans-Serif" font-size="10.00">cstdint</text>
</g>
<!-- Node9&#45;&gt;Node10 -->
<g id="edge10" class="edge"><title>Node9&#45;&gt;Node10</title>
<path fill="none" stroke="midnightblue" d="M410.925,-353.004C369.897,-348.314 298.576,-336.93 243,-311 199.902,-290.892 158,-293.558 158,-246 158,-246 158,-246 158,-188 158,-158.262 117.035,-78.9054 136,-56 161.396,-25.3281 279.838,-15.3934 339.077,-12.3121"/>
<polygon fill="midnightblue" stroke="midnightblue" points="339.595,-15.7913 349.414,-11.813 339.257,-8.79943 339.595,-15.7913"/>
</g>
<!-- Node11 -->
<g id="node11" class="node"><title>Node11</title>
<polygon fill="white" stroke="#bfbfbf" points="338.5,-235.5 338.5,-254.5 415.5,-254.5 415.5,-235.5 338.5,-235.5"/>
<text text-anchor="middle" x="377" y="-242.5" font-family="Helvetica,sans-Serif" font-size="10.00">initializer_list</text>
</g>
<!-- Node9&#45;&gt;Node11 -->
<g id="edge11" class="edge"><title>Node9&#45;&gt;Node11</title>
<path fill="none" stroke="midnightblue" d="M438.743,-347.368C427.735,-329.296 402.08,-287.176 387.542,-263.307"/>
<polygon fill="midnightblue" stroke="midnightblue" points="390.424,-261.311 382.233,-254.591 384.446,-264.953 390.424,-261.311"/>
</g>
<!-- Node12 -->
<g id="node12" class="node"><title>Node12</title>
<polygon fill="white" stroke="#bfbfbf" points="1472,-123.5 1472,-142.5 1526,-142.5 1526,-123.5 1472,-123.5"/>
<text text-anchor="middle" x="1499" y="-130.5" font-family="Helvetica,sans-Serif" font-size="10.00">memory</text>
</g>
<!-- Node9&#45;&gt;Node12 -->
<g id="edge13" class="edge"><title>Node9&#45;&gt;Node12</title>
<path fill="none" stroke="midnightblue" d="M477.216,-355.369C560.184,-353.311 782.905,-344.812 965,-311 1141.47,-278.233 1184.39,-260.535 1353,-199 1395.85,-183.36 1443.88,-160.999 1472.77,-147"/>
<polygon fill="midnightblue" stroke="midnightblue" points="1474.34,-150.127 1481.79,-142.595 1471.27,-143.836 1474.34,-150.127"/>
</g>
<!-- Node13 -->
<g id="node13" class="node"><title>Node13</title>
<polygon fill="white" stroke="#bfbfbf" points="1300,-123.5 1300,-142.5 1340,-142.5 1340,-123.5 1300,-123.5"/>
<text text-anchor="middle" x="1320" y="-130.5" font-family="Helvetica,sans-Serif" font-size="10.00">utility</text>
</g>
<!-- Node9&#45;&gt;Node13 -->
<g id="edge15" class="edge"><title>Node9&#45;&gt;Node13</title>
<path fill="none" stroke="midnightblue" d="M477.038,-351.702C533.103,-344.279 650.397,-328.193 749,-311 997.328,-267.7 1124.28,-374.729 1305,-199 1317.19,-187.151 1320.33,-167.524 1320.79,-152.932"/>
<polygon fill="midnightblue" stroke="midnightblue" points="1324.29,-152.526 1320.71,-142.554 1317.29,-152.581 1324.29,-152.526"/>
</g>
<!-- Node14 -->
<g id="node14" class="node"><title>Node14</title>
<g id="a_node14"><a xlink:href="audio_8hpp.html" target="_top" xlink:title="Declaration of the Audio class. ">
<polygon fill="white" stroke="black" points="1198,-179.5 1198,-198.5 1296,-198.5 1296,-179.5 1198,-179.5"/>
<text text-anchor="middle" x="1247" y="-186.5" font-family="Helvetica,sans-Serif" font-size="10.00">../audio/audio.hpp</text>
</a>
</g>
</g>
<!-- Node9&#45;&gt;Node14 -->
<g id="edge16" class="edge"><title>Node9&#45;&gt;Node14</title>
<path fill="none" stroke="midnightblue" d="M477.035,-349.909C559.083,-334.701 778.687,-293.516 961,-255 1045.89,-237.066 1144.48,-214.209 1200.92,-200.928"/>
<polygon fill="midnightblue" stroke="midnightblue" points="1202.03,-204.263 1210.96,-198.563 1200.42,-197.45 1202.03,-204.263"/>
</g>
<!-- Node22 -->
<g id="node22" class="node"><title>Node22</title>
<g id="a_node22"><a xlink:href="time__parser_8hpp.html" target="_top" xlink:title="The TimeParser template class. ">
<polygon fill="white" stroke="black" points="28.5,-123.5 28.5,-142.5 129.5,-142.5 129.5,-123.5 28.5,-123.5"/>
<text text-anchor="middle" x="79" y="-130.5" font-family="Helvetica,sans-Serif" font-size="10.00">../time_parser.hpp</text>
</a>
</g>
</g>
<!-- Node9&#45;&gt;Node22 -->
<g id="edge34" class="edge"><title>Node9&#45;&gt;Node22</title>
<path fill="none" stroke="midnightblue" d="M410.741,-355.181C341.377,-352.823 184.364,-343.9 144,-311 94.7725,-270.875 82.8272,-189.914 79.9287,-153.054"/>
<polygon fill="midnightblue" stroke="midnightblue" points="83.4005,-152.501 79.2697,-142.744 76.4148,-152.947 83.4005,-152.501"/>
</g>
<!-- Node24 -->
<g id="node24" class="node"><title>Node24</title>
<g id="a_node24"><a xlink:href="player__file_8hpp.html" target="_top" xlink:title="Declaration of the PlayerFile class, and associated types. ">
<polygon fill="white" stroke="black" points="522,-291.5 522,-310.5 608,-310.5 608,-291.5 522,-291.5"/>
<text text-anchor="middle" x="565" y="-298.5" font-family="Helvetica,sans-Serif" font-size="10.00">player_file.hpp</text>
</a>
</g>
</g>
<!-- Node9&#45;&gt;Node24 -->
<g id="edge40" class="edge"><title>Node9&#45;&gt;Node24</title>
<path fill="none" stroke="midnightblue" d="M463.173,-347.444C482.909,-338.636 513.885,-324.812 536.493,-314.722"/>
<polygon fill="midnightblue" stroke="midnightblue" points="538.211,-317.788 545.917,-310.516 535.359,-311.396 538.211,-317.788"/>
</g>
<!-- Node9&#45;&gt;Node32 -->
<g id="edge70" class="edge"><title>Node9&#45;&gt;Node32</title>
<path fill="none" stroke="midnightblue" d="M452.82,-347.464C465.833,-334.923 491.014,-310.853 513,-291 524.215,-280.873 537.05,-269.761 547.163,-261.113"/>
<polygon fill="midnightblue" stroke="midnightblue" points="549.579,-263.652 554.922,-254.503 545.04,-258.323 549.579,-263.652"/>
</g>
<!-- Node34 -->
<g id="node34" class="node"><title>Node34</title>
<g id="a_node34"><a xlink:href="player__state_8hpp.html" target="_top" xlink:title="Declaration of the PlayerState class, and associated types. ">
<polygon fill="white" stroke="black" points="267.5,-291.5 267.5,-310.5 362.5,-310.5 362.5,-291.5 267.5,-291.5"/>
<text text-anchor="middle" x="315" y="-298.5" font-family="Helvetica,sans-Serif" font-size="10.00">player_state.hpp</text>
</a>
</g>
</g>
<!-- Node9&#45;&gt;Node34 -->
<g id="edge71" class="edge"><title>Node9&#45;&gt;Node34</title>
<path fill="none" stroke="midnightblue" d="M423.56,-347.444C402.33,-338.557 368.901,-324.563 344.745,-314.451"/>
<polygon fill="midnightblue" stroke="midnightblue" points="345.921,-311.149 335.345,-310.516 343.218,-317.606 345.921,-311.149"/>
</g>
<!-- Node14&#45;&gt;Node6 -->
<g id="edge19" class="edge"><title>Node14&#45;&gt;Node6</title>
<path fill="none" stroke="midnightblue" d="M1296.19,-181.921C1341.83,-175.151 1404.91,-162.519 1420,-143 1443.65,-112.41 1445.6,-84.9789 1420,-56 1398.24,-31.364 1173.67,-17.0898 1089.57,-12.5744"/>
<polygon fill="midnightblue" stroke="midnightblue" points="1089.74,-9.07899 1079.57,-12.0486 1089.38,-16.0693 1089.74,-9.07899"/>
</g>
<!-- Node14&#45;&gt;Node10 -->
<g id="edge17" class="edge"><title>Node14&#45;&gt;Node10</title>
<path fill="none" stroke="midnightblue" d="M1295.11,-179.489C1337.29,-169.915 1388.5,-151.821 1365,-123 1302.97,-46.9303 573.989,-17.7888 406.953,-12.0869"/>
<polygon fill="midnightblue" stroke="midnightblue" points="406.889,-8.58289 396.777,-11.745 406.653,-15.5789 406.889,-8.58289"/>
</g>
<!-- Node14&#45;&gt;Node12 -->
<g id="edge18" class="edge"><title>Node14&#45;&gt;Node12</title>
<path fill="none" stroke="midnightblue" d="M1287.47,-179.445C1329.95,-170.445 1398.69,-155.833 1458,-143 1459.24,-142.731 1460.51,-142.457 1461.78,-142.18"/>
<polygon fill="midnightblue" stroke="midnightblue" points="1462.63,-145.577 1471.66,-140.026 1461.14,-138.737 1462.63,-145.577"/>
</g>
<!-- Node14&#45;&gt;Node13 -->
<g id="edge20" class="edge"><title>Node14&#45;&gt;Node13</title>
<path fill="none" stroke="midnightblue" d="M1258.73,-179.324C1269.84,-171.107 1286.74,-158.602 1299.98,-148.807"/>
<polygon fill="midnightblue" stroke="midnightblue" points="1302.1,-151.595 1308.06,-142.834 1297.94,-145.967 1302.1,-151.595"/>
</g>
<!-- Node15 -->
<g id="node15" class="node"><title>Node15</title>
<polygon fill="white" stroke="#bfbfbf" points="984,-62 984,-81 1030,-81 1030,-62 984,-62"/>
<text text-anchor="middle" x="1007" y="-69" font-family="Helvetica,sans-Serif" font-size="10.00">vector</text>
</g>
<!-- Node14&#45;&gt;Node15 -->
<g id="edge21" class="edge"><title>Node14&#45;&gt;Node15</title>
<path fill="none" stroke="midnightblue" d="M1284.06,-179.426C1321.83,-169.001 1371.85,-149.466 1349,-123 1309.3,-77.0036 1118.46,-72.1757 1040.39,-72.1675"/>
<polygon fill="midnightblue" stroke="midnightblue" points="1040.14,-68.6681 1030.15,-72.1946 1040.16,-75.668 1040.14,-68.6681"/>
</g>
<!-- Node16 -->
<g id="node16" class="node"><title>Node16</title>
<polygon fill="white" stroke="#bfbfbf" points="974.5,-123.5 974.5,-142.5 1043.5,-142.5 1043.5,-123.5 974.5,-123.5"/>
<text text-anchor="middle" x="1009" y="-130.5" font-family="Helvetica,sans-Serif" font-size="10.00">portaudio.h</text>
</g>
<!-- Node14&#45;&gt;Node16 -->
<g id="edge22" class="edge"><title>Node14&#45;&gt;Node16</title>
<path fill="none" stroke="midnightblue" d="M1209.29,-179.444C1167,-169.85 1098.49,-154.304 1053.59,-144.116"/>
<polygon fill="midnightblue" stroke="midnightblue" points="1054.35,-140.701 1043.83,-141.902 1052.8,-147.528 1054.35,-140.701"/>
</g>
<!-- Node17 -->
<g id="node17" class="node"><title>Node17</title>
<polygon fill="white" stroke="#bfbfbf" points="1062,-123.5 1062,-142.5 1244,-142.5 1244,-123.5 1062,-123.5"/>
<text text-anchor="middle" x="1153" y="-130.5" font-family="Helvetica,sans-Serif" font-size="10.00">portaudiocpp/CallbackInterface.hxx</text>
</g>
<!-- Node14&#45;&gt;Node17 -->
<g id="edge23" class="edge"><title>Node14&#45;&gt;Node17</title>
<path fill="none" stroke="midnightblue" d="M1231.9,-179.324C1217.1,-170.822 1194.31,-157.729 1177.02,-147.797"/>
<polygon fill="midnightblue" stroke="midnightblue" points="1178.48,-144.601 1168.07,-142.655 1174.99,-150.671 1178.48,-144.601"/>
</g>
<!-- Node18 -->
<g id="node18" class="node"><title>Node18</title>
<g id="a_node18"><a xlink:href="audio__source_8hpp.html" target="_top" xlink:title="Declaration of the AudioSource class. ">
<polygon fill="white" stroke="black" points="490,-123.5 490,-142.5 590,-142.5 590,-123.5 490,-123.5"/>
<text text-anchor="middle" x="540" y="-130.5" font-family="Helvetica,sans-Serif" font-size="10.00">audio_source.hpp</text>
</a>
</g>
</g>
<!-- Node14&#45;&gt;Node18 -->
<g id="edge24" class="edge"><title>Node14&#45;&gt;Node18</title>
<path fill="none" stroke="midnightblue" d="M1197.79,-180.169C1194.48,-179.742 1191.19,-179.347 1188,-179 944.027,-152.472 881.648,-162.338 637,-143 625.145,-142.063 612.485,-140.962 600.356,-139.857"/>
<polygon fill="midnightblue" stroke="midnightblue" points="600.602,-136.365 590.322,-138.932 599.959,-143.335 600.602,-136.365"/>
</g>
<!-- Node18&#45;&gt;Node6 -->
<g id="edge27" class="edge"><title>Node18&#45;&gt;Node6</title>
<path fill="none" stroke="midnightblue" d="M551.536,-123.378C573.976,-107.108 625.642,-72.0751 675,-56 800.127,-15.2482 958.895,-10.5466 1025.88,-10.5604"/>
<polygon fill="midnightblue" stroke="midnightblue" points="1026.18,-14.0615 1036.19,-10.6012 1026.21,-7.06159 1026.18,-14.0615"/>
</g>
<!-- Node18&#45;&gt;Node7 -->
<g id="edge30" class="edge"><title>Node18&#45;&gt;Node7</title>
<path fill="none" stroke="midnightblue" d="M489.845,-123.664C420.382,-112.119 295.849,-91.4219 228.424,-80.2158"/>
<polygon fill="midnightblue" stroke="midnightblue" points="228.946,-76.7545 218.507,-78.5675 227.798,-83.6598 228.946,-76.7545"/>
</g>
<!-- Node18&#45;&gt;Node10 -->
<g id="edge26" class="edge"><title>Node18&#45;&gt;Node10</title>
<path fill="none" stroke="midnightblue" d="M528.425,-123.469C516.288,-114.488 496.695,-99.8921 480,-87 462.475,-73.4672 458.916,-69.0109 441,-56 426.109,-45.1859 408.806,-33.7506 395.381,-25.1136"/>
<polygon fill="midnightblue" stroke="midnightblue" points="397.096,-22.0557 386.784,-19.6233 393.328,-27.9553 397.096,-22.0557"/>
</g>
<!-- Node18&#45;&gt;Node15 -->
<g id="edge28" class="edge"><title>Node18&#45;&gt;Node15</title>
<path fill="none" stroke="midnightblue" d="M590.175,-127.217C700.461,-116.647 955.669,-91.85 974,-87 976.297,-86.3923 978.639,-85.6458 980.961,-84.8152"/>
<polygon fill="midnightblue" stroke="midnightblue" points="982.276,-88.0587 990.236,-81.0665 979.653,-81.5687 982.276,-88.0587"/>
</g>
<!-- Node19 -->
<g id="node19" class="node"><title>Node19</title>
<polygon fill="white" stroke="#bfbfbf" points="548.5,-62 548.5,-81 589.5,-81 589.5,-62 548.5,-62"/>
<text text-anchor="middle" x="569" y="-69" font-family="Helvetica,sans-Serif" font-size="10.00">array</text>
</g>
<!-- Node18&#45;&gt;Node19 -->
<g id="edge25" class="edge"><title>Node18&#45;&gt;Node19</title>
<path fill="none" stroke="midnightblue" d="M544.155,-123.475C548.376,-114.815 555.037,-101.149 560.4,-90.1453"/>
<polygon fill="midnightblue" stroke="midnightblue" points="563.618,-91.5317 564.853,-81.0091 557.325,-88.4648 563.618,-91.5317"/>
</g>
<!-- Node20 -->
<g id="node20" class="node"><title>Node20</title>
<polygon fill="white" stroke="#bfbfbf" points="489.5,-62 489.5,-81 530.5,-81 530.5,-62 489.5,-62"/>
<text text-anchor="middle" x="510" y="-69" font-family="Helvetica,sans-Serif" font-size="10.00">sox.h</text>
</g>
<!-- Node18&#45;&gt;Node20 -->
<g id="edge29" class="edge"><title>Node18&#45;&gt;Node20</title>
<path fill="none" stroke="midnightblue" d="M535.702,-123.475C531.335,-114.815 524.445,-101.149 518.897,-90.1453"/>
<polygon fill="midnightblue" stroke="midnightblue" points="521.918,-88.3625 514.29,-81.0091 515.667,-91.5141 521.918,-88.3625"/>
</g>
<!-- Node21 -->
<g id="node21" class="node"><title>Node21</title>
<g id="a_node21"><a xlink:href="sample__formats_8hpp.html" target="_top" xlink:title="The SampleFormat enumeration. ">
<polygon fill="white" stroke="black" points="313.5,-62 313.5,-81 432.5,-81 432.5,-62 313.5,-62"/>
<text text-anchor="middle" x="373" y="-69" font-family="Helvetica,sans-Serif" font-size="10.00">../sample_formats.hpp</text>
</a>
</g>
</g>
<!-- Node18&#45;&gt;Node21 -->
<g id="edge31" class="edge"><title>Node18&#45;&gt;Node21</title>
<path fill="none" stroke="midnightblue" d="M516.073,-123.475C487.303,-113.225 438.844,-95.9593 406.398,-84.3994"/>
<polygon fill="midnightblue" stroke="midnightblue" points="407.477,-81.0684 396.883,-81.0091 405.128,-87.6624 407.477,-81.0684"/>
</g>
<!-- Node21&#45;&gt;Node10 -->
<g id="edge32" class="edge"><title>Node21&#45;&gt;Node10</title>
<path fill="none" stroke="midnightblue" d="M373,-61.9751C373,-53.5803 373,-40.4806 373,-29.6631"/>
<polygon fill="midnightblue" stroke="midnightblue" points="376.5,-29.5091 373,-19.5091 369.5,-29.5091 376.5,-29.5091"/>
</g>
<!-- Node22&#45;&gt;Node2 -->
<g id="edge36" class="edge"><title>Node22&#45;&gt;Node2</title>
<path fill="none" stroke="midnightblue" d="M76.2671,-123.298C70.1049,-103.676 55.0186,-55.6382 46.7136,-29.1933"/>
<polygon fill="midnightblue" stroke="midnightblue" points="50.0436,-28.1151 43.7081,-19.6232 43.3652,-30.2125 50.0436,-28.1151"/>
</g>
<!-- Node22&#45;&gt;Node7 -->
<g id="edge37" class="edge"><title>Node22&#45;&gt;Node7</title>
<path fill="none" stroke="midnightblue" d="M93.7574,-123.475C110.661,-113.711 138.583,-97.5807 158.49,-86.0808"/>
<polygon fill="midnightblue" stroke="midnightblue" points="160.362,-89.0419 167.27,-81.0091 156.86,-82.9805 160.362,-89.0419"/>
</g>
<!-- Node22&#45;&gt;Node10 -->
<g id="edge35" class="edge"><title>Node22&#45;&gt;Node10</title>
<path fill="none" stroke="midnightblue" d="M78.9888,-123.391C79.4702,-107.459 82.9404,-73.4181 103,-56 137.755,-25.8218 274.513,-15.5485 339.002,-12.3359"/>
<polygon fill="midnightblue" stroke="midnightblue" points="339.245,-15.8284 349.07,-11.8628 338.917,-8.83615 339.245,-15.8284"/>
</g>
<!-- Node23 -->
<g id="node23" class="node"><title>Node23</title>
<g id="a_node23"><a xlink:href="messages_8h.html" target="_top" xlink:title="Constant human&#45;readable messages used within playd. ">
<polygon fill="white" stroke="black" points="684.5,-62 684.5,-81 757.5,-81 757.5,-62 684.5,-62"/>
<text text-anchor="middle" x="721" y="-69" font-family="Helvetica,sans-Serif" font-size="10.00">messages.h</text>
</a>
</g>
</g>
<!-- Node22&#45;&gt;Node23 -->
<g id="edge38" class="edge"><title>Node22&#45;&gt;Node23</title>
<path fill="none" stroke="midnightblue" d="M129.514,-128.141C222.364,-120.931 426.377,-104.552 598,-87 623.227,-84.42 651.316,-81.1397 674.275,-78.3519"/>
<polygon fill="midnightblue" stroke="midnightblue" points="674.933,-81.7977 684.434,-77.11 674.083,-74.8494 674.933,-81.7977"/>
</g>
<!-- Node23&#45;&gt;Node6 -->
<g id="edge39" class="edge"><title>Node23&#45;&gt;Node6</title>
<path fill="none" stroke="midnightblue" d="M745.089,-61.9597C751.798,-59.7948 759.131,-57.6252 766,-56 859.357,-33.9134 972.161,-20.08 1026.17,-14.2294"/>
<polygon fill="midnightblue" stroke="midnightblue" points="1026.59,-17.7045 1036.16,-13.1656 1025.85,-10.7438 1026.59,-17.7045"/>
</g>
<!-- Node24&#45;&gt;Node3 -->
<g id="edge65" class="edge"><title>Node24&#45;&gt;Node3</title>
<path fill="none" stroke="midnightblue" d="M551.696,-291.431C531.665,-278.641 492.435,-254.026 458,-235 437.358,-223.595 413.458,-211.704 395.478,-203.012"/>
<polygon fill="midnightblue" stroke="midnightblue" points="396.685,-199.709 386.155,-198.536 393.655,-206.02 396.685,-199.709"/>
</g>
<!-- Node24&#45;&gt;Node12 -->
<g id="edge41" class="edge"><title>Node24&#45;&gt;Node12</title>
<path fill="none" stroke="midnightblue" d="M608.147,-297.339C722.985,-289.566 1045.07,-263.253 1305,-199 1363.56,-184.524 1429.8,-160.65 1467.76,-146.217"/>
<polygon fill="midnightblue" stroke="midnightblue" points="1469.15,-149.433 1477.23,-142.587 1466.64,-142.897 1469.15,-149.433"/>
</g>
<!-- Node25 -->
<g id="node25" class="node"><title>Node25</title>
<g id="a_node25"><a xlink:href="audio__system_8hpp.html" target="_top" xlink:title="Declaration of the AudioSystem class. ">
<polygon fill="white" stroke="black" points="815.5,-235.5 815.5,-254.5 952.5,-254.5 952.5,-235.5 815.5,-235.5"/>
<text text-anchor="middle" x="884" y="-242.5" font-family="Helvetica,sans-Serif" font-size="10.00">../audio/audio_system.hpp</text>
</a>
</g>
</g>
<!-- Node24&#45;&gt;Node25 -->
<g id="edge42" class="edge"><title>Node24&#45;&gt;Node25</title>
<path fill="none" stroke="midnightblue" d="M608.022,-292.717C663.52,-283.323 760.385,-266.925 823.341,-256.268"/>
<polygon fill="midnightblue" stroke="midnightblue" points="824.251,-259.664 833.526,-254.544 823.082,-252.762 824.251,-259.664"/>
</g>
<!-- Node24&#45;&gt;Node32 -->
<g id="edge66" class="edge"><title>Node24&#45;&gt;Node32</title>
<path fill="none" stroke="midnightblue" d="M565,-291.083C565,-284.006 565,-273.861 565,-264.986"/>
<polygon fill="midnightblue" stroke="midnightblue" points="568.5,-264.751 565,-254.751 561.5,-264.751 568.5,-264.751"/>
</g>
<!-- Node25&#45;&gt;Node6 -->
<g id="edge43" class="edge"><title>Node25&#45;&gt;Node6</title>
<path fill="none" stroke="midnightblue" d="M888.394,-235.453C896.321,-221.021 914.497,-192.112 939,-179 1000.93,-145.862 1206.25,-195.416 1253,-143 1307.48,-81.9136 1157.46,-35.6354 1089.5,-18.3688"/>
<polygon fill="midnightblue" stroke="midnightblue" points="1090.27,-14.9537 1079.72,-15.941 1088.58,-21.7475 1090.27,-14.9537"/>
</g>
<!-- Node25&#45;&gt;Node13 -->
<g id="edge44" class="edge"><title>Node25&#45;&gt;Node13</title>
<path fill="none" stroke="midnightblue" d="M893.101,-235.467C909.075,-221.056 943.817,-192.178 979,-179 1107.65,-130.812 1151.03,-168.642 1286,-143 1287.28,-142.756 1288.59,-142.491 1289.9,-142.208"/>
<polygon fill="midnightblue" stroke="midnightblue" points="1291.06,-145.531 1299.97,-139.807 1289.43,-138.722 1291.06,-145.531"/>
</g>
<!-- Node25&#45;&gt;Node14 -->
<g id="edge64" class="edge"><title>Node25&#45;&gt;Node14</title>
<path fill="none" stroke="midnightblue" d="M942.007,-235.491C1001.04,-226.815 1095.47,-212.887 1187.68,-199.043"/>
<polygon fill="midnightblue" stroke="midnightblue" points="1188.38,-202.477 1197.75,-197.53 1187.34,-195.554 1188.38,-202.477"/>
</g>
<!-- Node25&#45;&gt;Node18 -->
<g id="edge63" class="edge"><title>Node25&#45;&gt;Node18</title>
<path fill="none" stroke="midnightblue" d="M857.293,-235.46C796.206,-215.926 646.21,-167.963 576.595,-145.702"/>
<polygon fill="midnightblue" stroke="midnightblue" points="577.518,-142.322 566.927,-142.61 575.386,-148.99 577.518,-142.322"/>
</g>
<!-- Node25&#45;&gt;Node21 -->
<g id="edge47" class="edge"><title>Node25&#45;&gt;Node21</title>
<path fill="none" stroke="midnightblue" d="M820.894,-235.463C739.503,-222.843 594.874,-194.9 481,-143 447.483,-127.724 412.447,-102.97 391.683,-87.2265"/>
<polygon fill="midnightblue" stroke="midnightblue" points="393.763,-84.411 383.704,-81.0848 389.494,-89.958 393.763,-84.411"/>
</g>
<!-- Node26 -->
<g id="node26" class="node"><title>Node26</title>
<polygon fill="white" stroke="#bfbfbf" points="988.5,-179.5 988.5,-198.5 1179.5,-198.5 1179.5,-179.5 988.5,-179.5"/>
<text text-anchor="middle" x="1084" y="-186.5" font-family="Helvetica,sans-Serif" font-size="10.00">portaudiocpp/SampleDataFormat.hxx</text>
</g>
<!-- Node25&#45;&gt;Node26 -->
<g id="edge45" class="edge"><title>Node25&#45;&gt;Node26</title>
<path fill="none" stroke="midnightblue" d="M915.691,-235.444C950.068,-226.162 1005.08,-211.309 1042.79,-201.127"/>
<polygon fill="midnightblue" stroke="midnightblue" points="1043.72,-204.502 1052.46,-198.516 1041.89,-197.744 1043.72,-204.502"/>
</g>
<!-- Node27 -->
<g id="node27" class="node"><title>Node27</title>
<polygon fill="white" stroke="#bfbfbf" points="822,-123.5 822,-142.5 956,-142.5 956,-123.5 822,-123.5"/>
<text text-anchor="middle" x="889" y="-130.5" font-family="Helvetica,sans-Serif" font-size="10.00">portaudiocpp/Stream.hxx</text>
</g>
<!-- Node25&#45;&gt;Node27 -->
<g id="edge46" class="edge"><title>Node25&#45;&gt;Node27</title>
<path fill="none" stroke="midnightblue" d="M884.392,-235.368C885.199,-217.617 887.061,-176.666 888.155,-152.597"/>
<polygon fill="midnightblue" stroke="midnightblue" points="891.652,-152.74 888.609,-142.591 884.659,-152.422 891.652,-152.74"/>
</g>
<!-- Node28 -->
<g id="node28" class="node"><title>Node28</title>
<g id="a_node28"><a xlink:href="audio__sink_8hpp.html" target="_top" xlink:title="Declaration of the AudioSink class. ">
<polygon fill="white" stroke="black" points="768.5,-179.5 768.5,-198.5 855.5,-198.5 855.5,-179.5 768.5,-179.5"/>
<text text-anchor="middle" x="812" y="-186.5" font-family="Helvetica,sans-Serif" font-size="10.00">audio_sink.hpp</text>
</a>
</g>
</g>
<!-- Node25&#45;&gt;Node28 -->
<g id="edge48" class="edge"><title>Node25&#45;&gt;Node28</title>
<path fill="none" stroke="midnightblue" d="M872.432,-235.324C861.58,-227.185 845.119,-214.839 832.117,-205.087"/>
<polygon fill="midnightblue" stroke="midnightblue" points="833.879,-202.034 823.779,-198.834 829.679,-207.634 833.879,-202.034"/>
</g>
<!-- Node28&#45;&gt;Node6 -->
<g id="edge51" class="edge"><title>Node28&#45;&gt;Node6</title>
<path fill="none" stroke="midnightblue" d="M808.965,-179.191C804.833,-165.406 799.399,-138.693 813,-123 879.615,-46.1394 964.02,-155.724 1039,-87 1054.79,-72.5263 1058.34,-47.095 1058.74,-29.6676"/>
<polygon fill="midnightblue" stroke="midnightblue" points="1062.24,-29.532 1058.64,-19.5667 1055.24,-29.6005 1062.24,-29.532"/>
</g>
<!-- Node28&#45;&gt;Node10 -->
<g id="edge49" class="edge"><title>Node28&#45;&gt;Node10</title>
<path fill="none" stroke="midnightblue" d="M768.472,-181.238C723.359,-173.471 656.726,-159.633 637,-143 604.605,-115.685 631.124,-82.426 598,-56 568.818,-32.7193 461.768,-19.4073 406.507,-13.9457"/>
<polygon fill="midnightblue" stroke="midnightblue" points="406.791,-10.457 396.502,-12.987 406.123,-17.4251 406.791,-10.457"/>
</g>
<!-- Node28&#45;&gt;Node12 -->
<g id="edge50" class="edge"><title>Node28&#45;&gt;Node12</title>
<path fill="none" stroke="midnightblue" d="M855.758,-184.561C981.721,-174.66 1343.69,-146.208 1461.47,-136.95"/>
<polygon fill="midnightblue" stroke="midnightblue" points="1462.08,-140.413 1471.77,-136.14 1461.53,-133.435 1462.08,-140.413"/>
</g>
<!-- Node28&#45;&gt;Node13 -->
<g id="edge52" class="edge"><title>Node28&#45;&gt;Node13</title>
<path fill="none" stroke="midnightblue" d="M855.554,-184.019C934.748,-176.678 1107.59,-160.18 1253,-143 1265.05,-141.577 1278.29,-139.835 1289.79,-138.265"/>
<polygon fill="midnightblue" stroke="midnightblue" points="1290.36,-141.72 1299.79,-136.885 1289.41,-134.786 1290.36,-141.72"/>
</g>
<!-- Node28&#45;&gt;Node15 -->
<g id="edge53" class="edge"><title>Node28&#45;&gt;Node15</title>
<path fill="none" stroke="midnightblue" d="M801.855,-179.259C787.712,-166.029 765.364,-140.602 780,-123 836.068,-55.5709 890.19,-112.81 974,-87 975.929,-86.406 977.895,-85.7316 979.859,-85.0064"/>
<polygon fill="midnightblue" stroke="midnightblue" points="981.531,-88.1051 989.475,-81.0949 978.893,-81.6211 981.531,-88.1051"/>
</g>
<!-- Node28&#45;&gt;Node16 -->
<g id="edge54" class="edge"><title>Node28&#45;&gt;Node16</title>
<path fill="none" stroke="midnightblue" d="M843.215,-179.444C876.933,-170.201 930.8,-155.436 967.932,-145.257"/>
<polygon fill="midnightblue" stroke="midnightblue" points="969.212,-148.536 977.931,-142.516 967.361,-141.785 969.212,-148.536"/>
</g>
<!-- Node28&#45;&gt;Node17 -->
<g id="edge55" class="edge"><title>Node28&#45;&gt;Node17</title>
<path fill="none" stroke="midnightblue" d="M855.534,-181.106C914.625,-171.749 1020.65,-154.958 1088.87,-144.156"/>
<polygon fill="midnightblue" stroke="midnightblue" points="1089.73,-147.563 1099.06,-142.542 1088.64,-140.649 1089.73,-147.563"/>
</g>
<!-- Node28&#45;&gt;Node18 -->
<g id="edge57" class="edge"><title>Node28&#45;&gt;Node18</title>
<path fill="none" stroke="midnightblue" d="M768.901,-179.444C721.153,-169.964 644.139,-154.675 592.806,-144.483"/>
<polygon fill="midnightblue" stroke="midnightblue" points="593.388,-141.031 582.898,-142.516 592.025,-147.897 593.388,-141.031"/>
</g>
<!-- Node28&#45;&gt;Node27 -->
<g id="edge56" class="edge"><title>Node28&#45;&gt;Node27</title>
<path fill="none" stroke="midnightblue" d="M824.371,-179.324C836.158,-171.058 854.132,-158.453 868.136,-148.632"/>
<polygon fill="midnightblue" stroke="midnightblue" points="870.482,-151.262 876.659,-142.655 866.462,-145.531 870.482,-151.262"/>
</g>
<!-- Node29 -->
<g id="node29" class="node"><title>Node29</title>
<g id="a_node29"><a xlink:href="ringbuffer_8hpp.html" target="_top" xlink:title="The RingBuffer class template. ">
<polygon fill="white" stroke="black" points="646.5,-123.5 646.5,-142.5 727.5,-142.5 727.5,-123.5 646.5,-123.5"/>
<text text-anchor="middle" x="687" y="-130.5" font-family="Helvetica,sans-Serif" font-size="10.00">ringbuffer.hpp</text>
</a>
</g>
</g>
<!-- Node28&#45;&gt;Node29 -->
<g id="edge58" class="edge"><title>Node28&#45;&gt;Node29</title>
<path fill="none" stroke="midnightblue" d="M792.193,-179.444C771.713,-170.596 739.517,-156.687 716.135,-146.586"/>
<polygon fill="midnightblue" stroke="midnightblue" points="717.282,-143.269 706.714,-142.516 714.506,-149.695 717.282,-143.269"/>
</g>
<!-- Node29&#45;&gt;Node7 -->
<g id="edge61" class="edge"><title>Node29&#45;&gt;Node7</title>
<path fill="none" stroke="midnightblue" d="M646.466,-127.256C576.566,-119.07 428.831,-101.752 304,-87 279.11,-84.0587 251.366,-80.7626 228.632,-78.0572"/>
<polygon fill="midnightblue" stroke="midnightblue" points="228.911,-74.5657 218.567,-76.8591 228.083,-81.5167 228.911,-74.5657"/>
</g>
<!-- Node29&#45;&gt;Node23 -->
<g id="edge62" class="edge"><title>Node29&#45;&gt;Node23</title>
<path fill="none" stroke="midnightblue" d="M691.871,-123.475C696.87,-114.727 704.789,-100.869 711.109,-89.8093"/>
<polygon fill="midnightblue" stroke="midnightblue" points="714.215,-91.428 716.138,-81.0091 708.137,-87.955 714.215,-91.428"/>
</g>
<!-- Node30 -->
<g id="node30" class="node"><title>Node30</title>
<polygon fill="white" stroke="#bfbfbf" points="914.5,-62 914.5,-81 965.5,-81 965.5,-62 914.5,-62"/>
<text text-anchor="middle" x="940" y="-69" font-family="Helvetica,sans-Serif" font-size="10.00">cassert</text>
</g>
<!-- Node29&#45;&gt;Node30 -->
<g id="edge59" class="edge"><title>Node29&#45;&gt;Node30</title>
<path fill="none" stroke="midnightblue" d="M727.582,-124.575C781.127,-114.613 872.4,-97.0186 905,-87 907.145,-86.3407 909.341,-85.5994 911.535,-84.8099"/>
<polygon fill="midnightblue" stroke="midnightblue" points="912.927,-88.0238 920.984,-81.1431 910.395,-81.4979 912.927,-88.0238"/>
</g>
<!-- Node31 -->
<g id="node31" class="node"><title>Node31</title>
<polygon fill="white" stroke="#bfbfbf" points="775.5,-56.5 775.5,-86.5 896.5,-86.5 896.5,-56.5 775.5,-56.5"/>
<text text-anchor="start" x="783.5" y="-74.5" font-family="Helvetica,sans-Serif" font-size="10.00">../contrib/pa_ringbuffer</text>
<text text-anchor="middle" x="836" y="-63.5" font-family="Helvetica,sans-Serif" font-size="10.00">/pa_ringbuffer.h</text>
</g>
<!-- Node29&#45;&gt;Node31 -->
<g id="edge60" class="edge"><title>Node29&#45;&gt;Node31</title>
<path fill="none" stroke="midnightblue" d="M708.348,-123.475C729.943,-114.852 763.969,-101.264 791.462,-90.2852"/>
<polygon fill="midnightblue" stroke="midnightblue" points="792.895,-93.482 800.884,-86.523 790.299,-86.9811 792.895,-93.482"/>
</g>
<!-- Node32&#45;&gt;Node3 -->
<g id="edge69" class="edge"><title>Node32&#45;&gt;Node3</title>
<path fill="none" stroke="midnightblue" d="M533.785,-235.444C500.067,-226.201 446.2,-211.436 409.068,-201.257"/>
<polygon fill="midnightblue" stroke="midnightblue" points="409.639,-197.785 399.069,-198.516 407.788,-204.536 409.639,-197.785"/>
</g>
<!-- Node32&#45;&gt;Node18 -->
<g id="edge68" class="edge"><title>Node32&#45;&gt;Node18</title>
<path fill="none" stroke="midnightblue" d="M546.016,-235.398C532.114,-227.954 514.286,-215.741 506,-199 497.673,-182.175 510.208,-163.175 522.341,-150.083"/>
<polygon fill="midnightblue" stroke="midnightblue" points="525.06,-152.314 529.654,-142.767 520.109,-147.366 525.06,-152.314"/>
</g>
<!-- Node33 -->
<g id="node33" class="node"><title>Node33</title>
<polygon fill="white" stroke="#bfbfbf" points="515.5,-179.5 515.5,-198.5 546.5,-198.5 546.5,-179.5 515.5,-179.5"/>
<text text-anchor="middle" x="531" y="-186.5" font-family="Helvetica,sans-Serif" font-size="10.00">set</text>
</g>
<!-- Node32&#45;&gt;Node33 -->
<g id="edge67" class="edge"><title>Node32&#45;&gt;Node33</title>
<path fill="none" stroke="midnightblue" d="M559.386,-235.083C554.633,-227.534 547.682,-216.495 541.848,-207.23"/>
<polygon fill="midnightblue" stroke="midnightblue" points="544.8,-205.349 536.51,-198.751 538.876,-209.078 544.8,-205.349"/>
</g>
<!-- Node34&#45;&gt;Node3 -->
<g id="edge74" class="edge"><title>Node34&#45;&gt;Node3</title>
<path fill="none" stroke="midnightblue" d="M315.515,-291.13C316.567,-278.173 319.718,-253.59 329,-235 334.404,-224.178 343.014,-213.849 350.772,-205.822"/>
<polygon fill="midnightblue" stroke="midnightblue" points="353.413,-208.134 358.095,-198.63 348.508,-203.14 353.413,-208.134"/>
</g>
<!-- Node34&#45;&gt;Node10 -->
<g id="edge72" class="edge"><title>Node34&#45;&gt;Node10</title>
<path fill="none" stroke="midnightblue" d="M305.992,-291.32C280.739,-265.89 212.656,-189.184 237,-123 254.952,-74.194 309.043,-40.8157 343.354,-23.8997"/>
<polygon fill="midnightblue" stroke="midnightblue" points="344.935,-27.0235 352.461,-19.5659 341.927,-20.7028 344.935,-27.0235"/>
</g>
<!-- Node34&#45;&gt;Node11 -->
<g id="edge73" class="edge"><title>Node34&#45;&gt;Node11</title>
<path fill="none" stroke="midnightblue" d="M324.961,-291.324C334.127,-283.341 347.937,-271.313 359.028,-261.653"/>
<polygon fill="midnightblue" stroke="midnightblue" points="361.615,-264.041 366.857,-254.834 357.018,-258.762 361.615,-264.041"/>
</g>
</g>
</svg>
