<?xml version="1.0" encoding="UTF-8" standalone="no"?>
<!DOCTYPE svg PUBLIC "-//W3C//DTD SVG 1.1//EN"
 "http://www.w3.org/Graphics/SVG/1.1/DTD/svg11.dtd">
<!-- Generated by graphviz version 2.38.0 (20140413.2041)
 -->
<!-- Title: src/player/player_file.hpp Pages: 1 -->
<svg width="1337pt" height="319pt"
 viewBox="0.00 0.00 1336.70 319.00" xmlns="http://www.w3.org/2000/svg" xmlns:xlink="http://www.w3.org/1999/xlink">
<g id="graph0" class="graph" transform="scale(1 1) rotate(0) translate(4 315)">
<title>src/player/player_file.hpp</title>
<polygon fill="white" stroke="none" points="-4,4 -4,-315 1332.7,-315 1332.7,4 -4,4"/>
<!-- Node1 -->
<g id="node1" class="node"><title>Node1</title>
<polygon fill="#bfbfbf" stroke="black" points="717.696,-291.5 717.696,-310.5 852.696,-310.5 852.696,-291.5 717.696,-291.5"/>
<text text-anchor="middle" x="785.196" y="-298.5" font-family="Helvetica,sans-Serif" font-size="10.00">src/player/player_file.hpp</text>
</g>
<!-- Node2 -->
<g id="node2" class="node"><title>Node2</title>
<polygon fill="white" stroke="#bfbfbf" points="27.1957,-123.5 27.1957,-142.5 81.1957,-142.5 81.1957,-123.5 27.1957,-123.5"/>
<text text-anchor="middle" x="54.1957" y="-130.5" font-family="Helvetica,sans-Serif" font-size="10.00">memory</text>
</g>
<!-- Node1&#45;&gt;Node2 -->
<g id="edge1" class="edge"><title>Node1&#45;&gt;Node2</title>
<path fill="none" stroke="midnightblue" d="M717.57,-298.199C599.611,-293.106 350.215,-273.611 155.196,-199 123.614,-186.917 91.5154,-164.06 72.2278,-148.927"/>
<polygon fill="midnightblue" stroke="midnightblue" points="74.3069,-146.108 64.3153,-142.584 69.9286,-151.57 74.3069,-146.108"/>
</g>
<!-- Node3 -->
<g id="node3" class="node"><title>Node3</title>
<g id="a_node3"><a xlink:href="audio__system_8hpp.html" target="_top" xlink:title="Declaration of the AudioSystem class. ">
<polygon fill="white" stroke="black" points="575.696,-235.5 575.696,-254.5 712.696,-254.5 712.696,-235.5 575.696,-235.5"/>
<text text-anchor="middle" x="644.196" y="-242.5" font-family="Helvetica,sans-Serif" font-size="10.00">../audio/audio_system.hpp</text>
</a>
</g>
</g>
<!-- Node1&#45;&gt;Node3 -->
<g id="edge2" class="edge"><title>Node1&#45;&gt;Node3</title>
<path fill="none" stroke="midnightblue" d="M762.854,-291.444C739.443,-282.478 702.46,-268.314 676.006,-258.183"/>
<polygon fill="midnightblue" stroke="midnightblue" points="677.023,-254.824 666.433,-254.516 674.52,-261.361 677.023,-254.824"/>
</g>
<!-- Node25 -->
<g id="node25" class="node"><title>Node25</title>
<g id="a_node25"><a xlink:href="io__response_8hpp.html" target="_top" xlink:title="Declaration of classes pertaining to responses to the client. ">
<polygon fill="white" stroke="black" points="1136.2,-123.5 1136.2,-142.5 1250.2,-142.5 1250.2,-123.5 1136.2,-123.5"/>
<text text-anchor="middle" x="1193.2" y="-130.5" font-family="Helvetica,sans-Serif" font-size="10.00">../io/io_response.hpp</text>
</a>
</g>
</g>
<!-- Node1&#45;&gt;Node25 -->
<g id="edge44" class="edge"><title>Node1&#45;&gt;Node25</title>
<path fill="none" stroke="midnightblue" d="M846.287,-291.48C943.35,-276.767 1126.6,-243.81 1173.2,-199 1185.69,-186.989 1190.43,-167.386 1192.2,-152.843"/>
<polygon fill="midnightblue" stroke="midnightblue" points="1195.72,-152.768 1193.08,-142.508 1188.75,-152.176 1195.72,-152.768"/>
</g>
<!-- Node28 -->
<g id="node28" class="node"><title>Node28</title>
<g id="a_node28"><a xlink:href="player__position_8hpp.html" target="_top" xlink:title="Declaration of the PlayerPosition class. ">
<polygon fill="white" stroke="black" points="1055.7,-179.5 1055.7,-198.5 1164.7,-198.5 1164.7,-179.5 1055.7,-179.5"/>
<text text-anchor="middle" x="1110.2" y="-186.5" font-family="Helvetica,sans-Serif" font-size="10.00">player_position.hpp</text>
</a>
</g>
</g>
<!-- Node1&#45;&gt;Node28 -->
<g id="edge49" class="edge"><title>Node1&#45;&gt;Node28</title>
<path fill="none" stroke="midnightblue" d="M810.428,-291.46C868.022,-271.966 1009.27,-224.159 1075.22,-201.839"/>
<polygon fill="midnightblue" stroke="midnightblue" points="1076.41,-205.132 1084.76,-198.61 1074.16,-198.501 1076.41,-205.132"/>
</g>
<!-- Node4 -->
<g id="node4" class="node"><title>Node4</title>
<polygon fill="white" stroke="#bfbfbf" points="797.696,-0.5 797.696,-19.5 840.696,-19.5 840.696,-0.5 797.696,-0.5"/>
<text text-anchor="middle" x="819.196" y="-7.5" font-family="Helvetica,sans-Serif" font-size="10.00">string</text>
</g>
<!-- Node3&#45;&gt;Node4 -->
<g id="edge3" class="edge"><title>Node3&#45;&gt;Node4</title>
<path fill="none" stroke="midnightblue" d="M712.877,-239.209C767.635,-233.784 845.579,-222.428 910.196,-199 982.209,-172.89 1020.08,-160.632 1041.2,-87 1044.99,-73.7561 1049.92,-66.6663 1041.2,-56 1017.52,-27.0414 906.436,-16.272 850.929,-12.65"/>
<polygon fill="midnightblue" stroke="midnightblue" points="851.124,-9.15544 840.928,-12.0358 850.695,-16.1423 851.124,-9.15544"/>
</g>
<!-- Node5 -->
<g id="node5" class="node"><title>Node5</title>
<polygon fill="white" stroke="#bfbfbf" points="175.196,-123.5 175.196,-142.5 215.196,-142.5 215.196,-123.5 175.196,-123.5"/>
<text text-anchor="middle" x="195.196" y="-130.5" font-family="Helvetica,sans-Serif" font-size="10.00">utility</text>
</g>
<!-- Node3&#45;&gt;Node5 -->
<g id="edge4" class="edge"><title>Node3&#45;&gt;Node5</title>
<path fill="none" stroke="midnightblue" d="M604.894,-235.444C531.973,-219.376 370.669,-182.928 225.414,-143.206"/>
<polygon fill="midnightblue" stroke="midnightblue" points="225.998,-139.737 215.428,-140.463 224.144,-146.487 225.998,-139.737"/>
</g>
<!-- Node6 -->
<g id="node6" class="node"><title>Node6</title>
<polygon fill="white" stroke="#bfbfbf" points="710.696,-179.5 710.696,-198.5 901.696,-198.5 901.696,-179.5 710.696,-179.5"/>
<text text-anchor="middle" x="806.196" y="-186.5" font-family="Helvetica,sans-Serif" font-size="10.00">portaudiocpp/SampleDataFormat.hxx</text>
</g>
<!-- Node3&#45;&gt;Node6 -->
<g id="edge5" class="edge"><title>Node3&#45;&gt;Node6</title>
<path fill="none" stroke="midnightblue" d="M669.865,-235.444C697.118,-226.359 740.379,-211.939 770.846,-201.783"/>
<polygon fill="midnightblue" stroke="midnightblue" points="772.266,-204.999 780.646,-198.516 770.053,-198.358 772.266,-204.999"/>
</g>
<!-- Node7 -->
<g id="node7" class="node"><title>Node7</title>
<polygon fill="white" stroke="#bfbfbf" points="863.196,-123.5 863.196,-142.5 997.196,-142.5 997.196,-123.5 863.196,-123.5"/>
<text text-anchor="middle" x="930.196" y="-130.5" font-family="Helvetica,sans-Serif" font-size="10.00">portaudiocpp/Stream.hxx</text>
</g>
<!-- Node3&#45;&gt;Node7 -->
<g id="edge6" class="edge"><title>Node3&#45;&gt;Node7</title>
<path fill="none" stroke="midnightblue" d="M649.224,-235.203C657.875,-220.931 677.003,-192.931 701.196,-179 726.701,-164.314 797.006,-151.804 853.051,-143.73"/>
<polygon fill="midnightblue" stroke="midnightblue" points="853.568,-147.192 862.979,-142.324 852.587,-140.261 853.568,-147.192"/>
</g>
<!-- Node8 -->
<g id="node8" class="node"><title>Node8</title>
<g id="a_node8"><a xlink:href="sample__formats_8hpp.html" target="_top" xlink:title="The SampleFormat enumeration. ">
<polygon fill="white" stroke="black" points="27.6957,-62 27.6957,-81 146.696,-81 146.696,-62 27.6957,-62"/>
<text text-anchor="middle" x="87.1957" y="-69" font-family="Helvetica,sans-Serif" font-size="10.00">../sample_formats.hpp</text>
</a>
</g>
</g>
<!-- Node3&#45;&gt;Node8 -->
<g id="edge7" class="edge"><title>Node3&#45;&gt;Node8</title>
<path fill="none" stroke="midnightblue" d="M575.686,-244.734C426.258,-244.603 79.4929,-234.276 18.1957,-143 3.12556,-120.559 32.8673,-98.991 57.8923,-85.7496"/>
<polygon fill="midnightblue" stroke="midnightblue" points="59.7853,-88.7154 67.1491,-81.098 56.6423,-82.4607 59.7853,-88.7154"/>
</g>
<!-- Node10 -->
<g id="node10" class="node"><title>Node10</title>
<g id="a_node10"><a xlink:href="audio__sink_8hpp.html" target="_top" xlink:title="Declaration of the AudioSink class. ">
<polygon fill="white" stroke="black" points="525.696,-179.5 525.696,-198.5 612.696,-198.5 612.696,-179.5 525.696,-179.5"/>
<text text-anchor="middle" x="569.196" y="-186.5" font-family="Helvetica,sans-Serif" font-size="10.00">audio_sink.hpp</text>
</a>
</g>
</g>
<!-- Node3&#45;&gt;Node10 -->
<g id="edge9" class="edge"><title>Node3&#45;&gt;Node10</title>
<path fill="none" stroke="midnightblue" d="M632.146,-235.324C620.733,-227.107 603.365,-214.602 589.761,-204.807"/>
<polygon fill="midnightblue" stroke="midnightblue" points="591.625,-201.837 581.465,-198.834 587.535,-207.517 591.625,-201.837"/>
</g>
<!-- Node14 -->
<g id="node14" class="node"><title>Node14</title>
<g id="a_node14"><a xlink:href="audio__source_8hpp.html" target="_top" xlink:title="Declaration of the AudioSource class. ">
<polygon fill="white" stroke="black" points="597.196,-123.5 597.196,-142.5 697.196,-142.5 697.196,-123.5 597.196,-123.5"/>
<text text-anchor="middle" x="647.196" y="-130.5" font-family="Helvetica,sans-Serif" font-size="10.00">audio_source.hpp</text>
</a>
</g>
</g>
<!-- Node3&#45;&gt;Node14 -->
<g id="edge34" class="edge"><title>Node3&#45;&gt;Node14</title>
<path fill="none" stroke="midnightblue" d="M644.431,-235.368C644.915,-217.617 646.032,-176.666 646.689,-152.597"/>
<polygon fill="midnightblue" stroke="midnightblue" points="650.187,-152.683 646.961,-142.591 643.19,-152.492 650.187,-152.683"/>
</g>
<!-- Node24 -->
<g id="node24" class="node"><title>Node24</title>
<g id="a_node24"><a xlink:href="audio_8hpp.html" target="_top" xlink:title="Declaration of the Audio class. ">
<polygon fill="white" stroke="black" points="164.196,-179.5 164.196,-198.5 226.196,-198.5 226.196,-179.5 164.196,-179.5"/>
<text text-anchor="middle" x="195.196" y="-186.5" font-family="Helvetica,sans-Serif" font-size="10.00">audio.hpp</text>
</a>
</g>
</g>
<!-- Node3&#45;&gt;Node24 -->
<g id="edge35" class="edge"><title>Node3&#45;&gt;Node24</title>
<path fill="none" stroke="midnightblue" d="M575.514,-235.74C481.077,-224.382 314.054,-204.295 236.68,-194.989"/>
<polygon fill="midnightblue" stroke="midnightblue" points="236.72,-191.469 226.374,-193.75 235.884,-198.419 236.72,-191.469"/>
</g>
<!-- Node9 -->
<g id="node9" class="node"><title>Node9</title>
<polygon fill="white" stroke="#bfbfbf" points="229.696,-0.5 229.696,-19.5 276.696,-19.5 276.696,-0.5 229.696,-0.5"/>
<text text-anchor="middle" x="253.196" y="-7.5" font-family="Helvetica,sans-Serif" font-size="10.00">cstdint</text>
</g>
<!-- Node8&#45;&gt;Node9 -->
<g id="edge8" class="edge"><title>Node8&#45;&gt;Node9</title>
<path fill="none" stroke="midnightblue" d="M110.98,-61.9751C139.578,-51.7246 187.746,-34.4593 219.997,-22.8994"/>
<polygon fill="midnightblue" stroke="midnightblue" points="221.224,-26.178 229.456,-19.5091 218.862,-19.5885 221.224,-26.178"/>
</g>
<!-- Node10&#45;&gt;Node2 -->
<g id="edge11" class="edge"><title>Node10&#45;&gt;Node2</title>
<path fill="none" stroke="midnightblue" d="M525.287,-183.396C425.744,-172.958 184.374,-147.65 91.4859,-137.91"/>
<polygon fill="midnightblue" stroke="midnightblue" points="91.735,-134.417 81.4245,-136.855 91.005,-141.379 91.735,-134.417"/>
</g>
<!-- Node10&#45;&gt;Node4 -->
<g id="edge12" class="edge"><title>Node10&#45;&gt;Node4</title>
<path fill="none" stroke="midnightblue" d="M612.871,-183.966C642.83,-178.985 681.487,-167.857 706.196,-143 734.832,-114.191 708.101,-87.1296 734.196,-56 748.133,-39.3728 769.821,-28.0314 787.8,-20.8935"/>
<polygon fill="midnightblue" stroke="midnightblue" points="789.178,-24.1155 797.334,-17.3536 786.741,-17.5532 789.178,-24.1155"/>
</g>
<!-- Node10&#45;&gt;Node5 -->
<g id="edge13" class="edge"><title>Node10&#45;&gt;Node5</title>
<path fill="none" stroke="midnightblue" d="M525.486,-184.713C461.461,-179.373 338.374,-167.111 225.225,-142.89"/>
<polygon fill="midnightblue" stroke="midnightblue" points="225.875,-139.449 215.359,-140.742 224.385,-146.289 225.875,-139.449"/>
</g>
<!-- Node10&#45;&gt;Node7 -->
<g id="edge17" class="edge"><title>Node10&#45;&gt;Node7</title>
<path fill="none" stroke="midnightblue" d="M612.741,-181.486C674.98,-172.176 789.921,-154.983 863.087,-144.038"/>
<polygon fill="midnightblue" stroke="midnightblue" points="863.752,-147.478 873.124,-142.537 862.716,-140.555 863.752,-147.478"/>
</g>
<!-- Node10&#45;&gt;Node9 -->
<g id="edge10" class="edge"><title>Node10&#45;&gt;Node9</title>
<path fill="none" stroke="midnightblue" d="M563.503,-179.326C554.199,-165.725 534.519,-139.259 512.196,-123 492.603,-108.729 348.507,-49.5842 284.123,-23.4783"/>
<polygon fill="midnightblue" stroke="midnightblue" points="285.088,-20.093 274.505,-19.584 282.461,-26.5813 285.088,-20.093"/>
</g>
<!-- Node11 -->
<g id="node11" class="node"><title>Node11</title>
<polygon fill="white" stroke="#bfbfbf" points="446.196,-62 446.196,-81 492.196,-81 492.196,-62 446.196,-62"/>
<text text-anchor="middle" x="469.196" y="-69" font-family="Helvetica,sans-Serif" font-size="10.00">vector</text>
</g>
<!-- Node10&#45;&gt;Node11 -->
<g id="edge14" class="edge"><title>Node10&#45;&gt;Node11</title>
<path fill="none" stroke="midnightblue" d="M567.743,-179.151C565.176,-165.782 558.774,-140.174 545.196,-123 532.547,-107.002 513.401,-94.3239 497.491,-85.6718"/>
<polygon fill="midnightblue" stroke="midnightblue" points="499.06,-82.5427 488.571,-81.0482 495.838,-88.7574 499.06,-82.5427"/>
</g>
<!-- Node12 -->
<g id="node12" class="node"><title>Node12</title>
<polygon fill="white" stroke="#bfbfbf" points="233.696,-123.5 233.696,-142.5 302.696,-142.5 302.696,-123.5 233.696,-123.5"/>
<text text-anchor="middle" x="268.196" y="-130.5" font-family="Helvetica,sans-Serif" font-size="10.00">portaudio.h</text>
</g>
<!-- Node10&#45;&gt;Node12 -->
<g id="edge15" class="edge"><title>Node10&#45;&gt;Node12</title>
<path fill="none" stroke="midnightblue" d="M525.473,-180.733C476.277,-172.471 393.727,-158.347 312.643,-143.04"/>
<polygon fill="midnightblue" stroke="midnightblue" points="313.241,-139.591 302.765,-141.168 311.938,-146.469 313.241,-139.591"/>
</g>
<!-- Node13 -->
<g id="node13" class="node"><title>Node13</title>
<polygon fill="white" stroke="#bfbfbf" points="321.196,-123.5 321.196,-142.5 503.196,-142.5 503.196,-123.5 321.196,-123.5"/>
<text text-anchor="middle" x="412.196" y="-130.5" font-family="Helvetica,sans-Serif" font-size="10.00">portaudiocpp/CallbackInterface.hxx</text>
</g>
<!-- Node10&#45;&gt;Node13 -->
<g id="edge16" class="edge"><title>Node10&#45;&gt;Node13</title>
<path fill="none" stroke="midnightblue" d="M544.319,-179.444C517.906,-170.359 475.981,-155.939 446.454,-145.783"/>
<polygon fill="midnightblue" stroke="midnightblue" points="447.551,-142.459 436.956,-142.516 445.274,-149.079 447.551,-142.459"/>
</g>
<!-- Node10&#45;&gt;Node14 -->
<g id="edge18" class="edge"><title>Node10&#45;&gt;Node14</title>
<path fill="none" stroke="midnightblue" d="M581.728,-179.324C593.782,-170.979 612.223,-158.212 626.464,-148.352"/>
<polygon fill="midnightblue" stroke="midnightblue" points="628.465,-151.224 634.695,-142.655 624.481,-145.469 628.465,-151.224"/>
</g>
<!-- Node20 -->
<g id="node20" class="node"><title>Node20</title>
<g id="a_node20"><a xlink:href="ringbuffer_8hpp.html" target="_top" xlink:title="The RingBuffer class template. ">
<polygon fill="white" stroke="black" points="763.696,-123.5 763.696,-142.5 844.696,-142.5 844.696,-123.5 763.696,-123.5"/>
<text text-anchor="middle" x="804.196" y="-130.5" font-family="Helvetica,sans-Serif" font-size="10.00">ringbuffer.hpp</text>
</a>
</g>
</g>
<!-- Node10&#45;&gt;Node20 -->
<g id="edge28" class="edge"><title>Node10&#45;&gt;Node20</title>
<path fill="none" stroke="midnightblue" d="M606.432,-179.444C647.255,-170.063 712.839,-154.993 757.18,-144.804"/>
<polygon fill="midnightblue" stroke="midnightblue" points="758.171,-148.167 767.134,-142.516 756.604,-141.345 758.171,-148.167"/>
</g>
<!-- Node14&#45;&gt;Node4 -->
<g id="edge21" class="edge"><title>Node14&#45;&gt;Node4</title>
<path fill="none" stroke="midnightblue" d="M651.263,-123.204C658.91,-107.57 676.876,-74.8234 701.196,-56 726.797,-36.1846 762.122,-24.257 787.436,-17.7103"/>
<polygon fill="midnightblue" stroke="midnightblue" points="788.395,-21.0791 797.278,-15.3042 786.732,-14.2793 788.395,-21.0791"/>
</g>
<!-- Node14&#45;&gt;Node8 -->
<g id="edge27" class="edge"><title>Node14&#45;&gt;Node8</title>
<path fill="none" stroke="midnightblue" d="M597.007,-126.667C496.807,-116.021 271.777,-92.1118 157.16,-79.9337"/>
<polygon fill="midnightblue" stroke="midnightblue" points="157.405,-76.4401 147.091,-78.8639 156.665,-83.4009 157.405,-76.4401"/>
</g>
<!-- Node14&#45;&gt;Node9 -->
<g id="edge20" class="edge"><title>Node14&#45;&gt;Node9</title>
<path fill="none" stroke="midnightblue" d="M620.874,-123.452C598.357,-115.582 565.51,-102.757 539.196,-87 520.496,-75.8025 520.99,-65.1236 501.196,-56 429.74,-23.0646 336.317,-14.1953 287.035,-11.8333"/>
<polygon fill="midnightblue" stroke="midnightblue" points="287.064,-8.33155 276.926,-11.4116 286.772,-15.3255 287.064,-8.33155"/>
</g>
<!-- Node14&#45;&gt;Node11 -->
<g id="edge22" class="edge"><title>Node14&#45;&gt;Node11</title>
<path fill="none" stroke="midnightblue" d="M618.659,-123.484C590.047,-114.808 544.817,-100.715 506.196,-87 504.083,-86.2497 501.91,-85.4562 499.727,-84.6425"/>
<polygon fill="midnightblue" stroke="midnightblue" points="500.83,-81.3173 490.239,-81.018 498.331,-87.8564 500.83,-81.3173"/>
</g>
<!-- Node15 -->
<g id="node15" class="node"><title>Node15</title>
<polygon fill="white" stroke="#bfbfbf" points="548.696,-62 548.696,-81 589.696,-81 589.696,-62 548.696,-62"/>
<text text-anchor="middle" x="569.196" y="-69" font-family="Helvetica,sans-Serif" font-size="10.00">array</text>
</g>
<!-- Node14&#45;&gt;Node15 -->
<g id="edge19" class="edge"><title>Node14&#45;&gt;Node15</title>
<path fill="none" stroke="midnightblue" d="M636.02,-123.475C623.625,-114.02 603.406,-98.5961 588.449,-87.1871"/>
<polygon fill="midnightblue" stroke="midnightblue" points="590.424,-84.2914 580.351,-81.0091 586.179,-89.857 590.424,-84.2914"/>
</g>
<!-- Node16 -->
<g id="node16" class="node"><title>Node16</title>
<polygon fill="white" stroke="#bfbfbf" points="607.696,-62 607.696,-81 648.696,-81 648.696,-62 607.696,-62"/>
<text text-anchor="middle" x="628.196" y="-69" font-family="Helvetica,sans-Serif" font-size="10.00">sox.h</text>
</g>
<!-- Node14&#45;&gt;Node16 -->
<g id="edge23" class="edge"><title>Node14&#45;&gt;Node16</title>
<path fill="none" stroke="midnightblue" d="M644.474,-123.475C641.765,-114.992 637.521,-101.704 634.047,-90.8222"/>
<polygon fill="midnightblue" stroke="midnightblue" points="637.289,-89.4705 630.913,-81.0091 630.621,-91.5999 637.289,-89.4705"/>
</g>
<!-- Node17 -->
<g id="node17" class="node"><title>Node17</title>
<g id="a_node17"><a xlink:href="errors_8hpp.html" target="_top" xlink:title="Declarations of the playd Error exception set. ">
<polygon fill="white" stroke="black" points="1127.7,-62 1127.7,-81 1200.7,-81 1200.7,-62 1127.7,-62"/>
<text text-anchor="middle" x="1164.2" y="-69" font-family="Helvetica,sans-Serif" font-size="10.00">../errors.hpp</text>
</a>
</g>
</g>
<!-- Node14&#45;&gt;Node17 -->
<g id="edge24" class="edge"><title>Node14&#45;&gt;Node17</title>
<path fill="none" stroke="midnightblue" d="M697.27,-126.34C772.111,-117.866 917.584,-101.345 1041.2,-87 1066.39,-84.0767 1094.47,-80.7695 1117.44,-78.0524"/>
<polygon fill="midnightblue" stroke="midnightblue" points="1118.08,-81.5007 1127.6,-76.8491 1117.26,-74.5492 1118.08,-81.5007"/>
</g>
<!-- Node18 -->
<g id="node18" class="node"><title>Node18</title>
<polygon fill="white" stroke="#bfbfbf" points="1172.7,-0.5 1172.7,-19.5 1229.7,-19.5 1229.7,-0.5 1172.7,-0.5"/>
<text text-anchor="middle" x="1201.2" y="-7.5" font-family="Helvetica,sans-Serif" font-size="10.00">iostream</text>
</g>
<!-- Node17&#45;&gt;Node18 -->
<g id="edge25" class="edge"><title>Node17&#45;&gt;Node18</title>
<path fill="none" stroke="midnightblue" d="M1169.5,-61.9751C1174.94,-53.2268 1183.55,-39.3691 1190.43,-28.3093"/>
<polygon fill="midnightblue" stroke="midnightblue" points="1193.6,-29.8494 1195.9,-19.5091 1187.65,-26.1528 1193.6,-29.8494"/>
</g>
<!-- Node19 -->
<g id="node19" class="node"><title>Node19</title>
<polygon fill="white" stroke="#bfbfbf" points="1100.2,-0.5 1100.2,-19.5 1154.2,-19.5 1154.2,-0.5 1100.2,-0.5"/>
<text text-anchor="middle" x="1127.2" y="-7.5" font-family="Helvetica,sans-Serif" font-size="10.00">sstream</text>
</g>
<!-- Node17&#45;&gt;Node19 -->
<g id="edge26" class="edge"><title>Node17&#45;&gt;Node19</title>
<path fill="none" stroke="midnightblue" d="M1158.89,-61.9751C1153.45,-53.2268 1144.84,-39.3691 1137.96,-28.3093"/>
<polygon fill="midnightblue" stroke="midnightblue" points="1140.74,-26.1528 1132.49,-19.5091 1134.8,-29.8494 1140.74,-26.1528"/>
</g>
<!-- Node20&#45;&gt;Node17 -->
<g id="edge31" class="edge"><title>Node20&#45;&gt;Node17</title>
<path fill="none" stroke="midnightblue" d="M844.845,-124.625C848.008,-124.069 851.153,-123.522 854.196,-123 947.424,-107.017 1056.64,-89.5076 1117.38,-79.8788"/>
<polygon fill="midnightblue" stroke="midnightblue" points="1118.09,-83.3097 1127.42,-78.2886 1116.99,-76.3959 1118.09,-83.3097"/>
</g>
<!-- Node21 -->
<g id="node21" class="node"><title>Node21</title>
<polygon fill="white" stroke="#bfbfbf" points="981.696,-62 981.696,-81 1032.7,-81 1032.7,-62 981.696,-62"/>
<text text-anchor="middle" x="1007.2" y="-69" font-family="Helvetica,sans-Serif" font-size="10.00">cassert</text>
</g>
<!-- Node20&#45;&gt;Node21 -->
<g id="edge29" class="edge"><title>Node20&#45;&gt;Node21</title>
<path fill="none" stroke="midnightblue" d="M841.649,-123.459C875.975,-115.281 928.02,-101.995 972.196,-87 974.111,-86.3499 976.071,-85.6468 978.038,-84.9128"/>
<polygon fill="midnightblue" stroke="midnightblue" points="979.726,-88.0096 987.746,-81.0874 977.159,-81.4969 979.726,-88.0096"/>
</g>
<!-- Node22 -->
<g id="node22" class="node"><title>Node22</title>
<polygon fill="white" stroke="#bfbfbf" points="743.696,-56.5 743.696,-86.5 864.696,-86.5 864.696,-56.5 743.696,-56.5"/>
<text text-anchor="start" x="751.696" y="-74.5" font-family="Helvetica,sans-Serif" font-size="10.00">../contrib/pa_ringbuffer</text>
<text text-anchor="middle" x="804.196" y="-63.5" font-family="Helvetica,sans-Serif" font-size="10.00">/pa_ringbuffer.h</text>
</g>
<!-- Node20&#45;&gt;Node22 -->
<g id="edge30" class="edge"><title>Node20&#45;&gt;Node22</title>
<path fill="none" stroke="midnightblue" d="M804.196,-123.475C804.196,-116.471 804.196,-106.192 804.196,-96.6956"/>
<polygon fill="midnightblue" stroke="midnightblue" points="807.696,-96.5229 804.196,-86.523 800.696,-96.523 807.696,-96.5229"/>
</g>
<!-- Node23 -->
<g id="node23" class="node"><title>Node23</title>
<g id="a_node23"><a xlink:href="messages_8h.html" target="_top" xlink:title="Constant human&#45;readable messages used within playd. ">
<polygon fill="white" stroke="black" points="883.196,-62 883.196,-81 963.196,-81 963.196,-62 883.196,-62"/>
<text text-anchor="middle" x="923.196" y="-69" font-family="Helvetica,sans-Serif" font-size="10.00">../messages.h</text>
</a>
</g>
</g>
<!-- Node20&#45;&gt;Node23 -->
<g id="edge32" class="edge"><title>Node20&#45;&gt;Node23</title>
<path fill="none" stroke="midnightblue" d="M821.246,-123.475C841.04,-113.578 873.912,-97.1416 896.966,-85.6151"/>
<polygon fill="midnightblue" stroke="midnightblue" points="898.799,-88.6118 906.178,-81.0091 895.668,-82.3508 898.799,-88.6118"/>
</g>
<!-- Node23&#45;&gt;Node4 -->
<g id="edge33" class="edge"><title>Node23&#45;&gt;Node4</title>
<path fill="none" stroke="midnightblue" d="M908.295,-61.9751C891.228,-52.2106 863.034,-36.0807 842.934,-24.5808"/>
<polygon fill="midnightblue" stroke="midnightblue" points="844.487,-21.4371 834.069,-19.5091 841.011,-27.513 844.487,-21.4371"/>
</g>
<!-- Node24&#45;&gt;Node2 -->
<g id="edge37" class="edge"><title>Node24&#45;&gt;Node2</title>
<path fill="none" stroke="midnightblue" d="M172.854,-179.444C149.443,-170.478 112.46,-156.314 86.0061,-146.183"/>
<polygon fill="midnightblue" stroke="midnightblue" points="87.0235,-142.824 76.4331,-142.516 84.5199,-149.361 87.0235,-142.824"/>
</g>
<!-- Node24&#45;&gt;Node4 -->
<g id="edge38" class="edge"><title>Node24&#45;&gt;Node4</title>
<path fill="none" stroke="midnightblue" d="M184.041,-179.499C168.439,-166.583 143.566,-141.559 158.196,-123 237.233,-22.7358 666.221,-12.0657 787.338,-11.0647"/>
<polygon fill="midnightblue" stroke="midnightblue" points="787.469,-14.5641 797.445,-10.9983 787.423,-7.56422 787.469,-14.5641"/>
</g>
<!-- Node24&#45;&gt;Node5 -->
<g id="edge39" class="edge"><title>Node24&#45;&gt;Node5</title>
<path fill="none" stroke="midnightblue" d="M195.196,-179.083C195.196,-172.006 195.196,-161.861 195.196,-152.986"/>
<polygon fill="midnightblue" stroke="midnightblue" points="198.696,-152.751 195.196,-142.751 191.696,-152.751 198.696,-152.751"/>
</g>
<!-- Node24&#45;&gt;Node9 -->
<g id="edge36" class="edge"><title>Node24&#45;&gt;Node9</title>
<path fill="none" stroke="midnightblue" d="M164.194,-184.65C118.348,-178.985 35.9556,-165.84 18.1957,-143 -5.53943,-112.475 -6.44083,-85.8018 18.1957,-56 43.2991,-25.6336 160.23,-15.5616 219.119,-12.3813"/>
<polygon fill="midnightblue" stroke="midnightblue" points="219.592,-15.862 229.404,-11.8643 219.241,-8.87083 219.592,-15.862"/>
</g>
<!-- Node24&#45;&gt;Node11 -->
<g id="edge40" class="edge"><title>Node24&#45;&gt;Node11</title>
<path fill="none" stroke="midnightblue" d="M185.683,-179.148C172.449,-165.774 151.659,-140.16 166.196,-123 200.459,-82.5535 364.223,-74.4714 435.701,-72.8791"/>
<polygon fill="midnightblue" stroke="midnightblue" points="436.018,-76.3737 445.949,-72.6816 435.883,-69.375 436.018,-76.3737"/>
</g>
<!-- Node24&#45;&gt;Node12 -->
<g id="edge41" class="edge"><title>Node24&#45;&gt;Node12</title>
<path fill="none" stroke="midnightblue" d="M206.924,-179.324C218.033,-171.107 234.938,-158.602 248.179,-148.807"/>
<polygon fill="midnightblue" stroke="midnightblue" points="250.296,-151.595 256.254,-142.834 246.133,-145.967 250.296,-151.595"/>
</g>
<!-- Node24&#45;&gt;Node13 -->
<g id="edge42" class="edge"><title>Node24&#45;&gt;Node13</title>
<path fill="none" stroke="midnightblue" d="M226.287,-180.263C263.5,-171.003 326.064,-155.434 368.219,-144.944"/>
<polygon fill="midnightblue" stroke="midnightblue" points="369.082,-148.336 377.941,-142.524 367.391,-141.543 369.082,-148.336"/>
</g>
<!-- Node24&#45;&gt;Node14 -->
<g id="edge43" class="edge"><title>Node24&#45;&gt;Node14</title>
<path fill="none" stroke="midnightblue" d="M226.264,-184.288C300.524,-175.416 489.375,-152.855 586.887,-141.205"/>
<polygon fill="midnightblue" stroke="midnightblue" points="587.374,-144.672 596.888,-140.01 586.543,-137.721 587.374,-144.672"/>
</g>
<!-- Node25&#45;&gt;Node4 -->
<g id="edge47" class="edge"><title>Node25&#45;&gt;Node4</title>
<path fill="none" stroke="midnightblue" d="M1178.02,-123.4C1162.71,-114.603 1138.48,-100.366 1118.2,-87 1098.52,-74.0389 1096.9,-65.1598 1075.2,-56 999.084,-23.8816 900.916,-14.6874 851.158,-12.0555"/>
<polygon fill="midnightblue" stroke="midnightblue" points="851.169,-8.55221 841.015,-11.5757 850.838,-15.5444 851.169,-8.55221"/>
</g>
<!-- Node25&#45;&gt;Node17 -->
<g id="edge48" class="edge"><title>Node25&#45;&gt;Node17</title>
<path fill="none" stroke="midnightblue" d="M1189.04,-123.475C1184.82,-114.815 1178.16,-101.149 1172.8,-90.1453"/>
<polygon fill="midnightblue" stroke="midnightblue" points="1175.87,-88.4648 1168.34,-81.0091 1169.58,-91.5317 1175.87,-88.4648"/>
</g>
<!-- Node26 -->
<g id="node26" class="node"><title>Node26</title>
<polygon fill="white" stroke="#bfbfbf" points="1218.7,-62 1218.7,-81 1255.7,-81 1255.7,-62 1218.7,-62"/>
<text text-anchor="middle" x="1237.2" y="-69" font-family="Helvetica,sans-Serif" font-size="10.00">map</text>
</g>
<!-- Node25&#45;&gt;Node26 -->
<g id="edge45" class="edge"><title>Node25&#45;&gt;Node26</title>
<path fill="none" stroke="midnightblue" d="M1199.5,-123.475C1206.1,-114.55 1216.63,-100.307 1224.89,-89.1425"/>
<polygon fill="midnightblue" stroke="midnightblue" points="1227.77,-91.1305 1230.9,-81.0091 1222.14,-86.9684 1227.77,-91.1305"/>
</g>
<!-- Node27 -->
<g id="node27" class="node"><title>Node27</title>
<polygon fill="white" stroke="#bfbfbf" points="1273.7,-62 1273.7,-81 1328.7,-81 1328.7,-62 1273.7,-62"/>
<text text-anchor="middle" x="1301.2" y="-69" font-family="Helvetica,sans-Serif" font-size="10.00">ostream</text>
</g>
<!-- Node25&#45;&gt;Node27 -->
<g id="edge46" class="edge"><title>Node25&#45;&gt;Node27</title>
<path fill="none" stroke="midnightblue" d="M1208.67,-123.475C1226.47,-113.666 1255.94,-97.4346 1276.83,-85.925"/>
<polygon fill="midnightblue" stroke="midnightblue" points="1278.68,-88.9001 1285.75,-81.0091 1275.3,-82.769 1278.68,-88.9001"/>
</g>
<!-- Node28&#45;&gt;Node14 -->
<g id="edge51" class="edge"><title>Node28&#45;&gt;Node14</title>
<path fill="none" stroke="midnightblue" d="M1055.27,-181.593C967.964,-171.411 798.183,-151.61 707.579,-141.043"/>
<polygon fill="midnightblue" stroke="midnightblue" points="707.804,-137.545 697.466,-139.863 706.993,-144.498 707.804,-137.545"/>
</g>
<!-- Node28&#45;&gt;Node25 -->
<g id="edge52" class="edge"><title>Node28&#45;&gt;Node25</title>
<path fill="none" stroke="midnightblue" d="M1123.53,-179.324C1136.36,-170.979 1155.98,-158.212 1171.14,-148.352"/>
<polygon fill="midnightblue" stroke="midnightblue" points="1173.42,-151.042 1179.89,-142.655 1169.6,-145.174 1173.42,-151.042"/>
</g>
<!-- Node29 -->
<g id="node29" class="node"><title>Node29</title>
<polygon fill="white" stroke="#bfbfbf" points="1086.7,-123.5 1086.7,-142.5 1117.7,-142.5 1117.7,-123.5 1086.7,-123.5"/>
<text text-anchor="middle" x="1102.2" y="-130.5" font-family="Helvetica,sans-Serif" font-size="10.00">set</text>
</g>
<!-- Node28&#45;&gt;Node29 -->
<g id="edge50" class="edge"><title>Node28&#45;&gt;Node29</title>
<path fill="none" stroke="midnightblue" d="M1108.87,-179.083C1107.81,-171.927 1106.29,-161.635 1104.96,-152.691"/>
<polygon fill="midnightblue" stroke="midnightblue" points="1108.42,-152.13 1103.49,-142.751 1101.5,-153.156 1108.42,-152.13"/>
</g>
</g>
</svg>
