<?xml version="1.0" encoding="UTF-8" standalone="no"?>
<!DOCTYPE svg PUBLIC "-//W3C//DTD SVG 1.1//EN"
 "http://www.w3.org/Graphics/SVG/1.1/DTD/svg11.dtd">
<!-- Generated by graphviz version 2.38.0 (20140413.2041)
 -->
<!-- Title: src/player/player_state.cpp Pages: 1 -->
<!--zoomable 431 -->
<svg id="main" version="1.1" xmlns="http://www.w3.org/2000/svg" xmlns:xlink="http://www.w3.org/1999/xlink" xml:space="preserve" onload="init(evt)">
<style type="text/css"><![CDATA[
.edge:hover path { stroke: red; }
.edge:hover polygon { stroke: red; fill: red; }
]]></style>
<script type="text/javascript"><![CDATA[
var edges = document.getElementsByTagName('g');
if (edges && edges.length) {
  for (var i=0;i<edges.length;i++) {
    if (edges[i].id.substr(0,4)=='edge') {
      edges[i].setAttribute('class','edge');
    }
  }
}
]]></script>
        <defs>
                <circle id="rim" cx="0" cy="0" r="7"/>
                <circle id="rim2" cx="0" cy="0" r="3.5"/>
                <g id="zoomPlus">
                        <use xlink:href="#rim" fill="#404040">
                                <set attributeName="fill" to="#808080" begin="zoomplus.mouseover" end="zoomplus.mouseout"/>
                        </use>
                        <path d="M-4,0h8M0,-4v8" fill="none" stroke="white" stroke-width="1.5" pointer-events="none"/>
                </g>
                <g id="zoomMin">
                        <use xlink:href="#rim" fill="#404040">
                                <set attributeName="fill" to="#808080" begin="zoomminus.mouseover" end="zoomminus.mouseout"/>
                        </use>
                        <path d="M-4,0h8" fill="none" stroke="white" stroke-width="1.5" pointer-events="none"/>
                </g>
                <g id="dirArrow">
                        <path fill="none" stroke="white" stroke-width="1.5" d="M0,-3.0v7 M-2.5,-0.5L0,-3.0L2.5,-0.5"/>
                </g>
               <g id="resetDef">
                       <use xlink:href="#rim2" fill="#404040">
                               <set attributeName="fill" to="#808080" begin="reset.mouseover" end="reset.mouseout"/>
                       </use>
               </g>
        </defs>

<script type="text/javascript">
var viewWidth = 1511;
var viewHeight = 431;
var sectionId = 'dynsection-0';
</script>
<script xlink:href="svgpan.js"/>
<svg id="graph" class="graph">
<g id="viewport">
<title>src/player/player_state.cpp</title>
<polygon fill="white" stroke="none" points="-4,4 -4,-427 1506.5,-427 1506.5,4 -4,4"/>
<!-- Node1 -->
<g id="node1" class="node"><title>Node1</title>
<polygon fill="#bfbfbf" stroke="black" points="1118,-403.5 1118,-422.5 1262,-422.5 1262,-403.5 1118,-403.5"/>
<text text-anchor="middle" x="1190" y="-410.5" font-family="Helvetica,sans-Serif" font-size="10.00">src/player/player_state.cpp</text>
</g>
<!-- Node2 -->
<g id="node2" class="node"><title>Node2</title>
<polygon fill="white" stroke="#bfbfbf" points="1041,-347.5 1041,-366.5 1101,-366.5 1101,-347.5 1041,-347.5"/>
<text text-anchor="middle" x="1071" y="-354.5" font-family="Helvetica,sans-Serif" font-size="10.00">algorithm</text>
</g>
<!-- Node1&#45;&gt;Node2 -->
<g id="edge1" class="edge"><title>Node1&#45;&gt;Node2</title>
<path fill="none" stroke="midnightblue" d="M1171.14,-403.444C1151.73,-394.636 1121.27,-380.812 1099.04,-370.722"/>
<polygon fill="midnightblue" stroke="midnightblue" points="1100.32,-367.462 1089.77,-366.516 1097.43,-373.836 1100.32,-367.462"/>
</g>
<!-- Node3 -->
<g id="node3" class="node"><title>Node3</title>
<g id="a_node3"><a xlink:href="io__response_8hpp.html" target="_top" xlink:title="Declaration of classes pertaining to responses to the client. ">
<polygon fill="white" stroke="black" points="1170,-179.5 1170,-198.5 1284,-198.5 1284,-179.5 1170,-179.5"/>
<text text-anchor="middle" x="1227" y="-186.5" font-family="Helvetica,sans-Serif" font-size="10.00">../io/io_response.hpp</text>
</a>
</g>
</g>
<!-- Node1&#45;&gt;Node3 -->
<g id="edge2" class="edge"><title>Node1&#45;&gt;Node3</title>
<path fill="none" stroke="midnightblue" d="M1206.26,-403.27C1233.38,-387.961 1287.98,-353.795 1320,-311 1336.02,-289.588 1337.02,-281.274 1342,-255 1343.65,-246.266 1347.01,-242.342 1342,-235 1330.78,-218.563 1312.58,-208.13 1293.93,-201.508"/>
<polygon fill="midnightblue" stroke="midnightblue" points="1294.77,-198.1 1284.18,-198.38 1292.63,-204.766 1294.77,-198.1"/>
</g>
<!-- Node10 -->
<g id="node10" class="node"><title>Node10</title>
<g id="a_node10"><a xlink:href="player__state_8hpp.html" target="_top" xlink:title="Declaration of the PlayerState class, and associated types. ">
<polygon fill="white" stroke="black" points="1199.5,-291.5 1199.5,-310.5 1294.5,-310.5 1294.5,-291.5 1199.5,-291.5"/>
<text text-anchor="middle" x="1247" y="-298.5" font-family="Helvetica,sans-Serif" font-size="10.00">player_state.hpp</text>
</a>
</g>
</g>
<!-- Node1&#45;&gt;Node10 -->
<g id="edge9" class="edge"><title>Node1&#45;&gt;Node10</title>
<path fill="none" stroke="midnightblue" d="M1194.47,-403.368C1203.8,-385.376 1225.47,-343.55 1237.87,-319.627"/>
<polygon fill="midnightblue" stroke="midnightblue" points="1241.05,-321.081 1242.55,-310.591 1234.84,-317.86 1241.05,-321.081"/>
</g>
<!-- Node13 -->
<g id="node13" class="node"><title>Node13</title>
<g id="a_node13"><a xlink:href="player_8hpp.html" target="_top" xlink:title="Declaration of the Player class, and associated types. ">
<polygon fill="white" stroke="black" points="1119,-347.5 1119,-366.5 1185,-366.5 1185,-347.5 1119,-347.5"/>
<text text-anchor="middle" x="1152" y="-354.5" font-family="Helvetica,sans-Serif" font-size="10.00">player.hpp</text>
</a>
</g>
</g>
<!-- Node1&#45;&gt;Node13 -->
<g id="edge13" class="edge"><title>Node1&#45;&gt;Node13</title>
<path fill="none" stroke="midnightblue" d="M1183.73,-403.083C1178.36,-395.455 1170.48,-384.264 1163.92,-374.941"/>
<polygon fill="midnightblue" stroke="midnightblue" points="1166.78,-372.915 1158.16,-366.751 1161.05,-376.943 1166.78,-372.915"/>
</g>
<!-- Node4 -->
<g id="node4" class="node"><title>Node4</title>
<polygon fill="white" stroke="#bfbfbf" points="1346.5,-123.5 1346.5,-142.5 1383.5,-142.5 1383.5,-123.5 1346.5,-123.5"/>
<text text-anchor="middle" x="1365" y="-130.5" font-family="Helvetica,sans-Serif" font-size="10.00">map</text>
</g>
<!-- Node3&#45;&gt;Node4 -->
<g id="edge3" class="edge"><title>Node3&#45;&gt;Node4</title>
<path fill="none" stroke="midnightblue" d="M1248.87,-179.444C1272.72,-170.108 1310.98,-155.139 1337.01,-144.952"/>
<polygon fill="midnightblue" stroke="midnightblue" points="1338.3,-148.208 1346.33,-141.304 1335.75,-141.689 1338.3,-148.208"/>
</g>
<!-- Node5 -->
<g id="node5" class="node"><title>Node5</title>
<polygon fill="white" stroke="#bfbfbf" points="1196.5,-123.5 1196.5,-142.5 1251.5,-142.5 1251.5,-123.5 1196.5,-123.5"/>
<text text-anchor="middle" x="1224" y="-130.5" font-family="Helvetica,sans-Serif" font-size="10.00">ostream</text>
</g>
<!-- Node3&#45;&gt;Node5 -->
<g id="edge4" class="edge"><title>Node3&#45;&gt;Node5</title>
<path fill="none" stroke="midnightblue" d="M1226.5,-179.083C1226.11,-172.006 1225.55,-161.861 1225.05,-152.986"/>
<polygon fill="midnightblue" stroke="midnightblue" points="1228.54,-152.542 1224.49,-142.751 1221.55,-152.93 1228.54,-152.542"/>
</g>
<!-- Node6 -->
<g id="node6" class="node"><title>Node6</title>
<polygon fill="white" stroke="#bfbfbf" points="1108.5,-0.5 1108.5,-19.5 1151.5,-19.5 1151.5,-0.5 1108.5,-0.5"/>
<text text-anchor="middle" x="1130" y="-7.5" font-family="Helvetica,sans-Serif" font-size="10.00">string</text>
</g>
<!-- Node3&#45;&gt;Node6 -->
<g id="edge5" class="edge"><title>Node3&#45;&gt;Node6</title>
<path fill="none" stroke="midnightblue" d="M1235.08,-179.481C1255.16,-157.244 1303.68,-96.3744 1274,-56 1248.38,-21.1531 1195.9,-12.538 1161.87,-10.8126"/>
<polygon fill="midnightblue" stroke="midnightblue" points="1161.63,-7.30301 1151.52,-10.4699 1161.4,-14.2992 1161.63,-7.30301"/>
</g>
<!-- Node7 -->
<g id="node7" class="node"><title>Node7</title>
<g id="a_node7"><a xlink:href="errors_8hpp.html" target="_top" xlink:title="Declarations of the playd Error exception set. ">
<polygon fill="white" stroke="black" points="1326.5,-62 1326.5,-81 1399.5,-81 1399.5,-62 1326.5,-62"/>
<text text-anchor="middle" x="1363" y="-69" font-family="Helvetica,sans-Serif" font-size="10.00">../errors.hpp</text>
</a>
</g>
</g>
<!-- Node3&#45;&gt;Node7 -->
<g id="edge6" class="edge"><title>Node3&#45;&gt;Node7</title>
<path fill="none" stroke="midnightblue" d="M1241.46,-179.489C1255.45,-170.98 1276.98,-157.157 1294,-143 1314.25,-126.155 1335.08,-104.102 1348.48,-89.1798"/>
<polygon fill="midnightblue" stroke="midnightblue" points="1351.43,-91.1176 1355.45,-81.3112 1346.19,-86.476 1351.43,-91.1176"/>
</g>
<!-- Node8 -->
<g id="node8" class="node"><title>Node8</title>
<polygon fill="white" stroke="#bfbfbf" points="1334.5,-0.5 1334.5,-19.5 1391.5,-19.5 1391.5,-0.5 1334.5,-0.5"/>
<text text-anchor="middle" x="1363" y="-7.5" font-family="Helvetica,sans-Serif" font-size="10.00">iostream</text>
</g>
<!-- Node7&#45;&gt;Node8 -->
<g id="edge7" class="edge"><title>Node7&#45;&gt;Node8</title>
<path fill="none" stroke="midnightblue" d="M1363,-61.9751C1363,-53.5803 1363,-40.4806 1363,-29.6631"/>
<polygon fill="midnightblue" stroke="midnightblue" points="1366.5,-29.5091 1363,-19.5091 1359.5,-29.5091 1366.5,-29.5091"/>
</g>
<!-- Node9 -->
<g id="node9" class="node"><title>Node9</title>
<polygon fill="white" stroke="#bfbfbf" points="1424,-0.5 1424,-19.5 1478,-19.5 1478,-0.5 1424,-0.5"/>
<text text-anchor="middle" x="1451" y="-7.5" font-family="Helvetica,sans-Serif" font-size="10.00">sstream</text>
</g>
<!-- Node7&#45;&gt;Node9 -->
<g id="edge8" class="edge"><title>Node7&#45;&gt;Node9</title>
<path fill="none" stroke="midnightblue" d="M1375.61,-61.9751C1389.72,-52.4315 1412.83,-36.8073 1429.75,-25.3683"/>
<polygon fill="midnightblue" stroke="midnightblue" points="1432.09,-28.0098 1438.42,-19.5091 1428.17,-22.2109 1432.09,-28.0098"/>
</g>
<!-- Node10&#45;&gt;Node3 -->
<g id="edge12" class="edge"><title>Node10&#45;&gt;Node3</title>
<path fill="none" stroke="midnightblue" d="M1245.43,-291.368C1242.2,-273.617 1234.76,-232.666 1230.38,-208.597"/>
<polygon fill="midnightblue" stroke="midnightblue" points="1233.79,-207.804 1228.56,-198.591 1226.91,-209.056 1233.79,-207.804"/>
</g>
<!-- Node11 -->
<g id="node11" class="node"><title>Node11</title>
<polygon fill="white" stroke="#bfbfbf" points="524.5,-0.5 524.5,-19.5 571.5,-19.5 571.5,-0.5 524.5,-0.5"/>
<text text-anchor="middle" x="548" y="-7.5" font-family="Helvetica,sans-Serif" font-size="10.00">cstdint</text>
</g>
<!-- Node10&#45;&gt;Node11 -->
<g id="edge10" class="edge"><title>Node10&#45;&gt;Node11</title>
<path fill="none" stroke="midnightblue" d="M1235.06,-291.431C1205.87,-270.677 1128.21,-216.657 1059,-179 942.458,-115.593 913.536,-95.8914 787,-56 715.645,-33.5048 628.564,-20.591 581.714,-14.7722"/>
<polygon fill="midnightblue" stroke="midnightblue" points="581.872,-11.266 571.524,-13.5405 581.032,-18.2154 581.872,-11.266"/>
</g>
<!-- Node12 -->
<g id="node12" class="node"><title>Node12</title>
<polygon fill="white" stroke="#bfbfbf" points="1255.5,-235.5 1255.5,-254.5 1332.5,-254.5 1332.5,-235.5 1255.5,-235.5"/>
<text text-anchor="middle" x="1294" y="-242.5" font-family="Helvetica,sans-Serif" font-size="10.00">initializer_list</text>
</g>
<!-- Node10&#45;&gt;Node12 -->
<g id="edge11" class="edge"><title>Node10&#45;&gt;Node12</title>
<path fill="none" stroke="midnightblue" d="M1254.76,-291.083C1261.54,-283.298 1271.54,-271.801 1279.76,-262.367"/>
<polygon fill="midnightblue" stroke="midnightblue" points="1282.46,-264.592 1286.38,-254.751 1277.18,-259.996 1282.46,-264.592"/>
</g>
<!-- Node13&#45;&gt;Node3 -->
<g id="edge37" class="edge"><title>Node13&#45;&gt;Node3</title>
<path fill="none" stroke="midnightblue" d="M1156.03,-347.075C1167.89,-320.832 1202.81,-243.545 1218.81,-208.117"/>
<polygon fill="midnightblue" stroke="midnightblue" points="1222.2,-209.122 1223.13,-198.568 1215.82,-206.24 1222.2,-209.122"/>
</g>
<!-- Node13&#45;&gt;Node4 -->
<g id="edge16" class="edge"><title>Node13&#45;&gt;Node4</title>
<path fill="none" stroke="midnightblue" d="M1185.16,-355.646C1222.36,-353.507 1282.39,-344.593 1320,-311 1365.87,-270.021 1368.06,-189.5 1366.43,-152.904"/>
<polygon fill="midnightblue" stroke="midnightblue" points="1369.91,-152.444 1365.82,-142.671 1362.92,-152.863 1369.91,-152.444"/>
</g>
<!-- Node13&#45;&gt;Node6 -->
<g id="edge18" class="edge"><title>Node13&#45;&gt;Node6</title>
<path fill="none" stroke="midnightblue" d="M1151.25,-347.346C1149.24,-321.357 1144.94,-241.904 1161,-179 1167.84,-152.228 1169.95,-143.923 1188,-123 1206.6,-101.437 1227.67,-112.164 1241,-87 1247.45,-74.8245 1248.7,-67.4269 1241,-56 1223.44,-29.9288 1187.91,-18.9566 1161.76,-14.3423"/>
<polygon fill="midnightblue" stroke="midnightblue" points="1161.97,-10.8338 1151.56,-12.7742 1160.91,-17.7526 1161.97,-10.8338"/>
</g>
<!-- Node13&#45;&gt;Node10 -->
<g id="edge75" class="edge"><title>Node13&#45;&gt;Node10</title>
<path fill="none" stroke="midnightblue" d="M1167.26,-347.324C1182.22,-338.822 1205.25,-325.729 1222.73,-315.797"/>
<polygon fill="midnightblue" stroke="midnightblue" points="1224.81,-318.639 1231.77,-310.655 1221.35,-312.553 1224.81,-318.639"/>
</g>
<!-- Node13&#45;&gt;Node11 -->
<g id="edge14" class="edge"><title>Node13&#45;&gt;Node11</title>
<path fill="none" stroke="midnightblue" d="M1118.61,-348.353C1115.71,-347.838 1112.81,-347.376 1110,-347 820.583,-308.291 744.578,-339.719 454,-311 352.576,-300.976 0,-347.918 0,-246 0,-246 0,-246 0,-132 0,-91.8103 14.6126,-76.8018 49,-56 88.6648,-32.0057 408.295,-16.7682 514.115,-12.342"/>
<polygon fill="midnightblue" stroke="midnightblue" points="514.394,-15.8335 524.241,-11.9243 514.105,-8.83949 514.394,-15.8335"/>
</g>
<!-- Node13&#45;&gt;Node12 -->
<g id="edge15" class="edge"><title>Node13&#45;&gt;Node12</title>
<path fill="none" stroke="midnightblue" d="M1185.01,-356.797C1220.87,-355.658 1276.66,-347.603 1304,-311 1314.12,-297.456 1309.19,-277.835 1303.23,-263.698"/>
<polygon fill="midnightblue" stroke="midnightblue" points="1306.34,-262.091 1298.91,-254.538 1300.01,-265.076 1306.34,-262.091"/>
</g>
<!-- Node14 -->
<g id="node14" class="node"><title>Node14</title>
<polygon fill="white" stroke="#bfbfbf" points="66,-123.5 66,-142.5 120,-142.5 120,-123.5 66,-123.5"/>
<text text-anchor="middle" x="93" y="-130.5" font-family="Helvetica,sans-Serif" font-size="10.00">memory</text>
</g>
<!-- Node13&#45;&gt;Node14 -->
<g id="edge17" class="edge"><title>Node13&#45;&gt;Node14</title>
<path fill="none" stroke="midnightblue" d="M1118.6,-348.42C1115.7,-347.89 1112.8,-347.406 1110,-347 757.546,-295.946 654.23,-360.233 314,-255 234.255,-230.335 150.598,-175.207 113.171,-148.737"/>
<polygon fill="midnightblue" stroke="midnightblue" points="114.852,-145.636 104.683,-142.661 110.777,-151.328 114.852,-145.636"/>
</g>
<!-- Node15 -->
<g id="node15" class="node"><title>Node15</title>
<polygon fill="white" stroke="#bfbfbf" points="138,-123.5 138,-142.5 178,-142.5 178,-123.5 138,-123.5"/>
<text text-anchor="middle" x="158" y="-130.5" font-family="Helvetica,sans-Serif" font-size="10.00">utility</text>
</g>
<!-- Node13&#45;&gt;Node15 -->
<g id="edge19" class="edge"><title>Node13&#45;&gt;Node15</title>
<path fill="none" stroke="midnightblue" d="M1118.59,-348.495C1115.69,-347.949 1112.8,-347.441 1110,-347 953.781,-322.395 912.325,-334.92 756,-311 633.565,-292.266 604.22,-280.437 483,-255 366.889,-230.635 325.988,-256.113 222,-199 200.619,-187.257 181.798,-166.114 170.196,-151.133"/>
<polygon fill="midnightblue" stroke="midnightblue" points="172.727,-148.672 163.947,-142.741 167.113,-152.852 172.727,-148.672"/>
</g>
<!-- Node16 -->
<g id="node16" class="node"><title>Node16</title>
<g id="a_node16"><a xlink:href="audio_8hpp.html" target="_top" xlink:title="Declaration of the Audio class. ">
<polygon fill="white" stroke="black" points="275,-179.5 275,-198.5 373,-198.5 373,-179.5 275,-179.5"/>
<text text-anchor="middle" x="324" y="-186.5" font-family="Helvetica,sans-Serif" font-size="10.00">../audio/audio.hpp</text>
</a>
</g>
</g>
<!-- Node13&#45;&gt;Node16 -->
<g id="edge20" class="edge"><title>Node13&#45;&gt;Node16</title>
<path fill="none" stroke="midnightblue" d="M1118.56,-348.698C1115.67,-348.108 1112.78,-347.534 1110,-347 870.045,-300.947 806.748,-306.947 568,-255 494.615,-239.033 410.179,-215.327 362.346,-201.391"/>
<polygon fill="midnightblue" stroke="midnightblue" points="363.292,-198.021 352.712,-198.572 361.326,-204.739 363.292,-198.021"/>
</g>
<!-- Node24 -->
<g id="node24" class="node"><title>Node24</title>
<g id="a_node24"><a xlink:href="time__parser_8hpp.html" target="_top" xlink:title="The TimeParser template class. ">
<polygon fill="white" stroke="black" points="1401.5,-123.5 1401.5,-142.5 1502.5,-142.5 1502.5,-123.5 1401.5,-123.5"/>
<text text-anchor="middle" x="1452" y="-130.5" font-family="Helvetica,sans-Serif" font-size="10.00">../time_parser.hpp</text>
</a>
</g>
</g>
<!-- Node13&#45;&gt;Node24 -->
<g id="edge38" class="edge"><title>Node13&#45;&gt;Node24</title>
<path fill="none" stroke="midnightblue" d="M1185.17,-355.53C1225.55,-353.402 1294.13,-344.616 1341,-311 1398.43,-269.809 1432.74,-188.786 1445.85,-152.425"/>
<polygon fill="midnightblue" stroke="midnightblue" points="1449.27,-153.263 1449.25,-142.668 1442.66,-150.965 1449.27,-153.263"/>
</g>
<!-- Node26 -->
<g id="node26" class="node"><title>Node26</title>
<g id="a_node26"><a xlink:href="player__file_8hpp.html" target="_top" xlink:title="Declaration of the PlayerFile class, and associated types. ">
<polygon fill="white" stroke="black" points="931,-291.5 931,-310.5 1017,-310.5 1017,-291.5 931,-291.5"/>
<text text-anchor="middle" x="974" y="-298.5" font-family="Helvetica,sans-Serif" font-size="10.00">player_file.hpp</text>
</a>
</g>
</g>
<!-- Node13&#45;&gt;Node26 -->
<g id="edge44" class="edge"><title>Node13&#45;&gt;Node26</title>
<path fill="none" stroke="midnightblue" d="M1123.8,-347.444C1093.59,-338.28 1045.49,-323.688 1011.97,-313.519"/>
<polygon fill="midnightblue" stroke="midnightblue" points="1012.66,-310.07 1002.07,-310.516 1010.63,-316.769 1012.66,-310.07"/>
</g>
<!-- Node34 -->
<g id="node34" class="node"><title>Node34</title>
<g id="a_node34"><a xlink:href="player__position_8hpp.html" target="_top" xlink:title="Declaration of the PlayerPosition class. ">
<polygon fill="white" stroke="black" points="919.5,-235.5 919.5,-254.5 1028.5,-254.5 1028.5,-235.5 919.5,-235.5"/>
<text text-anchor="middle" x="974" y="-242.5" font-family="Helvetica,sans-Serif" font-size="10.00">player_position.hpp</text>
</a>
</g>
</g>
<!-- Node13&#45;&gt;Node34 -->
<g id="edge74" class="edge"><title>Node13&#45;&gt;Node34</title>
<path fill="none" stroke="midnightblue" d="M1138.03,-347.368C1107.36,-328.412 1033.87,-283.001 996.561,-259.942"/>
<polygon fill="midnightblue" stroke="midnightblue" points="998.249,-256.871 987.902,-254.591 994.569,-262.826 998.249,-256.871"/>
</g>
<!-- Node16&#45;&gt;Node6 -->
<g id="edge23" class="edge"><title>Node16&#45;&gt;Node6</title>
<path fill="none" stroke="midnightblue" d="M313.979,-179.359C299.998,-166.26 277.858,-141.001 292,-123 369.714,-24.0784 442.797,-75.9636 567,-56 767.537,-23.767 1012.15,-14.2342 1098.22,-11.7695"/>
<polygon fill="midnightblue" stroke="midnightblue" points="1098.48,-15.2638 1108.38,-11.4908 1098.28,-8.26646 1098.48,-15.2638"/>
</g>
<!-- Node16&#45;&gt;Node11 -->
<g id="edge21" class="edge"><title>Node16&#45;&gt;Node11</title>
<path fill="none" stroke="midnightblue" d="M283.853,-179.429C264.025,-172.953 241.862,-161.83 230,-143 209.39,-110.284 204.646,-85.1941 230,-56 266.502,-13.9687 439.532,-10.1282 513.898,-10.4727"/>
<polygon fill="midnightblue" stroke="midnightblue" points="514.1,-13.9742 524.127,-10.5499 514.153,-6.97445 514.1,-13.9742"/>
</g>
<!-- Node16&#45;&gt;Node14 -->
<g id="edge22" class="edge"><title>Node16&#45;&gt;Node14</title>
<path fill="none" stroke="midnightblue" d="M286.205,-179.492C248.959,-171.06 190.17,-157.625 130.146,-143.244"/>
<polygon fill="midnightblue" stroke="midnightblue" points="130.655,-139.767 120.114,-140.835 129.02,-146.573 130.655,-139.767"/>
</g>
<!-- Node16&#45;&gt;Node15 -->
<g id="edge24" class="edge"><title>Node16&#45;&gt;Node15</title>
<path fill="none" stroke="midnightblue" d="M297.697,-179.444C267.964,-169.771 219.636,-154.05 188.335,-143.868"/>
<polygon fill="midnightblue" stroke="midnightblue" points="189.016,-140.409 178.424,-140.644 186.851,-147.066 189.016,-140.409"/>
</g>
<!-- Node17 -->
<g id="node17" class="node"><title>Node17</title>
<polygon fill="white" stroke="#bfbfbf" points="576,-62 576,-81 622,-81 622,-62 576,-62"/>
<text text-anchor="middle" x="599" y="-69" font-family="Helvetica,sans-Serif" font-size="10.00">vector</text>
</g>
<!-- Node16&#45;&gt;Node17 -->
<g id="edge25" class="edge"><title>Node16&#45;&gt;Node17</title>
<path fill="none" stroke="midnightblue" d="M316.192,-179.46C304.887,-166.043 286.786,-139.825 301,-123 334.579,-83.2523 494.972,-74.7816 565.546,-72.9823"/>
<polygon fill="midnightblue" stroke="midnightblue" points="565.756,-76.4785 575.675,-72.7546 565.599,-69.4803 565.756,-76.4785"/>
</g>
<!-- Node18 -->
<g id="node18" class="node"><title>Node18</title>
<polygon fill="white" stroke="#bfbfbf" points="510.5,-123.5 510.5,-142.5 579.5,-142.5 579.5,-123.5 510.5,-123.5"/>
<text text-anchor="middle" x="545" y="-130.5" font-family="Helvetica,sans-Serif" font-size="10.00">portaudio.h</text>
</g>
<!-- Node16&#45;&gt;Node18 -->
<g id="edge26" class="edge"><title>Node16&#45;&gt;Node18</title>
<path fill="none" stroke="midnightblue" d="M359.018,-179.444C397.248,-170.102 458.567,-155.119 500.257,-144.933"/>
<polygon fill="midnightblue" stroke="midnightblue" points="501.262,-148.29 510.146,-142.516 499.601,-141.49 501.262,-148.29"/>
</g>
<!-- Node19 -->
<g id="node19" class="node"><title>Node19</title>
<polygon fill="white" stroke="#bfbfbf" points="310,-123.5 310,-142.5 492,-142.5 492,-123.5 310,-123.5"/>
<text text-anchor="middle" x="401" y="-130.5" font-family="Helvetica,sans-Serif" font-size="10.00">portaudiocpp/CallbackInterface.hxx</text>
</g>
<!-- Node16&#45;&gt;Node19 -->
<g id="edge27" class="edge"><title>Node16&#45;&gt;Node19</title>
<path fill="none" stroke="midnightblue" d="M336.371,-179.324C348.158,-171.058 366.132,-158.453 380.136,-148.632"/>
<polygon fill="midnightblue" stroke="midnightblue" points="382.482,-151.262 388.659,-142.655 378.462,-145.531 382.482,-151.262"/>
</g>
<!-- Node20 -->
<g id="node20" class="node"><title>Node20</title>
<g id="a_node20"><a xlink:href="audio__source_8hpp.html" target="_top" xlink:title="Declaration of the AudioSource class. ">
<polygon fill="white" stroke="black" points="826,-123.5 826,-142.5 926,-142.5 926,-123.5 826,-123.5"/>
<text text-anchor="middle" x="876" y="-130.5" font-family="Helvetica,sans-Serif" font-size="10.00">audio_source.hpp</text>
</a>
</g>
</g>
<!-- Node16&#45;&gt;Node20 -->
<g id="edge28" class="edge"><title>Node16&#45;&gt;Node20</title>
<path fill="none" stroke="midnightblue" d="M373.081,-180.369C376.772,-179.877 380.443,-179.414 384,-179 572.534,-157.047 623.485,-165.278 815.666,-143.079"/>
<polygon fill="midnightblue" stroke="midnightblue" points="816.293,-146.53 825.82,-141.894 815.481,-139.577 816.293,-146.53"/>
</g>
<!-- Node20&#45;&gt;Node6 -->
<g id="edge31" class="edge"><title>Node20&#45;&gt;Node6</title>
<path fill="none" stroke="midnightblue" d="M871.61,-123.29C864.493,-107.792 852.781,-75.2548 869,-56 897.983,-21.5923 1035.15,-13.4933 1098.18,-11.5869"/>
<polygon fill="midnightblue" stroke="midnightblue" points="1098.44,-15.0813 1108.34,-11.3143 1098.25,-8.08385 1098.44,-15.0813"/>
</g>
<!-- Node20&#45;&gt;Node7 -->
<g id="edge34" class="edge"><title>Node20&#45;&gt;Node7</title>
<path fill="none" stroke="midnightblue" d="M926.283,-125.857C1020.94,-114.292 1224.31,-89.445 1316.21,-78.2164"/>
<polygon fill="midnightblue" stroke="midnightblue" points="1316.83,-81.6674 1326.33,-76.9804 1315.98,-74.719 1316.83,-81.6674"/>
</g>
<!-- Node20&#45;&gt;Node11 -->
<g id="edge30" class="edge"><title>Node20&#45;&gt;Node11</title>
<path fill="none" stroke="midnightblue" d="M825.538,-123.816C773.478,-114.88 696.166,-100.095 669,-87 649.366,-77.5357 649.104,-68.1364 631,-56 613.131,-44.0215 591.769,-32.4978 575.192,-24.1108"/>
<polygon fill="midnightblue" stroke="midnightblue" points="576.559,-20.8814 566.047,-19.5554 573.438,-27.1471 576.559,-20.8814"/>
</g>
<!-- Node20&#45;&gt;Node17 -->
<g id="edge32" class="edge"><title>Node20&#45;&gt;Node17</title>
<path fill="none" stroke="midnightblue" d="M825.978,-123.761C766.499,-113.765 670.891,-97.0112 636,-87 633.416,-86.2585 630.761,-85.4067 628.117,-84.4955"/>
<polygon fill="midnightblue" stroke="midnightblue" points="629.327,-81.2114 618.734,-81.0254 626.899,-87.7768 629.327,-81.2114"/>
</g>
<!-- Node21 -->
<g id="node21" class="node"><title>Node21</title>
<polygon fill="white" stroke="#bfbfbf" points="737.5,-62 737.5,-81 778.5,-81 778.5,-62 737.5,-62"/>
<text text-anchor="middle" x="758" y="-69" font-family="Helvetica,sans-Serif" font-size="10.00">array</text>
</g>
<!-- Node20&#45;&gt;Node21 -->
<g id="edge29" class="edge"><title>Node20&#45;&gt;Node21</title>
<path fill="none" stroke="midnightblue" d="M859.093,-123.475C839.466,-113.578 806.869,-97.1416 784.01,-85.6151"/>
<polygon fill="midnightblue" stroke="midnightblue" points="785.38,-82.3863 774.875,-81.0091 782.228,-88.6367 785.38,-82.3863"/>
</g>
<!-- Node22 -->
<g id="node22" class="node"><title>Node22</title>
<polygon fill="white" stroke="#bfbfbf" points="678.5,-62 678.5,-81 719.5,-81 719.5,-62 678.5,-62"/>
<text text-anchor="middle" x="699" y="-69" font-family="Helvetica,sans-Serif" font-size="10.00">sox.h</text>
</g>
<!-- Node20&#45;&gt;Node22 -->
<g id="edge33" class="edge"><title>Node20&#45;&gt;Node22</title>
<path fill="none" stroke="midnightblue" d="M842.237,-123.478C811.874,-115.405 766.292,-102.268 728,-87 726.794,-86.5192 725.57,-86.0073 724.341,-85.4739"/>
<polygon fill="midnightblue" stroke="midnightblue" points="725.579,-82.1888 715.038,-81.1206 722.612,-88.529 725.579,-82.1888"/>
</g>
<!-- Node23 -->
<g id="node23" class="node"><title>Node23</title>
<g id="a_node23"><a xlink:href="sample__formats_8hpp.html" target="_top" xlink:title="The SampleFormat enumeration. ">
<polygon fill="white" stroke="black" points="58.5,-62 58.5,-81 177.5,-81 177.5,-62 58.5,-62"/>
<text text-anchor="middle" x="118" y="-69" font-family="Helvetica,sans-Serif" font-size="10.00">../sample_formats.hpp</text>
</a>
</g>
</g>
<!-- Node20&#45;&gt;Node23 -->
<g id="edge35" class="edge"><title>Node20&#45;&gt;Node23</title>
<path fill="none" stroke="midnightblue" d="M825.824,-124.069C822.841,-123.684 819.883,-123.324 817,-123 587.375,-97.2325 313.762,-81.9042 187.793,-75.7073"/>
<polygon fill="midnightblue" stroke="midnightblue" points="187.683,-72.1978 177.524,-75.2062 187.341,-79.1895 187.683,-72.1978"/>
</g>
<!-- Node23&#45;&gt;Node11 -->
<g id="edge36" class="edge"><title>Node23&#45;&gt;Node11</title>
<path fill="none" stroke="midnightblue" d="M159.01,-61.9504C169.722,-59.8584 181.272,-57.727 192,-56 309.737,-37.046 450.451,-21.2766 513.948,-14.5272"/>
<polygon fill="midnightblue" stroke="midnightblue" points="514.596,-17.9783 524.173,-13.4475 513.861,-11.017 514.596,-17.9783"/>
</g>
<!-- Node24&#45;&gt;Node7 -->
<g id="edge41" class="edge"><title>Node24&#45;&gt;Node7</title>
<path fill="none" stroke="midnightblue" d="M1439.25,-123.475C1424.97,-113.931 1401.6,-98.3073 1384.49,-86.8683"/>
<polygon fill="midnightblue" stroke="midnightblue" points="1385.99,-83.6572 1375.73,-81.0091 1382.1,-89.4766 1385.99,-83.6572"/>
</g>
<!-- Node24&#45;&gt;Node9 -->
<g id="edge40" class="edge"><title>Node24&#45;&gt;Node9</title>
<path fill="none" stroke="midnightblue" d="M1451.93,-123.298C1451.77,-103.85 1451.38,-56.49 1451.16,-29.9036"/>
<polygon fill="midnightblue" stroke="midnightblue" points="1454.65,-29.5939 1451.07,-19.6232 1447.65,-29.6518 1454.65,-29.5939"/>
</g>
<!-- Node24&#45;&gt;Node11 -->
<g id="edge39" class="edge"><title>Node24&#45;&gt;Node11</title>
<path fill="none" stroke="midnightblue" d="M1449.99,-123.254C1445.69,-106.773 1433.88,-71.3944 1409,-56 1373.26,-33.8885 737.441,-15.9366 582.05,-11.8665"/>
<polygon fill="midnightblue" stroke="midnightblue" points="581.795,-8.35876 571.707,-11.5976 581.613,-15.3564 581.795,-8.35876"/>
</g>
<!-- Node25 -->
<g id="node25" class="node"><title>Node25</title>
<g id="a_node25"><a xlink:href="messages_8h.html" target="_top" xlink:title="Constant human&#45;readable messages used within playd. ">
<polygon fill="white" stroke="black" points="1158.5,-62 1158.5,-81 1231.5,-81 1231.5,-62 1158.5,-62"/>
<text text-anchor="middle" x="1195" y="-69" font-family="Helvetica,sans-Serif" font-size="10.00">messages.h</text>
</a>
</g>
</g>
<!-- Node24&#45;&gt;Node25 -->
<g id="edge42" class="edge"><title>Node24&#45;&gt;Node25</title>
<path fill="none" stroke="midnightblue" d="M1415.18,-123.475C1369.47,-112.893 1291.47,-94.8356 1241.63,-83.2966"/>
<polygon fill="midnightblue" stroke="midnightblue" points="1242.29,-79.8549 1231.75,-81.0091 1240.71,-86.6745 1242.29,-79.8549"/>
</g>
<!-- Node25&#45;&gt;Node6 -->
<g id="edge43" class="edge"><title>Node25&#45;&gt;Node6</title>
<path fill="none" stroke="midnightblue" d="M1185.69,-61.9751C1175.55,-52.6966 1159.14,-37.6706 1146.75,-26.331"/>
<polygon fill="midnightblue" stroke="midnightblue" points="1149.04,-23.6795 1139.3,-19.5091 1144.31,-28.8429 1149.04,-23.6795"/>
</g>
<!-- Node26&#45;&gt;Node3 -->
<g id="edge69" class="edge"><title>Node26&#45;&gt;Node3</title>
<path fill="none" stroke="midnightblue" d="M993.852,-291.368C1038.28,-272.051 1145.9,-225.259 1197.91,-202.648"/>
<polygon fill="midnightblue" stroke="midnightblue" points="1199.46,-205.788 1207.24,-198.591 1196.67,-199.369 1199.46,-205.788"/>
</g>
<!-- Node26&#45;&gt;Node14 -->
<g id="edge45" class="edge"><title>Node26&#45;&gt;Node14</title>
<path fill="none" stroke="midnightblue" d="M930.828,-299.569C813.77,-297.271 481.691,-283.218 222,-199 182.656,-186.241 140.464,-162.943 115.423,-147.981"/>
<polygon fill="midnightblue" stroke="midnightblue" points="117.073,-144.888 106.708,-142.694 113.443,-150.873 117.073,-144.888"/>
</g>
<!-- Node27 -->
<g id="node27" class="node"><title>Node27</title>
<g id="a_node27"><a xlink:href="audio__system_8hpp.html" target="_top" xlink:title="Declaration of the AudioSystem class. ">
<polygon fill="white" stroke="black" points="577.5,-235.5 577.5,-254.5 714.5,-254.5 714.5,-235.5 577.5,-235.5"/>
<text text-anchor="middle" x="646" y="-242.5" font-family="Helvetica,sans-Serif" font-size="10.00">../audio/audio_system.hpp</text>
</a>
</g>
</g>
<!-- Node26&#45;&gt;Node27 -->
<g id="edge46" class="edge"><title>Node26&#45;&gt;Node27</title>
<path fill="none" stroke="midnightblue" d="M930.782,-292.885C873.732,-283.493 772.925,-266.896 707.823,-256.178"/>
<polygon fill="midnightblue" stroke="midnightblue" points="708.13,-252.682 697.694,-254.511 706.992,-259.589 708.13,-252.682"/>
</g>
<!-- Node26&#45;&gt;Node34 -->
<g id="edge70" class="edge"><title>Node26&#45;&gt;Node34</title>
<path fill="none" stroke="midnightblue" d="M974,-291.083C974,-284.006 974,-273.861 974,-264.986"/>
<polygon fill="midnightblue" stroke="midnightblue" points="977.5,-264.751 974,-254.751 970.5,-264.751 977.5,-264.751"/>
</g>
<!-- Node27&#45;&gt;Node6 -->
<g id="edge47" class="edge"><title>Node27&#45;&gt;Node6</title>
<path fill="none" stroke="midnightblue" d="M702.053,-235.474C819.541,-217.089 1083.09,-172.96 1111,-143 1139.71,-112.177 1137.21,-58.4963 1133.36,-30.0142"/>
<polygon fill="midnightblue" stroke="midnightblue" points="1136.77,-29.1446 1131.77,-19.8023 1129.85,-30.2218 1136.77,-29.1446"/>
</g>
<!-- Node27&#45;&gt;Node15 -->
<g id="edge48" class="edge"><title>Node27&#45;&gt;Node15</title>
<path fill="none" stroke="midnightblue" d="M577.16,-244.475C499.528,-243.06 370.492,-234.771 266,-199 232.093,-187.393 197.371,-164.036 176.752,-148.713"/>
<polygon fill="midnightblue" stroke="midnightblue" points="178.654,-145.762 168.573,-142.502 174.42,-151.337 178.654,-145.762"/>
</g>
<!-- Node27&#45;&gt;Node16 -->
<g id="edge68" class="edge"><title>Node27&#45;&gt;Node16</title>
<path fill="none" stroke="midnightblue" d="M594.978,-235.444C537.479,-225.801 444.131,-210.146 383.399,-199.961"/>
<polygon fill="midnightblue" stroke="midnightblue" points="383.64,-196.453 373.199,-198.251 382.483,-203.357 383.64,-196.453"/>
</g>
<!-- Node27&#45;&gt;Node20 -->
<g id="edge67" class="edge"><title>Node27&#45;&gt;Node20</title>
<path fill="none" stroke="midnightblue" d="M664.048,-235.368C704.272,-216.131 801.464,-169.648 848.962,-146.931"/>
<polygon fill="midnightblue" stroke="midnightblue" points="850.525,-150.064 858.036,-142.591 847.505,-143.749 850.525,-150.064"/>
</g>
<!-- Node27&#45;&gt;Node23 -->
<g id="edge51" class="edge"><title>Node27&#45;&gt;Node23</title>
<path fill="none" stroke="midnightblue" d="M577.404,-243.639C435.244,-241.193 116.716,-226.329 57,-143 42.0185,-122.095 69.1393,-99.9784 91.8667,-86.2096"/>
<polygon fill="midnightblue" stroke="midnightblue" points="93.66,-89.2158 100.576,-81.19 90.1647,-83.1509 93.66,-89.2158"/>
</g>
<!-- Node28 -->
<g id="node28" class="node"><title>Node28</title>
<polygon fill="white" stroke="#bfbfbf" points="393.5,-179.5 393.5,-198.5 584.5,-198.5 584.5,-179.5 393.5,-179.5"/>
<text text-anchor="middle" x="489" y="-186.5" font-family="Helvetica,sans-Serif" font-size="10.00">portaudiocpp/SampleDataFormat.hxx</text>
</g>
<!-- Node27&#45;&gt;Node28 -->
<g id="edge49" class="edge"><title>Node27&#45;&gt;Node28</title>
<path fill="none" stroke="midnightblue" d="M621.123,-235.444C594.711,-226.359 552.785,-211.939 523.258,-201.783"/>
<polygon fill="midnightblue" stroke="midnightblue" points="524.355,-198.459 513.761,-198.516 522.079,-205.079 524.355,-198.459"/>
</g>
<!-- Node29 -->
<g id="node29" class="node"><title>Node29</title>
<polygon fill="white" stroke="#bfbfbf" points="674,-123.5 674,-142.5 808,-142.5 808,-123.5 674,-123.5"/>
<text text-anchor="middle" x="741" y="-130.5" font-family="Helvetica,sans-Serif" font-size="10.00">portaudiocpp/Stream.hxx</text>
</g>
<!-- Node27&#45;&gt;Node29 -->
<g id="edge50" class="edge"><title>Node27&#45;&gt;Node29</title>
<path fill="none" stroke="midnightblue" d="M657.553,-235.495C668.659,-226.99 685.548,-213.17 698,-199 711.08,-184.115 723.268,-164.987 731.303,-151.343"/>
<polygon fill="midnightblue" stroke="midnightblue" points="734.427,-152.931 736.373,-142.517 728.357,-149.445 734.427,-152.931"/>
</g>
<!-- Node30 -->
<g id="node30" class="node"><title>Node30</title>
<g id="a_node30"><a xlink:href="audio__sink_8hpp.html" target="_top" xlink:title="Declaration of the AudioSink class. ">
<polygon fill="white" stroke="black" points="602.5,-179.5 602.5,-198.5 689.5,-198.5 689.5,-179.5 602.5,-179.5"/>
<text text-anchor="middle" x="646" y="-186.5" font-family="Helvetica,sans-Serif" font-size="10.00">audio_sink.hpp</text>
</a>
</g>
</g>
<!-- Node27&#45;&gt;Node30 -->
<g id="edge52" class="edge"><title>Node27&#45;&gt;Node30</title>
<path fill="none" stroke="midnightblue" d="M646,-235.083C646,-228.006 646,-217.861 646,-208.986"/>
<polygon fill="midnightblue" stroke="midnightblue" points="649.5,-208.751 646,-198.751 642.5,-208.751 649.5,-208.751"/>
</g>
<!-- Node30&#45;&gt;Node6 -->
<g id="edge55" class="edge"><title>Node30&#45;&gt;Node6</title>
<path fill="none" stroke="midnightblue" d="M689.768,-187.836C762.647,-186.529 903.954,-179.255 935,-143 955.651,-118.885 904.162,-90.0563 903,-87 898.104,-74.1216 894.256,-66.6475 903,-56 927.313,-26.3937 1041.38,-15.925 1097.98,-12.5109"/>
<polygon fill="midnightblue" stroke="midnightblue" points="1098.38,-15.9939 1108.17,-11.9354 1097.99,-9.00499 1098.38,-15.9939"/>
</g>
<!-- Node30&#45;&gt;Node11 -->
<g id="edge53" class="edge"><title>Node30&#45;&gt;Node11</title>
<path fill="none" stroke="midnightblue" d="M637.174,-179.42C620.817,-163.015 585.76,-125.405 567,-87 558.066,-68.7093 553.084,-45.8276 550.487,-29.9754"/>
<polygon fill="midnightblue" stroke="midnightblue" points="553.914,-29.2246 548.994,-19.8411 546.988,-30.2443 553.914,-29.2246"/>
</g>
<!-- Node30&#45;&gt;Node14 -->
<g id="edge54" class="edge"><title>Node30&#45;&gt;Node14</title>
<path fill="none" stroke="midnightblue" d="M602.373,-180.269C599.206,-179.807 596.057,-179.377 593,-179 390.924,-154.056 334.902,-175.507 129.901,-142.868"/>
<polygon fill="midnightblue" stroke="midnightblue" points="130.456,-139.412 120.026,-141.272 129.339,-146.323 130.456,-139.412"/>
</g>
<!-- Node30&#45;&gt;Node15 -->
<g id="edge56" class="edge"><title>Node30&#45;&gt;Node15</title>
<path fill="none" stroke="midnightblue" d="M602.362,-180.358C599.197,-179.875 596.052,-179.416 593,-179 441.307,-158.297 258.69,-142.288 187.985,-136.424"/>
<polygon fill="midnightblue" stroke="midnightblue" points="188.254,-132.935 178,-135.602 187.679,-139.911 188.254,-132.935"/>
</g>
<!-- Node30&#45;&gt;Node17 -->
<g id="edge57" class="edge"><title>Node30&#45;&gt;Node17</title>
<path fill="none" stroke="midnightblue" d="M642.944,-179.089C638.57,-166.491 630.151,-142.8 622,-123 617.529,-112.14 612.101,-100.171 607.641,-90.6128"/>
<polygon fill="midnightblue" stroke="midnightblue" points="610.704,-88.9036 603.272,-81.353 604.373,-91.8904 610.704,-88.9036"/>
</g>
<!-- Node30&#45;&gt;Node18 -->
<g id="edge58" class="edge"><title>Node30&#45;&gt;Node18</title>
<path fill="none" stroke="midnightblue" d="M629.773,-179.324C613.649,-170.703 588.7,-157.364 570.036,-147.386"/>
<polygon fill="midnightblue" stroke="midnightblue" points="571.656,-144.283 561.187,-142.655 568.356,-150.456 571.656,-144.283"/>
</g>
<!-- Node30&#45;&gt;Node19 -->
<g id="edge59" class="edge"><title>Node30&#45;&gt;Node19</title>
<path fill="none" stroke="midnightblue" d="M607.179,-179.444C564.439,-170.023 495.668,-154.866 449.434,-144.675"/>
<polygon fill="midnightblue" stroke="midnightblue" points="450.158,-141.251 439.639,-142.516 448.652,-148.087 450.158,-141.251"/>
</g>
<!-- Node30&#45;&gt;Node20 -->
<g id="edge61" class="edge"><title>Node30&#45;&gt;Node20</title>
<path fill="none" stroke="midnightblue" d="M682.444,-179.444C722.399,-170.063 786.587,-154.993 829.985,-144.804"/>
<polygon fill="midnightblue" stroke="midnightblue" points="830.791,-148.21 839.726,-142.516 829.191,-141.395 830.791,-148.21"/>
</g>
<!-- Node30&#45;&gt;Node29 -->
<g id="edge60" class="edge"><title>Node30&#45;&gt;Node29</title>
<path fill="none" stroke="midnightblue" d="M661.263,-179.324C676.221,-170.822 699.255,-157.729 716.727,-147.797"/>
<polygon fill="midnightblue" stroke="midnightblue" points="718.81,-150.639 725.774,-142.655 715.351,-144.553 718.81,-150.639"/>
</g>
<!-- Node31 -->
<g id="node31" class="node"><title>Node31</title>
<g id="a_node31"><a xlink:href="ringbuffer_8hpp.html" target="_top" xlink:title="The RingBuffer class template. ">
<polygon fill="white" stroke="black" points="1020.5,-123.5 1020.5,-142.5 1101.5,-142.5 1101.5,-123.5 1020.5,-123.5"/>
<text text-anchor="middle" x="1061" y="-130.5" font-family="Helvetica,sans-Serif" font-size="10.00">ringbuffer.hpp</text>
</a>
</g>
</g>
<!-- Node30&#45;&gt;Node31 -->
<g id="edge62" class="edge"><title>Node30&#45;&gt;Node31</title>
<path fill="none" stroke="midnightblue" d="M689.572,-183.093C757.345,-175.338 892.072,-159.436 1006,-143 1007.47,-142.788 1008.95,-142.57 1010.46,-142.346"/>
<polygon fill="midnightblue" stroke="midnightblue" points="1011.12,-145.785 1020.48,-140.809 1010.06,-138.866 1011.12,-145.785"/>
</g>
<!-- Node31&#45;&gt;Node7 -->
<g id="edge65" class="edge"><title>Node31&#45;&gt;Node7</title>
<path fill="none" stroke="midnightblue" d="M1101.73,-123.976C1157.47,-112.993 1257.29,-93.3267 1316.09,-81.7418"/>
<polygon fill="midnightblue" stroke="midnightblue" points="1317.09,-85.1132 1326.22,-79.7461 1315.73,-78.2453 1317.09,-85.1132"/>
</g>
<!-- Node31&#45;&gt;Node25 -->
<g id="edge66" class="edge"><title>Node31&#45;&gt;Node25</title>
<path fill="none" stroke="midnightblue" d="M1080.2,-123.475C1102.79,-113.445 1140.5,-96.7002 1166.5,-85.1546"/>
<polygon fill="midnightblue" stroke="midnightblue" points="1168.12,-88.2662 1175.84,-81.0091 1165.28,-81.8685 1168.12,-88.2662"/>
</g>
<!-- Node32 -->
<g id="node32" class="node"><title>Node32</title>
<polygon fill="white" stroke="#bfbfbf" points="1050.5,-62 1050.5,-81 1101.5,-81 1101.5,-62 1050.5,-62"/>
<text text-anchor="middle" x="1076" y="-69" font-family="Helvetica,sans-Serif" font-size="10.00">cassert</text>
</g>
<!-- Node31&#45;&gt;Node32 -->
<g id="edge63" class="edge"><title>Node31&#45;&gt;Node32</title>
<path fill="none" stroke="midnightblue" d="M1063.15,-123.475C1065.29,-114.992 1068.64,-101.704 1071.38,-90.8222"/>
<polygon fill="midnightblue" stroke="midnightblue" points="1074.8,-91.5613 1073.85,-81.0091 1068.02,-89.8501 1074.8,-91.5613"/>
</g>
<!-- Node33 -->
<g id="node33" class="node"><title>Node33</title>
<polygon fill="white" stroke="#bfbfbf" points="911.5,-56.5 911.5,-86.5 1032.5,-86.5 1032.5,-56.5 911.5,-56.5"/>
<text text-anchor="start" x="919.5" y="-74.5" font-family="Helvetica,sans-Serif" font-size="10.00">../contrib/pa_ringbuffer</text>
<text text-anchor="middle" x="972" y="-63.5" font-family="Helvetica,sans-Serif" font-size="10.00">/pa_ringbuffer.h</text>
</g>
<!-- Node31&#45;&gt;Node33 -->
<g id="edge64" class="edge"><title>Node31&#45;&gt;Node33</title>
<path fill="none" stroke="midnightblue" d="M1048.25,-123.475C1036.08,-115.341 1017.31,-102.791 1001.44,-92.1788"/>
<polygon fill="midnightblue" stroke="midnightblue" points="1003.23,-89.1711 992.976,-86.523 999.344,-94.9905 1003.23,-89.1711"/>
</g>
<!-- Node34&#45;&gt;Node3 -->
<g id="edge73" class="edge"><title>Node34&#45;&gt;Node3</title>
<path fill="none" stroke="midnightblue" d="M1014.09,-235.444C1058.32,-226.004 1129.54,-210.802 1177.28,-200.611"/>
<polygon fill="midnightblue" stroke="midnightblue" points="1178.05,-204.027 1187.1,-198.516 1176.59,-197.181 1178.05,-204.027"/>
</g>
<!-- Node34&#45;&gt;Node20 -->
<g id="edge72" class="edge"><title>Node34&#45;&gt;Node20</title>
<path fill="none" stroke="midnightblue" d="M966.31,-235.368C949.994,-217.055 911.68,-174.049 890.577,-150.362"/>
<polygon fill="midnightblue" stroke="midnightblue" points="892.92,-147.73 883.654,-142.591 887.693,-152.386 892.92,-147.73"/>
</g>
<!-- Node35 -->
<g id="node35" class="node"><title>Node35</title>
<polygon fill="white" stroke="#bfbfbf" points="1018.5,-179.5 1018.5,-198.5 1049.5,-198.5 1049.5,-179.5 1018.5,-179.5"/>
<text text-anchor="middle" x="1034" y="-186.5" font-family="Helvetica,sans-Serif" font-size="10.00">set</text>
</g>
<!-- Node34&#45;&gt;Node35 -->
<g id="edge71" class="edge"><title>Node34&#45;&gt;Node35</title>
<path fill="none" stroke="midnightblue" d="M983.64,-235.324C992.51,-227.341 1005.87,-215.313 1016.61,-205.653"/>
<polygon fill="midnightblue" stroke="midnightblue" points="1019.09,-208.125 1024.18,-198.834 1014.41,-202.922 1019.09,-208.125"/>
</g>
</g>
</svg>
        <g id="navigator" transform="translate(0 0)" fill="#404254">
                <rect fill="#f2f5e9" fill-opacity="0.5" stroke="#606060" stroke-width=".5" x="0" y="0" width="60" height="60"/>
                <use id="zoomplus" xlink:href="#zoomPlus" x="17" y="9" onmousedown="handleZoom(evt,'in')"/>
                <use id="zoomminus" xlink:href="#zoomMin" x="42" y="9" onmousedown="handleZoom(evt,'out')"/>
                <use id="reset" xlink:href="#resetDef" x="30" y="36" onmousedown="handleReset()"/>
                <g id="arrowUp" xlink:href="#dirArrow" transform="translate(30 24)" onmousedown="handlePan(0,-1)">
                  <use xlink:href="#rim" fill="#404040">
                        <set attributeName="fill" to="#808080" begin="arrowUp.mouseover" end="arrowUp.mouseout"/>
                  </use>
                  <path fill="none" stroke="white" stroke-width="1.5" d="M0,-3.0v7 M-2.5,-0.5L0,-3.0L2.5,-0.5"/>
                </g>
                <g id="arrowRight" xlink:href="#dirArrow" transform="rotate(90) translate(36 -43)" onmousedown="handlePan(1,0)">
                  <use xlink:href="#rim" fill="#404040">
                        <set attributeName="fill" to="#808080" begin="arrowRight.mouseover" end="arrowRight.mouseout"/>
                  </use>
                  <path fill="none" stroke="white" stroke-width="1.5" d="M0,-3.0v7 M-2.5,-0.5L0,-3.0L2.5,-0.5"/>
                </g>
                <g id="arrowDown" xlink:href="#dirArrow" transform="rotate(180) translate(-30 -48)" onmousedown="handlePan(0,1)">
                  <use xlink:href="#rim" fill="#404040">
                        <set attributeName="fill" to="#808080" begin="arrowDown.mouseover" end="arrowDown.mouseout"/>
                  </use>
                  <path fill="none" stroke="white" stroke-width="1.5" d="M0,-3.0v7 M-2.5,-0.5L0,-3.0L2.5,-0.5"/>
                </g>
                <g id="arrowLeft" xlink:href="#dirArrow" transform="rotate(270) translate(-36 17)" onmousedown="handlePan(-1,0)">
                  <use xlink:href="#rim" fill="#404040">
                        <set attributeName="fill" to="#808080" begin="arrowLeft.mouseover" end="arrowLeft.mouseout"/>
                  </use>
                  <path fill="none" stroke="white" stroke-width="1.5" d="M0,-3.0v7 M-2.5,-0.5L0,-3.0L2.5,-0.5"/>
                </g>
        </g>
        <svg viewBox="0 0 15 15" width="100%" height="30px" preserveAspectRatio="xMaxYMin meet">
         <g id="arrow_out" transform="scale(0.3 0.3)">
          <a xlink:href="player__state_8cpp__incl_org.svg" target="_base">
           <rect id="button" ry="5" rx="5" y="6" x="6" height="38" width="38"
                fill="#f2f5e9" fill-opacity="0.5" stroke="#606060" stroke-width="1.0"/>
           <path id="arrow"
             d="M 11.500037,31.436501 C 11.940474,20.09759 22.043105,11.32322 32.158766,21.979434 L 37.068811,17.246167 C 37.068811,17.246167 37.088388,32 37.088388,32 L 22.160133,31.978069 C 22.160133,31.978069 26.997745,27.140456 26.997745,27.140456 C 18.528582,18.264221 13.291696,25.230495 11.500037,31.436501 z"
             style="fill:#404040;"/>
          </a>
         </g>
        </svg>
</svg>
