<?xml version="1.0" encoding="UTF-8" standalone="no"?>
<!DOCTYPE svg PUBLIC "-//W3C//DTD SVG 1.1//EN"
 "http://www.w3.org/Graphics/SVG/1.1/DTD/svg11.dtd">
<!-- Generated by graphviz version 2.38.0 (20140413.2041)
 -->
<!-- Title: src/player/player_file.hpp Pages: 1 -->
<svg width="1404pt" height="319pt"
 viewBox="0.00 0.00 1403.68 319.00" xmlns="http://www.w3.org/2000/svg" xmlns:xlink="http://www.w3.org/1999/xlink">
<g id="graph0" class="graph" transform="scale(1 1) rotate(0) translate(4 315)">
<title>src/player/player_file.hpp</title>
<polygon fill="white" stroke="none" points="-4,4 -4,-315 1399.68,-315 1399.68,4 -4,4"/>
<!-- Node1 -->
<g id="node1" class="node"><title>Node1</title>
<polygon fill="#bfbfbf" stroke="black" points="473,-291.5 473,-310.5 608,-310.5 608,-291.5 473,-291.5"/>
<text text-anchor="middle" x="540.5" y="-298.5" font-family="Helvetica,sans-Serif" font-size="10.00">src/player/player_file.hpp</text>
</g>
<!-- Node2 -->
<g id="node2" class="node"><title>Node2</title>
<polygon fill="white" stroke="#bfbfbf" points="570.5,-123.5 570.5,-142.5 624.5,-142.5 624.5,-123.5 570.5,-123.5"/>
<text text-anchor="middle" x="597.5" y="-130.5" font-family="Helvetica,sans-Serif" font-size="10.00">memory</text>
</g>
<!-- Node1&#45;&gt;Node2 -->
<g id="edge1" class="edge"><title>Node1&#45;&gt;Node2</title>
<path fill="none" stroke="midnightblue" d="M544.282,-291.482C551.837,-274.258 569.055,-233.951 580.5,-199 585.553,-183.567 590.138,-165.697 593.269,-152.604"/>
<polygon fill="midnightblue" stroke="midnightblue" points="596.761,-153.043 595.622,-142.509 589.944,-151.454 596.761,-153.043"/>
</g>
<!-- Node3 -->
<g id="node3" class="node"><title>Node3</title>
<g id="a_node3"><a xlink:href="audio__system_8hpp.html" target="_top" xlink:title="Declaration of the AudioSystem class. ">
<polygon fill="white" stroke="black" points="788,-235.5 788,-254.5 925,-254.5 925,-235.5 788,-235.5"/>
<text text-anchor="middle" x="856.5" y="-242.5" font-family="Helvetica,sans-Serif" font-size="10.00">../audio/audio_system.hpp</text>
</a>
</g>
</g>
<!-- Node1&#45;&gt;Node3 -->
<g id="edge2" class="edge"><title>Node1&#45;&gt;Node3</title>
<path fill="none" stroke="midnightblue" d="M590.571,-291.444C646.506,-281.885 737.008,-266.419 796.637,-256.23"/>
<polygon fill="midnightblue" stroke="midnightblue" points="797.396,-259.651 806.663,-254.516 796.216,-252.751 797.396,-259.651"/>
</g>
<!-- Node22 -->
<g id="node22" class="node"><title>Node22</title>
<g id="a_node22"><a xlink:href="audio_8hpp.html" target="_top" xlink:title="Declaration of the Audio class. ">
<polygon fill="white" stroke="black" points="509.5,-179.5 509.5,-198.5 571.5,-198.5 571.5,-179.5 509.5,-179.5"/>
<text text-anchor="middle" x="540.5" y="-186.5" font-family="Helvetica,sans-Serif" font-size="10.00">audio.hpp</text>
</a>
</g>
</g>
<!-- Node1&#45;&gt;Node22 -->
<g id="edge47" class="edge"><title>Node1&#45;&gt;Node22</title>
<path fill="none" stroke="midnightblue" d="M540.5,-291.368C540.5,-273.617 540.5,-232.666 540.5,-208.597"/>
<polygon fill="midnightblue" stroke="midnightblue" points="544,-208.591 540.5,-198.591 537,-208.591 544,-208.591"/>
</g>
<!-- Node23 -->
<g id="node23" class="node"><title>Node23</title>
<g id="a_node23"><a xlink:href="io__response_8hpp.html" target="_top" xlink:title="Declaration of classes pertaining to responses to the client. ">
<polygon fill="white" stroke="black" points="206.5,-123.5 206.5,-142.5 320.5,-142.5 320.5,-123.5 206.5,-123.5"/>
<text text-anchor="middle" x="263.5" y="-130.5" font-family="Helvetica,sans-Serif" font-size="10.00">../io/io_response.hpp</text>
</a>
</g>
</g>
<!-- Node1&#45;&gt;Node23 -->
<g id="edge48" class="edge"><title>Node1&#45;&gt;Node23</title>
<path fill="none" stroke="midnightblue" d="M525.997,-291.309C480.748,-264.192 341.895,-180.98 286.585,-147.834"/>
<polygon fill="midnightblue" stroke="midnightblue" points="288.236,-144.743 277.859,-142.605 284.638,-150.748 288.236,-144.743"/>
</g>
<!-- Node26 -->
<g id="node26" class="node"><title>Node26</title>
<g id="a_node26"><a xlink:href="player__position_8hpp.html" target="_top" xlink:title="Declaration of the PlayerPosition class. ">
<polygon fill="white" stroke="black" points="209,-179.5 209,-198.5 318,-198.5 318,-179.5 209,-179.5"/>
<text text-anchor="middle" x="263.5" y="-186.5" font-family="Helvetica,sans-Serif" font-size="10.00">player_position.hpp</text>
</a>
</g>
</g>
<!-- Node1&#45;&gt;Node26 -->
<g id="edge49" class="edge"><title>Node1&#45;&gt;Node26</title>
<path fill="none" stroke="midnightblue" d="M497.44,-291.478C463.538,-284.008 415.495,-271.724 375.5,-255 341.925,-240.961 306.029,-218.687 284.172,-204.206"/>
<polygon fill="midnightblue" stroke="midnightblue" points="285.965,-201.194 275.712,-198.523 282.062,-207.005 285.965,-201.194"/>
</g>
<!-- Node4 -->
<g id="node4" class="node"><title>Node4</title>
<polygon fill="white" stroke="#bfbfbf" points="604,-62 604,-81 647,-81 647,-62 604,-62"/>
<text text-anchor="middle" x="625.5" y="-69" font-family="Helvetica,sans-Serif" font-size="10.00">string</text>
</g>
<!-- Node3&#45;&gt;Node4 -->
<g id="edge3" class="edge"><title>Node3&#45;&gt;Node4</title>
<path fill="none" stroke="midnightblue" d="M925.104,-238.269C1073.38,-224.604 1405.71,-186.431 1345.5,-123 1292.65,-67.3185 729.862,-106.081 655.5,-87 653.567,-86.504 651.61,-85.8783 649.671,-85.1669"/>
<polygon fill="midnightblue" stroke="midnightblue" points="650.881,-81.8766 640.314,-81.0994 648.09,-88.2962 650.881,-81.8766"/>
</g>
<!-- Node5 -->
<g id="node5" class="node"><title>Node5</title>
<polygon fill="white" stroke="#bfbfbf" points="642.5,-123.5 642.5,-142.5 682.5,-142.5 682.5,-123.5 642.5,-123.5"/>
<text text-anchor="middle" x="662.5" y="-130.5" font-family="Helvetica,sans-Serif" font-size="10.00">utility</text>
</g>
<!-- Node3&#45;&gt;Node5 -->
<g id="edge4" class="edge"><title>Node3&#45;&gt;Node5</title>
<path fill="none" stroke="midnightblue" d="M856.41,-235.464C855.781,-221.568 852.451,-194.095 836.5,-179 790.532,-135.499 758.567,-158.432 692.706,-143.01"/>
<polygon fill="midnightblue" stroke="midnightblue" points="693.294,-139.547 682.738,-140.443 691.549,-146.326 693.294,-139.547"/>
</g>
<!-- Node6 -->
<g id="node6" class="node"><title>Node6</title>
<polygon fill="white" stroke="#bfbfbf" points="637,-179.5 637,-198.5 828,-198.5 828,-179.5 637,-179.5"/>
<text text-anchor="middle" x="732.5" y="-186.5" font-family="Helvetica,sans-Serif" font-size="10.00">portaudiocpp/SampleDataFormat.hxx</text>
</g>
<!-- Node3&#45;&gt;Node6 -->
<g id="edge5" class="edge"><title>Node3&#45;&gt;Node6</title>
<path fill="none" stroke="midnightblue" d="M836.852,-235.444C816.535,-226.596 784.597,-212.687 761.402,-202.586"/>
<polygon fill="midnightblue" stroke="midnightblue" points="762.622,-199.3 752.056,-198.516 759.827,-205.718 762.622,-199.3"/>
</g>
<!-- Node7 -->
<g id="node7" class="node"><title>Node7</title>
<polygon fill="white" stroke="#bfbfbf" points="1202.5,-123.5 1202.5,-142.5 1336.5,-142.5 1336.5,-123.5 1202.5,-123.5"/>
<text text-anchor="middle" x="1269.5" y="-130.5" font-family="Helvetica,sans-Serif" font-size="10.00">portaudiocpp/Stream.hxx</text>
</g>
<!-- Node3&#45;&gt;Node7 -->
<g id="edge6" class="edge"><title>Node3&#45;&gt;Node7</title>
<path fill="none" stroke="midnightblue" d="M888.564,-235.46C962.52,-215.762 1145.02,-167.154 1227.65,-145.146"/>
<polygon fill="midnightblue" stroke="midnightblue" points="1228.69,-148.49 1237.46,-142.535 1226.89,-141.726 1228.69,-148.49"/>
</g>
<!-- Node8 -->
<g id="node8" class="node"><title>Node8</title>
<g id="a_node8"><a xlink:href="sample__formats_8hpp.html" target="_top" xlink:title="The SampleFormat enumeration. ">
<polygon fill="white" stroke="black" points="665,-62 665,-81 784,-81 784,-62 665,-62"/>
<text text-anchor="middle" x="724.5" y="-69" font-family="Helvetica,sans-Serif" font-size="10.00">../sample_formats.hpp</text>
</a>
</g>
</g>
<!-- Node3&#45;&gt;Node8 -->
<g id="edge7" class="edge"><title>Node3&#45;&gt;Node8</title>
<path fill="none" stroke="midnightblue" d="M925.147,-243.137C1059.87,-240.727 1348.44,-231.758 1378.5,-199 1401.34,-174.111 1401.45,-147.787 1378.5,-123 1358.86,-101.782 958.655,-82.4421 794.167,-75.3578"/>
<polygon fill="midnightblue" stroke="midnightblue" points="794.291,-71.8601 784.151,-74.9291 793.992,-78.8537 794.291,-71.8601"/>
</g>
<!-- Node10 -->
<g id="node10" class="node"><title>Node10</title>
<g id="a_node10"><a xlink:href="audio__sink_8hpp.html" target="_top" xlink:title="Declaration of the AudioSink class. ">
<polygon fill="white" stroke="black" points="892,-179.5 892,-198.5 979,-198.5 979,-179.5 892,-179.5"/>
<text text-anchor="middle" x="935.5" y="-186.5" font-family="Helvetica,sans-Serif" font-size="10.00">audio_sink.hpp</text>
</a>
</g>
</g>
<!-- Node3&#45;&gt;Node10 -->
<g id="edge9" class="edge"><title>Node3&#45;&gt;Node10</title>
<path fill="none" stroke="midnightblue" d="M869.193,-235.324C881.401,-226.979 900.078,-214.212 914.503,-204.352"/>
<polygon fill="midnightblue" stroke="midnightblue" points="916.558,-207.187 922.839,-198.655 912.608,-201.408 916.558,-207.187"/>
</g>
<!-- Node14 -->
<g id="node14" class="node"><title>Node14</title>
<g id="a_node14"><a xlink:href="audio__source_8hpp.html" target="_top" xlink:title="Declaration of the AudioSource class. ">
<polygon fill="white" stroke="black" points="414.5,-123.5 414.5,-142.5 514.5,-142.5 514.5,-123.5 414.5,-123.5"/>
<text text-anchor="middle" x="464.5" y="-130.5" font-family="Helvetica,sans-Serif" font-size="10.00">audio_source.hpp</text>
</a>
</g>
</g>
<!-- Node3&#45;&gt;Node14 -->
<g id="edge30" class="edge"><title>Node3&#45;&gt;Node14</title>
<path fill="none" stroke="midnightblue" d="M787.996,-242.596C697.994,-239.54 546.018,-229.832 500.5,-199 484.515,-188.172 474.915,-167.787 469.699,-152.721"/>
<polygon fill="midnightblue" stroke="midnightblue" points="472.958,-151.414 466.647,-142.904 466.274,-153.492 472.958,-151.414"/>
</g>
<!-- Node3&#45;&gt;Node22 -->
<g id="edge31" class="edge"><title>Node3&#45;&gt;Node22</title>
<path fill="none" stroke="midnightblue" d="M806.429,-235.444C744.207,-224.811 639.21,-206.868 581.519,-197.01"/>
<polygon fill="midnightblue" stroke="midnightblue" points="582.105,-193.559 571.658,-195.325 580.926,-200.459 582.105,-193.559"/>
</g>
<!-- Node9 -->
<g id="node9" class="node"><title>Node9</title>
<polygon fill="white" stroke="#bfbfbf" points="393,-0.5 393,-19.5 440,-19.5 440,-0.5 393,-0.5"/>
<text text-anchor="middle" x="416.5" y="-7.5" font-family="Helvetica,sans-Serif" font-size="10.00">cstdint</text>
</g>
<!-- Node8&#45;&gt;Node9 -->
<g id="edge8" class="edge"><title>Node8&#45;&gt;Node9</title>
<path fill="none" stroke="midnightblue" d="M684.758,-61.9995C675.185,-59.9931 664.984,-57.8891 655.5,-56 582.509,-41.4608 496.723,-25.6089 450.368,-17.1451"/>
<polygon fill="midnightblue" stroke="midnightblue" points="450.743,-13.656 440.278,-15.3059 449.488,-20.5425 450.743,-13.656"/>
</g>
<!-- Node10&#45;&gt;Node2 -->
<g id="edge11" class="edge"><title>Node10&#45;&gt;Node2</title>
<path fill="none" stroke="midnightblue" d="M891.761,-182.836C834.772,-175.81 731.865,-162.108 634.566,-143.048"/>
<polygon fill="midnightblue" stroke="midnightblue" points="635.053,-139.576 624.563,-141.065 633.692,-146.443 635.053,-139.576"/>
</g>
<!-- Node10&#45;&gt;Node4 -->
<g id="edge12" class="edge"><title>Node10&#45;&gt;Node4</title>
<path fill="none" stroke="midnightblue" d="M959.915,-179.416C989.512,-167.745 1033.03,-145.708 1012.5,-123 959.022,-63.8575 732.232,-108.68 655.5,-87 653.621,-86.4692 651.716,-85.8263 649.825,-85.1101"/>
<polygon fill="midnightblue" stroke="midnightblue" points="651.228,-81.9035 640.664,-81.098 648.42,-88.3156 651.228,-81.9035"/>
</g>
<!-- Node10&#45;&gt;Node5 -->
<g id="edge13" class="edge"><title>Node10&#45;&gt;Node5</title>
<path fill="none" stroke="midnightblue" d="M891.975,-181.57C845.02,-174.28 767.912,-161.289 692.798,-143.086"/>
<polygon fill="midnightblue" stroke="midnightblue" points="693.242,-139.591 682.696,-140.603 691.571,-146.389 693.242,-139.591"/>
</g>
<!-- Node10&#45;&gt;Node7 -->
<g id="edge17" class="edge"><title>Node10&#45;&gt;Node7</title>
<path fill="none" stroke="midnightblue" d="M979.165,-180.94C1037.27,-171.545 1140.4,-154.872 1206.81,-144.135"/>
<polygon fill="midnightblue" stroke="midnightblue" points="1207.43,-147.581 1216.74,-142.53 1206.31,-140.671 1207.43,-147.581"/>
</g>
<!-- Node10&#45;&gt;Node9 -->
<g id="edge10" class="edge"><title>Node10&#45;&gt;Node9</title>
<path fill="none" stroke="midnightblue" d="M968.933,-179.475C1003.4,-169.035 1049.49,-149.425 1029.5,-123 958.77,-29.5024 568.429,-14.041 450.349,-11.4976"/>
<polygon fill="midnightblue" stroke="midnightblue" points="450.171,-7.99347 440.104,-11.2952 450.033,-14.9921 450.171,-7.99347"/>
</g>
<!-- Node11 -->
<g id="node11" class="node"><title>Node11</title>
<polygon fill="white" stroke="#bfbfbf" points="383.5,-62 383.5,-81 429.5,-81 429.5,-62 383.5,-62"/>
<text text-anchor="middle" x="406.5" y="-69" font-family="Helvetica,sans-Serif" font-size="10.00">vector</text>
</g>
<!-- Node10&#45;&gt;Node11 -->
<g id="edge14" class="edge"><title>Node10&#45;&gt;Node11</title>
<path fill="none" stroke="midnightblue" d="M948.408,-179.365C966.467,-166.274 995.279,-141.025 978.5,-123 940.398,-82.0681 531.89,-94.6883 476.5,-87 464.453,-85.3278 451.371,-82.811 439.812,-80.3413"/>
<polygon fill="midnightblue" stroke="midnightblue" points="440.218,-76.8467 429.699,-78.112 438.711,-83.6826 440.218,-76.8467"/>
</g>
<!-- Node12 -->
<g id="node12" class="node"><title>Node12</title>
<polygon fill="white" stroke="#bfbfbf" points="901,-123.5 901,-142.5 970,-142.5 970,-123.5 901,-123.5"/>
<text text-anchor="middle" x="935.5" y="-130.5" font-family="Helvetica,sans-Serif" font-size="10.00">portaudio.h</text>
</g>
<!-- Node10&#45;&gt;Node12 -->
<g id="edge15" class="edge"><title>Node10&#45;&gt;Node12</title>
<path fill="none" stroke="midnightblue" d="M935.5,-179.083C935.5,-172.006 935.5,-161.861 935.5,-152.986"/>
<polygon fill="midnightblue" stroke="midnightblue" points="939,-152.751 935.5,-142.751 932,-152.751 939,-152.751"/>
</g>
<!-- Node13 -->
<g id="node13" class="node"><title>Node13</title>
<polygon fill="white" stroke="#bfbfbf" points="700.5,-123.5 700.5,-142.5 882.5,-142.5 882.5,-123.5 700.5,-123.5"/>
<text text-anchor="middle" x="791.5" y="-130.5" font-family="Helvetica,sans-Serif" font-size="10.00">portaudiocpp/CallbackInterface.hxx</text>
</g>
<!-- Node10&#45;&gt;Node13 -->
<g id="edge16" class="edge"><title>Node10&#45;&gt;Node13</title>
<path fill="none" stroke="midnightblue" d="M912.683,-179.444C888.668,-170.438 850.671,-156.189 823.631,-146.049"/>
<polygon fill="midnightblue" stroke="midnightblue" points="824.803,-142.751 814.21,-142.516 822.345,-149.305 824.803,-142.751"/>
</g>
<!-- Node10&#45;&gt;Node14 -->
<g id="edge18" class="edge"><title>Node10&#45;&gt;Node14</title>
<path fill="none" stroke="midnightblue" d="M891.612,-182.968C807.001,-173.268 621.19,-151.964 524.948,-140.93"/>
<polygon fill="midnightblue" stroke="midnightblue" points="525.127,-137.428 514.794,-139.766 524.33,-144.382 525.127,-137.428"/>
</g>
<!-- Node20 -->
<g id="node20" class="node"><title>Node20</title>
<g id="a_node20"><a xlink:href="ringbuffer_8hpp.html" target="_top" xlink:title="The RingBuffer class template. ">
<polygon fill="white" stroke="black" points="1103,-123.5 1103,-142.5 1184,-142.5 1184,-123.5 1103,-123.5"/>
<text text-anchor="middle" x="1143.5" y="-130.5" font-family="Helvetica,sans-Serif" font-size="10.00">ringbuffer.hpp</text>
</a>
</g>
</g>
<!-- Node10&#45;&gt;Node20 -->
<g id="edge28" class="edge"><title>Node10&#45;&gt;Node20</title>
<path fill="none" stroke="midnightblue" d="M968.458,-179.444C1004.29,-170.142 1061.66,-155.246 1100.89,-145.062"/>
<polygon fill="midnightblue" stroke="midnightblue" points="1101.9,-148.417 1110.7,-142.516 1100.14,-141.642 1101.9,-148.417"/>
</g>
<!-- Node14&#45;&gt;Node4 -->
<g id="edge21" class="edge"><title>Node14&#45;&gt;Node4</title>
<path fill="none" stroke="midnightblue" d="M491.946,-123.421C518.469,-114.914 559.643,-101.14 594.5,-87 595.876,-86.4416 597.28,-85.854 598.691,-85.2482"/>
<polygon fill="midnightblue" stroke="midnightblue" points="600.243,-88.3884 607.936,-81.1033 597.379,-82.0011 600.243,-88.3884"/>
</g>
<!-- Node14&#45;&gt;Node8 -->
<g id="edge27" class="edge"><title>Node14&#45;&gt;Node8</title>
<path fill="none" stroke="midnightblue" d="M501.752,-123.475C547.992,-112.893 626.899,-94.8356 677.322,-83.2966"/>
<polygon fill="midnightblue" stroke="midnightblue" points="678.35,-86.6518 687.317,-81.0091 676.789,-79.8282 678.35,-86.6518"/>
</g>
<!-- Node14&#45;&gt;Node9 -->
<g id="edge20" class="edge"><title>Node14&#45;&gt;Node9</title>
<path fill="none" stroke="midnightblue" d="M461.955,-123.437C457.647,-109.228 448.413,-79.9689 438.5,-56 434.719,-46.8591 429.955,-36.9569 425.827,-28.7747"/>
<polygon fill="midnightblue" stroke="midnightblue" points="428.905,-27.1051 421.217,-19.814 422.68,-30.3074 428.905,-27.1051"/>
</g>
<!-- Node14&#45;&gt;Node11 -->
<g id="edge22" class="edge"><title>Node14&#45;&gt;Node11</title>
<path fill="none" stroke="midnightblue" d="M456.19,-123.475C447.318,-114.373 433.054,-99.741 422.08,-88.483"/>
<polygon fill="midnightblue" stroke="midnightblue" points="424.281,-85.7268 414.795,-81.0091 419.269,-90.613 424.281,-85.7268"/>
</g>
<!-- Node15 -->
<g id="node15" class="node"><title>Node15</title>
<polygon fill="white" stroke="#bfbfbf" points="486,-62 486,-81 527,-81 527,-62 486,-62"/>
<text text-anchor="middle" x="506.5" y="-69" font-family="Helvetica,sans-Serif" font-size="10.00">array</text>
</g>
<!-- Node14&#45;&gt;Node15 -->
<g id="edge19" class="edge"><title>Node14&#45;&gt;Node15</title>
<path fill="none" stroke="midnightblue" d="M470.518,-123.475C476.755,-114.638 486.673,-100.589 494.518,-89.475"/>
<polygon fill="midnightblue" stroke="midnightblue" points="497.586,-91.1972 500.494,-81.0091 491.867,-87.1604 497.586,-91.1972"/>
</g>
<!-- Node16 -->
<g id="node16" class="node"><title>Node16</title>
<polygon fill="white" stroke="#bfbfbf" points="545,-62 545,-81 586,-81 586,-62 545,-62"/>
<text text-anchor="middle" x="565.5" y="-69" font-family="Helvetica,sans-Serif" font-size="10.00">sox.h</text>
</g>
<!-- Node14&#45;&gt;Node16 -->
<g id="edge23" class="edge"><title>Node14&#45;&gt;Node16</title>
<path fill="none" stroke="midnightblue" d="M478.971,-123.475C495.471,-113.755 522.678,-97.7266 542.181,-86.2372"/>
<polygon fill="midnightblue" stroke="midnightblue" points="544.216,-89.1005 551.056,-81.0091 540.663,-83.0693 544.216,-89.1005"/>
</g>
<!-- Node17 -->
<g id="node17" class="node"><title>Node17</title>
<g id="a_node17"><a xlink:href="errors_8hpp.html" target="_top" xlink:title="Declarations of the playd Error exception set. ">
<polygon fill="white" stroke="black" points="216,-62 216,-81 289,-81 289,-62 216,-62"/>
<text text-anchor="middle" x="252.5" y="-69" font-family="Helvetica,sans-Serif" font-size="10.00">../errors.hpp</text>
</a>
</g>
</g>
<!-- Node14&#45;&gt;Node17 -->
<g id="edge24" class="edge"><title>Node14&#45;&gt;Node17</title>
<path fill="none" stroke="midnightblue" d="M434.126,-123.475C396.894,-113.026 333.69,-95.2868 292.524,-83.7332"/>
<polygon fill="midnightblue" stroke="midnightblue" points="293.392,-80.3416 282.818,-81.0091 291.5,-87.0811 293.392,-80.3416"/>
</g>
<!-- Node18 -->
<g id="node18" class="node"><title>Node18</title>
<polygon fill="white" stroke="#bfbfbf" points="204,-0.5 204,-19.5 261,-19.5 261,-0.5 204,-0.5"/>
<text text-anchor="middle" x="232.5" y="-7.5" font-family="Helvetica,sans-Serif" font-size="10.00">iostream</text>
</g>
<!-- Node17&#45;&gt;Node18 -->
<g id="edge25" class="edge"><title>Node17&#45;&gt;Node18</title>
<path fill="none" stroke="midnightblue" d="M249.634,-61.9751C246.783,-53.4919 242.317,-40.2043 238.659,-29.3222"/>
<polygon fill="midnightblue" stroke="midnightblue" points="241.864,-27.8727 235.36,-19.5091 235.229,-30.1031 241.864,-27.8727"/>
</g>
<!-- Node19 -->
<g id="node19" class="node"><title>Node19</title>
<polygon fill="white" stroke="#bfbfbf" points="279.5,-0.5 279.5,-19.5 333.5,-19.5 333.5,-0.5 279.5,-0.5"/>
<text text-anchor="middle" x="306.5" y="-7.5" font-family="Helvetica,sans-Serif" font-size="10.00">sstream</text>
</g>
<!-- Node17&#45;&gt;Node19 -->
<g id="edge26" class="edge"><title>Node17&#45;&gt;Node19</title>
<path fill="none" stroke="midnightblue" d="M260.237,-61.9751C268.497,-52.8733 281.777,-38.241 291.994,-26.983"/>
<polygon fill="midnightblue" stroke="midnightblue" points="294.649,-29.2663 298.777,-19.5091 289.465,-24.5619 294.649,-29.2663"/>
</g>
<!-- Node21 -->
<g id="node21" class="node"><title>Node21</title>
<polygon fill="white" stroke="#bfbfbf" points="1103,-56.5 1103,-86.5 1224,-86.5 1224,-56.5 1103,-56.5"/>
<text text-anchor="start" x="1111" y="-74.5" font-family="Helvetica,sans-Serif" font-size="10.00">../contrib/pa_ringbuffer</text>
<text text-anchor="middle" x="1163.5" y="-63.5" font-family="Helvetica,sans-Serif" font-size="10.00">/pa_ringbuffer.h</text>
</g>
<!-- Node20&#45;&gt;Node21 -->
<g id="edge29" class="edge"><title>Node20&#45;&gt;Node21</title>
<path fill="none" stroke="midnightblue" d="M1146.37,-123.475C1148.77,-116.32 1152.32,-105.748 1155.57,-96.0841"/>
<polygon fill="midnightblue" stroke="midnightblue" points="1158.92,-97.117 1158.79,-86.523 1152.28,-94.8866 1158.92,-97.117"/>
</g>
<!-- Node22&#45;&gt;Node2 -->
<g id="edge33" class="edge"><title>Node22&#45;&gt;Node2</title>
<path fill="none" stroke="midnightblue" d="M549.658,-179.324C558.001,-171.42 570.532,-159.548 580.677,-149.938"/>
<polygon fill="midnightblue" stroke="midnightblue" points="583.323,-152.252 588.175,-142.834 578.509,-147.171 583.323,-152.252"/>
</g>
<!-- Node22&#45;&gt;Node4 -->
<g id="edge34" class="edge"><title>Node22&#45;&gt;Node4</title>
<path fill="none" stroke="midnightblue" d="M541.661,-179.288C543.762,-166.098 549.178,-140.72 561.5,-123 571.808,-108.177 587.734,-95.5875 601.12,-86.6861"/>
<polygon fill="midnightblue" stroke="midnightblue" points="603.31,-89.4417 609.881,-81.1307 599.561,-83.53 603.31,-89.4417"/>
</g>
<!-- Node22&#45;&gt;Node5 -->
<g id="edge35" class="edge"><title>Node22&#45;&gt;Node5</title>
<path fill="none" stroke="midnightblue" d="M559.831,-179.444C579.82,-170.596 611.243,-156.687 634.064,-146.586"/>
<polygon fill="midnightblue" stroke="midnightblue" points="635.532,-149.764 643.259,-142.516 632.698,-143.363 635.532,-149.764"/>
</g>
<!-- Node22&#45;&gt;Node9 -->
<g id="edge32" class="edge"><title>Node22&#45;&gt;Node9</title>
<path fill="none" stroke="midnightblue" d="M509.363,-186.364C476.696,-183.022 425.833,-172.982 394.5,-143 365.834,-115.57 359.951,-92.9113 374.5,-56 379.014,-44.5479 387.969,-34.291 396.455,-26.4724"/>
<polygon fill="midnightblue" stroke="midnightblue" points="398.969,-28.9275 404.286,-19.7638 394.415,-23.6113 398.969,-28.9275"/>
</g>
<!-- Node22&#45;&gt;Node11 -->
<g id="edge36" class="edge"><title>Node22&#45;&gt;Node11</title>
<path fill="none" stroke="midnightblue" d="M509.318,-187.433C477.338,-184.979 429.046,-175.668 405.5,-143 394.787,-128.137 396.943,-106.555 400.582,-91.1912"/>
<polygon fill="midnightblue" stroke="midnightblue" points="404.028,-91.8596 403.331,-81.2878 397.283,-89.9874 404.028,-91.8596"/>
</g>
<!-- Node22&#45;&gt;Node12 -->
<g id="edge37" class="edge"><title>Node22&#45;&gt;Node12</title>
<path fill="none" stroke="midnightblue" d="M571.602,-184.797C631.359,-178.475 766.548,-163.359 890.882,-142.985"/>
<polygon fill="midnightblue" stroke="midnightblue" points="891.663,-146.403 900.958,-141.318 890.521,-139.497 891.663,-146.403"/>
</g>
<!-- Node22&#45;&gt;Node13 -->
<g id="edge38" class="edge"><title>Node22&#45;&gt;Node13</title>
<path fill="none" stroke="midnightblue" d="M571.529,-181.324C614.109,-172.164 691.126,-155.594 741.793,-144.694"/>
<polygon fill="midnightblue" stroke="midnightblue" points="742.829,-148.051 751.87,-142.526 741.357,-141.208 742.829,-148.051"/>
</g>
<!-- Node22&#45;&gt;Node14 -->
<g id="edge46" class="edge"><title>Node22&#45;&gt;Node14</title>
<path fill="none" stroke="midnightblue" d="M528.289,-179.324C516.724,-171.107 499.125,-158.602 485.339,-148.807"/>
<polygon fill="midnightblue" stroke="midnightblue" points="487.112,-145.773 476.933,-142.834 483.057,-151.479 487.112,-145.773"/>
</g>
<!-- Node22&#45;&gt;Node23 -->
<g id="edge39" class="edge"><title>Node22&#45;&gt;Node23</title>
<path fill="none" stroke="midnightblue" d="M509.263,-181.91C462.68,-172.829 374.385,-155.617 317.284,-144.485"/>
<polygon fill="midnightblue" stroke="midnightblue" points="317.837,-141.027 307.352,-142.549 316.498,-147.898 317.837,-141.027"/>
</g>
<!-- Node23&#45;&gt;Node4 -->
<g id="edge43" class="edge"><title>Node23&#45;&gt;Node4</title>
<path fill="none" stroke="midnightblue" d="M320.517,-129.476C387.357,-125.329 500.897,-114.557 594.5,-87 596.381,-86.4463 598.292,-85.7943 600.194,-85.0787"/>
<polygon fill="midnightblue" stroke="midnightblue" points="601.626,-88.273 609.451,-81.13 598.88,-81.8344 601.626,-88.273"/>
</g>
<!-- Node23&#45;&gt;Node9 -->
<g id="edge40" class="edge"><title>Node23&#45;&gt;Node9</title>
<path fill="none" stroke="midnightblue" d="M271.126,-123.353C284.475,-108.511 313.342,-77.6924 341.5,-56 356.894,-44.1412 375.638,-32.8938 390.537,-24.6098"/>
<polygon fill="midnightblue" stroke="midnightblue" points="392.592,-27.4757 399.699,-19.6173 389.243,-21.3291 392.592,-27.4757"/>
</g>
<!-- Node23&#45;&gt;Node11 -->
<g id="edge44" class="edge"><title>Node23&#45;&gt;Node11</title>
<path fill="none" stroke="midnightblue" d="M283.988,-123.475C308.306,-113.357 349.049,-96.4046 376.817,-84.8507"/>
<polygon fill="midnightblue" stroke="midnightblue" points="378.161,-88.0822 386.05,-81.0091 375.472,-81.6193 378.161,-88.0822"/>
</g>
<!-- Node23&#45;&gt;Node17 -->
<g id="edge45" class="edge"><title>Node23&#45;&gt;Node17</title>
<path fill="none" stroke="midnightblue" d="M261.924,-123.475C260.372,-115.08 257.95,-101.981 255.95,-91.1631"/>
<polygon fill="midnightblue" stroke="midnightblue" points="259.333,-90.2062 254.073,-81.0091 252.449,-91.4788 259.333,-90.2062"/>
</g>
<!-- Node24 -->
<g id="node24" class="node"><title>Node24</title>
<polygon fill="white" stroke="#bfbfbf" points="88,-62 88,-81 125,-81 125,-62 88,-62"/>
<text text-anchor="middle" x="106.5" y="-69" font-family="Helvetica,sans-Serif" font-size="10.00">map</text>
</g>
<!-- Node23&#45;&gt;Node24 -->
<g id="edge41" class="edge"><title>Node23&#45;&gt;Node24</title>
<path fill="none" stroke="midnightblue" d="M234.594,-123.452C207.911,-115.222 167.406,-101.859 133.5,-87 132.501,-86.5622 131.489,-86.1015 130.472,-85.6244"/>
<polygon fill="midnightblue" stroke="midnightblue" points="131.931,-82.4402 121.426,-81.0628 128.779,-88.6905 131.931,-82.4402"/>
</g>
<!-- Node25 -->
<g id="node25" class="node"><title>Node25</title>
<polygon fill="white" stroke="#bfbfbf" points="143,-62 143,-81 198,-81 198,-62 143,-62"/>
<text text-anchor="middle" x="170.5" y="-69" font-family="Helvetica,sans-Serif" font-size="10.00">ostream</text>
</g>
<!-- Node23&#45;&gt;Node25 -->
<g id="edge42" class="edge"><title>Node23&#45;&gt;Node25</title>
<path fill="none" stroke="midnightblue" d="M250.175,-123.475C235.12,-113.843 210.384,-98.0175 192.463,-86.5517"/>
<polygon fill="midnightblue" stroke="midnightblue" points="194.11,-83.4501 183.8,-81.0091 190.337,-89.3466 194.11,-83.4501"/>
</g>
<!-- Node26&#45;&gt;Node9 -->
<g id="edge50" class="edge"><title>Node26&#45;&gt;Node9</title>
<path fill="none" stroke="midnightblue" d="M230.139,-179.446C164.102,-161.003 27.3583,-114.402 78.5,-56 81.007,-53.1371 297.715,-25.8207 382.774,-15.1972"/>
<polygon fill="midnightblue" stroke="midnightblue" points="383.449,-18.6403 392.939,-13.929 382.582,-11.6941 383.449,-18.6403"/>
</g>
<!-- Node26&#45;&gt;Node14 -->
<g id="edge52" class="edge"><title>Node26&#45;&gt;Node14</title>
<path fill="none" stroke="midnightblue" d="M295.349,-179.444C329.898,-170.162 385.182,-155.309 423.083,-145.127"/>
<polygon fill="midnightblue" stroke="midnightblue" points="424.051,-148.491 432.8,-142.516 422.234,-141.731 424.051,-148.491"/>
</g>
<!-- Node26&#45;&gt;Node23 -->
<g id="edge53" class="edge"><title>Node26&#45;&gt;Node23</title>
<path fill="none" stroke="midnightblue" d="M263.5,-179.083C263.5,-172.006 263.5,-161.861 263.5,-152.986"/>
<polygon fill="midnightblue" stroke="midnightblue" points="267,-152.751 263.5,-142.751 260,-152.751 267,-152.751"/>
</g>
<!-- Node27 -->
<g id="node27" class="node"><title>Node27</title>
<polygon fill="white" stroke="#bfbfbf" points="0,-123.5 0,-142.5 31,-142.5 31,-123.5 0,-123.5"/>
<text text-anchor="middle" x="15.5" y="-130.5" font-family="Helvetica,sans-Serif" font-size="10.00">set</text>
</g>
<!-- Node26&#45;&gt;Node27 -->
<g id="edge51" class="edge"><title>Node26&#45;&gt;Node27</title>
<path fill="none" stroke="midnightblue" d="M216.024,-179.446C171.678,-171.163 103.762,-157.722 45.5,-143 44.0502,-142.634 42.5657,-142.242 41.0707,-141.835"/>
<polygon fill="midnightblue" stroke="midnightblue" points="41.8863,-138.428 31.3084,-139.026 39.9506,-145.155 41.8863,-138.428"/>
</g>
</g>
</svg>
