<?xml version="1.0" encoding="UTF-8" standalone="no"?>
<!DOCTYPE svg PUBLIC "-//W3C//DTD SVG 1.1//EN"
 "http://www.w3.org/Graphics/SVG/1.1/DTD/svg11.dtd">
<!-- Generated by graphviz version 2.38.0 (20140413.2041)
 -->
<!-- Title: src/player/player_position.hpp Pages: 1 -->
<svg width="765pt" height="196pt"
 viewBox="0.00 0.00 764.50 196.00" xmlns="http://www.w3.org/2000/svg" xmlns:xlink="http://www.w3.org/1999/xlink">
<g id="graph0" class="graph" transform="scale(1 1) rotate(0) translate(4 192)">
<title>src/player/player_position.hpp</title>
<polygon fill="white" stroke="none" points="-4,4 -4,-192 760.5,-192 760.5,4 -4,4"/>
<!-- Node1 -->
<g id="node1" class="node"><title>Node1</title>
<polygon fill="#bfbfbf" stroke="black" points="226.5,-168.5 226.5,-187.5 385.5,-187.5 385.5,-168.5 226.5,-168.5"/>
<text text-anchor="middle" x="306" y="-175.5" font-family="Helvetica,sans-Serif" font-size="10.00">src/player/player_position.hpp</text>
</g>
<!-- Node2 -->
<g id="node2" class="node"><title>Node2</title>
<polygon fill="white" stroke="#bfbfbf" points="197,-112.5 197,-131.5 229,-131.5 229,-112.5 197,-112.5"/>
<text text-anchor="middle" x="213" y="-119.5" font-family="Helvetica,sans-Serif" font-size="10.00">set</text>
</g>
<!-- Node1&#45;&gt;Node2 -->
<g id="edge1" class="edge"><title>Node1&#45;&gt;Node2</title>
<path fill="none" stroke="midnightblue" d="M291.058,-168.324C276.415,-159.822 253.866,-146.729 236.762,-136.797"/>
<polygon fill="midnightblue" stroke="midnightblue" points="238.31,-133.649 227.905,-131.655 234.795,-139.703 238.31,-133.649"/>
</g>
<!-- Node3 -->
<g id="node3" class="node"><title>Node3</title>
<g id="a_node3"><a xlink:href="audio__source_8hpp.html" target="_top" xlink:title="Declaration of the AudioSource class. ">
<polygon fill="white" stroke="black" points="285,-112.5 285,-131.5 425,-131.5 425,-112.5 285,-112.5"/>
<text text-anchor="middle" x="355" y="-119.5" font-family="Helvetica,sans-Serif" font-size="10.00">../audio/audio_source.hpp</text>
</a>
</g>
</g>
<!-- Node1&#45;&gt;Node3 -->
<g id="edge2" class="edge"><title>Node1&#45;&gt;Node3</title>
<path fill="none" stroke="midnightblue" d="M314.091,-168.083C321.155,-160.298 331.588,-148.801 340.149,-139.367"/>
<polygon fill="midnightblue" stroke="midnightblue" points="342.931,-141.509 347.059,-131.751 337.747,-136.805 342.931,-141.509"/>
</g>
<!-- Node13 -->
<g id="node13" class="node"><title>Node13</title>
<g id="a_node13"><a xlink:href="time__parser_8hpp.html" target="_top" xlink:title="Declaration of the TimeParser class. ">
<polygon fill="white" stroke="black" points="0,-56.5 0,-75.5 104,-75.5 104,-56.5 0,-56.5"/>
<text text-anchor="middle" x="52" y="-63.5" font-family="Helvetica,sans-Serif" font-size="10.00">../time_parser.hpp</text>
</a>
</g>
</g>
<!-- Node1&#45;&gt;Node13 -->
<g id="edge21" class="edge"><title>Node1&#45;&gt;Node13</title>
<path fill="none" stroke="midnightblue" d="M299.507,-168.345C288.474,-154.279 264.656,-126.566 238,-112 215.999,-99.9778 155.291,-86.4902 109.163,-77.4437"/>
<polygon fill="midnightblue" stroke="midnightblue" points="109.748,-73.9922 99.265,-75.5264 108.417,-80.8644 109.748,-73.9922"/>
</g>
<!-- Node14 -->
<g id="node14" class="node"><title>Node14</title>
<g id="a_node14"><a xlink:href="io__response_8hpp.html" target="_top" xlink:title="Declaration of classes pertaining to responses to the client. ">
<polygon fill="white" stroke="black" points="506,-112.5 506,-131.5 622,-131.5 622,-112.5 506,-112.5"/>
<text text-anchor="middle" x="564" y="-119.5" font-family="Helvetica,sans-Serif" font-size="10.00">../io/io_response.hpp</text>
</a>
</g>
</g>
<!-- Node1&#45;&gt;Node14 -->
<g id="edge15" class="edge"><title>Node1&#45;&gt;Node14</title>
<path fill="none" stroke="midnightblue" d="M346.881,-168.444C391.983,-159.004 464.612,-143.802 513.302,-133.611"/>
<polygon fill="midnightblue" stroke="midnightblue" points="514.24,-136.991 523.31,-131.516 512.805,-130.139 514.24,-136.991"/>
</g>
<!-- Node4 -->
<g id="node4" class="node"><title>Node4</title>
<polygon fill="white" stroke="#bfbfbf" points="364.5,-56.5 364.5,-75.5 405.5,-75.5 405.5,-56.5 364.5,-56.5"/>
<text text-anchor="middle" x="385" y="-63.5" font-family="Helvetica,sans-Serif" font-size="10.00">array</text>
</g>
<!-- Node3&#45;&gt;Node4 -->
<g id="edge3" class="edge"><title>Node3&#45;&gt;Node4</title>
<path fill="none" stroke="midnightblue" d="M359.954,-112.083C364.104,-104.613 370.153,-93.7244 375.267,-84.5199"/>
<polygon fill="midnightblue" stroke="midnightblue" points="378.341,-86.1924 380.138,-75.7511 372.222,-82.7929 378.341,-86.1924"/>
</g>
<!-- Node5 -->
<g id="node5" class="node"><title>Node5</title>
<polygon fill="white" stroke="#bfbfbf" points="160.5,-0.5 160.5,-19.5 209.5,-19.5 209.5,-0.5 160.5,-0.5"/>
<text text-anchor="middle" x="185" y="-7.5" font-family="Helvetica,sans-Serif" font-size="10.00">cstdint</text>
</g>
<!-- Node3&#45;&gt;Node5 -->
<g id="edge4" class="edge"><title>Node3&#45;&gt;Node5</title>
<path fill="none" stroke="midnightblue" d="M341.912,-112.311C323.006,-99.7812 286.927,-75.9518 256,-56 239.703,-45.4866 221.194,-33.7622 207.16,-24.9171"/>
<polygon fill="midnightblue" stroke="midnightblue" points="208.98,-21.9271 198.653,-19.5621 205.251,-27.8512 208.98,-21.9271"/>
</g>
<!-- Node6 -->
<g id="node6" class="node"><title>Node6</title>
<polygon fill="white" stroke="#bfbfbf" points="581,-56.5 581,-75.5 625,-75.5 625,-56.5 581,-56.5"/>
<text text-anchor="middle" x="603" y="-63.5" font-family="Helvetica,sans-Serif" font-size="10.00">string</text>
</g>
<!-- Node3&#45;&gt;Node6 -->
<g id="edge5" class="edge"><title>Node3&#45;&gt;Node6</title>
<path fill="none" stroke="midnightblue" d="M401.378,-112.47C443.323,-104.512 506.971,-91.8326 570.866,-76.1388"/>
<polygon fill="midnightblue" stroke="midnightblue" points="571.842,-79.5029 580.705,-73.6983 570.157,-72.7087 571.842,-79.5029"/>
</g>
<!-- Node7 -->
<g id="node7" class="node"><title>Node7</title>
<polygon fill="white" stroke="#bfbfbf" points="423.5,-56.5 423.5,-75.5 470.5,-75.5 470.5,-56.5 423.5,-56.5"/>
<text text-anchor="middle" x="447" y="-63.5" font-family="Helvetica,sans-Serif" font-size="10.00">vector</text>
</g>
<!-- Node3&#45;&gt;Node7 -->
<g id="edge6" class="edge"><title>Node3&#45;&gt;Node7</title>
<path fill="none" stroke="midnightblue" d="M369.781,-112.324C384.267,-103.822 406.573,-90.7288 423.493,-80.7975"/>
<polygon fill="midnightblue" stroke="midnightblue" points="425.403,-83.735 432.255,-75.6545 421.859,-77.6981 425.403,-83.735"/>
</g>
<!-- Node8 -->
<g id="node8" class="node"><title>Node8</title>
<polygon fill="white" stroke="#bfbfbf" points="304,-56.5 304,-75.5 346,-75.5 346,-56.5 304,-56.5"/>
<text text-anchor="middle" x="325" y="-63.5" font-family="Helvetica,sans-Serif" font-size="10.00">sox.h</text>
</g>
<!-- Node3&#45;&gt;Node8 -->
<g id="edge7" class="edge"><title>Node3&#45;&gt;Node8</title>
<path fill="none" stroke="midnightblue" d="M350.046,-112.083C345.896,-104.613 339.847,-93.7244 334.733,-84.5199"/>
<polygon fill="midnightblue" stroke="midnightblue" points="337.778,-82.7929 329.862,-75.7511 331.659,-86.1924 337.778,-82.7929"/>
</g>
<!-- Node9 -->
<g id="node9" class="node"><title>Node9</title>
<g id="a_node9"><a xlink:href="errors_8hpp.html" target="_top" xlink:title="Declarations of the playd Error exception set. ">
<polygon fill="white" stroke="black" points="488.5,-56.5 488.5,-75.5 563.5,-75.5 563.5,-56.5 488.5,-56.5"/>
<text text-anchor="middle" x="526" y="-63.5" font-family="Helvetica,sans-Serif" font-size="10.00">../errors.hpp</text>
</a>
</g>
</g>
<!-- Node3&#45;&gt;Node9 -->
<g id="edge8" class="edge"><title>Node3&#45;&gt;Node9</title>
<path fill="none" stroke="midnightblue" d="M382.095,-112.444C410.988,-103.32 456.925,-88.8133 489.105,-78.6509"/>
<polygon fill="midnightblue" stroke="midnightblue" points="490.549,-81.8654 499.031,-75.5164 488.441,-75.1903 490.549,-81.8654"/>
</g>
<!-- Node12 -->
<g id="node12" class="node"><title>Node12</title>
<g id="a_node12"><a xlink:href="sample__formats_8hpp.html" target="_top" xlink:title="The SampleFormat enumeration. ">
<polygon fill="white" stroke="black" points="122.5,-56.5 122.5,-75.5 247.5,-75.5 247.5,-56.5 122.5,-56.5"/>
<text text-anchor="middle" x="185" y="-63.5" font-family="Helvetica,sans-Serif" font-size="10.00">../sample_formats.hpp</text>
</a>
</g>
</g>
<!-- Node3&#45;&gt;Node12 -->
<g id="edge11" class="edge"><title>Node3&#45;&gt;Node12</title>
<path fill="none" stroke="midnightblue" d="M328.063,-112.444C299.34,-103.32 253.671,-88.8133 221.679,-78.6509"/>
<polygon fill="midnightblue" stroke="midnightblue" points="222.401,-75.2081 211.811,-75.5164 220.282,-81.8797 222.401,-75.2081"/>
</g>
<!-- Node3&#45;&gt;Node13 -->
<g id="edge13" class="edge"><title>Node3&#45;&gt;Node13</title>
<path fill="none" stroke="midnightblue" d="M306.989,-112.444C253.466,-102.905 166.935,-87.4834 109.755,-77.293"/>
<polygon fill="midnightblue" stroke="midnightblue" points="110.246,-73.8253 99.7866,-75.5164 109.017,-80.7168 110.246,-73.8253"/>
</g>
<!-- Node10 -->
<g id="node10" class="node"><title>Node10</title>
<polygon fill="white" stroke="#bfbfbf" points="534.5,-0.5 534.5,-19.5 593.5,-19.5 593.5,-0.5 534.5,-0.5"/>
<text text-anchor="middle" x="564" y="-7.5" font-family="Helvetica,sans-Serif" font-size="10.00">iostream</text>
</g>
<!-- Node9&#45;&gt;Node10 -->
<g id="edge9" class="edge"><title>Node9&#45;&gt;Node10</title>
<path fill="none" stroke="midnightblue" d="M532.275,-56.083C537.642,-48.4554 545.518,-37.2645 552.079,-27.9408"/>
<polygon fill="midnightblue" stroke="midnightblue" points="554.949,-29.9434 557.842,-19.7511 549.225,-25.9149 554.949,-29.9434"/>
</g>
<!-- Node11 -->
<g id="node11" class="node"><title>Node11</title>
<polygon fill="white" stroke="#bfbfbf" points="460,-0.5 460,-19.5 516,-19.5 516,-0.5 460,-0.5"/>
<text text-anchor="middle" x="488" y="-7.5" font-family="Helvetica,sans-Serif" font-size="10.00">sstream</text>
</g>
<!-- Node9&#45;&gt;Node11 -->
<g id="edge10" class="edge"><title>Node9&#45;&gt;Node11</title>
<path fill="none" stroke="midnightblue" d="M519.725,-56.083C514.358,-48.4554 506.482,-37.2645 499.921,-27.9408"/>
<polygon fill="midnightblue" stroke="midnightblue" points="502.775,-25.9149 494.158,-19.7511 497.051,-29.9434 502.775,-25.9149"/>
</g>
<!-- Node12&#45;&gt;Node5 -->
<g id="edge12" class="edge"><title>Node12&#45;&gt;Node5</title>
<path fill="none" stroke="midnightblue" d="M185,-56.083C185,-49.0059 185,-38.8611 185,-29.9865"/>
<polygon fill="midnightblue" stroke="midnightblue" points="188.5,-29.751 185,-19.7511 181.5,-29.7511 188.5,-29.751"/>
</g>
<!-- Node13&#45;&gt;Node5 -->
<g id="edge14" class="edge"><title>Node13&#45;&gt;Node5</title>
<path fill="none" stroke="midnightblue" d="M73.0742,-56.4435C95.0598,-47.5171 129.734,-33.4387 154.664,-23.3168"/>
<polygon fill="midnightblue" stroke="midnightblue" points="156.076,-26.5213 164.024,-19.5164 153.442,-20.0355 156.076,-26.5213"/>
</g>
<!-- Node14&#45;&gt;Node6 -->
<g id="edge18" class="edge"><title>Node14&#45;&gt;Node6</title>
<path fill="none" stroke="midnightblue" d="M570.44,-112.083C575.949,-104.455 584.031,-93.2645 590.765,-83.9408"/>
<polygon fill="midnightblue" stroke="midnightblue" points="593.662,-85.9071 596.68,-75.7511 587.987,-81.8087 593.662,-85.9071"/>
</g>
<!-- Node14&#45;&gt;Node7 -->
<g id="edge19" class="edge"><title>Node14&#45;&gt;Node7</title>
<path fill="none" stroke="midnightblue" d="M545.461,-112.444C526.377,-103.636 496.425,-89.8116 474.564,-79.722"/>
<polygon fill="midnightblue" stroke="midnightblue" points="475.999,-76.5292 465.452,-75.5164 473.065,-82.8849 475.999,-76.5292"/>
</g>
<!-- Node14&#45;&gt;Node9 -->
<g id="edge20" class="edge"><title>Node14&#45;&gt;Node9</title>
<path fill="none" stroke="midnightblue" d="M557.725,-112.083C552.358,-104.455 544.482,-93.2645 537.921,-83.9408"/>
<polygon fill="midnightblue" stroke="midnightblue" points="540.775,-81.9149 532.158,-75.7511 535.051,-85.9434 540.775,-81.9149"/>
</g>
<!-- Node15 -->
<g id="node15" class="node"><title>Node15</title>
<polygon fill="white" stroke="#bfbfbf" points="643,-56.5 643,-75.5 681,-75.5 681,-56.5 643,-56.5"/>
<text text-anchor="middle" x="662" y="-63.5" font-family="Helvetica,sans-Serif" font-size="10.00">map</text>
</g>
<!-- Node14&#45;&gt;Node15 -->
<g id="edge16" class="edge"><title>Node14&#45;&gt;Node15</title>
<path fill="none" stroke="midnightblue" d="M579.745,-112.324C595.319,-103.743 619.377,-90.486 637.459,-80.5224"/>
<polygon fill="midnightblue" stroke="midnightblue" points="639.224,-83.546 646.294,-75.6545 635.846,-77.4152 639.224,-83.546"/>
</g>
<!-- Node16 -->
<g id="node16" class="node"><title>Node16</title>
<polygon fill="white" stroke="#bfbfbf" points="699.5,-56.5 699.5,-75.5 756.5,-75.5 756.5,-56.5 699.5,-56.5"/>
<text text-anchor="middle" x="728" y="-63.5" font-family="Helvetica,sans-Serif" font-size="10.00">ostream</text>
</g>
<!-- Node14&#45;&gt;Node16 -->
<g id="edge17" class="edge"><title>Node14&#45;&gt;Node16</title>
<path fill="none" stroke="midnightblue" d="M589.986,-112.444C617.696,-103.32 661.752,-88.8133 692.616,-78.6509"/>
<polygon fill="midnightblue" stroke="midnightblue" points="693.732,-81.9684 702.135,-75.5164 691.542,-75.3196 693.732,-81.9684"/>
</g>
</g>
</svg>
