<?xml version="1.0" encoding="UTF-8" standalone="no"?>
<!DOCTYPE svg PUBLIC "-//W3C//DTD SVG 1.1//EN"
 "http://www.w3.org/Graphics/SVG/1.1/DTD/svg11.dtd">
<!-- Generated by graphviz version 2.36.0 (20140111.2315)
 -->
<!-- Title: src/response.hpp Pages: 1 -->
<!--zoomable 308 -->
<svg id="main" version="1.1" xmlns="http://www.w3.org/2000/svg" xmlns:xlink="http://www.w3.org/1999/xlink" xml:space="preserve" onload="init(evt)">
<style type="text/css"><![CDATA[
.edge:hover path { stroke: red; }
.edge:hover polygon { stroke: red; fill: red; }
]]></style>
<script type="text/javascript"><![CDATA[
var edges = document.getElementsByTagName('g');
if (edges && edges.length) {
  for (var i=0;i<edges.length;i++) {
    if (edges[i].id.substr(0,4)=='edge') {
      edges[i].setAttribute('class','edge');
    }
  }
}
]]></script>
        <defs>
                <circle id="rim" cx="0" cy="0" r="7"/>
                <circle id="rim2" cx="0" cy="0" r="3.5"/>
                <g id="zoomPlus">
                        <use xlink:href="#rim" fill="#404040">
                                <set attributeName="fill" to="#808080" begin="zoomplus.mouseover" end="zoomplus.mouseout"/>
                        </use>
                        <path d="M-4,0h8M0,-4v8" fill="none" stroke="white" stroke-width="1.5" pointer-events="none"/>
                </g>
                <g id="zoomMin">
                        <use xlink:href="#rim" fill="#404040">
                                <set attributeName="fill" to="#808080" begin="zoomminus.mouseover" end="zoomminus.mouseout"/>
                        </use>
                        <path d="M-4,0h8" fill="none" stroke="white" stroke-width="1.5" pointer-events="none"/>
                </g>
                <g id="dirArrow">
                        <path fill="none" stroke="white" stroke-width="1.5" d="M0,-3.0v7 M-2.5,-0.5L0,-3.0L2.5,-0.5"/>
                </g>
               <g id="resetDef">
                       <use xlink:href="#rim2" fill="#404040">
                               <set attributeName="fill" to="#808080" begin="reset.mouseover" end="reset.mouseout"/>
                       </use>
               </g>
        </defs>

<script type="text/javascript">
var viewWidth = 796;
var viewHeight = 308;
var sectionId = 'dynsection-1';
</script>
<script xlink:href="svgpan.js"/>
<svg id="graph" class="graph">
<g id="viewport">
<title>src/response.hpp</title>
<polygon fill="white" stroke="none" points="-4,4 -4,-304 792,-304 792,4 -4,4"/>
<!-- Node10 -->
<g id="node1" class="node"><title>Node10</title>
<polygon fill="#bfbfbf" stroke="black" points="401.5,-280.5 401.5,-299.5 500.5,-299.5 500.5,-280.5 401.5,-280.5"/>
<text text-anchor="middle" x="451" y="-287.5" font-family="Helvetica,sans-Serif" font-size="10.00">src/response.hpp</text>
</g>
<!-- Node11 -->
<g id="node2" class="node"><title>Node11</title>
<g id="a_node2"><a xlink:href="audio_8cpp.html" target="_top" xlink:title="Implementation of the PipeAudio class. ">
<polygon fill="white" stroke="black" points="66,-112.5 66,-131.5 176,-131.5 176,-112.5 66,-112.5"/>
<text text-anchor="middle" x="121" y="-119.5" font-family="Helvetica,sans-Serif" font-size="10.00">src/audio/audio.cpp</text>
</a>
</g>
</g>
<!-- Node10&#45;&gt;Node11 -->
<g id="edge1" class="edge"><title>Node10&#45;&gt;Node11</title>
<path fill="none" stroke="midnightblue" d="M391.316,-283.82C346.644,-278.248 284.909,-266.882 235,-244 197.829,-226.958 189.56,-218.208 162,-188 145.634,-170.061 131.816,-144.776 125.194,-131.657"/>
<polygon fill="midnightblue" stroke="midnightblue" points="391.088,-287.317 401.43,-285.019 391.912,-280.366 391.088,-287.317"/>
</g>
<!-- Node12 -->
<g id="node3" class="node"><title>Node12</title>
<g id="a_node3"><a xlink:href="audio_8hpp.html" target="_top" xlink:title="Declaration of the Audio class. ">
<polygon fill="white" stroke="black" points="244,-224.5 244,-243.5 354,-243.5 354,-224.5 244,-224.5"/>
<text text-anchor="middle" x="299" y="-231.5" font-family="Helvetica,sans-Serif" font-size="10.00">src/audio/audio.hpp</text>
</a>
</g>
</g>
<!-- Node10&#45;&gt;Node12 -->
<g id="edge2" class="edge"><title>Node10&#45;&gt;Node12</title>
<path fill="none" stroke="midnightblue" d="M417.332,-277.039C388.732,-266.879 348.388,-252.546 322.972,-243.516"/>
<polygon fill="midnightblue" stroke="midnightblue" points="416.32,-280.394 426.915,-280.444 418.664,-273.798 416.32,-280.394"/>
</g>
<!-- Node15 -->
<g id="node6" class="node"><title>Node15</title>
<g id="a_node6"><a xlink:href="player_8hpp.html" target="_top" xlink:title="Declaration of the Player class, and associated types. ">
<polygon fill="white" stroke="black" points="422.5,-112.5 422.5,-131.5 505.5,-131.5 505.5,-112.5 422.5,-112.5"/>
<text text-anchor="middle" x="464" y="-119.5" font-family="Helvetica,sans-Serif" font-size="10.00">src/player.hpp</text>
</a>
</g>
</g>
<!-- Node10&#45;&gt;Node15 -->
<g id="edge17" class="edge"><title>Node10&#45;&gt;Node15</title>
<path fill="none" stroke="midnightblue" d="M450.993,-270.383C451.163,-246.574 452.063,-204.103 456,-168 457.394,-155.221 460.227,-140.595 462.12,-131.577"/>
<polygon fill="midnightblue" stroke="midnightblue" points="447.493,-270.45 450.959,-280.462 454.493,-270.474 447.493,-270.45"/>
</g>
<!-- Node16 -->
<g id="node7" class="node"><title>Node16</title>
<g id="a_node7"><a xlink:href="io_8cpp.html" target="_top" xlink:title="Implementation of the non&#45;virtual aspects of the IoCore class. ">
<polygon fill="white" stroke="black" points="405,-0.5 405,-19.5 467,-19.5 467,-0.5 405,-0.5"/>
<text text-anchor="middle" x="436" y="-7.5" font-family="Helvetica,sans-Serif" font-size="10.00">src/io.cpp</text>
</a>
</g>
</g>
<!-- Node10&#45;&gt;Node16 -->
<g id="edge18" class="edge"><title>Node10&#45;&gt;Node16</title>
<path fill="none" stroke="midnightblue" d="M391.099,-286.86C268.413,-280.843 0,-258.584 0,-179 0,-179 0,-179 0,-121 0,-37.3714 305.385,-16.6759 404.993,-12.1499"/>
<polygon fill="midnightblue" stroke="midnightblue" points="391.292,-290.373 401.445,-287.346 391.62,-283.381 391.292,-290.373"/>
</g>
<!-- Node17 -->
<g id="node8" class="node"><title>Node17</title>
<g id="a_node8"><a xlink:href="io_8hpp.html" target="_top" xlink:title="Declaration of the I/O classes used in playd. ">
<polygon fill="white" stroke="black" points="502.5,-56.5 502.5,-75.5 565.5,-75.5 565.5,-56.5 502.5,-56.5"/>
<text text-anchor="middle" x="534" y="-63.5" font-family="Helvetica,sans-Serif" font-size="10.00">src/io.hpp</text>
</a>
</g>
</g>
<!-- Node10&#45;&gt;Node17 -->
<g id="edge19" class="edge"><title>Node10&#45;&gt;Node17</title>
<path fill="none" stroke="midnightblue" d="M454.972,-270.459C460.594,-246.13 472.104,-202.479 489,-168 497.572,-150.508 505.479,-149.517 514,-132 523.296,-112.889 529.407,-88.5178 532.217,-75.7318"/>
<polygon fill="midnightblue" stroke="midnightblue" points="451.505,-269.929 452.747,-280.451 458.337,-271.451 451.505,-269.929"/>
</g>
<!-- Node18 -->
<g id="node9" class="node"><title>Node18</title>
<g id="a_node9"><a xlink:href="main_8cpp.html" target="_top" xlink:title="Main entry point and implementation of the playd class. ">
<polygon fill="white" stroke="black" points="495,-0.5 495,-19.5 573,-19.5 573,-0.5 495,-0.5"/>
<text text-anchor="middle" x="534" y="-7.5" font-family="Helvetica,sans-Serif" font-size="10.00">src/main.cpp</text>
</a>
</g>
</g>
<!-- Node10&#45;&gt;Node18 -->
<g id="edge23" class="edge"><title>Node10&#45;&gt;Node18</title>
<path fill="none" stroke="midnightblue" d="M510.872,-281.467C559.543,-274.184 623.124,-261.65 642,-244 664.078,-223.356 662,-209.225 662,-179 662,-179 662,-179 662,-121 662,-67.2332 596.234,-34.0284 558.984,-19.5333"/>
<polygon fill="midnightblue" stroke="midnightblue" points="510.126,-278.039 500.733,-282.942 511.133,-284.966 510.126,-278.039"/>
</g>
<!-- Node19 -->
<g id="node10" class="node"><title>Node19</title>
<g id="a_node10"><a xlink:href="player_8cpp.html" target="_top" xlink:title="Main implementation file for the Player class. ">
<polygon fill="white" stroke="black" points="181.5,-56.5 181.5,-75.5 264.5,-75.5 264.5,-56.5 181.5,-56.5"/>
<text text-anchor="middle" x="223" y="-63.5" font-family="Helvetica,sans-Serif" font-size="10.00">src/player.cpp</text>
</a>
</g>
</g>
<!-- Node10&#45;&gt;Node19 -->
<g id="edge24" class="edge"><title>Node10&#45;&gt;Node19</title>
<path fill="none" stroke="midnightblue" d="M391.215,-287.87C296.327,-282.295 115.951,-255.207 57,-132 32.9549,-81.7462 124.791,-70.0268 181.438,-67.4975"/>
<polygon fill="midnightblue" stroke="midnightblue" points="391.066,-291.367 401.237,-288.397 391.434,-284.377 391.066,-291.367"/>
</g>
<!-- Node20 -->
<g id="node11" class="node"><title>Node20</title>
<g id="a_node11"><a xlink:href="tokeniser_8hpp.html" target="_top" xlink:title="Declaration of the Tokeniser class. ">
<polygon fill="white" stroke="black" points="536,-224.5 536,-243.5 634,-243.5 634,-224.5 536,-224.5"/>
<text text-anchor="middle" x="585" y="-231.5" font-family="Helvetica,sans-Serif" font-size="10.00">src/tokeniser.hpp</text>
</a>
</g>
</g>
<!-- Node10&#45;&gt;Node20 -->
<g id="edge20" class="edge"><title>Node10&#45;&gt;Node20</title>
<path fill="none" stroke="midnightblue" d="M481.677,-276.638C506.823,-266.504 541.754,-252.427 563.867,-243.516"/>
<polygon fill="midnightblue" stroke="midnightblue" points="480.2,-273.459 472.233,-280.444 482.816,-279.952 480.2,-273.459"/>
</g>
<!-- Node21 -->
<g id="node12" class="node"><title>Node21</title>
<g id="a_node12"><a xlink:href="tokeniser_8cpp.html" target="_top" xlink:title="Definition of the Tokeniser class. ">
<polygon fill="white" stroke="black" points="498,-168.5 498,-187.5 596,-187.5 596,-168.5 498,-168.5"/>
<text text-anchor="middle" x="547" y="-175.5" font-family="Helvetica,sans-Serif" font-size="10.00">src/tokeniser.cpp</text>
</a>
</g>
</g>
<!-- Node10&#45;&gt;Node21 -->
<g id="edge26" class="edge"><title>Node10&#45;&gt;Node21</title>
<path fill="none" stroke="midnightblue" d="M465.325,-272.586C486.022,-248.871 523.551,-205.869 539.502,-187.591"/>
<polygon fill="midnightblue" stroke="midnightblue" points="462.471,-270.533 458.533,-280.368 467.745,-275.136 462.471,-270.533"/>
</g>
<!-- Node22 -->
<g id="node13" class="node"><title>Node22</title>
<g id="a_node13"><a xlink:href="response_8cpp.html" target="_top" xlink:title="Implementation of client response classes. ">
<polygon fill="white" stroke="black" points="690,-224.5 690,-243.5 788,-243.5 788,-224.5 690,-224.5"/>
<text text-anchor="middle" x="739" y="-231.5" font-family="Helvetica,sans-Serif" font-size="10.00">src/response.cpp</text>
</a>
</g>
</g>
<!-- Node10&#45;&gt;Node22 -->
<g id="edge25" class="edge"><title>Node10&#45;&gt;Node22</title>
<path fill="none" stroke="midnightblue" d="M506.802,-278.537C561.232,-268.332 643.004,-252.999 693.579,-243.516"/>
<polygon fill="midnightblue" stroke="midnightblue" points="505.818,-275.161 496.634,-280.444 507.108,-282.041 505.818,-275.161"/>
</g>
<!-- Node12&#45;&gt;Node11 -->
<g id="edge3" class="edge"><title>Node12&#45;&gt;Node11</title>
<path fill="none" stroke="midnightblue" d="M260.742,-221.07C239.039,-213.377 211.922,-202.161 190,-188 164.564,-171.569 140.047,-145.178 128.268,-131.633"/>
<polygon fill="midnightblue" stroke="midnightblue" points="259.7,-224.413 270.294,-224.354 261.976,-217.793 259.7,-224.413"/>
</g>
<!-- Node13 -->
<g id="node4" class="node"><title>Node13</title>
<g id="a_node4"><a xlink:href="audio__sink_8hpp.html" target="_top" xlink:title="Declaration of the AudioSink class. ">
<polygon fill="white" stroke="black" points="232,-168.5 232,-187.5 366,-187.5 366,-168.5 232,-168.5"/>
<text text-anchor="middle" x="299" y="-175.5" font-family="Helvetica,sans-Serif" font-size="10.00">src/audio/audio_sink.hpp</text>
</a>
</g>
</g>
<!-- Node12&#45;&gt;Node13 -->
<g id="edge4" class="edge"><title>Node12&#45;&gt;Node13</title>
<path fill="none" stroke="midnightblue" d="M299,-213.805C299,-204.91 299,-194.78 299,-187.751"/>
<polygon fill="midnightblue" stroke="midnightblue" points="295.5,-214.083 299,-224.083 302.5,-214.083 295.5,-214.083"/>
</g>
<!-- Node12&#45;&gt;Node15 -->
<g id="edge15" class="edge"><title>Node12&#45;&gt;Node15</title>
<path fill="none" stroke="midnightblue" d="M323.152,-219.492C338.272,-210.842 358.035,-199.18 375,-188 403.917,-168.943 436.434,-144.341 453.005,-131.561"/>
<polygon fill="midnightblue" stroke="midnightblue" points="321.373,-216.477 314.404,-224.457 324.829,-222.565 321.373,-216.477"/>
</g>
<!-- Node12&#45;&gt;Node19 -->
<g id="edge16" class="edge"><title>Node12&#45;&gt;Node19</title>
<path fill="none" stroke="midnightblue" d="M261.484,-220.226C246.765,-213.162 231.41,-202.753 223,-188 201.881,-150.952 214.256,-96.5753 220.284,-75.6476"/>
<polygon fill="midnightblue" stroke="midnightblue" points="260.421,-223.582 270.985,-224.397 263.235,-217.173 260.421,-223.582"/>
</g>
<!-- Node13&#45;&gt;Node11 -->
<g id="edge5" class="edge"><title>Node13&#45;&gt;Node11</title>
<path fill="none" stroke="midnightblue" d="M260.883,-165.436C227.322,-155.255 179.226,-140.664 149.073,-131.516"/>
<polygon fill="midnightblue" stroke="midnightblue" points="260.21,-168.89 270.795,-168.444 262.242,-162.191 260.21,-168.89"/>
</g>
<!-- Node14 -->
<g id="node5" class="node"><title>Node14</title>
<g id="a_node5"><a xlink:href="audio__sink_8cpp.html" target="_top" xlink:title="Implementation of the AudioSink class. ">
<polygon fill="white" stroke="black" points="270,-112.5 270,-131.5 404,-131.5 404,-112.5 270,-112.5"/>
<text text-anchor="middle" x="337" y="-119.5" font-family="Helvetica,sans-Serif" font-size="10.00">src/audio/audio_sink.cpp</text>
</a>
</g>
</g>
<!-- Node13&#45;&gt;Node14 -->
<g id="edge6" class="edge"><title>Node13&#45;&gt;Node14</title>
<path fill="none" stroke="midnightblue" d="M311.065,-159.855C317.645,-150.505 325.511,-139.327 330.842,-131.751"/>
<polygon fill="midnightblue" stroke="midnightblue" points="308.168,-157.891 305.275,-168.083 313.892,-161.919 308.168,-157.891"/>
</g>
<!-- Node13&#45;&gt;Node15 -->
<g id="edge7" class="edge"><title>Node13&#45;&gt;Node15</title>
<path fill="none" stroke="midnightblue" d="M334.736,-165.304C365.827,-155.129 410.147,-140.625 437.978,-131.516"/>
<polygon fill="midnightblue" stroke="midnightblue" points="333.56,-162.007 325.145,-168.444 335.737,-168.659 333.56,-162.007"/>
</g>
<!-- Node13&#45;&gt;Node19 -->
<g id="edge14" class="edge"><title>Node13&#45;&gt;Node19</title>
<path fill="none" stroke="midnightblue" d="M284.216,-160.878C276.873,-152.535 268.081,-142.021 261,-132 247.422,-112.784 234.151,-88.4556 227.469,-75.7041"/>
<polygon fill="midnightblue" stroke="midnightblue" points="281.678,-163.29 290.96,-168.399 286.89,-158.617 281.678,-163.29"/>
</g>
<!-- Node15&#45;&gt;Node16 -->
<g id="edge8" class="edge"><title>Node15&#45;&gt;Node16</title>
<path fill="none" stroke="midnightblue" d="M459.335,-102.674C453.214,-78.6248 442.717,-37.3881 438.187,-19.5914"/>
<polygon fill="midnightblue" stroke="midnightblue" points="455.944,-103.541 461.803,-112.368 462.728,-101.814 455.944,-103.541"/>
</g>
<!-- Node15&#45;&gt;Node17 -->
<g id="edge9" class="edge"><title>Node15&#45;&gt;Node17</title>
<path fill="none" stroke="midnightblue" d="M483.314,-106.101C495.912,-96.3824 511.928,-84.0269 522.549,-75.8339"/>
<polygon fill="midnightblue" stroke="midnightblue" points="481.027,-103.445 475.247,-112.324 485.302,-108.987 481.027,-103.445"/>
</g>
<!-- Node15&#45;&gt;Node18 -->
<g id="edge12" class="edge"><title>Node15&#45;&gt;Node18</title>
<path fill="none" stroke="midnightblue" d="M470.413,-102.555C475.519,-89.0852 483.392,-70.6874 493,-56 502.141,-42.0255 515.617,-28.1593 524.594,-19.591"/>
<polygon fill="midnightblue" stroke="midnightblue" points="467.057,-101.543 466.931,-112.137 473.636,-103.934 467.057,-101.543"/>
</g>
<!-- Node15&#45;&gt;Node19 -->
<g id="edge13" class="edge"><title>Node15&#45;&gt;Node19</title>
<path fill="none" stroke="midnightblue" d="M415.877,-110.217C370.338,-100.013 302.89,-84.9006 261.009,-75.5164"/>
<polygon fill="midnightblue" stroke="midnightblue" points="415.29,-113.672 425.813,-112.444 416.82,-106.842 415.29,-113.672"/>
</g>
<!-- Node17&#45;&gt;Node16 -->
<g id="edge10" class="edge"><title>Node17&#45;&gt;Node16</title>
<path fill="none" stroke="midnightblue" d="M509.414,-51.4526C491.322,-41.4835 467.265,-28.2279 451.706,-19.6545"/>
<polygon fill="midnightblue" stroke="midnightblue" points="507.807,-54.5633 518.255,-56.324 511.185,-48.4324 507.807,-54.5633"/>
</g>
<!-- Node17&#45;&gt;Node18 -->
<g id="edge11" class="edge"><title>Node17&#45;&gt;Node18</title>
<path fill="none" stroke="midnightblue" d="M534,-45.8045C534,-36.9102 534,-26.7798 534,-19.7511"/>
<polygon fill="midnightblue" stroke="midnightblue" points="530.5,-46.083 534,-56.083 537.5,-46.083 530.5,-46.083"/>
</g>
<!-- Node20&#45;&gt;Node17 -->
<g id="edge21" class="edge"><title>Node20&#45;&gt;Node17</title>
<path fill="none" stroke="midnightblue" d="M595.933,-215.247C602.605,-202.15 608.976,-183.917 604,-168 591.84,-129.108 558.859,-92.0279 542.895,-75.7055"/>
<polygon fill="midnightblue" stroke="midnightblue" points="592.787,-213.702 590.956,-224.137 598.895,-217.122 592.787,-213.702"/>
</g>
<!-- Node20&#45;&gt;Node21 -->
<g id="edge22" class="edge"><title>Node20&#45;&gt;Node21</title>
<path fill="none" stroke="midnightblue" d="M572.935,-215.855C566.355,-206.505 558.489,-195.327 553.158,-187.751"/>
<polygon fill="midnightblue" stroke="midnightblue" points="570.108,-217.919 578.725,-224.083 575.832,-213.891 570.108,-217.919"/>
</g>
</g>
</svg>
        <g id="navigator" transform="translate(0 0)" fill="#404254">
                <rect fill="#f2f5e9" fill-opacity="0.5" stroke="#606060" stroke-width=".5" x="0" y="0" width="60" height="60"/>
                <use id="zoomplus" xlink:href="#zoomPlus" x="17" y="9" onmousedown="handleZoom(evt,'in')"/>
                <use id="zoomminus" xlink:href="#zoomMin" x="42" y="9" onmousedown="handleZoom(evt,'out')"/>
                <use id="reset" xlink:href="#resetDef" x="30" y="36" onmousedown="handleReset()"/>
                <g id="arrowUp" xlink:href="#dirArrow" transform="translate(30 24)" onmousedown="handlePan(0,-1)">
                  <use xlink:href="#rim" fill="#404040">
                        <set attributeName="fill" to="#808080" begin="arrowUp.mouseover" end="arrowUp.mouseout"/>
                  </use>
                  <path fill="none" stroke="white" stroke-width="1.5" d="M0,-3.0v7 M-2.5,-0.5L0,-3.0L2.5,-0.5"/>
                </g>
                <g id="arrowRight" xlink:href="#dirArrow" transform="rotate(90) translate(36 -43)" onmousedown="handlePan(1,0)">
                  <use xlink:href="#rim" fill="#404040">
                        <set attributeName="fill" to="#808080" begin="arrowRight.mouseover" end="arrowRight.mouseout"/>
                  </use>
                  <path fill="none" stroke="white" stroke-width="1.5" d="M0,-3.0v7 M-2.5,-0.5L0,-3.0L2.5,-0.5"/>
                </g>
                <g id="arrowDown" xlink:href="#dirArrow" transform="rotate(180) translate(-30 -48)" onmousedown="handlePan(0,1)">
                  <use xlink:href="#rim" fill="#404040">
                        <set attributeName="fill" to="#808080" begin="arrowDown.mouseover" end="arrowDown.mouseout"/>
                  </use>
                  <path fill="none" stroke="white" stroke-width="1.5" d="M0,-3.0v7 M-2.5,-0.5L0,-3.0L2.5,-0.5"/>
                </g>
                <g id="arrowLeft" xlink:href="#dirArrow" transform="rotate(270) translate(-36 17)" onmousedown="handlePan(-1,0)">
                  <use xlink:href="#rim" fill="#404040">
                        <set attributeName="fill" to="#808080" begin="arrowLeft.mouseover" end="arrowLeft.mouseout"/>
                  </use>
                  <path fill="none" stroke="white" stroke-width="1.5" d="M0,-3.0v7 M-2.5,-0.5L0,-3.0L2.5,-0.5"/>
                </g>
        </g>
        <svg viewBox="0 0 15 15" width="100%" height="30px" preserveAspectRatio="xMaxYMin meet">
         <g id="arrow_out" transform="scale(0.3 0.3)">
          <a xlink:href="response_8hpp__dep__incl_org.svg" target="_base">
           <rect id="button" ry="5" rx="5" y="6" x="6" height="38" width="38"
                fill="#f2f5e9" fill-opacity="0.5" stroke="#606060" stroke-width="1.0"/>
           <path id="arrow"
             d="M 11.500037,31.436501 C 11.940474,20.09759 22.043105,11.32322 32.158766,21.979434 L 37.068811,17.246167 C 37.068811,17.246167 37.088388,32 37.088388,32 L 22.160133,31.978069 C 22.160133,31.978069 26.997745,27.140456 26.997745,27.140456 C 18.528582,18.264221 13.291696,25.230495 11.500037,31.436501 z"
             style="fill:#404040;"/>
          </a>
         </g>
        </svg>
</svg>
