<?xml version="1.0" encoding="UTF-8" standalone="no"?>
<!DOCTYPE svg PUBLIC "-//W3C//DTD SVG 1.1//EN"
 "http://www.w3.org/Graphics/SVG/1.1/DTD/svg11.dtd">
<!-- Generated by graphviz version 2.36.0 (20140111.2315)
 -->
<!-- Title: src/response.cpp Pages: 1 -->
<svg width="639pt" height="196pt"
 viewBox="0.00 0.00 639.00 196.00" xmlns="http://www.w3.org/2000/svg" xmlns:xlink="http://www.w3.org/1999/xlink">
<g id="graph0" class="graph" transform="scale(1 1) rotate(0) translate(4 192)">
<title>src/response.cpp</title>
<polygon fill="white" stroke="none" points="-4,4 -4,-192 635,-192 635,4 -4,4"/>
<!-- Node0 -->
<g id="node1" class="node"><title>Node0</title>
<polygon fill="#bfbfbf" stroke="black" points="86,-168.5 86,-187.5 184,-187.5 184,-168.5 86,-168.5"/>
<text text-anchor="middle" x="135" y="-175.5" font-family="Helvetica,sans-Serif" font-size="10.00">src/response.cpp</text>
</g>
<!-- Node1 -->
<g id="node2" class="node"><title>Node1</title>
<polygon fill="white" stroke="#bfbfbf" points="-0.5,-112.5 -0.5,-131.5 40.5,-131.5 40.5,-112.5 -0.5,-112.5"/>
<text text-anchor="middle" x="20" y="-119.5" font-family="Helvetica,sans-Serif" font-size="10.00">array</text>
</g>
<!-- Node0&#45;&gt;Node1 -->
<g id="edge1" class="edge"><title>Node0&#45;&gt;Node1</title>
<path fill="none" stroke="midnightblue" d="M116.778,-168.444C98.1043,-159.675 68.844,-145.935 47.3826,-135.858"/>
<polygon fill="midnightblue" stroke="midnightblue" points="48.6763,-132.599 38.1368,-131.516 45.7009,-138.935 48.6763,-132.599"/>
</g>
<!-- Node2 -->
<g id="node3" class="node"><title>Node2</title>
<polygon fill="white" stroke="#bfbfbf" points="59,-112.5 59,-131.5 107,-131.5 107,-112.5 59,-112.5"/>
<text text-anchor="middle" x="83" y="-119.5" font-family="Helvetica,sans-Serif" font-size="10.00">cctype</text>
</g>
<!-- Node0&#45;&gt;Node2 -->
<g id="edge2" class="edge"><title>Node0&#45;&gt;Node2</title>
<path fill="none" stroke="midnightblue" d="M126.413,-168.083C118.841,-160.22 107.622,-148.569 98.4856,-139.081"/>
<polygon fill="midnightblue" stroke="midnightblue" points="100.885,-136.527 91.427,-131.751 95.8423,-141.382 100.885,-136.527"/>
</g>
<!-- Node3 -->
<g id="node4" class="node"><title>Node3</title>
<polygon fill="white" stroke="#bfbfbf" points="107,-0.5 107,-19.5 163,-19.5 163,-0.5 107,-0.5"/>
<text text-anchor="middle" x="135" y="-7.5" font-family="Helvetica,sans-Serif" font-size="10.00">sstream</text>
</g>
<!-- Node0&#45;&gt;Node3 -->
<g id="edge3" class="edge"><title>Node0&#45;&gt;Node3</title>
<path fill="none" stroke="midnightblue" d="M135,-168.075C135,-141.945 135,-65.2106 135,-29.577"/>
<polygon fill="midnightblue" stroke="midnightblue" points="138.5,-29.5681 135,-19.5681 131.5,-29.5681 138.5,-29.5681"/>
</g>
<!-- Node4 -->
<g id="node5" class="node"><title>Node4</title>
<g id="a_node5"><a xlink:href="errors_8hpp.html" target="_top" xlink:title="Declarations of the playd Error exception set. ">
<polygon fill="white" stroke="black" points="163,-56.5 163,-75.5 229,-75.5 229,-56.5 163,-56.5"/>
<text text-anchor="middle" x="196" y="-63.5" font-family="Helvetica,sans-Serif" font-size="10.00">errors.hpp</text>
</a>
</g>
</g>
<!-- Node0&#45;&gt;Node4 -->
<g id="edge4" class="edge"><title>Node0&#45;&gt;Node4</title>
<path fill="none" stroke="midnightblue" d="M139.787,-168.368C149.764,-150.376 172.958,-108.55 186.225,-84.6267"/>
<polygon fill="midnightblue" stroke="midnightblue" points="189.447,-86.0342 191.236,-75.5914 183.325,-82.6393 189.447,-86.0342"/>
</g>
<!-- Node6 -->
<g id="node7" class="node"><title>Node6</title>
<g id="a_node7"><a xlink:href="response_8hpp.html" target="_top" xlink:title="Declaration of classes pertaining to responses to the client. ">
<polygon fill="white" stroke="black" points="326,-112.5 326,-131.5 408,-131.5 408,-112.5 326,-112.5"/>
<text text-anchor="middle" x="367" y="-119.5" font-family="Helvetica,sans-Serif" font-size="10.00">response.hpp</text>
</a>
</g>
</g>
<!-- Node0&#45;&gt;Node6 -->
<g id="edge7" class="edge"><title>Node0&#45;&gt;Node6</title>
<path fill="none" stroke="midnightblue" d="M171.761,-168.444C212.063,-159.063 276.809,-143.993 320.585,-133.804"/>
<polygon fill="midnightblue" stroke="midnightblue" points="321.465,-137.192 330.411,-131.516 319.878,-130.375 321.465,-137.192"/>
</g>
<!-- Node4&#45;&gt;Node3 -->
<g id="edge6" class="edge"><title>Node4&#45;&gt;Node3</title>
<path fill="none" stroke="midnightblue" d="M186.199,-56.324C177.182,-48.3414 163.594,-36.3128 152.682,-26.6529"/>
<polygon fill="midnightblue" stroke="midnightblue" points="154.787,-23.8416 144.979,-19.8339 150.147,-29.083 154.787,-23.8416"/>
</g>
<!-- Node5 -->
<g id="node6" class="node"><title>Node5</title>
<polygon fill="white" stroke="#bfbfbf" points="181.5,-0.5 181.5,-19.5 240.5,-19.5 240.5,-0.5 181.5,-0.5"/>
<text text-anchor="middle" x="211" y="-7.5" font-family="Helvetica,sans-Serif" font-size="10.00">iostream</text>
</g>
<!-- Node4&#45;&gt;Node5 -->
<g id="edge5" class="edge"><title>Node4&#45;&gt;Node5</title>
<path fill="none" stroke="midnightblue" d="M198.477,-56.083C200.486,-48.8486 203.386,-38.4087 205.89,-29.3968"/>
<polygon fill="midnightblue" stroke="midnightblue" points="209.265,-30.323 208.569,-19.7511 202.52,-28.4495 209.265,-30.323"/>
</g>
<!-- Node6&#45;&gt;Node4 -->
<g id="edge14" class="edge"><title>Node6&#45;&gt;Node4</title>
<path fill="none" stroke="midnightblue" d="M339.905,-112.444C311.012,-103.32 265.075,-88.8133 232.895,-78.6509"/>
<polygon fill="midnightblue" stroke="midnightblue" points="233.559,-75.1903 222.969,-75.5164 231.451,-81.8654 233.559,-75.1903"/>
</g>
<!-- Node7 -->
<g id="node8" class="node"><title>Node7</title>
<polygon fill="white" stroke="#bfbfbf" points="247.5,-56.5 247.5,-75.5 296.5,-75.5 296.5,-56.5 247.5,-56.5"/>
<text text-anchor="middle" x="272" y="-63.5" font-family="Helvetica,sans-Serif" font-size="10.00">cstdint</text>
</g>
<!-- Node6&#45;&gt;Node7 -->
<g id="edge8" class="edge"><title>Node6&#45;&gt;Node7</title>
<path fill="none" stroke="midnightblue" d="M351.737,-112.324C336.779,-103.822 313.745,-90.7288 296.273,-80.7975"/>
<polygon fill="midnightblue" stroke="midnightblue" points="297.649,-77.5534 287.226,-75.6545 294.19,-83.639 297.649,-77.5534"/>
</g>
<!-- Node8 -->
<g id="node9" class="node"><title>Node8</title>
<polygon fill="white" stroke="#bfbfbf" points="315,-56.5 315,-75.5 353,-75.5 353,-56.5 315,-56.5"/>
<text text-anchor="middle" x="334" y="-63.5" font-family="Helvetica,sans-Serif" font-size="10.00">map</text>
</g>
<!-- Node6&#45;&gt;Node8 -->
<g id="edge9" class="edge"><title>Node6&#45;&gt;Node8</title>
<path fill="none" stroke="midnightblue" d="M361.551,-112.083C356.986,-104.613 350.332,-93.7244 344.707,-84.5199"/>
<polygon fill="midnightblue" stroke="midnightblue" points="347.549,-82.4588 339.348,-75.7511 341.576,-86.109 347.549,-82.4588"/>
</g>
<!-- Node9 -->
<g id="node10" class="node"><title>Node9</title>
<polygon fill="white" stroke="#bfbfbf" points="371.5,-56.5 371.5,-75.5 428.5,-75.5 428.5,-56.5 371.5,-56.5"/>
<text text-anchor="middle" x="400" y="-63.5" font-family="Helvetica,sans-Serif" font-size="10.00">memory</text>
</g>
<!-- Node6&#45;&gt;Node9 -->
<g id="edge10" class="edge"><title>Node6&#45;&gt;Node9</title>
<path fill="none" stroke="midnightblue" d="M372.449,-112.083C377.014,-104.613 383.668,-93.7244 389.293,-84.5199"/>
<polygon fill="midnightblue" stroke="midnightblue" points="392.424,-86.109 394.652,-75.7511 386.451,-82.4588 392.424,-86.109"/>
</g>
<!-- Node10 -->
<g id="node11" class="node"><title>Node10</title>
<polygon fill="white" stroke="#bfbfbf" points="446.5,-56.5 446.5,-75.5 503.5,-75.5 503.5,-56.5 446.5,-56.5"/>
<text text-anchor="middle" x="475" y="-63.5" font-family="Helvetica,sans-Serif" font-size="10.00">ostream</text>
</g>
<!-- Node6&#45;&gt;Node10 -->
<g id="edge11" class="edge"><title>Node6&#45;&gt;Node10</title>
<path fill="none" stroke="midnightblue" d="M384.352,-112.324C401.672,-103.664 428.515,-90.2424 448.502,-80.249"/>
<polygon fill="midnightblue" stroke="midnightblue" points="450.312,-83.2572 457.691,-75.6545 447.181,-76.9962 450.312,-83.2572"/>
</g>
<!-- Node11 -->
<g id="node12" class="node"><title>Node11</title>
<polygon fill="white" stroke="#bfbfbf" points="522,-56.5 522,-75.5 566,-75.5 566,-56.5 522,-56.5"/>
<text text-anchor="middle" x="544" y="-63.5" font-family="Helvetica,sans-Serif" font-size="10.00">string</text>
</g>
<!-- Node6&#45;&gt;Node11 -->
<g id="edge12" class="edge"><title>Node6&#45;&gt;Node11</title>
<path fill="none" stroke="midnightblue" d="M395.046,-112.444C426.937,-102.714 478.889,-86.8642 512.245,-76.688"/>
<polygon fill="midnightblue" stroke="midnightblue" points="513.413,-79.9909 521.957,-73.7251 511.371,-73.2955 513.413,-79.9909"/>
</g>
<!-- Node12 -->
<g id="node13" class="node"><title>Node12</title>
<polygon fill="white" stroke="#bfbfbf" points="584.5,-56.5 584.5,-75.5 631.5,-75.5 631.5,-56.5 584.5,-56.5"/>
<text text-anchor="middle" x="608" y="-63.5" font-family="Helvetica,sans-Serif" font-size="10.00">vector</text>
</g>
<!-- Node6&#45;&gt;Node12 -->
<g id="edge13" class="edge"><title>Node6&#45;&gt;Node12</title>
<path fill="none" stroke="midnightblue" d="M408.362,-112.576C450.236,-103.915 516.794,-89.7822 574,-76 574.104,-75.975 574.208,-75.9499 574.312,-75.9247"/>
<polygon fill="midnightblue" stroke="midnightblue" points="575.408,-79.2582 584.256,-73.4299 573.705,-72.4686 575.408,-79.2582"/>
</g>
</g>
</svg>
