<?xml version="1.0" encoding="UTF-8" standalone="no"?>
<!DOCTYPE svg PUBLIC "-//W3C//DTD SVG 1.1//EN"
 "http://www.w3.org/Graphics/SVG/1.1/DTD/svg11.dtd">
<!-- Generated by graphviz version 2.38.0 (20140413.2041)
 -->
<!-- Title: src/audio/ringbuffer.hpp Pages: 1 -->
<svg width="388pt" height="151pt"
 viewBox="0.00 0.00 387.50 151.00" xmlns="http://www.w3.org/2000/svg" xmlns:xlink="http://www.w3.org/1999/xlink">
<g id="graph0" class="graph" transform="scale(1 1) rotate(0) translate(4 147)">
<title>src/audio/ringbuffer.hpp</title>
<polygon fill="white" stroke="none" points="-4,4 -4,-147 383.5,-147 383.5,4 -4,4"/>
<!-- Node1 -->
<g id="node1" class="node"><title>Node1</title>
<polygon fill="#bfbfbf" stroke="black" points="123,-123.5 123,-142.5 250,-142.5 250,-123.5 123,-123.5"/>
<text text-anchor="middle" x="186.5" y="-130.5" font-family="Helvetica,sans-Serif" font-size="10.00">src/audio/ringbuffer.hpp</text>
</g>
<!-- Node2 -->
<g id="node2" class="node"><title>Node2</title>
<polygon fill="white" stroke="#bfbfbf" points="0,-62 0,-81 51,-81 51,-62 0,-62"/>
<text text-anchor="middle" x="25.5" y="-69" font-family="Helvetica,sans-Serif" font-size="10.00">cassert</text>
</g>
<!-- Node1&#45;&gt;Node2 -->
<g id="edge1" class="edge"><title>Node1&#45;&gt;Node2</title>
<path fill="none" stroke="midnightblue" d="M161.263,-123.401C135.728,-114.603 95.1784,-100.366 60.5,-87 58.8545,-86.3658 57.1697,-85.7053 55.472,-85.0311"/>
<polygon fill="midnightblue" stroke="midnightblue" points="56.3719,-81.6193 45.7895,-81.1059 53.742,-88.1065 56.3719,-81.6193"/>
</g>
<!-- Node3 -->
<g id="node3" class="node"><title>Node3</title>
<polygon fill="white" stroke="#bfbfbf" points="69,-56.5 69,-86.5 190,-86.5 190,-56.5 69,-56.5"/>
<text text-anchor="start" x="77" y="-74.5" font-family="Helvetica,sans-Serif" font-size="10.00">../contrib/pa_ringbuffer</text>
<text text-anchor="middle" x="129.5" y="-63.5" font-family="Helvetica,sans-Serif" font-size="10.00">/pa_ringbuffer.h</text>
</g>
<!-- Node1&#45;&gt;Node3 -->
<g id="edge2" class="edge"><title>Node1&#45;&gt;Node3</title>
<path fill="none" stroke="midnightblue" d="M178.333,-123.475C170.974,-115.793 159.841,-104.172 150.062,-93.9643"/>
<polygon fill="midnightblue" stroke="midnightblue" points="152.379,-91.3229 142.934,-86.523 147.324,-96.1654 152.379,-91.3229"/>
</g>
<!-- Node4 -->
<g id="node4" class="node"><title>Node4</title>
<g id="a_node4"><a xlink:href="errors_8hpp.html" target="_top" xlink:title="Declarations of the playd Error exception set. ">
<polygon fill="white" stroke="black" points="208,-62 208,-81 281,-81 281,-62 208,-62"/>
<text text-anchor="middle" x="244.5" y="-69" font-family="Helvetica,sans-Serif" font-size="10.00">../errors.hpp</text>
</a>
</g>
</g>
<!-- Node1&#45;&gt;Node4 -->
<g id="edge3" class="edge"><title>Node1&#45;&gt;Node4</title>
<path fill="none" stroke="midnightblue" d="M194.81,-123.475C203.682,-114.373 217.946,-99.741 228.92,-88.483"/>
<polygon fill="midnightblue" stroke="midnightblue" points="231.731,-90.613 236.205,-81.0091 226.719,-85.7268 231.731,-90.613"/>
</g>
<!-- Node7 -->
<g id="node7" class="node"><title>Node7</title>
<g id="a_node7"><a xlink:href="messages_8h.html" target="_top" xlink:title="Constant human&#45;readable messages used within playd. ">
<polygon fill="white" stroke="black" points="299.5,-62 299.5,-81 379.5,-81 379.5,-62 299.5,-62"/>
<text text-anchor="middle" x="339.5" y="-69" font-family="Helvetica,sans-Serif" font-size="10.00">../messages.h</text>
</a>
</g>
</g>
<!-- Node1&#45;&gt;Node7 -->
<g id="edge6" class="edge"><title>Node1&#45;&gt;Node7</title>
<path fill="none" stroke="midnightblue" d="M208.421,-123.475C234.552,-113.313 278.412,-96.2564 308.13,-84.6996"/>
<polygon fill="midnightblue" stroke="midnightblue" points="309.568,-87.8956 317.619,-81.0091 307.031,-81.3716 309.568,-87.8956"/>
</g>
<!-- Node5 -->
<g id="node5" class="node"><title>Node5</title>
<polygon fill="white" stroke="#bfbfbf" points="156,-0.5 156,-19.5 213,-19.5 213,-0.5 156,-0.5"/>
<text text-anchor="middle" x="184.5" y="-7.5" font-family="Helvetica,sans-Serif" font-size="10.00">iostream</text>
</g>
<!-- Node4&#45;&gt;Node5 -->
<g id="edge4" class="edge"><title>Node4&#45;&gt;Node5</title>
<path fill="none" stroke="midnightblue" d="M235.903,-61.9751C226.636,-52.785 211.683,-37.9563 200.288,-26.656"/>
<polygon fill="midnightblue" stroke="midnightblue" points="202.646,-24.0653 193.081,-19.5091 197.717,-29.0358 202.646,-24.0653"/>
</g>
<!-- Node6 -->
<g id="node6" class="node"><title>Node6</title>
<polygon fill="white" stroke="#bfbfbf" points="231.5,-0.5 231.5,-19.5 285.5,-19.5 285.5,-0.5 231.5,-0.5"/>
<text text-anchor="middle" x="258.5" y="-7.5" font-family="Helvetica,sans-Serif" font-size="10.00">sstream</text>
</g>
<!-- Node4&#45;&gt;Node6 -->
<g id="edge5" class="edge"><title>Node4&#45;&gt;Node6</title>
<path fill="none" stroke="midnightblue" d="M246.506,-61.9751C248.502,-53.4919 251.628,-40.2043 254.189,-29.3222"/>
<polygon fill="midnightblue" stroke="midnightblue" points="257.614,-30.0449 256.498,-19.5091 250.8,-28.4416 257.614,-30.0449"/>
</g>
<!-- Node8 -->
<g id="node8" class="node"><title>Node8</title>
<polygon fill="white" stroke="#bfbfbf" points="318,-0.5 318,-19.5 361,-19.5 361,-0.5 318,-0.5"/>
<text text-anchor="middle" x="339.5" y="-7.5" font-family="Helvetica,sans-Serif" font-size="10.00">string</text>
</g>
<!-- Node7&#45;&gt;Node8 -->
<g id="edge7" class="edge"><title>Node7&#45;&gt;Node8</title>
<path fill="none" stroke="midnightblue" d="M339.5,-61.9751C339.5,-53.5803 339.5,-40.4806 339.5,-29.6631"/>
<polygon fill="midnightblue" stroke="midnightblue" points="343,-29.5091 339.5,-19.5091 336,-29.5091 343,-29.5091"/>
</g>
</g>
</svg>
