<?xml version="1.0" encoding="UTF-8" standalone="no"?>
<!DOCTYPE svg PUBLIC "-//W3C//DTD SVG 1.1//EN"
 "http://www.w3.org/Graphics/SVG/1.1/DTD/svg11.dtd">
<!-- Generated by graphviz version 2.38.0 (20140413.2041)
 -->
<!-- Title: src/audio/ringbuffer.hpp Pages: 1 -->
<svg width="398pt" height="151pt"
 viewBox="0.00 0.00 398.00 151.00" xmlns="http://www.w3.org/2000/svg" xmlns:xlink="http://www.w3.org/1999/xlink">
<g id="graph0" class="graph" transform="scale(1 1) rotate(0) translate(4 147)">
<title>src/audio/ringbuffer.hpp</title>
<polygon fill="white" stroke="none" points="-4,4 -4,-147 394,-147 394,4 -4,4"/>
<!-- Node1 -->
<g id="node1" class="node"><title>Node1</title>
<polygon fill="#bfbfbf" stroke="black" points="127.5,-123.5 127.5,-142.5 256.5,-142.5 256.5,-123.5 127.5,-123.5"/>
<text text-anchor="middle" x="192" y="-130.5" font-family="Helvetica,sans-Serif" font-size="10.00">src/audio/ringbuffer.hpp</text>
</g>
<!-- Node2 -->
<g id="node2" class="node"><title>Node2</title>
<polygon fill="white" stroke="#bfbfbf" points="0,-62 0,-81 52,-81 52,-62 0,-62"/>
<text text-anchor="middle" x="26" y="-69" font-family="Helvetica,sans-Serif" font-size="10.00">cassert</text>
</g>
<!-- Node1&#45;&gt;Node2 -->
<g id="edge1" class="edge"><title>Node1&#45;&gt;Node2</title>
<path fill="none" stroke="midnightblue" d="M165.966,-123.412C139.624,-114.623 97.7897,-100.393 62,-87 60.1542,-86.3093 58.2601,-85.5871 56.3531,-84.8497"/>
<polygon fill="midnightblue" stroke="midnightblue" points="57.4581,-81.5232 46.8713,-81.1105 54.8901,-88.0351 57.4581,-81.5232"/>
</g>
<!-- Node3 -->
<g id="node3" class="node"><title>Node3</title>
<polygon fill="white" stroke="#bfbfbf" points="70.5,-56.5 70.5,-86.5 195.5,-86.5 195.5,-56.5 70.5,-56.5"/>
<text text-anchor="start" x="78.5" y="-74.5" font-family="Helvetica,sans-Serif" font-size="10.00">../contrib/pa_ringbuffer</text>
<text text-anchor="middle" x="133" y="-63.5" font-family="Helvetica,sans-Serif" font-size="10.00">/pa_ringbuffer.h</text>
</g>
<!-- Node1&#45;&gt;Node3 -->
<g id="edge2" class="edge"><title>Node1&#45;&gt;Node3</title>
<path fill="none" stroke="midnightblue" d="M183.547,-123.475C175.855,-115.718 164.179,-103.943 153.987,-93.6645"/>
<polygon fill="midnightblue" stroke="midnightblue" points="156.432,-91.1594 146.905,-86.523 151.461,-96.0883 156.432,-91.1594"/>
</g>
<!-- Node4 -->
<g id="node4" class="node"><title>Node4</title>
<g id="a_node4"><a xlink:href="errors_8hpp.html" target="_top" xlink:title="Declarations of the playd Error exception set. ">
<polygon fill="white" stroke="black" points="213.5,-62 213.5,-81 288.5,-81 288.5,-62 213.5,-62"/>
<text text-anchor="middle" x="251" y="-69" font-family="Helvetica,sans-Serif" font-size="10.00">../errors.hpp</text>
</a>
</g>
</g>
<!-- Node1&#45;&gt;Node4 -->
<g id="edge3" class="edge"><title>Node1&#45;&gt;Node4</title>
<path fill="none" stroke="midnightblue" d="M200.453,-123.475C209.566,-114.285 224.27,-99.4563 235.476,-88.156"/>
<polygon fill="midnightblue" stroke="midnightblue" points="238.007,-90.5744 242.562,-81.0091 233.036,-85.6455 238.007,-90.5744"/>
</g>
<!-- Node7 -->
<g id="node7" class="node"><title>Node7</title>
<g id="a_node7"><a xlink:href="messages_8h.html" target="_top" xlink:title="Constant human&#45;readable messages used within playd. ">
<polygon fill="white" stroke="black" points="306,-62 306,-81 390,-81 390,-62 306,-62"/>
<text text-anchor="middle" x="348" y="-69" font-family="Helvetica,sans-Serif" font-size="10.00">../messages.h</text>
</a>
</g>
</g>
<!-- Node1&#45;&gt;Node7 -->
<g id="edge6" class="edge"><title>Node1&#45;&gt;Node7</title>
<path fill="none" stroke="midnightblue" d="M214.351,-123.475C240.995,-113.313 285.714,-96.2564 316.014,-84.6996"/>
<polygon fill="midnightblue" stroke="midnightblue" points="317.594,-87.843 325.69,-81.0091 315.1,-81.3026 317.594,-87.843"/>
</g>
<!-- Node5 -->
<g id="node5" class="node"><title>Node5</title>
<polygon fill="white" stroke="#bfbfbf" points="159.5,-0.5 159.5,-19.5 218.5,-19.5 218.5,-0.5 159.5,-0.5"/>
<text text-anchor="middle" x="189" y="-7.5" font-family="Helvetica,sans-Serif" font-size="10.00">iostream</text>
</g>
<!-- Node4&#45;&gt;Node5 -->
<g id="edge4" class="edge"><title>Node4&#45;&gt;Node5</title>
<path fill="none" stroke="midnightblue" d="M242.117,-61.9751C232.541,-52.785 217.089,-37.9563 205.314,-26.656"/>
<polygon fill="midnightblue" stroke="midnightblue" points="207.505,-23.908 197.867,-19.5091 202.658,-28.9585 207.505,-23.908"/>
</g>
<!-- Node6 -->
<g id="node6" class="node"><title>Node6</title>
<polygon fill="white" stroke="#bfbfbf" points="237,-0.5 237,-19.5 293,-19.5 293,-0.5 237,-0.5"/>
<text text-anchor="middle" x="265" y="-7.5" font-family="Helvetica,sans-Serif" font-size="10.00">sstream</text>
</g>
<!-- Node4&#45;&gt;Node6 -->
<g id="edge5" class="edge"><title>Node4&#45;&gt;Node6</title>
<path fill="none" stroke="midnightblue" d="M253.006,-61.9751C255.002,-53.4919 258.128,-40.2043 260.689,-29.3222"/>
<polygon fill="midnightblue" stroke="midnightblue" points="264.114,-30.0449 262.998,-19.5091 257.3,-28.4416 264.114,-30.0449"/>
</g>
<!-- Node8 -->
<g id="node8" class="node"><title>Node8</title>
<polygon fill="white" stroke="#bfbfbf" points="326,-0.5 326,-19.5 370,-19.5 370,-0.5 326,-0.5"/>
<text text-anchor="middle" x="348" y="-7.5" font-family="Helvetica,sans-Serif" font-size="10.00">string</text>
</g>
<!-- Node7&#45;&gt;Node8 -->
<g id="edge7" class="edge"><title>Node7&#45;&gt;Node8</title>
<path fill="none" stroke="midnightblue" d="M348,-61.9751C348,-53.5803 348,-40.4806 348,-29.6631"/>
<polygon fill="midnightblue" stroke="midnightblue" points="351.5,-29.5091 348,-19.5091 344.5,-29.5091 351.5,-29.5091"/>
</g>
</g>
</svg>
