<?xml version="1.0" encoding="UTF-8" standalone="no"?>
<!DOCTYPE svg PUBLIC "-//W3C//DTD SVG 1.1//EN"
 "http://www.w3.org/Graphics/SVG/1.1/DTD/svg11.dtd">
<!-- Generated by graphviz version 2.38.0 (20140413.2041)
 -->
<!-- Title: src/audio/ringbuffer.hpp Pages: 1 -->
<!--zoomable 532 -->
<svg id="main" version="1.1" xmlns="http://www.w3.org/2000/svg" xmlns:xlink="http://www.w3.org/1999/xlink" xml:space="preserve" onload="init(evt)">
<style type="text/css"><![CDATA[
.edge:hover path { stroke: red; }
.edge:hover polygon { stroke: red; fill: red; }
]]></style>
<script type="text/javascript"><![CDATA[
var edges = document.getElementsByTagName('g');
if (edges && edges.length) {
  for (var i=0;i<edges.length;i++) {
    if (edges[i].id.substr(0,4)=='edge') {
      edges[i].setAttribute('class','edge');
    }
  }
}
]]></script>
        <defs>
                <circle id="rim" cx="0" cy="0" r="7"/>
                <circle id="rim2" cx="0" cy="0" r="3.5"/>
                <g id="zoomPlus">
                        <use xlink:href="#rim" fill="#404040">
                                <set attributeName="fill" to="#808080" begin="zoomplus.mouseover" end="zoomplus.mouseout"/>
                        </use>
                        <path d="M-4,0h8M0,-4v8" fill="none" stroke="white" stroke-width="1.5" pointer-events="none"/>
                </g>
                <g id="zoomMin">
                        <use xlink:href="#rim" fill="#404040">
                                <set attributeName="fill" to="#808080" begin="zoomminus.mouseover" end="zoomminus.mouseout"/>
                        </use>
                        <path d="M-4,0h8" fill="none" stroke="white" stroke-width="1.5" pointer-events="none"/>
                </g>
                <g id="dirArrow">
                        <path fill="none" stroke="white" stroke-width="1.5" d="M0,-3.0v7 M-2.5,-0.5L0,-3.0L2.5,-0.5"/>
                </g>
               <g id="resetDef">
                       <use xlink:href="#rim2" fill="#404040">
                               <set attributeName="fill" to="#808080" begin="reset.mouseover" end="reset.mouseout"/>
                       </use>
               </g>
        </defs>

<script type="text/javascript">
var viewWidth = 1292;
var viewHeight = 532;
var sectionId = 'dynsection-1';
</script>
<script xlink:href="svgpan.js"/>
<svg id="graph" class="graph">
<g id="viewport">
<title>src/audio/ringbuffer.hpp</title>
<polygon fill="white" stroke="none" points="-4,4 -4,-528 1288,-528 1288,4 -4,4"/>
<!-- Node1 -->
<g id="node1" class="node"><title>Node1</title>
<polygon fill="#bfbfbf" stroke="black" points="920.5,-504.5 920.5,-523.5 1047.5,-523.5 1047.5,-504.5 920.5,-504.5"/>
<text text-anchor="middle" x="984" y="-511.5" font-family="Helvetica,sans-Serif" font-size="10.00">src/audio/ringbuffer.hpp</text>
</g>
<!-- Node2 -->
<g id="node2" class="node"><title>Node2</title>
<g id="a_node2"><a xlink:href="audio__sink_8hpp.html" target="_top" xlink:title="Declaration of the AudioSink class. ">
<polygon fill="white" stroke="black" points="917.5,-448.5 917.5,-467.5 1050.5,-467.5 1050.5,-448.5 917.5,-448.5"/>
<text text-anchor="middle" x="984" y="-455.5" font-family="Helvetica,sans-Serif" font-size="10.00">src/audio/audio_sink.hpp</text>
</a>
</g>
</g>
<!-- Node1&#45;&gt;Node2 -->
<g id="edge1" class="edge"><title>Node1&#45;&gt;Node2</title>
<path fill="none" stroke="midnightblue" d="M984,-493.805C984,-484.91 984,-474.78 984,-467.751"/>
<polygon fill="midnightblue" stroke="midnightblue" points="980.5,-494.083 984,-504.083 987.5,-494.083 980.5,-494.083"/>
</g>
<!-- Node4 -->
<g id="node4" class="node"><title>Node4</title>
<g id="a_node4"><a xlink:href="audio__sink_8cpp.html" target="_top" xlink:title="Implementation of the AudioSink class. ">
<polygon fill="white" stroke="black" points="760,-392.5 760,-411.5 892,-411.5 892,-392.5 760,-392.5"/>
<text text-anchor="middle" x="826" y="-399.5" font-family="Helvetica,sans-Serif" font-size="10.00">src/audio/audio_sink.cpp</text>
</a>
</g>
</g>
<!-- Node1&#45;&gt;Node4 -->
<g id="edge37" class="edge"><title>Node1&#45;&gt;Node4</title>
<path fill="none" stroke="midnightblue" d="M959.406,-499.563C944.265,-491.017 924.636,-479.441 908,-468 880.907,-449.368 851.134,-424.59 836.014,-411.671"/>
<polygon fill="midnightblue" stroke="midnightblue" points="957.75,-502.647 968.187,-504.464 961.161,-496.534 957.75,-502.647"/>
</g>
<!-- Node21 -->
<g id="node21" class="node"><title>Node21</title>
<g id="a_node21"><a xlink:href="ringbuffer_8cpp.html" target="_top" xlink:title="Implementation of the RingBuffer class. ">
<polygon fill="white" stroke="black" points="1069,-448.5 1069,-467.5 1195,-467.5 1195,-448.5 1069,-448.5"/>
<text text-anchor="middle" x="1132" y="-455.5" font-family="Helvetica,sans-Serif" font-size="10.00">src/audio/ringbuffer.cpp</text>
</a>
</g>
</g>
<!-- Node1&#45;&gt;Node21 -->
<g id="edge38" class="edge"><title>Node1&#45;&gt;Node21</title>
<path fill="none" stroke="midnightblue" d="M1017.15,-500.906C1044.97,-490.754 1084.02,-476.506 1108.66,-467.516"/>
<polygon fill="midnightblue" stroke="midnightblue" points="1015.65,-497.728 1007.45,-504.444 1018.04,-504.304 1015.65,-497.728"/>
</g>
<!-- Node3 -->
<g id="node3" class="node"><title>Node3</title>
<g id="a_node3"><a xlink:href="audio_8cpp.html" target="_top" xlink:title="Implementation of the Audio class. ">
<polygon fill="white" stroke="black" points="1075.5,-392.5 1075.5,-411.5 1182.5,-411.5 1182.5,-392.5 1075.5,-392.5"/>
<text text-anchor="middle" x="1129" y="-399.5" font-family="Helvetica,sans-Serif" font-size="10.00">src/audio/audio.cpp</text>
</a>
</g>
</g>
<!-- Node2&#45;&gt;Node3 -->
<g id="edge2" class="edge"><title>Node2&#45;&gt;Node3</title>
<path fill="none" stroke="midnightblue" d="M1016.48,-444.906C1043.74,-434.754 1081.99,-420.506 1106.13,-411.516"/>
<polygon fill="midnightblue" stroke="midnightblue" points="1015.13,-441.674 1006.98,-448.444 1017.57,-448.233 1015.13,-441.674"/>
</g>
<!-- Node2&#45;&gt;Node4 -->
<g id="edge3" class="edge"><title>Node2&#45;&gt;Node4</title>
<path fill="none" stroke="midnightblue" d="M949.392,-445.172C919.641,-435.004 877.453,-420.585 850.918,-411.516"/>
<polygon fill="midnightblue" stroke="midnightblue" points="948.37,-448.521 958.964,-448.444 950.634,-441.898 948.37,-448.521"/>
</g>
<!-- Node5 -->
<g id="node5" class="node"><title>Node5</title>
<g id="a_node5"><a xlink:href="audio__system_8cpp.html" target="_top" xlink:title="Implementation of the PaSoxAudioSystem class. ">
<polygon fill="white" stroke="black" points="1138,-336.5 1138,-355.5 1284,-355.5 1284,-336.5 1138,-336.5"/>
<text text-anchor="middle" x="1211" y="-343.5" font-family="Helvetica,sans-Serif" font-size="10.00">src/audio/audio_system.cpp</text>
</a>
</g>
</g>
<!-- Node2&#45;&gt;Node5 -->
<g id="edge4" class="edge"><title>Node2&#45;&gt;Node5</title>
<path fill="none" stroke="midnightblue" d="M1046.63,-446.772C1103.89,-436.891 1181.27,-421.99 1192,-412 1208,-397.098 1210.78,-369.538 1211.1,-355.579"/>
<polygon fill="midnightblue" stroke="midnightblue" points="1045.82,-443.36 1036.55,-448.496 1047,-450.26 1045.82,-443.36"/>
</g>
<!-- Node6 -->
<g id="node6" class="node"><title>Node6</title>
<g id="a_node6"><a xlink:href="audio__system_8hpp.html" target="_top" xlink:title="Declaration of the AudioSystem class. ">
<polygon fill="white" stroke="black" points="910.5,-392.5 910.5,-411.5 1057.5,-411.5 1057.5,-392.5 910.5,-392.5"/>
<text text-anchor="middle" x="984" y="-399.5" font-family="Helvetica,sans-Serif" font-size="10.00">src/audio/audio_system.hpp</text>
</a>
</g>
</g>
<!-- Node2&#45;&gt;Node6 -->
<g id="edge5" class="edge"><title>Node2&#45;&gt;Node6</title>
<path fill="none" stroke="midnightblue" d="M984,-437.805C984,-428.91 984,-418.78 984,-411.751"/>
<polygon fill="midnightblue" stroke="midnightblue" points="980.5,-438.083 984,-448.083 987.5,-438.083 980.5,-438.083"/>
</g>
<!-- Node6&#45;&gt;Node5 -->
<g id="edge6" class="edge"><title>Node6&#45;&gt;Node5</title>
<path fill="none" stroke="midnightblue" d="M1029.87,-390.088C1072.75,-379.887 1135.92,-364.861 1175.2,-355.516"/>
<polygon fill="midnightblue" stroke="midnightblue" points="1028.89,-386.724 1019.97,-392.444 1030.51,-393.534 1028.89,-386.724"/>
</g>
<!-- Node7 -->
<g id="node7" class="node"><title>Node7</title>
<g id="a_node7"><a xlink:href="player__file_8hpp.html" target="_top" xlink:title="Declaration of the PlayerFile class, and associated types. ">
<polygon fill="white" stroke="black" points="645.5,-336.5 645.5,-355.5 780.5,-355.5 780.5,-336.5 645.5,-336.5"/>
<text text-anchor="middle" x="713" y="-343.5" font-family="Helvetica,sans-Serif" font-size="10.00">src/player/player_file.hpp</text>
</a>
</g>
</g>
<!-- Node6&#45;&gt;Node7 -->
<g id="edge7" class="edge"><title>Node6&#45;&gt;Node7</title>
<path fill="none" stroke="midnightblue" d="M931.172,-390.473C879.955,-380.268 803.23,-364.979 755.74,-355.516"/>
<polygon fill="midnightblue" stroke="midnightblue" points="930.568,-393.922 941.059,-392.444 931.936,-387.057 930.568,-393.922"/>
</g>
<!-- Node13 -->
<g id="node13" class="node"><title>Node13</title>
<g id="a_node13"><a xlink:href="main_8cpp.html" target="_top" xlink:title="Main entry point and implementation of the playd class. ">
<polygon fill="white" stroke="black" points="524,-0.5 524,-19.5 600,-19.5 600,-0.5 524,-0.5"/>
<text text-anchor="middle" x="562" y="-7.5" font-family="Helvetica,sans-Serif" font-size="10.00">src/main.cpp</text>
</a>
</g>
</g>
<!-- Node6&#45;&gt;Node13 -->
<g id="edge33" class="edge"><title>Node6&#45;&gt;Node13</title>
<path fill="none" stroke="midnightblue" d="M1017.83,-388.498C1055.15,-372.258 1110,-340.047 1110,-291 1110,-291 1110,-291 1110,-121 1110,-16.8069 724.373,-10.0153 600.099,-10.5319"/>
<polygon fill="midnightblue" stroke="midnightblue" points="1016.18,-385.394 1008.29,-392.47 1018.87,-391.855 1016.18,-385.394"/>
</g>
<!-- Node14 -->
<g id="node14" class="node"><title>Node14</title>
<g id="a_node14"><a xlink:href="main_8hpp.html" target="_top" xlink:title="Declaration of the playd class. ">
<polygon fill="white" stroke="black" points="75.5,-56.5 75.5,-75.5 152.5,-75.5 152.5,-56.5 75.5,-56.5"/>
<text text-anchor="middle" x="114" y="-63.5" font-family="Helvetica,sans-Serif" font-size="10.00">src/main.hpp</text>
</a>
</g>
</g>
<!-- Node6&#45;&gt;Node14 -->
<g id="edge34" class="edge"><title>Node6&#45;&gt;Node14</title>
<path fill="none" stroke="midnightblue" d="M900.469,-391.934C662.822,-366.108 0,-293.822 0,-291 0,-291 0,-291 0,-177 0,-125.707 60.5038,-90.7686 93.3555,-75.5787"/>
<polygon fill="midnightblue" stroke="midnightblue" points="900.123,-395.417 910.442,-393.018 900.879,-388.458 900.123,-395.417"/>
</g>
<!-- Node17 -->
<g id="node17" class="node"><title>Node17</title>
<g id="a_node17"><a xlink:href="player_8cpp.html" target="_top" xlink:title="Main implementation file for the Player class. ">
<polygon fill="white" stroke="black" points="966.5,-224.5 966.5,-243.5 1081.5,-243.5 1081.5,-224.5 966.5,-224.5"/>
<text text-anchor="middle" x="1024" y="-231.5" font-family="Helvetica,sans-Serif" font-size="10.00">src/player/player.cpp</text>
</a>
</g>
</g>
<!-- Node6&#45;&gt;Node17 -->
<g id="edge35" class="edge"><title>Node6&#45;&gt;Node17</title>
<path fill="none" stroke="midnightblue" d="M988.595,-381.93C997.272,-345.92 1015.75,-269.231 1021.94,-243.568"/>
<polygon fill="midnightblue" stroke="midnightblue" points="985.091,-381.533 986.151,-392.075 991.896,-383.173 985.091,-381.533"/>
</g>
<!-- Node20 -->
<g id="node20" class="node"><title>Node20</title>
<g id="a_node20"><a xlink:href="player__file_8cpp.html" target="_top" xlink:title="Implementation of the PlayerFile class, and associated types. ">
<polygon fill="white" stroke="black" points="759,-280.5 759,-299.5 893,-299.5 893,-280.5 759,-280.5"/>
<text text-anchor="middle" x="826" y="-287.5" font-family="Helvetica,sans-Serif" font-size="10.00">src/player/player_file.cpp</text>
</a>
</g>
</g>
<!-- Node6&#45;&gt;Node20 -->
<g id="edge36" class="edge"><title>Node6&#45;&gt;Node20</title>
<path fill="none" stroke="midnightblue" d="M963.053,-386.417C929.635,-363.151 865.285,-318.35 838.34,-299.591"/>
<polygon fill="midnightblue" stroke="midnightblue" points="961.395,-389.527 971.602,-392.368 965.395,-383.782 961.395,-389.527"/>
</g>
<!-- Node8 -->
<g id="node8" class="node"><title>Node8</title>
<g id="a_node8"><a xlink:href="player_8hpp.html" target="_top" xlink:title="Declaration of the Player class, and associated types. ">
<polygon fill="white" stroke="black" points="542,-280.5 542,-299.5 658,-299.5 658,-280.5 542,-280.5"/>
<text text-anchor="middle" x="600" y="-287.5" font-family="Helvetica,sans-Serif" font-size="10.00">src/player/player.hpp</text>
</a>
</g>
</g>
<!-- Node7&#45;&gt;Node8 -->
<g id="edge8" class="edge"><title>Node7&#45;&gt;Node8</title>
<path fill="none" stroke="midnightblue" d="M685.997,-332.096C664.886,-322.007 636.138,-308.27 617.821,-299.516"/>
<polygon fill="midnightblue" stroke="midnightblue" points="684.563,-335.29 695.095,-336.444 687.581,-328.974 684.563,-335.29"/>
</g>
<!-- Node7&#45;&gt;Node14 -->
<g id="edge31" class="edge"><title>Node7&#45;&gt;Node14</title>
<path fill="none" stroke="midnightblue" d="M635.449,-340.378C458.079,-328.769 38,-294.947 38,-235 38,-235 38,-235 38,-177 38,-132.201 81.1965,-92.4292 102.457,-75.5672"/>
<polygon fill="midnightblue" stroke="midnightblue" points="635.294,-343.875 645.5,-341.028 635.747,-336.889 635.294,-343.875"/>
</g>
<!-- Node7&#45;&gt;Node20 -->
<g id="edge32" class="edge"><title>Node7&#45;&gt;Node20</title>
<path fill="none" stroke="midnightblue" d="M740.003,-332.096C761.114,-322.007 789.862,-308.27 808.179,-299.516"/>
<polygon fill="midnightblue" stroke="midnightblue" points="738.419,-328.974 730.905,-336.444 741.437,-335.29 738.419,-328.974"/>
</g>
<!-- Node9 -->
<g id="node9" class="node"><title>Node9</title>
<g id="a_node9"><a xlink:href="cmd_8hpp.html" target="_top" xlink:title="Declaration of the CommandHandler class. ">
<polygon fill="white" stroke="black" points="369,-224.5 369,-243.5 443,-243.5 443,-224.5 369,-224.5"/>
<text text-anchor="middle" x="406" y="-231.5" font-family="Helvetica,sans-Serif" font-size="10.00">src/cmd.hpp</text>
</a>
</g>
</g>
<!-- Node8&#45;&gt;Node9 -->
<g id="edge9" class="edge"><title>Node8&#45;&gt;Node9</title>
<path fill="none" stroke="midnightblue" d="M559.399,-277.699C522.785,-267.507 469.743,-252.743 436.596,-243.516"/>
<polygon fill="midnightblue" stroke="midnightblue" points="558.688,-281.134 569.26,-280.444 560.565,-274.39 558.688,-281.134"/>
</g>
<!-- Node11 -->
<g id="node11" class="node"><title>Node11</title>
<g id="a_node11"><a xlink:href="io__core_8cpp.html" target="_top" xlink:title="Implementation of the non&#45;virtual aspects of the IoCore class. ">
<polygon fill="white" stroke="black" points="434,-56.5 434,-75.5 534,-75.5 534,-56.5 434,-56.5"/>
<text text-anchor="middle" x="484" y="-63.5" font-family="Helvetica,sans-Serif" font-size="10.00">src/io/io_core.cpp</text>
</a>
</g>
</g>
<!-- Node8&#45;&gt;Node11 -->
<g id="edge24" class="edge"><title>Node8&#45;&gt;Node11</title>
<path fill="none" stroke="midnightblue" d="M590.677,-271.157C567.143,-226.119 505.979,-109.063 488.642,-75.8837"/>
<polygon fill="midnightblue" stroke="midnightblue" points="587.719,-273.055 595.453,-280.297 593.924,-269.813 587.719,-273.055"/>
</g>
<!-- Node12 -->
<g id="node12" class="node"><title>Node12</title>
<g id="a_node12"><a xlink:href="io__core_8hpp.html" target="_top" xlink:title="Declaration of the IoCore class. ">
<polygon fill="white" stroke="black" points="212.5,-112.5 212.5,-131.5 313.5,-131.5 313.5,-112.5 212.5,-112.5"/>
<text text-anchor="middle" x="263" y="-119.5" font-family="Helvetica,sans-Serif" font-size="10.00">src/io/io_core.hpp</text>
</a>
</g>
</g>
<!-- Node8&#45;&gt;Node12 -->
<g id="edge25" class="edge"><title>Node8&#45;&gt;Node12</title>
<path fill="none" stroke="midnightblue" d="M531.626,-283.339C421.708,-272.626 213.673,-245.15 171,-188 151.402,-161.752 196.835,-142.026 230.59,-131.523"/>
<polygon fill="midnightblue" stroke="midnightblue" points="531.339,-286.827 541.626,-284.294 532.004,-279.859 531.339,-286.827"/>
</g>
<!-- Node8&#45;&gt;Node13 -->
<g id="edge26" class="edge"><title>Node8&#45;&gt;Node13</title>
<path fill="none" stroke="midnightblue" d="M600,-270.251C600,-248.357 600,-211.052 600,-179 600,-179 600,-179 600,-121 600,-81.3989 577.725,-37.957 567.284,-19.769"/>
<polygon fill="midnightblue" stroke="midnightblue" points="596.5,-270.442 600,-280.442 603.5,-270.442 596.5,-270.442"/>
</g>
<!-- Node8&#45;&gt;Node14 -->
<g id="edge27" class="edge"><title>Node8&#45;&gt;Node14</title>
<path fill="none" stroke="midnightblue" d="M531.559,-285.488C439.395,-279.948 280.844,-267.331 228,-244 165.022,-216.195 146.24,-196.049 121,-132 113.51,-112.993 113.092,-88.5794 113.504,-75.7592"/>
<polygon fill="midnightblue" stroke="midnightblue" points="531.446,-288.987 541.635,-286.081 531.858,-281.999 531.446,-288.987"/>
</g>
<!-- Node8&#45;&gt;Node17 -->
<g id="edge28" class="edge"><title>Node8&#45;&gt;Node17</title>
<path fill="none" stroke="midnightblue" d="M668.419,-280.544C740.296,-271.62 856.627,-257.067 957,-244 960.026,-243.606 963.128,-243.199 966.26,-242.786"/>
<polygon fill="midnightblue" stroke="midnightblue" points="667.637,-277.114 658.144,-281.818 668.499,-284.06 667.637,-277.114"/>
</g>
<!-- Node18 -->
<g id="node18" class="node"><title>Node18</title>
<g id="a_node18"><a xlink:href="player__position_8cpp.html" target="_top" xlink:title="Implementation of the PlayerPosition class, and related Player methods. ">
<polygon fill="white" stroke="black" points="628,-224.5 628,-243.5 786,-243.5 786,-224.5 628,-224.5"/>
<text text-anchor="middle" x="707" y="-231.5" font-family="Helvetica,sans-Serif" font-size="10.00">src/player/player_position.cpp</text>
</a>
</g>
</g>
<!-- Node8&#45;&gt;Node18 -->
<g id="edge29" class="edge"><title>Node8&#45;&gt;Node18</title>
<path fill="none" stroke="midnightblue" d="M626.302,-275.726C646.115,-265.727 672.707,-252.307 689.851,-243.655"/>
<polygon fill="midnightblue" stroke="midnightblue" points="624.542,-272.694 617.191,-280.324 627.696,-278.943 624.542,-272.694"/>
</g>
<!-- Node19 -->
<g id="node19" class="node"><title>Node19</title>
<g id="a_node19"><a xlink:href="player__state_8cpp.html" target="_top" xlink:title="Implementation of the PlayerState class, and related Player methods. ">
<polygon fill="white" stroke="black" points="804,-224.5 804,-243.5 948,-243.5 948,-224.5 804,-224.5"/>
<text text-anchor="middle" x="876" y="-231.5" font-family="Helvetica,sans-Serif" font-size="10.00">src/player/player_state.cpp</text>
</a>
</g>
</g>
<!-- Node8&#45;&gt;Node19 -->
<g id="edge30" class="edge"><title>Node8&#45;&gt;Node19</title>
<path fill="none" stroke="midnightblue" d="M653.803,-278.473C705.964,-268.268 784.105,-252.979 832.472,-243.516"/>
<polygon fill="midnightblue" stroke="midnightblue" points="652.875,-275.088 643.733,-280.444 654.219,-281.958 652.875,-275.088"/>
</g>
<!-- Node10 -->
<g id="node10" class="node"><title>Node10</title>
<g id="a_node10"><a xlink:href="cmd_8cpp.html" target="_top" xlink:title="Implementation of the CommandHandler class. ">
<polygon fill="white" stroke="black" points="180.5,-168.5 180.5,-187.5 253.5,-187.5 253.5,-168.5 180.5,-168.5"/>
<text text-anchor="middle" x="217" y="-175.5" font-family="Helvetica,sans-Serif" font-size="10.00">src/cmd.cpp</text>
</a>
</g>
</g>
<!-- Node9&#45;&gt;Node10 -->
<g id="edge10" class="edge"><title>Node9&#45;&gt;Node10</title>
<path fill="none" stroke="midnightblue" d="M365.987,-221.568C330.333,-211.381 278.962,-196.703 246.808,-187.516"/>
<polygon fill="midnightblue" stroke="midnightblue" points="365.476,-225.062 376.052,-224.444 367.399,-218.331 365.476,-225.062"/>
</g>
<!-- Node9&#45;&gt;Node11 -->
<g id="edge11" class="edge"><title>Node9&#45;&gt;Node11</title>
<path fill="none" stroke="midnightblue" d="M421.391,-216.604C428.555,-208.425 436.836,-198.133 443,-188 466.285,-149.722 478.351,-96.5146 482.405,-75.7708"/>
<polygon fill="midnightblue" stroke="midnightblue" points="418.573,-214.502 414.464,-224.268 423.766,-219.196 418.573,-214.502"/>
</g>
<!-- Node9&#45;&gt;Node12 -->
<g id="edge12" class="edge"><title>Node9&#45;&gt;Node12</title>
<path fill="none" stroke="midnightblue" d="M362.068,-221.168C341.771,-214.055 318.376,-203.342 301,-188 282.971,-172.08 271.228,-145.466 266.048,-131.755"/>
<polygon fill="midnightblue" stroke="midnightblue" points="361.15,-224.551 371.743,-224.375 363.352,-217.906 361.15,-224.551"/>
</g>
<!-- Node9&#45;&gt;Node13 -->
<g id="edge22" class="edge"><title>Node9&#45;&gt;Node13</title>
<path fill="none" stroke="midnightblue" d="M427.48,-218.291C438.704,-210.069 452.293,-199.234 463,-188 505.204,-143.718 516.265,-131.02 543,-76 552.249,-56.9657 557.885,-32.5634 560.416,-19.7521"/>
<polygon fill="midnightblue" stroke="midnightblue" points="425.192,-215.624 419.086,-224.283 429.259,-221.322 425.192,-215.624"/>
</g>
<!-- Node9&#45;&gt;Node14 -->
<g id="edge23" class="edge"><title>Node9&#45;&gt;Node14</title>
<path fill="none" stroke="midnightblue" d="M358.813,-229.016C298.855,-223.111 199.698,-210.267 171,-188 133.207,-158.676 119.328,-98.1951 115.349,-75.6884"/>
<polygon fill="midnightblue" stroke="midnightblue" points="358.516,-232.503 368.804,-229.971 359.182,-225.535 358.516,-232.503"/>
</g>
<!-- Node15 -->
<g id="node15" class="node"><title>Node15</title>
<g id="a_node15"><a xlink:href="tokeniser_8hpp.html" target="_top" xlink:title="Declaration of the Tokeniser class. ">
<polygon fill="white" stroke="black" points="310.5,-168.5 310.5,-187.5 419.5,-187.5 419.5,-168.5 310.5,-168.5"/>
<text text-anchor="middle" x="365" y="-175.5" font-family="Helvetica,sans-Serif" font-size="10.00">src/io/tokeniser.hpp</text>
</a>
</g>
</g>
<!-- Node9&#45;&gt;Node15 -->
<g id="edge18" class="edge"><title>Node9&#45;&gt;Node15</title>
<path fill="none" stroke="midnightblue" d="M392.983,-215.855C385.883,-206.505 377.396,-195.327 371.644,-187.751"/>
<polygon fill="midnightblue" stroke="midnightblue" points="390.395,-218.235 399.23,-224.083 395.97,-214.002 390.395,-218.235"/>
</g>
<!-- Node16 -->
<g id="node16" class="node"><title>Node16</title>
<g id="a_node16"><a xlink:href="tokeniser_8cpp.html" target="_top" xlink:title="Definition of the Tokeniser class. ">
<polygon fill="white" stroke="black" points="350,-112.5 350,-131.5 458,-131.5 458,-112.5 350,-112.5"/>
<text text-anchor="middle" x="404" y="-119.5" font-family="Helvetica,sans-Serif" font-size="10.00">src/io/tokeniser.cpp</text>
</a>
</g>
</g>
<!-- Node9&#45;&gt;Node16 -->
<g id="edge21" class="edge"><title>Node9&#45;&gt;Node16</title>
<path fill="none" stroke="midnightblue" d="M417.667,-215.532C424.901,-202.576 432.099,-184.394 428,-168 424.607,-154.428 416.26,-140.468 410.367,-131.768"/>
<polygon fill="midnightblue" stroke="midnightblue" points="414.536,-213.945 412.315,-224.304 420.511,-217.591 414.536,-213.945"/>
</g>
<!-- Node12&#45;&gt;Node11 -->
<g id="edge13" class="edge"><title>Node12&#45;&gt;Node11</title>
<path fill="none" stroke="midnightblue" d="M307.921,-110.024C349.668,-99.8232 410.982,-84.8414 449.146,-75.5164"/>
<polygon fill="midnightblue" stroke="midnightblue" points="306.902,-106.67 298.018,-112.444 308.563,-113.47 306.902,-106.67"/>
</g>
<!-- Node12&#45;&gt;Node12 -->
<g id="edge14" class="edge"><title>Node12&#45;&gt;Node12</title>
<path fill="none" stroke="midnightblue" d="M302.318,-132.432C318.173,-133.04 331.5,-129.563 331.5,-122 331.5,-112.867 312.066,-109.692 292.215,-112.475"/>
<polygon fill="midnightblue" stroke="midnightblue" points="302.488,-128.933 292.215,-131.525 301.862,-135.905 302.488,-128.933"/>
</g>
<!-- Node12&#45;&gt;Node13 -->
<g id="edge15" class="edge"><title>Node12&#45;&gt;Node13</title>
<path fill="none" stroke="midnightblue" d="M292.351,-108.562C324.638,-95.0363 378.167,-73.0672 425,-56 462.517,-42.3278 506.466,-28.224 534.269,-19.5338"/>
<polygon fill="midnightblue" stroke="midnightblue" points="290.907,-105.373 283.044,-112.474 293.619,-111.826 290.907,-105.373"/>
</g>
<!-- Node12&#45;&gt;Node14 -->
<g id="edge16" class="edge"><title>Node12&#45;&gt;Node14</title>
<path fill="none" stroke="midnightblue" d="M229.629,-108.906C201.616,-98.7536 162.304,-84.5063 137.499,-75.5164"/>
<polygon fill="midnightblue" stroke="midnightblue" points="228.796,-112.327 239.391,-112.444 231.181,-105.746 228.796,-112.327"/>
</g>
<!-- Node14&#45;&gt;Node13 -->
<g id="edge17" class="edge"><title>Node14&#45;&gt;Node13</title>
<path fill="none" stroke="midnightblue" d="M162.781,-59.1201C252.707,-48.2808 442.828,-25.3645 523.985,-15.5822"/>
<polygon fill="midnightblue" stroke="midnightblue" points="162.093,-55.6776 152.584,-60.3493 162.931,-62.6273 162.093,-55.6776"/>
</g>
<!-- Node15&#45;&gt;Node12 -->
<g id="edge19" class="edge"><title>Node15&#45;&gt;Node12</title>
<path fill="none" stroke="midnightblue" d="M339.669,-163.59C320.81,-153.605 295.616,-140.267 279.347,-131.655"/>
<polygon fill="midnightblue" stroke="midnightblue" points="338.136,-166.738 348.612,-168.324 341.412,-160.552 338.136,-166.738"/>
</g>
<!-- Node15&#45;&gt;Node16 -->
<g id="edge20" class="edge"><title>Node15&#45;&gt;Node16</title>
<path fill="none" stroke="midnightblue" d="M377.382,-159.855C384.135,-150.505 392.209,-139.327 397.68,-131.751"/>
<polygon fill="midnightblue" stroke="midnightblue" points="374.458,-157.927 371.44,-168.083 380.132,-162.025 374.458,-157.927"/>
</g>
</g>
</svg>
        <g id="navigator" transform="translate(0 0)" fill="#404254">
                <rect fill="#f2f5e9" fill-opacity="0.5" stroke="#606060" stroke-width=".5" x="0" y="0" width="60" height="60"/>
                <use id="zoomplus" xlink:href="#zoomPlus" x="17" y="9" onmousedown="handleZoom(evt,'in')"/>
                <use id="zoomminus" xlink:href="#zoomMin" x="42" y="9" onmousedown="handleZoom(evt,'out')"/>
                <use id="reset" xlink:href="#resetDef" x="30" y="36" onmousedown="handleReset()"/>
                <g id="arrowUp" xlink:href="#dirArrow" transform="translate(30 24)" onmousedown="handlePan(0,-1)">
                  <use xlink:href="#rim" fill="#404040">
                        <set attributeName="fill" to="#808080" begin="arrowUp.mouseover" end="arrowUp.mouseout"/>
                  </use>
                  <path fill="none" stroke="white" stroke-width="1.5" d="M0,-3.0v7 M-2.5,-0.5L0,-3.0L2.5,-0.5"/>
                </g>
                <g id="arrowRight" xlink:href="#dirArrow" transform="rotate(90) translate(36 -43)" onmousedown="handlePan(1,0)">
                  <use xlink:href="#rim" fill="#404040">
                        <set attributeName="fill" to="#808080" begin="arrowRight.mouseover" end="arrowRight.mouseout"/>
                  </use>
                  <path fill="none" stroke="white" stroke-width="1.5" d="M0,-3.0v7 M-2.5,-0.5L0,-3.0L2.5,-0.5"/>
                </g>
                <g id="arrowDown" xlink:href="#dirArrow" transform="rotate(180) translate(-30 -48)" onmousedown="handlePan(0,1)">
                  <use xlink:href="#rim" fill="#404040">
                        <set attributeName="fill" to="#808080" begin="arrowDown.mouseover" end="arrowDown.mouseout"/>
                  </use>
                  <path fill="none" stroke="white" stroke-width="1.5" d="M0,-3.0v7 M-2.5,-0.5L0,-3.0L2.5,-0.5"/>
                </g>
                <g id="arrowLeft" xlink:href="#dirArrow" transform="rotate(270) translate(-36 17)" onmousedown="handlePan(-1,0)">
                  <use xlink:href="#rim" fill="#404040">
                        <set attributeName="fill" to="#808080" begin="arrowLeft.mouseover" end="arrowLeft.mouseout"/>
                  </use>
                  <path fill="none" stroke="white" stroke-width="1.5" d="M0,-3.0v7 M-2.5,-0.5L0,-3.0L2.5,-0.5"/>
                </g>
        </g>
        <svg viewBox="0 0 15 15" width="100%" height="30px" preserveAspectRatio="xMaxYMin meet">
         <g id="arrow_out" transform="scale(0.3 0.3)">
          <a xlink:href="ringbuffer_8hpp__dep__incl_org.svg" target="_base">
           <rect id="button" ry="5" rx="5" y="6" x="6" height="38" width="38"
                fill="#f2f5e9" fill-opacity="0.5" stroke="#606060" stroke-width="1.0"/>
           <path id="arrow"
             d="M 11.500037,31.436501 C 11.940474,20.09759 22.043105,11.32322 32.158766,21.979434 L 37.068811,17.246167 C 37.068811,17.246167 37.088388,32 37.088388,32 L 22.160133,31.978069 C 22.160133,31.978069 26.997745,27.140456 26.997745,27.140456 C 18.528582,18.264221 13.291696,25.230495 11.500037,31.436501 z"
             style="fill:#404040;"/>
          </a>
         </g>
        </svg>
</svg>
