<?xml version="1.0" encoding="UTF-8" standalone="no"?>
<!DOCTYPE svg PUBLIC "-//W3C//DTD SVG 1.1//EN"
 "http://www.w3.org/Graphics/SVG/1.1/DTD/svg11.dtd">
<!-- Generated by graphviz version 2.38.0 (20140413.2041)
 -->
<!-- Title: src/audio/ringbuffer.cpp Pages: 1 -->
<svg width="387pt" height="151pt"
 viewBox="0.00 0.00 386.50 151.00" xmlns="http://www.w3.org/2000/svg" xmlns:xlink="http://www.w3.org/1999/xlink">
<g id="graph0" class="graph" transform="scale(1 1) rotate(0) translate(4 147)">
<title>src/audio/ringbuffer.cpp</title>
<polygon fill="white" stroke="none" points="-4,4 -4,-147 382.5,-147 382.5,4 -4,4"/>
<!-- Node1 -->
<g id="node1" class="node"><title>Node1</title>
<polygon fill="#bfbfbf" stroke="black" points="85.5,-123.5 85.5,-142.5 211.5,-142.5 211.5,-123.5 85.5,-123.5"/>
<text text-anchor="middle" x="148.5" y="-130.5" font-family="Helvetica,sans-Serif" font-size="10.00">src/audio/ringbuffer.cpp</text>
</g>
<!-- Node2 -->
<g id="node2" class="node"><title>Node2</title>
<polygon fill="white" stroke="#bfbfbf" points="0,-67.5 0,-86.5 51,-86.5 51,-67.5 0,-67.5"/>
<text text-anchor="middle" x="25.5" y="-74.5" font-family="Helvetica,sans-Serif" font-size="10.00">cassert</text>
</g>
<!-- Node1&#45;&gt;Node2 -->
<g id="edge1" class="edge"><title>Node1&#45;&gt;Node2</title>
<path fill="none" stroke="midnightblue" d="M129.01,-123.444C108.858,-114.596 77.1771,-100.687 54.1692,-90.5865"/>
<polygon fill="midnightblue" stroke="midnightblue" points="55.462,-87.3316 44.8985,-86.5164 52.648,-93.7411 55.462,-87.3316"/>
</g>
<!-- Node3 -->
<g id="node3" class="node"><title>Node3</title>
<polygon fill="white" stroke="#bfbfbf" points="22,-0.5 22,-30.5 143,-30.5 143,-0.5 22,-0.5"/>
<text text-anchor="start" x="30" y="-18.5" font-family="Helvetica,sans-Serif" font-size="10.00">../contrib/pa_ringbuffer</text>
<text text-anchor="middle" x="82.5" y="-7.5" font-family="Helvetica,sans-Serif" font-size="10.00">/pa_ringbuffer.h</text>
</g>
<!-- Node1&#45;&gt;Node3 -->
<g id="edge2" class="edge"><title>Node1&#45;&gt;Node3</title>
<path fill="none" stroke="midnightblue" d="M134.896,-123.335C123.425,-115.304 107.483,-102.311 98.5,-87 90.2505,-72.939 86.2533,-54.9971 84.3171,-40.7325"/>
<polygon fill="midnightblue" stroke="midnightblue" points="87.7818,-40.22 83.2019,-30.6662 80.8244,-40.9909 87.7818,-40.22"/>
</g>
<!-- Node4 -->
<g id="node4" class="node"><title>Node4</title>
<g id="a_node4"><a xlink:href="errors_8hpp.html" target="_top" xlink:title="Declarations of the playd Error exception set. ">
<polygon fill="white" stroke="black" points="207,-67.5 207,-86.5 280,-86.5 280,-67.5 207,-67.5"/>
<text text-anchor="middle" x="243.5" y="-74.5" font-family="Helvetica,sans-Serif" font-size="10.00">../errors.hpp</text>
</a>
</g>
</g>
<!-- Node1&#45;&gt;Node4 -->
<g id="edge3" class="edge"><title>Node1&#45;&gt;Node4</title>
<path fill="none" stroke="midnightblue" d="M163.763,-123.324C178.721,-114.822 201.755,-101.729 219.227,-91.7975"/>
<polygon fill="midnightblue" stroke="midnightblue" points="221.31,-94.639 228.274,-86.6545 217.851,-88.5534 221.31,-94.639"/>
</g>
<!-- Node7 -->
<g id="node7" class="node"><title>Node7</title>
<g id="a_node7"><a xlink:href="messages_8h.html" target="_top" xlink:title="Constant human&#45;readable messages used within playd. ">
<polygon fill="white" stroke="black" points="298.5,-67.5 298.5,-86.5 378.5,-86.5 378.5,-67.5 298.5,-67.5"/>
<text text-anchor="middle" x="338.5" y="-74.5" font-family="Helvetica,sans-Serif" font-size="10.00">../messages.h</text>
</a>
</g>
</g>
<!-- Node1&#45;&gt;Node7 -->
<g id="edge6" class="edge"><title>Node1&#45;&gt;Node7</title>
<path fill="none" stroke="midnightblue" d="M178.606,-123.444C211.126,-114.201 263.079,-99.4356 298.891,-89.2572"/>
<polygon fill="midnightblue" stroke="midnightblue" points="299.873,-92.617 308.535,-86.5164 297.959,-85.8837 299.873,-92.617"/>
</g>
<!-- Node9 -->
<g id="node9" class="node"><title>Node9</title>
<g id="a_node9"><a xlink:href="ringbuffer_8hpp.html" target="_top" xlink:title="The RingBuffer class template. ">
<polygon fill="white" stroke="black" points="108,-67.5 108,-86.5 189,-86.5 189,-67.5 108,-67.5"/>
<text text-anchor="middle" x="148.5" y="-74.5" font-family="Helvetica,sans-Serif" font-size="10.00">ringbuffer.hpp</text>
</a>
</g>
</g>
<!-- Node1&#45;&gt;Node9 -->
<g id="edge8" class="edge"><title>Node1&#45;&gt;Node9</title>
<path fill="none" stroke="midnightblue" d="M148.5,-123.083C148.5,-116.006 148.5,-105.861 148.5,-96.9865"/>
<polygon fill="midnightblue" stroke="midnightblue" points="152,-96.751 148.5,-86.7511 145,-96.7511 152,-96.751"/>
</g>
<!-- Node5 -->
<g id="node5" class="node"><title>Node5</title>
<polygon fill="white" stroke="#bfbfbf" points="166,-6 166,-25 223,-25 223,-6 166,-6"/>
<text text-anchor="middle" x="194.5" y="-13" font-family="Helvetica,sans-Serif" font-size="10.00">iostream</text>
</g>
<!-- Node4&#45;&gt;Node5 -->
<g id="edge4" class="edge"><title>Node4&#45;&gt;Node5</title>
<path fill="none" stroke="midnightblue" d="M236.479,-67.4751C229.057,-58.4617 217.167,-44.0246 207.933,-32.8118"/>
<polygon fill="midnightblue" stroke="midnightblue" points="210.566,-30.5034 201.507,-25.0091 205.163,-34.9534 210.566,-30.5034"/>
</g>
<!-- Node6 -->
<g id="node6" class="node"><title>Node6</title>
<polygon fill="white" stroke="#bfbfbf" points="241.5,-6 241.5,-25 295.5,-25 295.5,-6 241.5,-6"/>
<text text-anchor="middle" x="268.5" y="-13" font-family="Helvetica,sans-Serif" font-size="10.00">sstream</text>
</g>
<!-- Node4&#45;&gt;Node6 -->
<g id="edge5" class="edge"><title>Node4&#45;&gt;Node6</title>
<path fill="none" stroke="midnightblue" d="M247.082,-67.4751C250.683,-58.9035 256.346,-45.4269 260.944,-34.483"/>
<polygon fill="midnightblue" stroke="midnightblue" points="264.278,-35.5842 264.925,-25.0091 257.824,-32.8726 264.278,-35.5842"/>
</g>
<!-- Node8 -->
<g id="node8" class="node"><title>Node8</title>
<polygon fill="white" stroke="#bfbfbf" points="317,-6 317,-25 360,-25 360,-6 317,-6"/>
<text text-anchor="middle" x="338.5" y="-13" font-family="Helvetica,sans-Serif" font-size="10.00">string</text>
</g>
<!-- Node7&#45;&gt;Node8 -->
<g id="edge7" class="edge"><title>Node7&#45;&gt;Node8</title>
<path fill="none" stroke="midnightblue" d="M338.5,-67.4751C338.5,-59.0803 338.5,-45.9806 338.5,-35.1631"/>
<polygon fill="midnightblue" stroke="midnightblue" points="342,-35.0091 338.5,-25.0091 335,-35.0091 342,-35.0091"/>
</g>
<!-- Node9&#45;&gt;Node3 -->
<g id="edge9" class="edge"><title>Node9&#45;&gt;Node3</title>
<path fill="none" stroke="midnightblue" d="M139.044,-67.4751C130.356,-59.6426 117.124,-47.7145 105.645,-37.3656"/>
<polygon fill="midnightblue" stroke="midnightblue" points="107.826,-34.6193 98.0549,-30.523 103.139,-39.8184 107.826,-34.6193"/>
</g>
</g>
</svg>
