<?xml version="1.0" encoding="UTF-8" standalone="no"?>
<!DOCTYPE svg PUBLIC "-//W3C//DTD SVG 1.1//EN"
 "http://www.w3.org/Graphics/SVG/1.1/DTD/svg11.dtd">
<!-- Generated by graphviz version 2.36.0 (20140111.2315)
 -->
<!-- Title: src/audio/ringbuffer.hpp Pages: 1 -->
<svg width="441pt" height="252pt"
 viewBox="0.00 0.00 441.00 252.00" xmlns="http://www.w3.org/2000/svg" xmlns:xlink="http://www.w3.org/1999/xlink">
<g id="graph0" class="graph" transform="scale(1 1) rotate(0) translate(4 248)">
<title>src/audio/ringbuffer.hpp</title>
<polygon fill="white" stroke="none" points="-4,4 -4,-248 437,-248 437,4 -4,4"/>
<!-- Node2 -->
<g id="node1" class="node"><title>Node2</title>
<polygon fill="#bfbfbf" stroke="black" points="142.5,-224.5 142.5,-243.5 271.5,-243.5 271.5,-224.5 142.5,-224.5"/>
<text text-anchor="middle" x="207" y="-231.5" font-family="Helvetica,sans-Serif" font-size="10.00">src/audio/ringbuffer.hpp</text>
</g>
<!-- Node3 -->
<g id="node2" class="node"><title>Node3</title>
<g id="a_node2"><a xlink:href="audio__sink_8hpp.html" target="_top" xlink:title="Declaration of the AudioSink class. ">
<polygon fill="white" stroke="black" points="140,-168.5 140,-187.5 274,-187.5 274,-168.5 140,-168.5"/>
<text text-anchor="middle" x="207" y="-175.5" font-family="Helvetica,sans-Serif" font-size="10.00">src/audio/audio_sink.hpp</text>
</a>
</g>
</g>
<!-- Node2&#45;&gt;Node3 -->
<g id="edge1" class="edge"><title>Node2&#45;&gt;Node3</title>
<path fill="none" stroke="midnightblue" d="M207,-213.805C207,-204.91 207,-194.78 207,-187.751"/>
<polygon fill="midnightblue" stroke="midnightblue" points="203.5,-214.083 207,-224.083 210.5,-214.083 203.5,-214.083"/>
</g>
<!-- Node5 -->
<g id="node4" class="node"><title>Node5</title>
<g id="a_node4"><a xlink:href="audio__sink_8cpp.html" target="_top" xlink:title="Implementation of the AudioSink class. ">
<polygon fill="white" stroke="black" points="0,-112.5 0,-131.5 134,-131.5 134,-112.5 0,-112.5"/>
<text text-anchor="middle" x="67" y="-119.5" font-family="Helvetica,sans-Serif" font-size="10.00">src/audio/audio_sink.cpp</text>
</a>
</g>
</g>
<!-- Node2&#45;&gt;Node5 -->
<g id="edge12" class="edge"><title>Node2&#45;&gt;Node5</title>
<path fill="none" stroke="midnightblue" d="M180.721,-219.64C165.565,-211.407 146.502,-200.128 131,-188 108.299,-170.24 85.5282,-144.88 74.2608,-131.702"/>
<polygon fill="midnightblue" stroke="midnightblue" points="179.114,-222.749 189.587,-224.352 182.399,-216.568 179.114,-222.749"/>
</g>
<!-- Node11 -->
<g id="node10" class="node"><title>Node11</title>
<g id="a_node10"><a xlink:href="ringbuffer_8cpp.html" target="_top" xlink:title="Implementation of the RingBuffer class. ">
<polygon fill="white" stroke="black" points="292,-168.5 292,-187.5 420,-187.5 420,-168.5 292,-168.5"/>
<text text-anchor="middle" x="356" y="-175.5" font-family="Helvetica,sans-Serif" font-size="10.00">src/audio/ringbuffer.cpp</text>
</a>
</g>
</g>
<!-- Node2&#45;&gt;Node11 -->
<g id="edge13" class="edge"><title>Node2&#45;&gt;Node11</title>
<path fill="none" stroke="midnightblue" d="M240.371,-220.906C268.384,-210.754 307.696,-196.506 332.501,-187.516"/>
<polygon fill="midnightblue" stroke="midnightblue" points="238.819,-217.746 230.609,-224.444 241.204,-224.327 238.819,-217.746"/>
</g>
<!-- Node4 -->
<g id="node3" class="node"><title>Node4</title>
<g id="a_node3"><a xlink:href="audio_8cpp.html" target="_top" xlink:title="Implementation of the PipeAudio class. ">
<polygon fill="white" stroke="black" points="152,-112.5 152,-131.5 262,-131.5 262,-112.5 152,-112.5"/>
<text text-anchor="middle" x="207" y="-119.5" font-family="Helvetica,sans-Serif" font-size="10.00">src/audio/audio.cpp</text>
</a>
</g>
</g>
<!-- Node3&#45;&gt;Node4 -->
<g id="edge2" class="edge"><title>Node3&#45;&gt;Node4</title>
<path fill="none" stroke="midnightblue" d="M207,-157.805C207,-148.91 207,-138.78 207,-131.751"/>
<polygon fill="midnightblue" stroke="midnightblue" points="203.5,-158.083 207,-168.083 210.5,-158.083 203.5,-158.083"/>
</g>
<!-- Node3&#45;&gt;Node5 -->
<g id="edge3" class="edge"><title>Node3&#45;&gt;Node5</title>
<path fill="none" stroke="midnightblue" d="M175.298,-164.772C149,-154.629 112.284,-140.467 89.0796,-131.516"/>
<polygon fill="midnightblue" stroke="midnightblue" points="174.227,-168.11 184.817,-168.444 176.746,-161.579 174.227,-168.11"/>
</g>
<!-- Node6 -->
<g id="node5" class="node"><title>Node6</title>
<g id="a_node5"><a xlink:href="player_8hpp.html" target="_top" xlink:title="Declaration of the Player class, and associated types. ">
<polygon fill="white" stroke="black" points="280.5,-112.5 280.5,-131.5 363.5,-131.5 363.5,-112.5 280.5,-112.5"/>
<text text-anchor="middle" x="322" y="-119.5" font-family="Helvetica,sans-Serif" font-size="10.00">src/player.hpp</text>
</a>
</g>
</g>
<!-- Node3&#45;&gt;Node6 -->
<g id="edge4" class="edge"><title>Node3&#45;&gt;Node6</title>
<path fill="none" stroke="midnightblue" d="M234.481,-164.096C255.966,-154.007 285.222,-140.27 303.863,-131.516"/>
<polygon fill="midnightblue" stroke="midnightblue" points="232.786,-161.025 225.222,-168.444 235.762,-167.361 232.786,-161.025"/>
</g>
<!-- Node10 -->
<g id="node9" class="node"><title>Node10</title>
<g id="a_node9"><a xlink:href="player_8cpp.html" target="_top" xlink:title="Main implementation file for the Player class. ">
<polygon fill="white" stroke="black" points="350.5,-56.5 350.5,-75.5 433.5,-75.5 433.5,-56.5 350.5,-56.5"/>
<text text-anchor="middle" x="392" y="-63.5" font-family="Helvetica,sans-Serif" font-size="10.00">src/player.cpp</text>
</a>
</g>
</g>
<!-- Node3&#45;&gt;Node10 -->
<g id="edge11" class="edge"><title>Node3&#45;&gt;Node10</title>
<path fill="none" stroke="midnightblue" d="M269.026,-166.503C309.351,-158.503 357.104,-146.423 372,-132 387.607,-116.888 391.111,-89.9204 391.847,-75.9465"/>
<polygon fill="midnightblue" stroke="midnightblue" points="268.113,-163.114 258.958,-168.448 269.44,-169.987 268.113,-163.114"/>
</g>
<!-- Node7 -->
<g id="node6" class="node"><title>Node7</title>
<g id="a_node6"><a xlink:href="io_8cpp.html" target="_top" xlink:title="Implementation of the non&#45;virtual aspects of the IoCore class. ">
<polygon fill="white" stroke="black" points="187,-0.5 187,-19.5 249,-19.5 249,-0.5 187,-0.5"/>
<text text-anchor="middle" x="218" y="-7.5" font-family="Helvetica,sans-Serif" font-size="10.00">src/io.cpp</text>
</a>
</g>
</g>
<!-- Node6&#45;&gt;Node7 -->
<g id="edge5" class="edge"><title>Node6&#45;&gt;Node7</title>
<path fill="none" stroke="midnightblue" d="M270.658,-110.151C251.921,-103.5 232.519,-92.8775 221,-76 209.41,-59.0181 212.783,-33.3293 215.702,-19.8969"/>
<polygon fill="midnightblue" stroke="midnightblue" points="269.76,-113.538 280.351,-113.279 271.909,-106.876 269.76,-113.538"/>
</g>
<!-- Node8 -->
<g id="node7" class="node"><title>Node8</title>
<g id="a_node7"><a xlink:href="io_8hpp.html" target="_top" xlink:title="Declaration of the I/O classes used in playd. ">
<polygon fill="white" stroke="black" points="230.5,-56.5 230.5,-75.5 293.5,-75.5 293.5,-56.5 230.5,-56.5"/>
<text text-anchor="middle" x="262" y="-63.5" font-family="Helvetica,sans-Serif" font-size="10.00">src/io.hpp</text>
</a>
</g>
</g>
<!-- Node6&#45;&gt;Node8 -->
<g id="edge6" class="edge"><title>Node6&#45;&gt;Node8</title>
<path fill="none" stroke="midnightblue" d="M304.819,-105.537C294.121,-95.9087 280.744,-83.8694 271.815,-75.8339"/>
<polygon fill="midnightblue" stroke="midnightblue" points="302.586,-108.236 312.36,-112.324 307.268,-103.033 302.586,-108.236"/>
</g>
<!-- Node9 -->
<g id="node8" class="node"><title>Node9</title>
<g id="a_node8"><a xlink:href="main_8cpp.html" target="_top" xlink:title="Main entry point and implementation of the playd class. ">
<polygon fill="white" stroke="black" points="275,-0.5 275,-19.5 353,-19.5 353,-0.5 275,-0.5"/>
<text text-anchor="middle" x="314" y="-7.5" font-family="Helvetica,sans-Serif" font-size="10.00">src/main.cpp</text>
</a>
</g>
</g>
<!-- Node6&#45;&gt;Node9 -->
<g id="edge9" class="edge"><title>Node6&#45;&gt;Node9</title>
<path fill="none" stroke="midnightblue" d="M320.643,-102.348C318.891,-78.2538 315.913,-37.3079 314.625,-19.5914"/>
<polygon fill="midnightblue" stroke="midnightblue" points="317.156,-102.649 321.372,-112.368 324.138,-102.141 317.156,-102.649"/>
</g>
<!-- Node6&#45;&gt;Node10 -->
<g id="edge10" class="edge"><title>Node6&#45;&gt;Node10</title>
<path fill="none" stroke="midnightblue" d="M341.314,-106.101C353.912,-96.3824 369.928,-84.0269 380.549,-75.8339"/>
<polygon fill="midnightblue" stroke="midnightblue" points="339.027,-103.445 333.247,-112.324 343.302,-108.987 339.027,-103.445"/>
</g>
<!-- Node8&#45;&gt;Node7 -->
<g id="edge7" class="edge"><title>Node8&#45;&gt;Node7</title>
<path fill="none" stroke="midnightblue" d="M248.265,-48.144C240.599,-38.7357 231.367,-27.4046 225.131,-19.7511"/>
<polygon fill="midnightblue" stroke="midnightblue" points="245.704,-50.5415 254.734,-56.083 251.131,-46.1198 245.704,-50.5415"/>
</g>
<!-- Node8&#45;&gt;Node9 -->
<g id="edge8" class="edge"><title>Node8&#45;&gt;Node9</title>
<path fill="none" stroke="midnightblue" d="M277.679,-48.7175C286.845,-39.1997 298.053,-27.5608 305.573,-19.7511"/>
<polygon fill="midnightblue" stroke="midnightblue" points="275.002,-46.452 270.587,-56.083 280.044,-51.3075 275.002,-46.452"/>
</g>
</g>
</svg>
