<?xml version="1.0" encoding="UTF-8" standalone="no"?>
<!DOCTYPE svg PUBLIC "-//W3C//DTD SVG 1.1//EN"
 "http://www.w3.org/Graphics/SVG/1.1/DTD/svg11.dtd">
<!-- Generated by graphviz version 2.38.0 (20140413.2041)
 -->
<!-- Title: src/audio/ringbuffer.hpp Pages: 1 -->
<!--zoomable 532 -->
<svg id="main" version="1.1" xmlns="http://www.w3.org/2000/svg" xmlns:xlink="http://www.w3.org/1999/xlink" xml:space="preserve" onload="init(evt)">
<style type="text/css"><![CDATA[
.edge:hover path { stroke: red; }
.edge:hover polygon { stroke: red; fill: red; }
]]></style>
<script type="text/javascript"><![CDATA[
var edges = document.getElementsByTagName('g');
if (edges && edges.length) {
  for (var i=0;i<edges.length;i++) {
    if (edges[i].id.substr(0,4)=='edge') {
      edges[i].setAttribute('class','edge');
    }
  }
}
]]></script>
        <defs>
                <circle id="rim" cx="0" cy="0" r="7"/>
                <circle id="rim2" cx="0" cy="0" r="3.5"/>
                <g id="zoomPlus">
                        <use xlink:href="#rim" fill="#404040">
                                <set attributeName="fill" to="#808080" begin="zoomplus.mouseover" end="zoomplus.mouseout"/>
                        </use>
                        <path d="M-4,0h8M0,-4v8" fill="none" stroke="white" stroke-width="1.5" pointer-events="none"/>
                </g>
                <g id="zoomMin">
                        <use xlink:href="#rim" fill="#404040">
                                <set attributeName="fill" to="#808080" begin="zoomminus.mouseover" end="zoomminus.mouseout"/>
                        </use>
                        <path d="M-4,0h8" fill="none" stroke="white" stroke-width="1.5" pointer-events="none"/>
                </g>
                <g id="dirArrow">
                        <path fill="none" stroke="white" stroke-width="1.5" d="M0,-3.0v7 M-2.5,-0.5L0,-3.0L2.5,-0.5"/>
                </g>
               <g id="resetDef">
                       <use xlink:href="#rim2" fill="#404040">
                               <set attributeName="fill" to="#808080" begin="reset.mouseover" end="reset.mouseout"/>
                       </use>
               </g>
        </defs>

<script type="text/javascript">
var viewWidth = 1030;
var viewHeight = 532;
var sectionId = 'dynsection-1';
</script>
<script xlink:href="svgpan.js"/>
<svg id="graph" class="graph">
<g id="viewport">
<title>src/audio/ringbuffer.hpp</title>
<polygon fill="white" stroke="none" points="-4,4 -4,-528 1026,-528 1026,4 -4,4"/>
<!-- Node1 -->
<g id="node1" class="node"><title>Node1</title>
<polygon fill="#bfbfbf" stroke="black" points="587.5,-504.5 587.5,-523.5 716.5,-523.5 716.5,-504.5 587.5,-504.5"/>
<text text-anchor="middle" x="652" y="-511.5" font-family="Helvetica,sans-Serif" font-size="10.00">src/audio/ringbuffer.hpp</text>
</g>
<!-- Node2 -->
<g id="node2" class="node"><title>Node2</title>
<g id="a_node2"><a xlink:href="audio__sink_8hpp.html" target="_top" xlink:title="Declaration of the AudioSink class. ">
<polygon fill="white" stroke="black" points="649,-448.5 649,-467.5 783,-467.5 783,-448.5 649,-448.5"/>
<text text-anchor="middle" x="716" y="-455.5" font-family="Helvetica,sans-Serif" font-size="10.00">src/audio/audio_sink.hpp</text>
</a>
</g>
</g>
<!-- Node1&#45;&gt;Node2 -->
<g id="edge1" class="edge"><title>Node1&#45;&gt;Node2</title>
<path fill="none" stroke="midnightblue" d="M669.991,-497.82C681.458,-488.145 695.913,-475.948 705.53,-467.834"/>
<polygon fill="midnightblue" stroke="midnightblue" points="667.669,-495.2 662.283,-504.324 672.183,-500.55 667.669,-495.2"/>
</g>
<!-- Node4 -->
<g id="node4" class="node"><title>Node4</title>
<g id="a_node4"><a xlink:href="audio__sink_8cpp.html" target="_top" xlink:title="Implementation of the AudioSink class. ">
<polygon fill="white" stroke="black" points="488,-392.5 488,-411.5 622,-411.5 622,-392.5 488,-392.5"/>
<text text-anchor="middle" x="555" y="-399.5" font-family="Helvetica,sans-Serif" font-size="10.00">src/audio/audio_sink.cpp</text>
</a>
</g>
</g>
<!-- Node1&#45;&gt;Node4 -->
<g id="edge36" class="edge"><title>Node1&#45;&gt;Node4</title>
<path fill="none" stroke="midnightblue" d="M637.526,-496.586C616.613,-472.871 578.694,-429.869 562.576,-411.591"/>
<polygon fill="midnightblue" stroke="midnightblue" points="635.149,-499.183 644.389,-504.368 640.4,-494.553 635.149,-499.183"/>
</g>
<!-- Node3 -->
<g id="node3" class="node"><title>Node3</title>
<g id="a_node3"><a xlink:href="audio_8cpp.html" target="_top" xlink:title="Implementation of the Audio class. ">
<polygon fill="white" stroke="black" points="810,-392.5 810,-411.5 920,-411.5 920,-392.5 810,-392.5"/>
<text text-anchor="middle" x="865" y="-399.5" font-family="Helvetica,sans-Serif" font-size="10.00">src/audio/audio.cpp</text>
</a>
</g>
</g>
<!-- Node2&#45;&gt;Node3 -->
<g id="edge2" class="edge"><title>Node2&#45;&gt;Node3</title>
<path fill="none" stroke="midnightblue" d="M749.371,-444.906C777.384,-434.754 816.696,-420.506 841.501,-411.516"/>
<polygon fill="midnightblue" stroke="midnightblue" points="747.819,-441.746 739.609,-448.444 750.204,-448.327 747.819,-441.746"/>
</g>
<!-- Node2&#45;&gt;Node4 -->
<g id="edge3" class="edge"><title>Node2&#45;&gt;Node4</title>
<path fill="none" stroke="midnightblue" d="M680.735,-445.172C650.419,-435.004 607.43,-420.585 580.392,-411.516"/>
<polygon fill="midnightblue" stroke="midnightblue" points="679.895,-448.582 690.489,-448.444 682.121,-441.945 679.895,-448.582"/>
</g>
<!-- Node5 -->
<g id="node5" class="node"><title>Node5</title>
<g id="a_node5"><a xlink:href="audio__system_8cpp.html" target="_top" xlink:title="Implementation of the AudioSystem class. ">
<polygon fill="white" stroke="black" points="872,-336.5 872,-355.5 1022,-355.5 1022,-336.5 872,-336.5"/>
<text text-anchor="middle" x="947" y="-343.5" font-family="Helvetica,sans-Serif" font-size="10.00">src/audio/audio_system.cpp</text>
</a>
</g>
</g>
<!-- Node2&#45;&gt;Node5 -->
<g id="edge4" class="edge"><title>Node2&#45;&gt;Node5</title>
<path fill="none" stroke="midnightblue" d="M793.101,-449.158C845.757,-442.268 909.401,-430.421 929,-412 944.87,-397.084 947.181,-369.53 947.258,-355.576"/>
<polygon fill="midnightblue" stroke="midnightblue" points="792.553,-445.699 783.072,-450.428 793.433,-452.644 792.553,-445.699"/>
</g>
<!-- Node6 -->
<g id="node6" class="node"><title>Node6</title>
<g id="a_node6"><a xlink:href="audio__system_8hpp.html" target="_top" xlink:title="Declaration of the AudioSystem class. ">
<polygon fill="white" stroke="black" points="640.5,-392.5 640.5,-411.5 791.5,-411.5 791.5,-392.5 640.5,-392.5"/>
<text text-anchor="middle" x="716" y="-399.5" font-family="Helvetica,sans-Serif" font-size="10.00">src/audio/audio_system.hpp</text>
</a>
</g>
</g>
<!-- Node2&#45;&gt;Node6 -->
<g id="edge5" class="edge"><title>Node2&#45;&gt;Node6</title>
<path fill="none" stroke="midnightblue" d="M716,-437.805C716,-428.91 716,-418.78 716,-411.751"/>
<polygon fill="midnightblue" stroke="midnightblue" points="712.5,-438.083 716,-448.083 719.5,-438.083 712.5,-438.083"/>
</g>
<!-- Node6&#45;&gt;Node5 -->
<g id="edge6" class="edge"><title>Node6&#45;&gt;Node5</title>
<path fill="none" stroke="midnightblue" d="M762.402,-390.153C806.047,-379.95 870.51,-364.881 910.569,-355.516"/>
<polygon fill="midnightblue" stroke="midnightblue" points="761.543,-386.759 752.603,-392.444 763.137,-393.575 761.543,-386.759"/>
</g>
<!-- Node7 -->
<g id="node7" class="node"><title>Node7</title>
<g id="a_node7"><a xlink:href="player__file_8hpp.html" target="_top" xlink:title="Declaration of the PlayerFile class, and associated types. ">
<polygon fill="white" stroke="black" points="552.5,-336.5 552.5,-355.5 687.5,-355.5 687.5,-336.5 552.5,-336.5"/>
<text text-anchor="middle" x="620" y="-343.5" font-family="Helvetica,sans-Serif" font-size="10.00">src/player/player_file.hpp</text>
</a>
</g>
</g>
<!-- Node6&#45;&gt;Node7 -->
<g id="edge7" class="edge"><title>Node6&#45;&gt;Node7</title>
<path fill="none" stroke="midnightblue" d="M691.426,-387.177C673.761,-377.241 650.487,-364.149 635.386,-355.655"/>
<polygon fill="midnightblue" stroke="midnightblue" points="690.144,-390.472 700.576,-392.324 693.576,-384.371 690.144,-390.472"/>
</g>
<!-- Node13 -->
<g id="node13" class="node"><title>Node13</title>
<g id="a_node13"><a xlink:href="main_8cpp.html" target="_top" xlink:title="Main entry point and implementation of the playd class. ">
<polygon fill="white" stroke="black" points="283,-0.5 283,-19.5 361,-19.5 361,-0.5 283,-0.5"/>
<text text-anchor="middle" x="322" y="-7.5" font-family="Helvetica,sans-Serif" font-size="10.00">src/main.cpp</text>
</a>
</g>
</g>
<!-- Node6&#45;&gt;Node13 -->
<g id="edge32" class="edge"><title>Node6&#45;&gt;Node13</title>
<path fill="none" stroke="midnightblue" d="M750.403,-388.443C788.014,-372.234 843,-340.135 843,-291 843,-291 843,-291 843,-121 843,-22.5456 482.324,-11.7751 361.16,-10.9346"/>
<polygon fill="midnightblue" stroke="midnightblue" points="748.698,-385.36 740.788,-392.409 751.367,-391.831 748.698,-385.36"/>
</g>
<!-- Node14 -->
<g id="node14" class="node"><title>Node14</title>
<g id="a_node14"><a xlink:href="main_8hpp.html" target="_top" xlink:title="Declaration of the playd class. ">
<polygon fill="white" stroke="black" points="135.5,-56.5 135.5,-75.5 214.5,-75.5 214.5,-56.5 135.5,-56.5"/>
<text text-anchor="middle" x="175" y="-63.5" font-family="Helvetica,sans-Serif" font-size="10.00">src/main.hpp</text>
</a>
</g>
</g>
<!-- Node6&#45;&gt;Node14 -->
<g id="edge33" class="edge"><title>Node6&#45;&gt;Node14</title>
<path fill="none" stroke="midnightblue" d="M639.091,-391.176C454.2,-367.303 0,-307.027 0,-291 0,-291 0,-291 0,-177 0,-113.483 83.6575,-85.2132 135.29,-73.8144"/>
<polygon fill="midnightblue" stroke="midnightblue" points="638.918,-394.683 649.283,-392.491 639.813,-387.74 638.918,-394.683"/>
</g>
<!-- Node17 -->
<g id="node17" class="node"><title>Node17</title>
<g id="a_node17"><a xlink:href="player_8cpp.html" target="_top" xlink:title="Main implementation file for the Player class. ">
<polygon fill="white" stroke="black" points="699.5,-224.5 699.5,-243.5 814.5,-243.5 814.5,-224.5 699.5,-224.5"/>
<text text-anchor="middle" x="757" y="-231.5" font-family="Helvetica,sans-Serif" font-size="10.00">src/player/player.cpp</text>
</a>
</g>
</g>
<!-- Node6&#45;&gt;Node17 -->
<g id="edge34" class="edge"><title>Node6&#45;&gt;Node17</title>
<path fill="none" stroke="midnightblue" d="M720.71,-381.93C729.604,-345.92 748.545,-269.231 754.884,-243.568"/>
<polygon fill="midnightblue" stroke="midnightblue" points="717.204,-381.528 718.204,-392.075 724,-383.206 717.204,-381.528"/>
</g>
<!-- Node20 -->
<g id="node20" class="node"><title>Node20</title>
<g id="a_node20"><a xlink:href="player__file_8cpp.html" target="_top" xlink:title="Implementation of the PlayerFile class, and associated types. ">
<polygon fill="white" stroke="black" points="585,-280.5 585,-299.5 719,-299.5 719,-280.5 585,-280.5"/>
<text text-anchor="middle" x="652" y="-287.5" font-family="Helvetica,sans-Serif" font-size="10.00">src/player/player_file.cpp</text>
</a>
</g>
</g>
<!-- Node6&#45;&gt;Node20 -->
<g id="edge35" class="edge"><title>Node6&#45;&gt;Node20</title>
<path fill="none" stroke="midnightblue" d="M712.742,-382.438C709.797,-368.883 704.578,-350.431 696,-336 687.29,-321.348 672.857,-307.843 662.909,-299.528"/>
<polygon fill="midnightblue" stroke="midnightblue" points="709.351,-383.334 714.705,-392.476 716.221,-381.991 709.351,-383.334"/>
</g>
<!-- Node8 -->
<g id="node8" class="node"><title>Node8</title>
<g id="a_node8"><a xlink:href="player_8hpp.html" target="_top" xlink:title="Declaration of the Player class, and associated types. ">
<polygon fill="white" stroke="black" points="424,-280.5 424,-299.5 540,-299.5 540,-280.5 424,-280.5"/>
<text text-anchor="middle" x="482" y="-287.5" font-family="Helvetica,sans-Serif" font-size="10.00">src/player/player.hpp</text>
</a>
</g>
</g>
<!-- Node7&#45;&gt;Node8 -->
<g id="edge8" class="edge"><title>Node7&#45;&gt;Node8</title>
<path fill="none" stroke="midnightblue" d="M588.751,-332.772C562.829,-322.629 526.638,-308.467 503.764,-299.516"/>
<polygon fill="midnightblue" stroke="midnightblue" points="587.546,-336.059 598.133,-336.444 590.096,-329.54 587.546,-336.059"/>
</g>
<!-- Node7&#45;&gt;Node20 -->
<g id="edge31" class="edge"><title>Node7&#45;&gt;Node20</title>
<path fill="none" stroke="midnightblue" d="M630.504,-327.275C635.973,-318.045 642.418,-307.17 646.814,-299.751"/>
<polygon fill="midnightblue" stroke="midnightblue" points="627.371,-325.696 625.284,-336.083 633.393,-329.264 627.371,-325.696"/>
</g>
<!-- Node9 -->
<g id="node9" class="node"><title>Node9</title>
<g id="a_node9"><a xlink:href="cmd_8hpp.html" target="_top" xlink:title="Declaration of the CommandHandler class. ">
<polygon fill="white" stroke="black" points="444,-224.5 444,-243.5 520,-243.5 520,-224.5 444,-224.5"/>
<text text-anchor="middle" x="482" y="-231.5" font-family="Helvetica,sans-Serif" font-size="10.00">src/cmd.hpp</text>
</a>
</g>
</g>
<!-- Node8&#45;&gt;Node9 -->
<g id="edge9" class="edge"><title>Node8&#45;&gt;Node9</title>
<path fill="none" stroke="midnightblue" d="M482,-269.805C482,-260.91 482,-250.78 482,-243.751"/>
<polygon fill="midnightblue" stroke="midnightblue" points="478.5,-270.083 482,-280.083 485.5,-270.083 478.5,-270.083"/>
</g>
<!-- Node11 -->
<g id="node11" class="node"><title>Node11</title>
<g id="a_node11"><a xlink:href="io__core_8cpp.html" target="_top" xlink:title="Implementation of the non&#45;virtual aspects of the IoCore class. ">
<polygon fill="white" stroke="black" points="496,-56.5 496,-75.5 596,-75.5 596,-56.5 496,-56.5"/>
<text text-anchor="middle" x="546" y="-63.5" font-family="Helvetica,sans-Serif" font-size="10.00">src/io/io_core.cpp</text>
</a>
</g>
</g>
<!-- Node8&#45;&gt;Node11 -->
<g id="edge24" class="edge"><title>Node8&#45;&gt;Node11</title>
<path fill="none" stroke="midnightblue" d="M511.739,-276.017C543.486,-260.328 592.042,-230.623 613,-188 634.191,-144.903 581.378,-95.2927 557.258,-75.6503"/>
<polygon fill="midnightblue" stroke="midnightblue" points="509.996,-272.971 502.476,-280.435 513.009,-279.289 509.996,-272.971"/>
</g>
<!-- Node12 -->
<g id="node12" class="node"><title>Node12</title>
<g id="a_node12"><a xlink:href="io__core_8hpp.html" target="_top" xlink:title="Declaration of the IoCore class. ">
<polygon fill="white" stroke="black" points="271.5,-112.5 271.5,-131.5 372.5,-131.5 372.5,-112.5 271.5,-112.5"/>
<text text-anchor="middle" x="322" y="-119.5" font-family="Helvetica,sans-Serif" font-size="10.00">src/io/io_core.hpp</text>
</a>
</g>
</g>
<!-- Node8&#45;&gt;Node12 -->
<g id="edge25" class="edge"><title>Node8&#45;&gt;Node12</title>
<path fill="none" stroke="midnightblue" d="M464.987,-273.713C448.5,-259.469 422.336,-238.331 397,-224 359.143,-202.586 330.452,-223.97 306,-188 294.109,-170.508 307.212,-145.034 315.781,-131.769"/>
<polygon fill="midnightblue" stroke="midnightblue" points="462.848,-276.493 472.671,-280.461 467.467,-271.233 462.848,-276.493"/>
</g>
<!-- Node8&#45;&gt;Node13 -->
<g id="edge26" class="edge"><title>Node8&#45;&gt;Node13</title>
<path fill="none" stroke="midnightblue" d="M548.688,-278.233C603.094,-265.197 671,-237.257 671,-179 671,-179 671,-179 671,-121 671,-79.8295 641.749,-74.5621 605,-56 562.981,-34.7757 428.428,-20.3393 361.117,-14.2539"/>
<polygon fill="midnightblue" stroke="midnightblue" points="547.684,-274.871 538.706,-280.497 549.233,-281.698 547.684,-274.871"/>
</g>
<!-- Node8&#45;&gt;Node14 -->
<g id="edge27" class="edge"><title>Node8&#45;&gt;Node14</title>
<path fill="none" stroke="midnightblue" d="M413.925,-286.69C299.896,-282.113 80.3938,-270.002 57,-244 4.50894,-185.658 120.467,-102.214 161.39,-75.5414"/>
<polygon fill="midnightblue" stroke="midnightblue" points="413.823,-290.189 423.953,-287.084 414.098,-283.194 413.823,-290.189"/>
</g>
<!-- Node8&#45;&gt;Node17 -->
<g id="edge28" class="edge"><title>Node8&#45;&gt;Node17</title>
<path fill="none" stroke="midnightblue" d="M535.608,-278.473C587.581,-268.268 665.438,-252.979 713.629,-243.516"/>
<polygon fill="midnightblue" stroke="midnightblue" points="534.713,-275.082 525.575,-280.444 536.062,-281.951 534.713,-275.082"/>
</g>
<!-- Node18 -->
<g id="node18" class="node"><title>Node18</title>
<g id="a_node18"><a xlink:href="player__position_8cpp.html" target="_top" xlink:title="Implementation of the PlayerPosition class, and related Player methods. ">
<polygon fill="white" stroke="black" points="66,-224.5 66,-243.5 224,-243.5 224,-224.5 66,-224.5"/>
<text text-anchor="middle" x="145" y="-231.5" font-family="Helvetica,sans-Serif" font-size="10.00">src/player/player_position.cpp</text>
</a>
</g>
</g>
<!-- Node8&#45;&gt;Node18 -->
<g id="edge29" class="edge"><title>Node8&#45;&gt;Node18</title>
<path fill="none" stroke="midnightblue" d="M418.68,-278.854C355.007,-268.651 257.943,-253.098 198.149,-243.516"/>
<polygon fill="midnightblue" stroke="midnightblue" points="418.174,-282.317 428.601,-280.444 419.281,-275.405 418.174,-282.317"/>
</g>
<!-- Node19 -->
<g id="node19" class="node"><title>Node19</title>
<g id="a_node19"><a xlink:href="player__state_8cpp.html" target="_top" xlink:title="Implementation of the PlayerState class, and related Player methods. ">
<polygon fill="white" stroke="black" points="242,-224.5 242,-243.5 388,-243.5 388,-224.5 242,-224.5"/>
<text text-anchor="middle" x="315" y="-231.5" font-family="Helvetica,sans-Serif" font-size="10.00">src/player/player_state.cpp</text>
</a>
</g>
</g>
<!-- Node8&#45;&gt;Node19 -->
<g id="edge30" class="edge"><title>Node8&#45;&gt;Node19</title>
<path fill="none" stroke="midnightblue" d="M445.83,-277.304C414.363,-267.129 369.506,-252.625 341.338,-243.516"/>
<polygon fill="midnightblue" stroke="midnightblue" points="444.947,-280.697 455.538,-280.444 447.1,-274.037 444.947,-280.697"/>
</g>
<!-- Node10 -->
<g id="node10" class="node"><title>Node10</title>
<g id="a_node10"><a xlink:href="cmd_8cpp.html" target="_top" xlink:title="Implementation of the CommandHandler class. ">
<polygon fill="white" stroke="black" points="529.5,-168.5 529.5,-187.5 604.5,-187.5 604.5,-168.5 529.5,-168.5"/>
<text text-anchor="middle" x="567" y="-175.5" font-family="Helvetica,sans-Serif" font-size="10.00">src/cmd.cpp</text>
</a>
</g>
</g>
<!-- Node9&#45;&gt;Node10 -->
<g id="edge10" class="edge"><title>Node9&#45;&gt;Node10</title>
<path fill="none" stroke="midnightblue" d="M504.194,-218.901C519.78,-208.999 540.13,-196.071 553.377,-187.655"/>
<polygon fill="midnightblue" stroke="midnightblue" points="502.221,-216.007 495.657,-224.324 505.974,-221.916 502.221,-216.007"/>
</g>
<!-- Node9&#45;&gt;Node11 -->
<g id="edge11" class="edge"><title>Node9&#45;&gt;Node11</title>
<path fill="none" stroke="midnightblue" d="M490.393,-215.387C499.736,-195.424 514.97,-161.784 526,-132 533.381,-112.07 540.27,-88.0318 543.71,-75.5154"/>
<polygon fill="midnightblue" stroke="midnightblue" points="487.202,-213.949 486.098,-224.487 493.532,-216.938 487.202,-213.949"/>
</g>
<!-- Node9&#45;&gt;Node12 -->
<g id="edge12" class="edge"><title>Node9&#45;&gt;Node12</title>
<path fill="none" stroke="midnightblue" d="M433.955,-223.072C387.584,-213.005 323.331,-197.584 316,-188 303.33,-171.438 311.973,-145.105 317.837,-131.602"/>
<polygon fill="midnightblue" stroke="midnightblue" points="433.332,-226.518 443.844,-225.197 434.802,-219.674 433.332,-226.518"/>
</g>
<!-- Node9&#45;&gt;Node13 -->
<g id="edge22" class="edge"><title>Node9&#45;&gt;Node13</title>
<path fill="none" stroke="midnightblue" d="M433.649,-229.119C396.25,-224.21 344.522,-213.105 306,-188 279.482,-170.718 272.346,-161.914 262,-132 246.748,-87.902 291.464,-39.2467 312.133,-19.7661"/>
<polygon fill="midnightblue" stroke="midnightblue" points="433.446,-232.62 443.794,-230.346 434.286,-225.671 433.446,-232.62"/>
</g>
<!-- Node9&#45;&gt;Node14 -->
<g id="edge23" class="edge"><title>Node9&#45;&gt;Node14</title>
<path fill="none" stroke="midnightblue" d="M433.871,-226.051C369.107,-216.369 260.219,-198.796 245,-188 204.223,-159.075 183.745,-98.3509 177.301,-75.7341"/>
<polygon fill="midnightblue" stroke="midnightblue" points="433.46,-229.529 443.865,-227.535 434.488,-222.604 433.46,-229.529"/>
</g>
<!-- Node15 -->
<g id="node15" class="node"><title>Node15</title>
<g id="a_node15"><a xlink:href="tokeniser_8hpp.html" target="_top" xlink:title="Declaration of the Tokeniser class. ">
<polygon fill="white" stroke="black" points="325,-168.5 325,-187.5 435,-187.5 435,-168.5 325,-168.5"/>
<text text-anchor="middle" x="380" y="-175.5" font-family="Helvetica,sans-Serif" font-size="10.00">src/io/tokeniser.hpp</text>
</a>
</g>
</g>
<!-- Node9&#45;&gt;Node15 -->
<g id="edge18" class="edge"><title>Node9&#45;&gt;Node15</title>
<path fill="none" stroke="midnightblue" d="M456.669,-219.59C437.81,-209.605 412.616,-196.267 396.347,-187.655"/>
<polygon fill="midnightblue" stroke="midnightblue" points="455.136,-222.738 465.612,-224.324 458.412,-216.552 455.136,-222.738"/>
</g>
<!-- Node16 -->
<g id="node16" class="node"><title>Node16</title>
<g id="a_node16"><a xlink:href="tokeniser_8cpp.html" target="_top" xlink:title="Definition of the Tokeniser class. ">
<polygon fill="white" stroke="black" points="408.5,-112.5 408.5,-131.5 517.5,-131.5 517.5,-112.5 408.5,-112.5"/>
<text text-anchor="middle" x="463" y="-119.5" font-family="Helvetica,sans-Serif" font-size="10.00">src/io/tokeniser.cpp</text>
</a>
</g>
</g>
<!-- Node9&#45;&gt;Node16 -->
<g id="edge21" class="edge"><title>Node9&#45;&gt;Node16</title>
<path fill="none" stroke="midnightblue" d="M478.778,-214.348C474.617,-190.254 467.544,-149.308 464.484,-131.591"/>
<polygon fill="midnightblue" stroke="midnightblue" points="475.358,-215.11 480.509,-224.368 482.256,-213.919 475.358,-215.11"/>
</g>
<!-- Node12&#45;&gt;Node11 -->
<g id="edge13" class="edge"><title>Node12&#45;&gt;Node11</title>
<path fill="none" stroke="midnightblue" d="M367.263,-110.088C409.582,-99.8865 471.909,-84.8612 510.673,-75.5164"/>
<polygon fill="midnightblue" stroke="midnightblue" points="366.395,-106.697 357.493,-112.444 368.035,-113.502 366.395,-106.697"/>
</g>
<!-- Node12&#45;&gt;Node12 -->
<g id="edge14" class="edge"><title>Node12&#45;&gt;Node12</title>
<path fill="none" stroke="midnightblue" d="M361.318,-132.432C377.173,-133.04 390.5,-129.563 390.5,-122 390.5,-112.867 371.066,-109.692 351.215,-112.475"/>
<polygon fill="midnightblue" stroke="midnightblue" points="361.488,-128.933 351.215,-131.525 360.862,-135.905 361.488,-128.933"/>
</g>
<!-- Node12&#45;&gt;Node13 -->
<g id="edge15" class="edge"><title>Node12&#45;&gt;Node13</title>
<path fill="none" stroke="midnightblue" d="M322,-102.348C322,-78.2538 322,-37.3079 322,-19.5914"/>
<polygon fill="midnightblue" stroke="midnightblue" points="318.5,-102.368 322,-112.368 325.5,-102.369 318.5,-102.368"/>
</g>
<!-- Node12&#45;&gt;Node14 -->
<g id="edge16" class="edge"><title>Node12&#45;&gt;Node14</title>
<path fill="none" stroke="midnightblue" d="M289.077,-108.906C261.44,-98.7536 222.656,-84.5063 198.184,-75.5164"/>
<polygon fill="midnightblue" stroke="midnightblue" points="288.114,-112.281 298.707,-112.444 290.528,-105.71 288.114,-112.281"/>
</g>
<!-- Node14&#45;&gt;Node13 -->
<g id="edge17" class="edge"><title>Node14&#45;&gt;Node13</title>
<path fill="none" stroke="midnightblue" d="M207.923,-52.9058C235.56,-42.7536 274.344,-28.5063 298.816,-19.5164"/>
<polygon fill="midnightblue" stroke="midnightblue" points="206.472,-49.71 198.293,-56.4435 208.886,-56.2806 206.472,-49.71"/>
</g>
<!-- Node15&#45;&gt;Node12 -->
<g id="edge19" class="edge"><title>Node15&#45;&gt;Node12</title>
<path fill="none" stroke="midnightblue" d="M363.087,-161.253C352.797,-151.673 340.034,-139.791 331.488,-131.834"/>
<polygon fill="midnightblue" stroke="midnightblue" points="360.977,-164.071 370.681,-168.324 365.747,-158.948 360.977,-164.071"/>
</g>
<!-- Node15&#45;&gt;Node16 -->
<g id="edge20" class="edge"><title>Node15&#45;&gt;Node16</title>
<path fill="none" stroke="midnightblue" d="M402.099,-162.622C417.262,-152.757 436.883,-139.992 449.698,-131.655"/>
<polygon fill="midnightblue" stroke="midnightblue" points="399.809,-159.937 393.335,-168.324 403.626,-165.804 399.809,-159.937"/>
</g>
</g>
</svg>
        <g id="navigator" transform="translate(0 0)" fill="#404254">
                <rect fill="#f2f5e9" fill-opacity="0.5" stroke="#606060" stroke-width=".5" x="0" y="0" width="60" height="60"/>
                <use id="zoomplus" xlink:href="#zoomPlus" x="17" y="9" onmousedown="handleZoom(evt,'in')"/>
                <use id="zoomminus" xlink:href="#zoomMin" x="42" y="9" onmousedown="handleZoom(evt,'out')"/>
                <use id="reset" xlink:href="#resetDef" x="30" y="36" onmousedown="handleReset()"/>
                <g id="arrowUp" xlink:href="#dirArrow" transform="translate(30 24)" onmousedown="handlePan(0,-1)">
                  <use xlink:href="#rim" fill="#404040">
                        <set attributeName="fill" to="#808080" begin="arrowUp.mouseover" end="arrowUp.mouseout"/>
                  </use>
                  <path fill="none" stroke="white" stroke-width="1.5" d="M0,-3.0v7 M-2.5,-0.5L0,-3.0L2.5,-0.5"/>
                </g>
                <g id="arrowRight" xlink:href="#dirArrow" transform="rotate(90) translate(36 -43)" onmousedown="handlePan(1,0)">
                  <use xlink:href="#rim" fill="#404040">
                        <set attributeName="fill" to="#808080" begin="arrowRight.mouseover" end="arrowRight.mouseout"/>
                  </use>
                  <path fill="none" stroke="white" stroke-width="1.5" d="M0,-3.0v7 M-2.5,-0.5L0,-3.0L2.5,-0.5"/>
                </g>
                <g id="arrowDown" xlink:href="#dirArrow" transform="rotate(180) translate(-30 -48)" onmousedown="handlePan(0,1)">
                  <use xlink:href="#rim" fill="#404040">
                        <set attributeName="fill" to="#808080" begin="arrowDown.mouseover" end="arrowDown.mouseout"/>
                  </use>
                  <path fill="none" stroke="white" stroke-width="1.5" d="M0,-3.0v7 M-2.5,-0.5L0,-3.0L2.5,-0.5"/>
                </g>
                <g id="arrowLeft" xlink:href="#dirArrow" transform="rotate(270) translate(-36 17)" onmousedown="handlePan(-1,0)">
                  <use xlink:href="#rim" fill="#404040">
                        <set attributeName="fill" to="#808080" begin="arrowLeft.mouseover" end="arrowLeft.mouseout"/>
                  </use>
                  <path fill="none" stroke="white" stroke-width="1.5" d="M0,-3.0v7 M-2.5,-0.5L0,-3.0L2.5,-0.5"/>
                </g>
        </g>
        <svg viewBox="0 0 15 15" width="100%" height="30px" preserveAspectRatio="xMaxYMin meet">
         <g id="arrow_out" transform="scale(0.3 0.3)">
          <a xlink:href="ringbuffer_8hpp__dep__incl_org.svg" target="_base">
           <rect id="button" ry="5" rx="5" y="6" x="6" height="38" width="38"
                fill="#f2f5e9" fill-opacity="0.5" stroke="#606060" stroke-width="1.0"/>
           <path id="arrow"
             d="M 11.500037,31.436501 C 11.940474,20.09759 22.043105,11.32322 32.158766,21.979434 L 37.068811,17.246167 C 37.068811,17.246167 37.088388,32 37.088388,32 L 22.160133,31.978069 C 22.160133,31.978069 26.997745,27.140456 26.997745,27.140456 C 18.528582,18.264221 13.291696,25.230495 11.500037,31.436501 z"
             style="fill:#404040;"/>
          </a>
         </g>
        </svg>
</svg>
