<?xml version="1.0" encoding="UTF-8" standalone="no"?>
<!DOCTYPE svg PUBLIC "-//W3C//DTD SVG 1.1//EN"
 "http://www.w3.org/Graphics/SVG/1.1/DTD/svg11.dtd">
<!-- Generated by graphviz version 2.38.0 (20140413.2041)
 -->
<!-- Title: src/sample_formats.hpp Pages: 1 -->
<!--zoomable 588 -->
<svg id="main" version="1.1" xmlns="http://www.w3.org/2000/svg" xmlns:xlink="http://www.w3.org/1999/xlink" xml:space="preserve" onload="init(evt)">
<style type="text/css"><![CDATA[
.edge:hover path { stroke: red; }
.edge:hover polygon { stroke: red; fill: red; }
]]></style>
<script type="text/javascript"><![CDATA[
var edges = document.getElementsByTagName('g');
if (edges && edges.length) {
  for (var i=0;i<edges.length;i++) {
    if (edges[i].id.substr(0,4)=='edge') {
      edges[i].setAttribute('class','edge');
    }
  }
}
]]></script>
        <defs>
                <circle id="rim" cx="0" cy="0" r="7"/>
                <circle id="rim2" cx="0" cy="0" r="3.5"/>
                <g id="zoomPlus">
                        <use xlink:href="#rim" fill="#404040">
                                <set attributeName="fill" to="#808080" begin="zoomplus.mouseover" end="zoomplus.mouseout"/>
                        </use>
                        <path d="M-4,0h8M0,-4v8" fill="none" stroke="white" stroke-width="1.5" pointer-events="none"/>
                </g>
                <g id="zoomMin">
                        <use xlink:href="#rim" fill="#404040">
                                <set attributeName="fill" to="#808080" begin="zoomminus.mouseover" end="zoomminus.mouseout"/>
                        </use>
                        <path d="M-4,0h8" fill="none" stroke="white" stroke-width="1.5" pointer-events="none"/>
                </g>
                <g id="dirArrow">
                        <path fill="none" stroke="white" stroke-width="1.5" d="M0,-3.0v7 M-2.5,-0.5L0,-3.0L2.5,-0.5"/>
                </g>
               <g id="resetDef">
                       <use xlink:href="#rim2" fill="#404040">
                               <set attributeName="fill" to="#808080" begin="reset.mouseover" end="reset.mouseout"/>
                       </use>
               </g>
        </defs>

<script type="text/javascript">
var viewWidth = 1307;
var viewHeight = 588;
var sectionId = 'dynsection-1';
</script>
<script xlink:href="svgpan.js"/>
<svg id="graph" class="graph">
<g id="viewport">
<title>src/sample_formats.hpp</title>
<polygon fill="white" stroke="none" points="-4,4 -4,-584 1303.23,-584 1303.23,4 -4,4"/>
<!-- Node1 -->
<g id="node1" class="node"><title>Node1</title>
<polygon fill="#bfbfbf" stroke="black" points="976.5,-560.5 976.5,-579.5 1109.5,-579.5 1109.5,-560.5 976.5,-560.5"/>
<text text-anchor="middle" x="1043" y="-567.5" font-family="Helvetica,sans-Serif" font-size="10.00">src/sample_formats.hpp</text>
</g>
<!-- Node2 -->
<g id="node2" class="node"><title>Node2</title>
<g id="a_node2"><a xlink:href="audio_8cpp.html" target="_top" xlink:title="Implementation of the Audio class. ">
<polygon fill="white" stroke="black" points="594,-392.5 594,-411.5 704,-411.5 704,-392.5 594,-392.5"/>
<text text-anchor="middle" x="649" y="-399.5" font-family="Helvetica,sans-Serif" font-size="10.00">src/audio/audio.cpp</text>
</a>
</g>
</g>
<!-- Node1&#45;&gt;Node2 -->
<g id="edge1" class="edge"><title>Node1&#45;&gt;Node2</title>
<path fill="none" stroke="midnightblue" d="M967.609,-558.972C868.106,-544.145 700.748,-513.168 660,-468 645.894,-452.364 646.383,-425.625 647.773,-411.822"/>
<polygon fill="midnightblue" stroke="midnightblue" points="967.21,-562.451 977.613,-560.442 968.228,-555.525 967.21,-562.451"/>
</g>
<!-- Node3 -->
<g id="node3" class="node"><title>Node3</title>
<g id="a_node3"><a xlink:href="audio__source_8hpp.html" target="_top" xlink:title="Declaration of the AudioSource class. ">
<polygon fill="white" stroke="black" points="885,-504.5 885,-523.5 1033,-523.5 1033,-504.5 885,-504.5"/>
<text text-anchor="middle" x="959" y="-511.5" font-family="Helvetica,sans-Serif" font-size="10.00">src/audio/audio_source.hpp</text>
</a>
</g>
</g>
<!-- Node1&#45;&gt;Node3 -->
<g id="edge2" class="edge"><title>Node1&#45;&gt;Node3</title>
<path fill="none" stroke="midnightblue" d="M1021.07,-554.901C1005.66,-544.999 985.554,-532.071 972.463,-523.655"/>
<polygon fill="midnightblue" stroke="midnightblue" points="1019.2,-557.86 1029.5,-560.324 1022.98,-551.972 1019.2,-557.86"/>
</g>
<!-- Node5 -->
<g id="node5" class="node"><title>Node5</title>
<g id="a_node5"><a xlink:href="audio__system_8cpp.html" target="_top" xlink:title="Implementation of the AudioSystem class. ">
<polygon fill="white" stroke="black" points="950,-336.5 950,-355.5 1100,-355.5 1100,-336.5 950,-336.5"/>
<text text-anchor="middle" x="1025" y="-343.5" font-family="Helvetica,sans-Serif" font-size="10.00">src/audio/audio_system.cpp</text>
</a>
</g>
</g>
<!-- Node1&#45;&gt;Node5 -->
<g id="edge56" class="edge"><title>Node1&#45;&gt;Node5</title>
<path fill="none" stroke="midnightblue" d="M1119.77,-562.405C1205.54,-551.336 1328.09,-522.35 1293,-448 1259.84,-377.74 1167.32,-355.621 1100.26,-349.051"/>
<polygon fill="midnightblue" stroke="midnightblue" points="1119.27,-558.94 1109.77,-563.637 1120.12,-565.888 1119.27,-558.94"/>
</g>
<!-- Node6 -->
<g id="node6" class="node"><title>Node6</title>
<g id="a_node6"><a xlink:href="audio__system_8hpp.html" target="_top" xlink:title="Declaration of the AudioSystem class. ">
<polygon fill="white" stroke="black" points="798.5,-392.5 798.5,-411.5 949.5,-411.5 949.5,-392.5 798.5,-392.5"/>
<text text-anchor="middle" x="874" y="-399.5" font-family="Helvetica,sans-Serif" font-size="10.00">src/audio/audio_system.hpp</text>
</a>
</g>
</g>
<!-- Node1&#45;&gt;Node6 -->
<g id="edge57" class="edge"><title>Node1&#45;&gt;Node6</title>
<path fill="none" stroke="midnightblue" d="M974.299,-558.602C934.174,-551.039 888.947,-539.424 876,-524 848.309,-491.012 863.684,-433.265 870.909,-411.566"/>
<polygon fill="midnightblue" stroke="midnightblue" points="973.902,-562.087 984.367,-560.437 975.157,-555.201 973.902,-562.087"/>
</g>
<!-- Node22 -->
<g id="node22" class="node"><title>Node22</title>
<g id="a_node22"><a xlink:href="audio__sink_8cpp.html" target="_top" xlink:title="Implementation of the AudioSink class. ">
<polygon fill="white" stroke="black" points="1082,-392.5 1082,-411.5 1216,-411.5 1216,-392.5 1082,-392.5"/>
<text text-anchor="middle" x="1149" y="-399.5" font-family="Helvetica,sans-Serif" font-size="10.00">src/audio/audio_sink.cpp</text>
</a>
</g>
</g>
<!-- Node1&#45;&gt;Node22 -->
<g id="edge54" class="edge"><title>Node1&#45;&gt;Node22</title>
<path fill="none" stroke="midnightblue" d="M1117.72,-558.404C1171.76,-546.409 1241.15,-521.087 1276,-468 1296.12,-437.355 1250.53,-420.418 1208.48,-411.582"/>
<polygon fill="midnightblue" stroke="midnightblue" points="1116.89,-555.004 1107.83,-560.493 1118.33,-561.853 1116.89,-555.004"/>
</g>
<!-- Node23 -->
<g id="node23" class="node"><title>Node23</title>
<g id="a_node23"><a xlink:href="audio__source_8cpp.html" target="_top" xlink:title="Implementation of the AudioSource class. ">
<polygon fill="white" stroke="black" points="1120.5,-448.5 1120.5,-467.5 1267.5,-467.5 1267.5,-448.5 1120.5,-448.5"/>
<text text-anchor="middle" x="1194" y="-455.5" font-family="Helvetica,sans-Serif" font-size="10.00">src/audio/audio_source.cpp</text>
</a>
</g>
</g>
<!-- Node1&#45;&gt;Node23 -->
<g id="edge55" class="edge"><title>Node1&#45;&gt;Node23</title>
<path fill="none" stroke="midnightblue" d="M1063.02,-554.417C1094.96,-531.151 1156.46,-486.35 1182.21,-467.591"/>
<polygon fill="midnightblue" stroke="midnightblue" points="1060.87,-551.651 1054.85,-560.368 1064.99,-557.309 1060.87,-551.651"/>
</g>
<!-- Node3&#45;&gt;Node2 -->
<g id="edge44" class="edge"><title>Node3&#45;&gt;Node2</title>
<path fill="none" stroke="midnightblue" d="M874.698,-508.112C803.721,-502.457 709.099,-490.828 679,-468 660.581,-454.031 653.09,-426.047 650.371,-411.789"/>
<polygon fill="midnightblue" stroke="midnightblue" points="874.748,-511.626 884.987,-508.903 875.285,-504.646 874.748,-511.626"/>
</g>
<!-- Node4 -->
<g id="node4" class="node"><title>Node4</title>
<g id="a_node4"><a xlink:href="audio_8hpp.html" target="_top" xlink:title="Declaration of the Audio class. ">
<polygon fill="white" stroke="black" points="688,-448.5 688,-467.5 798,-467.5 798,-448.5 688,-448.5"/>
<text text-anchor="middle" x="743" y="-455.5" font-family="Helvetica,sans-Serif" font-size="10.00">src/audio/audio.hpp</text>
</a>
</g>
</g>
<!-- Node3&#45;&gt;Node4 -->
<g id="edge3" class="edge"><title>Node3&#45;&gt;Node4</title>
<path fill="none" stroke="midnightblue" d="M914.836,-501.959C874.039,-491.76 814.287,-476.822 777.066,-467.516"/>
<polygon fill="midnightblue" stroke="midnightblue" points="914.224,-505.414 924.774,-504.444 915.922,-498.623 914.224,-505.414"/>
</g>
<!-- Node3&#45;&gt;Node5 -->
<g id="edge47" class="edge"><title>Node3&#45;&gt;Node5</title>
<path fill="none" stroke="midnightblue" d="M996.516,-500.226C1011.23,-493.162 1026.59,-482.753 1035,-468 1056.19,-430.826 1037.49,-376.523 1028.83,-355.631"/>
<polygon fill="midnightblue" stroke="midnightblue" points="994.765,-497.173 987.015,-504.397 997.579,-503.582 994.765,-497.173"/>
</g>
<!-- Node3&#45;&gt;Node6 -->
<g id="edge48" class="edge"><title>Node3&#45;&gt;Node6</title>
<path fill="none" stroke="midnightblue" d="M923.413,-500.107C908.585,-492.924 892.613,-482.454 883,-468 871.518,-450.735 871.813,-425.166 872.943,-411.826"/>
<polygon fill="midnightblue" stroke="midnightblue" points="922.356,-503.469 932.913,-504.362 925.217,-497.08 922.356,-503.469"/>
</g>
<!-- Node21 -->
<g id="node21" class="node"><title>Node21</title>
<g id="a_node21"><a xlink:href="audio__sink_8hpp.html" target="_top" xlink:title="Declaration of the AudioSink class. ">
<polygon fill="white" stroke="black" points="892,-448.5 892,-467.5 1026,-467.5 1026,-448.5 892,-448.5"/>
<text text-anchor="middle" x="959" y="-455.5" font-family="Helvetica,sans-Serif" font-size="10.00">src/audio/audio_sink.hpp</text>
</a>
</g>
</g>
<!-- Node3&#45;&gt;Node21 -->
<g id="edge39" class="edge"><title>Node3&#45;&gt;Node21</title>
<path fill="none" stroke="midnightblue" d="M959,-493.805C959,-484.91 959,-474.78 959,-467.751"/>
<polygon fill="midnightblue" stroke="midnightblue" points="955.5,-494.083 959,-504.083 962.5,-494.083 955.5,-494.083"/>
</g>
<!-- Node3&#45;&gt;Node22 -->
<g id="edge45" class="edge"><title>Node3&#45;&gt;Node22</title>
<path fill="none" stroke="midnightblue" d="M995.098,-501.043C1016.94,-493.102 1044.92,-481.642 1068,-468 1096.56,-451.117 1125.91,-424.924 1140.16,-411.526"/>
<polygon fill="midnightblue" stroke="midnightblue" points="993.79,-497.793 985.538,-504.439 996.133,-504.39 993.79,-497.793"/>
</g>
<!-- Node3&#45;&gt;Node23 -->
<g id="edge46" class="edge"><title>Node3&#45;&gt;Node23</title>
<path fill="none" stroke="midnightblue" d="M1006.21,-502.153C1050.61,-491.95 1116.19,-476.881 1156.94,-467.516"/>
<polygon fill="midnightblue" stroke="midnightblue" points="1005.2,-498.793 996.236,-504.444 1006.77,-505.615 1005.2,-498.793"/>
</g>
<!-- Node24 -->
<g id="node24" class="node"><title>Node24</title>
<g id="a_node24"><a xlink:href="player__position_8hpp.html" target="_top" xlink:title="Declaration of the PlayerPosition class. ">
<polygon fill="white" stroke="black" points="416.5,-392.5 416.5,-411.5 575.5,-411.5 575.5,-392.5 416.5,-392.5"/>
<text text-anchor="middle" x="496" y="-399.5" font-family="Helvetica,sans-Serif" font-size="10.00">src/player/player_position.hpp</text>
</a>
</g>
</g>
<!-- Node3&#45;&gt;Node24 -->
<g id="edge49" class="edge"><title>Node3&#45;&gt;Node24</title>
<path fill="none" stroke="midnightblue" d="M874.66,-505.493C814.176,-498.86 731.15,-487.184 660,-468 604.998,-453.17 543.346,-425.577 513.743,-411.596"/>
<polygon fill="midnightblue" stroke="midnightblue" points="874.608,-509.008 884.924,-506.595 875.354,-502.048 874.608,-509.008"/>
</g>
<!-- Node4&#45;&gt;Node2 -->
<g id="edge4" class="edge"><title>Node4&#45;&gt;Node2</title>
<path fill="none" stroke="midnightblue" d="M718.938,-443.177C701.641,-433.241 678.852,-420.149 664.065,-411.655"/>
<polygon fill="midnightblue" stroke="midnightblue" points="717.483,-446.378 727.897,-448.324 720.97,-440.308 717.483,-446.378"/>
</g>
<!-- Node4&#45;&gt;Node5 -->
<g id="edge5" class="edge"><title>Node4&#45;&gt;Node5</title>
<path fill="none" stroke="midnightblue" d="M808.528,-452.842C852.875,-447.798 911.601,-436.646 958,-412 984.621,-397.859 1007.93,-369.954 1018.68,-355.75"/>
<polygon fill="midnightblue" stroke="midnightblue" points="808.013,-449.377 798.439,-453.913 808.752,-456.337 808.013,-449.377"/>
</g>
<!-- Node4&#45;&gt;Node6 -->
<g id="edge6" class="edge"><title>Node4&#45;&gt;Node6</title>
<path fill="none" stroke="midnightblue" d="M773.317,-444.503C797.876,-434.38 831.818,-420.388 853.34,-411.516"/>
<polygon fill="midnightblue" stroke="midnightblue" points="771.669,-441.397 763.757,-448.444 774.337,-447.868 771.669,-441.397"/>
</g>
<!-- Node8 -->
<g id="node8" class="node"><title>Node8</title>
<g id="a_node8"><a xlink:href="player_8hpp.html" target="_top" xlink:title="Declaration of the Player class, and associated types. ">
<polygon fill="white" stroke="black" points="474,-280.5 474,-299.5 590,-299.5 590,-280.5 474,-280.5"/>
<text text-anchor="middle" x="532" y="-287.5" font-family="Helvetica,sans-Serif" font-size="10.00">src/player/player.hpp</text>
</a>
</g>
</g>
<!-- Node4&#45;&gt;Node8 -->
<g id="edge37" class="edge"><title>Node4&#45;&gt;Node8</title>
<path fill="none" stroke="midnightblue" d="M738.892,-438.593C734.722,-424.013 726.854,-404.142 713,-392 672.404,-356.42 643.212,-383.9 597,-356 571.862,-340.823 549.281,-313.884 538.567,-299.931"/>
<polygon fill="midnightblue" stroke="midnightblue" points="735.551,-439.66 741.397,-448.496 742.337,-437.943 735.551,-439.66"/>
</g>
<!-- Node17 -->
<g id="node17" class="node"><title>Node17</title>
<g id="a_node17"><a xlink:href="player_8cpp.html" target="_top" xlink:title="Main implementation file for the Player class. ">
<polygon fill="white" stroke="black" points="740.5,-224.5 740.5,-243.5 855.5,-243.5 855.5,-224.5 740.5,-224.5"/>
<text text-anchor="middle" x="798" y="-231.5" font-family="Helvetica,sans-Serif" font-size="10.00">src/player/player.cpp</text>
</a>
</g>
</g>
<!-- Node4&#45;&gt;Node17 -->
<g id="edge38" class="edge"><title>Node4&#45;&gt;Node17</title>
<path fill="none" stroke="midnightblue" d="M747.562,-438.585C758.822,-393.135 787.614,-276.924 795.799,-243.884"/>
<polygon fill="midnightblue" stroke="midnightblue" points="744.164,-437.749 745.156,-448.297 750.958,-439.432 744.164,-437.749"/>
</g>
<!-- Node6&#45;&gt;Node5 -->
<g id="edge7" class="edge"><title>Node6&#45;&gt;Node5</title>
<path fill="none" stroke="midnightblue" d="M907.446,-389.039C935.858,-378.879 975.937,-364.546 1001.19,-355.516"/>
<polygon fill="midnightblue" stroke="midnightblue" points="906.164,-385.781 897.926,-392.444 908.521,-392.372 906.164,-385.781"/>
</g>
<!-- Node7 -->
<g id="node7" class="node"><title>Node7</title>
<g id="a_node7"><a xlink:href="player__file_8hpp.html" target="_top" xlink:title="Declaration of the PlayerFile class, and associated types. ">
<polygon fill="white" stroke="black" points="606.5,-336.5 606.5,-355.5 741.5,-355.5 741.5,-336.5 606.5,-336.5"/>
<text text-anchor="middle" x="674" y="-343.5" font-family="Helvetica,sans-Serif" font-size="10.00">src/player/player_file.hpp</text>
</a>
</g>
</g>
<!-- Node6&#45;&gt;Node7 -->
<g id="edge8" class="edge"><title>Node6&#45;&gt;Node7</title>
<path fill="none" stroke="midnightblue" d="M832.626,-389.829C794.864,-379.633 739.86,-364.782 705.542,-355.516"/>
<polygon fill="midnightblue" stroke="midnightblue" points="831.743,-393.216 842.309,-392.444 833.567,-386.458 831.743,-393.216"/>
</g>
<!-- Node13 -->
<g id="node13" class="node"><title>Node13</title>
<g id="a_node13"><a xlink:href="main_8cpp.html" target="_top" xlink:title="Main entry point and implementation of the playd class. ">
<polygon fill="white" stroke="black" points="601,-0.5 601,-19.5 679,-19.5 679,-0.5 601,-0.5"/>
<text text-anchor="middle" x="640" y="-7.5" font-family="Helvetica,sans-Serif" font-size="10.00">src/main.cpp</text>
</a>
</g>
</g>
<!-- Node6&#45;&gt;Node13 -->
<g id="edge33" class="edge"><title>Node6&#45;&gt;Node13</title>
<path fill="none" stroke="midnightblue" d="M886.619,-384.08C900.841,-363.293 922,-326.415 922,-291 922,-291 922,-291 922,-121 922,-69.4999 756.697,-32.3793 679.211,-17.8081"/>
<polygon fill="midnightblue" stroke="midnightblue" points="883.62,-382.258 880.674,-392.435 889.324,-386.316 883.62,-382.258"/>
</g>
<!-- Node14 -->
<g id="node14" class="node"><title>Node14</title>
<g id="a_node14"><a xlink:href="main_8hpp.html" target="_top" xlink:title="Declaration of the playd class. ">
<polygon fill="white" stroke="black" points="600.5,-56.5 600.5,-75.5 679.5,-75.5 679.5,-56.5 600.5,-56.5"/>
<text text-anchor="middle" x="640" y="-63.5" font-family="Helvetica,sans-Serif" font-size="10.00">src/main.hpp</text>
</a>
</g>
</g>
<!-- Node6&#45;&gt;Node14 -->
<g id="edge34" class="edge"><title>Node6&#45;&gt;Node14</title>
<path fill="none" stroke="midnightblue" d="M876.741,-382.298C879.702,-360.448 884,-323.184 884,-291 884,-291 884,-291 884,-177 884,-88.4807 748.886,-70.791 679.746,-67.5337"/>
<polygon fill="midnightblue" stroke="midnightblue" points="873.238,-382.075 875.307,-392.466 880.169,-383.053 873.238,-382.075"/>
</g>
<!-- Node6&#45;&gt;Node17 -->
<g id="edge35" class="edge"><title>Node6&#45;&gt;Node17</title>
<path fill="none" stroke="midnightblue" d="M865.693,-382.856C849.393,-347.252 813.774,-269.453 801.923,-243.568"/>
<polygon fill="midnightblue" stroke="midnightblue" points="862.569,-384.44 869.914,-392.075 868.933,-381.526 862.569,-384.44"/>
</g>
<!-- Node20 -->
<g id="node20" class="node"><title>Node20</title>
<g id="a_node20"><a xlink:href="player__file_8cpp.html" target="_top" xlink:title="Implementation of the PlayerFile class, and associated types. ">
<polygon fill="white" stroke="black" points="608,-280.5 608,-299.5 742,-299.5 742,-280.5 608,-280.5"/>
<text text-anchor="middle" x="675" y="-287.5" font-family="Helvetica,sans-Serif" font-size="10.00">src/player/player_file.cpp</text>
</a>
</g>
</g>
<!-- Node6&#45;&gt;Node20 -->
<g id="edge36" class="edge"><title>Node6&#45;&gt;Node20</title>
<path fill="none" stroke="midnightblue" d="M849.48,-387.446C807.963,-364.497 724.986,-318.631 690.543,-299.591"/>
<polygon fill="midnightblue" stroke="midnightblue" points="847.94,-390.594 858.385,-392.368 851.326,-384.468 847.94,-390.594"/>
</g>
<!-- Node7&#45;&gt;Node8 -->
<g id="edge9" class="edge"><title>Node7&#45;&gt;Node8</title>
<path fill="none" stroke="midnightblue" d="M641.845,-332.772C615.172,-322.629 577.931,-308.467 554.395,-299.516"/>
<polygon fill="midnightblue" stroke="midnightblue" points="640.909,-336.16 651.5,-336.444 643.397,-329.618 640.909,-336.16"/>
</g>
<!-- Node7&#45;&gt;Node20 -->
<g id="edge32" class="edge"><title>Node7&#45;&gt;Node20</title>
<path fill="none" stroke="midnightblue" d="M674.355,-325.805C674.52,-316.91 674.708,-306.78 674.838,-299.751"/>
<polygon fill="midnightblue" stroke="midnightblue" points="670.851,-326.02 674.165,-336.083 677.85,-326.15 670.851,-326.02"/>
</g>
<!-- Node9 -->
<g id="node9" class="node"><title>Node9</title>
<g id="a_node9"><a xlink:href="cmd_8hpp.html" target="_top" xlink:title="Declaration of the CommandHandler class. ">
<polygon fill="white" stroke="black" points="328,-224.5 328,-243.5 404,-243.5 404,-224.5 328,-224.5"/>
<text text-anchor="middle" x="366" y="-231.5" font-family="Helvetica,sans-Serif" font-size="10.00">src/cmd.hpp</text>
</a>
</g>
</g>
<!-- Node8&#45;&gt;Node9 -->
<g id="edge10" class="edge"><title>Node8&#45;&gt;Node9</title>
<path fill="none" stroke="midnightblue" d="M496.047,-277.304C464.768,-267.129 420.179,-252.625 392.18,-243.516"/>
<polygon fill="midnightblue" stroke="midnightblue" points="495.105,-280.678 505.697,-280.444 497.27,-274.022 495.105,-280.678"/>
</g>
<!-- Node11 -->
<g id="node11" class="node"><title>Node11</title>
<g id="a_node11"><a xlink:href="io__core_8cpp.html" target="_top" xlink:title="Implementation of the non&#45;virtual aspects of the IoCore class. ">
<polygon fill="white" stroke="black" points="252,-56.5 252,-75.5 352,-75.5 352,-56.5 252,-56.5"/>
<text text-anchor="middle" x="302" y="-63.5" font-family="Helvetica,sans-Serif" font-size="10.00">src/io/io_core.cpp</text>
</a>
</g>
</g>
<!-- Node8&#45;&gt;Node11 -->
<g id="edge25" class="edge"><title>Node8&#45;&gt;Node11</title>
<path fill="none" stroke="midnightblue" d="M463.596,-282.021C409.63,-275.186 340.058,-262.998 319,-244 269.719,-199.541 291.224,-104.915 299.376,-75.7448"/>
<polygon fill="midnightblue" stroke="midnightblue" points="463.467,-285.531 473.819,-283.276 464.32,-278.583 463.467,-285.531"/>
</g>
<!-- Node12 -->
<g id="node12" class="node"><title>Node12</title>
<g id="a_node12"><a xlink:href="io__core_8hpp.html" target="_top" xlink:title="Declaration of the IoCore class. ">
<polygon fill="white" stroke="black" points="361.5,-112.5 361.5,-131.5 462.5,-131.5 462.5,-112.5 361.5,-112.5"/>
<text text-anchor="middle" x="412" y="-119.5" font-family="Helvetica,sans-Serif" font-size="10.00">src/io/io_core.hpp</text>
</a>
</g>
</g>
<!-- Node8&#45;&gt;Node12 -->
<g id="edge26" class="edge"><title>Node8&#45;&gt;Node12</title>
<path fill="none" stroke="midnightblue" d="M496.424,-276.27C480.568,-268.999 462.84,-258.411 451,-244 422.418,-209.21 414.623,-153.03 412.636,-131.643"/>
<polygon fill="midnightblue" stroke="midnightblue" points="495.415,-279.646 505.985,-280.374 498.176,-273.213 495.415,-279.646"/>
</g>
<!-- Node8&#45;&gt;Node13 -->
<g id="edge27" class="edge"><title>Node8&#45;&gt;Node13</title>
<path fill="none" stroke="midnightblue" d="M592.519,-278.02C644.8,-264.634 712,-236.286 712,-179 712,-179 712,-179 712,-121 712,-90.2048 705.022,-81.6629 688,-56 678.276,-41.3407 662.881,-28.0339 652.157,-19.7572"/>
<polygon fill="midnightblue" stroke="midnightblue" points="591.51,-274.663 582.619,-280.425 593.163,-281.465 591.51,-274.663"/>
</g>
<!-- Node8&#45;&gt;Node14 -->
<g id="edge28" class="edge"><title>Node8&#45;&gt;Node14</title>
<path fill="none" stroke="midnightblue" d="M568.969,-276.576C585.212,-269.397 603.228,-258.798 615,-244 652.517,-196.84 649.991,-172.13 646,-112 645.154,-99.2598 642.976,-84.6236 641.491,-75.5928"/>
<polygon fill="midnightblue" stroke="midnightblue" points="567.579,-273.364 559.671,-280.414 570.25,-279.834 567.579,-273.364"/>
</g>
<!-- Node8&#45;&gt;Node17 -->
<g id="edge29" class="edge"><title>Node8&#45;&gt;Node17</title>
<path fill="none" stroke="midnightblue" d="M584.168,-278.41C634.439,-268.204 709.532,-252.96 756.049,-243.516"/>
<polygon fill="midnightblue" stroke="midnightblue" points="583.252,-275.024 574.148,-280.444 584.645,-281.884 583.252,-275.024"/>
</g>
<!-- Node18 -->
<g id="node18" class="node"><title>Node18</title>
<g id="a_node18"><a xlink:href="player__position_8cpp.html" target="_top" xlink:title="Implementation of the PlayerPosition class, and related Player methods. ">
<polygon fill="white" stroke="black" points="0,-224.5 0,-243.5 158,-243.5 158,-224.5 0,-224.5"/>
<text text-anchor="middle" x="79" y="-231.5" font-family="Helvetica,sans-Serif" font-size="10.00">src/player/player_position.cpp</text>
</a>
</g>
</g>
<!-- Node8&#45;&gt;Node18 -->
<g id="edge30" class="edge"><title>Node8&#45;&gt;Node18</title>
<path fill="none" stroke="midnightblue" d="M463.711,-280.86C379.308,-270.798 236.348,-253.757 150.494,-243.522"/>
<polygon fill="midnightblue" stroke="midnightblue" points="463.362,-284.343 473.706,-282.051 464.19,-277.392 463.362,-284.343"/>
</g>
<!-- Node19 -->
<g id="node19" class="node"><title>Node19</title>
<g id="a_node19"><a xlink:href="player__state_8cpp.html" target="_top" xlink:title="Implementation of the PlayerState class, and related Player methods. ">
<polygon fill="white" stroke="black" points="460,-224.5 460,-243.5 606,-243.5 606,-224.5 460,-224.5"/>
<text text-anchor="middle" x="533" y="-231.5" font-family="Helvetica,sans-Serif" font-size="10.00">src/player/player_state.cpp</text>
</a>
</g>
</g>
<!-- Node8&#45;&gt;Node19 -->
<g id="edge31" class="edge"><title>Node8&#45;&gt;Node19</title>
<path fill="none" stroke="midnightblue" d="M532.355,-269.805C532.52,-260.91 532.708,-250.78 532.838,-243.751"/>
<polygon fill="midnightblue" stroke="midnightblue" points="528.851,-270.02 532.165,-280.083 535.85,-270.15 528.851,-270.02"/>
</g>
<!-- Node10 -->
<g id="node10" class="node"><title>Node10</title>
<g id="a_node10"><a xlink:href="cmd_8cpp.html" target="_top" xlink:title="Implementation of the CommandHandler class. ">
<polygon fill="white" stroke="black" points="328.5,-168.5 328.5,-187.5 403.5,-187.5 403.5,-168.5 328.5,-168.5"/>
<text text-anchor="middle" x="366" y="-175.5" font-family="Helvetica,sans-Serif" font-size="10.00">src/cmd.cpp</text>
</a>
</g>
</g>
<!-- Node9&#45;&gt;Node10 -->
<g id="edge11" class="edge"><title>Node9&#45;&gt;Node10</title>
<path fill="none" stroke="midnightblue" d="M366,-213.805C366,-204.91 366,-194.78 366,-187.751"/>
<polygon fill="midnightblue" stroke="midnightblue" points="362.5,-214.083 366,-224.083 369.5,-214.083 362.5,-214.083"/>
</g>
<!-- Node9&#45;&gt;Node11 -->
<g id="edge12" class="edge"><title>Node9&#45;&gt;Node11</title>
<path fill="none" stroke="midnightblue" d="M341.511,-218.924C330.545,-211.26 318.616,-200.731 312,-188 292.269,-150.031 297.542,-96.1938 300.571,-75.5292"/>
<polygon fill="midnightblue" stroke="midnightblue" points="339.69,-221.915 349.979,-224.444 343.513,-216.051 339.69,-221.915"/>
</g>
<!-- Node9&#45;&gt;Node12 -->
<g id="edge13" class="edge"><title>Node9&#45;&gt;Node12</title>
<path fill="none" stroke="midnightblue" d="M343.323,-218.305C326.329,-205.377 307.786,-185.883 319,-168 330.816,-149.157 353.004,-138.01 372.745,-131.525"/>
<polygon fill="midnightblue" stroke="midnightblue" points="341.728,-221.466 351.902,-224.423 345.792,-215.767 341.728,-221.466"/>
</g>
<!-- Node9&#45;&gt;Node13 -->
<g id="edge23" class="edge"><title>Node9&#45;&gt;Node13</title>
<path fill="none" stroke="midnightblue" d="M343.163,-218.92C295.404,-187.814 193.357,-111.588 243,-56 266.593,-29.5818 505.256,-16.6737 600.782,-12.5345"/>
<polygon fill="midnightblue" stroke="midnightblue" points="341.354,-221.918 351.665,-224.355 345.124,-216.02 341.354,-221.918"/>
</g>
<!-- Node9&#45;&gt;Node14 -->
<g id="edge24" class="edge"><title>Node9&#45;&gt;Node14</title>
<path fill="none" stroke="midnightblue" d="M414.642,-226.079C478.002,-216.671 582.344,-199.681 596,-188 630.991,-158.069 638.159,-97.9579 639.625,-75.6189"/>
<polygon fill="midnightblue" stroke="midnightblue" points="413.847,-222.658 404.464,-227.577 414.867,-229.583 413.847,-222.658"/>
</g>
<!-- Node15 -->
<g id="node15" class="node"><title>Node15</title>
<g id="a_node15"><a xlink:href="tokeniser_8hpp.html" target="_top" xlink:title="Declaration of the Tokeniser class. ">
<polygon fill="white" stroke="black" points="460,-168.5 460,-187.5 570,-187.5 570,-168.5 460,-168.5"/>
<text text-anchor="middle" x="515" y="-175.5" font-family="Helvetica,sans-Serif" font-size="10.00">src/io/tokeniser.hpp</text>
</a>
</g>
</g>
<!-- Node9&#45;&gt;Node15 -->
<g id="edge19" class="edge"><title>Node9&#45;&gt;Node15</title>
<path fill="none" stroke="midnightblue" d="M399.371,-220.906C427.384,-210.754 466.696,-196.506 491.501,-187.516"/>
<polygon fill="midnightblue" stroke="midnightblue" points="397.819,-217.746 389.609,-224.444 400.204,-224.327 397.819,-217.746"/>
</g>
<!-- Node16 -->
<g id="node16" class="node"><title>Node16</title>
<g id="a_node16"><a xlink:href="tokeniser_8cpp.html" target="_top" xlink:title="Definition of the Tokeniser class. ">
<polygon fill="white" stroke="black" points="498.5,-112.5 498.5,-131.5 607.5,-131.5 607.5,-112.5 498.5,-112.5"/>
<text text-anchor="middle" x="553" y="-119.5" font-family="Helvetica,sans-Serif" font-size="10.00">src/io/tokeniser.cpp</text>
</a>
</g>
</g>
<!-- Node9&#45;&gt;Node16 -->
<g id="edge22" class="edge"><title>Node9&#45;&gt;Node16</title>
<path fill="none" stroke="midnightblue" d="M414.438,-226.028C474.034,-216.958 568.649,-200.766 579,-188 592.931,-170.818 573.913,-145.213 561.754,-131.847"/>
<polygon fill="midnightblue" stroke="midnightblue" points="413.838,-222.579 404.47,-227.528 414.88,-229.501 413.838,-222.579"/>
</g>
<!-- Node12&#45;&gt;Node11 -->
<g id="edge14" class="edge"><title>Node12&#45;&gt;Node11</title>
<path fill="none" stroke="midnightblue" d="M385.238,-107.862C364.841,-97.8492 337.334,-84.3458 319.63,-75.6545"/>
<polygon fill="midnightblue" stroke="midnightblue" points="383.808,-111.059 394.327,-112.324 386.892,-104.775 383.808,-111.059"/>
</g>
<!-- Node12&#45;&gt;Node12 -->
<g id="edge15" class="edge"><title>Node12&#45;&gt;Node12</title>
<path fill="none" stroke="midnightblue" d="M451.318,-132.432C467.173,-133.04 480.5,-129.563 480.5,-122 480.5,-112.867 461.066,-109.692 441.215,-112.475"/>
<polygon fill="midnightblue" stroke="midnightblue" points="451.488,-128.933 441.215,-131.525 450.862,-135.905 451.488,-128.933"/>
</g>
<!-- Node12&#45;&gt;Node13 -->
<g id="edge16" class="edge"><title>Node12&#45;&gt;Node13</title>
<path fill="none" stroke="midnightblue" d="M438.902,-108.021C486.055,-85.2717 582.397,-38.791 622.192,-19.5914"/>
<polygon fill="midnightblue" stroke="midnightblue" points="437.377,-104.871 429.891,-112.368 440.418,-111.175 437.377,-104.871"/>
</g>
<!-- Node12&#45;&gt;Node14 -->
<g id="edge17" class="edge"><title>Node12&#45;&gt;Node14</title>
<path fill="none" stroke="midnightblue" d="M458.071,-110.088C501.146,-99.8865 564.586,-84.8612 604.042,-75.5164"/>
<polygon fill="midnightblue" stroke="midnightblue" points="457.051,-106.733 448.127,-112.444 458.665,-113.545 457.051,-106.733"/>
</g>
<!-- Node14&#45;&gt;Node13 -->
<g id="edge18" class="edge"><title>Node14&#45;&gt;Node13</title>
<path fill="none" stroke="midnightblue" d="M640,-45.8045C640,-36.9102 640,-26.7798 640,-19.7511"/>
<polygon fill="midnightblue" stroke="midnightblue" points="636.5,-46.083 640,-56.083 643.5,-46.083 636.5,-46.083"/>
</g>
<!-- Node15&#45;&gt;Node12 -->
<g id="edge20" class="edge"><title>Node15&#45;&gt;Node12</title>
<path fill="none" stroke="midnightblue" d="M489.421,-163.59C470.377,-153.605 444.936,-140.267 428.508,-131.655"/>
<polygon fill="midnightblue" stroke="midnightblue" points="487.969,-166.78 498.451,-168.324 491.22,-160.581 487.969,-166.78"/>
</g>
<!-- Node15&#45;&gt;Node16 -->
<g id="edge21" class="edge"><title>Node15&#45;&gt;Node16</title>
<path fill="none" stroke="midnightblue" d="M527.065,-159.855C533.645,-150.505 541.511,-139.327 546.842,-131.751"/>
<polygon fill="midnightblue" stroke="midnightblue" points="524.168,-157.891 521.275,-168.083 529.892,-161.919 524.168,-157.891"/>
</g>
<!-- Node21&#45;&gt;Node2 -->
<g id="edge40" class="edge"><title>Node21&#45;&gt;Node2</title>
<path fill="none" stroke="midnightblue" d="M899.665,-446.664C841.08,-436.459 752.555,-421.039 697.891,-411.516"/>
<polygon fill="midnightblue" stroke="midnightblue" points="899.427,-450.175 909.88,-448.444 900.629,-443.279 899.427,-450.175"/>
</g>
<!-- Node21&#45;&gt;Node5 -->
<g id="edge42" class="edge"><title>Node21&#45;&gt;Node5</title>
<path fill="none" stroke="midnightblue" d="M972.29,-440.253C978.597,-431.973 986.038,-421.697 992,-412 1003.93,-392.594 1015.4,-368.343 1021.16,-355.654"/>
<polygon fill="midnightblue" stroke="midnightblue" points="969.385,-438.287 966.016,-448.332 974.914,-442.581 969.385,-438.287"/>
</g>
<!-- Node21&#45;&gt;Node6 -->
<g id="edge43" class="edge"><title>Node21&#45;&gt;Node6</title>
<path fill="none" stroke="midnightblue" d="M936.806,-442.901C921.22,-432.999 900.87,-420.071 887.623,-411.655"/>
<polygon fill="midnightblue" stroke="midnightblue" points="935.026,-445.916 945.343,-448.324 938.779,-440.007 935.026,-445.916"/>
</g>
<!-- Node21&#45;&gt;Node22 -->
<g id="edge41" class="edge"><title>Node21&#45;&gt;Node22</title>
<path fill="none" stroke="midnightblue" d="M998.764,-445.699C1034.62,-435.507 1086.57,-420.743 1119.03,-411.516"/>
<polygon fill="midnightblue" stroke="midnightblue" points="997.768,-442.343 989.106,-448.444 999.682,-449.076 997.768,-442.343"/>
</g>
<!-- Node24&#45;&gt;Node7 -->
<g id="edge50" class="edge"><title>Node24&#45;&gt;Node7</title>
<path fill="none" stroke="midnightblue" d="M534.117,-389.436C567.678,-379.255 615.774,-364.664 645.927,-355.516"/>
<polygon fill="midnightblue" stroke="midnightblue" points="532.758,-386.191 524.205,-392.444 534.79,-392.89 532.758,-386.191"/>
</g>
<!-- Node24&#45;&gt;Node8 -->
<g id="edge51" class="edge"><title>Node24&#45;&gt;Node8</title>
<path fill="none" stroke="midnightblue" d="M501.998,-382.674C509.868,-358.625 523.364,-317.388 529.188,-299.591"/>
<polygon fill="midnightblue" stroke="midnightblue" points="498.609,-381.776 498.825,-392.368 505.262,-383.953 498.609,-381.776"/>
</g>
<!-- Node24&#45;&gt;Node18 -->
<g id="edge53" class="edge"><title>Node24&#45;&gt;Node18</title>
<path fill="none" stroke="midnightblue" d="M464.856,-388.602C384.128,-356.466 169.607,-271.069 100.663,-243.624"/>
<polygon fill="midnightblue" stroke="midnightblue" points="463.873,-391.978 474.458,-392.425 466.462,-385.474 463.873,-391.978"/>
</g>
<!-- Node24&#45;&gt;Node20 -->
<g id="edge52" class="edge"><title>Node24&#45;&gt;Node20</title>
<path fill="none" stroke="midnightblue" d="M517.444,-386.77C537.759,-373.392 569.21,-352.945 597,-336 618.49,-322.896 643.801,-308.476 659.626,-299.578"/>
<polygon fill="midnightblue" stroke="midnightblue" points="515.362,-383.95 508.946,-392.382 519.22,-389.792 515.362,-383.95"/>
</g>
</g>
</svg>
        <g id="navigator" transform="translate(0 0)" fill="#404254">
                <rect fill="#f2f5e9" fill-opacity="0.5" stroke="#606060" stroke-width=".5" x="0" y="0" width="60" height="60"/>
                <use id="zoomplus" xlink:href="#zoomPlus" x="17" y="9" onmousedown="handleZoom(evt,'in')"/>
                <use id="zoomminus" xlink:href="#zoomMin" x="42" y="9" onmousedown="handleZoom(evt,'out')"/>
                <use id="reset" xlink:href="#resetDef" x="30" y="36" onmousedown="handleReset()"/>
                <g id="arrowUp" xlink:href="#dirArrow" transform="translate(30 24)" onmousedown="handlePan(0,-1)">
                  <use xlink:href="#rim" fill="#404040">
                        <set attributeName="fill" to="#808080" begin="arrowUp.mouseover" end="arrowUp.mouseout"/>
                  </use>
                  <path fill="none" stroke="white" stroke-width="1.5" d="M0,-3.0v7 M-2.5,-0.5L0,-3.0L2.5,-0.5"/>
                </g>
                <g id="arrowRight" xlink:href="#dirArrow" transform="rotate(90) translate(36 -43)" onmousedown="handlePan(1,0)">
                  <use xlink:href="#rim" fill="#404040">
                        <set attributeName="fill" to="#808080" begin="arrowRight.mouseover" end="arrowRight.mouseout"/>
                  </use>
                  <path fill="none" stroke="white" stroke-width="1.5" d="M0,-3.0v7 M-2.5,-0.5L0,-3.0L2.5,-0.5"/>
                </g>
                <g id="arrowDown" xlink:href="#dirArrow" transform="rotate(180) translate(-30 -48)" onmousedown="handlePan(0,1)">
                  <use xlink:href="#rim" fill="#404040">
                        <set attributeName="fill" to="#808080" begin="arrowDown.mouseover" end="arrowDown.mouseout"/>
                  </use>
                  <path fill="none" stroke="white" stroke-width="1.5" d="M0,-3.0v7 M-2.5,-0.5L0,-3.0L2.5,-0.5"/>
                </g>
                <g id="arrowLeft" xlink:href="#dirArrow" transform="rotate(270) translate(-36 17)" onmousedown="handlePan(-1,0)">
                  <use xlink:href="#rim" fill="#404040">
                        <set attributeName="fill" to="#808080" begin="arrowLeft.mouseover" end="arrowLeft.mouseout"/>
                  </use>
                  <path fill="none" stroke="white" stroke-width="1.5" d="M0,-3.0v7 M-2.5,-0.5L0,-3.0L2.5,-0.5"/>
                </g>
        </g>
        <svg viewBox="0 0 15 15" width="100%" height="30px" preserveAspectRatio="xMaxYMin meet">
         <g id="arrow_out" transform="scale(0.3 0.3)">
          <a xlink:href="sample__formats_8hpp__dep__incl_org.svg" target="_base">
           <rect id="button" ry="5" rx="5" y="6" x="6" height="38" width="38"
                fill="#f2f5e9" fill-opacity="0.5" stroke="#606060" stroke-width="1.0"/>
           <path id="arrow"
             d="M 11.500037,31.436501 C 11.940474,20.09759 22.043105,11.32322 32.158766,21.979434 L 37.068811,17.246167 C 37.068811,17.246167 37.088388,32 37.088388,32 L 22.160133,31.978069 C 22.160133,31.978069 26.997745,27.140456 26.997745,27.140456 C 18.528582,18.264221 13.291696,25.230495 11.500037,31.436501 z"
             style="fill:#404040;"/>
          </a>
         </g>
        </svg>
</svg>
