<?xml version="1.0" encoding="UTF-8" standalone="no"?>
<!DOCTYPE svg PUBLIC "-//W3C//DTD SVG 1.1//EN"
 "http://www.w3.org/Graphics/SVG/1.1/DTD/svg11.dtd">
<!-- Generated by graphviz version 2.38.0 (20140413.2041)
 -->
<!-- Title: src/sample_formats.hpp Pages: 1 -->
<!--zoomable 588 -->
<svg id="main" version="1.1" xmlns="http://www.w3.org/2000/svg" xmlns:xlink="http://www.w3.org/1999/xlink" xml:space="preserve" onload="init(evt)">
<style type="text/css"><![CDATA[
.edge:hover path { stroke: red; }
.edge:hover polygon { stroke: red; fill: red; }
]]></style>
<script type="text/javascript"><![CDATA[
var edges = document.getElementsByTagName('g');
if (edges && edges.length) {
  for (var i=0;i<edges.length;i++) {
    if (edges[i].id.substr(0,4)=='edge') {
      edges[i].setAttribute('class','edge');
    }
  }
}
]]></script>
        <defs>
                <circle id="rim" cx="0" cy="0" r="7"/>
                <circle id="rim2" cx="0" cy="0" r="3.5"/>
                <g id="zoomPlus">
                        <use xlink:href="#rim" fill="#404040">
                                <set attributeName="fill" to="#808080" begin="zoomplus.mouseover" end="zoomplus.mouseout"/>
                        </use>
                        <path d="M-4,0h8M0,-4v8" fill="none" stroke="white" stroke-width="1.5" pointer-events="none"/>
                </g>
                <g id="zoomMin">
                        <use xlink:href="#rim" fill="#404040">
                                <set attributeName="fill" to="#808080" begin="zoomminus.mouseover" end="zoomminus.mouseout"/>
                        </use>
                        <path d="M-4,0h8" fill="none" stroke="white" stroke-width="1.5" pointer-events="none"/>
                </g>
                <g id="dirArrow">
                        <path fill="none" stroke="white" stroke-width="1.5" d="M0,-3.0v7 M-2.5,-0.5L0,-3.0L2.5,-0.5"/>
                </g>
               <g id="resetDef">
                       <use xlink:href="#rim2" fill="#404040">
                               <set attributeName="fill" to="#808080" begin="reset.mouseover" end="reset.mouseout"/>
                       </use>
               </g>
        </defs>

<script type="text/javascript">
var viewWidth = 919;
var viewHeight = 588;
var sectionId = 'dynsection-1';
</script>
<script xlink:href="svgpan.js"/>
<svg id="graph" class="graph">
<g id="viewport">
<title>src/sample_formats.hpp</title>
<polygon fill="white" stroke="none" points="-4,4 -4,-584 914.5,-584 914.5,4 -4,4"/>
<!-- Node1 -->
<g id="node1" class="node"><title>Node1</title>
<polygon fill="#bfbfbf" stroke="black" points="560,-560.5 560,-579.5 689,-579.5 689,-560.5 560,-560.5"/>
<text text-anchor="middle" x="624.5" y="-567.5" font-family="Helvetica,sans-Serif" font-size="10.00">src/sample_formats.hpp</text>
</g>
<!-- Node2 -->
<g id="node2" class="node"><title>Node2</title>
<g id="a_node2"><a xlink:href="audio_8cpp.html" target="_top" xlink:title="Implementation of the Audio class. ">
<polygon fill="white" stroke="black" points="276,-392.5 276,-411.5 383,-411.5 383,-392.5 276,-392.5"/>
<text text-anchor="middle" x="329.5" y="-399.5" font-family="Helvetica,sans-Serif" font-size="10.00">src/audio/audio.cpp</text>
</a>
</g>
</g>
<!-- Node1&#45;&gt;Node2 -->
<g id="edge1" class="edge"><title>Node1&#45;&gt;Node2</title>
<path fill="none" stroke="midnightblue" d="M549.991,-566.368C480.744,-559.469 381.192,-537.201 332.5,-468 320.669,-451.185 324.144,-425.426 327.141,-411.939"/>
<polygon fill="midnightblue" stroke="midnightblue" points="549.701,-569.856 559.978,-567.278 550.337,-562.885 549.701,-569.856"/>
</g>
<!-- Node3 -->
<g id="node3" class="node"><title>Node3</title>
<g id="a_node3"><a xlink:href="audio__source_8hpp.html" target="_top" xlink:title="Declaration of the AudioSource class. ">
<polygon fill="white" stroke="black" points="477.5,-504.5 477.5,-523.5 623.5,-523.5 623.5,-504.5 477.5,-504.5"/>
<text text-anchor="middle" x="550.5" y="-511.5" font-family="Helvetica,sans-Serif" font-size="10.00">src/audio/audio_source.hpp</text>
</a>
</g>
</g>
<!-- Node1&#45;&gt;Node3 -->
<g id="edge2" class="edge"><title>Node1&#45;&gt;Node3</title>
<path fill="none" stroke="midnightblue" d="M604.466,-554.38C591.091,-544.62 573.941,-532.106 562.606,-523.834"/>
<polygon fill="midnightblue" stroke="midnightblue" points="602.47,-557.257 612.611,-560.324 606.596,-551.602 602.47,-557.257"/>
</g>
<!-- Node5 -->
<g id="node5" class="node"><title>Node5</title>
<g id="a_node5"><a xlink:href="audio__system_8cpp.html" target="_top" xlink:title="Implementation of the AudioSystem class. ">
<polygon fill="white" stroke="black" points="275.5,-336.5 275.5,-355.5 421.5,-355.5 421.5,-336.5 275.5,-336.5"/>
<text text-anchor="middle" x="348.5" y="-343.5" font-family="Helvetica,sans-Serif" font-size="10.00">src/audio/audio_system.cpp</text>
</a>
</g>
</g>
<!-- Node1&#45;&gt;Node5 -->
<g id="edge48" class="edge"><title>Node1&#45;&gt;Node5</title>
<path fill="none" stroke="midnightblue" d="M549.698,-568.323C472.611,-563.309 354.885,-542.814 290.5,-468 266.812,-440.475 241.548,-422.977 260.5,-392 271.873,-373.411 293.619,-362.19 312.648,-355.603"/>
<polygon fill="midnightblue" stroke="midnightblue" points="549.641,-571.825 559.827,-568.908 550.045,-564.837 549.641,-571.825"/>
</g>
<!-- Node6 -->
<g id="node6" class="node"><title>Node6</title>
<g id="a_node6"><a xlink:href="audio__system_8hpp.html" target="_top" xlink:title="Declaration of the AudioSystem class. ">
<polygon fill="white" stroke="black" points="572,-392.5 572,-411.5 719,-411.5 719,-392.5 572,-392.5"/>
<text text-anchor="middle" x="645.5" y="-399.5" font-family="Helvetica,sans-Serif" font-size="10.00">src/audio/audio_system.hpp</text>
</a>
</g>
</g>
<!-- Node1&#45;&gt;Node6 -->
<g id="edge49" class="edge"><title>Node1&#45;&gt;Node6</title>
<path fill="none" stroke="midnightblue" d="M681.579,-557.883C729.78,-545.155 795.86,-519.081 827.5,-468 832.181,-460.443 832.979,-454.999 827.5,-448 813.606,-430.252 761.474,-418.536 716.547,-411.521"/>
<polygon fill="midnightblue" stroke="midnightblue" points="680.425,-554.564 671.583,-560.401 682.135,-561.352 680.425,-554.564"/>
</g>
<!-- Node22 -->
<g id="node22" class="node"><title>Node22</title>
<g id="a_node22"><a xlink:href="audio__sink_8cpp.html" target="_top" xlink:title="Implementation of the AudioSink class. ">
<polygon fill="white" stroke="black" points="778.5,-392.5 778.5,-411.5 910.5,-411.5 910.5,-392.5 778.5,-392.5"/>
<text text-anchor="middle" x="844.5" y="-399.5" font-family="Helvetica,sans-Serif" font-size="10.00">src/audio/audio_sink.cpp</text>
</a>
</g>
</g>
<!-- Node1&#45;&gt;Node22 -->
<g id="edge46" class="edge"><title>Node1&#45;&gt;Node22</title>
<path fill="none" stroke="midnightblue" d="M699.012,-559.159C730.218,-552.611 765.825,-541.794 794.5,-524 822.601,-506.563 831.63,-498.868 843.5,-468 850.791,-449.039 848.324,-424.607 846.216,-411.771"/>
<polygon fill="midnightblue" stroke="midnightblue" points="698.175,-555.757 689.049,-561.138 699.539,-562.623 698.175,-555.757"/>
</g>
<!-- Node23 -->
<g id="node23" class="node"><title>Node23</title>
<g id="a_node23"><a xlink:href="audio__source_8cpp.html" target="_top" xlink:title="Implementation of the AudioSource class. ">
<polygon fill="white" stroke="black" points="674,-448.5 674,-467.5 819,-467.5 819,-448.5 674,-448.5"/>
<text text-anchor="middle" x="746.5" y="-455.5" font-family="Helvetica,sans-Serif" font-size="10.00">src/audio/audio_source.cpp</text>
</a>
</g>
</g>
<!-- Node1&#45;&gt;Node23 -->
<g id="edge47" class="edge"><title>Node1&#45;&gt;Node23</title>
<path fill="none" stroke="midnightblue" d="M641.678,-553.512C667.747,-530.007 716.433,-486.11 736.971,-467.591"/>
<polygon fill="midnightblue" stroke="midnightblue" points="639.156,-551.073 634.073,-560.368 643.844,-556.271 639.156,-551.073"/>
</g>
<!-- Node3&#45;&gt;Node2 -->
<g id="edge42" class="edge"><title>Node3&#45;&gt;Node2</title>
<path fill="none" stroke="midnightblue" d="M467.279,-503.098C419.619,-495.809 365.911,-484.311 348.5,-468 332.541,-453.049 329.743,-425.511 329.405,-411.568"/>
<polygon fill="midnightblue" stroke="midnightblue" points="466.937,-506.586 477.342,-504.59 467.964,-499.662 466.937,-506.586"/>
</g>
<!-- Node4 -->
<g id="node4" class="node"><title>Node4</title>
<g id="a_node4"><a xlink:href="audio_8hpp.html" target="_top" xlink:title="Declaration of the Audio class. ">
<polygon fill="white" stroke="black" points="357.5,-448.5 357.5,-467.5 465.5,-467.5 465.5,-448.5 357.5,-448.5"/>
<text text-anchor="middle" x="411.5" y="-455.5" font-family="Helvetica,sans-Serif" font-size="10.00">src/audio/audio.hpp</text>
</a>
</g>
</g>
<!-- Node3&#45;&gt;Node4 -->
<g id="edge3" class="edge"><title>Node3&#45;&gt;Node4</title>
<path fill="none" stroke="midnightblue" d="M519.024,-500.772C492.915,-490.629 456.461,-476.467 433.422,-467.516"/>
<polygon fill="midnightblue" stroke="midnightblue" points="517.886,-504.085 528.475,-504.444 520.421,-497.56 517.886,-504.085"/>
</g>
<!-- Node3&#45;&gt;Node5 -->
<g id="edge44" class="edge"><title>Node3&#45;&gt;Node5</title>
<path fill="none" stroke="midnightblue" d="M467.44,-505.723C425.377,-499.63 374.468,-488.459 332.5,-468 297.921,-451.143 282.662,-446.91 266.5,-412 253.945,-384.882 291.383,-365.776 319.75,-355.582"/>
<polygon fill="midnightblue" stroke="midnightblue" points="466.993,-509.194 477.377,-507.092 467.949,-502.259 466.993,-509.194"/>
</g>
<!-- Node3&#45;&gt;Node6 -->
<g id="edge45" class="edge"><title>Node3&#45;&gt;Node6</title>
<path fill="none" stroke="midnightblue" d="M583.017,-500.035C597.851,-492.643 614.517,-482.023 625.5,-468 638.75,-451.083 643.269,-425.367 644.774,-411.913"/>
<polygon fill="midnightblue" stroke="midnightblue" points="581.19,-497.025 573.612,-504.429 584.154,-503.367 581.19,-497.025"/>
</g>
<!-- Node21 -->
<g id="node21" class="node"><title>Node21</title>
<g id="a_node21"><a xlink:href="audio__sink_8hpp.html" target="_top" xlink:title="Declaration of the AudioSink class. ">
<polygon fill="white" stroke="black" points="484,-448.5 484,-467.5 617,-467.5 617,-448.5 484,-448.5"/>
<text text-anchor="middle" x="550.5" y="-455.5" font-family="Helvetica,sans-Serif" font-size="10.00">src/audio/audio_sink.hpp</text>
</a>
</g>
</g>
<!-- Node3&#45;&gt;Node21 -->
<g id="edge37" class="edge"><title>Node3&#45;&gt;Node21</title>
<path fill="none" stroke="midnightblue" d="M550.5,-493.805C550.5,-484.91 550.5,-474.78 550.5,-467.751"/>
<polygon fill="midnightblue" stroke="midnightblue" points="547,-494.083 550.5,-504.083 554,-494.083 547,-494.083"/>
</g>
<!-- Node3&#45;&gt;Node23 -->
<g id="edge43" class="edge"><title>Node3&#45;&gt;Node23</title>
<path fill="none" stroke="midnightblue" d="M591.52,-501.699C628.511,-491.507 682.1,-476.743 715.589,-467.516"/>
<polygon fill="midnightblue" stroke="midnightblue" points="590.268,-498.413 581.557,-504.444 592.127,-505.162 590.268,-498.413"/>
</g>
<!-- Node4&#45;&gt;Node2 -->
<g id="edge4" class="edge"><title>Node4&#45;&gt;Node2</title>
<path fill="none" stroke="midnightblue" d="M389.667,-442.622C374.687,-432.757 355.303,-419.992 342.642,-411.655"/>
<polygon fill="midnightblue" stroke="midnightblue" points="388.049,-445.747 398.325,-448.324 391.899,-439.901 388.049,-445.747"/>
</g>
<!-- Node4&#45;&gt;Node5 -->
<g id="edge5" class="edge"><title>Node4&#45;&gt;Node5</title>
<path fill="none" stroke="midnightblue" d="M408.193,-438.467C405.224,-424.927 399.995,-406.48 391.5,-392 382.97,-377.461 368.868,-363.931 359.153,-355.579"/>
<polygon fill="midnightblue" stroke="midnightblue" points="404.802,-439.363 410.179,-448.492 411.669,-438.003 404.802,-439.363"/>
</g>
<!-- Node4&#45;&gt;Node6 -->
<g id="edge6" class="edge"><title>Node4&#45;&gt;Node6</title>
<path fill="none" stroke="midnightblue" d="M458.504,-446.153C502.717,-435.95 568.016,-420.881 608.595,-411.516"/>
<polygon fill="midnightblue" stroke="midnightblue" points="457.535,-442.784 448.578,-448.444 459.109,-449.605 457.535,-442.784"/>
</g>
<!-- Node8 -->
<g id="node8" class="node"><title>Node8</title>
<g id="a_node8"><a xlink:href="player_8hpp.html" target="_top" xlink:title="Declaration of the Player class, and associated types. ">
<polygon fill="white" stroke="black" points="343.5,-280.5 343.5,-299.5 459.5,-299.5 459.5,-280.5 343.5,-280.5"/>
<text text-anchor="middle" x="401.5" y="-287.5" font-family="Helvetica,sans-Serif" font-size="10.00">src/player/player.hpp</text>
</a>
</g>
</g>
<!-- Node4&#45;&gt;Node8 -->
<g id="edge35" class="edge"><title>Node4&#45;&gt;Node8</title>
<path fill="none" stroke="midnightblue" d="M419.267,-438.76C428.371,-414.789 440.965,-371.557 430.5,-336 426.354,-321.912 416.279,-308.073 409.173,-299.541"/>
<polygon fill="midnightblue" stroke="midnightblue" points="415.906,-437.738 415.425,-448.322 422.401,-440.348 415.906,-437.738"/>
</g>
<!-- Node17 -->
<g id="node17" class="node"><title>Node17</title>
<g id="a_node17"><a xlink:href="player_8cpp.html" target="_top" xlink:title="Main implementation file for the Player class. ">
<polygon fill="white" stroke="black" points="574,-224.5 574,-243.5 689,-243.5 689,-224.5 574,-224.5"/>
<text text-anchor="middle" x="631.5" y="-231.5" font-family="Helvetica,sans-Serif" font-size="10.00">src/player/player.cpp</text>
</a>
</g>
</g>
<!-- Node4&#45;&gt;Node17 -->
<g id="edge36" class="edge"><title>Node4&#45;&gt;Node17</title>
<path fill="none" stroke="midnightblue" d="M424.895,-440.316C431.226,-432.051 438.657,-421.769 444.5,-412 477.868,-356.211 459.356,-323.679 507.5,-280 528.278,-261.149 557.563,-250.036 582.457,-243.57"/>
<polygon fill="midnightblue" stroke="midnightblue" points="421.995,-438.343 418.585,-448.374 427.506,-442.659 421.995,-438.343"/>
</g>
<!-- Node6&#45;&gt;Node5 -->
<g id="edge7" class="edge"><title>Node6&#45;&gt;Node5</title>
<path fill="none" stroke="midnightblue" d="M588.304,-390.601C532.174,-380.395 447.604,-365.019 395.34,-355.516"/>
<polygon fill="midnightblue" stroke="midnightblue" points="587.975,-394.098 598.439,-392.444 589.227,-387.211 587.975,-394.098"/>
</g>
<!-- Node7 -->
<g id="node7" class="node"><title>Node7</title>
<g id="a_node7"><a xlink:href="player__file_8hpp.html" target="_top" xlink:title="Declaration of the PlayerFile class, and associated types. ">
<polygon fill="white" stroke="black" points="516,-336.5 516,-355.5 651,-355.5 651,-336.5 516,-336.5"/>
<text text-anchor="middle" x="583.5" y="-343.5" font-family="Helvetica,sans-Serif" font-size="10.00">src/player/player_file.hpp</text>
</a>
</g>
</g>
<!-- Node6&#45;&gt;Node7 -->
<g id="edge8" class="edge"><title>Node6&#45;&gt;Node7</title>
<path fill="none" stroke="midnightblue" d="M627.746,-385.537C616.692,-375.909 602.869,-363.869 593.643,-355.834"/>
<polygon fill="midnightblue" stroke="midnightblue" points="625.699,-388.395 635.539,-392.324 630.297,-383.117 625.699,-388.395"/>
</g>
<!-- Node14 -->
<g id="node14" class="node"><title>Node14</title>
<g id="a_node14"><a xlink:href="main_8cpp.html" target="_top" xlink:title="Main entry point and implementation of the playd class. ">
<polygon fill="white" stroke="black" points="450.5,-0.5 450.5,-19.5 526.5,-19.5 526.5,-0.5 450.5,-0.5"/>
<text text-anchor="middle" x="488.5" y="-7.5" font-family="Helvetica,sans-Serif" font-size="10.00">src/main.cpp</text>
</a>
</g>
</g>
<!-- Node6&#45;&gt;Node14 -->
<g id="edge32" class="edge"><title>Node6&#45;&gt;Node14</title>
<path fill="none" stroke="midnightblue" d="M674.026,-387.842C706.618,-370.613 755.5,-337.09 755.5,-291 755.5,-291 755.5,-291 755.5,-121 755.5,-23.2388 600.582,-10.587 526.755,-10.1083"/>
<polygon fill="midnightblue" stroke="midnightblue" points="672.248,-384.819 664.913,-392.464 675.414,-391.062 672.248,-384.819"/>
</g>
<!-- Node15 -->
<g id="node15" class="node"><title>Node15</title>
<g id="a_node15"><a xlink:href="main_8hpp.html" target="_top" xlink:title="Declaration of the playd class. ">
<polygon fill="white" stroke="black" points="450,-56.5 450,-75.5 527,-75.5 527,-56.5 450,-56.5"/>
<text text-anchor="middle" x="488.5" y="-63.5" font-family="Helvetica,sans-Serif" font-size="10.00">src/main.hpp</text>
</a>
</g>
</g>
<!-- Node6&#45;&gt;Node15 -->
<g id="edge33" class="edge"><title>Node6&#45;&gt;Node15</title>
<path fill="none" stroke="midnightblue" d="M658.433,-384.141C681.561,-351.784 725.116,-279.285 697.5,-224 657.65,-144.224 555.838,-94.4158 510.664,-75.5725"/>
<polygon fill="midnightblue" stroke="midnightblue" points="655.391,-382.37 652.269,-392.494 661.023,-386.526 655.391,-382.37"/>
</g>
<!-- Node6&#45;&gt;Node17 -->
<g id="edge34" class="edge"><title>Node6&#45;&gt;Node17</title>
<path fill="none" stroke="midnightblue" d="M652.555,-382.74C655.31,-374.675 658.132,-364.999 659.5,-356 664.575,-322.606 668.779,-312.478 659.5,-280 655.506,-266.021 645.776,-252.156 638.912,-243.589"/>
<polygon fill="midnightblue" stroke="midnightblue" points="649.235,-381.628 649.1,-392.222 655.812,-384.024 649.235,-381.628"/>
</g>
<!-- Node7&#45;&gt;Node8 -->
<g id="edge9" class="edge"><title>Node7&#45;&gt;Node8</title>
<path fill="none" stroke="midnightblue" d="M544.969,-333.568C510.636,-323.381 461.167,-308.703 430.204,-299.516"/>
<polygon fill="midnightblue" stroke="midnightblue" points="544.079,-336.954 554.662,-336.444 546.07,-330.244 544.079,-336.954"/>
</g>
<!-- Node20 -->
<g id="node20" class="node"><title>Node20</title>
<g id="a_node20"><a xlink:href="player__file_8cpp.html" target="_top" xlink:title="Implementation of the PlayerFile class, and associated types. ">
<polygon fill="white" stroke="black" points="516.5,-280.5 516.5,-299.5 650.5,-299.5 650.5,-280.5 516.5,-280.5"/>
<text text-anchor="middle" x="583.5" y="-287.5" font-family="Helvetica,sans-Serif" font-size="10.00">src/player/player_file.cpp</text>
</a>
</g>
</g>
<!-- Node7&#45;&gt;Node20 -->
<g id="edge31" class="edge"><title>Node7&#45;&gt;Node20</title>
<path fill="none" stroke="midnightblue" d="M583.5,-325.805C583.5,-316.91 583.5,-306.78 583.5,-299.751"/>
<polygon fill="midnightblue" stroke="midnightblue" points="580,-326.083 583.5,-336.083 587,-326.083 580,-326.083"/>
</g>
<!-- Node9 -->
<g id="node9" class="node"><title>Node9</title>
<g id="a_node9"><a xlink:href="cmd_8hpp.html" target="_top" xlink:title="Declaration of the CommandHandler class. ">
<polygon fill="white" stroke="black" points="67.5,-224.5 67.5,-243.5 141.5,-243.5 141.5,-224.5 67.5,-224.5"/>
<text text-anchor="middle" x="104.5" y="-231.5" font-family="Helvetica,sans-Serif" font-size="10.00">src/cmd.hpp</text>
</a>
</g>
</g>
<!-- Node8&#45;&gt;Node9 -->
<g id="edge10" class="edge"><title>Node8&#45;&gt;Node9</title>
<path fill="none" stroke="midnightblue" d="M342.241,-278.648C291.348,-269.693 216.041,-256.286 150.5,-244 147.621,-243.46 144.641,-242.894 141.647,-242.32"/>
<polygon fill="midnightblue" stroke="midnightblue" points="341.945,-282.15 352.4,-280.434 343.157,-275.255 341.945,-282.15"/>
</g>
<!-- Node11 -->
<g id="node11" class="node"><title>Node11</title>
<g id="a_node11"><a xlink:href="io__reactor_8cpp.html" target="_top" xlink:title="Implementation of the non&#45;virtual aspects of the IoReactor class. ">
<polygon fill="white" stroke="black" points="0,-56.5 0,-75.5 113,-75.5 113,-56.5 0,-56.5"/>
<text text-anchor="middle" x="56.5" y="-63.5" font-family="Helvetica,sans-Serif" font-size="10.00">src/io/io_reactor.cpp</text>
</a>
</g>
</g>
<!-- Node8&#45;&gt;Node11 -->
<g id="edge24" class="edge"><title>Node8&#45;&gt;Node11</title>
<path fill="none" stroke="midnightblue" d="M333.269,-285.141C235.477,-278.904 65.1202,-265.13 46.5,-244 2.95299,-194.584 39.1991,-104.099 52.2644,-75.7391"/>
<polygon fill="midnightblue" stroke="midnightblue" points="333.169,-288.642 343.368,-285.775 333.607,-281.655 333.169,-288.642"/>
</g>
<!-- Node13 -->
<g id="node13" class="node"><title>Node13</title>
<g id="a_node13"><a xlink:href="io__reactor_8hpp.html" target="_top" xlink:title="Declaration of the IoReactor class. ">
<polygon fill="white" stroke="black" points="85,-112.5 85,-131.5 198,-131.5 198,-112.5 85,-112.5"/>
<text text-anchor="middle" x="141.5" y="-119.5" font-family="Helvetica,sans-Serif" font-size="10.00">src/io/io_reactor.hpp</text>
</a>
</g>
</g>
<!-- Node8&#45;&gt;Node13 -->
<g id="edge25" class="edge"><title>Node8&#45;&gt;Node13</title>
<path fill="none" stroke="midnightblue" d="M333.382,-284.822C238.555,-278.301 76.3188,-264.309 58.5,-244 24.5628,-205.32 95.8602,-152.345 127.449,-131.717"/>
<polygon fill="midnightblue" stroke="midnightblue" points="333.255,-288.321 343.469,-285.505 333.728,-281.337 333.255,-288.321"/>
</g>
<!-- Node8&#45;&gt;Node14 -->
<g id="edge27" class="edge"><title>Node8&#45;&gt;Node14</title>
<path fill="none" stroke="midnightblue" d="M453.806,-277.365C473.162,-270.61 493.722,-260.122 507.5,-244 562.382,-179.779 568.674,-133.691 535.5,-56 528.846,-40.4162 513.853,-27.6451 502.578,-19.7409"/>
<polygon fill="midnightblue" stroke="midnightblue" points="452.584,-274.081 444.137,-280.478 454.729,-280.744 452.584,-274.081"/>
</g>
<!-- Node8&#45;&gt;Node15 -->
<g id="edge26" class="edge"><title>Node8&#45;&gt;Node15</title>
<path fill="none" stroke="midnightblue" d="M445.265,-276.751C461.626,-269.866 478.619,-259.448 488.5,-244 523.767,-188.861 500.348,-102.944 491.485,-75.6368"/>
<polygon fill="midnightblue" stroke="midnightblue" points="443.839,-273.55 435.763,-280.408 446.353,-280.082 443.839,-273.55"/>
</g>
<!-- Node8&#45;&gt;Node17 -->
<g id="edge28" class="edge"><title>Node8&#45;&gt;Node17</title>
<path fill="none" stroke="midnightblue" d="M447.701,-278.153C491.158,-267.95 555.341,-252.881 595.226,-243.516"/>
<polygon fill="midnightblue" stroke="midnightblue" points="446.879,-274.75 437.944,-280.444 448.479,-281.565 446.879,-274.75"/>
</g>
<!-- Node18 -->
<g id="node18" class="node"><title>Node18</title>
<g id="a_node18"><a xlink:href="player__position_8cpp.html" target="_top" xlink:title="Implementation of the PlayerPosition class, and related Player methods. ">
<polygon fill="white" stroke="black" points="159.5,-224.5 159.5,-243.5 317.5,-243.5 317.5,-224.5 159.5,-224.5"/>
<text text-anchor="middle" x="238.5" y="-231.5" font-family="Helvetica,sans-Serif" font-size="10.00">src/player/player_position.cpp</text>
</a>
</g>
</g>
<!-- Node8&#45;&gt;Node18 -->
<g id="edge29" class="edge"><title>Node8&#45;&gt;Node18</title>
<path fill="none" stroke="midnightblue" d="M365.797,-277.172C335.104,-267.004 291.581,-252.585 264.207,-243.516"/>
<polygon fill="midnightblue" stroke="midnightblue" points="365.079,-280.621 375.672,-280.444 367.28,-273.976 365.079,-280.621"/>
</g>
<!-- Node19 -->
<g id="node19" class="node"><title>Node19</title>
<g id="a_node19"><a xlink:href="player__state_8cpp.html" target="_top" xlink:title="Implementation of the PlayerState class, and related Player methods. ">
<polygon fill="white" stroke="black" points="335.5,-224.5 335.5,-243.5 479.5,-243.5 479.5,-224.5 335.5,-224.5"/>
<text text-anchor="middle" x="407.5" y="-231.5" font-family="Helvetica,sans-Serif" font-size="10.00">src/player/player_state.cpp</text>
</a>
</g>
</g>
<!-- Node8&#45;&gt;Node19 -->
<g id="edge30" class="edge"><title>Node8&#45;&gt;Node19</title>
<path fill="none" stroke="midnightblue" d="M403.6,-270.101C404.596,-261.136 405.738,-250.858 406.528,-243.751"/>
<polygon fill="midnightblue" stroke="midnightblue" points="400.117,-269.758 402.491,-280.083 407.074,-270.531 400.117,-269.758"/>
</g>
<!-- Node10 -->
<g id="node10" class="node"><title>Node10</title>
<g id="a_node10"><a xlink:href="cmd_8cpp.html" target="_top" xlink:title="Implementation of the CommandHandler class. ">
<polygon fill="white" stroke="black" points="368,-168.5 368,-187.5 441,-187.5 441,-168.5 368,-168.5"/>
<text text-anchor="middle" x="404.5" y="-175.5" font-family="Helvetica,sans-Serif" font-size="10.00">src/cmd.cpp</text>
</a>
</g>
</g>
<!-- Node9&#45;&gt;Node10 -->
<g id="edge11" class="edge"><title>Node9&#45;&gt;Node10</title>
<path fill="none" stroke="midnightblue" d="M151.572,-223.859C189.644,-216.977 307.241,-196.186 367.853,-185.475"/>
<polygon fill="midnightblue" stroke="midnightblue" points="150.854,-220.432 141.646,-225.673 152.113,-227.318 150.854,-220.432"/>
</g>
<!-- Node9&#45;&gt;Node11 -->
<g id="edge12" class="edge"><title>Node9&#45;&gt;Node11</title>
<path fill="none" stroke="midnightblue" d="M99.1202,-214.395C88.7656,-178.585 66.4303,-101.342 58.9775,-75.5681"/>
<polygon fill="midnightblue" stroke="midnightblue" points="95.7792,-215.441 101.919,-224.075 102.504,-213.496 95.7792,-215.441"/>
</g>
<!-- Node12 -->
<g id="node12" class="node"><title>Node12</title>
<g id="a_node12"><a xlink:href="tokeniser_8hpp.html" target="_top" xlink:title="Declaration of the Tokeniser class. ">
<polygon fill="white" stroke="black" points="103,-168.5 103,-187.5 212,-187.5 212,-168.5 103,-168.5"/>
<text text-anchor="middle" x="157.5" y="-175.5" font-family="Helvetica,sans-Serif" font-size="10.00">src/io/tokeniser.hpp</text>
</a>
</g>
</g>
<!-- Node9&#45;&gt;Node12 -->
<g id="edge13" class="edge"><title>Node9&#45;&gt;Node12</title>
<path fill="none" stroke="midnightblue" d="M120.481,-216.718C129.822,-207.2 141.246,-195.561 148.911,-187.751"/>
<polygon fill="midnightblue" stroke="midnightblue" points="117.759,-214.494 113.252,-224.083 122.754,-219.398 117.759,-214.494"/>
</g>
<!-- Node9&#45;&gt;Node14 -->
<g id="edge22" class="edge"><title>Node9&#45;&gt;Node14</title>
<path fill="none" stroke="midnightblue" d="M147.546,-221.754C176.335,-213.677 214.79,-201.807 247.5,-188 295.865,-167.585 308.432,-162.018 351.5,-132 378.705,-113.038 452.803,-44.3887 479.093,-19.8205"/>
<polygon fill="midnightblue" stroke="midnightblue" points="146.498,-218.412 137.791,-224.45 148.362,-225.16 146.498,-218.412"/>
</g>
<!-- Node9&#45;&gt;Node15 -->
<g id="edge23" class="edge"><title>Node9&#45;&gt;Node15</title>
<path fill="none" stroke="midnightblue" d="M151.852,-224.111C231.943,-214.919 400.079,-228.74 449.5,-188 484.583,-159.08 488.458,-98.3528 488.633,-75.7346"/>
<polygon fill="midnightblue" stroke="midnightblue" points="151.056,-220.687 141.616,-225.496 151.995,-227.624 151.056,-220.687"/>
</g>
<!-- Node16 -->
<g id="node16" class="node"><title>Node16</title>
<g id="a_node16"><a xlink:href="tokeniser_8cpp.html" target="_top" xlink:title="Definition of the Tokeniser class. ">
<polygon fill="white" stroke="black" points="234.5,-112.5 234.5,-131.5 342.5,-131.5 342.5,-112.5 234.5,-112.5"/>
<text text-anchor="middle" x="288.5" y="-119.5" font-family="Helvetica,sans-Serif" font-size="10.00">src/io/tokeniser.cpp</text>
</a>
</g>
</g>
<!-- Node9&#45;&gt;Node16 -->
<g id="edge21" class="edge"><title>Node9&#45;&gt;Node16</title>
<path fill="none" stroke="midnightblue" d="M145.923,-221.328C168.935,-213.79 197.477,-202.642 220.5,-188 245.856,-171.874 269.892,-145.35 281.406,-131.706"/>
<polygon fill="midnightblue" stroke="midnightblue" points="144.583,-218.08 136.107,-224.436 146.697,-224.754 144.583,-218.08"/>
</g>
<!-- Node12&#45;&gt;Node13 -->
<g id="edge14" class="edge"><title>Node12&#45;&gt;Node13</title>
<path fill="none" stroke="midnightblue" d="M151.988,-158.396C149.311,-149.362 146.222,-138.936 144.093,-131.751"/>
<polygon fill="midnightblue" stroke="midnightblue" points="148.661,-159.489 154.858,-168.083 155.373,-157.501 148.661,-159.489"/>
</g>
<!-- Node12&#45;&gt;Node16 -->
<g id="edge20" class="edge"><title>Node12&#45;&gt;Node16</title>
<path fill="none" stroke="midnightblue" d="M187.817,-164.503C212.376,-154.38 246.318,-140.388 267.84,-131.516"/>
<polygon fill="midnightblue" stroke="midnightblue" points="186.169,-161.397 178.257,-168.444 188.837,-167.868 186.169,-161.397"/>
</g>
<!-- Node13&#45;&gt;Node11 -->
<g id="edge15" class="edge"><title>Node13&#45;&gt;Node11</title>
<path fill="none" stroke="midnightblue" d="M119.306,-106.901C103.72,-96.9986 83.3703,-84.0705 70.1228,-75.6545"/>
<polygon fill="midnightblue" stroke="midnightblue" points="117.526,-109.916 127.843,-112.324 121.279,-104.007 117.526,-109.916"/>
</g>
<!-- Node13&#45;&gt;Node13 -->
<g id="edge16" class="edge"><title>Node13&#45;&gt;Node13</title>
<path fill="none" stroke="midnightblue" d="M183.282,-132.393C200.953,-133.17 216,-129.706 216,-122 216,-112.867 194.864,-109.692 173.274,-112.475"/>
<polygon fill="midnightblue" stroke="midnightblue" points="183.539,-128.902 173.274,-131.525 182.935,-135.876 183.539,-128.902"/>
</g>
<!-- Node13&#45;&gt;Node14 -->
<g id="edge17" class="edge"><title>Node13&#45;&gt;Node14</title>
<path fill="none" stroke="midnightblue" d="M178.162,-109.378C248.19,-87.1791 399.504,-39.2121 461.338,-19.6104"/>
<polygon fill="midnightblue" stroke="midnightblue" points="176.915,-106.102 168.44,-112.46 179.03,-112.774 176.915,-106.102"/>
</g>
<!-- Node13&#45;&gt;Node15 -->
<g id="edge18" class="edge"><title>Node13&#45;&gt;Node15</title>
<path fill="none" stroke="midnightblue" d="M206.747,-110.846C278.406,-99.6948 391.096,-82.158 449.89,-73.0084"/>
<polygon fill="midnightblue" stroke="midnightblue" points="205.826,-107.447 196.483,-112.444 206.902,-114.364 205.826,-107.447"/>
</g>
<!-- Node15&#45;&gt;Node14 -->
<g id="edge19" class="edge"><title>Node15&#45;&gt;Node14</title>
<path fill="none" stroke="midnightblue" d="M488.5,-45.8045C488.5,-36.9102 488.5,-26.7798 488.5,-19.7511"/>
<polygon fill="midnightblue" stroke="midnightblue" points="485,-46.083 488.5,-56.083 492,-46.083 485,-46.083"/>
</g>
<!-- Node21&#45;&gt;Node2 -->
<g id="edge38" class="edge"><title>Node21&#45;&gt;Node2</title>
<path fill="none" stroke="midnightblue" d="M505.579,-446.024C463.832,-435.823 402.518,-420.841 364.354,-411.516"/>
<polygon fill="midnightblue" stroke="midnightblue" points="504.937,-449.47 515.482,-448.444 506.598,-442.67 504.937,-449.47"/>
</g>
<!-- Node21&#45;&gt;Node5 -->
<g id="edge40" class="edge"><title>Node21&#45;&gt;Node5</title>
<path fill="none" stroke="midnightblue" d="M525.611,-443.446C483.468,-420.497 399.24,-374.631 364.277,-355.591"/>
<polygon fill="midnightblue" stroke="midnightblue" points="524.193,-446.66 534.649,-448.368 527.541,-440.512 524.193,-446.66"/>
</g>
<!-- Node21&#45;&gt;Node6 -->
<g id="edge41" class="edge"><title>Node21&#45;&gt;Node6</title>
<path fill="none" stroke="midnightblue" d="M574.818,-443.177C592.299,-433.241 615.33,-420.149 630.274,-411.655"/>
<polygon fill="midnightblue" stroke="midnightblue" points="572.727,-440.339 565.763,-448.324 576.187,-446.425 572.727,-440.339"/>
</g>
<!-- Node21&#45;&gt;Node22 -->
<g id="edge39" class="edge"><title>Node21&#45;&gt;Node22</title>
<path fill="none" stroke="midnightblue" d="M607.118,-446.601C662.681,-436.395 746.397,-421.019 798.133,-411.516"/>
<polygon fill="midnightblue" stroke="midnightblue" points="606.288,-443.195 597.085,-448.444 607.553,-450.079 606.288,-443.195"/>
</g>
</g>
</svg>
        <g id="navigator" transform="translate(0 0)" fill="#404254">
                <rect fill="#f2f5e9" fill-opacity="0.5" stroke="#606060" stroke-width=".5" x="0" y="0" width="60" height="60"/>
                <use id="zoomplus" xlink:href="#zoomPlus" x="17" y="9" onmousedown="handleZoom(evt,'in')"/>
                <use id="zoomminus" xlink:href="#zoomMin" x="42" y="9" onmousedown="handleZoom(evt,'out')"/>
                <use id="reset" xlink:href="#resetDef" x="30" y="36" onmousedown="handleReset()"/>
                <g id="arrowUp" xlink:href="#dirArrow" transform="translate(30 24)" onmousedown="handlePan(0,-1)">
                  <use xlink:href="#rim" fill="#404040">
                        <set attributeName="fill" to="#808080" begin="arrowUp.mouseover" end="arrowUp.mouseout"/>
                  </use>
                  <path fill="none" stroke="white" stroke-width="1.5" d="M0,-3.0v7 M-2.5,-0.5L0,-3.0L2.5,-0.5"/>
                </g>
                <g id="arrowRight" xlink:href="#dirArrow" transform="rotate(90) translate(36 -43)" onmousedown="handlePan(1,0)">
                  <use xlink:href="#rim" fill="#404040">
                        <set attributeName="fill" to="#808080" begin="arrowRight.mouseover" end="arrowRight.mouseout"/>
                  </use>
                  <path fill="none" stroke="white" stroke-width="1.5" d="M0,-3.0v7 M-2.5,-0.5L0,-3.0L2.5,-0.5"/>
                </g>
                <g id="arrowDown" xlink:href="#dirArrow" transform="rotate(180) translate(-30 -48)" onmousedown="handlePan(0,1)">
                  <use xlink:href="#rim" fill="#404040">
                        <set attributeName="fill" to="#808080" begin="arrowDown.mouseover" end="arrowDown.mouseout"/>
                  </use>
                  <path fill="none" stroke="white" stroke-width="1.5" d="M0,-3.0v7 M-2.5,-0.5L0,-3.0L2.5,-0.5"/>
                </g>
                <g id="arrowLeft" xlink:href="#dirArrow" transform="rotate(270) translate(-36 17)" onmousedown="handlePan(-1,0)">
                  <use xlink:href="#rim" fill="#404040">
                        <set attributeName="fill" to="#808080" begin="arrowLeft.mouseover" end="arrowLeft.mouseout"/>
                  </use>
                  <path fill="none" stroke="white" stroke-width="1.5" d="M0,-3.0v7 M-2.5,-0.5L0,-3.0L2.5,-0.5"/>
                </g>
        </g>
        <svg viewBox="0 0 15 15" width="100%" height="30px" preserveAspectRatio="xMaxYMin meet">
         <g id="arrow_out" transform="scale(0.3 0.3)">
          <a xlink:href="sample__formats_8hpp__dep__incl_org.svg" target="_base">
           <rect id="button" ry="5" rx="5" y="6" x="6" height="38" width="38"
                fill="#f2f5e9" fill-opacity="0.5" stroke="#606060" stroke-width="1.0"/>
           <path id="arrow"
             d="M 11.500037,31.436501 C 11.940474,20.09759 22.043105,11.32322 32.158766,21.979434 L 37.068811,17.246167 C 37.068811,17.246167 37.088388,32 37.088388,32 L 22.160133,31.978069 C 22.160133,31.978069 26.997745,27.140456 26.997745,27.140456 C 18.528582,18.264221 13.291696,25.230495 11.500037,31.436501 z"
             style="fill:#404040;"/>
          </a>
         </g>
        </svg>
</svg>
