<?xml version="1.0" encoding="UTF-8" standalone="no"?>
<!DOCTYPE svg PUBLIC "-//W3C//DTD SVG 1.1//EN"
 "http://www.w3.org/Graphics/SVG/1.1/DTD/svg11.dtd">
<!-- Generated by graphviz version 2.36.0 (20140111.2315)
 -->
<!-- Title: src/audio/sample_formats.hpp Pages: 1 -->
<!--zoomable 364 -->
<svg id="main" version="1.1" xmlns="http://www.w3.org/2000/svg" xmlns:xlink="http://www.w3.org/1999/xlink" xml:space="preserve" onload="init(evt)">
<style type="text/css"><![CDATA[
.edge:hover path { stroke: red; }
.edge:hover polygon { stroke: red; fill: red; }
]]></style>
<script type="text/javascript"><![CDATA[
var edges = document.getElementsByTagName('g');
if (edges && edges.length) {
  for (var i=0;i<edges.length;i++) {
    if (edges[i].id.substr(0,4)=='edge') {
      edges[i].setAttribute('class','edge');
    }
  }
}
]]></script>
        <defs>
                <circle id="rim" cx="0" cy="0" r="7"/>
                <circle id="rim2" cx="0" cy="0" r="3.5"/>
                <g id="zoomPlus">
                        <use xlink:href="#rim" fill="#404040">
                                <set attributeName="fill" to="#808080" begin="zoomplus.mouseover" end="zoomplus.mouseout"/>
                        </use>
                        <path d="M-4,0h8M0,-4v8" fill="none" stroke="white" stroke-width="1.5" pointer-events="none"/>
                </g>
                <g id="zoomMin">
                        <use xlink:href="#rim" fill="#404040">
                                <set attributeName="fill" to="#808080" begin="zoomminus.mouseover" end="zoomminus.mouseout"/>
                        </use>
                        <path d="M-4,0h8" fill="none" stroke="white" stroke-width="1.5" pointer-events="none"/>
                </g>
                <g id="dirArrow">
                        <path fill="none" stroke="white" stroke-width="1.5" d="M0,-3.0v7 M-2.5,-0.5L0,-3.0L2.5,-0.5"/>
                </g>
               <g id="resetDef">
                       <use xlink:href="#rim2" fill="#404040">
                               <set attributeName="fill" to="#808080" begin="reset.mouseover" end="reset.mouseout"/>
                       </use>
               </g>
        </defs>

<script type="text/javascript">
var viewWidth = 1207;
var viewHeight = 364;
var sectionId = 'dynsection-1';
</script>
<script xlink:href="svgpan.js"/>
<svg id="graph" class="graph">
<g id="viewport">
<title>src/audio/sample_formats.hpp</title>
<polygon fill="white" stroke="none" points="-4,4 -4,-360 1203,-360 1203,4 -4,4"/>
<!-- Node3 -->
<g id="node1" class="node"><title>Node3</title>
<polygon fill="#bfbfbf" stroke="black" points="571,-336.5 571,-355.5 733,-355.5 733,-336.5 571,-336.5"/>
<text text-anchor="middle" x="652" y="-343.5" font-family="Helvetica,sans-Serif" font-size="10.00">src/audio/sample_formats.hpp</text>
</g>
<!-- Node4 -->
<g id="node2" class="node"><title>Node4</title>
<g id="a_node2"><a xlink:href="audio__source_8hpp.html" target="_top" xlink:title="Declaration of the AudioSource class. ">
<polygon fill="white" stroke="black" points="379,-280.5 379,-299.5 527,-299.5 527,-280.5 379,-280.5"/>
<text text-anchor="middle" x="453" y="-287.5" font-family="Helvetica,sans-Serif" font-size="10.00">src/audio/audio_source.hpp</text>
</a>
</g>
</g>
<!-- Node3&#45;&gt;Node4 -->
<g id="edge1" class="edge"><title>Node3&#45;&gt;Node4</title>
<path fill="none" stroke="midnightblue" d="M610.352,-333.699C572.794,-323.507 518.386,-308.743 484.385,-299.516"/>
<polygon fill="midnightblue" stroke="midnightblue" points="609.9,-337.202 620.468,-336.444 611.733,-330.447 609.9,-337.202"/>
</g>
<!-- Node6 -->
<g id="node4" class="node"><title>Node6</title>
<g id="a_node4"><a xlink:href="audio_8cpp.html" target="_top" xlink:title="Implementation of the PipeAudio class. ">
<polygon fill="white" stroke="black" points="0,-112.5 0,-131.5 110,-131.5 110,-112.5 0,-112.5"/>
<text text-anchor="middle" x="55" y="-119.5" font-family="Helvetica,sans-Serif" font-size="10.00">src/audio/audio.cpp</text>
</a>
</g>
</g>
<!-- Node3&#45;&gt;Node6 -->
<g id="edge26" class="edge"><title>Node3&#45;&gt;Node6</title>
<path fill="none" stroke="midnightblue" d="M565.018,-335.248C437.087,-319.708 205.601,-286.675 134,-244 104.825,-226.611 100.358,-216.576 82,-188 70.1115,-169.495 61.5928,-144.877 57.5826,-131.892"/>
<polygon fill="midnightblue" stroke="midnightblue" points="564.832,-338.751 575.179,-336.472 565.669,-331.801 564.832,-338.751"/>
</g>
<!-- Node7 -->
<g id="node5" class="node"><title>Node7</title>
<g id="a_node5"><a xlink:href="audio__sink_8hpp.html" target="_top" xlink:title="Declaration of the AudioSink class. ">
<polygon fill="white" stroke="black" points="268,-168.5 268,-187.5 402,-187.5 402,-168.5 268,-168.5"/>
<text text-anchor="middle" x="335" y="-175.5" font-family="Helvetica,sans-Serif" font-size="10.00">src/audio/audio_sink.hpp</text>
</a>
</g>
</g>
<!-- Node3&#45;&gt;Node7 -->
<g id="edge25" class="edge"><title>Node3&#45;&gt;Node7</title>
<path fill="none" stroke="midnightblue" d="M560.47,-340.847C489.159,-335.75 397.752,-324.524 370,-300 336.244,-270.17 334.151,-209.997 334.621,-187.63"/>
<polygon fill="midnightblue" stroke="midnightblue" points="560.62,-344.365 570.835,-341.555 561.097,-337.382 560.62,-344.365"/>
</g>
<!-- Node8 -->
<g id="node6" class="node"><title>Node8</title>
<g id="a_node6"><a xlink:href="audio__sink_8cpp.html" target="_top" xlink:title="Implementation of the AudioSink class. ">
<polygon fill="white" stroke="black" points="306,-112.5 306,-131.5 440,-131.5 440,-112.5 306,-112.5"/>
<text text-anchor="middle" x="373" y="-119.5" font-family="Helvetica,sans-Serif" font-size="10.00">src/audio/audio_sink.cpp</text>
</a>
</g>
</g>
<!-- Node3&#45;&gt;Node8 -->
<g id="edge27" class="edge"><title>Node3&#45;&gt;Node8</title>
<path fill="none" stroke="midnightblue" d="M743.507,-341.908C866.686,-334.501 1062.52,-309.354 990,-224 919.984,-141.591 585.19,-126.279 440.197,-123.54"/>
<polygon fill="midnightblue" stroke="midnightblue" points="743.083,-338.426 733.299,-342.491 743.482,-345.415 743.083,-338.426"/>
</g>
<!-- Node14 -->
<g id="node12" class="node"><title>Node14</title>
<g id="a_node12"><a xlink:href="audio__source_8cpp.html" target="_top" xlink:title="Implementation of the AudioSource class. ">
<polygon fill="white" stroke="black" points="496.5,-224.5 496.5,-243.5 643.5,-243.5 643.5,-224.5 496.5,-224.5"/>
<text text-anchor="middle" x="570" y="-231.5" font-family="Helvetica,sans-Serif" font-size="10.00">src/audio/audio_source.cpp</text>
</a>
</g>
</g>
<!-- Node3&#45;&gt;Node14 -->
<g id="edge28" class="edge"><title>Node3&#45;&gt;Node14</title>
<path fill="none" stroke="midnightblue" d="M639.53,-328.272C621.805,-304.494 589.97,-261.789 576.405,-243.591"/>
<polygon fill="midnightblue" stroke="midnightblue" points="636.783,-330.443 645.566,-336.368 642.395,-326.259 636.783,-330.443"/>
</g>
<!-- Node15 -->
<g id="node13" class="node"><title>Node15</title>
<g id="a_node13"><a xlink:href="mp3_8cpp.html" target="_top" xlink:title="Implementation of the Mp3AudioSource class. ">
<polygon fill="white" stroke="black" points="662,-224.5 662,-243.5 808,-243.5 808,-224.5 662,-224.5"/>
<text text-anchor="middle" x="735" y="-231.5" font-family="Helvetica,sans-Serif" font-size="10.00">src/audio/sources/mp3.cpp</text>
</a>
</g>
</g>
<!-- Node3&#45;&gt;Node15 -->
<g id="edge30" class="edge"><title>Node3&#45;&gt;Node15</title>
<path fill="none" stroke="midnightblue" d="M664.622,-328.272C682.563,-304.494 714.787,-261.789 728.517,-243.591"/>
<polygon fill="midnightblue" stroke="midnightblue" points="661.742,-326.278 658.513,-336.368 667.33,-330.494 661.742,-326.278"/>
</g>
<!-- Node16 -->
<g id="node14" class="node"><title>Node16</title>
<g id="a_node14"><a xlink:href="sndfile_8cpp.html" target="_top" xlink:title="Implementation of the SndfileAudioSource class. ">
<polygon fill="white" stroke="black" points="826.5,-224.5 826.5,-243.5 981.5,-243.5 981.5,-224.5 826.5,-224.5"/>
<text text-anchor="middle" x="904" y="-231.5" font-family="Helvetica,sans-Serif" font-size="10.00">src/audio/sources/sndfile.cpp</text>
</a>
</g>
</g>
<!-- Node3&#45;&gt;Node16 -->
<g id="edge31" class="edge"><title>Node3&#45;&gt;Node16</title>
<path fill="none" stroke="midnightblue" d="M681.083,-332.305C732.96,-309.66 840.15,-262.871 884.318,-243.591"/>
<polygon fill="midnightblue" stroke="midnightblue" points="679.539,-329.16 671.774,-336.368 682.339,-335.576 679.539,-329.16"/>
</g>
<!-- Node17 -->
<g id="node15" class="node"><title>Node17</title>
<g id="a_node15"><a xlink:href="sample__formats_8cpp.html" target="_top" xlink:title="Implementation of sample format tables. ">
<polygon fill="white" stroke="black" points="1038.5,-280.5 1038.5,-299.5 1199.5,-299.5 1199.5,-280.5 1038.5,-280.5"/>
<text text-anchor="middle" x="1119" y="-287.5" font-family="Helvetica,sans-Serif" font-size="10.00">src/audio/sample_formats.cpp</text>
</a>
</g>
</g>
<!-- Node3&#45;&gt;Node17 -->
<g id="edge29" class="edge"><title>Node3&#45;&gt;Node17</title>
<path fill="none" stroke="midnightblue" d="M735.7,-335.322C823.793,-325.135 961.117,-309.256 1045.26,-299.526"/>
<polygon fill="midnightblue" stroke="midnightblue" points="735.272,-331.848 725.74,-336.473 736.076,-338.801 735.272,-331.848"/>
</g>
<!-- Node5 -->
<g id="node3" class="node"><title>Node5</title>
<g id="a_node3"><a xlink:href="audio_8hpp.html" target="_top" xlink:title="Declaration of the Audio class. ">
<polygon fill="white" stroke="black" points="192,-224.5 192,-243.5 302,-243.5 302,-224.5 192,-224.5"/>
<text text-anchor="middle" x="247" y="-231.5" font-family="Helvetica,sans-Serif" font-size="10.00">src/audio/audio.hpp</text>
</a>
</g>
</g>
<!-- Node4&#45;&gt;Node5 -->
<g id="edge2" class="edge"><title>Node4&#45;&gt;Node5</title>
<path fill="none" stroke="midnightblue" d="M410.385,-277.829C371.49,-267.633 314.836,-252.782 279.489,-243.516"/>
<polygon fill="midnightblue" stroke="midnightblue" points="409.798,-281.293 420.359,-280.444 411.573,-274.522 409.798,-281.293"/>
</g>
<!-- Node4&#45;&gt;Node6 -->
<g id="edge18" class="edge"><title>Node4&#45;&gt;Node6</title>
<path fill="none" stroke="midnightblue" d="M368.472,-281.86C297.024,-274.711 201.027,-262.151 167,-244 114.72,-216.112 73.7582,-154.211 59.993,-131.537"/>
<polygon fill="midnightblue" stroke="midnightblue" points="368.531,-285.383 378.825,-282.876 369.214,-278.416 368.531,-285.383"/>
</g>
<!-- Node4&#45;&gt;Node7 -->
<g id="edge17" class="edge"><title>Node4&#45;&gt;Node7</title>
<path fill="none" stroke="midnightblue" d="M436.385,-273.512C411.171,-250.007 364.081,-206.11 344.216,-187.591"/>
<polygon fill="midnightblue" stroke="midnightblue" points="434.039,-276.11 443.741,-280.368 438.813,-270.99 434.039,-276.11"/>
</g>
<!-- Node4&#45;&gt;Node8 -->
<g id="edge19" class="edge"><title>Node4&#45;&gt;Node8</title>
<path fill="none" stroke="midnightblue" d="M448.848,-270.553C442.837,-246.029 430.276,-201.848 411,-168 403.005,-153.961 390.404,-140.11 381.928,-131.563"/>
<polygon fill="midnightblue" stroke="midnightblue" points="445.451,-271.398 451.149,-280.33 452.265,-269.794 445.451,-271.398"/>
</g>
<!-- Node9 -->
<g id="node7" class="node"><title>Node9</title>
<g id="a_node7"><a xlink:href="player_8hpp.html" target="_top" xlink:title="Declaration of the Player class, and associated types. ">
<polygon fill="white" stroke="black" points="128.5,-112.5 128.5,-131.5 211.5,-131.5 211.5,-112.5 128.5,-112.5"/>
<text text-anchor="middle" x="170" y="-119.5" font-family="Helvetica,sans-Serif" font-size="10.00">src/player.hpp</text>
</a>
</g>
</g>
<!-- Node4&#45;&gt;Node9 -->
<g id="edge23" class="edge"><title>Node4&#45;&gt;Node9</title>
<path fill="none" stroke="midnightblue" d="M368.806,-285.826C299.205,-281.314 207.906,-270.397 183,-244 153.277,-212.497 162.821,-153.857 167.803,-131.742"/>
<polygon fill="midnightblue" stroke="midnightblue" points="368.712,-289.327 378.907,-286.447 369.141,-282.34 368.712,-289.327"/>
</g>
<!-- Node13 -->
<g id="node11" class="node"><title>Node13</title>
<g id="a_node11"><a xlink:href="player_8cpp.html" target="_top" xlink:title="Main implementation file for the Player class. ">
<polygon fill="white" stroke="black" points="236.5,-56.5 236.5,-75.5 319.5,-75.5 319.5,-56.5 236.5,-56.5"/>
<text text-anchor="middle" x="278" y="-63.5" font-family="Helvetica,sans-Serif" font-size="10.00">src/player.cpp</text>
</a>
</g>
</g>
<!-- Node4&#45;&gt;Node13 -->
<g id="edge24" class="edge"><title>Node4&#45;&gt;Node13</title>
<path fill="none" stroke="midnightblue" d="M459.108,-270.59C469.492,-235.486 486.071,-158.353 449,-112 432.99,-91.9815 365.099,-78.931 319.828,-72.2764"/>
<polygon fill="midnightblue" stroke="midnightblue" points="455.678,-269.83 456.03,-280.419 462.358,-271.922 455.678,-269.83"/>
</g>
<!-- Node4&#45;&gt;Node14 -->
<g id="edge20" class="edge"><title>Node4&#45;&gt;Node14</title>
<path fill="none" stroke="midnightblue" d="M480.664,-276.232C502.549,-266.131 532.497,-252.309 551.548,-243.516"/>
<polygon fill="midnightblue" stroke="midnightblue" points="479.152,-273.075 471.539,-280.444 482.085,-279.431 479.152,-273.075"/>
</g>
<!-- Node4&#45;&gt;Node15 -->
<g id="edge21" class="edge"><title>Node4&#45;&gt;Node15</title>
<path fill="none" stroke="midnightblue" d="M507.639,-278.537C560.935,-268.332 641.004,-252.999 690.525,-243.516"/>
<polygon fill="midnightblue" stroke="midnightblue" points="506.847,-275.125 497.684,-280.444 508.164,-282 506.847,-275.125"/>
</g>
<!-- Node4&#45;&gt;Node16 -->
<g id="edge22" class="edge"><title>Node4&#45;&gt;Node16</title>
<path fill="none" stroke="midnightblue" d="M534.605,-279.229C619.737,-269.036 751.862,-253.216 832.872,-243.516"/>
<polygon fill="midnightblue" stroke="midnightblue" points="533.975,-275.779 524.462,-280.444 534.807,-282.73 533.975,-275.779"/>
</g>
<!-- Node5&#45;&gt;Node6 -->
<g id="edge3" class="edge"><title>Node5&#45;&gt;Node6</title>
<path fill="none" stroke="midnightblue" d="M223.089,-219.301C182.949,-196.304 103.158,-150.591 69.9959,-131.591"/>
<polygon fill="midnightblue" stroke="midnightblue" points="221.517,-222.434 231.934,-224.368 224.997,-216.36 221.517,-222.434"/>
</g>
<!-- Node5&#45;&gt;Node7 -->
<g id="edge4" class="edge"><title>Node5&#45;&gt;Node7</title>
<path fill="none" stroke="midnightblue" d="M269.977,-218.901C286.113,-208.999 307.181,-196.071 320.896,-187.655"/>
<polygon fill="midnightblue" stroke="midnightblue" points="267.831,-216.111 261.139,-224.324 271.493,-222.077 267.831,-216.111"/>
</g>
<!-- Node5&#45;&gt;Node9 -->
<g id="edge15" class="edge"><title>Node5&#45;&gt;Node9</title>
<path fill="none" stroke="midnightblue" d="M235.07,-215.957C218.383,-192.118 188.696,-149.709 176.014,-131.591"/>
<polygon fill="midnightblue" stroke="midnightblue" points="232.356,-218.183 240.958,-224.368 238.091,-214.169 232.356,-218.183"/>
</g>
<!-- Node5&#45;&gt;Node13 -->
<g id="edge16" class="edge"><title>Node5&#45;&gt;Node13</title>
<path fill="none" stroke="midnightblue" d="M250.466,-214.131C252.854,-201.156 256.106,-183.531 259,-168 265.374,-133.796 273.062,-93.0981 276.364,-75.6448"/>
<polygon fill="midnightblue" stroke="midnightblue" points="246.987,-213.699 248.621,-224.167 253.872,-214.965 246.987,-213.699"/>
</g>
<!-- Node7&#45;&gt;Node6 -->
<g id="edge5" class="edge"><title>Node7&#45;&gt;Node6</title>
<path fill="none" stroke="midnightblue" d="M280.748,-166.537C227.83,-156.332 148.329,-140.999 99.1593,-131.516"/>
<polygon fill="midnightblue" stroke="midnightblue" points="280.151,-169.986 290.633,-168.444 281.477,-163.113 280.151,-169.986"/>
</g>
<!-- Node7&#45;&gt;Node8 -->
<g id="edge6" class="edge"><title>Node7&#45;&gt;Node8</title>
<path fill="none" stroke="midnightblue" d="M347.065,-159.855C353.645,-150.505 361.511,-139.327 366.842,-131.751"/>
<polygon fill="midnightblue" stroke="midnightblue" points="344.168,-157.891 341.275,-168.083 349.892,-161.919 344.168,-157.891"/>
</g>
<!-- Node7&#45;&gt;Node9 -->
<g id="edge7" class="edge"><title>Node7&#45;&gt;Node9</title>
<path fill="none" stroke="midnightblue" d="M299.264,-165.304C268.173,-155.129 223.853,-140.625 196.022,-131.516"/>
<polygon fill="midnightblue" stroke="midnightblue" points="298.263,-168.659 308.855,-168.444 300.44,-162.007 298.263,-168.659"/>
</g>
<!-- Node7&#45;&gt;Node13 -->
<g id="edge14" class="edge"><title>Node7&#45;&gt;Node13</title>
<path fill="none" stroke="midnightblue" d="M318.563,-160.929C311.084,-152.845 302.66,-142.54 297,-132 286.988,-113.356 281.662,-88.795 279.382,-75.8552"/>
<polygon fill="midnightblue" stroke="midnightblue" points="316.123,-163.441 325.59,-168.198 321.156,-158.576 316.123,-163.441"/>
</g>
<!-- Node10 -->
<g id="node8" class="node"><title>Node10</title>
<g id="a_node8"><a xlink:href="io_8cpp.html" target="_top" xlink:title="Implementation of the non&#45;virtual aspects of the IoCore class. ">
<polygon fill="white" stroke="black" points="169,-0.5 169,-19.5 231,-19.5 231,-0.5 169,-0.5"/>
<text text-anchor="middle" x="200" y="-7.5" font-family="Helvetica,sans-Serif" font-size="10.00">src/io.cpp</text>
</a>
</g>
</g>
<!-- Node9&#45;&gt;Node10 -->
<g id="edge8" class="edge"><title>Node9&#45;&gt;Node10</title>
<path fill="none" stroke="midnightblue" d="M178.148,-103.005C181.575,-94.885 185.37,-85.0934 188,-76 193.739,-56.1575 197.34,-32.0835 198.972,-19.5384"/>
<polygon fill="midnightblue" stroke="midnightblue" points="174.919,-101.653 174.117,-112.218 181.332,-104.459 174.919,-101.653"/>
</g>
<!-- Node11 -->
<g id="node9" class="node"><title>Node11</title>
<g id="a_node9"><a xlink:href="io_8hpp.html" target="_top" xlink:title="Declaration of the I/O classes used in playd. ">
<polygon fill="white" stroke="black" points="116.5,-56.5 116.5,-75.5 179.5,-75.5 179.5,-56.5 116.5,-56.5"/>
<text text-anchor="middle" x="148" y="-63.5" font-family="Helvetica,sans-Serif" font-size="10.00">src/io.hpp</text>
</a>
</g>
</g>
<!-- Node9&#45;&gt;Node11 -->
<g id="edge9" class="edge"><title>Node9&#45;&gt;Node11</title>
<path fill="none" stroke="midnightblue" d="M162.54,-102.69C158.833,-93.589 154.524,-83.0141 151.565,-75.7511"/>
<polygon fill="midnightblue" stroke="midnightblue" points="159.353,-104.143 166.367,-112.083 165.835,-101.502 159.353,-104.143"/>
</g>
<!-- Node12 -->
<g id="node10" class="node"><title>Node12</title>
<g id="a_node10"><a xlink:href="main_8cpp.html" target="_top" xlink:title="Main entry point and implementation of the playd class. ">
<polygon fill="white" stroke="black" points="65,-0.5 65,-19.5 143,-19.5 143,-0.5 65,-0.5"/>
<text text-anchor="middle" x="104" y="-7.5" font-family="Helvetica,sans-Serif" font-size="10.00">src/main.cpp</text>
</a>
</g>
</g>
<!-- Node9&#45;&gt;Node12 -->
<g id="edge12" class="edge"><title>Node9&#45;&gt;Node12</title>
<path fill="none" stroke="midnightblue" d="M140.729,-107.609C128.057,-100.196 114.444,-89.6807 107,-76 97.1731,-57.9405 99.8025,-32.7062 102.144,-19.6267"/>
<polygon fill="midnightblue" stroke="midnightblue" points="139.227,-110.776 149.688,-112.459 142.56,-104.62 139.227,-110.776"/>
</g>
<!-- Node9&#45;&gt;Node13 -->
<g id="edge13" class="edge"><title>Node9&#45;&gt;Node13</title>
<path fill="none" stroke="midnightblue" d="M196.548,-107.726C216.546,-97.7271 243.387,-84.3065 260.691,-75.6545"/>
<polygon fill="midnightblue" stroke="midnightblue" points="194.731,-104.721 187.352,-112.324 197.862,-110.982 194.731,-104.721"/>
</g>
<!-- Node11&#45;&gt;Node10 -->
<g id="edge10" class="edge"><title>Node11&#45;&gt;Node10</title>
<path fill="none" stroke="midnightblue" d="M163.679,-48.7175C172.845,-39.1997 184.053,-27.5608 191.573,-19.7511"/>
<polygon fill="midnightblue" stroke="midnightblue" points="161.002,-46.452 156.587,-56.083 166.044,-51.3075 161.002,-46.452"/>
</g>
<!-- Node11&#45;&gt;Node12 -->
<g id="edge11" class="edge"><title>Node11&#45;&gt;Node12</title>
<path fill="none" stroke="midnightblue" d="M134.265,-48.144C126.599,-38.7357 117.367,-27.4046 111.131,-19.7511"/>
<polygon fill="midnightblue" stroke="midnightblue" points="131.704,-50.5415 140.734,-56.083 137.131,-46.1198 131.704,-50.5415"/>
</g>
</g>
</svg>
        <g id="navigator" transform="translate(0 0)" fill="#404254">
                <rect fill="#f2f5e9" fill-opacity="0.5" stroke="#606060" stroke-width=".5" x="0" y="0" width="60" height="60"/>
                <use id="zoomplus" xlink:href="#zoomPlus" x="17" y="9" onmousedown="handleZoom(evt,'in')"/>
                <use id="zoomminus" xlink:href="#zoomMin" x="42" y="9" onmousedown="handleZoom(evt,'out')"/>
                <use id="reset" xlink:href="#resetDef" x="30" y="36" onmousedown="handleReset()"/>
                <g id="arrowUp" xlink:href="#dirArrow" transform="translate(30 24)" onmousedown="handlePan(0,-1)">
                  <use xlink:href="#rim" fill="#404040">
                        <set attributeName="fill" to="#808080" begin="arrowUp.mouseover" end="arrowUp.mouseout"/>
                  </use>
                  <path fill="none" stroke="white" stroke-width="1.5" d="M0,-3.0v7 M-2.5,-0.5L0,-3.0L2.5,-0.5"/>
                </g>
                <g id="arrowRight" xlink:href="#dirArrow" transform="rotate(90) translate(36 -43)" onmousedown="handlePan(1,0)">
                  <use xlink:href="#rim" fill="#404040">
                        <set attributeName="fill" to="#808080" begin="arrowRight.mouseover" end="arrowRight.mouseout"/>
                  </use>
                  <path fill="none" stroke="white" stroke-width="1.5" d="M0,-3.0v7 M-2.5,-0.5L0,-3.0L2.5,-0.5"/>
                </g>
                <g id="arrowDown" xlink:href="#dirArrow" transform="rotate(180) translate(-30 -48)" onmousedown="handlePan(0,1)">
                  <use xlink:href="#rim" fill="#404040">
                        <set attributeName="fill" to="#808080" begin="arrowDown.mouseover" end="arrowDown.mouseout"/>
                  </use>
                  <path fill="none" stroke="white" stroke-width="1.5" d="M0,-3.0v7 M-2.5,-0.5L0,-3.0L2.5,-0.5"/>
                </g>
                <g id="arrowLeft" xlink:href="#dirArrow" transform="rotate(270) translate(-36 17)" onmousedown="handlePan(-1,0)">
                  <use xlink:href="#rim" fill="#404040">
                        <set attributeName="fill" to="#808080" begin="arrowLeft.mouseover" end="arrowLeft.mouseout"/>
                  </use>
                  <path fill="none" stroke="white" stroke-width="1.5" d="M0,-3.0v7 M-2.5,-0.5L0,-3.0L2.5,-0.5"/>
                </g>
        </g>
        <svg viewBox="0 0 15 15" width="100%" height="30px" preserveAspectRatio="xMaxYMin meet">
         <g id="arrow_out" transform="scale(0.3 0.3)">
          <a xlink:href="sample__formats_8hpp__dep__incl_org.svg" target="_base">
           <rect id="button" ry="5" rx="5" y="6" x="6" height="38" width="38"
                fill="#f2f5e9" fill-opacity="0.5" stroke="#606060" stroke-width="1.0"/>
           <path id="arrow"
             d="M 11.500037,31.436501 C 11.940474,20.09759 22.043105,11.32322 32.158766,21.979434 L 37.068811,17.246167 C 37.068811,17.246167 37.088388,32 37.088388,32 L 22.160133,31.978069 C 22.160133,31.978069 26.997745,27.140456 26.997745,27.140456 C 18.528582,18.264221 13.291696,25.230495 11.500037,31.436501 z"
             style="fill:#404040;"/>
          </a>
         </g>
        </svg>
</svg>
