<?xml version="1.0" encoding="UTF-8" standalone="no"?>
<!DOCTYPE svg PUBLIC "-//W3C//DTD SVG 1.1//EN"
 "http://www.w3.org/Graphics/SVG/1.1/DTD/svg11.dtd">
<!-- Generated by graphviz version 2.36.0 (20140111.2315)
 -->
<!-- Title: src/audio/sample_formats.hpp Pages: 1 -->
<svg width="170pt" height="84pt"
 viewBox="0.00 0.00 170.00 84.00" xmlns="http://www.w3.org/2000/svg" xmlns:xlink="http://www.w3.org/1999/xlink">
<g id="graph0" class="graph" transform="scale(1 1) rotate(0) translate(4 80)">
<title>src/audio/sample_formats.hpp</title>
<polygon fill="white" stroke="none" points="-4,4 -4,-80 166,-80 166,4 -4,4"/>
<!-- Node0 -->
<g id="node1" class="node"><title>Node0</title>
<polygon fill="#bfbfbf" stroke="black" points="0,-56.5 0,-75.5 162,-75.5 162,-56.5 0,-56.5"/>
<text text-anchor="middle" x="81" y="-63.5" font-family="Helvetica,sans-Serif" font-size="10.00">src/audio/sample_formats.hpp</text>
</g>
<!-- Node1 -->
<g id="node2" class="node"><title>Node1</title>
<polygon fill="white" stroke="#bfbfbf" points="29.5,-0.5 29.5,-19.5 70.5,-19.5 70.5,-0.5 29.5,-0.5"/>
<text text-anchor="middle" x="50" y="-7.5" font-family="Helvetica,sans-Serif" font-size="10.00">array</text>
</g>
<!-- Node0&#45;&gt;Node1 -->
<g id="edge1" class="edge"><title>Node0&#45;&gt;Node1</title>
<path fill="none" stroke="midnightblue" d="M75.881,-56.083C71.5925,-48.6127 65.3418,-37.7244 60.0577,-28.5199"/>
<polygon fill="midnightblue" stroke="midnightblue" points="63.0379,-26.6811 55.0238,-19.7511 56.9671,-30.1662 63.0379,-26.6811"/>
</g>
<!-- Node2 -->
<g id="node3" class="node"><title>Node2</title>
<polygon fill="white" stroke="#bfbfbf" points="88.5,-0.5 88.5,-19.5 137.5,-19.5 137.5,-0.5 88.5,-0.5"/>
<text text-anchor="middle" x="113" y="-7.5" font-family="Helvetica,sans-Serif" font-size="10.00">cstdint</text>
</g>
<!-- Node0&#45;&gt;Node2 -->
<g id="edge2" class="edge"><title>Node0&#45;&gt;Node2</title>
<path fill="none" stroke="midnightblue" d="M86.2841,-56.083C90.711,-48.6127 97.1633,-37.7244 102.618,-28.5199"/>
<polygon fill="midnightblue" stroke="midnightblue" points="105.727,-30.1383 107.814,-19.7511 99.7051,-26.5697 105.727,-30.1383"/>
</g>
</g>
</svg>
