<?xml version="1.0" encoding="UTF-8" standalone="no"?>
<!DOCTYPE svg PUBLIC "-//W3C//DTD SVG 1.1//EN"
 "http://www.w3.org/Graphics/SVG/1.1/DTD/svg11.dtd">
<!-- Generated by graphviz version 2.36.0 (20140111.2315)
 -->
<!-- Title: src/audio/sample_formats.cpp Pages: 1 -->
<svg width="248pt" height="140pt"
 viewBox="0.00 0.00 248.00 140.00" xmlns="http://www.w3.org/2000/svg" xmlns:xlink="http://www.w3.org/1999/xlink">
<g id="graph0" class="graph" transform="scale(1 1) rotate(0) translate(4 136)">
<title>src/audio/sample_formats.cpp</title>
<polygon fill="white" stroke="none" points="-4,4 -4,-136 244,-136 244,4 -4,4"/>
<!-- Node0 -->
<g id="node1" class="node"><title>Node0</title>
<polygon fill="#bfbfbf" stroke="black" points="-0.5,-112.5 -0.5,-131.5 160.5,-131.5 160.5,-112.5 -0.5,-112.5"/>
<text text-anchor="middle" x="80" y="-119.5" font-family="Helvetica,sans-Serif" font-size="10.00">src/audio/sample_formats.cpp</text>
</g>
<!-- Node1 -->
<g id="node2" class="node"><title>Node1</title>
<polygon fill="white" stroke="#bfbfbf" points="51.5,-0.5 51.5,-19.5 92.5,-19.5 92.5,-0.5 51.5,-0.5"/>
<text text-anchor="middle" x="72" y="-7.5" font-family="Helvetica,sans-Serif" font-size="10.00">array</text>
</g>
<!-- Node0&#45;&gt;Node1 -->
<g id="edge1" class="edge"><title>Node0&#45;&gt;Node1</title>
<path fill="none" stroke="midnightblue" d="M70.4444,-112.45C61.9115,-104.12 50.0108,-90.6042 45,-76 39.2646,-59.284 48.6268,-40.7098 57.8586,-27.712"/>
<polygon fill="midnightblue" stroke="midnightblue" points="60.7056,-29.7517 64.0419,-19.6958 55.1629,-25.4763 60.7056,-29.7517"/>
</g>
<!-- Node2 -->
<g id="node3" class="node"><title>Node2</title>
<polygon fill="white" stroke="#bfbfbf" points="54,-56.5 54,-75.5 106,-75.5 106,-56.5 54,-56.5"/>
<text text-anchor="middle" x="80" y="-63.5" font-family="Helvetica,sans-Serif" font-size="10.00">cstddef</text>
</g>
<!-- Node0&#45;&gt;Node2 -->
<g id="edge2" class="edge"><title>Node0&#45;&gt;Node2</title>
<path fill="none" stroke="midnightblue" d="M80,-112.083C80,-105.006 80,-94.8611 80,-85.9865"/>
<polygon fill="midnightblue" stroke="midnightblue" points="83.5001,-85.751 80,-75.7511 76.5001,-85.7511 83.5001,-85.751"/>
</g>
<!-- Node3 -->
<g id="node4" class="node"><title>Node3</title>
<g id="a_node4"><a xlink:href="sample__formats_8hpp.html" target="_top" xlink:title="The SampleFormat enumeration and related declarations. ">
<polygon fill="white" stroke="black" points="124,-56.5 124,-75.5 240,-75.5 240,-56.5 124,-56.5"/>
<text text-anchor="middle" x="182" y="-63.5" font-family="Helvetica,sans-Serif" font-size="10.00">sample_formats.hpp</text>
</a>
</g>
</g>
<!-- Node0&#45;&gt;Node3 -->
<g id="edge3" class="edge"><title>Node0&#45;&gt;Node3</title>
<path fill="none" stroke="midnightblue" d="M96.3881,-112.324C112.671,-103.703 137.867,-90.3643 156.716,-80.3855"/>
<polygon fill="midnightblue" stroke="midnightblue" points="158.452,-83.4267 165.653,-75.6545 155.177,-77.2402 158.452,-83.4267"/>
</g>
<!-- Node3&#45;&gt;Node1 -->
<g id="edge4" class="edge"><title>Node3&#45;&gt;Node1</title>
<path fill="none" stroke="midnightblue" d="M164.327,-56.324C146.606,-47.6247 119.097,-34.1202 98.7116,-24.113"/>
<polygon fill="midnightblue" stroke="midnightblue" points="100.149,-20.9195 89.6295,-19.6545 97.0639,-27.2031 100.149,-20.9195"/>
</g>
<!-- Node4 -->
<g id="node5" class="node"><title>Node4</title>
<polygon fill="white" stroke="#bfbfbf" points="157.5,-0.5 157.5,-19.5 206.5,-19.5 206.5,-0.5 157.5,-0.5"/>
<text text-anchor="middle" x="182" y="-7.5" font-family="Helvetica,sans-Serif" font-size="10.00">cstdint</text>
</g>
<!-- Node3&#45;&gt;Node4 -->
<g id="edge5" class="edge"><title>Node3&#45;&gt;Node4</title>
<path fill="none" stroke="midnightblue" d="M182,-56.083C182,-49.0059 182,-38.8611 182,-29.9865"/>
<polygon fill="midnightblue" stroke="midnightblue" points="185.5,-29.751 182,-19.7511 178.5,-29.7511 185.5,-29.751"/>
</g>
</g>
</svg>
