<?xml version="1.0" encoding="UTF-8" standalone="no"?>
<!DOCTYPE svg PUBLIC "-//W3C//DTD SVG 1.1//EN"
 "http://www.w3.org/Graphics/SVG/1.1/DTD/svg11.dtd">
<!-- Generated by graphviz version 2.36.0 (20140111.2315)
 -->
<!-- Title: src/audio/sources/sndfile.cpp Pages: 1 -->
<svg width="921pt" height="196pt"
 viewBox="0.00 0.00 921.00 196.00" xmlns="http://www.w3.org/2000/svg" xmlns:xlink="http://www.w3.org/1999/xlink">
<g id="graph0" class="graph" transform="scale(1 1) rotate(0) translate(4 192)">
<title>src/audio/sources/sndfile.cpp</title>
<polygon fill="white" stroke="none" points="-4,4 -4,-192 917,-192 917,4 -4,4"/>
<!-- Node0 -->
<g id="node1" class="node"><title>Node0</title>
<polygon fill="#bfbfbf" stroke="black" points="410.5,-168.5 410.5,-187.5 565.5,-187.5 565.5,-168.5 410.5,-168.5"/>
<text text-anchor="middle" x="488" y="-175.5" font-family="Helvetica,sans-Serif" font-size="10.00">src/audio/sources/sndfile.cpp</text>
</g>
<!-- Node1 -->
<g id="node2" class="node"><title>Node1</title>
<polygon fill="white" stroke="#bfbfbf" points="35,-112.5 35,-131.5 87,-131.5 87,-112.5 35,-112.5"/>
<text text-anchor="middle" x="61" y="-119.5" font-family="Helvetica,sans-Serif" font-size="10.00">cassert</text>
</g>
<!-- Node0&#45;&gt;Node1 -->
<g id="edge1" class="edge"><title>Node0&#45;&gt;Node1</title>
<path fill="none" stroke="midnightblue" d="M410.193,-170.386C331.801,-163.153 207.524,-150.125 101,-132 99.7369,-131.785 98.4537,-131.556 97.1594,-131.316"/>
<polygon fill="midnightblue" stroke="midnightblue" points="97.6656,-127.847 87.1714,-129.304 96.2837,-134.71 97.6656,-127.847"/>
</g>
<!-- Node2 -->
<g id="node3" class="node"><title>Node2</title>
<polygon fill="white" stroke="#bfbfbf" points="128.5,-0.5 128.5,-19.5 177.5,-19.5 177.5,-0.5 128.5,-0.5"/>
<text text-anchor="middle" x="153" y="-7.5" font-family="Helvetica,sans-Serif" font-size="10.00">cstdint</text>
</g>
<!-- Node0&#45;&gt;Node2 -->
<g id="edge2" class="edge"><title>Node0&#45;&gt;Node2</title>
<path fill="none" stroke="midnightblue" d="M410.437,-176.198C327.899,-173.625 204.754,-164.289 172,-132 144.704,-105.092 146.427,-56.089 149.836,-29.4452"/>
<polygon fill="midnightblue" stroke="midnightblue" points="153.302,-29.9329 151.321,-19.525 146.379,-28.8967 153.302,-29.9329"/>
</g>
<!-- Node3 -->
<g id="node4" class="node"><title>Node3</title>
<polygon fill="white" stroke="#bfbfbf" points="573.5,-112.5 573.5,-131.5 620.5,-131.5 620.5,-112.5 573.5,-112.5"/>
<text text-anchor="middle" x="597" y="-119.5" font-family="Helvetica,sans-Serif" font-size="10.00">cstdlib</text>
</g>
<!-- Node0&#45;&gt;Node3 -->
<g id="edge3" class="edge"><title>Node0&#45;&gt;Node3</title>
<path fill="none" stroke="midnightblue" d="M505.513,-168.324C523.072,-159.625 550.331,-146.12 570.531,-136.113"/>
<polygon fill="midnightblue" stroke="midnightblue" points="572.124,-139.23 579.531,-131.655 569.016,-132.958 572.124,-139.23"/>
</g>
<!-- Node4 -->
<g id="node5" class="node"><title>Node4</title>
<polygon fill="white" stroke="#bfbfbf" points="407.5,-0.5 407.5,-19.5 466.5,-19.5 466.5,-0.5 407.5,-0.5"/>
<text text-anchor="middle" x="437" y="-7.5" font-family="Helvetica,sans-Serif" font-size="10.00">iostream</text>
</g>
<!-- Node0&#45;&gt;Node4 -->
<g id="edge4" class="edge"><title>Node0&#45;&gt;Node4</title>
<path fill="none" stroke="midnightblue" d="M482.36,-168.265C471.753,-151.298 449.084,-112.351 440,-76 436.187,-60.742 435.634,-42.856 435.923,-29.7128"/>
<polygon fill="midnightblue" stroke="midnightblue" points="439.426,-29.702 436.333,-19.5688 432.432,-29.4193 439.426,-29.702"/>
</g>
<!-- Node5 -->
<g id="node6" class="node"><title>Node5</title>
<polygon fill="white" stroke="#bfbfbf" points="639,-112.5 639,-131.5 677,-131.5 677,-112.5 639,-112.5"/>
<text text-anchor="middle" x="658" y="-119.5" font-family="Helvetica,sans-Serif" font-size="10.00">map</text>
</g>
<!-- Node0&#45;&gt;Node5 -->
<g id="edge5" class="edge"><title>Node0&#45;&gt;Node5</title>
<path fill="none" stroke="midnightblue" d="M514.937,-168.444C546.026,-158.568 596.965,-142.387 628.93,-132.234"/>
<polygon fill="midnightblue" stroke="midnightblue" points="630.121,-135.528 638.592,-129.165 628.002,-128.857 630.121,-135.528"/>
</g>
<!-- Node6 -->
<g id="node7" class="node"><title>Node6</title>
<polygon fill="white" stroke="#bfbfbf" points="695.5,-112.5 695.5,-131.5 752.5,-131.5 752.5,-112.5 695.5,-112.5"/>
<text text-anchor="middle" x="724" y="-119.5" font-family="Helvetica,sans-Serif" font-size="10.00">memory</text>
</g>
<!-- Node0&#45;&gt;Node6 -->
<g id="edge6" class="edge"><title>Node0&#45;&gt;Node6</title>
<path fill="none" stroke="midnightblue" d="M525.981,-168.475C563.833,-159.956 623.882,-146.376 685.477,-132.105"/>
<polygon fill="midnightblue" stroke="midnightblue" points="686.422,-135.479 695.373,-129.81 684.84,-128.66 686.422,-135.479"/>
</g>
<!-- Node7 -->
<g id="node8" class="node"><title>Node7</title>
<polygon fill="white" stroke="#bfbfbf" points="517,-0.5 517,-19.5 573,-19.5 573,-0.5 517,-0.5"/>
<text text-anchor="middle" x="545" y="-7.5" font-family="Helvetica,sans-Serif" font-size="10.00">sstream</text>
</g>
<!-- Node0&#45;&gt;Node7 -->
<g id="edge7" class="edge"><title>Node0&#45;&gt;Node7</title>
<path fill="none" stroke="midnightblue" d="M494.182,-168.348C505.816,-151.523 530.719,-112.81 541,-76 545.234,-60.84 546.046,-42.9454 545.906,-29.7739"/>
<polygon fill="midnightblue" stroke="midnightblue" points="549.399,-29.4923 545.599,-19.6023 542.402,-29.7032 549.399,-29.4923"/>
</g>
<!-- Node8 -->
<g id="node9" class="node"><title>Node8</title>
<polygon fill="white" stroke="#bfbfbf" points="297,-56.5 297,-75.5 341,-75.5 341,-56.5 297,-56.5"/>
<text text-anchor="middle" x="319" y="-63.5" font-family="Helvetica,sans-Serif" font-size="10.00">string</text>
</g>
<!-- Node0&#45;&gt;Node8 -->
<g id="edge8" class="edge"><title>Node0&#45;&gt;Node8</title>
<path fill="none" stroke="midnightblue" d="M410.124,-168.727C384.236,-162.38 357.157,-151.293 338,-132 325.973,-119.887 321.476,-100.607 319.837,-86.1847"/>
<polygon fill="midnightblue" stroke="midnightblue" points="323.302,-85.5923 319.046,-75.8899 316.323,-86.1287 323.302,-85.5923"/>
</g>
<!-- Node9 -->
<g id="node10" class="node"><title>Node9</title>
<polygon fill="white" stroke="#bfbfbf" points="771,-112.5 771,-131.5 827,-131.5 827,-112.5 771,-112.5"/>
<text text-anchor="middle" x="799" y="-119.5" font-family="Helvetica,sans-Serif" font-size="10.00">sndfile.h</text>
</g>
<!-- Node0&#45;&gt;Node9 -->
<g id="edge9" class="edge"><title>Node0&#45;&gt;Node9</title>
<path fill="none" stroke="midnightblue" d="M547.059,-168.472C602.498,-160.181 687.646,-146.714 761,-132 761.1,-131.98 761.2,-131.96 761.3,-131.94"/>
<polygon fill="midnightblue" stroke="midnightblue" points="761.779,-135.416 770.826,-129.902 760.315,-128.571 761.779,-135.416"/>
</g>
<!-- Node10 -->
<g id="node11" class="node"><title>Node10</title>
<g id="a_node11"><a xlink:href="errors_8hpp.html" target="_top" xlink:title="Declarations of the playd Error exception set. ">
<polygon fill="white" stroke="black" points="449,-56.5 449,-75.5 533,-75.5 533,-56.5 449,-56.5"/>
<text text-anchor="middle" x="491" y="-63.5" font-family="Helvetica,sans-Serif" font-size="10.00">../../errors.hpp</text>
</a>
</g>
</g>
<!-- Node0&#45;&gt;Node10 -->
<g id="edge10" class="edge"><title>Node0&#45;&gt;Node10</title>
<path fill="none" stroke="midnightblue" d="M488.235,-168.368C488.72,-150.617 489.836,-109.666 490.493,-85.5974"/>
<polygon fill="midnightblue" stroke="midnightblue" points="493.992,-85.6832 490.766,-75.5914 486.994,-85.4922 493.992,-85.6832"/>
</g>
<!-- Node11 -->
<g id="node12" class="node"><title>Node11</title>
<g id="a_node12"><a xlink:href="messages_8h.html" target="_top" xlink:title="Constant human&#45;readable messages used within playd. ">
<polygon fill="white" stroke="black" points="347.5,-112.5 347.5,-131.5 440.5,-131.5 440.5,-112.5 347.5,-112.5"/>
<text text-anchor="middle" x="394" y="-119.5" font-family="Helvetica,sans-Serif" font-size="10.00">../../messages.h</text>
</a>
</g>
</g>
<!-- Node0&#45;&gt;Node11 -->
<g id="edge13" class="edge"><title>Node0&#45;&gt;Node11</title>
<path fill="none" stroke="midnightblue" d="M472.897,-168.324C458.097,-159.822 435.306,-146.729 418.018,-136.797"/>
<polygon fill="midnightblue" stroke="midnightblue" points="419.48,-133.601 409.065,-131.655 415.993,-139.671 419.48,-133.601"/>
</g>
<!-- Node12 -->
<g id="node13" class="node"><title>Node12</title>
<g id="a_node13"><a xlink:href="sample__formats_8hpp.html" target="_top" xlink:title="The SampleFormat enumeration and related declarations. ">
<polygon fill="white" stroke="black" points="-0.5,-56.5 -0.5,-75.5 124.5,-75.5 124.5,-56.5 -0.5,-56.5"/>
<text text-anchor="middle" x="62" y="-63.5" font-family="Helvetica,sans-Serif" font-size="10.00">../sample_formats.hpp</text>
</a>
</g>
</g>
<!-- Node0&#45;&gt;Node12 -->
<g id="edge15" class="edge"><title>Node0&#45;&gt;Node12</title>
<path fill="none" stroke="midnightblue" d="M410.456,-172.118C322.805,-165.709 186.178,-152.767 139,-132 113.601,-120.82 90.1149,-98.5388 75.9224,-83.2061"/>
<polygon fill="midnightblue" stroke="midnightblue" points="78.3179,-80.6345 69.0407,-75.5174 73.102,-85.303 78.3179,-80.6345"/>
</g>
<!-- Node14 -->
<g id="node15" class="node"><title>Node14</title>
<g id="a_node15"><a xlink:href="audio__source_8hpp.html" target="_top" xlink:title="Declaration of the AudioSource class. ">
<polygon fill="white" stroke="black" points="181,-112.5 181,-131.5 291,-131.5 291,-112.5 181,-112.5"/>
<text text-anchor="middle" x="236" y="-119.5" font-family="Helvetica,sans-Serif" font-size="10.00">../audio_source.hpp</text>
</a>
</g>
</g>
<!-- Node0&#45;&gt;Node14 -->
<g id="edge18" class="edge"><title>Node0&#45;&gt;Node14</title>
<path fill="none" stroke="midnightblue" d="M448.07,-168.444C404.109,-159.023 333.373,-143.866 285.817,-133.675"/>
<polygon fill="midnightblue" stroke="midnightblue" points="286.255,-130.189 275.743,-131.516 284.788,-137.034 286.255,-130.189"/>
</g>
<!-- Node16 -->
<g id="node17" class="node"><title>Node16</title>
<g id="a_node17"><a xlink:href="sndfile_8hpp.html" target="_top" xlink:title="Declaration of the SndfileAudioSource class. ">
<polygon fill="white" stroke="black" points="845,-112.5 845,-131.5 913,-131.5 913,-112.5 845,-112.5"/>
<text text-anchor="middle" x="879" y="-119.5" font-family="Helvetica,sans-Serif" font-size="10.00">sndfile.hpp</text>
</a>
</g>
</g>
<!-- Node0&#45;&gt;Node16 -->
<g id="edge24" class="edge"><title>Node0&#45;&gt;Node16</title>
<path fill="none" stroke="midnightblue" d="M565.761,-168.556C636.244,-160.513 742.875,-147.374 835,-132 835.101,-131.983 835.202,-131.966 835.303,-131.949"/>
<polygon fill="midnightblue" stroke="midnightblue" points="835.71,-135.432 844.936,-130.223 834.475,-128.542 835.71,-135.432"/>
</g>
<!-- Node10&#45;&gt;Node4 -->
<g id="edge11" class="edge"><title>Node10&#45;&gt;Node4</title>
<path fill="none" stroke="midnightblue" d="M482.083,-56.083C474.22,-48.2195 462.569,-36.5688 453.081,-27.0813"/>
<polygon fill="midnightblue" stroke="midnightblue" points="455.297,-24.3473 445.751,-19.7511 450.347,-29.2971 455.297,-24.3473"/>
</g>
<!-- Node10&#45;&gt;Node7 -->
<g id="edge12" class="edge"><title>Node10&#45;&gt;Node7</title>
<path fill="none" stroke="midnightblue" d="M499.917,-56.083C507.78,-48.2195 519.431,-36.5688 528.919,-27.0813"/>
<polygon fill="midnightblue" stroke="midnightblue" points="531.653,-29.2971 536.249,-19.7511 526.703,-24.3473 531.653,-29.2971"/>
</g>
<!-- Node11&#45;&gt;Node8 -->
<g id="edge14" class="edge"><title>Node11&#45;&gt;Node8</title>
<path fill="none" stroke="midnightblue" d="M381.95,-112.324C370.537,-104.107 353.169,-91.6017 339.565,-81.8069"/>
<polygon fill="midnightblue" stroke="midnightblue" points="341.43,-78.8366 331.269,-75.8339 337.34,-84.5174 341.43,-78.8366"/>
</g>
<!-- Node12&#45;&gt;Node2 -->
<g id="edge17" class="edge"><title>Node12&#45;&gt;Node2</title>
<path fill="none" stroke="midnightblue" d="M76.6207,-56.324C90.9489,-47.8215 113.013,-34.7288 129.749,-24.7975"/>
<polygon fill="midnightblue" stroke="midnightblue" points="131.602,-27.7677 138.416,-19.6545 128.03,-21.7478 131.602,-27.7677"/>
</g>
<!-- Node13 -->
<g id="node14" class="node"><title>Node13</title>
<polygon fill="white" stroke="#bfbfbf" points="41.5,-0.5 41.5,-19.5 82.5,-19.5 82.5,-0.5 41.5,-0.5"/>
<text text-anchor="middle" x="62" y="-7.5" font-family="Helvetica,sans-Serif" font-size="10.00">array</text>
</g>
<!-- Node12&#45;&gt;Node13 -->
<g id="edge16" class="edge"><title>Node12&#45;&gt;Node13</title>
<path fill="none" stroke="midnightblue" d="M62,-56.083C62,-49.0059 62,-38.8611 62,-29.9865"/>
<polygon fill="midnightblue" stroke="midnightblue" points="65.5001,-29.751 62,-19.7511 58.5001,-29.7511 65.5001,-29.751"/>
</g>
<!-- Node14&#45;&gt;Node2 -->
<g id="edge19" class="edge"><title>Node14&#45;&gt;Node2</title>
<path fill="none" stroke="midnightblue" d="M229.487,-112.368C215.729,-94.135 183.503,-51.4257 165.582,-27.6752"/>
<polygon fill="midnightblue" stroke="midnightblue" points="168.3,-25.4659 159.483,-19.5914 162.712,-29.6821 168.3,-25.4659"/>
</g>
<!-- Node14&#45;&gt;Node8 -->
<g id="edge20" class="edge"><title>Node14&#45;&gt;Node8</title>
<path fill="none" stroke="midnightblue" d="M249.335,-112.324C262.162,-103.979 281.785,-91.2122 296.94,-81.3524"/>
<polygon fill="midnightblue" stroke="midnightblue" points="299.224,-84.0417 305.698,-75.6545 295.407,-78.1742 299.224,-84.0417"/>
</g>
<!-- Node14&#45;&gt;Node10 -->
<g id="edge22" class="edge"><title>Node14&#45;&gt;Node10</title>
<path fill="none" stroke="midnightblue" d="M276.406,-112.444C320.983,-103.004 392.768,-87.802 440.892,-77.6111"/>
<polygon fill="midnightblue" stroke="midnightblue" points="441.726,-81.0123 450.784,-75.5164 440.275,-74.1641 441.726,-81.0123"/>
</g>
<!-- Node14&#45;&gt;Node12 -->
<g id="edge23" class="edge"><title>Node14&#45;&gt;Node12</title>
<path fill="none" stroke="midnightblue" d="M208.429,-112.444C178.903,-103.28 131.882,-88.6876 99.1174,-78.5192"/>
<polygon fill="midnightblue" stroke="midnightblue" points="100.03,-75.1378 89.4418,-75.5164 97.955,-81.8232 100.03,-75.1378"/>
</g>
<!-- Node15 -->
<g id="node16" class="node"><title>Node15</title>
<polygon fill="white" stroke="#bfbfbf" points="219.5,-56.5 219.5,-75.5 266.5,-75.5 266.5,-56.5 219.5,-56.5"/>
<text text-anchor="middle" x="243" y="-63.5" font-family="Helvetica,sans-Serif" font-size="10.00">vector</text>
</g>
<!-- Node14&#45;&gt;Node15 -->
<g id="edge21" class="edge"><title>Node14&#45;&gt;Node15</title>
<path fill="none" stroke="midnightblue" d="M237.156,-112.083C238.084,-104.927 239.418,-94.6353 240.577,-85.6911"/>
<polygon fill="midnightblue" stroke="midnightblue" points="244.051,-86.1181 241.866,-75.7511 237.109,-85.2181 244.051,-86.1181"/>
</g>
</g>
</svg>
