<?xml version="1.0" encoding="UTF-8" standalone="no"?>
<!DOCTYPE svg PUBLIC "-//W3C//DTD SVG 1.1//EN"
 "http://www.w3.org/Graphics/SVG/1.1/DTD/svg11.dtd">
<!-- Generated by graphviz version 2.38.0 (20140413.2041)
 -->
<!-- Title: src/time_parser.hpp Pages: 1 -->
<!--zoomable 364 -->
<svg id="main" version="1.1" xmlns="http://www.w3.org/2000/svg" xmlns:xlink="http://www.w3.org/1999/xlink" xml:space="preserve" onload="init(evt)">
<style type="text/css"><![CDATA[
.edge:hover path { stroke: red; }
.edge:hover polygon { stroke: red; fill: red; }
]]></style>
<script type="text/javascript"><![CDATA[
var edges = document.getElementsByTagName('g');
if (edges && edges.length) {
  for (var i=0;i<edges.length;i++) {
    if (edges[i].id.substr(0,4)=='edge') {
      edges[i].setAttribute('class','edge');
    }
  }
}
]]></script>
        <defs>
                <circle id="rim" cx="0" cy="0" r="7"/>
                <circle id="rim2" cx="0" cy="0" r="3.5"/>
                <g id="zoomPlus">
                        <use xlink:href="#rim" fill="#404040">
                                <set attributeName="fill" to="#808080" begin="zoomplus.mouseover" end="zoomplus.mouseout"/>
                        </use>
                        <path d="M-4,0h8M0,-4v8" fill="none" stroke="white" stroke-width="1.5" pointer-events="none"/>
                </g>
                <g id="zoomMin">
                        <use xlink:href="#rim" fill="#404040">
                                <set attributeName="fill" to="#808080" begin="zoomminus.mouseover" end="zoomminus.mouseout"/>
                        </use>
                        <path d="M-4,0h8" fill="none" stroke="white" stroke-width="1.5" pointer-events="none"/>
                </g>
                <g id="dirArrow">
                        <path fill="none" stroke="white" stroke-width="1.5" d="M0,-3.0v7 M-2.5,-0.5L0,-3.0L2.5,-0.5"/>
                </g>
               <g id="resetDef">
                       <use xlink:href="#rim2" fill="#404040">
                               <set attributeName="fill" to="#808080" begin="reset.mouseover" end="reset.mouseout"/>
                       </use>
               </g>
        </defs>

<script type="text/javascript">
var viewWidth = 877;
var viewHeight = 364;
var sectionId = 'dynsection-1';
</script>
<script xlink:href="svgpan.js"/>
<svg id="graph" class="graph">
<g id="viewport">
<title>src/time_parser.hpp</title>
<polygon fill="white" stroke="none" points="-4,4 -4,-360 872.956,-360 872.956,4 -4,4"/>
<!-- Node1 -->
<g id="node1" class="node"><title>Node1</title>
<polygon fill="#bfbfbf" stroke="black" points="582.956,-336.5 582.956,-355.5 692.956,-355.5 692.956,-336.5 582.956,-336.5"/>
<text text-anchor="middle" x="637.956" y="-343.5" font-family="Helvetica,sans-Serif" font-size="10.00">src/time_parser.hpp</text>
</g>
<!-- Node2 -->
<g id="node2" class="node"><title>Node2</title>
<g id="a_node2"><a xlink:href="player_8hpp.html" target="_top" xlink:title="Declaration of the Player class, and associated types. ">
<polygon fill="white" stroke="black" points="349.956,-280.5 349.956,-299.5 465.956,-299.5 465.956,-280.5 349.956,-280.5"/>
<text text-anchor="middle" x="407.956" y="-287.5" font-family="Helvetica,sans-Serif" font-size="10.00">src/player/player.hpp</text>
</a>
</g>
</g>
<!-- Node1&#45;&gt;Node2 -->
<g id="edge1" class="edge"><title>Node1&#45;&gt;Node2</title>
<path fill="none" stroke="midnightblue" d="M591.756,-334.153C548.299,-323.95 484.116,-308.881 444.23,-299.516"/>
<polygon fill="midnightblue" stroke="midnightblue" points="590.977,-337.565 601.512,-336.444 592.577,-330.75 590.977,-337.565"/>
</g>
<!-- Node9 -->
<g id="node9" class="node"><title>Node9</title>
<g id="a_node9"><a xlink:href="main_8hpp.html" target="_top" xlink:title="Declaration of the playd class. ">
<polygon fill="white" stroke="black" points="419.456,-56.5 419.456,-75.5 496.456,-75.5 496.456,-56.5 419.456,-56.5"/>
<text text-anchor="middle" x="457.956" y="-63.5" font-family="Helvetica,sans-Serif" font-size="10.00">src/main.hpp</text>
</a>
</g>
</g>
<!-- Node1&#45;&gt;Node9 -->
<g id="edge23" class="edge"><title>Node1&#45;&gt;Node9</title>
<path fill="none" stroke="midnightblue" d="M703.266,-341.144C771.573,-333.161 868.956,-308.832 868.956,-235 868.956,-235 868.956,-235 868.956,-177 868.956,-100.364 598.935,-75.6938 496.622,-69.0966"/>
<polygon fill="midnightblue" stroke="midnightblue" points="702.562,-337.7 692.993,-342.249 703.31,-344.66 702.562,-337.7"/>
</g>
<!-- Node3 -->
<g id="node3" class="node"><title>Node3</title>
<g id="a_node3"><a xlink:href="cmd_8hpp.html" target="_top" xlink:title="Declaration of the CommandHandler class. ">
<polygon fill="white" stroke="black" points="219.956,-224.5 219.956,-243.5 293.956,-243.5 293.956,-224.5 219.956,-224.5"/>
<text text-anchor="middle" x="256.956" y="-231.5" font-family="Helvetica,sans-Serif" font-size="10.00">src/cmd.hpp</text>
</a>
</g>
</g>
<!-- Node2&#45;&gt;Node3 -->
<g id="edge2" class="edge"><title>Node2&#45;&gt;Node3</title>
<path fill="none" stroke="midnightblue" d="M374.51,-277.039C346.098,-266.879 306.019,-252.546 280.771,-243.516"/>
<polygon fill="midnightblue" stroke="midnightblue" points="373.435,-280.372 384.03,-280.444 375.793,-273.781 373.435,-280.372"/>
</g>
<!-- Node5 -->
<g id="node5" class="node"><title>Node5</title>
<g id="a_node5"><a xlink:href="io__reactor_8cpp.html" target="_top" xlink:title="Implementation of the non&#45;virtual aspects of the IoReactor class. ">
<polygon fill="white" stroke="black" points="29.4564,-56.5 29.4564,-75.5 142.456,-75.5 142.456,-56.5 29.4564,-56.5"/>
<text text-anchor="middle" x="85.9564" y="-63.5" font-family="Helvetica,sans-Serif" font-size="10.00">src/io/io_reactor.cpp</text>
</a>
</g>
</g>
<!-- Node2&#45;&gt;Node5 -->
<g id="edge16" class="edge"><title>Node2&#45;&gt;Node5</title>
<path fill="none" stroke="midnightblue" d="M339.562,-285.278C270.607,-277.696 166.27,-255.054 107.956,-188 79.2337,-154.972 82.4047,-97.2491 84.8081,-75.5609"/>
<polygon fill="midnightblue" stroke="midnightblue" points="339.588,-288.799 349.891,-286.331 340.297,-281.835 339.588,-288.799"/>
</g>
<!-- Node7 -->
<g id="node7" class="node"><title>Node7</title>
<g id="a_node7"><a xlink:href="io__reactor_8hpp.html" target="_top" xlink:title="Declaration of the IoReactor class. ">
<polygon fill="white" stroke="black" points="231.456,-112.5 231.456,-131.5 344.456,-131.5 344.456,-112.5 231.456,-112.5"/>
<text text-anchor="middle" x="287.956" y="-119.5" font-family="Helvetica,sans-Serif" font-size="10.00">src/io/io_reactor.hpp</text>
</a>
</g>
</g>
<!-- Node2&#45;&gt;Node7 -->
<g id="edge17" class="edge"><title>Node2&#45;&gt;Node7</title>
<path fill="none" stroke="midnightblue" d="M376.114,-275.942C362.717,-268.665 348.507,-258.166 340.956,-244 324.721,-213.538 373.398,-198.351 356.956,-168 347.42,-150.395 327.678,-138.587 311.745,-131.501"/>
<polygon fill="midnightblue" stroke="midnightblue" points="374.659,-279.128 385.168,-280.471 377.79,-272.867 374.659,-279.128"/>
</g>
<!-- Node8 -->
<g id="node8" class="node"><title>Node8</title>
<g id="a_node8"><a xlink:href="main_8cpp.html" target="_top" xlink:title="Main entry point and implementation of the playd class. ">
<polygon fill="white" stroke="black" points="316.956,-0.5 316.956,-19.5 392.956,-19.5 392.956,-0.5 316.956,-0.5"/>
<text text-anchor="middle" x="354.956" y="-7.5" font-family="Helvetica,sans-Serif" font-size="10.00">src/main.cpp</text>
</a>
</g>
</g>
<!-- Node2&#45;&gt;Node8 -->
<g id="edge19" class="edge"><title>Node2&#45;&gt;Node8</title>
<path fill="none" stroke="midnightblue" d="M339.443,-284.596C223.47,-275.244 0.956398,-248.274 0.956398,-179 0.956398,-179 0.956398,-179 0.956398,-121 0.956398,-90.9022 -2.8692,-75.6181 19.9564,-56 63.7922,-18.3241 238.542,-11.9857 316.762,-11.0653"/>
<polygon fill="midnightblue" stroke="midnightblue" points="339.4,-288.104 349.643,-285.396 339.947,-281.125 339.4,-288.104"/>
</g>
<!-- Node2&#45;&gt;Node9 -->
<g id="edge18" class="edge"><title>Node2&#45;&gt;Node9</title>
<path fill="none" stroke="midnightblue" d="M476.294,-286.271C585.66,-281.195 790.017,-268.519 811.956,-244 908.405,-136.212 606.894,-86.0113 496.67,-71.5715"/>
<polygon fill="midnightblue" stroke="midnightblue" points="475.846,-282.788 466.016,-286.739 476.165,-289.781 475.846,-282.788"/>
</g>
<!-- Node11 -->
<g id="node11" class="node"><title>Node11</title>
<g id="a_node11"><a xlink:href="player_8cpp.html" target="_top" xlink:title="Main implementation file for the Player class. ">
<polygon fill="white" stroke="black" points="350.456,-224.5 350.456,-243.5 465.456,-243.5 465.456,-224.5 350.456,-224.5"/>
<text text-anchor="middle" x="407.956" y="-231.5" font-family="Helvetica,sans-Serif" font-size="10.00">src/player/player.cpp</text>
</a>
</g>
</g>
<!-- Node2&#45;&gt;Node11 -->
<g id="edge20" class="edge"><title>Node2&#45;&gt;Node11</title>
<path fill="none" stroke="midnightblue" d="M407.956,-269.805C407.956,-260.91 407.956,-250.78 407.956,-243.751"/>
<polygon fill="midnightblue" stroke="midnightblue" points="404.456,-270.083 407.956,-280.083 411.456,-270.083 404.456,-270.083"/>
</g>
<!-- Node12 -->
<g id="node12" class="node"><title>Node12</title>
<g id="a_node12"><a xlink:href="player__position_8cpp.html" target="_top" xlink:title="Implementation of the PlayerPosition class, and related Player methods. ">
<polygon fill="white" stroke="black" points="482.956,-224.5 482.956,-243.5 640.956,-243.5 640.956,-224.5 482.956,-224.5"/>
<text text-anchor="middle" x="561.956" y="-231.5" font-family="Helvetica,sans-Serif" font-size="10.00">src/player/player_position.cpp</text>
</a>
</g>
</g>
<!-- Node2&#45;&gt;Node12 -->
<g id="edge21" class="edge"><title>Node2&#45;&gt;Node12</title>
<path fill="none" stroke="midnightblue" d="M442.067,-277.039C471.043,-266.879 511.919,-252.546 537.669,-243.516"/>
<polygon fill="midnightblue" stroke="midnightblue" points="440.637,-273.832 432.358,-280.444 442.953,-280.437 440.637,-273.832"/>
</g>
<!-- Node13 -->
<g id="node13" class="node"><title>Node13</title>
<g id="a_node13"><a xlink:href="player__state_8cpp.html" target="_top" xlink:title="Implementation of the PlayerState class, and related Player methods. ">
<polygon fill="white" stroke="black" points="658.956,-224.5 658.956,-243.5 802.956,-243.5 802.956,-224.5 658.956,-224.5"/>
<text text-anchor="middle" x="730.956" y="-231.5" font-family="Helvetica,sans-Serif" font-size="10.00">src/player/player_state.cpp</text>
</a>
</g>
</g>
<!-- Node2&#45;&gt;Node13 -->
<g id="edge22" class="edge"><title>Node2&#45;&gt;Node13</title>
<path fill="none" stroke="midnightblue" d="M469.023,-278.791C530.057,-268.587 622.823,-253.078 680.016,-243.516"/>
<polygon fill="midnightblue" stroke="midnightblue" points="468.423,-275.342 459.137,-280.444 469.577,-282.247 468.423,-275.342"/>
</g>
<!-- Node4 -->
<g id="node4" class="node"><title>Node4</title>
<g id="a_node4"><a xlink:href="cmd_8cpp.html" target="_top" xlink:title="Implementation of the CommandHandler class. ">
<polygon fill="white" stroke="black" points="275.456,-168.5 275.456,-187.5 348.456,-187.5 348.456,-168.5 275.456,-168.5"/>
<text text-anchor="middle" x="311.956" y="-175.5" font-family="Helvetica,sans-Serif" font-size="10.00">src/cmd.cpp</text>
</a>
</g>
</g>
<!-- Node3&#45;&gt;Node4 -->
<g id="edge3" class="edge"><title>Node3&#45;&gt;Node4</title>
<path fill="none" stroke="midnightblue" d="M273.25,-217.002C282.997,-207.433 295.009,-195.639 303.043,-187.751"/>
<polygon fill="midnightblue" stroke="midnightblue" points="270.722,-214.58 266.039,-224.083 275.626,-219.575 270.722,-214.58"/>
</g>
<!-- Node3&#45;&gt;Node5 -->
<g id="edge4" class="edge"><title>Node3&#45;&gt;Node5</title>
<path fill="none" stroke="midnightblue" d="M209.999,-224.136C184.54,-217.501 153.722,-206.32 130.956,-188 108.09,-169.599 106.175,-159.514 95.9564,-132 88.8009,-112.734 86.764,-88.4261 86.1852,-75.6909"/>
<polygon fill="midnightblue" stroke="midnightblue" points="209.277,-227.563 219.823,-226.544 210.943,-220.764 209.277,-227.563"/>
</g>
<!-- Node6 -->
<g id="node6" class="node"><title>Node6</title>
<g id="a_node6"><a xlink:href="tokeniser_8hpp.html" target="_top" xlink:title="Declaration of the Tokeniser class. ">
<polygon fill="white" stroke="black" points="148.456,-168.5 148.456,-187.5 257.456,-187.5 257.456,-168.5 148.456,-168.5"/>
<text text-anchor="middle" x="202.956" y="-175.5" font-family="Helvetica,sans-Serif" font-size="10.00">src/io/tokeniser.hpp</text>
</a>
</g>
</g>
<!-- Node3&#45;&gt;Node6 -->
<g id="edge5" class="edge"><title>Node3&#45;&gt;Node6</title>
<path fill="none" stroke="midnightblue" d="M240.959,-217.002C231.389,-207.433 219.595,-195.639 211.707,-187.751"/>
<polygon fill="midnightblue" stroke="midnightblue" points="238.493,-219.487 248.039,-224.083 243.443,-214.537 238.493,-219.487"/>
</g>
<!-- Node3&#45;&gt;Node8 -->
<g id="edge14" class="edge"><title>Node3&#45;&gt;Node8</title>
<path fill="none" stroke="midnightblue" d="M303.964,-221.591C322.909,-214.767 343.436,-204.167 356.956,-188 399.145,-137.551 369.402,-47.7603 358.507,-19.6557"/>
<polygon fill="midnightblue" stroke="midnightblue" points="302.629,-218.346 294.246,-224.825 304.84,-224.988 302.629,-218.346"/>
</g>
<!-- Node3&#45;&gt;Node9 -->
<g id="edge15" class="edge"><title>Node3&#45;&gt;Node9</title>
<path fill="none" stroke="midnightblue" d="M303.984,-225.997C331.787,-219.864 366.27,-208.564 390.956,-188 428.778,-156.494 448.99,-97.8555 455.542,-75.7421"/>
<polygon fill="midnightblue" stroke="midnightblue" points="303.166,-222.592 294.073,-228.03 304.573,-229.449 303.166,-222.592"/>
</g>
<!-- Node10 -->
<g id="node10" class="node"><title>Node10</title>
<g id="a_node10"><a xlink:href="tokeniser_8cpp.html" target="_top" xlink:title="Definition of the Tokeniser class. ">
<polygon fill="white" stroke="black" points="104.956,-112.5 104.956,-131.5 212.956,-131.5 212.956,-112.5 104.956,-112.5"/>
<text text-anchor="middle" x="158.956" y="-119.5" font-family="Helvetica,sans-Serif" font-size="10.00">src/io/tokeniser.cpp</text>
</a>
</g>
</g>
<!-- Node3&#45;&gt;Node10 -->
<g id="edge13" class="edge"><title>Node3&#45;&gt;Node10</title>
<path fill="none" stroke="midnightblue" d="M209.902,-227.834C184.381,-222.362 154.878,-211.113 138.956,-188 126.766,-170.304 142.017,-144.916 151.853,-131.718"/>
<polygon fill="midnightblue" stroke="midnightblue" points="209.335,-231.289 219.813,-229.722 210.645,-224.413 209.335,-231.289"/>
</g>
<!-- Node6&#45;&gt;Node7 -->
<g id="edge6" class="edge"><title>Node6&#45;&gt;Node7</title>
<path fill="none" stroke="midnightblue" d="M225.15,-162.901C240.736,-152.999 261.086,-140.071 274.334,-131.655"/>
<polygon fill="midnightblue" stroke="midnightblue" points="223.177,-160.007 216.613,-168.324 226.931,-165.916 223.177,-160.007"/>
</g>
<!-- Node6&#45;&gt;Node10 -->
<g id="edge12" class="edge"><title>Node6&#45;&gt;Node10</title>
<path fill="none" stroke="midnightblue" d="M189.222,-160.144C181.556,-150.736 172.323,-139.405 166.087,-131.751"/>
<polygon fill="midnightblue" stroke="midnightblue" points="186.661,-162.541 195.691,-168.083 192.087,-158.12 186.661,-162.541"/>
</g>
<!-- Node7&#45;&gt;Node5 -->
<g id="edge7" class="edge"><title>Node7&#45;&gt;Node5</title>
<path fill="none" stroke="midnightblue" d="M246.169,-109.829C208.029,-99.6333 152.475,-84.7823 117.814,-75.5164"/>
<polygon fill="midnightblue" stroke="midnightblue" points="245.384,-113.242 255.949,-112.444 247.192,-106.48 245.384,-113.242"/>
</g>
<!-- Node7&#45;&gt;Node7 -->
<g id="edge8" class="edge"><title>Node7&#45;&gt;Node7</title>
<path fill="none" stroke="midnightblue" d="M329.739,-132.393C347.41,-133.17 362.456,-129.706 362.456,-122 362.456,-112.867 341.321,-109.692 319.731,-112.475"/>
<polygon fill="midnightblue" stroke="midnightblue" points="329.996,-128.902 319.731,-131.525 329.391,-135.876 329.996,-128.902"/>
</g>
<!-- Node7&#45;&gt;Node8 -->
<g id="edge9" class="edge"><title>Node7&#45;&gt;Node8</title>
<path fill="none" stroke="midnightblue" d="M298.53,-103.64C313.085,-79.7436 338.737,-37.6286 349.723,-19.5914"/>
<polygon fill="midnightblue" stroke="midnightblue" points="295.427,-102.007 293.214,-112.368 301.405,-105.649 295.427,-102.007"/>
</g>
<!-- Node7&#45;&gt;Node9 -->
<g id="edge10" class="edge"><title>Node7&#45;&gt;Node9</title>
<path fill="none" stroke="midnightblue" d="M324.776,-109.304C356.808,-99.1294 402.472,-84.6246 431.145,-75.5164"/>
<polygon fill="midnightblue" stroke="midnightblue" points="323.365,-106.08 314.893,-112.444 325.484,-112.752 323.365,-106.08"/>
</g>
<!-- Node9&#45;&gt;Node8 -->
<g id="edge11" class="edge"><title>Node9&#45;&gt;Node8</title>
<path fill="none" stroke="midnightblue" d="M432.377,-51.5895C413.333,-41.6052 387.892,-28.2672 371.464,-19.6545"/>
<polygon fill="midnightblue" stroke="midnightblue" points="430.926,-54.7805 441.408,-56.324 434.176,-48.5808 430.926,-54.7805"/>
</g>
</g>
</svg>
        <g id="navigator" transform="translate(0 0)" fill="#404254">
                <rect fill="#f2f5e9" fill-opacity="0.5" stroke="#606060" stroke-width=".5" x="0" y="0" width="60" height="60"/>
                <use id="zoomplus" xlink:href="#zoomPlus" x="17" y="9" onmousedown="handleZoom(evt,'in')"/>
                <use id="zoomminus" xlink:href="#zoomMin" x="42" y="9" onmousedown="handleZoom(evt,'out')"/>
                <use id="reset" xlink:href="#resetDef" x="30" y="36" onmousedown="handleReset()"/>
                <g id="arrowUp" xlink:href="#dirArrow" transform="translate(30 24)" onmousedown="handlePan(0,-1)">
                  <use xlink:href="#rim" fill="#404040">
                        <set attributeName="fill" to="#808080" begin="arrowUp.mouseover" end="arrowUp.mouseout"/>
                  </use>
                  <path fill="none" stroke="white" stroke-width="1.5" d="M0,-3.0v7 M-2.5,-0.5L0,-3.0L2.5,-0.5"/>
                </g>
                <g id="arrowRight" xlink:href="#dirArrow" transform="rotate(90) translate(36 -43)" onmousedown="handlePan(1,0)">
                  <use xlink:href="#rim" fill="#404040">
                        <set attributeName="fill" to="#808080" begin="arrowRight.mouseover" end="arrowRight.mouseout"/>
                  </use>
                  <path fill="none" stroke="white" stroke-width="1.5" d="M0,-3.0v7 M-2.5,-0.5L0,-3.0L2.5,-0.5"/>
                </g>
                <g id="arrowDown" xlink:href="#dirArrow" transform="rotate(180) translate(-30 -48)" onmousedown="handlePan(0,1)">
                  <use xlink:href="#rim" fill="#404040">
                        <set attributeName="fill" to="#808080" begin="arrowDown.mouseover" end="arrowDown.mouseout"/>
                  </use>
                  <path fill="none" stroke="white" stroke-width="1.5" d="M0,-3.0v7 M-2.5,-0.5L0,-3.0L2.5,-0.5"/>
                </g>
                <g id="arrowLeft" xlink:href="#dirArrow" transform="rotate(270) translate(-36 17)" onmousedown="handlePan(-1,0)">
                  <use xlink:href="#rim" fill="#404040">
                        <set attributeName="fill" to="#808080" begin="arrowLeft.mouseover" end="arrowLeft.mouseout"/>
                  </use>
                  <path fill="none" stroke="white" stroke-width="1.5" d="M0,-3.0v7 M-2.5,-0.5L0,-3.0L2.5,-0.5"/>
                </g>
        </g>
        <svg viewBox="0 0 15 15" width="100%" height="30px" preserveAspectRatio="xMaxYMin meet">
         <g id="arrow_out" transform="scale(0.3 0.3)">
          <a xlink:href="time__parser_8hpp__dep__incl_org.svg" target="_base">
           <rect id="button" ry="5" rx="5" y="6" x="6" height="38" width="38"
                fill="#f2f5e9" fill-opacity="0.5" stroke="#606060" stroke-width="1.0"/>
           <path id="arrow"
             d="M 11.500037,31.436501 C 11.940474,20.09759 22.043105,11.32322 32.158766,21.979434 L 37.068811,17.246167 C 37.068811,17.246167 37.088388,32 37.088388,32 L 22.160133,31.978069 C 22.160133,31.978069 26.997745,27.140456 26.997745,27.140456 C 18.528582,18.264221 13.291696,25.230495 11.500037,31.436501 z"
             style="fill:#404040;"/>
          </a>
         </g>
        </svg>
</svg>
