<?xml version="1.0" encoding="UTF-8" standalone="no"?>
<!DOCTYPE svg PUBLIC "-//W3C//DTD SVG 1.1//EN"
 "http://www.w3.org/Graphics/SVG/1.1/DTD/svg11.dtd">
<!-- Generated by graphviz version 2.38.0 (20140413.2041)
 -->
<!-- Title: src/time_parser.hpp Pages: 1 -->
<svg width="268pt" height="140pt"
 viewBox="0.00 0.00 268.00 140.00" xmlns="http://www.w3.org/2000/svg" xmlns:xlink="http://www.w3.org/1999/xlink">
<g id="graph0" class="graph" transform="scale(1 1) rotate(0) translate(4 136)">
<title>src/time_parser.hpp</title>
<polygon fill="white" stroke="none" points="-4,4 -4,-136 264,-136 264,4 -4,4"/>
<!-- Node1 -->
<g id="node1" class="node"><title>Node1</title>
<polygon fill="#bfbfbf" stroke="black" points="50.5,-112.5 50.5,-131.5 160.5,-131.5 160.5,-112.5 50.5,-112.5"/>
<text text-anchor="middle" x="105.5" y="-119.5" font-family="Helvetica,sans-Serif" font-size="10.00">src/time_parser.hpp</text>
</g>
<!-- Node2 -->
<g id="node2" class="node"><title>Node2</title>
<polygon fill="white" stroke="#bfbfbf" points="0,-56.5 0,-75.5 47,-75.5 47,-56.5 0,-56.5"/>
<text text-anchor="middle" x="23.5" y="-63.5" font-family="Helvetica,sans-Serif" font-size="10.00">cstdint</text>
</g>
<!-- Node1&#45;&gt;Node2 -->
<g id="edge1" class="edge"><title>Node1&#45;&gt;Node2</title>
<path fill="none" stroke="midnightblue" d="M92.3253,-112.324C79.6532,-103.979 60.2666,-91.2122 45.2944,-81.3524"/>
<polygon fill="midnightblue" stroke="midnightblue" points="46.9187,-78.2313 36.642,-75.6545 43.0688,-84.0776 46.9187,-78.2313"/>
</g>
<!-- Node3 -->
<g id="node3" class="node"><title>Node3</title>
<polygon fill="white" stroke="#bfbfbf" points="48.5,-0.5 48.5,-19.5 102.5,-19.5 102.5,-0.5 48.5,-0.5"/>
<text text-anchor="middle" x="75.5" y="-7.5" font-family="Helvetica,sans-Serif" font-size="10.00">sstream</text>
</g>
<!-- Node1&#45;&gt;Node3 -->
<g id="edge2" class="edge"><title>Node1&#45;&gt;Node3</title>
<path fill="none" stroke="midnightblue" d="M103.146,-112.368C98.2827,-94.5366 87.0351,-53.2953 80.4832,-29.2717"/>
<polygon fill="midnightblue" stroke="midnightblue" points="83.851,-28.3181 77.8431,-19.5914 77.0977,-30.16 83.851,-28.3181"/>
</g>
<!-- Node4 -->
<g id="node4" class="node"><title>Node4</title>
<g id="a_node4"><a xlink:href="errors_8hpp.html" target="_top" xlink:title="Declarations of the playd Error exception set. ">
<polygon fill="white" stroke="black" points="104,-56.5 104,-75.5 169,-75.5 169,-56.5 104,-56.5"/>
<text text-anchor="middle" x="136.5" y="-63.5" font-family="Helvetica,sans-Serif" font-size="10.00">errors.hpp</text>
</a>
</g>
</g>
<!-- Node1&#45;&gt;Node4 -->
<g id="edge3" class="edge"><title>Node1&#45;&gt;Node4</title>
<path fill="none" stroke="midnightblue" d="M110.619,-112.083C114.908,-104.613 121.158,-93.7244 126.442,-84.5199"/>
<polygon fill="midnightblue" stroke="midnightblue" points="129.533,-86.1662 131.476,-75.7511 123.462,-82.6811 129.533,-86.1662"/>
</g>
<!-- Node6 -->
<g id="node6" class="node"><title>Node6</title>
<g id="a_node6"><a xlink:href="messages_8h.html" target="_top" xlink:title="Constant human&#45;readable messages used within playd. ">
<polygon fill="white" stroke="black" points="187,-56.5 187,-75.5 260,-75.5 260,-56.5 187,-56.5"/>
<text text-anchor="middle" x="223.5" y="-63.5" font-family="Helvetica,sans-Serif" font-size="10.00">messages.h</text>
</a>
</g>
</g>
<!-- Node1&#45;&gt;Node6 -->
<g id="edge6" class="edge"><title>Node1&#45;&gt;Node6</title>
<path fill="none" stroke="midnightblue" d="M124.197,-112.444C143.444,-103.636 173.652,-89.8116 195.7,-79.722"/>
<polygon fill="midnightblue" stroke="midnightblue" points="197.253,-82.8603 204.89,-75.5164 194.34,-76.4951 197.253,-82.8603"/>
</g>
<!-- Node4&#45;&gt;Node3 -->
<g id="edge5" class="edge"><title>Node4&#45;&gt;Node3</title>
<path fill="none" stroke="midnightblue" d="M126.699,-56.324C117.682,-48.3414 104.094,-36.3128 93.182,-26.6529"/>
<polygon fill="midnightblue" stroke="midnightblue" points="95.2866,-23.8416 85.479,-19.8339 90.6467,-29.083 95.2866,-23.8416"/>
</g>
<!-- Node5 -->
<g id="node5" class="node"><title>Node5</title>
<polygon fill="white" stroke="#bfbfbf" points="121,-0.5 121,-19.5 178,-19.5 178,-0.5 121,-0.5"/>
<text text-anchor="middle" x="149.5" y="-7.5" font-family="Helvetica,sans-Serif" font-size="10.00">iostream</text>
</g>
<!-- Node4&#45;&gt;Node5 -->
<g id="edge4" class="edge"><title>Node4&#45;&gt;Node5</title>
<path fill="none" stroke="midnightblue" d="M138.647,-56.083C140.369,-48.9272 142.847,-38.6353 145,-29.6911"/>
<polygon fill="midnightblue" stroke="midnightblue" points="148.455,-30.2925 147.393,-19.7511 141.65,-28.6541 148.455,-30.2925"/>
</g>
<!-- Node7 -->
<g id="node7" class="node"><title>Node7</title>
<polygon fill="white" stroke="#bfbfbf" points="202,-0.5 202,-19.5 245,-19.5 245,-0.5 202,-0.5"/>
<text text-anchor="middle" x="223.5" y="-7.5" font-family="Helvetica,sans-Serif" font-size="10.00">string</text>
</g>
<!-- Node6&#45;&gt;Node7 -->
<g id="edge7" class="edge"><title>Node6&#45;&gt;Node7</title>
<path fill="none" stroke="midnightblue" d="M223.5,-56.083C223.5,-49.0059 223.5,-38.8611 223.5,-29.9865"/>
<polygon fill="midnightblue" stroke="midnightblue" points="227,-29.751 223.5,-19.7511 220,-29.7511 227,-29.751"/>
</g>
</g>
</svg>
