<?xml version="1.0" encoding="UTF-8" standalone="no"?>
<!DOCTYPE svg PUBLIC "-//W3C//DTD SVG 1.1//EN"
 "http://www.w3.org/Graphics/SVG/1.1/DTD/svg11.dtd">
<!-- Generated by graphviz version 2.38.0 (20140413.2041)
 -->
<!-- Title: src/time_parser.cpp Pages: 1 -->
<svg width="481pt" height="140pt"
 viewBox="0.00 0.00 480.50 140.00" xmlns="http://www.w3.org/2000/svg" xmlns:xlink="http://www.w3.org/1999/xlink">
<g id="graph0" class="graph" transform="scale(1 1) rotate(0) translate(4 136)">
<title>src/time_parser.cpp</title>
<polygon fill="white" stroke="none" points="-4,4 -4,-136 476.5,-136 476.5,4 -4,4"/>
<!-- Node1 -->
<g id="node1" class="node"><title>Node1</title>
<polygon fill="#bfbfbf" stroke="black" points="135.5,-112.5 135.5,-131.5 246.5,-131.5 246.5,-112.5 135.5,-112.5"/>
<text text-anchor="middle" x="191" y="-119.5" font-family="Helvetica,sans-Serif" font-size="10.00">src/time_parser.cpp</text>
</g>
<!-- Node2 -->
<g id="node2" class="node"><title>Node2</title>
<polygon fill="white" stroke="#bfbfbf" points="0,-56.5 0,-75.5 62,-75.5 62,-56.5 0,-56.5"/>
<text text-anchor="middle" x="31" y="-63.5" font-family="Helvetica,sans-Serif" font-size="10.00">algorithm</text>
</g>
<!-- Node1&#45;&gt;Node2 -->
<g id="edge1" class="edge"><title>Node1&#45;&gt;Node2</title>
<path fill="none" stroke="midnightblue" d="M165.648,-112.444C138.731,-103.359 96.0037,-88.9388 65.913,-78.7831"/>
<polygon fill="midnightblue" stroke="midnightblue" points="66.828,-75.3981 56.2339,-75.5164 64.5895,-82.0305 66.828,-75.3981"/>
</g>
<!-- Node3 -->
<g id="node3" class="node"><title>Node3</title>
<polygon fill="white" stroke="#bfbfbf" points="95,-0.5 95,-19.5 151,-19.5 151,-0.5 95,-0.5"/>
<text text-anchor="middle" x="123" y="-7.5" font-family="Helvetica,sans-Serif" font-size="10.00">sstream</text>
</g>
<!-- Node1&#45;&gt;Node3 -->
<g id="edge2" class="edge"><title>Node1&#45;&gt;Node3</title>
<path fill="none" stroke="midnightblue" d="M159.191,-112.385C141.054,-105.661 119.836,-94.3065 109,-76 100.389,-61.4517 106.212,-42.2759 112.773,-28.5287"/>
<polygon fill="midnightblue" stroke="midnightblue" points="115.902,-30.0978 117.484,-19.6217 109.715,-26.8246 115.902,-30.0978"/>
</g>
<!-- Node4 -->
<g id="node4" class="node"><title>Node4</title>
<polygon fill="white" stroke="#bfbfbf" points="118,-56.5 118,-75.5 182,-75.5 182,-56.5 118,-56.5"/>
<text text-anchor="middle" x="150" y="-63.5" font-family="Helvetica,sans-Serif" font-size="10.00">stdexcept</text>
</g>
<!-- Node1&#45;&gt;Node4 -->
<g id="edge3" class="edge"><title>Node1&#45;&gt;Node4</title>
<path fill="none" stroke="midnightblue" d="M184.23,-112.083C178.438,-104.455 169.942,-93.2645 162.862,-83.9408"/>
<polygon fill="midnightblue" stroke="midnightblue" points="165.479,-81.5991 156.644,-75.7511 159.904,-85.8321 165.479,-81.5991"/>
</g>
<!-- Node5 -->
<g id="node5" class="node"><title>Node5</title>
<g id="a_node5"><a xlink:href="errors_8hpp.html" target="_top" xlink:title="Declarations of the playd Error exception set. ">
<polygon fill="white" stroke="black" points="200,-56.5 200,-75.5 266,-75.5 266,-56.5 200,-56.5"/>
<text text-anchor="middle" x="233" y="-63.5" font-family="Helvetica,sans-Serif" font-size="10.00">errors.hpp</text>
</a>
</g>
</g>
<!-- Node1&#45;&gt;Node5 -->
<g id="edge4" class="edge"><title>Node1&#45;&gt;Node5</title>
<path fill="none" stroke="midnightblue" d="M197.935,-112.083C203.929,-104.377 212.752,-93.0333 220.048,-83.6531"/>
<polygon fill="midnightblue" stroke="midnightblue" points="222.817,-85.7934 226.194,-75.7511 217.291,-81.4958 222.817,-85.7934"/>
</g>
<!-- Node7 -->
<g id="node7" class="node"><title>Node7</title>
<g id="a_node7"><a xlink:href="messages_8h.html" target="_top" xlink:title="Constant human&#45;readable messages used within playd. ">
<polygon fill="white" stroke="black" points="284.5,-56.5 284.5,-75.5 359.5,-75.5 359.5,-56.5 284.5,-56.5"/>
<text text-anchor="middle" x="322" y="-63.5" font-family="Helvetica,sans-Serif" font-size="10.00">messages.h</text>
</a>
</g>
</g>
<!-- Node1&#45;&gt;Node7 -->
<g id="edge7" class="edge"><title>Node1&#45;&gt;Node7</title>
<path fill="none" stroke="midnightblue" d="M211.757,-112.444C233.316,-103.557 267.263,-89.5632 291.794,-79.4514"/>
<polygon fill="midnightblue" stroke="midnightblue" points="293.428,-82.5634 301.34,-75.5164 290.761,-76.0917 293.428,-82.5634"/>
</g>
<!-- Node9 -->
<g id="node9" class="node"><title>Node9</title>
<g id="a_node9"><a xlink:href="time__parser_8hpp.html" target="_top" xlink:title="Declaration of the TimeParser class. ">
<polygon fill="white" stroke="black" points="377.5,-56.5 377.5,-75.5 472.5,-75.5 472.5,-56.5 377.5,-56.5"/>
<text text-anchor="middle" x="425" y="-63.5" font-family="Helvetica,sans-Serif" font-size="10.00">time_parser.hpp</text>
</a>
</g>
</g>
<!-- Node1&#45;&gt;Node9 -->
<g id="edge9" class="edge"><title>Node1&#45;&gt;Node9</title>
<path fill="none" stroke="midnightblue" d="M228.078,-112.444C268.728,-103.063 334.032,-87.9926 378.184,-77.8036"/>
<polygon fill="midnightblue" stroke="midnightblue" points="379.139,-81.1755 388.095,-75.5164 377.565,-74.3547 379.139,-81.1755"/>
</g>
<!-- Node5&#45;&gt;Node3 -->
<g id="edge6" class="edge"><title>Node5&#45;&gt;Node3</title>
<path fill="none" stroke="midnightblue" d="M215.327,-56.324C197.606,-47.6247 170.097,-34.1202 149.712,-24.113"/>
<polygon fill="midnightblue" stroke="midnightblue" points="151.149,-20.9195 140.63,-19.6545 148.064,-27.2031 151.149,-20.9195"/>
</g>
<!-- Node6 -->
<g id="node6" class="node"><title>Node6</title>
<polygon fill="white" stroke="#bfbfbf" points="203.5,-0.5 203.5,-19.5 262.5,-19.5 262.5,-0.5 203.5,-0.5"/>
<text text-anchor="middle" x="233" y="-7.5" font-family="Helvetica,sans-Serif" font-size="10.00">iostream</text>
</g>
<!-- Node5&#45;&gt;Node6 -->
<g id="edge5" class="edge"><title>Node5&#45;&gt;Node6</title>
<path fill="none" stroke="midnightblue" d="M233,-56.083C233,-49.0059 233,-38.8611 233,-29.9865"/>
<polygon fill="midnightblue" stroke="midnightblue" points="236.5,-29.751 233,-19.7511 229.5,-29.7511 236.5,-29.751"/>
</g>
<!-- Node8 -->
<g id="node8" class="node"><title>Node8</title>
<polygon fill="white" stroke="#bfbfbf" points="300,-0.5 300,-19.5 344,-19.5 344,-0.5 300,-0.5"/>
<text text-anchor="middle" x="322" y="-7.5" font-family="Helvetica,sans-Serif" font-size="10.00">string</text>
</g>
<!-- Node7&#45;&gt;Node8 -->
<g id="edge8" class="edge"><title>Node7&#45;&gt;Node8</title>
<path fill="none" stroke="midnightblue" d="M322,-56.083C322,-49.0059 322,-38.8611 322,-29.9865"/>
<polygon fill="midnightblue" stroke="midnightblue" points="325.5,-29.751 322,-19.7511 318.5,-29.7511 325.5,-29.751"/>
</g>
<!-- Node10 -->
<g id="node10" class="node"><title>Node10</title>
<polygon fill="white" stroke="#bfbfbf" points="400.5,-0.5 400.5,-19.5 449.5,-19.5 449.5,-0.5 400.5,-0.5"/>
<text text-anchor="middle" x="425" y="-7.5" font-family="Helvetica,sans-Serif" font-size="10.00">cstdint</text>
</g>
<!-- Node9&#45;&gt;Node10 -->
<g id="edge10" class="edge"><title>Node9&#45;&gt;Node10</title>
<path fill="none" stroke="midnightblue" d="M425,-56.083C425,-49.0059 425,-38.8611 425,-29.9865"/>
<polygon fill="midnightblue" stroke="midnightblue" points="428.5,-29.751 425,-19.7511 421.5,-29.7511 428.5,-29.751"/>
</g>
</g>
</svg>
