<?xml version="1.0" encoding="UTF-8" standalone="no"?>
<!DOCTYPE svg PUBLIC "-//W3C//DTD SVG 1.1//EN"
 "http://www.w3.org/Graphics/SVG/1.1/DTD/svg11.dtd">
<!-- Generated by graphviz version 2.38.0 (20140413.2041)
 -->
<!-- Title: src/time_parser.hpp Pages: 1 -->
<!--zoomable 588 -->
<svg id="main" version="1.1" xmlns="http://www.w3.org/2000/svg" xmlns:xlink="http://www.w3.org/1999/xlink" xml:space="preserve" onload="init(evt)">
<style type="text/css"><![CDATA[
.edge:hover path { stroke: red; }
.edge:hover polygon { stroke: red; fill: red; }
]]></style>
<script type="text/javascript"><![CDATA[
var edges = document.getElementsByTagName('g');
if (edges && edges.length) {
  for (var i=0;i<edges.length;i++) {
    if (edges[i].id.substr(0,4)=='edge') {
      edges[i].setAttribute('class','edge');
    }
  }
}
]]></script>
        <defs>
                <circle id="rim" cx="0" cy="0" r="7"/>
                <circle id="rim2" cx="0" cy="0" r="3.5"/>
                <g id="zoomPlus">
                        <use xlink:href="#rim" fill="#404040">
                                <set attributeName="fill" to="#808080" begin="zoomplus.mouseover" end="zoomplus.mouseout"/>
                        </use>
                        <path d="M-4,0h8M0,-4v8" fill="none" stroke="white" stroke-width="1.5" pointer-events="none"/>
                </g>
                <g id="zoomMin">
                        <use xlink:href="#rim" fill="#404040">
                                <set attributeName="fill" to="#808080" begin="zoomminus.mouseover" end="zoomminus.mouseout"/>
                        </use>
                        <path d="M-4,0h8" fill="none" stroke="white" stroke-width="1.5" pointer-events="none"/>
                </g>
                <g id="dirArrow">
                        <path fill="none" stroke="white" stroke-width="1.5" d="M0,-3.0v7 M-2.5,-0.5L0,-3.0L2.5,-0.5"/>
                </g>
               <g id="resetDef">
                       <use xlink:href="#rim2" fill="#404040">
                               <set attributeName="fill" to="#808080" begin="reset.mouseover" end="reset.mouseout"/>
                       </use>
               </g>
        </defs>

<script type="text/javascript">
var viewWidth = 1246;
var viewHeight = 588;
var sectionId = 'dynsection-1';
</script>
<script xlink:href="svgpan.js"/>
<svg id="graph" class="graph">
<g id="viewport">
<title>src/time_parser.hpp</title>
<polygon fill="white" stroke="none" points="-4,4 -4,-584 1241.5,-584 1241.5,4 -4,4"/>
<!-- Node1 -->
<g id="node1" class="node"><title>Node1</title>
<polygon fill="#bfbfbf" stroke="black" points="696,-560.5 696,-579.5 808,-579.5 808,-560.5 696,-560.5"/>
<text text-anchor="middle" x="752" y="-567.5" font-family="Helvetica,sans-Serif" font-size="10.00">src/time_parser.hpp</text>
</g>
<!-- Node2 -->
<g id="node2" class="node"><title>Node2</title>
<g id="a_node2"><a xlink:href="audio_8cpp.html" target="_top" xlink:title="Implementation of the Audio class. ">
<polygon fill="white" stroke="black" points="218,-392.5 218,-411.5 328,-411.5 328,-392.5 218,-392.5"/>
<text text-anchor="middle" x="273" y="-399.5" font-family="Helvetica,sans-Serif" font-size="10.00">src/audio/audio.cpp</text>
</a>
</g>
</g>
<!-- Node1&#45;&gt;Node2 -->
<g id="edge1" class="edge"><title>Node1&#45;&gt;Node2</title>
<path fill="none" stroke="midnightblue" d="M685.679,-568.881C540.165,-567.025 200.466,-553.433 133,-468 106.344,-434.246 168.142,-417.267 217.959,-409.296"/>
<polygon fill="midnightblue" stroke="midnightblue" points="685.776,-572.383 695.814,-568.996 685.854,-565.383 685.776,-572.383"/>
</g>
<!-- Node3 -->
<g id="node3" class="node"><title>Node3</title>
<g id="a_node3"><a xlink:href="audio_8hpp.html" target="_top" xlink:title="Declaration of the Audio class. ">
<polygon fill="white" stroke="black" points="142,-448.5 142,-467.5 252,-467.5 252,-448.5 142,-448.5"/>
<text text-anchor="middle" x="197" y="-455.5" font-family="Helvetica,sans-Serif" font-size="10.00">src/audio/audio.hpp</text>
</a>
</g>
</g>
<!-- Node1&#45;&gt;Node3 -->
<g id="edge2" class="edge"><title>Node1&#45;&gt;Node3</title>
<path fill="none" stroke="midnightblue" d="M685.854,-560.65C626.067,-552.682 535.77,-539.601 458,-524 373.757,-507.1 275.78,-480.915 227.332,-467.522"/>
<polygon fill="midnightblue" stroke="midnightblue" points="685.543,-564.139 695.916,-561.981 686.461,-557.2 685.543,-564.139"/>
</g>
<!-- Node6 -->
<g id="node6" class="node"><title>Node6</title>
<g id="a_node6"><a xlink:href="player__file_8hpp.html" target="_top" xlink:title="Declaration of the PlayerFile class, and associated types. ">
<polygon fill="white" stroke="black" points="729.5,-336.5 729.5,-355.5 864.5,-355.5 864.5,-336.5 729.5,-336.5"/>
<text text-anchor="middle" x="797" y="-343.5" font-family="Helvetica,sans-Serif" font-size="10.00">src/player/player_file.hpp</text>
</a>
</g>
</g>
<!-- Node1&#45;&gt;Node6 -->
<g id="edge56" class="edge"><title>Node1&#45;&gt;Node6</title>
<path fill="none" stroke="midnightblue" d="M755.791,-550.295C765.045,-504.644 788.516,-388.854 795.199,-355.884"/>
<polygon fill="midnightblue" stroke="midnightblue" points="752.321,-549.801 753.764,-560.297 759.181,-551.192 752.321,-549.801"/>
</g>
<!-- Node7 -->
<g id="node7" class="node"><title>Node7</title>
<g id="a_node7"><a xlink:href="player_8hpp.html" target="_top" xlink:title="Declaration of the Player class, and associated types. ">
<polygon fill="white" stroke="black" points="624,-280.5 624,-299.5 740,-299.5 740,-280.5 624,-280.5"/>
<text text-anchor="middle" x="682" y="-287.5" font-family="Helvetica,sans-Serif" font-size="10.00">src/player/player.hpp</text>
</a>
</g>
</g>
<!-- Node1&#45;&gt;Node7 -->
<g id="edge55" class="edge"><title>Node1&#45;&gt;Node7</title>
<path fill="none" stroke="midnightblue" d="M747.315,-550.393C733.59,-495.884 693.832,-337.991 684.146,-299.524"/>
<polygon fill="midnightblue" stroke="midnightblue" points="743.992,-551.533 749.828,-560.375 750.78,-549.823 743.992,-551.533"/>
</g>
<!-- Node12 -->
<g id="node12" class="node"><title>Node12</title>
<g id="a_node12"><a xlink:href="main_8cpp.html" target="_top" xlink:title="Main entry point and implementation of the playd class. ">
<polygon fill="white" stroke="black" points="688,-0.5 688,-19.5 766,-19.5 766,-0.5 688,-0.5"/>
<text text-anchor="middle" x="727" y="-7.5" font-family="Helvetica,sans-Serif" font-size="10.00">src/main.cpp</text>
</a>
</g>
</g>
<!-- Node1&#45;&gt;Node12 -->
<g id="edge58" class="edge"><title>Node1&#45;&gt;Node12</title>
<path fill="none" stroke="midnightblue" d="M818.426,-561.589C918.916,-548.505 1098,-517.045 1098,-459 1098,-459 1098,-459 1098,-121 1098,-52.3072 861.255,-23.168 766.002,-14.224"/>
<polygon fill="midnightblue" stroke="midnightblue" points="817.838,-558.136 808.361,-562.873 818.723,-565.08 817.838,-558.136"/>
</g>
<!-- Node13 -->
<g id="node13" class="node"><title>Node13</title>
<g id="a_node13"><a xlink:href="main_8hpp.html" target="_top" xlink:title="Declaration of the playd class. ">
<polygon fill="white" stroke="black" points="299.5,-56.5 299.5,-75.5 378.5,-75.5 378.5,-56.5 299.5,-56.5"/>
<text text-anchor="middle" x="339" y="-63.5" font-family="Helvetica,sans-Serif" font-size="10.00">src/main.hpp</text>
</a>
</g>
</g>
<!-- Node1&#45;&gt;Node13 -->
<g id="edge59" class="edge"><title>Node1&#45;&gt;Node13</title>
<path fill="none" stroke="midnightblue" d="M685.437,-567.473C522.997,-563.35 115.488,-550.473 60,-524 24.5164,-507.071 0,-498.315 0,-459 0,-459 0,-459 0,-177 0,-114.661 210.024,-82.3077 299.449,-71.3576"/>
<polygon fill="midnightblue" stroke="midnightblue" points="685.691,-570.98 695.776,-567.732 685.867,-563.982 685.691,-570.98"/>
</g>
<!-- Node16 -->
<g id="node16" class="node"><title>Node16</title>
<g id="a_node16"><a xlink:href="player_8cpp.html" target="_top" xlink:title="Main implementation file for the Player class. ">
<polygon fill="white" stroke="black" points="83.5,-224.5 83.5,-243.5 198.5,-243.5 198.5,-224.5 83.5,-224.5"/>
<text text-anchor="middle" x="141" y="-231.5" font-family="Helvetica,sans-Serif" font-size="10.00">src/player/player.cpp</text>
</a>
</g>
</g>
<!-- Node1&#45;&gt;Node16 -->
<g id="edge60" class="edge"><title>Node1&#45;&gt;Node16</title>
<path fill="none" stroke="midnightblue" d="M685.395,-566.586C556.264,-561.437 276.36,-547.856 183,-524 114.575,-506.516 38,-529.623 38,-459 38,-459 38,-459 38,-345 38,-295.815 93.5486,-259.547 123.059,-243.75"/>
<polygon fill="midnightblue" stroke="midnightblue" points="685.417,-570.089 695.547,-566.986 685.693,-563.095 685.417,-570.089"/>
</g>
<!-- Node17 -->
<g id="node17" class="node"><title>Node17</title>
<g id="a_node17"><a xlink:href="player__position_8cpp.html" target="_top" xlink:title="Implementation of the PlayerPosition class, and related Player methods. ">
<polygon fill="white" stroke="black" points="912,-224.5 912,-243.5 1070,-243.5 1070,-224.5 912,-224.5"/>
<text text-anchor="middle" x="991" y="-231.5" font-family="Helvetica,sans-Serif" font-size="10.00">src/player/player_position.cpp</text>
</a>
</g>
</g>
<!-- Node1&#45;&gt;Node17 -->
<g id="edge62" class="edge"><title>Node1&#45;&gt;Node17</title>
<path fill="none" stroke="midnightblue" d="M813.968,-558.633C899.955,-542.463 1045,-507.933 1045,-459 1045,-459 1045,-459 1045,-345 1045,-303.515 1013.67,-261.406 998.737,-243.694"/>
<polygon fill="midnightblue" stroke="midnightblue" points="813.242,-555.208 804.045,-560.468 814.515,-562.092 813.242,-555.208"/>
</g>
<!-- Node19 -->
<g id="node19" class="node"><title>Node19</title>
<g id="a_node19"><a xlink:href="player__file_8cpp.html" target="_top" xlink:title="Implementation of the PlayerFile class, and associated types. ">
<polygon fill="white" stroke="black" points="836,-280.5 836,-299.5 970,-299.5 970,-280.5 836,-280.5"/>
<text text-anchor="middle" x="903" y="-287.5" font-family="Helvetica,sans-Serif" font-size="10.00">src/player/player_file.cpp</text>
</a>
</g>
</g>
<!-- Node1&#45;&gt;Node19 -->
<g id="edge61" class="edge"><title>Node1&#45;&gt;Node19</title>
<path fill="none" stroke="midnightblue" d="M785.274,-556.659C835.874,-535.814 930.172,-488.286 967,-412 987.663,-369.198 936.978,-319.422 913.814,-299.693"/>
<polygon fill="midnightblue" stroke="midnightblue" points="783.744,-553.501 775.766,-560.473 786.35,-559.998 783.744,-553.501"/>
</g>
<!-- Node20 -->
<g id="node20" class="node"><title>Node20</title>
<g id="a_node20"><a xlink:href="audio__source_8hpp.html" target="_top" xlink:title="Declaration of the AudioSource class. ">
<polygon fill="white" stroke="black" points="467,-504.5 467,-523.5 615,-523.5 615,-504.5 467,-504.5"/>
<text text-anchor="middle" x="541" y="-511.5" font-family="Helvetica,sans-Serif" font-size="10.00">src/audio/audio_source.hpp</text>
</a>
</g>
</g>
<!-- Node1&#45;&gt;Node20 -->
<g id="edge38" class="edge"><title>Node1&#45;&gt;Node20</title>
<path fill="none" stroke="midnightblue" d="M708.858,-557.959C669.006,-547.76 610.637,-532.822 574.277,-523.516"/>
<polygon fill="midnightblue" stroke="midnightblue" points="708.011,-561.355 718.566,-560.444 709.746,-554.573 708.011,-561.355"/>
</g>
<!-- Node24 -->
<g id="node24" class="node"><title>Node24</title>
<g id="a_node24"><a xlink:href="player__position_8hpp.html" target="_top" xlink:title="Declaration of the PlayerPosition class. ">
<polygon fill="white" stroke="black" points="799.5,-392.5 799.5,-411.5 958.5,-411.5 958.5,-392.5 799.5,-392.5"/>
<text text-anchor="middle" x="879" y="-399.5" font-family="Helvetica,sans-Serif" font-size="10.00">src/player/player_position.hpp</text>
</a>
</g>
</g>
<!-- Node1&#45;&gt;Node24 -->
<g id="edge57" class="edge"><title>Node1&#45;&gt;Node24</title>
<path fill="none" stroke="midnightblue" d="M772.089,-554.003C782.321,-545.8 794.558,-535.071 804,-524 836.557,-485.826 864.641,-432.109 874.874,-411.503"/>
<polygon fill="midnightblue" stroke="midnightblue" points="769.808,-551.344 764.072,-560.252 774.111,-556.865 769.808,-551.344"/>
</g>
<!-- Node25 -->
<g id="node25" class="node"><title>Node25</title>
<g id="a_node25"><a xlink:href="time__parser_8cpp.html" target="_top" xlink:title="Implementation of the TimeParser class. ">
<polygon fill="white" stroke="black" points="1126.5,-504.5 1126.5,-523.5 1237.5,-523.5 1237.5,-504.5 1126.5,-504.5"/>
<text text-anchor="middle" x="1182" y="-511.5" font-family="Helvetica,sans-Serif" font-size="10.00">src/time_parser.cpp</text>
</a>
</g>
</g>
<!-- Node1&#45;&gt;Node25 -->
<g id="edge63" class="edge"><title>Node1&#45;&gt;Node25</title>
<path fill="none" stroke="midnightblue" d="M818.442,-560.766C890.691,-551.795 1009.56,-536.988 1112,-524 1116.62,-523.414 1121.41,-522.804 1126.22,-522.19"/>
<polygon fill="midnightblue" stroke="midnightblue" points="817.621,-557.341 808.129,-562.046 818.484,-564.287 817.621,-557.341"/>
</g>
<!-- Node3&#45;&gt;Node2 -->
<g id="edge3" class="edge"><title>Node3&#45;&gt;Node2</title>
<path fill="none" stroke="midnightblue" d="M217.576,-442.38C231.312,-432.62 248.925,-420.106 260.567,-411.834"/>
<polygon fill="midnightblue" stroke="midnightblue" points="215.335,-439.679 209.211,-448.324 219.39,-445.385 215.335,-439.679"/>
</g>
<!-- Node4 -->
<g id="node4" class="node"><title>Node4</title>
<g id="a_node4"><a xlink:href="audio__system_8cpp.html" target="_top" xlink:title="Implementation of the AudioSystem class. ">
<polygon fill="white" stroke="black" points="180,-336.5 180,-355.5 330,-355.5 330,-336.5 180,-336.5"/>
<text text-anchor="middle" x="255" y="-343.5" font-family="Helvetica,sans-Serif" font-size="10.00">src/audio/audio_system.cpp</text>
</a>
</g>
</g>
<!-- Node3&#45;&gt;Node4 -->
<g id="edge4" class="edge"><title>Node3&#45;&gt;Node4</title>
<path fill="none" stroke="midnightblue" d="M197.458,-438.42C198.477,-424.856 201.329,-406.401 209,-392 217.089,-376.815 232.092,-363.615 242.764,-355.507"/>
<polygon fill="midnightblue" stroke="midnightblue" points="193.959,-438.308 196.967,-448.467 200.951,-438.65 193.959,-438.308"/>
</g>
<!-- Node5 -->
<g id="node5" class="node"><title>Node5</title>
<g id="a_node5"><a xlink:href="audio__system_8hpp.html" target="_top" xlink:title="Declaration of the AudioSystem class. ">
<polygon fill="white" stroke="black" points="384.5,-392.5 384.5,-411.5 535.5,-411.5 535.5,-392.5 384.5,-392.5"/>
<text text-anchor="middle" x="460" y="-399.5" font-family="Helvetica,sans-Serif" font-size="10.00">src/audio/audio_system.hpp</text>
</a>
</g>
</g>
<!-- Node3&#45;&gt;Node5 -->
<g id="edge5" class="edge"><title>Node3&#45;&gt;Node5</title>
<path fill="none" stroke="midnightblue" d="M248.579,-446.41C298.283,-436.204 372.529,-420.96 418.522,-411.516"/>
<polygon fill="midnightblue" stroke="midnightblue" points="247.765,-443.004 238.673,-448.444 249.173,-449.861 247.765,-443.004"/>
</g>
<!-- Node3&#45;&gt;Node7 -->
<g id="edge36" class="edge"><title>Node3&#45;&gt;Node7</title>
<path fill="none" stroke="midnightblue" d="M185.273,-439.989C169.027,-414.141 144.505,-364.931 171,-336 201.074,-303.161 496.047,-294.167 623.659,-291.804"/>
<polygon fill="midnightblue" stroke="midnightblue" points="182.362,-441.933 190.773,-448.374 188.215,-438.093 182.362,-441.933"/>
</g>
<!-- Node3&#45;&gt;Node16 -->
<g id="edge37" class="edge"><title>Node3&#45;&gt;Node16</title>
<path fill="none" stroke="midnightblue" d="M180.173,-441.257C172.704,-433.248 164.581,-422.911 160,-412 134.634,-351.589 138.25,-269.849 140.243,-243.535"/>
<polygon fill="midnightblue" stroke="midnightblue" points="177.747,-443.781 187.27,-448.424 182.721,-438.856 177.747,-443.781"/>
</g>
<!-- Node5&#45;&gt;Node4 -->
<g id="edge6" class="edge"><title>Node5&#45;&gt;Node4</title>
<path fill="none" stroke="midnightblue" d="M417.592,-389.829C378.886,-379.633 322.507,-364.782 287.331,-355.516"/>
<polygon fill="midnightblue" stroke="midnightblue" points="416.955,-393.281 427.517,-392.444 418.739,-386.512 416.955,-393.281"/>
</g>
<!-- Node5&#45;&gt;Node6 -->
<g id="edge7" class="edge"><title>Node5&#45;&gt;Node6</title>
<path fill="none" stroke="midnightblue" d="M523.32,-390.854C586.993,-380.651 684.057,-365.098 743.851,-355.516"/>
<polygon fill="midnightblue" stroke="midnightblue" points="522.719,-387.405 513.399,-392.444 523.826,-394.317 522.719,-387.405"/>
</g>
<!-- Node5&#45;&gt;Node12 -->
<g id="edge32" class="edge"><title>Node5&#45;&gt;Node12</title>
<path fill="none" stroke="midnightblue" d="M492.234,-388.943C527.987,-375.651 587.436,-353.795 639,-336 729.586,-304.739 763.807,-309.238 834,-244 860.697,-219.188 884,-215.447 884,-179 884,-179 884,-179 884,-121 884,-87.9763 873.033,-77.5392 848,-56 824.725,-35.9729 791.708,-24.4934 766.042,-18.1485"/>
<polygon fill="midnightblue" stroke="midnightblue" points="490.954,-385.684 482.804,-392.454 493.397,-392.244 490.954,-385.684"/>
</g>
<!-- Node5&#45;&gt;Node13 -->
<g id="edge33" class="edge"><title>Node5&#45;&gt;Node13</title>
<path fill="none" stroke="midnightblue" d="M450.013,-383.33C426.824,-341.322 369.453,-231.545 345,-132 340.134,-112.19 339.144,-88.1029 338.986,-75.547"/>
<polygon fill="midnightblue" stroke="midnightblue" points="446.969,-385.057 454.897,-392.086 453.082,-381.648 446.969,-385.057"/>
</g>
<!-- Node5&#45;&gt;Node16 -->
<g id="edge34" class="edge"><title>Node5&#45;&gt;Node16</title>
<path fill="none" stroke="midnightblue" d="M435.473,-387.627C411.086,-374.377 372.57,-353.576 339,-336 272.336,-301.097 192.348,-260.765 158.013,-243.526"/>
<polygon fill="midnightblue" stroke="midnightblue" points="433.936,-390.775 444.393,-392.479 437.281,-384.626 433.936,-390.775"/>
</g>
<!-- Node5&#45;&gt;Node19 -->
<g id="edge35" class="edge"><title>Node5&#45;&gt;Node19</title>
<path fill="none" stroke="midnightblue" d="M503.891,-389.972C555.571,-377 644.003,-354.843 720,-336 771.603,-323.205 831.43,-308.522 868.248,-299.503"/>
<polygon fill="midnightblue" stroke="midnightblue" points="502.907,-386.611 494.06,-392.44 504.611,-393.4 502.907,-386.611"/>
</g>
<!-- Node6&#45;&gt;Node7 -->
<g id="edge8" class="edge"><title>Node6&#45;&gt;Node7</title>
<path fill="none" stroke="midnightblue" d="M769.519,-332.096C748.034,-322.007 718.778,-308.27 700.137,-299.516"/>
<polygon fill="midnightblue" stroke="midnightblue" points="768.238,-335.361 778.778,-336.444 771.214,-329.025 768.238,-335.361"/>
</g>
<!-- Node6&#45;&gt;Node19 -->
<g id="edge31" class="edge"><title>Node6&#45;&gt;Node19</title>
<path fill="none" stroke="midnightblue" d="M823.056,-331.726C842.684,-321.727 869.028,-308.307 886.012,-299.655"/>
<polygon fill="midnightblue" stroke="midnightblue" points="821.352,-328.666 814.031,-336.324 824.53,-334.903 821.352,-328.666"/>
</g>
<!-- Node8 -->
<g id="node8" class="node"><title>Node8</title>
<g id="a_node8"><a xlink:href="cmd_8hpp.html" target="_top" xlink:title="Declaration of the CommandHandler class. ">
<polygon fill="white" stroke="black" points="628,-224.5 628,-243.5 704,-243.5 704,-224.5 628,-224.5"/>
<text text-anchor="middle" x="666" y="-231.5" font-family="Helvetica,sans-Serif" font-size="10.00">src/cmd.hpp</text>
</a>
</g>
</g>
<!-- Node7&#45;&gt;Node8 -->
<g id="edge9" class="edge"><title>Node7&#45;&gt;Node8</title>
<path fill="none" stroke="midnightblue" d="M676.488,-270.396C673.811,-261.362 670.722,-250.936 668.593,-243.751"/>
<polygon fill="midnightblue" stroke="midnightblue" points="673.161,-271.489 679.358,-280.083 679.873,-269.501 673.161,-271.489"/>
</g>
<!-- Node10 -->
<g id="node10" class="node"><title>Node10</title>
<g id="a_node10"><a xlink:href="io__core_8cpp.html" target="_top" xlink:title="Implementation of the non&#45;virtual aspects of the IoCore class. ">
<polygon fill="white" stroke="black" points="718,-56.5 718,-75.5 818,-75.5 818,-56.5 718,-56.5"/>
<text text-anchor="middle" x="768" y="-63.5" font-family="Helvetica,sans-Serif" font-size="10.00">src/io/io_core.cpp</text>
</a>
</g>
</g>
<!-- Node7&#45;&gt;Node10 -->
<g id="edge24" class="edge"><title>Node7&#45;&gt;Node10</title>
<path fill="none" stroke="midnightblue" d="M696.239,-272.599C718.526,-245.56 760.315,-188.93 772,-132 776.092,-112.065 772.452,-88.0284 769.93,-75.5138"/>
<polygon fill="midnightblue" stroke="midnightblue" points="693.516,-270.398 689.751,-280.301 698.87,-274.908 693.516,-270.398"/>
</g>
<!-- Node11 -->
<g id="node11" class="node"><title>Node11</title>
<g id="a_node11"><a xlink:href="io__core_8hpp.html" target="_top" xlink:title="Declaration of the IoCore class. ">
<polygon fill="white" stroke="black" points="478.5,-112.5 478.5,-131.5 579.5,-131.5 579.5,-112.5 478.5,-112.5"/>
<text text-anchor="middle" x="529" y="-119.5" font-family="Helvetica,sans-Serif" font-size="10.00">src/io/io_core.hpp</text>
</a>
</g>
</g>
<!-- Node7&#45;&gt;Node11 -->
<g id="edge25" class="edge"><title>Node7&#45;&gt;Node11</title>
<path fill="none" stroke="midnightblue" d="M613.685,-284.801C554.324,-279.558 474.825,-268.141 455,-244 423.432,-205.56 487.756,-152.446 516.298,-131.749"/>
<polygon fill="midnightblue" stroke="midnightblue" points="613.511,-288.299 623.77,-285.65 614.099,-281.324 613.511,-288.299"/>
</g>
<!-- Node7&#45;&gt;Node12 -->
<g id="edge26" class="edge"><title>Node7&#45;&gt;Node12</title>
<path fill="none" stroke="midnightblue" d="M732.649,-277.702C780.826,-263.613 846,-234.328 846,-179 846,-179 846,-179 846,-121 846,-90.9022 846.759,-78.7037 827,-56 810.877,-37.4745 785.611,-26.1927 764.51,-19.5584"/>
<polygon fill="midnightblue" stroke="midnightblue" points="731.655,-274.346 722.961,-280.401 733.534,-281.089 731.655,-274.346"/>
</g>
<!-- Node7&#45;&gt;Node13 -->
<g id="edge27" class="edge"><title>Node7&#45;&gt;Node13</title>
<path fill="none" stroke="midnightblue" d="M613.794,-287.765C563.674,-284.2 495.454,-273.618 443,-244 387.876,-212.874 380.743,-189.834 355,-132 346.493,-112.889 342.039,-88.5177 340.144,-75.7318"/>
<polygon fill="midnightblue" stroke="midnightblue" points="613.683,-291.265 623.885,-288.406 614.126,-284.279 613.683,-291.265"/>
</g>
<!-- Node7&#45;&gt;Node16 -->
<g id="edge28" class="edge"><title>Node7&#45;&gt;Node16</title>
<path fill="none" stroke="midnightblue" d="M613.762,-282.189C506.279,-271.46 299.451,-250.816 198.823,-240.772"/>
<polygon fill="midnightblue" stroke="midnightblue" points="613.549,-285.685 623.847,-283.195 614.244,-278.719 613.549,-285.685"/>
</g>
<!-- Node7&#45;&gt;Node17 -->
<g id="edge29" class="edge"><title>Node7&#45;&gt;Node17</title>
<path fill="none" stroke="midnightblue" d="M741.144,-278.664C799.539,-268.459 887.779,-253.039 942.267,-243.516"/>
<polygon fill="midnightblue" stroke="midnightblue" points="740.21,-275.274 730.962,-280.444 741.415,-282.17 740.21,-275.274"/>
</g>
<!-- Node18 -->
<g id="node18" class="node"><title>Node18</title>
<g id="a_node18"><a xlink:href="player__state_8cpp.html" target="_top" xlink:title="Implementation of the PlayerState class, and related Player methods. ">
<polygon fill="white" stroke="black" points="464,-224.5 464,-243.5 610,-243.5 610,-224.5 464,-224.5"/>
<text text-anchor="middle" x="537" y="-231.5" font-family="Helvetica,sans-Serif" font-size="10.00">src/player/player_state.cpp</text>
</a>
</g>
</g>
<!-- Node7&#45;&gt;Node18 -->
<g id="edge30" class="edge"><title>Node7&#45;&gt;Node18</title>
<path fill="none" stroke="midnightblue" d="M649.525,-276.906C622.264,-266.754 584.008,-252.506 559.868,-243.516"/>
<polygon fill="midnightblue" stroke="midnightblue" points="648.432,-280.233 659.024,-280.444 650.875,-273.674 648.432,-280.233"/>
</g>
<!-- Node9 -->
<g id="node9" class="node"><title>Node9</title>
<g id="a_node9"><a xlink:href="cmd_8cpp.html" target="_top" xlink:title="Implementation of the CommandHandler class. ">
<polygon fill="white" stroke="black" points="628.5,-168.5 628.5,-187.5 703.5,-187.5 703.5,-168.5 628.5,-168.5"/>
<text text-anchor="middle" x="666" y="-175.5" font-family="Helvetica,sans-Serif" font-size="10.00">src/cmd.cpp</text>
</a>
</g>
</g>
<!-- Node8&#45;&gt;Node9 -->
<g id="edge10" class="edge"><title>Node8&#45;&gt;Node9</title>
<path fill="none" stroke="midnightblue" d="M666,-213.805C666,-204.91 666,-194.78 666,-187.751"/>
<polygon fill="midnightblue" stroke="midnightblue" points="662.5,-214.083 666,-224.083 669.5,-214.083 662.5,-214.083"/>
</g>
<!-- Node8&#45;&gt;Node10 -->
<g id="edge11" class="edge"><title>Node8&#45;&gt;Node10</title>
<path fill="none" stroke="midnightblue" d="M691.961,-219.284C704.395,-211.561 718.591,-200.875 728,-188 754.501,-151.738 764.125,-96.9005 766.974,-75.7486"/>
<polygon fill="midnightblue" stroke="midnightblue" points="690.155,-216.285 683.311,-224.373 693.705,-222.318 690.155,-216.285"/>
</g>
<!-- Node8&#45;&gt;Node11 -->
<g id="edge12" class="edge"><title>Node8&#45;&gt;Node11</title>
<path fill="none" stroke="midnightblue" d="M618.082,-223.799C569.043,-213.899 498.913,-198.205 491,-188 476.502,-169.303 501.501,-144.551 517.393,-131.654"/>
<polygon fill="midnightblue" stroke="midnightblue" points="617.398,-227.231 627.89,-225.759 618.769,-220.367 617.398,-227.231"/>
</g>
<!-- Node8&#45;&gt;Node12 -->
<g id="edge22" class="edge"><title>Node8&#45;&gt;Node12</title>
<path fill="none" stroke="midnightblue" d="M617.872,-222.456C565.307,-210.748 487.872,-192.854 483,-188 458.667,-163.761 449.816,-140.489 469,-112 518.034,-39.1853 628.275,-18.8589 687.536,-13.1894"/>
<polygon fill="midnightblue" stroke="midnightblue" points="617.178,-225.887 627.699,-224.638 618.696,-219.054 617.178,-225.887"/>
</g>
<!-- Node8&#45;&gt;Node13 -->
<g id="edge23" class="edge"><title>Node8&#45;&gt;Node13</title>
<path fill="none" stroke="midnightblue" d="M617.765,-223.911C528.097,-209.539 492.542,-235.52 420,-188 376.439,-159.464 350.535,-98.5032 342.078,-75.7787"/>
<polygon fill="midnightblue" stroke="midnightblue" points="617.336,-227.389 627.787,-225.649 618.531,-220.492 617.336,-227.389"/>
</g>
<!-- Node14 -->
<g id="node14" class="node"><title>Node14</title>
<g id="a_node14"><a xlink:href="tokeniser_8hpp.html" target="_top" xlink:title="Declaration of the Tokeniser class. ">
<polygon fill="white" stroke="black" points="500,-168.5 500,-187.5 610,-187.5 610,-168.5 500,-168.5"/>
<text text-anchor="middle" x="555" y="-175.5" font-family="Helvetica,sans-Serif" font-size="10.00">src/io/tokeniser.hpp</text>
</a>
</g>
</g>
<!-- Node8&#45;&gt;Node14 -->
<g id="edge18" class="edge"><title>Node8&#45;&gt;Node14</title>
<path fill="none" stroke="midnightblue" d="M638.995,-219.862C618.412,-209.849 590.655,-196.346 572.79,-187.655"/>
<polygon fill="midnightblue" stroke="midnightblue" points="637.642,-223.097 648.166,-224.324 640.705,-216.802 637.642,-223.097"/>
</g>
<!-- Node15 -->
<g id="node15" class="node"><title>Node15</title>
<g id="a_node15"><a xlink:href="tokeniser_8cpp.html" target="_top" xlink:title="Definition of the Tokeniser class. ">
<polygon fill="white" stroke="black" points="624.5,-112.5 624.5,-131.5 733.5,-131.5 733.5,-112.5 624.5,-112.5"/>
<text text-anchor="middle" x="679" y="-119.5" font-family="Helvetica,sans-Serif" font-size="10.00">src/io/tokeniser.cpp</text>
</a>
</g>
</g>
<!-- Node8&#45;&gt;Node15 -->
<g id="edge21" class="edge"><title>Node8&#45;&gt;Node15</title>
<path fill="none" stroke="midnightblue" d="M687.713,-218.066C697.056,-210.308 706.974,-199.947 712,-188 720.735,-167.235 701.369,-143.922 688.757,-131.643"/>
<polygon fill="midnightblue" stroke="midnightblue" points="685.561,-215.306 679.787,-224.189 689.84,-220.845 685.561,-215.306"/>
</g>
<!-- Node11&#45;&gt;Node10 -->
<g id="edge13" class="edge"><title>Node11&#45;&gt;Node10</title>
<path fill="none" stroke="midnightblue" d="M576.724,-110.217C621.885,-100.013 688.773,-84.9006 730.307,-75.5164"/>
<polygon fill="midnightblue" stroke="midnightblue" points="575.853,-106.826 566.87,-112.444 577.396,-113.654 575.853,-106.826"/>
</g>
<!-- Node11&#45;&gt;Node11 -->
<g id="edge14" class="edge"><title>Node11&#45;&gt;Node11</title>
<path fill="none" stroke="midnightblue" d="M568.318,-132.432C584.173,-133.04 597.5,-129.563 597.5,-122 597.5,-112.867 578.066,-109.692 558.215,-112.475"/>
<polygon fill="midnightblue" stroke="midnightblue" points="568.488,-128.933 558.215,-131.525 567.862,-135.905 568.488,-128.933"/>
</g>
<!-- Node11&#45;&gt;Node12 -->
<g id="edge15" class="edge"><title>Node11&#45;&gt;Node12</title>
<path fill="none" stroke="midnightblue" d="M553.397,-107.446C594.705,-84.4973 677.265,-38.6307 711.535,-19.5914"/>
<polygon fill="midnightblue" stroke="midnightblue" points="551.579,-104.452 544.537,-112.368 554.978,-110.572 551.579,-104.452"/>
</g>
<!-- Node11&#45;&gt;Node13 -->
<g id="edge16" class="edge"><title>Node11&#45;&gt;Node13</title>
<path fill="none" stroke="midnightblue" d="M489.236,-109.699C453.377,-99.507 401.429,-84.7429 368.965,-75.5164"/>
<polygon fill="midnightblue" stroke="midnightblue" points="488.318,-113.076 498.894,-112.444 490.232,-106.343 488.318,-113.076"/>
</g>
<!-- Node13&#45;&gt;Node12 -->
<g id="edge17" class="edge"><title>Node13&#45;&gt;Node12</title>
<path fill="none" stroke="midnightblue" d="M388.784,-58.0714C466.976,-47.189 616.96,-26.3149 687.934,-16.437"/>
<polygon fill="midnightblue" stroke="midnightblue" points="388.121,-54.6297 378.699,-59.4748 389.086,-61.5629 388.121,-54.6297"/>
</g>
<!-- Node14&#45;&gt;Node11 -->
<g id="edge19" class="edge"><title>Node14&#45;&gt;Node11</title>
<path fill="none" stroke="midnightblue" d="M546.325,-158.983C541.912,-149.817 536.748,-139.092 533.213,-131.751"/>
<polygon fill="midnightblue" stroke="midnightblue" points="543.215,-160.591 550.707,-168.083 549.522,-157.555 543.215,-160.591"/>
</g>
<!-- Node14&#45;&gt;Node15 -->
<g id="edge20" class="edge"><title>Node14&#45;&gt;Node15</title>
<path fill="none" stroke="midnightblue" d="M584.007,-164.368C607.229,-154.255 639.163,-140.349 659.444,-131.516"/>
<polygon fill="midnightblue" stroke="midnightblue" points="582.419,-161.242 574.648,-168.444 585.214,-167.66 582.419,-161.242"/>
</g>
<!-- Node20&#45;&gt;Node2 -->
<g id="edge45" class="edge"><title>Node20&#45;&gt;Node2</title>
<path fill="none" stroke="midnightblue" d="M456.723,-505.957C396.79,-499.379 322.853,-487.569 299,-468 281.523,-453.661 275.717,-425.845 273.849,-411.706"/>
<polygon fill="midnightblue" stroke="midnightblue" points="456.657,-509.47 466.971,-507.047 457.397,-502.509 456.657,-509.47"/>
</g>
<!-- Node20&#45;&gt;Node3 -->
<g id="edge39" class="edge"><title>Node20&#45;&gt;Node3</title>
<path fill="none" stroke="midnightblue" d="M476.364,-502.854C411.369,-492.651 312.289,-477.098 251.253,-467.516"/>
<polygon fill="midnightblue" stroke="midnightblue" points="476.07,-506.35 486.492,-504.444 477.156,-499.435 476.07,-506.35"/>
</g>
<!-- Node20&#45;&gt;Node4 -->
<g id="edge48" class="edge"><title>Node20&#45;&gt;Node4</title>
<path fill="none" stroke="midnightblue" d="M456.581,-509.603C343.409,-504.167 154.174,-491.637 133,-468 93.2913,-423.671 189.563,-374.949 233.993,-355.602"/>
<polygon fill="midnightblue" stroke="midnightblue" points="456.46,-513.101 466.613,-510.076 456.789,-506.109 456.46,-513.101"/>
</g>
<!-- Node20&#45;&gt;Node5 -->
<g id="edge49" class="edge"><title>Node20&#45;&gt;Node5</title>
<path fill="none" stroke="midnightblue" d="M574.848,-500.61C602.018,-488.725 633.171,-469.457 617,-448 604.5,-431.413 554.891,-419.074 514.739,-411.552"/>
<polygon fill="midnightblue" stroke="midnightblue" points="573.38,-497.429 565.487,-504.497 576.065,-503.894 573.38,-497.429"/>
</g>
<!-- Node21 -->
<g id="node21" class="node"><title>Node21</title>
<g id="a_node21"><a xlink:href="audio__sink_8hpp.html" target="_top" xlink:title="Declaration of the AudioSink class. ">
<polygon fill="white" stroke="black" points="474,-448.5 474,-467.5 608,-467.5 608,-448.5 474,-448.5"/>
<text text-anchor="middle" x="541" y="-455.5" font-family="Helvetica,sans-Serif" font-size="10.00">src/audio/audio_sink.hpp</text>
</a>
</g>
</g>
<!-- Node20&#45;&gt;Node21 -->
<g id="edge40" class="edge"><title>Node20&#45;&gt;Node21</title>
<path fill="none" stroke="midnightblue" d="M541,-493.805C541,-484.91 541,-474.78 541,-467.751"/>
<polygon fill="midnightblue" stroke="midnightblue" points="537.5,-494.083 541,-504.083 544.5,-494.083 537.5,-494.083"/>
</g>
<!-- Node22 -->
<g id="node22" class="node"><title>Node22</title>
<g id="a_node22"><a xlink:href="audio__sink_8cpp.html" target="_top" xlink:title="Implementation of the AudioSink class. ">
<polygon fill="white" stroke="black" points="554,-392.5 554,-411.5 688,-411.5 688,-392.5 554,-392.5"/>
<text text-anchor="middle" x="621" y="-399.5" font-family="Helvetica,sans-Serif" font-size="10.00">src/audio/audio_sink.cpp</text>
</a>
</g>
</g>
<!-- Node20&#45;&gt;Node22 -->
<g id="edge46" class="edge"><title>Node20&#45;&gt;Node22</title>
<path fill="none" stroke="midnightblue" d="M602.819,-501.34C621.086,-494.704 639.094,-484.301 650,-468 662.368,-449.513 643.006,-424.889 630.42,-411.897"/>
<polygon fill="midnightblue" stroke="midnightblue" points="601.684,-498.028 593.279,-504.478 603.872,-504.678 601.684,-498.028"/>
</g>
<!-- Node23 -->
<g id="node23" class="node"><title>Node23</title>
<g id="a_node23"><a xlink:href="audio__source_8cpp.html" target="_top" xlink:title="Implementation of the AudioSource class. ">
<polygon fill="white" stroke="black" points="308.5,-448.5 308.5,-467.5 455.5,-467.5 455.5,-448.5 308.5,-448.5"/>
<text text-anchor="middle" x="382" y="-455.5" font-family="Helvetica,sans-Serif" font-size="10.00">src/audio/audio_source.cpp</text>
</a>
</g>
</g>
<!-- Node20&#45;&gt;Node23 -->
<g id="edge47" class="edge"><title>Node20&#45;&gt;Node23</title>
<path fill="none" stroke="midnightblue" d="M506.173,-501.172C476.234,-491.004 433.779,-476.585 407.076,-467.516"/>
<polygon fill="midnightblue" stroke="midnightblue" points="505.212,-504.542 515.806,-504.444 507.463,-497.914 505.212,-504.542"/>
</g>
<!-- Node20&#45;&gt;Node24 -->
<g id="edge50" class="edge"><title>Node20&#45;&gt;Node24</title>
<path fill="none" stroke="midnightblue" d="M577.131,-501.241C645.526,-478.983 792.435,-431.172 852.543,-411.61"/>
<polygon fill="midnightblue" stroke="midnightblue" points="575.667,-498.037 567.241,-504.46 577.833,-504.693 575.667,-498.037"/>
</g>
<!-- Node21&#45;&gt;Node2 -->
<g id="edge41" class="edge"><title>Node21&#45;&gt;Node2</title>
<path fill="none" stroke="midnightblue" d="M488.44,-446.41C437.791,-436.204 362.133,-420.96 315.267,-411.516"/>
<polygon fill="midnightblue" stroke="midnightblue" points="488.04,-449.899 498.535,-448.444 489.423,-443.037 488.04,-449.899"/>
</g>
<!-- Node21&#45;&gt;Node4 -->
<g id="edge43" class="edge"><title>Node21&#45;&gt;Node4</title>
<path fill="none" stroke="midnightblue" d="M489.236,-446.229C455.971,-438.517 412.184,-426.876 375,-412 369.61,-409.844 302.132,-372.887 270.797,-355.683"/>
<polygon fill="midnightblue" stroke="midnightblue" points="488.675,-449.691 499.202,-448.495 490.227,-442.865 488.675,-449.691"/>
</g>
<!-- Node21&#45;&gt;Node5 -->
<g id="edge44" class="edge"><title>Node21&#45;&gt;Node5</title>
<path fill="none" stroke="midnightblue" d="M519.433,-442.622C504.636,-432.757 485.488,-419.992 472.982,-411.655"/>
<polygon fill="midnightblue" stroke="midnightblue" points="517.724,-445.689 527.986,-448.324 521.607,-439.865 517.724,-445.689"/>
</g>
<!-- Node21&#45;&gt;Node22 -->
<g id="edge42" class="edge"><title>Node21&#45;&gt;Node22</title>
<path fill="none" stroke="midnightblue" d="M562.301,-442.622C576.915,-432.757 595.827,-419.992 608.179,-411.655"/>
<polygon fill="midnightblue" stroke="midnightblue" points="560.184,-439.828 553.853,-448.324 564.1,-445.63 560.184,-439.828"/>
</g>
<!-- Node24&#45;&gt;Node6 -->
<g id="edge51" class="edge"><title>Node24&#45;&gt;Node6</title>
<path fill="none" stroke="midnightblue" d="M857.167,-386.622C842.187,-376.757 822.803,-363.992 810.142,-355.655"/>
<polygon fill="midnightblue" stroke="midnightblue" points="855.549,-389.747 865.825,-392.324 859.399,-383.901 855.549,-389.747"/>
</g>
<!-- Node24&#45;&gt;Node7 -->
<g id="edge52" class="edge"><title>Node24&#45;&gt;Node7</title>
<path fill="none" stroke="midnightblue" d="M882.669,-381.986C884.277,-367.656 883.796,-348.416 873,-336 855.731,-316.141 789.738,-303.862 740.123,-297.247"/>
<polygon fill="midnightblue" stroke="midnightblue" points="879.159,-381.784 881.09,-392.201 886.077,-382.854 879.159,-381.784"/>
</g>
<!-- Node24&#45;&gt;Node17 -->
<g id="edge54" class="edge"><title>Node24&#45;&gt;Node17</title>
<path fill="none" stroke="midnightblue" d="M899.69,-386.296C922.916,-368.6 959.849,-336.652 979,-300 988.672,-281.489 990.657,-256.445 990.996,-243.514"/>
<polygon fill="midnightblue" stroke="midnightblue" points="897.467,-383.588 891.526,-392.36 901.64,-389.208 897.467,-383.588"/>
</g>
<!-- Node24&#45;&gt;Node19 -->
<g id="edge53" class="edge"><title>Node24&#45;&gt;Node19</title>
<path fill="none" stroke="midnightblue" d="M892.51,-384.301C898.168,-376.253 904.098,-366.156 907,-356 912.591,-336.432 908.342,-312.247 905.327,-299.611"/>
<polygon fill="midnightblue" stroke="midnightblue" points="889.624,-382.315 886.412,-392.411 895.219,-386.521 889.624,-382.315"/>
</g>
</g>
</svg>
        <g id="navigator" transform="translate(0 0)" fill="#404254">
                <rect fill="#f2f5e9" fill-opacity="0.5" stroke="#606060" stroke-width=".5" x="0" y="0" width="60" height="60"/>
                <use id="zoomplus" xlink:href="#zoomPlus" x="17" y="9" onmousedown="handleZoom(evt,'in')"/>
                <use id="zoomminus" xlink:href="#zoomMin" x="42" y="9" onmousedown="handleZoom(evt,'out')"/>
                <use id="reset" xlink:href="#resetDef" x="30" y="36" onmousedown="handleReset()"/>
                <g id="arrowUp" xlink:href="#dirArrow" transform="translate(30 24)" onmousedown="handlePan(0,-1)">
                  <use xlink:href="#rim" fill="#404040">
                        <set attributeName="fill" to="#808080" begin="arrowUp.mouseover" end="arrowUp.mouseout"/>
                  </use>
                  <path fill="none" stroke="white" stroke-width="1.5" d="M0,-3.0v7 M-2.5,-0.5L0,-3.0L2.5,-0.5"/>
                </g>
                <g id="arrowRight" xlink:href="#dirArrow" transform="rotate(90) translate(36 -43)" onmousedown="handlePan(1,0)">
                  <use xlink:href="#rim" fill="#404040">
                        <set attributeName="fill" to="#808080" begin="arrowRight.mouseover" end="arrowRight.mouseout"/>
                  </use>
                  <path fill="none" stroke="white" stroke-width="1.5" d="M0,-3.0v7 M-2.5,-0.5L0,-3.0L2.5,-0.5"/>
                </g>
                <g id="arrowDown" xlink:href="#dirArrow" transform="rotate(180) translate(-30 -48)" onmousedown="handlePan(0,1)">
                  <use xlink:href="#rim" fill="#404040">
                        <set attributeName="fill" to="#808080" begin="arrowDown.mouseover" end="arrowDown.mouseout"/>
                  </use>
                  <path fill="none" stroke="white" stroke-width="1.5" d="M0,-3.0v7 M-2.5,-0.5L0,-3.0L2.5,-0.5"/>
                </g>
                <g id="arrowLeft" xlink:href="#dirArrow" transform="rotate(270) translate(-36 17)" onmousedown="handlePan(-1,0)">
                  <use xlink:href="#rim" fill="#404040">
                        <set attributeName="fill" to="#808080" begin="arrowLeft.mouseover" end="arrowLeft.mouseout"/>
                  </use>
                  <path fill="none" stroke="white" stroke-width="1.5" d="M0,-3.0v7 M-2.5,-0.5L0,-3.0L2.5,-0.5"/>
                </g>
        </g>
        <svg viewBox="0 0 15 15" width="100%" height="30px" preserveAspectRatio="xMaxYMin meet">
         <g id="arrow_out" transform="scale(0.3 0.3)">
          <a xlink:href="time__parser_8hpp__dep__incl_org.svg" target="_base">
           <rect id="button" ry="5" rx="5" y="6" x="6" height="38" width="38"
                fill="#f2f5e9" fill-opacity="0.5" stroke="#606060" stroke-width="1.0"/>
           <path id="arrow"
             d="M 11.500037,31.436501 C 11.940474,20.09759 22.043105,11.32322 32.158766,21.979434 L 37.068811,17.246167 C 37.068811,17.246167 37.088388,32 37.088388,32 L 22.160133,31.978069 C 22.160133,31.978069 26.997745,27.140456 26.997745,27.140456 C 18.528582,18.264221 13.291696,25.230495 11.500037,31.436501 z"
             style="fill:#404040;"/>
          </a>
         </g>
        </svg>
</svg>
