<?xml version="1.0" encoding="UTF-8" standalone="no"?>
<!DOCTYPE svg PUBLIC "-//W3C//DTD SVG 1.1//EN"
 "http://www.w3.org/Graphics/SVG/1.1/DTD/svg11.dtd">
<!-- Generated by graphviz version 2.38.0 (20140413.2041)
 -->
<!-- Title: src/io/tokeniser.hpp Pages: 1 -->
<svg width="1751pt" height="487pt"
 viewBox="0.00 0.00 1751.00 487.00" xmlns="http://www.w3.org/2000/svg" xmlns:xlink="http://www.w3.org/1999/xlink">
<g id="graph0" class="graph" transform="scale(1 1) rotate(0) translate(4 483)">
<title>src/io/tokeniser.hpp</title>
<polygon fill="white" stroke="none" points="-4,4 -4,-483 1747,-483 1747,4 -4,4"/>
<!-- Node1 -->
<g id="node1" class="node"><title>Node1</title>
<polygon fill="#bfbfbf" stroke="black" points="1378.5,-459.5 1378.5,-478.5 1487.5,-478.5 1487.5,-459.5 1378.5,-459.5"/>
<text text-anchor="middle" x="1433" y="-466.5" font-family="Helvetica,sans-Serif" font-size="10.00">src/io/tokeniser.hpp</text>
</g>
<!-- Node2 -->
<g id="node2" class="node"><title>Node2</title>
<g id="a_node2"><a xlink:href="cmd_8hpp.html" target="_top" xlink:title="Declaration of the CommandHandler class. ">
<polygon fill="white" stroke="black" points="1303,-403.5 1303,-422.5 1367,-422.5 1367,-403.5 1303,-403.5"/>
<text text-anchor="middle" x="1335" y="-410.5" font-family="Helvetica,sans-Serif" font-size="10.00">../cmd.hpp</text>
</a>
</g>
</g>
<!-- Node1&#45;&gt;Node2 -->
<g id="edge1" class="edge"><title>Node1&#45;&gt;Node2</title>
<path fill="none" stroke="midnightblue" d="M1417.25,-459.324C1401.68,-450.743 1377.62,-437.486 1359.54,-427.522"/>
<polygon fill="midnightblue" stroke="midnightblue" points="1361.15,-424.415 1350.71,-422.655 1357.78,-430.546 1361.15,-424.415"/>
</g>
<!-- Node9 -->
<g id="node9" class="node"><title>Node9</title>
<g id="a_node9"><a xlink:href="io__response_8hpp.html" target="_top" xlink:title="Declaration of classes pertaining to responses to the client. ">
<polygon fill="white" stroke="black" points="1436.5,-123.5 1436.5,-142.5 1543.5,-142.5 1543.5,-123.5 1436.5,-123.5"/>
<text text-anchor="middle" x="1490" y="-130.5" font-family="Helvetica,sans-Serif" font-size="10.00">io/io_response.hpp</text>
</a>
</g>
</g>
<!-- Node1&#45;&gt;Node9 -->
<g id="edge79" class="edge"><title>Node1&#45;&gt;Node9</title>
<path fill="none" stroke="midnightblue" d="M1449.79,-459.318C1478.04,-443.374 1532,-406.559 1532,-358 1532,-358 1532,-358 1532,-244 1532,-209.412 1513.65,-172.492 1501.21,-151.432"/>
<polygon fill="midnightblue" stroke="midnightblue" points="1504.06,-149.38 1495.84,-142.692 1498.09,-153.045 1504.06,-149.38"/>
</g>
<!-- Node3 -->
<g id="node3" class="node"><title>Node3</title>
<polygon fill="white" stroke="#bfbfbf" points="1695.5,-62 1695.5,-81 1732.5,-81 1732.5,-62 1695.5,-62"/>
<text text-anchor="middle" x="1714" y="-69" font-family="Helvetica,sans-Serif" font-size="10.00">map</text>
</g>
<!-- Node2&#45;&gt;Node3 -->
<g id="edge2" class="edge"><title>Node2&#45;&gt;Node3</title>
<path fill="none" stroke="midnightblue" d="M1367.02,-410.26C1463.2,-404.168 1743,-379.764 1743,-302 1743,-302 1743,-302 1743,-188 1743,-152.643 1730.06,-112.982 1721.47,-90.5454"/>
<polygon fill="midnightblue" stroke="midnightblue" points="1724.62,-89.0076 1717.67,-81.0092 1718.12,-91.5947 1724.62,-89.0076"/>
</g>
<!-- Node4 -->
<g id="node4" class="node"><title>Node4</title>
<polygon fill="white" stroke="#bfbfbf" points="218,-123.5 218,-142.5 272,-142.5 272,-123.5 218,-123.5"/>
<text text-anchor="middle" x="245" y="-130.5" font-family="Helvetica,sans-Serif" font-size="10.00">memory</text>
</g>
<!-- Node2&#45;&gt;Node4 -->
<g id="edge3" class="edge"><title>Node2&#45;&gt;Node4</title>
<path fill="none" stroke="midnightblue" d="M1302.93,-411.823C1192.21,-410.877 815.901,-404.892 508,-367 356.604,-348.368 171,-454.538 171,-302 171,-302 171,-302 171,-244 171,-204.61 204.07,-168.726 225.996,-149.264"/>
<polygon fill="midnightblue" stroke="midnightblue" points="228.427,-151.79 233.761,-142.636 223.883,-146.466 228.427,-151.79"/>
</g>
<!-- Node5 -->
<g id="node5" class="node"><title>Node5</title>
<polygon fill="white" stroke="#bfbfbf" points="1220,-62 1220,-81 1266,-81 1266,-62 1220,-62"/>
<text text-anchor="middle" x="1243" y="-69" font-family="Helvetica,sans-Serif" font-size="10.00">vector</text>
</g>
<!-- Node2&#45;&gt;Node5 -->
<g id="edge4" class="edge"><title>Node2&#45;&gt;Node5</title>
<path fill="none" stroke="midnightblue" d="M1302.55,-412.121C1240.89,-410.325 1108.44,-396.24 1058,-311 1003.17,-218.345 1155.5,-120.796 1217.8,-85.886"/>
<polygon fill="midnightblue" stroke="midnightblue" points="1219.57,-88.9056 1226.64,-81.0141 1216.19,-82.7748 1219.57,-88.9056"/>
</g>
<!-- Node6 -->
<g id="node6" class="node"><title>Node6</title>
<g id="a_node6"><a xlink:href="cmd__result_8hpp.html" target="_top" xlink:title="Declaration of the CommandResult class. ">
<polygon fill="white" stroke="black" points="1284,-179.5 1284,-198.5 1372,-198.5 1372,-179.5 1284,-179.5"/>
<text text-anchor="middle" x="1328" y="-186.5" font-family="Helvetica,sans-Serif" font-size="10.00">cmd_result.hpp</text>
</a>
</g>
</g>
<!-- Node2&#45;&gt;Node6 -->
<g id="edge5" class="edge"><title>Node2&#45;&gt;Node6</title>
<path fill="none" stroke="midnightblue" d="M1334.73,-403.297C1333.7,-370.633 1330.05,-254.866 1328.6,-208.957"/>
<polygon fill="midnightblue" stroke="midnightblue" points="1332.09,-208.768 1328.28,-198.884 1325.1,-208.989 1332.09,-208.768"/>
</g>
<!-- Node14 -->
<g id="node14" class="node"><title>Node14</title>
<g id="a_node14"><a xlink:href="player_8hpp.html" target="_top" xlink:title="Declaration of the Player class, and associated types. ">
<polygon fill="white" stroke="black" points="1169,-347.5 1169,-366.5 1267,-366.5 1267,-347.5 1169,-347.5"/>
<text text-anchor="middle" x="1218" y="-354.5" font-family="Helvetica,sans-Serif" font-size="10.00">player/player.hpp</text>
</a>
</g>
</g>
<!-- Node2&#45;&gt;Node14 -->
<g id="edge18" class="edge"><title>Node2&#45;&gt;Node14</title>
<path fill="none" stroke="midnightblue" d="M1316.46,-403.444C1297.38,-394.636 1267.43,-380.812 1245.56,-370.722"/>
<polygon fill="midnightblue" stroke="midnightblue" points="1247,-367.529 1236.45,-366.516 1244.07,-373.885 1247,-367.529"/>
</g>
<!-- Node6&#45;&gt;Node5 -->
<g id="edge8" class="edge"><title>Node6&#45;&gt;Node5</title>
<path fill="none" stroke="midnightblue" d="M1327.01,-179.279C1325.17,-166.075 1320.21,-140.682 1308,-123 1297.54,-107.856 1281.16,-95.1683 1267.45,-86.2982"/>
<polygon fill="midnightblue" stroke="midnightblue" points="1269.27,-83.3083 1258.92,-81.0331 1265.59,-89.2646 1269.27,-83.3083"/>
</g>
<!-- Node7 -->
<g id="node7" class="node"><title>Node7</title>
<polygon fill="white" stroke="#bfbfbf" points="1118.5,-0.5 1118.5,-19.5 1165.5,-19.5 1165.5,-0.5 1118.5,-0.5"/>
<text text-anchor="middle" x="1142" y="-7.5" font-family="Helvetica,sans-Serif" font-size="10.00">cstdint</text>
</g>
<!-- Node6&#45;&gt;Node7 -->
<g id="edge6" class="edge"><title>Node6&#45;&gt;Node7</title>
<path fill="none" stroke="midnightblue" d="M1328.48,-179.218C1329.25,-155.799 1328.01,-91.2516 1294,-56 1263,-23.8727 1210.25,-14.3924 1175.77,-11.758"/>
<polygon fill="midnightblue" stroke="midnightblue" points="1175.89,-8.25907 1165.7,-11.1427 1175.47,-15.246 1175.89,-8.25907"/>
</g>
<!-- Node8 -->
<g id="node8" class="node"><title>Node8</title>
<polygon fill="white" stroke="#bfbfbf" points="826.5,-62 826.5,-81 869.5,-81 869.5,-62 826.5,-62"/>
<text text-anchor="middle" x="848" y="-69" font-family="Helvetica,sans-Serif" font-size="10.00">string</text>
</g>
<!-- Node6&#45;&gt;Node8 -->
<g id="edge7" class="edge"><title>Node6&#45;&gt;Node8</title>
<path fill="none" stroke="midnightblue" d="M1319.26,-179.402C1303.91,-164.893 1270.44,-135.871 1236,-123 1086.21,-67.0176 1031.9,-130.458 878,-87 876.121,-86.4694 874.216,-85.8267 872.325,-85.1107"/>
<polygon fill="midnightblue" stroke="midnightblue" points="873.728,-81.9041 863.163,-81.0989 870.92,-88.3163 873.728,-81.9041"/>
</g>
<!-- Node6&#45;&gt;Node9 -->
<g id="edge9" class="edge"><title>Node6&#45;&gt;Node9</title>
<path fill="none" stroke="midnightblue" d="M1353.67,-179.444C1380.92,-170.359 1424.18,-155.939 1454.65,-145.783"/>
<polygon fill="midnightblue" stroke="midnightblue" points="1456.07,-148.999 1464.45,-142.516 1453.86,-142.358 1456.07,-148.999"/>
</g>
<!-- Node9&#45;&gt;Node3 -->
<g id="edge11" class="edge"><title>Node9&#45;&gt;Node3</title>
<path fill="none" stroke="midnightblue" d="M1522.09,-123.475C1565.92,-111.833 1643.81,-91.1433 1685.62,-80.0395"/>
<polygon fill="midnightblue" stroke="midnightblue" points="1686.66,-83.3844 1695.42,-77.4344 1684.86,-76.619 1686.66,-83.3844"/>
</g>
<!-- Node9&#45;&gt;Node5 -->
<g id="edge14" class="edge"><title>Node9&#45;&gt;Node5</title>
<path fill="none" stroke="midnightblue" d="M1454.61,-123.475C1406.87,-111.974 1322.46,-91.6408 1275.98,-80.4452"/>
<polygon fill="midnightblue" stroke="midnightblue" points="1276.66,-77.0089 1266.12,-78.0696 1275.02,-83.8143 1276.66,-77.0089"/>
</g>
<!-- Node9&#45;&gt;Node7 -->
<g id="edge10" class="edge"><title>Node9&#45;&gt;Node7</title>
<path fill="none" stroke="midnightblue" d="M1484.97,-123.181C1475.17,-106.901 1451.83,-72.301 1422,-56 1380.05,-33.0761 1240.63,-19.0371 1175.75,-13.5941"/>
<polygon fill="midnightblue" stroke="midnightblue" points="1175.89,-10.0939 1165.64,-12.7649 1175.32,-17.0705 1175.89,-10.0939"/>
</g>
<!-- Node9&#45;&gt;Node8 -->
<g id="edge13" class="edge"><title>Node9&#45;&gt;Node8</title>
<path fill="none" stroke="midnightblue" d="M1436.42,-129.213C1297.2,-121.81 931.158,-101.244 878,-87 876.072,-86.4834 874.119,-85.8428 872.183,-85.1208"/>
<polygon fill="midnightblue" stroke="midnightblue" points="873.397,-81.8317 862.832,-81.032 870.592,-88.2453 873.397,-81.8317"/>
</g>
<!-- Node10 -->
<g id="node10" class="node"><title>Node10</title>
<polygon fill="white" stroke="#bfbfbf" points="1565.5,-62 1565.5,-81 1620.5,-81 1620.5,-62 1565.5,-62"/>
<text text-anchor="middle" x="1593" y="-69" font-family="Helvetica,sans-Serif" font-size="10.00">ostream</text>
</g>
<!-- Node9&#45;&gt;Node10 -->
<g id="edge12" class="edge"><title>Node9&#45;&gt;Node10</title>
<path fill="none" stroke="midnightblue" d="M1504.76,-123.475C1521.66,-113.711 1549.58,-97.5807 1569.49,-86.0808"/>
<polygon fill="midnightblue" stroke="midnightblue" points="1571.36,-89.0419 1578.27,-81.0091 1567.86,-82.9805 1571.36,-89.0419"/>
</g>
<!-- Node11 -->
<g id="node11" class="node"><title>Node11</title>
<g id="a_node11"><a xlink:href="errors_8hpp.html" target="_top" xlink:title="Declarations of the playd Error exception set. ">
<polygon fill="white" stroke="black" points="1474.5,-62 1474.5,-81 1547.5,-81 1547.5,-62 1474.5,-62"/>
<text text-anchor="middle" x="1511" y="-69" font-family="Helvetica,sans-Serif" font-size="10.00">../errors.hpp</text>
</a>
</g>
</g>
<!-- Node9&#45;&gt;Node11 -->
<g id="edge15" class="edge"><title>Node9&#45;&gt;Node11</title>
<path fill="none" stroke="midnightblue" d="M1493.01,-123.475C1496.03,-114.904 1500.79,-101.427 1504.65,-90.483"/>
<polygon fill="midnightblue" stroke="midnightblue" points="1507.97,-91.6039 1508,-81.0091 1501.37,-89.2741 1507.97,-91.6039"/>
</g>
<!-- Node12 -->
<g id="node12" class="node"><title>Node12</title>
<polygon fill="white" stroke="#bfbfbf" points="1445.5,-0.5 1445.5,-19.5 1502.5,-19.5 1502.5,-0.5 1445.5,-0.5"/>
<text text-anchor="middle" x="1474" y="-7.5" font-family="Helvetica,sans-Serif" font-size="10.00">iostream</text>
</g>
<!-- Node11&#45;&gt;Node12 -->
<g id="edge16" class="edge"><title>Node11&#45;&gt;Node12</title>
<path fill="none" stroke="midnightblue" d="M1505.7,-61.9751C1500.26,-53.2268 1491.64,-39.3691 1484.76,-28.3093"/>
<polygon fill="midnightblue" stroke="midnightblue" points="1487.54,-26.1528 1479.29,-19.5091 1481.6,-29.8494 1487.54,-26.1528"/>
</g>
<!-- Node13 -->
<g id="node13" class="node"><title>Node13</title>
<polygon fill="white" stroke="#bfbfbf" points="1521,-0.5 1521,-19.5 1575,-19.5 1575,-0.5 1521,-0.5"/>
<text text-anchor="middle" x="1548" y="-7.5" font-family="Helvetica,sans-Serif" font-size="10.00">sstream</text>
</g>
<!-- Node11&#45;&gt;Node13 -->
<g id="edge17" class="edge"><title>Node11&#45;&gt;Node13</title>
<path fill="none" stroke="midnightblue" d="M1516.3,-61.9751C1521.74,-53.2268 1530.36,-39.3691 1537.24,-28.3093"/>
<polygon fill="midnightblue" stroke="midnightblue" points="1540.4,-29.8494 1542.71,-19.5091 1534.46,-26.1528 1540.4,-29.8494"/>
</g>
<!-- Node14&#45;&gt;Node3 -->
<g id="edge20" class="edge"><title>Node14&#45;&gt;Node3</title>
<path fill="none" stroke="midnightblue" d="M1267.18,-353.115C1358.87,-345.031 1556.38,-314.428 1664,-199 1693.03,-167.866 1705.97,-117.862 1711.08,-90.995"/>
<polygon fill="midnightblue" stroke="midnightblue" points="1714.55,-91.4721 1712.82,-81.0198 1707.66,-90.2708 1714.55,-91.4721"/>
</g>
<!-- Node14&#45;&gt;Node4 -->
<g id="edge21" class="edge"><title>Node14&#45;&gt;Node4</title>
<path fill="none" stroke="midnightblue" d="M1168.86,-353.844C1087.25,-349.621 918.887,-338.183 779,-311 603.23,-276.844 560.262,-260.234 392,-199 348.887,-183.311 300.518,-160.963 271.428,-146.981"/>
<polygon fill="midnightblue" stroke="midnightblue" points="272.863,-143.787 262.337,-142.582 269.813,-150.088 272.863,-143.787"/>
</g>
<!-- Node14&#45;&gt;Node5 -->
<g id="edge24" class="edge"><title>Node14&#45;&gt;Node5</title>
<path fill="none" stroke="midnightblue" d="M1223.28,-347.231C1233.73,-329.043 1256,-285.601 1256,-246 1256,-246 1256,-246 1256,-188 1256,-153.648 1250.25,-113.908 1246.4,-91.1366"/>
<polygon fill="midnightblue" stroke="midnightblue" points="1249.82,-90.3997 1244.65,-81.1559 1242.93,-91.6106 1249.82,-90.3997"/>
</g>
<!-- Node14&#45;&gt;Node6 -->
<g id="edge44" class="edge"><title>Node14&#45;&gt;Node6</title>
<path fill="none" stroke="midnightblue" d="M1230.87,-347.22C1242.29,-338.928 1258.84,-325.612 1270,-311 1295,-278.261 1313.14,-233.018 1321.96,-208.166"/>
<polygon fill="midnightblue" stroke="midnightblue" points="1325.32,-209.173 1325.26,-198.579 1318.7,-206.896 1325.32,-209.173"/>
</g>
<!-- Node14&#45;&gt;Node7 -->
<g id="edge19" class="edge"><title>Node14&#45;&gt;Node7</title>
<path fill="none" stroke="midnightblue" d="M1168.74,-354.179C940.876,-345.435 0,-305.715 0,-246 0,-246 0,-246 0,-132 0,-17.5263 919.14,-11.0623 1108.23,-10.9438"/>
<polygon fill="midnightblue" stroke="midnightblue" points="1108.41,-14.4439 1118.41,-10.9433 1108.41,-7.44386 1108.41,-14.4439"/>
</g>
<!-- Node14&#45;&gt;Node8 -->
<g id="edge22" class="edge"><title>Node14&#45;&gt;Node8</title>
<path fill="none" stroke="midnightblue" d="M1168.98,-355.275C965.964,-351.113 195.252,-323.472 57,-143 51.5944,-135.944 50.9181,-129.483 57,-123 83.4099,-94.8502 671.314,-77.2478 816.033,-73.3315"/>
<polygon fill="midnightblue" stroke="midnightblue" points="816.521,-76.8198 826.424,-73.0533 816.333,-69.8223 816.521,-76.8198"/>
</g>
<!-- Node14&#45;&gt;Node9 -->
<g id="edge43" class="edge"><title>Node14&#45;&gt;Node9</title>
<path fill="none" stroke="midnightblue" d="M1233.61,-347.439C1248.74,-338.892 1272.13,-325.042 1291,-311 1363.5,-257.057 1441.28,-182.318 1474.03,-149.974"/>
<polygon fill="midnightblue" stroke="midnightblue" points="1476.72,-152.232 1481.35,-142.703 1471.79,-147.265 1476.72,-152.232"/>
</g>
<!-- Node15 -->
<g id="node15" class="node"><title>Node15</title>
<polygon fill="white" stroke="#bfbfbf" points="504,-123.5 504,-142.5 544,-142.5 544,-123.5 504,-123.5"/>
<text text-anchor="middle" x="524" y="-130.5" font-family="Helvetica,sans-Serif" font-size="10.00">utility</text>
</g>
<!-- Node14&#45;&gt;Node15 -->
<g id="edge23" class="edge"><title>Node14&#45;&gt;Node15</title>
<path fill="none" stroke="midnightblue" d="M1168.8,-354.294C1071.64,-349.327 849.962,-329.987 682,-255 651.316,-241.301 576.042,-178.562 541.654,-149.216"/>
<polygon fill="midnightblue" stroke="midnightblue" points="543.716,-146.373 533.844,-142.524 539.161,-151.689 543.716,-146.373"/>
</g>
<!-- Node16 -->
<g id="node16" class="node"><title>Node16</title>
<g id="a_node16"><a xlink:href="audio_8hpp.html" target="_top" xlink:title="Declaration of the Audio class. ">
<polygon fill="white" stroke="black" points="912,-179.5 912,-198.5 1010,-198.5 1010,-179.5 912,-179.5"/>
<text text-anchor="middle" x="961" y="-186.5" font-family="Helvetica,sans-Serif" font-size="10.00">../audio/audio.hpp</text>
</a>
</g>
</g>
<!-- Node14&#45;&gt;Node16 -->
<g id="edge25" class="edge"><title>Node14&#45;&gt;Node16</title>
<path fill="none" stroke="midnightblue" d="M1168.88,-350.201C1135.43,-344.418 1091.33,-333.056 1058,-311 1016.99,-283.859 985.117,-233.845 970.223,-207.418"/>
<polygon fill="midnightblue" stroke="midnightblue" points="973.235,-205.632 965.362,-198.541 967.095,-208.994 973.235,-205.632"/>
</g>
<!-- Node23 -->
<g id="node23" class="node"><title>Node23</title>
<g id="a_node23"><a xlink:href="player__file_8hpp.html" target="_top" xlink:title="Declaration of the PlayerFile class, and associated types. ">
<polygon fill="white" stroke="black" points="1067,-291.5 1067,-310.5 1153,-310.5 1153,-291.5 1067,-291.5"/>
<text text-anchor="middle" x="1110" y="-298.5" font-family="Helvetica,sans-Serif" font-size="10.00">player_file.hpp</text>
</a>
</g>
</g>
<!-- Node14&#45;&gt;Node23 -->
<g id="edge45" class="edge"><title>Node14&#45;&gt;Node23</title>
<path fill="none" stroke="midnightblue" d="M1200.65,-347.324C1183.33,-338.664 1156.48,-325.242 1136.5,-315.249"/>
<polygon fill="midnightblue" stroke="midnightblue" points="1137.82,-311.996 1127.31,-310.655 1134.69,-318.257 1137.82,-311.996"/>
</g>
<!-- Node30 -->
<g id="node30" class="node"><title>Node30</title>
<g id="a_node30"><a xlink:href="player__position_8hpp.html" target="_top" xlink:title="Declaration of the PlayerPosition class. ">
<polygon fill="white" stroke="black" points="1118.5,-179.5 1118.5,-198.5 1227.5,-198.5 1227.5,-179.5 1118.5,-179.5"/>
<text text-anchor="middle" x="1173" y="-186.5" font-family="Helvetica,sans-Serif" font-size="10.00">player_position.hpp</text>
</a>
</g>
</g>
<!-- Node14&#45;&gt;Node30 -->
<g id="edge74" class="edge"><title>Node14&#45;&gt;Node30</title>
<path fill="none" stroke="midnightblue" d="M1215.58,-347.075C1208.5,-320.945 1187.7,-244.211 1178.04,-208.577"/>
<polygon fill="midnightblue" stroke="midnightblue" points="1181.32,-207.304 1175.32,-198.568 1174.56,-209.136 1181.32,-207.304"/>
</g>
<!-- Node32 -->
<g id="node32" class="node"><title>Node32</title>
<g id="a_node32"><a xlink:href="player__state_8hpp.html" target="_top" xlink:title="Declaration of the PlayerState class, and associated types. ">
<polygon fill="white" stroke="black" points="1560.5,-179.5 1560.5,-198.5 1655.5,-198.5 1655.5,-179.5 1560.5,-179.5"/>
<text text-anchor="middle" x="1608" y="-186.5" font-family="Helvetica,sans-Serif" font-size="10.00">player_state.hpp</text>
</a>
</g>
</g>
<!-- Node14&#45;&gt;Node32 -->
<g id="edge75" class="edge"><title>Node14&#45;&gt;Node32</title>
<path fill="none" stroke="midnightblue" d="M1265.39,-347.429C1301.45,-340.069 1351.87,-327.949 1394,-311 1468.83,-280.897 1549.8,-229.298 1587.07,-204.346"/>
<polygon fill="midnightblue" stroke="midnightblue" points="1589.24,-207.102 1595.57,-198.606 1585.32,-201.301 1589.24,-207.102"/>
</g>
<!-- Node16&#45;&gt;Node4 -->
<g id="edge27" class="edge"><title>Node16&#45;&gt;Node4</title>
<path fill="none" stroke="midnightblue" d="M911.679,-183.127C896.404,-181.698 879.513,-180.198 864,-179 608.452,-159.259 539.307,-182.055 282.037,-142.862"/>
<polygon fill="midnightblue" stroke="midnightblue" points="282.435,-139.382 272.018,-141.319 281.369,-146.3 282.435,-139.382"/>
</g>
<!-- Node16&#45;&gt;Node5 -->
<g id="edge30" class="edge"><title>Node16&#45;&gt;Node5</title>
<path fill="none" stroke="midnightblue" d="M982.735,-179.427C1026.11,-162.265 1126.42,-122.306 1210,-87 1211.41,-86.4065 1212.84,-85.7945 1214.29,-85.173"/>
<polygon fill="midnightblue" stroke="midnightblue" points="1216.07,-88.2188 1223.85,-81.0273 1213.28,-81.7973 1216.07,-88.2188"/>
</g>
<!-- Node16&#45;&gt;Node7 -->
<g id="edge26" class="edge"><title>Node16&#45;&gt;Node7</title>
<path fill="none" stroke="midnightblue" d="M968.081,-179.365C990.778,-151.729 1060.94,-66.633 1073,-56 1086.51,-44.0894 1103.43,-33.0071 1117.13,-24.8206"/>
<polygon fill="midnightblue" stroke="midnightblue" points="1119.14,-27.6992 1126.02,-19.6411 1115.62,-21.6508 1119.14,-27.6992"/>
</g>
<!-- Node16&#45;&gt;Node8 -->
<g id="edge28" class="edge"><title>Node16&#45;&gt;Node8</title>
<path fill="none" stroke="midnightblue" d="M936.342,-179.446C918.433,-172.158 894.685,-160.124 879,-143 865.483,-128.243 857.175,-106.643 852.606,-91.246"/>
<polygon fill="midnightblue" stroke="midnightblue" points="855.909,-90.0555 849.918,-81.3173 849.152,-91.8845 855.909,-90.0555"/>
</g>
<!-- Node16&#45;&gt;Node9 -->
<g id="edge33" class="edge"><title>Node16&#45;&gt;Node9</title>
<path fill="none" stroke="midnightblue" d="M1010.29,-182.968C1106.58,-173.14 1319.54,-151.4 1426.34,-140.499"/>
<polygon fill="midnightblue" stroke="midnightblue" points="1426.74,-143.976 1436.33,-139.478 1426.03,-137.012 1426.74,-143.976"/>
</g>
<!-- Node16&#45;&gt;Node15 -->
<g id="edge29" class="edge"><title>Node16&#45;&gt;Node15</title>
<path fill="none" stroke="midnightblue" d="M911.843,-180.794C907.167,-180.164 902.496,-179.555 898,-179 748.285,-160.502 705.83,-173.415 554.291,-142.884"/>
<polygon fill="midnightblue" stroke="midnightblue" points="554.648,-139.385 544.149,-140.81 553.245,-146.243 554.648,-139.385"/>
</g>
<!-- Node17 -->
<g id="node17" class="node"><title>Node17</title>
<polygon fill="white" stroke="#bfbfbf" points="562.5,-123.5 562.5,-142.5 631.5,-142.5 631.5,-123.5 562.5,-123.5"/>
<text text-anchor="middle" x="597" y="-130.5" font-family="Helvetica,sans-Serif" font-size="10.00">portaudio.h</text>
</g>
<!-- Node16&#45;&gt;Node17 -->
<g id="edge31" class="edge"><title>Node16&#45;&gt;Node17</title>
<path fill="none" stroke="midnightblue" d="M911.821,-180.961C907.15,-180.297 902.485,-179.635 898,-179 786.922,-163.286 756.323,-162.593 641.441,-142.979"/>
<polygon fill="midnightblue" stroke="midnightblue" points="641.997,-139.524 631.549,-141.279 640.811,-146.423 641.997,-139.524"/>
</g>
<!-- Node18 -->
<g id="node18" class="node"><title>Node18</title>
<polygon fill="white" stroke="#bfbfbf" points="650,-123.5 650,-142.5 832,-142.5 832,-123.5 650,-123.5"/>
<text text-anchor="middle" x="741" y="-130.5" font-family="Helvetica,sans-Serif" font-size="10.00">portaudiocpp/CallbackInterface.hxx</text>
</g>
<!-- Node16&#45;&gt;Node18 -->
<g id="edge32" class="edge"><title>Node16&#45;&gt;Node18</title>
<path fill="none" stroke="midnightblue" d="M926.14,-179.444C888.084,-170.102 827.042,-155.119 785.54,-144.933"/>
<polygon fill="midnightblue" stroke="midnightblue" points="786.243,-141.501 775.697,-142.516 784.574,-148.299 786.243,-141.501"/>
</g>
<!-- Node19 -->
<g id="node19" class="node"><title>Node19</title>
<g id="a_node19"><a xlink:href="audio__source_8hpp.html" target="_top" xlink:title="Declaration of the AudioSource class. ">
<polygon fill="white" stroke="black" points="888,-123.5 888,-142.5 988,-142.5 988,-123.5 888,-123.5"/>
<text text-anchor="middle" x="938" y="-130.5" font-family="Helvetica,sans-Serif" font-size="10.00">audio_source.hpp</text>
</a>
</g>
</g>
<!-- Node16&#45;&gt;Node19 -->
<g id="edge34" class="edge"><title>Node16&#45;&gt;Node19</title>
<path fill="none" stroke="midnightblue" d="M957.202,-179.083C954.087,-171.77 949.577,-161.181 945.711,-152.103"/>
<polygon fill="midnightblue" stroke="midnightblue" points="948.866,-150.58 941.727,-142.751 942.426,-153.323 948.866,-150.58"/>
</g>
<!-- Node19&#45;&gt;Node5 -->
<g id="edge38" class="edge"><title>Node19&#45;&gt;Node5</title>
<path fill="none" stroke="midnightblue" d="M988.11,-124.403C1060.81,-113.277 1189.15,-93.1977 1210,-87 1212.14,-86.3625 1214.33,-85.6202 1216.51,-84.8149"/>
<polygon fill="midnightblue" stroke="midnightblue" points="1217.9,-88.0289 1225.84,-81.0103 1215.26,-81.5477 1217.9,-88.0289"/>
</g>
<!-- Node19&#45;&gt;Node7 -->
<g id="edge36" class="edge"><title>Node19&#45;&gt;Node7</title>
<path fill="none" stroke="midnightblue" d="M948.762,-123.496C970.936,-106.056 1021.21,-66.9575 1040,-56 1062.13,-43.0965 1088.64,-31.5079 1109.08,-23.3232"/>
<polygon fill="midnightblue" stroke="midnightblue" points="1110.56,-26.5031 1118.59,-19.5878 1108,-19.9881 1110.56,-26.5031"/>
</g>
<!-- Node19&#45;&gt;Node8 -->
<g id="edge37" class="edge"><title>Node19&#45;&gt;Node8</title>
<path fill="none" stroke="midnightblue" d="M925.105,-123.475C910.536,-113.843 886.598,-98.0175 869.255,-86.5517"/>
<polygon fill="midnightblue" stroke="midnightblue" points="871.143,-83.6044 860.871,-81.0091 867.283,-89.4437 871.143,-83.6044"/>
</g>
<!-- Node19&#45;&gt;Node11 -->
<g id="edge40" class="edge"><title>Node19&#45;&gt;Node11</title>
<path fill="none" stroke="midnightblue" d="M988.097,-126.798C1097.75,-115.412 1357.7,-88.419 1464.23,-77.3566"/>
<polygon fill="midnightblue" stroke="midnightblue" points="1464.77,-80.8199 1474.35,-76.3056 1464.04,-73.8573 1464.77,-80.8199"/>
</g>
<!-- Node20 -->
<g id="node20" class="node"><title>Node20</title>
<polygon fill="white" stroke="#bfbfbf" points="887.5,-62 887.5,-81 928.5,-81 928.5,-62 887.5,-62"/>
<text text-anchor="middle" x="908" y="-69" font-family="Helvetica,sans-Serif" font-size="10.00">array</text>
</g>
<!-- Node19&#45;&gt;Node20 -->
<g id="edge35" class="edge"><title>Node19&#45;&gt;Node20</title>
<path fill="none" stroke="midnightblue" d="M933.702,-123.475C929.335,-114.815 922.445,-101.149 916.897,-90.1453"/>
<polygon fill="midnightblue" stroke="midnightblue" points="919.918,-88.3625 912.29,-81.0091 913.667,-91.5141 919.918,-88.3625"/>
</g>
<!-- Node21 -->
<g id="node21" class="node"><title>Node21</title>
<polygon fill="white" stroke="#bfbfbf" points="946.5,-62 946.5,-81 987.5,-81 987.5,-62 946.5,-62"/>
<text text-anchor="middle" x="967" y="-69" font-family="Helvetica,sans-Serif" font-size="10.00">sox.h</text>
</g>
<!-- Node19&#45;&gt;Node21 -->
<g id="edge39" class="edge"><title>Node19&#45;&gt;Node21</title>
<path fill="none" stroke="midnightblue" d="M942.155,-123.475C946.376,-114.815 953.037,-101.149 958.4,-90.1453"/>
<polygon fill="midnightblue" stroke="midnightblue" points="961.618,-91.5317 962.853,-81.0091 955.325,-88.4648 961.618,-91.5317"/>
</g>
<!-- Node22 -->
<g id="node22" class="node"><title>Node22</title>
<g id="a_node22"><a xlink:href="sample__formats_8hpp.html" target="_top" xlink:title="The SampleFormat enumeration. ">
<polygon fill="white" stroke="black" points="1082.5,-62 1082.5,-81 1201.5,-81 1201.5,-62 1082.5,-62"/>
<text text-anchor="middle" x="1142" y="-69" font-family="Helvetica,sans-Serif" font-size="10.00">../sample_formats.hpp</text>
</a>
</g>
</g>
<!-- Node19&#45;&gt;Node22 -->
<g id="edge41" class="edge"><title>Node19&#45;&gt;Node22</title>
<path fill="none" stroke="midnightblue" d="M967.228,-123.475C1002.9,-113.07 1063.36,-95.4367 1102.98,-83.8801"/>
<polygon fill="midnightblue" stroke="midnightblue" points="1104.21,-87.1692 1112.83,-81.0091 1102.25,-80.4492 1104.21,-87.1692"/>
</g>
<!-- Node22&#45;&gt;Node7 -->
<g id="edge42" class="edge"><title>Node22&#45;&gt;Node7</title>
<path fill="none" stroke="midnightblue" d="M1142,-61.9751C1142,-53.5803 1142,-40.4806 1142,-29.6631"/>
<polygon fill="midnightblue" stroke="midnightblue" points="1145.5,-29.5091 1142,-19.5091 1138.5,-29.5091 1145.5,-29.5091"/>
</g>
<!-- Node23&#45;&gt;Node4 -->
<g id="edge46" class="edge"><title>Node23&#45;&gt;Node4</title>
<path fill="none" stroke="midnightblue" d="M1066.87,-297.58C989.351,-292.762 821.515,-280.194 682,-255 583.981,-237.3 560.998,-225.56 465,-199 400.188,-181.069 325.167,-158.515 281.598,-145.236"/>
<polygon fill="midnightblue" stroke="midnightblue" points="282.595,-141.881 272.008,-142.309 280.551,-148.576 282.595,-141.881"/>
</g>
<!-- Node23&#45;&gt;Node9 -->
<g id="edge68" class="edge"><title>Node23&#45;&gt;Node9</title>
<path fill="none" stroke="midnightblue" d="M1137.99,-291.425C1187.94,-275.721 1295.21,-240.149 1381,-199 1412.81,-183.742 1447.47,-162.141 1468.97,-148.102"/>
<polygon fill="midnightblue" stroke="midnightblue" points="1470.91,-151.015 1477.33,-142.588 1467.06,-145.171 1470.91,-151.015"/>
</g>
<!-- Node23&#45;&gt;Node16 -->
<g id="edge67" class="edge"><title>Node23&#45;&gt;Node16</title>
<path fill="none" stroke="midnightblue" d="M1098.31,-291.368C1072.85,-272.573 1012.16,-227.768 980.686,-204.533"/>
<polygon fill="midnightblue" stroke="midnightblue" points="982.761,-201.715 972.637,-198.591 978.604,-207.347 982.761,-201.715"/>
</g>
<!-- Node24 -->
<g id="node24" class="node"><title>Node24</title>
<g id="a_node24"><a xlink:href="audio__system_8hpp.html" target="_top" xlink:title="Declaration of the AudioSystem class. ">
<polygon fill="white" stroke="black" points="691.5,-235.5 691.5,-254.5 828.5,-254.5 828.5,-235.5 691.5,-235.5"/>
<text text-anchor="middle" x="760" y="-242.5" font-family="Helvetica,sans-Serif" font-size="10.00">../audio/audio_system.hpp</text>
</a>
</g>
</g>
<!-- Node23&#45;&gt;Node24 -->
<g id="edge47" class="edge"><title>Node23&#45;&gt;Node24</title>
<path fill="none" stroke="midnightblue" d="M1066.73,-293.324C1006.24,-283.992 895.91,-266.969 825.37,-256.086"/>
<polygon fill="midnightblue" stroke="midnightblue" points="825.678,-252.592 815.262,-254.526 824.611,-259.51 825.678,-252.592"/>
</g>
<!-- Node23&#45;&gt;Node30 -->
<g id="edge69" class="edge"><title>Node23&#45;&gt;Node30</title>
<path fill="none" stroke="midnightblue" d="M1114.94,-291.368C1125.29,-273.296 1149.42,-231.176 1163.09,-207.307"/>
<polygon fill="midnightblue" stroke="midnightblue" points="1166.15,-209.008 1168.08,-198.591 1160.07,-205.53 1166.15,-209.008"/>
</g>
<!-- Node24&#45;&gt;Node8 -->
<g id="edge48" class="edge"><title>Node24&#45;&gt;Node8</title>
<path fill="none" stroke="midnightblue" d="M691.205,-243.2C614.881,-240.681 498.785,-231.446 471,-199 465.218,-192.248 469.84,-187.813 471,-179 474.362,-153.454 466.694,-140.064 486,-123 534.588,-80.0533 736.338,-73.493 815.714,-72.5934"/>
<polygon fill="midnightblue" stroke="midnightblue" points="816.106,-76.0901 826.074,-72.5008 816.043,-69.0904 816.106,-76.0901"/>
</g>
<!-- Node24&#45;&gt;Node15 -->
<g id="edge49" class="edge"><title>Node24&#45;&gt;Node15</title>
<path fill="none" stroke="midnightblue" d="M797.894,-235.427C836.496,-225.004 887.582,-205.47 864,-179 819.618,-129.184 636.95,-155.024 554.205,-142.594"/>
<polygon fill="midnightblue" stroke="midnightblue" points="554.618,-139.112 544.155,-140.78 553.375,-146 554.618,-139.112"/>
</g>
<!-- Node24&#45;&gt;Node16 -->
<g id="edge66" class="edge"><title>Node24&#45;&gt;Node16</title>
<path fill="none" stroke="midnightblue" d="M791.849,-235.444C826.398,-226.162 881.682,-211.309 919.583,-201.127"/>
<polygon fill="midnightblue" stroke="midnightblue" points="920.551,-204.491 929.3,-198.516 918.734,-197.731 920.551,-204.491"/>
</g>
<!-- Node24&#45;&gt;Node19 -->
<g id="edge65" class="edge"><title>Node24&#45;&gt;Node19</title>
<path fill="none" stroke="midnightblue" d="M721.275,-235.492C682.597,-225.248 631.964,-205.988 655,-179 669.277,-162.274 798.83,-147.186 877.614,-139.452"/>
<polygon fill="midnightblue" stroke="midnightblue" points="878.288,-142.904 887.904,-138.456 877.613,-135.936 878.288,-142.904"/>
</g>
<!-- Node24&#45;&gt;Node22 -->
<g id="edge52" class="edge"><title>Node24&#45;&gt;Node22</title>
<path fill="none" stroke="midnightblue" d="M828.61,-243.507C883.078,-240.509 959.671,-230.321 1019,-199 1069.62,-172.276 1111.88,-117.16 1131.01,-89.3432"/>
<polygon fill="midnightblue" stroke="midnightblue" points="1133.92,-91.2896 1136.59,-81.0369 1128.11,-87.3862 1133.92,-91.2896"/>
</g>
<!-- Node25 -->
<g id="node25" class="node"><title>Node25</title>
<polygon fill="white" stroke="#bfbfbf" points="664.5,-179.5 664.5,-198.5 855.5,-198.5 855.5,-179.5 664.5,-179.5"/>
<text text-anchor="middle" x="760" y="-186.5" font-family="Helvetica,sans-Serif" font-size="10.00">portaudiocpp/SampleDataFormat.hxx</text>
</g>
<!-- Node24&#45;&gt;Node25 -->
<g id="edge50" class="edge"><title>Node24&#45;&gt;Node25</title>
<path fill="none" stroke="midnightblue" d="M760,-235.083C760,-228.006 760,-217.861 760,-208.986"/>
<polygon fill="midnightblue" stroke="midnightblue" points="763.5,-208.751 760,-198.751 756.5,-208.751 763.5,-208.751"/>
</g>
<!-- Node26 -->
<g id="node26" class="node"><title>Node26</title>
<polygon fill="white" stroke="#bfbfbf" points="66,-123.5 66,-142.5 200,-142.5 200,-123.5 66,-123.5"/>
<text text-anchor="middle" x="133" y="-130.5" font-family="Helvetica,sans-Serif" font-size="10.00">portaudiocpp/Stream.hxx</text>
</g>
<!-- Node24&#45;&gt;Node26 -->
<g id="edge51" class="edge"><title>Node24&#45;&gt;Node26</title>
<path fill="none" stroke="midnightblue" d="M691.345,-237.178C620.926,-229.7 508.368,-216.411 412,-199 327.169,-183.673 229.311,-159.304 174.955,-145.163"/>
<polygon fill="midnightblue" stroke="midnightblue" points="175.563,-141.704 165.003,-142.561 173.793,-148.476 175.563,-141.704"/>
</g>
<!-- Node27 -->
<g id="node27" class="node"><title>Node27</title>
<g id="a_node27"><a xlink:href="audio__sink_8hpp.html" target="_top" xlink:title="Declaration of the AudioSink class. ">
<polygon fill="white" stroke="black" points="480.5,-179.5 480.5,-198.5 567.5,-198.5 567.5,-179.5 480.5,-179.5"/>
<text text-anchor="middle" x="524" y="-186.5" font-family="Helvetica,sans-Serif" font-size="10.00">audio_sink.hpp</text>
</a>
</g>
</g>
<!-- Node24&#45;&gt;Node27 -->
<g id="edge53" class="edge"><title>Node24&#45;&gt;Node27</title>
<path fill="none" stroke="midnightblue" d="M722.605,-235.444C681.608,-226.063 615.746,-210.993 571.216,-200.804"/>
<polygon fill="midnightblue" stroke="midnightblue" points="571.749,-197.335 561.22,-198.516 570.187,-204.159 571.749,-197.335"/>
</g>
<!-- Node27&#45;&gt;Node4 -->
<g id="edge55" class="edge"><title>Node27&#45;&gt;Node4</title>
<path fill="none" stroke="midnightblue" d="M480.381,-180.76C433.714,-172.828 357.308,-159.308 282.192,-143.154"/>
<polygon fill="midnightblue" stroke="midnightblue" points="282.599,-139.661 272.085,-140.962 281.116,-146.502 282.599,-139.661"/>
</g>
<!-- Node27&#45;&gt;Node5 -->
<g id="edge58" class="edge"><title>Node27&#45;&gt;Node5</title>
<path fill="none" stroke="midnightblue" d="M567.691,-184.794C668.528,-177.242 915.125,-157.849 997,-143 1030.52,-136.921 1038.06,-131.715 1071,-123 1132.69,-106.675 1149.7,-107.903 1210,-87 1211.86,-86.3543 1213.77,-85.648 1215.67,-84.9057"/>
<polygon fill="midnightblue" stroke="midnightblue" points="1217.16,-88.0777 1225.05,-81.0093 1214.48,-81.6132 1217.16,-88.0777"/>
</g>
<!-- Node27&#45;&gt;Node7 -->
<g id="edge54" class="edge"><title>Node27&#45;&gt;Node7</title>
<path fill="none" stroke="midnightblue" d="M512.535,-179.463C496.499,-166.5 470.939,-141.416 486,-123 565.7,-25.5509 985.076,-12.8508 1108.07,-11.2286"/>
<polygon fill="midnightblue" stroke="midnightblue" points="1108.42,-14.7249 1118.38,-11.11 1108.34,-7.72541 1108.42,-14.7249"/>
</g>
<!-- Node27&#45;&gt;Node8 -->
<g id="edge56" class="edge"><title>Node27&#45;&gt;Node8</title>
<path fill="none" stroke="midnightblue" d="M514.438,-179.106C501.14,-165.676 480.266,-139.991 495,-123 536.448,-75.2009 736.722,-71.5363 815.794,-72.0016"/>
<polygon fill="midnightblue" stroke="midnightblue" points="816.088,-75.5042 826.117,-72.0905 816.148,-68.5045 816.088,-75.5042"/>
</g>
<!-- Node27&#45;&gt;Node15 -->
<g id="edge57" class="edge"><title>Node27&#45;&gt;Node15</title>
<path fill="none" stroke="midnightblue" d="M524,-179.083C524,-172.006 524,-161.861 524,-152.986"/>
<polygon fill="midnightblue" stroke="midnightblue" points="527.5,-152.751 524,-142.751 520.5,-152.751 527.5,-152.751"/>
</g>
<!-- Node27&#45;&gt;Node17 -->
<g id="edge59" class="edge"><title>Node27&#45;&gt;Node17</title>
<path fill="none" stroke="midnightblue" d="M535.729,-179.324C546.837,-171.107 563.742,-158.602 576.983,-148.807"/>
<polygon fill="midnightblue" stroke="midnightblue" points="579.1,-151.595 585.058,-142.834 574.937,-145.967 579.1,-151.595"/>
</g>
<!-- Node27&#45;&gt;Node18 -->
<g id="edge60" class="edge"><title>Node27&#45;&gt;Node18</title>
<path fill="none" stroke="midnightblue" d="M558.384,-179.444C595.922,-170.102 656.131,-155.119 697.067,-144.933"/>
<polygon fill="midnightblue" stroke="midnightblue" points="697.918,-148.328 706.777,-142.516 696.227,-141.535 697.918,-148.328"/>
</g>
<!-- Node27&#45;&gt;Node19 -->
<g id="edge62" class="edge"><title>Node27&#45;&gt;Node19</title>
<path fill="none" stroke="midnightblue" d="M567.523,-182.323C641.834,-172.63 793.318,-152.872 877.748,-141.859"/>
<polygon fill="midnightblue" stroke="midnightblue" points="878.239,-145.325 887.702,-140.561 877.333,-138.384 878.239,-145.325"/>
</g>
<!-- Node27&#45;&gt;Node26 -->
<g id="edge61" class="edge"><title>Node27&#45;&gt;Node26</title>
<path fill="none" stroke="midnightblue" d="M480.285,-181.963C413.495,-172.738 285.328,-155.038 204.763,-143.911"/>
<polygon fill="midnightblue" stroke="midnightblue" points="205.08,-140.422 194.695,-142.521 204.122,-147.356 205.08,-140.422"/>
</g>
<!-- Node28 -->
<g id="node28" class="node"><title>Node28</title>
<g id="a_node28"><a xlink:href="ringbuffer_8hpp.html" target="_top" xlink:title="The RingBuffer class template. ">
<polygon fill="white" stroke="black" points="290.5,-123.5 290.5,-142.5 371.5,-142.5 371.5,-123.5 290.5,-123.5"/>
<text text-anchor="middle" x="331" y="-130.5" font-family="Helvetica,sans-Serif" font-size="10.00">ringbuffer.hpp</text>
</a>
</g>
</g>
<!-- Node27&#45;&gt;Node28 -->
<g id="edge63" class="edge"><title>Node27&#45;&gt;Node28</title>
<path fill="none" stroke="midnightblue" d="M493.419,-179.444C460.385,-170.201 407.612,-155.436 371.234,-145.257"/>
<polygon fill="midnightblue" stroke="midnightblue" points="372.012,-141.84 361.438,-142.516 370.125,-148.582 372.012,-141.84"/>
</g>
<!-- Node29 -->
<g id="node29" class="node"><title>Node29</title>
<polygon fill="white" stroke="#bfbfbf" points="270.5,-56.5 270.5,-86.5 391.5,-86.5 391.5,-56.5 270.5,-56.5"/>
<text text-anchor="start" x="278.5" y="-74.5" font-family="Helvetica,sans-Serif" font-size="10.00">../contrib/pa_ringbuffer</text>
<text text-anchor="middle" x="331" y="-63.5" font-family="Helvetica,sans-Serif" font-size="10.00">/pa_ringbuffer.h</text>
</g>
<!-- Node28&#45;&gt;Node29 -->
<g id="edge64" class="edge"><title>Node28&#45;&gt;Node29</title>
<path fill="none" stroke="midnightblue" d="M331,-123.475C331,-116.471 331,-106.192 331,-96.6956"/>
<polygon fill="midnightblue" stroke="midnightblue" points="334.5,-96.5229 331,-86.523 327.5,-96.523 334.5,-96.5229"/>
</g>
<!-- Node30&#45;&gt;Node7 -->
<g id="edge70" class="edge"><title>Node30&#45;&gt;Node7</title>
<path fill="none" stroke="midnightblue" d="M1188.98,-179.358C1225.47,-158.511 1309.18,-103.654 1275,-56 1252.53,-24.6802 1207.08,-14.8828 1175.6,-11.9693"/>
<polygon fill="midnightblue" stroke="midnightblue" points="1175.75,-8.47071 1165.52,-11.224 1175.24,-15.4517 1175.75,-8.47071"/>
</g>
<!-- Node30&#45;&gt;Node9 -->
<g id="edge73" class="edge"><title>Node30&#45;&gt;Node9</title>
<path fill="none" stroke="midnightblue" d="M1223.23,-179.444C1279.34,-169.885 1370.13,-154.419 1429.95,-144.23"/>
<polygon fill="midnightblue" stroke="midnightblue" points="1430.74,-147.646 1440.01,-142.516 1429.56,-140.745 1430.74,-147.646"/>
</g>
<!-- Node30&#45;&gt;Node19 -->
<g id="edge72" class="edge"><title>Node30&#45;&gt;Node19</title>
<path fill="none" stroke="midnightblue" d="M1135.76,-179.444C1094.94,-170.063 1029.36,-154.993 985.016,-144.804"/>
<polygon fill="midnightblue" stroke="midnightblue" points="985.592,-141.345 975.062,-142.516 984.024,-148.167 985.592,-141.345"/>
</g>
<!-- Node31 -->
<g id="node31" class="node"><title>Node31</title>
<polygon fill="white" stroke="#bfbfbf" points="1196.5,-123.5 1196.5,-142.5 1227.5,-142.5 1227.5,-123.5 1196.5,-123.5"/>
<text text-anchor="middle" x="1212" y="-130.5" font-family="Helvetica,sans-Serif" font-size="10.00">set</text>
</g>
<!-- Node30&#45;&gt;Node31 -->
<g id="edge71" class="edge"><title>Node30&#45;&gt;Node31</title>
<path fill="none" stroke="midnightblue" d="M1179.44,-179.083C1184.95,-171.455 1193.03,-160.264 1199.76,-150.941"/>
<polygon fill="midnightblue" stroke="midnightblue" points="1202.66,-152.907 1205.68,-142.751 1196.99,-148.809 1202.66,-152.907"/>
</g>
<!-- Node32&#45;&gt;Node7 -->
<g id="edge76" class="edge"><title>Node32&#45;&gt;Node7</title>
<path fill="none" stroke="midnightblue" d="M1618.99,-179.365C1628.45,-171.171 1641.44,-157.917 1647,-143 1657.12,-115.867 1637.8,-63.4188 1629,-56 1594.44,-26.8727 1280.43,-15.0667 1175.77,-11.919"/>
<polygon fill="midnightblue" stroke="midnightblue" points="1175.85,-8.41984 1165.75,-11.625 1175.64,-15.4168 1175.85,-8.41984"/>
</g>
<!-- Node32&#45;&gt;Node9 -->
<g id="edge78" class="edge"><title>Node32&#45;&gt;Node9</title>
<path fill="none" stroke="midnightblue" d="M1589.3,-179.444C1570.06,-170.636 1539.85,-156.812 1517.8,-146.722"/>
<polygon fill="midnightblue" stroke="midnightblue" points="1519.16,-143.495 1508.61,-142.516 1516.25,-149.86 1519.16,-143.495"/>
</g>
<!-- Node33 -->
<g id="node33" class="node"><title>Node33</title>
<polygon fill="white" stroke="#bfbfbf" points="1561.5,-123.5 1561.5,-142.5 1638.5,-142.5 1638.5,-123.5 1561.5,-123.5"/>
<text text-anchor="middle" x="1600" y="-130.5" font-family="Helvetica,sans-Serif" font-size="10.00">initializer_list</text>
</g>
<!-- Node32&#45;&gt;Node33 -->
<g id="edge77" class="edge"><title>Node32&#45;&gt;Node33</title>
<path fill="none" stroke="midnightblue" d="M1606.68,-179.083C1605.62,-171.927 1604.09,-161.635 1602.77,-152.691"/>
<polygon fill="midnightblue" stroke="midnightblue" points="1606.22,-152.13 1601.3,-142.751 1599.3,-153.156 1606.22,-152.13"/>
</g>
</g>
</svg>
