<?xml version="1.0" encoding="UTF-8" standalone="no"?>
<!DOCTYPE svg PUBLIC "-//W3C//DTD SVG 1.1//EN"
 "http://www.w3.org/Graphics/SVG/1.1/DTD/svg11.dtd">
<!-- Generated by graphviz version 2.36.0 (20140111.2315)
 -->
<!-- Title: src/tokeniser.cpp Pages: 1 -->
<svg width="653pt" height="252pt"
 viewBox="0.00 0.00 653.00 252.00" xmlns="http://www.w3.org/2000/svg" xmlns:xlink="http://www.w3.org/1999/xlink">
<g id="graph0" class="graph" transform="scale(1 1) rotate(0) translate(4 248)">
<title>src/tokeniser.cpp</title>
<polygon fill="white" stroke="none" points="-4,4 -4,-248 649,-248 649,4 -4,4"/>
<!-- Node0 -->
<g id="node1" class="node"><title>Node0</title>
<polygon fill="#bfbfbf" stroke="black" points="151,-224.5 151,-243.5 249,-243.5 249,-224.5 151,-224.5"/>
<text text-anchor="middle" x="200" y="-231.5" font-family="Helvetica,sans-Serif" font-size="10.00">src/tokeniser.cpp</text>
</g>
<!-- Node1 -->
<g id="node2" class="node"><title>Node1</title>
<polygon fill="white" stroke="#bfbfbf" points="0,-168.5 0,-187.5 62,-187.5 62,-168.5 0,-168.5"/>
<text text-anchor="middle" x="31" y="-175.5" font-family="Helvetica,sans-Serif" font-size="10.00">algorithm</text>
</g>
<!-- Node0&#45;&gt;Node1 -->
<g id="edge1" class="edge"><title>Node0&#45;&gt;Node1</title>
<path fill="none" stroke="midnightblue" d="M173.221,-224.444C144.667,-215.32 99.2674,-200.813 67.4631,-190.651"/>
<polygon fill="midnightblue" stroke="midnightblue" points="68.2441,-187.226 57.6533,-187.516 66.1135,-193.894 68.2441,-187.226"/>
</g>
<!-- Node2 -->
<g id="node3" class="node"><title>Node2</title>
<polygon fill="white" stroke="#bfbfbf" points="80,-168.5 80,-187.5 132,-187.5 132,-168.5 80,-168.5"/>
<text text-anchor="middle" x="106" y="-175.5" font-family="Helvetica,sans-Serif" font-size="10.00">cassert</text>
</g>
<!-- Node0&#45;&gt;Node2 -->
<g id="edge2" class="edge"><title>Node0&#45;&gt;Node2</title>
<path fill="none" stroke="midnightblue" d="M184.897,-224.324C170.097,-215.822 147.306,-202.729 130.018,-192.797"/>
<polygon fill="midnightblue" stroke="midnightblue" points="131.48,-189.601 121.065,-187.655 127.993,-195.671 131.48,-189.601"/>
</g>
<!-- Node3 -->
<g id="node4" class="node"><title>Node3</title>
<polygon fill="white" stroke="#bfbfbf" points="150,-168.5 150,-187.5 198,-187.5 198,-168.5 150,-168.5"/>
<text text-anchor="middle" x="174" y="-175.5" font-family="Helvetica,sans-Serif" font-size="10.00">cctype</text>
</g>
<!-- Node0&#45;&gt;Node3 -->
<g id="edge3" class="edge"><title>Node0&#45;&gt;Node3</title>
<path fill="none" stroke="midnightblue" d="M195.707,-224.083C192.148,-216.691 186.978,-205.953 182.576,-196.811"/>
<polygon fill="midnightblue" stroke="midnightblue" points="185.705,-195.243 178.213,-187.751 179.398,-198.279 185.705,-195.243"/>
</g>
<!-- Node4 -->
<g id="node5" class="node"><title>Node4</title>
<polygon fill="white" stroke="#bfbfbf" points="143.5,-56.5 143.5,-75.5 192.5,-75.5 192.5,-56.5 143.5,-56.5"/>
<text text-anchor="middle" x="168" y="-63.5" font-family="Helvetica,sans-Serif" font-size="10.00">cstdint</text>
</g>
<!-- Node0&#45;&gt;Node4 -->
<g id="edge4" class="edge"><title>Node0&#45;&gt;Node4</title>
<path fill="none" stroke="midnightblue" d="M202.584,-224.106C205.871,-211.528 210.701,-187.861 207,-168 201.311,-137.473 186.723,-104.285 177.091,-84.5829"/>
<polygon fill="midnightblue" stroke="midnightblue" points="180.193,-82.9618 172.579,-75.5949 173.937,-86.1023 180.193,-82.9618"/>
</g>
<!-- Node5 -->
<g id="node6" class="node"><title>Node5</title>
<g id="a_node6"><a xlink:href="response_8hpp.html" target="_top" xlink:title="Declaration of classes pertaining to responses to the client. ">
<polygon fill="white" stroke="black" points="292,-112.5 292,-131.5 374,-131.5 374,-112.5 292,-112.5"/>
<text text-anchor="middle" x="333" y="-119.5" font-family="Helvetica,sans-Serif" font-size="10.00">response.hpp</text>
</a>
</g>
</g>
<!-- Node0&#45;&gt;Node5 -->
<g id="edge5" class="edge"><title>Node0&#45;&gt;Node5</title>
<path fill="none" stroke="midnightblue" d="M210.436,-224.368C232.968,-205.733 286.411,-161.532 314.702,-138.134"/>
<polygon fill="midnightblue" stroke="midnightblue" points="317.137,-140.662 322.612,-131.591 312.676,-135.268 317.137,-140.662"/>
</g>
<!-- Node14 -->
<g id="node15" class="node"><title>Node14</title>
<g id="a_node15"><a xlink:href="tokeniser_8hpp.html" target="_top" xlink:title="Declaration of the Tokeniser class. ">
<polygon fill="white" stroke="black" points="292.5,-168.5 292.5,-187.5 373.5,-187.5 373.5,-168.5 292.5,-168.5"/>
<text text-anchor="middle" x="333" y="-175.5" font-family="Helvetica,sans-Serif" font-size="10.00">tokeniser.hpp</text>
</a>
</g>
</g>
<!-- Node0&#45;&gt;Node14 -->
<g id="edge15" class="edge"><title>Node0&#45;&gt;Node14</title>
<path fill="none" stroke="midnightblue" d="M221.074,-224.444C243.06,-215.517 277.734,-201.439 302.664,-191.317"/>
<polygon fill="midnightblue" stroke="midnightblue" points="304.076,-194.521 312.024,-187.516 301.442,-188.035 304.076,-194.521"/>
</g>
<!-- Node5&#45;&gt;Node4 -->
<g id="edge6" class="edge"><title>Node5&#45;&gt;Node4</title>
<path fill="none" stroke="midnightblue" d="M306.855,-112.444C278.567,-103.185 233.344,-88.3854 202.239,-78.2054"/>
<polygon fill="midnightblue" stroke="midnightblue" points="203.268,-74.8595 192.675,-75.0755 201.09,-81.5123 203.268,-74.8595"/>
</g>
<!-- Node6 -->
<g id="node7" class="node"><title>Node6</title>
<polygon fill="white" stroke="#bfbfbf" points="211,-56.5 211,-75.5 249,-75.5 249,-56.5 211,-56.5"/>
<text text-anchor="middle" x="230" y="-63.5" font-family="Helvetica,sans-Serif" font-size="10.00">map</text>
</g>
<!-- Node5&#45;&gt;Node6 -->
<g id="edge7" class="edge"><title>Node5&#45;&gt;Node6</title>
<path fill="none" stroke="midnightblue" d="M316.451,-112.324C300.008,-103.703 274.565,-90.3643 255.532,-80.3855"/>
<polygon fill="midnightblue" stroke="midnightblue" points="256.989,-77.198 246.508,-75.6545 253.739,-83.3977 256.989,-77.198"/>
</g>
<!-- Node7 -->
<g id="node8" class="node"><title>Node7</title>
<polygon fill="white" stroke="#bfbfbf" points="267.5,-56.5 267.5,-75.5 324.5,-75.5 324.5,-56.5 267.5,-56.5"/>
<text text-anchor="middle" x="296" y="-63.5" font-family="Helvetica,sans-Serif" font-size="10.00">memory</text>
</g>
<!-- Node5&#45;&gt;Node7 -->
<g id="edge8" class="edge"><title>Node5&#45;&gt;Node7</title>
<path fill="none" stroke="midnightblue" d="M326.89,-112.083C321.718,-104.534 314.154,-93.4948 307.806,-84.2298"/>
<polygon fill="midnightblue" stroke="midnightblue" points="310.536,-82.0221 301.996,-75.7511 304.761,-85.9787 310.536,-82.0221"/>
</g>
<!-- Node8 -->
<g id="node9" class="node"><title>Node8</title>
<polygon fill="white" stroke="#bfbfbf" points="342.5,-56.5 342.5,-75.5 399.5,-75.5 399.5,-56.5 342.5,-56.5"/>
<text text-anchor="middle" x="371" y="-63.5" font-family="Helvetica,sans-Serif" font-size="10.00">ostream</text>
</g>
<!-- Node5&#45;&gt;Node8 -->
<g id="edge9" class="edge"><title>Node5&#45;&gt;Node8</title>
<path fill="none" stroke="midnightblue" d="M339.275,-112.083C344.642,-104.455 352.518,-93.2645 359.079,-83.9408"/>
<polygon fill="midnightblue" stroke="midnightblue" points="361.949,-85.9434 364.842,-75.7511 356.225,-81.9149 361.949,-85.9434"/>
</g>
<!-- Node9 -->
<g id="node10" class="node"><title>Node9</title>
<polygon fill="white" stroke="#bfbfbf" points="418,-56.5 418,-75.5 462,-75.5 462,-56.5 418,-56.5"/>
<text text-anchor="middle" x="440" y="-63.5" font-family="Helvetica,sans-Serif" font-size="10.00">string</text>
</g>
<!-- Node5&#45;&gt;Node9 -->
<g id="edge10" class="edge"><title>Node5&#45;&gt;Node9</title>
<path fill="none" stroke="midnightblue" d="M350.191,-112.324C367.351,-103.664 393.946,-90.2424 413.747,-80.249"/>
<polygon fill="midnightblue" stroke="midnightblue" points="415.501,-83.2847 422.851,-75.6545 412.347,-77.0354 415.501,-83.2847"/>
</g>
<!-- Node10 -->
<g id="node11" class="node"><title>Node10</title>
<polygon fill="white" stroke="#bfbfbf" points="480.5,-56.5 480.5,-75.5 527.5,-75.5 527.5,-56.5 480.5,-56.5"/>
<text text-anchor="middle" x="504" y="-63.5" font-family="Helvetica,sans-Serif" font-size="10.00">vector</text>
</g>
<!-- Node5&#45;&gt;Node10 -->
<g id="edge11" class="edge"><title>Node5&#45;&gt;Node10</title>
<path fill="none" stroke="midnightblue" d="M360.095,-112.444C390.008,-102.998 438.189,-87.7826 470.46,-77.5916"/>
<polygon fill="midnightblue" stroke="midnightblue" points="471.854,-80.8219 480.335,-74.473 469.746,-74.1469 471.854,-80.8219"/>
</g>
<!-- Node11 -->
<g id="node12" class="node"><title>Node11</title>
<g id="a_node12"><a xlink:href="errors_8hpp.html" target="_top" xlink:title="Declarations of the playd Error exception set. ">
<polygon fill="white" stroke="black" points="546,-56.5 546,-75.5 612,-75.5 612,-56.5 546,-56.5"/>
<text text-anchor="middle" x="579" y="-63.5" font-family="Helvetica,sans-Serif" font-size="10.00">errors.hpp</text>
</a>
</g>
</g>
<!-- Node5&#45;&gt;Node11 -->
<g id="edge12" class="edge"><title>Node5&#45;&gt;Node11</title>
<path fill="none" stroke="midnightblue" d="M371.979,-112.444C416.567,-102.656 489.37,-86.6748 535.693,-76.5064"/>
<polygon fill="midnightblue" stroke="midnightblue" points="536.708,-79.8669 545.725,-74.3042 535.208,-73.0297 536.708,-79.8669"/>
</g>
<!-- Node12 -->
<g id="node13" class="node"><title>Node12</title>
<polygon fill="white" stroke="#bfbfbf" points="511.5,-0.5 511.5,-19.5 570.5,-19.5 570.5,-0.5 511.5,-0.5"/>
<text text-anchor="middle" x="541" y="-7.5" font-family="Helvetica,sans-Serif" font-size="10.00">iostream</text>
</g>
<!-- Node11&#45;&gt;Node12 -->
<g id="edge13" class="edge"><title>Node11&#45;&gt;Node12</title>
<path fill="none" stroke="midnightblue" d="M572.725,-56.083C567.358,-48.4554 559.482,-37.2645 552.921,-27.9408"/>
<polygon fill="midnightblue" stroke="midnightblue" points="555.775,-25.9149 547.158,-19.7511 550.051,-29.9434 555.775,-25.9149"/>
</g>
<!-- Node13 -->
<g id="node14" class="node"><title>Node13</title>
<polygon fill="white" stroke="#bfbfbf" points="589,-0.5 589,-19.5 645,-19.5 645,-0.5 589,-0.5"/>
<text text-anchor="middle" x="617" y="-7.5" font-family="Helvetica,sans-Serif" font-size="10.00">sstream</text>
</g>
<!-- Node11&#45;&gt;Node13 -->
<g id="edge14" class="edge"><title>Node11&#45;&gt;Node13</title>
<path fill="none" stroke="midnightblue" d="M585.275,-56.083C590.642,-48.4554 598.518,-37.2645 605.079,-27.9408"/>
<polygon fill="midnightblue" stroke="midnightblue" points="607.949,-29.9434 610.842,-19.7511 602.225,-25.9149 607.949,-29.9434"/>
</g>
<!-- Node14&#45;&gt;Node5 -->
<g id="edge16" class="edge"><title>Node14&#45;&gt;Node5</title>
<path fill="none" stroke="midnightblue" d="M333,-168.083C333,-161.006 333,-150.861 333,-141.986"/>
<polygon fill="midnightblue" stroke="midnightblue" points="336.5,-141.751 333,-131.751 329.5,-141.751 336.5,-141.751"/>
</g>
</g>
</svg>
