<?xml version="1.0" encoding="UTF-8" standalone="no"?>
<!DOCTYPE svg PUBLIC "-//W3C//DTD SVG 1.1//EN"
 "http://www.w3.org/Graphics/SVG/1.1/DTD/svg11.dtd">
<!-- Generated by graphviz version 2.38.0 (20140413.2041)
 -->
<!-- Title: src/io/tokeniser.hpp Pages: 1 -->
<svg width="1570pt" height="487pt"
 viewBox="0.00 0.00 1570.00 487.00" xmlns="http://www.w3.org/2000/svg" xmlns:xlink="http://www.w3.org/1999/xlink">
<g id="graph0" class="graph" transform="scale(1 1) rotate(0) translate(4 483)">
<title>src/io/tokeniser.hpp</title>
<polygon fill="white" stroke="none" points="-4,4 -4,-483 1566,-483 1566,4 -4,4"/>
<!-- Node1 -->
<g id="node1" class="node"><title>Node1</title>
<polygon fill="#bfbfbf" stroke="black" points="798.5,-459.5 798.5,-478.5 907.5,-478.5 907.5,-459.5 798.5,-459.5"/>
<text text-anchor="middle" x="853" y="-466.5" font-family="Helvetica,sans-Serif" font-size="10.00">src/io/tokeniser.hpp</text>
</g>
<!-- Node2 -->
<g id="node2" class="node"><title>Node2</title>
<g id="a_node2"><a xlink:href="cmd_8hpp.html" target="_top" xlink:title="Declaration of the CommandHandler class. ">
<polygon fill="white" stroke="black" points="851,-403.5 851,-422.5 915,-422.5 915,-403.5 851,-403.5"/>
<text text-anchor="middle" x="883" y="-410.5" font-family="Helvetica,sans-Serif" font-size="10.00">../cmd.hpp</text>
</a>
</g>
</g>
<!-- Node1&#45;&gt;Node2 -->
<g id="edge1" class="edge"><title>Node1&#45;&gt;Node2</title>
<path fill="none" stroke="midnightblue" d="M857.954,-459.083C862.104,-451.613 868.153,-440.724 873.267,-431.52"/>
<polygon fill="midnightblue" stroke="midnightblue" points="876.341,-433.192 878.138,-422.751 870.222,-429.793 876.341,-433.192"/>
</g>
<!-- Node21 -->
<g id="node21" class="node"><title>Node21</title>
<g id="a_node21"><a xlink:href="io__response_8hpp.html" target="_top" xlink:title="Declaration of classes pertaining to responses to the client. ">
<polygon fill="white" stroke="black" points="1196,-179.5 1196,-198.5 1310,-198.5 1310,-179.5 1196,-179.5"/>
<text text-anchor="middle" x="1253" y="-186.5" font-family="Helvetica,sans-Serif" font-size="10.00">../io/io_response.hpp</text>
</a>
</g>
</g>
<!-- Node1&#45;&gt;Node21 -->
<g id="edge77" class="edge"><title>Node1&#45;&gt;Node21</title>
<path fill="none" stroke="midnightblue" d="M848.954,-459.379C840.765,-441.114 823,-396.996 823,-358 823,-358 823,-358 823,-300 823,-221.182 912.074,-256.155 988,-235 1024.24,-224.903 1119.94,-209.676 1185.83,-199.785"/>
<polygon fill="midnightblue" stroke="midnightblue" points="1186.36,-203.245 1195.73,-198.305 1185.32,-196.322 1186.36,-203.245"/>
</g>
<!-- Node3 -->
<g id="node3" class="node"><title>Node3</title>
<polygon fill="white" stroke="#bfbfbf" points="1375.5,-123.5 1375.5,-142.5 1412.5,-142.5 1412.5,-123.5 1375.5,-123.5"/>
<text text-anchor="middle" x="1394" y="-130.5" font-family="Helvetica,sans-Serif" font-size="10.00">map</text>
</g>
<!-- Node2&#45;&gt;Node3 -->
<g id="edge2" class="edge"><title>Node2&#45;&gt;Node3</title>
<path fill="none" stroke="midnightblue" d="M915.025,-409.386C1013.45,-400.773 1309.25,-370.384 1382,-311 1428.69,-272.894 1424.96,-238.064 1413,-179 1411.11,-169.649 1407.21,-159.827 1403.43,-151.753"/>
<polygon fill="midnightblue" stroke="midnightblue" points="1406.47,-150.011 1398.88,-142.628 1400.21,-153.138 1406.47,-150.011"/>
</g>
<!-- Node4 -->
<g id="node4" class="node"><title>Node4</title>
<polygon fill="white" stroke="#bfbfbf" points="66,-123.5 66,-142.5 120,-142.5 120,-123.5 66,-123.5"/>
<text text-anchor="middle" x="93" y="-130.5" font-family="Helvetica,sans-Serif" font-size="10.00">memory</text>
</g>
<!-- Node2&#45;&gt;Node4 -->
<g id="edge3" class="edge"><title>Node2&#45;&gt;Node4</title>
<path fill="none" stroke="midnightblue" d="M850.619,-410.53C710.325,-403.738 162,-372.671 162,-302 162,-302 162,-302 162,-244 162,-205.391 131.118,-169.209 110.674,-149.486"/>
<polygon fill="midnightblue" stroke="midnightblue" points="112.893,-146.77 103.181,-142.535 108.132,-151.902 112.893,-146.77"/>
</g>
<!-- Node5 -->
<g id="node5" class="node"><title>Node5</title>
<polygon fill="white" stroke="#bfbfbf" points="373,-62 373,-81 419,-81 419,-62 373,-62"/>
<text text-anchor="middle" x="396" y="-69" font-family="Helvetica,sans-Serif" font-size="10.00">vector</text>
</g>
<!-- Node2&#45;&gt;Node5 -->
<g id="edge4" class="edge"><title>Node2&#45;&gt;Node5</title>
<path fill="none" stroke="midnightblue" d="M850.907,-411.266C696.557,-407.32 38,-385.586 38,-302 38,-302 38,-302 38,-188 38,-157.902 34.3158,-142.781 57,-123 102.188,-83.5946 286.302,-74.935 362.617,-73.0339"/>
<polygon fill="midnightblue" stroke="midnightblue" points="362.725,-76.5325 372.644,-72.808 362.568,-69.5343 362.725,-76.5325"/>
</g>
<!-- Node6 -->
<g id="node6" class="node"><title>Node6</title>
<g id="a_node6"><a xlink:href="player_8hpp.html" target="_top" xlink:title="Declaration of the Player class, and associated types. ">
<polygon fill="white" stroke="black" points="1039,-347.5 1039,-366.5 1137,-366.5 1137,-347.5 1039,-347.5"/>
<text text-anchor="middle" x="1088" y="-354.5" font-family="Helvetica,sans-Serif" font-size="10.00">player/player.hpp</text>
</a>
</g>
</g>
<!-- Node2&#45;&gt;Node6 -->
<g id="edge5" class="edge"><title>Node2&#45;&gt;Node6</title>
<path fill="none" stroke="midnightblue" d="M915.031,-403.562C950.178,-394.304 1006.75,-379.403 1045.56,-369.178"/>
<polygon fill="midnightblue" stroke="midnightblue" points="1046.74,-372.488 1055.52,-366.556 1044.96,-365.719 1046.74,-372.488"/>
</g>
<!-- Node6&#45;&gt;Node3 -->
<g id="edge8" class="edge"><title>Node6&#45;&gt;Node3</title>
<path fill="none" stroke="midnightblue" d="M1137.24,-354.42C1206.87,-351.126 1329.11,-341.106 1360,-311 1403.48,-268.632 1400.58,-188.828 1396.63,-152.66"/>
<polygon fill="midnightblue" stroke="midnightblue" points="1400.08,-152.042 1395.37,-142.553 1393.14,-152.91 1400.08,-152.042"/>
</g>
<!-- Node6&#45;&gt;Node4 -->
<g id="edge9" class="edge"><title>Node6&#45;&gt;Node4</title>
<path fill="none" stroke="midnightblue" d="M1038.71,-355.437C948.235,-353.552 749.977,-345.463 587,-311 511.234,-294.979 495.239,-280.165 422,-255 350.351,-230.381 332.117,-225.117 261,-199 212.979,-181.365 157.734,-159.728 124.103,-146.403"/>
<polygon fill="midnightblue" stroke="midnightblue" points="124.977,-142.985 114.392,-142.548 122.395,-149.491 124.977,-142.985"/>
</g>
<!-- Node7 -->
<g id="node7" class="node"><title>Node7</title>
<polygon fill="white" stroke="#bfbfbf" points="1221.5,-0.5 1221.5,-19.5 1268.5,-19.5 1268.5,-0.5 1221.5,-0.5"/>
<text text-anchor="middle" x="1245" y="-7.5" font-family="Helvetica,sans-Serif" font-size="10.00">cstdint</text>
</g>
<!-- Node6&#45;&gt;Node7 -->
<g id="edge6" class="edge"><title>Node6&#45;&gt;Node7</title>
<path fill="none" stroke="midnightblue" d="M1137.18,-354.896C1258.07,-350.855 1560,-332.139 1560,-246 1560,-246 1560,-246 1560,-132 1560,-88.1259 1534.91,-78.092 1497,-56 1460.42,-34.6785 1338.67,-20.1653 1278.81,-14.1385"/>
<polygon fill="midnightblue" stroke="midnightblue" points="1279.03,-10.6428 1268.73,-13.1451 1278.34,-17.6091 1279.03,-10.6428"/>
</g>
<!-- Node8 -->
<g id="node8" class="node"><title>Node8</title>
<polygon fill="white" stroke="#bfbfbf" points="1201.5,-235.5 1201.5,-254.5 1278.5,-254.5 1278.5,-235.5 1201.5,-235.5"/>
<text text-anchor="middle" x="1240" y="-242.5" font-family="Helvetica,sans-Serif" font-size="10.00">initializer_list</text>
</g>
<!-- Node6&#45;&gt;Node8 -->
<g id="edge7" class="edge"><title>Node6&#45;&gt;Node8</title>
<path fill="none" stroke="midnightblue" d="M1115.47,-347.382C1136.44,-339.93 1165.32,-327.713 1187,-311 1204.41,-297.583 1219.71,-277.391 1229.34,-263.078"/>
<polygon fill="midnightblue" stroke="midnightblue" points="1232.3,-264.944 1234.82,-254.651 1226.43,-261.13 1232.3,-264.944"/>
</g>
<!-- Node9 -->
<g id="node9" class="node"><title>Node9</title>
<polygon fill="white" stroke="#bfbfbf" points="849.5,-0.5 849.5,-19.5 892.5,-19.5 892.5,-0.5 849.5,-0.5"/>
<text text-anchor="middle" x="871" y="-7.5" font-family="Helvetica,sans-Serif" font-size="10.00">string</text>
</g>
<!-- Node6&#45;&gt;Node9 -->
<g id="edge10" class="edge"><title>Node6&#45;&gt;Node9</title>
<path fill="none" stroke="midnightblue" d="M1038.78,-353.764C826.505,-343.477 0,-296.584 0,-190 0,-190 0,-190 0,-132 0,-56.8679 78.4779,-75.6311 151,-56 283.607,-20.1045 717.679,-12.6839 839.155,-11.2955"/>
<polygon fill="midnightblue" stroke="midnightblue" points="839.321,-14.794 849.282,-11.1856 839.245,-7.79438 839.321,-14.794"/>
</g>
<!-- Node10 -->
<g id="node10" class="node"><title>Node10</title>
<polygon fill="white" stroke="#bfbfbf" points="252,-123.5 252,-142.5 292,-142.5 292,-123.5 252,-123.5"/>
<text text-anchor="middle" x="272" y="-130.5" font-family="Helvetica,sans-Serif" font-size="10.00">utility</text>
</g>
<!-- Node6&#45;&gt;Node10 -->
<g id="edge11" class="edge"><title>Node6&#45;&gt;Node10</title>
<path fill="none" stroke="midnightblue" d="M1038.59,-355.031C914.203,-350.671 581.103,-326.964 343,-199 320.112,-186.699 298.835,-165.363 285.656,-150.504"/>
<polygon fill="midnightblue" stroke="midnightblue" points="288.053,-147.924 278.881,-142.621 282.745,-152.487 288.053,-147.924"/>
</g>
<!-- Node11 -->
<g id="node11" class="node"><title>Node11</title>
<g id="a_node11"><a xlink:href="audio_8hpp.html" target="_top" xlink:title="Declaration of the Audio class. ">
<polygon fill="white" stroke="black" points="352,-179.5 352,-198.5 450,-198.5 450,-179.5 352,-179.5"/>
<text text-anchor="middle" x="401" y="-186.5" font-family="Helvetica,sans-Serif" font-size="10.00">../audio/audio.hpp</text>
</a>
</g>
</g>
<!-- Node6&#45;&gt;Node11 -->
<g id="edge12" class="edge"><title>Node6&#45;&gt;Node11</title>
<path fill="none" stroke="midnightblue" d="M1049.06,-347.495C972.195,-330.615 795.637,-291.361 648,-255 575.245,-237.081 490.919,-214.497 441.997,-201.214"/>
<polygon fill="midnightblue" stroke="midnightblue" points="442.68,-197.773 432.112,-198.526 440.843,-204.528 442.68,-197.773"/>
</g>
<!-- Node6&#45;&gt;Node21 -->
<g id="edge31" class="edge"><title>Node6&#45;&gt;Node21</title>
<path fill="none" stroke="midnightblue" d="M1094.46,-347.201C1109.95,-326.396 1150.99,-273.067 1192,-235 1204.14,-223.727 1219.1,-212.658 1231.16,-204.319"/>
<polygon fill="midnightblue" stroke="midnightblue" points="1233.41,-207.022 1239.73,-198.516 1229.48,-201.227 1233.41,-207.022"/>
</g>
<!-- Node23 -->
<g id="node23" class="node"><title>Node23</title>
<g id="a_node23"><a xlink:href="time__parser_8hpp.html" target="_top" xlink:title="The TimeParser template class. ">
<polygon fill="white" stroke="black" points="1430.5,-123.5 1430.5,-142.5 1531.5,-142.5 1531.5,-123.5 1430.5,-123.5"/>
<text text-anchor="middle" x="1481" y="-130.5" font-family="Helvetica,sans-Serif" font-size="10.00">../time_parser.hpp</text>
</a>
</g>
</g>
<!-- Node6&#45;&gt;Node23 -->
<g id="edge36" class="edge"><title>Node6&#45;&gt;Node23</title>
<path fill="none" stroke="midnightblue" d="M1137.21,-353.642C1210.35,-349.288 1343.28,-337.851 1382,-311 1438.37,-271.905 1466.28,-189.787 1476.4,-152.784"/>
<polygon fill="midnightblue" stroke="midnightblue" points="1479.86,-153.405 1478.98,-142.846 1473.08,-151.646 1479.86,-153.405"/>
</g>
<!-- Node25 -->
<g id="node25" class="node"><title>Node25</title>
<g id="a_node25"><a xlink:href="player__file_8hpp.html" target="_top" xlink:title="Declaration of the PlayerFile class, and associated types. ">
<polygon fill="white" stroke="black" points="974,-291.5 974,-310.5 1060,-310.5 1060,-291.5 974,-291.5"/>
<text text-anchor="middle" x="1017" y="-298.5" font-family="Helvetica,sans-Serif" font-size="10.00">player_file.hpp</text>
</a>
</g>
</g>
<!-- Node6&#45;&gt;Node25 -->
<g id="edge42" class="edge"><title>Node6&#45;&gt;Node25</title>
<path fill="none" stroke="midnightblue" d="M1076.59,-347.324C1065.89,-339.185 1049.66,-326.839 1036.84,-317.087"/>
<polygon fill="midnightblue" stroke="midnightblue" points="1038.69,-314.102 1028.61,-310.834 1034.46,-319.673 1038.69,-314.102"/>
</g>
<!-- Node33 -->
<g id="node33" class="node"><title>Node33</title>
<g id="a_node33"><a xlink:href="player__position_8hpp.html" target="_top" xlink:title="Declaration of the PlayerPosition class. ">
<polygon fill="white" stroke="black" points="997.5,-235.5 997.5,-254.5 1106.5,-254.5 1106.5,-235.5 997.5,-235.5"/>
<text text-anchor="middle" x="1052" y="-242.5" font-family="Helvetica,sans-Serif" font-size="10.00">player_position.hpp</text>
</a>
</g>
</g>
<!-- Node6&#45;&gt;Node33 -->
<g id="edge72" class="edge"><title>Node6&#45;&gt;Node33</title>
<path fill="none" stroke="midnightblue" d="M1085.63,-347.102C1082.23,-334.519 1075.64,-310.847 1069,-291 1066.02,-282.079 1062.37,-272.296 1059.22,-264.137"/>
<polygon fill="midnightblue" stroke="midnightblue" points="1062.37,-262.588 1055.46,-254.556 1055.85,-265.144 1062.37,-262.588"/>
</g>
<!-- Node35 -->
<g id="node35" class="node"><title>Node35</title>
<g id="a_node35"><a xlink:href="player__state_8hpp.html" target="_top" xlink:title="Declaration of the PlayerState class, and associated types. ">
<polygon fill="white" stroke="black" points="1256.5,-291.5 1256.5,-310.5 1351.5,-310.5 1351.5,-291.5 1256.5,-291.5"/>
<text text-anchor="middle" x="1304" y="-298.5" font-family="Helvetica,sans-Serif" font-size="10.00">player_state.hpp</text>
</a>
</g>
</g>
<!-- Node6&#45;&gt;Node35 -->
<g id="edge73" class="edge"><title>Node6&#45;&gt;Node35</title>
<path fill="none" stroke="midnightblue" d="M1122.23,-347.444C1159.51,-338.122 1219.27,-323.183 1260.01,-312.997"/>
<polygon fill="midnightblue" stroke="midnightblue" points="1261.08,-316.337 1269.93,-310.516 1259.38,-309.546 1261.08,-316.337"/>
</g>
<!-- Node11&#45;&gt;Node4 -->
<g id="edge14" class="edge"><title>Node11&#45;&gt;Node4</title>
<path fill="none" stroke="midnightblue" d="M351.659,-180.428C297.974,-172.016 209.683,-157.675 134,-143 132.752,-142.758 131.485,-142.507 130.205,-142.25"/>
<polygon fill="midnightblue" stroke="midnightblue" points="130.812,-138.802 120.308,-140.19 129.385,-145.655 130.812,-138.802"/>
</g>
<!-- Node11&#45;&gt;Node5 -->
<g id="edge17" class="edge"><title>Node11&#45;&gt;Node5</title>
<path fill="none" stroke="midnightblue" d="M351.638,-180.537C310.368,-173.169 256.189,-160.47 243,-143 209.793,-99.0154 308.371,-81.5852 362.716,-75.4486"/>
<polygon fill="midnightblue" stroke="midnightblue" points="363.367,-78.8994 372.943,-74.3674 362.631,-71.9382 363.367,-78.8994"/>
</g>
<!-- Node11&#45;&gt;Node7 -->
<g id="edge13" class="edge"><title>Node11&#45;&gt;Node7</title>
<path fill="none" stroke="midnightblue" d="M351.954,-181.519C307.73,-174.55 247.476,-161.864 233,-143 227.588,-135.948 228.361,-130.583 233,-123 267.126,-67.2153 300.835,-72.9319 364,-56 446.885,-33.7822 1059.89,-15.9762 1211.27,-11.8861"/>
<polygon fill="midnightblue" stroke="midnightblue" points="1211.46,-15.3824 1221.36,-11.6154 1211.27,-8.38494 1211.46,-15.3824"/>
</g>
<!-- Node11&#45;&gt;Node9 -->
<g id="edge15" class="edge"><title>Node11&#45;&gt;Node9</title>
<path fill="none" stroke="midnightblue" d="M351.749,-181.671C287.908,-172.966 183.358,-156.807 172,-143 147.436,-113.139 145.551,-84.2061 172,-56 195.109,-31.3558 704.944,-15.5849 838.964,-11.8551"/>
<polygon fill="midnightblue" stroke="midnightblue" points="839.457,-15.3429 849.357,-11.5691 839.265,-8.34559 839.457,-15.3429"/>
</g>
<!-- Node11&#45;&gt;Node10 -->
<g id="edge16" class="edge"><title>Node11&#45;&gt;Node10</title>
<path fill="none" stroke="midnightblue" d="M380.56,-179.444C359.33,-170.557 325.901,-156.563 301.745,-146.451"/>
<polygon fill="midnightblue" stroke="midnightblue" points="302.921,-143.149 292.345,-142.516 300.218,-149.606 302.921,-143.149"/>
</g>
<!-- Node12 -->
<g id="node12" class="node"><title>Node12</title>
<polygon fill="white" stroke="#bfbfbf" points="510.5,-123.5 510.5,-142.5 579.5,-142.5 579.5,-123.5 510.5,-123.5"/>
<text text-anchor="middle" x="545" y="-130.5" font-family="Helvetica,sans-Serif" font-size="10.00">portaudio.h</text>
</g>
<!-- Node11&#45;&gt;Node12 -->
<g id="edge18" class="edge"><title>Node11&#45;&gt;Node12</title>
<path fill="none" stroke="midnightblue" d="M423.817,-179.444C447.832,-170.438 485.829,-156.189 512.869,-146.049"/>
<polygon fill="midnightblue" stroke="midnightblue" points="514.155,-149.305 522.29,-142.516 511.697,-142.751 514.155,-149.305"/>
</g>
<!-- Node13 -->
<g id="node13" class="node"><title>Node13</title>
<polygon fill="white" stroke="#bfbfbf" points="310,-123.5 310,-142.5 492,-142.5 492,-123.5 310,-123.5"/>
<text text-anchor="middle" x="401" y="-130.5" font-family="Helvetica,sans-Serif" font-size="10.00">portaudiocpp/CallbackInterface.hxx</text>
</g>
<!-- Node11&#45;&gt;Node13 -->
<g id="edge19" class="edge"><title>Node11&#45;&gt;Node13</title>
<path fill="none" stroke="midnightblue" d="M401,-179.083C401,-172.006 401,-161.861 401,-152.986"/>
<polygon fill="midnightblue" stroke="midnightblue" points="404.5,-152.751 401,-142.751 397.5,-152.751 404.5,-152.751"/>
</g>
<!-- Node14 -->
<g id="node14" class="node"><title>Node14</title>
<g id="a_node14"><a xlink:href="audio__source_8hpp.html" target="_top" xlink:title="Declaration of the AudioSource class. ">
<polygon fill="white" stroke="black" points="1002,-123.5 1002,-142.5 1102,-142.5 1102,-123.5 1002,-123.5"/>
<text text-anchor="middle" x="1052" y="-130.5" font-family="Helvetica,sans-Serif" font-size="10.00">audio_source.hpp</text>
</a>
</g>
</g>
<!-- Node11&#45;&gt;Node14 -->
<g id="edge20" class="edge"><title>Node11&#45;&gt;Node14</title>
<path fill="none" stroke="midnightblue" d="M450.319,-183.235C465.306,-181.825 481.823,-180.309 497,-179 699.987,-161.491 750.997,-160.317 954,-143 966.169,-141.962 979.184,-140.802 991.622,-139.669"/>
<polygon fill="midnightblue" stroke="midnightblue" points="992.265,-143.125 1001.9,-138.727 991.627,-136.154 992.265,-143.125"/>
</g>
<!-- Node14&#45;&gt;Node5 -->
<g id="edge24" class="edge"><title>Node14&#45;&gt;Node5</title>
<path fill="none" stroke="midnightblue" d="M1001.89,-127.386C986.528,-125.974 969.569,-124.419 954,-123 754.768,-104.836 515.497,-83.2624 429.119,-75.4819"/>
<polygon fill="midnightblue" stroke="midnightblue" points="429.396,-71.9928 419.123,-74.5816 428.768,-78.9646 429.396,-71.9928"/>
</g>
<!-- Node14&#45;&gt;Node7 -->
<g id="edge22" class="edge"><title>Node14&#45;&gt;Node7</title>
<path fill="none" stroke="midnightblue" d="M1065.57,-123.492C1098.37,-102.93 1182.2,-50.3751 1222.58,-25.0544"/>
<polygon fill="midnightblue" stroke="midnightblue" points="1224.57,-27.9383 1231.19,-19.661 1220.85,-22.0075 1224.57,-27.9383"/>
</g>
<!-- Node14&#45;&gt;Node9 -->
<g id="edge23" class="edge"><title>Node14&#45;&gt;Node9</title>
<path fill="none" stroke="midnightblue" d="M1064.42,-123.297C1083.85,-108.634 1117.42,-78.4118 1099,-56 1074.51,-26.2052 959.443,-15.815 902.741,-12.4635"/>
<polygon fill="midnightblue" stroke="midnightblue" points="902.723,-8.95728 892.545,-11.8999 902.337,-15.9466 902.723,-8.95728"/>
</g>
<!-- Node15 -->
<g id="node15" class="node"><title>Node15</title>
<polygon fill="white" stroke="#bfbfbf" points="899.5,-62 899.5,-81 940.5,-81 940.5,-62 899.5,-62"/>
<text text-anchor="middle" x="920" y="-69" font-family="Helvetica,sans-Serif" font-size="10.00">array</text>
</g>
<!-- Node14&#45;&gt;Node15 -->
<g id="edge21" class="edge"><title>Node14&#45;&gt;Node15</title>
<path fill="none" stroke="midnightblue" d="M1031.34,-123.346C1010.44,-114.505 977.278,-100.236 949,-87 948.006,-86.5347 946.995,-86.0561 945.975,-85.569"/>
<polygon fill="midnightblue" stroke="midnightblue" points="947.318,-82.3294 936.796,-81.0824 944.244,-88.6183 947.318,-82.3294"/>
</g>
<!-- Node16 -->
<g id="node16" class="node"><title>Node16</title>
<polygon fill="white" stroke="#bfbfbf" points="958.5,-62 958.5,-81 999.5,-81 999.5,-62 958.5,-62"/>
<text text-anchor="middle" x="979" y="-69" font-family="Helvetica,sans-Serif" font-size="10.00">sox.h</text>
</g>
<!-- Node14&#45;&gt;Node16 -->
<g id="edge25" class="edge"><title>Node14&#45;&gt;Node16</title>
<path fill="none" stroke="midnightblue" d="M1041.54,-123.475C1030.05,-114.108 1011.37,-98.8839 997.413,-87.5081"/>
<polygon fill="midnightblue" stroke="midnightblue" points="999.402,-84.614 989.44,-81.0091 994.98,-90.04 999.402,-84.614"/>
</g>
<!-- Node17 -->
<g id="node17" class="node"><title>Node17</title>
<g id="a_node17"><a xlink:href="errors_8hpp.html" target="_top" xlink:title="Declarations of the playd Error exception set. ">
<polygon fill="white" stroke="black" points="1361.5,-62 1361.5,-81 1434.5,-81 1434.5,-62 1361.5,-62"/>
<text text-anchor="middle" x="1398" y="-69" font-family="Helvetica,sans-Serif" font-size="10.00">../errors.hpp</text>
</a>
</g>
</g>
<!-- Node14&#45;&gt;Node17 -->
<g id="edge26" class="edge"><title>Node14&#45;&gt;Node17</title>
<path fill="none" stroke="midnightblue" d="M1101.57,-123.475C1168.26,-112.007 1286.02,-91.757 1351.24,-80.5415"/>
<polygon fill="midnightblue" stroke="midnightblue" points="1351.98,-83.966 1361.24,-78.8218 1350.79,-77.0672 1351.98,-83.966"/>
</g>
<!-- Node20 -->
<g id="node20" class="node"><title>Node20</title>
<g id="a_node20"><a xlink:href="sample__formats_8hpp.html" target="_top" xlink:title="The SampleFormat enumeration. ">
<polygon fill="white" stroke="black" points="1185.5,-62 1185.5,-81 1304.5,-81 1304.5,-62 1185.5,-62"/>
<text text-anchor="middle" x="1245" y="-69" font-family="Helvetica,sans-Serif" font-size="10.00">../sample_formats.hpp</text>
</a>
</g>
</g>
<!-- Node14&#45;&gt;Node20 -->
<g id="edge29" class="edge"><title>Node14&#45;&gt;Node20</title>
<path fill="none" stroke="midnightblue" d="M1079.65,-123.475C1113.19,-113.136 1169.87,-95.6611 1207.37,-84.1017"/>
<polygon fill="midnightblue" stroke="midnightblue" points="1208.87,-87.2999 1217.4,-81.0091 1206.81,-80.6106 1208.87,-87.2999"/>
</g>
<!-- Node18 -->
<g id="node18" class="node"><title>Node18</title>
<polygon fill="white" stroke="#bfbfbf" points="1369.5,-0.5 1369.5,-19.5 1426.5,-19.5 1426.5,-0.5 1369.5,-0.5"/>
<text text-anchor="middle" x="1398" y="-7.5" font-family="Helvetica,sans-Serif" font-size="10.00">iostream</text>
</g>
<!-- Node17&#45;&gt;Node18 -->
<g id="edge27" class="edge"><title>Node17&#45;&gt;Node18</title>
<path fill="none" stroke="midnightblue" d="M1398,-61.9751C1398,-53.5803 1398,-40.4806 1398,-29.6631"/>
<polygon fill="midnightblue" stroke="midnightblue" points="1401.5,-29.5091 1398,-19.5091 1394.5,-29.5091 1401.5,-29.5091"/>
</g>
<!-- Node19 -->
<g id="node19" class="node"><title>Node19</title>
<polygon fill="white" stroke="#bfbfbf" points="1508,-0.5 1508,-19.5 1562,-19.5 1562,-0.5 1508,-0.5"/>
<text text-anchor="middle" x="1535" y="-7.5" font-family="Helvetica,sans-Serif" font-size="10.00">sstream</text>
</g>
<!-- Node17&#45;&gt;Node19 -->
<g id="edge28" class="edge"><title>Node17&#45;&gt;Node19</title>
<path fill="none" stroke="midnightblue" d="M1417.63,-61.9751C1440.82,-51.9013 1479.62,-35.0525 1506.21,-23.5023"/>
<polygon fill="midnightblue" stroke="midnightblue" points="1507.63,-26.703 1515.41,-19.5091 1504.84,-20.2824 1507.63,-26.703"/>
</g>
<!-- Node20&#45;&gt;Node7 -->
<g id="edge30" class="edge"><title>Node20&#45;&gt;Node7</title>
<path fill="none" stroke="midnightblue" d="M1245,-61.9751C1245,-53.5803 1245,-40.4806 1245,-29.6631"/>
<polygon fill="midnightblue" stroke="midnightblue" points="1248.5,-29.5091 1245,-19.5091 1241.5,-29.5091 1248.5,-29.5091"/>
</g>
<!-- Node21&#45;&gt;Node3 -->
<g id="edge32" class="edge"><title>Node21&#45;&gt;Node3</title>
<path fill="none" stroke="midnightblue" d="M1275.34,-179.444C1299.85,-170.056 1339.25,-154.969 1365.85,-144.78"/>
<polygon fill="midnightblue" stroke="midnightblue" points="1367.28,-147.982 1375.36,-141.137 1364.77,-141.445 1367.28,-147.982"/>
</g>
<!-- Node21&#45;&gt;Node9 -->
<g id="edge34" class="edge"><title>Node21&#45;&gt;Node9</title>
<path fill="none" stroke="midnightblue" d="M1241.62,-179.289C1226.37,-166.528 1202.65,-142.188 1216,-123 1242.26,-85.2487 1286.74,-124.751 1313,-87 1320.87,-75.689 1322.24,-66.2238 1313,-56 1285.56,-25.6228 999.675,-14.6815 902.854,-11.8309"/>
<polygon fill="midnightblue" stroke="midnightblue" points="902.882,-8.33032 892.786,-11.5438 902.682,-15.3275 902.882,-8.33032"/>
</g>
<!-- Node21&#45;&gt;Node17 -->
<g id="edge35" class="edge"><title>Node21&#45;&gt;Node17</title>
<path fill="none" stroke="midnightblue" d="M1263.55,-179.304C1278.8,-166.767 1307.92,-142.927 1333,-123 1348.27,-110.865 1365.74,-97.3137 1378.72,-87.3061"/>
<polygon fill="midnightblue" stroke="midnightblue" points="1381.11,-89.8783 1386.9,-81.005 1376.84,-84.3314 1381.11,-89.8783"/>
</g>
<!-- Node22 -->
<g id="node22" class="node"><title>Node22</title>
<polygon fill="white" stroke="#bfbfbf" points="1225.5,-123.5 1225.5,-142.5 1280.5,-142.5 1280.5,-123.5 1225.5,-123.5"/>
<text text-anchor="middle" x="1253" y="-130.5" font-family="Helvetica,sans-Serif" font-size="10.00">ostream</text>
</g>
<!-- Node21&#45;&gt;Node22 -->
<g id="edge33" class="edge"><title>Node21&#45;&gt;Node22</title>
<path fill="none" stroke="midnightblue" d="M1253,-179.083C1253,-172.006 1253,-161.861 1253,-152.986"/>
<polygon fill="midnightblue" stroke="midnightblue" points="1256.5,-152.751 1253,-142.751 1249.5,-152.751 1256.5,-152.751"/>
</g>
<!-- Node23&#45;&gt;Node7 -->
<g id="edge37" class="edge"><title>Node23&#45;&gt;Node7</title>
<path fill="none" stroke="midnightblue" d="M1483.62,-123.227C1487.7,-107.631 1493.48,-74.9412 1477,-56 1451.52,-26.7119 1336.96,-16.135 1278.92,-12.6098"/>
<polygon fill="midnightblue" stroke="midnightblue" points="1278.96,-9.10645 1268.78,-12.0308 1278.56,-16.0951 1278.96,-9.10645"/>
</g>
<!-- Node23&#45;&gt;Node17 -->
<g id="edge39" class="edge"><title>Node23&#45;&gt;Node17</title>
<path fill="none" stroke="midnightblue" d="M1469.11,-123.475C1455.8,-113.931 1434,-98.3073 1418.04,-86.8683"/>
<polygon fill="midnightblue" stroke="midnightblue" points="1420.04,-83.9908 1409.87,-81.0091 1415.96,-89.68 1420.04,-83.9908"/>
</g>
<!-- Node23&#45;&gt;Node19 -->
<g id="edge38" class="edge"><title>Node23&#45;&gt;Node19</title>
<path fill="none" stroke="midnightblue" d="M1489.16,-123.383C1496.87,-114.796 1508.24,-100.916 1515,-87 1523.92,-68.6317 1529.25,-45.7631 1532.13,-29.9352"/>
<polygon fill="midnightblue" stroke="midnightblue" points="1535.63,-30.2588 1533.82,-19.8195 1528.72,-29.1081 1535.63,-30.2588"/>
</g>
<!-- Node24 -->
<g id="node24" class="node"><title>Node24</title>
<g id="a_node24"><a xlink:href="messages_8h.html" target="_top" xlink:title="Constant human&#45;readable messages used within playd. ">
<polygon fill="white" stroke="black" points="1017.5,-62 1017.5,-81 1090.5,-81 1090.5,-62 1017.5,-62"/>
<text text-anchor="middle" x="1054" y="-69" font-family="Helvetica,sans-Serif" font-size="10.00">messages.h</text>
</a>
</g>
</g>
<!-- Node23&#45;&gt;Node24 -->
<g id="edge40" class="edge"><title>Node23&#45;&gt;Node24</title>
<path fill="none" stroke="midnightblue" d="M1430.27,-124.346C1427.13,-123.887 1424.02,-123.435 1421,-123 1306.1,-106.478 1170.8,-88.1516 1100.97,-78.7773"/>
<polygon fill="midnightblue" stroke="midnightblue" points="1101.12,-75.2664 1090.74,-77.4058 1100.19,-82.2043 1101.12,-75.2664"/>
</g>
<!-- Node24&#45;&gt;Node9 -->
<g id="edge41" class="edge"><title>Node24&#45;&gt;Node9</title>
<path fill="none" stroke="midnightblue" d="M1027.78,-61.9751C994.679,-51.2124 937.792,-32.7166 902.405,-21.2111"/>
<polygon fill="midnightblue" stroke="midnightblue" points="903.19,-17.786 892.598,-18.0224 901.026,-24.443 903.19,-17.786"/>
</g>
<!-- Node25&#45;&gt;Node4 -->
<g id="edge43" class="edge"><title>Node25&#45;&gt;Node4</title>
<path fill="none" stroke="midnightblue" d="M973.991,-295.605C905.036,-288.368 765.548,-272.942 648,-255 511.756,-234.204 477.56,-228.804 343,-199 266.764,-182.114 178.583,-158.13 129.972,-144.514"/>
<polygon fill="midnightblue" stroke="midnightblue" points="130.792,-141.109 120.218,-141.772 128.897,-147.847 130.792,-141.109"/>
</g>
<!-- Node25&#45;&gt;Node21 -->
<g id="edge67" class="edge"><title>Node25&#45;&gt;Node21</title>
<path fill="none" stroke="midnightblue" d="M1035.81,-291.427C1055.56,-282.413 1087.5,-267.79 1115,-255 1153.45,-237.118 1197.79,-216.176 1225.61,-202.998"/>
<polygon fill="midnightblue" stroke="midnightblue" points="1227.18,-206.124 1234.72,-198.678 1224.19,-199.798 1227.18,-206.124"/>
</g>
<!-- Node26 -->
<g id="node26" class="node"><title>Node26</title>
<g id="a_node26"><a xlink:href="audio__system_8hpp.html" target="_top" xlink:title="Declaration of the AudioSystem class. ">
<polygon fill="white" stroke="black" points="657.5,-235.5 657.5,-254.5 794.5,-254.5 794.5,-235.5 657.5,-235.5"/>
<text text-anchor="middle" x="726" y="-242.5" font-family="Helvetica,sans-Serif" font-size="10.00">../audio/audio_system.hpp</text>
</a>
</g>
</g>
<!-- Node25&#45;&gt;Node26 -->
<g id="edge44" class="edge"><title>Node25&#45;&gt;Node26</title>
<path fill="none" stroke="midnightblue" d="M973.749,-291.974C922.773,-282.515 837.941,-266.773 781.989,-256.39"/>
<polygon fill="midnightblue" stroke="midnightblue" points="782.364,-252.9 771.893,-254.516 781.086,-259.782 782.364,-252.9"/>
</g>
<!-- Node25&#45;&gt;Node33 -->
<g id="edge68" class="edge"><title>Node25&#45;&gt;Node33</title>
<path fill="none" stroke="midnightblue" d="M1022.78,-291.083C1027.67,-283.534 1034.83,-272.495 1040.83,-263.23"/>
<polygon fill="midnightblue" stroke="midnightblue" points="1043.83,-265.046 1046.33,-254.751 1037.95,-261.239 1043.83,-265.046"/>
</g>
<!-- Node26&#45;&gt;Node9 -->
<g id="edge45" class="edge"><title>Node26&#45;&gt;Node9</title>
<path fill="none" stroke="midnightblue" d="M791.875,-235.454C846.447,-224.427 920.311,-199.402 954,-143 980.222,-99.0986 893.194,-91.1867 890,-87 877.399,-70.4828 873.071,-46.6186 871.63,-30.0555"/>
<polygon fill="midnightblue" stroke="midnightblue" points="875.116,-29.7093 871.027,-19.9352 868.128,-30.1257 875.116,-29.7093"/>
</g>
<!-- Node26&#45;&gt;Node10 -->
<g id="edge46" class="edge"><title>Node26&#45;&gt;Node10</title>
<path fill="none" stroke="midnightblue" d="M726.16,-235.177C725.893,-220.869 723.069,-192.817 706,-179 638.033,-123.984 405.327,-158.117 302.02,-142.573"/>
<polygon fill="midnightblue" stroke="midnightblue" points="302.594,-139.121 292.141,-140.85 301.391,-146.017 302.594,-139.121"/>
</g>
<!-- Node26&#45;&gt;Node11 -->
<g id="edge66" class="edge"><title>Node26&#45;&gt;Node11</title>
<path fill="none" stroke="midnightblue" d="M674.503,-235.444C616.178,-225.753 521.309,-209.99 460.037,-199.809"/>
<polygon fill="midnightblue" stroke="midnightblue" points="460.567,-196.349 450.129,-198.163 459.42,-203.255 460.567,-196.349"/>
</g>
<!-- Node26&#45;&gt;Node14 -->
<g id="edge65" class="edge"><title>Node26&#45;&gt;Node14</title>
<path fill="none" stroke="midnightblue" d="M787.374,-235.479C859.164,-225.197 970.489,-208.153 988,-199 1009.62,-187.7 1028.39,-166.467 1039.92,-151.344"/>
<polygon fill="midnightblue" stroke="midnightblue" points="1043.04,-153 1046.12,-142.861 1037.39,-148.87 1043.04,-153"/>
</g>
<!-- Node26&#45;&gt;Node20 -->
<g id="edge49" class="edge"><title>Node26&#45;&gt;Node20</title>
<path fill="none" stroke="midnightblue" d="M794.802,-236.137C867.251,-227.358 976.225,-212.593 1016,-199 1098.36,-170.852 1185.74,-113.959 1224.47,-87.13"/>
<polygon fill="midnightblue" stroke="midnightblue" points="1226.63,-89.8885 1232.82,-81.2876 1222.62,-84.1532 1226.63,-89.8885"/>
</g>
<!-- Node27 -->
<g id="node27" class="node"><title>Node27</title>
<polygon fill="white" stroke="#bfbfbf" points="506.5,-179.5 506.5,-198.5 697.5,-198.5 697.5,-179.5 506.5,-179.5"/>
<text text-anchor="middle" x="602" y="-186.5" font-family="Helvetica,sans-Serif" font-size="10.00">portaudiocpp/SampleDataFormat.hxx</text>
</g>
<!-- Node26&#45;&gt;Node27 -->
<g id="edge47" class="edge"><title>Node26&#45;&gt;Node27</title>
<path fill="none" stroke="midnightblue" d="M706.352,-235.444C686.035,-226.596 654.097,-212.687 630.902,-202.586"/>
<polygon fill="midnightblue" stroke="midnightblue" points="632.122,-199.3 621.556,-198.516 629.327,-205.718 632.122,-199.3"/>
</g>
<!-- Node28 -->
<g id="node28" class="node"><title>Node28</title>
<polygon fill="white" stroke="#bfbfbf" points="598,-123.5 598,-142.5 732,-142.5 732,-123.5 598,-123.5"/>
<text text-anchor="middle" x="665" y="-130.5" font-family="Helvetica,sans-Serif" font-size="10.00">portaudiocpp/Stream.hxx</text>
</g>
<!-- Node26&#45;&gt;Node28 -->
<g id="edge48" class="edge"><title>Node26&#45;&gt;Node28</title>
<path fill="none" stroke="midnightblue" d="M657.373,-239.913C597.463,-234.741 517.045,-223.367 497,-199 491.353,-192.135 491.588,-186.052 497,-179 509.117,-163.211 553.304,-151.75 593.319,-144.347"/>
<polygon fill="midnightblue" stroke="midnightblue" points="594.151,-147.754 603.381,-142.552 592.921,-140.862 594.151,-147.754"/>
</g>
<!-- Node29 -->
<g id="node29" class="node"><title>Node29</title>
<g id="a_node29"><a xlink:href="audio__sink_8hpp.html" target="_top" xlink:title="Declaration of the AudioSink class. ">
<polygon fill="white" stroke="black" points="754.5,-179.5 754.5,-198.5 841.5,-198.5 841.5,-179.5 754.5,-179.5"/>
<text text-anchor="middle" x="798" y="-186.5" font-family="Helvetica,sans-Serif" font-size="10.00">audio_sink.hpp</text>
</a>
</g>
</g>
<!-- Node26&#45;&gt;Node29 -->
<g id="edge50" class="edge"><title>Node26&#45;&gt;Node29</title>
<path fill="none" stroke="midnightblue" d="M737.568,-235.324C748.42,-227.185 764.881,-214.839 777.883,-205.087"/>
<polygon fill="midnightblue" stroke="midnightblue" points="780.321,-207.634 786.221,-198.834 776.121,-202.034 780.321,-207.634"/>
</g>
<!-- Node29&#45;&gt;Node4 -->
<g id="edge52" class="edge"><title>Node29&#45;&gt;Node4</title>
<path fill="none" stroke="midnightblue" d="M754.496,-183.526C739.175,-182.008 721.83,-180.355 706,-179 487.975,-160.336 225.91,-142.699 130.254,-136.419"/>
<polygon fill="midnightblue" stroke="midnightblue" points="130.416,-132.922 120.209,-135.761 129.959,-139.907 130.416,-132.922"/>
</g>
<!-- Node29&#45;&gt;Node5 -->
<g id="edge55" class="edge"><title>Node29&#45;&gt;Node5</title>
<path fill="none" stroke="midnightblue" d="M793.046,-179.07C784.502,-164.607 765.525,-136.338 741,-123 687.527,-93.9184 505.155,-79.3632 429.407,-74.4585"/>
<polygon fill="midnightblue" stroke="midnightblue" points="429.233,-70.9406 419.032,-73.8043 428.792,-77.9268 429.233,-70.9406"/>
</g>
<!-- Node29&#45;&gt;Node7 -->
<g id="edge51" class="edge"><title>Node29&#45;&gt;Node7</title>
<path fill="none" stroke="midnightblue" d="M799.594,-179.163C801.542,-165.339 803.031,-138.574 789,-123 744.267,-73.3462 684.214,-139.611 643,-87 634.503,-76.154 633.628,-66.0989 643,-56 662.462,-35.0293 1086.81,-17.0899 1211.09,-12.2708"/>
<polygon fill="midnightblue" stroke="midnightblue" points="1211.32,-15.7648 1221.17,-11.8832 1211.05,-8.76998 1211.32,-15.7648"/>
</g>
<!-- Node29&#45;&gt;Node9 -->
<g id="edge53" class="edge"><title>Node29&#45;&gt;Node9</title>
<path fill="none" stroke="midnightblue" d="M796.384,-179.34C793.288,-165.266 785.146,-137.542 767,-123 711.137,-78.2314 654.607,-142.993 610,-87 601.415,-76.2238 601.124,-66.5376 610,-56 638.983,-21.5923 776.152,-13.4933 839.184,-11.5869"/>
<polygon fill="midnightblue" stroke="midnightblue" points="839.441,-15.0813 849.344,-11.3143 839.254,-8.08385 839.441,-15.0813"/>
</g>
<!-- Node29&#45;&gt;Node10 -->
<g id="edge54" class="edge"><title>Node29&#45;&gt;Node10</title>
<path fill="none" stroke="midnightblue" d="M754.342,-180.88C749.51,-180.195 744.655,-179.551 740,-179 548.82,-156.358 494.971,-179.443 302.029,-142.777"/>
<polygon fill="midnightblue" stroke="midnightblue" points="302.619,-139.326 292.137,-140.868 301.293,-146.199 302.619,-139.326"/>
</g>
<!-- Node29&#45;&gt;Node12 -->
<g id="edge56" class="edge"><title>Node29&#45;&gt;Node12</title>
<path fill="none" stroke="midnightblue" d="M757.911,-179.444C712.089,-169.663 637.289,-153.698 589.643,-143.529"/>
<polygon fill="midnightblue" stroke="midnightblue" points="590.126,-140.053 579.616,-141.388 588.665,-146.899 590.126,-140.053"/>
</g>
<!-- Node29&#45;&gt;Node13 -->
<g id="edge57" class="edge"><title>Node29&#45;&gt;Node13</title>
<path fill="none" stroke="midnightblue" d="M754.311,-181.115C749.484,-180.386 744.64,-179.668 740,-179 650.567,-166.127 547.661,-152.656 478.907,-143.848"/>
<polygon fill="midnightblue" stroke="midnightblue" points="478.959,-140.326 468.595,-142.529 478.071,-147.269 478.959,-140.326"/>
</g>
<!-- Node29&#45;&gt;Node14 -->
<g id="edge59" class="edge"><title>Node29&#45;&gt;Node14</title>
<path fill="none" stroke="midnightblue" d="M838.247,-179.444C882.65,-170.004 954.153,-154.802 1002.09,-144.611"/>
<polygon fill="midnightblue" stroke="midnightblue" points="1002.89,-148.02 1011.94,-142.516 1001.43,-141.173 1002.89,-148.02"/>
</g>
<!-- Node29&#45;&gt;Node28 -->
<g id="edge58" class="edge"><title>Node29&#45;&gt;Node28</title>
<path fill="none" stroke="midnightblue" d="M776.926,-179.444C754.94,-170.517 720.266,-156.439 695.336,-146.317"/>
<polygon fill="midnightblue" stroke="midnightblue" points="696.558,-143.035 685.976,-142.516 693.924,-149.521 696.558,-143.035"/>
</g>
<!-- Node30 -->
<g id="node30" class="node"><title>Node30</title>
<g id="a_node30"><a xlink:href="ringbuffer_8hpp.html" target="_top" xlink:title="The RingBuffer class template. ">
<polygon fill="white" stroke="black" points="864.5,-123.5 864.5,-142.5 945.5,-142.5 945.5,-123.5 864.5,-123.5"/>
<text text-anchor="middle" x="905" y="-130.5" font-family="Helvetica,sans-Serif" font-size="10.00">ringbuffer.hpp</text>
</a>
</g>
</g>
<!-- Node29&#45;&gt;Node30 -->
<g id="edge60" class="edge"><title>Node29&#45;&gt;Node30</title>
<path fill="none" stroke="midnightblue" d="M815.191,-179.324C832.351,-170.664 858.946,-157.242 878.747,-147.249"/>
<polygon fill="midnightblue" stroke="midnightblue" points="880.501,-150.285 887.851,-142.655 877.347,-144.035 880.501,-150.285"/>
</g>
<!-- Node30&#45;&gt;Node17 -->
<g id="edge63" class="edge"><title>Node30&#45;&gt;Node17</title>
<path fill="none" stroke="midnightblue" d="M945.562,-127.835C1034.15,-118.689 1242.6,-96.8776 1313,-87 1325.39,-85.2611 1338.76,-83.1118 1351.13,-81.0054"/>
<polygon fill="midnightblue" stroke="midnightblue" points="1352,-84.4079 1361.26,-79.2562 1350.81,-77.5102 1352,-84.4079"/>
</g>
<!-- Node30&#45;&gt;Node24 -->
<g id="edge64" class="edge"><title>Node30&#45;&gt;Node24</title>
<path fill="none" stroke="midnightblue" d="M926.348,-123.475C951.686,-113.357 994.138,-96.4046 1023.07,-84.8507"/>
<polygon fill="midnightblue" stroke="midnightblue" points="1024.7,-87.9681 1032.69,-81.0091 1022.11,-81.4673 1024.7,-87.9681"/>
</g>
<!-- Node31 -->
<g id="node31" class="node"><title>Node31</title>
<polygon fill="white" stroke="#bfbfbf" points="652.5,-62 652.5,-81 703.5,-81 703.5,-62 652.5,-62"/>
<text text-anchor="middle" x="678" y="-69" font-family="Helvetica,sans-Serif" font-size="10.00">cassert</text>
</g>
<!-- Node30&#45;&gt;Node31 -->
<g id="edge61" class="edge"><title>Node30&#45;&gt;Node31</title>
<path fill="none" stroke="midnightblue" d="M864.144,-124.622C824.687,-116.996 763.504,-103.845 712,-87 710.079,-86.3716 708.116,-85.6784 706.15,-84.9457"/>
<polygon fill="midnightblue" stroke="midnightblue" points="707.066,-81.5425 696.482,-81.0718 704.463,-88.0403 707.066,-81.5425"/>
</g>
<!-- Node32 -->
<g id="node32" class="node"><title>Node32</title>
<polygon fill="white" stroke="#bfbfbf" points="721.5,-56.5 721.5,-86.5 842.5,-86.5 842.5,-56.5 721.5,-56.5"/>
<text text-anchor="start" x="729.5" y="-74.5" font-family="Helvetica,sans-Serif" font-size="10.00">../contrib/pa_ringbuffer</text>
<text text-anchor="middle" x="782" y="-63.5" font-family="Helvetica,sans-Serif" font-size="10.00">/pa_ringbuffer.h</text>
</g>
<!-- Node30&#45;&gt;Node32 -->
<g id="edge62" class="edge"><title>Node30&#45;&gt;Node32</title>
<path fill="none" stroke="midnightblue" d="M887.377,-123.475C869.94,-115.04 842.684,-101.855 820.26,-91.008"/>
<polygon fill="midnightblue" stroke="midnightblue" points="821.515,-87.727 810.989,-86.523 818.467,-94.0284 821.515,-87.727"/>
</g>
<!-- Node33&#45;&gt;Node14 -->
<g id="edge70" class="edge"><title>Node33&#45;&gt;Node14</title>
<path fill="none" stroke="midnightblue" d="M1052,-235.368C1052,-217.617 1052,-176.666 1052,-152.597"/>
<polygon fill="midnightblue" stroke="midnightblue" points="1055.5,-152.591 1052,-142.591 1048.5,-152.591 1055.5,-152.591"/>
</g>
<!-- Node33&#45;&gt;Node21 -->
<g id="edge71" class="edge"><title>Node33&#45;&gt;Node21</title>
<path fill="none" stroke="midnightblue" d="M1083.85,-235.444C1118.4,-226.162 1173.68,-211.309 1211.58,-201.127"/>
<polygon fill="midnightblue" stroke="midnightblue" points="1212.55,-204.491 1221.3,-198.516 1210.73,-197.731 1212.55,-204.491"/>
</g>
<!-- Node34 -->
<g id="node34" class="node"><title>Node34</title>
<polygon fill="white" stroke="#bfbfbf" points="1146.5,-179.5 1146.5,-198.5 1177.5,-198.5 1177.5,-179.5 1146.5,-179.5"/>
<text text-anchor="middle" x="1162" y="-186.5" font-family="Helvetica,sans-Serif" font-size="10.00">set</text>
</g>
<!-- Node33&#45;&gt;Node34 -->
<g id="edge69" class="edge"><title>Node33&#45;&gt;Node34</title>
<path fill="none" stroke="midnightblue" d="M1069.67,-235.324C1087.92,-226.367 1116.54,-212.317 1137.08,-202.234"/>
<polygon fill="midnightblue" stroke="midnightblue" points="1138.72,-205.327 1146.16,-197.778 1135.64,-199.043 1138.72,-205.327"/>
</g>
<!-- Node35&#45;&gt;Node7 -->
<g id="edge74" class="edge"><title>Node35&#45;&gt;Node7</title>
<path fill="none" stroke="midnightblue" d="M1304.69,-291.444C1307.34,-263.644 1319.26,-174.68 1366,-123 1391.34,-94.9802 1422.72,-118.872 1443,-87 1450.4,-75.3762 1451.6,-66.7679 1443,-56 1422.83,-30.729 1329.89,-18.5681 1278.83,-13.705"/>
<polygon fill="midnightblue" stroke="midnightblue" points="1278.89,-10.1959 1268.61,-12.776 1278.26,-17.1672 1278.89,-10.1959"/>
</g>
<!-- Node35&#45;&gt;Node8 -->
<g id="edge75" class="edge"><title>Node35&#45;&gt;Node8</title>
<path fill="none" stroke="midnightblue" d="M1293.72,-291.324C1284.16,-283.263 1269.72,-271.077 1258.22,-261.369"/>
<polygon fill="midnightblue" stroke="midnightblue" points="1260.37,-258.608 1250.47,-254.834 1255.86,-263.958 1260.37,-258.608"/>
</g>
<!-- Node35&#45;&gt;Node21 -->
<g id="edge76" class="edge"><title>Node35&#45;&gt;Node21</title>
<path fill="none" stroke="midnightblue" d="M1302.82,-291.21C1300.84,-278.352 1296.16,-253.892 1287,-235 1281.99,-224.668 1274.44,-214.359 1267.72,-206.22"/>
<polygon fill="midnightblue" stroke="midnightblue" points="1270.35,-203.905 1261.17,-198.614 1265.04,-208.475 1270.35,-203.905"/>
</g>
</g>
</svg>
