<?xml version="1.0" encoding="UTF-8" standalone="no"?>
<!DOCTYPE svg PUBLIC "-//W3C//DTD SVG 1.1//EN"
 "http://www.w3.org/Graphics/SVG/1.1/DTD/svg11.dtd">
<!-- Generated by graphviz version 2.38.0 (20140413.2041)
 -->
<!-- Title: src/io/tokeniser.hpp Pages: 1 -->
<svg width="1898pt" height="487pt"
 viewBox="0.00 0.00 1898.00 487.00" xmlns="http://www.w3.org/2000/svg" xmlns:xlink="http://www.w3.org/1999/xlink">
<g id="graph0" class="graph" transform="scale(1 1) rotate(0) translate(4 483)">
<title>src/io/tokeniser.hpp</title>
<polygon fill="white" stroke="none" points="-4,4 -4,-483 1894,-483 1894,4 -4,4"/>
<!-- Node1 -->
<g id="node1" class="node"><title>Node1</title>
<polygon fill="#bfbfbf" stroke="black" points="1304,-459.5 1304,-478.5 1414,-478.5 1414,-459.5 1304,-459.5"/>
<text text-anchor="middle" x="1359" y="-466.5" font-family="Helvetica,sans-Serif" font-size="10.00">src/io/tokeniser.hpp</text>
</g>
<!-- Node2 -->
<g id="node2" class="node"><title>Node2</title>
<g id="a_node2"><a xlink:href="cmd_8hpp.html" target="_top" xlink:title="Declaration of the CommandHandler class. ">
<polygon fill="white" stroke="black" points="436,-403.5 436,-422.5 504,-422.5 504,-403.5 436,-403.5"/>
<text text-anchor="middle" x="470" y="-410.5" font-family="Helvetica,sans-Serif" font-size="10.00">../cmd.hpp</text>
</a>
</g>
</g>
<!-- Node1&#45;&gt;Node2 -->
<g id="edge1" class="edge"><title>Node1&#45;&gt;Node2</title>
<path fill="none" stroke="midnightblue" d="M1303.72,-464.642C1140.54,-454.73 663.029,-425.725 514.571,-416.707"/>
<polygon fill="midnightblue" stroke="midnightblue" points="514.654,-413.206 504.46,-416.093 514.229,-420.193 514.654,-413.206"/>
</g>
<!-- Node9 -->
<g id="node9" class="node"><title>Node9</title>
<g id="a_node9"><a xlink:href="io__response_8hpp.html" target="_top" xlink:title="Declaration of classes pertaining to responses to the client. ">
<polygon fill="white" stroke="black" points="1380.5,-179.5 1380.5,-198.5 1487.5,-198.5 1487.5,-179.5 1380.5,-179.5"/>
<text text-anchor="middle" x="1434" y="-186.5" font-family="Helvetica,sans-Serif" font-size="10.00">io/io_response.hpp</text>
</a>
</g>
</g>
<!-- Node1&#45;&gt;Node9 -->
<g id="edge85" class="edge"><title>Node1&#45;&gt;Node9</title>
<path fill="none" stroke="midnightblue" d="M1361.33,-459.375C1371.76,-420.701 1414.36,-262.794 1429.02,-208.465"/>
<polygon fill="midnightblue" stroke="midnightblue" points="1432.47,-209.091 1431.7,-198.524 1425.72,-207.267 1432.47,-209.091"/>
</g>
<!-- Node3 -->
<g id="node3" class="node"><title>Node3</title>
<polygon fill="white" stroke="#bfbfbf" points="1804,-123.5 1804,-142.5 1842,-142.5 1842,-123.5 1804,-123.5"/>
<text text-anchor="middle" x="1823" y="-130.5" font-family="Helvetica,sans-Serif" font-size="10.00">map</text>
</g>
<!-- Node2&#45;&gt;Node3 -->
<g id="edge2" class="edge"><title>Node2&#45;&gt;Node3</title>
<path fill="none" stroke="midnightblue" d="M504.162,-411.121C716.979,-405.429 1852,-371.8 1852,-302 1852,-302 1852,-302 1852,-244 1852,-210.716 1839.43,-173.584 1830.84,-152.094"/>
<polygon fill="midnightblue" stroke="midnightblue" points="1833.98,-150.525 1826.91,-142.635 1827.52,-153.213 1833.98,-150.525"/>
</g>
<!-- Node4 -->
<g id="node4" class="node"><title>Node4</title>
<polygon fill="white" stroke="#bfbfbf" points="218.5,-123.5 218.5,-142.5 275.5,-142.5 275.5,-123.5 218.5,-123.5"/>
<text text-anchor="middle" x="247" y="-130.5" font-family="Helvetica,sans-Serif" font-size="10.00">memory</text>
</g>
<!-- Node2&#45;&gt;Node4 -->
<g id="edge3" class="edge"><title>Node2&#45;&gt;Node4</title>
<path fill="none" stroke="midnightblue" d="M461.146,-403.206C433.108,-375.093 344.56,-284.249 284,-199 273.214,-183.816 262.899,-165.241 255.913,-151.842"/>
<polygon fill="midnightblue" stroke="midnightblue" points="258.933,-150.06 251.268,-142.747 252.699,-153.244 258.933,-150.06"/>
</g>
<!-- Node5 -->
<g id="node5" class="node"><title>Node5</title>
<polygon fill="white" stroke="#bfbfbf" points="370.5,-62 370.5,-81 417.5,-81 417.5,-62 370.5,-62"/>
<text text-anchor="middle" x="394" y="-69" font-family="Helvetica,sans-Serif" font-size="10.00">vector</text>
</g>
<!-- Node2&#45;&gt;Node5 -->
<g id="edge4" class="edge"><title>Node2&#45;&gt;Node5</title>
<path fill="none" stroke="midnightblue" d="M435.907,-410.103C358.76,-405.42 173.088,-391.852 116,-367 74.6247,-348.988 38,-347.126 38,-302 38,-302 38,-302 38,-244 38,-101.77 271.487,-77.4304 360.28,-73.3167"/>
<polygon fill="midnightblue" stroke="midnightblue" points="360.516,-76.8101 370.366,-72.9088 360.233,-69.8159 360.516,-76.8101"/>
</g>
<!-- Node6 -->
<g id="node6" class="node"><title>Node6</title>
<g id="a_node6"><a xlink:href="cmd__result_8hpp.html" target="_top" xlink:title="Declaration of the CommandResult class. ">
<polygon fill="white" stroke="black" points="70.5,-235.5 70.5,-254.5 161.5,-254.5 161.5,-235.5 70.5,-235.5"/>
<text text-anchor="middle" x="116" y="-242.5" font-family="Helvetica,sans-Serif" font-size="10.00">cmd_result.hpp</text>
</a>
</g>
</g>
<!-- Node2&#45;&gt;Node6 -->
<g id="edge5" class="edge"><title>Node2&#45;&gt;Node6</title>
<path fill="none" stroke="midnightblue" d="M435.722,-412.489C358.435,-412.826 174.05,-409.088 132,-367 105.004,-339.98 108.092,-291.023 112.283,-264.416"/>
<polygon fill="midnightblue" stroke="midnightblue" points="115.739,-264.972 114.062,-254.51 108.849,-263.734 115.739,-264.972"/>
</g>
<!-- Node14 -->
<g id="node14" class="node"><title>Node14</title>
<g id="a_node14"><a xlink:href="player_8hpp.html" target="_top" xlink:title="Declaration of the Player class, and associated types. ">
<polygon fill="white" stroke="black" points="926,-347.5 926,-366.5 1024,-366.5 1024,-347.5 926,-347.5"/>
<text text-anchor="middle" x="975" y="-354.5" font-family="Helvetica,sans-Serif" font-size="10.00">player/player.hpp</text>
</a>
</g>
</g>
<!-- Node2&#45;&gt;Node14 -->
<g id="edge17" class="edge"><title>Node2&#45;&gt;Node14</title>
<path fill="none" stroke="midnightblue" d="M504.314,-408.331C589.069,-399.268 809.142,-375.735 915.599,-364.352"/>
<polygon fill="midnightblue" stroke="midnightblue" points="916.276,-367.799 925.847,-363.256 915.531,-360.839 916.276,-367.799"/>
</g>
<!-- Node6&#45;&gt;Node5 -->
<g id="edge8" class="edge"><title>Node6&#45;&gt;Node5</title>
<path fill="none" stroke="midnightblue" d="M119.245,-235.163C128.685,-209.91 156.688,-138.27 176,-123 183.277,-117.246 301.083,-91.9595 360.41,-79.4951"/>
<polygon fill="midnightblue" stroke="midnightblue" points="361.358,-82.8726 370.427,-77.3957 359.922,-76.0215 361.358,-82.8726"/>
</g>
<!-- Node7 -->
<g id="node7" class="node"><title>Node7</title>
<polygon fill="white" stroke="#bfbfbf" points="1290.5,-0.5 1290.5,-19.5 1339.5,-19.5 1339.5,-0.5 1290.5,-0.5"/>
<text text-anchor="middle" x="1315" y="-7.5" font-family="Helvetica,sans-Serif" font-size="10.00">cstdint</text>
</g>
<!-- Node6&#45;&gt;Node7 -->
<g id="edge6" class="edge"><title>Node6&#45;&gt;Node7</title>
<path fill="none" stroke="midnightblue" d="M116.173,-235.43C117.113,-213.209 122.853,-153.358 157,-123 228.321,-59.5926 267.149,-73.2947 361,-56 407.023,-47.5189 1114,-18.9918 1280.21,-12.3776"/>
<polygon fill="midnightblue" stroke="midnightblue" points="1280.51,-15.8685 1290.36,-11.974 1280.23,-8.87402 1280.51,-15.8685"/>
</g>
<!-- Node8 -->
<g id="node8" class="node"><title>Node8</title>
<polygon fill="white" stroke="#bfbfbf" points="388,-0.5 388,-19.5 432,-19.5 432,-0.5 388,-0.5"/>
<text text-anchor="middle" x="410" y="-7.5" font-family="Helvetica,sans-Serif" font-size="10.00">string</text>
</g>
<!-- Node6&#45;&gt;Node8 -->
<g id="edge7" class="edge"><title>Node6&#45;&gt;Node8</title>
<path fill="none" stroke="midnightblue" d="M111.214,-235.43C100.071,-214.209 75.164,-158.38 100,-123 164.468,-31.1611 312.049,-14.3022 377.6,-11.4413"/>
<polygon fill="midnightblue" stroke="midnightblue" points="377.886,-14.9335 387.756,-11.0832 377.639,-7.93788 377.886,-14.9335"/>
</g>
<!-- Node6&#45;&gt;Node9 -->
<g id="edge9" class="edge"><title>Node6&#45;&gt;Node9</title>
<path fill="none" stroke="midnightblue" d="M161.664,-242.149C312.435,-236.034 808.105,-215.908 1218,-199 1269.21,-196.888 1327.24,-194.468 1370.25,-192.67"/>
<polygon fill="midnightblue" stroke="midnightblue" points="1370.45,-196.165 1380.3,-192.25 1370.16,-189.171 1370.45,-196.165"/>
</g>
<!-- Node9&#45;&gt;Node3 -->
<g id="edge10" class="edge"><title>Node9&#45;&gt;Node3</title>
<path fill="none" stroke="midnightblue" d="M1487.61,-180.323C1490.79,-179.874 1493.94,-179.43 1497,-179 1606.5,-163.622 1736.75,-145.778 1793.8,-137.984"/>
<polygon fill="midnightblue" stroke="midnightblue" points="1794.45,-141.427 1803.89,-136.606 1793.51,-134.491 1794.45,-141.427"/>
</g>
<!-- Node9&#45;&gt;Node5 -->
<g id="edge13" class="edge"><title>Node9&#45;&gt;Node5</title>
<path fill="none" stroke="midnightblue" d="M1380.27,-180.91C1338.73,-174.279 1280.34,-162.422 1232,-143 1216.09,-136.606 1215.41,-127.998 1199,-123 1034.71,-72.9476 594.208,-126.203 427,-87 424.635,-86.4456 422.229,-85.726 419.848,-84.904"/>
<polygon fill="midnightblue" stroke="midnightblue" points="420.961,-81.5793 410.376,-81.1099 418.358,-88.0774 420.961,-81.5793"/>
</g>
<!-- Node9&#45;&gt;Node8 -->
<g id="edge12" class="edge"><title>Node9&#45;&gt;Node8</title>
<path fill="none" stroke="midnightblue" d="M1437.32,-179.425C1445.78,-155.963 1465.22,-90.1921 1432,-56 1414.34,-37.8199 615.012,-16.2681 442.567,-11.8251"/>
<polygon fill="midnightblue" stroke="midnightblue" points="442.438,-8.32069 432.351,-11.563 442.258,-15.3184 442.438,-8.32069"/>
</g>
<!-- Node10 -->
<g id="node10" class="node"><title>Node10</title>
<polygon fill="white" stroke="#bfbfbf" points="1518.5,-123.5 1518.5,-142.5 1575.5,-142.5 1575.5,-123.5 1518.5,-123.5"/>
<text text-anchor="middle" x="1547" y="-130.5" font-family="Helvetica,sans-Serif" font-size="10.00">ostream</text>
</g>
<!-- Node9&#45;&gt;Node10 -->
<g id="edge11" class="edge"><title>Node9&#45;&gt;Node10</title>
<path fill="none" stroke="midnightblue" d="M1451.91,-179.444C1470.25,-170.675 1499.01,-156.935 1520.09,-146.858"/>
<polygon fill="midnightblue" stroke="midnightblue" points="1521.67,-149.986 1529.18,-142.516 1518.65,-143.67 1521.67,-149.986"/>
</g>
<!-- Node11 -->
<g id="node11" class="node"><title>Node11</title>
<g id="a_node11"><a xlink:href="errors_8hpp.html" target="_top" xlink:title="Declarations of the playd Error exception set. ">
<polygon fill="white" stroke="black" points="970.5,-62 970.5,-81 1045.5,-81 1045.5,-62 970.5,-62"/>
<text text-anchor="middle" x="1008" y="-69" font-family="Helvetica,sans-Serif" font-size="10.00">../errors.hpp</text>
</a>
</g>
</g>
<!-- Node9&#45;&gt;Node11 -->
<g id="edge14" class="edge"><title>Node9&#45;&gt;Node11</title>
<path fill="none" stroke="midnightblue" d="M1397.48,-179.429C1364.9,-171.37 1316.15,-158.281 1275,-143 1255.24,-135.662 1252,-129.647 1232,-123 1157.88,-98.3699 1135.88,-105.499 1060,-87 1055.85,-85.9886 1051.53,-84.8779 1047.23,-83.7352"/>
<polygon fill="midnightblue" stroke="midnightblue" points="1047.91,-80.2905 1037.34,-81.0429 1046.07,-87.0451 1047.91,-80.2905"/>
</g>
<!-- Node12 -->
<g id="node12" class="node"><title>Node12</title>
<polygon fill="white" stroke="#bfbfbf" points="1016.5,-0.5 1016.5,-19.5 1075.5,-19.5 1075.5,-0.5 1016.5,-0.5"/>
<text text-anchor="middle" x="1046" y="-7.5" font-family="Helvetica,sans-Serif" font-size="10.00">iostream</text>
</g>
<!-- Node11&#45;&gt;Node12 -->
<g id="edge15" class="edge"><title>Node11&#45;&gt;Node12</title>
<path fill="none" stroke="midnightblue" d="M1013.44,-61.9751C1019.09,-53.1384 1028.06,-39.0886 1035.16,-27.975"/>
<polygon fill="midnightblue" stroke="midnightblue" points="1038.13,-29.8208 1040.57,-19.5091 1032.23,-26.0531 1038.13,-29.8208"/>
</g>
<!-- Node13 -->
<g id="node13" class="node"><title>Node13</title>
<polygon fill="white" stroke="#bfbfbf" points="942,-0.5 942,-19.5 998,-19.5 998,-0.5 942,-0.5"/>
<text text-anchor="middle" x="970" y="-7.5" font-family="Helvetica,sans-Serif" font-size="10.00">sstream</text>
</g>
<!-- Node11&#45;&gt;Node13 -->
<g id="edge16" class="edge"><title>Node11&#45;&gt;Node13</title>
<path fill="none" stroke="midnightblue" d="M1002.56,-61.9751C996.912,-53.1384 987.939,-39.0886 980.841,-27.975"/>
<polygon fill="midnightblue" stroke="midnightblue" points="983.767,-26.0531 975.434,-19.5091 977.867,-29.8208 983.767,-26.0531"/>
</g>
<!-- Node14&#45;&gt;Node3 -->
<g id="edge19" class="edge"><title>Node14&#45;&gt;Node3</title>
<path fill="none" stroke="midnightblue" d="M1024.27,-354.945C1196.26,-351.046 1761.14,-336.355 1790,-311 1835.56,-270.976 1831.02,-189.963 1826.15,-153.072"/>
<polygon fill="midnightblue" stroke="midnightblue" points="1829.55,-152.131 1824.62,-142.753 1822.62,-153.158 1829.55,-152.131"/>
</g>
<!-- Node14&#45;&gt;Node4 -->
<g id="edge20" class="edge"><title>Node14&#45;&gt;Node4</title>
<path fill="none" stroke="midnightblue" d="M925.98,-347.674C878.104,-339.302 803.27,-325.578 739,-311 548.501,-267.791 484.101,-295.034 314,-199 292.057,-186.612 272.053,-165.294 259.728,-150.464"/>
<polygon fill="midnightblue" stroke="midnightblue" points="262.396,-148.197 253.401,-142.598 256.941,-152.584 262.396,-148.197"/>
</g>
<!-- Node14&#45;&gt;Node5 -->
<g id="edge23" class="edge"><title>Node14&#45;&gt;Node5</title>
<path fill="none" stroke="midnightblue" d="M925.931,-351.057C858.831,-343.965 734.81,-329.675 630,-311 431.665,-275.661 299.288,-323.094 209,-143 205.016,-135.054 203.605,-130.065 209,-123 227.26,-99.0878 311.949,-83.7684 360.167,-76.8276"/>
<polygon fill="midnightblue" stroke="midnightblue" points="360.731,-80.283 370.151,-75.435 359.764,-73.3501 360.731,-80.283"/>
</g>
<!-- Node14&#45;&gt;Node6 -->
<g id="edge45" class="edge"><title>Node14&#45;&gt;Node6</title>
<path fill="none" stroke="midnightblue" d="M925.808,-355.518C783.733,-353.724 374.731,-345.61 246,-311 224.689,-305.27 171.815,-277.028 140.455,-259.71"/>
<polygon fill="midnightblue" stroke="midnightblue" points="141.914,-256.517 131.472,-254.723 138.516,-262.637 141.914,-256.517"/>
</g>
<!-- Node14&#45;&gt;Node7 -->
<g id="edge18" class="edge"><title>Node14&#45;&gt;Node7</title>
<path fill="none" stroke="midnightblue" d="M1024.2,-354.453C1198.47,-348.329 1776,-322.281 1776,-246 1776,-246 1776,-246 1776,-132 1776,-43.913 1457.13,-18.6517 1349.79,-12.6434"/>
<polygon fill="midnightblue" stroke="midnightblue" points="1349.96,-9.14774 1339.79,-12.1056 1349.58,-16.1376 1349.96,-9.14774"/>
</g>
<!-- Node14&#45;&gt;Node8 -->
<g id="edge21" class="edge"><title>Node14&#45;&gt;Node8</title>
<path fill="none" stroke="midnightblue" d="M925.886,-355.266C777.836,-352.723 337.52,-342.631 198,-311 97.4212,-288.198 0,-293.131 0,-190 0,-190 0,-190 0,-132 0,-53.3126 281.309,-21.9619 377.897,-13.5167"/>
<polygon fill="midnightblue" stroke="midnightblue" points="378.289,-16.9962 387.957,-12.6623 377.696,-10.0213 378.289,-16.9962"/>
</g>
<!-- Node14&#45;&gt;Node9 -->
<g id="edge44" class="edge"><title>Node14&#45;&gt;Node9</title>
<path fill="none" stroke="midnightblue" d="M1024.11,-353.746C1085.84,-349.805 1194.42,-339.176 1283,-311 1335.28,-294.37 1352.47,-291.97 1393,-255 1407.6,-241.687 1419.02,-222.031 1426.06,-207.822"/>
<polygon fill="midnightblue" stroke="midnightblue" points="1429.31,-209.145 1430.4,-198.607 1422.98,-206.166 1429.31,-209.145"/>
</g>
<!-- Node15 -->
<g id="node15" class="node"><title>Node15</title>
<polygon fill="white" stroke="#bfbfbf" points="776,-123.5 776,-142.5 818,-142.5 818,-123.5 776,-123.5"/>
<text text-anchor="middle" x="797" y="-130.5" font-family="Helvetica,sans-Serif" font-size="10.00">utility</text>
</g>
<!-- Node14&#45;&gt;Node15 -->
<g id="edge22" class="edge"><title>Node14&#45;&gt;Node15</title>
<path fill="none" stroke="midnightblue" d="M968.022,-347.297C941.443,-314.148 846.242,-195.414 810.6,-150.961"/>
<polygon fill="midnightblue" stroke="midnightblue" points="813.109,-148.496 804.123,-142.884 807.648,-152.875 813.109,-148.496"/>
</g>
<!-- Node16 -->
<g id="node16" class="node"><title>Node16</title>
<g id="a_node16"><a xlink:href="audio_8hpp.html" target="_top" xlink:title="Declaration of the Audio class. ">
<polygon fill="white" stroke="black" points="405,-179.5 405,-198.5 507,-198.5 507,-179.5 405,-179.5"/>
<text text-anchor="middle" x="456" y="-186.5" font-family="Helvetica,sans-Serif" font-size="10.00">../audio/audio.hpp</text>
</a>
</g>
</g>
<!-- Node14&#45;&gt;Node16 -->
<g id="edge24" class="edge"><title>Node14&#45;&gt;Node16</title>
<path fill="none" stroke="midnightblue" d="M939.405,-347.485C904.658,-338.973 850.394,-325.147 804,-311 686.348,-275.124 549.093,-224.873 488.068,-202.085"/>
<polygon fill="midnightblue" stroke="midnightblue" points="489.193,-198.769 478.601,-198.541 486.74,-205.325 489.193,-198.769"/>
</g>
<!-- Node19 -->
<g id="node19" class="node"><title>Node19</title>
<g id="a_node19"><a xlink:href="time__parser_8hpp.html" target="_top" xlink:title="Declaration of the TimeParser class. ">
<polygon fill="white" stroke="black" points="1480,-62 1480,-81 1584,-81 1584,-62 1480,-62"/>
<text text-anchor="middle" x="1532" y="-69" font-family="Helvetica,sans-Serif" font-size="10.00">../time_parser.hpp</text>
</a>
</g>
</g>
<!-- Node14&#45;&gt;Node19 -->
<g id="edge46" class="edge"><title>Node14&#45;&gt;Node19</title>
<path fill="none" stroke="midnightblue" d="M1024.04,-355.181C1192.29,-352.124 1739.78,-340.024 1813,-311 1854.63,-294.498 1890,-290.785 1890,-246 1890,-246 1890,-246 1890,-188 1890,-154.31 1878.92,-141.847 1851,-123 1810.11,-95.4005 1674.7,-81.8826 1594.04,-76.1282"/>
<polygon fill="midnightblue" stroke="midnightblue" points="1594.22,-72.6324 1584,-75.432 1593.74,-79.6157 1594.22,-72.6324"/>
</g>
<!-- Node24 -->
<g id="node24" class="node"><title>Node24</title>
<g id="a_node24"><a xlink:href="player__file_8hpp.html" target="_top" xlink:title="Declaration of the PlayerFile class, and associated types. ">
<polygon fill="white" stroke="black" points="1188,-291.5 1188,-310.5 1274,-310.5 1274,-291.5 1188,-291.5"/>
<text text-anchor="middle" x="1231" y="-298.5" font-family="Helvetica,sans-Serif" font-size="10.00">player_file.hpp</text>
</a>
</g>
</g>
<!-- Node14&#45;&gt;Node24 -->
<g id="edge47" class="edge"><title>Node14&#45;&gt;Node24</title>
<path fill="none" stroke="midnightblue" d="M1015.56,-347.444C1060.32,-338.004 1132.38,-322.802 1180.7,-312.611"/>
<polygon fill="midnightblue" stroke="midnightblue" points="1181.56,-316.005 1190.63,-310.516 1180.12,-309.156 1181.56,-316.005"/>
</g>
<!-- Node33 -->
<g id="node33" class="node"><title>Node33</title>
<g id="a_node33"><a xlink:href="player__position_8hpp.html" target="_top" xlink:title="Declaration of the PlayerPosition class. ">
<polygon fill="white" stroke="black" points="1494,-235.5 1494,-254.5 1604,-254.5 1604,-235.5 1494,-235.5"/>
<text text-anchor="middle" x="1549" y="-242.5" font-family="Helvetica,sans-Serif" font-size="10.00">player_position.hpp</text>
</a>
</g>
</g>
<!-- Node14&#45;&gt;Node33 -->
<g id="edge80" class="edge"><title>Node14&#45;&gt;Node33</title>
<path fill="none" stroke="midnightblue" d="M1024.27,-354.035C1127.97,-349.447 1365.48,-336.441 1442,-311 1475.78,-299.77 1510.13,-276.308 1530.49,-260.859"/>
<polygon fill="midnightblue" stroke="midnightblue" points="1532.81,-263.489 1538.57,-254.593 1528.52,-257.958 1532.81,-263.489"/>
</g>
<!-- Node35 -->
<g id="node35" class="node"><title>Node35</title>
<g id="a_node35"><a xlink:href="player__state_8hpp.html" target="_top" xlink:title="Declaration of the PlayerState class, and associated types. ">
<polygon fill="white" stroke="black" points="1622.5,-235.5 1622.5,-254.5 1719.5,-254.5 1719.5,-235.5 1622.5,-235.5"/>
<text text-anchor="middle" x="1671" y="-242.5" font-family="Helvetica,sans-Serif" font-size="10.00">player_state.hpp</text>
</a>
</g>
</g>
<!-- Node14&#45;&gt;Node35 -->
<g id="edge81" class="edge"><title>Node14&#45;&gt;Node35</title>
<path fill="none" stroke="midnightblue" d="M1024.02,-355.393C1114.49,-353.438 1313.42,-345.243 1477,-311 1536.84,-298.474 1603.91,-273.408 1641.44,-258.328"/>
<polygon fill="midnightblue" stroke="midnightblue" points="1642.82,-261.546 1650.77,-254.54 1640.18,-255.06 1642.82,-261.546"/>
</g>
<!-- Node16&#45;&gt;Node4 -->
<g id="edge26" class="edge"><title>Node16&#45;&gt;Node4</title>
<path fill="none" stroke="midnightblue" d="M422.883,-179.444C385.506,-169.786 324.79,-154.099 285.375,-143.915"/>
<polygon fill="midnightblue" stroke="midnightblue" points="286.154,-140.501 275.596,-141.388 284.402,-147.279 286.154,-140.501"/>
</g>
<!-- Node16&#45;&gt;Node5 -->
<g id="edge29" class="edge"><title>Node16&#45;&gt;Node5</title>
<path fill="none" stroke="midnightblue" d="M441.046,-179.331C428.952,-171.47 412.573,-158.723 404,-143 395.323,-127.086 393.305,-106.274 393.165,-91.3957"/>
<polygon fill="midnightblue" stroke="midnightblue" points="396.665,-91.4149 393.344,-81.354 389.666,-91.2898 396.665,-91.4149"/>
</g>
<!-- Node16&#45;&gt;Node7 -->
<g id="edge25" class="edge"><title>Node16&#45;&gt;Node7</title>
<path fill="none" stroke="midnightblue" d="M453.323,-179.33C449.707,-165.736 445.094,-139.278 458,-123 475.933,-100.381 680.539,-60.812 709,-56 820.226,-37.195 1168.51,-18.4058 1280.17,-12.7285"/>
<polygon fill="midnightblue" stroke="midnightblue" points="1280.41,-16.2209 1290.23,-12.2205 1280.06,-9.22983 1280.41,-16.2209"/>
</g>
<!-- Node16&#45;&gt;Node8 -->
<g id="edge27" class="edge"><title>Node16&#45;&gt;Node8</title>
<path fill="none" stroke="midnightblue" d="M440.307,-179.418C426.598,-171.351 406.788,-158.258 393,-143 373.78,-121.732 368.358,-114.705 361,-87 357.464,-73.6838 355.458,-68.614 361,-56 366.39,-43.732 376.958,-33.3414 386.904,-25.6461"/>
<polygon fill="midnightblue" stroke="midnightblue" points="389.252,-28.2697 395.339,-19.598 385.172,-22.5811 389.252,-28.2697"/>
</g>
<!-- Node16&#45;&gt;Node15 -->
<g id="edge28" class="edge"><title>Node16&#45;&gt;Node15</title>
<path fill="none" stroke="midnightblue" d="M507.13,-182.774C568.904,-175.957 675.777,-162.547 766,-143 766.099,-142.978 766.199,-142.957 766.298,-142.935"/>
<polygon fill="midnightblue" stroke="midnightblue" points="766.891,-146.394 775.754,-140.588 765.205,-139.6 766.891,-146.394"/>
</g>
<!-- Node17 -->
<g id="node17" class="node"><title>Node17</title>
<polygon fill="white" stroke="#bfbfbf" points="686.5,-123.5 686.5,-142.5 757.5,-142.5 757.5,-123.5 686.5,-123.5"/>
<text text-anchor="middle" x="722" y="-130.5" font-family="Helvetica,sans-Serif" font-size="10.00">portaudio.h</text>
</g>
<!-- Node16&#45;&gt;Node17 -->
<g id="edge30" class="edge"><title>Node16&#45;&gt;Node17</title>
<path fill="none" stroke="midnightblue" d="M498.148,-179.444C546.802,-169.567 626.526,-153.382 676.539,-143.229"/>
<polygon fill="midnightblue" stroke="midnightblue" points="677.33,-146.64 686.433,-141.22 675.937,-139.78 677.33,-146.64"/>
</g>
<!-- Node18 -->
<g id="node18" class="node"><title>Node18</title>
<polygon fill="white" stroke="#bfbfbf" points="484,-123.5 484,-142.5 668,-142.5 668,-123.5 484,-123.5"/>
<text text-anchor="middle" x="576" y="-130.5" font-family="Helvetica,sans-Serif" font-size="10.00">portaudiocpp/CallbackInterface.hxx</text>
</g>
<!-- Node16&#45;&gt;Node18 -->
<g id="edge31" class="edge"><title>Node16&#45;&gt;Node18</title>
<path fill="none" stroke="midnightblue" d="M475.014,-179.444C494.588,-170.636 525.308,-156.812 547.729,-146.722"/>
<polygon fill="midnightblue" stroke="midnightblue" points="549.392,-149.812 557.075,-142.516 546.519,-143.428 549.392,-149.812"/>
</g>
<!-- Node16&#45;&gt;Node19 -->
<g id="edge32" class="edge"><title>Node16&#45;&gt;Node19</title>
<path fill="none" stroke="midnightblue" d="M455.616,-179.093C455.537,-164.664 457.751,-136.442 475,-123 516.965,-90.2953 1379.01,-91.8242 1432,-87 1444.54,-85.8578 1457.92,-84.2156 1470.67,-82.4438"/>
<polygon fill="midnightblue" stroke="midnightblue" points="1471.33,-85.8846 1480.74,-81.002 1470.34,-78.9553 1471.33,-85.8846"/>
</g>
<!-- Node20 -->
<g id="node20" class="node"><title>Node20</title>
<g id="a_node20"><a xlink:href="audio__source_8hpp.html" target="_top" xlink:title="Declaration of the AudioSource class. ">
<polygon fill="white" stroke="black" points="1284.5,-123.5 1284.5,-142.5 1385.5,-142.5 1385.5,-123.5 1284.5,-123.5"/>
<text text-anchor="middle" x="1335" y="-130.5" font-family="Helvetica,sans-Serif" font-size="10.00">audio_source.hpp</text>
</a>
</g>
</g>
<!-- Node16&#45;&gt;Node20 -->
<g id="edge34" class="edge"><title>Node16&#45;&gt;Node20</title>
<path fill="none" stroke="midnightblue" d="M507.351,-184.989C628.031,-177.891 939.124,-159.468 1199,-143 1223.58,-141.442 1250.66,-139.663 1274.14,-138.1"/>
<polygon fill="midnightblue" stroke="midnightblue" points="1274.56,-141.58 1284.31,-137.422 1274.1,-134.596 1274.56,-141.58"/>
</g>
<!-- Node19&#45;&gt;Node7 -->
<g id="edge33" class="edge"><title>Node19&#45;&gt;Node7</title>
<path fill="none" stroke="midnightblue" d="M1500.91,-61.9751C1460.74,-50.9617 1391.04,-31.8506 1349.35,-20.4185"/>
<polygon fill="midnightblue" stroke="midnightblue" points="1350.21,-17.0252 1339.64,-17.7562 1348.36,-23.776 1350.21,-17.0252"/>
</g>
<!-- Node20&#45;&gt;Node5 -->
<g id="edge38" class="edge"><title>Node20&#45;&gt;Node5</title>
<path fill="none" stroke="midnightblue" d="M1284.48,-127.155C1267.78,-125.668 1249.11,-124.129 1232,-123 1053.32,-111.204 601.379,-127.709 427,-87 424.635,-86.4478 422.228,-85.7298 419.847,-84.9089"/>
<polygon fill="midnightblue" stroke="midnightblue" points="420.959,-81.5841 410.375,-81.1165 418.357,-88.0826 420.959,-81.5841"/>
</g>
<!-- Node20&#45;&gt;Node7 -->
<g id="edge36" class="edge"><title>Node20&#45;&gt;Node7</title>
<path fill="none" stroke="midnightblue" d="M1321.21,-123.189C1310.17,-115.241 1295.5,-102.447 1289,-87 1280.67,-67.2006 1291.78,-43.7133 1301.95,-28.1439"/>
<polygon fill="midnightblue" stroke="midnightblue" points="1305.08,-29.7691 1307.98,-19.5767 1299.36,-25.7408 1305.08,-29.7691"/>
</g>
<!-- Node20&#45;&gt;Node8 -->
<g id="edge37" class="edge"><title>Node20&#45;&gt;Node8</title>
<path fill="none" stroke="midnightblue" d="M1285.35,-123.433C1243.67,-115.675 1182.8,-103.02 1131,-87 1095.76,-76.1004 1089.95,-64.2758 1054,-56 935.627,-28.7511 556.014,-15.3847 442.414,-11.9272"/>
<polygon fill="midnightblue" stroke="midnightblue" points="442.369,-8.42433 432.268,-11.6234 442.159,-15.4212 442.369,-8.42433"/>
</g>
<!-- Node20&#45;&gt;Node11 -->
<g id="edge40" class="edge"><title>Node20&#45;&gt;Node11</title>
<path fill="none" stroke="midnightblue" d="M1284.26,-124.38C1216.94,-114.152 1101.75,-96.2079 1060,-87 1055.56,-86.0198 1050.93,-84.8897 1046.34,-83.7018"/>
<polygon fill="midnightblue" stroke="midnightblue" points="1047.03,-80.2634 1036.47,-81.0449 1045.21,-87.023 1047.03,-80.2634"/>
</g>
<!-- Node20&#45;&gt;Node19 -->
<g id="edge43" class="edge"><title>Node20&#45;&gt;Node19</title>
<path fill="none" stroke="midnightblue" d="M1363.23,-123.475C1397.6,-113.092 1455.81,-95.5116 1494.08,-83.9538"/>
<polygon fill="midnightblue" stroke="midnightblue" points="1495.27,-87.251 1503.83,-81.0091 1493.24,-80.5499 1495.27,-87.251"/>
</g>
<!-- Node21 -->
<g id="node21" class="node"><title>Node21</title>
<polygon fill="white" stroke="#bfbfbf" points="1140.5,-62 1140.5,-81 1181.5,-81 1181.5,-62 1140.5,-62"/>
<text text-anchor="middle" x="1161" y="-69" font-family="Helvetica,sans-Serif" font-size="10.00">array</text>
</g>
<!-- Node20&#45;&gt;Node21 -->
<g id="edge35" class="edge"><title>Node20&#45;&gt;Node21</title>
<path fill="none" stroke="midnightblue" d="M1303.07,-123.485C1273.58,-115.276 1228.75,-101.929 1191,-87 1189.62,-86.4549 1188.22,-85.8737 1186.81,-85.269"/>
<polygon fill="midnightblue" stroke="midnightblue" points="1188.17,-82.0446 1177.62,-81.0725 1185.27,-88.4116 1188.17,-82.0446"/>
</g>
<!-- Node22 -->
<g id="node22" class="node"><title>Node22</title>
<polygon fill="white" stroke="#bfbfbf" points="1200,-62 1200,-81 1242,-81 1242,-62 1200,-62"/>
<text text-anchor="middle" x="1221" y="-69" font-family="Helvetica,sans-Serif" font-size="10.00">sox.h</text>
</g>
<!-- Node20&#45;&gt;Node22 -->
<g id="edge39" class="edge"><title>Node20&#45;&gt;Node22</title>
<path fill="none" stroke="midnightblue" d="M1318.67,-123.475C1299.79,-113.622 1268.49,-97.2883 1246.42,-85.7697"/>
<polygon fill="midnightblue" stroke="midnightblue" points="1247.79,-82.5333 1237.3,-81.0091 1244.55,-88.7389 1247.79,-82.5333"/>
</g>
<!-- Node23 -->
<g id="node23" class="node"><title>Node23</title>
<g id="a_node23"><a xlink:href="sample__formats_8hpp.html" target="_top" xlink:title="The SampleFormat enumeration. ">
<polygon fill="white" stroke="black" points="1298.5,-62 1298.5,-81 1423.5,-81 1423.5,-62 1298.5,-62"/>
<text text-anchor="middle" x="1361" y="-69" font-family="Helvetica,sans-Serif" font-size="10.00">../sample_formats.hpp</text>
</a>
</g>
</g>
<!-- Node20&#45;&gt;Node23 -->
<g id="edge41" class="edge"><title>Node20&#45;&gt;Node23</title>
<path fill="none" stroke="midnightblue" d="M1338.73,-123.475C1342.47,-114.904 1348.36,-101.427 1353.14,-90.483"/>
<polygon fill="midnightblue" stroke="midnightblue" points="1356.48,-91.5739 1357.28,-81.0091 1350.07,-88.771 1356.48,-91.5739"/>
</g>
<!-- Node23&#45;&gt;Node7 -->
<g id="edge42" class="edge"><title>Node23&#45;&gt;Node7</title>
<path fill="none" stroke="midnightblue" d="M1354.41,-61.9751C1347.51,-53.0501 1336.5,-38.8071 1327.87,-27.6425"/>
<polygon fill="midnightblue" stroke="midnightblue" points="1330.46,-25.2798 1321.58,-19.5091 1324.93,-29.5612 1330.46,-25.2798"/>
</g>
<!-- Node24&#45;&gt;Node4 -->
<g id="edge48" class="edge"><title>Node24&#45;&gt;Node4</title>
<path fill="none" stroke="midnightblue" d="M1187.81,-297.255C1034.73,-287.173 518.772,-250.098 362,-199 326.163,-187.319 288.941,-163.845 266.883,-148.535"/>
<polygon fill="midnightblue" stroke="midnightblue" points="268.858,-145.645 258.673,-142.724 264.814,-151.358 268.858,-145.645"/>
</g>
<!-- Node24&#45;&gt;Node9 -->
<g id="edge73" class="edge"><title>Node24&#45;&gt;Node9</title>
<path fill="none" stroke="midnightblue" d="M1271.39,-291.499C1299.31,-284.467 1336.59,-272.723 1366,-255 1387.52,-242.036 1407.72,-221.185 1420.43,-206.605"/>
<polygon fill="midnightblue" stroke="midnightblue" points="1423.2,-208.745 1427,-198.852 1417.86,-204.221 1423.2,-208.745"/>
</g>
<!-- Node24&#45;&gt;Node19 -->
<g id="edge74" class="edge"><title>Node24&#45;&gt;Node19</title>
<path fill="none" stroke="midnightblue" d="M1240.16,-291.352C1262.02,-270.874 1319.28,-218.199 1371,-179 1418.4,-143.071 1477.46,-105.772 1509.23,-86.2711"/>
<polygon fill="midnightblue" stroke="midnightblue" points="1511.09,-89.2343 1517.8,-81.0349 1507.45,-83.2605 1511.09,-89.2343"/>
</g>
<!-- Node25 -->
<g id="node25" class="node"><title>Node25</title>
<g id="a_node25"><a xlink:href="audio__system_8hpp.html" target="_top" xlink:title="Declaration of the AudioSystem class. ">
<polygon fill="white" stroke="black" points="1039.5,-235.5 1039.5,-254.5 1182.5,-254.5 1182.5,-235.5 1039.5,-235.5"/>
<text text-anchor="middle" x="1111" y="-242.5" font-family="Helvetica,sans-Serif" font-size="10.00">../audio/audio_system.hpp</text>
</a>
</g>
</g>
<!-- Node24&#45;&gt;Node25 -->
<g id="edge49" class="edge"><title>Node24&#45;&gt;Node25</title>
<path fill="none" stroke="midnightblue" d="M1211.99,-291.444C1192.41,-282.636 1161.69,-268.812 1139.27,-258.722"/>
<polygon fill="midnightblue" stroke="midnightblue" points="1140.48,-255.428 1129.93,-254.516 1137.61,-261.812 1140.48,-255.428"/>
</g>
<!-- Node24&#45;&gt;Node33 -->
<g id="edge75" class="edge"><title>Node24&#45;&gt;Node33</title>
<path fill="none" stroke="midnightblue" d="M1274.22,-292.661C1329.64,-283.251 1426.04,-266.88 1488.67,-256.245"/>
<polygon fill="midnightblue" stroke="midnightblue" points="1489.53,-259.649 1498.8,-254.525 1488.35,-252.748 1489.53,-259.649"/>
</g>
<!-- Node25&#45;&gt;Node8 -->
<g id="edge50" class="edge"><title>Node25&#45;&gt;Node8</title>
<path fill="none" stroke="midnightblue" d="M1039.4,-244.027C868.226,-243.458 445.779,-238.065 396,-199 344.526,-158.605 334.681,-115.905 361,-56 366.39,-43.732 376.958,-33.3414 386.904,-25.6461"/>
<polygon fill="midnightblue" stroke="midnightblue" points="389.252,-28.2697 395.339,-19.598 385.172,-22.5811 389.252,-28.2697"/>
</g>
<!-- Node25&#45;&gt;Node15 -->
<g id="edge51" class="edge"><title>Node25&#45;&gt;Node15</title>
<path fill="none" stroke="midnightblue" d="M1150.34,-235.476C1190.01,-225.157 1242.18,-205.776 1218,-179 1191.57,-149.742 904.158,-147.587 865,-143 852.956,-141.589 839.735,-139.877 828.178,-138.326"/>
<polygon fill="midnightblue" stroke="midnightblue" points="828.494,-134.837 818.114,-136.96 827.553,-141.773 828.494,-134.837"/>
</g>
<!-- Node25&#45;&gt;Node16 -->
<g id="edge72" class="edge"><title>Node25&#45;&gt;Node16</title>
<path fill="none" stroke="midnightblue" d="M1039.34,-238.092C909.841,-227.416 639.004,-205.087 517.407,-195.063"/>
<polygon fill="midnightblue" stroke="midnightblue" points="517.416,-191.551 507.162,-194.218 516.841,-198.528 517.416,-191.551"/>
</g>
<!-- Node25&#45;&gt;Node20 -->
<g id="edge71" class="edge"><title>Node25&#45;&gt;Node20</title>
<path fill="none" stroke="midnightblue" d="M1150.18,-235.482C1179.33,-228.212 1219.52,-216.184 1252,-199 1277.35,-185.588 1302.76,-164.244 1318.66,-149.702"/>
<polygon fill="midnightblue" stroke="midnightblue" points="1321.14,-152.178 1326.06,-142.795 1316.36,-147.061 1321.14,-152.178"/>
</g>
<!-- Node25&#45;&gt;Node23 -->
<g id="edge54" class="edge"><title>Node25&#45;&gt;Node23</title>
<path fill="none" stroke="midnightblue" d="M1152.6,-235.451C1187.47,-227.705 1238.27,-215.055 1281,-199 1307.23,-189.142 1379.22,-166.814 1394,-143 1405.06,-125.172 1390.57,-103.04 1377.45,-88.3798"/>
<polygon fill="midnightblue" stroke="midnightblue" points="1379.91,-85.8907 1370.47,-81.0791 1374.85,-90.7269 1379.91,-85.8907"/>
</g>
<!-- Node26 -->
<g id="node26" class="node"><title>Node26</title>
<polygon fill="white" stroke="#bfbfbf" points="1012.5,-179.5 1012.5,-198.5 1209.5,-198.5 1209.5,-179.5 1012.5,-179.5"/>
<text text-anchor="middle" x="1111" y="-186.5" font-family="Helvetica,sans-Serif" font-size="10.00">portaudiocpp/SampleDataFormat.hxx</text>
</g>
<!-- Node25&#45;&gt;Node26 -->
<g id="edge52" class="edge"><title>Node25&#45;&gt;Node26</title>
<path fill="none" stroke="midnightblue" d="M1111,-235.083C1111,-228.006 1111,-217.861 1111,-208.986"/>
<polygon fill="midnightblue" stroke="midnightblue" points="1114.5,-208.751 1111,-198.751 1107.5,-208.751 1114.5,-208.751"/>
</g>
<!-- Node27 -->
<g id="node27" class="node"><title>Node27</title>
<polygon fill="white" stroke="#bfbfbf" points="1052,-123.5 1052,-142.5 1190,-142.5 1190,-123.5 1052,-123.5"/>
<text text-anchor="middle" x="1121" y="-130.5" font-family="Helvetica,sans-Serif" font-size="10.00">portaudiocpp/Stream.hxx</text>
</g>
<!-- Node25&#45;&gt;Node27 -->
<g id="edge53" class="edge"><title>Node25&#45;&gt;Node27</title>
<path fill="none" stroke="midnightblue" d="M1067.73,-235.417C1029.7,-225.789 983.26,-207.654 1003,-179 1014.23,-162.702 1032.21,-152.303 1050.78,-145.669"/>
<polygon fill="midnightblue" stroke="midnightblue" points="1052.07,-148.93 1060.52,-142.531 1049.93,-142.267 1052.07,-148.93"/>
</g>
<!-- Node28 -->
<g id="node28" class="node"><title>Node28</title>
<g id="a_node28"><a xlink:href="audio__sink_8hpp.html" target="_top" xlink:title="Declaration of the AudioSink class. ">
<polygon fill="white" stroke="black" points="868,-179.5 868,-198.5 956,-198.5 956,-179.5 868,-179.5"/>
<text text-anchor="middle" x="912" y="-186.5" font-family="Helvetica,sans-Serif" font-size="10.00">audio_sink.hpp</text>
</a>
</g>
</g>
<!-- Node25&#45;&gt;Node28 -->
<g id="edge55" class="edge"><title>Node25&#45;&gt;Node28</title>
<path fill="none" stroke="midnightblue" d="M1079.47,-235.444C1045.41,-226.201 990.994,-211.436 953.485,-201.257"/>
<polygon fill="midnightblue" stroke="midnightblue" points="953.952,-197.758 943.385,-198.516 952.119,-204.513 953.952,-197.758"/>
</g>
<!-- Node28&#45;&gt;Node4 -->
<g id="edge57" class="edge"><title>Node28&#45;&gt;Node4</title>
<path fill="none" stroke="midnightblue" d="M867.852,-184.415C745.203,-174.456 401.747,-146.566 285.798,-137.151"/>
<polygon fill="midnightblue" stroke="midnightblue" points="285.868,-133.645 275.618,-136.324 285.301,-140.622 285.868,-133.645"/>
</g>
<!-- Node28&#45;&gt;Node5 -->
<g id="edge60" class="edge"><title>Node28&#45;&gt;Node5</title>
<path fill="none" stroke="midnightblue" d="M904.083,-179.36C890.131,-164.787 859.545,-135.672 827,-123 660.667,-58.2363 599.864,-131.486 427,-87 424.699,-86.4078 422.355,-85.6724 420.03,-84.8491"/>
<polygon fill="midnightblue" stroke="midnightblue" points="421.335,-81.6015 410.752,-81.1131 418.721,-88.0949 421.335,-81.6015"/>
</g>
<!-- Node28&#45;&gt;Node7 -->
<g id="edge56" class="edge"><title>Node28&#45;&gt;Node7</title>
<path fill="none" stroke="midnightblue" d="M930.186,-179.449C948.209,-170.802 976.452,-156.78 1000,-143 1060.32,-107.699 1066.99,-84.055 1131,-56 1180.56,-34.2811 1242.42,-21.8918 1280.3,-15.8111"/>
<polygon fill="midnightblue" stroke="midnightblue" points="1280.97,-19.2491 1290.31,-14.2609 1279.9,-12.3315 1280.97,-19.2491"/>
</g>
<!-- Node28&#45;&gt;Node8 -->
<g id="edge58" class="edge"><title>Node28&#45;&gt;Node8</title>
<path fill="none" stroke="midnightblue" d="M928.633,-179.464C941.488,-171.841 958.339,-159.356 966,-143 983.216,-106.243 929.395,-59.8667 923,-56 881.903,-31.1495 548.392,-16.313 442.288,-12.1871"/>
<polygon fill="midnightblue" stroke="midnightblue" points="442.308,-8.68539 432.181,-11.7999 442.04,-15.6803 442.308,-8.68539"/>
</g>
<!-- Node28&#45;&gt;Node15 -->
<g id="edge59" class="edge"><title>Node28&#45;&gt;Node15</title>
<path fill="none" stroke="midnightblue" d="M893.778,-179.444C875.104,-170.675 845.844,-156.935 824.383,-146.858"/>
<polygon fill="midnightblue" stroke="midnightblue" points="825.676,-143.599 815.137,-142.516 822.701,-149.935 825.676,-143.599"/>
</g>
<!-- Node28&#45;&gt;Node17 -->
<g id="edge61" class="edge"><title>Node28&#45;&gt;Node17</title>
<path fill="none" stroke="midnightblue" d="M881.894,-179.444C849.374,-170.201 797.421,-155.436 761.609,-145.257"/>
<polygon fill="midnightblue" stroke="midnightblue" points="762.541,-141.884 751.965,-142.516 760.627,-148.617 762.541,-141.884"/>
</g>
<!-- Node28&#45;&gt;Node18 -->
<g id="edge62" class="edge"><title>Node28&#45;&gt;Node18</title>
<path fill="none" stroke="midnightblue" d="M867.728,-180.885C809.166,-171.473 705.595,-154.828 638.92,-144.112"/>
<polygon fill="midnightblue" stroke="midnightblue" points="639.383,-140.642 628.955,-142.511 638.272,-147.553 639.383,-140.642"/>
</g>
<!-- Node28&#45;&gt;Node20 -->
<g id="edge64" class="edge"><title>Node28&#45;&gt;Node20</title>
<path fill="none" stroke="midnightblue" d="M956.071,-182.374C1032.02,-172.679 1187.69,-152.805 1274,-141.788"/>
<polygon fill="midnightblue" stroke="midnightblue" points="1274.69,-145.228 1284.17,-140.489 1273.8,-138.284 1274.69,-145.228"/>
</g>
<!-- Node28&#45;&gt;Node27 -->
<g id="edge63" class="edge"><title>Node28&#45;&gt;Node27</title>
<path fill="none" stroke="midnightblue" d="M945.117,-179.444C981.118,-170.142 1038.77,-155.246 1078.19,-145.062"/>
<polygon fill="midnightblue" stroke="midnightblue" points="1079.23,-148.407 1088.04,-142.516 1077.48,-141.629 1079.23,-148.407"/>
</g>
<!-- Node29 -->
<g id="node29" class="node"><title>Node29</title>
<g id="a_node29"><a xlink:href="ringbuffer_8hpp.html" target="_top" xlink:title="The RingBuffer class template. ">
<polygon fill="white" stroke="black" points="874.5,-123.5 874.5,-142.5 957.5,-142.5 957.5,-123.5 874.5,-123.5"/>
<text text-anchor="middle" x="916" y="-130.5" font-family="Helvetica,sans-Serif" font-size="10.00">ringbuffer.hpp</text>
</a>
</g>
</g>
<!-- Node28&#45;&gt;Node29 -->
<g id="edge65" class="edge"><title>Node28&#45;&gt;Node29</title>
<path fill="none" stroke="midnightblue" d="M912.661,-179.083C913.185,-172.006 913.936,-161.861 914.594,-152.986"/>
<polygon fill="midnightblue" stroke="midnightblue" points="918.103,-152.982 915.352,-142.751 911.123,-152.465 918.103,-152.982"/>
</g>
<!-- Node29&#45;&gt;Node11 -->
<g id="edge68" class="edge"><title>Node29&#45;&gt;Node11</title>
<path fill="none" stroke="midnightblue" d="M929.181,-123.475C944.074,-113.843 968.544,-98.0175 986.273,-86.5517"/>
<polygon fill="midnightblue" stroke="midnightblue" points="988.347,-89.3787 994.843,-81.0091 984.545,-83.5008 988.347,-89.3787"/>
</g>
<!-- Node30 -->
<g id="node30" class="node"><title>Node30</title>
<polygon fill="white" stroke="#bfbfbf" points="862,-62 862,-81 914,-81 914,-62 862,-62"/>
<text text-anchor="middle" x="888" y="-69" font-family="Helvetica,sans-Serif" font-size="10.00">cassert</text>
</g>
<!-- Node29&#45;&gt;Node30 -->
<g id="edge66" class="edge"><title>Node29&#45;&gt;Node30</title>
<path fill="none" stroke="midnightblue" d="M911.988,-123.475C907.913,-114.815 901.482,-101.149 896.304,-90.1453"/>
<polygon fill="midnightblue" stroke="midnightblue" points="899.429,-88.567 892.004,-81.0091 893.095,-91.5476 899.429,-88.567"/>
</g>
<!-- Node31 -->
<g id="node31" class="node"><title>Node31</title>
<polygon fill="white" stroke="#bfbfbf" points="718.5,-56.5 718.5,-86.5 843.5,-86.5 843.5,-56.5 718.5,-56.5"/>
<text text-anchor="start" x="726.5" y="-74.5" font-family="Helvetica,sans-Serif" font-size="10.00">../contrib/pa_ringbuffer</text>
<text text-anchor="middle" x="781" y="-63.5" font-family="Helvetica,sans-Serif" font-size="10.00">/pa_ringbuffer.h</text>
</g>
<!-- Node29&#45;&gt;Node31 -->
<g id="edge67" class="edge"><title>Node29&#45;&gt;Node31</title>
<path fill="none" stroke="midnightblue" d="M896.658,-123.475C877.263,-114.927 846.801,-101.501 822.007,-90.5734"/>
<polygon fill="midnightblue" stroke="midnightblue" points="823.379,-87.3534 812.817,-86.523 820.556,-93.7588 823.379,-87.3534"/>
</g>
<!-- Node32 -->
<g id="node32" class="node"><title>Node32</title>
<g id="a_node32"><a xlink:href="messages_8h.html" target="_top" xlink:title="Constant human&#45;readable messages used within playd. ">
<polygon fill="white" stroke="black" points="436,-62 436,-81 520,-81 520,-62 436,-62"/>
<text text-anchor="middle" x="478" y="-69" font-family="Helvetica,sans-Serif" font-size="10.00">../messages.h</text>
</a>
</g>
</g>
<!-- Node29&#45;&gt;Node32 -->
<g id="edge69" class="edge"><title>Node29&#45;&gt;Node32</title>
<path fill="none" stroke="midnightblue" d="M874.43,-125.187C869.568,-124.429 864.677,-123.685 860,-123 742.258,-105.759 603.704,-88.0955 530.11,-78.9209"/>
<polygon fill="midnightblue" stroke="midnightblue" points="530.521,-75.4452 520.165,-77.6836 529.657,-82.3916 530.521,-75.4452"/>
</g>
<!-- Node32&#45;&gt;Node8 -->
<g id="edge70" class="edge"><title>Node32&#45;&gt;Node8</title>
<path fill="none" stroke="midnightblue" d="M468.257,-61.9751C457.653,-52.6966 440.481,-37.6706 427.521,-26.331"/>
<polygon fill="midnightblue" stroke="midnightblue" points="429.555,-23.4601 419.725,-19.5091 424.946,-28.7282 429.555,-23.4601"/>
</g>
<!-- Node33&#45;&gt;Node9 -->
<g id="edge78" class="edge"><title>Node33&#45;&gt;Node9</title>
<path fill="none" stroke="midnightblue" d="M1530.78,-235.444C1512.1,-226.675 1482.84,-212.935 1461.38,-202.858"/>
<polygon fill="midnightblue" stroke="midnightblue" points="1462.68,-199.599 1452.14,-198.516 1459.7,-205.935 1462.68,-199.599"/>
</g>
<!-- Node33&#45;&gt;Node19 -->
<g id="edge79" class="edge"><title>Node33&#45;&gt;Node19</title>
<path fill="none" stroke="midnightblue" d="M1555.52,-235.251C1569.78,-214.989 1601.12,-163.485 1584,-123 1577.91,-108.591 1565.47,-96.2679 1554.29,-87.4025"/>
<polygon fill="midnightblue" stroke="midnightblue" points="1556.22,-84.4772 1546.11,-81.3198 1552.04,-90.0949 1556.22,-84.4772"/>
</g>
<!-- Node33&#45;&gt;Node20 -->
<g id="edge77" class="edge"><title>Node33&#45;&gt;Node20</title>
<path fill="none" stroke="midnightblue" d="M1551.78,-235.25C1555.53,-221.545 1560.32,-194.939 1547,-179 1527.92,-156.17 1451.5,-144.374 1395.87,-138.691"/>
<polygon fill="midnightblue" stroke="midnightblue" points="1396.04,-135.191 1385.74,-137.7 1395.36,-142.157 1396.04,-135.191"/>
</g>
<!-- Node34 -->
<g id="node34" class="node"><title>Node34</title>
<polygon fill="white" stroke="#bfbfbf" points="1506,-179.5 1506,-198.5 1538,-198.5 1538,-179.5 1506,-179.5"/>
<text text-anchor="middle" x="1522" y="-186.5" font-family="Helvetica,sans-Serif" font-size="10.00">set</text>
</g>
<!-- Node33&#45;&gt;Node34 -->
<g id="edge76" class="edge"><title>Node33&#45;&gt;Node34</title>
<path fill="none" stroke="midnightblue" d="M1544.54,-235.083C1540.85,-227.691 1535.48,-216.953 1530.91,-207.811"/>
<polygon fill="midnightblue" stroke="midnightblue" points="1533.98,-206.13 1526.38,-198.751 1527.72,-209.261 1533.98,-206.13"/>
</g>
<!-- Node35&#45;&gt;Node7 -->
<g id="edge82" class="edge"><title>Node35&#45;&gt;Node7</title>
<path fill="none" stroke="midnightblue" d="M1668.62,-235.322C1659.18,-201.623 1623.49,-80.1073 1593,-56 1555.94,-26.7017 1416.43,-15.9941 1350.25,-12.5049"/>
<polygon fill="midnightblue" stroke="midnightblue" points="1350.07,-8.99176 1339.91,-11.9874 1349.72,-15.983 1350.07,-8.99176"/>
</g>
<!-- Node35&#45;&gt;Node9 -->
<g id="edge84" class="edge"><title>Node35&#45;&gt;Node9</title>
<path fill="none" stroke="midnightblue" d="M1633.45,-235.444C1592.19,-226.043 1525.86,-210.929 1481.13,-200.739"/>
<polygon fill="midnightblue" stroke="midnightblue" points="1481.91,-197.326 1471.38,-198.516 1480.35,-204.151 1481.91,-197.326"/>
</g>
<!-- Node36 -->
<g id="node36" class="node"><title>Node36</title>
<polygon fill="white" stroke="#bfbfbf" points="1670.5,-179.5 1670.5,-198.5 1747.5,-198.5 1747.5,-179.5 1670.5,-179.5"/>
<text text-anchor="middle" x="1709" y="-186.5" font-family="Helvetica,sans-Serif" font-size="10.00">initializer_list</text>
</g>
<!-- Node35&#45;&gt;Node36 -->
<g id="edge83" class="edge"><title>Node35&#45;&gt;Node36</title>
<path fill="none" stroke="midnightblue" d="M1677.27,-235.083C1682.64,-227.455 1690.52,-216.264 1697.08,-206.941"/>
<polygon fill="midnightblue" stroke="midnightblue" points="1699.95,-208.943 1702.84,-198.751 1694.22,-204.915 1699.95,-208.943"/>
</g>
</g>
</svg>
