<?xml version="1.0" encoding="UTF-8" standalone="no"?>
<!DOCTYPE svg PUBLIC "-//W3C//DTD SVG 1.1//EN"
 "http://www.w3.org/Graphics/SVG/1.1/DTD/svg11.dtd">
<!-- Generated by graphviz version 2.36.0 (20140111.2315)
 -->
<!-- Title: src/tokeniser.hpp Pages: 1 -->
<svg width="509pt" height="196pt"
 viewBox="0.00 0.00 509.00 196.00" xmlns="http://www.w3.org/2000/svg" xmlns:xlink="http://www.w3.org/1999/xlink">
<g id="graph0" class="graph" transform="scale(1 1) rotate(0) translate(4 192)">
<title>src/tokeniser.hpp</title>
<polygon fill="white" stroke="none" points="-4,4 -4,-192 505,-192 505,4 -4,4"/>
<!-- Node0 -->
<g id="node1" class="node"><title>Node0</title>
<polygon fill="#bfbfbf" stroke="black" points="178,-168.5 178,-187.5 276,-187.5 276,-168.5 178,-168.5"/>
<text text-anchor="middle" x="227" y="-175.5" font-family="Helvetica,sans-Serif" font-size="10.00">src/tokeniser.hpp</text>
</g>
<!-- Node1 -->
<g id="node2" class="node"><title>Node1</title>
<g id="a_node2"><a xlink:href="response_8hpp.html" target="_top" xlink:title="Declaration of classes pertaining to responses to the client. ">
<polygon fill="white" stroke="black" points="186,-112.5 186,-131.5 268,-131.5 268,-112.5 186,-112.5"/>
<text text-anchor="middle" x="227" y="-119.5" font-family="Helvetica,sans-Serif" font-size="10.00">response.hpp</text>
</a>
</g>
</g>
<!-- Node0&#45;&gt;Node1 -->
<g id="edge1" class="edge"><title>Node0&#45;&gt;Node1</title>
<path fill="none" stroke="midnightblue" d="M227,-168.083C227,-161.006 227,-150.861 227,-141.986"/>
<polygon fill="midnightblue" stroke="midnightblue" points="230.5,-141.751 227,-131.751 223.5,-141.751 230.5,-141.751"/>
</g>
<!-- Node2 -->
<g id="node3" class="node"><title>Node2</title>
<polygon fill="white" stroke="#bfbfbf" points="-0.5,-56.5 -0.5,-75.5 48.5,-75.5 48.5,-56.5 -0.5,-56.5"/>
<text text-anchor="middle" x="24" y="-63.5" font-family="Helvetica,sans-Serif" font-size="10.00">cstdint</text>
</g>
<!-- Node1&#45;&gt;Node2 -->
<g id="edge2" class="edge"><title>Node1&#45;&gt;Node2</title>
<path fill="none" stroke="midnightblue" d="M194.834,-112.444C157.739,-102.576 96.977,-86.4126 58.8021,-76.2577"/>
<polygon fill="midnightblue" stroke="midnightblue" points="59.2359,-72.7514 48.6722,-73.5631 57.4364,-79.5162 59.2359,-72.7514"/>
</g>
<!-- Node3 -->
<g id="node4" class="node"><title>Node3</title>
<polygon fill="white" stroke="#bfbfbf" points="67,-56.5 67,-75.5 105,-75.5 105,-56.5 67,-56.5"/>
<text text-anchor="middle" x="86" y="-63.5" font-family="Helvetica,sans-Serif" font-size="10.00">map</text>
</g>
<!-- Node1&#45;&gt;Node3 -->
<g id="edge3" class="edge"><title>Node1&#45;&gt;Node3</title>
<path fill="none" stroke="midnightblue" d="M204.658,-112.444C180.283,-103.108 141.196,-88.1388 114.598,-77.9523"/>
<polygon fill="midnightblue" stroke="midnightblue" points="115.662,-74.6122 105.072,-74.3042 113.159,-81.1492 115.662,-74.6122"/>
</g>
<!-- Node4 -->
<g id="node5" class="node"><title>Node4</title>
<polygon fill="white" stroke="#bfbfbf" points="123.5,-56.5 123.5,-75.5 180.5,-75.5 180.5,-56.5 123.5,-56.5"/>
<text text-anchor="middle" x="152" y="-63.5" font-family="Helvetica,sans-Serif" font-size="10.00">memory</text>
</g>
<!-- Node1&#45;&gt;Node4 -->
<g id="edge4" class="edge"><title>Node1&#45;&gt;Node4</title>
<path fill="none" stroke="midnightblue" d="M214.95,-112.324C203.537,-104.107 186.169,-91.6017 172.565,-81.8069"/>
<polygon fill="midnightblue" stroke="midnightblue" points="174.43,-78.8366 164.269,-75.8339 170.34,-84.5174 174.43,-78.8366"/>
</g>
<!-- Node5 -->
<g id="node6" class="node"><title>Node5</title>
<polygon fill="white" stroke="#bfbfbf" points="198.5,-56.5 198.5,-75.5 255.5,-75.5 255.5,-56.5 198.5,-56.5"/>
<text text-anchor="middle" x="227" y="-63.5" font-family="Helvetica,sans-Serif" font-size="10.00">ostream</text>
</g>
<!-- Node1&#45;&gt;Node5 -->
<g id="edge5" class="edge"><title>Node1&#45;&gt;Node5</title>
<path fill="none" stroke="midnightblue" d="M227,-112.083C227,-105.006 227,-94.8611 227,-85.9865"/>
<polygon fill="midnightblue" stroke="midnightblue" points="230.5,-85.751 227,-75.7511 223.5,-85.7511 230.5,-85.751"/>
</g>
<!-- Node6 -->
<g id="node7" class="node"><title>Node6</title>
<polygon fill="white" stroke="#bfbfbf" points="274,-56.5 274,-75.5 318,-75.5 318,-56.5 274,-56.5"/>
<text text-anchor="middle" x="296" y="-63.5" font-family="Helvetica,sans-Serif" font-size="10.00">string</text>
</g>
<!-- Node1&#45;&gt;Node6 -->
<g id="edge6" class="edge"><title>Node1&#45;&gt;Node6</title>
<path fill="none" stroke="midnightblue" d="M238.086,-112.324C248.486,-104.185 264.261,-91.8395 276.722,-82.0874"/>
<polygon fill="midnightblue" stroke="midnightblue" points="278.994,-84.7533 284.712,-75.8339 274.68,-79.2407 278.994,-84.7533"/>
</g>
<!-- Node7 -->
<g id="node8" class="node"><title>Node7</title>
<polygon fill="white" stroke="#bfbfbf" points="336.5,-56.5 336.5,-75.5 383.5,-75.5 383.5,-56.5 336.5,-56.5"/>
<text text-anchor="middle" x="360" y="-63.5" font-family="Helvetica,sans-Serif" font-size="10.00">vector</text>
</g>
<!-- Node1&#45;&gt;Node7 -->
<g id="edge7" class="edge"><title>Node1&#45;&gt;Node7</title>
<path fill="none" stroke="midnightblue" d="M248.074,-112.444C270.06,-103.517 304.734,-89.4387 329.664,-79.3168"/>
<polygon fill="midnightblue" stroke="midnightblue" points="331.076,-82.5213 339.024,-75.5164 328.442,-76.0355 331.076,-82.5213"/>
</g>
<!-- Node8 -->
<g id="node9" class="node"><title>Node8</title>
<g id="a_node9"><a xlink:href="errors_8hpp.html" target="_top" xlink:title="Declarations of the playd Error exception set. ">
<polygon fill="white" stroke="black" points="402,-56.5 402,-75.5 468,-75.5 468,-56.5 402,-56.5"/>
<text text-anchor="middle" x="435" y="-63.5" font-family="Helvetica,sans-Serif" font-size="10.00">errors.hpp</text>
</a>
</g>
</g>
<!-- Node1&#45;&gt;Node8 -->
<g id="edge8" class="edge"><title>Node1&#45;&gt;Node8</title>
<path fill="none" stroke="midnightblue" d="M259.958,-112.444C295.787,-103.142 353.163,-88.246 392.391,-78.062"/>
<polygon fill="midnightblue" stroke="midnightblue" points="393.396,-81.4171 402.196,-75.5164 391.637,-74.6417 393.396,-81.4171"/>
</g>
<!-- Node9 -->
<g id="node10" class="node"><title>Node9</title>
<polygon fill="white" stroke="#bfbfbf" points="367.5,-0.5 367.5,-19.5 426.5,-19.5 426.5,-0.5 367.5,-0.5"/>
<text text-anchor="middle" x="397" y="-7.5" font-family="Helvetica,sans-Serif" font-size="10.00">iostream</text>
</g>
<!-- Node8&#45;&gt;Node9 -->
<g id="edge9" class="edge"><title>Node8&#45;&gt;Node9</title>
<path fill="none" stroke="midnightblue" d="M428.725,-56.083C423.358,-48.4554 415.482,-37.2645 408.921,-27.9408"/>
<polygon fill="midnightblue" stroke="midnightblue" points="411.775,-25.9149 403.158,-19.7511 406.051,-29.9434 411.775,-25.9149"/>
</g>
<!-- Node10 -->
<g id="node11" class="node"><title>Node10</title>
<polygon fill="white" stroke="#bfbfbf" points="445,-0.5 445,-19.5 501,-19.5 501,-0.5 445,-0.5"/>
<text text-anchor="middle" x="473" y="-7.5" font-family="Helvetica,sans-Serif" font-size="10.00">sstream</text>
</g>
<!-- Node8&#45;&gt;Node10 -->
<g id="edge10" class="edge"><title>Node8&#45;&gt;Node10</title>
<path fill="none" stroke="midnightblue" d="M441.275,-56.083C446.642,-48.4554 454.518,-37.2645 461.079,-27.9408"/>
<polygon fill="midnightblue" stroke="midnightblue" points="463.949,-29.9434 466.842,-19.7511 458.225,-25.9149 463.949,-29.9434"/>
</g>
</g>
</svg>
