<?xml version="1.0" encoding="UTF-8" standalone="no"?>
<!DOCTYPE svg PUBLIC "-//W3C//DTD SVG 1.1//EN"
 "http://www.w3.org/Graphics/SVG/1.1/DTD/svg11.dtd">
<!-- Generated by graphviz version 2.38.0 (20140413.2041)
 -->
<!-- Title: src/io/tokeniser.hpp Pages: 1 -->
<svg width="331pt" height="196pt"
 viewBox="0.00 0.00 331.00 196.00" xmlns="http://www.w3.org/2000/svg" xmlns:xlink="http://www.w3.org/1999/xlink">
<g id="graph0" class="graph" transform="scale(1 1) rotate(0) translate(4 192)">
<title>src/io/tokeniser.hpp</title>
<polygon fill="white" stroke="none" points="-4,4 -4,-192 327,-192 327,4 -4,4"/>
<!-- Node1 -->
<g id="node1" class="node"><title>Node1</title>
<polygon fill="#bfbfbf" stroke="black" points="143.5,-168.5 143.5,-187.5 252.5,-187.5 252.5,-168.5 143.5,-168.5"/>
<text text-anchor="middle" x="198" y="-175.5" font-family="Helvetica,sans-Serif" font-size="10.00">src/io/tokeniser.hpp</text>
</g>
<!-- Node2 -->
<g id="node2" class="node"><title>Node2</title>
<g id="a_node2"><a xlink:href="io__core_8hpp.html" target="_top" xlink:title="Declaration of the IoCore class. ">
<polygon fill="white" stroke="black" points="77.5,-112.5 77.5,-131.5 178.5,-131.5 178.5,-112.5 77.5,-112.5"/>
<text text-anchor="middle" x="128" y="-119.5" font-family="Helvetica,sans-Serif" font-size="10.00">src/io/io_core.hpp</text>
</a>
</g>
</g>
<!-- Node1&#45;&gt;Node2 -->
<g id="edge1" class="edge"><title>Node1&#45;&gt;Node2</title>
<path fill="none" stroke="midnightblue" d="M178.686,-162.101C166.088,-152.382 150.072,-140.027 139.451,-131.834"/>
<polygon fill="midnightblue" stroke="midnightblue" points="176.698,-164.987 186.753,-168.324 180.973,-159.445 176.698,-164.987"/>
</g>
<!-- Node6 -->
<g id="node6" class="node"><title>Node6</title>
<g id="a_node6"><a xlink:href="tokeniser_8cpp.html" target="_top" xlink:title="Definition of the Tokeniser class. ">
<polygon fill="white" stroke="black" points="215,-112.5 215,-131.5 323,-131.5 323,-112.5 215,-112.5"/>
<text text-anchor="middle" x="269" y="-119.5" font-family="Helvetica,sans-Serif" font-size="10.00">src/io/tokeniser.cpp</text>
</a>
</g>
</g>
<!-- Node1&#45;&gt;Node6 -->
<g id="edge7" class="edge"><title>Node1&#45;&gt;Node6</title>
<path fill="none" stroke="midnightblue" d="M217.59,-162.101C230.368,-152.382 246.613,-140.027 257.385,-131.834"/>
<polygon fill="midnightblue" stroke="midnightblue" points="215.248,-159.484 209.407,-168.324 219.486,-165.056 215.248,-159.484"/>
</g>
<!-- Node2&#45;&gt;Node2 -->
<g id="edge3" class="edge"><title>Node2&#45;&gt;Node2</title>
<path fill="none" stroke="midnightblue" d="M167.318,-132.432C183.173,-133.04 196.5,-129.563 196.5,-122 196.5,-112.867 177.066,-109.692 157.215,-112.475"/>
<polygon fill="midnightblue" stroke="midnightblue" points="167.488,-128.933 157.215,-131.525 166.862,-135.905 167.488,-128.933"/>
</g>
<!-- Node3 -->
<g id="node3" class="node"><title>Node3</title>
<g id="a_node3"><a xlink:href="io__core_8cpp.html" target="_top" xlink:title="Implementation of the non&#45;virtual aspects of the IoCore class. ">
<polygon fill="white" stroke="black" points="0,-56.5 0,-75.5 100,-75.5 100,-56.5 0,-56.5"/>
<text text-anchor="middle" x="50" y="-63.5" font-family="Helvetica,sans-Serif" font-size="10.00">src/io/io_core.cpp</text>
</a>
</g>
</g>
<!-- Node2&#45;&gt;Node3 -->
<g id="edge2" class="edge"><title>Node2&#45;&gt;Node3</title>
<path fill="none" stroke="midnightblue" d="M107.232,-106.622C92.9829,-96.7574 74.5438,-83.9919 62.5009,-75.6545"/>
<polygon fill="midnightblue" stroke="midnightblue" points="105.254,-109.51 115.468,-112.324 109.238,-103.754 105.254,-109.51"/>
</g>
<!-- Node4 -->
<g id="node4" class="node"><title>Node4</title>
<g id="a_node4"><a xlink:href="main_8cpp.html" target="_top" xlink:title="Main entry point and implementation of the playd class. ">
<polygon fill="white" stroke="black" points="123,-0.5 123,-19.5 199,-19.5 199,-0.5 123,-0.5"/>
<text text-anchor="middle" x="161" y="-7.5" font-family="Helvetica,sans-Serif" font-size="10.00">src/main.cpp</text>
</a>
</g>
</g>
<!-- Node2&#45;&gt;Node4 -->
<g id="edge4" class="edge"><title>Node2&#45;&gt;Node4</title>
<path fill="none" stroke="midnightblue" d="M133.498,-102.674C140.713,-78.6248 153.084,-37.3881 158.423,-19.5914"/>
<polygon fill="midnightblue" stroke="midnightblue" points="130.111,-101.784 130.589,-112.368 136.815,-103.796 130.111,-101.784"/>
</g>
<!-- Node5 -->
<g id="node5" class="node"><title>Node5</title>
<g id="a_node5"><a xlink:href="main_8hpp.html" target="_top" xlink:title="Declaration of the playd class. ">
<polygon fill="white" stroke="black" points="156.5,-56.5 156.5,-75.5 233.5,-75.5 233.5,-56.5 156.5,-56.5"/>
<text text-anchor="middle" x="195" y="-63.5" font-family="Helvetica,sans-Serif" font-size="10.00">src/main.hpp</text>
</a>
</g>
</g>
<!-- Node2&#45;&gt;Node5 -->
<g id="edge5" class="edge"><title>Node2&#45;&gt;Node5</title>
<path fill="none" stroke="midnightblue" d="M146.835,-105.82C158.838,-96.1452 173.972,-83.9481 184.039,-75.8339"/>
<polygon fill="midnightblue" stroke="midnightblue" points="144.354,-103.324 138.765,-112.324 148.747,-108.774 144.354,-103.324"/>
</g>
<!-- Node5&#45;&gt;Node4 -->
<g id="edge6" class="edge"><title>Node5&#45;&gt;Node4</title>
<path fill="none" stroke="midnightblue" d="M184.023,-47.5656C178.173,-38.2747 171.23,-27.2484 166.51,-19.7511"/>
<polygon fill="midnightblue" stroke="midnightblue" points="181.096,-49.4855 189.386,-56.083 187.019,-45.7558 181.096,-49.4855"/>
</g>
</g>
</svg>
